<?xml version="1.0" standalone="no"?>
<!DOCTYPE svg PUBLIC "-//W3C//DTD SVG 1.1//EN" "http://www.w3.org/Graphics/SVG/1.1/DTD/svg11.dtd" >
<svg xmlns="http://www.w3.org/2000/svg" xmlns:xlink="http://www.w3.org/1999/xlink" version="1.1">
<metadata>
Created by FontForge 20170731 at Mon Jan 30 21:47:20 2023
 By Aleksey,,,
Copyright (c) 2021 by Enxyclo Studio. All rights reserved.
</metadata>
<defs>
<font id="OSCURA-Regular" horiz-adv-x="2041" >
  <font-face 
    font-family="OSCURA"
    font-weight="400"
    font-stretch="normal"
    units-per-em="2048"
    panose-1="0 0 0 0 0 0 0 0 0 0"
    ascent="1536"
    descent="-512"
    x-height="1434"
    cap-height="1434"
    bbox="60 -276 1982 1540"
    underline-thickness="102"
    underline-position="-358"
    unicode-range="U+000D-2212"
  />
<missing-glyph horiz-adv-x="512" 
 />
    <glyph glyph-name=".notdef" horiz-adv-x="512" 
 />
    <glyph glyph-name="uni0000" horiz-adv-x="0" 
 />
    <glyph glyph-name="uni0000" horiz-adv-x="0" 
 />
    <glyph glyph-name="uni000D" unicode="&#xd;" horiz-adv-x="681" 
 />
    <glyph glyph-name="space" unicode=" " horiz-adv-x="921" 
 />
    <glyph glyph-name="exclam" unicode="!" horiz-adv-x="462" 
d="M61 442v992h338v-992h-338zM61 0v338h338v-338h-338z" />
    <glyph glyph-name="quotedbl" unicode="&#x22;" horiz-adv-x="1003" 
d="M164 1434h338v-187q-6 -178 -134 -302t-307 -124v336q39 0 69 25.5t36 64.5h-2v187zM604 1247v187h338v-187q-6 -179 -134 -302.5t-306 -123.5v336q38 0 68 26t34 64z" />
    <glyph glyph-name="numbersign" unicode="#" horiz-adv-x="1558" 
d="M389 1212v222h336v-222q0 -184 -128.5 -313t-313.5 -129h-222v336h222q44 0 75 31.5t31 74.5zM1169 1434v-222q0 -44 31 -75t74 -31h221v-336h-221q-185 0 -314 129t-129 313v222h338zM61 664h222q184 0 313 -129t129 -314v-221h-336v221q0 44 -31 75.5t-75 31.5h-222
v336zM831 221q0 185 129.5 314t313.5 129h221v-336h-221q-43 0 -74 -31.5t-31 -75.5v-221h-338v221z" />
    <glyph glyph-name="dollar" unicode="$" horiz-adv-x="2043" 
d="M854 1540h338v-106h790v-338h-790v-211h346q185 0 314.5 -129.5t129.5 -313.5q0 -183 -130 -312.5t-314 -129.5h-346v-106h-338v106h-791v338h791v211h-348q-183 0 -313 129t-130 313q0 183 130 313t313 130h348v106zM506 885h348v211h-348q-43 0 -74 -31t-31 -74
q0 -44 31 -75t74 -31zM1538 549h-346v-211h346q44 0 75.5 30.5t31.5 73.5q0 44 -31.5 75.5t-75.5 31.5z" />
    <glyph glyph-name="percent" unicode="%" horiz-adv-x="1398" 
d="M999 1284v150h338v-150q0 -89 -35.5 -172.5t-99.5 -144.5l-770 -742q-33 -29 -33 -75v-150h-338v150q0 186 136 319l770 739q32 28 32 76zM61 1434h338v-338h-338v338zM1337 0h-338v338h338v-338z" />
    <glyph glyph-name="ampersand" unicode="&#x26;" horiz-adv-x="2043" 
d="M1642 442v107h338v-107q0 -153 -94 -274q94 -121 94 -274l-338 2q0 43 -30 73.5t-74 30.5h-1034q-183 0 -313 129.5t-130 312.5t130 313t313 130h1034q43 0 75 31t32 75h-3q0 43 -30.5 74t-73.5 31h-1034q-43 0 -74 -31t-31 -74v-106h-338v106q0 183 130 313t313 130
h1034q183 0 312.5 -130t129.5 -313q0 -184 -129.5 -313t-312.5 -129v-2h-1034q-43 0 -74 -31t-31 -74q0 -42 31 -73t74 -33v2h1036q43 0 73 30.5t29 73.5z" />
    <glyph glyph-name="quotesingle" unicode="'" horiz-adv-x="567" 
d="M166 1245v189h338v-189q-6 -179 -134.5 -302.5t-308.5 -123.5v336q39 0 69 25.5t36 64.5z" />
    <glyph glyph-name="parenleft" unicode="(" horiz-adv-x="671" 
d="M61 442v549q0 183 130 313t313 130h106v-338h-106q-43 0 -74 -31t-31 -74v-549q0 -43 31 -73.5t74 -30.5h106v-338h-106q-183 0 -313 129.5t-130 312.5z" />
    <glyph glyph-name="parenright" unicode=")" horiz-adv-x="671" 
d="M61 1434h107q183 0 312.5 -130t129.5 -313v-549q0 -183 -129.5 -312.5t-312.5 -129.5h-107v338h107q43 0 73.5 30.5t30.5 73.5v549q0 43 -30.5 74t-73.5 31h-107v338z" />
    <glyph glyph-name="asterisk" unicode="*" horiz-adv-x="1079" 
d="M778 948l-239 240l239 237l238 -237zM301 948l-240 240l240 237l238 -237zM852 874l164 -163l-238 -240l-164 164q-29 33 -75 33q-45 0 -74 -33l-164 -164l-240 240l164 163q133 130 314 130q183 0 313 -130z" />
    <glyph glyph-name="plus" unicode="+" horiz-adv-x="1134" 
d="M735 885h-336v338h336v-338zM61 549v336h232q184 0 313 -129t129 -314v-231h-336v231q0 44 -31 75.5t-75 31.5h-232zM1073 549h-338v336h338v-336z" />
    <glyph glyph-name="comma" unicode="," horiz-adv-x="567" 
d="M168 150v188h338v-188q-6 -179 -134.5 -302.5t-308.5 -123.5v337q39 0 69 26t36 63z" />
    <glyph glyph-name="hyphen" unicode="-" horiz-adv-x="1134" 
d="M61 547v336h1010v-336h-1010z" />
    <glyph glyph-name="period" unicode="." horiz-adv-x="460" 
d="M61 0v338h338v-338h-338z" />
    <glyph glyph-name="slash" unicode="/" horiz-adv-x="1398" 
d="M999 1284v150h338v-150q0 -89 -35.5 -172.5t-99.5 -144.5l-770 -742q-33 -29 -33 -75v-150h-338v150q0 186 136 319l770 739q32 28 32 76z" />
    <glyph glyph-name="zero" unicode="0" 
d="M504 1434h1034q183 0 312.5 -130t129.5 -313v-549q0 -183 -129.5 -312.5t-312.5 -129.5h-1034q-183 0 -313 129.5t-130 312.5v549q0 183 130 313t313 130zM399 991v-549q0 -45 33 -75l729 729h-657q-43 0 -74 -31t-31 -74zM1642 442v549q0 47 -32 76l-729 -729h657
q43 0 73.5 30.5t30.5 73.5z" />
    <glyph glyph-name="one" unicode="1" horiz-adv-x="671" 
d="M608 1020h2v-1020h-338v991q0 43 -30.5 74t-73.5 31h-107v338h107q174 0 301.5 -120t138.5 -294z" />
    <glyph glyph-name="two" unicode="2" 
d="M61 1434h1477q183 0 312.5 -130t129.5 -313q0 -184 -129.5 -313t-312.5 -129h-1034q-43 0 -74 -31.5t-31 -75.5q0 -43 31 -73.5t74 -30.5h1476v-338h-1476q-183 0 -313 129.5t-130 312.5q0 184 130 313.5t313 129.5h1034q43 0 73.5 31t30.5 75q0 43 -30.5 74t-73.5 31
h-1477v338z" />
    <glyph glyph-name="three" unicode="3" horiz-adv-x="2043" 
d="M61 1434h1477q183 0 312.5 -130t129.5 -313v-106h-338v106q0 43 -30.5 74t-73.5 31h-1477v338zM61 885h1477q183 0 312.5 -129.5t129.5 -313.5q0 -183 -129.5 -312.5t-312.5 -129.5h-1477v338h1477q43 0 73.5 30.5t30.5 73.5t-31 75t-73 32h-1477v336z" />
    <glyph glyph-name="four" unicode="4" 
d="M1980 457v-457h-338v457q0 44 -30.5 74t-73.5 30h-1034v2q-184 0 -313.5 129.5t-129.5 313.5v428h338v-428q0 -42 31 -76q31 -31 74 -31h1034q184 0 313 -128.5t129 -313.5zM1642 1434h338v-535h-338v535z" />
    <glyph glyph-name="five" unicode="5" 
d="M61 0v338h1477q43 0 74 31q30 27 30 73q0 44 -30.5 75.5t-73.5 31.5h-745q-185 0 -314 129l-348 348q-70 70 -70 170q0 99 70.5 168.5t169.5 69.5h1679v-338h-1441l180 -178q33 -33 74 -33h745q184 0 313 -129t129 -314q0 -183 -129.5 -312.5t-312.5 -129.5h-1477z" />
    <glyph glyph-name="six" unicode="6" 
d="M1980 1096h-1476q-43 0 -74 -31t-31 -74v-106h-338v106q0 183 130 313t313 130h1476v-338zM1538 885q183 0 312.5 -129.5t129.5 -313.5q0 -183 -129.5 -312.5t-312.5 -129.5h-1034q-183 0 -313 129.5t-130 312.5q0 184 130 313.5t313 129.5h1034zM1538 549h-1034
q-43 0 -74 -32t-31 -75t31 -73.5t74 -30.5h1034q43 0 73.5 30.5t30.5 73.5t-31 75t-73 32z" />
    <glyph glyph-name="seven" unicode="7" 
d="M61 1434h1477q183 0 312.5 -130t129.5 -313q0 -184 -129 -313l-389 -387q-30 -33 -30 -76v-215h-336v217q0 88 33.5 168.5t95.5 142.5l387 387q30 30 30 76q0 43 -30.5 74t-73.5 31h-1477v338z" />
    <glyph glyph-name="eight" unicode="8" 
d="M504 1434h1034q183 0 312.5 -130t129.5 -313v-106h-338v106q0 43 -30.5 74t-73.5 31h-1034q-43 0 -74 -31t-31 -74v-106h-338v106q0 183 130 313t313 130zM61 442q0 184 130 313.5t313 129.5h1034q183 0 312.5 -129.5t129.5 -313.5q0 -183 -129.5 -312.5t-312.5 -129.5
h-1034q-183 0 -313 129.5t-130 312.5zM1538 338q43 0 73.5 30.5t30.5 73.5t-31 75t-73 32h-1034q-43 0 -74 -32t-31 -75t31 -73.5t74 -30.5h1034z" />
    <glyph glyph-name="nine" unicode="9" 
d="M1096 887h442q183 0 312.5 -130.5t129.5 -314.5q0 -183 -129.5 -312.5t-312.5 -129.5h-1477v338h1477q43 0 73.5 30.5t30.5 73.5q0 44 -30.5 75.5t-73.5 31.5h-1034q-183 0 -313 129t-130 313q0 183 130 313t313 130h1034q183 0 312.5 -130t129.5 -313v-106h-338v106
q0 43 -30.5 74t-73.5 31h-1034q-38 0 -66.5 -23.5t-36.5 -60.5v-4q-2 -4 -2 -17q0 -43 31 -74.5t74 -31.5h592v2z" />
    <glyph glyph-name="colon" unicode=":" horiz-adv-x="462" 
d="M63 559v338h338v-338h-338zM63 0v338h338v-338h-338z" />
    <glyph glyph-name="semicolon" unicode=";" horiz-adv-x="567" 
d="M166 559v338h338v-338h-338zM166 150v188h338v-188q-6 -178 -134 -302t-307 -124v335q38 0 68.5 26.5t34.5 64.5z" />
    <glyph glyph-name="less" unicode="&#x3c;" horiz-adv-x="946" 
d="M885 0h-107q-181 0 -313 129l-275 274q-85 86 -115 200t0 228t115 199l275 275q132 129 313 129h107v-338h-107q-45 0 -73 -31l-275 -274q-31 -31 -31 -74t31 -74l275 -274q28 -31 73 -31h107v-338z" />
    <glyph glyph-name="equal" unicode="=" horiz-adv-x="1140" 
d="M61 770v338h1016v-338h-1016zM61 326v338h1016v-338h-1016z" />
    <glyph glyph-name="greater" unicode="&#x3e;" horiz-adv-x="946" 
d="M61 0v338h107q43 0 74 31l274 274q31 31 31 74t-31 74l-274 274q-31 31 -74 31h-107v338h107q181 0 313 -129l273 -275q130 -130 130 -313t-130 -314l-273 -274q-132 -129 -313 -129h-107z" />
    <glyph glyph-name="question" unicode="?" 
d="M61 1434h1475q184 0 314 -130t130 -313t-130 -312.5t-314 -129.5h-244q-43 0 -73.5 -31t-30.5 -74l-336 -2q0 185 129 315t313 130h242q44 0 75 30.5t31 73.5t-31 74t-75 31h-1475v338zM1190 0h-338v338h338v-338z" />
    <glyph glyph-name="at" unicode="@" 
d="M504 1434h1034q183 0 312.5 -130t129.5 -313v-549q0 -183 -129.5 -312.5t-312.5 -129.5h-590q-184 0 -314 129.5t-130 312.5q0 184 129.5 313.5t314.5 129.5h590v-336h-590q-44 0 -75 -32t-31 -75t31 -73.5t75 -30.5h590q43 0 73.5 30.5t30.5 73.5v549q0 43 -30.5 74
t-73.5 31h-1034q-43 0 -74 -31t-31 -74v-991h-338v991q0 183 130 313t313 130z" />
    <glyph glyph-name="A" unicode="A" 
d="M504 1434h1034q183 0 312.5 -130t129.5 -313v-106h-338v106q0 43 -30.5 74t-73.5 31h-1034q-43 0 -74 -31t-31 -74v-106h-338v106q0 183 130 313t313 130zM61 0v442q0 184 130 313.5t313 129.5h1034q183 0 312.5 -129.5t129.5 -313.5v-442h-338v442q0 44 -30.5 75.5
t-73.5 31.5h-1034q-43 0 -74 -31.5t-31 -75.5v-442h-338z" />
    <glyph glyph-name="B" unicode="B" 
d="M1980 991v-106h-338v106q0 43 -30.5 74t-73.5 31h-1034q-43 0 -74 -30.5t-31 -74.5v-991h-338v991q0 183 130 313t313 130h1034q183 0 312.5 -130t129.5 -313zM504 885h1034q183 0 312.5 -129.5t129.5 -313.5q0 -183 -129.5 -312.5t-312.5 -129.5h-1034v338h1034
q43 0 73.5 30.5t30.5 73.5q0 44 -30.5 75.5t-73.5 31.5h-1034v336z" />
    <glyph glyph-name="C" unicode="C" 
d="M1980 1096h-1476q-43 0 -74 -31t-31 -74v-549q0 -43 31 -73.5t74 -30.5h1476v-338h-1476q-183 0 -313 129.5t-130 312.5v549q0 183 130 313t313 130h1476v-338z" />
    <glyph glyph-name="D" unicode="D" 
d="M504 1434h1034q183 0 312.5 -130t129.5 -313v-549q0 -183 -129.5 -312.5t-312.5 -129.5h-1034v338h1034q43 0 73.5 30.5t30.5 73.5v549q0 43 -30.5 74t-73.5 31h-1034q-43 0 -74 -31t-31 -74v-991h-338v991q0 183 130 313t313 130z" />
    <glyph glyph-name="E" unicode="E" horiz-adv-x="2043" 
d="M504 1434h1476v-338h-1476q-43 0 -74 -31t-31 -74v-106h-338v106q0 183 130 313t313 130zM61 442q0 184 130 313.5t313 129.5h1476v-336h-1476q-43 0 -74 -32t-31 -75t31 -73.5t74 -30.5h1476v-338h-1476q-183 0 -313 129.5t-130 312.5z" />
    <glyph glyph-name="F" unicode="F" 
d="M504 1434h1476v-338h-1476q-43 0 -74 -31t-31 -74v-106h-338v106q0 183 130 313t313 130zM61 0v442q0 184 130 313.5t313 129.5h1476v-336h-1476q-43 0 -74 -31.5t-31 -75.5v-442h-338z" />
    <glyph glyph-name="G" unicode="G" 
d="M399 991v-549q0 -43 31 -73.5t74 -30.5h1034q36 0 67 24t35 60v4q2 4 2 16q0 43 -31 75t-73 32h-1034v336h1034q183 0 312.5 -129.5t129.5 -313.5q0 -183 -129.5 -312.5t-312.5 -129.5h-1034q-183 0 -313 129.5t-130 312.5v549q0 183 130 313t313 130h1476v-338h-1476
q-43 0 -74 -31t-31 -74z" />
    <glyph glyph-name="H" unicode="H" 
d="M61 885v549h338v-549h-338zM1642 885v549h338v-549h-338zM504 885h1034q183 0 312.5 -129.5t129.5 -313.5v-442h-338v442q0 44 -30.5 75.5t-73.5 31.5h-1034q-43 0 -74 -31.5t-31 -75.5v-442h-338v442q0 184 130 313.5t313 129.5z" />
    <glyph glyph-name="I" unicode="I" horiz-adv-x="460" 
d="M61 0v1434h338v-1434h-338z" />
    <glyph glyph-name="J" unicode="J" 
d="M1642 442v992h338v-992q0 -183 -129.5 -312.5t-312.5 -129.5h-1477v338h1477q43 0 73.5 30.5t30.5 73.5z" />
    <glyph glyph-name="K" unicode="K" 
d="M1642 885v549h338v-549h-338zM61 0v1434h338v-1434h-338zM504 885h1034q183 0 312.5 -129.5t129.5 -313.5v-442h-338v442q0 44 -30.5 75.5t-73.5 31.5h-1034v336z" />
    <glyph glyph-name="L" unicode="L" 
d="M399 1434v-992q0 -43 31 -73.5t74 -30.5h1476v-338h-1476q-183 0 -313 129.5t-130 312.5v992h338z" />
    <glyph glyph-name="M" unicode="M" 
d="M1190 1434h348q183 0 312.5 -130t129.5 -313v-991h-338v991q0 43 -30.5 74t-73.5 31h-348v338zM504 1434h244q183 0 312.5 -130t129.5 -313v-991h-338v991q0 43 -30.5 74t-73.5 31h-244q-43 0 -74 -31t-31 -74v-991h-338v991q0 183 130 313t313 130z" />
    <glyph glyph-name="N" unicode="N" 
d="M504 1434h1034q183 0 312.5 -130t129.5 -313v-991h-338v991q0 43 -30.5 74t-73.5 31h-1034q-43 0 -74 -31t-31 -74v-991h-338v991q0 183 130 313t313 130z" />
    <glyph glyph-name="O" unicode="O" 
d="M504 1434h1034q183 0 312.5 -130t129.5 -313v-549q0 -183 -129.5 -312.5t-312.5 -129.5h-1034q-183 0 -313 129.5t-130 312.5v549q0 183 130 313t313 130zM1642 442v549q0 43 -30.5 74t-73.5 31h-1034q-43 0 -74 -31t-31 -74v-549q0 -43 31 -73.5t74 -30.5h1034
q43 0 73.5 30.5t30.5 73.5z" />
    <glyph glyph-name="P" unicode="P" 
d="M1980 991q0 -184 -129.5 -313t-312.5 -129h-1034q-43 0 -74 -31.5t-31 -75.5v-442h-338v442q0 183 130 313t313 130h1034q43 0 73.5 31t30.5 75q0 43 -30.5 74t-73.5 31h-1034q-43 0 -74 -31t-31 -74v-106h-338v106q0 183 130 313t313 130h1034q183 0 312.5 -130
t129.5 -313z" />
    <glyph glyph-name="Q" unicode="Q" 
d="M1980 991v-653h-338v653q0 43 -30.5 74t-73.5 31h-1034q-43 0 -74 -30.5t-31 -74.5v-549q0 -43 30.5 -73.5t74.5 -30.5h1032q184 0 314 -129.5t130 -312.5h-338q0 43 -30.5 73.5t-73.5 30.5h-1034q-183 0 -313 129.5t-130 312.5v549q0 183 130 313t313 130h1032
q184 0 314 -130t130 -313z" />
    <glyph glyph-name="R" unicode="R" 
d="M504 1434h1034q183 0 312.5 -130t129.5 -313v-106h-338v106q0 43 -30.5 74t-73.5 31h-1034q-43 0 -74 -31t-31 -74v-991h-338v991q0 183 130 313t313 130zM504 885h1034q183 0 312.5 -129.5t129.5 -313.5v-442h-338v442q0 44 -30.5 75.5t-73.5 31.5h-1034v336z" />
    <glyph glyph-name="S" unicode="S" 
d="M61 991q0 183 130 313t313 130h1476v-338h-1476q-43 0 -74 -31t-31 -74q0 -44 31 -75t74 -31h1034q183 0 312.5 -129.5t129.5 -313.5q0 -183 -129.5 -312.5t-312.5 -129.5h-1477v338h1477q43 0 73.5 30.5t30.5 73.5q0 44 -30.5 75.5t-73.5 31.5h-1034q-183 0 -313 129
t-130 313z" />
    <glyph glyph-name="T" unicode="T" 
d="M1188 1020h2v-1020h-338v991q0 43 -30.5 74t-73.5 31h-687v338h687q174 0 301.5 -120t138.5 -294zM1980 1096h-790v338h790v-338z" />
    <glyph glyph-name="U" unicode="U" 
d="M1642 442v992h338v-992q0 -183 -129.5 -312.5t-312.5 -129.5h-1034q-183 0 -313 129.5t-130 312.5v992h338v-992q0 -43 31 -73.5t74 -30.5h1034q43 0 73.5 30.5t30.5 73.5z" />
    <glyph glyph-name="V" unicode="V" 
d="M1642 958v476h338v-476q0 -88 -33.5 -168.5t-95.5 -142.5l-518 -518q-129 -129 -311 -129q-184 0 -313 129l-519 518q-62 62 -95.5 142.5t-33.5 168.5v476h338v-473q0 -45 31 -76l516 -516q31 -31 76 -31q43 0 74 31l516 516q30 30 30 73z" />
    <glyph glyph-name="W" unicode="W" 
d="M399 1434v-992q0 -43 31 -73.5t74 -30.5h348v-338h-348q-183 0 -313 129.5t-130 312.5v992h338zM1642 442v992h338v-992q0 -183 -129.5 -312.5t-312.5 -129.5h-244q-183 0 -312.5 129.5t-129.5 312.5v992h338v-992q0 -43 30.5 -73.5t73.5 -30.5h244q43 0 73.5 30.5
t30.5 73.5z" />
    <glyph glyph-name="X" unicode="X" 
d="M1642 1280v154h338v-154q0 -182 -131 -313l-247 -250l247 -250q131 -128 131 -313v-154h-338v154q0 45 -30 75l-320 320h-542l-320 -320q-31 -31 -31 -75v-154h-338v154q0 184 129 313l250 250l-250 250q-129 132 -129 313v154h338v-154q0 -45 31 -76l320 -319h542
l320 319q30 30 30 76z" />
    <glyph glyph-name="Y" unicode="Y" 
d="M504 885h1034q183 0 312.5 -129.5t129.5 -313.5q0 -183 -129.5 -312.5t-312.5 -129.5h-1477v338h1477q43 0 73.5 30.5t30.5 73.5q0 44 -30.5 75.5t-73.5 31.5h-1034q-183 0 -313 129t-130 313v443h338v-443q0 -43 31 -74.5t74 -31.5zM1642 1434h338v-549h-338v549z" />
    <glyph glyph-name="Z" unicode="Z" 
d="M1249 549h-456q-40 0 -74 -31l-180 -180h1441v-338h-1679q-100 0 -170 70t-70 170q0 98 70 168l348 348q129 129 314 129h456q41 0 74 30l180 181h-1442v338h1680q99 0 169 -70t70 -168q0 -101 -69 -170l-350 -348q-61 -62 -142 -95.5t-170 -33.5z" />
    <glyph glyph-name="bracketleft" unicode="[" horiz-adv-x="671" 
d="M61 1434h549v-338h-211v-758h211v-338h-549v1434z" />
    <glyph glyph-name="backslash" unicode="\" horiz-adv-x="1398" 
d="M432 1208l770 -739q135 -132 135 -319v-150h-338v150q0 47 -32 75l-770 742q-65 62 -100.5 145t-35.5 172v150h338v-150q0 -47 33 -76z" />
    <glyph glyph-name="bracketright" unicode="]" horiz-adv-x="671" 
d="M61 1434h549v-1434h-549v338h211v758h-211v338z" />
    <glyph glyph-name="asciicircum" unicode="^" horiz-adv-x="1077" 
d="M465 1067l-164 -164l-238 238l164 164q129 129 312 129q184 0 313 -129l164 -164l-240 -238l-164 164q-31 31 -73 31q-43 0 -74 -31z" />
    <glyph glyph-name="underscore" unicode="_" 
d="M61 0v338h1917v-338h-1917z" />
    <glyph glyph-name="a" unicode="a" 
d="M504 1434h1034q183 0 312.5 -130t129.5 -313v-106h-338v106q0 43 -30.5 74t-73.5 31h-1034q-43 0 -74 -31t-31 -74v-106h-338v106q0 183 130 313t313 130zM61 0v442q0 184 130 313.5t313 129.5h1034q183 0 312.5 -129.5t129.5 -313.5v-442h-338v442q0 44 -30.5 75.5
t-73.5 31.5h-1034q-43 0 -74 -31.5t-31 -75.5v-442h-338z" />
    <glyph glyph-name="b" unicode="b" 
d="M1980 991v-106h-338v106q0 43 -30.5 74t-73.5 31h-1034q-43 0 -74 -30.5t-31 -74.5v-991h-338v991q0 183 130 313t313 130h1034q183 0 312.5 -130t129.5 -313zM504 885h1034q183 0 312.5 -129.5t129.5 -313.5q0 -183 -129.5 -312.5t-312.5 -129.5h-1034v338h1034
q43 0 73.5 30.5t30.5 73.5q0 44 -30.5 75.5t-73.5 31.5h-1034v336z" />
    <glyph glyph-name="c" unicode="c" 
d="M1980 1096h-1476q-43 0 -74 -31t-31 -74v-549q0 -43 31 -73.5t74 -30.5h1476v-338h-1476q-183 0 -313 129.5t-130 312.5v549q0 183 130 313t313 130h1476v-338z" />
    <glyph glyph-name="d" unicode="d" 
d="M504 1434h1034q183 0 312.5 -130t129.5 -313v-549q0 -183 -129.5 -312.5t-312.5 -129.5h-1034v338h1034q43 0 73.5 30.5t30.5 73.5v549q0 43 -30.5 74t-73.5 31h-1034q-43 0 -74 -31t-31 -74v-991h-338v991q0 183 130 313t313 130z" />
    <glyph glyph-name="e" unicode="e" horiz-adv-x="2043" 
d="M504 1434h1476v-338h-1476q-43 0 -74 -31t-31 -74v-106h-338v106q0 183 130 313t313 130zM61 442q0 184 130 313.5t313 129.5h1476v-336h-1476q-43 0 -74 -32t-31 -75t31 -73.5t74 -30.5h1476v-338h-1476q-183 0 -313 129.5t-130 312.5z" />
    <glyph glyph-name="f" unicode="f" 
d="M504 1434h1476v-338h-1476q-43 0 -74 -31t-31 -74v-106h-338v106q0 183 130 313t313 130zM61 0v442q0 184 130 313.5t313 129.5h1476v-336h-1476q-43 0 -74 -31.5t-31 -75.5v-442h-338z" />
    <glyph glyph-name="g" unicode="g" 
d="M399 991v-549q0 -43 31 -73.5t74 -30.5h1034q36 0 67 24t35 60v4q2 4 2 16q0 43 -31 75t-73 32h-1034v336h1034q183 0 312.5 -129.5t129.5 -313.5q0 -183 -129.5 -312.5t-312.5 -129.5h-1034q-183 0 -313 129.5t-130 312.5v549q0 183 130 313t313 130h1476v-338h-1476
q-43 0 -74 -31t-31 -74z" />
    <glyph glyph-name="h" unicode="h" 
d="M61 885v549h338v-549h-338zM1642 885v549h338v-549h-338zM504 885h1034q183 0 312.5 -129.5t129.5 -313.5v-442h-338v442q0 44 -30.5 75.5t-73.5 31.5h-1034q-43 0 -74 -31.5t-31 -75.5v-442h-338v442q0 184 130 313.5t313 129.5z" />
    <glyph glyph-name="i" unicode="i" horiz-adv-x="460" 
d="M61 0v1434h338v-1434h-338z" />
    <glyph glyph-name="j" unicode="j" 
d="M1642 442v992h338v-992q0 -183 -129.5 -312.5t-312.5 -129.5h-1477v338h1477q43 0 73.5 30.5t30.5 73.5z" />
    <glyph glyph-name="k" unicode="k" 
d="M1642 885v549h338v-549h-338zM61 0v1434h338v-1434h-338zM504 885h1034q183 0 312.5 -129.5t129.5 -313.5v-442h-338v442q0 44 -30.5 75.5t-73.5 31.5h-1034v336z" />
    <glyph glyph-name="l" unicode="l" 
d="M399 1434v-992q0 -43 31 -73.5t74 -30.5h1476v-338h-1476q-183 0 -313 129.5t-130 312.5v992h338z" />
    <glyph glyph-name="m" unicode="m" 
d="M1190 1434h348q183 0 312.5 -130t129.5 -313v-991h-338v991q0 43 -30.5 74t-73.5 31h-348v338zM504 1434h244q183 0 312.5 -130t129.5 -313v-991h-338v991q0 43 -30.5 74t-73.5 31h-244q-43 0 -74 -31t-31 -74v-991h-338v991q0 183 130 313t313 130z" />
    <glyph glyph-name="n" unicode="n" 
d="M504 1434h1034q183 0 312.5 -130t129.5 -313v-991h-338v991q0 43 -30.5 74t-73.5 31h-1034q-43 0 -74 -31t-31 -74v-991h-338v991q0 183 130 313t313 130z" />
    <glyph glyph-name="o" unicode="o" 
d="M504 1434h1034q183 0 312.5 -130t129.5 -313v-549q0 -183 -129.5 -312.5t-312.5 -129.5h-1034q-183 0 -313 129.5t-130 312.5v549q0 183 130 313t313 130zM1642 442v549q0 43 -30.5 74t-73.5 31h-1034q-43 0 -74 -31t-31 -74v-549q0 -43 31 -73.5t74 -30.5h1034
q43 0 73.5 30.5t30.5 73.5z" />
    <glyph glyph-name="p" unicode="p" 
d="M1980 991q0 -184 -129.5 -313t-312.5 -129h-1034q-43 0 -74 -31.5t-31 -75.5v-442h-338v442q0 183 130 313t313 130h1034q43 0 73.5 31t30.5 75q0 43 -30.5 74t-73.5 31h-1034q-43 0 -74 -31t-31 -74v-106h-338v106q0 183 130 313t313 130h1034q183 0 312.5 -130
t129.5 -313z" />
    <glyph glyph-name="q" unicode="q" 
d="M1980 991v-653h-338v653q0 43 -30.5 74t-73.5 31h-1034q-43 0 -74 -30.5t-31 -74.5v-549q0 -43 30.5 -73.5t74.5 -30.5h1032q184 0 314 -129.5t130 -312.5h-338q0 43 -30.5 73.5t-73.5 30.5h-1034q-183 0 -313 129.5t-130 312.5v549q0 183 130 313t313 130h1032
q184 0 314 -130t130 -313z" />
    <glyph glyph-name="r" unicode="r" 
d="M504 1434h1034q183 0 312.5 -130t129.5 -313v-106h-338v106q0 43 -30.5 74t-73.5 31h-1034q-43 0 -74 -31t-31 -74v-991h-338v991q0 183 130 313t313 130zM504 885h1034q183 0 312.5 -129.5t129.5 -313.5v-442h-338v442q0 44 -30.5 75.5t-73.5 31.5h-1034v336z" />
    <glyph glyph-name="s" unicode="s" 
d="M61 991q0 183 130 313t313 130h1476v-338h-1476q-43 0 -74 -31t-31 -74q0 -44 31 -75t74 -31h1034q183 0 312.5 -129.5t129.5 -313.5q0 -183 -129.5 -312.5t-312.5 -129.5h-1477v338h1477q43 0 73.5 30.5t30.5 73.5q0 44 -30.5 75.5t-73.5 31.5h-1034q-183 0 -313 129
t-130 313z" />
    <glyph glyph-name="t" unicode="t" 
d="M1188 1020h2v-1020h-338v991q0 43 -30.5 74t-73.5 31h-687v338h687q174 0 301.5 -120t138.5 -294zM1980 1096h-790v338h790v-338z" />
    <glyph glyph-name="u" unicode="u" 
d="M1642 442v992h338v-992q0 -183 -129.5 -312.5t-312.5 -129.5h-1034q-183 0 -313 129.5t-130 312.5v992h338v-992q0 -43 31 -73.5t74 -30.5h1034q43 0 73.5 30.5t30.5 73.5z" />
    <glyph glyph-name="v" unicode="v" 
d="M1642 958v476h338v-476q0 -88 -33.5 -168.5t-95.5 -142.5l-518 -518q-129 -129 -311 -129q-184 0 -313 129l-519 518q-62 62 -95.5 142.5t-33.5 168.5v476h338v-473q0 -45 31 -76l516 -516q31 -31 76 -31q43 0 74 31l516 516q30 30 30 73z" />
    <glyph glyph-name="w" unicode="w" 
d="M399 1434v-992q0 -43 31 -73.5t74 -30.5h348v-338h-348q-183 0 -313 129.5t-130 312.5v992h338zM1642 442v992h338v-992q0 -183 -129.5 -312.5t-312.5 -129.5h-244q-183 0 -312.5 129.5t-129.5 312.5v992h338v-992q0 -43 30.5 -73.5t73.5 -30.5h244q43 0 73.5 30.5
t30.5 73.5z" />
    <glyph glyph-name="x" unicode="x" 
d="M1642 1280v154h338v-154q0 -182 -131 -313l-247 -250l247 -250q131 -128 131 -313v-154h-338v154q0 45 -30 75l-320 320h-542l-320 -320q-31 -31 -31 -75v-154h-338v154q0 184 129 313l250 250l-250 250q-129 132 -129 313v154h338v-154q0 -45 31 -76l320 -319h542
l320 319q30 30 30 76z" />
    <glyph glyph-name="y" unicode="y" 
d="M504 885h1034q183 0 312.5 -129.5t129.5 -313.5q0 -183 -129.5 -312.5t-312.5 -129.5h-1477v338h1477q43 0 73.5 30.5t30.5 73.5q0 44 -30.5 75.5t-73.5 31.5h-1034q-183 0 -313 129t-130 313v443h338v-443q0 -43 31 -74.5t74 -31.5zM1642 1434h338v-549h-338v549z" />
    <glyph glyph-name="z" unicode="z" 
d="M1249 549h-456q-40 0 -74 -31l-180 -180h1441v-338h-1679q-100 0 -170 70t-70 170q0 98 70 168l348 348q129 129 314 129h456q41 0 74 30l180 181h-1442v338h1680q99 0 169 -70t70 -168q0 -101 -69 -170l-350 -348q-61 -62 -142 -95.5t-170 -33.5z" />
    <glyph glyph-name="braceleft" unicode="{" horiz-adv-x="882" 
d="M610 991v-106h-338v106q0 183 130 313t313 130h106v-338h-106q-43 0 -74 -31t-31 -74zM715 338h106v-338h-106q-185 0 -314 129t-129 313q0 43 -31 75t-73 32h-107v336h107q183 0 312.5 -130t129.5 -313q0 -43 31 -73.5t74 -30.5z" />
    <glyph glyph-name="braceright" unicode="}" horiz-adv-x="882" 
d="M168 1096h-107v338h107q183 0 312.5 -130t129.5 -313v-106h-338v106q0 43 -30.5 74t-73.5 31zM715 885h106v-336h-106q-43 0 -74 -32t-31 -75q0 -183 -129.5 -312.5t-312.5 -129.5h-107v338h107q43 0 73.5 30.5t30.5 73.5q0 184 129 313.5t314 129.5z" />
    <glyph glyph-name="minus" unicode="&#x2212;" horiz-adv-x="1134" 
d="M61 549v336h1012v-336h-1012z" />
    </font>
</defs>
</svg>
