<?xml version="1.0" standalone="no"?>
<!DOCTYPE svg PUBLIC "-//W3C//DTD SVG 1.1//EN" "http://www.w3.org/Graphics/SVG/1.1/DTD/svg11.dtd" >
<svg xmlns="http://www.w3.org/2000/svg" xmlns:xlink="http://www.w3.org/1999/xlink" version="1.1">
<metadata>
Created by FontForge 20170731 at Wed Sep  7 23:52:50 2022
 By Aleksey,,,
(c) 2022 by Akhmad Ilham. All rights reserved.
</metadata>
<defs>
<font id="AntiDesignEndeavour" horiz-adv-x="1234" >
  <font-face 
    font-family="Anti Design Endeavour"
    font-weight="400"
    font-stretch="normal"
    units-per-em="2048"
    panose-1="0 0 0 0 0 0 0 0 0 0"
    ascent="1536"
    descent="-512"
    x-height="1434"
    cap-height="1745"
    bbox="-152 -313 2150 1812"
    underline-thickness="102"
    underline-position="-358"
    unicode-range="U+000D-FB03"
  />
<missing-glyph horiz-adv-x="512" 
 />
    <glyph glyph-name=".notdef" horiz-adv-x="512" 
 />
    <glyph glyph-name=".null" horiz-adv-x="0" 
 />
    <glyph glyph-name=".null" horiz-adv-x="0" 
 />
    <glyph glyph-name="uni000D" unicode="&#xd;" horiz-adv-x="512" 
 />
    <glyph glyph-name="space" unicode=" " horiz-adv-x="512" 
 />
    <glyph glyph-name="exclam" unicode="!" horiz-adv-x="389" 
d="M195 184l92 -92l-92 -92l-93 92zM369 1434l-152 -1223h-22h-23l-152 1223h349z" />
    <glyph glyph-name="quotedbl" unicode="&#x22;" horiz-adv-x="468" 
d="M20 1434v59l48 147h161zM240 1493l47 147h162l-209 -206v59z" />
    <glyph glyph-name="numbersign" unicode="#" horiz-adv-x="1267" 
d="M1200 1434l-137 -439h184l-37 -112h-184l-102 -328h184l-37 -115h-184l-139 -440h-115l139 440h-366l-140 -440h-114l139 440h-271l37 115h271l102 328h-270l37 112h270l139 439h113l-139 -439h368l139 439h113zM809 555l104 328h-368l-105 -328h369z" />
    <glyph glyph-name="dollar" unicode="$" horiz-adv-x="968" 
d="M401 655q32 0 52 -14t20 -43q0 -14 -4 -25q-1 -2 -2.5 -5.5t-1.5 -4.5q6 5 12 15q1 2 8 20q4 11 4 33q0 7 -4 18q-5 14 -16 26t-37 22q-27 10 -65 10q-86 0 -142 -68q-55 -67 -55 -190q0 -60 25 -116q24 -53 65 -93t95 -62q53 -22 114 -22q65 0 124 24q56 23 101 68
t68 102q24 60 24 127q0 81 -41 134q-40 52 -103 88q-69 40 -135 67q-70 29 -135 71t-104 97q-41 58 -41 147q0 35 12 73t39 72q25 32 76 60t125 35q-5 26 -16 44q-12 19 -27 36q-20 24 -30 33h108h109q-16 -15 -31 -31q-18 -22 -25 -34q-12 -19 -18 -44h8q75 0 133 -25
q56 -24 90 -61t51 -81q17 -45 17 -83q0 -39 -15 -73q-14 -32 -41 -59q-24 -24 -59 -40q-31 -14 -65 -14q-66 0 -109 30t-43 93q0 31 24 55q25 25 52 25q36 0 55 -17t19 -43t-17 -37q-16 -10 -33 -10q-16 0 -27 7t-11 24l-3 -7q-1 -7 2 -17q3 -8 15 -16q11 -7 37 -7
q31 0 53 13t37 34q13 19 20 45q6 24 6 47q0 28 -11 55q-13 33 -34 58q-23 28 -59 45q-37 18 -86 18q-95 0 -151 -52t-56 -138q0 -66 44 -108q41 -40 112 -76q49 -25 144 -66q81 -35 145 -79q68 -47 111 -115q44 -70 44 -173q0 -88 -29 -153q-30 -68 -83 -116
q-53 -49 -125 -77q-72 -29 -156 -39q8 -21 19 -37q12 -17 22 -28q12 -15 27 -27h-109h-108q13 12 24 25q10 11 22 28q11 16 19 37q-117 0 -205 31q-85 30 -140 83q-54 53 -80 122q-26 70 -26 149q0 78 28 140q26 58 72 101q40 37 97 60q53 21 102 21q100 0 159 -53t59 -123
q0 -68 -31 -107q-30 -37 -78 -37q-47 0 -75 31q-27 30 -27 67q0 39 24 60q23 20 51 20z" />
    <glyph glyph-name="percent" unicode="%" horiz-adv-x="1048" 
d="M438 1042q0 -43 -16 -79q-17 -38 -45 -65q-30 -28 -67 -43q-38 -15 -81 -15t-81 15q-36 14 -66 43q-28 27 -45 65q-17 39 -17 79q0 42 17 81q18 40 45 66q30 29 66 43q38 15 81 15t81 -15q37 -15 67 -43q27 -26 45 -66q16 -36 16 -81zM262 1219q-36 0 -67 -23
q-35 -26 -53 -56q-19 -31 -32 -72q-12 -38 -12 -71q0 -42 23 -86q22 -43 74 -43q36 0 67 23q33 24 52 55q23 36 34 71q12 37 12 70q0 20 -5 47q-4 23 -17 42q-11 17 -31 30q-19 13 -45 13zM188 0l557 1434h115l-557 -1434h-115zM819 594q43 0 81 -15q37 -15 67 -43
q28 -27 45 -65q16 -36 16 -80t-16 -80q-16 -37 -45 -64t-67 -44q-39 -17 -81 -17t-81 17q-37 16 -66 44q-29 27 -45 64q-17 39 -17 80t17 80q17 38 45 65q30 29 66 43q38 15 81 15zM786 215q37 0 68 23q33 24 52 55q21 32 33 71q11 34 11 70q0 20 -5 45q-4 21 -17 42
q-12 19 -31 32q-18 12 -45 12q-39 0 -68 -22q-32 -24 -52 -57q-22 -36 -33 -71q-11 -34 -11 -71q0 -44 23 -87q23 -42 75 -42z" />
    <glyph glyph-name="ampersand" unicode="&#x26;" horiz-adv-x="1241" 
d="M987 29l-37 53q-69 -42 -145 -62q-74 -20 -156 -20q-102 0 -209 22q-100 21 -181 71q-78 48 -127 133q-48 83 -48 208q0 73 32 135q31 60 82 113q47 49 110 91q49 33 118 73l-406 588h979v-236q0 -82 -23 -140q-24 -61 -65 -109q-40 -47 -95 -87q-45 -33 -118 -76
l277 -401q58 61 93 134q36 75 36 159q0 34 -3 66q-3 30 -14 65q36 -19 60 -50q25 -32 41 -71t24 -80q9 -49 9 -78q0 -86 -36 -171q-34 -81 -89 -150l125 -180h-234zM299 1366l297 -432q14 7 47.5 23.5t50.5 24.5q67 33 122 67q69 43 105 78q44 42 44 85q0 72 -161 113
q-162 41 -505 41zM823 266l-293 428q-65 -35 -124 -70q-63 -37 -116 -86q-50 -46 -86 -110q-34 -61 -34 -139q0 -37 33 -63q31 -24 77 -43q37 -15 89 -24q42 -7 71 -7q102 0 199 31q96 31 184 83z" />
    <glyph glyph-name="quotesingle" unicode="'" horiz-adv-x="223" 
d="M-2 1640h178l39 -225v-94z" />
    <glyph glyph-name="parenleft" unicode="(" horiz-adv-x="589" 
d="M569 1503q-58 -15 -104 -45q-41 -29 -74 -78q-33 -50 -33 -129q0 -55 -12 -95t-30 -75q-20 -39 -38 -68q-21 -35 -39 -75q-18 -39 -30 -94q-12 -52 -12 -125t12 -126q12 -51 30 -94q18 -42 39 -75q16 -26 38 -69q19 -38 30 -75q12 -40 12 -96q0 -80 33 -129t74 -78
q46 -30 104 -45h-157q-24 19 -41 45q-17 24 -29 57q-12 34 -12 81q0 58 -23 101q-22 41 -57 79q-28 31 -75 74q-41 37 -75 84q-34 46 -57 110t-23 156q0 91 23 155q24 66 57 111q36 48 75 83q43 38 75 73q35 38 57 79q23 43 23 101q0 47 12 81q11 31 29 56q17 26 41 45h157z
" />
    <glyph glyph-name="parenright" unicode=")" horiz-adv-x="587" 
d="M176 1503q24 -19 41 -45q17 -24 29 -57q12 -34 12 -82q0 -58 23 -101q23 -42 57 -78q30 -32 75 -73q40 -37 74 -83q36 -49 58 -110q22 -62 22 -155q0 -94 -22 -156q-22 -61 -58 -110q-37 -49 -74 -84q-45 -41 -75 -73q-34 -36 -57 -78q-23 -43 -23 -101q0 -47 -12 -82
t-29 -58q-17 -26 -41 -45h-156q59 16 105 48q41 30 71 77q31 49 31 129q0 81 26 135q19 40 56 104q35 62 57 118q25 65 25 176q0 110 -25 175q-24 61 -57 118q-34 58 -56 103q-26 54 -26 134q0 82 -31 131q-31 48 -71 76q-43 31 -105 47h156z" />
    <glyph glyph-name="asterisk" unicode="*" horiz-adv-x="774" 
d="M666 748q-18 15 -51 31q-28 14 -56 14h-72q-12 0 -12 -13q0 -4 4 -8q15 -17 56 -55q23 -20 49 -28q24 -7 53 -9q35 -4 10 -29l-90 -90q-25 -22 -27 12q-2 30 -12 58q-10 27 -29 49l-51 51q-2 2 -10 2q-12 0 -12 -10v-74q0 -29 13 -55q14 -27 34 -49q21 -27 -12 -27h-127
q-35 0 -11 27q20 25 32 49q13 26 13 55v74q0 10 -12 10q-4 0 -10 -2q-4 -5 -24 -25l-21 -24q-21 -22 -33 -48q-13 -27 -14 -61q-2 -34 -27 -12l-90 90q-27 27 10 27q33 5 59 13q30 9 48 30l51 51q4 4 4 8q0 13 -12 13h-72q-28 0 -56 -14q-30 -15 -50 -31q-27 -27 -27 10v129
q0 32 27 10q22 -21 50 -33q27 -12 56 -12h72q12 0 12 12q0 4 -4 8q-30 35 -53 52q-42 36 -105 41q-36 4 -10 26l90 92q25 22 27 -12q5 -32 13 -57q9 -28 30 -49l49 -52q7 -4 10 -4q12 0 12 13v73q0 29 -13 55q-13 27 -32 50q-23 26 11 26h127q32 0 12 -26q-19 -21 -34 -50
q-13 -26 -13 -55v-73q0 -13 12 -13q3 0 10 4q26 23 51 52q40 52 41 106q2 34 27 12l90 -92q26 -22 -10 -26q-25 -1 -58 -13q-32 -11 -49 -28l-51 -52q-4 -4 -4 -8q0 -12 12 -12h72q29 0 56 12q30 13 51 33q26 22 26 -10v-129q0 -36 -26 -10z" />
    <glyph glyph-name="plus" unicode="+" horiz-adv-x="448" 
d="M428 629v-113l-145 -2l2 -145h-115v145l-150 -2v115h148v147h113l2 -145h145z" />
    <glyph glyph-name="comma" unicode="," horiz-adv-x="221" 
d="M199 150l-6 -195l-173 -94l9 194z" />
    <glyph glyph-name="hyphen" unicode="-" horiz-adv-x="618" 
d="M72 662v131h475v-131h-475z" />
    <glyph glyph-name="period" unicode="." horiz-adv-x="346" 
d="M326 0l-154 -152l-152 152l152 154z" />
    <glyph glyph-name="slash" unicode="/" horiz-adv-x="733" 
d="M713 1434l-557 -1434h-136l558 1434h135z" />
    <glyph glyph-name="zero" unicode="0" horiz-adv-x="917" 
d="M-4 717q0 146 35 278t96 229q60 95 142 153q81 57 173 57t174 -57q84 -58 144 -153q61 -97 96 -229t35 -278q0 -147 -35 -279q-34 -130 -96 -228q-61 -97 -144 -154q-81 -56 -174 -56t-173 56q-81 57 -142 154q-61 98 -96 228q-35 132 -35 279zM305 113q50 -11 105 28
q56 39 105 115q53 81 94 184q45 113 73 236q29 131 35 244q6 118 -7 207q-14 94 -47 150q-35 59 -83 69q-50 12 -104 -27q-53 -39 -105 -116q-54 -81 -96 -185q-43 -107 -72 -236q-29 -131 -35 -243q-6 -121 8 -208q15 -94 47 -150q32 -57 82 -68z" />
    <glyph glyph-name="one" unicode="1" horiz-adv-x="622" 
d="M440 1434q9 -6 29 -7q18 -4 53 -6q46 -2 94 -2q-53 -129 -98 -286q-38 -127 -69 -286q-31 -161 -31 -315q0 -125 11 -213q13 -105 26 -167q18 -100 34 -152h-411q-7 17 -8 35q-11 42 -11 108q0 134 25 278q25 142 61 267q41 140 83 245q53 133 89 210q-45 -35 -108 -90
q-73 -64 -150 -144q-1 33 -8 82q-8 45 -17 76q-12 42 -34 78q94 47 180 96q34 20 74 46q38 24 72 48q21 15 64 49q21 17 50 50z" />
    <glyph glyph-name="two" unicode="2" horiz-adv-x="1226" 
d="M440 774q-38 0 -74 13q-37 13 -70 45q-30 29 -52 80q-21 50 -21 124q0 75 40 146q40 72 115 127q75 56 181 90q108 35 238 35q66 0 138 -11q71 -11 123 -44q54 -35 88 -95q34 -61 34 -164q0 -86 -48 -162q-47 -74 -122 -142q-77 -69 -161 -127q-100 -69 -167 -117
q-85 -61 -140 -109q-60 -53 -79 -107q80 11 146 10q55 -1 132 -5q52 -3 104 -8q48 -5 60 -5q89 0 149 9q53 8 97 22q44 12 74 29q-54 -69 -82 -139q-27 -66 -43 -128q-16 -67 -21 -129q-15 -5 -35 -6q-3 0 -18.5 -1.5t-25.5 -2.5q-34 -2 -60 -2q-51 0 -110 25q-9 4 -127 54
q-72 31 -164 54q-98 25 -226 25q-70 0 -124 -17q-51 -16 -87 -38t-53 -42q-12 -14 -24 -26l-2 -4q-9 9 -13 20q-14 22 -14 62q0 97 75 186q75 88 187 172t243 165q120 74 242 164q113 83 188 170t75 183q0 71 -58 111q-57 39 -143 39q-33 0 -77 -12q-47 -13 -83 -38
q-38 -27 -65 -68q-27 -42 -27 -104q0 -35 13 -58q12 -21 32 -38q16 -13 38 -20q23 -7 34 -7q0 -31 -17 -65q-16 -32 -46 -59t-71 -43q-43 -17 -96 -17z" />
    <glyph glyph-name="three" unicode="3" horiz-adv-x="1263" 
d="M559 0q-216 0 -306 73q-89 72 -89 214q0 65 22 128q22 62 50 111q-70 -25 -128 -56q-68 -36 -116 -85l104 227h193l274 4q-51 -66 -84 -120q-29 -51 -57 -116q-27 -63 -27 -122q0 -68 36 -117t120 -49q67 0 151 51q87 53 157 133q73 83 122 185q49 101 49 205
q0 52 -31 94q-30 41 -110 41q-41 0 -80 -18q-43 -20 -70 -40q-36 -22 -71 -57l-37 51l344 488q-29 -33 -66 -60q-34 -23 -80 -41q-47 -18 -108 -18q-43 0 -80 8q-17 4 -67 18q-42 12 -63 17q-34 8 -69 8q-38 0 -68 -12q-27 -11 -50 -29q-26 -19 -43 -41v336q22 8 36 12
q22 5 45 8q27 3 62 3q61 0 105 -14q52 -17 80 -29q36 -16 83 -30q43 -13 115 -13q42 0 74 5q26 4 49 14q21 9 39 18q22 11 46 19q29 10 67 14q45 5 106 5v-108l-295 -377q53 29 106 29q63 0 112 -26q48 -26 80 -68q31 -42 48 -95q16 -51 16 -108q0 -136 -56 -255
q-58 -124 -151 -214q-96 -93 -223 -147t-266 -54z" />
    <glyph glyph-name="four" unicode="4" horiz-adv-x="1134" 
d="M612 0q37 46 66 131q24 73 45 188q20 111 20 291v21h-747v14q100 95 180 213q67 104 124 250q56 143 56 326h277q0 -128 -33 -231q-32 -101 -84 -185q-50 -81 -116 -144q-64 -61 -130 -106h473v344q0 87 13 154q12 62 28 98q17 47 39 70h258q-24 -29 -41 -70
q-16 -37 -28 -99q-13 -65 -13 -153v-377q20 5 42 19q17 11 34 24q14 10 31 29v-109v-108q-15 16 -31 31q-13 9 -34 22q-22 14 -42 19v-78q5 -170 25 -279q21 -113 45 -180q28 -78 64 -125h-134h-256h-131z" />
    <glyph glyph-name="five" unicode="5" horiz-adv-x="1318" 
d="M1032 1018q-56 0 -101 23q-44 22 -88 59q-35 29 -84 76q-40 39 -89 75q-45 33 -101 59q-50 23 -120 23q-11 0 -16 -1t-13 -1q36 -33 73 -95q35 -58 35 -151q0 -62 -25 -121q-24 -58 -61 -110q22 20 68 53q34 25 82 47q43 20 96 34q49 13 109 13q94 0 162 -28
q67 -28 115 -79q47 -50 68 -116t21 -139q0 -107 -49 -220q-50 -114 -144 -207t-236 -153q-139 -59 -324 -59q-110 0 -190 24t-128 62q-50 39 -72 90q-22 50 -22 105q0 61 27 121q29 65 72 109q47 48 109 78q61 29 136 29q60 0 98 -13q40 -14 64 -35t36 -48q11 -25 11 -55
q1 -50 -20 -94q-21 -43 -44 -43q-4 10 -16 20q-9 5 -26 12t-44 7t-55 -17q-25 -15 -47 -42q-19 -23 -32 -57q-11 -29 -11 -63q0 -45 35 -80q34 -34 117 -34q106 0 199 51q94 52 161 129t106 169q39 91 39 173q-1 90 -57 153q-55 62 -182 62q-75 0 -135 -19q-64 -20 -109 -42
q-49 -26 -96 -64l-55 62q14 25 28 59q13 34 19 58q8 34 8 61q0 85 -30 145t-66 96q-43 40 -97 68q31 52 80 98q41 38 103 68q64 31 143 31q93 0 161 -19q63 -18 121 -42q61 -26 114 -42q59 -18 141 -18q87 0 138 10q57 11 89 25q40 16 61 32l23 -47q-39 -19 -68 -55
q-27 -37 -46 -85q-21 -53 -21 -136q-18 -13 -37 -19q-18 -8 -44 -14q-27 -6 -67 -6z" />
    <glyph glyph-name="six" unicode="6" horiz-adv-x="1300" 
d="M774 1065q88 40 158 86q55 36 108 84q50 45 50 88q0 22 -14 38q-14 15 -48 15q-111 0 -212 -49q-102 -50 -190 -130q-90 -82 -161 -186q-70 -102 -124 -218q-53 -114 -80 -226q-28 -117 -28 -207q0 -59 14 -112q14 -51 40 -88q27 -38 68 -58q40 -20 100 -20q132 0 240 69
t184 170q75 100 116 217t41 210q-1 82 -36 133t-105 51q-109 0 -188 -51q-81 -52 -133 -125q-49 -69 -78 -155q-27 -81 -27 -140q-2 -43 15 -65q17 -23 57 -23q41 0 73 19q35 20 56 49q23 31 35 65t12 67q2 40 -16 66q-18 27 -56 27h262q0 -47 -25 -106q-26 -61 -73 -114
q-46 -52 -113 -90q-65 -37 -143 -37q-121 0 -174 56t-53 137q0 73 40 153q40 81 109 148q70 69 166 112q97 44 213 44q86 0 153 -25q64 -24 106 -67q44 -45 64 -102q21 -59 21 -124q0 -107 -48 -221q-49 -116 -140 -210q-92 -95 -226 -158q-131 -62 -301 -62q-128 0 -221 38
q-92 38 -150 102q-59 65 -86 151q-27 87 -26 184q1 101 34 216q32 114 91 218q64 114 144 202q87 96 192 167q107 73 233 114q127 42 271 42q120 0 185 -37q67 -38 99 -92t40 -120q7 -60 7 -120h-522z" />
    <glyph glyph-name="seven" unicode="7" horiz-adv-x="1001" 
d="M993 1257q-23 0 -79 -28t-128 -85q-75 -60 -148 -138q-76 -82 -141 -189q-67 -111 -106 -236q-41 -132 -41 -284q0 -88 17 -147q18 -63 36 -91q21 -36 52 -59h-439q0 190 58 367q57 174 148 323q92 150 205 268q118 123 226 199q-51 -21 -93 -33t-64 -12q-88 0 -130 13
q-44 14 -70 29q-44 26 -48 28q-23 12 -68 12q-31 0 -52 -15q-22 -15 -34 -34q-14 -20 -26 -51h-29v313q8 8 24 14q15 5 36 9q19 4 55 4q74 0 137 -23q61 -22 113 -49q44 -23 102 -49q51 -23 100 -23q67 0 118 17q56 19 93 34q77 32 85 35q43 17 91 17v-93v-43z" />
    <glyph glyph-name="eight" unicode="8" horiz-adv-x="1288" 
d="M932 1085q-43 0 -85 -30t-42 -82q0 -46 32 -61q31 -15 68 -15q50 0 87 19q38 20 65 53q26 31 41 73q14 38 14 84q0 50 -18 92q-16 38 -51 71q-31 30 -74 46q-45 17 -90 17q-50 0 -105 -19q-53 -18 -97 -53q-46 -36 -72 -83q-27 -48 -27 -110q0 -72 39 -123
q43 -56 100 -97q70 -50 128 -86q64 -39 128 -95q56 -49 99 -124q40 -70 40 -171q0 -121 -57 -197t-143 -120q-88 -45 -183 -59q-99 -15 -180 -15q-104 0 -207 23q-99 22 -176 69q-73 45 -122 120q-46 71 -46 173q0 91 36 163q38 75 95 124q61 52 136 80t159 28q49 0 99 -10
q53 -11 97 -35q43 -24 73 -66t30 -106q0 -32 -9 -65t-26 -59q-17 -27 -40 -41q-24 -15 -54 -15q-17 0 -33 4q-21 5 -35 13q-16 9 -28 24q-14 17 -15 35q47 8 79 44q32 37 32 81q0 51 -40 76q-41 26 -89 26q-52 0 -100 -28t-83 -73q-36 -47 -57 -103q-20 -54 -20 -115
q0 -68 26 -120q27 -54 72 -93q47 -41 105 -61q60 -21 122 -21q73 0 141 25t122 70t85 102q31 58 31 122q0 71 -38 127q-37 54 -95 105q-52 45 -125 97q-70 49 -125 102q-58 55 -95 120q-38 67 -38 152q0 87 41 152q41 66 104 106q62 40 139 61t148 21q59 0 139 -15
q79 -15 150 -49q73 -35 122 -93q50 -59 50 -146q0 -70 -33 -124t-83 -92q-48 -36 -113 -55q-63 -18 -125 -18q-44 0 -87 9t-80 29q-34 19 -59 51q-24 31 -24 75q0 30 10 57q10 29 30 51q19 21 45 37q24 14 56 14q35 0 72 -19t37 -61z" />
    <glyph glyph-name="nine" unicode="9" horiz-adv-x="1200" 
d="M49 250q-29 0 -41 -6q-8 -2 -12 -6q18 49 51 88q26 30 74 59q45 27 110 27q45 0 76 -25q33 -26 55 -61q32 -50 47 -81q18 -37 46 -81q24 -38 56 -62q31 -24 77 -24q53 0 97 47t80 127q35 77 61 185q24 101 40 222q-41 -108 -112 -176q-72 -69 -176 -69q-94 0 -165 38
q-70 37 -117 101q-47 63 -69 145q-22 81 -22 170q0 104 28 204q29 102 85 181q58 81 141 130q87 51 194 51q96 0 183 -48q82 -46 143 -126q56 -75 93 -183q34 -101 34 -213q0 -173 -44 -332q-43 -156 -123 -275q-79 -118 -190 -187q-113 -70 -247 -70q-90 0 -159 39t-122 86
q-58 52 -94 86q-41 39 -78 39zM858 948q0 78 -15 152q-15 72 -44 132q-28 57 -71 94q-42 36 -95 36q-57 0 -104 -42q-42 -38 -79 -109q-35 -68 -53 -150q-18 -84 -18 -168q0 -69 12 -135t42 -117t75 -81t108 -30q64 0 109 36t75 94q28 55 44 134q14 70 14 154z" />
    <glyph glyph-name="colon" unicode=":" horiz-adv-x="346" 
d="M326 0l-154 -152l-152 152l152 154zM326 985l-154 -154l-152 154l152 152z" />
    <glyph glyph-name="semicolon" unicode=";" horiz-adv-x="346" 
d="M326 985l-154 -154l-152 154l152 152zM211 150l-6 -195l-172 -94l8 194z" />
    <glyph glyph-name="less" unicode="&#x3c;" horiz-adv-x="319" 
d="M299 936v-162l-199 -121l199 -121v-159q-7 7 -27 27.5t-34 34.5q-12 12 -37.5 38t-39.5 40l-78 78l-63 62l166 168z" />
    <glyph glyph-name="equal" unicode="=" horiz-adv-x="692" 
d="M20 346v111l652 2v-113h-652zM672 788v-112h-652v110z" />
    <glyph glyph-name="greater" unicode="&#x3e;" horiz-adv-x="319" 
d="M299 653l-62 -62l-78 -78q-14 -14 -39.5 -40t-37.5 -38l-62 -62v159l199 121l-199 121v162l113 -115z" />
    <glyph glyph-name="question" unicode="?" horiz-adv-x="1030" 
d="M457 965q0 -28 -11 -58q-11 -29 -31 -51q-19 -21 -57 -37q-32 -14 -84 -14q-51 0 -95 17q-49 19 -81 51q-35 35 -56 84q-22 52 -22 114q0 53 30 116q30 62 90 118q57 53 153 92q90 37 219 37q127 0 220 -33q94 -33 155 -90q62 -57 92 -134q31 -79 31 -167
q0 -125 -42 -209t-107 -143q-62 -56 -138 -98q-73 -40 -138 -75q-69 -37 -107 -71q-42 -38 -42 -90v-62q-2 -20 -2 -31h-41q-8 39 -12 70q-4 21 -10 60q-4 28 -4 53q0 38 31 72q31 33 80 69q20 15 105 77q57 42 104 98q50 59 80 131q32 76 32 177q0 65 -22 128
q-22 62 -63 106t-102 70t-135 26q-73 0 -134 -28q-58 -27 -99 -68q-42 -42 -63 -91t-21 -94q0 -90 37 -139t98 -49q-20 6 -37 21q-14 11 -26 32q-11 19 -11 54q0 48 36 75t77 27q66 0 94 -43q29 -44 29 -100zM324 92l92 92l92 -92l-92 -92z" />
    <glyph glyph-name="at" unicode="@" horiz-adv-x="1370" 
d="M1073 444q44 2 66 -25q22 -26 22 -69q0 -38 -13 -71q-14 -36 -36 -64q-45 -63 -105 -102q-66 -43 -135 -67q-73 -26 -146 -36q-71 -10 -146 -10q-116 0 -225 28q-103 27 -184 86q-78 57 -125 150q-46 91 -46 221q0 114 35 230t96 220q64 109 146 197q83 89 186 158
t213 106q114 38 229 38q96 0 182 -23q85 -23 148 -71q64 -49 99 -123q36 -77 36 -183q0 -96 -39 -210q-39 -113 -106 -212q-64 -94 -161 -163q-93 -66 -204 -66q-43 0 -76 21q-32 20 -32 71q0 17 6 32l12 30q-36 -38 -67 -69q-42 -42 -86 -76q-47 -37 -94 -60
q-50 -25 -91 -25q-83 0 -120 46q-38 47 -38 124q0 94 48 205q49 114 122 201q78 93 174 153q100 62 199 62q25 0 55 -8q29 -8 52 -26q25 -20 38 -41q15 -24 15 -54q0 -39 -9 -79q-6 -27 -20 -77q15 24 28 42q15 22 34 54q11 20 28 57q13 29 13 46q0 13 -7 22q45 2 70 -21
q27 -24 27 -69q0 -38 -41 -106t-91 -141q-59 -86 -91 -138q-41 -67 -41 -100q0 -9 4 -16t14 -7q52 0 105 53t98 125q42 67 79 146q33 71 46 114q19 53 32 120q13 65 13 124q0 118 -57 185t-179 67q-186 0 -344 -72q-157 -72 -271 -193t-177 -285q-64 -166 -64 -345
q0 -75 23 -153q23 -77 67 -136q43 -57 110 -96q64 -37 150 -37q92 0 180 27q86 26 163 77q73 48 129 123q54 72 75 164zM479 399q33 0 85 30q54 31 106 71q49 38 99 83q47 42 69 66q10 10 26 57q14 41 27 94q12 50 21 96q10 52 10 62t-1 18q-1 11 -12 11q-97 0 -182 -48
q-86 -48 -152 -125q-64 -74 -104 -171q-39 -95 -39 -184q0 -24 10 -41q11 -19 37 -19z" />
    <glyph glyph-name="A" unicode="A" 
d="M600 1403q0 20 -14 31h270q-12 -15 -12 -37q0 -80 19 -152q19 -73 36 -147q47 -217 64 -303q30 -150 63 -303q8 -38 29 -120q18 -69 44 -142q26 -72 58 -133q33 -63 70 -97h-475q5 16 10 52q3 24 5 73q1 26 1 76v57q0 82 -3 163q-3 71 -11 163q-100 -21 -207 -64
q-104 -41 -182 -112q-6 -44 -7 -65q-2 -42 -2 -64q0 -30 3 -76q3 -42 16 -92q11 -43 37 -78q24 -33 65 -33h-477q7 17 45 103q49 112 77 177q16 36 48.5 110.5t48.5 111.5q16 36 52 117.5t55 125.5l33 77t37.5 88.5t31.5 73.5q13 29 43 100.5t45 105.5q45 104 62 148
q22 57 22 65zM645 1225l-86 -193q-41 -90 -82 -193q-38 -95 -67 -199q-28 -99 -43 -206l88 195h295q-16 146 -47 300q-15 75 -58 296z" />
    <glyph glyph-name="B" unicode="B" horiz-adv-x="1157" 
d="M68 258v1083q0 29 -23 55t-45 38h571q71 0 141 -15q74 -16 128 -47q58 -33 93 -88q36 -55 36 -137q0 -98 -49 -183q-50 -86 -136 -133q84 -16 146 -47q65 -33 112 -84q48 -52 74 -118q27 -68 27 -152q0 -126 -49 -208q-50 -82 -129 -132q-78 -48 -183 -70
q-97 -20 -211 -20h-571q28 52 48 125q20 74 20 133zM133 68h438q75 0 137 34q60 33 108 92q47 58 72 125q25 68 25 138q0 59 -18 117q-18 57 -53 105q-34 45 -85 75q-49 28 -116 28q-31 0 -76 -16q-43 -15 -96 -41q-44 -21 -90 -52q-44 -29 -60 -48l107 235h156q45 0 84 27
t68 66t47 86t18 87q0 47 -17 93q-17 45 -46 79q-33 38 -71 57q-42 21 -94 21h-252v-1202z" />
    <glyph glyph-name="C" unicode="C" horiz-adv-x="1212" 
d="M897 1434q145 0 219 -77t74 -188q0 -98 -50 -175q-48 -75 -122 -113q16 44 16 98q0 59 -20 106q-20 48 -57 86q-35 36 -86 58q-47 20 -109 20q-109 0 -202 -62q-97 -65 -168 -159q-73 -97 -116 -212q-43 -114 -43 -224q0 -46 13 -117q12 -66 42 -123q29 -55 80 -97
q49 -40 128 -40q63 0 126 27t118 69q57 43 105 96q49 54 81 103q0 -40 -14 -82q-16 -48 -29 -74q-32 -71 -85 -140q-50 -65 -112 -112q-63 -48 -133 -74q-75 -28 -150 -28q-95 0 -161 39t-106 100q-38 57 -57 139q-18 76 -18 150q0 107 32 224t89 228q58 112 135 212
q76 98 171 176q91 75 197 121q103 45 212 45z" />
    <glyph glyph-name="D" unicode="D" horiz-adv-x="1083" 
d="M72 258v1083q0 26 -23 54q-23 27 -45 39h350q199 0 335 -43q138 -43 225 -135q87 -91 127 -231q40 -139 40 -337q0 -183 -53 -315q-53 -133 -151 -214q-101 -84 -239 -121q-143 -38 -314 -38h-320q28 51 48 126q20 74 20 132zM137 68h187q133 0 233 56q104 58 172 148
q70 92 107 209q36 112 36 236q0 153 -23 269q-24 123 -85 209q-62 88 -168 134q-108 47 -272 47v-1202z" />
    <glyph glyph-name="E" unicode="E" horiz-adv-x="913" 
d="M580 68q48 0 98 12q49 12 94 36t82 58q35 32 59 80v-254h-905q28 56 48 126q20 72 20 132v1083q0 29 -23 54q-23 24 -45 39h907v-263q-22 46 -53 81q-36 41 -75 66q-46 29 -88 43q-46 15 -95 15h-276v-1202l-187 -106h439zM745 860v-43q-53 -8 -109 -25q-57 -17 -115 -42
q-49 -20 -106 -57q-52 -33 -87 -68l106 235h311z" />
    <glyph glyph-name="F" unicode="F" horiz-adv-x="1062" 
d="M2 891v51h213q-12 51 -38 151q-19 73 -19 152q0 91 30 154q29 61 85 103q55 41 127 59t155 18q67 0 139 -12q70 -12 138 -38q67 -26 124 -68q60 -44 97 -101l-150 -133q-11 47 -37 99q-24 48 -59 86t-82 61q-45 22 -104 22q-102 0 -165 -60t-63 -163q0 -82 24 -167
q3 -10 44 -163h209l67 -182q-54 54 -121 81q-72 29 -139 40q22 -91 62 -222q23 -77 70 -251q32 -120 58 -251q23 -116 23 -218q0 -112 -67 -182t-181 -70q-42 0 -86 12q-42 12 -71 45q76 -12 124 32t48 120q0 48 -13 134q-14 90 -32 169q-25 105 -46 186q-8 30 -52 188
q-13 46 -48 175q-20 74 -37 143h-227z" />
    <glyph glyph-name="G" unicode="G" horiz-adv-x="1128" 
d="M1124 1149q0 -42 -13 -81q-14 -41 -37 -76t-54 -64t-68 -47q17 46 17 94q0 59 -21 109q-22 51 -56 87q-35 36 -86 58q-47 20 -110 20q-108 0 -201 -62q-98 -65 -168 -156q-73 -94 -116 -204t-43 -208q0 -63 12 -133q12 -71 42 -131q29 -58 80 -100q49 -40 128 -40
q81 0 158 41t142 103q68 65 121 137t91 139q-52 -11 -125 -32q-66 -19 -133 -45q-68 -26 -125 -59q-59 -34 -102 -77l135 295h498l-54 -176q-27 -89 -48 -177q-23 -96 -34 -180q-12 -90 -12 -184h-291q40 65 63 120q18 42 56 122q-84 -106 -197 -174t-251 -68q-90 0 -153 39
t-100 101q-38 64 -56 141q-17 74 -17 153q0 105 32 221t89 227t137 212q77 97 175 175q94 75 203 120q108 45 220 45q132 0 202 -79t70 -206z" />
    <glyph glyph-name="H" unicode="H" horiz-adv-x="1363" 
d="M0 0l817 1319q-87 -23 -188 -67q-99 -43 -164 -107l133 289h602q-66 -42 -133 -102q-63 -56 -127 -126t-117 -139t-98 -137q65 70 151 118q82 46 185 46q133 0 199 -82q65 -81 65 -209q0 -95 -32 -205q-30 -102 -82 -216q-46 -101 -110 -206q-52 -85 -118 -176h-336
q93 47 178 122q86 75 152 167q64 89 104 196q39 105 39 211q0 30 -5 68q-5 36 -19 63q-16 30 -40 47q-27 19 -67 19q-69 0 -140 -49q-77 -53 -142 -128q-75 -87 -132 -178q-55 -89 -107 -199q-47 -101 -74 -188q-27 -89 -27 -151h-367z" />
    <glyph glyph-name="I" unicode="I" horiz-adv-x="393" 
d="M338 1602l-143 -146l-146 146l146 143zM0 0q28 56 48 126q20 72 20 132v1075q0 29 -23 57q-24 28 -45 44h387q-23 -19 -43 -43q-25 -30 -25 -54v-1081q0 -57 20 -131q20 -73 48 -125h-387z" />
    <glyph glyph-name="J" unicode="J" horiz-adv-x="985" 
d="M485 0q-67 0 -152 12t-160 45q-76 33 -127 89q-52 56 -52 143q0 54 29 94q31 42 62 76q34 37 61 79q28 44 28 101q0 21 -9 43q-9 23 -26 35q47 0 85 -11q42 -12 76 -34q32 -21 54 -59q21 -36 21 -83q0 -39 -19 -79q-12 -25 -40 -71q-6 -10 -19.5 -32t-20.5 -33
q-18 -30 -18 -65q0 -45 18 -81q17 -35 49 -60q32 -26 69 -38q42 -14 83 -14q42 0 88 19q39 16 77 49q30 26 54 72q21 41 21 86q0 40 -26 80q-10 15 -56 82q-29 43 -56 99q-26 55 -26 124q0 82 20 131q18 44 47 100q24 48 46 109q20 57 20 155q0 72 -36 147t-85 124h350
q-13 -9 -18 -38q-4 -24 -4 -40q0 -20 9 -41q2 -4 9 -20t11 -26q8 -19 19 -58q9 -31 9 -72q0 -91 -23 -148q-22 -55 -51 -105q-10 -17 -28 -46t-24 -40q-23 -39 -23 -89q0 -62 27 -98q21 -28 61 -68q33 -33 60 -72q28 -40 28 -106q0 -99 -46 -167q-47 -69 -117 -114t-158 -66
q-83 -20 -171 -20z" />
    <glyph glyph-name="K" unicode="K" horiz-adv-x="1110" 
d="M471 1434q-54 -42 -105 -114q-47 -67 -78 -142q-32 -76 -48 -156q-17 -82 -17 -154q0 -63 24 -123q26 -64 57 -116q38 -62 75 -112q42 -56 75 -109q30 -48 57 -111q24 -55 24 -113q0 -12 -4 -46q-3 -22 -11 -52q-8 -28 -19 -49q-12 -22 -30 -37h-459q41 14 83 39
q38 23 73 59q32 33 52 77q20 43 20 89q0 57 -13 114q-12 54 -31 100q-18 43 -42 97q-24 53 -41 105q-34 101 -48 208q-14 109 -14 214q0 33 3 78q3 44 9 91q6 45 18 89q13 46 28 74h362zM389 889q49 -50 119 -93q64 -39 146 -84q76 -42 153 -87q75 -44 136 -105
q62 -62 98 -135q38 -78 38 -180q0 -56 -23 -112q-24 -59 -69 -93h-307q26 16 45 44q20 30 31 60q13 35 17 68q5 38 5 61q0 75 -35 142q-32 62 -88 124q-53 59 -114 111q-57 49 -115 105q-54 53 -88 104q-35 53 -35 109q0 12 3 30q3 20 10 36q8 19 19 30q13 13 30 14
q-5 -38 13 -64q19 -28 58 -28q44 0 85 36q38 34 74 90q30 46 62 118q36 79 52 118q23 54 39 90t28 36h332q-28 0 -61 -44q-33 -43 -71 -109q-13 -22 -83 -139q-44 -73 -99 -139q-53 -64 -119 -108q-64 -43 -143 -43q-39 0 -74 7q-40 8 -69 30z" />
    <glyph glyph-name="L" unicode="L" horiz-adv-x="1388" 
d="M397 317q89 139 166 305q48 104 146 312q-60 6 -113 22t-99 49t-72 78q-28 48 -28 113q0 34 16 76q15 38 41 69q27 32 60 52t74 20q33 0 65 -14q34 -15 49 -45q-49 -7 -79 -45q-31 -39 -31 -86q0 -73 47 -126q46 -52 115 -75q48 92 65 124q39 70 89 134q49 63 111 109
q60 45 128 45q69 0 110 -38t41 -110q0 -68 -35 -123q-36 -57 -89 -101t-118 -74q-64 -30 -122 -42q-38 -78 -85 -178q-28 -60 -86 -178q-40 -81 -92 -174q-47 -84 -106 -166q107 -45 215 -45q51 0 94 11q51 13 88 35q40 24 64 61q25 39 25 94q0 42 -31 70t-72 28
q13 19 33 32q22 14 44 21q27 8 49 11q26 3 46 3q111 0 166 -70t55 -175q0 -88 -41 -150q-40 -61 -105 -100q-68 -41 -143 -58q-80 -18 -153 -18q-117 0 -220 41q-101 40 -200 100q-47 -52 -109 -90q-63 -39 -134 -39q-31 0 -71 8q-37 7 -71 26q-33 18 -54 45q-22 28 -22 69
q0 46 21 81t53 55q33 21 74 33q37 11 82 11q69 0 149 -23zM326 217q-12 4 -38 10q-17 4 -40 4q-25 0 -53 -6q-32 -7 -54 -19q-23 -13 -42 -35q-17 -20 -17 -50q0 -13 7 -23t22 -10q64 0 119 41q56 42 96 88zM975 1024q37 10 84 33q48 23 90 55q43 33 73 73q29 39 29 83
q0 14 -6 24q-6 11 -22 11q-38 0 -76 -33q-35 -31 -70 -77q-26 -35 -59 -91q-2 -3 -43 -78z" />
    <glyph glyph-name="M" unicode="M" horiz-adv-x="1867" 
d="M1069 1434q-14 -20 -31 -63q-8 -19 -25 -80q-14 -48 -20 -82q-9 -46 -12 -68q27 59 73 114t99 94t120 62q66 23 132 23q91 0 169 -34q80 -34 138 -93q58 -58 93 -139q34 -78 34 -169t-24 -160q-23 -66 -63 -122q-36 -50 -82 -98q-47 -49 -82 -92q-39 -49 -62 -97
q-25 -53 -25 -121q0 -35 6 -80q6 -46 21 -89q17 -49 38 -82q24 -38 56 -58h-362q-11 15 -14 31q-6 28 -7 43q-1 22 -3 42q-1 13 -1 25q0 75 31 129q32 56 77 101q39 39 102 95q56 49 101 108q49 63 78 142q31 84 31 197q0 66 -28 134q-25 62 -75 115q-49 52 -109 82
q-64 32 -132 32q-89 0 -155 -51q-67 -52 -110 -126q-46 -78 -67 -163q-23 -90 -23 -162q0 -189 15 -390q15 -203 67 -384h-233q52 181 67 384q15 201 15 390q0 72 -23 162q-23 89 -67 163t-112 126q-66 51 -155 51q-68 0 -132 -32q-60 -30 -109 -82q-50 -53 -75 -115
q-28 -68 -28 -134q0 -111 31 -196q29 -80 78 -143q45 -59 101 -108q63 -56 102 -95q46 -46 77 -102t31 -128q0 -12 -1 -25q-1 -20 -3 -42q-1 -22 -6 -43q-4 -20 -12 -31h-365q35 21 57 58q21 34 37 82q15 43 21 89q6 45 6 80q0 68 -25 121q-23 48 -62 97q-30 37 -82 91
q-43 45 -82 99q-38 53 -62 122q-25 72 -25 160q0 91 34 169q35 81 93 139q59 59 138 93q78 34 169 34q66 0 132 -23q67 -23 120 -62q52 -38 100 -94q45 -53 72 -114q-3 22 -12 68q-7 36 -20 81q-22 74 -24 80q-14 41 -30 64h295z" />
    <glyph glyph-name="N" unicode="N" horiz-adv-x="1069" 
d="M16 0q29 41 47 98q19 60 19 109v1073q0 38 -16 80q-18 46 -37 74h360q-19 -6 -31 -27q-12 -20 -19 -44q-8 -24 -9 -47q-2 -32 -2 -40q0 -133 29 -268q31 -144 85 -271q55 -130 137 -248q80 -116 181 -200v991q0 34 -16 80t-37 74h354q-18 -29 -35 -68q-18 -40 -18 -72
v-833q0 -65 7 -142q8 -89 23 -166q17 -88 43 -163q27 -77 66 -127q-12 0 -34 8q-14 5 -44 17q-15 6 -43 20l-33 16q-107 55 -209 128q-94 67 -187 162q-84 85 -156 192q-66 97 -113 217v-312q0 -42 7 -83q8 -47 22 -86q15 -43 39 -80t55 -62h-435z" />
    <glyph glyph-name="O" unicode="O" horiz-adv-x="1189" 
d="M39 434q0 94 30 205q31 113 82 222q56 118 125 214q75 103 162 182q89 80 188 128q101 49 203 49q109 0 178 -39q68 -39 109 -105q41 -67 56 -151q16 -91 16 -178q0 -92 -32 -202q-32 -109 -88 -214q-57 -107 -133 -205q-71 -92 -166 -174q-87 -75 -188 -121
q-99 -45 -202 -45q-95 0 -159 37t-104 98q-41 63 -59 139q-18 78 -18 160zM475 184q116 0 213 71q96 71 167 176q72 107 110 226q39 121 39 222q0 60 -16 127q-15 63 -48 114t-84 84t-125 33q-116 0 -213 -71q-96 -71 -167 -176q-70 -104 -109 -226t-39 -221q0 -64 15 -127
q15 -65 48 -115q33 -51 84 -84t125 -33zM715 725l-113 -113l-110 113l110 111z" />
    <glyph glyph-name="P" unicode="P" horiz-adv-x="958" 
d="M6 0q30 46 48 97q18 53 18 108v1077q0 39 -16 79q-15 38 -38 73h371q98 0 200 -22q93 -20 173 -75q75 -51 122 -141q46 -88 46 -223q0 -81 -27 -151t-74 -123t-110 -83t-139 -30q-57 0 -102 14q-50 16 -84 41t-56 65q-21 38 -21 87q0 59 33 102t99 43q14 0 34 -7t25 -24
q-13 -2 -19 -12q-6 -11 -6 -21q0 -15 15 -36t59 -21q34 0 66 13q31 13 58 41q25 26 42 70q16 41 16 99q0 84 -30 141q-28 53 -84 90q-51 33 -127 49q-73 15 -158 15h-21v-1024q0 -38 8 -84q9 -51 21 -85q15 -43 37 -79q21 -35 55 -63h-434z" />
    <glyph glyph-name="Q" unicode="Q" horiz-adv-x="1478" 
d="M12 717q0 145 58 278t156 228q96 93 234 152q134 57 285 57t285 -57q135 -58 234 -152t157 -228q58 -133 58 -278q0 -128 -43 -241q-45 -117 -119 -206q-78 -93 -179 -156q-106 -66 -225 -94q60 -13 92 -23q28 -9 84 -25q38 -11 85 -19q46 -8 92 -8q56 0 92 11
q40 12 67 28q33 18 54 39l84 -242q-16 -19 -45 -35q-21 -14 -56 -25q-31 -10 -80 -10q-86 0 -171 39q-78 35 -169 86q-87 48 -170 86q-86 39 -176 39q-34 0 -60 -10q-24 -9 -48 -23q-28 -18 -45 -32l-54 32q10 14 29 31q6 5 19.5 14t18.5 13q17 12 52 26q-123 23 -236 88
q-110 63 -190 157q-81 94 -125 211q-45 118 -45 249zM346 717q0 -139 32 -265q31 -121 85 -216q54 -94 127 -146q74 -53 155 -53q82 0 155 53q72 52 127 146q55 93 86 216q32 126 32 265q0 137 -32 263q-31 123 -86 216q-54 92 -127 145q-74 54 -155 54q-79 0 -155 -54
q-74 -53 -127 -145q-54 -95 -85 -216q-32 -126 -32 -263z" />
    <glyph glyph-name="R" unicode="R" horiz-adv-x="1300" 
d="M123 0q24 60 37 100q23 70 34 114q15 59 24 115q9 57 9 103v672q0 35 -5 83q-5 45 -15 88q-10 42 -26 85q-15 40 -38 74h615q184 0 290 -97q105 -96 105 -282q0 -82 -34 -141q-34 -60 -88 -100q-50 -38 -123 -63q-69 -24 -140 -30q60 -43 98 -109q40 -70 66 -128
q29 -65 62 -106q35 -44 89 -44q36 0 64 22q29 23 35 58v-381q-29 -19 -74 -26q-42 -7 -76 -7q-86 0 -144 32q-55 31 -89 84q-33 52 -49 117q-17 69 -26 136q-13 99 -17 135q-7 61 -28 118q-20 55 -53 83q-34 30 -96 30v49q74 0 144 19q65 18 112 57q47 40 74 99
q27 60 27 145q0 67 -23 118q-24 52 -61 82q-40 32 -92 47q-53 15 -117 15h-115v-872q0 -58 9 -124t27 -132q19 -71 44 -127q26 -60 62 -111h-498z" />
    <glyph glyph-name="S" unicode="S" horiz-adv-x="1142" 
d="M729 252q49 0 108 15q56 14 109 44q51 29 86 74q35 46 35 102q0 44 -31 77q-30 31 -73 52q-41 20 -92 31q-46 10 -83 10q-62 0 -114 -14q-74 -20 -110 -31q-16 -5 -34 -10t-40 -11t-34 -9q-54 -15 -112 -15q-40 0 -85 13q-43 12 -77 36q-33 23 -59 60q-25 36 -35 78
q-47 52 -68 114q-20 60 -20 131q0 82 35 163q35 80 93 140q59 60 136 96q78 36 162 36q82 0 145 -26q61 -26 114 -57q71 -43 100 -58q47 -25 108 -25q65 0 99 36q34 35 34 99q0 17 -2 31q38 -24 63 -70q25 -47 25 -92q0 -112 -65 -164q-67 -53 -172 -53q-57 0 -102 16
q-48 17 -95 37q-45 19 -107 37q-55 16 -137 16q-70 0 -126 -26q-57 -26 -101 -72q-44 -45 -68 -106q-24 -60 -24 -126q0 -32 9 -65q8 -31 34 -55q12 -5 24 -6q24 -3 25 -3q68 0 134 29q49 22 130 64q69 36 137 63q73 29 158 29q53 0 123 -16q63 -14 122 -47q53 -29 93 -82
q37 -49 37 -119q0 -65 -21 -117q10 -43 10 -82q0 -92 -38 -168q-37 -75 -103 -134q-61 -56 -145 -89q-82 -33 -168 -33q-77 0 -140 24q-68 26 -114 57q-51 35 -93 75q-37 36 -82 74q-41 35 -80 58t-85 23q-19 0 -42 -4q-27 -5 -40 -14q0 37 19 68q20 33 49 54q32 23 65 34
q37 12 70 12q65 0 111 -16t78 -38t64 -51q29 -26 65 -50t85 -39q50 -15 123 -15z" />
    <glyph glyph-name="T" unicode="T" horiz-adv-x="1531" 
d="M1487 1434v-271q-55 37 -118 73q-69 39 -137 71q-63 29 -141 56q-70 24 -133 30q-16 -43 -34 -123q-14 -64 -22 -136q-7 -61 -10 -138q-3 -69 -3 -128v-190q0 -84 10 -167q11 -92 28 -175t39 -173q17 -70 44 -163h-490q29 91 46 162q21 86 39 174q17 83 28 175
q10 83 10 167v190q0 59 -3 128q-3 77 -10 138q-7 68 -21 136q-13 68 -36 123q-61 -6 -132 -30q-78 -27 -141 -56q-68 -32 -137 -71q-63 -36 -118 -73v271h1442z" />
    <glyph glyph-name="U" unicode="U" horiz-adv-x="1490" 
d="M223 1434h611q-107 -69 -210 -166q-108 -102 -191 -214q-84 -113 -139 -245q-54 -129 -54 -258q0 -56 9 -113q8 -53 34 -103q23 -45 68 -76q43 -30 112 -30q94 0 181 69q89 71 167 178q81 112 149 246q78 155 127 269q63 148 101 251q16 43 38.5 107t30.5 85h197
q-27 -74 -77.5 -212.5t-72.5 -198.5q-11 -29 -66 -179.5t-85 -231.5q-25 -70 -41 -142q-18 -83 -29 -158q-12 -82 -18 -160q-7 -88 -8 -152h-404q83 118 146 233q67 123 108 252q-32 -75 -89 -160q-57 -86 -127 -157q-71 -73 -154 -120q-84 -48 -175 -48q-87 0 -153 30
q-67 31 -110 82q-44 53 -66 122q-23 72 -23 155q0 64 26 150t66 176q34 76 93 186q51 95 105 183q50 83 106 166q51 76 90 132q-94 -23 -203 -68q-103 -43 -178 -116z" />
    <glyph glyph-name="V" unicode="V" horiz-adv-x="1488" 
d="M1004 1296q0 50 24 84q25 36 62 57q38 21 81 30q50 10 86 10q30 0 73 -9q36 -7 65 -26t47 -48q18 -30 18 -71q0 -48 -26 -83q-27 -36 -78 -36q-38 0 -65 22q-25 20 -23 62q23 1 45 19q20 16 20 45q0 35 -26 49q-25 14 -56 14q-40 0 -60 -23q-22 -25 -22 -61q0 -44 24 -74
q25 -32 59 -57q34 -26 77 -51q38 -23 77 -55q33 -28 59 -71q24 -41 24 -95q0 -80 -48 -140q-47 -58 -122 -106q-72 -45 -158 -87q-85 -41 -157 -85q-74 -45 -122 -98q-48 -52 -48 -127q0 -35 10 -72q12 -44 26 -76q16 -37 37 -71q38 -62 39 -64h-31l3 -2h-277q3 7 5 22
q1 8 1 23q0 65 -21 131q-20 63 -48 125l-428 973q-22 52 -68 93q-44 40 -94 67q99 -4 197 -3q66 1 198 1q-10 -26 -15 -55q-6 -36 -6 -56q0 -61 21 -107l365 -833q0 92 45 160q46 69 113 117q75 53 149 90q21 10 71.5 34.5t76.5 37.5q73 36 114 68q45 35 45 77q0 33 -27 55
q-29 24 -66 42q-50 24 -86 38q-44 17 -86 45q-41 27 -67 62t-26 89z" />
    <glyph glyph-name="W" unicode="W" horiz-adv-x="1740" 
d="M963 1434q-119 -84 -243 -202q-132 -126 -232 -260q-105 -141 -174 -294q-68 -151 -68 -305q0 -47 9 -94q9 -45 31 -85q22 -39 58 -62t94 -23q63 0 119 28q-39 51 -57 113q-19 65 -19 125q0 61 21 149q21 89 61 169q39 78 101 137q60 57 135 57q42 0 74 -20
q33 -20 52 -50q17 -27 29 -68q11 -39 11 -75q0 -71 -28 -152q-24 -71 -72 -151q-45 -76 -98 -138q-51 -60 -108 -110q36 -31 84 -31q29 0 59 9q26 8 57 25q23 13 53 34q16 11 46 37q96 79 171 186q76 108 128 228q55 127 81 250q28 132 28 251q0 36 -3 79q-3 39 -11 89
q-7 40 -22 86q-14 41 -36 68h338q28 -58 40 -138q11 -71 11 -143q0 -110 -26 -233q-26 -125 -77 -255q-47 -122 -123 -248q-70 -116 -165 -213q-92 -94 -201 -149t-235 -55q-71 0 -132 20q-67 22 -118 64q-57 -41 -120 -62q-68 -22 -134 -22q-87 0 -155 28q-65 27 -108 77
q-40 47 -62 121q-21 70 -21 155q0 133 42 266q41 129 109 258q70 132 151 240q88 117 171 209q-97 -28 -194 -75t-168 -118l125 273h721zM594 313q0 -31 5 -69q4 -32 22 -68q55 41 101 96q52 62 90 128q40 67 66 142q25 71 25 136q0 34 -15 68t-59 34q-60 0 -103 -55
q-45 -57 -74 -132q-28 -71 -44 -155q-14 -73 -14 -125z" />
    <glyph glyph-name="X" unicode="X" horiz-adv-x="1441" 
d="M727 0q5 15 10 42q4 21 4 50q0 137 -45 289q-46 154 -133 311q-57 -68 -105 -141q-49 -75 -84 -145q-37 -74 -56 -138t-19 -116q0 -53 37 -94q37 -42 92 -58h-358q-17 11 -29 38t-12 58q0 46 39 119q42 79 106 163q63 83 160 186q99 105 196 190q-108 185 -242 359
q-134 173 -288 321h645q-21 -18 -33 -56t-12 -73q0 -245 145 -517q103 132 166 268q62 133 62 226q0 52 -37 93q-38 43 -92 59h358q17 -11 29 -38t12 -59q0 -42 -33 -108t-93 -147q-62 -84 -144 -173q-87 -95 -189 -188q54 -92 130 -194q59 -80 156 -191q72 -82 172 -179
q81 -79 181 -157h-696z" />
    <glyph glyph-name="Y" unicode="Y" horiz-adv-x="1775" 
d="M1774 1434q-40 -18 -84 -78q-44 -61 -81 -130q-43 -81 -70 -140q-8 -18 -25.5 -56t-24.5 -53q-70 -156 -127 -272q-73 -149 -143 -265q-57 -95 -121 -180q-61 -82 -136 -139q-76 -58 -168 -89q-94 -32 -216 -32q-101 0 -203 24q-108 25 -186 75q-85 54 -136 134
q-53 83 -53 199q0 59 14 107q15 52 44 91q28 37 74 63q43 24 106 24q38 0 81 -16q42 -16 58 -58q-37 -18 -60 -45q-25 -29 -41 -65q-15 -33 -23 -73q-7 -35 -7 -75q0 -59 17 -113q19 -59 50 -103q33 -46 82 -76t111 -30q80 0 154 51q73 50 136 122q60 69 113 151
q26 41 90 139q107 166 209 361q-47 -79 -113 -163q-70 -89 -152 -160q-85 -74 -176 -121q-93 -48 -189 -48q-29 0 -62 6q-32 6 -59 21t-44 38q-18 24 -18 60q0 47 26 111q30 75 62 137q42 82 82 153q49 86 82 154q38 78 63 145q25 68 25 119q0 23 -8 55q-7 29 -35 40h242
q33 -16 45 -54t12 -69q0 -51 -25 -117q-24 -64 -65 -141q-39 -73 -84 -150q-67 -113 -84 -144q-39 -69 -64 -125q-26 -58 -26 -89q0 -19 10 -25q11 -6 27 -6q57 0 134 47q76 47 159 123q82 76 161 170q75 90 141 188q60 90 101 180q39 86 39 140q0 43 -16 72h375z" />
    <glyph glyph-name="Z" unicode="Z" horiz-adv-x="1148" 
d="M1085 72q-31 -20 -75 -35q-31 -12 -87 -26q-45 -11 -114 -11q-89 0 -149 20q-55 18 -114 47q-38 18 -99 46q-44 20 -99 20q-66 0 -123 -20q-58 -20 -106 -45q-53 -29 -105 -68q-33 174 -9 308q24 136 84 237q60 102 149 179t185 136q102 62 192 107q89 44 171 92
q-85 5 -151 19q-71 15 -134 33q-53 15 -125 31q-58 13 -126 13q-70 0 -112 -21q-39 -20 -64 -51q-26 -29 -37 -71h-23v342q30 24 66 41q24 12 73 26q46 13 89 13q100 0 169 -18q76 -20 128 -38t118 -38q57 -17 140 -17q85 0 136 17q59 20 89 38q38 22 63 56q6 -13 7 -29
q6 -30 6 -96q0 -151 -65 -257q-66 -107 -164 -186q-100 -80 -218 -143q-119 -63 -228 -132q-108 -68 -195 -152q-85 -82 -115 -199q40 50 111 94q70 43 184 43q77 0 134 -15q62 -16 105 -32q54 -20 98 -33q46 -14 111 -14q64 0 105 17q43 18 71 40q31 23 53 57v-325z" />
    <glyph glyph-name="bracketleft" unicode="[" horiz-adv-x="540" 
d="M84 1436q29 34 72 51q39 16 86 16h278q-112 -16 -192 -47q-43 -17 -92 -46q-46 -28 -73 -68q-28 -42 -28 -93v-1065q0 -49 28 -91q26 -40 69 -67q45 -29 92 -46q55 -20 91 -29q52 -13 72 -16q8 -1 16.5 -2.5t12.5 -2.5h4h-34h-75q-59 0 -90 1t-81 1q-96 0 -158 66
q-39 44 -51 98q-12 57 -8 117q5 72 18 129q4 19 14 64t15 69q12 55 23 127q9 62 3 115q6 53 -3 114q-11 75 -23 128l-29 134q-14 60 -17 129q-3 62 9 116q12 55 51 98z" />
    <glyph glyph-name="backslash" unicode="\" horiz-adv-x="733" 
d="M713 0h-135l-558 1434h136z" />
    <glyph glyph-name="bracketright" unicode="]" horiz-adv-x="540" 
d="M457 1436q39 -40 51 -97q12 -55 9 -117q-3 -69 -17 -129l-29 -134q-15 -65 -24 -128q-9 -61 -3 -114q-6 -53 3 -115q9 -60 24 -127q5 -24 15 -69t14 -64q13 -57 18 -129q4 -60 -8 -117q-12 -54 -51 -98q-61 -66 -158 -66q-49 0 -80 -1t-91 -1h-75h-35q1 0 34 5
q20 3 72 16q36 9 91 29q45 16 91 46q44 29 70 67q28 42 28 91v1065q0 52 -29 93t-72 68q-49 30 -92 46q-80 31 -193 47h279q47 0 86 -16q43 -17 72 -51z" />
    <glyph glyph-name="asciicircum" unicode="^" horiz-adv-x="606" 
d="M182 514l-162 2q7 7 28 27.5t35 34.5t41.5 40t37.5 35q54 52 79 77l62 63l168 -164l115 -113l-162 -2l-121 199z" />
    <glyph glyph-name="underscore" unicode="_" horiz-adv-x="811" 
d="M20 -88v86h771v-86h-771z" />
    <glyph glyph-name="grave" unicode="`" horiz-adv-x="274" 
d="M207 1434l-187 217h162l72 -217h-47z" />
    <glyph glyph-name="a" unicode="a" 
d="M600 1403q0 8 -3 17t-11 14h270q-6 -6 -9 -18t-3 -19q0 -16 12 -82q4 -19 8.5 -44t11.5 -58t11 -55q6 -32 19.5 -97t20.5 -98q22 -110 42 -200q18 -83 36 -169q15 -74 21 -102q2 -8 29 -114q19 -74 45 -145q29 -78 58 -138q32 -65 69 -95h-475q6 2 9 39q2 27 4 81
q0 14 0.5 42.5t1.5 42.5q1 27 1 53q0 82 -3 163q-3 71 -11 163q-96 -20 -207 -65q-109 -44 -182 -111q-6 -44 -7 -65q-2 -42 -2 -64q0 -30 3 -76q3 -42 16 -92q11 -43 37 -78q24 -33 65 -33h-477q9 17 40 91q9 22 34 79t40 93q16 37 49 113t48 110q35 81 107 247
q83 192 105 244q55 131 90 212t64 151q23 56 23 63zM645 1225q-69 -158 -86 -194q-40 -86 -82 -192q-37 -93 -67 -198q-28 -97 -43 -207l88 195h295q-16 148 -47 300q-26 125 -58 296z" />
    <glyph glyph-name="b" unicode="b" horiz-adv-x="1157" 
d="M68 258v1083q0 29 -23 55t-45 38h571q71 0 141 -15q74 -16 128 -47q58 -33 93 -88q36 -55 36 -137q0 -98 -49 -183q-50 -86 -136 -133q84 -16 146 -47q65 -33 112 -84q48 -52 74 -118q27 -68 27 -152q0 -126 -49 -208q-50 -82 -129 -132q-78 -48 -183 -70
q-97 -20 -211 -20h-571q28 52 48 125q20 74 20 133zM133 68h438q75 0 137 34q60 33 108 92q47 58 72 125q25 68 25 138q0 59 -18 117q-18 57 -53 105q-34 45 -85 75q-49 28 -116 28q-31 0 -76 -16q-43 -15 -96 -41q-44 -21 -90 -52q-44 -29 -60 -48l107 235h156q45 0 84 27
t68 66t47 86t18 87q0 47 -17 93q-17 45 -46 79q-33 38 -71 57q-42 21 -94 21h-252v-1202z" />
    <glyph glyph-name="c" unicode="c" horiz-adv-x="1212" 
d="M897 1434q124 0 209 -67q84 -66 84 -198q0 -90 -46 -169q-46 -78 -126 -119q16 48 16 98q0 61 -20 108q-21 49 -58 85q-38 37 -86 57q-47 20 -108 20q-112 0 -208 -65q-99 -67 -168 -164q-72 -102 -112 -213q-41 -115 -41 -215q0 -58 14 -126q13 -65 44 -122
q28 -52 81 -92q49 -37 124 -37q63 0 126 27q65 28 119 69q62 47 105 96q50 56 80 103q-1 -36 -15 -80q-13 -41 -28 -76q-34 -70 -81 -134q-45 -61 -110 -113q-61 -49 -134 -78t-155 -29q-92 0 -156 37q-68 39 -106 96q-41 61 -60 137q-20 80 -20 158q0 99 31 217
q31 116 87 226q58 113 133 213q76 101 170 180q91 76 199 124q104 46 216 46z" />
    <glyph glyph-name="d" unicode="d" horiz-adv-x="1083" 
d="M72 258v1083q0 26 -23 54q-23 27 -45 39h350q199 0 335 -43q138 -43 225 -135q87 -91 127 -231q40 -139 40 -337q0 -183 -53 -315q-53 -133 -151 -214q-101 -84 -239 -121q-143 -38 -314 -38h-320q28 51 48 126q20 74 20 132zM137 68h187q133 0 233 56q104 58 172 148
q70 92 107 209q36 112 36 236q0 153 -23 269q-24 123 -85 209q-62 88 -168 134q-108 47 -272 47v-1202z" />
    <glyph glyph-name="e" unicode="e" horiz-adv-x="913" 
d="M580 68q48 0 97 12q50 12 94 35q45 23 81 58q35 33 57 81v-254h-901q28 56 48 126q20 72 20 132v1083q0 29 -23 54q-23 24 -45 39h883v-263q-23 47 -54 81q-38 41 -75 66q-43 29 -87 43q-47 15 -95 15h-252v-1202l-187 -106h439zM745 860v-43q-53 -8 -109 -25
q-57 -17 -115 -42q-49 -20 -106 -57q-52 -33 -87 -68l106 235h311z" />
    <glyph glyph-name="f" unicode="f" horiz-adv-x="1062" 
d="M2 891v51h213q-12 51 -38 151q-19 73 -19 152q0 91 30 154q29 61 85 103q55 41 127 59t155 18q67 0 139 -12q70 -12 138 -38q67 -26 124 -68q60 -44 97 -101l-150 -133q-11 47 -37 99q-24 48 -59 86t-82 61q-45 22 -104 22q-102 0 -165 -60t-63 -163q0 -82 24 -167
q3 -10 44 -163h209l67 -182q-54 54 -121 81q-72 29 -139 40q22 -91 62 -222q23 -77 70 -251q32 -120 58 -251q23 -116 23 -218q0 -112 -67 -182t-181 -70q-42 0 -86 12q-42 12 -71 45q76 -12 124 32t48 120q0 48 -13 134q-14 90 -32 169q-25 105 -46 186q-8 30 -52 188
q-13 46 -48 175q-20 74 -37 143h-227z" />
    <glyph glyph-name="g" unicode="g" horiz-adv-x="1128" 
d="M1124 1149q0 -42 -13 -81q-14 -41 -37 -76t-54 -64t-68 -47q17 46 17 94q0 59 -21 109q-22 51 -56 87q-35 36 -86 58q-47 20 -110 20q-108 0 -201 -62q-98 -65 -168 -156q-73 -94 -116 -204t-43 -208q0 -63 12 -133q12 -71 42 -131q29 -58 80 -100q49 -40 128 -40
q81 0 158 41t142 103q68 65 121 137t91 139q-52 -11 -125 -32q-66 -19 -133 -45q-68 -26 -125 -59q-59 -34 -102 -77l135 295h498l-54 -176q-27 -89 -48 -177q-23 -96 -34 -180q-12 -90 -12 -184h-291q40 65 63 120q18 42 56 122q-84 -106 -197 -174t-251 -68q-90 0 -153 39
t-100 101q-38 64 -56 141q-17 74 -17 153q0 105 32 221t89 227t137 212q77 97 175 175q94 75 203 120q108 45 220 45q132 0 202 -79t70 -206z" />
    <glyph glyph-name="h" unicode="h" horiz-adv-x="1363" 
d="M0 0l817 1319q-87 -23 -188 -67q-99 -43 -164 -107l133 289h602q-66 -42 -133 -102q-63 -56 -127 -126t-117 -139t-98 -137q65 70 151 118q82 46 185 46q133 0 199 -82q65 -81 65 -209q0 -95 -32 -205q-30 -102 -82 -216q-46 -101 -110 -206q-52 -85 -118 -176h-336
q93 47 178 122q86 75 152 167q64 89 104 196q39 105 39 211q0 30 -5 68q-5 36 -19 63q-16 30 -40 47q-27 19 -67 19q-69 0 -140 -49q-77 -53 -142 -128q-75 -87 -132 -178q-55 -89 -107 -199q-47 -101 -74 -188q-27 -89 -27 -151h-367z" />
    <glyph glyph-name="i" unicode="i" horiz-adv-x="393" 
d="M338 1602l-143 -146l-146 146l146 143zM0 0q28 56 48 126q20 72 20 132v1075q0 29 -23 57q-24 28 -45 44h387q-23 -19 -43 -43q-25 -30 -25 -54v-1081q0 -57 20 -131q20 -73 48 -125h-387z" />
    <glyph glyph-name="j" unicode="j" horiz-adv-x="985" 
d="M485 0q-67 0 -152 12t-160 45q-76 33 -127 89q-52 56 -52 143q0 54 29 94q31 42 62 76q34 37 61 79q28 44 28 101q0 21 -9 43q-9 23 -26 35q47 0 85 -11q42 -12 76 -34q32 -21 54 -59q21 -36 21 -83q0 -39 -19 -79q-12 -25 -40 -71q-6 -10 -19.5 -32t-20.5 -33
q-18 -30 -18 -65q0 -45 18 -81q17 -35 49 -60q32 -26 69 -38q42 -14 83 -14q42 0 88 19q39 16 77 49q30 26 54 72q21 41 21 86q0 40 -26 80q-10 15 -56 82q-29 43 -56 99q-26 55 -26 124q0 82 20 131q18 44 47 100q24 48 46 109q20 57 20 155q0 72 -36 147t-85 124h350
q-13 -9 -18 -38q-4 -24 -4 -40q0 -20 9 -41q2 -4 9 -20t11 -26q8 -19 19 -58q9 -31 9 -72q0 -91 -23 -148q-22 -55 -51 -105q-10 -17 -28 -46t-24 -40q-23 -39 -23 -89q0 -62 27 -98q21 -28 61 -68q33 -33 60 -72q28 -40 28 -106q0 -99 -46 -167q-47 -69 -117 -114t-158 -66
q-83 -20 -171 -20z" />
    <glyph glyph-name="k" unicode="k" horiz-adv-x="1110" 
d="M471 1434q-54 -42 -105 -114q-47 -67 -78 -142q-32 -76 -48 -156q-17 -82 -17 -154q0 -63 24 -123q25 -61 57 -115q33 -54 75 -112q43 -59 75 -109q29 -46 57 -110q24 -56 24 -115q0 -45 -15 -99q-16 -56 -49 -85h-459q41 14 83 39q38 23 73 59q32 33 52 77q20 43 20 89
q0 57 -13 114q-12 54 -31 100q-18 43 -42 97q-24 53 -41 105q-34 101 -48 208q-14 109 -14 214q0 35 3 80t9 90q6 44 18 88q13 46 28 74h362zM389 889q55 -59 128 -105q69 -43 150 -86q77 -40 150 -84q77 -46 132 -99q58 -57 94 -131q36 -75 36 -179q0 -58 -23 -113
q-24 -58 -69 -92h-307q28 17 45 43q21 31 31 59q13 35 17 68q5 38 5 63q0 75 -35 142q-32 62 -88 124q-53 59 -114 111q-57 49 -115 105q-54 53 -88 104q-35 53 -35 109q0 15 3 33q3 19 10 34q8 18 19 29q13 13 30 14q-11 -35 13 -63q24 -29 58 -29q44 0 85 36q38 34 74 90
q30 46 62 118q36 79 52 118q23 54 39 90t28 36h332q-28 0 -61 -44q-33 -43 -71 -109q-13 -22 -83 -139q-44 -73 -99 -139q-53 -64 -119 -108q-64 -43 -143 -43q-38 0 -73 7q-37 7 -70 30z" />
    <glyph glyph-name="l" unicode="l" horiz-adv-x="1388" 
d="M397 317q89 139 166 305q48 104 146 312q-60 6 -113 22t-99 49t-72 78q-28 48 -28 113q0 34 16 76q15 38 41 69q27 32 60 52t74 20q33 0 65 -14q34 -15 49 -45q-49 -7 -79 -45q-31 -39 -31 -86q0 -73 47 -126q46 -52 115 -75q48 92 65 124q39 70 89 134q49 63 111 109
q60 45 128 45q69 0 110 -38t41 -110q0 -68 -35 -123q-36 -57 -89 -101t-118 -74q-64 -30 -122 -42q-38 -78 -85 -178q-28 -60 -86 -178q-40 -81 -92 -174q-47 -84 -106 -166q107 -45 215 -45q51 0 94 11q51 13 88 35q40 24 64 61q25 39 25 94q0 42 -31 70t-72 28
q13 19 33 32q22 14 44 21q27 8 49 11q26 3 46 3q111 0 166 -70t55 -175q0 -88 -41 -150q-40 -61 -105 -100q-68 -41 -143 -58q-80 -18 -153 -18q-117 0 -220 41q-101 40 -200 100q-47 -52 -109 -90q-63 -39 -134 -39q-31 0 -71 8q-37 7 -71 26q-33 18 -54 45q-22 28 -22 69
q0 46 21 81t53 55q33 21 74 33q37 11 82 11q69 0 149 -23zM326 217q-12 4 -38 10q-17 4 -40 4q-25 0 -53 -6q-32 -7 -54 -19q-23 -13 -42 -35q-17 -20 -17 -50q0 -13 7 -23t22 -10q64 0 119 41q56 42 96 88zM975 1024q37 10 84 33q48 23 90 55q43 33 73 73q29 39 29 83
q0 14 -6 24q-6 11 -22 11q-38 0 -76 -33q-35 -31 -70 -77q-26 -35 -59 -91q-2 -3 -43 -78z" />
    <glyph glyph-name="m" unicode="m" horiz-adv-x="1867" 
d="M1069 1434q-14 -20 -31 -63q-8 -19 -25 -80q-14 -48 -20 -82q-9 -46 -12 -68q27 59 73 114t99 94t120 62q66 23 132 23q91 0 169 -34q80 -34 138 -93q58 -58 93 -139q34 -78 34 -169t-24 -160q-23 -66 -63 -122q-36 -50 -82 -98q-47 -49 -82 -92q-39 -49 -62 -97
q-25 -53 -25 -121q0 -35 6 -80q6 -46 21 -89q17 -49 38 -82q24 -38 56 -58h-362q-11 15 -14 31q-6 28 -7 43q-1 22 -3 42q-1 13 -1 25q0 75 31 129q32 56 77 101q39 39 102 95q56 49 101 108q49 63 78 142q31 84 31 197q0 66 -28 134q-25 62 -75 115q-49 52 -109 82
q-64 32 -132 32q-89 0 -155 -51q-67 -52 -110 -126q-46 -78 -67 -163q-23 -90 -23 -162q0 -189 15 -390q15 -203 67 -384h-233q52 181 67 384q15 201 15 390q0 72 -23 162q-23 89 -67 163t-112 126q-66 51 -155 51q-68 0 -132 -32q-60 -30 -109 -82q-50 -53 -75 -115
q-28 -68 -28 -134q0 -111 31 -196q29 -80 78 -143q45 -59 101 -108q63 -56 102 -95q46 -46 77 -102t31 -128q0 -12 -1 -25q-1 -20 -3 -42q-1 -22 -6 -43q-4 -20 -12 -31h-365q35 21 57 58q21 34 37 82q15 43 21 89q6 45 6 80q0 68 -25 121q-23 48 -62 97q-30 37 -82 91
q-43 45 -82 99q-38 53 -62 122q-25 72 -25 160q0 91 34 169q35 81 93 139q59 59 138 93q78 34 169 34q66 0 132 -23q67 -23 120 -62q52 -38 100 -94q45 -53 72 -114q-3 22 -12 68q-7 36 -20 81q-22 74 -24 80q-14 41 -30 64h295z" />
    <glyph glyph-name="n" unicode="n" horiz-adv-x="1069" 
d="M14 -2q29 41 47 98q19 60 19 109v1075q0 35 -17 80q-19 49 -36 74h360q-19 -6 -31 -26q-12 -19 -18 -44q-6 -24 -9 -48t-3 -40q0 -133 29 -268q31 -143 85 -272q55 -131 137 -248q81 -116 183 -201v993q0 35 -17 80q-19 49 -36 74h354q-18 -29 -35 -68q-18 -40 -18 -72
v-835q0 -65 7 -142q8 -89 23 -166q17 -88 43 -163q27 -77 66 -127q-12 0 -34 8q-14 5 -44 17q-15 6 -43 20l-33 16q-108 56 -210 129q-95 69 -188 163q-84 85 -156 192q-66 97 -113 217v-314q0 -42 7 -83q8 -47 22 -86q15 -43 39 -80t55 -62h-435z" />
    <glyph glyph-name="o" unicode="o" horiz-adv-x="1189" 
d="M39 434q0 94 30 205q31 113 82 222q56 118 125 214q75 103 162 182q89 80 188 128q101 49 203 49q109 0 178 -39q68 -39 109 -105q41 -67 56 -151q16 -91 16 -178q0 -92 -32 -202q-32 -109 -88 -214q-57 -107 -133 -205q-71 -92 -166 -174q-87 -75 -188 -121
q-99 -45 -202 -45q-95 0 -159 37t-104 98q-41 63 -59 139q-18 78 -18 160zM475 184q116 0 213 71q96 71 167 176q72 107 110 226q39 121 39 222q0 60 -16 127q-15 63 -48 114t-84 84t-125 33q-116 0 -213 -71q-96 -71 -167 -176q-70 -104 -109 -226t-39 -221q0 -64 15 -127
q15 -65 48 -115q33 -51 84 -84t125 -33zM715 725l-113 -113l-110 113l110 111z" />
    <glyph glyph-name="p" unicode="p" horiz-adv-x="958" 
d="M6 0q30 46 48 97q18 53 18 108v1077q0 39 -16 79q-15 38 -38 73h371q98 0 200 -22q93 -20 173 -75q75 -51 122 -141q46 -88 46 -223q0 -81 -27 -151t-74 -123t-110 -83t-139 -30q-57 0 -102 14q-50 16 -84 41t-56 65q-21 38 -21 87q0 59 33 102t99 43q14 0 34 -7t25 -24
q-13 -2 -19 -12q-6 -11 -6 -21q0 -15 15 -36t59 -21q34 0 66 13q31 13 58 41q25 26 42 70q16 41 16 99q0 84 -30 141q-28 53 -84 90q-51 33 -127 49q-73 15 -158 15h-21v-1024q0 -38 8 -84q9 -51 21 -85q15 -43 37 -79q21 -35 55 -63h-434z" />
    <glyph glyph-name="q" unicode="q" horiz-adv-x="1478" 
d="M12 717q0 149 59 281q60 133 158 227q100 95 234 151q135 56 282 56q146 0 281 -56q134 -56 234 -151q97 -93 159 -227q60 -130 60 -281q0 -127 -43 -240q-45 -118 -118 -207q-76 -92 -178 -156q-106 -66 -227 -94q87 -18 176 -47q84 -28 177 -28q52 0 114 18
q60 17 99 60l84 -242q-28 -34 -83 -52q-54 -18 -98 -18q-88 0 -172 39q-78 36 -168 86q-91 51 -169 86q-85 39 -177 39q-38 0 -82 -18q-41 -17 -71 -47l-54 32q18 28 55 50q43 25 64 34q-123 23 -236 88q-111 64 -190 158q-81 96 -125 211q-45 117 -45 248zM346 717
q0 -56 9 -128q9 -69 29 -149q19 -75 51 -148q30 -69 76 -129q43 -56 102 -91t132 -35q74 0 133 35t102 91q46 60 76 129q32 73 51 148q20 80 29 149q9 72 9 128q0 55 -9 127q-9 69 -30 147t-51 149q-29 69 -76 129q-44 56 -102 91t-132 35q-73 0 -132 -35t-102 -91
q-46 -60 -76 -129q-31 -71 -51 -148q-20 -79 -29 -147q-9 -72 -9 -128z" />
    <glyph glyph-name="r" unicode="r" horiz-adv-x="1300" 
d="M123 0q24 60 37 100q23 70 34 114q15 59 24 115q9 57 9 103v672q0 35 -5 83q-5 45 -15 88q-10 42 -26 85q-15 40 -38 74h615q184 0 290 -97q105 -96 105 -282q0 -82 -34 -141q-34 -60 -88 -100q-50 -38 -123 -63q-69 -24 -140 -30q60 -43 98 -109q40 -70 66 -128
q29 -65 62 -106q35 -44 89 -44q36 0 64 22q29 23 35 58v-381q-29 -19 -74 -26q-42 -7 -76 -7q-86 0 -144 32q-55 31 -89 84q-33 52 -49 117q-17 69 -26 136q-13 99 -17 135q-7 61 -28 118q-20 55 -53 83q-34 30 -96 30v49q74 0 144 19q65 18 112 57q47 40 74 99
q27 60 27 145q0 67 -23 118q-24 52 -61 82q-40 32 -92 47q-53 15 -117 15h-115v-872q0 -58 9 -124t27 -132q19 -71 44 -127q26 -60 62 -111h-498z" />
    <glyph glyph-name="s" unicode="s" horiz-adv-x="1142" 
d="M729 252q76 0 136 20q65 22 107 55q45 36 69 75q26 43 26 85q0 33 -21 63q-19 28 -59 53q-35 22 -88 38q-49 14 -111 16h-8q-70 0 -120 -14q-66 -18 -104 -31q-8 -2 -101 -30q-51 -15 -111 -15q-80 0 -130 29q-54 31 -78 62q-28 36 -38 64q-10 29 -10 32q-34 40 -61 100
t-27 145q0 60 27 135q27 76 79 141t134 113q79 46 186 46q84 0 147 -26t113 -57q61 -38 98 -58q46 -25 109 -25t89 25q27 26 38 59q10 34 4 82q22 -17 45 -41q15 -21 30 -52q13 -27 13 -69q0 -98 -57 -158q-56 -59 -181 -59q-62 0 -103 16q-45 18 -85 37q-42 20 -100 37
q-55 16 -152 16q-107 0 -178 -56q-73 -58 -108 -131q-35 -72 -33 -150q1 -73 43 -113q11 -5 21 -6q24 -3 28 -3q69 0 133 29q49 22 129 64q66 35 138 63q73 29 159 29q97 0 169 -26t117 -64t67 -86q22 -49 22 -88q0 -41 -6 -70q-5 -22 -15 -47q10 -39 10 -82
q-5 -87 -38 -161t-96 -135q-60 -58 -141 -93q-82 -35 -179 -35q-77 0 -140 24q-68 26 -114 57q-51 35 -93 75q-37 36 -82 74q-41 35 -80 58t-85 23q-17 0 -37 -2q-14 -1 -25 -6q-14 -5 -20 -10q0 30 14 58q17 33 41 55q27 24 65 39q40 16 83 16q64 0 112 -16t78 -38
q35 -26 62 -51q26 -25 64 -50q36 -24 85 -39t125 -15z" />
    <glyph glyph-name="t" unicode="t" horiz-adv-x="1531" 
d="M1487 1434v-271q-55 37 -118 73q-69 39 -137 71q-63 29 -141 56q-70 24 -133 30q-15 -41 -34 -124q-14 -62 -22 -135q-7 -61 -10 -137q-3 -67 -3 -129v-190q0 -86 10 -169q11 -87 27 -174q14 -76 38 -172q16 -67 46 -163h-490q30 96 46 163q22 88 39 172q17 81 28 174
q10 83 10 169v190q0 62 -3 129q-3 76 -10 137q-8 69 -21 135q-14 68 -36 124q-61 -6 -132 -30q-78 -27 -141 -56t-136 -71q-58 -33 -119 -73v271h1442z" />
    <glyph glyph-name="u" unicode="u" horiz-adv-x="1490" 
d="M223 1434h611q-107 -69 -210 -166q-108 -102 -191 -214q-84 -113 -139 -245q-54 -129 -54 -258q0 -56 9 -113q8 -53 34 -103q23 -45 68 -76q43 -30 112 -30q94 0 181 69q89 71 167 178q81 112 149 246q78 155 127 269q63 148 101 251q16 43 38.5 107t30.5 85h197
q-27 -74 -77.5 -212.5t-72.5 -198.5q-11 -29 -66 -179.5t-85 -231.5q-25 -70 -41 -142q-18 -83 -29 -158q-12 -82 -18 -160q-7 -88 -8 -152h-404q83 118 146 233q67 123 108 252q-32 -75 -89 -160q-57 -86 -127 -157q-71 -73 -154 -120q-84 -48 -175 -48q-87 0 -153 30
q-67 31 -110 82q-44 53 -66 122q-23 72 -23 155q0 64 26 150t66 176q34 76 93 186q51 95 105 183q50 83 106 166q51 76 90 132q-94 -23 -203 -68q-103 -43 -178 -116z" />
    <glyph glyph-name="v" unicode="v" horiz-adv-x="1488" 
d="M1004 1296q0 50 24 84q25 36 62 57q38 21 81 30q50 10 86 10q30 0 73 -9q36 -7 65 -26t47 -48q18 -30 18 -71q0 -48 -26 -83q-27 -36 -78 -36q-38 0 -65 22q-25 20 -23 62q23 1 45 19q20 16 20 45q0 35 -26 49q-25 14 -56 14q-40 0 -60 -23q-22 -25 -22 -61q0 -44 24 -74
q25 -32 59 -57q34 -26 77 -51q38 -23 77 -55q33 -28 59 -71q24 -41 24 -95q0 -80 -48 -140q-47 -58 -122 -106q-72 -45 -158 -87q-85 -41 -157 -85q-74 -45 -122 -98q-48 -52 -48 -127q0 -35 10 -72q12 -44 26 -76q16 -37 37 -71q38 -62 39 -64h-31l3 -2h-277q3 7 5 22
q1 8 1 23q0 65 -21 131q-20 63 -48 125l-428 973q-22 52 -68 93q-44 40 -94 67q99 -4 197 -3q66 1 198 1q-10 -26 -15 -55q-6 -36 -6 -56q0 -61 21 -107l365 -833q0 92 45 160q46 69 113 117q75 53 149 90q21 10 71.5 34.5t76.5 37.5q73 36 114 68q45 35 45 77q0 33 -27 55
q-29 24 -66 42q-50 24 -86 38q-44 17 -86 45q-41 27 -67 62t-26 89z" />
    <glyph glyph-name="w" unicode="w" horiz-adv-x="1740" 
d="M963 1434q-119 -84 -243 -202q-132 -126 -232 -260q-105 -141 -174 -294q-68 -151 -68 -305q0 -47 9 -94q9 -45 31 -85q22 -39 58 -62t94 -23q63 0 119 28q-39 51 -57 113q-19 65 -19 125q0 61 21 149q21 89 61 169q39 78 101 137q60 57 135 57q42 0 74 -20
q33 -20 52 -50q17 -27 29 -68q11 -39 11 -75q0 -71 -28 -152q-24 -71 -72 -151q-45 -76 -98 -138q-51 -60 -108 -110q36 -31 84 -31q29 0 59 9q26 8 57 25q23 13 53 34q16 11 46 37q96 79 171 186q76 108 128 228q55 127 81 250q28 132 28 251q0 36 -3 79q-3 39 -11 89
q-7 40 -22 86q-14 41 -36 68h338q28 -58 40 -138q11 -71 11 -143q0 -110 -26 -233q-26 -125 -77 -255q-47 -122 -123 -248q-70 -116 -165 -213q-92 -94 -201 -149t-235 -55q-71 0 -132 20q-67 22 -118 64q-57 -41 -120 -62q-68 -22 -134 -22q-87 0 -155 28q-65 27 -108 77
q-40 47 -62 121q-21 70 -21 155q0 133 42 266q41 129 109 258q70 132 151 240q88 117 171 209q-97 -28 -194 -75t-168 -118l125 273h721zM594 313q0 -31 5 -69q4 -32 22 -68q55 41 101 96q52 62 90 128q40 67 66 142q25 71 25 136q0 34 -15 68t-59 34q-60 0 -103 -55
q-45 -57 -74 -132q-28 -71 -44 -155q-14 -73 -14 -125z" />
    <glyph glyph-name="x" unicode="x" horiz-adv-x="1441" 
d="M727 0q5 15 10 42q4 21 4 50q0 137 -45 289q-46 154 -133 311q-57 -68 -105 -141q-49 -75 -84 -145q-37 -74 -56 -138t-19 -116q0 -53 37 -94q37 -42 92 -58h-358q-17 11 -29 38t-12 58q0 46 39 119q42 79 106 163q63 83 160 186q99 105 196 190q-108 185 -242 359
q-134 173 -288 321h645q-21 -18 -33 -56t-12 -73q0 -245 145 -517q103 132 166 268q62 133 62 226q0 52 -37 93q-38 43 -92 59h358q17 -11 29 -38t12 -59q0 -42 -33 -108t-93 -147q-62 -84 -144 -173q-87 -95 -189 -188q54 -92 130 -194q59 -80 156 -191q72 -82 172 -179
q81 -79 181 -157h-696z" />
    <glyph glyph-name="y" unicode="y" horiz-adv-x="1775" 
d="M1774 1434q-40 -18 -84 -78q-44 -61 -81 -130q-43 -81 -70 -140q-8 -18 -25.5 -56t-24.5 -53q-70 -156 -127 -272q-73 -149 -143 -265q-57 -95 -121 -180q-61 -82 -136 -139q-76 -58 -168 -89q-94 -32 -216 -32q-101 0 -203 24q-108 25 -186 75q-85 54 -136 134
q-53 83 -53 199q0 59 14 107q15 52 44 91q28 37 74 63q43 24 106 24q38 0 81 -16q42 -16 58 -58q-37 -18 -60 -45q-25 -29 -41 -65q-15 -33 -23 -73q-7 -35 -7 -75q0 -59 17 -113q19 -59 50 -103q33 -46 82 -76t111 -30q80 0 154 51q73 50 136 122q60 69 113 151
q26 41 90 139q107 166 209 361q-47 -79 -113 -163q-70 -89 -152 -160q-85 -74 -176 -121q-93 -48 -189 -48q-29 0 -62 6q-32 6 -59 21t-44 38q-18 24 -18 60q0 47 26 111q30 75 62 137q42 82 82 153q49 86 82 154q38 78 63 145q25 68 25 119q0 23 -8 55q-7 29 -35 40h242
q33 -16 45 -54t12 -69q0 -51 -25 -117q-24 -64 -65 -141q-39 -73 -84 -150q-67 -113 -84 -144q-39 -69 -64 -125q-26 -58 -26 -89q0 -19 10 -25q11 -6 27 -6q57 0 134 47q76 47 159 123q82 76 161 170q75 90 141 188q60 90 101 180q39 86 39 140q0 43 -16 72h375z" />
    <glyph glyph-name="z" unicode="z" horiz-adv-x="1148" 
d="M1085 72q-60 -37 -133 -54q-78 -18 -143 -18q-83 0 -143 20q-65 21 -117 47q-38 18 -101 46q-46 20 -100 20q-86 0 -176 -40q-93 -41 -158 -93q-18 92 -18 184q0 130 33 230q32 99 90 179q54 75 134 141q75 62 164 117q79 49 182 103q102 53 187 105q-73 5 -136 19
q-55 13 -133 32q-34 9 -133 31q-62 14 -134 14q-34 0 -68 -9t-64 -27q-31 -18 -52 -44q-23 -28 -29 -63h-23v342q44 34 109 57q64 23 119 23q80 0 149 -18q86 -23 135 -38q50 -16 131 -38q62 -17 140 -17q32 0 74 6q36 5 83 19q42 13 76 33q31 19 55 53q10 -24 12 -64
q1 -26 1 -61q0 -116 -37 -202q-39 -90 -99 -156q-61 -67 -143 -124q-70 -49 -167 -104q-18 -10 -79 -44.5t-94 -53.5q-92 -53 -160 -106q-75 -58 -129 -124t-77 -155q55 69 130 103q74 34 165 34q60 0 117 -15q72 -19 110 -32q53 -18 108 -33q52 -14 113 -14q63 0 129 28
t100 86v-325z" />
    <glyph glyph-name="braceleft" unicode="{" horiz-adv-x="563" 
d="M207 -70q-52 18 -92 45q-35 23 -64 58q-28 34 -28 82q0 60 19 101q20 42 48 78q20 25 62 73q31 36 61 84q28 46 48 110q20 65 20 156q0 90 -20 155q-20 66 -48 111q-30 48 -61 84q-42 48 -62 73q-28 36 -48 78q-19 41 -19 101q0 48 28 82q27 33 64 57q40 27 92 45h334
q-113 -16 -193 -47q-43 -17 -92 -46q-46 -28 -73 -68t-27 -93q0 -54 22 -94q25 -44 55 -76q30 -31 73 -68q39 -33 73 -75q32 -39 55 -93t23 -126t-23 -126t-55 -93q-34 -42 -73 -75q-38 -32 -73 -69q-33 -35 -55 -74q-22 -40 -22 -96q0 -53 28 -93t72 -67q53 -33 92 -47
q80 -31 193 -47h-334z" />
    <glyph glyph-name="bar" unicode="|" horiz-adv-x="157" 
d="M25 0l-5 1434h115l2 -1434h-112z" />
    <glyph glyph-name="braceright" unicode="}" horiz-adv-x="563" 
d="M23 -70q113 16 194 47q42 15 93 47q47 29 72 67q28 42 28 93q0 55 -23 96t-56 74q-38 38 -73 69q-37 33 -73 75q-32 38 -56 93q-23 54 -23 126t23 126q24 55 56 93q36 42 73 75q43 38 73 68q32 32 56 75q23 41 23 95q0 52 -29 93t-72 68q-49 30 -92 46q-81 31 -194 47
h333q54 -19 93 -45q35 -22 63 -57q29 -35 29 -82q0 -58 -20 -101q-19 -42 -48 -78q-29 -37 -61 -73q-35 -39 -62 -84q-28 -45 -48 -111q-19 -61 -19 -155q0 -95 19 -156q20 -64 48 -110q27 -45 62 -84q32 -36 61 -73q29 -36 48 -78q20 -43 20 -101q0 -47 -29 -82
q-30 -37 -63 -58q-39 -26 -93 -45h-333z" />
    <glyph glyph-name="asciitilde" unicode="~" horiz-adv-x="716" 
d="M532 639q55 0 81 16q27 17 44 35q17 22 21 51h18v-196q-21 -12 -43 -19q-25 -9 -49 -14q-29 -6 -65 -6q-71 0 -112 16q-46 18 -77 37q-27 16 -72 38q-35 17 -98 17q-52 0 -80 -19t-43 -42q-13 -24 -18 -61h-19v196q18 23 41 41q20 14 50 27q29 12 63 12q72 0 112 -20
t76 -45q23 -16 73 -44q36 -20 97 -20z" />
    <glyph glyph-name="section" unicode="&#xa7;" horiz-adv-x="1069" 
d="M801 428q89 0 146 45t57 96q0 40 -48 71q-47 31 -118 32h-7q-36 0 -71 -8q-25 -6 -63 -19q-30 -11 -60 -18q-36 -9 -66 -9q-47 0 -78 17q-32 17 -47 37q-16 21 -22 38q-6 18 -6 19q-23 24 -38 61q-15 36 -15 87q0 34 15 79q15 44 48 85q34 41 81 68q50 28 112 28
q48 0 88 -16q28 -11 66 -34q26 -16 59 -33q30 -16 65 -16t54 16q18 15 24 33q6 24 2 50q16 -11 27 -25q8 -9 17 -31q7 -17 7 -41q0 -60 -34 -95q-34 -36 -107 -36q-37 0 -62 11q-7 3 -24 10t-27 11q-27 12 -60 22t-91 10q-63 0 -107 -33q-43 -32 -64 -78q-22 -48 -21 -90
q1 -44 26 -67q14 -7 28 -7q43 0 81 18q59 28 77 38q29 16 83 38q41 17 95 17q60 0 102 -15t69 -39t41 -52t14 -52q0 -22 -5 -42t-8 -27q6 -21 6 -50q-1 -49 -23 -97q-21 -47 -57 -81q-35 -34 -84 -55q-46 -20 -108 -20q-72 0 -121 28q-47 27 -88 65q-38 35 -73 64t-74 29
q-25 0 -37 -6q-7 -1 -12 -6q0 35 32 68q33 34 88 34q63 0 94 -19q28 -17 58 -44q33 -29 61 -45q34 -19 103 -19zM459 147q89 0 146 45t57 97q0 38 -49 69q-51 32 -119 33h-5q-36 0 -71 -8q-33 -7 -63 -18q-40 -14 -60 -19q-32 -8 -68 -8q-47 0 -76 16q-32 17 -47 37
q-16 21 -22 38q-6 18 -6 20q-23 25 -38 59t-15 88q0 35 15 80q14 43 47 85q30 39 80 67t111 28q54 0 90 -15q34 -14 66 -35q28 -18 60 -35q28 -15 65 -15t53 15q17 16 23 36q6 22 2 49q16 -11 27 -25q10 -12 18 -30q8 -19 8 -41q0 -60 -34 -95q-34 -36 -107 -36
q-39 0 -62 10q-7 3 -24 10t-27 11q-27 12 -60 22t-91 10q-64 0 -107 -34q-44 -35 -64 -78q-22 -48 -21 -91q1 -44 26 -67l12 -3q4 -1 16 -1q46 0 81 17q59 28 77 38q29 16 83 38q41 17 95 17q60 0 102 -15t69 -39q28 -25 41 -51q14 -28 14 -52q0 -22 -5 -42q-6 -22 -8 -28
q0 -4 1.5 -12t2.5 -12q2 -16 2 -25q-1 -49 -23 -97q-21 -47 -57 -81q-37 -35 -84 -56q-46 -20 -108 -20q-71 0 -121 29t-88 64q-48 45 -73 65q-34 28 -74 28q-25 0 -37 -6q-7 -2 -12 -6q0 36 32 68t88 32q63 0 94 -19q32 -20 58 -43t61 -43t103 -20z" />
    <glyph glyph-name="dieresis" unicode="&#xa8;" horiz-adv-x="731" 
d="M326 893l-154 -152l-152 152l152 154zM711 893l-154 -152l-151 152l151 154z" />
    <glyph glyph-name="acute" unicode="&#xb4;" horiz-adv-x="241" 
d="M20 1434l68 204h152l-174 -204h-46z" />
    <glyph glyph-name="cedilla" unicode="&#xb8;" horiz-adv-x="256" 
d="M33 -211l2 16q11 -5 19 -6q12 -2 20 -2q24 0 43 14q18 13 18 42q0 23 -18 38t-43 15q-19 0 -35 -8l53 145l64 -23l-23 -59q44 -1 77 -30q32 -27 32 -74q0 -51 -36 -87t-87 -36q-29 0 -51 13q-23 14 -35 42z" />
    <glyph glyph-name="questiondown" unicode="&#xbf;" horiz-adv-x="1030" 
d="M707 1073l-93 -92l-92 92l92 92zM573 201q0 27 11 57q11 29 31 51q19 21 57 37q32 14 84 14q51 0 95 -17q49 -19 81 -51q36 -36 56 -83q22 -52 22 -115q0 -51 -30 -114q-30 -64 -90 -119q-57 -53 -153 -92q-90 -37 -219 -37q-130 0 -220 32q-92 33 -155 91
q-62 58 -92 135q-31 81 -31 166q0 125 42 209q41 82 107 142q62 56 138 98q73 41 138 75q66 35 107 72q42 38 42 90v31q0 10 2 30v31h41q2 -9 5 -23.5t5 -25.5t4 -21t4.5 -30t3.5 -29q5 -33 5 -53q0 -38 -32 -73q-31 -33 -80 -69q-76 -54 -105 -76q-54 -40 -104 -99
t-80 -131q-32 -76 -32 -177q0 -67 23 -128q22 -60 63 -105t101 -71q61 -26 135 -26q73 0 134 28q56 26 99 69q42 42 63 91t21 93q0 91 -36 139q-37 49 -99 49q22 -6 37 -20q13 -11 26 -33q11 -19 11 -53q0 -49 -36 -76t-77 -27q-66 0 -94 43q-29 44 -29 101z" />
    <glyph glyph-name="Agrave" unicode="&#xc0;" 
d="M600 1403q0 20 -14 31h270q-12 -15 -12 -37q0 -80 19 -152q19 -73 36 -147q47 -217 64 -303q30 -150 63 -303q8 -38 29 -120q18 -69 44 -142q26 -72 58 -133q33 -63 70 -97h-475q5 16 10 52q3 24 5 73q1 26 1 76v57q0 82 -3 163q-3 71 -11 163q-100 -21 -207 -64
q-104 -41 -182 -112q-6 -44 -7 -65q-2 -42 -2 -64q0 -30 3 -76q3 -42 16 -92q11 -43 37 -78q24 -33 65 -33h-477q7 17 45 103q49 112 77 177q16 36 48.5 110.5t48.5 111.5q16 36 52 117.5t55 125.5l33 77t37.5 88.5t31.5 73.5q13 29 43 100.5t45 105.5q45 104 62 148
q22 57 22 65zM645 1225l-86 -193q-41 -90 -82 -193q-38 -95 -67 -199q-28 -99 -43 -206l88 195h295q-16 146 -47 300q-15 75 -58 296zM799 1503l-187 217h162l72 -217h-47z" />
    <glyph glyph-name="Aacute" unicode="&#xc1;" 
d="M600 1403q0 20 -14 31h270q-12 -15 -12 -37q0 -80 19 -152q19 -73 36 -147q47 -217 64 -303q30 -150 63 -303q8 -38 29 -120q18 -69 44 -142q26 -72 58 -133q33 -63 70 -97h-475q5 16 10 52q3 24 5 73q1 26 1 76v57q0 82 -3 163q-3 71 -11 163q-100 -21 -207 -64
q-104 -41 -182 -112q-6 -44 -7 -65q-2 -42 -2 -64q0 -30 3 -76q3 -42 16 -92q11 -43 37 -78q24 -33 65 -33h-477q7 17 45 103q49 112 77 177q16 36 48.5 110.5t48.5 111.5q16 36 52 117.5t55 125.5l33 77t37.5 88.5t31.5 73.5q13 29 43 100.5t45 105.5q45 104 62 148
q22 57 22 65zM645 1225l-86 -193q-41 -90 -82 -193q-38 -95 -67 -199q-28 -99 -43 -206l88 195h295q-16 146 -47 300q-15 75 -58 296zM639 1503l68 205h151l-174 -205h-45z" />
    <glyph glyph-name="Acircumflex" unicode="&#xc2;" 
d="M600 1403q0 20 -14 31h270q-12 -15 -12 -37q0 -80 19 -152q19 -73 36 -147q47 -217 64 -303q30 -150 63 -303q8 -38 29 -120q18 -69 44 -142q26 -72 58 -133q33 -63 70 -97h-475q5 16 10 52q3 24 5 73q1 26 1 76v57q0 82 -3 163q-3 71 -11 163q-100 -21 -207 -64
q-104 -41 -182 -112q-6 -44 -7 -65q-2 -42 -2 -64q0 -30 3 -76q3 -42 16 -92q11 -43 37 -78q24 -33 65 -33h-477q7 17 45 103q49 112 77 177q16 36 48.5 110.5t48.5 111.5q16 36 52 117.5t55 125.5l33 77t37.5 88.5t31.5 73.5q13 29 43 100.5t45 105.5q45 104 62 148
q22 57 22 65zM645 1225l-86 -193q-41 -90 -82 -193q-38 -95 -67 -199q-28 -99 -43 -206l88 195h295q-16 146 -47 300q-15 75 -58 296zM602 1503l-162 2q7 7 28 27.5t35 34.5t41.5 40t37.5 35q27 26 78 77l63 63l168 -164l115 -113l-162 -2l-121 199z" />
    <glyph glyph-name="Atilde" unicode="&#xc3;" 
d="M600 1403q0 20 -14 31h270q-12 -15 -12 -37q0 -80 19 -152q19 -73 36 -147q47 -217 64 -303q30 -150 63 -303q8 -38 29 -120q18 -69 44 -142q26 -72 58 -133q33 -63 70 -97h-475q5 16 10 52q3 24 5 73q1 26 1 76v57q0 82 -3 163q-3 71 -11 163q-100 -21 -207 -64
q-104 -41 -182 -112q-6 -44 -7 -65q-2 -42 -2 -64q0 -30 3 -76q3 -42 16 -92q11 -43 37 -78q24 -33 65 -33h-477q7 17 45 103q49 112 77 177q16 36 48.5 110.5t48.5 111.5q16 36 52 117.5t55 125.5l33 77t37.5 88.5t31.5 73.5q13 29 43 100.5t45 105.5q45 104 62 148
q22 57 22 65zM645 1225l-86 -193q-41 -90 -82 -193q-38 -95 -67 -199q-28 -99 -43 -206l88 195h295q-16 146 -47 300q-15 75 -58 296zM768 1636q48 0 73 15q28 17 38 30q13 18 18 45h18v-174q-16 -10 -38 -16q-22 -9 -44 -13q-28 -5 -59 -5q-64 0 -99 14q-41 16 -70 33
q-33 19 -64 33q-35 16 -86 16q-47 0 -72 -17q-27 -19 -37 -36q-16 -24 -18 -56h-17v174q16 21 37 37q16 12 42 24q23 11 59 11q64 0 99 -17q38 -18 69 -39q38 -25 65 -40q35 -19 86 -19z" />
    <glyph glyph-name="Adieresis" unicode="&#xc4;" 
d="M600 1403q0 20 -14 31h270q-12 -15 -12 -37q0 -80 19 -152q19 -73 36 -147q47 -217 64 -303q30 -150 63 -303q8 -38 29 -120q18 -69 44 -142q26 -72 58 -133q33 -63 70 -97h-475q5 16 10 52q3 24 5 73q1 26 1 76v57q0 82 -3 163q-3 71 -11 163q-100 -21 -207 -64
q-104 -41 -182 -112q-6 -44 -7 -65q-2 -42 -2 -64q0 -30 3 -76q3 -42 16 -92q11 -43 37 -78q24 -33 65 -33h-477q7 17 45 103q49 112 77 177q16 36 48.5 110.5t48.5 111.5q16 36 52 117.5t55 125.5l33 77t37.5 88.5t31.5 73.5q13 29 43 100.5t45 105.5q45 104 62 148
q22 57 22 65zM645 1225l-86 -193q-41 -90 -82 -193q-38 -95 -67 -199q-28 -99 -43 -206l88 195h295q-16 146 -47 300q-15 75 -58 296zM641 1655l-154 -152l-151 152l151 153zM1026 1655l-154 -152l-151 152l151 153z" />
    <glyph glyph-name="Aring" unicode="&#xc5;" 
d="M600 1403q0 20 -14 31h270q-12 -15 -12 -37q0 -80 19 -152q19 -73 36 -147q47 -217 64 -303q30 -150 63 -303q8 -38 29 -120q18 -69 44 -142q26 -72 58 -133q33 -63 70 -97h-475q5 16 10 52q3 24 5 73q1 26 1 76v57q0 82 -3 163q-3 71 -11 163q-100 -21 -207 -64
q-104 -41 -182 -112q-6 -44 -7 -65q-2 -42 -2 -64q0 -30 3 -76q3 -42 16 -92q11 -43 37 -78q24 -33 65 -33h-477q7 17 45 103q49 112 77 177q16 36 48.5 110.5t48.5 111.5q16 36 52 117.5t55 125.5l33 77t37.5 88.5t31.5 73.5q13 29 43 100.5t45 105.5q45 104 62 148
q22 57 22 65zM645 1225l-86 -193q-41 -90 -82 -193q-38 -95 -67 -199q-28 -99 -43 -206l88 195h295q-16 146 -47 300q-15 75 -58 296z" />
    <glyph glyph-name="AE" unicode="&#xc6;" horiz-adv-x="2148" 
d="M600 1403q0 20 -14 31h270q-12 -15 -12 -37q0 -80 19 -152q19 -73 36 -147q47 -217 64 -303q30 -150 63 -303q8 -38 29 -120q18 -69 44 -142q26 -72 58 -133q33 -63 70 -97h-475q5 16 10 52q3 24 5 73q1 26 1 76v57q0 82 -3 163q-3 71 -11 163q-100 -21 -207 -64
q-104 -41 -182 -112q-6 -44 -7 -65q-2 -42 -2 -64q0 -30 3 -76q3 -42 16 -92q11 -43 37 -78q24 -33 65 -33h-477q7 17 45 103q49 112 77 177q16 36 48.5 110.5t48.5 111.5q16 36 52 117.5t55 125.5l33 77t37.5 88.5t31.5 73.5q13 29 43 100.5t45 105.5q45 104 62 148
q22 57 22 65zM645 1225l-86 -193q-41 -90 -82 -193q-38 -95 -67 -199q-28 -99 -43 -206l88 195h295q-16 146 -47 300q-15 75 -58 296zM1815 68q49 0 98 12t94 36t82 58q35 32 59 80v-254h-905q29 56 48 126q20 72 20 132v1083q0 29 -23 54q-22 24 -45 39h907v-263
q-22 46 -53 81q-36 41 -75 66q-46 29 -88 43q-46 15 -95 15h-276v-1202l-187 -106h439zM1980 860v-43q-53 -8 -109 -25q-57 -17 -115 -42q-49 -20 -106 -57q-52 -33 -87 -68l106 235h311z" />
    <glyph glyph-name="Ccedilla" unicode="&#xc7;" horiz-adv-x="1212" 
d="M897 1434q145 0 219 -77t74 -188q0 -98 -50 -175q-48 -75 -122 -113q16 44 16 98q0 59 -20 106q-20 48 -57 86q-35 36 -86 58q-47 20 -109 20q-109 0 -202 -62q-97 -65 -168 -159q-73 -97 -116 -212q-43 -114 -43 -224q0 -46 13 -117q12 -66 42 -123q29 -55 80 -97
q49 -40 128 -40q63 0 126 27t118 69q57 43 105 96q49 54 81 103q0 -40 -14 -82q-16 -48 -29 -74q-32 -71 -85 -140q-50 -65 -112 -112q-63 -48 -133 -74q-75 -28 -150 -28q-95 0 -161 39t-106 100q-38 57 -57 139q-18 76 -18 150q0 107 32 224t89 228q58 112 135 212
q76 98 171 176q91 75 197 121q103 45 212 45zM326 -211l2 16q11 -5 19 -6q12 -2 20 -2q24 0 43 14q18 13 18 42q0 23 -18 38t-43 15q-19 0 -35 -8l53 145l64 -23l-23 -59q44 -1 77 -30q32 -27 32 -74q0 -51 -36 -87t-87 -36q-30 0 -52 13t-34 42z" />
    <glyph glyph-name="Egrave" unicode="&#xc8;" horiz-adv-x="913" 
d="M580 68q48 0 98 12q49 12 94 36t82 58q35 32 59 80v-254h-905q28 56 48 126q20 72 20 132v1083q0 29 -23 54q-23 24 -45 39h907v-263q-22 46 -53 81q-36 41 -75 66q-46 29 -88 43q-46 15 -95 15h-276v-1202l-187 -106h439zM745 860v-43q-53 -8 -109 -25q-57 -17 -115 -42
q-49 -20 -106 -57q-52 -33 -87 -68l106 235h311zM530 1503l-186 217h162l72 -217h-48z" />
    <glyph glyph-name="Eacute" unicode="&#xc9;" horiz-adv-x="913" 
d="M580 68q48 0 98 12q49 12 94 36t82 58q35 32 59 80v-254h-905q28 56 48 126q20 72 20 132v1083q0 29 -23 54q-23 24 -45 39h907v-263q-22 46 -53 81q-36 41 -75 66q-46 29 -88 43q-46 15 -95 15h-276v-1202l-187 -106h439zM745 860v-43q-53 -8 -109 -25q-57 -17 -115 -42
q-49 -20 -106 -57q-52 -33 -87 -68l106 235h311zM311 1503l68 205h151l-174 -205h-45z" />
    <glyph glyph-name="Ecircumflex" unicode="&#xca;" horiz-adv-x="913" 
d="M580 68q48 0 98 12q49 12 94 36t82 58q35 32 59 80v-254h-905q28 56 48 126q20 72 20 132v1083q0 29 -23 54q-23 24 -45 39h907v-263q-22 46 -53 81q-36 41 -75 66q-46 29 -88 43q-46 15 -95 15h-276v-1202l-187 -106h439zM745 860v-43q-53 -8 -109 -25q-57 -17 -115 -42
q-49 -20 -106 -57q-52 -33 -87 -68l106 235h311zM340 1503l-162 2q7 7 28 27.5t35 34.5q11 11 24 23.5t29 27.5t25 24q54 52 79 77l63 63l168 -164l114 -113l-161 -2l-121 199z" />
    <glyph glyph-name="Edieresis" unicode="&#xcb;" horiz-adv-x="913" 
d="M580 68q48 0 98 12q49 12 94 36t82 58q35 32 59 80v-254h-905q28 56 48 126q20 72 20 132v1083q0 29 -23 54q-23 24 -45 39h907v-263q-22 46 -53 81q-36 41 -75 66q-46 29 -88 43q-46 15 -95 15h-276v-1202l-187 -106h439zM745 860v-43q-53 -8 -109 -25q-57 -17 -115 -42
q-49 -20 -106 -57q-52 -33 -87 -68l106 235h311zM420 1655l-154 -152l-151 152l151 153zM805 1655l-154 -152l-151 152l151 153z" />
    <glyph glyph-name="Igrave" unicode="&#xcc;" horiz-adv-x="393" 
d="M0 0q22 47 35 82q11 35 22 83q11 49 11 93v1075q0 17 -11 36t-22 34q-11 11 -35 31h68h251h68q-24 -20 -33 -29q-12 -15 -22 -32q-12 -20 -13 -36v-88v-993q0 -44 11 -93q12 -53 24 -83q16 -43 33 -80h-68h-251h-68zM264 1503l-186 217h162l71 -217h-47z" />
    <glyph glyph-name="Iacute" unicode="&#xcd;" horiz-adv-x="393" 
d="M0 0q22 47 35 82q11 35 22 83q11 49 11 93v1075q0 17 -11 36t-22 34q-11 11 -35 31h68h251h68q-24 -20 -33 -29q-12 -15 -22 -32q-12 -20 -13 -36v-88v-993q0 -44 11 -93q12 -53 24 -83q16 -43 33 -80h-68h-251h-68zM78 1503l72 217h161l-186 -217h-47z" />
    <glyph glyph-name="Icircumflex" unicode="&#xce;" horiz-adv-x="393" 
d="M0 0q22 47 35 82q11 35 22 83q11 49 11 93v1075q0 17 -11 36t-22 34q-11 11 -35 31h68h251h68q-24 -20 -33 -29q-12 -15 -22 -32q-12 -20 -13 -36v-88v-993q0 -44 11 -93q12 -53 24 -83q16 -43 33 -80h-68h-251h-68zM74 1501l-162 2l62 62q14 14 41.5 40t37.5 35
q54 52 79 77l63 63l167 -164l115 -113l-162 -2l-120 199z" />
    <glyph glyph-name="Idieresis" unicode="&#xcf;" horiz-adv-x="393" 
d="M0 0q22 47 35 82q11 35 22 83q11 49 11 93v1075q0 17 -11 36t-22 34q-11 11 -35 31h68h251h68q-24 -20 -33 -29q-12 -15 -22 -32q-12 -20 -13 -36v-88v-993q0 -44 11 -93q12 -53 24 -83q16 -43 33 -80h-68h-251h-68zM154 1655l-152 -152l-154 152l154 153zM539 1655
l-152 -152l-154 152l154 153z" />
    <glyph glyph-name="Eth" unicode="&#xd0;" horiz-adv-x="1083" 
d="M72 258v1083q0 26 -23 54q-23 27 -45 39h350q199 0 335 -43q138 -43 225 -135q87 -91 127 -231q40 -139 40 -337q0 -183 -53 -315q-53 -133 -151 -214q-101 -84 -239 -121q-143 -38 -314 -38h-320q28 51 48 126q20 74 20 132zM137 68h187q133 0 233 56q104 58 172 148
q70 92 107 209q36 112 36 236q0 153 -23 269q-24 123 -85 209q-62 88 -168 134q-108 47 -272 47v-1202zM4 764v131h475v-131h-475z" />
    <glyph glyph-name="Ntilde" unicode="&#xd1;" horiz-adv-x="1069" 
d="M16 0q29 41 47 98q19 60 19 109v1073q0 38 -16 80q-18 46 -37 74h360q-19 -6 -31 -27q-12 -20 -19 -44q-8 -24 -9 -47q-2 -32 -2 -40q0 -133 29 -268q31 -144 85 -271q55 -130 137 -248q80 -116 181 -200v991q0 34 -16 80t-37 74h354q-18 -29 -35 -68q-18 -40 -18 -72
v-833q0 -65 7 -142q8 -89 23 -166q17 -88 43 -163q27 -77 66 -127q-12 0 -34 8q-14 5 -44 17q-15 6 -43 20l-33 16q-107 55 -209 128q-94 67 -187 162q-84 85 -156 192q-66 97 -113 217v-312q0 -42 7 -83q8 -47 22 -86q15 -43 39 -80t55 -62h-435zM735 1636q47 0 73 15
q28 17 38 30q13 18 18 45h19v-174q-15 -10 -39 -16q-22 -9 -44 -13q-28 -5 -59 -5q-64 0 -99 14q-41 16 -70 33q-33 19 -64 33q-35 16 -86 16q-47 0 -72 -17q-27 -19 -37 -36q-16 -24 -18 -56h-16v174q18 23 36 37q17 12 42 24q23 11 59 11q64 0 99 -17q41 -20 70 -39
q42 -28 64 -40q35 -19 86 -19z" />
    <glyph glyph-name="Ograve" unicode="&#xd2;" horiz-adv-x="1189" 
d="M-4 434q0 94 30 205q31 113 82 222q56 118 125 214q75 103 162 182q89 80 188 128q101 49 203 49q109 0 178 -39q68 -39 109 -105q41 -67 56 -151q16 -91 16 -178q0 -92 -32 -202q-32 -109 -88 -214q-57 -107 -133 -205q-71 -92 -166 -174q-87 -75 -188 -121
q-99 -45 -202 -45q-95 0 -159 37t-104 98q-41 63 -59 139q-18 78 -18 160zM432 184q116 0 213 71q96 71 167 176q72 107 110 226q39 121 39 222q0 60 -16 127q-15 63 -48 114t-84 84t-125 33q-116 0 -213 -71q-96 -71 -167 -176q-70 -104 -109 -226t-39 -221q0 -64 15 -127
q15 -65 48 -115q33 -51 84 -84t125 -33zM672 725l-113 -113l-110 113l110 111zM797 1503l-187 217h162l72 -217h-47z" />
    <glyph glyph-name="Oacute" unicode="&#xd3;" horiz-adv-x="1189" 
d="M-4 434q0 94 30 205q31 113 82 222q56 118 125 214q75 103 162 182q89 80 188 128q101 49 203 49q109 0 178 -39q68 -39 109 -105q41 -67 56 -151q16 -91 16 -178q0 -92 -32 -202q-32 -109 -88 -214q-57 -107 -133 -205q-71 -92 -166 -174q-87 -75 -188 -121
q-99 -45 -202 -45q-95 0 -159 37t-104 98q-41 63 -59 139q-18 78 -18 160zM432 184q116 0 213 71q96 71 167 176q72 107 110 226q39 121 39 222q0 60 -16 127q-15 63 -48 114t-84 84t-125 33q-116 0 -213 -71q-96 -71 -167 -176q-70 -104 -109 -226t-39 -221q0 -64 15 -127
q15 -65 48 -115q33 -51 84 -84t125 -33zM672 725l-113 -113l-110 113l110 111zM784 1503l68 205h152l-175 -205h-45z" />
    <glyph glyph-name="Ocircumflex" unicode="&#xd4;" horiz-adv-x="1189" 
d="M-4 434q0 94 30 205q31 113 82 222q56 118 125 214q75 103 162 182q89 80 188 128q101 49 203 49q109 0 178 -39q68 -39 109 -105q41 -67 56 -151q16 -91 16 -178q0 -92 -32 -202q-32 -109 -88 -214q-57 -107 -133 -205q-71 -92 -166 -174q-87 -75 -188 -121
q-99 -45 -202 -45q-95 0 -159 37t-104 98q-41 63 -59 139q-18 78 -18 160zM432 184q116 0 213 71q96 71 167 176q72 107 110 226q39 121 39 222q0 60 -16 127q-15 63 -48 114t-84 84t-125 33q-116 0 -213 -71q-96 -71 -167 -176q-70 -104 -109 -226t-39 -221q0 -64 15 -127
q15 -65 48 -115q33 -51 84 -84t125 -33zM672 725l-113 -113l-110 113l110 111zM690 1503l-162 2q7 7 28 27.5t35 34.5t41.5 40t37.5 35q54 52 79 77l62 63l168 -164l115 -113l-162 -2l-121 199z" />
    <glyph glyph-name="Otilde" unicode="&#xd5;" horiz-adv-x="1189" 
d="M-4 434q0 94 30 205q31 113 82 222q56 118 125 214q75 103 162 182q89 80 188 128q101 49 203 49q109 0 178 -39q68 -39 109 -105q41 -67 56 -151q16 -91 16 -178q0 -92 -32 -202q-32 -109 -88 -214q-57 -107 -133 -205q-71 -92 -166 -174q-87 -75 -188 -121
q-99 -45 -202 -45q-95 0 -159 37t-104 98q-41 63 -59 139q-18 78 -18 160zM432 184q116 0 213 71q96 71 167 176q72 107 110 226q39 121 39 222q0 60 -16 127q-15 63 -48 114t-84 84t-125 33q-116 0 -213 -71q-96 -71 -167 -176q-70 -104 -109 -226t-39 -221q0 -64 15 -127
q15 -65 48 -115q33 -51 84 -84t125 -33zM672 725l-113 -113l-110 113l110 111zM954 1634q48 0 73 15q28 17 38 30q13 18 18 45h19v-174q-15 -10 -39 -16q-22 -9 -44 -13q-28 -5 -58 -5q-65 0 -100 14q-37 15 -69 33q-30 17 -65 33t-86 16q-47 0 -72 -17q-27 -19 -37 -36
q-16 -24 -18 -56h-16v174q16 21 37 37q17 12 42 24q23 11 58 11q64 0 99 -17q41 -20 70 -39q42 -28 64 -40q35 -19 86 -19z" />
    <glyph glyph-name="Odieresis" unicode="&#xd6;" horiz-adv-x="1189" 
d="M-4 434q0 94 30 205q31 113 82 222q56 118 125 214q75 103 162 182q89 80 188 128q101 49 203 49q109 0 178 -39q68 -39 109 -105q41 -67 56 -151q16 -91 16 -178q0 -92 -32 -202q-32 -109 -88 -214q-57 -107 -133 -205q-71 -92 -166 -174q-87 -75 -188 -121
q-99 -45 -202 -45q-95 0 -159 37t-104 98q-41 63 -59 139q-18 78 -18 160zM432 184q116 0 213 71q96 71 167 176q72 107 110 226q39 121 39 222q0 60 -16 127q-15 63 -48 114t-84 84t-125 33q-116 0 -213 -71q-96 -71 -167 -176q-70 -104 -109 -226t-39 -221q0 -64 15 -127
q15 -65 48 -115q33 -51 84 -84t125 -33zM672 725l-113 -113l-110 113l110 111zM709 1655l-154 -152l-152 152l152 153zM1094 1655l-154 -152l-152 152l152 153z" />
    <glyph glyph-name="Oslash" unicode="&#xd8;" horiz-adv-x="1189" 
d="M-4 434q0 94 30 205q31 113 82 222q56 118 125 214q75 103 162 182q89 80 188 128q101 49 203 49q109 0 178 -39q68 -39 109 -105q41 -67 56 -151q16 -91 16 -178q0 -92 -32 -202q-32 -109 -88 -214q-57 -107 -133 -205q-71 -92 -166 -174q-87 -75 -188 -121
q-99 -45 -202 -45q-95 0 -159 37t-104 98q-41 63 -59 139q-18 78 -18 160zM432 184q116 0 213 71q96 71 167 176q72 107 110 226q39 121 39 222q0 60 -16 127q-15 63 -48 114t-84 84t-125 33q-116 0 -213 -71q-96 -71 -167 -176q-70 -104 -109 -226t-39 -221q0 -64 15 -127
q15 -65 48 -115q33 -51 84 -84t125 -33zM672 725l-113 -113l-110 113l110 111zM942 1434l-557 -1434h-135l557 1434h135z" />
    <glyph glyph-name="Ugrave" unicode="&#xd9;" horiz-adv-x="1490" 
d="M223 1434h611q-107 -69 -210 -166q-108 -102 -191 -214q-84 -113 -139 -245q-54 -129 -54 -258q0 -56 9 -113q8 -53 34 -103q23 -45 68 -76q43 -30 112 -30q94 0 181 69q89 71 167 178q81 112 149 246q78 155 127 269q63 148 101 251q16 43 38.5 107t30.5 85h197
q-27 -74 -77.5 -212.5t-72.5 -198.5q-11 -29 -66 -179.5t-85 -231.5q-25 -70 -41 -142q-18 -83 -29 -158q-12 -82 -18 -160q-7 -88 -8 -152h-404q83 118 146 233q67 123 108 252q-32 -75 -89 -160q-57 -86 -127 -157q-71 -73 -154 -120q-84 -48 -175 -48q-87 0 -153 30
q-67 31 -110 82q-44 53 -66 122q-23 72 -23 155q0 64 26 150t66 176q34 76 93 186q51 95 105 183q50 83 106 166q51 76 90 132q-94 -23 -203 -68q-103 -43 -178 -116zM928 1503l-187 217h162l72 -217h-47z" />
    <glyph glyph-name="Uacute" unicode="&#xda;" horiz-adv-x="1490" 
d="M223 1434h611q-107 -69 -210 -166q-108 -102 -191 -214q-84 -113 -139 -245q-54 -129 -54 -258q0 -56 9 -113q8 -53 34 -103q23 -45 68 -76q43 -30 112 -30q94 0 181 69q89 71 167 178q81 112 149 246q78 155 127 269q63 148 101 251q16 43 38.5 107t30.5 85h197
q-27 -74 -77.5 -212.5t-72.5 -198.5q-11 -29 -66 -179.5t-85 -231.5q-25 -70 -41 -142q-18 -83 -29 -158q-12 -82 -18 -160q-7 -88 -8 -152h-404q83 118 146 233q67 123 108 252q-32 -75 -89 -160q-57 -86 -127 -157q-71 -73 -154 -120q-84 -48 -175 -48q-87 0 -153 30
q-67 31 -110 82q-44 53 -66 122q-23 72 -23 155q0 64 26 150t66 176q34 76 93 186q51 95 105 183q50 83 106 166q51 76 90 132q-94 -23 -203 -68q-103 -43 -178 -116zM803 1503l67 205h152l-174 -205h-45z" />
    <glyph glyph-name="Ucircumflex" unicode="&#xdb;" horiz-adv-x="1490" 
d="M223 1434h611q-107 -69 -210 -166q-108 -102 -191 -214q-84 -113 -139 -245q-54 -129 -54 -258q0 -56 9 -113q8 -53 34 -103q23 -45 68 -76q43 -30 112 -30q94 0 181 69q89 71 167 178q81 112 149 246q78 155 127 269q63 148 101 251q16 43 38.5 107t30.5 85h197
q-27 -74 -77.5 -212.5t-72.5 -198.5q-11 -29 -66 -179.5t-85 -231.5q-25 -70 -41 -142q-18 -83 -29 -158q-12 -82 -18 -160q-7 -88 -8 -152h-404q83 118 146 233q67 123 108 252q-32 -75 -89 -160q-57 -86 -127 -157q-71 -73 -154 -120q-84 -48 -175 -48q-87 0 -153 30
q-67 31 -110 82q-44 53 -66 122q-23 72 -23 155q0 64 26 150t66 176q34 76 93 186q51 95 105 183q50 83 106 166q51 76 90 132q-94 -23 -203 -68q-103 -43 -178 -116zM813 1503l-162 2q7 7 28 27.5t35 34.5t41.5 40t37.5 35q27 26 78 77l63 63l168 -164l115 -113l-162 -2
l-121 199z" />
    <glyph glyph-name="Udieresis" unicode="&#xdc;" horiz-adv-x="1490" 
d="M223 1434h611q-107 -69 -210 -166q-108 -102 -191 -214q-84 -113 -139 -245q-54 -129 -54 -258q0 -56 9 -113q8 -53 34 -103q23 -45 68 -76q43 -30 112 -30q94 0 181 69q89 71 167 178q81 112 149 246q78 155 127 269q63 148 101 251q16 43 38.5 107t30.5 85h197
q-27 -74 -77.5 -212.5t-72.5 -198.5q-11 -29 -66 -179.5t-85 -231.5q-25 -70 -41 -142q-18 -83 -29 -158q-12 -82 -18 -160q-7 -88 -8 -152h-404q83 118 146 233q67 123 108 252q-32 -75 -89 -160q-57 -86 -127 -157q-71 -73 -154 -120q-84 -48 -175 -48q-87 0 -153 30
q-67 31 -110 82q-44 53 -66 122q-23 72 -23 155q0 64 26 150t66 176q34 76 93 186q51 95 105 183q50 83 106 166q51 76 90 132q-94 -23 -203 -68q-103 -43 -178 -116zM860 1655l-153 -152l-152 152l152 153zM1245 1655l-153 -152l-152 152l152 153z" />
    <glyph glyph-name="Yacute" unicode="&#xdd;" horiz-adv-x="1775" 
d="M1774 1434q-40 -18 -84 -78q-44 -61 -81 -130q-43 -81 -70 -140q-8 -18 -25.5 -56t-24.5 -53q-70 -156 -127 -272q-73 -149 -143 -265q-57 -95 -121 -180q-61 -82 -136 -139q-76 -58 -168 -89q-94 -32 -216 -32q-101 0 -203 24q-108 25 -186 75q-85 54 -136 134
q-53 83 -53 199q0 59 14 107q15 52 44 91q28 37 74 63q43 24 106 24q38 0 81 -16q42 -16 58 -58q-37 -18 -60 -45q-25 -29 -41 -65q-15 -33 -23 -73q-7 -35 -7 -75q0 -59 17 -113q19 -59 50 -103q33 -46 82 -76t111 -30q80 0 154 51q73 50 136 122q60 69 113 151
q26 41 90 139q107 166 209 361q-47 -79 -113 -163q-70 -89 -152 -160q-85 -74 -176 -121q-93 -48 -189 -48q-29 0 -62 6q-32 6 -59 21t-44 38q-18 24 -18 60q0 47 26 111q30 75 62 137q42 82 82 153q49 86 82 154q38 78 63 145q25 68 25 119q0 23 -8 55q-7 29 -35 40h242
q33 -16 45 -54t12 -69q0 -51 -25 -117q-24 -64 -65 -141q-39 -73 -84 -150q-67 -113 -84 -144q-39 -69 -64 -125q-26 -58 -26 -89q0 -19 10 -25q11 -6 27 -6q57 0 134 47q76 47 159 123q82 76 161 170q75 90 141 188q60 90 101 180q39 86 39 140q0 43 -16 72h375zM1171 1503
l68 205h152l-174 -205h-46z" />
    <glyph glyph-name="germandbls" unicode="&#xdf;" horiz-adv-x="1157" 
d="M547 1434q45 0 125 -10q72 -9 138 -39q68 -31 113 -86q46 -56 46 -152v-21l-273 -288q89 -7 174 -35q84 -28 143 -76q61 -50 95 -123q35 -75 35 -176q0 -124 -49 -206q-50 -82 -129 -132q-78 -48 -183 -70q-97 -20 -211 -20v68q75 0 137 34q60 33 108 92q47 57 72 127
q25 69 25 140q0 57 -18 114t-53 104q-34 45 -85 75q-49 28 -116 28l-66 62l224 282q0 46 -17 94q-16 46 -46 80q-33 38 -71 57q-42 21 -94 21h-53q-54 0 -91 -22t-61 -60q-23 -35 -35 -82q-12 -45 -12 -92v-997l-186 -76h186v-49h-319q28 52 48 125q20 74 20 133v864
q0 80 42 139q42 58 109 97t154 57q90 19 174 19z" />
    <glyph glyph-name="agrave" unicode="&#xe0;" 
d="M696 1403q0 8 -3 17t-11 14h270q-6 -6 -9 -18t-3 -19q0 -16 12 -82q4 -19 8.5 -44t11.5 -58t11 -55q6 -32 19.5 -97t20.5 -98q22 -110 42 -200q19 -83 36 -169q15 -74 21 -102q2 -8 29 -114q19 -74 45 -145q29 -78 58 -138q32 -65 69 -95h-475q6 2 9 39q2 27 4 81
q0 14 0.5 42.5t1.5 42.5q1 27 1 53q0 82 -3 163q-3 71 -11 163q-96 -20 -207 -65q-109 -44 -182 -111q-4 -33 -6 -65q-2 -42 -2 -64q0 -30 3 -76q3 -47 15 -92q11 -43 37 -78q24 -33 65 -33h-477q9 17 40 91q9 22 34 79t40 93q16 37 49 113t48 110q18 43 54.5 125.5
t53.5 121.5q56 130 104 244q55 131 90 212t64 151q23 56 23 63zM741 1225q-69 -158 -86 -194q-40 -86 -82 -192q-37 -93 -67 -198q-28 -97 -43 -207l88 195h295q-17 158 -46 300q-40 196 -59 296zM774 1569l-186 217h162l71 -217h-47z" />
    <glyph glyph-name="aacute" unicode="&#xe1;" 
d="M696 1403q0 8 -3 17t-11 14h270q-6 -6 -9 -18t-3 -19q0 -16 12 -82q4 -19 8.5 -44t11.5 -58t11 -55q6 -32 19.5 -97t20.5 -98q22 -110 42 -200q19 -83 36 -169q15 -74 21 -102q2 -8 29 -114q19 -74 45 -145q29 -78 58 -138q32 -65 69 -95h-475q6 2 9 39q2 27 4 81
q0 14 0.5 42.5t1.5 42.5q1 27 1 53q0 82 -3 163q-3 71 -11 163q-96 -20 -207 -65q-109 -44 -182 -111q-4 -33 -6 -65q-2 -42 -2 -64q0 -30 3 -76q3 -47 15 -92q11 -43 37 -78q24 -33 65 -33h-477q9 17 40 91q9 22 34 79t40 93q16 37 49 113t48 110q18 43 54.5 125.5
t53.5 121.5q56 130 104 244q55 131 90 212t64 151q23 56 23 63zM741 1225q-69 -158 -86 -194q-40 -86 -82 -192q-37 -93 -67 -198q-28 -97 -43 -207l88 195h295q-17 158 -46 300q-40 196 -59 296zM668 1536l67 205h152l-174 -205h-45z" />
    <glyph glyph-name="acircumflex" unicode="&#xe2;" 
d="M696 1403q0 8 -3 17t-11 14h270q-6 -6 -9 -18t-3 -19q0 -16 12 -82q4 -19 8.5 -44t11.5 -58t11 -55q6 -32 19.5 -97t20.5 -98q22 -110 42 -200q19 -83 36 -169q15 -74 21 -102q2 -8 29 -114q19 -74 45 -145q29 -78 58 -138q32 -65 69 -95h-475q6 2 9 39q2 27 4 81
q0 14 0.5 42.5t1.5 42.5q1 27 1 53q0 82 -3 163q-3 71 -11 163q-96 -20 -207 -65q-109 -44 -182 -111q-4 -33 -6 -65q-2 -42 -2 -64q0 -30 3 -76q3 -47 15 -92q11 -43 37 -78q24 -33 65 -33h-477q9 17 40 91q9 22 34 79t40 93q16 37 49 113t48 110q18 43 54.5 125.5
t53.5 121.5q56 130 104 244q55 131 90 212t64 151q23 56 23 63zM741 1225q-69 -158 -86 -194q-40 -86 -82 -192q-37 -93 -67 -198q-28 -97 -43 -207l88 195h295q-17 158 -46 300q-40 196 -59 296zM580 1503l-162 2l62 62q14 14 41.5 40t37.5 35q54 52 79 77l62 63l168 -164
l115 -113l-162 -2l-121 199z" />
    <glyph glyph-name="atilde" unicode="&#xe3;" 
d="M696 1403q0 8 -3 17t-11 14h270q-6 -6 -9 -18t-3 -19q0 -16 12 -82q4 -19 8.5 -44t11.5 -58t11 -55q6 -32 19.5 -97t20.5 -98q22 -110 42 -200q19 -83 36 -169q15 -74 21 -102q2 -8 29 -114q19 -74 45 -145q29 -78 58 -138q32 -65 69 -95h-475q6 2 9 39q2 27 4 81
q0 14 0.5 42.5t1.5 42.5q1 27 1 53q0 82 -3 163q-3 71 -11 163q-96 -20 -207 -65q-109 -44 -182 -111q-4 -33 -6 -65q-2 -42 -2 -64q0 -30 3 -76q3 -47 15 -92q11 -43 37 -78q24 -33 65 -33h-477q9 17 40 91q9 22 34 79t40 93q16 37 49 113t48 110q18 43 54.5 125.5
t53.5 121.5q56 130 104 244q55 131 90 212t64 151q23 56 23 63zM741 1225q-69 -158 -86 -194q-40 -86 -82 -192q-37 -93 -67 -198q-28 -97 -43 -207l88 195h295q-17 158 -46 300q-40 196 -59 296zM905 1630q48 0 73 15q28 17 38 30q13 18 18 45h19v-174q-15 -10 -39 -16
q-22 -9 -44 -13q-34 -6 -59 -6q-61 0 -99 15q-41 16 -70 33q-33 19 -64 33q-35 16 -86 16q-47 0 -72 -17q-26 -18 -37 -37q-16 -24 -18 -55h-16v174q18 23 36 37q17 12 42 24q23 11 59 11q62 0 99 -18q46 -22 70 -38q42 -28 64 -40q35 -19 86 -19z" />
    <glyph glyph-name="adieresis" unicode="&#xe4;" 
d="M696 1403q0 8 -3 17t-11 14h270q-6 -6 -9 -18t-3 -19q0 -16 12 -82q4 -19 8.5 -44t11.5 -58t11 -55q6 -32 19.5 -97t20.5 -98q22 -110 42 -200q19 -83 36 -169q15 -74 21 -102q2 -8 29 -114q19 -74 45 -145q29 -78 58 -138q32 -65 69 -95h-475q6 2 9 39q2 27 4 81
q0 14 0.5 42.5t1.5 42.5q1 27 1 53q0 82 -3 163q-3 71 -11 163q-96 -20 -207 -65q-109 -44 -182 -111q-4 -33 -6 -65q-2 -42 -2 -64q0 -30 3 -76q3 -47 15 -92q11 -43 37 -78q24 -33 65 -33h-477q9 17 40 91q9 22 34 79t40 93q16 37 49 113t48 110q18 43 54.5 125.5
t53.5 121.5q56 130 104 244q55 131 90 212t64 151q23 56 23 63zM741 1225q-69 -158 -86 -194q-40 -86 -82 -192q-37 -93 -67 -198q-28 -97 -43 -207l88 195h295q-17 158 -46 300q-40 196 -59 296zM682 1653l-154 -152l-151 152l151 153zM1067 1653l-154 -152l-151 152
l151 153z" />
    <glyph glyph-name="aring" unicode="&#xe5;" 
d="M696 1403q0 8 -3 17t-11 14h270q-6 -6 -9 -18t-3 -19q0 -16 12 -82q4 -19 8.5 -44t11.5 -58t11 -55q6 -32 19.5 -97t20.5 -98q22 -110 42 -200q19 -83 36 -169q15 -74 21 -102q2 -8 29 -114q19 -74 45 -145q29 -78 58 -138q32 -65 69 -95h-475q6 2 9 39q2 27 4 81
q0 14 0.5 42.5t1.5 42.5q1 27 1 53q0 82 -3 163q-3 71 -11 163q-96 -20 -207 -65q-109 -44 -182 -111q-4 -33 -6 -65q-2 -42 -2 -64q0 -30 3 -76q3 -47 15 -92q11 -43 37 -78q24 -33 65 -33h-477q9 17 40 91q9 22 34 79t40 93q16 37 49 113t48 110q18 43 54.5 125.5
t53.5 121.5q56 130 104 244q55 131 90 212t64 151q23 56 23 63zM741 1225q-69 -158 -86 -194q-40 -86 -82 -192q-37 -93 -67 -198q-28 -97 -43 -207l88 195h295q-17 158 -46 300q-40 196 -59 296zM715 1759q53 0 93 -37t40 -90q0 -54 -40 -91q-41 -38 -93 -38t-92 38
q-39 38 -39 91q0 52 39 90q38 37 92 37zM694 1522q26 0 43 14q20 16 33 35q15 21 22 44q7 22 7 44q0 28 -15 55t-47 27q-25 0 -43 -15q-19 -16 -32 -34q-14 -20 -22 -45q-7 -22 -7 -45q0 -31 14 -55q15 -25 47 -25z" />
    <glyph glyph-name="ae" unicode="&#xe6;" horiz-adv-x="2148" 
d="M696 1403q0 8 -3 17t-11 14h270q-6 -6 -9 -18t-3 -19q0 -16 12 -82q4 -19 8.5 -44t11.5 -58t11 -55q6 -32 19.5 -97t20.5 -98q22 -110 42 -200q19 -83 36 -169q15 -74 21 -102q2 -8 29 -114q19 -74 45 -145q29 -78 58 -138q32 -65 69 -95h-475q6 2 9 39q2 27 4 81
q0 14 0.5 42.5t1.5 42.5q1 27 1 53q0 82 -3 163q-3 71 -11 163q-96 -20 -207 -65q-109 -44 -182 -111q-4 -33 -6 -65q-2 -42 -2 -64q0 -30 3 -76q3 -47 15 -92q11 -43 37 -78q24 -33 65 -33h-477q9 17 40 91q9 22 34 79t40 93q16 37 49 113t48 110q18 43 54.5 125.5
t53.5 121.5q56 130 104 244q55 131 90 212t64 151q23 56 23 63zM741 1225q-69 -158 -86 -194q-40 -86 -82 -192q-37 -93 -67 -198q-28 -97 -43 -207l88 195h295q-17 158 -46 300q-40 196 -59 296zM1815 68q47 0 97 12t94 35q45 23 81 58q35 33 57 81v-254h-901q29 56 48 126
q20 72 20 132v1083q0 29 -23 54q-22 24 -45 39h883v-263q-23 47 -54 81q-38 41 -75 66q-43 29 -87 43q-47 15 -95 15h-252v-1202l-187 -106h439zM1980 860v-43q-53 -8 -109 -25q-57 -17 -115 -42q-49 -20 -106 -57q-52 -33 -87 -68l106 235h311z" />
    <glyph glyph-name="ccedilla" unicode="&#xe7;" horiz-adv-x="1212" 
d="M897 1434q145 0 219 -77t74 -188q0 -98 -50 -175q-48 -75 -122 -113q16 44 16 98q0 59 -20 106q-20 48 -57 86q-35 36 -86 58q-47 20 -109 20q-109 0 -202 -62q-97 -65 -168 -159q-73 -97 -116 -212q-43 -114 -43 -224q0 -46 13 -117q12 -66 42 -123q29 -55 80 -97
q49 -40 128 -40q63 0 126 27t118 69q57 43 105 96q49 54 81 103q0 -40 -14 -82q-16 -48 -29 -74q-32 -71 -85 -140q-50 -65 -112 -112q-63 -48 -133 -74q-75 -28 -150 -28q-95 0 -161 39t-106 100q-38 57 -57 139q-18 76 -18 150q0 107 32 224t89 228q58 112 135 212
q76 98 171 176q91 75 197 121q103 45 212 45zM326 -211l2 16q11 -5 19 -6q12 -2 20 -2q24 0 43 14q18 13 18 42q0 23 -18 38t-43 15q-19 0 -35 -8l53 145l64 -23l-23 -59q44 -1 77 -30q32 -27 32 -74q0 -51 -36 -87t-87 -36q-30 0 -52 13t-34 42z" />
    <glyph glyph-name="egrave" unicode="&#xe8;" horiz-adv-x="913" 
d="M580 68q48 0 97 12q50 12 94 35q45 23 81 58q35 33 57 81v-254h-901q28 56 48 126q20 72 20 132v1083q0 29 -23 54q-23 24 -45 39h883v-263q-23 47 -54 81q-38 41 -75 66q-43 29 -87 43q-47 15 -95 15h-252v-1202l-187 -106h439zM745 860v-43q-53 -8 -109 -25
q-57 -17 -115 -42q-49 -20 -106 -57q-52 -33 -87 -68l106 235h311zM528 1536l-186 217h162l71 -217h-47z" />
    <glyph glyph-name="eacute" unicode="&#xe9;" horiz-adv-x="913" 
d="M580 68q48 0 97 12q50 12 94 35q45 23 81 58q35 33 57 81v-254h-901q28 56 48 126q20 72 20 132v1083q0 29 -23 54q-23 24 -45 39h883v-263q-23 47 -54 81q-38 41 -75 66q-43 29 -87 43q-47 15 -95 15h-252v-1202l-187 -106h439zM745 860v-43q-53 -8 -109 -25
q-57 -17 -115 -42q-49 -20 -106 -57q-52 -33 -87 -68l106 235h311zM348 1536l68 205h151l-174 -205h-45z" />
    <glyph glyph-name="ecircumflex" unicode="&#xea;" horiz-adv-x="913" 
d="M580 68q48 0 97 12q50 12 94 35q45 23 81 58q35 33 57 81v-254h-901q28 56 48 126q20 72 20 132v1083q0 29 -23 54q-23 24 -45 39h883v-263q-23 47 -54 81q-38 41 -75 66q-43 29 -87 43q-47 15 -95 15h-252v-1202l-187 -106h439zM745 860v-43q-53 -8 -109 -25
q-57 -17 -115 -42q-49 -20 -106 -57q-52 -33 -87 -68l106 235h311zM338 1534l-162 2q7 7 28 27t35 34q24 24 78 76t79 77l63 62l168 -163l114 -113l-161 -2l-121 199z" />
    <glyph glyph-name="edieresis" unicode="&#xeb;" horiz-adv-x="913" 
d="M580 68q48 0 97 12q50 12 94 35q45 23 81 58q35 33 57 81v-254h-901q28 56 48 126q20 72 20 132v1083q0 29 -23 54q-23 24 -45 39h883v-263q-23 47 -54 81q-38 41 -75 66q-43 29 -87 43q-47 15 -95 15h-252v-1202l-187 -106h439zM745 860v-43q-53 -8 -109 -25
q-57 -17 -115 -42q-49 -20 -106 -57q-52 -33 -87 -68l106 235h311zM420 1657l-154 -152l-151 152l151 153zM805 1657l-154 -152l-151 152l151 153z" />
    <glyph glyph-name="igrave" unicode="&#xec;" horiz-adv-x="393" 
d="M0 0q22 47 35 82q11 35 22 83q11 49 11 93v1075q0 17 -11 36t-22 34q-11 11 -35 31h68h251h68q-24 -20 -33 -29q-12 -15 -22 -32q-12 -20 -13 -36v-88v-993q0 -44 11 -93q12 -53 24 -83q16 -43 33 -80h-68h-251h-68zM264 1503l-186 217h162l71 -217h-47z" />
    <glyph glyph-name="iacute" unicode="&#xed;" horiz-adv-x="393" 
d="M0 0q22 47 35 82q11 35 22 83q11 49 11 93v1075q0 17 -11 36t-22 34q-11 11 -35 31h68h251h68q-24 -20 -33 -29q-12 -15 -22 -32q-12 -20 -13 -36v-88v-993q0 -44 11 -93q12 -53 24 -83q16 -43 33 -80h-68h-251h-68zM78 1503l72 217h161l-186 -217h-47z" />
    <glyph glyph-name="icircumflex" unicode="&#xee;" horiz-adv-x="393" 
d="M0 0q22 47 35 82q11 35 22 83q11 49 11 93v1075q0 17 -11 36t-22 34q-11 11 -35 31h68h251h68q-24 -20 -33 -29q-12 -15 -22 -32q-12 -20 -13 -36v-88v-993q0 -44 11 -93q12 -53 24 -83q16 -43 33 -80h-68h-251h-68zM74 1501l-162 2l62 62q14 14 41.5 40t37.5 35
q54 52 79 77l63 63l167 -164l115 -113l-162 -2l-120 199z" />
    <glyph glyph-name="idieresis" unicode="&#xef;" horiz-adv-x="393" 
d="M0 0q22 47 35 82q11 35 22 83q11 49 11 93v1075q0 17 -11 36t-22 34q-11 11 -35 31h68h251h68q-24 -20 -33 -29q-12 -15 -22 -32q-12 -20 -13 -36v-88v-993q0 -44 11 -93q12 -53 24 -83q16 -43 33 -80h-68h-251h-68zM154 1655l-152 -152l-154 152l154 153zM539 1655
l-152 -152l-154 152l154 153z" />
    <glyph glyph-name="ntilde" unicode="&#xf1;" horiz-adv-x="1069" 
d="M14 -2q29 41 47 98q19 60 19 109v1075q0 35 -17 80q-19 49 -36 74h360q-19 -6 -31 -26q-12 -19 -18 -44q-6 -24 -9 -48t-3 -40q0 -133 29 -268q31 -143 85 -272q55 -131 137 -248q81 -116 183 -201v993q0 35 -17 80q-19 49 -36 74h354q-18 -29 -35 -68q-18 -40 -18 -72
v-835q0 -65 7 -142q8 -89 23 -166q17 -88 43 -163q27 -77 66 -127q-12 0 -34 8q-14 5 -44 17q-15 6 -43 20l-33 16q-108 56 -210 129q-95 69 -188 163q-84 85 -156 192q-66 97 -113 217v-314q0 -42 7 -83q8 -47 22 -86q15 -43 39 -80t55 -62h-435zM690 1636q48 0 73 15
q28 17 38 30q13 18 18 45h19v-174q-15 -10 -39 -16q-22 -9 -44 -13q-28 -5 -59 -5q-64 0 -99 14q-41 16 -70 33q-33 19 -64 33q-35 16 -86 16q-47 0 -72 -17q-27 -19 -37 -36q-16 -24 -18 -56h-17v174q16 21 37 37q16 12 42 24q23 11 59 11q64 0 99 -17q41 -20 70 -39
q42 -28 64 -40q35 -19 86 -19z" />
    <glyph glyph-name="ograve" unicode="&#xf2;" horiz-adv-x="1189" 
d="M39 434q0 94 30 205q31 113 82 222q56 118 125 214q75 103 162 182q89 80 188 128q101 49 203 49q109 0 178 -39q68 -39 109 -105q41 -67 56 -151q16 -91 16 -178q0 -92 -32 -202q-32 -109 -88 -214q-57 -107 -133 -205q-71 -92 -166 -174q-87 -75 -188 -121
q-99 -45 -202 -45q-95 0 -159 37t-104 98q-41 63 -59 139q-18 78 -18 160zM475 184q116 0 213 71q96 71 167 176q72 107 110 226q39 121 39 222q0 60 -16 127q-15 63 -48 114t-84 84t-125 33q-116 0 -213 -71q-96 -71 -167 -176q-70 -104 -109 -226t-39 -221q0 -64 15 -127
q15 -65 48 -115q33 -51 84 -84t125 -33zM715 725l-113 -113l-110 113l110 111zM868 1503l-186 217h162l71 -217h-47z" />
    <glyph glyph-name="oacute" unicode="&#xf3;" horiz-adv-x="1189" 
d="M39 434q0 94 30 205q31 113 82 222q56 118 125 214q75 103 162 182q89 80 188 128q101 49 203 49q109 0 178 -39q68 -39 109 -105q41 -67 56 -151q16 -91 16 -178q0 -92 -32 -202q-32 -109 -88 -214q-57 -107 -133 -205q-71 -92 -166 -174q-87 -75 -188 -121
q-99 -45 -202 -45q-95 0 -159 37t-104 98q-41 63 -59 139q-18 78 -18 160zM475 184q116 0 213 71q96 71 167 176q72 107 110 226q39 121 39 222q0 60 -16 127q-15 63 -48 114t-84 84t-125 33q-116 0 -213 -71q-96 -71 -167 -176q-70 -104 -109 -226t-39 -221q0 -64 15 -127
q15 -65 48 -115q33 -51 84 -84t125 -33zM715 725l-113 -113l-110 113l110 111zM764 1503l67 205h152l-174 -205h-45z" />
    <glyph glyph-name="ocircumflex" unicode="&#xf4;" horiz-adv-x="1189" 
d="M39 434q0 94 30 205q31 113 82 222q56 118 125 214q75 103 162 182q89 80 188 128q101 49 203 49q109 0 178 -39q68 -39 109 -105q41 -67 56 -151q16 -91 16 -178q0 -92 -32 -202q-32 -109 -88 -214q-57 -107 -133 -205q-71 -92 -166 -174q-87 -75 -188 -121
q-99 -45 -202 -45q-95 0 -159 37t-104 98q-41 63 -59 139q-18 78 -18 160zM475 184q116 0 213 71q96 71 167 176q72 107 110 226q39 121 39 222q0 60 -16 127q-15 63 -48 114t-84 84t-125 33q-116 0 -213 -71q-96 -71 -167 -176q-70 -104 -109 -226t-39 -221q0 -64 15 -127
q15 -65 48 -115q33 -51 84 -84t125 -33zM715 725l-113 -113l-110 113l110 111zM668 1503l-162 2l62 62q14 14 41.5 40t37.5 35q54 52 79 77l62 63l168 -164l115 -113l-162 -2l-121 199z" />
    <glyph glyph-name="otilde" unicode="&#xf5;" horiz-adv-x="1189" 
d="M39 434q0 94 30 205q31 113 82 222q56 118 125 214q75 103 162 182q89 80 188 128q101 49 203 49q109 0 178 -39q68 -39 109 -105q41 -67 56 -151q16 -91 16 -178q0 -92 -32 -202q-32 -109 -88 -214q-57 -107 -133 -205q-71 -92 -166 -174q-87 -75 -188 -121
q-99 -45 -202 -45q-95 0 -159 37t-104 98q-41 63 -59 139q-18 78 -18 160zM475 184q116 0 213 71q96 71 167 176q72 107 110 226q39 121 39 222q0 60 -16 127q-15 63 -48 114t-84 84t-125 33q-116 0 -213 -71q-96 -71 -167 -176q-70 -104 -109 -226t-39 -221q0 -64 15 -127
q15 -65 48 -115q33 -51 84 -84t125 -33zM715 725l-113 -113l-110 113l110 111zM958 1622q49 0 73 14q27 16 38 31q13 18 18 45h19v-174q-15 -10 -39 -16q-26 -11 -44 -14q-28 -5 -58 -5q-63 0 -100 15q-43 17 -69 32q-38 22 -65 34q-33 15 -86 15q-49 0 -72 -16
q-24 -17 -36 -37q-18 -25 -19 -55h-16v174q16 21 37 37q13 9 42 23q26 12 58 12q61 0 99 -18q41 -20 70 -39q42 -28 64 -40q33 -18 86 -18z" />
    <glyph glyph-name="odieresis" unicode="&#xf6;" horiz-adv-x="1189" 
d="M39 434q0 94 30 205q31 113 82 222q56 118 125 214q75 103 162 182q89 80 188 128q101 49 203 49q109 0 178 -39q68 -39 109 -105q41 -67 56 -151q16 -91 16 -178q0 -92 -32 -202q-32 -109 -88 -214q-57 -107 -133 -205q-71 -92 -166 -174q-87 -75 -188 -121
q-99 -45 -202 -45q-95 0 -159 37t-104 98q-41 63 -59 139q-18 78 -18 160zM475 184q116 0 213 71q96 71 167 176q72 107 110 226q39 121 39 222q0 60 -16 127q-15 63 -48 114t-84 84t-125 33q-116 0 -213 -71q-96 -71 -167 -176q-70 -104 -109 -226t-39 -221q0 -64 15 -127
q15 -65 48 -115q33 -51 84 -84t125 -33zM715 725l-113 -113l-110 113l110 111zM733 1655l-153 -152l-152 152l152 153zM1118 1655l-153 -152l-152 152l152 153z" />
    <glyph glyph-name="divide" unicode="&#xf7;" horiz-adv-x="346" 
d="M326 0l-154 -152l-152 152l152 154zM326 985l-154 -154l-152 154l152 152zM-31 512v115l406 2v-113z" />
    <glyph glyph-name="oslash" unicode="&#xf8;" horiz-adv-x="1189" 
d="M39 434q0 94 30 205q31 113 82 222q56 118 125 214q75 103 162 182q89 80 188 128q101 49 203 49q109 0 178 -39q68 -39 109 -105q41 -67 56 -151q16 -91 16 -178q0 -92 -32 -202q-32 -109 -88 -214q-57 -107 -133 -205q-71 -92 -166 -174q-87 -75 -188 -121
q-99 -45 -202 -45q-95 0 -159 37t-104 98q-41 63 -59 139q-18 78 -18 160zM475 184q116 0 213 71q96 71 167 176q72 107 110 226q39 121 39 222q0 60 -16 127q-15 63 -48 114t-84 84t-125 33q-116 0 -213 -71q-96 -71 -167 -176q-70 -104 -109 -226t-39 -221q0 -64 15 -127
q15 -65 48 -115q33 -51 84 -84t125 -33zM715 725l-113 -113l-110 113l110 111zM942 1434l-557 -1434h-135l557 1434h135z" />
    <glyph glyph-name="ugrave" unicode="&#xf9;" horiz-adv-x="1490" 
d="M223 1434h611q-107 -69 -210 -166q-108 -102 -191 -214q-84 -113 -139 -245q-54 -129 -54 -258q0 -56 9 -113q8 -53 34 -103q23 -45 68 -76q43 -30 112 -30q94 0 181 69q89 71 167 178q81 112 149 246q78 155 127 269q63 148 101 251q16 43 38.5 107t30.5 85h197
q-27 -74 -77.5 -212.5t-72.5 -198.5q-11 -29 -66 -179.5t-85 -231.5q-25 -70 -41 -142q-18 -83 -29 -158q-12 -82 -18 -160q-7 -88 -8 -152h-404q83 118 146 233q67 123 108 252q-32 -75 -89 -160q-57 -86 -127 -157q-71 -73 -154 -120q-84 -48 -175 -48q-87 0 -153 30
q-67 31 -110 82q-44 53 -66 122q-23 72 -23 155q0 64 26 150t66 176q34 76 93 186q51 95 105 183q50 83 106 166q51 76 90 132q-94 -23 -203 -68q-103 -43 -178 -116zM952 1503l-186 217h162l71 -217h-47z" />
    <glyph glyph-name="uacute" unicode="&#xfa;" horiz-adv-x="1490" 
d="M223 1434h611q-107 -69 -210 -166q-108 -102 -191 -214q-84 -113 -139 -245q-54 -129 -54 -258q0 -56 9 -113q8 -53 34 -103q23 -45 68 -76q43 -30 112 -30q94 0 181 69q89 71 167 178q81 112 149 246q78 155 127 269q63 148 101 251q16 43 38.5 107t30.5 85h197
q-27 -74 -77.5 -212.5t-72.5 -198.5q-11 -29 -66 -179.5t-85 -231.5q-25 -70 -41 -142q-18 -83 -29 -158q-12 -82 -18 -160q-7 -88 -8 -152h-404q83 118 146 233q67 123 108 252q-32 -75 -89 -160q-57 -86 -127 -157q-71 -73 -154 -120q-84 -48 -175 -48q-87 0 -153 30
q-67 31 -110 82q-44 53 -66 122q-23 72 -23 155q0 64 26 150t66 176q34 76 93 186q51 95 105 183q50 83 106 166q51 76 90 132q-94 -23 -203 -68q-103 -43 -178 -116zM895 1503l68 205h151l-174 -205h-45z" />
    <glyph glyph-name="ucircumflex" unicode="&#xfb;" horiz-adv-x="1490" 
d="M223 1434h611q-107 -69 -210 -166q-108 -102 -191 -214q-84 -113 -139 -245q-54 -129 -54 -258q0 -56 9 -113q8 -53 34 -103q23 -45 68 -76q43 -30 112 -30q94 0 181 69q89 71 167 178q81 112 149 246q78 155 127 269q63 148 101 251q16 43 38.5 107t30.5 85h197
q-27 -74 -77.5 -212.5t-72.5 -198.5q-11 -29 -66 -179.5t-85 -231.5q-25 -70 -41 -142q-18 -83 -29 -158q-12 -82 -18 -160q-7 -88 -8 -152h-404q83 118 146 233q67 123 108 252q-32 -75 -89 -160q-57 -86 -127 -157q-71 -73 -154 -120q-84 -48 -175 -48q-87 0 -153 30
q-67 31 -110 82q-44 53 -66 122q-23 72 -23 155q0 64 26 150t66 176q34 76 93 186q51 95 105 183q50 83 106 166q51 76 90 132q-94 -23 -203 -68q-103 -43 -178 -116zM895 1503l-162 2q7 7 28 27.5t35 34.5q11 11 24 23.5t29 27.5t25 24q54 52 79 77l63 63l168 -164
l114 -113l-161 -2l-121 199z" />
    <glyph glyph-name="udieresis" unicode="&#xfc;" horiz-adv-x="1490" 
d="M223 1434h611q-107 -69 -210 -166q-108 -102 -191 -214q-84 -113 -139 -245q-54 -129 -54 -258q0 -56 9 -113q8 -53 34 -103q23 -45 68 -76q43 -30 112 -30q94 0 181 69q89 71 167 178q81 112 149 246q78 155 127 269q63 148 101 251q16 43 38.5 107t30.5 85h197
q-27 -74 -77.5 -212.5t-72.5 -198.5q-11 -29 -66 -179.5t-85 -231.5q-25 -70 -41 -142q-18 -83 -29 -158q-12 -82 -18 -160q-7 -88 -8 -152h-404q83 118 146 233q67 123 108 252q-32 -75 -89 -160q-57 -86 -127 -157q-71 -73 -154 -120q-84 -48 -175 -48q-87 0 -153 30
q-67 31 -110 82q-44 53 -66 122q-23 72 -23 155q0 64 26 150t66 176q34 76 93 186q51 95 105 183q50 83 106 166q51 76 90 132q-94 -23 -203 -68q-103 -43 -178 -116zM807 1651l-154 -152l-151 152l151 153zM1192 1651l-154 -152l-151 152l151 153z" />
    <glyph glyph-name="yacute" unicode="&#xfd;" horiz-adv-x="1775" 
d="M1774 1434q-40 -18 -84 -78q-44 -61 -81 -130q-43 -81 -70 -140q-8 -18 -25.5 -56t-24.5 -53q-70 -156 -127 -272q-73 -149 -143 -265q-57 -95 -121 -180q-61 -82 -136 -139q-76 -58 -168 -89q-94 -32 -216 -32q-101 0 -203 24q-108 25 -186 75q-85 54 -136 134
q-53 83 -53 199q0 59 14 107q15 52 44 91q28 37 74 63q43 24 106 24q38 0 81 -16q42 -16 58 -58q-37 -18 -60 -45q-25 -29 -41 -65q-15 -33 -23 -73q-7 -35 -7 -75q0 -59 17 -113q19 -59 50 -103q33 -46 82 -76t111 -30q80 0 154 51q73 50 136 122q60 69 113 151
q26 41 90 139q107 166 209 361q-47 -79 -113 -163q-70 -89 -152 -160q-85 -74 -176 -121q-93 -48 -189 -48q-29 0 -62 6q-32 6 -59 21t-44 38q-18 24 -18 60q0 47 26 111q30 75 62 137q42 82 82 153q49 86 82 154q38 78 63 145q25 68 25 119q0 23 -8 55q-7 29 -35 40h242
q33 -16 45 -54t12 -69q0 -51 -25 -117q-24 -64 -65 -141q-39 -73 -84 -150q-67 -113 -84 -144q-39 -69 -64 -125q-26 -58 -26 -89q0 -19 10 -25q11 -6 27 -6q57 0 134 47q76 47 159 123q82 76 161 170q75 90 141 188q60 90 101 180q39 86 39 140q0 43 -16 72h375zM1141 1503
l67 205h152l-174 -205h-45z" />
    <glyph glyph-name="ydieresis" unicode="&#xff;" horiz-adv-x="1775" 
d="M1774 1434q-40 -18 -84 -78q-44 -61 -81 -130q-43 -81 -70 -140q-8 -18 -25.5 -56t-24.5 -53q-70 -156 -127 -272q-73 -149 -143 -265q-57 -95 -121 -180q-61 -82 -136 -139q-76 -58 -168 -89q-94 -32 -216 -32q-101 0 -203 24q-108 25 -186 75q-85 54 -136 134
q-53 83 -53 199q0 59 14 107q15 52 44 91q28 37 74 63q43 24 106 24q38 0 81 -16q42 -16 58 -58q-37 -18 -60 -45q-25 -29 -41 -65q-15 -33 -23 -73q-7 -35 -7 -75q0 -59 17 -113q19 -59 50 -103q33 -46 82 -76t111 -30q80 0 154 51q73 50 136 122q60 69 113 151
q26 41 90 139q107 166 209 361q-47 -79 -113 -163q-70 -89 -152 -160q-85 -74 -176 -121q-93 -48 -189 -48q-29 0 -62 6q-32 6 -59 21t-44 38q-18 24 -18 60q0 47 26 111q30 75 62 137q42 82 82 153q49 86 82 154q38 78 63 145q25 68 25 119q0 23 -8 55q-7 29 -35 40h242
q33 -16 45 -54t12 -69q0 -51 -25 -117q-24 -64 -65 -141q-39 -73 -84 -150q-67 -113 -84 -144q-39 -69 -64 -125q-26 -58 -26 -89q0 -19 10 -25q11 -6 27 -6q57 0 134 47q76 47 159 123q82 76 161 170q75 90 141 188q60 90 101 180q39 86 39 140q0 43 -16 72h375zM1167 1655
l-153 -152l-152 152l152 153zM1552 1655l-153 -152l-152 152l152 153z" />
    <glyph glyph-name="Dcroat" unicode="&#x110;" horiz-adv-x="1083" 
d="M72 258v1083q0 26 -23 54q-23 27 -45 39h350q199 0 335 -43q138 -43 225 -135q87 -91 127 -231q40 -139 40 -337q0 -183 -53 -315q-53 -133 -151 -214q-101 -84 -239 -121q-143 -38 -314 -38h-320q28 51 48 126q20 74 20 132zM137 68h187q133 0 233 56q104 58 172 148
q70 92 107 209q36 112 36 236q0 153 -23 269q-24 123 -85 209q-62 88 -168 134q-108 47 -272 47v-1202zM4 764v131h475v-131h-475z" />
    <glyph glyph-name="dcroat" unicode="&#x111;" horiz-adv-x="1083" 
d="M72 258v1083q0 26 -23 54q-23 27 -45 39h350q199 0 335 -43q138 -43 225 -135q87 -91 127 -231q40 -139 40 -337q0 -183 -53 -315q-53 -133 -151 -214q-101 -84 -239 -121q-143 -38 -314 -38h-320q28 51 48 126q20 74 20 132zM137 68h187q133 0 233 56q104 58 172 148
q70 92 107 209q36 112 36 236q0 153 -23 269q-24 123 -85 209q-62 88 -168 134q-108 47 -272 47v-1202zM4 764v131h475v-131h-475z" />
    <glyph glyph-name="Lslash" unicode="&#x141;" horiz-adv-x="1388" 
d="M397 317q89 139 166 305q48 104 146 312q-60 6 -113 22t-99 49t-72 78q-28 48 -28 113q0 34 16 76q15 38 41 69q27 32 60 52t74 20q33 0 65 -14q34 -15 49 -45q-49 -7 -79 -45q-31 -39 -31 -86q0 -73 47 -126q46 -52 115 -75q48 92 65 124q39 70 89 134q49 63 111 109
q60 45 128 45q69 0 110 -38t41 -110q0 -68 -35 -123q-36 -57 -89 -101t-118 -74q-64 -30 -122 -42q-38 -78 -85 -178q-28 -60 -86 -178q-40 -81 -92 -174q-47 -84 -106 -166q107 -45 215 -45q51 0 94 11q51 13 88 35q40 24 64 61q25 39 25 94q0 42 -31 70t-72 28
q13 19 33 32q22 14 44 21q27 8 49 11q26 3 46 3q111 0 166 -70t55 -175q0 -88 -41 -150q-40 -61 -105 -100q-68 -41 -143 -58q-80 -18 -153 -18q-117 0 -220 41q-101 40 -200 100q-47 -52 -109 -90q-63 -39 -134 -39q-31 0 -71 8q-37 7 -71 26q-33 18 -54 45q-22 28 -22 69
q0 46 21 81t53 55q33 21 74 33q37 11 82 11q69 0 149 -23zM326 217q-12 4 -38 10q-17 4 -40 4q-25 0 -53 -6q-32 -7 -54 -19q-23 -13 -42 -35q-17 -20 -17 -50q0 -13 7 -23t22 -10q64 0 119 41q56 42 96 88zM975 1024q37 10 84 33q48 23 90 55q43 33 73 73q29 39 29 83
q0 14 -6 24q-6 11 -22 11q-38 0 -76 -33q-35 -31 -70 -77q-26 -35 -59 -91q-2 -3 -43 -78zM508 811v131h584v-131h-584z" />
    <glyph glyph-name="lslash" unicode="&#x142;" horiz-adv-x="1388" 
d="M397 317q89 139 166 305q48 104 146 312q-60 6 -113 22t-99 49t-72 78q-28 48 -28 113q0 34 16 76q15 38 41 69q27 32 60 52t74 20q33 0 65 -14q34 -15 49 -45q-49 -7 -79 -45q-31 -39 -31 -86q0 -73 47 -126q46 -52 115 -75q48 92 65 124q39 70 89 134q49 63 111 109
q60 45 128 45q69 0 110 -38t41 -110q0 -68 -35 -123q-36 -57 -89 -101t-118 -74q-64 -30 -122 -42q-38 -78 -85 -178q-28 -60 -86 -178q-40 -81 -92 -174q-47 -84 -106 -166q107 -45 215 -45q51 0 94 11q51 13 88 35q40 24 64 61q25 39 25 94q0 42 -31 70t-72 28
q13 19 33 32q22 14 44 21q27 8 49 11q26 3 46 3q111 0 166 -70t55 -175q0 -88 -41 -150q-40 -61 -105 -100q-68 -41 -143 -58q-80 -18 -153 -18q-117 0 -220 41q-101 40 -200 100q-47 -52 -109 -90q-63 -39 -134 -39q-31 0 -71 8q-37 7 -71 26q-33 18 -54 45q-22 28 -22 69
q0 46 21 81t53 55q33 21 74 33q37 11 82 11q69 0 149 -23zM326 217q-12 4 -38 10q-17 4 -40 4q-25 0 -53 -6q-32 -7 -54 -19q-23 -13 -42 -35q-17 -20 -17 -50q0 -13 7 -23t22 -10q64 0 119 41q56 42 96 88zM975 1024q37 10 84 33q48 23 90 55q43 33 73 73q29 39 29 83
q0 14 -6 24q-6 11 -22 11q-38 0 -76 -33q-35 -31 -70 -77q-26 -35 -59 -91q-2 -3 -43 -78zM518 811v131h475v-131h-475z" />
    <glyph glyph-name="OE" unicode="&#x152;" horiz-adv-x="2103" 
d="M-4 434q0 94 30 205q31 113 82 222q56 118 125 214q75 103 162 182q89 80 188 128q101 49 203 49q109 0 178 -39q68 -39 109 -105q41 -67 56 -151q16 -91 16 -178q0 -92 -32 -202q-32 -109 -88 -214q-57 -107 -133 -205q-71 -92 -166 -174q-87 -75 -188 -121
q-99 -45 -202 -45q-95 0 -159 37t-104 98q-41 63 -59 139q-18 78 -18 160zM432 184q116 0 213 71q96 71 167 176q72 107 110 226q39 121 39 222q0 60 -16 127q-15 63 -48 114t-84 84t-125 33q-116 0 -213 -71q-96 -71 -167 -176q-70 -104 -109 -226t-39 -221q0 -64 15 -127
q15 -65 48 -115q33 -51 84 -84t125 -33zM672 725l-113 -113l-110 113l110 111zM1769 68q49 0 99 12q49 12 94 36t82 58q35 32 59 80v-254h-905q28 56 48 126q20 72 20 132v1083q0 29 -23 54q-23 24 -45 39h907v-263q-22 46 -53 81q-36 41 -75 66q-46 29 -88 43
q-46 15 -95 15h-276v-1202l-187 -106h438zM1935 860v-43q-53 -8 -109 -25q-57 -17 -115 -42q-49 -20 -106 -57q-52 -33 -87 -68l106 235h311z" />
    <glyph glyph-name="oe" unicode="&#x153;" horiz-adv-x="2103" 
d="M39 434q0 94 30 205q31 113 82 222q56 118 125 214q75 103 162 182q89 80 188 128q101 49 203 49q109 0 178 -39q68 -39 109 -105q41 -67 56 -151q16 -91 16 -178q0 -92 -32 -202q-32 -109 -88 -214q-57 -107 -133 -205q-71 -92 -166 -174q-87 -75 -188 -121
q-99 -45 -202 -45q-95 0 -159 37t-104 98q-41 63 -59 139q-18 78 -18 160zM475 184q116 0 213 71q96 71 167 176q72 107 110 226q39 121 39 222q0 60 -16 127q-15 63 -48 114t-84 84t-125 33q-116 0 -213 -71q-96 -71 -167 -176q-70 -104 -109 -226t-39 -221q0 -64 15 -127
q15 -65 48 -115q33 -51 84 -84t125 -33zM715 725l-113 -113l-110 113l110 111zM1769 68q49 0 98 12q50 12 94 35q45 23 81 58q35 33 57 81v-254h-901q28 56 48 126q20 72 20 132v1083q0 29 -23 54q-23 24 -45 39h883v-263q-22 45 -55 81q-40 43 -74 66q-43 29 -87 43
q-47 15 -96 15h-251v-1202l-187 -106h438zM1935 860v-43q-53 -8 -109 -25q-57 -17 -115 -42q-49 -20 -106 -57q-52 -33 -87 -68l106 235h311z" />
    <glyph glyph-name="Scaron" unicode="&#x160;" horiz-adv-x="1142" 
d="M729 252q49 0 108 15q56 14 109 44q51 29 86 74q35 46 35 102q0 44 -31 77q-30 31 -73 52q-41 20 -92 31q-46 10 -83 10q-62 0 -114 -14q-74 -20 -110 -31q-16 -5 -34 -10t-40 -11t-34 -9q-54 -15 -112 -15q-40 0 -85 13q-43 12 -77 36q-33 23 -59 60q-25 36 -35 78
q-47 52 -68 114q-20 60 -20 131q0 82 35 163q35 80 93 140q59 60 136 96q78 36 162 36q82 0 145 -26q61 -26 114 -57q71 -43 100 -58q47 -25 108 -25q65 0 99 36q34 35 34 99q0 17 -2 31q38 -24 63 -70q25 -47 25 -92q0 -112 -65 -164q-67 -53 -172 -53q-57 0 -102 16
q-48 17 -95 37q-45 19 -107 37q-55 16 -137 16q-70 0 -126 -26q-57 -26 -101 -72q-44 -45 -68 -106q-24 -60 -24 -126q0 -32 9 -65q8 -31 34 -55q12 -5 24 -6q24 -3 25 -3q68 0 134 29q49 22 130 64q69 36 137 63q73 29 158 29q53 0 123 -16q63 -14 122 -47q53 -29 93 -82
q37 -49 37 -119q0 -65 -21 -117q10 -43 10 -82q0 -92 -38 -168q-37 -75 -103 -134q-61 -56 -145 -89q-82 -33 -168 -33q-77 0 -140 24q-68 26 -114 57q-51 35 -93 75q-37 36 -82 74q-41 35 -80 58t-85 23q-19 0 -42 -4q-27 -5 -40 -14q0 37 19 68q20 33 49 54q32 23 65 34
q37 12 70 12q65 0 111 -16t78 -38t64 -51q29 -26 65 -50t85 -39q50 -15 123 -15zM682 1782l162 -2l-115 -113l-168 -164l-62 63q-11 11 -24 23.5t-29.5 28t-25.5 24.5t-25.5 24.5t-29.5 28t-24 23.5l-62 62l161 2l121 -199z" />
    <glyph glyph-name="scaron" unicode="&#x161;" horiz-adv-x="1142" 
d="M729 252q76 0 136 20q65 22 107 55q45 36 69 75q26 43 26 85q0 33 -21 63q-19 28 -59 53q-35 22 -88 38q-49 14 -111 16h-8q-70 0 -120 -14q-66 -18 -104 -31q-8 -2 -101 -30q-51 -15 -111 -15q-80 0 -130 29q-54 31 -78 62q-28 36 -38 64q-10 29 -10 32q-34 40 -61 100
t-27 145q0 60 27 135q27 76 79 141t134 113q79 46 186 46q84 0 147 -26t113 -57q61 -38 98 -58q46 -25 109 -25t89 25q27 26 38 59q10 34 4 82q22 -17 45 -41q15 -21 30 -52q13 -27 13 -69q0 -98 -57 -158q-56 -59 -181 -59q-62 0 -103 16q-45 18 -85 37q-42 20 -100 37
q-55 16 -152 16q-107 0 -178 -56q-73 -58 -108 -131q-35 -72 -33 -150q1 -73 43 -113q11 -5 21 -6q24 -3 28 -3q69 0 133 29q49 22 129 64q66 35 138 63q73 29 159 29q97 0 169 -26t117 -64t67 -86q22 -49 22 -88q0 -41 -6 -70q-5 -22 -15 -47q10 -39 10 -82
q-5 -87 -38 -161t-96 -135q-60 -58 -141 -93q-82 -35 -179 -35q-77 0 -140 24q-68 26 -114 57q-51 35 -93 75q-37 36 -82 74q-41 35 -80 58t-85 23q-17 0 -37 -2q-14 -1 -25 -6q-14 -5 -20 -10q0 30 14 58q17 33 41 55q27 24 65 39q40 16 83 16q64 0 112 -16t78 -38
q35 -26 62 -51q26 -25 64 -50q36 -24 85 -39t125 -15z" />
    <glyph glyph-name="Ydieresis" unicode="&#x178;" horiz-adv-x="1775" 
d="M1774 1434q-40 -18 -84 -78q-44 -61 -81 -130q-43 -81 -70 -140q-8 -18 -25.5 -56t-24.5 -53q-70 -156 -127 -272q-73 -149 -143 -265q-57 -95 -121 -180q-61 -82 -136 -139q-76 -58 -168 -89q-94 -32 -216 -32q-101 0 -203 24q-108 25 -186 75q-85 54 -136 134
q-53 83 -53 199q0 59 14 107q15 52 44 91q28 37 74 63q43 24 106 24q38 0 81 -16q42 -16 58 -58q-37 -18 -60 -45q-25 -29 -41 -65q-15 -33 -23 -73q-7 -35 -7 -75q0 -59 17 -113q19 -59 50 -103q33 -46 82 -76t111 -30q80 0 154 51q73 50 136 122q60 69 113 151
q26 41 90 139q107 166 209 361q-47 -79 -113 -163q-70 -89 -152 -160q-85 -74 -176 -121q-93 -48 -189 -48q-29 0 -62 6q-32 6 -59 21t-44 38q-18 24 -18 60q0 47 26 111q30 75 62 137q42 82 82 153q49 86 82 154q38 78 63 145q25 68 25 119q0 23 -8 55q-7 29 -35 40h242
q33 -16 45 -54t12 -69q0 -51 -25 -117q-24 -64 -65 -141q-39 -73 -84 -150q-67 -113 -84 -144q-39 -69 -64 -125q-26 -58 -26 -89q0 -19 10 -25q11 -6 27 -6q57 0 134 47q76 47 159 123q82 76 161 170q75 90 141 188q60 90 101 180q39 86 39 140q0 43 -16 72h375zM1167 1655
l-153 -152l-152 152l152 153zM1552 1655l-153 -152l-152 152l152 153z" />
    <glyph glyph-name="Zcaron" unicode="&#x17d;" horiz-adv-x="1148" 
d="M1085 72q-31 -20 -75 -35q-31 -12 -87 -26q-45 -11 -114 -11q-89 0 -149 20q-55 18 -114 47q-38 18 -99 46q-44 20 -99 20q-66 0 -123 -20q-58 -20 -106 -45q-53 -29 -105 -68q-33 174 -9 308q24 136 84 237q60 102 149 179t185 136q102 62 192 107q89 44 171 92
q-85 5 -151 19q-71 15 -134 33q-53 15 -125 31q-58 13 -126 13q-70 0 -112 -21q-39 -20 -64 -51q-26 -29 -37 -71h-23v342q30 24 66 41q24 12 73 26q46 13 89 13q100 0 169 -18q76 -20 128 -38t118 -38q57 -17 140 -17q85 0 136 17q59 20 89 38q38 22 63 56q6 -13 7 -29
q6 -30 6 -96q0 -151 -65 -257q-66 -107 -164 -186q-100 -80 -218 -143q-119 -63 -228 -132q-108 -68 -195 -152q-85 -82 -115 -199q40 50 111 94q70 43 184 43q77 0 134 -15q62 -16 105 -32q54 -20 98 -33q46 -14 111 -14q64 0 105 17q43 18 71 40q31 23 53 57v-325z" />
    <glyph glyph-name="zcaron" unicode="&#x17e;" horiz-adv-x="1148" 
d="M1085 72q-60 -37 -133 -54q-78 -18 -143 -18q-83 0 -143 20q-65 21 -117 47q-38 18 -101 46q-46 20 -100 20q-86 0 -176 -40q-93 -41 -158 -93q-18 92 -18 184q0 130 33 230q32 99 90 179q54 75 134 141q75 62 164 117q79 49 182 103q102 53 187 105q-73 5 -136 19
q-55 13 -133 32q-34 9 -133 31q-62 14 -134 14q-34 0 -68 -9t-64 -27q-31 -18 -52 -44q-23 -28 -29 -63h-23v342q44 34 109 57q64 23 119 23q80 0 149 -18q86 -23 135 -38q50 -16 131 -38q62 -17 140 -17q32 0 74 6q36 5 83 19q42 13 76 33q31 19 55 53q10 -24 12 -64
q1 -26 1 -61q0 -116 -37 -202q-39 -90 -99 -156q-61 -67 -143 -124q-70 -49 -167 -104q-18 -10 -79 -44.5t-94 -53.5q-92 -53 -160 -106q-75 -58 -129 -124t-77 -155q55 69 130 103q74 34 165 34q60 0 117 -15q72 -19 110 -32q53 -18 108 -33q52 -14 113 -14q63 0 129 28
t100 86v-325zM696 1782l162 -2l-115 -113l-168 -164l-62 63q-11 11 -24 23.5t-29.5 28t-25.5 24.5t-25.5 24.5t-29.5 28t-24 23.5l-62 62l162 2l120 -199z" />
    <glyph glyph-name="circumflex" unicode="&#x2c6;" horiz-adv-x="608" 
d="M182 1434l-162 2q7 7 28 27t35 34q11 11 24 23.5t29.5 28t25.5 24.5q54 52 79 77l62 62l168 -164l115 -112l-162 -2l-121 198z" />
    <glyph glyph-name="caron" unicode="&#x2c7;" horiz-adv-x="606" 
d="M424 1024l162 -2l-115 -113l-168 -164l-62 63q-25 25 -79 77q-9 9 -25.5 24.5t-29.5 28t-24 23.5q-14 14 -35 34t-28 27l162 2l121 -199z" />
    <glyph glyph-name="ring" unicode="&#x2da;" horiz-adv-x="305" 
d="M152 881q53 0 93 -37t40 -90q0 -54 -40 -91q-41 -38 -93 -38q-53 0 -93 38q-39 37 -39 91q0 52 39 90q38 37 93 37zM131 643q26 0 43 14q20 16 33 35q13 18 21 44t8 44q0 29 -15 56q-14 26 -47 26q-26 0 -43 -14q-20 -16 -33 -35q-12 -17 -21 -45q-7 -22 -7 -45
q0 -30 14 -54q15 -26 47 -26z" />
    <glyph glyph-name="tilde" unicode="&#x2dc;" horiz-adv-x="645" 
d="M477 653q47 0 73 15q28 17 38 30q13 18 18 45h19v-174q-15 -10 -39 -16q-22 -9 -44 -13q-28 -5 -59 -5q-64 0 -99 14q-41 16 -70 33q-33 19 -64 33q-35 16 -86 16q-47 0 -72 -17q-27 -19 -37 -36q-16 -24 -18 -56h-17v174q16 21 37 37q17 12 42 24q23 11 59 11
q64 0 99 -17q41 -20 70 -39q42 -28 64 -40q35 -19 86 -19z" />
    <glyph glyph-name="quotedblleft" unicode="&#x201c;" horiz-adv-x="468" 
d="M401 1640l48 -147v-59l-209 206h161zM229 1434l-209 206h162l47 -147v-59z" />
    <glyph glyph-name="quotedblright" unicode="&#x201d;" horiz-adv-x="468" 
d="M20 1432v59l48 147h161zM240 1491l47 147h162l-209 -206v59z" />
    <glyph glyph-name="minus" unicode="&#x2212;" horiz-adv-x="446" 
d="M20 512v115l406 2v-113z" />
    <glyph glyph-name="fi" unicode="&#xfb01;" horiz-adv-x="1228" 
d="M10 891v51h213q-12 51 -38 151q-19 73 -19 152q0 89 31 154q29 61 85 103q54 41 127 59q72 18 154 18q67 0 139 -12q71 -12 139 -38q67 -26 124 -68q58 -43 96 -101l-150 -133q-11 47 -37 99q-24 48 -59 86t-82 61q-45 22 -104 22q-102 0 -165 -60t-63 -163
q0 -82 24 -167q3 -10 44 -163h209l67 -182q-55 55 -120 81q-71 29 -140 40q22 -91 62 -222q23 -77 70 -251q32 -120 58 -251q23 -116 23 -218q0 -112 -67 -182t-180 -70q-43 0 -86 12t-72 45q76 -12 124 32t48 120q0 54 -12 134q-12 78 -33 169q-25 105 -46 186
q-28 107 -51 188q-5 19 -22.5 81t-26.5 94q-11 39 -36 143h-228zM799 0q27 53 49 126q20 67 20 132v817q0 31 -23 58q-25 29 -46 45h387q-23 -19 -43 -43q-25 -30 -25 -54v-825q0 -57 20 -131q20 -73 48 -125h-387z" />
    <glyph glyph-name="fl" unicode="&#xfb02;" horiz-adv-x="1896" 
d="M2 891v51h213q-12 51 -38 151q-19 73 -19 152q0 91 30 154q29 61 85 103q55 41 127 59t155 18q67 0 139 -12q70 -12 138 -38q67 -26 124 -68q60 -44 97 -101l-150 -133q-11 47 -37 99q-24 48 -59 86t-82 61q-45 22 -104 22q-102 0 -165 -60t-63 -163q0 -82 24 -167
q3 -10 44 -163h209l67 -182q-54 54 -121 81q-72 29 -139 40q22 -91 62 -222q23 -77 70 -251q32 -120 58 -251q23 -116 23 -218q0 -112 -67 -182t-181 -70q-42 0 -86 12q-42 12 -71 45q76 -12 124 32t48 120q0 48 -13 134q-14 90 -32 169q-25 105 -46 186q-8 30 -52 188
q-13 46 -48 175q-20 74 -37 143h-227zM903 326q91 142 166 304q96 208 145 312q-54 6 -112 23q-57 17 -100 48t-71 79t-28 112q0 34 16 76t40 70q24 29 61 51q33 20 74 20q33 0 65 -14q34 -15 49 -45q-50 -8 -80 -45t-30 -86q0 -73 47 -126t114 -75q34 67 66 124
q39 70 89 134q49 63 111 109q60 45 128 45q69 0 110 -38t41 -110q0 -66 -36 -123t-89 -101q-54 -45 -117 -74q-64 -30 -122 -42q-38 -78 -85 -178q-28 -60 -86 -178q-40 -81 -92 -174q-47 -84 -106 -166q107 -45 215 -45q51 0 94 11q49 13 87 35q41 24 65 62q24 37 24 93
q0 43 -30 70q-31 28 -72 28q13 19 33 32q22 14 44 21q32 10 49 12q26 3 46 3q110 0 166 -71q55 -70 55 -175q0 -88 -41 -150q-40 -61 -105 -100t-144 -57q-84 -19 -152 -19q-117 0 -220 41q-97 38 -200 101q-49 -54 -109 -91q-63 -39 -135 -39q-25 0 -70 9q-40 8 -71 25
q-33 18 -54 45q-22 28 -22 69q0 46 21 81t53 55q33 21 74 33q37 11 82 11q73 0 149 -22zM831 225q-24 8 -37 11q-17 4 -40 4q-21 0 -54 -7q-31 -6 -53 -19q-23 -13 -42 -35q-17 -20 -17 -50q0 -12 7 -22q8 -11 21 -11q65 0 120 41q53 40 95 88zM1481 1032q37 10 84 33
q48 23 90 55q41 31 72 73q30 41 30 83q0 14 -6 24q-6 11 -23 11q-38 0 -75 -33q-35 -31 -70 -77q-26 -35 -59 -91q-2 -3 -43 -78z" />
    <glyph glyph-name="f_f_i" unicode="&#xfb03;" horiz-adv-x="2500" 
d="M963 891h-656v51l639 2q-12 51 -38 151q-19 73 -19 152q0 90 32 154q30 61 85 103q51 39 127 58q69 17 155 17q67 0 139 -12q71 -12 140 -38q67 -25 125 -68t96 -101l-152 -133q-11 47 -37 99q-24 48 -59 86t-82 61q-45 22 -104 22q-102 0 -165 -60t-63 -163
q0 -82 24 -167q3 -10 44 -163h209l67 -182q-55 55 -120 81q-71 29 -140 40q22 -91 62 -222q23 -77 70 -251q32 -120 58 -251q23 -116 23 -218q0 -112 -67 -182t-180 -70q-42 0 -85 12q-45 12 -73 45q78 -12 125 32t47 120q0 54 -12 134q-12 78 -33 169q-25 105 -46 186
q-28 107 -51 188q-5 19 -22.5 81t-26.5 94q-11 39 -36 143zM463 879q27 -109 61 -221q30 -101 71 -251q28 -104 57 -250q24 -121 24 -218q0 -111 -69 -182q-69 -70 -179 -70q-42 0 -86 12q-43 12 -74 43q78 -11 125 33t47 121q0 54 -12 134q-12 78 -33 169q-21 90 -45 186
q-21 83 -50 188q-13 46 -48 175q-20 74 -37 143h-227v51h213q-12 51 -38 151q-20 77 -20 152q0 89 31 154q29 61 85 103q55 41 126 59q72 18 154 18q136 0 218 -61q83 -62 107 -166l-172 -121q25 55 31 101q6 50 -8 84q-16 38 -50 58q-36 21 -92 21q-101 0 -147 -60
q-47 -61 -47 -163q0 -85 23 -167q3 -10 44 -163zM1921 0h-387q27 53 49 126q21 70 21 132v821q0 30 -24 57q-26 29 -46 44h387q-23 -19 -43 -43q-25 -30 -25 -52v-829q0 -57 20 -131q20 -73 48 -125z" />
    <glyph glyph-name="T_T" horiz-adv-x="1957" 
d="M510 1434h47h375h92h375h47h510v-271q-88 59 -184 109q-76 40 -170 78q-90 37 -175 43q-21 -50 -45 -178q-24 -126 -24 -347v-190q0 -110 19 -225q20 -122 42 -220q21 -105 60 -233h-244h-246q36 119 62 233q22 98 42 220q19 115 19 225v190q0 117 -7 198q-8 93 -19 152
q-16 84 -22 107q-13 46 -22 70h-129q-2 -7 -9 -30.5t-11 -39.5q-13 -46 -24 -107q-9 -49 -18 -152q-7 -81 -7 -198v-190q0 -110 19 -225q20 -122 42 -220q21 -105 60 -233h-244h-246q36 119 62 233q22 98 42 220q19 115 19 225v190q0 216 -25 347q-24 128 -45 178
q-32 -1 -84 -15q-51 -14 -89 -28q-53 -20 -88 -37q-66 -32 -83 -41q-96 -50 -184 -109v271h510z" />
    <glyph glyph-name="F_I" horiz-adv-x="1157" 
d="M10 891v51h213q-12 51 -38 151q-19 73 -19 152q0 89 31 154q29 61 85 103q54 41 127 59q72 18 154 18q67 0 139 -12q71 -12 139 -38q67 -26 124 -68q58 -43 96 -101l-150 -133q-11 47 -37 99q-24 48 -59 86t-82 61q-45 22 -104 22q-102 0 -165 -60t-63 -163
q0 -82 24 -167q3 -10 44 -163h209l67 -182q-55 55 -120 81q-71 29 -140 40q22 -91 62 -222q23 -77 70 -251q32 -120 58 -251q23 -116 23 -218q0 -112 -67 -182t-180 -70q-43 0 -86 12t-72 45q76 -12 124 32t48 120q0 54 -12 134q-12 78 -33 169q-25 105 -46 186
q-28 107 -51 188q-5 19 -22.5 81t-26.5 94q-11 39 -36 143h-228zM1047 1004v-750q2 -47 12 -92q11 -49 22 -82q16 -43 33 -80h-67h-250h-70q19 35 35 82q12 30 24 83q11 49 11 93v829q0 18 -11 35q-12 19 -22 29q-15 14 -35 27h68h250h67q-10 -7 -33 -25q-8 -8 -22 -28
q-11 -15 -12 -33v-88z" />
    <glyph glyph-name="N_ss01" horiz-adv-x="1179" 
d="M373 1282q6 27 4 54q-1 26 -6 48q-6 26 -17 50h56h245h60q-19 -8 -37 -29q-17 -17 -32 -47q-16 -33 -28 -82q-28 -114 -34 -222q-6 -102 2 -197q8 -93 28 -169q21 -78 45 -141q60 -148 154 -258l41 172l197 821q8 30 5 54q-4 32 -7 48q-6 26 -17 50h55h246h56
q-21 -24 -35 -45q-15 -18 -30 -46q-14 -24 -24 -51l-198 -831q-32 -137 -39 -230q-8 -109 -4 -177q5 -77 16 -124q11 -46 25 -67q-17 0 -62 19q-42 17 -111 61q-69 43 -139 102q-77 65 -140 146q-69 90 -118 193q-51 108 -69 239l-74 -312q-18 -81 -14 -138q5 -63 18 -97
q16 -48 41 -76h-119h-247h-66q28 34 47 61q20 27 39 65t29 77z" />
    <glyph glyph-name="E_ss01" horiz-adv-x="1024" 
d="M395 1341q4 20 -2 37q-7 18 -16 29q-11 14 -29 27h70h250h252h311l-64 -263q-17 59 -51 103q-28 39 -79 71q-49 31 -130 31h-254l-291 -1202l-212 -106h186h252q95 0 163 29q69 29 117 65q56 41 95 92l-62 -254h-330h-252h-251h-68q32 43 53 82q25 42 45 83q22 47 33 93z
M637 860h309l-10 -43q-87 -17 -166 -43q-79 -25 -153 -59q-79 -36 -146 -90z" />
    <glyph glyph-name="A_ss01" 
d="M821 1382q12 21 6 39q-2 7 -6 13h15h16h117h100h23q-5 -5 -11 -13q-10 -16 -10 -45l35 -884q7 -139 28 -240q22 -105 39 -152q22 -62 54 -100h-101h-233h-141q4 0 16 45q16 59 28 124q16 82 30 185q18 125 24 230q-13 -3 -68 -17q-48 -12 -107 -33q-45 -16 -125 -53
q-66 -31 -120 -73q-22 -84 -33 -159q-10 -70 -5 -130q4 -55 26 -87q21 -32 59 -32h-360h-117zM846 1225l-236 -396q-57 -95 -100 -195q-44 -104 -72 -200l121 195h293q10 117 6 241z" />
    <glyph glyph-name="R_ss01" horiz-adv-x="1024" 
d="M1044 1055q5 -44 -6 -97q-10 -52 -48 -102q-36 -48 -108 -86q-69 -37 -188 -49q45 -27 83 -72q35 -41 60 -84q31 -52 47 -85q20 -41 45 -73q25 -33 51 -53t67 -20q32 0 50 12q15 10 27 29q10 17 15 39l39 -414h-148q-119 0 -185 54q-68 56 -103 136t-55 177t-43 176
q-24 83 -64 136q-40 54 -123 54l-6 51q60 0 124 14q63 14 110 49q49 37 74 97q26 62 15 158q-7 78 -40 131q-32 52 -78 80q-45 28 -99 40q-48 11 -102 11h-115l10 -104l78 -766q10 -109 41 -201q27 -82 66 -156q37 -73 84 -137h-142h-250h-106q23 74 39 150q12 68 21 140
q9 75 3 140l-67 672q-7 67 -27 137q-17 59 -39 104q-25 54 -51 91h84h250h280q128 0 211 -42t129 -102q48 -62 67 -124q18 -60 23 -111z" />
    <glyph glyph-name="G_ss01" horiz-adv-x="1024" 
d="M387 1249q-91 0 -155 -54q-65 -54 -92 -143t-15 -203q12 -112 76 -231q112 -207 242 -305q129 -98 237 -98q66 0 113 27q48 28 78 68q32 43 50 92q13 37 27 97q11 50 14 83q3 37 3 53q-46 -11 -107 -32q-55 -19 -109 -45q-57 -28 -95 -59q-43 -35 -60 -77l-25 295h500
l92 -377q42 -107 53 -133q9 -20 26.5 -60t22.5 -52q25 -58 46 -95h-64h-188h-39q1 16 0 55q-2 40 -6 80q-2 50 -6 107q-12 -50 -35 -94q-22 -42 -62 -76t-93 -53t-128 -19q-97 0 -183 43q-88 44 -159 109q-72 66 -128 141q-58 78 -91 141q-69 130 -99 255q-30 126 -26 236
q5 114 38 204q36 96 92 161q60 69 138 106q81 38 172 38t162 -34q75 -36 126 -80q56 -48 89 -94q32 -44 49 -77q37 -65 37 -116q0 -53 -14 -85q-16 -39 -49 -67q-1 11 -8 28q-6 33 -27 66q-12 21 -43 63q-34 46 -87 92q-54 47 -127 83q-72 36 -163 36z" />
    <glyph glyph-name="Dcroat.1" horiz-adv-x="1083" 
d="M72 258v1083q0 26 -23 54q-23 27 -45 39h350q199 0 335 -43q138 -43 225 -135q87 -91 127 -231q40 -139 40 -337q0 -183 -53 -315q-53 -133 -151 -214q-101 -84 -239 -121q-143 -38 -314 -38h-320q28 51 48 126q20 74 20 132zM137 68h187q133 0 233 56q104 58 172 148
q70 92 107 209q36 112 36 236q0 153 -23 269q-24 123 -85 209q-62 88 -168 134q-108 47 -272 47v-1202zM4 764v131h475v-131h-475z" />
    </font>
</defs>
</svg>
