<?xml version="1.0" standalone="no"?>
<!DOCTYPE svg PUBLIC "-//W3C//DTD SVG 1.1//EN" "http://www.w3.org/Graphics/SVG/1.1/DTD/svg11.dtd" >
<svg xmlns="http://www.w3.org/2000/svg" xmlns:xlink="http://www.w3.org/1999/xlink" version="1.1">
<metadata>
Created by FontForge 20170731 at Fri Jul 19 02:20:29 2019
 By Aleksey,,,
Copyright (c) 2019 by Connary Fagen. All rights reserved.
</metadata>
<defs>
<font id="WayfinderCF-DemiBoldItalic" horiz-adv-x="446" >
  <font-face 
    font-family="Wayfinder CF Demi Bold"
    font-weight="600"
    font-style="italic"
    font-stretch="normal"
    units-per-em="1000"
    panose-1="0 0 7 0 0 0 0 0 0 0"
    ascent="800"
    descent="-200"
    x-height="500"
    cap-height="700"
    bbox="-466 -284 1061 931"
    underline-thickness="50"
    underline-position="-150"
    slope="-6"
    unicode-range="U+0020-FB01"
  />
<missing-glyph horiz-adv-x="500" 
d="M410 -200h-317v1000h317v-1000zM168 733v-33h65v-37h-66v-33h166v33h-66v37h66v33h-165zM167 604v-104h166v34h-66v70h-100zM233 534h-33v36h33v-36zM167 473v-33h66v-37h-66v-33h100v70h66v33h-166zM300 413v-66h-133v-34h166v100h-33zM233 291v-56h34v23h33v-47h-100
v80h-33v-113h166v113h-100zM167 118v-113h166v113h-166zM300 38h-100v47h100v-47zM167 -18v-33h70l-70 -47v-33h166v33h-102l70 47h32v33h-166z" />
    <glyph glyph-name="fi" unicode="fi" horiz-adv-x="515" 
d="M3.5 -135.5q27.5 39.5 37.5 134.5l47 447h-66q28 29 52.5 61t67.5 93q51 74 83 110t58 36q20 0 33 -17.5t13 -45.5q0 -41 -23 -74t-58 -33q-18 0 -36 14q-9 6 -14 9t-14 3q-17 0 -27.5 -12.5t-10.5 -30.5q0 -68 178 -68q44 0 92 4.5t76 14.5l-43 -410q-1 -9 -1 -25
q0 -47 20 -75h-191q14 16 24.5 38t14.5 62l22 203q3 26 3 46q0 60 -18.5 90.5t-48.5 30.5q-25 0 -41.5 -30t-24.5 -108l-27 -268q-6 -64 -36 -120t-83.5 -91t-126.5 -35q41 7 68.5 46.5zM379 609.5q-11 22.5 -11 48.5q0 36 24.5 61t59.5 25q27 0 44.5 -17t17.5 -44
q0 -34 -21.5 -56.5t-47.5 -33.5t-43 -13q-12 7 -23 29.5z" />
    <glyph glyph-name=".notdef" horiz-adv-x="500" 
d="M410 -200h-317v1000h317v-1000zM168 733v-33h65v-37h-66v-33h166v33h-66v37h66v33h-165zM167 604v-104h166v34h-66v70h-100zM233 534h-33v36h33v-36zM167 473v-33h66v-37h-66v-33h100v70h66v33h-166zM300 413v-66h-133v-34h166v100h-33zM233 291v-56h34v23h33v-47h-100
v80h-33v-113h166v113h-100zM167 118v-113h166v113h-166zM300 38h-100v47h100v-47zM167 -18v-33h70l-70 -47v-33h166v33h-102l70 47h32v33h-166z" />
    <glyph glyph-name=".null" horiz-adv-x="0" 
 />
    <glyph glyph-name="nonmarkingreturn" horiz-adv-x="333" 
 />
    <glyph glyph-name="space" unicode=" " horiz-adv-x="135" 
 />
    <glyph glyph-name="exclam" unicode="!" horiz-adv-x="220" 
d="M96.5 338.5q-7.5 57.5 -19.5 121.5q-2 11 -9 53.5t-7 72.5q0 66 30.5 95t65.5 29q30 0 53 -19.5t23 -63.5q0 -30 -11.5 -67t-37.5 -103q-30 -81 -46.5 -130t-30.5 -110h-2q-1 64 -8.5 121.5zM31.5 13.5q-20.5 23.5 -20.5 57.5q0 41 27.5 72.5t63.5 31.5q31 0 52 -23.5
t21 -57.5q0 -41 -27.5 -72.5t-64.5 -31.5q-31 0 -51.5 23.5z" />
    <glyph glyph-name="quotedbl" unicode="&#x22;" horiz-adv-x="373" 
d="M249 700h156l-110 -309zM62 700h156l-110 -309z" />
    <glyph glyph-name="numbersign" unicode="#" horiz-adv-x="576" 
d="M446 476l-85 -251h144l-2 -24h-150l-102 -300h-23l102 300h-168l-102 -300h-23l102 300h-129l2 24h135l85 251h-140l2 24h146l102 300h23l-102 -300h168l102 300h23l-102 -300h133l-2 -24h-139zM423 476h-168l-85 -251h168z" />
    <glyph glyph-name="dollar" unicode="$" horiz-adv-x="345" 
d="M276 455q4 -8 21.5 -36.5t27 -54.5t9.5 -48q0 -58 -50 -92t-121 -34q-18 0 -27 1l-20 -71h-25l21 75q-49 8 -81 26l53 206q1 -59 13 -103.5t30 -72.5l33 121l-49 81q-22 38 -33 64t-11 55q0 61 49 99.5t129 38.5h9l19 70h25l-20 -72q42 -4 68 -21l-62 -186
q-3 103 -22 149l-32 -118zM212 560l33 118q-11 11 -25 11t-24 -10.5t-10 -33.5q0 -37 26 -85zM200.5 221q8.5 10 8.5 30q0 36 -32 92l-31 -115q17 -17 34 -17q12 0 20.5 10z" />
    <glyph glyph-name="percent" unicode="%" horiz-adv-x="478" 
d="M78.5 490.5q-23.5 30.5 -23.5 76.5q0 37 14.5 70t41 53t58.5 20q41 0 64.5 -30.5t23.5 -76.5q0 -37 -14.5 -70t-41 -53t-58.5 -20q-41 0 -64.5 30.5zM410 700h20l-327 -550h-20zM212.5 515q25.5 37 25.5 87q0 40 -18 65t-53 25q-42 0 -67.5 -37t-25.5 -87q0 -40 18 -65
t53 -25q42 0 67.5 37zM280 170.5q-23 30.5 -23 76.5q0 58 32.5 100.5t81.5 42.5q41 0 64.5 -30.5t23.5 -76.5q0 -37 -15 -70t-41.5 -53t-58.5 -20q-41 0 -64 30.5zM414 195q26 37 26 87q0 40 -18 65t-53 25q-42 0 -67.5 -37t-25.5 -88q0 -39 18 -64t52 -25q42 0 68 37z" />
    <glyph glyph-name="ampersand" unicode="&#x26;" horiz-adv-x="564" 
d="M497.5 391.5q-34.5 -28.5 -59.5 -67t-55 -98.5l13 -34q29 -76 55.5 -109t61.5 -33q14 0 26 7q-2 -15 -17.5 -30.5t-40.5 -26t-52 -10.5q-76 0 -129 89q-23 -39 -63 -64t-85 -25q-62 0 -101 44.5t-39 113.5q0 52 23 91.5t56 67t91 67.5l-23 60q-14 39 -21 66t-7 52
q0 46 22 81.5t58.5 54.5t79.5 19q47 0 80 -24t33 -77q0 -47 -27.5 -82t-78.5 -74l80 -211q19 63 19 109q0 65 -41 81v3h222v-3q-46 -9 -80.5 -37.5zM267.5 667q-12.5 -21 -12.5 -53q0 -49 38 -150q55 62 55 143q0 37 -11 59t-34 22t-35.5 -21zM290 97q-14 28 -24 53l-79 210
q-48 -51 -48 -117q0 -37 14 -73t40.5 -59t61.5 -23q17 0 35 9z" />
    <glyph glyph-name="quotesingle" unicode="'" horiz-adv-x="186" 
d="M62 700h156l-110 -309z" />
    <glyph glyph-name="parenleft" unicode="(" horiz-adv-x="285" 
d="M75 -56.5q-52 63.5 -52 195.5q0 48 6 103l23 216q19 187 87 274.5t206 87.5l-1 -6q-50 -9 -79 -58.5t-46 -141.5t-35 -264q-11 -107 -16 -169.5t-5 -110.5q0 -89 19 -132t65 -52l-1 -6q-119 0 -171 63.5z" />
    <glyph glyph-name="parenright" unicode=")" horiz-adv-x="285" 
d="M254 756.5q52 -63.5 52 -195.5q0 -47 -6 -103l-23 -216q-19 -187 -87 -274.5t-207 -87.5l1 6q51 9 80 58.5t46 141.5t35 264q11 107 16 169.5t5 110.5q0 89 -19 132t-65 52l1 6q119 0 171 -63.5z" />
    <glyph glyph-name="asterisk" unicode="*" horiz-adv-x="461" 
d="M251 550q-13 27 -20.5 49t-7.5 44q0 35 17.5 51t37.5 16q17 0 30.5 -11t13.5 -35q0 -28 -14 -55.5t-28.5 -48t-19.5 -28.5zM95.5 510q-20.5 12 -20.5 35q0 22 16 38t41 16q31 0 57.5 -23.5t56.5 -60.5l-20 -5q-53 -12 -78 -12q-32 0 -52.5 12zM328 502q-20 4 -37 8l-21 5
q40 39 70.5 61.5t61.5 22.5q22 0 34 -12t12 -30q0 -29 -24 -44t-59 -15q-17 0 -37 4zM119.5 361q-13.5 14 -11.5 33q3 32 36 53.5t86 42.5l19 8l-6 -24q-8 -35 -17 -59.5t-27 -43.5q-25 -24 -47 -24q-19 0 -32.5 14zM288 371q-15 21 -19 48t-4 49v30q8 -4 41.5 -19
t54.5 -35.5t21 -43.5q0 -20 -16 -36.5t-37 -16.5q-25 0 -41 24z" />
    <glyph glyph-name="plus" unicode="+" horiz-adv-x="280" 
d="M260 293h-104l-11 -104h-21l11 104h-105l2 21h105l11 105h21l-11 -105h104z" />
    <glyph glyph-name="comma" unicode="," horiz-adv-x="203" 
d="M144.5 150q20.5 -25 20.5 -64q0 -58 -43 -114.5t-101 -85.5l-2 3q37 40 45 102q-28 4 -45 26.5t-17 54.5q0 41 27 72t63 31q32 0 52.5 -25z" />
    <glyph glyph-name="hyphen" unicode="-" horiz-adv-x="280" 
d="M32 314h230l-2 -21h-230z" />
    <glyph glyph-name="period" unicode="." horiz-adv-x="204" 
d="M23 13.5q-21 23.5 -21 57.5q0 41 27.5 72.5t64.5 31.5q31 0 51.5 -23.5t20.5 -57.5q0 -41 -27.5 -72.5t-63.5 -31.5q-31 0 -52 23.5z" />
    <glyph glyph-name="slash" unicode="/" horiz-adv-x="210" 
d="M228 800h20l-245 -899h-20z" />
    <glyph glyph-name="zero" unicode="0" horiz-adv-x="496" 
d="M88 70q-46 80 -46 209q0 105 30.5 204.5t88 163t135.5 63.5q87 0 133.5 -80.5t46.5 -208.5q0 -103 -30.5 -203t-88.5 -164t-136 -64q-87 0 -133 80zM307.5 142q15.5 127 15.5 266q0 129 -14.5 203t-44.5 74q-39 0 -54.5 -124t-15.5 -266q0 -280 59 -280q39 0 54.5 127z
" />
    <glyph glyph-name="one" unicode="1" horiz-adv-x="282" 
d="M36 37.5q18 27.5 25 92.5l32 300q5 47 5 65q0 28 -11.5 39.5t-49.5 24.5l1 5l220 166l-63 -600q-2 -16 -2 -41q0 -41 13.5 -60.5t44.5 -28.5h-272q39 10 57 37.5z" />
    <glyph glyph-name="two" unicode="2" horiz-adv-x="413" 
d="M254 134q46 5 82.5 22t61.5 52l-87 -208h-336l1 1l-1 -1q133 164 208.5 290t75.5 229q0 45 -17.5 74t-55.5 29q-66 0 -118 -106h-4q18 80 69.5 137t137.5 57q73 0 107.5 -43.5t34.5 -102.5q0 -69 -45 -143.5t-106.5 -139t-156.5 -152.5h29q74 0 120 5z" />
    <glyph glyph-name="three" unicode="3" horiz-adv-x="416" 
d="M273 443q50 0 83.5 -37.5t33.5 -106.5q0 -75 -39.5 -147t-105 -117t-139.5 -45q-38 0 -72.5 11.5t-55.5 29.5q19 -4 40 -4q59 0 110 31t81.5 81.5t30.5 106.5q0 48 -21 67.5t-51 19.5q-19 0 -35 -6l73 99h1l107 145h-31q-68 0 -107.5 -4.5t-71 -20.5t-56.5 -50l84 204
h310l-196 -260q14 3 27 3z" />
    <glyph glyph-name="four" unicode="4" horiz-adv-x="426" 
d="M321 130q-2 -16 -2 -41q0 -41 13.5 -60.5t44.5 -28.5h-272q39 10 57 37.5t25 92.5l1 9h-199l395 590l-57 -538h87l-25 -52h-67zM194 191l26 250l-165 -250h139z" />
    <glyph glyph-name="five" unicode="5" horiz-adv-x="392" 
d="M339 403q35 -42 35 -115t-35.5 -142.5t-95.5 -112.5t-130 -43q-37 0 -71.5 10.5t-49.5 22.5q17 -4 39 -4q54 0 98.5 31t70 81.5t25.5 106.5q0 105 -90 105q-44 0 -88 -25l60 382h79q192 0 229 21l-65 -150h-234l-32 -195q95 69 164 69q56 0 91 -42z" />
    <glyph glyph-name="six" unicode="6" horiz-adv-x="461" 
d="M117.5 19q-39.5 29 -62 86t-22.5 137q0 108 39.5 217t110.5 180t159 71q33 0 55 -10q-90 0 -141.5 -104t-69.5 -272q-8 -80 -8 -155q0 -157 41 -157q31 0 49 76t18 154q0 62 -16.5 100.5t-54.5 38.5q-9 0 -20 -3q22 38 53 55.5t64 17.5q60 0 89 -51t29 -127
q0 -75 -27.5 -140t-78 -104t-116.5 -39q-51 0 -90.5 29z" />
    <glyph glyph-name="seven" unicode="7" horiz-adv-x="409" 
d="M475 700q-54 -45 -121.5 -162t-117 -263t-54.5 -275h-154q5 124 64 242.5t132.5 205t124.5 123.5h-80q-70 0 -110 -4.5t-71 -20.5t-56 -50l85 204h358z" />
    <glyph glyph-name="eight" unicode="8" horiz-adv-x="431" 
d="M373.5 478.5q-32.5 -41.5 -76.5 -64.5q41 -58 60.5 -88.5t32.5 -65.5t13 -72q0 -56 -29.5 -101.5t-80 -71t-111.5 -25.5q-79 0 -125 42t-46 113t43 122t99 70q-38 56 -56.5 98t-18.5 89q0 54 25 96.5t68.5 66t95.5 23.5q64 0 101.5 -36t37.5 -96q0 -58 -32.5 -99.5z
M229.5 663.5q-16.5 -22.5 -16.5 -59.5q0 -70 71 -172q18 35 26.5 67t8.5 73q0 49 -12.5 81.5t-38.5 32.5q-22 0 -38.5 -22.5zM235 43.5q22 28.5 22 76.5q0 41 -18.5 81t-62.5 103l-14 20q-22 -34 -34 -80t-12 -90q0 -57 18.5 -98t51.5 -41q27 0 49 28.5z" />
    <glyph glyph-name="nine" unicode="9" horiz-adv-x="461" 
d="M86 0q90 0 141.5 104.5t68.5 272.5q9 90 9 156q0 155 -42 155q-31 0 -49 -76.5t-18 -153.5q0 -63 17 -101t55 -38q10 0 20 3q-22 -38 -53.5 -55.5t-64.5 -17.5q-60 0 -89 51t-29 127q0 75 27.5 140t78 104t117.5 39q51 0 90 -29t61.5 -85.5t22.5 -136.5
q0 -109 -39.5 -218t-110.5 -180t-159 -71q-31 0 -54 10z" />
    <glyph glyph-name="colon" unicode=":" horiz-adv-x="204" 
d="M56 325.5q-21 23.5 -21 57.5q0 41 27.5 72.5t64.5 31.5q31 0 51.5 -23.5t20.5 -57.5q0 -41 -27.5 -72.5t-63.5 -31.5q-31 0 -52 23.5zM23 13.5q-21 23.5 -21 57.5q0 41 27.5 72.5t64.5 31.5q31 0 51.5 -23.5t20.5 -57.5q0 -41 -27.5 -72.5t-63.5 -31.5q-31 0 -52 23.5z
" />
    <glyph glyph-name="semicolon" unicode=";" horiz-adv-x="204" 
d="M144.5 150q20.5 -25 20.5 -64q0 -58 -43 -114.5t-101 -85.5l-2 3q37 40 45 102q-28 4 -45 26.5t-17 54.5q0 41 27 72t63 31q32 0 52.5 -25zM56 325.5q-21 23.5 -21 57.5q0 41 27.5 72.5t64.5 31.5q31 0 51.5 -23.5t20.5 -57.5q0 -41 -27.5 -72.5t-63.5 -31.5
q-31 0 -52 23.5z" />
    <glyph glyph-name="less" unicode="&#x3c;" horiz-adv-x="153" 
d="M24 229l82 74l-67 76l16 14l79 -90l-98 -89z" />
    <glyph glyph-name="equal" unicode="=" horiz-adv-x="280" 
d="M38 374h230l-2 -21h-230zM25 254h230l-2 -21h-230z" />
    <glyph glyph-name="greater" unicode="&#x3e;" horiz-adv-x="153" 
d="M31 303l97 90l14 -14l-83 -76l66 -74l-16 -15z" />
    <glyph glyph-name="question" unicode="?" horiz-adv-x="385" 
d="M166 284q0 27 10 58t32 82q22 50 35.5 89t18.5 79q1 10 1 26q0 32 -8.5 47.5t-20.5 15.5q-27 0 -62.5 -75.5t-80.5 -195.5h-3l-17 232q36 30 82.5 49t94.5 19q68 0 106.5 -37t38.5 -96q0 -41 -16 -74.5t-38.5 -58t-59.5 -57.5q-44 -39 -66 -67t-25 -62v-8q0 -12 2 -28h-2
q-22 26 -22 62zM106 13.5q-21 23.5 -21 57.5q0 41 27.5 72.5t64.5 31.5q31 0 51.5 -23.5t20.5 -57.5q0 -41 -27.5 -72.5t-63.5 -31.5q-31 0 -52 23.5z" />
    <glyph glyph-name="at" unicode="@" horiz-adv-x="681" 
d="M399 405q1 5 1 13q0 27 -18 27q-25 0 -44.5 -38t-30.5 -92t-11 -99q0 -41 10.5 -68.5t33.5 -27.5q11 0 20 6t10 19q-5 -46 -28.5 -72t-58.5 -26q-43 0 -68 38t-25 109t26 134t74 101t111 38q22 0 54.5 -3.5t46.5 -8.5l-29 -263q-3 -25 -3 -45q0 -36 8.5 -53t22.5 -17
q34 0 48 85.5t14 176.5q0 132 -41.5 201t-143.5 69q-87 0 -142.5 -52.5t-80.5 -136.5t-25 -182q0 -176 72 -246t184 -70q60 0 95 14l3 -3q-29 -22 -78 -41t-106 -19q-71 0 -133 33.5t-100.5 106.5t-38.5 183q0 122 47.5 223.5t135.5 161t203 59.5q106 0 176 -59t70 -202
q0 -77 -21.5 -154t-64.5 -127.5t-105 -50.5q-44 0 -69.5 27.5t-25.5 81.5q0 9 2 27zM370 146v-1v1z" />
    <glyph glyph-name="A" unicode="A" horiz-adv-x="500" 
d="M271 56q0 30 -15 113h-146q-31 -86 -31 -126q0 -27 13 -43h-117q27 22 53.5 65t57.5 119l212 532l110 -532q17 -81 31.5 -122.5t33.5 -61.5h-221q19 19 19 56zM208 439l-89 -245h132z" />
    <glyph glyph-name="B" unicode="B" horiz-adv-x="511" 
d="M448 332q41 -47 41 -124q0 -64 -29.5 -111t-80.5 -72t-116 -25h-263q20 14 30.5 27.5t18.5 49t16 107.5l35 332q7 62 7 100q0 39 -7.5 54.5t-26.5 29.5h254q64 0 112 -35t48 -109q0 -45 -18 -83t-50 -61.5t-72 -26.5q60 -6 101 -53zM277 665q-9 -13 -16 -47.5t-14 -101.5
l-13 -123q118 5 118 173q0 112 -51 112q-15 0 -24 -13zM319.5 75q19.5 53 19.5 131q0 84 -24.5 125.5t-82.5 43.5l-20 -191q-5 -50 -5 -74q0 -51 12 -69.5t35 -18.5q46 0 65.5 53z" />
    <glyph glyph-name="C" unicode="C" horiz-adv-x="474" 
d="M136.5 26.5q-45.5 36.5 -72 104t-26.5 156.5q0 108 38.5 205.5t110 157.5t164.5 60q59 0 113 -17q-1 -75 -6 -167l-4 -91h-3q-46 128 -80.5 187.5t-69.5 59.5q-36 0 -61 -47t-38 -116.5t-13 -137.5q0 -120 40.5 -202.5t122.5 -82.5q45 0 77 30q-10 -28 -38 -60t-68 -54
t-85 -22q-56 0 -101.5 36.5z" />
    <glyph glyph-name="D" unicode="D" horiz-adv-x="544" 
d="M30.5 27.5q10.5 13.5 18.5 49t16 107.5l35 332q7 62 7 100q0 39 -7.5 54.5t-26.5 29.5h229q62 0 113 -31t81.5 -96t30.5 -161q0 -106 -36.5 -200.5t-105 -153t-161.5 -58.5h-224q20 14 30.5 27.5zM346 151.5q27 124.5 27 273.5q0 118 -18.5 183t-55.5 65q-14 0 -23 -11
t-14.5 -38t-11.5 -78l-40 -384q-3 -27 -3 -47q0 -88 51 -88q61 0 88 124.5z" />
    <glyph glyph-name="E" unicode="E" horiz-adv-x="481" 
d="M343.5 78.5q52.5 52.5 113.5 179.5h3l-54 -258h-406q20 14 30.5 27.5t18.5 49t16 107.5l35 332q7 62 7 100q0 39 -7.5 54.5t-26.5 29.5h394l-9 -256h-3q-35 127 -68 178.5t-70 51.5q-34 0 -48 -36t-22 -121l-15 -144v-4q0 -13 10 -13q48 0 87.5 29t63.5 97h3l-28 -276h-3
q-10 69 -43.5 98t-81.5 29q-10 0 -14 -14l-14 -135q-6 -51 -6 -87q0 -37 10 -54t35 -17q40 0 92.5 52.5z" />
    <glyph glyph-name="F" unicode="F" horiz-adv-x="459" 
d="M468 700l-10 -256h-3q-34 127 -67.5 178.5t-71.5 51.5q-34 0 -47.5 -36t-21.5 -121l-16 -154q0 -16 10 -16q48 0 88.5 31t65.5 102h3l-31 -289h-3q-9 70 -43 101.5t-82 31.5q-10 0 -14 -15l-13 -125q-7 -62 -7 -100q0 -39 7.5 -54.5t26.5 -29.5h-239q20 14 30.5 27.5
t18.5 49t16 107.5l35 332q7 62 7 100q0 39 -7.5 54.5t-26.5 29.5h395z" />
    <glyph glyph-name="G" unicode="G" horiz-adv-x="520" 
d="M136.5 26.5q-45.5 36.5 -72 103.5t-26.5 155q0 108 40.5 206t114.5 158.5t169 60.5q58 0 112 -17l-7 -257h-3q-37 118 -77 181.5t-79 63.5q-38 0 -64 -57t-38.5 -142t-12.5 -170q0 -75 10.5 -142.5t29 -109.5t42.5 -42q13 0 19.5 10t10.5 35l9 63q11 81 11 120
q0 72 -30 105h220q-30 -29 -47 -76t-31 -149l-17 -128h-2q-20 23 -53 23q-15 0 -26.5 -3.5t-30.5 -10.5q-21 -9 -36.5 -13t-35.5 -4q-54 0 -99.5 36.5z" />
    <glyph glyph-name="H" unicode="H" horiz-adv-x="569" 
d="M590 700q-20 -14 -30.5 -27.5t-18.5 -49t-16 -107.5l-35 -332q-7 -62 -7 -100q0 -39 7.5 -54.5t26.5 -29.5h-239q20 14 30.5 27.5t18.5 49t16 107.5l15 147l-2 -18q2 18 -4 22t-23 4h-69q-17 0 -24 -4t-10 -22l-14 -129q-7 -62 -7 -100q0 -39 7.5 -54.5t26.5 -29.5h-239
q20 14 30.5 27.5t18.5 49t16 107.5l35 332q7 62 7 100q0 39 -7.5 54.5t-26.5 29.5h239q-20 -14 -30.5 -27.5t-18.5 -49t-16 -107.5l-14 -130q1 -13 7 -16t22 -3h69q16 0 23.5 3.5t10.5 18.5l13 127q7 62 7 100q0 39 -7.5 54.5t-26.5 29.5h239zM234 397q0 -4 -1 -6zM356 309
v4v-4z" />
    <glyph glyph-name="I" unicode="I" horiz-adv-x="291" 
d="M30.5 27.5q10.5 13.5 18.5 49t16 107.5l35 332q7 62 7 100q0 39 -7.5 54.5t-26.5 29.5h239q-20 -14 -30.5 -27.5t-18.5 -49t-16 -107.5l-35 -332q-7 -62 -7 -100q0 -39 7.5 -54.5t26.5 -29.5h-239q20 14 30.5 27.5z" />
    <glyph glyph-name="J" unicode="J" horiz-adv-x="282" 
d="M-38 -33l1 3q44 8 69 46t34 123l40 377q7 62 7 100q0 39 -7.5 54.5t-26.5 29.5h238q-20 -14 -30.5 -27.5t-18.5 -49t-16 -107.5l-37 -356q-7 -66 -34.5 -113.5t-67.5 -71.5t-85 -24q-34 0 -66 16z" />
    <glyph glyph-name="K" unicode="K" horiz-adv-x="538" 
d="M205 84q0 -39 7.5 -54.5t26.5 -29.5h-239q20 14 30.5 27.5t18.5 49t16 107.5l35 332q7 62 7 100q0 39 -7.5 54.5t-26.5 29.5h239q-20 -14 -30.5 -27.5t-18.5 -49t-16 -107.5l-35 -332q-7 -62 -7 -100zM413 240q35 -118 56 -164.5t46 -75.5h-190q-2 19 -17.5 77t-33.5 123
l-42 147q169 212 169 299q0 37 -30 54h189q-43 -20 -95 -75t-121 -155z" />
    <glyph glyph-name="L" unicode="L" horiz-adv-x="458" 
d="M30.5 27.5q10.5 13.5 18.5 49t16 107.5l35 332q7 62 7 100q0 39 -7.5 54.5t-26.5 29.5h239q-20 -14 -30.5 -27.5t-18.5 -49t-16 -107.5l-35 -332q-6 -52 -6 -88q0 -35 8.5 -52t29.5 -17q23 0 44.5 21t48 62.5t85.5 142.5l21 35h3l-70 -287l-376 -1q20 14 30.5 27.5z" />
    <glyph glyph-name="M" unicode="M" horiz-adv-x="684" 
d="M674.5 672.5q-10.5 -13.5 -18.5 -49t-16 -107.5l-35 -332q-7 -62 -7 -100q0 -39 7.5 -54.5t26.5 -29.5h-239q20 14 30.5 27.5t18.5 49t16 107.5l38 368l-229 -562l-133 566l-39 -372q-6 -57 -6 -89t6 -49.5t16.5 -26.5t32.5 -19h-159q28 13 41.5 27t23 49t17.5 108
l35 332q5 43 5 83q0 35 -6 53.5t-16.5 27.5t-31.5 20h212l92 -420l169 420h179q-20 -14 -30.5 -27.5z" />
    <glyph glyph-name="N" unicode="N" horiz-adv-x="504" 
d="M545 700q-28 -13 -41.5 -27t-23 -49t-17.5 -108l-27 -252q-8 -77 -12.5 -137.5t-8.5 -146.5h-5l-276 575l-39 -371q-6 -57 -6 -89t6 -49.5t16.5 -26.5t32.5 -19h-159q28 13 41.5 27t23 49t17.5 108l35 332q5 43 5 83q0 35 -6 53.5t-16.5 27.5t-31.5 20h204q1 -16 7 -32.5
t19 -44.5l12 -25l120 -277l20 195q6 57 6 90q0 32 -5.5 49t-15 26t-29.5 19h154z" />
    <glyph glyph-name="O" unicode="O" horiz-adv-x="535" 
d="M87.5 72.5q-49.5 82.5 -49.5 209.5q0 107 34.5 205.5t99 160.5t149.5 62q99 0 148.5 -82.5t49.5 -208.5q0 -107 -34.5 -206t-99 -161t-149.5 -62q-99 0 -148.5 82.5zM343.5 116.5q19.5 98.5 19.5 235.5q0 139 -21.5 234.5t-65.5 95.5t-63 -98t-19 -236q0 -140 21 -235
t65 -95t63.5 98.5z" />
    <glyph glyph-name="P" unicode="P" horiz-adv-x="496" 
d="M30.5 27.5q10.5 13.5 18.5 49t16 107.5l35 332q7 62 7 100q0 39 -7.5 54.5t-26.5 29.5h254q71 0 122.5 -42.5t51.5 -144.5q0 -110 -65 -170t-186 -60l1 8q55 6 79 84.5t24 171.5q0 127 -49 127q-21 0 -34.5 -32.5t-23.5 -125.5l-35 -332q-7 -62 -7 -100q0 -39 7.5 -54.5
t26.5 -29.5h-239q20 14 30.5 27.5z" />
    <glyph glyph-name="Q" unicode="Q" horiz-adv-x="535" 
d="M450 2q0 -1 4 -8t4 -23q0 -29 -17.5 -56t-49.5 -44t-71 -17q-44 0 -75.5 18.5t-70.5 53.5q-30 27 -48.5 39t-39.5 12q-20 0 -42 -13q69 40 121 40q-63 28 -95 103t-32 175q0 107 34.5 205.5t99 160.5t149.5 62q99 0 148.5 -82.5t49.5 -208.5q0 -106 -34.5 -205
t-98.5 -161.5t-148 -62.5l19 -7q30 -12 54.5 -18t54.5 -6q38 0 59 11t23 32h2zM213 584q-19 -98 -19 -236q0 -140 21 -235t65 -95t63.5 98.5t19.5 235.5q0 139 -21.5 234.5t-65.5 95.5t-63 -98zM43 -36h1h-1z" />
    <glyph glyph-name="R" unicode="R" horiz-adv-x="540" 
d="M471.5 89q28.5 -82 55.5 -88q-25 -6 -65 -6q-60 0 -96.5 37.5t-53 87t-30.5 121.5q-9 50 -16.5 72.5t-21.5 22.5l1 3q47 0 69.5 18t29.5 55t7 110q0 152 -49 152q-20 0 -32.5 -32.5t-22.5 -125.5l-35 -332q-7 -62 -7 -100q0 -39 7.5 -54.5t26.5 -29.5h-239
q20 14 30.5 27.5t18.5 49t16 107.5l35 332q7 62 7 100q0 39 -7.5 54.5t-26.5 29.5h259q72 0 118 -43.5t46 -118.5q0 -59 -28 -105.5t-76 -71.5q51 -190 79.5 -272z" />
    <glyph glyph-name="S" unicode="S" horiz-adv-x="413" 
d="M89 -3.5q-38 6.5 -63 23.5l13 246h2q68 -252 152 -252q23 0 35.5 16.5t12.5 45.5q0 28 -13.5 64t-40.5 88l-62 121q-34 67 -48.5 104t-14.5 77q0 54 27 95t73.5 63t103.5 22q63 0 127 -33l-11 -240h-2q-20 46 -31 78q-35 88 -57.5 128.5t-51.5 40.5q-19 0 -30.5 -18.5
t-11.5 -46.5q0 -26 11 -56t32 -71l60 -116q5 -11 17 -33q32 -59 49.5 -103t17.5 -87q0 -79 -64 -121t-159 -42q-35 0 -73 6.5z" />
    <glyph glyph-name="T" unicode="T" horiz-adv-x="461" 
d="M111 27q12 14 21 48.5t17 108.5l46 416q4 33 4 54q0 13 -2.5 18t-10.5 5q-12 0 -30.5 -30t-68.5 -123l-48 -89h-3l37 268q53 -3 144 -3h122q91 0 145 3l-20 -268h-3l-20 62q-35 108 -49 144t-27 36q-11 0 -14.5 -13.5t-9.5 -63.5l-46 -416q-7 -59 -7 -96q0 -29 4.5 -45
t13.5 -24.5t26 -18.5h-258q25 13 37 27z" />
    <glyph glyph-name="U" unicode="U" horiz-adv-x="509" 
d="M111 41q-46 51 -46 131q0 10 2 30l33 314q7 62 7 100q0 39 -7.5 54.5t-26.5 29.5h234q-18 -14 -27 -28t-17 -49t-16 -107l-33 -314q-2 -15 -2 -43q0 -61 21.5 -95.5t65.5 -34.5q51 0 82.5 46.5t40.5 126.5l33 314q7 72 7 96q0 29 -4 45t-11 24t-21 19h124
q-21 -14 -31.5 -28t-19 -49t-16.5 -107l-33 -314q-10 -95 -59 -153.5t-145 -58.5q-89 0 -135 51z" />
    <glyph glyph-name="V" unicode="V" horiz-adv-x="500" 
d="M546 700q-27 -22 -54 -65t-57 -119l-212 -532l-110 532q-17 81 -31.5 122.5t-33.5 61.5h221q-18 -18 -18 -56q0 -20 5 -54t12 -74l45 -255l93 255q36 101 36 142q0 26 -13 42h117z" />
    <glyph glyph-name="W" unicode="W" horiz-adv-x="763" 
d="M809 700q-27 -22 -54 -65t-57 -119l-213 -532l-90 426l-170 -426l-112 532q-18 83 -32 123.5t-33 60.5h221q-18 -18 -18 -57t17 -127l47 -255l37 102q21 63 21 114q0 35 -9 81q-14 60 -27 92.5t-29 49.5h221q-19 -19 -19 -56q0 -35 18 -128l47 -256l94 256q36 95 36 141
q0 27 -13 43h117z" />
    <glyph glyph-name="X" unicode="X" horiz-adv-x="496" 
d="M449.5 641q-30.5 -39 -73.5 -125l-52 -106l57 -226q16 -64 30 -100.5t27 -53t31 -30.5h-236q10 9 14.5 18.5t4.5 25.5q0 18 -6 49t-21 91l-27 109l-55 -109q-37 -74 -50.5 -106.5t-13.5 -50.5q0 -16 12 -27h-116q24 15 43 32t44 53.5t56 98.5l71 144l-46 188
q-20 82 -42 120.5t-48 63.5h236q-16 -15 -16 -46q0 -37 25 -138l18 -72l36 72q30 61 43 96t13 55t-13 33h116q-31 -20 -61.5 -59z" />
    <glyph glyph-name="Y" unicode="Y" horiz-adv-x="498" 
d="M543 700q-76 -57 -135 -184l-79 -172l-17 -160q-7 -62 -7 -100q0 -39 7.5 -54.5t26.5 -29.5h-238q20 14 30.5 27.5t18.5 49t16 107.5l14 132l-48 200q-29 131 -84 184h232q-15 -15 -15 -46q0 -17 4 -43t10 -55q6 -33 7 -40l26 -143l63 143l10 23q27 62 36.5 88.5
t9.5 45.5q0 17 -9 27h121z" />
    <glyph glyph-name="Z" unicode="Z" horiz-adv-x="449" 
d="M267.5 49q45.5 23 81 72t81.5 147l-64 -268h-381l331 681q-71 -9 -114 -32t-77 -71t-78 -141l63 263h370l-335 -682q77 8 122.5 31z" />
    <glyph glyph-name="bracketleft" unicode="[" horiz-adv-x="283" 
d="M90 820h253l-1 -6l-111 -14l-95 -900l109 -14l-1 -6h-253z" />
    <glyph glyph-name="backslash" unicode="\" horiz-adv-x="230" 
d="M58 800h20l115 -899h-20z" />
    <glyph glyph-name="bracketright" unicode="]" horiz-adv-x="305" 
d="M236 -120h-253l1 6l112 14l95 900l-109 14l1 6h252z" />
    <glyph glyph-name="asciicircum" unicode="^" horiz-adv-x="310" 
d="M25 394l178 316l111 -316l-1 -1l-126 164l-161 -164z" />
    <glyph glyph-name="underscore" unicode="_" horiz-adv-x="450" 
d="M-2 -10h400l-3 -21h-400z" />
    <glyph glyph-name="a" unicode="a" 
d="M381 85q0 -31 5.5 -45.5t14.5 -24.5l-165 -26l26 243q-9 -51 -30.5 -107t-54 -95.5t-71.5 -39.5q-40 0 -66 43.5t-26 122.5q0 86 33.5 168t95.5 134t144 52q29 0 69 -5t65 -14l-38 -366q-2 -16 -2 -40zM228.5 172q22.5 58 37.5 135t15 122q0 60 -30 60q-27 0 -50 -44
t-36 -110t-13 -127q0 -94 31 -94q23 0 45.5 58z" />
    <glyph glyph-name="b" unicode="b" 
d="M75 -4.5q-47 5.5 -79 16.5q18 10 28.5 49.5t19.5 126.5l43 412q1 9 1 25q0 48 -20 75l166 32l-50 -464q9 50 30.5 106t54 96t72.5 40t66 -43t26 -123q0 -87 -34 -168.5t-97.5 -133.5t-148.5 -52q-31 0 -78 5.5zM245 55q23 44 36 110t13 128q0 93 -30 93q-24 0 -46.5 -58
t-37.5 -134.5t-15 -122.5q0 -60 30 -60q27 0 50 44z" />
    <glyph glyph-name="c" unicode="c" horiz-adv-x="365" 
d="M60 48q-42 58 -42 148q0 82 33.5 154.5t92 116t130.5 43.5q51 0 76 -16l-29 -205h-1q-22 109 -38 154t-44 45q-22 0 -42 -26t-32.5 -71t-12.5 -100q0 -83 29.5 -144.5t92.5 -61.5q37 0 56 23q-19 -49 -59 -83.5t-97 -34.5q-71 0 -113 58z" />
    <glyph glyph-name="d" unicode="d" 
d="M381 85q0 -31 5.5 -45.5t14.5 -24.5l-165 -26l26 243q-9 -51 -30.5 -107t-54 -95.5t-71.5 -39.5q-40 0 -66 43.5t-26 122.5q0 86 33.5 168t95.5 134t144 52h5l6 60q3 27 3 48q0 55 -19 82l165 32l-64 -607q-2 -16 -2 -40zM228.5 172q22.5 58 37.5 135t15 122q0 60 -30 60
q-27 0 -50 -44t-36 -110t-13 -127q0 -94 31 -94q23 0 45.5 58z" />
    <glyph glyph-name="e" unicode="e" horiz-adv-x="379" 
d="M103.5 19.5q-39.5 29.5 -61.5 82t-22 117.5q0 75 29 142t81 108t118 41q50 0 77.5 -23.5t27.5 -69.5q0 -47 -36.5 -84t-131.5 -77q-16 -7 -22 -17t-6 -29q0 -50 34 -87.5t90 -37.5q43 0 62 23q-16 -48 -55.5 -83t-93.5 -35q-51 0 -90.5 29.5zM214 301q16 22 26 58t10 73
q0 26 -6.5 40.5t-21.5 14.5q-18 0 -34 -23t-26 -58.5t-10 -72.5q0 -26 6 -40t22 -14q18 0 34 22z" />
    <glyph glyph-name="f" unicode="f" horiz-adv-x="296" 
d="M2 -136q26 39 39 135l47 447h-66q28 29 52.5 61t67.5 93q51 74 83 110t58 36q20 0 33 -17.5t13 -45.5q0 -41 -23 -74t-58 -33q-18 0 -36 14q-9 6 -14 9t-14 3q-17 0 -27.5 -13t-10.5 -31q0 -58 111 -58q25 0 53 2v-1q-3 -2 -27 -12t-46 -50.5t-29 -106.5l-27 -268
q-7 -64 -37 -120t-83 -91t-126 -35q41 7 67 46z" />
    <glyph glyph-name="g" unicode="g" horiz-adv-x="442" 
d="M47 -178.5q-27 4.5 -41 12.5l103 124q-3 -14 -3 -27q0 -34 15.5 -60t38.5 -26q62 0 82 196l19 190q-9 -50 -30 -106t-53.5 -95.5t-71.5 -39.5q-40 0 -66 43.5t-26 122.5q0 86 33.5 168t95.5 134t144 52q29 0 69 -5t65 -14l-40 -385q-10 -94 -51.5 -159t-102 -97.5
t-126.5 -32.5q-27 0 -54 4.5zM228.5 172q22.5 58 37.5 135t15 122q0 60 -30 60q-27 0 -50 -44t-36 -109.5t-13 -126.5q0 -95 31 -95q23 0 45.5 58z" />
    <glyph glyph-name="h" unicode="h" horiz-adv-x="465" 
d="M394 100q-2 -24 -2 -32q0 -25 5 -38.5t10 -20.5t6 -9h-191q1 2 10.5 12.5t17.5 33.5t11 54l22 205q6 56 6 82q0 32 -10 32t-33 -42t-45.5 -113t-32.5 -158l-1 -6q-2 -22 -2 -30q0 -29 5.5 -42.5t15.5 -27.5h-191q1 2 10.5 12.5t17.5 33.5t11 54l50 470q3 27 3 48
q0 55 -19 82l166 33l-47 -443q20 67 53 117t71 76.5t75 26.5q46 0 46 -50q0 -10 -1 -16z" />
    <glyph glyph-name="i" unicode="i" horiz-adv-x="233" 
d="M94.5 614q-10.5 22 -10.5 47q0 37 25 60.5t59 23.5q30 0 47 -18t17 -46q0 -37 -25 -57.5t-65 -36.5q-14 -6 -23 -11q-14 16 -24.5 38zM5.5 12.5q9.5 10.5 17.5 33.5t11 54l28 261q2 15 2 40q0 50 -19 80l165 29l-43 -410q-2 -22 -2 -30q0 -29 5.5 -42.5t15.5 -27.5h-191
q1 2 10.5 12.5z" />
    <glyph glyph-name="j" unicode="j" horiz-adv-x="244" 
d="M99.5 614q-10.5 22 -10.5 47q0 37 25 60.5t59 23.5q30 0 47 -18t17 -46q0 -37 -25 -57.5t-65 -36.5q-14 -6 -23 -11q-14 16 -24.5 38zM-41.5 -176.5q-13.5 4.5 -16.5 9.5v2q35 8 56.5 44.5t29.5 115.5l39 366q2 15 2 40q0 50 -19 80l165 29l-51 -485q-6 -60 -31 -107
t-62 -73t-80 -26q-19 0 -32.5 4.5z" />
    <glyph glyph-name="k" unicode="k" horiz-adv-x="458" 
d="M167 100q-2 -22 -2 -30q0 -29 5.5 -42.5t15.5 -27.5h-191q1 2 10.5 12.5t17.5 33.5t11 54l50 470q3 27 3 48q0 55 -19 82l166 33l-52 -490q57 18 90.5 44t33.5 69q0 27 -13.5 45.5t-40.5 18.5q-6 0 -18 -2l132 97q20 -6 34 -28t14 -51q0 -44 -34.5 -85t-85.5 -71l63 -146
q29 -67 49.5 -95t39.5 -39h-165l-99 243z" />
    <glyph glyph-name="l" unicode="l" horiz-adv-x="233" 
d="M5.5 12.5q9.5 10.5 17.5 33.5t11 54l50 470q3 27 3 48q0 55 -19 82l166 33l-67 -633q-2 -22 -2 -30q0 -29 5.5 -42.5t15.5 -27.5h-191q1 2 10.5 12.5z" />
    <glyph glyph-name="m" unicode="m" horiz-adv-x="692" 
d="M621 100q-2 -24 -2 -32q0 -25 5 -38.5t10 -20.5t6 -9h-191q1 2 10.5 12.5t17.5 33.5t11 54l22 205q6 56 6 82q0 32 -10 32t-33 -41t-45.5 -111.5t-32.5 -157.5l-1 -9q-2 -24 -2 -32q0 -25 5 -38.5t10 -20.5t6 -9h-191q1 2 10.5 12.5t17.5 33.5t11 54l22 205q6 56 6 82
q0 32 -10 32t-33.5 -42t-46 -113.5t-32.5 -159.5v-4q-5 -49 -5 -77l1 -23h-168q1 2 10.5 12.5t17.5 33.5t11 54l28 261q2 15 2 40q0 50 -19 80l165 29l-23 -221q20 67 53 117t71 77t75 27q46 0 46 -50q0 -10 -1 -16l-16 -153q20 67 52.5 116.5t70.5 76t75 26.5q46 0 46 -50
q0 -10 -1 -16z" />
    <glyph glyph-name="n" unicode="n" horiz-adv-x="465" 
d="M394 100q-2 -24 -2 -32q0 -25 5 -38.5t10 -20.5t6 -9h-191q1 2 10.5 12.5t17.5 33.5t11 54l22 205q6 56 6 82q0 32 -10 32t-33.5 -42t-46 -113.5t-32.5 -159.5v-4q-5 -49 -5 -77l1 -23h-168q1 2 10.5 12.5t17.5 33.5t11 54l28 261q2 15 2 40q0 50 -19 80l165 29l-23 -221
q20 67 53 117t71 77t75 27q46 0 46 -50q0 -10 -1 -16z" />
    <glyph glyph-name="o" unicode="o" horiz-adv-x="424" 
d="M54 43q-38 53 -38 140q0 83 31.5 158.5t87.5 122t126 46.5q72 0 109.5 -52.5t37.5 -139.5q0 -83 -31.5 -158.5t-87.5 -122.5t-125 -47q-72 0 -110 53zM252.5 100.5q14.5 84.5 14.5 197.5q0 85 -11.5 135.5t-36.5 50.5q-33 0 -47.5 -85t-14.5 -198q0 -185 49 -185
q32 0 46.5 84.5z" />
    <glyph glyph-name="p" unicode="p" 
d="M15 -91l48 454q2 17 2 43q0 33 -5.5 48.5t-14.5 25.5l165 30l-25 -243q8 50 29.5 106.5t54.5 96.5t72 40q40 0 66 -43t26 -123q0 -87 -33.5 -168.5t-96.5 -133.5t-147 -52l-5 -47q-1 -9 -1 -25q0 -45 19 -75l-195 -34q35 38 41 100zM246 55q23 44 36 110t13 128
q0 44 -8 68.5t-23 24.5q-24 0 -46.5 -58t-37 -134.5t-14.5 -122.5q0 -31 7 -45.5t22 -14.5q28 0 51 44z" />
    <glyph glyph-name="q" unicode="q" 
d="M366 -74q0 -56 16 -83l-164 -29l24 225l20 195q-9 -50 -30 -107t-54 -97t-72 -40q-40 0 -66 43.5t-26 122.5q0 86 33.5 168t95.5 134t144 52q29 0 69 -5t65 -14l-47 -452l-4 -42q-4 -39 -4 -71zM228.5 172q22.5 58 37.5 135t15 122q0 60 -30 60q-27 0 -50 -44t-36 -110
t-13 -127q0 -94 31 -94q23 0 45.5 58z" />
    <glyph glyph-name="r" unicode="r" horiz-adv-x="357" 
d="M354 492q11 -18 11 -45q0 -26 -11 -53t-28.5 -44.5t-35.5 -17.5q-11 0 -27 9q-22 12 -37 12q-16 0 -25.5 -13.5t-13.5 -45.5l-20 -194q-2 -22 -2 -30q0 -29 5.5 -42.5t15.5 -27.5h-191q1 2 10.5 12.5t17.5 33.5t11 54l28 261q2 15 2 40q0 50 -19 80l165 29l-13 -121v-4
q0 -9 7 -9q3 0 5.5 2.5t6.5 8.5q27 48 40 69.5t30 37.5t37 16t31 -18z" />
    <glyph glyph-name="s" unicode="s" horiz-adv-x="343" 
d="M68.5 -0.5q-35.5 9.5 -58.5 21.5l53 206q2 -67 17 -116t36.5 -74.5t42.5 -25.5q12 0 20.5 10t8.5 30q0 40 -42 110l-56 92q-22 38 -33 64t-11 55q0 61 49 99.5t129 38.5q31 0 57.5 -6t43.5 -17l-62 -186q-2 85 -17.5 136.5t-46.5 51.5q-14 0 -24 -10.5t-10 -33.5
q0 -41 30 -91l60 -99q4 -8 21.5 -36.5t27 -54.5t9.5 -48q0 -58 -50 -92t-121 -34q-38 0 -73.5 9.5z" />
    <glyph glyph-name="t" unicode="t" horiz-adv-x="276" 
d="M175 114q-1 -5 -1 -15q0 -53 47 -53q16 0 32 5h1q-9 -21 -51 -41t-78 -20q-38 0 -62 24.5t-24 64.5l1 13l37 350h-56l212 218l-17 -161q42 0 70 3l-20 -60h-56z" />
    <glyph glyph-name="u" unicode="u" horiz-adv-x="464" 
d="M27 40q0 10 1 16l36 329q1 8 1 22q0 27 -6.5 45.5t-13.5 28.5l165 29l-34 -315q-6 -55 -6 -81q0 -32 10 -32q9 0 36.5 48.5t50.5 118.5t24 138q0 36 -6 60t-13 34l165 29l-42 -391q-1 -9 -1 -25q0 -47 20 -75l-165 -29l24 223q-20 -68 -53 -118.5t-71 -77.5t-75 -27
q-47 0 -47 50z" />
    <glyph glyph-name="v" unicode="v" horiz-adv-x="401" 
d="M391 459q0 -62 -48.5 -177.5t-167.5 -300.5h-1l-85 358q-20 83 -33 115.5t-34 45.5h202q-17 -17 -17 -57q0 -38 14 -104l37 -183q29 39 42.5 79.5t13.5 77.5q0 46 -19 75.5t-50 29.5l130 97q16 -20 16 -56z" />
    <glyph glyph-name="w" unicode="w" horiz-adv-x="615" 
d="M605 457q0 -62 -48.5 -177t-167.5 -299h-1l-60 256q-22 -47 -51.5 -96t-75.5 -120l-26 -40h-1l-85 358q-20 83 -33 115.5t-34 45.5h202q-17 -17 -17 -57q0 -38 14 -104l38 -185q52 55 52 131q0 21 -7 54q-20 83 -33 115.5t-34 45.5h202q-17 -17 -17 -58q0 -37 13 -103
l38 -183q28 39 42 79.5t14 76.5q0 47 -20 76.5t-51 29.5l130 97q17 -19 17 -58z" />
    <glyph glyph-name="x" unicode="x" horiz-adv-x="405" 
d="M340.5 44.5q15.5 -25.5 35.5 -44.5h-219q16 10 23.5 22t7.5 29q0 22 -14 67l-19 62l-7 -11q-62 -99 -62 -137q0 -19 16 -32h-137q44 34 78 66t80 96l26 37l-58 186q-15 46 -30 71t-35 44h199q-14 -17 -14 -41q0 -26 16 -74l26 -83q67 98 67 158q0 28 -16 43.5t-45 15.5
l131 98q12 -11 18.5 -28t6.5 -38q0 -44 -34 -100.5t-123 -166.5l52 -167q15 -47 30.5 -72.5z" />
    <glyph glyph-name="y" unicode="y" horiz-adv-x="404" 
d="M393 463q0 -75 -63 -207t-151 -273q-45 -69 -89.5 -114.5t-92.5 -45.5q-16 0 -28 5.5t-14 10.5l32 109q25 -10 64 -10q52 0 82 20.5t30 61.5q0 17 -4 33l-68 286q-19 83 -32 115.5t-34 45.5h201q-17 -17 -17 -57q0 -38 14 -104l38 -181q29 39 42.5 78.5t13.5 76.5
q0 46 -19.5 75.5t-50.5 29.5l130 97q16 -17 16 -52z" />
    <glyph glyph-name="z" unicode="z" horiz-adv-x="386" 
d="M257.5 72.5q51.5 45.5 103.5 151.5l-54 -224h-317l253 477h-10q-41 0 -71 -18.5t-59.5 -61t-68.5 -121.5l54 224h308l-252 -477q62 4 113.5 49.5z" />
    <glyph glyph-name="braceleft" unicode="{" horiz-adv-x="310" 
d="M139.5 -100.5q-48.5 19.5 -70.5 64t-22 121.5q0 34 5 87q4 30 4 57q0 86 -45 121q42 29 57 75t21 103q12 113 42 176t86.5 89.5t152.5 26.5l-1 -6q-50 -9 -76.5 -41.5t-42 -102t-30.5 -207.5l-23 -226q-15 -142 -15 -199q0 -53 9 -84t28 -46.5t53 -21.5l-1 -6
q-83 0 -131.5 19.5z" />
    <glyph glyph-name="bar" unicode="|" horiz-adv-x="220" 
d="M168 900h20l-115 -1099h-20z" />
    <glyph glyph-name="braceright" unicode="}" horiz-adv-x="332" 
d="M214.5 800.5q48.5 -19.5 70.5 -64t22 -121.5q0 -34 -5 -87q-4 -30 -4 -57q0 -86 45 -121q-42 -29 -57 -75t-21 -103q-12 -113 -42 -176t-87 -89.5t-153 -26.5l1 6q50 9 77 41.5t42.5 101.5t30.5 208l23 226q15 142 15 199q0 53 -9 84t-28 46.5t-53 21.5l1 6
q83 0 131.5 -19.5z" />
    <glyph glyph-name="asciitilde" unicode="~" horiz-adv-x="400" 
d="M88.5 332.5q40.5 52.5 80.5 52.5q13 0 25.5 -5.5t34.5 -18.5q23 -14 41 -22t37 -8q29 0 47.5 17.5t28.5 36.5h6q-24 -59 -64.5 -111.5t-80.5 -52.5q-13 0 -25.5 5.5t-34.5 18.5q-23 14 -41 22t-37 8q-29 0 -48.5 -17.5t-29.5 -36.5h-6q26 59 66.5 111.5z" />
    <glyph glyph-name="exclamdown" unicode="&#xa1;" horiz-adv-x="220" 
d="M189 487q21 -23 21 -58q0 -41 -27.5 -72.5t-64.5 -31.5q-31 0 -52 23.5t-21 58.5q0 41 27.5 72t64.5 31q31 0 52 -23zM123.5 161.5q7.5 -57.5 19.5 -121.5q2 -11 9 -53.5t7 -72.5q0 -66 -30.5 -95t-65.5 -29q-30 0 -53 19.5t-23 63.5q0 30 11.5 67t37.5 103
q30 81 46.5 130t30.5 110h2q1 -64 8.5 -121.5z" />
    <glyph glyph-name="cent" unicode="&#xa2;" horiz-adv-x="366" 
d="M349 308q-18 -48 -58.5 -83t-97.5 -35q-7 0 -21 2l-20 -72h-25l21 77q-51 17 -80 71t-29 128q0 81 32.5 153t90 116t128.5 45l19 70h25l-20 -71q36 -2 56 -15l-29 -205h-1q-12 63 -21.5 101t-19.5 61l-89 -320q31 -46 83 -46q37 0 56 23zM194 361l87 317q-10 10 -23 10
q-22 0 -42 -26t-32.5 -71t-12.5 -100q0 -77 23 -130z" />
    <glyph glyph-name="sterling" unicode="&#xa3;" horiz-adv-x="520" 
d="M298.5 65.5q91.5 32.5 135.5 69t73 80.5q-32 -79 -66 -153t-43 -73q-79 11 -207 11q-127 0 -217 -11l-1 2q50 22 78 46.5t40 61t12 93.5q0 14 -2 50l-1 34h-84l2 17h81q-4 70 -4 104q0 156 63.5 234.5t200.5 78.5q64 0 111 -17l-4 -234h-3q-34 85 -52.5 127t-38.5 68
t-41 26q-39 0 -56.5 -78.5t-17.5 -177.5q0 -51 6 -129l154 9l-13 -28h-140q2 -40 2 -51q0 -93 -51 -140.5t-154 -65.5q146 14 237.5 46.5z" />
    <glyph glyph-name="currency" unicode="&#xa4;" horiz-adv-x="327" 
d="M334 589q0 -30 -11.5 -57t-32.5 -48l32 -35l-13 -12l-32 35q-44 -34 -94 -34q-25 0 -47.5 9t-39.5 24l-40 -36l-10 12l40 36q-26 32 -26 76q0 60 44 106l-31 35l14 12l31 -35q43 33 93 33q52 0 88 -34l40 36l10 -12l-40 -36q25 -33 25 -75zM109 486q30 -30 76 -30
q34 0 64 18t48 48t18 65q0 45 -30 75t-76 30q-34 0 -64 -18t-48 -48t-18 -65q0 -45 30 -75z" />
    <glyph glyph-name="yen" unicode="&#xa5;" horiz-adv-x="498" 
d="M408 516l-61 -133h134l-2 -17h-140l-10 -22l-1 -6h149l-2 -17h-149l-14 -137q-7 -62 -7 -100q0 -39 7.5 -54.5t26.5 -29.5h-238q20 14 30.5 27.5t18.5 49t16 107.5l14 132l-2 5h-137l2 17h131l-6 28h-123l2 17h117l-32 133q-29 131 -84 184h232q-15 -15 -15 -46
q0 -17 4 -43t10 -55q6 -33 7 -40l26 -143l63 143l10 23q27 62 36.5 88.5t9.5 45.5q0 17 -9 27h121q-76 -57 -135 -184z" />
    <glyph glyph-name="brokenbar" unicode="&#xa6;" horiz-adv-x="220" 
d="M168 900h20l-52 -500h-20zM105 301h20l-52 -500h-20z" />
    <glyph glyph-name="section" unicode="&#xa7;" horiz-adv-x="370" 
d="M318.5 237.5q-42.5 -33.5 -103.5 -40.5l39 -58q62 -93 62 -151q0 -37 -25 -65.5t-66 -43.5t-88 -15q-39 0 -73.5 10t-59.5 24l18 176q19 -65 59 -125.5t73 -60.5q12 0 22.5 9.5t10.5 24.5q1 39 -49 115l-56 83q-25 38 -37.5 68t-12.5 59q0 56 39 92t99 43l-46 69
q-24 35 -35.5 65t-11.5 59q0 64 47 102t115 38q34 0 65.5 -10.5t45.5 -23.5l-17 -167q-35 90 -56.5 133.5t-43.5 43.5q-12 0 -21 -11.5t-9 -30.5q0 -39 38 -95l55 -84q30 -45 47.5 -81t17.5 -69q0 -49 -42.5 -82.5zM232 255q0 31 -46 104q-13 -3 -20.5 -13.5t-7.5 -27.5
q0 -33 40 -95l2 -2q32 5 32 34z" />
    <glyph glyph-name="copyright" unicode="&#xa9;" horiz-adv-x="464" 
d="M138.5 279q-40.5 26 -62.5 71.5t-22 102.5q0 66 29.5 125.5t81.5 95.5t115 36q53 0 94 -26t63 -71.5t22 -102.5q0 -67 -29.5 -126t-81.5 -95t-116 -36q-53 0 -93.5 26zM341 303.5q47 33.5 73 89t26 117.5q0 81 -43.5 132t-117.5 51q-58 0 -105 -33t-73.5 -88t-26.5 -119
q0 -80 43 -131.5t117 -51.5q60 0 107 33.5zM181.5 378q-23.5 33 -23.5 86q0 64 34 110t88 46q36 0 50 -23t14 -46q0 -19 -13 -31t-30 -12q-15 0 -23.5 9.5t-8.5 23.5q0 13 9.5 31.5t9.5 22.5q0 6 -10 6q-27 0 -40.5 -30t-13.5 -68q0 -44 19 -76t56 -32q23 0 30 11
q-8 -25 -29 -43t-53 -18q-42 0 -65.5 33z" />
    <glyph glyph-name="ordfeminine" unicode="&#xaa;" horiz-adv-x="409" 
d="M371 324q0 -27 5 -40.5t13 -22.5l-149 -24l23 221q-8 -46 -27.5 -97t-49 -87t-64.5 -36q-36 0 -60 39t-24 111q0 79 30.5 153.5t87 121.5t131.5 47q25 0 61.5 -5t59.5 -13l-35 -332q-2 -28 -2 -36zM233 402.5q21 52.5 34.5 122.5t13.5 111q0 55 -27 55q-25 0 -45.5 -40
t-32.5 -100t-12 -115q0 -86 28 -86q20 0 41 52.5zM83 137h230l-2 -21h-230z" />
    <glyph glyph-name="guillemotleft" unicode="&#xab;" horiz-adv-x="389" 
d="M180 262l204 188l1 -1l-90 -187l51 -187l-1 -1zM26 262l204 188l1 -1l-90 -187l51 -187l-1 -1z" />
    <glyph glyph-name="logicalnot" unicode="&#xac;" horiz-adv-x="280" 
d="M249 189h-21l11 104h-209l2 21h230z" />
    <glyph glyph-name="registered" unicode="&#xae;" horiz-adv-x="464" 
d="M138.5 279q-40.5 26 -62.5 71.5t-22 102.5q0 66 29.5 125.5t81.5 95.5t115 36q53 0 94 -26t63 -71.5t22 -102.5q0 -67 -29.5 -126t-81.5 -95t-116 -36q-53 0 -93.5 26zM341 303.5q47 33.5 73 89t26 117.5q0 81 -43.5 132t-117.5 51q-58 0 -105 -33t-73.5 -88t-26.5 -119
q0 -80 43 -131.5t117 -51.5q60 0 107 33.5zM270 395l-16 67q-2 7 -6 7q-2 0 -4.5 -2t-3.5 -6l-4 -42l-2 -36q0 -15 2.5 -21t10.5 -11h-93q11 7 16 18.5t9 49.5l13 125q2 15 2 35q0 16 -2.5 21.5t-10.5 12.5h100q28 0 45.5 -16t17.5 -42q0 -50 -56 -77q12 -2 18.5 -11.5
t14.5 -34.5l8 -25l7 -21q7 -26 15 -35q-15 -3 -28 -3q-42 0 -53 47zM279 512q10 24 10 52q0 34 -17 34q-8 0 -14 -11.5t-9 -42.5l-5 -47q0 -3 2 -6t6 -3q17 0 27 24z" />
    <glyph glyph-name="degree" unicode="&#xb0;" horiz-adv-x="280" 
d="M82.5 473.5q-29.5 33.5 -29.5 84.5q0 40 18 75t49 56t68 21q48 0 77.5 -33.5t29.5 -84.5q0 -40 -18 -75t-49 -56t-68 -21q-48 0 -77.5 33.5zM243.5 496.5q32.5 39.5 32.5 95.5q0 45 -24 73t-65 28q-49 0 -82 -39.5t-33 -94.5q0 -44 24.5 -73t65.5 -29q49 0 81.5 39.5z
" />
    <glyph glyph-name="plusminus" unicode="&#xb1;" horiz-adv-x="220" 
d="M202 314l-2 -21h-74l-9 -84h-21l9 84h-75l2 21h75l9 85h21l-9 -85h74zM17 111h153l-1 -21h-153z" />
    <glyph glyph-name="paragraph" unicode="&#xb6;" horiz-adv-x="722" 
d="M233 -93l33 313q-96 0 -155 53.5t-59 152.5q0 80 33 142.5t93 97t138 34.5h234q-45 -12 -77.5 -55.5t-40.5 -124.5l-60 -577q-1 -9 -1 -25q0 -45 19 -75l-197 -36q34 36 40 100zM467 -93l83 793h234q-45 -12 -77.5 -55.5t-40.5 -124.5l-60 -577q-1 -9 -1 -25
q0 -45 19 -75l-197 -36q34 36 40 100z" />
    <glyph glyph-name="periodcentered" unicode="&#xb7;" horiz-adv-x="204" 
d="M42 196.5q-21 23.5 -21 57.5q0 41 27.5 72.5t64.5 31.5q31 0 51.5 -23.5t20.5 -57.5q0 -41 -27.5 -72.5t-63.5 -31.5q-31 0 -52 23.5z" />
    <glyph glyph-name="ordmasculine" unicode="&#xba;" horiz-adv-x="391" 
d="M74.5 286q-34.5 48 -34.5 127q0 75 28.5 144t79.5 111t114 42q65 0 99 -48t34 -127q0 -75 -28.5 -143.5t-79 -111t-113.5 -42.5q-65 0 -99.5 48zM254 338.5q13 76.5 13 178.5q0 169 -44 169q-29 0 -42 -77.5t-13 -178.5q0 -168 44 -168q29 0 42 76.5zM76 137h230l-2 -21
h-230z" />
    <glyph glyph-name="guillemotright" unicode="&#xbb;" horiz-adv-x="390" 
d="M366 262l-204 -188l-1 1l90 187l-51 187l1 1zM212 262l-204 -188l-1 1l90 187l-51 187l1 1z" />
    <glyph glyph-name="questiondown" unicode="&#xbf;" horiz-adv-x="385" 
d="M284.5 487q20.5 -23 20.5 -58q0 -41 -27.5 -72.5t-63.5 -31.5q-31 0 -52 23.5t-21 58.5q0 41 27.5 72t64.5 31q31 0 51.5 -23zM224 216q0 -27 -10 -58t-32 -82q-22 -50 -35.5 -89t-18.5 -79q-1 -10 -1 -26q0 -32 8.5 -47.5t20.5 -15.5q27 0 62 73.5t82 197.5h3l16 -232
q-37 -30 -82.5 -49t-94.5 -19q-68 0 -106.5 37t-38.5 96q0 41 16 74.5t38.5 58t59.5 57.5q44 39 66 67t25 62l1 10q0 7 -1.5 14.5t-1.5 11.5h2q22 -26 22 -62z" />
    <glyph glyph-name="Agrave" unicode="&#xc0;" horiz-adv-x="500" 
d="M271 56q0 30 -15 113h-146q-31 -86 -31 -126q0 -27 13 -43h-117q27 22 53.5 65t57.5 119l212 532l110 -532q17 -81 31.5 -122.5t33.5 -61.5h-221q19 19 19 56zM208 439l-89 -245h132zM220 843q4 20 35.5 51t51.5 37l91 -173l-2 -2z" />
    <glyph glyph-name="Aacute" unicode="&#xc1;" horiz-adv-x="500" 
d="M271 56q0 30 -15 113h-146q-31 -86 -31 -126q0 -27 13 -43h-117q27 22 53.5 65t57.5 119l212 532l110 -532q17 -81 31.5 -122.5t33.5 -61.5h-221q19 19 19 56zM208 439l-89 -245h132zM238 758l127 173q18 -6 43 -37t25 -51l-194 -87z" />
    <glyph glyph-name="Acircumflex" unicode="&#xc2;" horiz-adv-x="500" 
d="M271 56q0 30 -15 113h-146q-31 -86 -31 -126q0 -27 13 -43h-117q27 22 53.5 65t57.5 119l212 532l110 -532q17 -81 31.5 -122.5t33.5 -61.5h-221q19 19 19 56zM208 439l-89 -245h132zM181 758l141 173l104 -173l-2 -2l-115 59l-126 -59z" />
    <glyph glyph-name="Atilde" unicode="&#xc3;" horiz-adv-x="500" 
d="M271 56q0 30 -15 113h-146q-31 -86 -31 -126q0 -27 13 -43h-117q27 22 53.5 65t57.5 119l212 532l110 -532q17 -81 31.5 -122.5t33.5 -61.5h-221q19 19 19 56zM208 439l-89 -245h132zM202 879.5q39 51.5 78 51.5q12 0 25 -6t32 -17q22 -14 39 -21.5t35 -7.5q27 0 45 16.5
t28 35.5h6q-28 -61 -65 -111.5t-75 -50.5q-12 0 -25.5 6t-31.5 18q-26 15 -41 21.5t-33 6.5q-28 0 -47.5 -17t-27.5 -35h-6q25 59 64 110.5z" />
    <glyph glyph-name="Adieresis" unicode="&#xc4;" horiz-adv-x="500" 
d="M271 56q0 30 -15 113h-146q-31 -86 -31 -126q0 -27 13 -43h-117q27 22 53.5 65t57.5 119l212 532l110 -532q17 -81 31.5 -122.5t33.5 -61.5h-221q19 19 19 56zM208 439l-89 -245h132zM174 789.5q-17 19.5 -17 48.5q0 32 22 57t52 25q26 0 43.5 -19t17.5 -46
q0 -34 -23 -59.5t-53 -25.5q-25 0 -42 19.5zM351 789.5q-17 19.5 -17 48.5q0 32 22.5 57t52.5 25q25 0 42.5 -19t17.5 -46q0 -34 -23 -59.5t-53 -25.5q-25 0 -42 19.5z" />
    <glyph glyph-name="Aring" unicode="&#xc5;" horiz-adv-x="500" 
d="M271 56q0 30 -15 113h-146q-31 -86 -31 -126q0 -27 13 -43h-117q27 22 53.5 65t57.5 119l212 532l110 -532q17 -81 31.5 -122.5t33.5 -61.5h-221q19 19 19 56zM208 439l-89 -245h132zM259.5 783.5q-17.5 20.5 -17.5 50.5q0 34 23.5 60t54.5 26q27 0 45 -20t18 -48
q0 -36 -23.5 -62.5t-55.5 -26.5q-27 0 -44.5 20.5zM349 799q19 22 19 51q0 24 -13.5 40t-35.5 16q-26 0 -44.5 -21.5t-18.5 -51.5q0 -24 13.5 -40t35.5 -16q25 0 44 22z" />
    <glyph glyph-name="AE" unicode="&#xc6;" horiz-adv-x="722" 
d="M585.5 78.5q52.5 52.5 113.5 179.5h3l-55 -258h-405q20 14 30.5 27.5t18.5 49t16 107.5h-172q-29 -58 -41.5 -91t-12.5 -51q0 -15 7.5 -23.5t24.5 -18.5h-138q22 17 34 29.5t34.5 48.5t58.5 106l198 389q28 56 28 90q0 25 -15 37h396l-10 -256h-3q-35 128 -68 179t-70 51
q-34 0 -48 -36t-22 -121l-15 -144v-4q0 -13 10 -13q48 0 88 29t64 97h3l-29 -276h-3q-10 69 -43.5 98t-81.5 29q-10 0 -14 -14l-14 -135q-6 -51 -6 -87q0 -37 10 -54t35 -17q41 0 93.5 52.5zM349 619l-200 -407h161l32 304q7 64 7 103z" />
    <glyph glyph-name="Ccedilla" unicode="&#xc7;" horiz-adv-x="474" 
d="M464 693q-1 -75 -6 -167l-4 -91h-3q-46 128 -80.5 187.5t-69.5 59.5q-36 0 -61 -47t-38 -116.5t-13 -137.5q0 -120 40.5 -202.5t122.5 -82.5q45 0 77 30q-10 -28 -38 -60t-68 -54t-85 -22h-7q-13 -17 -13 -31q0 -17 10.5 -30.5t28.5 -28.5q17 -15 17 -20
q0 -20 -25.5 -43.5t-58.5 -41t-51 -17.5q-11 0 -17.5 7.5t-6.5 17.5q0 18 27 18q8 0 22 -2l21 -1q21 0 21 13q0 10 -8.5 20t-24.5 24q-13 12 -19.5 19.5t-6.5 14.5q0 10 17.5 30t50.5 53q-51 7 -91 45t-63 102.5t-23 147.5q0 108 38.5 205.5t110 157.5t164.5 60
q59 0 113 -17z" />
    <glyph glyph-name="Egrave" unicode="&#xc8;" horiz-adv-x="481" 
d="M343.5 78.5q52.5 52.5 113.5 179.5h3l-54 -258h-406q20 14 30.5 27.5t18.5 49t16 107.5l35 332q7 62 7 100q0 39 -7.5 54.5t-26.5 29.5h394l-9 -256h-3q-35 127 -68 178.5t-70 51.5q-34 0 -48 -36t-22 -121l-15 -144v-4q0 -13 10 -13q48 0 87.5 29t63.5 97h3l-28 -276h-3
q-10 69 -43.5 98t-81.5 29q-10 0 -14 -14l-14 -135q-6 -51 -6 -87q0 -37 10 -54t35 -17q40 0 92.5 52.5zM219 843q4 20 35.5 51t51.5 37l91 -173l-2 -2z" />
    <glyph glyph-name="Eacute" unicode="&#xc9;" horiz-adv-x="481" 
d="M343.5 78.5q52.5 52.5 113.5 179.5h3l-54 -258h-406q20 14 30.5 27.5t18.5 49t16 107.5l35 332q7 62 7 100q0 39 -7.5 54.5t-26.5 29.5h394l-9 -256h-3q-35 127 -68 178.5t-70 51.5q-34 0 -48 -36t-22 -121l-15 -144v-4q0 -13 10 -13q48 0 87.5 29t63.5 97h3l-28 -276h-3
q-10 69 -43.5 98t-81.5 29q-10 0 -14 -14l-14 -135q-6 -51 -6 -87q0 -37 10 -54t35 -17q40 0 92.5 52.5zM237 758l127 173q18 -6 43 -37t25 -51l-194 -87z" />
    <glyph glyph-name="Ecircumflex" unicode="&#xca;" horiz-adv-x="481" 
d="M343.5 78.5q52.5 52.5 113.5 179.5h3l-54 -258h-406q20 14 30.5 27.5t18.5 49t16 107.5l35 332q7 62 7 100q0 39 -7.5 54.5t-26.5 29.5h394l-9 -256h-3q-35 127 -68 178.5t-70 51.5q-34 0 -48 -36t-22 -121l-15 -144v-4q0 -13 10 -13q48 0 87.5 29t63.5 97h3l-28 -276h-3
q-10 69 -43.5 98t-81.5 29q-10 0 -14 -14l-14 -135q-6 -51 -6 -87q0 -37 10 -54t35 -17q40 0 92.5 52.5zM180 758l141 173l104 -173l-2 -2l-115 59l-126 -59z" />
    <glyph glyph-name="Edieresis" unicode="&#xcb;" horiz-adv-x="481" 
d="M343.5 78.5q52.5 52.5 113.5 179.5h3l-54 -258h-406q20 14 30.5 27.5t18.5 49t16 107.5l35 332q7 62 7 100q0 39 -7.5 54.5t-26.5 29.5h394l-9 -256h-3q-35 127 -68 178.5t-70 51.5q-34 0 -48 -36t-22 -121l-15 -144v-4q0 -13 10 -13q48 0 87.5 29t63.5 97h3l-28 -276h-3
q-10 69 -43.5 98t-81.5 29q-10 0 -14 -14l-14 -135q-6 -51 -6 -87q0 -37 10 -54t35 -17q40 0 92.5 52.5zM173 789.5q-17 19.5 -17 48.5q0 32 22 57t52 25q26 0 43.5 -19t17.5 -46q0 -34 -23 -59.5t-53 -25.5q-25 0 -42 19.5zM350 789.5q-17 19.5 -17 48.5q0 32 22.5 57
t52.5 25q25 0 42.5 -19t17.5 -46q0 -34 -23 -59.5t-53 -25.5q-25 0 -42 19.5z" />
    <glyph glyph-name="Igrave" unicode="&#xcc;" horiz-adv-x="291" 
d="M30.5 27.5q10.5 13.5 18.5 49t16 107.5l35 332q7 62 7 100q0 39 -7.5 54.5t-26.5 29.5h239q-20 -14 -30.5 -27.5t-18.5 -49t-16 -107.5l-35 -332q-7 -62 -7 -100q0 -39 7.5 -54.5t26.5 -29.5h-239q20 14 30.5 27.5zM115 843q4 20 35.5 51t51.5 37l91 -173l-2 -2z" />
    <glyph glyph-name="Iacute" unicode="&#xcd;" horiz-adv-x="291" 
d="M30.5 27.5q10.5 13.5 18.5 49t16 107.5l35 332q7 62 7 100q0 39 -7.5 54.5t-26.5 29.5h239q-20 -14 -30.5 -27.5t-18.5 -49t-16 -107.5l-35 -332q-7 -62 -7 -100q0 -39 7.5 -54.5t26.5 -29.5h-239q20 14 30.5 27.5zM134 758l127 173q18 -6 43 -37t25 -51l-194 -87z" />
    <glyph glyph-name="Icircumflex" unicode="&#xce;" horiz-adv-x="291" 
d="M30.5 27.5q10.5 13.5 18.5 49t16 107.5l35 332q7 62 7 100q0 39 -7.5 54.5t-26.5 29.5h239q-20 -14 -30.5 -27.5t-18.5 -49t-16 -107.5l-35 -332q-7 -62 -7 -100q0 -39 7.5 -54.5t26.5 -29.5h-239q20 14 30.5 27.5zM77 758l141 173l104 -173l-2 -2l-115 59l-126 -59z" />
    <glyph glyph-name="Idieresis" unicode="&#xcf;" horiz-adv-x="291" 
d="M30.5 27.5q10.5 13.5 18.5 49t16 107.5l35 332q7 62 7 100q0 39 -7.5 54.5t-26.5 29.5h239q-20 -14 -30.5 -27.5t-18.5 -49t-16 -107.5l-35 -332q-7 -62 -7 -100q0 -39 7.5 -54.5t26.5 -29.5h-239q20 14 30.5 27.5zM69 789.5q-17 19.5 -17 48.5q0 32 22 57t52 25
q26 0 43.5 -19t17.5 -46q0 -34 -23 -59.5t-53 -25.5q-25 0 -42 19.5zM246 789.5q-17 19.5 -17 48.5q0 32 22.5 57t52.5 25q25 0 42.5 -19t17.5 -46q0 -34 -23 -59.5t-53 -25.5q-25 0 -42 19.5z" />
    <glyph glyph-name="Eth" unicode="&#xd0;" horiz-adv-x="543" 
d="M415 669q51 -31 81.5 -96t30.5 -161q0 -106 -36.5 -200.5t-105 -153t-161.5 -58.5h-224q20 14 30.5 27.5t18.5 49t16 107.5l16 154h-71v17h73l17 161q7 62 7 100q0 39 -7.5 54.5t-26.5 29.5h229q62 0 113 -31zM346 151.5q27 124.5 27 273.5q0 118 -18.5 183t-55.5 65
q-14 0 -23 -11t-14.5 -38t-11.5 -78l-19 -185l79 5l-10 -28h-72l-18 -176q-3 -27 -3 -47q0 -88 51 -88q61 0 88 124.5z" />
    <glyph glyph-name="Ntilde" unicode="&#xd1;" horiz-adv-x="504" 
d="M545 700q-28 -13 -41.5 -27t-23 -49t-17.5 -108l-27 -252q-8 -77 -12.5 -137.5t-8.5 -146.5h-5l-276 575l-39 -371q-6 -57 -6 -89t6 -49.5t16.5 -26.5t32.5 -19h-159q28 13 41.5 27t23 49t17.5 108l35 332q5 43 5 83q0 35 -6 53.5t-16.5 27.5t-31.5 20h204q1 -16 7 -32.5
t19 -44.5l12 -25l120 -277l20 195q6 57 6 90q0 32 -5.5 49t-15 26t-29.5 19h154zM216 879.5q39 51.5 78 51.5q12 0 25 -6t32 -17q22 -14 39 -21.5t35 -7.5q27 0 45 16.5t28 35.5h6q-28 -61 -65 -111.5t-75 -50.5q-12 0 -25.5 6t-31.5 18q-26 15 -41 21.5t-33 6.5
q-28 0 -47.5 -17t-27.5 -35h-6q25 59 64 110.5z" />
    <glyph glyph-name="Ograve" unicode="&#xd2;" horiz-adv-x="535" 
d="M87.5 72.5q-49.5 82.5 -49.5 209.5q0 107 34.5 205.5t99 160.5t149.5 62q99 0 148.5 -82.5t49.5 -208.5q0 -107 -34.5 -206t-99 -161t-149.5 -62q-99 0 -148.5 82.5zM343.5 116.5q19.5 98.5 19.5 235.5q0 139 -21.5 234.5t-65.5 95.5t-63 -98t-19 -236q0 -140 21 -235
t65 -95t63.5 98.5zM238 843q4 20 35.5 51t51.5 37l91 -173l-2 -2z" />
    <glyph glyph-name="Oacute" unicode="&#xd3;" horiz-adv-x="535" 
d="M87.5 72.5q-49.5 82.5 -49.5 209.5q0 107 34.5 205.5t99 160.5t149.5 62q99 0 148.5 -82.5t49.5 -208.5q0 -107 -34.5 -206t-99 -161t-149.5 -62q-99 0 -148.5 82.5zM343.5 116.5q19.5 98.5 19.5 235.5q0 139 -21.5 234.5t-65.5 95.5t-63 -98t-19 -236q0 -140 21 -235
t65 -95t63.5 98.5zM256 758l127 173q18 -6 43 -37t25 -51l-194 -87z" />
    <glyph glyph-name="Ocircumflex" unicode="&#xd4;" horiz-adv-x="535" 
d="M87.5 72.5q-49.5 82.5 -49.5 209.5q0 107 34.5 205.5t99 160.5t149.5 62q99 0 148.5 -82.5t49.5 -208.5q0 -107 -34.5 -206t-99 -161t-149.5 -62q-99 0 -148.5 82.5zM343.5 116.5q19.5 98.5 19.5 235.5q0 139 -21.5 234.5t-65.5 95.5t-63 -98t-19 -236q0 -140 21 -235
t65 -95t63.5 98.5zM199 758l141 173l104 -173l-2 -2l-115 59l-126 -59z" />
    <glyph glyph-name="Otilde" unicode="&#xd5;" horiz-adv-x="535" 
d="M87.5 72.5q-49.5 82.5 -49.5 209.5q0 107 34.5 205.5t99 160.5t149.5 62q99 0 148.5 -82.5t49.5 -208.5q0 -107 -34.5 -206t-99 -161t-149.5 -62q-99 0 -148.5 82.5zM343.5 116.5q19.5 98.5 19.5 235.5q0 139 -21.5 234.5t-65.5 95.5t-63 -98t-19 -236q0 -140 21 -235
t65 -95t63.5 98.5zM220 879.5q39 51.5 78 51.5q12 0 25 -6t32 -17q22 -14 39 -21.5t35 -7.5q27 0 45 16.5t28 35.5h6q-28 -61 -65 -111.5t-75 -50.5q-12 0 -25.5 6t-31.5 18q-26 15 -41 21.5t-33 6.5q-28 0 -47.5 -17t-27.5 -35h-6q25 59 64 110.5z" />
    <glyph glyph-name="Odieresis" unicode="&#xd6;" horiz-adv-x="535" 
d="M87.5 72.5q-49.5 82.5 -49.5 209.5q0 107 34.5 205.5t99 160.5t149.5 62q99 0 148.5 -82.5t49.5 -208.5q0 -107 -34.5 -206t-99 -161t-149.5 -62q-99 0 -148.5 82.5zM343.5 116.5q19.5 98.5 19.5 235.5q0 139 -21.5 234.5t-65.5 95.5t-63 -98t-19 -236q0 -140 21 -235
t65 -95t63.5 98.5zM192 789.5q-17 19.5 -17 48.5q0 32 22 57t52 25q26 0 43.5 -19t17.5 -46q0 -34 -23 -59.5t-53 -25.5q-25 0 -42 19.5zM369 789.5q-17 19.5 -17 48.5q0 32 22.5 57t52.5 25q25 0 42.5 -19t17.5 -46q0 -34 -23 -59.5t-53 -25.5q-25 0 -42 19.5z" />
    <glyph glyph-name="multiply" unicode="&#xd7;" horiz-adv-x="228" 
d="M134 303l66 -74l-16 -15l-66 75l-82 -75l-12 15l81 75l-66 75l16 14l66 -75l82 75l14 -14z" />
    <glyph glyph-name="Oslash" unicode="&#xd8;" horiz-adv-x="536" 
d="M488 591q31 -74 31 -172q0 -107 -34.5 -206t-99 -161t-149.5 -62q-21 0 -43 5l-27 -94h-28l29 102q-65 27 -97 102t-32 177q0 107 34.5 205.5t99 160.5t149.5 62q26 0 49 -6l28 96h28l-31 -106q62 -29 93 -103zM209 145l130 451q-23 86 -63 86q-44 0 -63 -98t-19 -236
q0 -124 15 -203zM343.5 116.5q19.5 98.5 19.5 235.5q0 105 -12 187l-130 -448q23 -73 59 -73q44 0 63.5 98.5z" />
    <glyph glyph-name="Ugrave" unicode="&#xd9;" horiz-adv-x="509" 
d="M111 41q-46 51 -46 131q0 10 2 30l33 314q7 62 7 100q0 39 -7.5 54.5t-26.5 29.5h234q-18 -14 -27 -28t-17 -49t-16 -107l-33 -314q-2 -15 -2 -43q0 -61 21.5 -95.5t65.5 -34.5q51 0 82.5 46.5t40.5 126.5l33 314q7 72 7 96q0 29 -4 45t-11 24t-21 19h124
q-21 -14 -31.5 -28t-19 -49t-16.5 -107l-33 -314q-10 -95 -59 -153.5t-145 -58.5q-89 0 -135 51zM267 843q4 20 35.5 51t51.5 37l91 -173l-2 -2z" />
    <glyph glyph-name="Uacute" unicode="&#xda;" horiz-adv-x="509" 
d="M111 41q-46 51 -46 131q0 10 2 30l33 314q7 62 7 100q0 39 -7.5 54.5t-26.5 29.5h234q-18 -14 -27 -28t-17 -49t-16 -107l-33 -314q-2 -15 -2 -43q0 -61 21.5 -95.5t65.5 -34.5q51 0 82.5 46.5t40.5 126.5l33 314q7 72 7 96q0 29 -4 45t-11 24t-21 19h124
q-21 -14 -31.5 -28t-19 -49t-16.5 -107l-33 -314q-10 -95 -59 -153.5t-145 -58.5q-89 0 -135 51zM285 758l127 173q18 -6 43 -37t25 -51l-194 -87z" />
    <glyph glyph-name="Ucircumflex" unicode="&#xdb;" horiz-adv-x="509" 
d="M111 41q-46 51 -46 131q0 10 2 30l33 314q7 62 7 100q0 39 -7.5 54.5t-26.5 29.5h234q-18 -14 -27 -28t-17 -49t-16 -107l-33 -314q-2 -15 -2 -43q0 -61 21.5 -95.5t65.5 -34.5q51 0 82.5 46.5t40.5 126.5l33 314q7 72 7 96q0 29 -4 45t-11 24t-21 19h124
q-21 -14 -31.5 -28t-19 -49t-16.5 -107l-33 -314q-10 -95 -59 -153.5t-145 -58.5q-89 0 -135 51zM228 758l141 173l104 -173l-2 -2l-115 59l-126 -59z" />
    <glyph glyph-name="Udieresis" unicode="&#xdc;" horiz-adv-x="509" 
d="M111 41q-46 51 -46 131q0 10 2 30l33 314q7 62 7 100q0 39 -7.5 54.5t-26.5 29.5h234q-18 -14 -27 -28t-17 -49t-16 -107l-33 -314q-2 -15 -2 -43q0 -61 21.5 -95.5t65.5 -34.5q51 0 82.5 46.5t40.5 126.5l33 314q7 72 7 96q0 29 -4 45t-11 24t-21 19h124
q-21 -14 -31.5 -28t-19 -49t-16.5 -107l-33 -314q-10 -95 -59 -153.5t-145 -58.5q-89 0 -135 51zM221 789.5q-17 19.5 -17 48.5q0 32 22 57t52 25q26 0 43.5 -19t17.5 -46q0 -34 -23 -59.5t-53 -25.5q-25 0 -42 19.5zM398 789.5q-17 19.5 -17 48.5q0 32 22.5 57t52.5 25
q25 0 42.5 -19t17.5 -46q0 -34 -23 -59.5t-53 -25.5q-25 0 -42 19.5z" />
    <glyph glyph-name="Yacute" unicode="&#xdd;" horiz-adv-x="498" 
d="M543 700q-76 -57 -135 -184l-79 -172l-17 -160q-7 -62 -7 -100q0 -39 7.5 -54.5t26.5 -29.5h-238q20 14 30.5 27.5t18.5 49t16 107.5l14 132l-48 200q-29 131 -84 184h232q-15 -15 -15 -46q0 -17 4 -43t10 -55q6 -33 7 -40l26 -143l63 143l10 23q27 62 36.5 88.5
t9.5 45.5q0 17 -9 27h121zM237 758l127 173q18 -6 43 -37t25 -51l-194 -87z" />
    <glyph glyph-name="Thorn" unicode="&#xde;" horiz-adv-x="497" 
d="M411 197q-76 -63 -204 -64q-2 -36 -2 -47q0 -40 7.5 -56t26.5 -30h-239q20 14 30.5 27.5t18.5 49t16 107.5l35 332q7 62 7 100q0 39 -7.5 54.5t-26.5 29.5h239q-18 -12 -27.5 -23t-17 -36t-14.5 -74q117 -1 175.5 -51.5t58.5 -144.5q0 -111 -76 -174zM212 184l-3 -34
q66 2 97 78t31 172q0 78 -21.5 113.5t-64.5 36.5l-4 -34z" />
    <glyph glyph-name="germandbls" unicode="&#xdf;" horiz-adv-x="515" 
d="M256.5 0q-22.5 10 -30.5 24l10 116q6 -50 29 -91.5t54 -41.5q15 0 25 10t10 30t-9.5 47.5t-31.5 78.5l-37 87q-22 50 -22 85q0 33 13 55.5t38 49.5q25 28 37.5 50t12.5 54q0 48 -28.5 78t-66.5 30q-29 0 -47.5 -19.5t-18.5 -51.5q0 -20 12 -52q10 -32 9 -44l-42 -395
q-2 -24 -2 -32q0 -24 6 -39t21 -29h-196q33 39 39 100l36 346h-35q58 107 109 166t98.5 81t102.5 22q66 0 99.5 -28t33.5 -79q0 -41 -17.5 -62t-50.5 -40q-23 -13 -35 -25t-12 -32q0 -27 27 -93l36 -86q8 -18 10 -22q21 -50 30.5 -78.5t9.5 -54.5q0 -37 -23.5 -65.5
t-62.5 -44t-82 -15.5q-36 0 -58.5 10z" />
    <glyph glyph-name="agrave" unicode="&#xe0;" 
d="M381 85q0 -31 5.5 -45.5t14.5 -24.5l-165 -26l26 243q-9 -51 -30.5 -107t-54 -95.5t-71.5 -39.5q-40 0 -66 43.5t-26 122.5q0 86 33.5 168t95.5 134t144 52q29 0 69 -5t65 -14l-38 -366q-2 -16 -2 -40zM228.5 172q22.5 58 37.5 135t15 122q0 60 -30 60q-27 0 -50 -44
t-36 -110t-13 -127q0 -94 31 -94q23 0 45.5 58zM179 643q4 20 35.5 51t51.5 37l91 -173l-2 -2z" />
    <glyph glyph-name="aacute" unicode="&#xe1;" 
d="M381 85q0 -31 5.5 -45.5t14.5 -24.5l-165 -26l26 243q-9 -51 -30.5 -107t-54 -95.5t-71.5 -39.5q-40 0 -66 43.5t-26 122.5q0 86 33.5 168t95.5 134t144 52q29 0 69 -5t65 -14l-38 -366q-2 -16 -2 -40zM228.5 172q22.5 58 37.5 135t15 122q0 60 -30 60q-27 0 -50 -44
t-36 -110t-13 -127q0 -94 31 -94q23 0 45.5 58zM197 558l127 173q18 -6 43 -37t25 -51l-194 -87z" />
    <glyph glyph-name="acircumflex" unicode="&#xe2;" 
d="M381 85q0 -31 5.5 -45.5t14.5 -24.5l-165 -26l26 243q-9 -51 -30.5 -107t-54 -95.5t-71.5 -39.5q-40 0 -66 43.5t-26 122.5q0 86 33.5 168t95.5 134t144 52q29 0 69 -5t65 -14l-38 -366q-2 -16 -2 -40zM228.5 172q22.5 58 37.5 135t15 122q0 60 -30 60q-27 0 -50 -44
t-36 -110t-13 -127q0 -94 31 -94q23 0 45.5 58zM140 558l141 173l104 -173l-2 -2l-115 59l-126 -59z" />
    <glyph glyph-name="atilde" unicode="&#xe3;" 
d="M381 85q0 -31 5.5 -45.5t14.5 -24.5l-165 -26l26 243q-9 -51 -30.5 -107t-54 -95.5t-71.5 -39.5q-40 0 -66 43.5t-26 122.5q0 86 33.5 168t95.5 134t144 52q29 0 69 -5t65 -14l-38 -366q-2 -16 -2 -40zM228.5 172q22.5 58 37.5 135t15 122q0 60 -30 60q-27 0 -50 -44
t-36 -110t-13 -127q0 -94 31 -94q23 0 45.5 58zM161 679.5q39 51.5 78 51.5q12 0 25 -6t32 -17q22 -14 39 -21.5t35 -7.5q27 0 45 16.5t28 35.5h6q-28 -61 -65 -111.5t-75 -50.5q-12 0 -25.5 6t-31.5 18q-26 15 -41 21.5t-33 6.5q-28 0 -47.5 -17t-27.5 -35h-6
q25 59 64 110.5z" />
    <glyph glyph-name="adieresis" unicode="&#xe4;" 
d="M381 85q0 -31 5.5 -45.5t14.5 -24.5l-165 -26l26 243q-9 -51 -30.5 -107t-54 -95.5t-71.5 -39.5q-40 0 -66 43.5t-26 122.5q0 86 33.5 168t95.5 134t144 52q29 0 69 -5t65 -14l-38 -366q-2 -16 -2 -40zM228.5 172q22.5 58 37.5 135t15 122q0 60 -30 60q-27 0 -50 -44
t-36 -110t-13 -127q0 -94 31 -94q23 0 45.5 58zM133 589.5q-17 19.5 -17 48.5q0 32 22 57t52 25q26 0 43.5 -19t17.5 -46q0 -34 -23 -59.5t-53 -25.5q-25 0 -42 19.5zM310 589.5q-17 19.5 -17 48.5q0 32 22.5 57t52.5 25q25 0 42.5 -19t17.5 -46q0 -34 -23 -59.5t-53 -25.5
q-25 0 -42 19.5z" />
    <glyph glyph-name="aring" unicode="&#xe5;" 
d="M381 85q0 -31 5.5 -45.5t14.5 -24.5l-165 -26l26 243q-9 -51 -30.5 -107t-54 -95.5t-71.5 -39.5q-40 0 -66 43.5t-26 122.5q0 86 33.5 168t95.5 134t144 52q29 0 69 -5t65 -14l-38 -366q-2 -16 -2 -40zM228.5 172q22.5 58 37.5 135t15 122q0 60 -30 60q-27 0 -50 -44
t-36 -110t-13 -127q0 -94 31 -94q23 0 45.5 58zM218.5 583.5q-17.5 20.5 -17.5 50.5q0 34 23.5 60t54.5 26q27 0 45 -20t18 -48q0 -36 -23.5 -62.5t-55.5 -26.5q-27 0 -44.5 20.5zM308 599q19 22 19 51q0 24 -13.5 40t-35.5 16q-26 0 -44.5 -21.5t-18.5 -51.5
q0 -24 13.5 -40t35.5 -16q25 0 44 22z" />
    <glyph glyph-name="ae" unicode="&#xe6;" horiz-adv-x="621" 
d="M585 108q-15 -47 -54.5 -82.5t-94.5 -35.5q-50 0 -90 29.5t-62 82t-22 117.5v17q-8 -50 -29.5 -107.5t-54 -98t-72.5 -40.5t-66 43.5t-26 122.5q0 86 33.5 168t95.5 134t144 52q30 0 59.5 -7.5t48.5 -18.5q43 26 95 26q50 0 77.5 -23.5t27.5 -69.5q0 -47 -36.5 -84
t-131.5 -77q-16 -7 -22 -17t-6 -29q0 -50 34 -87.5t90 -37.5q43 0 62 23zM228.5 172q22.5 58 37.5 135t15 123q0 59 -30 59q-27 0 -50 -44t-36 -110t-13 -127q0 -94 31 -94q23 0 45.5 58zM430.5 464q-16.5 -23 -26.5 -58.5t-10 -72.5q0 -26 6 -40t22 -14q18 0 34 22t26 58
t10 73q0 55 -27 55q-18 0 -34.5 -23z" />
    <glyph glyph-name="ccedilla" unicode="&#xe7;" horiz-adv-x="365" 
d="M329 108q-17 -45 -52.5 -78t-85.5 -39q-14 -18 -14 -32q0 -17 10.5 -30.5t28.5 -28.5q17 -15 17 -20q0 -20 -25.5 -43.5t-58.5 -41t-51 -17.5q-11 0 -17.5 7.5t-6.5 17.5q0 18 27 18q8 0 22 -2l21 -1q21 0 21 13q0 10 -8.5 20t-24.5 24q-13 12 -19.5 19.5t-6.5 14.5
q0 10 16 28t51 53q-71 0 -113 58t-42 148q0 82 33.5 154.5t92 116t130.5 43.5q51 0 76 -16l-29 -205h-1q-22 109 -38 154t-44 45q-22 0 -42 -26t-32.5 -71t-12.5 -100q0 -83 29.5 -144.5t92.5 -61.5q37 0 56 23z" />
    <glyph glyph-name="egrave" unicode="&#xe8;" horiz-adv-x="379" 
d="M103.5 19.5q-39.5 29.5 -61.5 82t-22 117.5q0 75 29 142t81 108t118 41q50 0 77.5 -23.5t27.5 -69.5q0 -47 -36.5 -84t-131.5 -77q-16 -7 -22 -17t-6 -29q0 -50 34 -87.5t90 -37.5q43 0 62 23q-16 -48 -55.5 -83t-93.5 -35q-51 0 -90.5 29.5zM214 301q16 22 26 58t10 73
q0 26 -6.5 40.5t-21.5 14.5q-18 0 -34 -23t-26 -58.5t-10 -72.5q0 -26 6 -40t22 -14q18 0 34 22zM149 643q4 20 35.5 51t51.5 37l91 -173l-2 -2z" />
    <glyph glyph-name="eacute" unicode="&#xe9;" horiz-adv-x="379" 
d="M103.5 19.5q-39.5 29.5 -61.5 82t-22 117.5q0 75 29 142t81 108t118 41q50 0 77.5 -23.5t27.5 -69.5q0 -47 -36.5 -84t-131.5 -77q-16 -7 -22 -17t-6 -29q0 -50 34 -87.5t90 -37.5q43 0 62 23q-16 -48 -55.5 -83t-93.5 -35q-51 0 -90.5 29.5zM214 301q16 22 26 58t10 73
q0 26 -6.5 40.5t-21.5 14.5q-18 0 -34 -23t-26 -58.5t-10 -72.5q0 -26 6 -40t22 -14q18 0 34 22zM167 558l127 173q18 -6 43 -37t25 -51l-194 -87z" />
    <glyph glyph-name="ecircumflex" unicode="&#xea;" horiz-adv-x="379" 
d="M103.5 19.5q-39.5 29.5 -61.5 82t-22 117.5q0 75 29 142t81 108t118 41q50 0 77.5 -23.5t27.5 -69.5q0 -47 -36.5 -84t-131.5 -77q-16 -7 -22 -17t-6 -29q0 -50 34 -87.5t90 -37.5q43 0 62 23q-16 -48 -55.5 -83t-93.5 -35q-51 0 -90.5 29.5zM214 301q16 22 26 58t10 73
q0 26 -6.5 40.5t-21.5 14.5q-18 0 -34 -23t-26 -58.5t-10 -72.5q0 -26 6 -40t22 -14q18 0 34 22zM110 558l141 173l104 -173l-2 -2l-115 59l-126 -59z" />
    <glyph glyph-name="edieresis" unicode="&#xeb;" horiz-adv-x="379" 
d="M103.5 19.5q-39.5 29.5 -61.5 82t-22 117.5q0 75 29 142t81 108t118 41q50 0 77.5 -23.5t27.5 -69.5q0 -47 -36.5 -84t-131.5 -77q-16 -7 -22 -17t-6 -29q0 -50 34 -87.5t90 -37.5q43 0 62 23q-16 -48 -55.5 -83t-93.5 -35q-51 0 -90.5 29.5zM214 301q16 22 26 58t10 73
q0 26 -6.5 40.5t-21.5 14.5q-18 0 -34 -23t-26 -58.5t-10 -72.5q0 -26 6 -40t22 -14q18 0 34 22zM103 589.5q-17 19.5 -17 48.5q0 32 22 57t52 25q26 0 43.5 -19t17.5 -46q0 -34 -23 -59.5t-53 -25.5q-25 0 -42 19.5zM280 589.5q-17 19.5 -17 48.5q0 32 22.5 57t52.5 25
q25 0 42.5 -19t17.5 -46q0 -34 -23 -59.5t-53 -25.5q-25 0 -42 19.5z" />
    <glyph glyph-name="igrave" unicode="&#xec;" horiz-adv-x="233" 
d="M5.5 12.5q9.5 10.5 17.5 33.5t11 54l28 261q2 15 2 40q0 50 -19 80l165 29l-43 -410q-2 -22 -2 -30q0 -29 5.5 -42.5t15.5 -27.5h-191q1 2 10.5 12.5zM66 643q4 20 35.5 51t51.5 37l91 -173l-2 -2z" />
    <glyph glyph-name="iacute" unicode="&#xed;" horiz-adv-x="233" 
d="M5.5 12.5q9.5 10.5 17.5 33.5t11 54l28 261q2 15 2 40q0 50 -19 80l165 29l-43 -410q-2 -22 -2 -30q0 -29 5.5 -42.5t15.5 -27.5h-191q1 2 10.5 12.5zM84 558l127 173q18 -6 43 -37t25 -51l-194 -87z" />
    <glyph glyph-name="icircumflex" unicode="&#xee;" horiz-adv-x="233" 
d="M5.5 12.5q9.5 10.5 17.5 33.5t11 54l28 261q2 15 2 40q0 50 -19 80l165 29l-43 -410q-2 -22 -2 -30q0 -29 5.5 -42.5t15.5 -27.5h-191q1 2 10.5 12.5zM27 558l141 173l104 -173l-2 -2l-115 59l-126 -59z" />
    <glyph glyph-name="idieresis" unicode="&#xef;" horiz-adv-x="233" 
d="M5.5 12.5q9.5 10.5 17.5 33.5t11 54l28 261q2 15 2 40q0 50 -19 80l165 29l-43 -410q-2 -22 -2 -30q0 -29 5.5 -42.5t15.5 -27.5h-191q1 2 10.5 12.5zM20 589.5q-17 19.5 -17 48.5q0 32 22 57t52 25q26 0 43.5 -19t17.5 -46q0 -34 -23 -59.5t-53 -25.5q-25 0 -42 19.5z
M197 589.5q-17 19.5 -17 48.5q0 32 22.5 57t52.5 25q25 0 42.5 -19t17.5 -46q0 -34 -23 -59.5t-53 -25.5q-25 0 -42 19.5z" />
    <glyph glyph-name="eth" unicode="&#xf0;" horiz-adv-x="451" 
d="M364 620q31 -46 48 -109t17 -138q0 -97 -28 -185t-82.5 -143t-129.5 -55q-78 0 -124.5 56.5t-46.5 152.5q0 63 20.5 121t58 94.5t86.5 36.5q32 0 58.5 -17.5t40.5 -55.5q-6 2 -17 2q-38 0 -64.5 -40t-40 -102t-13.5 -126q0 -100 34 -100q29 0 53 73t38 176t14 184
q0 69 -10 119l-67 -42l-9 15l71 45q-14 56 -44.5 87t-78.5 31q25 10 62 10q84 0 144 -76l68 43l8 -15z" />
    <glyph glyph-name="ntilde" unicode="&#xf1;" horiz-adv-x="465" 
d="M394 100q-2 -24 -2 -32q0 -25 5 -38.5t10 -20.5t6 -9h-191q1 2 10.5 12.5t17.5 33.5t11 54l22 205q6 56 6 82q0 32 -10 32t-33.5 -42t-46 -113.5t-32.5 -159.5v-4q-5 -49 -5 -77l1 -23h-168q1 2 10.5 12.5t17.5 33.5t11 54l28 261q2 15 2 40q0 50 -19 80l165 29l-23 -221
q20 67 53 117t71 77t75 27q46 0 46 -50q0 -10 -1 -16zM176 679.5q39 51.5 78 51.5q12 0 25 -6t32 -17q22 -14 39 -21.5t35 -7.5q27 0 45 16.5t28 35.5h6q-28 -61 -65 -111.5t-75 -50.5q-12 0 -25.5 6t-31.5 18q-26 15 -41 21.5t-33 6.5q-28 0 -47.5 -17t-27.5 -35h-6
q25 59 64 110.5z" />
    <glyph glyph-name="ograve" unicode="&#xf2;" horiz-adv-x="424" 
d="M54 43q-38 53 -38 140q0 83 31.5 158.5t87.5 122t126 46.5q72 0 109.5 -52.5t37.5 -139.5q0 -83 -31.5 -158.5t-87.5 -122.5t-125 -47q-72 0 -110 53zM252.5 100.5q14.5 84.5 14.5 197.5q0 85 -11.5 135.5t-36.5 50.5q-33 0 -47.5 -85t-14.5 -198q0 -185 49 -185
q32 0 46.5 84.5zM170 643q4 20 35.5 51t51.5 37l91 -173l-2 -2z" />
    <glyph glyph-name="oacute" unicode="&#xf3;" horiz-adv-x="424" 
d="M54 43q-38 53 -38 140q0 83 31.5 158.5t87.5 122t126 46.5q72 0 109.5 -52.5t37.5 -139.5q0 -83 -31.5 -158.5t-87.5 -122.5t-125 -47q-72 0 -110 53zM252.5 100.5q14.5 84.5 14.5 197.5q0 85 -11.5 135.5t-36.5 50.5q-33 0 -47.5 -85t-14.5 -198q0 -185 49 -185
q32 0 46.5 84.5zM189 558l127 173q18 -6 43 -37t25 -51l-194 -87z" />
    <glyph glyph-name="ocircumflex" unicode="&#xf4;" horiz-adv-x="424" 
d="M54 43q-38 53 -38 140q0 83 31.5 158.5t87.5 122t126 46.5q72 0 109.5 -52.5t37.5 -139.5q0 -83 -31.5 -158.5t-87.5 -122.5t-125 -47q-72 0 -110 53zM252.5 100.5q14.5 84.5 14.5 197.5q0 85 -11.5 135.5t-36.5 50.5q-33 0 -47.5 -85t-14.5 -198q0 -185 49 -185
q32 0 46.5 84.5zM132 558l141 173l104 -173l-2 -2l-115 59l-126 -59z" />
    <glyph glyph-name="otilde" unicode="&#xf5;" horiz-adv-x="424" 
d="M54 43q-38 53 -38 140q0 83 31.5 158.5t87.5 122t126 46.5q72 0 109.5 -52.5t37.5 -139.5q0 -83 -31.5 -158.5t-87.5 -122.5t-125 -47q-72 0 -110 53zM252.5 100.5q14.5 84.5 14.5 197.5q0 85 -11.5 135.5t-36.5 50.5q-33 0 -47.5 -85t-14.5 -198q0 -185 49 -185
q32 0 46.5 84.5zM152 679.5q39 51.5 78 51.5q12 0 25 -6t32 -17q22 -14 39 -21.5t35 -7.5q27 0 45 16.5t28 35.5h6q-28 -61 -65 -111.5t-75 -50.5q-12 0 -25.5 6t-31.5 18q-26 15 -41 21.5t-33 6.5q-28 0 -47.5 -17t-27.5 -35h-6q25 59 64 110.5z" />
    <glyph glyph-name="odieresis" unicode="&#xf6;" horiz-adv-x="424" 
d="M54 43q-38 53 -38 140q0 83 31.5 158.5t87.5 122t126 46.5q72 0 109.5 -52.5t37.5 -139.5q0 -83 -31.5 -158.5t-87.5 -122.5t-125 -47q-72 0 -110 53zM252.5 100.5q14.5 84.5 14.5 197.5q0 85 -11.5 135.5t-36.5 50.5q-33 0 -47.5 -85t-14.5 -198q0 -185 49 -185
q32 0 46.5 84.5zM124 589.5q-17 19.5 -17 48.5q0 32 22 57t52 25q26 0 43.5 -19t17.5 -46q0 -34 -23 -59.5t-53 -25.5q-25 0 -42 19.5zM301 589.5q-17 19.5 -17 48.5q0 32 22.5 57t52.5 25q25 0 42.5 -19t17.5 -46q0 -34 -23 -59.5t-53 -25.5q-25 0 -42 19.5z" />
    <glyph glyph-name="divide" unicode="&#xf7;" horiz-adv-x="280" 
d="M143.5 397.5q-5.5 5.5 -5.5 12.5q0 8 6.5 14.5t15.5 6.5q7 0 12 -5t5 -12q0 -9 -6.5 -15.5t-14.5 -6.5q-7 0 -12.5 5.5zM32 314h230l-2 -21h-230zM120.5 182q-5.5 5 -5.5 12q0 9 6.5 15.5t15.5 6.5q7 0 12 -5.5t5 -12.5q0 -8 -6.5 -14.5t-14.5 -6.5q-7 0 -12.5 5z" />
    <glyph glyph-name="oslash" unicode="&#xf8;" horiz-adv-x="426" 
d="M381 440.5q27 -49.5 27 -122.5q0 -83 -31.5 -158.5t-87.5 -122.5t-125 -47h-4l-25 -89h-27l25 92q-57 11 -87 62t-30 128q0 83 31.5 158.5t87.5 122t126 46.5q11 0 16 -1l23 85h27l-25 -89q52 -15 79 -64.5zM163 98l93 336q-13 50 -37 50q-33 0 -47.5 -85t-14.5 -198
q0 -58 6 -103zM252.5 100.5q14.5 84.5 14.5 197.5q0 27 -2 71l-90 -323q13 -30 31 -30q32 0 46.5 84.5z" />
    <glyph glyph-name="ugrave" unicode="&#xf9;" horiz-adv-x="464" 
d="M27 40q0 10 1 16l36 329q1 8 1 22q0 27 -6.5 45.5t-13.5 28.5l165 29l-34 -315q-6 -55 -6 -81q0 -32 10 -32q9 0 36.5 48.5t50.5 118.5t24 138q0 36 -6 60t-13 34l165 29l-42 -391q-1 -9 -1 -25q0 -47 20 -75l-165 -29l24 223q-20 -68 -53 -118.5t-71 -77.5t-75 -27
q-47 0 -47 50zM168 643q4 20 35.5 51t51.5 37l91 -173l-2 -2z" />
    <glyph glyph-name="uacute" unicode="&#xfa;" horiz-adv-x="464" 
d="M27 40q0 10 1 16l36 329q1 8 1 22q0 27 -6.5 45.5t-13.5 28.5l165 29l-34 -315q-6 -55 -6 -81q0 -32 10 -32q9 0 36.5 48.5t50.5 118.5t24 138q0 36 -6 60t-13 34l165 29l-42 -391q-1 -9 -1 -25q0 -47 20 -75l-165 -29l24 223q-20 -68 -53 -118.5t-71 -77.5t-75 -27
q-47 0 -47 50zM186 558l127 173q18 -6 43 -37t25 -51l-194 -87z" />
    <glyph glyph-name="ucircumflex" unicode="&#xfb;" horiz-adv-x="464" 
d="M27 40q0 10 1 16l36 329q1 8 1 22q0 27 -6.5 45.5t-13.5 28.5l165 29l-34 -315q-6 -55 -6 -81q0 -32 10 -32q9 0 36.5 48.5t50.5 118.5t24 138q0 36 -6 60t-13 34l165 29l-42 -391q-1 -9 -1 -25q0 -47 20 -75l-165 -29l24 223q-20 -68 -53 -118.5t-71 -77.5t-75 -27
q-47 0 -47 50zM129 558l141 173l104 -173l-2 -2l-115 59l-126 -59z" />
    <glyph glyph-name="udieresis" unicode="&#xfc;" horiz-adv-x="464" 
d="M27 40q0 10 1 16l36 329q1 8 1 22q0 27 -6.5 45.5t-13.5 28.5l165 29l-34 -315q-6 -55 -6 -81q0 -32 10 -32q9 0 36.5 48.5t50.5 118.5t24 138q0 36 -6 60t-13 34l165 29l-42 -391q-1 -9 -1 -25q0 -47 20 -75l-165 -29l24 223q-20 -68 -53 -118.5t-71 -77.5t-75 -27
q-47 0 -47 50zM122 589.5q-17 19.5 -17 48.5q0 32 22 57t52 25q26 0 43.5 -19t17.5 -46q0 -34 -23 -59.5t-53 -25.5q-25 0 -42 19.5zM299 589.5q-17 19.5 -17 48.5q0 32 22.5 57t52.5 25q25 0 42.5 -19t17.5 -46q0 -34 -23 -59.5t-53 -25.5q-25 0 -42 19.5z" />
    <glyph glyph-name="yacute" unicode="&#xfd;" horiz-adv-x="404" 
d="M393 463q0 -75 -63 -207t-151 -273q-45 -69 -89.5 -114.5t-92.5 -45.5q-16 0 -28 5.5t-14 10.5l32 109q25 -10 64 -10q52 0 82 20.5t30 61.5q0 17 -4 33l-68 286q-19 83 -32 115.5t-34 45.5h201q-17 -17 -17 -57q0 -38 14 -104l38 -181q29 39 42.5 78.5t13.5 76.5
q0 46 -19.5 75.5t-50.5 29.5l130 97q16 -17 16 -52zM136 558l127 173q18 -6 43 -37t25 -51l-194 -87z" />
    <glyph glyph-name="thorn" unicode="&#xfe;" 
d="M15 -91l71 676q3 27 3 47q0 31 -5.5 45.5t-14.5 24.5l165 30l-49 -465q8 50 29.5 106.5t54.5 96.5t72 40q40 0 66 -43t26 -123q0 -87 -33.5 -168.5t-96.5 -133.5t-147 -52l-5 -47q-1 -9 -1 -25q0 -45 19 -75l-195 -34q35 38 41 100zM246 55q23 44 36 110t13 128
q0 44 -8 68.5t-23 24.5q-24 0 -46.5 -58t-37 -134.5t-14.5 -122.5q0 -31 7 -45.5t22 -14.5q28 0 51 44z" />
    <glyph glyph-name="ydieresis" unicode="&#xff;" horiz-adv-x="404" 
d="M393 463q0 -75 -63 -207t-151 -273q-45 -69 -89.5 -114.5t-92.5 -45.5q-16 0 -28 5.5t-14 10.5l32 109q25 -10 64 -10q52 0 82 20.5t30 61.5q0 17 -4 33l-68 286q-19 83 -32 115.5t-34 45.5h201q-17 -17 -17 -57q0 -38 14 -104l38 -181q29 39 42.5 78.5t13.5 76.5
q0 46 -19.5 75.5t-50.5 29.5l130 97q16 -17 16 -52zM71 589.5q-17 19.5 -17 48.5q0 32 22 57t52 25q26 0 43.5 -19t17.5 -46q0 -34 -23 -59.5t-53 -25.5q-25 0 -42 19.5zM248 589.5q-17 19.5 -17 48.5q0 32 22.5 57t52.5 25q25 0 42.5 -19t17.5 -46q0 -34 -23 -59.5
t-53 -25.5q-25 0 -42 19.5z" />
    <glyph glyph-name="Amacron" unicode="&#x100;" horiz-adv-x="500" 
d="M271 56q0 30 -15 113h-146q-31 -86 -31 -126q0 -27 13 -43h-117q27 22 53.5 65t57.5 119l212 532l110 -532q17 -81 31.5 -122.5t33.5 -61.5h-221q19 19 19 56zM208 439l-89 -245h132zM185 889h295l-40 -89h-293z" />
    <glyph glyph-name="amacron" unicode="&#x101;" 
d="M381 85q0 -31 5.5 -45.5t14.5 -24.5l-165 -26l26 243q-9 -51 -30.5 -107t-54 -95.5t-71.5 -39.5q-40 0 -66 43.5t-26 122.5q0 86 33.5 168t95.5 134t144 52q29 0 69 -5t65 -14l-38 -366q-2 -16 -2 -40zM228.5 172q22.5 58 37.5 135t15 122q0 60 -30 60q-27 0 -50 -44
t-36 -110t-13 -127q0 -94 31 -94q23 0 45.5 58zM144 689h295l-40 -89h-293z" />
    <glyph glyph-name="Abreve" unicode="&#x102;" horiz-adv-x="500" 
d="M271 56q0 30 -15 113h-146q-31 -86 -31 -126q0 -27 13 -43h-117q27 22 53.5 65t57.5 119l212 532l110 -532q17 -81 31.5 -122.5t33.5 -61.5h-221q19 19 19 56zM208 439l-89 -245h132zM240 796q-24 26 -24 63l1 12q3 28 14 49h3q-3 -30 16 -51t63 -21q43 0 67 21.5
t27 50.5h3q5 -15 5 -34q0 -46 -31.5 -81t-79.5 -35q-40 0 -64 26z" />
    <glyph glyph-name="abreve" unicode="&#x103;" 
d="M381 85q0 -31 5.5 -45.5t14.5 -24.5l-165 -26l26 243q-9 -51 -30.5 -107t-54 -95.5t-71.5 -39.5q-40 0 -66 43.5t-26 122.5q0 86 33.5 168t95.5 134t144 52q29 0 69 -5t65 -14l-38 -366q-2 -16 -2 -40zM228.5 172q22.5 58 37.5 135t15 122q0 60 -30 60q-27 0 -50 -44
t-36 -110t-13 -127q0 -94 31 -94q23 0 45.5 58zM199 596q-24 26 -24 63l1 12q3 28 14 49h3q-3 -30 16 -51t63 -21q43 0 67 21.5t27 50.5h3q5 -15 5 -34q0 -46 -31.5 -81t-79.5 -35q-40 0 -64 26z" />
    <glyph glyph-name="Cacute" unicode="&#x106;" horiz-adv-x="474" 
d="M136.5 26.5q-45.5 36.5 -72 104t-26.5 156.5q0 108 38.5 205.5t110 157.5t164.5 60q59 0 113 -17q-1 -75 -6 -167l-4 -91h-3q-46 128 -80.5 187.5t-69.5 59.5q-36 0 -61 -47t-38 -116.5t-13 -137.5q0 -120 40.5 -202.5t122.5 -82.5q45 0 77 30q-10 -28 -38 -60t-68 -54
t-85 -22q-56 0 -101.5 36.5zM278 758l127 173q18 -6 43 -37t25 -51l-194 -87z" />
    <glyph glyph-name="cacute" unicode="&#x107;" horiz-adv-x="365" 
d="M60 48q-42 58 -42 148q0 82 33.5 154.5t92 116t130.5 43.5q51 0 76 -16l-29 -205h-1q-22 109 -38 154t-44 45q-22 0 -42 -26t-32.5 -71t-12.5 -100q0 -83 29.5 -144.5t92.5 -61.5q37 0 56 23q-19 -49 -59 -83.5t-97 -34.5q-71 0 -113 58zM177 558l127 173q18 -6 43 -37
t25 -51l-194 -87z" />
    <glyph glyph-name="Cdotaccent" unicode="&#x10a;" horiz-adv-x="474" 
d="M136.5 26.5q-45.5 36.5 -72 104t-26.5 156.5q0 108 38.5 205.5t110 157.5t164.5 60q59 0 113 -17q-1 -75 -6 -167l-4 -91h-3q-46 128 -80.5 187.5t-69.5 59.5q-36 0 -61 -47t-38 -116.5t-13 -137.5q0 -120 40.5 -202.5t122.5 -82.5q45 0 77 30q-10 -28 -38 -60t-68 -54
t-85 -22q-56 0 -101.5 36.5zM302.5 789.5q-16.5 19.5 -16.5 48.5q0 32 22 57t52 25q26 0 43 -19t17 -46q0 -34 -22.5 -59.5t-52.5 -25.5q-26 0 -42.5 19.5z" />
    <glyph glyph-name="cdotaccent" unicode="&#x10b;" horiz-adv-x="365" 
d="M60 48q-42 58 -42 148q0 82 33.5 154.5t92 116t130.5 43.5q51 0 76 -16l-29 -205h-1q-22 109 -38 154t-44 45q-22 0 -42 -26t-32.5 -71t-12.5 -100q0 -83 29.5 -144.5t92.5 -61.5q37 0 56 23q-19 -49 -59 -83.5t-97 -34.5q-71 0 -113 58zM201.5 589.5
q-16.5 19.5 -16.5 48.5q0 32 22 57t52 25q26 0 43 -19t17 -46q0 -34 -22.5 -59.5t-52.5 -25.5q-26 0 -42.5 19.5z" />
    <glyph glyph-name="Ccaron" unicode="&#x10c;" horiz-adv-x="474" 
d="M136.5 26.5q-45.5 36.5 -72 104t-26.5 156.5q0 108 38.5 205.5t110 157.5t164.5 60q59 0 113 -17q-1 -75 -6 -167l-4 -91h-3q-46 128 -80.5 187.5t-69.5 59.5q-36 0 -61 -47t-38 -116.5t-13 -137.5q0 -120 40.5 -202.5t122.5 -82.5q45 0 77 30q-10 -28 -38 -60t-68 -54
t-85 -22q-56 0 -101.5 36.5zM239 929l3 2l113 -59l127 59l1 -2l-140 -173z" />
    <glyph glyph-name="ccaron" unicode="&#x10d;" horiz-adv-x="365" 
d="M60 48q-42 58 -42 148q0 82 33.5 154.5t92 116t130.5 43.5q51 0 76 -16l-29 -205h-1q-22 109 -38 154t-44 45q-22 0 -42 -26t-32.5 -71t-12.5 -100q0 -83 29.5 -144.5t92.5 -61.5q37 0 56 23q-19 -49 -59 -83.5t-97 -34.5q-71 0 -113 58zM138 729l3 2l113 -59l127 59
l1 -2l-140 -173z" />
    <glyph glyph-name="Dcaron" unicode="&#x10e;" horiz-adv-x="544" 
d="M30.5 27.5q10.5 13.5 18.5 49t16 107.5l35 332q7 62 7 100q0 39 -7.5 54.5t-26.5 29.5h229q62 0 113 -31t81.5 -96t30.5 -161q0 -106 -36.5 -200.5t-105 -153t-161.5 -58.5h-224q20 14 30.5 27.5zM346 151.5q27 124.5 27 273.5q0 118 -18.5 183t-55.5 65q-14 0 -23 -11
t-14.5 -38t-11.5 -78l-40 -384q-3 -27 -3 -47q0 -88 51 -88q61 0 88 124.5zM221 929l3 2l113 -59l127 59l1 -2l-140 -173z" />
    <glyph glyph-name="dcaron" unicode="&#x10f;" 
d="M589.5 729q34.5 -20 41.5 -38l-146 -153l-2 1l53 208q19 2 53.5 -18zM383 125q-2 -16 -2 -40q0 -31 5.5 -45.5t14.5 -24.5l-165 -26l26 243q-9 -51 -30.5 -107t-54 -95.5t-71.5 -39.5q-40 0 -66 43.5t-26 122.5q0 86 33.5 168t95.5 134t144 52h5l6 60q3 27 3 48
q0 55 -19 82l165 32zM228.5 172q22.5 58 37.5 135t15 122q0 60 -30 60q-27 0 -50 -44t-36 -110t-13 -127q0 -94 31 -94q23 0 45.5 58z" />
    <glyph glyph-name="Dcroat" unicode="&#x110;" horiz-adv-x="543" 
d="M415 669q51 -31 81.5 -96t30.5 -161q0 -106 -36.5 -200.5t-105 -153t-161.5 -58.5h-224q20 14 30.5 27.5t18.5 49t16 107.5l16 154h-71v17h73l17 161q7 62 7 100q0 39 -7.5 54.5t-26.5 29.5h229q62 0 113 -31zM346 151.5q27 124.5 27 273.5q0 118 -18.5 183t-55.5 65
q-14 0 -23 -11t-14.5 -38t-11.5 -78l-19 -185l79 5l-10 -28h-72l-18 -176q-3 -27 -3 -47q0 -88 51 -88q61 0 88 124.5z" />
    <glyph glyph-name="dcroat" unicode="&#x111;" horiz-adv-x="477" 
d="M383 125q-2 -16 -2 -40q0 -31 5.5 -45.5t14.5 -24.5l-165 -26l26 243q-9 -51 -30.5 -107t-54 -95.5t-71.5 -39.5q-40 0 -66 43.5t-26 122.5q0 86 33.5 168t95.5 134t144 52h5l6 60l1 9h-112v17h113l1 23q0 33 -5.5 50.5t-13.5 30.5l165 32l-13 -128l43 3l-10 -28h-36z
M228.5 172q22.5 58 37.5 135t15 122q0 60 -30 60q-27 0 -50 -44t-36 -110t-13 -127q0 -94 31 -94q23 0 45.5 58z" />
    <glyph glyph-name="Emacron" unicode="&#x112;" horiz-adv-x="481" 
d="M343.5 78.5q52.5 52.5 113.5 179.5h3l-54 -258h-406q20 14 30.5 27.5t18.5 49t16 107.5l35 332q7 62 7 100q0 39 -7.5 54.5t-26.5 29.5h394l-9 -256h-3q-35 127 -68 178.5t-70 51.5q-34 0 -48 -36t-22 -121l-15 -144v-4q0 -13 10 -13q48 0 87.5 29t63.5 97h3l-28 -276h-3
q-10 69 -43.5 98t-81.5 29q-10 0 -14 -14l-14 -135q-6 -51 -6 -87q0 -37 10 -54t35 -17q40 0 92.5 52.5zM184 889h295l-40 -89h-293z" />
    <glyph glyph-name="emacron" unicode="&#x113;" horiz-adv-x="379" 
d="M103.5 19.5q-39.5 29.5 -61.5 82t-22 117.5q0 75 29 142t81 108t118 41q50 0 77.5 -23.5t27.5 -69.5q0 -47 -36.5 -84t-131.5 -77q-16 -7 -22 -17t-6 -29q0 -50 34 -87.5t90 -37.5q43 0 62 23q-16 -48 -55.5 -83t-93.5 -35q-51 0 -90.5 29.5zM214 301q16 22 26 58t10 73
q0 26 -6.5 40.5t-21.5 14.5q-18 0 -34 -23t-26 -58.5t-10 -72.5q0 -26 6 -40t22 -14q18 0 34 22zM114 689h295l-40 -89h-293z" />
    <glyph glyph-name="Edotaccent" unicode="&#x116;" horiz-adv-x="481" 
d="M343.5 78.5q52.5 52.5 113.5 179.5h3l-54 -258h-406q20 14 30.5 27.5t18.5 49t16 107.5l35 332q7 62 7 100q0 39 -7.5 54.5t-26.5 29.5h394l-9 -256h-3q-35 127 -68 178.5t-70 51.5q-34 0 -48 -36t-22 -121l-15 -144v-4q0 -13 10 -13q48 0 87.5 29t63.5 97h3l-28 -276h-3
q-10 69 -43.5 98t-81.5 29q-10 0 -14 -14l-14 -135q-6 -51 -6 -87q0 -37 10 -54t35 -17q40 0 92.5 52.5zM261.5 789.5q-16.5 19.5 -16.5 48.5q0 32 22 57t52 25q26 0 43 -19t17 -46q0 -34 -22.5 -59.5t-52.5 -25.5q-26 0 -42.5 19.5z" />
    <glyph glyph-name="edotaccent" unicode="&#x117;" horiz-adv-x="379" 
d="M103.5 19.5q-39.5 29.5 -61.5 82t-22 117.5q0 75 29 142t81 108t118 41q50 0 77.5 -23.5t27.5 -69.5q0 -47 -36.5 -84t-131.5 -77q-16 -7 -22 -17t-6 -29q0 -50 34 -87.5t90 -37.5q43 0 62 23q-16 -48 -55.5 -83t-93.5 -35q-51 0 -90.5 29.5zM214 301q16 22 26 58t10 73
q0 26 -6.5 40.5t-21.5 14.5q-18 0 -34 -23t-26 -58.5t-10 -72.5q0 -26 6 -40t22 -14q18 0 34 22zM191.5 589.5q-16.5 19.5 -16.5 48.5q0 32 22 57t52 25q26 0 43 -19t17 -46q0 -34 -22.5 -59.5t-52.5 -25.5q-26 0 -42.5 19.5z" />
    <glyph glyph-name="Ecaron" unicode="&#x11a;" horiz-adv-x="481" 
d="M343.5 78.5q52.5 52.5 113.5 179.5h3l-54 -258h-406q20 14 30.5 27.5t18.5 49t16 107.5l35 332q7 62 7 100q0 39 -7.5 54.5t-26.5 29.5h394l-9 -256h-3q-35 127 -68 178.5t-70 51.5q-34 0 -48 -36t-22 -121l-15 -144v-4q0 -13 10 -13q48 0 87.5 29t63.5 97h3l-28 -276h-3
q-10 69 -43.5 98t-81.5 29q-10 0 -14 -14l-14 -135q-6 -51 -6 -87q0 -37 10 -54t35 -17q40 0 92.5 52.5zM198 929l3 2l113 -59l127 59l1 -2l-140 -173z" />
    <glyph glyph-name="ecaron" unicode="&#x11b;" horiz-adv-x="379" 
d="M103.5 19.5q-39.5 29.5 -61.5 82t-22 117.5q0 75 29 142t81 108t118 41q50 0 77.5 -23.5t27.5 -69.5q0 -47 -36.5 -84t-131.5 -77q-16 -7 -22 -17t-6 -29q0 -50 34 -87.5t90 -37.5q43 0 62 23q-16 -48 -55.5 -83t-93.5 -35q-51 0 -90.5 29.5zM214 301q16 22 26 58t10 73
q0 26 -6.5 40.5t-21.5 14.5q-18 0 -34 -23t-26 -58.5t-10 -72.5q0 -26 6 -40t22 -14q18 0 34 22zM128 729l3 2l113 -59l127 59l1 -2l-140 -173z" />
    <glyph glyph-name="Gdotaccent" unicode="&#x120;" horiz-adv-x="520" 
d="M136.5 26.5q-45.5 36.5 -72 103.5t-26.5 155q0 108 40.5 206t114.5 158.5t169 60.5q58 0 112 -17l-7 -257h-3q-37 118 -77 181.5t-79 63.5q-38 0 -64 -57t-38.5 -142t-12.5 -170q0 -75 10.5 -142.5t29 -109.5t42.5 -42q13 0 19.5 10t10.5 35l9 63q11 81 11 120
q0 72 -30 105h220q-30 -29 -47 -76t-31 -149l-17 -128h-2q-20 23 -53 23q-15 0 -26.5 -3.5t-30.5 -10.5q-21 -9 -36.5 -13t-35.5 -4q-54 0 -99.5 36.5zM308.5 789.5q-16.5 19.5 -16.5 48.5q0 32 22 57t52 25q26 0 43 -19t17 -46q0 -34 -22.5 -59.5t-52.5 -25.5
q-26 0 -42.5 19.5z" />
    <glyph glyph-name="gdotaccent" unicode="&#x121;" horiz-adv-x="442" 
d="M47 -178.5q-27 4.5 -41 12.5l103 124q-3 -14 -3 -27q0 -34 15.5 -60t38.5 -26q62 0 82 196l19 190q-9 -50 -30 -106t-53.5 -95.5t-71.5 -39.5q-40 0 -66 43.5t-26 122.5q0 86 33.5 168t95.5 134t144 52q29 0 69 -5t65 -14l-40 -385q-10 -94 -51.5 -159t-102 -97.5
t-126.5 -32.5q-27 0 -54 4.5zM228.5 172q22.5 58 37.5 135t15 122q0 60 -30 60q-27 0 -50 -44t-36 -109.5t-13 -126.5q0 -95 31 -95q23 0 45.5 58zM194.5 589.5q-16.5 19.5 -16.5 48.5q0 32 22 57t52 25q26 0 43 -19t17 -46q0 -34 -22.5 -59.5t-52.5 -25.5q-26 0 -42.5 19.5
z" />
    <glyph glyph-name="uni0122" unicode="&#x122;" horiz-adv-x="520" 
d="M136.5 26.5q-45.5 36.5 -72 103.5t-26.5 155q0 108 40.5 206t114.5 158.5t169 60.5q58 0 112 -17l-7 -257h-3q-37 118 -77 181.5t-79 63.5q-38 0 -64 -57t-38.5 -142t-12.5 -170q0 -75 10.5 -142.5t29 -109.5t42.5 -42q13 0 19.5 10t10.5 35l9 63q11 81 11 120
q0 72 -30 105h220q-30 -29 -47 -76t-31 -149l-17 -128h-2q-20 23 -53 23q-15 0 -26.5 -3.5t-30.5 -10.5q-21 -9 -36.5 -13t-35.5 -4q-54 0 -99.5 36.5zM276 -66q17 -20 17 -53q0 -48 -35.5 -94.5t-83.5 -70.5l-1 2q29 31 37 85q-23 3 -37.5 22t-14.5 45q0 34 22.5 59
t52.5 25q26 0 43 -20z" />
    <glyph glyph-name="uni0123" unicode="&#x123;" horiz-adv-x="442" 
d="M182 572q-17 20 -17 53q0 48 35.5 94.5t83.5 70.5l1 -2q-29 -31 -37 -85q23 -3 37.5 -22t14.5 -45q0 -34 -22.5 -59t-52.5 -25q-26 0 -43 20zM47 -178.5q-27 4.5 -41 12.5l103 124q-3 -14 -3 -27q0 -34 15.5 -60t38.5 -26q62 0 82 196l19 190q-9 -50 -30 -106
t-53.5 -95.5t-71.5 -39.5q-40 0 -66 43.5t-26 122.5q0 86 33.5 168t95.5 134t144 52q29 0 69 -5t65 -14l-40 -385q-10 -94 -51.5 -159t-102 -97.5t-126.5 -32.5q-27 0 -54 4.5zM228.5 172q22.5 58 37.5 135t15 122q0 60 -30 60q-27 0 -50 -44t-36 -109.5t-13 -126.5
q0 -95 31 -95q23 0 45.5 58z" />
    <glyph glyph-name="Imacron" unicode="&#x12a;" horiz-adv-x="291" 
d="M30.5 27.5q10.5 13.5 18.5 49t16 107.5l35 332q7 62 7 100q0 39 -7.5 54.5t-26.5 29.5h239q-20 -14 -30.5 -27.5t-18.5 -49t-16 -107.5l-35 -332q-7 -62 -7 -100q0 -39 7.5 -54.5t26.5 -29.5h-239q20 14 30.5 27.5zM80 889h295l-40 -89h-293z" />
    <glyph glyph-name="imacron" unicode="&#x12b;" horiz-adv-x="233" 
d="M5.5 12.5q9.5 10.5 17.5 33.5t11 54l28 261q2 15 2 40q0 50 -19 80l165 29l-43 -410q-2 -22 -2 -30q0 -29 5.5 -42.5t15.5 -27.5h-191q1 2 10.5 12.5zM31 689h295l-40 -89h-293z" />
    <glyph glyph-name="Idotaccent" unicode="&#x130;" horiz-adv-x="291" 
d="M30.5 27.5q10.5 13.5 18.5 49t16 107.5l35 332q7 62 7 100q0 39 -7.5 54.5t-26.5 29.5h239q-20 -14 -30.5 -27.5t-18.5 -49t-16 -107.5l-35 -332q-7 -62 -7 -100q0 -39 7.5 -54.5t26.5 -29.5h-239q20 14 30.5 27.5zM158.5 789.5q-16.5 19.5 -16.5 48.5q0 32 22 57t52 25
q26 0 43 -19t17 -46q0 -34 -22.5 -59.5t-52.5 -25.5q-26 0 -42.5 19.5z" />
    <glyph glyph-name="dotlessi" unicode="&#x131;" horiz-adv-x="233" 
d="M5.5 12.5q9.5 10.5 17.5 33.5t11 54l28 261q2 15 2 40q0 50 -19 80l165 29l-43 -410q-2 -22 -2 -30q0 -29 5.5 -42.5t15.5 -27.5h-191q1 2 10.5 12.5z" />
    <glyph glyph-name="uni0136" unicode="&#x136;" horiz-adv-x="538" 
d="M205 84q0 -39 7.5 -54.5t26.5 -29.5h-239q20 14 30.5 27.5t18.5 49t16 107.5l35 332q7 62 7 100q0 39 -7.5 54.5t-26.5 29.5h239q-20 -14 -30.5 -27.5t-18.5 -49t-16 -107.5l-35 -332q-7 -62 -7 -100zM413 240q35 -118 56 -164.5t46 -75.5h-190q-2 19 -17.5 77t-33.5 123
l-42 147q169 212 169 299q0 37 -30 54h189q-43 -20 -95 -75t-121 -155zM279 -66q17 -20 17 -53q0 -48 -35.5 -94.5t-83.5 -70.5l-1 2q29 31 37 85q-23 3 -37.5 22t-14.5 45q0 34 22.5 59t52.5 25q26 0 43 -20z" />
    <glyph glyph-name="uni0137" unicode="&#x137;" horiz-adv-x="458" 
d="M167 100q-2 -22 -2 -30q0 -29 5.5 -42.5t15.5 -27.5h-191q1 2 10.5 12.5t17.5 33.5t11 54l50 470q3 27 3 48q0 55 -19 82l166 33l-52 -490q57 18 90.5 44t33.5 69q0 27 -13.5 45.5t-40.5 18.5q-6 0 -18 -2l132 97q20 -6 34 -28t14 -51q0 -44 -34.5 -85t-85.5 -71l63 -146
q29 -67 49.5 -95t39.5 -39h-165l-99 243zM263 -66q17 -20 17 -53q0 -48 -35.5 -94.5t-83.5 -70.5l-1 2q29 31 37 85q-23 3 -37.5 22t-14.5 45q0 34 22.5 59t52.5 25q26 0 43 -20z" />
    <glyph glyph-name="Lacute" unicode="&#x139;" horiz-adv-x="458" 
d="M30.5 27.5q10.5 13.5 18.5 49t16 107.5l35 332q7 62 7 100q0 39 -7.5 54.5t-26.5 29.5h239q-20 -14 -30.5 -27.5t-18.5 -49t-16 -107.5l-35 -332q-6 -52 -6 -88q0 -35 8.5 -52t29.5 -17q23 0 44.5 21t48 62.5t85.5 142.5l21 35h3l-70 -287l-376 -1q20 14 30.5 27.5z
M161 758l127 173q18 -6 43 -37t25 -51l-194 -87z" />
    <glyph glyph-name="lacute" unicode="&#x13a;" horiz-adv-x="233" 
d="M5.5 12.5q9.5 10.5 17.5 33.5t11 54l50 470q3 27 3 48q0 55 -19 82l166 33l-67 -633q-2 -22 -2 -30q0 -29 5.5 -42.5t15.5 -27.5h-191q1 2 10.5 12.5zM105 758l127 173q18 -6 43 -37t25 -51l-194 -87z" />
    <glyph glyph-name="uni013B" unicode="&#x13b;" horiz-adv-x="458" 
d="M30.5 27.5q10.5 13.5 18.5 49t16 107.5l35 332q7 62 7 100q0 39 -7.5 54.5t-26.5 29.5h239q-20 -14 -30.5 -27.5t-18.5 -49t-16 -107.5l-35 -332q-6 -52 -6 -88q0 -35 8.5 -52t29.5 -17q23 0 44.5 21t48 62.5t85.5 142.5l21 35h3l-70 -287l-376 -1q20 14 30.5 27.5z
M252 -66q17 -20 17 -53q0 -48 -35.5 -94.5t-83.5 -70.5l-1 2q29 31 37 85q-23 3 -37.5 22t-14.5 45q0 34 22.5 59t52.5 25q26 0 43 -20z" />
    <glyph glyph-name="uni013C" unicode="&#x13c;" horiz-adv-x="233" 
d="M5.5 12.5q9.5 10.5 17.5 33.5t11 54l50 470q3 27 3 48q0 55 -19 82l166 33l-67 -633q-2 -22 -2 -30q0 -29 5.5 -42.5t15.5 -27.5h-191q1 2 10.5 12.5zM126 -66q17 -20 17 -53q0 -48 -35.5 -94.5t-83.5 -70.5l-1 2q29 31 37 85q-23 3 -37.5 22t-14.5 45q0 34 22.5 59
t52.5 25q26 0 43 -20z" />
    <glyph glyph-name="Lslash" unicode="&#x141;" horiz-adv-x="458" 
d="M446 288l-70 -287l-376 -1q20 14 30.5 27.5t18.5 49t16 107.5l16 154h-62l2 17h62l17 161q7 62 7 100q0 39 -7.5 54.5t-26.5 29.5h239q-20 -14 -30.5 -27.5t-18.5 -49t-16 -107.5l-16 -155l91 5l-13 -28h-81l-16 -154q-6 -52 -6 -88q0 -35 8.5 -52t29.5 -17q23 0 44.5 21
t48 62.5t85.5 142.5l21 35h3z" />
    <glyph glyph-name="lslash" unicode="&#x142;" horiz-adv-x="240" 
d="M163 70q0 -29 5.5 -42.5t15.5 -27.5h-191q1 2 10.5 12.5t17.5 33.5t11 54l22 209l-23 -17l-10 15l36 27l25 236q3 27 3 48q0 55 -19 82l166 33l-31 -292l35 26l10 -15l-47 -35l-34 -317q-2 -22 -2 -30z" />
    <glyph glyph-name="Nacute" unicode="&#x143;" horiz-adv-x="504" 
d="M545 700q-28 -13 -41.5 -27t-23 -49t-17.5 -108l-27 -252q-8 -77 -12.5 -137.5t-8.5 -146.5h-5l-276 575l-39 -371q-6 -57 -6 -89t6 -49.5t16.5 -26.5t32.5 -19h-159q28 13 41.5 27t23 49t17.5 108l35 332q5 43 5 83q0 35 -6 53.5t-16.5 27.5t-31.5 20h204q1 -16 7 -32.5
t19 -44.5l12 -25l120 -277l20 195q6 57 6 90q0 32 -5.5 49t-15 26t-29.5 19h154zM253 758l127 173q18 -6 43 -37t25 -51l-194 -87z" />
    <glyph glyph-name="nacute" unicode="&#x144;" horiz-adv-x="465" 
d="M394 100q-2 -24 -2 -32q0 -25 5 -38.5t10 -20.5t6 -9h-191q1 2 10.5 12.5t17.5 33.5t11 54l22 205q6 56 6 82q0 32 -10 32t-33.5 -42t-46 -113.5t-32.5 -159.5v-4q-5 -49 -5 -77l1 -23h-168q1 2 10.5 12.5t17.5 33.5t11 54l28 261q2 15 2 40q0 50 -19 80l165 29l-23 -221
q20 67 53 117t71 77t75 27q46 0 46 -50q0 -10 -1 -16zM213 558l127 173q18 -6 43 -37t25 -51l-194 -87z" />
    <glyph glyph-name="uni0145" unicode="&#x145;" horiz-adv-x="504" 
d="M545 700q-28 -13 -41.5 -27t-23 -49t-17.5 -108l-27 -252q-8 -77 -12.5 -137.5t-8.5 -146.5h-5l-276 575l-39 -371q-6 -57 -6 -89t6 -49.5t16.5 -26.5t32.5 -19h-159q28 13 41.5 27t23 49t17.5 108l35 332q5 43 5 83q0 35 -6 53.5t-16.5 27.5t-31.5 20h204q1 -16 7 -32.5
t19 -44.5l12 -25l120 -277l20 195q6 57 6 90q0 32 -5.5 49t-15 26t-29.5 19h154zM273 -66q17 -20 17 -53q0 -48 -35.5 -94.5t-83.5 -70.5l-1 2q29 31 37 85q-23 3 -37.5 22t-14.5 45q0 34 22.5 59t52.5 25q26 0 43 -20z" />
    <glyph glyph-name="uni0146" unicode="&#x146;" horiz-adv-x="465" 
d="M394 100q-2 -24 -2 -32q0 -25 5 -38.5t10 -20.5t6 -9h-191q1 2 10.5 12.5t17.5 33.5t11 54l22 205q6 56 6 82q0 32 -10 32t-33.5 -42t-46 -113.5t-32.5 -159.5v-4q-5 -49 -5 -77l1 -23h-168q1 2 10.5 12.5t17.5 33.5t11 54l28 261q2 15 2 40q0 50 -19 80l165 29l-23 -221
q20 67 53 117t71 77t75 27q46 0 46 -50q0 -10 -1 -16zM247 -66q17 -20 17 -53q0 -48 -35.5 -94.5t-83.5 -70.5l-1 2q29 31 37 85q-23 3 -37.5 22t-14.5 45q0 34 22.5 59t52.5 25q26 0 43 -20z" />
    <glyph glyph-name="Ncaron" unicode="&#x147;" horiz-adv-x="504" 
d="M545 700q-28 -13 -41.5 -27t-23 -49t-17.5 -108l-27 -252q-8 -77 -12.5 -137.5t-8.5 -146.5h-5l-276 575l-39 -371q-6 -57 -6 -89t6 -49.5t16.5 -26.5t32.5 -19h-159q28 13 41.5 27t23 49t17.5 108l35 332q5 43 5 83q0 35 -6 53.5t-16.5 27.5t-31.5 20h204q1 -16 7 -32.5
t19 -44.5l12 -25l120 -277l20 195q6 57 6 90q0 32 -5.5 49t-15 26t-29.5 19h154zM213 929l3 2l113 -59l127 59l1 -2l-140 -173z" />
    <glyph glyph-name="ncaron" unicode="&#x148;" horiz-adv-x="465" 
d="M394 100q-2 -24 -2 -32q0 -25 5 -38.5t10 -20.5t6 -9h-191q1 2 10.5 12.5t17.5 33.5t11 54l22 205q6 56 6 82q0 32 -10 32t-33.5 -42t-46 -113.5t-32.5 -159.5v-4q-5 -49 -5 -77l1 -23h-168q1 2 10.5 12.5t17.5 33.5t11 54l28 261q2 15 2 40q0 50 -19 80l165 29l-23 -221
q20 67 53 117t71 77t75 27q46 0 46 -50q0 -10 -1 -16zM174 729l3 2l113 -59l127 59l1 -2l-140 -173z" />
    <glyph glyph-name="Omacron" unicode="&#x14c;" horiz-adv-x="535" 
d="M87.5 72.5q-49.5 82.5 -49.5 209.5q0 107 34.5 205.5t99 160.5t149.5 62q99 0 148.5 -82.5t49.5 -208.5q0 -107 -34.5 -206t-99 -161t-149.5 -62q-99 0 -148.5 82.5zM343.5 116.5q19.5 98.5 19.5 235.5q0 139 -21.5 234.5t-65.5 95.5t-63 -98t-19 -236q0 -140 21 -235
t65 -95t63.5 98.5zM203 889h295l-40 -89h-293z" />
    <glyph glyph-name="omacron" unicode="&#x14d;" horiz-adv-x="424" 
d="M54 43q-38 53 -38 140q0 83 31.5 158.5t87.5 122t126 46.5q72 0 109.5 -52.5t37.5 -139.5q0 -83 -31.5 -158.5t-87.5 -122.5t-125 -47q-72 0 -110 53zM252.5 100.5q14.5 84.5 14.5 197.5q0 85 -11.5 135.5t-36.5 50.5q-33 0 -47.5 -85t-14.5 -198q0 -185 49 -185
q32 0 46.5 84.5zM135 689h295l-40 -89h-293z" />
    <glyph glyph-name="Ohungarumlaut" unicode="&#x150;" horiz-adv-x="535" 
d="M87.5 72.5q-49.5 82.5 -49.5 209.5q0 107 34.5 205.5t99 160.5t149.5 62q99 0 148.5 -82.5t49.5 -208.5q0 -107 -34.5 -206t-99 -161t-149.5 -62q-99 0 -148.5 82.5zM343.5 116.5q19.5 98.5 19.5 235.5q0 139 -21.5 234.5t-65.5 95.5t-63 -98t-19 -236q0 -140 21 -235
t65 -95t63.5 98.5zM146 758l127 173q18 -6 43 -37t25 -51l-194 -87zM306 758l127 173q18 -6 43 -37t25 -51l-194 -87z" />
    <glyph glyph-name="ohungarumlaut" unicode="&#x151;" horiz-adv-x="424" 
d="M54 43q-38 53 -38 140q0 83 31.5 158.5t87.5 122t126 46.5q72 0 109.5 -52.5t37.5 -139.5q0 -83 -31.5 -158.5t-87.5 -122.5t-125 -47q-72 0 -110 53zM252.5 100.5q14.5 84.5 14.5 197.5q0 85 -11.5 135.5t-36.5 50.5q-33 0 -47.5 -85t-14.5 -198q0 -185 49 -185
q32 0 46.5 84.5zM79 558l127 173q18 -6 43 -37t25 -51l-194 -87zM239 558l127 173q18 -6 43 -37t25 -51l-194 -87z" />
    <glyph glyph-name="OE" unicode="&#x152;" horiz-adv-x="774" 
d="M636.5 78.5q52.5 52.5 113.5 179.5h3l-55 -258h-208q-38 0 -74.5 -2t-48.5 -3q-62 -5 -122 -5h1h-10q-99 0 -148.5 82.5t-49.5 209.5q0 107 34 205t98 160t149 63h2h1q58 0 120 -5q12 -1 48 -3t73 -2h197l-10 -256h-3q-35 127 -68.5 178.5t-69.5 51.5q-34 0 -48 -36
t-22 -121l-17 -161l2 13v-3q0 -8 7 -10q100 6 130 126h3v-48q14 23 22 48h3l-25 -238v-38h-3q0 2 -1 3v-3h-3q-3 21 -9 39q-34 84 -119 88q-9 -2 -11 -14l2 14l-16 -149q-6 -51 -6 -85q0 -37 10 -55t35 -18q41 0 93.5 52.5zM215 113q21 -95 65 -95t63.5 98.5t19.5 235.5
q0 139 -21.5 234.5t-65.5 95.5t-63 -98t-19 -236q0 -140 21 -235zM524 373v-4v4zM518 316v3v-3z" />
    <glyph glyph-name="oe" unicode="&#x153;" horiz-adv-x="642" 
d="M606 108q-15 -47 -54.5 -82.5t-94.5 -35.5q-42 0 -76.5 21t-58.5 58q-33 -37 -73 -58t-85 -21q-72 0 -110 53t-38 140q0 83 31.5 158.5t87.5 122t126 46.5q75 0 113 -58q60 58 137 58q50 0 77.5 -23.5t27.5 -69.5q0 -47 -36.5 -84t-131.5 -77q-16 -7 -22 -17t-6 -29
q0 -50 34 -87.5t90 -37.5q43 0 62 23zM451.5 464q-16.5 -23 -26.5 -58.5t-10 -72.5q0 -26 6 -40t22 -14q18 0 34 22t26 58t10 73q0 55 -27 55q-18 0 -34.5 -23zM252.5 100.5q14.5 84.5 14.5 197.5q0 85 -11.5 135.5t-36.5 50.5q-33 0 -47.5 -85t-14.5 -198q0 -185 49 -185
q32 0 46.5 84.5z" />
    <glyph glyph-name="Racute" unicode="&#x154;" horiz-adv-x="540" 
d="M471.5 89q28.5 -82 55.5 -88q-25 -6 -65 -6q-60 0 -96.5 37.5t-53 87t-30.5 121.5q-9 50 -16.5 72.5t-21.5 22.5l1 3q47 0 69.5 18t29.5 55t7 110q0 152 -49 152q-20 0 -32.5 -32.5t-22.5 -125.5l-35 -332q-7 -62 -7 -100q0 -39 7.5 -54.5t26.5 -29.5h-239
q20 14 30.5 27.5t18.5 49t16 107.5l35 332q7 62 7 100q0 39 -7.5 54.5t-26.5 29.5h259q72 0 118 -43.5t46 -118.5q0 -59 -28 -105.5t-76 -71.5q51 -190 79.5 -272zM260 758l127 173q18 -6 43 -37t25 -51l-194 -87z" />
    <glyph glyph-name="racute" unicode="&#x155;" horiz-adv-x="357" 
d="M354 492q11 -18 11 -45q0 -26 -11 -53t-28.5 -44.5t-35.5 -17.5q-11 0 -27 9q-22 12 -37 12q-16 0 -25.5 -13.5t-13.5 -45.5l-20 -194q-2 -22 -2 -30q0 -29 5.5 -42.5t15.5 -27.5h-191q1 2 10.5 12.5t17.5 33.5t11 54l28 261q2 15 2 40q0 50 -19 80l165 29l-13 -121v-4
q0 -9 7 -9q3 0 5.5 2.5t6.5 8.5q27 48 40 69.5t30 37.5t37 16t31 -18zM128 558l127 173q18 -6 43 -37t25 -51l-194 -87z" />
    <glyph glyph-name="uni0156" unicode="&#x156;" horiz-adv-x="540" 
d="M471.5 89q28.5 -82 55.5 -88q-25 -6 -65 -6q-60 0 -96.5 37.5t-53 87t-30.5 121.5q-9 50 -16.5 72.5t-21.5 22.5l1 3q47 0 69.5 18t29.5 55t7 110q0 152 -49 152q-20 0 -32.5 -32.5t-22.5 -125.5l-35 -332q-7 -62 -7 -100q0 -39 7.5 -54.5t26.5 -29.5h-239
q20 14 30.5 27.5t18.5 49t16 107.5l35 332q7 62 7 100q0 39 -7.5 54.5t-26.5 29.5h259q72 0 118 -43.5t46 -118.5q0 -59 -28 -105.5t-76 -71.5q51 -190 79.5 -272zM280 -66q17 -20 17 -53q0 -48 -35.5 -94.5t-83.5 -70.5l-1 2q29 31 37 85q-23 3 -37.5 22t-14.5 45
q0 34 22.5 59t52.5 25q26 0 43 -20z" />
    <glyph glyph-name="uni0157" unicode="&#x157;" horiz-adv-x="357" 
d="M354 492q11 -18 11 -45q0 -26 -11 -53t-28.5 -44.5t-35.5 -17.5q-11 0 -27 9q-22 12 -37 12q-16 0 -25.5 -13.5t-13.5 -45.5l-20 -194q-2 -22 -2 -30q0 -29 5.5 -42.5t15.5 -27.5h-191q1 2 10.5 12.5t17.5 33.5t11 54l28 261q2 15 2 40q0 50 -19 80l165 29l-13 -121v-4
q0 -9 7 -9q3 0 5.5 2.5t6.5 8.5q27 48 40 69.5t30 37.5t37 16t31 -18zM128 -66q17 -20 17 -53q0 -48 -35.5 -94.5t-83.5 -70.5l-1 2q29 31 37 85q-23 3 -37.5 22t-14.5 45q0 34 22.5 59t52.5 25q26 0 43 -20z" />
    <glyph glyph-name="Rcaron" unicode="&#x158;" horiz-adv-x="540" 
d="M471.5 89q28.5 -82 55.5 -88q-25 -6 -65 -6q-60 0 -96.5 37.5t-53 87t-30.5 121.5q-9 50 -16.5 72.5t-21.5 22.5l1 3q47 0 69.5 18t29.5 55t7 110q0 152 -49 152q-20 0 -32.5 -32.5t-22.5 -125.5l-35 -332q-7 -62 -7 -100q0 -39 7.5 -54.5t26.5 -29.5h-239
q20 14 30.5 27.5t18.5 49t16 107.5l35 332q7 62 7 100q0 39 -7.5 54.5t-26.5 29.5h259q72 0 118 -43.5t46 -118.5q0 -59 -28 -105.5t-76 -71.5q51 -190 79.5 -272zM221 929l3 2l113 -59l127 59l1 -2l-140 -173z" />
    <glyph glyph-name="rcaron" unicode="&#x159;" horiz-adv-x="357" 
d="M354 492q11 -18 11 -45q0 -26 -11 -53t-28.5 -44.5t-35.5 -17.5q-11 0 -27 9q-22 12 -37 12q-16 0 -25.5 -13.5t-13.5 -45.5l-20 -194q-2 -22 -2 -30q0 -29 5.5 -42.5t15.5 -27.5h-191q1 2 10.5 12.5t17.5 33.5t11 54l28 261q2 15 2 40q0 50 -19 80l165 29l-13 -121v-4
q0 -9 7 -9q3 0 5.5 2.5t6.5 8.5q27 48 40 69.5t30 37.5t37 16t31 -18zM89 729l3 2l113 -59l127 59l1 -2l-140 -173z" />
    <glyph glyph-name="Sacute" unicode="&#x15a;" horiz-adv-x="413" 
d="M89 -3.5q-38 6.5 -63 23.5l13 246h2q68 -252 152 -252q23 0 35.5 16.5t12.5 45.5q0 28 -13.5 64t-40.5 88l-62 121q-34 67 -48.5 104t-14.5 77q0 54 27 95t73.5 63t103.5 22q63 0 127 -33l-11 -240h-2q-20 46 -31 78q-35 88 -57.5 128.5t-51.5 40.5q-19 0 -30.5 -18.5
t-11.5 -46.5q0 -26 11 -56t32 -71l60 -116q5 -11 17 -33q32 -59 49.5 -103t17.5 -87q0 -79 -64 -121t-159 -42q-35 0 -73 6.5zM201 758l127 173q18 -6 43 -37t25 -51l-194 -87z" />
    <glyph glyph-name="sacute" unicode="&#x15b;" horiz-adv-x="343" 
d="M68.5 -0.5q-35.5 9.5 -58.5 21.5l53 206q2 -67 17 -116t36.5 -74.5t42.5 -25.5q12 0 20.5 10t8.5 30q0 40 -42 110l-56 92q-22 38 -33 64t-11 55q0 61 49 99.5t129 38.5q31 0 57.5 -6t43.5 -17l-62 -186q-2 85 -17.5 136.5t-46.5 51.5q-14 0 -24 -10.5t-10 -33.5
q0 -41 30 -91l60 -99q4 -8 21.5 -36.5t27 -54.5t9.5 -48q0 -58 -50 -92t-121 -34q-38 0 -73.5 9.5zM143 558l127 173q18 -6 43 -37t25 -51l-194 -87z" />
    <glyph glyph-name="Scedilla" unicode="&#x15e;" horiz-adv-x="413" 
d="M301 376q5 -11 17 -33q32 -59 49.5 -103t17.5 -87q0 -67 -47.5 -108t-123.5 -51q-16 -20 -16 -35q0 -17 10.5 -30.5t28.5 -28.5q17 -15 17 -20q0 -20 -25.5 -43.5t-58.5 -41t-51 -17.5q-11 0 -17.5 7.5t-6.5 17.5q0 18 27 18q8 0 22 -2l21 -1q21 0 21 13q0 10 -8.5 20
t-24.5 24q-13 12 -19.5 19.5t-6.5 14.5q0 11 19 32t49 50q-11 -1 -33 -1q-35 0 -73 6.5t-63 23.5l13 246h2q68 -252 152 -252q23 0 35.5 16.5t12.5 45.5q0 28 -13.5 64t-40.5 88l-62 121q-34 67 -48.5 104t-14.5 77q0 54 27 95t73.5 63t103.5 22q63 0 127 -33l-11 -240h-2
q-20 46 -31 78q-35 88 -57.5 128.5t-51.5 40.5q-19 0 -30.5 -18.5t-11.5 -46.5q0 -26 11 -56t32 -71z" />
    <glyph glyph-name="scedilla" unicode="&#x15f;" horiz-adv-x="343" 
d="M255 255q4 -8 21.5 -36.5t27 -54.5t9.5 -48q0 -50 -39 -83t-98 -41q-15 -18 -15 -33q0 -17 10.5 -30.5t28.5 -28.5q17 -15 17 -20q0 -20 -25.5 -43.5t-58.5 -41t-51 -17.5q-11 0 -17.5 7.5t-6.5 17.5q0 18 27 18q8 0 22 -2l21 -1q21 0 21 13q0 10 -8.5 20t-24.5 24
q-13 12 -19.5 19.5t-6.5 14.5q0 11 18.5 31.5t48.5 49.5h-15q-38 0 -73.5 9.5t-58.5 21.5l53 206q2 -67 17 -116t36.5 -74.5t42.5 -25.5q12 0 20.5 10t8.5 30q0 40 -42 110l-56 92q-22 38 -33 64t-11 55q0 61 49 99.5t129 38.5q31 0 57.5 -6t43.5 -17l-62 -186
q-2 85 -17.5 136.5t-46.5 51.5q-14 0 -24 -10.5t-10 -33.5q0 -41 30 -91z" />
    <glyph glyph-name="Scaron" unicode="&#x160;" horiz-adv-x="413" 
d="M89 -3.5q-38 6.5 -63 23.5l13 246h2q68 -252 152 -252q23 0 35.5 16.5t12.5 45.5q0 28 -13.5 64t-40.5 88l-62 121q-34 67 -48.5 104t-14.5 77q0 54 27 95t73.5 63t103.5 22q63 0 127 -33l-11 -240h-2q-20 46 -31 78q-35 88 -57.5 128.5t-51.5 40.5q-19 0 -30.5 -18.5
t-11.5 -46.5q0 -26 11 -56t32 -71l60 -116q5 -11 17 -33q32 -59 49.5 -103t17.5 -87q0 -79 -64 -121t-159 -42q-35 0 -73 6.5zM162 929l3 2l113 -59l127 59l1 -2l-140 -173z" />
    <glyph glyph-name="scaron" unicode="&#x161;" horiz-adv-x="343" 
d="M68.5 -0.5q-35.5 9.5 -58.5 21.5l53 206q2 -67 17 -116t36.5 -74.5t42.5 -25.5q12 0 20.5 10t8.5 30q0 40 -42 110l-56 92q-22 38 -33 64t-11 55q0 61 49 99.5t129 38.5q31 0 57.5 -6t43.5 -17l-62 -186q-2 85 -17.5 136.5t-46.5 51.5q-14 0 -24 -10.5t-10 -33.5
q0 -41 30 -91l60 -99q4 -8 21.5 -36.5t27 -54.5t9.5 -48q0 -58 -50 -92t-121 -34q-38 0 -73.5 9.5zM104 729l3 2l113 -59l127 59l1 -2l-140 -173z" />
    <glyph glyph-name="uni0162" unicode="&#x162;" horiz-adv-x="461" 
d="M111 27q12 14 21 48.5t17 108.5l46 416q4 33 4 54q0 13 -2.5 18t-10.5 5q-12 0 -30.5 -30t-68.5 -123l-48 -89h-3l37 268q53 -3 144 -3h122q91 0 145 3l-20 -268h-3l-20 62q-35 108 -49 144t-27 36q-11 0 -14.5 -13.5t-9.5 -63.5l-46 -416q-7 -59 -7 -96q0 -29 4.5 -45
t13.5 -24.5t26 -18.5h-258q25 13 37 27zM118.5 -214.5q-6.5 7.5 -6.5 17.5q0 18 27 18q8 0 22 -2l21 -1q21 0 21 13q0 10 -8.5 20t-24.5 24q-13 12 -19.5 19.5t-6.5 14.5q0 10 17 29.5t35.5 37.5t24.5 24h16q-22 -23 -22 -41q0 -17 10.5 -30.5t28.5 -28.5q17 -15 17 -20
q0 -20 -25.5 -43.5t-58.5 -41t-51 -17.5q-11 0 -17.5 7.5z" />
    <glyph glyph-name="uni0163" unicode="&#x163;" horiz-adv-x="276" 
d="M175 114q-1 -5 -1 -15q0 -53 47 -53q16 0 32 5h1q-8 -18 -43 -37t-70 -23q-14 -18 -14 -32q0 -17 10.5 -30.5t28.5 -28.5q17 -15 17 -20q0 -20 -25.5 -43.5t-58.5 -41t-51 -17.5q-11 0 -17.5 7.5t-6.5 17.5q0 18 27 18q8 0 22 -2l21 -1q21 0 21 13q0 10 -8.5 20t-24.5 24
q-13 12 -19.5 19.5t-6.5 14.5q0 10 16 28t51 53q-38 1 -61 25.5t-23 63.5l1 13l37 350h-56l212 218l-17 -161q42 0 70 3l-20 -60h-56z" />
    <glyph glyph-name="Umacron" unicode="&#x16a;" horiz-adv-x="509" 
d="M111 41q-46 51 -46 131q0 10 2 30l33 314q7 62 7 100q0 39 -7.5 54.5t-26.5 29.5h234q-18 -14 -27 -28t-17 -49t-16 -107l-33 -314q-2 -15 -2 -43q0 -61 21.5 -95.5t65.5 -34.5q51 0 82.5 46.5t40.5 126.5l33 314q7 72 7 96q0 29 -4 45t-11 24t-21 19h124
q-21 -14 -31.5 -28t-19 -49t-16.5 -107l-33 -314q-10 -95 -59 -153.5t-145 -58.5q-89 0 -135 51zM232 889h295l-40 -89h-293z" />
    <glyph glyph-name="umacron" unicode="&#x16b;" horiz-adv-x="464" 
d="M27 40q0 10 1 16l36 329q1 8 1 22q0 27 -6.5 45.5t-13.5 28.5l165 29l-34 -315q-6 -55 -6 -81q0 -32 10 -32q9 0 36.5 48.5t50.5 118.5t24 138q0 36 -6 60t-13 34l165 29l-42 -391q-1 -9 -1 -25q0 -47 20 -75l-165 -29l24 223q-20 -68 -53 -118.5t-71 -77.5t-75 -27
q-47 0 -47 50zM133 689h295l-40 -89h-293z" />
    <glyph glyph-name="Ubreve" unicode="&#x16c;" horiz-adv-x="509" 
d="M111 41q-46 51 -46 131q0 10 2 30l33 314q7 62 7 100q0 39 -7.5 54.5t-26.5 29.5h234q-18 -14 -27 -28t-17 -49t-16 -107l-33 -314q-2 -15 -2 -43q0 -61 21.5 -95.5t65.5 -34.5q51 0 82.5 46.5t40.5 126.5l33 314q7 72 7 96q0 29 -4 45t-11 24t-21 19h124
q-21 -14 -31.5 -28t-19 -49t-16.5 -107l-33 -314q-10 -95 -59 -153.5t-145 -58.5q-89 0 -135 51zM287 796q-24 26 -24 63l1 12q3 28 14 49h3q-3 -30 16 -51t63 -21q43 0 67 21.5t27 50.5h3q5 -15 5 -34q0 -46 -31.5 -81t-79.5 -35q-40 0 -64 26z" />
    <glyph glyph-name="ubreve" unicode="&#x16d;" horiz-adv-x="464" 
d="M27 40q0 10 1 16l36 329q1 8 1 22q0 27 -6.5 45.5t-13.5 28.5l165 29l-34 -315q-6 -55 -6 -81q0 -32 10 -32q9 0 36.5 48.5t50.5 118.5t24 138q0 36 -6 60t-13 34l165 29l-42 -391q-1 -9 -1 -25q0 -47 20 -75l-165 -29l24 223q-20 -68 -53 -118.5t-71 -77.5t-75 -27
q-47 0 -47 50zM188 596q-24 26 -24 63l1 12q3 28 14 49h3q-3 -30 16 -51t63 -21q43 0 67 21.5t27 50.5h3q5 -15 5 -34q0 -46 -31.5 -81t-79.5 -35q-40 0 -64 26z" />
    <glyph glyph-name="Uring" unicode="&#x16e;" horiz-adv-x="509" 
d="M111 41q-46 51 -46 131q0 10 2 30l33 314q7 62 7 100q0 39 -7.5 54.5t-26.5 29.5h234q-18 -14 -27 -28t-17 -49t-16 -107l-33 -314q-2 -15 -2 -43q0 -61 21.5 -95.5t65.5 -34.5q51 0 82.5 46.5t40.5 126.5l33 314q7 72 7 96q0 29 -4 45t-11 24t-21 19h124
q-21 -14 -31.5 -28t-19 -49t-16.5 -107l-33 -314q-10 -95 -59 -153.5t-145 -58.5q-89 0 -135 51zM306.5 783.5q-17.5 20.5 -17.5 50.5q0 34 23.5 60t54.5 26q27 0 45 -20t18 -48q0 -36 -23.5 -62.5t-55.5 -26.5q-27 0 -44.5 20.5zM396 799q19 22 19 51q0 24 -13.5 40
t-35.5 16q-26 0 -44.5 -21.5t-18.5 -51.5q0 -24 13.5 -40t35.5 -16q25 0 44 22z" />
    <glyph glyph-name="uring" unicode="&#x16f;" horiz-adv-x="464" 
d="M27 40q0 10 1 16l36 329q1 8 1 22q0 27 -6.5 45.5t-13.5 28.5l165 29l-34 -315q-6 -55 -6 -81q0 -32 10 -32q9 0 36.5 48.5t50.5 118.5t24 138q0 36 -6 60t-13 34l165 29l-42 -391q-1 -9 -1 -25q0 -47 20 -75l-165 -29l24 223q-20 -68 -53 -118.5t-71 -77.5t-75 -27
q-47 0 -47 50zM207.5 583.5q-17.5 20.5 -17.5 50.5q0 34 23.5 60t54.5 26q27 0 45 -20t18 -48q0 -36 -23.5 -62.5t-55.5 -26.5q-27 0 -44.5 20.5zM297 599q19 22 19 51q0 24 -13.5 40t-35.5 16q-26 0 -44.5 -21.5t-18.5 -51.5q0 -24 13.5 -40t35.5 -16q25 0 44 22z" />
    <glyph glyph-name="Uhungarumlaut" unicode="&#x170;" horiz-adv-x="509" 
d="M111 41q-46 51 -46 131q0 10 2 30l33 314q7 62 7 100q0 39 -7.5 54.5t-26.5 29.5h234q-18 -14 -27 -28t-17 -49t-16 -107l-33 -314q-2 -15 -2 -43q0 -61 21.5 -95.5t65.5 -34.5q51 0 82.5 46.5t40.5 126.5l33 314q7 72 7 96q0 29 -4 45t-11 24t-21 19h124
q-21 -14 -31.5 -28t-19 -49t-16.5 -107l-33 -314q-10 -95 -59 -153.5t-145 -58.5q-89 0 -135 51zM175 758l127 173q18 -6 43 -37t25 -51l-194 -87zM335 758l127 173q18 -6 43 -37t25 -51l-194 -87z" />
    <glyph glyph-name="uhungarumlaut" unicode="&#x171;" horiz-adv-x="464" 
d="M27 40q0 10 1 16l36 329q1 8 1 22q0 27 -6.5 45.5t-13.5 28.5l165 29l-34 -315q-6 -55 -6 -81q0 -32 10 -32q9 0 36.5 48.5t50.5 118.5t24 138q0 36 -6 60t-13 34l165 29l-42 -391q-1 -9 -1 -25q0 -47 20 -75l-165 -29l24 223q-20 -68 -53 -118.5t-71 -77.5t-75 -27
q-47 0 -47 50zM76 558l127 173q18 -6 43 -37t25 -51l-194 -87zM236 558l127 173q18 -6 43 -37t25 -51l-194 -87z" />
    <glyph glyph-name="Wcircumflex" unicode="&#x174;" horiz-adv-x="763" 
d="M809 700q-27 -22 -54 -65t-57 -119l-213 -532l-90 426l-170 -426l-112 532q-18 83 -32 123.5t-33 60.5h221q-18 -18 -18 -57t17 -127l47 -255l37 102q21 63 21 114q0 35 -9 81q-14 60 -27 92.5t-29 49.5h221q-19 -19 -19 -56q0 -35 18 -128l47 -256l94 256q36 95 36 141
q0 27 -13 43h117zM310 758l141 173l104 -173l-2 -2l-115 59l-126 -59z" />
    <glyph glyph-name="wcircumflex" unicode="&#x175;" horiz-adv-x="615" 
d="M605 457q0 -62 -48.5 -177t-167.5 -299h-1l-60 256q-22 -47 -51.5 -96t-75.5 -120l-26 -40h-1l-85 358q-20 83 -33 115.5t-34 45.5h202q-17 -17 -17 -57q0 -38 14 -104l38 -185q52 55 52 131q0 21 -7 54q-20 83 -33 115.5t-34 45.5h202q-17 -17 -17 -58q0 -37 13 -103
l38 -183q28 39 42 79.5t14 76.5q0 47 -20 76.5t-51 29.5l130 97q17 -19 17 -58zM221 558l141 173l104 -173l-2 -2l-115 59l-126 -59z" />
    <glyph glyph-name="Ycircumflex" unicode="&#x176;" horiz-adv-x="498" 
d="M543 700q-76 -57 -135 -184l-79 -172l-17 -160q-7 -62 -7 -100q0 -39 7.5 -54.5t26.5 -29.5h-238q20 14 30.5 27.5t18.5 49t16 107.5l14 132l-48 200q-29 131 -84 184h232q-15 -15 -15 -46q0 -17 4 -43t10 -55q6 -33 7 -40l26 -143l63 143l10 23q27 62 36.5 88.5
t9.5 45.5q0 17 -9 27h121zM180 758l141 173l104 -173l-2 -2l-115 59l-126 -59z" />
    <glyph glyph-name="ycircumflex" unicode="&#x177;" horiz-adv-x="404" 
d="M393 463q0 -75 -63 -207t-151 -273q-45 -69 -89.5 -114.5t-92.5 -45.5q-16 0 -28 5.5t-14 10.5l32 109q25 -10 64 -10q52 0 82 20.5t30 61.5q0 17 -4 33l-68 286q-19 83 -32 115.5t-34 45.5h201q-17 -17 -17 -57q0 -38 14 -104l38 -181q29 39 42.5 78.5t13.5 76.5
q0 46 -19.5 75.5t-50.5 29.5l130 97q16 -17 16 -52zM79 558l141 173l104 -173l-2 -2l-115 59l-126 -59z" />
    <glyph glyph-name="Ydieresis" unicode="&#x178;" horiz-adv-x="498" 
d="M543 700q-76 -57 -135 -184l-79 -172l-17 -160q-7 -62 -7 -100q0 -39 7.5 -54.5t26.5 -29.5h-238q20 14 30.5 27.5t18.5 49t16 107.5l14 132l-48 200q-29 131 -84 184h232q-15 -15 -15 -46q0 -17 4 -43t10 -55q6 -33 7 -40l26 -143l63 143l10 23q27 62 36.5 88.5
t9.5 45.5q0 17 -9 27h121zM173 789.5q-17 19.5 -17 48.5q0 32 22 57t52 25q26 0 43.5 -19t17.5 -46q0 -34 -23 -59.5t-53 -25.5q-25 0 -42 19.5zM350 789.5q-17 19.5 -17 48.5q0 32 22.5 57t52.5 25q25 0 42.5 -19t17.5 -46q0 -34 -23 -59.5t-53 -25.5q-25 0 -42 19.5z" />
    <glyph glyph-name="Zacute" unicode="&#x179;" horiz-adv-x="449" 
d="M267.5 49q45.5 23 81 72t81.5 147l-64 -268h-381l331 681q-71 -9 -114 -32t-77 -71t-78 -141l63 263h370l-335 -682q77 8 122.5 31zM209 758l127 173q18 -6 43 -37t25 -51l-194 -87z" />
    <glyph glyph-name="zacute" unicode="&#x17a;" horiz-adv-x="386" 
d="M257.5 72.5q51.5 45.5 103.5 151.5l-54 -224h-317l253 477h-10q-41 0 -71 -18.5t-59.5 -61t-68.5 -121.5l54 224h308l-252 -477q62 4 113.5 49.5zM180 558l127 173q18 -6 43 -37t25 -51l-194 -87z" />
    <glyph glyph-name="Zdotaccent" unicode="&#x17b;" horiz-adv-x="449" 
d="M267.5 49q45.5 23 81 72t81.5 147l-64 -268h-381l331 681q-71 -9 -114 -32t-77 -71t-78 -141l63 263h370l-335 -682q77 8 122.5 31zM232.5 789.5q-16.5 19.5 -16.5 48.5q0 32 22 57t52 25q26 0 43 -19t17 -46q0 -34 -22.5 -59.5t-52.5 -25.5q-26 0 -42.5 19.5z" />
    <glyph glyph-name="zdotaccent" unicode="&#x17c;" horiz-adv-x="386" 
d="M257.5 72.5q51.5 45.5 103.5 151.5l-54 -224h-317l253 477h-10q-41 0 -71 -18.5t-59.5 -61t-68.5 -121.5l54 224h308l-252 -477q62 4 113.5 49.5zM203.5 589.5q-16.5 19.5 -16.5 48.5q0 32 22 57t52 25q26 0 43 -19t17 -46q0 -34 -22.5 -59.5t-52.5 -25.5
q-26 0 -42.5 19.5z" />
    <glyph glyph-name="Zcaron" unicode="&#x17d;" horiz-adv-x="449" 
d="M267.5 49q45.5 23 81 72t81.5 147l-64 -268h-381l331 681q-71 -9 -114 -32t-77 -71t-78 -141l63 263h370l-335 -682q77 8 122.5 31zM169 929l3 2l113 -59l127 59l1 -2l-140 -173z" />
    <glyph glyph-name="zcaron" unicode="&#x17e;" horiz-adv-x="386" 
d="M257.5 72.5q51.5 45.5 103.5 151.5l-54 -224h-317l253 477h-10q-41 0 -71 -18.5t-59.5 -61t-68.5 -121.5l54 224h308l-252 -477q62 4 113.5 49.5zM140 729l3 2l113 -59l127 59l1 -2l-140 -173z" />
    <glyph glyph-name="uni01CD" unicode="&#x1cd;" horiz-adv-x="500" 
d="M271 56q0 30 -15 113h-146q-31 -86 -31 -126q0 -27 13 -43h-117q27 22 53.5 65t57.5 119l212 532l110 -532q17 -81 31.5 -122.5t33.5 -61.5h-221q19 19 19 56zM208 439l-89 -245h132zM199 929l3 2l113 -59l127 59l1 -2l-140 -173z" />
    <glyph glyph-name="uni01CE" unicode="&#x1ce;" 
d="M381 85q0 -31 5.5 -45.5t14.5 -24.5l-165 -26l26 243q-9 -51 -30.5 -107t-54 -95.5t-71.5 -39.5q-40 0 -66 43.5t-26 122.5q0 86 33.5 168t95.5 134t144 52q29 0 69 -5t65 -14l-38 -366q-2 -16 -2 -40zM228.5 172q22.5 58 37.5 135t15 122q0 60 -30 60q-27 0 -50 -44
t-36 -110t-13 -127q0 -94 31 -94q23 0 45.5 58zM158 729l3 2l113 -59l127 59l1 -2l-140 -173z" />
    <glyph glyph-name="uni01CF" unicode="&#x1cf;" horiz-adv-x="291" 
d="M30.5 27.5q10.5 13.5 18.5 49t16 107.5l35 332q7 62 7 100q0 39 -7.5 54.5t-26.5 29.5h239q-20 -14 -30.5 -27.5t-18.5 -49t-16 -107.5l-35 -332q-7 -62 -7 -100q0 -39 7.5 -54.5t26.5 -29.5h-239q20 14 30.5 27.5zM95 929l3 2l113 -59l127 59l1 -2l-140 -173z" />
    <glyph glyph-name="uni01D0" unicode="&#x1d0;" horiz-adv-x="233" 
d="M5.5 12.5q9.5 10.5 17.5 33.5t11 54l28 261q2 15 2 40q0 50 -19 80l165 29l-43 -410q-2 -22 -2 -30q0 -29 5.5 -42.5t15.5 -27.5h-191q1 2 10.5 12.5zM45 729l3 2l113 -59l127 59l1 -2l-140 -173z" />
    <glyph glyph-name="uni01D1" unicode="&#x1d1;" horiz-adv-x="535" 
d="M87.5 72.5q-49.5 82.5 -49.5 209.5q0 107 34.5 205.5t99 160.5t149.5 62q99 0 148.5 -82.5t49.5 -208.5q0 -107 -34.5 -206t-99 -161t-149.5 -62q-99 0 -148.5 82.5zM343.5 116.5q19.5 98.5 19.5 235.5q0 139 -21.5 234.5t-65.5 95.5t-63 -98t-19 -236q0 -140 21 -235
t65 -95t63.5 98.5zM217 929l3 2l113 -59l127 59l1 -2l-140 -173z" />
    <glyph glyph-name="uni01D2" unicode="&#x1d2;" horiz-adv-x="424" 
d="M54 43q-38 53 -38 140q0 83 31.5 158.5t87.5 122t126 46.5q72 0 109.5 -52.5t37.5 -139.5q0 -83 -31.5 -158.5t-87.5 -122.5t-125 -47q-72 0 -110 53zM252.5 100.5q14.5 84.5 14.5 197.5q0 85 -11.5 135.5t-36.5 50.5q-33 0 -47.5 -85t-14.5 -198q0 -185 49 -185
q32 0 46.5 84.5zM150 729l3 2l113 -59l127 59l1 -2l-140 -173z" />
    <glyph glyph-name="uni01D3" unicode="&#x1d3;" horiz-adv-x="509" 
d="M111 41q-46 51 -46 131q0 10 2 30l33 314q7 62 7 100q0 39 -7.5 54.5t-26.5 29.5h234q-18 -14 -27 -28t-17 -49t-16 -107l-33 -314q-2 -15 -2 -43q0 -61 21.5 -95.5t65.5 -34.5q51 0 82.5 46.5t40.5 126.5l33 314q7 72 7 96q0 29 -4 45t-11 24t-21 19h124
q-21 -14 -31.5 -28t-19 -49t-16.5 -107l-33 -314q-10 -95 -59 -153.5t-145 -58.5q-89 0 -135 51zM246 929l3 2l113 -59l127 59l1 -2l-140 -173z" />
    <glyph glyph-name="uni01D4" unicode="&#x1d4;" horiz-adv-x="464" 
d="M27 40q0 10 1 16l36 329q1 8 1 22q0 27 -6.5 45.5t-13.5 28.5l165 29l-34 -315q-6 -55 -6 -81q0 -32 10 -32q9 0 36.5 48.5t50.5 118.5t24 138q0 36 -6 60t-13 34l165 29l-42 -391q-1 -9 -1 -25q0 -47 20 -75l-165 -29l24 223q-20 -68 -53 -118.5t-71 -77.5t-75 -27
q-47 0 -47 50zM147 729l3 2l113 -59l127 59l1 -2l-140 -173z" />
    <glyph glyph-name="Gcaron" unicode="&#x1e6;" horiz-adv-x="520" 
d="M136.5 26.5q-45.5 36.5 -72 103.5t-26.5 155q0 108 40.5 206t114.5 158.5t169 60.5q58 0 112 -17l-7 -257h-3q-37 118 -77 181.5t-79 63.5q-38 0 -64 -57t-38.5 -142t-12.5 -170q0 -75 10.5 -142.5t29 -109.5t42.5 -42q13 0 19.5 10t10.5 35l9 63q11 81 11 120
q0 72 -30 105h220q-30 -29 -47 -76t-31 -149l-17 -128h-2q-20 23 -53 23q-15 0 -26.5 -3.5t-30.5 -10.5q-21 -9 -36.5 -13t-35.5 -4q-54 0 -99.5 36.5zM245 929l3 2l113 -59l127 59l1 -2l-140 -173z" />
    <glyph glyph-name="gcaron" unicode="&#x1e7;" horiz-adv-x="442" 
d="M47 -178.5q-27 4.5 -41 12.5l103 124q-3 -14 -3 -27q0 -34 15.5 -60t38.5 -26q62 0 82 196l19 190q-9 -50 -30 -106t-53.5 -95.5t-71.5 -39.5q-40 0 -66 43.5t-26 122.5q0 86 33.5 168t95.5 134t144 52q29 0 69 -5t65 -14l-40 -385q-10 -94 -51.5 -159t-102 -97.5
t-126.5 -32.5q-27 0 -54 4.5zM228.5 172q22.5 58 37.5 135t15 122q0 60 -30 60q-27 0 -50 -44t-36 -109.5t-13 -126.5q0 -95 31 -95q23 0 45.5 58zM131 729l3 2l113 -59l127 59l1 -2l-140 -173z" />
    <glyph glyph-name="uni0228" unicode="&#x228;" horiz-adv-x="481" 
d="M343.5 78.5q52.5 52.5 113.5 179.5h3l-54 -258h-406q20 14 30.5 27.5t18.5 49t16 107.5l35 332q7 62 7 100q0 39 -7.5 54.5t-26.5 29.5h394l-9 -256h-3q-35 127 -68 178.5t-70 51.5q-34 0 -48 -36t-22 -121l-15 -144v-4q0 -13 10 -13q48 0 87.5 29t63.5 97h3l-28 -276h-3
q-10 69 -43.5 98t-81.5 29q-10 0 -14 -14l-14 -135q-6 -51 -6 -87q0 -37 10 -54t35 -17q40 0 92.5 52.5zM132.5 -214.5q-6.5 7.5 -6.5 17.5q0 18 27 18q8 0 22 -2l21 -1q21 0 21 13q0 10 -8.5 20t-24.5 24q-13 12 -19.5 19.5t-6.5 14.5q0 10 17 29.5t35.5 37.5t24.5 24h16
q-22 -23 -22 -41q0 -17 10.5 -30.5t28.5 -28.5q17 -15 17 -20q0 -20 -25.5 -43.5t-58.5 -41t-51 -17.5q-11 0 -17.5 7.5z" />
    <glyph glyph-name="uni0229" unicode="&#x229;" horiz-adv-x="379" 
d="M343 108q-16 -48 -55.5 -83t-93.5 -35h-4q-13 -17 -13 -31q0 -17 10.5 -30.5t28.5 -28.5q17 -15 17 -20q0 -20 -25.5 -43.5t-58.5 -41t-51 -17.5q-11 0 -17.5 7.5t-6.5 17.5q0 18 27 18q8 0 22 -2l21 -1q21 0 21 13q0 10 -8.5 20t-24.5 24q-13 12 -19.5 19.5t-6.5 14.5
q0 10 16 28t52 54q-69 9 -111.5 72.5t-42.5 155.5q0 75 29 142t81 108t118 41q50 0 77.5 -23.5t27.5 -69.5q0 -47 -36.5 -84t-131.5 -77q-16 -7 -22 -17t-6 -29q0 -50 34 -87.5t90 -37.5q43 0 62 23zM188 464q-16 -23 -26 -58.5t-10 -72.5q0 -26 6 -40t22 -14q18 0 34 22
t26 58t10 73q0 26 -6.5 40.5t-21.5 14.5q-18 0 -34 -23z" />
    <glyph glyph-name="uni0259" unicode="&#x259;" horiz-adv-x="379" 
d="M275.5 480.5q39.5 -29.5 61.5 -82t22 -117.5q0 -75 -29 -142t-81 -108t-118 -41q-50 0 -77 23.5t-27 70.5t36 83.5t131 77.5q16 7 22 17t6 28q0 51 -33.5 88t-90.5 37q-43 0 -61 -23q15 47 54.5 82.5t93.5 35.5q51 0 90.5 -29.5zM165 199.5q-16 -22.5 -26 -58t-10 -73.5
q0 -26 6.5 -40.5t21.5 -14.5q18 0 34 23t26 58.5t10 72.5q0 26 -6.5 40.5t-21.5 14.5q-18 0 -34 -22.5z" />
    <glyph glyph-name="uni02C8" unicode="&#x2c8;" horiz-adv-x="69" 
d="M57 700h49l-21 -200h-49z" />
    <glyph glyph-name="gravecomb" unicode="&#x300;" horiz-adv-x="0" 
d="M-155 643q4 20 35.5 51t51.5 37l91 -173l-2 -2z" />
    <glyph glyph-name="acutecomb" unicode="&#x301;" horiz-adv-x="0" 
d="M-163 558l127 173q18 -6 43 -37t25 -51l-194 -87z" />
    <glyph glyph-name="uni0302" unicode="&#x302;" horiz-adv-x="0" 
d="M-225 558l141 173l104 -173l-2 -2l-115 59l-126 -59z" />
    <glyph glyph-name="tildecomb" unicode="&#x303;" horiz-adv-x="0" 
d="M-247 679.5q39 51.5 78 51.5q12 0 25 -6t32 -17q22 -14 39 -21.5t35 -7.5q27 0 45 16.5t28 35.5h6q-28 -61 -65 -111.5t-75 -50.5q-12 0 -25.5 6t-31.5 18q-26 15 -41 21.5t-33 6.5q-28 0 -47.5 -17t-27.5 -35h-6q25 59 64 110.5z" />
    <glyph glyph-name="uni0304" unicode="&#x304;" horiz-adv-x="0" 
d="M-258 689h295l-40 -89h-293z" />
    <glyph glyph-name="uni0306" unicode="&#x306;" horiz-adv-x="0" 
d="M-139 596q-24 26 -24 63l1 12q3 28 14 49h3q-3 -30 16 -51t63 -21q43 0 67 21.5t27 50.5h3q5 -15 5 -34q0 -46 -31.5 -81t-79.5 -35q-40 0 -64 26z" />
    <glyph glyph-name="uni0307" unicode="&#x307;" horiz-adv-x="0" 
d="M-85.5 589.5q-16.5 19.5 -16.5 48.5q0 32 22 57t52 25q26 0 43 -19t17 -46q0 -34 -22.5 -59.5t-52.5 -25.5q-26 0 -42.5 19.5z" />
    <glyph glyph-name="uni0308" unicode="&#x308;" horiz-adv-x="0" 
d="M-264 589.5q-17 19.5 -17 48.5q0 32 22 57t52 25q26 0 43.5 -19t17.5 -46q0 -34 -23 -59.5t-53 -25.5q-25 0 -42 19.5zM-87 589.5q-17 19.5 -17 48.5q0 32 22.5 57t52.5 25q25 0 42.5 -19t17.5 -46q0 -34 -23 -59.5t-53 -25.5q-25 0 -42 19.5z" />
    <glyph glyph-name="uni030A" unicode="&#x30a;" horiz-adv-x="0" 
d="M-91.5 583.5q-17.5 20.5 -17.5 50.5q0 34 23.5 60t54.5 26q27 0 45 -20t18 -48q0 -36 -23.5 -62.5t-55.5 -26.5q-27 0 -44.5 20.5zM-2 599q19 22 19 51q0 24 -13.5 40t-35.5 16q-26 0 -44.5 -21.5t-18.5 -51.5q0 -24 13.5 -40t35.5 -16q25 0 44 22z" />
    <glyph glyph-name="uni030B" unicode="&#x30b;" horiz-adv-x="0" 
d="M-324 558l127 173q18 -6 43 -37t25 -51l-194 -87zM-164 558l127 173q18 -6 43 -37t25 -51l-194 -87z" />
    <glyph glyph-name="uni030C" unicode="&#x30c;" horiz-adv-x="0" 
d="M-207 729l3 2l113 -59l127 59l1 -2l-140 -173z" />
    <glyph glyph-name="uni0326" unicode="&#x326;" horiz-adv-x="0" 
d="M-77 -66q17 -20 17 -53q0 -48 -35.5 -94.5t-83.5 -70.5l-1 2q29 31 37 85q-23 3 -37.5 22t-14.5 45q0 34 22.5 59t52.5 25q26 0 43 -20z" />
    <glyph glyph-name="uni0327" unicode="&#x327;" horiz-adv-x="0" 
d="M-164.5 -214.5q-6.5 7.5 -6.5 17.5q0 18 27 18q8 0 22 -2l21 -1q21 0 21 13q0 10 -8.5 20t-24.5 24q-13 12 -19.5 19.5t-6.5 14.5q0 10 17 29.5t35.5 37.5t24.5 24h16q-22 -23 -22 -41q0 -17 10.5 -30.5t28.5 -28.5q17 -15 17 -20q0 -20 -25.5 -43.5t-58.5 -41t-51 -17.5
q-11 0 -17.5 7.5z" />
    <glyph glyph-name="uni1E44" unicode="&#x1e44;" horiz-adv-x="504" 
d="M545 700q-28 -13 -41.5 -27t-23 -49t-17.5 -108l-27 -252q-8 -77 -12.5 -137.5t-8.5 -146.5h-5l-276 575l-39 -371q-6 -57 -6 -89t6 -49.5t16.5 -26.5t32.5 -19h-159q28 13 41.5 27t23 49t17.5 108l35 332q5 43 5 83q0 35 -6 53.5t-16.5 27.5t-31.5 20h204q1 -16 7 -32.5
t19 -44.5l12 -25l120 -277l20 195q6 57 6 90q0 32 -5.5 49t-15 26t-29.5 19h154zM276.5 789.5q-16.5 19.5 -16.5 48.5q0 32 22 57t52 25q26 0 43 -19t17 -46q0 -34 -22.5 -59.5t-52.5 -25.5q-26 0 -42.5 19.5z" />
    <glyph glyph-name="uni1E45" unicode="&#x1e45;" horiz-adv-x="465" 
d="M394 100q-2 -24 -2 -32q0 -25 5 -38.5t10 -20.5t6 -9h-191q1 2 10.5 12.5t17.5 33.5t11 54l22 205q6 56 6 82q0 32 -10 32t-33.5 -42t-46 -113.5t-32.5 -159.5v-4q-5 -49 -5 -77l1 -23h-168q1 2 10.5 12.5t17.5 33.5t11 54l28 261q2 15 2 40q0 50 -19 80l165 29l-23 -221
q20 67 53 117t71 77t75 27q46 0 46 -50q0 -10 -1 -16zM237.5 589.5q-16.5 19.5 -16.5 48.5q0 32 22 57t52 25q26 0 43 -19t17 -46q0 -34 -22.5 -59.5t-52.5 -25.5q-26 0 -42.5 19.5z" />
    <glyph glyph-name="Wgrave" unicode="&#x1e80;" horiz-adv-x="763" 
d="M809 700q-27 -22 -54 -65t-57 -119l-213 -532l-90 426l-170 -426l-112 532q-18 83 -32 123.5t-33 60.5h221q-18 -18 -18 -57t17 -127l47 -255l37 102q21 63 21 114q0 35 -9 81q-14 60 -27 92.5t-29 49.5h221q-19 -19 -19 -56q0 -35 18 -128l47 -256l94 256q36 95 36 141
q0 27 -13 43h117zM349 843q4 20 35.5 51t51.5 37l91 -173l-2 -2z" />
    <glyph glyph-name="wgrave" unicode="&#x1e81;" horiz-adv-x="615" 
d="M605 457q0 -62 -48.5 -177t-167.5 -299h-1l-60 256q-22 -47 -51.5 -96t-75.5 -120l-26 -40h-1l-85 358q-20 83 -33 115.5t-34 45.5h202q-17 -17 -17 -57q0 -38 14 -104l38 -185q52 55 52 131q0 21 -7 54q-20 83 -33 115.5t-34 45.5h202q-17 -17 -17 -58q0 -37 13 -103
l38 -183q28 39 42 79.5t14 76.5q0 47 -20 76.5t-51 29.5l130 97q17 -19 17 -58zM259 643q4 20 35.5 51t51.5 37l91 -173l-2 -2z" />
    <glyph glyph-name="Wacute" unicode="&#x1e82;" horiz-adv-x="763" 
d="M809 700q-27 -22 -54 -65t-57 -119l-213 -532l-90 426l-170 -426l-112 532q-18 83 -32 123.5t-33 60.5h221q-18 -18 -18 -57t17 -127l47 -255l37 102q21 63 21 114q0 35 -9 81q-14 60 -27 92.5t-29 49.5h221q-19 -19 -19 -56q0 -35 18 -128l47 -256l94 256q36 95 36 141
q0 27 -13 43h117zM367 758l127 173q18 -6 43 -37t25 -51l-194 -87z" />
    <glyph glyph-name="wacute" unicode="&#x1e83;" horiz-adv-x="615" 
d="M605 457q0 -62 -48.5 -177t-167.5 -299h-1l-60 256q-22 -47 -51.5 -96t-75.5 -120l-26 -40h-1l-85 358q-20 83 -33 115.5t-34 45.5h202q-17 -17 -17 -57q0 -38 14 -104l38 -185q52 55 52 131q0 21 -7 54q-20 83 -33 115.5t-34 45.5h202q-17 -17 -17 -58q0 -37 13 -103
l38 -183q28 39 42 79.5t14 76.5q0 47 -20 76.5t-51 29.5l130 97q17 -19 17 -58zM278 558l127 173q18 -6 43 -37t25 -51l-194 -87z" />
    <glyph glyph-name="Wdieresis" unicode="&#x1e84;" horiz-adv-x="763" 
d="M809 700q-27 -22 -54 -65t-57 -119l-213 -532l-90 426l-170 -426l-112 532q-18 83 -32 123.5t-33 60.5h221q-18 -18 -18 -57t17 -127l47 -255l37 102q21 63 21 114q0 35 -9 81q-14 60 -27 92.5t-29 49.5h221q-19 -19 -19 -56q0 -35 18 -128l47 -256l94 256q36 95 36 141
q0 27 -13 43h117zM303 789.5q-17 19.5 -17 48.5q0 32 22 57t52 25q26 0 43.5 -19t17.5 -46q0 -34 -23 -59.5t-53 -25.5q-25 0 -42 19.5zM480 789.5q-17 19.5 -17 48.5q0 32 22.5 57t52.5 25q25 0 42.5 -19t17.5 -46q0 -34 -23 -59.5t-53 -25.5q-25 0 -42 19.5z" />
    <glyph glyph-name="wdieresis" unicode="&#x1e85;" horiz-adv-x="615" 
d="M605 457q0 -62 -48.5 -177t-167.5 -299h-1l-60 256q-22 -47 -51.5 -96t-75.5 -120l-26 -40h-1l-85 358q-20 83 -33 115.5t-34 45.5h202q-17 -17 -17 -57q0 -38 14 -104l38 -185q52 55 52 131q0 21 -7 54q-20 83 -33 115.5t-34 45.5h202q-17 -17 -17 -58q0 -37 13 -103
l38 -183q28 39 42 79.5t14 76.5q0 47 -20 76.5t-51 29.5l130 97q17 -19 17 -58zM213 589.5q-17 19.5 -17 48.5q0 32 22 57t52 25q26 0 43.5 -19t17.5 -46q0 -34 -23 -59.5t-53 -25.5q-25 0 -42 19.5zM390 589.5q-17 19.5 -17 48.5q0 32 22.5 57t52.5 25q25 0 42.5 -19
t17.5 -46q0 -34 -23 -59.5t-53 -25.5q-25 0 -42 19.5z" />
    <glyph glyph-name="uni1E9E" unicode="&#x1e9e;" horiz-adv-x="573" 
d="M517.5 326.5q27.5 -48.5 27.5 -118.5q0 -97 -54 -157.5t-151 -60.5q-50 0 -91 10l13 228h3q27 -97 51 -157.5t45 -60.5q22 0 32 67t10 136q0 83 -20.5 138t-70.5 55l104 273q-12 6 -34 6q-43 0 -71.5 -25.5t-45.5 -80.5t-27 -148l-26 -247q-9 -82 -9 -128q0 -22 2 -32
t6 -24h-211q20 14 30.5 28t19 49t15.5 107l24 227q16 156 74.5 227.5t170.5 71.5q37 0 81 -11q5 -1 26 -5t43 -4q50 0 84 21l2 -1l-124 -314q44 -21 71.5 -69.5z" />
    <glyph glyph-name="Ygrave" unicode="&#x1ef2;" horiz-adv-x="498" 
d="M543 700q-76 -57 -135 -184l-79 -172l-17 -160q-7 -62 -7 -100q0 -39 7.5 -54.5t26.5 -29.5h-238q20 14 30.5 27.5t18.5 49t16 107.5l14 132l-48 200q-29 131 -84 184h232q-15 -15 -15 -46q0 -17 4 -43t10 -55q6 -33 7 -40l26 -143l63 143l10 23q27 62 36.5 88.5
t9.5 45.5q0 17 -9 27h121zM219 843q4 20 35.5 51t51.5 37l91 -173l-2 -2z" />
    <glyph glyph-name="ygrave" unicode="&#x1ef3;" horiz-adv-x="404" 
d="M393 463q0 -75 -63 -207t-151 -273q-45 -69 -89.5 -114.5t-92.5 -45.5q-16 0 -28 5.5t-14 10.5l32 109q25 -10 64 -10q52 0 82 20.5t30 61.5q0 17 -4 33l-68 286q-19 83 -32 115.5t-34 45.5h201q-17 -17 -17 -57q0 -38 14 -104l38 -181q29 39 42.5 78.5t13.5 76.5
q0 46 -19.5 75.5t-50.5 29.5l130 97q16 -17 16 -52zM117 643q4 20 35.5 51t51.5 37l91 -173l-2 -2z" />
    <glyph glyph-name="endash" unicode="&#x2013;" horiz-adv-x="570" 
d="M32 314h520l-2 -21h-520z" />
    <glyph glyph-name="emdash" unicode="&#x2014;" horiz-adv-x="760" 
d="M32 314h710l-2 -21h-710z" />
    <glyph glyph-name="quoteleft" unicode="&#x2018;" horiz-adv-x="196" 
d="M65.5 446q-20.5 25 -20.5 64q0 58 43 114t101 86l2 -3q-37 -41 -45 -102q28 -4 45 -26.5t17 -54.5q0 -41 -27 -72t-63 -31q-32 0 -52.5 25z" />
    <glyph glyph-name="quoteright" unicode="&#x2019;" horiz-adv-x="196" 
d="M197.5 685q20.5 -25 20.5 -64q0 -58 -43 -114.5t-101 -85.5l-2 3q37 40 45 102q-28 4 -45 26.5t-17 54.5q0 41 27 72t63 31q32 0 52.5 -25z" />
    <glyph glyph-name="quotesinglbase" unicode="&#x201a;" horiz-adv-x="203" 
d="M144.5 150q20.5 -25 20.5 -64q0 -58 -43 -114.5t-101 -85.5l-2 3q37 40 45 102q-28 4 -45 26.5t-17 54.5q0 41 27 72t63 31q32 0 52.5 -25z" />
    <glyph glyph-name="quotedblleft" unicode="&#x201c;" horiz-adv-x="397" 
d="M65.5 446q-20.5 25 -20.5 64q0 58 43 114t101 86l2 -3q-37 -41 -45 -102q28 -4 45 -26.5t17 -54.5q0 -41 -27 -72t-63 -31q-32 0 -52.5 25zM266.5 446q-20.5 25 -20.5 64q0 58 43 114t101 86l2 -3q-35 -39 -45 -102q28 -4 45 -26.5t17 -54.5q0 -41 -26.5 -72t-63.5 -31
q-32 0 -52.5 25z" />
    <glyph glyph-name="quotedblright" unicode="&#x201d;" horiz-adv-x="397" 
d="M398.5 685q20.5 -25 20.5 -64q0 -58 -43 -114.5t-101 -85.5l-2 3q37 40 45 102q-28 4 -45 26.5t-17 54.5q0 41 27 72t63 31q32 0 52.5 -25zM197.5 685q20.5 -25 20.5 -64q0 -58 -43 -114.5t-101 -85.5l-2 3q37 40 45 102q-28 4 -45 26.5t-17 54.5q0 41 27 72t63 31
q32 0 52.5 -25z" />
    <glyph glyph-name="quotedblbase" unicode="&#x201e;" horiz-adv-x="405" 
d="M345.5 150q20.5 -25 20.5 -64q0 -58 -43 -114.5t-101 -85.5l-2 3q37 40 45 102q-28 4 -45 26.5t-17 54.5q0 41 27 72t63 31q32 0 52.5 -25zM144.5 150q20.5 -25 20.5 -64q0 -58 -43 -114.5t-101 -85.5l-2 3q37 40 45 102q-28 4 -45 26.5t-17 54.5q0 41 27 72t63 31
q32 0 52.5 -25z" />
    <glyph glyph-name="dagger" unicode="&#x2020;" horiz-adv-x="360" 
d="M361 643h-130l-88 -842h-20l88 842h-130l3 21h129l25 236h20l-25 -236h131z" />
    <glyph glyph-name="daggerdbl" unicode="&#x2021;" horiz-adv-x="360" 
d="M231 643l-61 -585h130l-2 -21h-130l-25 -236h-20l25 236h-130l2 21h130l61 585h-130l3 21h129l25 236h20l-25 -236h131l-3 -21h-130z" />
    <glyph glyph-name="bullet" unicode="&#x2022;" horiz-adv-x="322" 
d="M80 178.5q-28 32.5 -28 79.5q0 36 17.5 68t46.5 51.5t61 19.5q42 0 70 -32t28 -79q0 -36 -17 -68.5t-46 -52t-61 -19.5q-43 0 -71 32.5z" />
    <glyph glyph-name="ellipsis" unicode="&#x2026;" horiz-adv-x="624" 
d="M443 13.5q-21 23.5 -21 57.5q0 41 27.5 72.5t64.5 31.5q31 0 51.5 -23.5t20.5 -57.5q0 -41 -27.5 -72.5t-63.5 -31.5q-31 0 -52 23.5zM233 13.5q-21 23.5 -21 57.5q0 41 27.5 72.5t64.5 31.5q31 0 51.5 -23.5t20.5 -57.5q0 -41 -27.5 -72.5t-63.5 -31.5q-31 0 -52 23.5z
M23 13.5q-21 23.5 -21 57.5q0 41 27.5 72.5t64.5 31.5q31 0 51.5 -23.5t20.5 -57.5q0 -41 -27.5 -72.5t-63.5 -31.5q-31 0 -52 23.5z" />
    <glyph glyph-name="perthousand" unicode="&#x2030;" horiz-adv-x="710" 
d="M78.5 490.5q-23.5 30.5 -23.5 76.5q0 37 14.5 70t41 53t58.5 20q41 0 64.5 -30.5t23.5 -76.5q0 -37 -14.5 -70t-41 -53t-58.5 -20q-41 0 -64.5 30.5zM410 700h20l-327 -550h-20zM212.5 515q25.5 37 25.5 87q0 40 -18 65t-53 25q-42 0 -67.5 -37t-25.5 -87q0 -40 18 -65
t53 -25q42 0 67.5 37zM280 170.5q-23 30.5 -23 76.5q0 58 32.5 100.5t81.5 42.5q41 0 64.5 -30.5t23.5 -76.5q0 -37 -15 -70t-41.5 -53t-58.5 -20q-41 0 -64 30.5zM513 170.5q-23 30.5 -23 76.5q0 58 32.5 100.5t81.5 42.5q41 0 64.5 -30.5t23.5 -76.5q0 -37 -15 -70
t-41.5 -53t-58.5 -20q-41 0 -64 30.5zM414 195q26 37 26 87q0 40 -18 65t-53 25q-42 0 -67.5 -37t-25.5 -88q0 -39 18 -64t52 -25q42 0 68 37zM647 195q26 37 26 87q0 40 -18 65t-53 25q-42 0 -67.5 -37t-25.5 -88q0 -39 18 -64t52 -25q42 0 68 37z" />
    <glyph glyph-name="guilsinglleft" unicode="&#x2039;" horiz-adv-x="235" 
d="M26 262l204 188l1 -1l-90 -187l51 -187l-1 -1z" />
    <glyph glyph-name="guilsinglright" unicode="&#x203a;" horiz-adv-x="236" 
d="M212 262l-204 -188l-1 1l90 187l-51 187l1 1z" />
    <glyph glyph-name="fraction" unicode="&#x2044;" horiz-adv-x="135" 
d="M173 800h20l-210 -899h-20z" />
    <glyph glyph-name="Euro" unicode="&#x20ac;" horiz-adv-x="529" 
d="M519 693q-1 -75 -6 -167l-4 -91h-3q-46 128 -80.5 187.5t-69.5 59.5q-36 0 -61 -46.5t-38 -116t-13 -136.5h239l-2 -17h-237l1 -28h234l-2 -17h-230q10 -99 49.5 -162t110.5 -63q46 0 78 30q-11 -29 -39 -60.5t-67.5 -53.5t-84.5 -22q-57 0 -102.5 36.5t-72 104
t-26.5 156.5q0 23 1 34h-55l2 17h54l3 28h-55l2 17h56q15 90 56.5 164.5t105.5 118.5t143 44q59 0 113 -17z" />
    <glyph glyph-name="trademark" unicode="&#x2122;" horiz-adv-x="770" 
d="M116 309.5q7 9.5 13 33.5t11 74l21 205q3 24 3 39q0 21 -12 21q-11 0 -23.5 -20t-49.5 -89l-29 -56h-2l25 185q31 -1 68 -1h160q37 0 70 1l-15 -185h-2l-11 36q-23 78 -33.5 103.5t-23.5 25.5q-11 0 -14 -12t-7 -48l-21 -205q-5 -52 -5 -70q0 -26 5 -36t17 -20h-166
q14 9 21 18.5zM449 600l-19 -183q-4 -36 -4 -64q0 -30 7.5 -41t27.5 -21h-108q19 9 28 18.5t15.5 33t11.5 74.5l16 158q4 33 4 59q0 32 -8 44t-28 23h147l47 -218l86 217h125q-13 -9 -20 -18.5t-13 -33.5t-11 -73l-16 -158q-5 -50 -5 -69q0 -26 5 -36.5t17 -20.5h-166
q14 10 21.5 19.5t13.5 33.5t11 73l19 181l-125 -314z" />
    <glyph glyph-name="arrowleft" unicode="&#x2190;" horiz-adv-x="710" 
d="M610 246h-470l105 -118l-16 -15l-128 143v1l158 143l13 -15l-130 -118h470z" />
    <glyph glyph-name="arrowup" unicode="&#x2191;" horiz-adv-x="487" 
d="M383 352l-106 118l-49 -470h-21l49 470l-130 -118l-14 15l158 143h1l128 -143z" />
    <glyph glyph-name="arrowright" unicode="&#x2192;" horiz-adv-x="710" 
d="M611 257v-1l-158 -143l-14 15l131 118h-470l2 21h470l-106 118l17 15z" />
    <glyph glyph-name="arrowdown" unicode="&#x2193;" horiz-adv-x="487" 
d="M376 143l-158 -143h-1l-128 143l16 15l106 -118l49 470h21l-49 -470l130 118z" />
    <glyph glyph-name="arrowboth" unicode="&#x2194;" horiz-adv-x="800" 
d="M701 257v-1l-158 -143l-14 15l131 118h-520l105 -118l-16 -15l-128 143v1l158 143l13 -15l-130 -118h520l-106 118l17 15z" />
    <glyph glyph-name="arrowupdn" unicode="&#x2195;" horiz-adv-x="487" 
d="M282 517l-55 -520l131 118l13 -15l-158 -143h-1l-128 143l17 15l105 -118l55 520l-130 -118l-14 15l158 143h1l128 -143l-16 -15z" />
    <glyph glyph-name="uni2196" unicode="&#x2196;" horiz-adv-x="568" 
d="M441 131l-298 332l-17 -166h-21l21 202l1 1h202l-2 -21h-167l297 -333z" />
    <glyph glyph-name="uni2197" unicode="&#x2197;" horiz-adv-x="568" 
d="M494 500v-1l-21 -202h-21l18 167l-368 -333l-13 15l368 333h-168l2 21h203z" />
    <glyph glyph-name="uni2198" unicode="&#x2198;" horiz-adv-x="568" 
d="M477 335l-21 -202l-1 -1h-202l2 21h167l-297 333l16 15l297 -333l18 167h21z" />
    <glyph glyph-name="uni2199" unicode="&#x2199;" horiz-adv-x="568" 
d="M125 153h168l-3 -21h-202v1l21 202h21l-18 -167l368 333l13 -15z" />
    <glyph glyph-name="emptyset" unicode="&#x2205;" horiz-adv-x="298" 
d="M259 386q23 -31 23 -70q0 -37 -20 -69.5t-52.5 -51.5t-69.5 -19q-46 0 -79 30l-31 -29l-13 14l32 29q-23 29 -23 69q0 37 19.5 69.5t52 52t69.5 19.5q47 0 79 -30l31 29l13 -14zM66 236l163 149q-28 23 -64 23q-30 0 -57 -16t-43.5 -43t-16.5 -58q0 -32 18 -55zM242 371
l-163 -149q26 -24 64 -24q31 0 58 16t43 42.5t16 57.5t-18 57z" />
    <glyph glyph-name="product" unicode="&#x220f;" horiz-adv-x="283" 
d="M73 700h230l-73 -700h-21l71 679h-188l-71 -679h-21z" />
    <glyph glyph-name="minus" unicode="&#x2212;" horiz-adv-x="280" 
d="M32 314h230l-2 -21h-230z" />
    <glyph glyph-name="integral" unicode="&#x222b;" horiz-adv-x="265" 
d="M2 11q29 0 51 20t30 62l96 503q10 48 37 76t71 28l-4 -22q-29 0 -51.5 -20t-30.5 -62l-96 -503q-9 -48 -35.5 -76t-71.5 -28z" />
    <glyph glyph-name="lessequal" unicode="&#x2264;" horiz-adv-x="204" 
d="M50 229l82 74l-67 76l16 14l79 -90l-98 -89zM10 111h154l-2 -21h-153z" />
    <glyph glyph-name="greaterequal" unicode="&#x2265;" horiz-adv-x="204" 
d="M47 303l97 90l14 -14l-83 -76l66 -74l-16 -15zM10 111h154l-2 -21h-153z" />
    <glyph glyph-name="lozenge" unicode="&#x25ca;" horiz-adv-x="346" 
d="M39 387l182 323l114 -323l-182 -323zM315 387l-98 282l-158 -282l98 -286z" />
    <glyph glyph-name="A.swsh.ss01" horiz-adv-x="510" 
d="M281 57q0 30 -15 112h-170q-57 -116 -109.5 -184t-108.5 -98.5t-124 -30.5q-66 0 -116 25t-77 69.5t-27 99.5q0 49 20.5 89.5t56.5 64.5t81 24q36 0 58.5 -15t24.5 -37q-40 0 -65 -32.5t-25 -84.5q0 -67 36 -113.5t96 -46.5q68 0 131 75t142.5 244t212.5 498l115 -532
q17 -79 31 -121t34 -63h-221q19 19 19 57zM109 195h152l-48 244q-51 -131 -104 -244z" />
    <glyph glyph-name="C.swsh.ss01" horiz-adv-x="370" 
d="M90 269q-40 55 -40 141q0 79 32 148t87.5 110.5t123.5 41.5q48 0 73 -16l-28 -195q-16 74 -25 109.5t-22 58t-31 22.5q-21 0 -40.5 -25t-31.5 -68t-12 -95q0 -78 28.5 -137t88.5 -59q35 0 53 22q-17 -46 -55.5 -79.5t-93.5 -33.5q-67 0 -107 55zM124.5 11.5
q-17.5 19.5 -17.5 48.5q0 35 23 61t54 26q27 0 44.5 -19.5t17.5 -48.5q0 -34 -23.5 -60.5t-54.5 -26.5q-26 0 -43.5 19.5z" />
    <glyph glyph-name="D.swsh.ss01" horiz-adv-x="412" 
d="M46 236q8 11 14.5 38.5t12.5 83.5l23 214q4 35 4 62q0 30 -6 42.5t-21 23.5h172q71 0 116 -45.5t45 -147.5q0 -76 -26 -143.5t-75.5 -108.5t-115.5 -41h-167q16 11 24 22zM267.5 338q18.5 103 18.5 209q0 70 -10.5 101t-32.5 31q-15 0 -23 -18.5t-13 -65.5l-26 -254
q-2 -15 -2 -40q0 -66 31 -66q39 0 57.5 103zM127.5 11.5q-17.5 19.5 -17.5 48.5q0 35 23 61t54 26q27 0 44.5 -19.5t17.5 -48.5q0 -34 -23.5 -60.5t-54.5 -26.5q-26 0 -43.5 19.5z" />
    <glyph glyph-name="O.swsh.ss01" horiz-adv-x="426" 
d="M85 264.5q-36 50.5 -36 134.5q0 78 30 150t83.5 116.5t119.5 44.5q68 0 104 -50.5t36 -133.5q0 -79 -30 -151t-83.5 -116.5t-119.5 -44.5q-68 0 -104 50.5zM274 319.5q14 80.5 14 188.5q0 177 -46 177q-31 0 -44.5 -81t-13.5 -188q0 -177 45 -177q31 0 45 80.5z
M146.5 11.5q-17.5 19.5 -17.5 48.5q0 34 23.5 60.5t54.5 26.5q26 0 43.5 -19.5t17.5 -48.5q0 -35 -23 -61t-54 -26q-27 0 -44.5 19.5z" />
    <glyph glyph-name="S.swsh.ss01" horiz-adv-x="330" 
d="M88.5 223q-33.5 9 -54.5 21l50 196q2 -64 16 -110.5t34.5 -71t40.5 -24.5q12 0 20 9t8 29q0 39 -40 105l-53 88q-22 35 -32.5 60.5t-10.5 52.5q0 58 47 95t123 37q30 0 55.5 -6t41.5 -17l-59 -176q-7 179 -62 179q-14 0 -23 -10t-9 -32q0 -39 29 -87l56 -95
q30 -48 43 -75t13 -57q0 -55 -47.5 -87.5t-115.5 -32.5q-37 0 -70.5 9zM106.5 11.5q-17.5 19.5 -17.5 48.5q0 34 23.5 60.5t54.5 26.5q26 0 43.5 -19.5t17.5 -48.5q0 -35 -23 -61t-54 -26q-27 0 -44.5 19.5z" />
    <glyph glyph-name="T.swsh.ss01" horiz-adv-x="400" 
d="M121.5 251.5q9.5 16.5 17 52t14.5 103.5l20 189q4 46 4 54q0 15 -3 22t-11 7q-11 0 -27.5 -28.5t-60.5 -115.5l-33 -65h-2l35 232q40 -2 108 -2h129q68 0 110 2l-15 -232h-2l-13 44q-28 99 -40.5 132t-24.5 33q-13 0 -18 -18.5t-9 -64.5l-21 -189q-6 -66 -6 -101
q0 -36 6 -53.5t20 -32.5h-204q17 15 26.5 31.5zM127.5 11.5q-17.5 19.5 -17.5 48.5q0 34 23.5 60.5t54.5 26.5q26 0 43.5 -19.5t17.5 -48.5q0 -35 -23 -61t-54 -26q-27 0 -44.5 19.5z" />
    <glyph glyph-name="V.swsh.ss01" horiz-adv-x="510" 
d="M113 516q-16 79 -30.5 121t-34.5 63h221q-18 -18 -18 -58q0 -38 17 -126l50 -258q78 217 136.5 337t112.5 172.5t118 52.5q53 0 81 -28t28 -70q0 -50 -35.5 -84t-88.5 -34q-8 0 -24 2q7 15 7 32q0 26 -17 43t-44 17q-43 0 -83 -57.5t-92 -180.5t-168 -422l-21 -54z" />
    <glyph glyph-name="W.swsh.ss01" horiz-adv-x="776" 
d="M1032.5 792q28.5 -28 28.5 -70q0 -50 -36 -84t-89 -34q-8 0 -24 2q7 15 7 32q0 26 -17 43t-44 17q-42 0 -81 -55.5t-89.5 -174t-164.5 -410.5l-29 -74l-92 428l-174 -428l-115 532q-17 79 -30 120.5t-35 63.5h221q-19 -19 -19 -57q0 -34 18 -127l50 -259l40 106
q14 35 20 61t6 50q0 22 -4 42q-18 81 -32 122t-33 62h221q-19 -19 -19 -58q0 -20 5 -53.5t12 -72.5l50 -258q79 218 137 338t112 172t118 52q53 0 81.5 -28z" />
    <glyph glyph-name="A.swsh" horiz-adv-x="494" 
d="M264 57q0 31 -15 118q-17 -20 -59.5 -42t-106.5 -31q-9 -36 -9 -59q0 -29 13 -43h-118q38 31 72 98q-9 -1 -29 -1q-109 0 -181 40t-105 104.5t-33 140.5t31.5 141.5t87 104t124.5 38.5q66 0 107.5 -37t41.5 -94q0 -34 -16 -61t-46 -33q3 31 -26 55t-81 24t-90 -24.5
t-58.5 -65t-20.5 -88.5q0 -57 29.5 -108t91.5 -83.5t155 -32.5q20 0 29 1q19 41 29 65l211 532l110 -532q16 -80 31 -122t34 -62h-221q18 18 18 57zM198.5 167.5q38.5 32.5 38.5 67.5q0 7 -1 10l2 -11l-36 205l-92 -255q-14 -36 -21 -61q71 12 109.5 44.5z" />
    <glyph glyph-name="B.swsh" horiz-adv-x="511" 
d="M448 332q41 -47 41 -124q0 -64 -29.5 -111t-81 -72t-116.5 -25h-262q20 14 30.5 27.5t18.5 49t16 107.5l34 324q1 11 1 31q0 77 -31 104.5t-74 27.5q-59 0 -95 -36t-36 -89q0 -32 13.5 -55.5t34 -36t41.5 -12.5q10 0 18 3q1 -5 1 -14q0 -30 -16 -56.5t-43.5 -42
t-60.5 -15.5q-50 0 -84.5 37.5t-34.5 102.5q0 70 40 125.5t108.5 86.5t152.5 31h292q65 0 113 -35t48 -109q0 -45 -18 -83t-50 -61.5t-72 -26.5q60 -6 101 -53zM276.5 665q-9.5 -13 -16.5 -47t-14 -102l-13 -123q119 5 119 173q0 112 -51 112q-15 0 -24.5 -13zM319.5 75
q19.5 53 19.5 131q0 84 -25 125.5t-83 43.5l-20 -191q-5 -48 -5 -73q0 -52 12.5 -70.5t35.5 -18.5q46 0 65.5 53z" />
    <glyph glyph-name="D.swsh" horiz-adv-x="544" 
d="M415 669q51 -31 81.5 -96t30.5 -161q0 -106 -36.5 -200.5t-105.5 -153t-162 -58.5h-223q20 14 30.5 27.5t18.5 49t16 107.5l34 324q1 11 1 31q0 77 -31 104.5t-74 27.5q-59 0 -95 -36t-36 -89q0 -32 13.5 -55.5t34 -36t41.5 -12.5q10 0 18 3q1 -5 1 -14q0 -30 -16 -56.5
t-43.5 -42t-60.5 -15.5q-50 0 -84.5 37.5t-34.5 102.5q0 70 40 125.5t108.5 86.5t152.5 31h267q63 0 114 -31zM345.5 151.5q27.5 124.5 27.5 273.5q0 118 -19 183t-56 65q-20 0 -30.5 -26t-18.5 -101l-40 -384q-3 -25 -3 -46q0 -89 51 -89q61 0 88.5 124.5z" />
    <glyph glyph-name="E.swsh" horiz-adv-x="481" 
d="M343.5 78.5q52.5 52.5 113.5 179.5h3l-55 -258h-405q20 14 30.5 27.5t18.5 49t16 107.5l34 324q1 11 1 31q0 77 -31 104.5t-74 27.5q-59 0 -95 -36t-36 -89q0 -32 13.5 -55.5t34 -36t41.5 -12.5q10 0 18 3q1 -5 1 -14q0 -30 -16 -56.5t-43.5 -42t-60.5 -15.5
q-50 0 -84.5 37.5t-34.5 102.5q0 70 40 125.5t108.5 86.5t152.5 31h433l-10 -256h-3q-34 127 -67.5 178.5t-70.5 51.5q-33 0 -47 -35.5t-23 -121.5l-15 -144v-4q0 -13 10 -13q48 0 88 29t64 97h3l-29 -276h-3q-9 69 -43 98t-82 29q-11 0 -14 -20l5 53l-19 -182
q-6 -51 -6 -85q0 -37 10 -55t35 -18q41 0 93.5 52.5z" />
    <glyph glyph-name="F.swsh" horiz-adv-x="459" 
d="M458 444h-3q-35 127 -68.5 178.5t-70.5 51.5q-33 0 -47 -35.5t-23 -121.5l-16 -153q0 -17 11 -17q48 0 88.5 31t64.5 102h3l-30 -289h-3q-9 70 -43.5 101.5t-82.5 31.5q-11 0 -14 -21l4 38l-17 -157q-7 -62 -7 -100q0 -39 7.5 -54.5t26.5 -29.5h-238q20 14 30.5 27.5
t18.5 49t16 107.5l34 324q1 11 1 31q0 77 -31 104.5t-74 27.5q-59 0 -95 -36t-36 -89q0 -32 13.5 -55.5t34 -36t41.5 -12.5q10 0 18 3q1 -5 1 -14q0 -30 -16 -56.5t-43.5 -42t-60.5 -15.5q-50 0 -84.5 37.5t-34.5 102.5q0 70 40 125.5t108.5 86.5t152.5 31h434z" />
    <glyph glyph-name="H.swsh" horiz-adv-x="569" 
d="M590 700q-20 -14 -30.5 -27.5t-18.5 -49t-16 -107.5l-35 -332q-7 -62 -7 -100q0 -39 7.5 -54.5t26.5 -29.5h-239q20 14 30.5 27.5t18.5 49t16 107.5l1 6q-1 45 -32.5 85.5t-82.5 65.5l-17 -157q-7 -62 -7 -100q0 -39 7.5 -54.5t26.5 -29.5h-239q20 14 30.5 27.5t18.5 49
t16 107.5l19 181q-84 -11 -135.5 -74t-51.5 -154q0 -47 13.5 -83t36.5 -40q-36 -30 -80 -30q-61 0 -93 42t-32 103q0 76 48.5 138t126.5 97.5t161 35.5h10l12 116q7 62 7 100q0 39 -7.5 54.5t-26.5 29.5h239q-20 -14 -30.5 -27.5t-18.5 -49t-16 -107.5l-16 -151
q33 -17 57 -36.5t27 -21.5q23 -21 31 -21q6 0 9 15l23 215q7 62 7 100q0 39 -7.5 54.5t-26.5 29.5h239z" />
    <glyph glyph-name="I.swsh" horiz-adv-x="291" 
d="M280.5 672.5q-10.5 -13.5 -18.5 -49t-16 -107.5l-35 -332q-7 -62 -7 -100q0 -39 7.5 -54.5t26.5 -29.5h-238q20 14 30.5 27.5t18.5 49t16 107.5l34 324q1 11 1 31q0 77 -31 104.5t-74 27.5q-59 0 -95 -36t-36 -89q0 -32 13.5 -55.5t34 -36t41.5 -12.5q10 0 18 3
q1 -5 1 -14q0 -30 -16 -56.5t-43.5 -42t-60.5 -15.5q-50 0 -84.5 37.5t-34.5 102.5q0 70 40 125.5t108.5 86.5t152.5 31h277q-20 -14 -30.5 -27.5z" />
    <glyph glyph-name="J.swsh" horiz-adv-x="272" 
d="M272.5 672.5q-10.5 -13.5 -18.5 -49t-16 -107.5l-37 -356q-7 -66 -34.5 -113.5t-67.5 -71.5t-85 -24q-36 0 -66 16l1 3q44 8 68.5 46t33.5 123l40 377q5 39 6 67q-16 88 -102 88q-59 0 -95 -36t-36 -89q0 -32 13.5 -55.5t34 -36t41.5 -12.5q10 0 18 3q1 -5 1 -14
q0 -30 -16 -56.5t-43.5 -42t-60.5 -15.5q-50 0 -84.5 37.5t-34.5 102.5q0 70 40 125.5t108.5 86.5t152.5 31h269q-20 -14 -30.5 -27.5z" />
    <glyph glyph-name="K.swsh" horiz-adv-x="537" 
d="M414 240q39 -120 59.5 -168t41.5 -72h-196q-1 35 -49 200l-42 144l-17 -160q-7 -62 -7 -100q0 -39 7.5 -54.5t26.5 -29.5h-238q20 14 30.5 27.5t18.5 49t16 107.5l34 324q1 11 1 31q0 77 -31 104.5t-74 27.5q-59 0 -95 -36t-36 -89q0 -32 13.5 -55.5t34 -36t41.5 -12.5
q10 0 18 3q1 -5 1 -14q0 -30 -16 -56.5t-43.5 -42t-60.5 -15.5q-50 0 -84.5 37.5t-34.5 102.5q0 70 40 125.5t108.5 86.5t152.5 31h277q-20 -14 -30.5 -27.5t-18.5 -49t-16 -107.5l-18 -167q102 131 146 200.5t44 105.5q0 30 -31 45h172q-40 -19 -89.5 -73t-127.5 -161z" />
    <glyph glyph-name="L.swsh" horiz-adv-x="456" 
d="M445 288l-69 -287l-376 -1q20 14 30.5 27.5t18.5 49t16 107.5l28 267l3 26l3 28q1 11 1 32q0 134 -105 134q-59 0 -95 -36t-36 -89q0 -32 13.5 -55.5t34 -36t41.5 -12.5q10 0 18 3q1 -5 1 -14q0 -30 -16 -56.5t-43.5 -42t-60.5 -15.5q-50 0 -84.5 37.5t-34.5 102.5
q0 70 40 125.5t108.5 86.5t152.5 31h277q-20 -14 -30.5 -27.5t-18.5 -49t-16 -107.5l-35 -332q-6 -51 -6 -86q0 -36 9 -53.5t30 -17.5q23 0 44.5 21.5t49 64.5t85.5 143l19 32h3z" />
    <glyph glyph-name="M.swsh" horiz-adv-x="682" 
d="M671.5 672.5q-10.5 -13.5 -18.5 -49t-16 -107.5l-35 -332q-7 -62 -7 -100q0 -39 7.5 -54.5t26.5 -29.5h-238q20 14 30.5 27.5t18.5 49t16 107.5l38 368l-229 -562l-133 566l-39 -372q-6 -57 -6 -89t6 -49.5t16.5 -26.5t32.5 -19h-159q28 13 41.5 27t23 49t17.5 108
l34 324q1 11 1 31q0 77 -31 104.5t-74 27.5q-59 0 -95 -36t-36 -89q0 -32 13.5 -55.5t34 -36t41.5 -12.5q10 0 18 3q1 -5 1 -14q0 -30 -16 -56.5t-43.5 -42t-60.5 -15.5q-50 0 -84.5 37.5t-34.5 102.5q0 70 40 125.5t108.5 86.5t152.5 31h229l92 -420l169 420h178
q-20 -14 -30.5 -27.5z" />
    <glyph glyph-name="N.swsh" horiz-adv-x="505" 
d="M542 700q-28 -13 -41.5 -27t-23 -49t-17.5 -108l-27 -252q-8 -77 -12.5 -137.5t-8.5 -146.5h-5l-275 575l-39 -371q-6 -57 -6 -89t6 -49.5t16.5 -26.5t32.5 -19h-159q28 13 41.5 27t23 49t17.5 108l34 324q1 11 1 31q0 77 -31 104.5t-74 27.5q-59 0 -95 -36t-36 -89
q0 -32 13.5 -55.5t34 -36t41.5 -12.5q10 0 18 3q1 -5 1 -14q0 -30 -16 -56.5t-43.5 -42t-60.5 -15.5q-50 0 -84.5 37.5t-34.5 102.5q0 70 40 125.5t108.5 86.5t152.5 31h220q1 -23 24 -71l14 -31l120 -275l20 193q6 59 6 91q0 31 -5.5 48t-15 26t-29.5 19h154z" />
    <glyph glyph-name="P.swsh" horiz-adv-x="497" 
d="M449.5 657.5q51.5 -42.5 51.5 -144.5q0 -110 -65 -170t-187 -60l1 8q56 6 80 84.5t24 171.5q0 127 -49 127q-21 0 -35 -33t-24 -125l-35 -332q-7 -62 -7 -100q0 -39 7.5 -54.5t26.5 -29.5h-238q20 14 30.5 27.5t18.5 49t16 107.5l34 324q1 11 1 31q0 77 -31 104.5
t-74 27.5q-59 0 -95 -36t-36 -89q0 -32 13.5 -55.5t34 -36t41.5 -12.5q10 0 18 3q1 -5 1 -14q0 -30 -16 -56.5t-43.5 -42t-60.5 -15.5q-50 0 -84.5 37.5t-34.5 102.5q0 70 40 125.5t108.5 86.5t152.5 31h292q72 0 123.5 -42.5z" />
    <glyph glyph-name="Q.swsh" horiz-adv-x="544" 
d="M883 -90q-5 -55 -46.5 -85.5t-119.5 -30.5q-59 0 -112.5 17t-95 41t-99.5 62q-60 39 -96 57.5t-70 18.5h1h-9q-99 0 -148.5 82.5t-49.5 209.5q0 107 34.5 205.5t99 160.5t149.5 62q99 0 148.5 -82.5t49.5 -208.5q0 -90 -25 -175.5t-71.5 -149t-109.5 -89.5
q28 -1 64 -12.5t92 -33.5q93 -35 162 -54.5t142 -19.5q71 0 108 29zM215 113q21 -95 65 -95t63.5 98.5t19.5 235.5q0 139 -21.5 234.5t-65.5 95.5t-63 -98t-19 -236q0 -140 21 -235z" />
    <glyph glyph-name="R.swsh" horiz-adv-x="540" 
d="M471.5 89q28.5 -82 55.5 -88q-25 -6 -65 -6q-60 0 -96.5 37.5t-53 87t-30.5 121.5q-9 50 -16.5 72.5t-21.5 22.5l1 3q47 0 69.5 18t29.5 55t7 110q0 152 -49 152q-20 0 -32.5 -32.5t-22.5 -125.5l-35 -332q-7 -62 -7 -100q0 -39 7.5 -54.5t26.5 -29.5h-239
q20 14 30.5 27.5t18.5 49t16 107.5l34 324q1 11 1 31q0 77 -31 104.5t-74 27.5q-59 0 -95 -36t-36 -89q0 -32 13.5 -55.5t34 -36t41.5 -12.5q10 0 18 3q1 -5 1 -14q0 -30 -16 -56.5t-43.5 -42t-60.5 -15.5q-50 0 -84.5 37.5t-34.5 102.5q0 70 40 125.5t108.5 86.5t152.5 31
h298q72 0 118 -43.5t46 -118.5q0 -59 -28 -105.5t-76 -71.5q51 -190 79.5 -272z" />
    <glyph glyph-name="V.swsh" horiz-adv-x="522" 
d="M567 700q-26 -22 -53 -65t-58 -119l-216 -532l-115 532q-17 79 -51 117t-86 38q-53 0 -88 -36.5t-35 -88.5q0 -32 13.5 -55.5t34 -36t41.5 -12.5q9 0 17 3q1 -5 1 -14q0 -30 -16 -56.5t-43.5 -42t-60.5 -15.5q-50 0 -84 39t-34 110q0 69 36 121.5t108.5 82.5t179.5 30
h268q-30 -9 -43.5 -32t-13.5 -63q0 -34 11 -89l50 -257l97 257q37 98 37 140q0 27 -14 44h117z" />
    <glyph glyph-name="W.swsh" horiz-adv-x="779" 
d="M821 700q-27 -22 -54 -65t-57 -119l-214 -532l-89 426l-171 -426l-111 532q-17 79 -51 117t-86 38q-53 0 -88 -36.5t-35 -88.5q0 -32 13.5 -55.5t34 -36t41.5 -12.5q9 0 17 3q1 -5 1 -14q0 -30 -16 -56.5t-43.5 -42t-60.5 -15.5q-50 0 -84 39t-34 110q0 69 36 121.5
t108.5 82.5t179.5 30h223q-19 -19 -19 -56q0 -35 18 -128l46 -257l37 104q22 61 22 112q0 39 -12 91l1 -1q-14 56 -26 87.5t-28 47.5h221q-19 -19 -19 -58q0 -20 5 -53.5t12 -72.5l48 -258l94 258q36 101 36 142q0 26 -13 42h117z" />
    <glyph glyph-name="X.swsh" horiz-adv-x="478" 
d="M431.5 641q-30.5 -39 -73.5 -125l-52 -106l57 -226q16 -64 30 -100.5t27 -53t31 -30.5h-236q10 9 14.5 18.5t4.5 25.5q0 18 -6 49t-21 91l-27 109l-55 -109q-37 -74 -50.5 -106.5t-13.5 -50.5q0 -16 12 -27h-116q24 15 43 32t44 53.5t56 98.5l71 144l-46 188
q-5 23 -14 48q-37 107 -123 107q-53 0 -88 -36.5t-35 -88.5q0 -32 13.5 -55.5t34 -36t41.5 -12.5q9 0 17 3q1 -5 1 -14q0 -30 -16 -56.5t-43.5 -42t-60.5 -15.5q-50 0 -84 39t-34 110q0 102 76.5 165.5t224.5 68.5h236q-16 -15 -16 -46q0 -37 25 -138l18 -72l36 72
q30 61 43 96t13 55t-13 33h116q-31 -20 -61.5 -59z" />
    <glyph glyph-name="i.loclTRK" horiz-adv-x="233" 
d="M5.5 12.5q9.5 10.5 17.5 33.5t11 54l28 261q2 15 2 40q0 50 -19 80l165 29l-43 -410q-2 -22 -2 -30q0 -29 5.5 -42.5t15.5 -27.5h-191q1 2 10.5 12.5zM108.5 589.5q-16.5 19.5 -16.5 48.5q0 32 22 57t52 25q26 0 43 -19t17 -46q0 -34 -22.5 -59.5t-52.5 -25.5
q-26 0 -42.5 19.5z" />
    <glyph glyph-name="i.ss01" horiz-adv-x="233" 
d="M5.5 12.5q9.5 10.5 17.5 33.5t11 54l28 261q2 15 2 40q0 50 -19 80l165 29l-43 -410q-2 -22 -2 -30q0 -29 5.5 -42.5t15.5 -27.5h-191q1 2 10.5 12.5z" />
    <glyph glyph-name="r.ss01" horiz-adv-x="298" 
d="M586 731.5q28 -24.5 28 -63.5q0 -48 -38.5 -74.5t-96.5 -25.5q4 11 4 23q0 20 -13 31t-35 11q-46 0 -99 -49t-97 -149t-62 -243l-10 -92q-2 -22 -2 -30q0 -29 5.5 -42.5t15.5 -27.5h-191q1 2 10.5 12.5t17.5 33.5t11 54l28 261q2 15 2 40q0 50 -19 80l165 29l-18 -168
q30 121 79.5 214.5t111.5 146.5t129 53q46 0 74 -24.5z" />
    <glyph glyph-name="h.swsh.ss01" horiz-adv-x="467" 
d="M396 100q-2 -24 -2 -32q0 -25 5 -38.5t10 -20.5t6 -9h-190q1 2 10.5 12.5t17.5 33.5t11 54l22 205q6 53 6 79q0 35 -11 35q-9 0 -33 -42.5t-46.5 -115t-32.5 -161.5q-2 -22 -2 -30q0 -29 5.5 -42.5t15.5 -27.5h-191q16 17 25.5 36t14.5 64l45 419l-1 -1q4 35 4 68
q0 75 -23 99.5t-63 24.5q-65 0 -101.5 -40.5t-36.5 -97.5q0 -53 28.5 -81t63.5 -28q11 0 20 3q3 -32 -11.5 -59.5t-40.5 -44t-58 -16.5q-46 0 -76 35t-30 101q0 72 37 129.5t103 89.5t150 32h189l-47 -444q20 67 53 117t71.5 77t74.5 27q47 0 47 -52l-1 -14z" />
    <glyph glyph-name="i.ss02" horiz-adv-x="233" 
d="M34 100l19 181q2 20 2 28q0 41 -20 72l165 29l-33 -310q-1 -9 -1 -25q0 -47 20 -75h-191q33 39 39 100z" />
    <glyph glyph-name="a.swsh" horiz-adv-x="700" 
d="M668 342.5q30 -34.5 30 -93.5t-29.5 -118.5t-98.5 -100t-179 -40.5q-76 0 -111 21.5t-35 58.5l1 11l16 148l1 10q-7 -49 -28.5 -107.5t-55 -100t-73.5 -41.5t-66 43.5t-26 122.5q0 86 33.5 168t95.5 134t144 52q29 0 69 -5t65 -14l-27 -262l-3 -25q-7 -68 -7 -96
q0 -40 7.5 -60t21 -27t36.5 -7q50 0 82.5 23.5t47.5 57t15 64.5t-14 54t-36 35t-43 12q-10 0 -19 -3q-3 32 12 59.5t41.5 44t57.5 16.5q45 0 75 -34.5zM228.5 172q22.5 58 37.5 135t15 122q0 60 -30 60q-27 0 -50 -44t-36 -110t-13 -127q0 -94 31 -94q23 0 45.5 58z" />
    <glyph glyph-name="d.swsh" horiz-adv-x="700" 
d="M668 342.5q30 -34.5 30 -93.5t-29.5 -118.5t-98.5 -100t-179 -40.5q-76 0 -111 21.5t-35 58.5l1 11l16 148l1 13q-7 -49 -28.5 -108t-54.5 -101.5t-74 -42.5q-40 0 -66 43.5t-26 122.5q0 86 33.5 168t95.5 134t144 52h5l6 60q3 27 3 48q0 55 -19 82l165 32l-56 -528
q-6 -58 -6 -95q0 -40 7 -60.5t20.5 -27.5t36.5 -7q50 0 82.5 23.5t47.5 57t15 64.5t-14 54t-36 35t-43 12q-10 0 -19 -3q-3 32 12 59.5t41.5 44t57.5 16.5q45 0 75 -34.5zM228.5 172q22.5 58 37.5 135t15 122q0 60 -30 60q-27 0 -50 -44t-36 -110t-13 -127q0 -94 31 -94
q23 0 45.5 58zM266 265l1 8l-1 -1v-7z" />
    <glyph glyph-name="h.swsh" horiz-adv-x="716" 
d="M682 340.5q32 -36.5 32 -102.5q0 -73 -39 -129.5t-108.5 -87.5t-156.5 -31q-54 0 -89.5 9.5t-51 23.5t-13.5 27l27 255q6 56 6 82q0 32 -10 32t-33 -42t-45.5 -113t-32.5 -158l-1 -6q-2 -22 -2 -30q0 -29 5.5 -42.5t15.5 -27.5h-191q1 2 10.5 12.5t17.5 33.5t11 54
l50 470q3 27 3 48q0 55 -19 82l166 33l-47 -443q20 67 53 117t71 76.5t75 26.5q46 0 46 -49q0 -11 -1 -17l-28 -255q-6 -51 -6 -83q0 -55 15.5 -73.5t49.5 -18.5q42 0 74.5 19t50.5 51.5t18 70.5q0 49 -28.5 77t-63.5 28q-10 0 -19 -3q-3 32 11.5 59.5t41.5 44t58 16.5
q45 0 77 -36.5z" />
    <glyph glyph-name="m.swsh" horiz-adv-x="943" 
d="M909 340.5q32 -36.5 32 -102.5q0 -73 -39 -129.5t-108.5 -87.5t-156.5 -31q-54 0 -89.5 9.5t-51 23.5t-13.5 27l27 255q6 56 6 82q0 32 -10 32t-33 -41t-45.5 -111.5t-32.5 -157.5l-1 -9q-2 -24 -2 -32q0 -25 5 -38.5t10 -20.5t6 -9h-191q1 2 10.5 12.5t17.5 33.5t11 54
l22 205q6 56 6 82q0 32 -10 32t-33.5 -42t-46 -113.5t-32.5 -159.5v-4q-5 -49 -5 -77l1 -23h-168q1 2 10.5 12.5t17.5 33.5t11 54l28 261q2 15 2 40q0 50 -19 80l165 29l-23 -221q20 67 53 117t71 77t75 27q46 0 46 -50q0 -10 -1 -16l-16 -153q20 67 52.5 116.5t70.5 76
t75 26.5q46 0 46 -50q0 -10 -1 -16l-28 -255q-6 -51 -6 -84q0 -55 15.5 -73t49.5 -18q42 0 74.5 19t50.5 51.5t18 70.5q0 49 -28.5 77t-63.5 28q-10 0 -19 -3q-3 32 11.5 59.5t41.5 44t58 16.5q45 0 77 -36.5z" />
    <glyph glyph-name="n.swsh" horiz-adv-x="716" 
d="M682 340.5q32 -36.5 32 -102.5q0 -73 -39 -129.5t-108.5 -87.5t-156.5 -31q-54 0 -89.5 9.5t-51 23.5t-13.5 27l27 255q6 56 6 82q0 32 -10 32t-33.5 -42t-46 -113.5t-32.5 -159.5v-4q-5 -49 -5 -77l1 -23h-168q1 2 10.5 12.5t17.5 33.5t11 54l28 261q3 24 3 41
q0 50 -20 79l165 29l-23 -221q20 67 53 117t71 77t75 27q46 0 46 -49q0 -11 -1 -17l-28 -255q-6 -51 -6 -83q0 -55 15.5 -73.5t49.5 -18.5q42 0 74.5 19t50.5 51.5t18 70.5q0 49 -28.5 77t-63.5 28q-10 0 -19 -3q-3 32 11.5 59.5t41.5 44t58 16.5q45 0 77 -36.5z" />
    <glyph glyph-name="p.swsh" horiz-adv-x="466" 
d="M695 -83.5q42 -14.5 67 -37.5l-70 -117q-23 26 -72.5 40.5t-110.5 14.5q-54 0 -104 -10t-122 -29q-64 -17 -108 -26t-88 -9q-63 0 -119 20t-71 70q24 -27 51 -27t46.5 29.5t24.5 79.5l48 448q3 27 3 47q0 31 -5.5 45.5t-14.5 24.5l164 30l-25 -243q9 50 30 106.5t54 96.5
t72 40q40 0 66 -43t26 -123q0 -87 -33.5 -168.5t-96.5 -133.5t-147 -52l-9 -91q-6 -54 -25 -84t-40 -41t-35 -11q57 0 113 19.5t145 60.5q90 43 155.5 65.5t134.5 22.5q54 0 96 -14.5zM250 55q23 44 36 110t13 128q0 93 -31 93q-23 0 -45.5 -58t-37.5 -135t-15 -122
q0 -60 30 -60q27 0 50 44z" />
    <glyph glyph-name="t.swsh" horiz-adv-x="281" 
d="M526 794q30 -35 30 -101q0 -72 -37 -129.5t-103 -89.5t-150 -32h-56l-35 -328q-1 -5 -1 -15q0 -53 47 -53q16 0 32 5h1q-9 -21 -51 -41t-78 -20q-38 0 -62 24.5t-24 64.5l1 13l37 350h-56l212 218l-1 -5q-3 -36 -3 -63q0 -76 22.5 -101.5t62.5 -25.5q65 0 101.5 40.5
t36.5 97.5q0 53 -28.5 81t-63.5 28q-11 0 -20 -3q-2 32 12 59.5t40.5 44t57.5 16.5q46 0 76 -35z" />
    <glyph glyph-name="u.swsh" horiz-adv-x="715" 
d="M681 340.5q32 -36.5 32 -102.5q0 -73 -39 -129.5t-108.5 -87.5t-156.5 -31q-54 0 -89.5 9.5t-51 24t-13.5 27.5l18 162q-20 -68 -53 -118.5t-71 -77.5t-75 -27q-47 0 -47 50q0 10 1 16l36 329q1 8 1 22q0 27 -6.5 45.5t-13.5 28.5l165 29l-34 -315q-6 -55 -6 -81
q0 -32 10 -32q9 0 36.5 48.5t50.5 118.5t24 138q0 36 -6 60t-13 34l165 29l-37 -339q-4 -36 -4 -67q0 -54 15.5 -72t49.5 -18q42 0 74.5 19.5t50.5 51.5t18 70q0 49 -28.5 77t-63.5 28q-10 0 -19 -3q-3 32 11.5 59.5t41.5 44t58 16.5q45 0 77 -36.5z" />
    <glyph glyph-name="v.swsh" horiz-adv-x="397" 
d="M384.5 773q45.5 -38 45.5 -125q0 -10 -2 -36q-4 -40 -21.5 -90.5t-58 -146t-150.5 -343.5l-23 -51h-1l-85 358q-19 82 -32.5 114.5t-34.5 46.5h205q-17 -17 -17 -57q0 -38 14 -104l28 -135q73 175 96.5 241t28.5 114q2 24 2 32q0 52 -19 77.5t-50 25.5q-34 0 -54.5 -25.5
t-20.5 -56.5q0 -5 2 -15q-12 -2 -19 -2q-39 0 -65 25.5t-26 63.5q0 35 21 64t56.5 46t76.5 17q58 0 103.5 -38z" />
    <glyph glyph-name="w.swsh" horiz-adv-x="612" 
d="M600 772.5q45 -38.5 45 -126.5q0 -10 -2 -34q-4 -38 -20 -86.5t-54.5 -137.5t-138.5 -315q-37 -82 -41 -92h-1l-60 256q-22 -47 -51.5 -96t-75.5 -120l-26 -40h-1l-85 358q-20 83 -33 115.5t-34 45.5h205q-17 -17 -17 -57q0 -38 14 -104l38 -182q48 53 48 128q0 26 -6 54
q-20 83 -33 115.5t-34 45.5h205q-17 -17 -17 -57q0 -38 14 -104l28 -135q73 175 96.5 241t28.5 114q2 24 2 32q0 52 -19 77.5t-51 25.5q-33 0 -53.5 -25.5t-20.5 -56.5q0 -5 2 -15q-12 -2 -19 -2q-39 0 -65 25.5t-26 63.5q0 35 21 64t56.5 46t76.5 17q59 0 104 -38.5z" />
    <glyph glyph-name="x.swsh" horiz-adv-x="405" 
d="M369 772.5q45 -38.5 45 -127.5q0 -11 -2 -33q-3 -32 -15.5 -67.5t-43 -96.5t-92.5 -173l49 -158q15 -47 30.5 -72.5t35.5 -44.5h-219q16 10 23.5 22t7.5 29q0 22 -14 67l-19 62l-7 -11q-62 -99 -62 -137q0 -19 16 -32h-137q44 34 78 66t80 96l26 37l-58 186
q-15 46 -30 71t-35 44h199q-14 -17 -14 -41q0 -26 16 -74l27 -88q59 109 80 163t27 99q2 24 2 34q0 51 -19.5 76t-50.5 25q-33 0 -54 -26t-21 -56q0 -5 2 -15q-12 -2 -18 -2q-40 0 -66 25.5t-26 63.5q0 35 21 64t56.5 46t76.5 17q60 0 105 -38.5z" />
    <glyph glyph-name="y.swsh" horiz-adv-x="431" 
d="M418.5 771.5q45.5 -39.5 45.5 -131.5q0 -82 -39 -187.5t-98.5 -215t-147.5 -254.5q-99 -160 -182 -160q-16 0 -28 5.5t-14 10.5l32 109q25 -10 64 -10q52 0 82 20.5t30 61.5q0 17 -4 33l-68 286q-19 83 -32 115.5t-34 45.5h204q-17 -19 -17 -58t14 -103l37 -177
q77 140 113 243t36 180q0 55 -22 82t-59 27t-55 -23.5t-18 -55.5q0 -7 2 -19q-12 -2 -19 -2q-39 0 -64.5 25.5t-25.5 64.5q0 35 23 64.5t60 46t78 16.5q61 0 106.5 -39.5z" />
    <glyph glyph-name="f_t" horiz-adv-x="552" 
d="M444 94q-3 -22 9.5 -35t36.5 -13q18 0 39 7h1q-9 -21 -54.5 -42t-83.5 -21t-60 23.5t-22 64.5l1 14l22 211q3 27 3 50q0 57 -16 87t-44 30q-26 0 -43 -29.5t-25 -108.5l-27 -268q-6 -64 -36 -120t-83.5 -91t-126.5 -35q41 7 68.5 46.5t37.5 134.5l47 447h-66
q28 29 52.5 61t67.5 93q51 74 83 110t58 36q20 0 33 -17.5t13 -45.5q0 -41 -23 -74t-58 -33q-18 0 -36 14q-9 6 -14 9t-14 3q-17 0 -27.5 -13t-10.5 -31q0 -58 121 -58q60 0 116.5 33t117.5 123h2l-16 -157q42 0 70 3l-20 -60h-56z" />
    <glyph glyph-name="fi.ss01" horiz-adv-x="515" 
d="M3.5 -135.5q27.5 39.5 37.5 134.5l47 447h-66q86 179 182.5 257.5t183.5 78.5q55 0 86 -27t31 -70q0 -30 -16 -55.5t-41.5 -40.5t-52.5 -15q-16 0 -28 4q1 4 1 14q0 38 -22.5 72t-67.5 34q-42 0 -67.5 -28.5t-25.5 -67.5q0 -47 41 -79t123 -32q36 0 76.5 5t66.5 14
l-43 -410q-1 -9 -1 -25q0 -47 20 -75h-191q14 16 24.5 38t14.5 62l22 203q3 26 3 46q0 60 -18.5 90.5t-48.5 30.5q-25 0 -41.5 -30t-24.5 -108l-27 -268q-6 -64 -36 -120t-83.5 -91t-126.5 -35q41 7 68.5 46.5z" />
    <glyph glyph-name="zero.osf" horiz-adv-x="450" 
d="M103.5 19q-40.5 29 -62.5 80t-22 115q0 76 30 144.5t83.5 110t119.5 41.5q54 0 94.5 -29t62.5 -80t22 -115q0 -76 -30 -144.5t-83.5 -110t-119.5 -41.5q-54 0 -94.5 29zM246.5 75.5q19.5 61.5 29.5 146.5t10 153q0 55 -8 83.5t-26 28.5q-29 0 -49.5 -61t-30.5 -145
t-10 -152q0 -57 8.5 -86t27.5 -29q29 0 48.5 61.5z" />
    <glyph glyph-name="one.osf" horiz-adv-x="302" 
d="M44.5 37q19.5 27 26.5 93l22 201q4 33 4 58q0 28 -11.5 40.5t-48.5 25.5v5l210 70l-42 -400q-2 -15 -2 -40q0 -43 15 -62.5t53 -27.5h-292q46 10 65.5 37z" />
    <glyph glyph-name="two.osf" horiz-adv-x="395" 
d="M121 163.5q50 59.5 73.5 104t23.5 82.5q0 32 -15.5 52.5t-48.5 20.5q-66 0 -117 -107h-4q18 80 69 137t138 57q66 0 99 -33.5t33 -80.5q0 -51 -37 -99.5t-86.5 -86t-128.5 -89.5q99 0 162 12.5t95 51.5l-84 -185h-318q96 104 146 163.5z" />
    <glyph glyph-name="three.osf" horiz-adv-x="416" 
d="M252 243q50 0 83.5 -37.5t33.5 -106.5q0 -75 -39.5 -147t-105 -117t-139.5 -45q-38 0 -72.5 11.5t-55.5 29.5q19 -4 40 -4q59 0 110 31t81.5 81.5t30.5 106.5q0 48 -21 67.5t-51 19.5q-19 0 -35 -6l73 99h1l107 145h-31q-68 0 -107.5 -4.5t-71 -20.5t-56.5 -50l84 204
h310l-196 -260q14 3 27 3z" />
    <glyph glyph-name="four.osf" horiz-adv-x="426" 
d="M302 -59q-1 -9 -1 -25q0 -45 19 -75l-196 -34q34 36 40 100l11 103h-199l387 515l-48 -463h85l-24 -52h-67zM203 277l-160 -215h138z" />
    <glyph glyph-name="five.osf" horiz-adv-x="393" 
d="M318 203q35 -42 35 -115t-35.5 -142.5t-95.5 -112.5t-130 -43q-37 0 -71.5 10.5t-49.5 22.5q17 -4 39 -4q54 0 98.5 31t70 81.5t25.5 106.5q0 105 -90 105q-44 0 -88 -25l60 382h79q192 0 229 21l-65 -150h-234l-32 -195q95 69 164 69q56 0 91 -42z" />
    <glyph glyph-name="six.osf" horiz-adv-x="451" 
d="M117.5 19q-39.5 29 -62 86t-22.5 137q0 108 39.5 217t110.5 180t159 71q33 0 55 -10q-90 0 -141.5 -104t-69.5 -272q-8 -80 -8 -155q0 -157 41 -157q31 0 49 76t18 154q0 62 -16.5 100.5t-54.5 38.5q-9 0 -20 -3q22 38 53 55.5t64 17.5q60 0 89 -51t29 -127
q0 -75 -27.5 -140t-78 -104t-116.5 -39q-51 0 -90.5 29z" />
    <glyph glyph-name="seven.osf" horiz-adv-x="409" 
d="M454 500q-54 -45 -121.5 -162t-117 -263t-54.5 -275h-154q5 124 64 242.5t132.5 205t124.5 123.5h-80q-70 0 -110 -4.5t-71 -20.5t-56 -50l85 204h358z" />
    <glyph glyph-name="eight.osf" horiz-adv-x="431" 
d="M373.5 478.5q-32.5 -41.5 -76.5 -64.5q41 -58 60.5 -88.5t32.5 -65.5t13 -72q0 -56 -29.5 -101.5t-80 -71t-111.5 -25.5q-79 0 -125 42t-46 113t43 122t99 70q-38 56 -56.5 98t-18.5 89q0 54 25 96.5t68.5 66t95.5 23.5q64 0 101.5 -36t37.5 -96q0 -58 -32.5 -99.5z
M229.5 663.5q-16.5 -22.5 -16.5 -59.5q0 -70 71 -172q18 35 26.5 67t8.5 73q0 49 -12.5 81.5t-38.5 32.5q-22 0 -38.5 -22.5zM235 43.5q22 28.5 22 76.5q0 41 -18.5 81t-62.5 103l-14 20q-22 -34 -34 -80t-12 -90q0 -57 18.5 -98t51.5 -41q27 0 49 28.5z" />
    <glyph glyph-name="nine.osf" horiz-adv-x="455" 
d="M334 481q39 -29 61.5 -85.5t22.5 -136.5q0 -109 -39.5 -218t-110.5 -180t-159 -71q-31 0 -54 10q90 0 141.5 104.5t68.5 272.5q9 90 9 156q0 155 -42 155q-31 0 -49 -76.5t-18 -153.5q0 -63 17 -101t55 -38q10 0 20 3q-22 -38 -53.5 -55.5t-64.5 -17.5q-60 0 -89 51
t-29 127q0 75 27.5 140t78 104t117.5 39q51 0 90 -29z" />
    </font>
</defs>
</svg>
