<?xml version="1.0" standalone="no"?>
<!DOCTYPE svg PUBLIC "-//W3C//DTD SVG 1.1//EN" "http://www.w3.org/Graphics/SVG/1.1/DTD/svg11.dtd" >
<svg xmlns="http://www.w3.org/2000/svg" xmlns:xlink="http://www.w3.org/1999/xlink" version="1.1">
<metadata>
Created by FontForge 20170731 at Fri Jul 19 02:16:28 2019
 By Aleksey,,,
Copyright (c) 2019 by Connary Fagen. All rights reserved.
</metadata>
<defs>
<font id="WayfinderCF-ExtraBold" horiz-adv-x="504" >
  <font-face 
    font-family="Wayfinder CF Extra Bold"
    font-weight="800"
    font-stretch="normal"
    units-per-em="1000"
    panose-1="0 0 9 0 0 0 0 0 0 0"
    ascent="800"
    descent="-200"
    x-height="500"
    cap-height="700"
    bbox="-450 -288 1044 931"
    underline-thickness="50"
    underline-position="-150"
    unicode-range="U+0020-FB01"
  />
<missing-glyph horiz-adv-x="500" 
d="M410 -200h-317v1000h317v-1000zM168 733v-33h65v-37h-66v-33h166v33h-66v37h66v33h-165zM167 604v-104h166v34h-66v70h-100zM233 534h-33v36h33v-36zM167 473v-33h66v-37h-66v-33h100v70h66v33h-166zM300 413v-66h-133v-34h166v100h-33zM233 291v-56h34v23h33v-47h-100
v80h-33v-113h166v113h-100zM167 118v-113h166v113h-166zM300 38h-100v47h100v-47zM167 -18v-33h70l-70 -47v-33h166v33h-102l70 47h32v33h-166z" />
    <glyph glyph-name="fi" unicode="fi" horiz-adv-x="548" 
d="M58 100v340h-40q28 169 76 237.5t103 68.5q34 0 51 -22.5t17 -56.5q0 -43 -21.5 -76t-60.5 -33q-17 0 -28.5 6t-24.5 17q-2 1 -8.5 6t-12.5 7.5t-12 2.5q-12 0 -20.5 -10.5t-8.5 -26.5q0 -36 59.5 -52.5t183.5 -16.5q49 0 105 4.5t85 14.5v-410q0 -62 29 -100h-221
q29 38 29 100v195q0 81 -23 127t-57 46q-17 0 -27 -13.5t-10 -37.5v-317q0 -75 39 -100h-236q34 29 34 100zM355.5 594q-16.5 29 -16.5 60q0 38 25.5 64t63.5 26q34 0 56 -22.5t22 -58.5q0 -37 -22.5 -60.5t-51 -34t-45.5 -10.5q-15 7 -31.5 36z" />
    <glyph glyph-name=".notdef" horiz-adv-x="500" 
d="M410 -200h-317v1000h317v-1000zM168 733v-33h65v-37h-66v-33h166v33h-66v37h66v33h-165zM167 604v-104h166v34h-66v70h-100zM233 534h-33v36h33v-36zM167 473v-33h66v-37h-66v-33h100v70h66v33h-166zM300 413v-66h-133v-34h166v100h-33zM233 291v-56h34v23h33v-47h-100
v80h-33v-113h166v113h-100zM167 118v-113h166v113h-166zM300 38h-100v47h100v-47zM167 -18v-33h70l-70 -47v-33h166v33h-102l70 47h32v33h-166z" />
    <glyph glyph-name=".null" horiz-adv-x="0" 
 />
    <glyph glyph-name="nonmarkingreturn" horiz-adv-x="333" 
 />
    <glyph glyph-name="space" unicode=" " horiz-adv-x="140" 
 />
    <glyph glyph-name="exclam" unicode="!" horiz-adv-x="244" 
d="M99.5 316q-13.5 48 -34.5 111q-21 67 -30.5 103t-9.5 69q0 59 30.5 85t66.5 26t66.5 -26t30.5 -85q0 -33 -9.5 -69t-30.5 -103q-21 -63 -34.5 -111t-21.5 -101h-2q-8 53 -21.5 101zM58.5 20.5q-26.5 30.5 -26.5 72.5t26.5 72t63.5 30t63.5 -30t26.5 -72t-26.5 -72.5
t-63.5 -30.5t-63.5 30.5z" />
    <glyph glyph-name="quotedbl" unicode="&#x22;" horiz-adv-x="415" 
d="M224 700h176l-88 -326zM15 700h176l-88 -326z" />
    <glyph glyph-name="numbersign" unicode="#" horiz-adv-x="576" 
d="M422 476l-58 -251h144v-24h-150l-70 -300h-23l70 300h-168l-70 -300h-23l70 300h-129v24h135l58 251h-140v24h146l70 300h23l-70 -300h168l70 300h23l-70 -300h133v-24h-139zM399 476h-168l-58 -251h168z" />
    <glyph glyph-name="dollar" unicode="$" horiz-adv-x="357" 
d="M328.5 381q15.5 -31 15.5 -64q0 -61 -51 -94t-122 -33q-16 0 -24 1l-12 -71h-25l13 74q-47 8 -86 30l-5 180q56 -115 98 -164l18 105q-2 4 -8 12l-66 93q-46 67 -46 125q0 62 42.5 98.5t110.5 36.5q9 0 29 -2l12 72h25l-13 -75q49 -11 72 -29l16 -170l-22 38
q-48 88 -73 117l-18 -104l73 -101q31 -44 46.5 -75zM170.5 623.5q5.5 -15.5 18.5 -35.5l16 93q-7 6 -16 6q-24 0 -24 -33q0 -15 5.5 -30.5zM191 219q7 8 7 22q0 29 -30 75l-16 -96q12 -9 22 -9t17 8z" />
    <glyph glyph-name="percent" unicode="%" horiz-adv-x="471" 
d="M45.5 496.5q-27.5 36.5 -27.5 88.5t27.5 88.5t72.5 36.5t72.5 -36.5t27.5 -88.5t-27.5 -88.5t-72.5 -36.5t-72.5 36.5zM360 700h20l-269 -550h-20zM177.5 509q21.5 31 21.5 76t-21.5 76t-59.5 31t-59.5 -31t-21.5 -76t21.5 -76t59.5 -31t59.5 31zM280.5 176.5
q-27.5 36.5 -27.5 88.5t27.5 88.5t72.5 36.5t72.5 -36.5t27.5 -88.5t-27.5 -88.5t-72.5 -36.5t-72.5 36.5zM412.5 189q21.5 31 21.5 76t-21.5 76t-59.5 31t-59.5 -31t-21.5 -76t21.5 -76t59.5 -31t59.5 31z" />
    <glyph glyph-name="ampersand" unicode="&#x26;" horiz-adv-x="577" 
d="M473.5 366.5q-37.5 -46.5 -72.5 -124.5l24 -50q38 -79 64.5 -110t60.5 -31q12 0 22 6q0 -15 -15 -30.5t-40 -26t-54 -10.5q-80 0 -142 81q-23 -36 -60.5 -58.5t-80.5 -22.5q-46 0 -83 25t-58 68.5t-21 98.5q0 53 19 90.5t48 61.5t75 51l-23 47q-22 45 -32.5 75.5
t-10.5 60.5q0 45 23 76.5t59.5 47t76.5 15.5q49 0 86 -29t37 -90q0 -45 -21.5 -74t-59.5 -53l98 -204q5 32 5 54q0 44 -13.5 75t-40.5 43v3h228v-3q-61 -16 -98.5 -62.5zM242.5 674q-10.5 -14 -10.5 -42q0 -29 12.5 -61.5t38.5 -86.5q32 45 32 111q0 39 -10 66t-33 27
q-19 0 -29.5 -14zM303 96q-15 24 -30 54l-103 214q-14 -26 -14 -60q0 -42 18 -91.5t49 -83.5t68 -34q8 0 12 1z" />
    <glyph glyph-name="quotesingle" unicode="'" horiz-adv-x="206" 
d="M15 700h176l-88 -326z" />
    <glyph glyph-name="parenleft" unicode="(" horiz-adv-x="309" 
d="M144.5 -80q-61.5 40 -88 119t-26.5 203v216q0 125 27 204t88.5 118.5t163.5 39.5v-6q-47 -9 -69.5 -58t-29.5 -141t-7 -265t7 -265t29.5 -141t69.5 -58v-6q-103 0 -164.5 40z" />
    <glyph glyph-name="parenright" unicode=")" horiz-adv-x="309" 
d="M0 -114q47 9 70 58.5t30 141.5t7 264t-7 264t-30 141.5t-70 58.5v6q102 0 163.5 -39.5t88.5 -118.5t27 -204v-216q0 -124 -26.5 -203.5t-87.5 -119t-165 -39.5v6z" />
    <glyph glyph-name="asterisk" unicode="*" horiz-adv-x="488" 
d="M233 542q-19 31 -30 56.5t-11 51.5q0 32 16 46t36 14t36 -14t16 -46q0 -26 -11 -51.5t-30 -56.5l-11 -20zM70.5 501q-23.5 14 -23.5 41q0 21 15.5 36t39.5 15q32 0 61.5 -24t68.5 -65l-23 -5q-18 -4 -39.5 -8t-39.5 -4q-36 0 -59.5 14zM279 499l-23 5q37 40 67 64.5
t63 24.5q26 0 40.5 -15t14.5 -36q0 -27 -23.5 -41t-58.5 -14q-25 0 -80 12zM115.5 343q-15.5 15 -15.5 35q0 26 22 47t46 32.5t68 29.5l-3 -23q-3 -37 -10 -63.5t-25 -46.5q-23 -26 -46 -26q-21 0 -36.5 15zM290 354q-17 22 -24.5 50.5t-10.5 62.5l-3 20q42 -17 67.5 -29.5
t47 -33t21.5 -46.5q0 -20 -15 -35t-36 -15q-27 0 -47 26z" />
    <glyph glyph-name="plus" unicode="+" horiz-adv-x="280" 
d="M255 293h-104v-104h-21v104h-105v21h105v105h21v-105h104v-21z" />
    <glyph glyph-name="comma" unicode="," horiz-adv-x="221" 
d="M174.5 163q26.5 -32 26.5 -81q0 -61 -39.5 -116.5t-92.5 -83.5l-2 3q18 22 25 48.5t8 57.5q-34 4 -57 33.5t-23 68.5q0 42 26.5 72t63.5 30q38 0 64.5 -32z" />
    <glyph glyph-name="hyphen" unicode="-" horiz-adv-x="280" 
d="M25 314h230v-21h-230v21z" />
    <glyph glyph-name="period" unicode="." horiz-adv-x="221" 
d="M46.5 20.5q-26.5 30.5 -26.5 72.5t26.5 72t63.5 30t64 -30.5t27 -71.5q0 -42 -27 -72.5t-64 -30.5t-63.5 30.5z" />
    <glyph glyph-name="slash" unicode="/" horiz-adv-x="230" 
d="M210 800h20l-210 -899h-20z" />
    <glyph glyph-name="zero" unicode="0" horiz-adv-x="521" 
d="M139 38.5q-51 48.5 -77.5 130.5t-26.5 181t26.5 181t77.5 130.5t121 48.5q71 0 122 -48.5t77.5 -130.5t26.5 -181t-26.5 -181t-77.5 -130.5t-122 -48.5q-70 0 -121 48.5zM312 172q0 92 -7.5 213t-24 210.5t-41.5 89.5q-30 0 -30 -159q0 -91 7.5 -211.5t24 -210
t41.5 -89.5q30 0 30 157z" />
    <glyph glyph-name="one" unicode="1" horiz-adv-x="309" 
d="M58.5 34.5q15.5 24.5 15.5 75.5v334q0 45 -3 61t-16 25.5t-50 22.5v5l230 172v-620q0 -51 15.5 -75.5t53.5 -34.5h-299q38 10 53.5 34.5z" />
    <glyph glyph-name="two" unicode="2" horiz-adv-x="418" 
d="M271.5 148q46.5 4 81.5 19t57 46l-67 -213h-345q114 172 163.5 285.5t49.5 206.5q0 52 -17 89.5t-56 37.5q-61 0 -101 -103h-4q9 80 55.5 137t134.5 57q59 0 97 -26t55 -65.5t17 -80.5q0 -61 -35 -124t-83.5 -118t-128.5 -135l-17 -17h19q78 0 124.5 4z" />
    <glyph glyph-name="three" unicode="3" horiz-adv-x="413" 
d="M265 463q35 0 65 -21t48.5 -63t18.5 -102q0 -77 -35 -143t-95.5 -105t-133.5 -39q-40 0 -76 11.5t-59 29.5q18 -3 35 -3q59 0 103.5 30.5t68 79t23.5 99.5q0 52 -22 74t-52 22q-17 0 -29 -6l73 117l2 1l71 111h-34q-67 0 -106 -4.5t-68.5 -20.5t-50.5 -50l70 219h313
l-155 -240q12 3 25 3z" />
    <glyph glyph-name="four" unicode="4" horiz-adv-x="423" 
d="M349.5 34.5q15.5 -24.5 53.5 -34.5h-299q38 10 53.5 34.5t15.5 75.5v29h-175l336 590v-538h86l-19 -52h-67v-29q0 -51 15.5 -75.5zM173 191v207l-114 -207h114z" />
    <glyph glyph-name="five" unicode="5" horiz-adv-x="399" 
d="M305 433q35 -24 55.5 -68.5t20.5 -102.5q0 -71 -31 -133.5t-87 -100.5t-125 -38q-38 0 -73.5 10.5t-51.5 22.5q17 -4 38 -4q49 0 85.5 28.5t55.5 75t19 99.5q0 55 -23 86.5t-72 31.5q-40 0 -79 -22l20 382h90q194 0 228 21l-49 -165h-248l-10 -177q89 78 161 78
q41 0 76 -24z" />
    <glyph glyph-name="six" unicode="6" horiz-adv-x="479" 
d="M133 26.5q-49 36.5 -77 107.5t-28 170q0 112 36 205t97.5 147t134.5 54q38 0 62 -10q-85 0 -122 -106t-37 -284q0 -99 12 -198.5t40 -99.5q18 0 27 45.5t9 110.5q0 91 -16 151.5t-56 60.5q-3 0 -13 -2q15 37 44.5 55t63.5 18q73 0 106.5 -64t33.5 -149q0 -76 -26 -132
t-73 -86t-108 -30t-110 36.5z" />
    <glyph glyph-name="seven" unicode="7" horiz-adv-x="424" 
d="M352.5 554q-48.5 -105 -80.5 -239.5t-32 -260.5q0 -18 2 -54h-183q-1 11 -1 31q0 120 49 229.5t112 186.5t108 109h-90q-77 0 -117 -4.5t-68 -20.5t-49 -50l70 219h373q-45 -41 -93.5 -146z" />
    <glyph glyph-name="eight" unicode="8" horiz-adv-x="440" 
d="M367 327.5q25 -35.5 40 -73t15 -77.5q0 -57 -27 -99.5t-75 -65t-108 -22.5q-87 0 -140.5 47.5t-53.5 124.5q0 45 18 80.5t45.5 57.5t56.5 29q-48 63 -70.5 109.5t-22.5 97.5q0 80 50.5 127t129.5 47q72 0 115.5 -40.5t43.5 -105.5q0 -53 -27 -90.5t-62 -53.5
q47 -57 72 -92.5zM201 668.5q-11 -17.5 -11 -45.5q0 -37 21 -80t65 -98q10 48 10 87q0 58 -14 106t-43 48q-17 0 -28 -17.5zM250 38q15 23 15 63q0 45 -21 83.5t-77 107.5l-16 20q-17 -58 -17 -113q0 -45 10 -88t28 -69.5t41 -26.5q22 0 37 23z" />
    <glyph glyph-name="nine" unicode="9" horiz-adv-x="478" 
d="M120 0q84 0 121.5 106t37.5 284q0 99 -12 198.5t-40 99.5q-18 0 -27 -45.5t-9 -110.5q0 -91 16 -151.5t56 -60.5q3 0 13 2q-16 -37 -45.5 -55t-62.5 -18q-73 0 -106.5 64t-33.5 149q0 76 26 132t73 86t108 30t110 -36.5t77 -107.5t28 -170q0 -112 -36 -205t-97.5 -147
t-134.5 -54q-38 0 -62 10z" />
    <glyph glyph-name="colon" unicode=":" horiz-adv-x="221" 
d="M46.5 320.5q-26.5 30.5 -26.5 72.5t26.5 72t63.5 30t64 -30.5t27 -71.5q0 -42 -27 -72.5t-64 -30.5t-63.5 30.5zM46.5 20.5q-26.5 30.5 -26.5 72.5t26.5 72t63.5 30t64 -30.5t27 -71.5q0 -42 -27 -72.5t-64 -30.5t-63.5 30.5z" />
    <glyph glyph-name="semicolon" unicode=";" horiz-adv-x="221" 
d="M174.5 163q26.5 -32 26.5 -81q0 -61 -39.5 -116.5t-92.5 -83.5l-2 3q18 22 25 48.5t8 57.5q-34 4 -57 33.5t-23 68.5q0 42 26.5 72t63.5 30q38 0 64.5 -32zM46.5 320.5q-26.5 30.5 -26.5 72.5t26.5 72t63.5 30t64 -30.5t27 -71.5q0 -42 -27 -72.5t-64 -30.5t-63.5 30.5z
" />
    <glyph glyph-name="less" unicode="&#x3c;" horiz-adv-x="153" 
d="M26 229l74 74l-75 76l15 14l88 -90l-88 -89z" />
    <glyph glyph-name="equal" unicode="=" horiz-adv-x="280" 
d="M25 374h230v-21h-230v21zM25 254h230v-21h-230v21z" />
    <glyph glyph-name="greater" unicode="&#x3e;" horiz-adv-x="153" 
d="M25 303l88 90l15 -14l-75 -76l74 -74l-14 -15z" />
    <glyph glyph-name="question" unicode="?" horiz-adv-x="409" 
d="M177 311q0 24 6 51t18 66q15 54 22.5 89t7.5 73q0 46 -10 68.5t-23 22.5q-24 0 -53 -77t-66 -206h-3l-41 244q33 30 79 49t99 19q80 0 128 -43t48 -110q0 -36 -14.5 -65.5t-35 -51.5t-54.5 -53q-42 -38 -62.5 -64.5t-20.5 -59.5q0 -16 5 -31h-2q-28 32 -28 79zM132 20.5
q-27 30.5 -27 72.5q0 41 27 71.5t64 30.5t63.5 -30.5t26.5 -71.5q0 -42 -26.5 -72.5t-63.5 -30.5t-64 30.5z" />
    <glyph glyph-name="at" unicode="@" horiz-adv-x="690" 
d="M191.5 -87.5q-71.5 39.5 -117.5 123.5t-46 210q0 131 49 219.5t129 131.5t174 43q119 0 200.5 -72t81.5 -247q0 -95 -25 -156.5t-63 -89.5t-78 -28q-109 0 -109 136v222q0 40 -21 40q-17 0 -32 -21.5t-24 -61.5t-9 -92q0 -61 13.5 -105.5t43.5 -44.5q11 0 19 6.5t8 19.5
q0 -47 -19.5 -73t-53.5 -26q-55 0 -87.5 49.5t-32.5 133.5q0 76 26 129.5t69 80.5t95 27q23 0 58.5 -3.5t49.5 -8.5l-1 -263q0 -59 9.5 -87t24.5 -28q14 0 22 12.5t12 45.5t4 95q0 180 -46.5 279.5t-170.5 99.5q-208 0 -208 -313q0 -206 82 -290t206 -84q60 0 94 14l3 -3
q-26 -22 -73.5 -41t-106.5 -19q-78 0 -149.5 39.5z" />
    <glyph glyph-name="A" unicode="A" horiz-adv-x="510" 
d="M255 0q14 17 14 42q0 19 -6 45t-19 70h-128q-15 -63 -15 -100q0 -39 17 -57h-120q26 23 47.5 65.5t44.5 118.5l164 532l174 -532q26 -81 44 -122t40 -62h-257zM176 385l-53 -200h113z" />
    <glyph glyph-name="B" unicode="B" horiz-adv-x="544" 
d="M449 358q38 -24 60 -66.5t22 -99.5q0 -100 -66 -146t-158 -46h-284q19 14 28 27.5t13.5 49t4.5 107.5v332q0 72 -4.5 107.5t-13.5 49t-28 27.5h275q77 0 134.5 -40t57.5 -126q0 -70 -38 -107.5t-86 -41.5q45 -3 83 -27zM259.5 665q-5.5 -13 -8 -47t-2.5 -102v-123
q41 2 60 33.5t19 101.5q0 62 -13.5 106t-38.5 44q-11 0 -16.5 -13zM341 57q12 35 12 105q0 95 -23 152.5t-81 60.5v-191q0 -68 5 -103t15 -47t26 -12q34 0 46 35z" />
    <glyph glyph-name="C" unicode="C" horiz-adv-x="495" 
d="M164.5 37.5q-61.5 47.5 -99 132t-37.5 189.5q0 91 31.5 171t96 130t157.5 50q58 0 113 -17q7 -51 23 -206q1 -18 5 -54h-3l-37 63q-61 106 -89 146t-50 40q-16 0 -32.5 -18.5t-28.5 -61.5t-12 -111q0 -89 23 -178.5t70 -148.5t114 -59q40 0 63 23q-7 -30 -29.5 -62
t-60 -54t-85.5 -22q-71 0 -132.5 47.5z" />
    <glyph glyph-name="D" unicode="D" horiz-adv-x="571" 
d="M51 27.5q9 13.5 13.5 49t4.5 107.5v332q0 72 -4.5 107.5t-13.5 49t-28 27.5h250q69 0 131 -38t100.5 -115.5t38.5 -190.5q0 -112 -38 -192.5t-101 -122t-136 -41.5h-245q19 14 28 27.5zM343 89q12 62 12 185q0 110 -10 201t-28.5 144.5t-43.5 53.5q-14 0 -19 -26t-5 -101
v-384q0 -135 50 -135q32 0 44 62z" />
    <glyph glyph-name="E" unicode="E" horiz-adv-x="493" 
d="M480 270l-26 -270h-431q19 14 28 27.5t13.5 49t4.5 107.5v332q0 72 -4.5 107.5t-13.5 49t-28 27.5h411l17 -260h-3q-93 234 -158 234q-20 0 -29 -18t-10.5 -46.5t-1.5 -92.5v-146q0 -17 12 -17q35 0 71.5 31t52.5 99h3v-286h-3q-16 68 -52.5 99.5t-71.5 31.5
q-12 0 -12 -17v-128q0 -65 1.5 -93.5t11 -46.5t31.5 -18q32 0 81 53t103 191h3z" />
    <glyph glyph-name="F" unicode="F" horiz-adv-x="473" 
d="M261 656q-9 -18 -10.5 -46.5t-1.5 -92.5v-155q0 -17 12 -17q37 0 74.5 34t53.5 104h3v-301h-3q-16 69 -54 103.5t-74 34.5q-12 0 -12 -17v-119q0 -72 4.5 -107.5t13.5 -49t28 -27.5h-272q19 14 28 27.5t13.5 49t4.5 107.5v332q0 72 -4.5 107.5t-13.5 49t-28 27.5h415
l17 -260h-3q-94 234 -162 234q-20 0 -29 -18z" />
    <glyph glyph-name="G" unicode="G" horiz-adv-x="541" 
d="M157 36q-58 46 -93.5 128t-35.5 183q0 95 32.5 178t98 134t159.5 51q61 0 116 -17q19 -163 29 -257h-3q-57 116 -107 180.5t-81 64.5q-25 0 -45.5 -45.5t-20.5 -156.5q0 -98 15.5 -206.5t39.5 -181.5t48 -73t24 45v63q0 103 -11.5 149.5t-40.5 75.5h247
q-26 -29 -36 -75.5t-10 -149.5v-128h-2q-13 13 -27 19t-34 6q-19 0 -34 -4t-35 -12q-18 -8 -34.5 -12.5t-37.5 -4.5q-63 0 -121 46z" />
    <glyph glyph-name="H" unicode="H" horiz-adv-x="608" 
d="M543.5 76.5q4.5 -35.5 13.5 -49t28 -27.5h-272q19 14 28 27.5t13.5 49t4.5 107.5v125q0 21 -6.5 25.5t-24.5 4.5h-48q-18 0 -24.5 -4.5t-6.5 -25.5v-125q0 -72 4.5 -107.5t13.5 -49t28 -27.5h-272q19 14 28 27.5t13.5 49t4.5 107.5v332q0 72 -4.5 107.5t-13.5 49
t-28 27.5h272q-19 -14 -28 -27.5t-13.5 -49t-4.5 -107.5v-119q0 -21 6.5 -25.5t24.5 -4.5h48q18 0 24.5 4.5t6.5 25.5v119q0 72 -4.5 107.5t-13.5 49t-28 27.5h272q-19 -14 -28 -27.5t-13.5 -49t-4.5 -107.5v-332q0 -72 4.5 -107.5z" />
    <glyph glyph-name="I" unicode="I" horiz-adv-x="318" 
d="M51 27.5q9 13.5 13.5 49t4.5 107.5v332q0 72 -4.5 107.5t-13.5 49t-28 27.5h272q-19 -14 -28 -27.5t-13.5 -49t-4.5 -107.5v-332q0 -72 4.5 -107.5t13.5 -49t28 -27.5h-272q19 14 28 27.5z" />
    <glyph glyph-name="J" unicode="J" horiz-adv-x="305" 
d="M-3 -33v3q28 5 44 22.5t23 53t7 96.5v374q0 72 -4.5 107.5t-13.5 49t-28 27.5h272q-19 -14 -28 -27.5t-13.5 -49t-4.5 -107.5v-356q0 -66 -27 -113.5t-69 -71.5t-88 -24q-38 0 -70 16z" />
    <glyph glyph-name="K" unicode="K" horiz-adv-x="597" 
d="M253.5 76.5q4.5 -35.5 13.5 -49t28 -27.5h-272q19 14 28 27.5t13.5 49t4.5 107.5v332q0 72 -4.5 107.5t-13.5 49t-28 27.5h272q-19 -14 -28 -27.5t-13.5 -49t-4.5 -107.5v-332q0 -72 4.5 -107.5zM554.5 72q25.5 -48 48.5 -72h-226q-6 39 -70 200l-56 144q79 117 109 180
t30 110q0 46 -32 66h199q-76 -37 -189 -207l109 -253q52 -120 77.5 -168z" />
    <glyph glyph-name="L" unicode="L" horiz-adv-x="481" 
d="M51 27.5q9 13.5 13.5 49t4.5 107.5v332q0 72 -4.5 107.5t-13.5 49t-28 27.5h272q-19 -14 -28 -27.5t-13.5 -49t-4.5 -107.5v-332q0 -64 1.5 -92.5t10.5 -46.5t30 -18q23 0 61.5 57.5t116.5 215.5h3l-40 -299l-409 -1q19 14 28 27.5z" />
    <glyph glyph-name="M" unicode="M" horiz-adv-x="723" 
d="M658.5 76.5q4.5 -35.5 13.5 -49t28 -27.5h-272q19 14 28 27.5t13.5 49t4.5 107.5v364l-176 -558l-199 567v-373q0 -74 6 -108.5t19 -48.5t43 -27h-159q27 13 39 27t18 49t6 108v332q0 72 -7 107.5t-20 49t-41 27.5h248l125 -372l111 372h213q-19 -14 -28 -27.5t-13.5 -49
t-4.5 -107.5v-332q0 -72 4.5 -107.5z" />
    <glyph glyph-name="N" unicode="N" horiz-adv-x="517" 
d="M475 673q-12 -14 -18 -49t-6 -108v-252q0 -81 1.5 -133.5t6.5 -150.5h-5l-355 573v-369q0 -74 6 -108.5t19 -48.5t43 -27h-159q27 13 39 27t18 49t6 108v332q0 72 -7 107.5t-20 49t-41 27.5h246q2 -17 11 -35t20.5 -38t16.5 -29l126 -215v133q0 73 -6 108t-18 49t-39 27
h154q-27 -13 -39 -27z" />
    <glyph glyph-name="O" unicode="O" horiz-adv-x="566" 
d="M142.5 40.5q-57.5 50.5 -86 132.5t-28.5 177q0 98 29.5 180t87 131t138.5 49q84 0 141 -50.5t85 -132.5t28 -177q0 -99 -29 -181t-86 -130.5t-138 -48.5q-84 0 -141.5 50.5zM356.5 53.5q8.5 35.5 8.5 106.5q0 105 -14 227.5t-41.5 208.5t-66.5 86q-25 0 -33.5 -35.5
t-8.5 -106.5q0 -105 14 -227.5t41.5 -208.5t66.5 -86q25 0 33.5 35.5z" />
    <glyph glyph-name="P" unicode="P" horiz-adv-x="529" 
d="M51 27.5q9 13.5 13.5 49t4.5 107.5v332q0 72 -4.5 107.5t-13.5 49t-28 27.5h275q53 0 102.5 -19.5t82.5 -67t33 -126.5q0 -204 -239 -204v8q28 4 43 48t15 142q0 86 -12 139.5t-39 53.5q-17 0 -26 -33t-9 -125v-332q0 -72 4.5 -107.5t13.5 -49t28 -27.5h-272
q19 14 28 27.5z" />
    <glyph glyph-name="Q" unicode="Q" horiz-adv-x="566" 
d="M496 -5q1 -1 6 -9.5t5 -29.5q0 -33 -17.5 -61t-49 -44.5t-70.5 -16.5q-48 0 -83.5 20.5t-78.5 58.5q-32 28 -51.5 40.5t-41.5 12.5q-20 0 -39 -11q81 47 139 45q-91 28 -139 126.5t-48 223.5q0 98 29.5 180t87 131t138.5 49q84 0 141 -50.5t85 -132.5t28 -177
q0 -99 -29 -181t-86 -130.5t-138 -48.5q-11 0 -17 1l31 -12q33 -14 58 -21t58 -7q40 0 60 12t20 32h2zM209.5 646.5q-8.5 -35.5 -8.5 -106.5q0 -105 14 -227.5t41.5 -208.5t66.5 -86q25 0 33.5 35.5t8.5 106.5q0 105 -14 227.5t-41.5 208.5t-66.5 86q-25 0 -33.5 -35.5z" />
    <glyph glyph-name="R" unicode="R" horiz-adv-x="576" 
d="M528.5 95q40.5 -91 66.5 -94q-29 -6 -76 -6q-70 0 -114 39.5t-65 91t-40 124.5q-11 43 -19 63.5t-20 20.5v3q35 0 50.5 6.5t21 26.5t5.5 65q0 91 -15.5 165t-42.5 74q-15 0 -23 -33.5t-8 -124.5v-332q0 -72 4.5 -107.5t13.5 -49t28 -27.5h-272q19 14 28 27.5t13.5 49
t4.5 107.5v332q0 72 -4.5 107.5t-13.5 49t-28 27.5h280q55 0 100 -21.5t71.5 -63t26.5 -99.5q0 -52 -20.5 -90t-56.5 -61q64 -179 104.5 -270z" />
    <glyph glyph-name="S" unicode="S" horiz-adv-x="437" 
d="M118 -3.5q-41 6.5 -70 23.5l-11 249h2q40 -101 90.5 -178t90.5 -77q16 0 26 11.5t10 28.5q0 27 -18 63.5t-56 100.5q-6 9 -11 17.5t-9 14.5l-53 91q-45 77 -63 117t-18 83q0 51 28.5 89.5t76 59t104.5 20.5q68 0 137 -33l17 -245h-2q-12 19 -52 93q-43 81 -69.5 120
t-50.5 39q-13 0 -22 -12.5t-9 -32.5q0 -25 12 -51.5t38 -67.5l15 -25l64 -102q52 -85 80 -142.5t28 -109.5q0 -71 -61.5 -111t-162.5 -40q-40 0 -81 6.5z" />
    <glyph glyph-name="T" unicode="T" horiz-adv-x="477" 
d="M128 27q11 14 16 48.5t5 108.5v412q0 51 -2 66t-11 15q-7 0 -18.5 -23t-46.5 -100l-55 -124h-3l9 273q57 -3 153 -3h127q96 0 153 3l9 -273h-3l-48 108q-37 84 -50.5 111.5t-21.5 27.5q-9 0 -11 -15t-2 -66v-412q0 -74 5 -108.5t16 -48.5t35 -27h-291q24 13 35 27z" />
    <glyph glyph-name="U" unicode="U" horiz-adv-x="524" 
d="M166.5 18.5q-48.5 28.5 -73 76.5t-24.5 107v314q0 72 -4.5 107.5t-13.5 49t-28 27.5h267q-17 -14 -24.5 -28t-12 -49t-4.5 -107v-314q0 -80 23.5 -125.5t70.5 -45.5q48 0 74.5 46t26.5 125v314q0 72 -5 107t-14.5 49t-28.5 28h125q-19 -14 -28.5 -28t-14.5 -49t-5 -107
v-314q0 -95 -44.5 -153.5t-143.5 -58.5q-70 0 -118.5 28.5z" />
    <glyph glyph-name="V" unicode="V" horiz-adv-x="510" 
d="M512 700q-26 -23 -47.5 -65.5t-44.5 -118.5l-164 -532l-174 532q-26 81 -44 122t-40 62h257q-13 -16 -13 -43q0 -22 7.5 -54t24.5 -87l60 -201l53 201q22 82 22 127q0 39 -17 57h120z" />
    <glyph glyph-name="W" unicode="W" horiz-adv-x="777" 
d="M779 700q-25 -23 -47.5 -66t-44.5 -118l-159 -532l-142 451l-135 -451l-169 532q-25 80 -43.5 121.5t-40.5 62.5h257q-13 -14 -13 -41q0 -21 7 -50.5t25 -92.5l55 -195l16 73q11 50 11 82q0 51 -22 117q-29 78 -58 107h257q-13 -14 -13 -41q0 -22 7 -53t24 -90l56 -197
l49 197q21 84 21 126q0 38 -17 58h119z" />
    <glyph glyph-name="X" unicode="X" horiz-adv-x="517" 
d="M254 15q4 7 4 19q0 17 -9 51t-31 99l-32 96l-38 -96q-29 -74 -39.5 -105t-10.5 -48q0 -10 4 -17t12 -14h-116q26 18 41 31.5t36.5 49.5t46.5 103l51 134l-65 198q-27 83 -52 120.5t-54 63.5h278q-15 -12 -15 -34q0 -19 9 -50.5t32 -99.5l17 -53l21 53q42 107 42 144
q0 26 -17 40h116q-30 -20 -56.5 -59t-59.5 -125l-34 -89l80 -243q23 -71 40.5 -106.5t29.5 -48.5t34 -29h-278q9 8 13 15z" />
    <glyph glyph-name="Y" unicode="Y" horiz-adv-x="513" 
d="M515 700q-75 -64 -116 -184l-51 -144v-188q0 -72 4.5 -107.5t13.5 -49t28 -27.5h-271q19 14 28 27.5t13.5 49t4.5 107.5v127l-68 205q-40 123 -103 184h271q-11 -12 -11 -34q0 -17 7 -44.5t16 -58.5l13 -47l34 -118l37 118l11 35q15 46 22 71.5t7 43.5q0 21 -12 34h122z
" />
    <glyph glyph-name="Z" unicode="Z" horiz-adv-x="468" 
d="M312 52.5q42 24.5 72.5 73.5t65.5 142l-36 -268h-406l249 679q-63 -10 -102 -34.5t-68.5 -72t-62.5 -135.5l36 263h395l-254 -681q69 9 111 33.5z" />
    <glyph glyph-name="bracketleft" unicode="[" horiz-adv-x="313" 
d="M30 820h283v-6l-110 -14v-900l110 -14v-6h-283v940z" />
    <glyph glyph-name="backslash" unicode="\" horiz-adv-x="230" 
d="M0 800h20l210 -899h-20z" />
    <glyph glyph-name="bracketright" unicode="]" horiz-adv-x="313" 
d="M0 -120v6l110 14v900l-110 14v6h283v-940h-283z" />
    <glyph glyph-name="asciicircum" unicode="^" horiz-adv-x="325" 
d="M10 377l153 333l152 -333l-1 -1l-151 172l-152 -172z" />
    <glyph glyph-name="underscore" unicode="_" horiz-adv-x="450" 
d="M25 -10h400v-21h-400v21z" />
    <glyph glyph-name="a" unicode="a" horiz-adv-x="436" 
d="M38 14.5q-25 24.5 -25 72.5q0 34 12.5 60t30 44.5t50.5 46.5q37 30 58.5 53.5t37 58.5t15.5 83q0 55 -19 55q-11 0 -40 -38t-55.5 -76.5t-33.5 -49.5q-13 -22 -23 -35h-2q10 107 16 156l4 42q28 10 72 16.5t81 6.5q81 0 122 -35.5t41 -111.5v-273q0 -22 8 -33t29 -11
q8 0 15 4q0 -13 -16.5 -27t-42.5 -23.5t-54 -9.5q-47 0 -74.5 26.5t-27.5 68.5q0 4 -0.5 5.5t-1.5 1.5q-3 0 -16.5 -28.5t-37.5 -51t-61 -22.5t-62 24.5zM217 164v116q0 11 -1.5 14.5t-4.5 3.5q-11 0 -25.5 -20t-25 -51t-10.5 -63q0 -33 11.5 -50t24.5 -17q31 0 31 67z" />
    <glyph glyph-name="b" unicode="b" horiz-adv-x="482" 
d="M116.5 -3.5q-63.5 6.5 -98.5 20.5q19 12 24 51.5t5 139.5v50v342q0 62 -29 100l192 34v-336q13 38 44.5 75t74.5 37q37 0 67 -31.5t46.5 -85.5t16.5 -117q0 -133 -62 -209.5t-173 -76.5q-44 0 -107.5 6.5zM281 59.5q13 48.5 13 124.5q0 90 -14.5 156t-44.5 66
q-12 0 -18.5 -9.5t-6.5 -20.5v-161q0 -82 2 -122t10 -61t26 -21q20 0 33 48.5z" />
    <glyph glyph-name="c" unicode="c" horiz-adv-x="384" 
d="M113.5 25q-45.5 35 -70.5 94.5t-25 131.5q0 76 27.5 135t76.5 91.5t112 32.5q47 0 90 -16q14 -92 22 -220h-1l-26 49q-48 89 -72 127t-39 38t-29.5 -31.5t-14.5 -102.5q0 -107 38.5 -184.5t113.5 -77.5q35 0 50 18q-13 -50 -50 -85t-98 -35q-59 0 -104.5 35z" />
    <glyph glyph-name="d" unicode="d" horiz-adv-x="482" 
d="M273 -8v110q-13 -38 -45 -75t-76 -37q-37 0 -66.5 30.5t-46 83.5t-16.5 120q0 85 29 150t77 100.5t104 35.5h40v90q0 62 -29 100l191 34v-607q0 -62 29 -100zM266.5 103q6.5 8 6.5 18v301q0 37 -11.5 52t-24.5 15q-21 0 -35 -48.5t-14 -127.5q0 -88 14.5 -153t44.5 -65
q13 0 19.5 8z" />
    <glyph glyph-name="e" unicode="e" horiz-adv-x="414" 
d="M123 25.5q-50 35.5 -77.5 96.5t-27.5 135q0 73 27 130.5t75.5 90t111.5 32.5q71 0 109.5 -40t39.5 -110q0 -47 -15 -68h-161q-17 0 -24.5 -6.5t-7.5 -22.5q0 -37 21.5 -77.5t59 -67t83.5 -26.5q18 0 32 5t22 13q-10 -50 -49 -85t-105 -35q-64 0 -114 35.5zM226.5 338.5
q16.5 21.5 16.5 74.5q0 32 -7.5 52t-23.5 20q-18 0 -32.5 -29t-14.5 -87q0 -28 6 -40t20 -12q19 0 35.5 21.5z" />
    <glyph glyph-name="f" unicode="f" horiz-adv-x="307" 
d="M49 100v340h-36q73 306 197 306q35 0 52 -22t17 -58q0 -42 -22.5 -74.5t-62.5 -32.5q-17 0 -28 5.5t-27 16.5q-18 16 -33 16q-14 0 -25 -10t-11 -29q0 -30 35 -44t108 -14q42 0 71 2l-15 -63l-58 1v-340q0 -75 39 -100h-235q34 29 34 100z" />
    <glyph glyph-name="g" unicode="g" horiz-adv-x="412" 
d="M323 49.5q42 -23.5 61 -46t19 -52.5q0 -42 -30.5 -71.5t-78.5 -44t-98 -14.5q-76 0 -132 20t-56 58q0 25 19.5 39.5t53.5 28.5q18 7 27 12.5t9 11.5q0 11 -31 26q-29 15 -43 27.5t-14 30.5q0 12 5 19.5t18.5 17.5t49.5 31q12 6 19 11t7 10q0 3 -5.5 7t-12.5 8t-13 7
q-38 24 -59.5 60.5t-21.5 86.5q0 80 50 123.5t125 43.5h213l-77 -74q18 -17 29.5 -43.5t11.5 -60.5q0 -70 -50.5 -113t-127.5 -43q-23 0 -31 -4.5t-8 -12.5t7.5 -14.5t27.5 -16.5q95 -45 137 -68.5zM153 416q0 -37 7 -91.5t20.5 -95t32.5 -40.5q9 0 14.5 13.5t5.5 33.5
q0 44 -7 101t-20.5 98.5t-33.5 41.5q-19 0 -19 -61zM247 -149.5q11 8.5 11 26.5q0 24 -23 51t-78 53q-6 3 -10 3q-9 0 -14.5 -10.5t-5.5 -27.5q0 -40 27 -72t65 -32q17 0 28 8.5z" />
    <glyph glyph-name="h" unicode="h" 
d="M289 100v245q0 39 -4.5 55t-22.5 16q-11 0 -27 -6.5t-25 -12.5v-297q0 -62 29 -100h-221q29 38 29 100v500q0 62 -29 100l192 33v-316q88 93 158 93q84 0 84 -131v-279q0 -62 29 -100h-221q29 38 29 100z" />
    <glyph glyph-name="i" unicode="i" horiz-adv-x="257" 
d="M64 599.5q-15 28.5 -15 57.5q0 38 25 63t63 25q35 0 56.5 -21.5t21.5 -55.5q0 -51 -41 -77.5t-80 -33.5q-15 14 -30 42.5zM47 100v279q0 62 -29 100l192 31v-410q0 -62 29 -100h-221q29 38 29 100z" />
    <glyph glyph-name="j" unicode="j" horiz-adv-x="269" 
d="M69 599.5q-15 28.5 -15 57.5q0 38 25 63t63 25q35 0 56.5 -21.5t21.5 -55.5q0 -51 -41 -77.5t-80 -33.5q-15 14 -30 42.5zM12 -176.5q-14 4.5 -17 9.5v2q32 8 44.5 42.5t12.5 117.5v384q0 62 -29 100l192 31v-485q0 -59 -24 -106.5t-63.5 -73.5t-82.5 -26q-19 0 -33 4.5z
" />
    <glyph glyph-name="k" unicode="k" horiz-adv-x="503" 
d="M210 100q0 -62 29 -100h-221q29 38 29 100v500q0 62 -29 100l192 33v-633zM311 0l-101 258l31 35q36 41 53 66t21 37t4 25q0 29 -17.5 50.5t-40.5 27.5v1h220v-1q-53 -26 -88 -55t-67 -70l98 -232q31 -70 51.5 -101t39.5 -41h-204z" />
    <glyph glyph-name="l" unicode="l" horiz-adv-x="257" 
d="M47 100v500q0 62 -29 100l192 33v-633q0 -62 29 -100h-221q29 38 29 100z" />
    <glyph glyph-name="m" unicode="m" horiz-adv-x="743" 
d="M529 100v245q0 37 -7 54t-27 17q-13 0 -22.5 -5t-21.5 -13h-1v-19v-279q0 -62 29 -100h-220q29 38 29 100v245q0 37 -6.5 54t-26.5 17q-13 0 -23 -5t-22 -13v-298q0 -62 29 -100h-221q29 38 29 100v279q0 62 -29 100l192 31v-92q85 92 157 92q71 0 81 -95q87 95 160 95
q83 0 83 -131v-279q0 -62 29 -100h-220q29 38 29 100z" />
    <glyph glyph-name="n" unicode="n" 
d="M289 100v245q0 38 -6.5 54.5t-26.5 16.5q-19 0 -46 -18v-298q0 -62 29 -100h-221q29 38 29 100v279q0 62 -29 100l192 31v-92q87 92 158 92q84 0 84 -131v-279q0 -62 29 -100h-221q29 38 29 100z" />
    <glyph glyph-name="o" unicode="o" horiz-adv-x="451" 
d="M112.5 25q-46.5 35 -70.5 94t-24 132q0 74 26.5 133t74.5 92.5t110 33.5q63 0 109 -34.5t70.5 -94t24.5 -130.5q0 -75 -26.5 -134t-74.5 -93t-110 -34q-63 0 -109.5 35zM282 83q0 63 -12 160t-33 169t-47 72q-21 0 -21 -67q0 -64 12 -160.5t33 -168.5t47 -72q21 0 21 67z
" />
    <glyph glyph-name="p" unicode="p" horiz-adv-x="482" 
d="M396 479.5q30 -30.5 46.5 -83.5t16.5 -120q0 -85 -28.5 -150t-77 -100.5t-104.5 -35.5h-39v-47q0 -62 29 -100l-221 -39q29 38 29 100v476q0 62 -29 100l192 30v-112q13 38 44.5 75t74.5 37q37 0 67 -30.5zM280 60q14 49 14 127q0 88 -14.5 153.5t-44.5 65.5
q-12 0 -18.5 -8.5t-6.5 -19.5v-213q0 -81 10 -117.5t26 -36.5q20 0 34 49z" />
    <glyph glyph-name="q" unicode="q" horiz-adv-x="482" 
d="M273 102q-13 -38 -44.5 -75t-75.5 -37q-37 0 -66.5 32t-46.5 85.5t-17 116.5q0 133 62 209.5t176 76.5q55 0 108 -9.5t83 -32.5q-17 -71 -17 -261v-202q0 -79 8.5 -112.5t20.5 -49.5l-191 -34v293zM266 104q7 9 7 20v162q0 80 -2 120.5t-10.5 61.5t-26.5 21
q-19 0 -32.5 -48.5t-13.5 -124.5q0 -90 14.5 -155.5t44.5 -65.5q12 0 19 9z" />
    <glyph glyph-name="r" unicode="r" horiz-adv-x="394" 
d="M366 487q15 -23 15 -54q0 -25 -11.5 -51.5t-29.5 -44t-35 -17.5q-9 0 -31 12q-9 5 -17.5 8.5t-15.5 3.5q-31 0 -31 -59v-185q0 -62 29 -100h-221q29 38 29 100v279q0 62 -29 100l192 31v-127q0 -11 6 -11q4 0 9 10q27 66 48 97t52 31q26 0 41 -23z" />
    <glyph glyph-name="s" unicode="s" horiz-adv-x="357" 
d="M37 24l-5 180q97 -193 142 -193q10 0 17 8t7 22q0 21 -14 47.5t-44 68.5l-66 93q-46 67 -46 125q0 62 42.5 98.5t110.5 36.5q38 0 73 -10t52 -24l16 -170q-4 6 -8.5 14.5t-10.5 19.5q-41 73 -67 110t-47 37q-24 0 -24 -33q0 -19 9.5 -39.5t33.5 -55.5l74 -103
q31 -44 46.5 -75t15.5 -64q0 -61 -51 -94t-122 -33q-74 0 -134 34z" />
    <glyph glyph-name="t" unicode="t" horiz-adv-x="307" 
d="M304 51q-4 -13 -27 -27.5t-53.5 -24t-58.5 -9.5q-47 0 -78 29t-31 73v348h-53l215 230v-171q51 0 81 3l-13 -62h-68v-326q0 -32 11.5 -50t39.5 -18q20 0 34 5h1z" />
    <glyph glyph-name="u" unicode="u" 
d="M289 -10v92q-87 -92 -158 -92q-84 0 -84 131v238q0 46 -9 76t-20 44l192 31v-355q0 -38 6.5 -54.5t26.5 -16.5q19 0 46 18v257q0 46 -9 76t-20 44l192 31v-389q0 -62 29 -100z" />
    <glyph glyph-name="v" unicode="v" horiz-adv-x="393" 
d="M405 500q-21 -13 -37.5 -41t-33.5 -80l-135 -398h-1l-140 398q-18 54 -33.5 81.5t-36.5 39.5h238q-20 -14 -20 -42q0 -26 17 -79l42 -139l40 139q12 42 12 69q0 37 -23 52h111z" />
    <glyph glyph-name="w" unicode="w" horiz-adv-x="610" 
d="M621 500q-21 -12 -37 -41.5t-32 -80.5l-124 -397h-1l-122 375l-118 -375h-1l-130 397q-16 50 -32.5 79.5t-35.5 42.5h228q-18 -13 -18 -47q0 -27 14 -75l36 -125l22 67q13 40 13 78q0 33 -10 59t-28 43h213q-19 -13 -19 -48q0 -32 14 -74l37 -121l33 121q12 41 12 67
q0 39 -24 55h110z" />
    <glyph glyph-name="x" unicode="x" horiz-adv-x="417" 
d="M200 47q0 23 -20 72l-32 76l-9 -28q-19 -62 -26 -88t-7 -43q0 -22 17 -36h-122q22 18 36.5 32.5t34 45t40.5 79.5l27 61l-67 161q-21 51 -38 76.5t-38 44.5h248q-15 -9 -21.5 -20t-6.5 -26q0 -24 21 -75l23 -56l4 12q32 92 32 124q0 14 -4.5 23.5t-14.5 17.5h128
q-31 -24 -56 -55t-59 -104l-20 -42l75 -182q20 -49 37 -74t37 -43h-248q29 18 29 47z" />
    <glyph glyph-name="y" unicode="y" horiz-adv-x="393" 
d="M405 500q-21 -13 -37.5 -41t-33.5 -80l-122 -359q-18 -55 -35 -94t-46 -71.5t-68 -32.5q-16 0 -29 5.5t-17 10.5v119q25 -9 64 -9q41 0 68.5 13.5t27.5 51.5q0 20 -7.5 47t-23.5 71l-9 25l-79 223q-18 54 -33.5 81.5t-36.5 39.5h238q-20 -14 -20 -42q0 -26 17 -79
l42 -139l40 139q12 42 12 69q0 37 -23 52h111z" />
    <glyph glyph-name="z" unicode="z" horiz-adv-x="395" 
d="M296 65.5q45 37.5 83 128.5l-34 -194h-332l191 477q-42 -1 -70 -14.5t-54 -49.5t-55 -107l34 194h323l-190 -476q59 4 104 41.5z" />
    <glyph glyph-name="braceleft" unicode="{" horiz-adv-x="334" 
d="M168.5 -93q-58.5 27 -83.5 89.5t-25 175.5q0 57 -10.5 103t-49.5 75q39 29 49.5 75.5t10.5 102.5q0 113 25.5 175.5t84.5 89.5t164 27v-6q-46 -9 -68 -41.5t-30 -102t-8 -207.5v-226q0 -142 7.5 -211t29.5 -100t69 -40v-6q-107 0 -165.5 27z" />
    <glyph glyph-name="bar" unicode="|" horiz-adv-x="220" 
d="M100 900h20v-1099h-20v1099z" />
    <glyph glyph-name="braceright" unicode="}" horiz-adv-x="334" 
d="M0 -114q47 9 69 40t30 100.5t8 210.5v226q0 138 -8 207.5t-30.5 102t-68.5 41.5v6q106 0 164.5 -26.5t84 -89.5t25.5 -176q0 -56 10.5 -102.5t49.5 -75.5q-39 -29 -49.5 -75t-10.5 -103q0 -113 -25 -175.5t-83.5 -89.5t-165.5 -27v6z" />
    <glyph glyph-name="asciitilde" unicode="~" horiz-adv-x="400" 
d="M79.5 334q35.5 57 75.5 57q13 0 26 -5.5t36 -18.5q25 -15 43.5 -22.5t37.5 -7.5q29 0 45.5 17t25.5 37h6q-19 -63 -54 -119.5t-74 -56.5q-13 0 -26 5.5t-36 18.5q-25 15 -43.5 22.5t-37.5 7.5q-29 0 -46.5 -17t-26.5 -37h-6q19 62 54.5 119z" />
    <glyph glyph-name="exclamdown" unicode="&#xa1;" horiz-adv-x="244" 
d="M185.5 479.5q26.5 -30.5 26.5 -72.5t-26.5 -72t-63.5 -30t-63.5 30t-26.5 72t26.5 72.5t63.5 30.5t63.5 -30.5zM123 285q8 -53 21.5 -101t34.5 -111q21 -67 30.5 -103t9.5 -69q0 -59 -30.5 -85t-66.5 -26t-66.5 26t-30.5 85q0 33 9.5 69t30.5 103q21 63 34.5 111
t21.5 101h2z" />
    <glyph glyph-name="cent" unicode="&#xa2;" horiz-adv-x="384" 
d="M366 310q-13 -50 -50 -85t-98 -35q-10 0 -30 2l-12 -72h-25l13 78q-66 22 -106 92t-40 161q0 76 27.5 135t76.5 91.5t112 32.5q11 0 17 -1l12 71h25l-12 -73q25 -5 48 -13q14 -92 22 -220h-1q-63 118 -83 152l-47 -277q39 -57 101 -57q35 0 50 18zM196 383l46 274
q-22 31 -34 31q-15 0 -29.5 -31.5t-14.5 -102.5q0 -100 32 -171z" />
    <glyph glyph-name="sterling" unicode="&#xa3;" horiz-adv-x="544" 
d="M339.5 76q89.5 33 130.5 69.5t64 81.5q-26 -87 -53.5 -163t-37.5 -75q-81 11 -220 11q-130 0 -222 -11l-1 2q52 23 76.5 55t24.5 96q0 39 -13 134h-82v17h80q-16 116 -16 165q0 120 59 186t197 66q64 0 112 -17l21 -240h-3q-4 8 -7.5 14t-5.5 11q-55 111 -83 156.5
t-51 45.5q-21 0 -35.5 -38.5t-14.5 -130.5q0 -77 21 -216l152 9l-10 -28h-139q9 -67 9 -91q0 -66 -46.5 -104.5t-146.5 -55.5q151 18 240.5 51z" />
    <glyph glyph-name="currency" unicode="&#xa4;" horiz-adv-x="327" 
d="M265 484l36 -35l-12 -12l-36 35q-39 -34 -90 -34q-50 0 -90 33l-36 -36l-12 12l36 36q-34 39 -34 91q0 51 34 90l-35 36l12 12l35 -36q39 34 90 34q52 0 91 -34l36 36l12 -12l-36 -36q33 -40 33 -90q0 -51 -34 -90zM80 490.5q34 -34.5 83 -34.5t83 34.5t34 83.5t-34 83.5
t-83 34.5t-83 -34.5t-34 -83.5t34 -83.5z" />
    <glyph glyph-name="yen" unicode="&#xa5;" horiz-adv-x="513" 
d="M399 516l-47 -133h126v-17h-130v-28h130v-17h-130v-137q0 -72 4.5 -107.5t13.5 -49t28 -27.5h-271q19 14 28 27.5t13.5 49t4.5 107.5v127l-3 10h-122v17h116l-9 28h-107v17h101l-44 133q-40 123 -103 184h271q-11 -12 -11 -34q0 -17 7 -44.5t16 -58.5l13 -47l34 -118
l37 118l11 35q15 46 22 71.5t7 43.5q0 21 -12 34h122q-75 -64 -116 -184z" />
    <glyph glyph-name="brokenbar" unicode="&#xa6;" horiz-adv-x="220" 
d="M100 900h20v-500h-20v500zM100 301h20v-500h-20v500z" />
    <glyph glyph-name="section" unicode="&#xa7;" horiz-adv-x="394" 
d="M287 124q32 -44 54 -88t22 -77q0 -52 -52 -83t-122 -31q-39 0 -79.5 10.5t-65.5 23.5v176q28 -65 75.5 -125t77.5 -60q18 0 18 24q0 18 -13.5 41t-41.5 59l-16 22l-59 80q-57 80 -57 141q0 52 37.5 84.5t94.5 41.5l-3 3l-58 81q-53 71 -53 139q0 41 23 70.5t59.5 44
t76.5 14.5q34 0 65 -10.5t47 -23.5v-167l-15 29q-35 69 -58.5 107.5t-34.5 38.5q-8 0 -13.5 -8t-5.5 -22q0 -22 13 -46t38 -58l59 -81q35 -48 58 -90t23 -75q0 -48 -43.5 -78t-103.5 -35zM172 309q0 -19 11 -39t32 -49q17 1 17 23q0 18 -12.5 38.5t-38.5 52.5q-9 -7 -9 -26z
" />
    <glyph glyph-name="copyright" unicode="&#xa9;" horiz-adv-x="458" 
d="M124.5 283.5q-45.5 30.5 -71 83t-25.5 115.5t25.5 115t71 82.5t103.5 30.5t104 -30.5t71.5 -82.5t25.5 -115t-25.5 -115.5t-71.5 -83t-104 -30.5t-103.5 30.5zM323.5 298q41.5 28 64 76.5t22.5 107.5t-22.5 107t-64 76t-95.5 28q-53 0 -94.5 -28t-64 -76t-22.5 -107
t22.5 -107.5t64 -76.5t94.5 -28q54 0 95.5 28zM156.5 385q-28.5 40 -28.5 99q0 60 30.5 98t78.5 38q42 0 57.5 -23.5t15.5 -47.5q0 -19 -11.5 -30t-28.5 -11q-18 0 -28 11.5t-10 26.5q0 12 7.5 28.5t7.5 20.5q0 6 -10 6q-14 0 -26.5 -17.5t-12.5 -56.5q0 -51 21.5 -90.5
t61.5 -39.5q22 0 28 9q-5 -25 -24.5 -43t-51.5 -18q-48 0 -76.5 40z" />
    <glyph glyph-name="ordfeminine" unicode="&#xaa;" horiz-adv-x="396" 
d="M35 260q-22 22 -22 66q0 43 21 72t63 64q33 27 53 49t34 54t14 75q0 23 -4.5 36.5t-13.5 13.5q-11 0 -38.5 -37.5t-76.5 -109.5l-23 -34h-1q6 72 18 180q25 9 64.5 15t73.5 6q74 0 111 -32.5t37 -101.5v-247q0 -20 7.5 -30t26.5 -10q7 0 14 3q0 -11 -15 -24t-39 -21.5
t-49 -8.5q-42 0 -67 24t-25 62q0 6 -2 6q-3 0 -15.5 -26t-34 -46t-55.5 -20t-56 22zM198 396v105q0 10 -1.5 13t-4.5 3q-10 0 -23.5 -18t-23 -46.5t-9.5 -57.5t10.5 -44.5t23.5 -15.5q28 0 28 61zM87 137h230v-21h-230v21z" />
    <glyph glyph-name="guillemotleft" unicode="&#xab;" horiz-adv-x="404" 
d="M182 262l196 188l1 -1l-58 -187l58 -187l-1 -1zM25 262l196 188l1 -1l-58 -187l58 -187l-1 -1z" />
    <glyph glyph-name="logicalnot" unicode="&#xac;" horiz-adv-x="280" 
d="M255 189h-21v104h-209v21h230v-125z" />
    <glyph glyph-name="registered" unicode="&#xae;" horiz-adv-x="458" 
d="M124.5 283.5q-45.5 30.5 -71 83t-25.5 115.5t25.5 115t71 82.5t103.5 30.5t104 -30.5t71.5 -82.5t25.5 -115t-25.5 -115.5t-71.5 -83t-104 -30.5t-103.5 30.5zM323 298q41 28 63.5 76.5t22.5 107.5t-22.5 107.5t-63.5 76t-95 27.5q-53 0 -94.5 -27.5t-64 -76
t-22.5 -107.5t22.5 -107.5t64 -76.5t94.5 -28q54 0 95 28zM250 395l-23 67q-1 3 -2.5 5t-2.5 2q-2 0 -3 -2t-1 -4v-44q0 -37 3.5 -49t11.5 -19h-95q10 7 14 18.5t4 49.5v125q0 38 -3.5 49.5t-14.5 19.5h102q30 0 50 -18t20 -47q0 -24 -13.5 -42t-33.5 -28q12 -2 19 -11
t17 -35l10 -25q8 -21 14.5 -34.5t13.5 -21.5q-13 -3 -27 -3q-44 0 -60 47zM243.5 503.5q8.5 15.5 8.5 43.5q0 20 -5 35.5t-15 15.5q-7 0 -10.5 -11t-3.5 -43v-47q0 -3 1.5 -6t4.5 -3q11 0 19.5 15.5z" />
    <glyph glyph-name="degree" unicode="&#xb0;" horiz-adv-x="280" 
d="M54 479q-34 39 -34 96t34 96t86 39t86 -39t34 -96t-34 -96t-86 -39t-86 39zM213 491q28 34 28 84t-28 84t-73 34t-73 -34t-28 -84t28 -84t73 -34t73 34z" />
    <glyph glyph-name="plusminus" unicode="&#xb1;" horiz-adv-x="220" 
d="M195 314v-21h-74v-84h-21v84h-75v21h75v85h21v-85h74zM34 111h153v-21h-153v21z" />
    <glyph glyph-name="paragraph" unicode="&#xb6;" horiz-adv-x="766" 
d="M265 -93v313q-106 0 -171.5 62t-65.5 179t65.5 178t171.5 61h258q-44 -12 -71.5 -55.5t-27.5 -124.5v-577q0 -62 29 -100l-217 -36q29 38 29 100zM523 -93v793h258q-44 -12 -71.5 -55.5t-27.5 -124.5v-577q0 -62 29 -100l-217 -36q29 38 29 100z" />
    <glyph glyph-name="periodcentered" unicode="&#xb7;" horiz-adv-x="221" 
d="M46.5 194.5q-26.5 30.5 -26.5 72.5t26.5 72t63.5 30t64 -30.5t27 -71.5q0 -42 -27 -72.5t-64 -30.5t-63.5 30.5z" />
    <glyph glyph-name="ordmasculine" unicode="&#xba;" horiz-adv-x="413" 
d="M104 269.5q-42 31.5 -63.5 85.5t-21.5 120q0 67 23.5 120.5t67 84t100.5 30.5t98.5 -31.5t63.5 -85t22 -118.5q0 -68 -23.5 -122t-67 -84.5t-100.5 -30.5t-99 31.5zM258 322q0 57 -11 145t-30 153.5t-43 65.5q-19 0 -19 -60q0 -58 11 -146t30 -153.5t43 -65.5q19 0 19 61
zM91 137h230v-21h-230v21z" />
    <glyph glyph-name="guillemotright" unicode="&#xbb;" horiz-adv-x="404" 
d="M182 75l58 187l-58 187l1 1l196 -188l-196 -188zM25 75l58 187l-58 187l1 1l196 -188l-196 -188z" />
    <glyph glyph-name="questiondown" unicode="&#xbf;" horiz-adv-x="409" 
d="M292 479.5q27 -30.5 27 -72.5q0 -41 -27 -71.5t-64 -30.5t-63.5 30.5t-26.5 71.5q0 42 26.5 72.5t63.5 30.5t64 -30.5zM247 189q0 -24 -6 -51t-18 -66q-15 -54 -22.5 -89t-7.5 -73q0 -46 10 -68.5t23 -22.5q24 0 53 77t66 206h3l41 -244q-33 -30 -79 -49t-99 -19
q-80 0 -128 43t-48 110q0 36 14.5 65.5t35 51.5t54.5 53q42 38 62.5 64.5t20.5 59.5q0 16 -5 31h2q28 -32 28 -79z" />
    <glyph glyph-name="Agrave" unicode="&#xc0;" horiz-adv-x="510" 
d="M255 0q14 17 14 42q0 19 -6 45t-19 70h-128q-15 -63 -15 -100q0 -39 17 -57h-120q26 23 47.5 65.5t44.5 118.5l164 532l174 -532q26 -81 44 -122t40 -62h-257zM176 385l-53 -200h113zM155 838q2 21 32 54t50 39l114 -183l-2 -2z" />
    <glyph glyph-name="Aacute" unicode="&#xc1;" horiz-adv-x="510" 
d="M255 0q14 17 14 42q0 19 -6 45t-19 70h-128q-15 -63 -15 -100q0 -39 17 -57h-120q26 23 47.5 65.5t44.5 118.5l164 532l174 -532q26 -81 44 -122t40 -62h-257zM176 385l-53 -200h113zM183 748l115 183q20 -6 49.5 -39t31.5 -54l-194 -92z" />
    <glyph glyph-name="Acircumflex" unicode="&#xc2;" horiz-adv-x="510" 
d="M255 0q14 17 14 42q0 19 -6 45t-19 70h-128q-15 -63 -15 -100q0 -39 17 -57h-120q26 23 47.5 65.5t44.5 118.5l164 532l174 -532q26 -81 44 -122t40 -62h-257zM176 385l-53 -200h113zM125 748l129 183l129 -183l-2 -2l-127 62l-127 -62z" />
    <glyph glyph-name="Atilde" unicode="&#xc3;" horiz-adv-x="510" 
d="M255 0q14 17 14 42q0 19 -6 45t-19 70h-128q-15 -63 -15 -100q0 -39 17 -57h-120q26 23 47.5 65.5t44.5 118.5l164 532l174 -532q26 -81 44 -122t40 -62h-257zM176 385l-53 -200h113zM127 874q37 57 79 57q14 0 29.5 -6.5t36.5 -19.5q27 -15 46.5 -23t39.5 -8q48 0 75 57
h6q-22 -65 -58 -122t-78 -57q-14 0 -29 6.5t-37 19.5q-26 15 -45.5 23t-39.5 8q-51 0 -78 -57h-6q22 65 59 122z" />
    <glyph glyph-name="Adieresis" unicode="&#xc4;" horiz-adv-x="510" 
d="M255 0q14 17 14 42q0 19 -6 45t-19 70h-128q-15 -63 -15 -100q0 -39 17 -57h-120q26 23 47.5 65.5t44.5 118.5l164 532l174 -532q26 -81 44 -122t40 -62h-257zM176 385l-53 -200h113zM102.5 778.5q-21.5 24.5 -21.5 58.5t21.5 58.5t52.5 24.5t53 -24.5t22 -58.5
t-22 -58.5t-53 -24.5t-52.5 24.5zM298.5 778.5q-21.5 24.5 -21.5 58.5t21.5 58.5t52.5 24.5t53 -24.5t22 -58.5t-22 -58.5t-53 -24.5t-52.5 24.5z" />
    <glyph glyph-name="Aring" unicode="&#xc5;" horiz-adv-x="510" 
d="M255 0q14 17 14 42q0 19 -6 45t-19 70h-128q-15 -63 -15 -100q0 -39 17 -57h-120q26 23 47.5 65.5t44.5 118.5l164 532l174 -532q26 -81 44 -122t40 -62h-257zM176 385l-53 -200h113zM204.5 786.5q-20.5 23.5 -20.5 55.5t20.5 55t49.5 23t49.5 -23t20.5 -55t-20.5 -55.5
t-49.5 -23.5t-49.5 23.5zM294 796q16 19 16 46t-16 45.5t-40 18.5t-40 -18.5t-16 -45.5t16 -46t40 -19t40 19z" />
    <glyph glyph-name="AE" unicode="&#xc6;" horiz-adv-x="731" 
d="M718 270l-25 -270h-432q20 14 29 27.5t13.5 49t4.5 107.5h-169q-39 -101 -39 -135q0 -19 8.5 -29t27.5 -20h-138q20 17 31 29.5t30 48.5t47 106l157 389q19 45 19 80q0 27 -13 41l-8 6h411l17 -260h-3q-51 129 -89 181.5t-69 52.5q-20 0 -29 -18t-10.5 -46.5t-1.5 -92.5
v-146q0 -17 12 -17q35 0 72 31t53 99h3v-286h-3q-16 68 -53 99.5t-72 31.5q-12 0 -12 -17v-128q0 -65 1.5 -93.5t11 -46.5t31.5 -18q32 0 81 53t103 191h3zM308 212v304q0 61 -3 95l-155 -399h158z" />
    <glyph glyph-name="Ccedilla" unicode="&#xc7;" horiz-adv-x="495" 
d="M445.5 70q-20.5 -30 -53.5 -52t-76 -27q-15 -19 -15 -34q0 -18 11 -32t30 -31q2 -2 10 -9t8 -12q0 -20 -27 -45.5t-62 -43.5t-53 -18q-12 0 -18.5 7.5t-6.5 19.5q0 18 26 18q8 0 24 -2t23 -2q22 0 22 14q0 11 -8.5 21.5t-25.5 26.5q-13 11 -20 19.5t-7 15.5q0 11 17 30
t54 56h-1q-71 0 -132.5 47.5t-99 132t-37.5 189.5q0 91 31.5 171t96 130t157.5 50q58 0 113 -17q7 -51 23 -206q1 -18 5 -54h-3l-37 63q-61 106 -89 146t-50 40q-16 0 -32.5 -18.5t-28.5 -61.5t-12 -111q0 -89 23 -178.5t70 -148.5t114 -59q40 0 63 23q-6 -28 -26.5 -58z
" />
    <glyph glyph-name="Egrave" unicode="&#xc8;" horiz-adv-x="493" 
d="M480 270l-26 -270h-431q19 14 28 27.5t13.5 49t4.5 107.5v332q0 72 -4.5 107.5t-13.5 49t-28 27.5h411l17 -260h-3q-93 234 -158 234q-20 0 -29 -18t-10.5 -46.5t-1.5 -92.5v-146q0 -17 12 -17q35 0 71.5 31t52.5 99h3v-286h-3q-16 68 -52.5 99.5t-71.5 31.5
q-12 0 -12 -17v-128q0 -65 1.5 -93.5t11 -46.5t31.5 -18q32 0 81 53t103 191h3zM165 838q2 21 32 54t50 39l114 -183l-2 -2z" />
    <glyph glyph-name="Eacute" unicode="&#xc9;" horiz-adv-x="493" 
d="M480 270l-26 -270h-431q19 14 28 27.5t13.5 49t4.5 107.5v332q0 72 -4.5 107.5t-13.5 49t-28 27.5h411l17 -260h-3q-93 234 -158 234q-20 0 -29 -18t-10.5 -46.5t-1.5 -92.5v-146q0 -17 12 -17q35 0 71.5 31t52.5 99h3v-286h-3q-16 68 -52.5 99.5t-71.5 31.5
q-12 0 -12 -17v-128q0 -65 1.5 -93.5t11 -46.5t31.5 -18q32 0 81 53t103 191h3zM193 748l115 183q20 -6 49.5 -39t31.5 -54l-194 -92z" />
    <glyph glyph-name="Ecircumflex" unicode="&#xca;" horiz-adv-x="493" 
d="M480 270l-26 -270h-431q19 14 28 27.5t13.5 49t4.5 107.5v332q0 72 -4.5 107.5t-13.5 49t-28 27.5h411l17 -260h-3q-93 234 -158 234q-20 0 -29 -18t-10.5 -46.5t-1.5 -92.5v-146q0 -17 12 -17q35 0 71.5 31t52.5 99h3v-286h-3q-16 68 -52.5 99.5t-71.5 31.5
q-12 0 -12 -17v-128q0 -65 1.5 -93.5t11 -46.5t31.5 -18q32 0 81 53t103 191h3zM135 748l129 183l129 -183l-2 -2l-127 62l-127 -62z" />
    <glyph glyph-name="Edieresis" unicode="&#xcb;" horiz-adv-x="493" 
d="M480 270l-26 -270h-431q19 14 28 27.5t13.5 49t4.5 107.5v332q0 72 -4.5 107.5t-13.5 49t-28 27.5h411l17 -260h-3q-93 234 -158 234q-20 0 -29 -18t-10.5 -46.5t-1.5 -92.5v-146q0 -17 12 -17q35 0 71.5 31t52.5 99h3v-286h-3q-16 68 -52.5 99.5t-71.5 31.5
q-12 0 -12 -17v-128q0 -65 1.5 -93.5t11 -46.5t31.5 -18q32 0 81 53t103 191h3zM112.5 778.5q-21.5 24.5 -21.5 58.5t21.5 58.5t52.5 24.5t53 -24.5t22 -58.5t-22 -58.5t-53 -24.5t-52.5 24.5zM308.5 778.5q-21.5 24.5 -21.5 58.5t21.5 58.5t52.5 24.5t53 -24.5t22 -58.5
t-22 -58.5t-53 -24.5t-52.5 24.5z" />
    <glyph glyph-name="Igrave" unicode="&#xcc;" horiz-adv-x="318" 
d="M51 27.5q9 13.5 13.5 49t4.5 107.5v332q0 72 -4.5 107.5t-13.5 49t-28 27.5h272q-19 -14 -28 -27.5t-13.5 -49t-4.5 -107.5v-332q0 -72 4.5 -107.5t13.5 -49t28 -27.5h-272q19 14 28 27.5zM60 838q2 21 32 54t50 39l114 -183l-2 -2z" />
    <glyph glyph-name="Iacute" unicode="&#xcd;" horiz-adv-x="318" 
d="M51 27.5q9 13.5 13.5 49t4.5 107.5v332q0 72 -4.5 107.5t-13.5 49t-28 27.5h272q-19 -14 -28 -27.5t-13.5 -49t-4.5 -107.5v-332q0 -72 4.5 -107.5t13.5 -49t28 -27.5h-272q19 14 28 27.5zM88 748l115 183q20 -6 49.5 -39t31.5 -54l-194 -92z" />
    <glyph glyph-name="Icircumflex" unicode="&#xce;" horiz-adv-x="318" 
d="M51 27.5q9 13.5 13.5 49t4.5 107.5v332q0 72 -4.5 107.5t-13.5 49t-28 27.5h272q-19 -14 -28 -27.5t-13.5 -49t-4.5 -107.5v-332q0 -72 4.5 -107.5t13.5 -49t28 -27.5h-272q19 14 28 27.5zM30 748l129 183l129 -183l-2 -2l-127 62l-127 -62z" />
    <glyph glyph-name="Idieresis" unicode="&#xcf;" horiz-adv-x="318" 
d="M51 27.5q9 13.5 13.5 49t4.5 107.5v332q0 72 -4.5 107.5t-13.5 49t-28 27.5h272q-19 -14 -28 -27.5t-13.5 -49t-4.5 -107.5v-332q0 -72 4.5 -107.5t13.5 -49t28 -27.5h-272q19 14 28 27.5zM7.5 778.5q-21.5 24.5 -21.5 58.5t21.5 58.5t52.5 24.5t53 -24.5t22 -58.5
t-22 -58.5t-53 -24.5t-52.5 24.5zM203.5 778.5q-21.5 24.5 -21.5 58.5t21.5 58.5t52.5 24.5t53 -24.5t22 -58.5t-22 -58.5t-53 -24.5t-52.5 24.5z" />
    <glyph glyph-name="Eth" unicode="&#xd0;" horiz-adv-x="571" 
d="M404 662q62 -38 100.5 -115.5t38.5 -190.5q0 -112 -38 -192.5t-101 -122t-136 -41.5h-245q19 14 28 27.5t13.5 49t4.5 107.5v154h-59v17h59v161q0 72 -4.5 107.5t-13.5 49t-28 27.5h250q69 0 131 -38zM343 89q12 62 12 185q0 110 -10 201t-28.5 144.5t-43.5 53.5
q-14 0 -19 -26t-5 -101v-183l61 3l-10 -28h-51v-176q0 -135 50 -135q32 0 44 62z" />
    <glyph glyph-name="Ntilde" unicode="&#xd1;" horiz-adv-x="517" 
d="M475 673q-12 -14 -18 -49t-6 -108v-252q0 -81 1.5 -133.5t6.5 -150.5h-5l-355 573v-369q0 -74 6 -108.5t19 -48.5t43 -27h-159q27 13 39 27t18 49t6 108v332q0 72 -7 107.5t-20 49t-41 27.5h246q2 -17 11 -35t20.5 -38t16.5 -29l126 -215v133q0 73 -6 108t-18 49t-39 27
h154q-27 -13 -39 -27zM152 874q37 57 79 57q14 0 29.5 -6.5t36.5 -19.5q27 -15 46.5 -23t39.5 -8q48 0 75 57h6q-22 -65 -58 -122t-78 -57q-14 0 -29 6.5t-37 19.5q-26 15 -45.5 23t-39.5 8q-51 0 -78 -57h-6q22 65 59 122z" />
    <glyph glyph-name="Ograve" unicode="&#xd2;" horiz-adv-x="566" 
d="M142.5 40.5q-57.5 50.5 -86 132.5t-28.5 177q0 98 29.5 180t87 131t138.5 49q84 0 141 -50.5t85 -132.5t28 -177q0 -99 -29 -181t-86 -130.5t-138 -48.5q-84 0 -141.5 50.5zM356.5 53.5q8.5 35.5 8.5 106.5q0 105 -14 227.5t-41.5 208.5t-66.5 86q-25 0 -33.5 -35.5
t-8.5 -106.5q0 -105 14 -227.5t41.5 -208.5t66.5 -86q25 0 33.5 35.5zM185 838q2 21 32 54t50 39l114 -183l-2 -2z" />
    <glyph glyph-name="Oacute" unicode="&#xd3;" horiz-adv-x="566" 
d="M142.5 40.5q-57.5 50.5 -86 132.5t-28.5 177q0 98 29.5 180t87 131t138.5 49q84 0 141 -50.5t85 -132.5t28 -177q0 -99 -29 -181t-86 -130.5t-138 -48.5q-84 0 -141.5 50.5zM356.5 53.5q8.5 35.5 8.5 106.5q0 105 -14 227.5t-41.5 208.5t-66.5 86q-25 0 -33.5 -35.5
t-8.5 -106.5q0 -105 14 -227.5t41.5 -208.5t66.5 -86q25 0 33.5 35.5zM212 748l115 183q20 -6 49.5 -39t31.5 -54l-194 -92z" />
    <glyph glyph-name="Ocircumflex" unicode="&#xd4;" horiz-adv-x="566" 
d="M142.5 40.5q-57.5 50.5 -86 132.5t-28.5 177q0 98 29.5 180t87 131t138.5 49q84 0 141 -50.5t85 -132.5t28 -177q0 -99 -29 -181t-86 -130.5t-138 -48.5q-84 0 -141.5 50.5zM356.5 53.5q8.5 35.5 8.5 106.5q0 105 -14 227.5t-41.5 208.5t-66.5 86q-25 0 -33.5 -35.5
t-8.5 -106.5q0 -105 14 -227.5t41.5 -208.5t66.5 -86q25 0 33.5 35.5zM154 748l129 183l129 -183l-2 -2l-127 62l-127 -62z" />
    <glyph glyph-name="Otilde" unicode="&#xd5;" horiz-adv-x="566" 
d="M142.5 40.5q-57.5 50.5 -86 132.5t-28.5 177q0 98 29.5 180t87 131t138.5 49q84 0 141 -50.5t85 -132.5t28 -177q0 -99 -29 -181t-86 -130.5t-138 -48.5q-84 0 -141.5 50.5zM356.5 53.5q8.5 35.5 8.5 106.5q0 105 -14 227.5t-41.5 208.5t-66.5 86q-25 0 -33.5 -35.5
t-8.5 -106.5q0 -105 14 -227.5t41.5 -208.5t66.5 -86q25 0 33.5 35.5zM157 874q37 57 79 57q14 0 29.5 -6.5t36.5 -19.5q27 -15 46.5 -23t39.5 -8q48 0 75 57h6q-22 -65 -58 -122t-78 -57q-14 0 -29 6.5t-37 19.5q-26 15 -45.5 23t-39.5 8q-51 0 -78 -57h-6q22 65 59 122z
" />
    <glyph glyph-name="Odieresis" unicode="&#xd6;" horiz-adv-x="566" 
d="M142.5 40.5q-57.5 50.5 -86 132.5t-28.5 177q0 98 29.5 180t87 131t138.5 49q84 0 141 -50.5t85 -132.5t28 -177q0 -99 -29 -181t-86 -130.5t-138 -48.5q-84 0 -141.5 50.5zM356.5 53.5q8.5 35.5 8.5 106.5q0 105 -14 227.5t-41.5 208.5t-66.5 86q-25 0 -33.5 -35.5
t-8.5 -106.5q0 -105 14 -227.5t41.5 -208.5t66.5 -86q25 0 33.5 35.5zM131.5 778.5q-21.5 24.5 -21.5 58.5t21.5 58.5t52.5 24.5t53 -24.5t22 -58.5t-22 -58.5t-53 -24.5t-52.5 24.5zM327.5 778.5q-21.5 24.5 -21.5 58.5t21.5 58.5t52.5 24.5t53 -24.5t22 -58.5t-22 -58.5
t-53 -24.5t-52.5 24.5z" />
    <glyph glyph-name="multiply" unicode="&#xd7;" horiz-adv-x="228" 
d="M128 303l74 -74l-14 -15l-74 75l-74 -75l-14 15l74 74l-75 76l15 14l74 -75l74 75l15 -14z" />
    <glyph glyph-name="Oslash" unicode="&#xd8;" horiz-adv-x="566" 
d="M500.5 550q36.5 -90 36.5 -200q0 -99 -29 -181t-86 -130.5t-138 -48.5q-47 0 -86 17l-31 -106h-28l34 118q-71 42 -108 132t-37 199q0 98 29.5 180t87 131t138.5 49q45 0 85 -16l31 106h28l-34 -118q71 -42 107.5 -132zM208.5 377.5q7.5 -87.5 21.5 -163.5l94 328
q-15 65 -35.5 102.5t-45.5 37.5t-33.5 -35.5t-8.5 -106.5q0 -75 7.5 -162.5zM356.5 53.5q8.5 35.5 8.5 106.5q0 75 -7.5 163t-21.5 163l-95 -328q34 -140 82 -140q25 0 33.5 35.5z" />
    <glyph glyph-name="Ugrave" unicode="&#xd9;" horiz-adv-x="524" 
d="M166.5 18.5q-48.5 28.5 -73 76.5t-24.5 107v314q0 72 -4.5 107.5t-13.5 49t-28 27.5h267q-17 -14 -24.5 -28t-12 -49t-4.5 -107v-314q0 -80 23.5 -125.5t70.5 -45.5q48 0 74.5 46t26.5 125v314q0 72 -5 107t-14.5 49t-28.5 28h125q-19 -14 -28.5 -28t-14.5 -49t-5 -107
v-314q0 -95 -44.5 -153.5t-143.5 -58.5q-70 0 -118.5 28.5zM208 838q2 21 32 54t50 39l114 -183l-2 -2z" />
    <glyph glyph-name="Uacute" unicode="&#xda;" horiz-adv-x="524" 
d="M166.5 18.5q-48.5 28.5 -73 76.5t-24.5 107v314q0 72 -4.5 107.5t-13.5 49t-28 27.5h267q-17 -14 -24.5 -28t-12 -49t-4.5 -107v-314q0 -80 23.5 -125.5t70.5 -45.5q48 0 74.5 46t26.5 125v314q0 72 -5 107t-14.5 49t-28.5 28h125q-19 -14 -28.5 -28t-14.5 -49t-5 -107
v-314q0 -95 -44.5 -153.5t-143.5 -58.5q-70 0 -118.5 28.5zM236 748l115 183q20 -6 49.5 -39t31.5 -54l-194 -92z" />
    <glyph glyph-name="Ucircumflex" unicode="&#xdb;" horiz-adv-x="524" 
d="M166.5 18.5q-48.5 28.5 -73 76.5t-24.5 107v314q0 72 -4.5 107.5t-13.5 49t-28 27.5h267q-17 -14 -24.5 -28t-12 -49t-4.5 -107v-314q0 -80 23.5 -125.5t70.5 -45.5q48 0 74.5 46t26.5 125v314q0 72 -5 107t-14.5 49t-28.5 28h125q-19 -14 -28.5 -28t-14.5 -49t-5 -107
v-314q0 -95 -44.5 -153.5t-143.5 -58.5q-70 0 -118.5 28.5zM178 748l129 183l129 -183l-2 -2l-127 62l-127 -62z" />
    <glyph glyph-name="Udieresis" unicode="&#xdc;" horiz-adv-x="524" 
d="M166.5 18.5q-48.5 28.5 -73 76.5t-24.5 107v314q0 72 -4.5 107.5t-13.5 49t-28 27.5h267q-17 -14 -24.5 -28t-12 -49t-4.5 -107v-314q0 -80 23.5 -125.5t70.5 -45.5q48 0 74.5 46t26.5 125v314q0 72 -5 107t-14.5 49t-28.5 28h125q-19 -14 -28.5 -28t-14.5 -49t-5 -107
v-314q0 -95 -44.5 -153.5t-143.5 -58.5q-70 0 -118.5 28.5zM155.5 778.5q-21.5 24.5 -21.5 58.5t21.5 58.5t52.5 24.5t53 -24.5t22 -58.5t-22 -58.5t-53 -24.5t-52.5 24.5zM351.5 778.5q-21.5 24.5 -21.5 58.5t21.5 58.5t52.5 24.5t53 -24.5t22 -58.5t-22 -58.5t-53 -24.5
t-52.5 24.5z" />
    <glyph glyph-name="Yacute" unicode="&#xdd;" horiz-adv-x="513" 
d="M515 700q-75 -64 -116 -184l-51 -144v-188q0 -72 4.5 -107.5t13.5 -49t28 -27.5h-271q19 14 28 27.5t13.5 49t4.5 107.5v127l-68 205q-40 123 -103 184h271q-11 -12 -11 -34q0 -17 7 -44.5t16 -58.5l13 -47l34 -118l37 118l11 35q15 46 22 71.5t7 43.5q0 21 -12 34h122z
M185 748l115 183q20 -6 49.5 -39t31.5 -54l-194 -92z" />
    <glyph glyph-name="Thorn" unicode="&#xde;" horiz-adv-x="529" 
d="M445 191.5q-66 -57.5 -195 -58.5q1 -49 6.5 -74t13.5 -36t25 -23h-272q19 14 28 27.5t13.5 49t4.5 107.5v332q0 72 -4.5 107.5t-13.5 49t-28 27.5h272q-17 -12 -25 -23t-13.5 -36t-6.5 -74q129 -1 195 -58.5t66 -158.5t-66 -158.5zM335 350q0 197 -86 200v-34v-332v-34
q86 3 86 200z" />
    <glyph glyph-name="germandbls" unicode="&#xdf;" horiz-adv-x="531" 
d="M289 0q-23 10 -32 24l-2 116q11 -50 37.5 -91.5t56.5 -41.5q25 0 25 32q0 22 -11.5 47.5t-44.5 86.5l-45 87q-16 31 -22.5 53t-6.5 44q0 31 11.5 51t35.5 47q22 23 33.5 42.5t11.5 46.5q0 33 -16 60t-41.5 42.5t-52.5 15.5q-29 0 -46 -16t-17 -42q0 -16 6.5 -30t18.5 -32
q2 -3 8 -13t9 -18.5t3 -15.5v-395q0 -43 10 -68.5t11 -31.5h-213q30 39 30 100v340h-33q46 107 95.5 167t101 84t112.5 24q77 0 116 -32.5t39 -88.5q0 -39 -16 -58t-46 -34q-21 -12 -30.5 -21t-9.5 -26q0 -15 8.5 -36.5t30.5 -62.5l45 -86q34 -65 49 -99.5t15 -63.5
q0 -36 -26 -62.5t-67 -40.5t-83 -14q-35 0 -58 10z" />
    <glyph glyph-name="agrave" unicode="&#xe0;" horiz-adv-x="436" 
d="M38 14.5q-25 24.5 -25 72.5q0 34 12.5 60t30 44.5t50.5 46.5q37 30 58.5 53.5t37 58.5t15.5 83q0 55 -19 55q-11 0 -40 -38t-55.5 -76.5t-33.5 -49.5q-13 -22 -23 -35h-2q10 107 16 156l4 42q28 10 72 16.5t81 6.5q81 0 122 -35.5t41 -111.5v-273q0 -22 8 -33t29 -11
q8 0 15 4q0 -13 -16.5 -27t-42.5 -23.5t-54 -9.5q-47 0 -74.5 26.5t-27.5 68.5q0 4 -0.5 5.5t-1.5 1.5q-3 0 -16.5 -28.5t-37.5 -51t-61 -22.5t-62 24.5zM217 164v116q0 11 -1.5 14.5t-4.5 3.5q-11 0 -25.5 -20t-25 -51t-10.5 -63q0 -33 11.5 -50t24.5 -17q31 0 31 67z
M110 638q2 21 32 54t50 39l114 -183l-2 -2z" />
    <glyph glyph-name="aacute" unicode="&#xe1;" horiz-adv-x="436" 
d="M38 14.5q-25 24.5 -25 72.5q0 34 12.5 60t30 44.5t50.5 46.5q37 30 58.5 53.5t37 58.5t15.5 83q0 55 -19 55q-11 0 -40 -38t-55.5 -76.5t-33.5 -49.5q-13 -22 -23 -35h-2q10 107 16 156l4 42q28 10 72 16.5t81 6.5q81 0 122 -35.5t41 -111.5v-273q0 -22 8 -33t29 -11
q8 0 15 4q0 -13 -16.5 -27t-42.5 -23.5t-54 -9.5q-47 0 -74.5 26.5t-27.5 68.5q0 4 -0.5 5.5t-1.5 1.5q-3 0 -16.5 -28.5t-37.5 -51t-61 -22.5t-62 24.5zM217 164v116q0 11 -1.5 14.5t-4.5 3.5q-11 0 -25.5 -20t-25 -51t-10.5 -63q0 -33 11.5 -50t24.5 -17q31 0 31 67z
M138 548l115 183q20 -6 49.5 -39t31.5 -54l-194 -92z" />
    <glyph glyph-name="acircumflex" unicode="&#xe2;" horiz-adv-x="436" 
d="M38 14.5q-25 24.5 -25 72.5q0 34 12.5 60t30 44.5t50.5 46.5q37 30 58.5 53.5t37 58.5t15.5 83q0 55 -19 55q-11 0 -40 -38t-55.5 -76.5t-33.5 -49.5q-13 -22 -23 -35h-2q10 107 16 156l4 42q28 10 72 16.5t81 6.5q81 0 122 -35.5t41 -111.5v-273q0 -22 8 -33t29 -11
q8 0 15 4q0 -13 -16.5 -27t-42.5 -23.5t-54 -9.5q-47 0 -74.5 26.5t-27.5 68.5q0 4 -0.5 5.5t-1.5 1.5q-3 0 -16.5 -28.5t-37.5 -51t-61 -22.5t-62 24.5zM217 164v116q0 11 -1.5 14.5t-4.5 3.5q-11 0 -25.5 -20t-25 -51t-10.5 -63q0 -33 11.5 -50t24.5 -17q31 0 31 67z
M80 548l129 183l129 -183l-2 -2l-127 62l-127 -62z" />
    <glyph glyph-name="atilde" unicode="&#xe3;" horiz-adv-x="436" 
d="M38 14.5q-25 24.5 -25 72.5q0 34 12.5 60t30 44.5t50.5 46.5q37 30 58.5 53.5t37 58.5t15.5 83q0 55 -19 55q-11 0 -40 -38t-55.5 -76.5t-33.5 -49.5q-13 -22 -23 -35h-2q10 107 16 156l4 42q28 10 72 16.5t81 6.5q81 0 122 -35.5t41 -111.5v-273q0 -22 8 -33t29 -11
q8 0 15 4q0 -13 -16.5 -27t-42.5 -23.5t-54 -9.5q-47 0 -74.5 26.5t-27.5 68.5q0 4 -0.5 5.5t-1.5 1.5q-3 0 -16.5 -28.5t-37.5 -51t-61 -22.5t-62 24.5zM217 164v116q0 11 -1.5 14.5t-4.5 3.5q-11 0 -25.5 -20t-25 -51t-10.5 -63q0 -33 11.5 -50t24.5 -17q31 0 31 67z
M83 674q37 57 79 57q14 0 29.5 -6.5t36.5 -19.5q27 -15 46.5 -23t39.5 -8q48 0 75 57h6q-22 -65 -58 -122t-78 -57q-14 0 -29 6.5t-37 19.5q-26 15 -45.5 23t-39.5 8q-51 0 -78 -57h-6q22 65 59 122z" />
    <glyph glyph-name="adieresis" unicode="&#xe4;" horiz-adv-x="436" 
d="M38 14.5q-25 24.5 -25 72.5q0 34 12.5 60t30 44.5t50.5 46.5q37 30 58.5 53.5t37 58.5t15.5 83q0 55 -19 55q-11 0 -40 -38t-55.5 -76.5t-33.5 -49.5q-13 -22 -23 -35h-2q10 107 16 156l4 42q28 10 72 16.5t81 6.5q81 0 122 -35.5t41 -111.5v-273q0 -22 8 -33t29 -11
q8 0 15 4q0 -13 -16.5 -27t-42.5 -23.5t-54 -9.5q-47 0 -74.5 26.5t-27.5 68.5q0 4 -0.5 5.5t-1.5 1.5q-3 0 -16.5 -28.5t-37.5 -51t-61 -22.5t-62 24.5zM217 164v116q0 11 -1.5 14.5t-4.5 3.5q-11 0 -25.5 -20t-25 -51t-10.5 -63q0 -33 11.5 -50t24.5 -17q31 0 31 67z
M57.5 578.5q-21.5 24.5 -21.5 58.5t21.5 58.5t52.5 24.5t53 -24.5t22 -58.5t-22 -58.5t-53 -24.5t-52.5 24.5zM253.5 578.5q-21.5 24.5 -21.5 58.5t21.5 58.5t52.5 24.5t53 -24.5t22 -58.5t-22 -58.5t-53 -24.5t-52.5 24.5z" />
    <glyph glyph-name="aring" unicode="&#xe5;" horiz-adv-x="436" 
d="M38 14.5q-25 24.5 -25 72.5q0 34 12.5 60t30 44.5t50.5 46.5q37 30 58.5 53.5t37 58.5t15.5 83q0 55 -19 55q-11 0 -40 -38t-55.5 -76.5t-33.5 -49.5q-13 -22 -23 -35h-2q10 107 16 156l4 42q28 10 72 16.5t81 6.5q81 0 122 -35.5t41 -111.5v-273q0 -22 8 -33t29 -11
q8 0 15 4q0 -13 -16.5 -27t-42.5 -23.5t-54 -9.5q-47 0 -74.5 26.5t-27.5 68.5q0 4 -0.5 5.5t-1.5 1.5q-3 0 -16.5 -28.5t-37.5 -51t-61 -22.5t-62 24.5zM217 164v116q0 11 -1.5 14.5t-4.5 3.5q-11 0 -25.5 -20t-25 -51t-10.5 -63q0 -33 11.5 -50t24.5 -17q31 0 31 67z
M159.5 586.5q-20.5 23.5 -20.5 55.5t20.5 55t49.5 23t49.5 -23t20.5 -55t-20.5 -55.5t-49.5 -23.5t-49.5 23.5zM249 596q16 19 16 46t-16 45.5t-40 18.5t-40 -18.5t-16 -45.5t16 -46t40 -19t40 19z" />
    <glyph glyph-name="ae" unicode="&#xe6;" horiz-adv-x="627" 
d="M582.5 97q14.5 5 21.5 13q-10 -50 -49 -85t-105 -35q-51 0 -93.5 23t-71.5 64q-8 7 -15 7q-12 0 -22.5 -8t-25.5 -25q-26 -29 -51.5 -45t-64.5 -16q-41 0 -67 25.5t-26 69.5q0 32 14 57.5t34.5 44t55.5 45.5q38 28 61 49t38.5 50.5t15.5 68.5q0 81 -50 81q-27 0 -27 -23
q0 -12 7 -37q8 -32 8 -49q0 -33 -21.5 -50t-53.5 -17q-29 0 -45 16.5t-16 46.5q0 41 29 73.5t74.5 50.5t91.5 18q65 0 93 -42q53 42 124 42q73 0 110.5 -42t37.5 -115q0 -41 -14 -61h-162q-16 0 -23.5 -6.5t-7.5 -22.5q0 -38 21 -78t59 -66.5t84 -26.5q17 0 31.5 5z
M393 456.5q-14 -28.5 -14 -87.5q0 -28 6 -40t20 -12q18 0 35 21.5t17 74.5q0 32 -7.5 52t-23.5 20q-19 0 -33 -28.5zM219 116q13 15 13 48v111q0 9 -6 9q-11 0 -26.5 -23t-26.5 -55t-11 -58q0 -21 8.5 -34t19.5 -13q16 0 29 15z" />
    <glyph glyph-name="ccedilla" unicode="&#xe7;" horiz-adv-x="384" 
d="M325.5 33.5q-29.5 -32.5 -77.5 -40.5q-16 -20 -16 -36q0 -18 11 -32t30 -31q2 -2 10 -9t8 -12q0 -20 -27 -45.5t-62 -43.5t-53 -18q-12 0 -18.5 7.5t-6.5 19.5q0 18 26 18q8 0 24 -2t23 -2q22 0 22 14q0 11 -8.5 21.5t-25.5 26.5q-13 11 -20 19.5t-7 15.5q0 11 19.5 33
t51.5 53h-11q-59 0 -104.5 35t-70.5 94.5t-25 131.5q0 76 27.5 135t76.5 91.5t112 32.5q47 0 90 -16q14 -92 22 -220h-1l-26 49q-48 89 -72 127t-39 38t-29.5 -31.5t-14.5 -102.5q0 -107 38.5 -184.5t113.5 -77.5q35 0 50 18q-11 -44 -40.5 -76.5z" />
    <glyph glyph-name="egrave" unicode="&#xe8;" horiz-adv-x="414" 
d="M123 25.5q-50 35.5 -77.5 96.5t-27.5 135q0 73 27 130.5t75.5 90t111.5 32.5q71 0 109.5 -40t39.5 -110q0 -47 -15 -68h-161q-17 0 -24.5 -6.5t-7.5 -22.5q0 -37 21.5 -77.5t59 -67t83.5 -26.5q18 0 32 5t22 13q-10 -50 -49 -85t-105 -35q-64 0 -114 35.5zM226.5 338.5
q16.5 21.5 16.5 74.5q0 32 -7.5 52t-23.5 20q-18 0 -32.5 -29t-14.5 -87q0 -28 6 -40t20 -12q19 0 35.5 21.5zM123 638q2 21 32 54t50 39l114 -183l-2 -2z" />
    <glyph glyph-name="eacute" unicode="&#xe9;" horiz-adv-x="414" 
d="M123 25.5q-50 35.5 -77.5 96.5t-27.5 135q0 73 27 130.5t75.5 90t111.5 32.5q71 0 109.5 -40t39.5 -110q0 -47 -15 -68h-161q-17 0 -24.5 -6.5t-7.5 -22.5q0 -37 21.5 -77.5t59 -67t83.5 -26.5q18 0 32 5t22 13q-10 -50 -49 -85t-105 -35q-64 0 -114 35.5zM226.5 338.5
q16.5 21.5 16.5 74.5q0 32 -7.5 52t-23.5 20q-18 0 -32.5 -29t-14.5 -87q0 -28 6 -40t20 -12q19 0 35.5 21.5zM150 548l115 183q20 -6 49.5 -39t31.5 -54l-194 -92z" />
    <glyph glyph-name="ecircumflex" unicode="&#xea;" horiz-adv-x="414" 
d="M123 25.5q-50 35.5 -77.5 96.5t-27.5 135q0 73 27 130.5t75.5 90t111.5 32.5q71 0 109.5 -40t39.5 -110q0 -47 -15 -68h-161q-17 0 -24.5 -6.5t-7.5 -22.5q0 -37 21.5 -77.5t59 -67t83.5 -26.5q18 0 32 5t22 13q-10 -50 -49 -85t-105 -35q-64 0 -114 35.5zM226.5 338.5
q16.5 21.5 16.5 74.5q0 32 -7.5 52t-23.5 20q-18 0 -32.5 -29t-14.5 -87q0 -28 6 -40t20 -12q19 0 35.5 21.5zM93 548l129 183l129 -183l-2 -2l-127 62l-127 -62z" />
    <glyph glyph-name="edieresis" unicode="&#xeb;" horiz-adv-x="414" 
d="M123 25.5q-50 35.5 -77.5 96.5t-27.5 135q0 73 27 130.5t75.5 90t111.5 32.5q71 0 109.5 -40t39.5 -110q0 -47 -15 -68h-161q-17 0 -24.5 -6.5t-7.5 -22.5q0 -37 21.5 -77.5t59 -67t83.5 -26.5q18 0 32 5t22 13q-10 -50 -49 -85t-105 -35q-64 0 -114 35.5zM226.5 338.5
q16.5 21.5 16.5 74.5q0 32 -7.5 52t-23.5 20q-18 0 -32.5 -29t-14.5 -87q0 -28 6 -40t20 -12q19 0 35.5 21.5zM69.5 578.5q-21.5 24.5 -21.5 58.5t21.5 58.5t52.5 24.5t53 -24.5t22 -58.5t-22 -58.5t-53 -24.5t-52.5 24.5zM265.5 578.5q-21.5 24.5 -21.5 58.5t21.5 58.5
t52.5 24.5t53 -24.5t22 -58.5t-22 -58.5t-53 -24.5t-52.5 24.5z" />
    <glyph glyph-name="igrave" unicode="&#xec;" horiz-adv-x="257" 
d="M47 100v279q0 62 -29 100l192 31v-410q0 -62 29 -100h-221q29 38 29 100zM30 638q2 21 32 54t50 39l114 -183l-2 -2z" />
    <glyph glyph-name="iacute" unicode="&#xed;" horiz-adv-x="257" 
d="M47 100v279q0 62 -29 100l192 31v-410q0 -62 29 -100h-221q29 38 29 100zM58 548l115 183q20 -6 49.5 -39t31.5 -54l-194 -92z" />
    <glyph glyph-name="icircumflex" unicode="&#xee;" horiz-adv-x="257" 
d="M47 100v279q0 62 -29 100l192 31v-410q0 -62 29 -100h-221q29 38 29 100zM0 548l129 183l129 -183l-2 -2l-127 62l-127 -62z" />
    <glyph glyph-name="idieresis" unicode="&#xef;" horiz-adv-x="257" 
d="M47 100v279q0 62 -29 100l192 31v-410q0 -62 29 -100h-221q29 38 29 100zM-22.5 578.5q-21.5 24.5 -21.5 58.5t21.5 58.5t52.5 24.5t53 -24.5t22 -58.5t-22 -58.5t-53 -24.5t-52.5 24.5zM173.5 578.5q-21.5 24.5 -21.5 58.5t21.5 58.5t52.5 24.5t53 -24.5t22 -58.5
t-22 -58.5t-53 -24.5t-52.5 24.5z" />
    <glyph glyph-name="eth" unicode="&#xf0;" horiz-adv-x="469" 
d="M413.5 482q26.5 -82 26.5 -178q0 -99 -28 -170t-76.5 -107.5t-109.5 -36.5t-108 30t-73.5 86t-26.5 132q0 85 34 149t107 64q33 0 63 -18t45 -55q-10 2 -13 2q-40 0 -56 -60.5t-16 -151.5q0 -66 8.5 -111t27.5 -45q28 0 40 99.5t12 198.5q0 153 -25 246l-51 -34l-10 15
l55 37q-39 126 -128 126q24 10 61 10q43 0 82.5 -19.5t73.5 -55.5l63 42l10 -15l-61 -41q47 -57 73.5 -139z" />
    <glyph glyph-name="ntilde" unicode="&#xf1;" 
d="M289 100v245q0 38 -6.5 54.5t-26.5 16.5q-19 0 -46 -18v-298q0 -62 29 -100h-221q29 38 29 100v279q0 62 -29 100l192 31v-92q87 92 158 92q84 0 84 -131v-279q0 -62 29 -100h-221q29 38 29 100zM139 674q37 57 79 57q14 0 29.5 -6.5t36.5 -19.5q27 -15 46.5 -23t39.5 -8
q48 0 75 57h6q-22 -65 -58 -122t-78 -57q-14 0 -29 6.5t-37 19.5q-26 15 -45.5 23t-39.5 8q-51 0 -78 -57h-6q22 65 59 122z" />
    <glyph glyph-name="ograve" unicode="&#xf2;" horiz-adv-x="451" 
d="M112.5 25q-46.5 35 -70.5 94t-24 132q0 74 26.5 133t74.5 92.5t110 33.5q63 0 109 -34.5t70.5 -94t24.5 -130.5q0 -75 -26.5 -134t-74.5 -93t-110 -34q-63 0 -109.5 35zM282 83q0 63 -12 160t-33 169t-47 72q-21 0 -21 -67q0 -64 12 -160.5t33 -168.5t47 -72q21 0 21 67z
M127 638q2 21 32 54t50 39l114 -183l-2 -2z" />
    <glyph glyph-name="oacute" unicode="&#xf3;" horiz-adv-x="451" 
d="M112.5 25q-46.5 35 -70.5 94t-24 132q0 74 26.5 133t74.5 92.5t110 33.5q63 0 109 -34.5t70.5 -94t24.5 -130.5q0 -75 -26.5 -134t-74.5 -93t-110 -34q-63 0 -109.5 35zM282 83q0 63 -12 160t-33 169t-47 72q-21 0 -21 -67q0 -64 12 -160.5t33 -168.5t47 -72q21 0 21 67z
M155 548l115 183q20 -6 49.5 -39t31.5 -54l-194 -92z" />
    <glyph glyph-name="ocircumflex" unicode="&#xf4;" horiz-adv-x="451" 
d="M112.5 25q-46.5 35 -70.5 94t-24 132q0 74 26.5 133t74.5 92.5t110 33.5q63 0 109 -34.5t70.5 -94t24.5 -130.5q0 -75 -26.5 -134t-74.5 -93t-110 -34q-63 0 -109.5 35zM282 83q0 63 -12 160t-33 169t-47 72q-21 0 -21 -67q0 -64 12 -160.5t33 -168.5t47 -72q21 0 21 67z
M97 548l129 183l129 -183l-2 -2l-127 62l-127 -62z" />
    <glyph glyph-name="otilde" unicode="&#xf5;" horiz-adv-x="451" 
d="M112.5 25q-46.5 35 -70.5 94t-24 132q0 74 26.5 133t74.5 92.5t110 33.5q63 0 109 -34.5t70.5 -94t24.5 -130.5q0 -75 -26.5 -134t-74.5 -93t-110 -34q-63 0 -109.5 35zM282 83q0 63 -12 160t-33 169t-47 72q-21 0 -21 -67q0 -64 12 -160.5t33 -168.5t47 -72q21 0 21 67z
M99 674q37 57 79 57q14 0 29.5 -6.5t36.5 -19.5q27 -15 46.5 -23t39.5 -8q48 0 75 57h6q-22 -65 -58 -122t-78 -57q-14 0 -29 6.5t-37 19.5q-26 15 -45.5 23t-39.5 8q-51 0 -78 -57h-6q22 65 59 122z" />
    <glyph glyph-name="odieresis" unicode="&#xf6;" horiz-adv-x="451" 
d="M112.5 25q-46.5 35 -70.5 94t-24 132q0 74 26.5 133t74.5 92.5t110 33.5q63 0 109 -34.5t70.5 -94t24.5 -130.5q0 -75 -26.5 -134t-74.5 -93t-110 -34q-63 0 -109.5 35zM282 83q0 63 -12 160t-33 169t-47 72q-21 0 -21 -67q0 -64 12 -160.5t33 -168.5t47 -72q21 0 21 67z
M74.5 578.5q-21.5 24.5 -21.5 58.5t21.5 58.5t52.5 24.5t53 -24.5t22 -58.5t-22 -58.5t-53 -24.5t-52.5 24.5zM270.5 578.5q-21.5 24.5 -21.5 58.5t21.5 58.5t52.5 24.5t53 -24.5t22 -58.5t-22 -58.5t-53 -24.5t-52.5 24.5z" />
    <glyph glyph-name="divide" unicode="&#xf7;" horiz-adv-x="280" 
d="M127 398q-6 6 -6 14t6 13.5t14 5.5t13.5 -5.5t5.5 -13.5t-5.5 -14t-13.5 -6t-14 6zM25 314h230v-21h-230v21zM127 182.5q-6 5.5 -6 13.5t6 14t14 6t13.5 -6t5.5 -14q0 -7 -5.5 -13t-13.5 -6t-14 5.5z" />
    <glyph glyph-name="oslash" unicode="&#xf8;" horiz-adv-x="451" 
d="M400 400.5q33 -65.5 33 -149.5q0 -75 -26.5 -134t-74.5 -93t-110 -34q-30 0 -52 7l-27 -96h-27l29 105q-60 26 -93.5 92.5t-33.5 152.5q0 74 26.5 133t74.5 92.5t110 33.5q24 0 54 -7l25 91h27l-28 -100q60 -28 93 -93.5zM175.5 305q6.5 -67 17.5 -127l54 197
q-26 109 -57 109q-21 0 -21 -67q0 -45 6.5 -112zM282 83q0 44 -6 109.5t-17 126.5l-55 -197q26 -106 57 -106q21 0 21 67z" />
    <glyph glyph-name="ugrave" unicode="&#xf9;" 
d="M289 -10v92q-87 -92 -158 -92q-84 0 -84 131v238q0 46 -9 76t-20 44l192 31v-355q0 -38 6.5 -54.5t26.5 -16.5q19 0 46 18v257q0 46 -9 76t-20 44l192 31v-389q0 -62 29 -100zM153 638q2 21 32 54t50 39l114 -183l-2 -2z" />
    <glyph glyph-name="uacute" unicode="&#xfa;" 
d="M289 -10v92q-87 -92 -158 -92q-84 0 -84 131v238q0 46 -9 76t-20 44l192 31v-355q0 -38 6.5 -54.5t26.5 -16.5q19 0 46 18v257q0 46 -9 76t-20 44l192 31v-389q0 -62 29 -100zM181 548l115 183q20 -6 49.5 -39t31.5 -54l-194 -92z" />
    <glyph glyph-name="ucircumflex" unicode="&#xfb;" 
d="M289 -10v92q-87 -92 -158 -92q-84 0 -84 131v238q0 46 -9 76t-20 44l192 31v-355q0 -38 6.5 -54.5t26.5 -16.5q19 0 46 18v257q0 46 -9 76t-20 44l192 31v-389q0 -62 29 -100zM123 548l129 183l129 -183l-2 -2l-127 62l-127 -62z" />
    <glyph glyph-name="udieresis" unicode="&#xfc;" 
d="M289 -10v92q-87 -92 -158 -92q-84 0 -84 131v238q0 46 -9 76t-20 44l192 31v-355q0 -38 6.5 -54.5t26.5 -16.5q19 0 46 18v257q0 46 -9 76t-20 44l192 31v-389q0 -62 29 -100zM100.5 578.5q-21.5 24.5 -21.5 58.5t21.5 58.5t52.5 24.5t53 -24.5t22 -58.5t-22 -58.5
t-53 -24.5t-52.5 24.5zM296.5 578.5q-21.5 24.5 -21.5 58.5t21.5 58.5t52.5 24.5t53 -24.5t22 -58.5t-22 -58.5t-53 -24.5t-52.5 24.5z" />
    <glyph glyph-name="yacute" unicode="&#xfd;" horiz-adv-x="393" 
d="M405 500q-21 -13 -37.5 -41t-33.5 -80l-122 -359q-18 -55 -35 -94t-46 -71.5t-68 -32.5q-16 0 -29 5.5t-17 10.5v119q25 -9 64 -9q41 0 68.5 13.5t27.5 51.5q0 20 -7.5 47t-23.5 71l-9 25l-79 223q-18 54 -33.5 81.5t-36.5 39.5h238q-20 -14 -20 -42q0 -26 17 -79
l42 -139l40 139q12 42 12 69q0 37 -23 52h111zM124 548l115 183q20 -6 49.5 -39t31.5 -54l-194 -92z" />
    <glyph glyph-name="thorn" unicode="&#xfe;" horiz-adv-x="477" 
d="M396 479.5q30 -30.5 46.5 -83.5t16.5 -120q0 -85 -28.5 -150t-77 -100.5t-104.5 -35.5h-39v-47q0 -62 29 -100l-221 -39q29 38 29 100v696q0 62 -29 100l192 30v-332q13 38 44.5 75t74.5 37q37 0 67 -30.5zM280 60q14 49 14 127q0 88 -14.5 153.5t-44.5 65.5
q-12 0 -18.5 -8.5t-6.5 -19.5v-213q0 -81 10 -117.5t26 -36.5q20 0 34 49z" />
    <glyph glyph-name="ydieresis" unicode="&#xff;" horiz-adv-x="393" 
d="M405 500q-21 -13 -37.5 -41t-33.5 -80l-122 -359q-18 -55 -35 -94t-46 -71.5t-68 -32.5q-16 0 -29 5.5t-17 10.5v119q25 -9 64 -9q41 0 68.5 13.5t27.5 51.5q0 20 -7.5 47t-23.5 71l-9 25l-79 223q-18 54 -33.5 81.5t-36.5 39.5h238q-20 -14 -20 -42q0 -26 17 -79
l42 -139l40 139q12 42 12 69q0 37 -23 52h111zM43.5 578.5q-21.5 24.5 -21.5 58.5t21.5 58.5t52.5 24.5t53 -24.5t22 -58.5t-22 -58.5t-53 -24.5t-52.5 24.5zM239.5 578.5q-21.5 24.5 -21.5 58.5t21.5 58.5t52.5 24.5t53 -24.5t22 -58.5t-22 -58.5t-53 -24.5t-52.5 24.5z
" />
    <glyph glyph-name="Amacron" unicode="&#x100;" horiz-adv-x="510" 
d="M255 0q14 17 14 42q0 19 -6 45t-19 70h-128q-15 -63 -15 -100q0 -39 17 -57h-120q26 23 47.5 65.5t44.5 118.5l164 532l174 -532q26 -81 44 -122t40 -62h-257zM176 385l-53 -200h113zM115 889h310l-32 -94h-309z" />
    <glyph glyph-name="amacron" unicode="&#x101;" horiz-adv-x="436" 
d="M38 14.5q-25 24.5 -25 72.5q0 34 12.5 60t30 44.5t50.5 46.5q37 30 58.5 53.5t37 58.5t15.5 83q0 55 -19 55q-11 0 -40 -38t-55.5 -76.5t-33.5 -49.5q-13 -22 -23 -35h-2q10 107 16 156l4 42q28 10 72 16.5t81 6.5q81 0 122 -35.5t41 -111.5v-273q0 -22 8 -33t29 -11
q8 0 15 4q0 -13 -16.5 -27t-42.5 -23.5t-54 -9.5q-47 0 -74.5 26.5t-27.5 68.5q0 4 -0.5 5.5t-1.5 1.5q-3 0 -16.5 -28.5t-37.5 -51t-61 -22.5t-62 24.5zM217 164v116q0 11 -1.5 14.5t-4.5 3.5q-11 0 -25.5 -20t-25 -51t-10.5 -63q0 -33 11.5 -50t24.5 -17q31 0 31 67z
M70 689h310l-32 -94h-309z" />
    <glyph glyph-name="Abreve" unicode="&#x102;" horiz-adv-x="510" 
d="M255 0q14 17 14 42q0 19 -6 45t-19 70h-128q-15 -63 -15 -100q0 -39 17 -57h-120q26 23 47.5 65.5t44.5 118.5l164 532l174 -532q26 -81 44 -122t40 -62h-257zM176 385l-53 -200h113zM179.5 792.5q-28.5 31.5 -28.5 75.5q0 28 9 52h3q0 -31 22.5 -53.5t68.5 -22.5
t68.5 22.5t22.5 53.5h3q9 -24 9 -52q0 -44 -28.5 -75.5t-74.5 -31.5t-74.5 31.5z" />
    <glyph glyph-name="abreve" unicode="&#x103;" horiz-adv-x="436" 
d="M38 14.5q-25 24.5 -25 72.5q0 34 12.5 60t30 44.5t50.5 46.5q37 30 58.5 53.5t37 58.5t15.5 83q0 55 -19 55q-11 0 -40 -38t-55.5 -76.5t-33.5 -49.5q-13 -22 -23 -35h-2q10 107 16 156l4 42q28 10 72 16.5t81 6.5q81 0 122 -35.5t41 -111.5v-273q0 -22 8 -33t29 -11
q8 0 15 4q0 -13 -16.5 -27t-42.5 -23.5t-54 -9.5q-47 0 -74.5 26.5t-27.5 68.5q0 4 -0.5 5.5t-1.5 1.5q-3 0 -16.5 -28.5t-37.5 -51t-61 -22.5t-62 24.5zM217 164v116q0 11 -1.5 14.5t-4.5 3.5q-11 0 -25.5 -20t-25 -51t-10.5 -63q0 -33 11.5 -50t24.5 -17q31 0 31 67z
M134.5 592.5q-28.5 31.5 -28.5 75.5q0 28 9 52h3q0 -31 22.5 -53.5t68.5 -22.5t68.5 22.5t22.5 53.5h3q9 -24 9 -52q0 -44 -28.5 -75.5t-74.5 -31.5t-74.5 31.5z" />
    <glyph glyph-name="Cacute" unicode="&#x106;" horiz-adv-x="495" 
d="M164.5 37.5q-61.5 47.5 -99 132t-37.5 189.5q0 91 31.5 171t96 130t157.5 50q58 0 113 -17q7 -51 23 -206q1 -18 5 -54h-3l-37 63q-61 106 -89 146t-50 40q-16 0 -32.5 -18.5t-28.5 -61.5t-12 -111q0 -89 23 -178.5t70 -148.5t114 -59q40 0 63 23q-7 -30 -29.5 -62
t-60 -54t-85.5 -22q-71 0 -132.5 47.5zM216 748l115 183q20 -6 49.5 -39t31.5 -54l-194 -92z" />
    <glyph glyph-name="cacute" unicode="&#x107;" horiz-adv-x="384" 
d="M113.5 25q-45.5 35 -70.5 94.5t-25 131.5q0 76 27.5 135t76.5 91.5t112 32.5q47 0 90 -16q14 -92 22 -220h-1l-26 49q-48 89 -72 127t-39 38t-29.5 -31.5t-14.5 -102.5q0 -107 38.5 -184.5t113.5 -77.5q35 0 50 18q-13 -50 -50 -85t-98 -35q-59 0 -104.5 35zM149 548
l115 183q20 -6 49.5 -39t31.5 -54l-194 -92z" />
    <glyph glyph-name="Cdotaccent" unicode="&#x10a;" horiz-adv-x="495" 
d="M164.5 37.5q-61.5 47.5 -99 132t-37.5 189.5q0 91 31.5 171t96 130t157.5 50q58 0 113 -17q7 -51 23 -206q1 -18 5 -54h-3l-37 63q-61 106 -89 146t-50 40q-16 0 -32.5 -18.5t-28.5 -61.5t-12 -111q0 -89 23 -178.5t70 -148.5t114 -59q40 0 63 23q-7 -30 -29.5 -62
t-60 -54t-85.5 -22q-71 0 -132.5 47.5zM234.5 778.5q-21.5 24.5 -21.5 58.5t21.5 58.5t52.5 24.5t52.5 -24.5t21.5 -58.5t-21.5 -58.5t-52.5 -24.5t-52.5 24.5z" />
    <glyph glyph-name="cdotaccent" unicode="&#x10b;" horiz-adv-x="384" 
d="M113.5 25q-45.5 35 -70.5 94.5t-25 131.5q0 76 27.5 135t76.5 91.5t112 32.5q47 0 90 -16q14 -92 22 -220h-1l-26 49q-48 89 -72 127t-39 38t-29.5 -31.5t-14.5 -102.5q0 -107 38.5 -184.5t113.5 -77.5q35 0 50 18q-13 -50 -50 -85t-98 -35q-59 0 -104.5 35zM167.5 578.5
q-21.5 24.5 -21.5 58.5t21.5 58.5t52.5 24.5t52.5 -24.5t21.5 -58.5t-21.5 -58.5t-52.5 -24.5t-52.5 24.5z" />
    <glyph glyph-name="Ccaron" unicode="&#x10c;" horiz-adv-x="495" 
d="M164.5 37.5q-61.5 47.5 -99 132t-37.5 189.5q0 91 31.5 171t96 130t157.5 50q58 0 113 -17q7 -51 23 -206q1 -18 5 -54h-3l-37 63q-61 106 -89 146t-50 40q-16 0 -32.5 -18.5t-28.5 -61.5t-12 -111q0 -89 23 -178.5t70 -148.5t114 -59q40 0 63 23q-7 -30 -29.5 -62
t-60 -54t-85.5 -22q-71 0 -132.5 47.5zM158 929l2 2l127 -62l127 62l2 -2l-129 -183z" />
    <glyph glyph-name="ccaron" unicode="&#x10d;" horiz-adv-x="384" 
d="M113.5 25q-45.5 35 -70.5 94.5t-25 131.5q0 76 27.5 135t76.5 91.5t112 32.5q47 0 90 -16q14 -92 22 -220h-1l-26 49q-48 89 -72 127t-39 38t-29.5 -31.5t-14.5 -102.5q0 -107 38.5 -184.5t113.5 -77.5q35 0 50 18q-13 -50 -50 -85t-98 -35q-59 0 -104.5 35zM91 729l2 2
l127 -62l127 62l2 -2l-129 -183z" />
    <glyph glyph-name="Dcaron" unicode="&#x10e;" horiz-adv-x="571" 
d="M51 27.5q9 13.5 13.5 49t4.5 107.5v332q0 72 -4.5 107.5t-13.5 49t-28 27.5h250q69 0 131 -38t100.5 -115.5t38.5 -190.5q0 -112 -38 -192.5t-101 -122t-136 -41.5h-245q19 14 28 27.5zM343 89q12 62 12 185q0 110 -10 201t-28.5 144.5t-43.5 53.5q-14 0 -19 -26t-5 -101
v-384q0 -135 50 -135q32 0 44 62zM162 929l2 2l127 -62l127 62l2 -2l-129 -183z" />
    <glyph glyph-name="dcaron" unicode="&#x10f;" horiz-adv-x="482" 
d="M435 127q0 -62 29 -100l-191 -35v110q-13 -38 -45 -75t-76 -37q-37 0 -66.5 30.5t-46 83.5t-16.5 120q0 85 29 150t77 100.5t104 35.5h40v90q0 62 -29 100l191 34v-607zM590 712.5q40 -19.5 50 -37.5l-146 -158l-3 1l38 212q21 2 61 -17.5zM273 422q0 37 -11.5 52
t-24.5 15q-21 0 -35 -48.5t-14 -127.5q0 -88 14.5 -153t44.5 -65q13 0 19.5 8t6.5 18v301z" />
    <glyph glyph-name="Dcroat" unicode="&#x110;" horiz-adv-x="571" 
d="M404 662q62 -38 100.5 -115.5t38.5 -190.5q0 -112 -38 -192.5t-101 -122t-136 -41.5h-245q19 14 28 27.5t13.5 49t4.5 107.5v154h-59v17h59v161q0 72 -4.5 107.5t-13.5 49t-28 27.5h250q69 0 131 -38zM343 89q12 62 12 185q0 110 -10 201t-28.5 144.5t-43.5 53.5
q-14 0 -19 -26t-5 -101v-183l61 3l-10 -28h-51v-176q0 -135 50 -135q32 0 44 62z" />
    <glyph glyph-name="dcroat" unicode="&#x111;" horiz-adv-x="496" 
d="M430 579v-452q0 -62 29 -100l-191 -35v110q-13 -38 -45 -75t-76 -37q-37 0 -66.5 30.5t-46 83.5t-16.5 120q0 85 29 150t77 100.5t104 35.5h40v69h-86v17h86v4q0 62 -29 100l191 34v-131l66 4l-10 -28h-56zM268 422q0 37 -11.5 52t-24.5 15q-21 0 -35 -48.5t-14 -127.5
q0 -88 14.5 -153t44.5 -65q13 0 19.5 8t6.5 18v301z" />
    <glyph glyph-name="Emacron" unicode="&#x112;" horiz-adv-x="493" 
d="M480 270l-26 -270h-431q19 14 28 27.5t13.5 49t4.5 107.5v332q0 72 -4.5 107.5t-13.5 49t-28 27.5h411l17 -260h-3q-93 234 -158 234q-20 0 -29 -18t-10.5 -46.5t-1.5 -92.5v-146q0 -17 12 -17q35 0 71.5 31t52.5 99h3v-286h-3q-16 68 -52.5 99.5t-71.5 31.5
q-12 0 -12 -17v-128q0 -65 1.5 -93.5t11 -46.5t31.5 -18q32 0 81 53t103 191h3zM125 889h310l-32 -94h-309z" />
    <glyph glyph-name="emacron" unicode="&#x113;" horiz-adv-x="414" 
d="M123 25.5q-50 35.5 -77.5 96.5t-27.5 135q0 73 27 130.5t75.5 90t111.5 32.5q71 0 109.5 -40t39.5 -110q0 -47 -15 -68h-161q-17 0 -24.5 -6.5t-7.5 -22.5q0 -37 21.5 -77.5t59 -67t83.5 -26.5q18 0 32 5t22 13q-10 -50 -49 -85t-105 -35q-64 0 -114 35.5zM226.5 338.5
q16.5 21.5 16.5 74.5q0 32 -7.5 52t-23.5 20q-18 0 -32.5 -29t-14.5 -87q0 -28 6 -40t20 -12q19 0 35.5 21.5zM82 689h310l-32 -94h-309z" />
    <glyph glyph-name="Edotaccent" unicode="&#x116;" horiz-adv-x="493" 
d="M480 270l-26 -270h-431q19 14 28 27.5t13.5 49t4.5 107.5v332q0 72 -4.5 107.5t-13.5 49t-28 27.5h411l17 -260h-3q-93 234 -158 234q-20 0 -29 -18t-10.5 -46.5t-1.5 -92.5v-146q0 -17 12 -17q35 0 71.5 31t52.5 99h3v-286h-3q-16 68 -52.5 99.5t-71.5 31.5
q-12 0 -12 -17v-128q0 -65 1.5 -93.5t11 -46.5t31.5 -18q32 0 81 53t103 191h3zM211.5 778.5q-21.5 24.5 -21.5 58.5t21.5 58.5t52.5 24.5t52.5 -24.5t21.5 -58.5t-21.5 -58.5t-52.5 -24.5t-52.5 24.5z" />
    <glyph glyph-name="edotaccent" unicode="&#x117;" horiz-adv-x="414" 
d="M123 25.5q-50 35.5 -77.5 96.5t-27.5 135q0 73 27 130.5t75.5 90t111.5 32.5q71 0 109.5 -40t39.5 -110q0 -47 -15 -68h-161q-17 0 -24.5 -6.5t-7.5 -22.5q0 -37 21.5 -77.5t59 -67t83.5 -26.5q18 0 32 5t22 13q-10 -50 -49 -85t-105 -35q-64 0 -114 35.5zM226.5 338.5
q16.5 21.5 16.5 74.5q0 32 -7.5 52t-23.5 20q-18 0 -32.5 -29t-14.5 -87q0 -28 6 -40t20 -12q19 0 35.5 21.5zM168.5 578.5q-21.5 24.5 -21.5 58.5t21.5 58.5t52.5 24.5t52.5 -24.5t21.5 -58.5t-21.5 -58.5t-52.5 -24.5t-52.5 24.5z" />
    <glyph glyph-name="Ecaron" unicode="&#x11a;" horiz-adv-x="493" 
d="M480 270l-26 -270h-431q19 14 28 27.5t13.5 49t4.5 107.5v332q0 72 -4.5 107.5t-13.5 49t-28 27.5h411l17 -260h-3q-93 234 -158 234q-20 0 -29 -18t-10.5 -46.5t-1.5 -92.5v-146q0 -17 12 -17q35 0 71.5 31t52.5 99h3v-286h-3q-16 68 -52.5 99.5t-71.5 31.5
q-12 0 -12 -17v-128q0 -65 1.5 -93.5t11 -46.5t31.5 -18q32 0 81 53t103 191h3zM135 929l2 2l127 -62l127 62l2 -2l-129 -183z" />
    <glyph glyph-name="ecaron" unicode="&#x11b;" horiz-adv-x="414" 
d="M123 25.5q-50 35.5 -77.5 96.5t-27.5 135q0 73 27 130.5t75.5 90t111.5 32.5q71 0 109.5 -40t39.5 -110q0 -47 -15 -68h-161q-17 0 -24.5 -6.5t-7.5 -22.5q0 -37 21.5 -77.5t59 -67t83.5 -26.5q18 0 32 5t22 13q-10 -50 -49 -85t-105 -35q-64 0 -114 35.5zM226.5 338.5
q16.5 21.5 16.5 74.5q0 32 -7.5 52t-23.5 20q-18 0 -32.5 -29t-14.5 -87q0 -28 6 -40t20 -12q19 0 35.5 21.5zM93 729l2 2l127 -62l127 62l2 -2l-129 -183z" />
    <glyph glyph-name="Gdotaccent" unicode="&#x120;" horiz-adv-x="541" 
d="M157 36q-58 46 -93.5 128t-35.5 183q0 95 32.5 178t98 134t159.5 51q61 0 116 -17q19 -163 29 -257h-3q-57 116 -107 180.5t-81 64.5q-25 0 -45.5 -45.5t-20.5 -156.5q0 -98 15.5 -206.5t39.5 -181.5t48 -73t24 45v63q0 103 -11.5 149.5t-40.5 75.5h247
q-26 -29 -36 -75.5t-10 -149.5v-128h-2q-13 13 -27 19t-34 6q-19 0 -34 -4t-35 -12q-18 -8 -34.5 -12.5t-37.5 -4.5q-63 0 -121 46zM247.5 778.5q-21.5 24.5 -21.5 58.5t21.5 58.5t52.5 24.5t52.5 -24.5t21.5 -58.5t-21.5 -58.5t-52.5 -24.5t-52.5 24.5z" />
    <glyph glyph-name="gdotaccent" unicode="&#x121;" horiz-adv-x="412" 
d="M323 49.5q42 -23.5 61 -46t19 -52.5q0 -42 -30.5 -71.5t-78.5 -44t-98 -14.5q-76 0 -132 20t-56 58q0 25 19.5 39.5t53.5 28.5q18 7 27 12.5t9 11.5q0 11 -31 26q-29 15 -43 27.5t-14 30.5q0 12 5 19.5t18.5 17.5t49.5 31q12 6 19 11t7 10q0 3 -5.5 7t-12.5 8t-13 7
q-38 24 -59.5 60.5t-21.5 86.5q0 80 50 123.5t125 43.5h213l-77 -74q18 -17 29.5 -43.5t11.5 -60.5q0 -70 -50.5 -113t-127.5 -43q-23 0 -31 -4.5t-8 -12.5t7.5 -14.5t27.5 -16.5q95 -45 137 -68.5zM153 416q0 -37 7 -91.5t20.5 -95t32.5 -40.5q9 0 14.5 13.5t5.5 33.5
q0 44 -7 101t-20.5 98.5t-33.5 41.5q-19 0 -19 -61zM247 -149.5q11 8.5 11 26.5q0 24 -23 51t-78 53q-6 3 -10 3q-9 0 -14.5 -10.5t-5.5 -27.5q0 -40 27 -72t65 -32q17 0 28 8.5zM152.5 578.5q-21.5 24.5 -21.5 58.5t21.5 58.5t52.5 24.5t52.5 -24.5t21.5 -58.5t-21.5 -58.5
t-52.5 -24.5t-52.5 24.5z" />
    <glyph glyph-name="uni0122" unicode="&#x122;" horiz-adv-x="541" 
d="M157 36q-58 46 -93.5 128t-35.5 183q0 95 32.5 178t98 134t159.5 51q61 0 116 -17q19 -163 29 -257h-3q-57 116 -107 180.5t-81 64.5q-25 0 -45.5 -45.5t-20.5 -156.5q0 -98 15.5 -206.5t39.5 -181.5t48 -73t24 45v63q0 103 -11.5 149.5t-40.5 75.5h247
q-26 -29 -36 -75.5t-10 -149.5v-128h-2q-13 13 -27 19t-34 6q-19 0 -34 -4t-35 -12q-18 -8 -34.5 -12.5t-37.5 -4.5q-63 0 -121 46zM343 -55.5q22 -26.5 22 -66.5q0 -51 -32.5 -97t-76.5 -69l-2 3q26 32 28 87q-28 4 -47 28t-19 57q0 34 21.5 59t52.5 25t53 -26.5z" />
    <glyph glyph-name="uni0123" unicode="&#x123;" horiz-adv-x="412" 
d="M169 561.5q-22 26.5 -22 66.5q0 51 32.5 97t76.5 69l2 -3q-26 -32 -28 -87q28 -4 47 -28t19 -57q0 -34 -21.5 -59t-52.5 -25t-53 26.5zM323 49.5q42 -23.5 61 -46t19 -52.5q0 -42 -30.5 -71.5t-78.5 -44t-98 -14.5q-76 0 -132 20t-56 58q0 25 19.5 39.5t53.5 28.5
q18 7 27 12.5t9 11.5q0 11 -31 26q-29 15 -43 27.5t-14 30.5q0 12 5 19.5t18.5 17.5t49.5 31q12 6 19 11t7 10q0 3 -5.5 7t-12.5 8t-13 7q-38 24 -59.5 60.5t-21.5 86.5q0 80 50 123.5t125 43.5h213l-77 -74q18 -17 29.5 -43.5t11.5 -60.5q0 -70 -50.5 -113t-127.5 -43
q-23 0 -31 -4.5t-8 -12.5t7.5 -14.5t27.5 -16.5q95 -45 137 -68.5zM153 416q0 -37 7 -91.5t20.5 -95t32.5 -40.5q9 0 14.5 13.5t5.5 33.5q0 44 -7 101t-20.5 98.5t-33.5 41.5q-19 0 -19 -61zM247 -149.5q11 8.5 11 26.5q0 24 -23 51t-78 53q-6 3 -10 3q-9 0 -14.5 -10.5
t-5.5 -27.5q0 -40 27 -72t65 -32q17 0 28 8.5z" />
    <glyph glyph-name="Imacron" unicode="&#x12a;" horiz-adv-x="318" 
d="M51 27.5q9 13.5 13.5 49t4.5 107.5v332q0 72 -4.5 107.5t-13.5 49t-28 27.5h272q-19 -14 -28 -27.5t-13.5 -49t-4.5 -107.5v-332q0 -72 4.5 -107.5t13.5 -49t28 -27.5h-272q19 14 28 27.5zM19 889h310l-32 -94h-309z" />
    <glyph glyph-name="imacron" unicode="&#x12b;" horiz-adv-x="257" 
d="M47 100v279q0 62 -29 100l192 31v-410q0 -62 29 -100h-221q29 38 29 100zM-10 689h310l-32 -94h-309z" />
    <glyph glyph-name="Idotaccent" unicode="&#x130;" horiz-adv-x="318" 
d="M51 27.5q9 13.5 13.5 49t4.5 107.5v332q0 72 -4.5 107.5t-13.5 49t-28 27.5h272q-19 -14 -28 -27.5t-13.5 -49t-4.5 -107.5v-332q0 -72 4.5 -107.5t13.5 -49t28 -27.5h-272q19 14 28 27.5zM106.5 778.5q-21.5 24.5 -21.5 58.5t21.5 58.5t52.5 24.5t52.5 -24.5t21.5 -58.5
t-21.5 -58.5t-52.5 -24.5t-52.5 24.5z" />
    <glyph glyph-name="dotlessi" unicode="&#x131;" horiz-adv-x="257" 
d="M47 100v279q0 62 -29 100l192 31v-410q0 -62 29 -100h-221q29 38 29 100z" />
    <glyph glyph-name="uni0136" unicode="&#x136;" horiz-adv-x="597" 
d="M253.5 76.5q4.5 -35.5 13.5 -49t28 -27.5h-272q19 14 28 27.5t13.5 49t4.5 107.5v332q0 72 -4.5 107.5t-13.5 49t-28 27.5h272q-19 -14 -28 -27.5t-13.5 -49t-4.5 -107.5v-332q0 -72 4.5 -107.5zM554.5 72q25.5 -48 48.5 -72h-226q-6 39 -70 200l-56 144q79 117 109 180
t30 110q0 46 -32 66h199q-76 -37 -189 -207l109 -253q52 -120 77.5 -168zM354 -55.5q22 -26.5 22 -66.5q0 -51 -32.5 -97t-76.5 -69l-2 3q26 32 28 87q-28 4 -47 28t-19 57q0 34 21.5 59t52.5 25t53 -26.5z" />
    <glyph glyph-name="uni0137" unicode="&#x137;" horiz-adv-x="503" 
d="M210 100q0 -62 29 -100h-221q29 38 29 100v500q0 62 -29 100l192 33v-633zM311 0l-101 258l31 35q36 41 53 66t21 37t4 25q0 29 -17.5 50.5t-40.5 27.5v1h220v-1q-53 -26 -88 -55t-67 -70l98 -232q31 -70 51.5 -101t39.5 -41h-204zM308 -55.5q22 -26.5 22 -66.5
q0 -51 -32.5 -97t-76.5 -69l-2 3q26 32 28 87q-28 4 -47 28t-19 57q0 34 21.5 59t52.5 25t53 -26.5z" />
    <glyph glyph-name="Lacute" unicode="&#x139;" horiz-adv-x="481" 
d="M51 27.5q9 13.5 13.5 49t4.5 107.5v332q0 72 -4.5 107.5t-13.5 49t-28 27.5h272q-19 -14 -28 -27.5t-13.5 -49t-4.5 -107.5v-332q0 -64 1.5 -92.5t10.5 -46.5t30 -18q23 0 61.5 57.5t116.5 215.5h3l-40 -299l-409 -1q19 14 28 27.5zM59 748l115 183q20 -6 49.5 -39
t31.5 -54l-194 -92z" />
    <glyph glyph-name="lacute" unicode="&#x13a;" horiz-adv-x="257" 
d="M47 100v500q0 62 -29 100l192 33v-633q0 -62 29 -100h-221q29 38 29 100zM58 748l115 183q20 -6 49.5 -39t31.5 -54l-194 -92z" />
    <glyph glyph-name="uni013B" unicode="&#x13b;" horiz-adv-x="481" 
d="M51 27.5q9 13.5 13.5 49t4.5 107.5v332q0 72 -4.5 107.5t-13.5 49t-28 27.5h272q-19 -14 -28 -27.5t-13.5 -49t-4.5 -107.5v-332q0 -64 1.5 -92.5t10.5 -46.5t30 -18q23 0 61.5 57.5t116.5 215.5h3l-40 -299l-409 -1q19 14 28 27.5zM312 -55.5q22 -26.5 22 -66.5
q0 -51 -32.5 -97t-76.5 -69l-2 3q26 32 28 87q-28 4 -47 28t-19 57q0 34 21.5 59t52.5 25t53 -26.5z" />
    <glyph glyph-name="uni013C" unicode="&#x13c;" horiz-adv-x="257" 
d="M47 100v500q0 62 -29 100l192 33v-633q0 -62 29 -100h-221q29 38 29 100zM183 -55.5q22 -26.5 22 -66.5q0 -51 -32.5 -97t-76.5 -69l-2 3q26 32 28 87q-28 4 -47 28t-19 57q0 34 21.5 59t52.5 25t53 -26.5z" />
    <glyph glyph-name="Lslash" unicode="&#x141;" horiz-adv-x="481" 
d="M472 300l-40 -299l-409 -1q19 14 28 27.5t13.5 49t4.5 107.5v154h-59v17h59v161q0 72 -4.5 107.5t-13.5 49t-28 27.5h272q-19 -14 -28 -27.5t-13.5 -49t-4.5 -107.5v-153l61 3l-10 -28h-51v-154q0 -64 1.5 -92.5t10.5 -46.5t30 -18q23 0 61.5 57.5t116.5 215.5h3z" />
    <glyph glyph-name="lslash" unicode="&#x142;" horiz-adv-x="268" 
d="M205 100q0 -62 29 -100h-220q29 38 29 100v211l-28 -19l-10 15l38 25v268q0 62 -29 100l191 33v-294l42 28l10 -15l-52 -34v-318z" />
    <glyph glyph-name="Nacute" unicode="&#x143;" horiz-adv-x="517" 
d="M475 673q-12 -14 -18 -49t-6 -108v-252q0 -81 1.5 -133.5t6.5 -150.5h-5l-355 573v-369q0 -74 6 -108.5t19 -48.5t43 -27h-159q27 13 39 27t18 49t6 108v332q0 72 -7 107.5t-20 49t-41 27.5h246q2 -17 11 -35t20.5 -38t16.5 -29l126 -215v133q0 73 -6 108t-18 49t-39 27
h154q-27 -13 -39 -27zM207 748l115 183q20 -6 49.5 -39t31.5 -54l-194 -92z" />
    <glyph glyph-name="nacute" unicode="&#x144;" 
d="M289 100v245q0 38 -6.5 54.5t-26.5 16.5q-19 0 -46 -18v-298q0 -62 29 -100h-221q29 38 29 100v279q0 62 -29 100l192 31v-92q87 92 158 92q84 0 84 -131v-279q0 -62 29 -100h-221q29 38 29 100zM194 548l115 183q20 -6 49.5 -39t31.5 -54l-194 -92z" />
    <glyph glyph-name="uni0145" unicode="&#x145;" horiz-adv-x="517" 
d="M475 673q-12 -14 -18 -49t-6 -108v-252q0 -81 1.5 -133.5t6.5 -150.5h-5l-355 573v-369q0 -74 6 -108.5t19 -48.5t43 -27h-159q27 13 39 27t18 49t6 108v332q0 72 -7 107.5t-20 49t-41 27.5h246q2 -17 11 -35t20.5 -38t16.5 -29l126 -215v133q0 73 -6 108t-18 49t-39 27
h154q-27 -13 -39 -27zM332 -55.5q22 -26.5 22 -66.5q0 -51 -32.5 -97t-76.5 -69l-2 3q26 32 28 87q-28 4 -47 28t-19 57q0 34 21.5 59t52.5 25t53 -26.5z" />
    <glyph glyph-name="uni0146" unicode="&#x146;" 
d="M289 100v245q0 38 -6.5 54.5t-26.5 16.5q-19 0 -46 -18v-298q0 -62 29 -100h-221q29 38 29 100v279q0 62 -29 100l192 31v-92q87 92 158 92q84 0 84 -131v-279q0 -62 29 -100h-221q29 38 29 100zM306 -55.5q22 -26.5 22 -66.5q0 -51 -32.5 -97t-76.5 -69l-2 3
q26 32 28 87q-28 4 -47 28t-19 57q0 34 21.5 59t52.5 25t53 -26.5z" />
    <glyph glyph-name="Ncaron" unicode="&#x147;" horiz-adv-x="517" 
d="M475 673q-12 -14 -18 -49t-6 -108v-252q0 -81 1.5 -133.5t6.5 -150.5h-5l-355 573v-369q0 -74 6 -108.5t19 -48.5t43 -27h-159q27 13 39 27t18 49t6 108v332q0 72 -7 107.5t-20 49t-41 27.5h246q2 -17 11 -35t20.5 -38t16.5 -29l126 -215v133q0 73 -6 108t-18 49t-39 27
h154q-27 -13 -39 -27zM149 929l2 2l127 -62l127 62l2 -2l-129 -183z" />
    <glyph glyph-name="ncaron" unicode="&#x148;" 
d="M289 100v245q0 38 -6.5 54.5t-26.5 16.5q-19 0 -46 -18v-298q0 -62 29 -100h-221q29 38 29 100v279q0 62 -29 100l192 31v-92q87 92 158 92q84 0 84 -131v-279q0 -62 29 -100h-221q29 38 29 100zM137 729l2 2l127 -62l127 62l2 -2l-129 -183z" />
    <glyph glyph-name="Omacron" unicode="&#x14c;" horiz-adv-x="566" 
d="M142.5 40.5q-57.5 50.5 -86 132.5t-28.5 177q0 98 29.5 180t87 131t138.5 49q84 0 141 -50.5t85 -132.5t28 -177q0 -99 -29 -181t-86 -130.5t-138 -48.5q-84 0 -141.5 50.5zM356.5 53.5q8.5 35.5 8.5 106.5q0 105 -14 227.5t-41.5 208.5t-66.5 86q-25 0 -33.5 -35.5
t-8.5 -106.5q0 -105 14 -227.5t41.5 -208.5t66.5 -86q25 0 33.5 35.5zM144 889h310l-32 -94h-309z" />
    <glyph glyph-name="omacron" unicode="&#x14d;" horiz-adv-x="451" 
d="M112.5 25q-46.5 35 -70.5 94t-24 132q0 74 26.5 133t74.5 92.5t110 33.5q63 0 109 -34.5t70.5 -94t24.5 -130.5q0 -75 -26.5 -134t-74.5 -93t-110 -34q-63 0 -109.5 35zM282 83q0 63 -12 160t-33 169t-47 72q-21 0 -21 -67q0 -64 12 -160.5t33 -168.5t47 -72q21 0 21 67z
M87 689h310l-32 -94h-309z" />
    <glyph glyph-name="Ohungarumlaut" unicode="&#x150;" horiz-adv-x="566" 
d="M142.5 40.5q-57.5 50.5 -86 132.5t-28.5 177q0 98 29.5 180t87 131t138.5 49q84 0 141 -50.5t85 -132.5t28 -177q0 -99 -29 -181t-86 -130.5t-138 -48.5q-84 0 -141.5 50.5zM356.5 53.5q8.5 35.5 8.5 106.5q0 105 -14 227.5t-41.5 208.5t-66.5 86q-25 0 -33.5 -35.5
t-8.5 -106.5q0 -105 14 -227.5t41.5 -208.5t66.5 -86q25 0 33.5 35.5zM108 748l115 183q20 -6 49.5 -39t31.5 -54l-194 -92zM268 748l115 183q20 -6 49.5 -39t31.5 -54l-194 -92z" />
    <glyph glyph-name="ohungarumlaut" unicode="&#x151;" horiz-adv-x="451" 
d="M112.5 25q-46.5 35 -70.5 94t-24 132q0 74 26.5 133t74.5 92.5t110 33.5q63 0 109 -34.5t70.5 -94t24.5 -130.5q0 -75 -26.5 -134t-74.5 -93t-110 -34q-63 0 -109.5 35zM282 83q0 63 -12 160t-33 169t-47 72q-21 0 -21 -67q0 -64 12 -160.5t33 -168.5t47 -72q21 0 21 67z
M51 548l115 183q20 -6 49.5 -39t31.5 -54l-194 -92zM211 548l115 183q20 -6 49.5 -39t31.5 -54l-194 -92z" />
    <glyph glyph-name="OE" unicode="&#x152;" horiz-adv-x="783" 
d="M770 270l-25 -270h-204q-42 0 -83.5 -2t-54.5 -3q-65 -5 -119 -5q-84 0 -141.5 50.5t-86 132.5t-28.5 177q0 98 29.5 180t87 131t138.5 49q55 0 120 -5q13 -1 54.5 -3t83.5 -2h183l17 -260h-3q-93 234 -158 234q-20 0 -29 -18t-10.5 -46.5t-1.5 -92.5v-146q0 -17 12 -17
q35 0 72 31t53 99h3v-286h-3q-16 68 -53 99.5t-72 31.5q-12 0 -12 -17v-128q0 -65 1.5 -93.5t11 -46.5t31.5 -18q32 0 81 53t103 191h3zM215 312.5q14 -122.5 41.5 -208.5t66.5 -86q23 0 32 31t10 92v25q-1 105 -15 226t-41.5 205.5t-65.5 84.5q-25 0 -33.5 -35.5
t-8.5 -106.5q0 -105 14 -227.5z" />
    <glyph glyph-name="oe" unicode="&#x153;" horiz-adv-x="674" 
d="M629 97q14 5 22 13q-10 -50 -49 -85t-105 -35q-80 0 -139 56q-54 -56 -136 -56q-63 0 -109.5 35t-70.5 94t-24 132q0 74 26.5 133t74.5 92.5t110 33.5q75 0 128 -51q57 51 136 51q71 0 109 -40t39 -110q0 -47 -15 -68h-161q-16 0 -23.5 -6.5t-7.5 -22.5q0 -38 21 -78
t59 -66.5t84 -26.5q17 0 31 5zM439.5 456q-14.5 -29 -14.5 -87q0 -28 6 -40t20 -12q19 0 36 21.5t17 74.5q0 32 -8 52t-24 20q-18 0 -32.5 -29zM282 83q0 63 -12 160t-33 169t-47 72q-21 0 -21 -67q0 -64 12 -160.5t33 -168.5t47 -72q21 0 21 67z" />
    <glyph glyph-name="Racute" unicode="&#x154;" horiz-adv-x="576" 
d="M528.5 95q40.5 -91 66.5 -94q-29 -6 -76 -6q-70 0 -114 39.5t-65 91t-40 124.5q-11 43 -19 63.5t-20 20.5v3q35 0 50.5 6.5t21 26.5t5.5 65q0 91 -15.5 165t-42.5 74q-15 0 -23 -33.5t-8 -124.5v-332q0 -72 4.5 -107.5t13.5 -49t28 -27.5h-272q19 14 28 27.5t13.5 49
t4.5 107.5v332q0 72 -4.5 107.5t-13.5 49t-28 27.5h280q55 0 100 -21.5t71.5 -63t26.5 -99.5q0 -52 -20.5 -90t-56.5 -61q64 -179 104.5 -270zM208 748l115 183q20 -6 49.5 -39t31.5 -54l-194 -92z" />
    <glyph glyph-name="racute" unicode="&#x155;" horiz-adv-x="394" 
d="M366 487q15 -23 15 -54q0 -25 -11.5 -51.5t-29.5 -44t-35 -17.5q-9 0 -31 12q-9 5 -17.5 8.5t-15.5 3.5q-31 0 -31 -59v-185q0 -62 29 -100h-221q29 38 29 100v279q0 62 -29 100l192 31v-127q0 -11 6 -11q4 0 9 10q27 66 48 97t52 31q26 0 41 -23zM112 548l115 183
q20 -6 49.5 -39t31.5 -54l-194 -92z" />
    <glyph glyph-name="uni0156" unicode="&#x156;" horiz-adv-x="576" 
d="M528.5 95q40.5 -91 66.5 -94q-29 -6 -76 -6q-70 0 -114 39.5t-65 91t-40 124.5q-11 43 -19 63.5t-20 20.5v3q35 0 50.5 6.5t21 26.5t5.5 65q0 91 -15.5 165t-42.5 74q-15 0 -23 -33.5t-8 -124.5v-332q0 -72 4.5 -107.5t13.5 -49t28 -27.5h-272q19 14 28 27.5t13.5 49
t4.5 107.5v332q0 72 -4.5 107.5t-13.5 49t-28 27.5h280q55 0 100 -21.5t71.5 -63t26.5 -99.5q0 -52 -20.5 -90t-56.5 -61q64 -179 104.5 -270zM333 -55.5q22 -26.5 22 -66.5q0 -51 -32.5 -97t-76.5 -69l-2 3q26 32 28 87q-28 4 -47 28t-19 57q0 34 21.5 59t52.5 25t53 -26.5
z" />
    <glyph glyph-name="uni0157" unicode="&#x157;" horiz-adv-x="394" 
d="M366 487q15 -23 15 -54q0 -25 -11.5 -51.5t-29.5 -44t-35 -17.5q-9 0 -31 12q-9 5 -17.5 8.5t-15.5 3.5q-31 0 -31 -59v-185q0 -62 29 -100h-221q29 38 29 100v279q0 62 -29 100l192 31v-127q0 -11 6 -11q4 0 9 10q27 66 48 97t52 31q26 0 41 -23zM184 -55.5
q22 -26.5 22 -66.5q0 -51 -32.5 -97t-76.5 -69l-2 3q26 32 28 87q-28 4 -47 28t-19 57q0 34 21.5 59t52.5 25t53 -26.5z" />
    <glyph glyph-name="Rcaron" unicode="&#x158;" horiz-adv-x="576" 
d="M528.5 95q40.5 -91 66.5 -94q-29 -6 -76 -6q-70 0 -114 39.5t-65 91t-40 124.5q-11 43 -19 63.5t-20 20.5v3q35 0 50.5 6.5t21 26.5t5.5 65q0 91 -15.5 165t-42.5 74q-15 0 -23 -33.5t-8 -124.5v-332q0 -72 4.5 -107.5t13.5 -49t28 -27.5h-272q19 14 28 27.5t13.5 49
t4.5 107.5v332q0 72 -4.5 107.5t-13.5 49t-28 27.5h280q55 0 100 -21.5t71.5 -63t26.5 -99.5q0 -52 -20.5 -90t-56.5 -61q64 -179 104.5 -270zM151 929l2 2l127 -62l127 62l2 -2l-129 -183z" />
    <glyph glyph-name="rcaron" unicode="&#x159;" horiz-adv-x="394" 
d="M366 487q15 -23 15 -54q0 -25 -11.5 -51.5t-29.5 -44t-35 -17.5q-9 0 -31 12q-9 5 -17.5 8.5t-15.5 3.5q-31 0 -31 -59v-185q0 -62 29 -100h-221q29 38 29 100v279q0 62 -29 100l192 31v-127q0 -11 6 -11q4 0 9 10q27 66 48 97t52 31q26 0 41 -23zM54 729l2 2l127 -62
l127 62l2 -2l-129 -183z" />
    <glyph glyph-name="Sacute" unicode="&#x15a;" horiz-adv-x="437" 
d="M118 -3.5q-41 6.5 -70 23.5l-11 249h2q40 -101 90.5 -178t90.5 -77q16 0 26 11.5t10 28.5q0 27 -18 63.5t-56 100.5q-6 9 -11 17.5t-9 14.5l-53 91q-45 77 -63 117t-18 83q0 51 28.5 89.5t76 59t104.5 20.5q68 0 137 -33l17 -245h-2q-12 19 -52 93q-43 81 -69.5 120
t-50.5 39q-13 0 -22 -12.5t-9 -32.5q0 -25 12 -51.5t38 -67.5l15 -25l64 -102q52 -85 80 -142.5t28 -109.5q0 -71 -61.5 -111t-162.5 -40q-40 0 -81 6.5zM153 748l115 183q20 -6 49.5 -39t31.5 -54l-194 -92z" />
    <glyph glyph-name="sacute" unicode="&#x15b;" horiz-adv-x="357" 
d="M37 24l-5 180q97 -193 142 -193q10 0 17 8t7 22q0 21 -14 47.5t-44 68.5l-66 93q-46 67 -46 125q0 62 42.5 98.5t110.5 36.5q38 0 73 -10t52 -24l16 -170q-4 6 -8.5 14.5t-10.5 19.5q-41 73 -67 110t-47 37q-24 0 -24 -33q0 -19 9.5 -39.5t33.5 -55.5l74 -103
q31 -44 46.5 -75t15.5 -64q0 -61 -51 -94t-122 -33q-74 0 -134 34zM112 548l115 183q20 -6 49.5 -39t31.5 -54l-194 -92z" />
    <glyph glyph-name="Scedilla" unicode="&#x15e;" horiz-adv-x="437" 
d="M395 250.5q28 -57.5 28 -109.5q0 -61 -45.5 -99t-123.5 -49q-17 -19 -17 -36q0 -18 11 -32t30 -31q2 -2 10 -9t8 -12q0 -20 -27 -45.5t-62 -43.5t-53 -18q-12 0 -18.5 7.5t-6.5 19.5q0 18 26 18q8 0 24 -2t23 -2q22 0 22 14q0 11 -8.5 21.5t-25.5 26.5q-13 11 -20 19.5
t-7 15.5q0 11 20 33.5t52 53.5q-11 -1 -36 -1q-40 0 -81 6.5t-70 23.5l-11 249h2q40 -101 90.5 -178t90.5 -77q16 0 26 11.5t10 28.5q0 27 -18 63.5t-56 100.5q-6 9 -11 17.5t-9 14.5l-53 91q-45 77 -63 117t-18 83q0 51 28.5 89.5t76 59t104.5 20.5q68 0 137 -33l17 -245
h-2q-12 19 -52 93q-43 81 -69.5 120t-50.5 39q-13 0 -22 -12.5t-9 -32.5q0 -25 12 -51.5t38 -67.5l15 -25l64 -102q52 -85 80 -142.5z" />
    <glyph glyph-name="scedilla" unicode="&#x15f;" horiz-adv-x="357" 
d="M306.5 33.5q-37.5 -31.5 -94.5 -40.5q-17 -19 -17 -36q0 -18 11 -32t30 -31q2 -2 10 -9t8 -12q0 -20 -27 -45.5t-62 -43.5t-53 -18q-12 0 -18.5 7.5t-6.5 19.5q0 18 26 18q8 0 24 -2t23 -2q22 0 22 14q0 11 -8.5 21.5t-25.5 26.5q-13 11 -20 19.5t-7 15.5q0 11 17.5 30.5
t54.5 56.5q-7 -1 -22 -1q-74 0 -134 34l-5 180q97 -193 142 -193q10 0 17 8t7 22q0 21 -14 47.5t-44 68.5l-66 93q-46 67 -46 125q0 62 42.5 98.5t110.5 36.5q38 0 73 -10t52 -24l16 -170q-4 6 -8.5 14.5t-10.5 19.5q-41 73 -67 110t-47 37q-24 0 -24 -33q0 -19 9.5 -39.5
t33.5 -55.5l74 -103q31 -44 46.5 -75t15.5 -64q0 -52 -37.5 -83.5z" />
    <glyph glyph-name="Scaron" unicode="&#x160;" horiz-adv-x="437" 
d="M118 -3.5q-41 6.5 -70 23.5l-11 249h2q40 -101 90.5 -178t90.5 -77q16 0 26 11.5t10 28.5q0 27 -18 63.5t-56 100.5q-6 9 -11 17.5t-9 14.5l-53 91q-45 77 -63 117t-18 83q0 51 28.5 89.5t76 59t104.5 20.5q68 0 137 -33l17 -245h-2q-12 19 -52 93q-43 81 -69.5 120
t-50.5 39q-13 0 -22 -12.5t-9 -32.5q0 -25 12 -51.5t38 -67.5l15 -25l64 -102q52 -85 80 -142.5t28 -109.5q0 -71 -61.5 -111t-162.5 -40q-40 0 -81 6.5zM96 929l2 2l127 -62l127 62l2 -2l-129 -183z" />
    <glyph glyph-name="scaron" unicode="&#x161;" horiz-adv-x="357" 
d="M37 24l-5 180q97 -193 142 -193q10 0 17 8t7 22q0 21 -14 47.5t-44 68.5l-66 93q-46 67 -46 125q0 62 42.5 98.5t110.5 36.5q38 0 73 -10t52 -24l16 -170q-4 6 -8.5 14.5t-10.5 19.5q-41 73 -67 110t-47 37q-24 0 -24 -33q0 -19 9.5 -39.5t33.5 -55.5l74 -103
q31 -44 46.5 -75t15.5 -64q0 -61 -51 -94t-122 -33q-74 0 -134 34zM54 729l2 2l127 -62l127 62l2 -2l-129 -183z" />
    <glyph glyph-name="uni0162" unicode="&#x162;" horiz-adv-x="477" 
d="M128 27q11 14 16 48.5t5 108.5v412q0 51 -2 66t-11 15q-7 0 -18.5 -23t-46.5 -100l-55 -124h-3l9 273q57 -3 153 -3h127q96 0 153 3l9 -273h-3l-48 108q-37 84 -50.5 111.5t-21.5 27.5q-9 0 -11 -15t-2 -66v-412q0 -74 5 -108.5t16 -48.5t35 -27h-291q24 13 35 27z
M149.5 -226.5q-6.5 7.5 -6.5 19.5q0 18 26 18q8 0 24 -2t23 -2q22 0 22 14q0 11 -8.5 21.5t-25.5 26.5q-13 11 -20 19.5t-7 15.5q0 11 18 31t37 39l26 26h16q-23 -24 -23 -43q0 -18 11 -32t30 -31q2 -2 10 -9t8 -12q0 -20 -27 -45.5t-62 -43.5t-53 -18q-12 0 -18.5 7.5z" />
    <glyph glyph-name="uni0163" unicode="&#x163;" horiz-adv-x="307" 
d="M262 14.5q-36 -18.5 -76 -23.5q-15 -19 -15 -34q0 -18 11 -32t30 -31q2 -2 10 -9t8 -12q0 -20 -27 -45.5t-62 -43.5t-53 -18q-12 0 -18.5 7.5t-6.5 19.5q0 18 26 18q8 0 24 -2t23 -2q22 0 22 14q0 11 -8.5 21.5t-25.5 26.5q-13 11 -20 19.5t-7 15.5q0 11 17 30t54 56h-3
q-47 0 -78 29t-31 73v348h-53l215 230v-171q51 0 81 3l-13 -62h-68v-326q0 -32 11.5 -50t39.5 -18q20 0 34 5h1q-6 -18 -42 -36.5z" />
    <glyph glyph-name="Umacron" unicode="&#x16a;" horiz-adv-x="524" 
d="M166.5 18.5q-48.5 28.5 -73 76.5t-24.5 107v314q0 72 -4.5 107.5t-13.5 49t-28 27.5h267q-17 -14 -24.5 -28t-12 -49t-4.5 -107v-314q0 -80 23.5 -125.5t70.5 -45.5q48 0 74.5 46t26.5 125v314q0 72 -5 107t-14.5 49t-28.5 28h125q-19 -14 -28.5 -28t-14.5 -49t-5 -107
v-314q0 -95 -44.5 -153.5t-143.5 -58.5q-70 0 -118.5 28.5zM168 889h310l-32 -94h-309z" />
    <glyph glyph-name="umacron" unicode="&#x16b;" 
d="M289 -10v92q-87 -92 -158 -92q-84 0 -84 131v238q0 46 -9 76t-20 44l192 31v-355q0 -38 6.5 -54.5t26.5 -16.5q19 0 46 18v257q0 46 -9 76t-20 44l192 31v-389q0 -62 29 -100zM113 689h310l-32 -94h-309z" />
    <glyph glyph-name="Ubreve" unicode="&#x16c;" horiz-adv-x="524" 
d="M166.5 18.5q-48.5 28.5 -73 76.5t-24.5 107v314q0 72 -4.5 107.5t-13.5 49t-28 27.5h267q-17 -14 -24.5 -28t-12 -49t-4.5 -107v-314q0 -80 23.5 -125.5t70.5 -45.5q48 0 74.5 46t26.5 125v314q0 72 -5 107t-14.5 49t-28.5 28h125q-19 -14 -28.5 -28t-14.5 -49t-5 -107
v-314q0 -95 -44.5 -153.5t-143.5 -58.5q-70 0 -118.5 28.5zM232.5 792.5q-28.5 31.5 -28.5 75.5q0 28 9 52h3q0 -31 22.5 -53.5t68.5 -22.5t68.5 22.5t22.5 53.5h3q9 -24 9 -52q0 -44 -28.5 -75.5t-74.5 -31.5t-74.5 31.5z" />
    <glyph glyph-name="ubreve" unicode="&#x16d;" 
d="M289 -10v92q-87 -92 -158 -92q-84 0 -84 131v238q0 46 -9 76t-20 44l192 31v-355q0 -38 6.5 -54.5t26.5 -16.5q19 0 46 18v257q0 46 -9 76t-20 44l192 31v-389q0 -62 29 -100zM177.5 592.5q-28.5 31.5 -28.5 75.5q0 28 9 52h3q0 -31 22.5 -53.5t68.5 -22.5t68.5 22.5
t22.5 53.5h3q9 -24 9 -52q0 -44 -28.5 -75.5t-74.5 -31.5t-74.5 31.5z" />
    <glyph glyph-name="Uring" unicode="&#x16e;" horiz-adv-x="524" 
d="M166.5 18.5q-48.5 28.5 -73 76.5t-24.5 107v314q0 72 -4.5 107.5t-13.5 49t-28 27.5h267q-17 -14 -24.5 -28t-12 -49t-4.5 -107v-314q0 -80 23.5 -125.5t70.5 -45.5q48 0 74.5 46t26.5 125v314q0 72 -5 107t-14.5 49t-28.5 28h125q-19 -14 -28.5 -28t-14.5 -49t-5 -107
v-314q0 -95 -44.5 -153.5t-143.5 -58.5q-70 0 -118.5 28.5zM257.5 786.5q-20.5 23.5 -20.5 55.5t20.5 55t49.5 23t49.5 -23t20.5 -55t-20.5 -55.5t-49.5 -23.5t-49.5 23.5zM347 796q16 19 16 46t-16 45.5t-40 18.5t-40 -18.5t-16 -45.5t16 -46t40 -19t40 19z" />
    <glyph glyph-name="uring" unicode="&#x16f;" 
d="M289 -10v92q-87 -92 -158 -92q-84 0 -84 131v238q0 46 -9 76t-20 44l192 31v-355q0 -38 6.5 -54.5t26.5 -16.5q19 0 46 18v257q0 46 -9 76t-20 44l192 31v-389q0 -62 29 -100zM202.5 586.5q-20.5 23.5 -20.5 55.5t20.5 55t49.5 23t49.5 -23t20.5 -55t-20.5 -55.5
t-49.5 -23.5t-49.5 23.5zM292 596q16 19 16 46t-16 45.5t-40 18.5t-40 -18.5t-16 -45.5t16 -46t40 -19t40 19z" />
    <glyph glyph-name="Uhungarumlaut" unicode="&#x170;" horiz-adv-x="524" 
d="M166.5 18.5q-48.5 28.5 -73 76.5t-24.5 107v314q0 72 -4.5 107.5t-13.5 49t-28 27.5h267q-17 -14 -24.5 -28t-12 -49t-4.5 -107v-314q0 -80 23.5 -125.5t70.5 -45.5q48 0 74.5 46t26.5 125v314q0 72 -5 107t-14.5 49t-28.5 28h125q-19 -14 -28.5 -28t-14.5 -49t-5 -107
v-314q0 -95 -44.5 -153.5t-143.5 -58.5q-70 0 -118.5 28.5zM132 748l115 183q20 -6 49.5 -39t31.5 -54l-194 -92zM292 748l115 183q20 -6 49.5 -39t31.5 -54l-194 -92z" />
    <glyph glyph-name="uhungarumlaut" unicode="&#x171;" 
d="M289 -10v92q-87 -92 -158 -92q-84 0 -84 131v238q0 46 -9 76t-20 44l192 31v-355q0 -38 6.5 -54.5t26.5 -16.5q19 0 46 18v257q0 46 -9 76t-20 44l192 31v-389q0 -62 29 -100zM77 548l115 183q20 -6 49.5 -39t31.5 -54l-194 -92zM237 548l115 183q20 -6 49.5 -39
t31.5 -54l-194 -92z" />
    <glyph glyph-name="Wcircumflex" unicode="&#x174;" horiz-adv-x="777" 
d="M779 700q-25 -23 -47.5 -66t-44.5 -118l-159 -532l-142 451l-135 -451l-169 532q-25 80 -43.5 121.5t-40.5 62.5h257q-13 -14 -13 -41q0 -21 7 -50.5t25 -92.5l55 -195l16 73q11 50 11 82q0 51 -22 117q-29 78 -58 107h257q-13 -14 -13 -41q0 -22 7 -53t24 -90l56 -197
l49 197q21 84 21 126q0 38 -17 58h119zM248 748l129 183l129 -183l-2 -2l-127 62l-127 -62z" />
    <glyph glyph-name="wcircumflex" unicode="&#x175;" horiz-adv-x="610" 
d="M621 500q-21 -12 -37 -41.5t-32 -80.5l-124 -397h-1l-122 375l-118 -375h-1l-130 397q-16 50 -32.5 79.5t-35.5 42.5h228q-18 -13 -18 -47q0 -27 14 -75l36 -125l22 67q13 40 13 78q0 33 -10 59t-28 43h213q-19 -13 -19 -48q0 -32 14 -74l37 -121l33 121q12 41 12 67
q0 39 -24 55h110zM182 548l129 183l129 -183l-2 -2l-127 62l-127 -62z" />
    <glyph glyph-name="Ycircumflex" unicode="&#x176;" horiz-adv-x="513" 
d="M515 700q-75 -64 -116 -184l-51 -144v-188q0 -72 4.5 -107.5t13.5 -49t28 -27.5h-271q19 14 28 27.5t13.5 49t4.5 107.5v127l-68 205q-40 123 -103 184h271q-11 -12 -11 -34q0 -17 7 -44.5t16 -58.5l13 -47l34 -118l37 118l11 35q15 46 22 71.5t7 43.5q0 21 -12 34h122z
M128 748l129 183l129 -183l-2 -2l-127 62l-127 -62z" />
    <glyph glyph-name="ycircumflex" unicode="&#x177;" horiz-adv-x="393" 
d="M405 500q-21 -13 -37.5 -41t-33.5 -80l-122 -359q-18 -55 -35 -94t-46 -71.5t-68 -32.5q-16 0 -29 5.5t-17 10.5v119q25 -9 64 -9q41 0 68.5 13.5t27.5 51.5q0 20 -7.5 47t-23.5 71l-9 25l-79 223q-18 54 -33.5 81.5t-36.5 39.5h238q-20 -14 -20 -42q0 -26 17 -79
l42 -139l40 139q12 42 12 69q0 37 -23 52h111zM66 548l129 183l129 -183l-2 -2l-127 62l-127 -62z" />
    <glyph glyph-name="Ydieresis" unicode="&#x178;" horiz-adv-x="513" 
d="M515 700q-75 -64 -116 -184l-51 -144v-188q0 -72 4.5 -107.5t13.5 -49t28 -27.5h-271q19 14 28 27.5t13.5 49t4.5 107.5v127l-68 205q-40 123 -103 184h271q-11 -12 -11 -34q0 -17 7 -44.5t16 -58.5l13 -47l34 -118l37 118l11 35q15 46 22 71.5t7 43.5q0 21 -12 34h122z
M105.5 778.5q-21.5 24.5 -21.5 58.5t21.5 58.5t52.5 24.5t53 -24.5t22 -58.5t-22 -58.5t-53 -24.5t-52.5 24.5zM301.5 778.5q-21.5 24.5 -21.5 58.5t21.5 58.5t52.5 24.5t53 -24.5t22 -58.5t-22 -58.5t-53 -24.5t-52.5 24.5z" />
    <glyph glyph-name="Zacute" unicode="&#x179;" horiz-adv-x="468" 
d="M312 52.5q42 24.5 72.5 73.5t65.5 142l-36 -268h-406l249 679q-63 -10 -102 -34.5t-68.5 -72t-62.5 -135.5l36 263h395l-254 -681q69 9 111 33.5zM163 748l115 183q20 -6 49.5 -39t31.5 -54l-194 -92z" />
    <glyph glyph-name="zacute" unicode="&#x17a;" horiz-adv-x="395" 
d="M296 65.5q45 37.5 83 128.5l-34 -194h-332l191 477q-42 -1 -70 -14.5t-54 -49.5t-55 -107l34 194h323l-190 -476q59 4 104 41.5zM143 548l115 183q20 -6 49.5 -39t31.5 -54l-194 -92z" />
    <glyph glyph-name="Zdotaccent" unicode="&#x17b;" horiz-adv-x="468" 
d="M312 52.5q42 24.5 72.5 73.5t65.5 142l-36 -268h-406l249 679q-63 -10 -102 -34.5t-68.5 -72t-62.5 -135.5l36 263h395l-254 -681q69 9 111 33.5zM181.5 778.5q-21.5 24.5 -21.5 58.5t21.5 58.5t52.5 24.5t52.5 -24.5t21.5 -58.5t-21.5 -58.5t-52.5 -24.5t-52.5 24.5z
" />
    <glyph glyph-name="zdotaccent" unicode="&#x17c;" horiz-adv-x="395" 
d="M296 65.5q45 37.5 83 128.5l-34 -194h-332l191 477q-42 -1 -70 -14.5t-54 -49.5t-55 -107l34 194h323l-190 -476q59 4 104 41.5zM161.5 578.5q-21.5 24.5 -21.5 58.5t21.5 58.5t52.5 24.5t52.5 -24.5t21.5 -58.5t-21.5 -58.5t-52.5 -24.5t-52.5 24.5z" />
    <glyph glyph-name="Zcaron" unicode="&#x17d;" horiz-adv-x="468" 
d="M312 52.5q42 24.5 72.5 73.5t65.5 142l-36 -268h-406l249 679q-63 -10 -102 -34.5t-68.5 -72t-62.5 -135.5l36 263h395l-254 -681q69 9 111 33.5zM105 929l2 2l127 -62l127 62l2 -2l-129 -183z" />
    <glyph glyph-name="zcaron" unicode="&#x17e;" horiz-adv-x="395" 
d="M296 65.5q45 37.5 83 128.5l-34 -194h-332l191 477q-42 -1 -70 -14.5t-54 -49.5t-55 -107l34 194h323l-190 -476q59 4 104 41.5zM85 729l2 2l127 -62l127 62l2 -2l-129 -183z" />
    <glyph glyph-name="uni01CD" unicode="&#x1cd;" horiz-adv-x="510" 
d="M255 0q14 17 14 42q0 19 -6 45t-19 70h-128q-15 -63 -15 -100q0 -39 17 -57h-120q26 23 47.5 65.5t44.5 118.5l164 532l174 -532q26 -81 44 -122t40 -62h-257zM176 385l-53 -200h113zM125 929l2 2l127 -62l127 62l2 -2l-129 -183z" />
    <glyph glyph-name="uni01CE" unicode="&#x1ce;" horiz-adv-x="436" 
d="M38 14.5q-25 24.5 -25 72.5q0 34 12.5 60t30 44.5t50.5 46.5q37 30 58.5 53.5t37 58.5t15.5 83q0 55 -19 55q-11 0 -40 -38t-55.5 -76.5t-33.5 -49.5q-13 -22 -23 -35h-2q10 107 16 156l4 42q28 10 72 16.5t81 6.5q81 0 122 -35.5t41 -111.5v-273q0 -22 8 -33t29 -11
q8 0 15 4q0 -13 -16.5 -27t-42.5 -23.5t-54 -9.5q-47 0 -74.5 26.5t-27.5 68.5q0 4 -0.5 5.5t-1.5 1.5q-3 0 -16.5 -28.5t-37.5 -51t-61 -22.5t-62 24.5zM217 164v116q0 11 -1.5 14.5t-4.5 3.5q-11 0 -25.5 -20t-25 -51t-10.5 -63q0 -33 11.5 -50t24.5 -17q31 0 31 67z
M80 729l2 2l127 -62l127 62l2 -2l-129 -183z" />
    <glyph glyph-name="uni01CF" unicode="&#x1cf;" horiz-adv-x="318" 
d="M51 27.5q9 13.5 13.5 49t4.5 107.5v332q0 72 -4.5 107.5t-13.5 49t-28 27.5h272q-19 -14 -28 -27.5t-13.5 -49t-4.5 -107.5v-332q0 -72 4.5 -107.5t13.5 -49t28 -27.5h-272q19 14 28 27.5zM30 929l2 2l127 -62l127 62l2 -2l-129 -183z" />
    <glyph glyph-name="uni01D0" unicode="&#x1d0;" horiz-adv-x="257" 
d="M47 100v279q0 62 -29 100l192 31v-410q0 -62 29 -100h-221q29 38 29 100zM0 729l2 2l127 -62l127 62l2 -2l-129 -183z" />
    <glyph glyph-name="uni01D1" unicode="&#x1d1;" horiz-adv-x="566" 
d="M142.5 40.5q-57.5 50.5 -86 132.5t-28.5 177q0 98 29.5 180t87 131t138.5 49q84 0 141 -50.5t85 -132.5t28 -177q0 -99 -29 -181t-86 -130.5t-138 -48.5q-84 0 -141.5 50.5zM356.5 53.5q8.5 35.5 8.5 106.5q0 105 -14 227.5t-41.5 208.5t-66.5 86q-25 0 -33.5 -35.5
t-8.5 -106.5q0 -105 14 -227.5t41.5 -208.5t66.5 -86q25 0 33.5 35.5zM154 929l2 2l127 -62l127 62l2 -2l-129 -183z" />
    <glyph glyph-name="uni01D2" unicode="&#x1d2;" horiz-adv-x="451" 
d="M112.5 25q-46.5 35 -70.5 94t-24 132q0 74 26.5 133t74.5 92.5t110 33.5q63 0 109 -34.5t70.5 -94t24.5 -130.5q0 -75 -26.5 -134t-74.5 -93t-110 -34q-63 0 -109.5 35zM282 83q0 63 -12 160t-33 169t-47 72q-21 0 -21 -67q0 -64 12 -160.5t33 -168.5t47 -72q21 0 21 67z
M97 729l2 2l127 -62l127 62l2 -2l-129 -183z" />
    <glyph glyph-name="uni01D3" unicode="&#x1d3;" horiz-adv-x="524" 
d="M166.5 18.5q-48.5 28.5 -73 76.5t-24.5 107v314q0 72 -4.5 107.5t-13.5 49t-28 27.5h267q-17 -14 -24.5 -28t-12 -49t-4.5 -107v-314q0 -80 23.5 -125.5t70.5 -45.5q48 0 74.5 46t26.5 125v314q0 72 -5 107t-14.5 49t-28.5 28h125q-19 -14 -28.5 -28t-14.5 -49t-5 -107
v-314q0 -95 -44.5 -153.5t-143.5 -58.5q-70 0 -118.5 28.5zM178 929l2 2l127 -62l127 62l2 -2l-129 -183z" />
    <glyph glyph-name="uni01D4" unicode="&#x1d4;" 
d="M289 -10v92q-87 -92 -158 -92q-84 0 -84 131v238q0 46 -9 76t-20 44l192 31v-355q0 -38 6.5 -54.5t26.5 -16.5q19 0 46 18v257q0 46 -9 76t-20 44l192 31v-389q0 -62 29 -100zM123 729l2 2l127 -62l127 62l2 -2l-129 -183z" />
    <glyph glyph-name="Gcaron" unicode="&#x1e6;" horiz-adv-x="541" 
d="M157 36q-58 46 -93.5 128t-35.5 183q0 95 32.5 178t98 134t159.5 51q61 0 116 -17q19 -163 29 -257h-3q-57 116 -107 180.5t-81 64.5q-25 0 -45.5 -45.5t-20.5 -156.5q0 -98 15.5 -206.5t39.5 -181.5t48 -73t24 45v63q0 103 -11.5 149.5t-40.5 75.5h247
q-26 -29 -36 -75.5t-10 -149.5v-128h-2q-13 13 -27 19t-34 6q-19 0 -34 -4t-35 -12q-18 -8 -34.5 -12.5t-37.5 -4.5q-63 0 -121 46zM171 929l2 2l127 -62l127 62l2 -2l-129 -183z" />
    <glyph glyph-name="gcaron" unicode="&#x1e7;" horiz-adv-x="412" 
d="M323 49.5q42 -23.5 61 -46t19 -52.5q0 -42 -30.5 -71.5t-78.5 -44t-98 -14.5q-76 0 -132 20t-56 58q0 25 19.5 39.5t53.5 28.5q18 7 27 12.5t9 11.5q0 11 -31 26q-29 15 -43 27.5t-14 30.5q0 12 5 19.5t18.5 17.5t49.5 31q12 6 19 11t7 10q0 3 -5.5 7t-12.5 8t-13 7
q-38 24 -59.5 60.5t-21.5 86.5q0 80 50 123.5t125 43.5h213l-77 -74q18 -17 29.5 -43.5t11.5 -60.5q0 -70 -50.5 -113t-127.5 -43q-23 0 -31 -4.5t-8 -12.5t7.5 -14.5t27.5 -16.5q95 -45 137 -68.5zM153 416q0 -37 7 -91.5t20.5 -95t32.5 -40.5q9 0 14.5 13.5t5.5 33.5
q0 44 -7 101t-20.5 98.5t-33.5 41.5q-19 0 -19 -61zM247 -149.5q11 8.5 11 26.5q0 24 -23 51t-78 53q-6 3 -10 3q-9 0 -14.5 -10.5t-5.5 -27.5q0 -40 27 -72t65 -32q17 0 28 8.5zM76 729l2 2l127 -62l127 62l2 -2l-129 -183z" />
    <glyph glyph-name="uni0228" unicode="&#x228;" horiz-adv-x="493" 
d="M480 270l-26 -270h-431q19 14 28 27.5t13.5 49t4.5 107.5v332q0 72 -4.5 107.5t-13.5 49t-28 27.5h411l17 -260h-3q-93 234 -158 234q-20 0 -29 -18t-10.5 -46.5t-1.5 -92.5v-146q0 -17 12 -17q35 0 71.5 31t52.5 99h3v-286h-3q-16 68 -52.5 99.5t-71.5 31.5
q-12 0 -12 -17v-128q0 -65 1.5 -93.5t11 -46.5t31.5 -18q32 0 81 53t103 191h3zM169.5 -226.5q-6.5 7.5 -6.5 19.5q0 18 26 18q8 0 24 -2t23 -2q22 0 22 14q0 11 -8.5 21.5t-25.5 26.5q-13 11 -20 19.5t-7 15.5q0 11 18 31t37 39l26 26h16q-23 -24 -23 -43q0 -18 11 -32
t30 -31q2 -2 10 -9t8 -12q0 -20 -27 -45.5t-62 -43.5t-53 -18q-12 0 -18.5 7.5z" />
    <glyph glyph-name="uni0229" unicode="&#x229;" horiz-adv-x="414" 
d="M234 -10q-14 -18 -14 -33q0 -18 11 -32t30 -31q2 -2 10 -9t8 -12q0 -20 -27 -45.5t-62 -43.5t-53 -18q-12 0 -18.5 7.5t-6.5 19.5q0 18 26 18q8 0 24 -2t23 -2q22 0 22 14q0 11 -8.5 21.5t-25.5 26.5q-13 11 -20 19.5t-7 15.5q0 11 17.5 30.5t54.5 56.5
q-59 5 -104.5 41.5t-70.5 95t-25 129.5q0 73 27 130.5t75.5 90t111.5 32.5q71 0 109.5 -40t39.5 -110q0 -47 -15 -68h-161q-17 0 -24.5 -6.5t-7.5 -22.5q0 -37 21.5 -77.5t59 -67t83.5 -26.5q18 0 32 5t22 13q-10 -50 -49 -85t-105 -35h-3zM179.5 456q-14.5 -29 -14.5 -87
q0 -28 6 -40t20 -12q19 0 35.5 21.5t16.5 74.5q0 32 -7.5 52t-23.5 20q-18 0 -32.5 -29z" />
    <glyph glyph-name="uni0259" unicode="&#x259;" horiz-adv-x="414" 
d="M291 474.5q50 -35.5 77.5 -96.5t27.5 -135q0 -73 -27 -130.5t-75.5 -90t-111.5 -32.5q-71 0 -109 40t-40 110q0 47 15 68h161q17 0 24.5 6.5t7.5 22.5q0 37 -21.5 77.5t-59 67t-83.5 26.5q-18 0 -32 -5t-21 -13q9 50 47.5 85t105.5 35q64 0 114 -35.5zM187.5 161.5
q-16.5 -21.5 -16.5 -74.5q0 -32 7.5 -52t23.5 -20q18 0 32.5 29t14.5 87q0 28 -6 40t-20 12q-19 0 -35.5 -21.5z" />
    <glyph glyph-name="uni02C8" unicode="&#x2c8;" horiz-adv-x="69" 
d="M10 700h49v-200h-49v200z" />
    <glyph glyph-name="gravecomb" unicode="&#x300;" horiz-adv-x="0" 
d="M-206 638q2 21 32 54t50 39l114 -183l-2 -2z" />
    <glyph glyph-name="acutecomb" unicode="&#x301;" horiz-adv-x="0" 
d="M-206 548l115 183q20 -6 49.5 -39t31.5 -54l-194 -92z" />
    <glyph glyph-name="uni0302" unicode="&#x302;" horiz-adv-x="0" 
d="M-264 548l129 183l129 -183l-2 -2l-127 62l-127 -62z" />
    <glyph glyph-name="tildecomb" unicode="&#x303;" horiz-adv-x="0" 
d="M-317 674q37 57 79 57q14 0 29.5 -6.5t36.5 -19.5q27 -15 46.5 -23t39.5 -8q48 0 75 57h6q-22 -65 -58 -122t-78 -57q-14 0 -29 6.5t-37 19.5q-26 15 -45.5 23t-39.5 8q-51 0 -78 -57h-6q22 65 59 122z" />
    <glyph glyph-name="uni0304" unicode="&#x304;" horiz-adv-x="0" 
d="M-320 689h310l-32 -94h-309z" />
    <glyph glyph-name="uni0306" unicode="&#x306;" horiz-adv-x="0" 
d="M-187.5 592.5q-28.5 31.5 -28.5 75.5q0 28 9 52h3q0 -31 22.5 -53.5t68.5 -22.5t68.5 22.5t22.5 53.5h3q9 -24 9 -52q0 -44 -28.5 -75.5t-74.5 -31.5t-74.5 31.5z" />
    <glyph glyph-name="uni0307" unicode="&#x307;" horiz-adv-x="0" 
d="M-136.5 578.5q-21.5 24.5 -21.5 58.5t21.5 58.5t52.5 24.5t52.5 -24.5t21.5 -58.5t-21.5 -58.5t-52.5 -24.5t-52.5 24.5z" />
    <glyph glyph-name="uni0308" unicode="&#x308;" horiz-adv-x="0" 
d="M-331.5 578.5q-21.5 24.5 -21.5 58.5t21.5 58.5t52.5 24.5t53 -24.5t22 -58.5t-22 -58.5t-53 -24.5t-52.5 24.5zM-135.5 578.5q-21.5 24.5 -21.5 58.5t21.5 58.5t52.5 24.5t53 -24.5t22 -58.5t-22 -58.5t-53 -24.5t-52.5 24.5z" />
    <glyph glyph-name="uni030A" unicode="&#x30a;" horiz-adv-x="0" 
d="M-129.5 586.5q-20.5 23.5 -20.5 55.5t20.5 55t49.5 23t49.5 -23t20.5 -55t-20.5 -55.5t-49.5 -23.5t-49.5 23.5zM-40 596q16 19 16 46t-16 45.5t-40 18.5t-40 -18.5t-16 -45.5t16 -46t40 -19t40 19z" />
    <glyph glyph-name="uni030B" unicode="&#x30b;" horiz-adv-x="0" 
d="M-366 548l115 183q20 -6 49.5 -39t31.5 -54l-194 -92zM-206 548l115 183q20 -6 49.5 -39t31.5 -54l-194 -92z" />
    <glyph glyph-name="uni030C" unicode="&#x30c;" horiz-adv-x="0" 
d="M-264 729l2 2l127 -62l127 62l2 -2l-129 -183z" />
    <glyph glyph-name="uni0326" unicode="&#x326;" horiz-adv-x="0" 
d="M-42 -55.5q22 -26.5 22 -66.5q0 -51 -32.5 -97t-76.5 -69l-2 3q26 32 28 87q-28 4 -47 28t-19 57q0 34 21.5 59t52.5 25t53 -26.5z" />
    <glyph glyph-name="uni0327" unicode="&#x327;" horiz-adv-x="0" 
d="M-168.5 -226.5q-6.5 7.5 -6.5 19.5q0 18 26 18q8 0 24 -2t23 -2q22 0 22 14q0 11 -8.5 21.5t-25.5 26.5q-13 11 -20 19.5t-7 15.5q0 11 18 31t37 39l26 26h16q-23 -24 -23 -43q0 -18 11 -32t30 -31q2 -2 10 -9t8 -12q0 -20 -27 -45.5t-62 -43.5t-53 -18q-12 0 -18.5 7.5z
" />
    <glyph glyph-name="uni1E44" unicode="&#x1e44;" horiz-adv-x="517" 
d="M475 673q-12 -14 -18 -49t-6 -108v-252q0 -81 1.5 -133.5t6.5 -150.5h-5l-355 573v-369q0 -74 6 -108.5t19 -48.5t43 -27h-159q27 13 39 27t18 49t6 108v332q0 72 -7 107.5t-20 49t-41 27.5h246q2 -17 11 -35t20.5 -38t16.5 -29l126 -215v133q0 73 -6 108t-18 49t-39 27
h154q-27 -13 -39 -27zM225.5 778.5q-21.5 24.5 -21.5 58.5t21.5 58.5t52.5 24.5t52.5 -24.5t21.5 -58.5t-21.5 -58.5t-52.5 -24.5t-52.5 24.5z" />
    <glyph glyph-name="uni1E45" unicode="&#x1e45;" 
d="M289 100v245q0 38 -6.5 54.5t-26.5 16.5q-19 0 -46 -18v-298q0 -62 29 -100h-221q29 38 29 100v279q0 62 -29 100l192 31v-92q87 92 158 92q84 0 84 -131v-279q0 -62 29 -100h-221q29 38 29 100zM212.5 578.5q-21.5 24.5 -21.5 58.5t21.5 58.5t52.5 24.5t52.5 -24.5
t21.5 -58.5t-21.5 -58.5t-52.5 -24.5t-52.5 24.5z" />
    <glyph glyph-name="Wgrave" unicode="&#x1e80;" horiz-adv-x="777" 
d="M779 700q-25 -23 -47.5 -66t-44.5 -118l-159 -532l-142 451l-135 -451l-169 532q-25 80 -43.5 121.5t-40.5 62.5h257q-13 -14 -13 -41q0 -21 7 -50.5t25 -92.5l55 -195l16 73q11 50 11 82q0 51 -22 117q-29 78 -58 107h257q-13 -14 -13 -41q0 -22 7 -53t24 -90l56 -197
l49 197q21 84 21 126q0 38 -17 58h119zM278 838q2 21 32 54t50 39l114 -183l-2 -2z" />
    <glyph glyph-name="wgrave" unicode="&#x1e81;" horiz-adv-x="610" 
d="M621 500q-21 -12 -37 -41.5t-32 -80.5l-124 -397h-1l-122 375l-118 -375h-1l-130 397q-16 50 -32.5 79.5t-35.5 42.5h228q-18 -13 -18 -47q0 -27 14 -75l36 -125l22 67q13 40 13 78q0 33 -10 59t-28 43h213q-19 -13 -19 -48q0 -32 14 -74l37 -121l33 121q12 41 12 67
q0 39 -24 55h110zM212 638q2 21 32 54t50 39l114 -183l-2 -2z" />
    <glyph glyph-name="Wacute" unicode="&#x1e82;" horiz-adv-x="777" 
d="M779 700q-25 -23 -47.5 -66t-44.5 -118l-159 -532l-142 451l-135 -451l-169 532q-25 80 -43.5 121.5t-40.5 62.5h257q-13 -14 -13 -41q0 -21 7 -50.5t25 -92.5l55 -195l16 73q11 50 11 82q0 51 -22 117q-29 78 -58 107h257q-13 -14 -13 -41q0 -22 7 -53t24 -90l56 -197
l49 197q21 84 21 126q0 38 -17 58h119zM306 748l115 183q20 -6 49.5 -39t31.5 -54l-194 -92z" />
    <glyph glyph-name="wacute" unicode="&#x1e83;" horiz-adv-x="610" 
d="M621 500q-21 -12 -37 -41.5t-32 -80.5l-124 -397h-1l-122 375l-118 -375h-1l-130 397q-16 50 -32.5 79.5t-35.5 42.5h228q-18 -13 -18 -47q0 -27 14 -75l36 -125l22 67q13 40 13 78q0 33 -10 59t-28 43h213q-19 -13 -19 -48q0 -32 14 -74l37 -121l33 121q12 41 12 67
q0 39 -24 55h110zM240 548l115 183q20 -6 49.5 -39t31.5 -54l-194 -92z" />
    <glyph glyph-name="Wdieresis" unicode="&#x1e84;" horiz-adv-x="777" 
d="M779 700q-25 -23 -47.5 -66t-44.5 -118l-159 -532l-142 451l-135 -451l-169 532q-25 80 -43.5 121.5t-40.5 62.5h257q-13 -14 -13 -41q0 -21 7 -50.5t25 -92.5l55 -195l16 73q11 50 11 82q0 51 -22 117q-29 78 -58 107h257q-13 -14 -13 -41q0 -22 7 -53t24 -90l56 -197
l49 197q21 84 21 126q0 38 -17 58h119zM225.5 778.5q-21.5 24.5 -21.5 58.5t21.5 58.5t52.5 24.5t53 -24.5t22 -58.5t-22 -58.5t-53 -24.5t-52.5 24.5zM421.5 778.5q-21.5 24.5 -21.5 58.5t21.5 58.5t52.5 24.5t53 -24.5t22 -58.5t-22 -58.5t-53 -24.5t-52.5 24.5z" />
    <glyph glyph-name="wdieresis" unicode="&#x1e85;" horiz-adv-x="610" 
d="M621 500q-21 -12 -37 -41.5t-32 -80.5l-124 -397h-1l-122 375l-118 -375h-1l-130 397q-16 50 -32.5 79.5t-35.5 42.5h228q-18 -13 -18 -47q0 -27 14 -75l36 -125l22 67q13 40 13 78q0 33 -10 59t-28 43h213q-19 -13 -19 -48q0 -32 14 -74l37 -121l33 121q12 41 12 67
q0 39 -24 55h110zM159.5 578.5q-21.5 24.5 -21.5 58.5t21.5 58.5t52.5 24.5t53 -24.5t22 -58.5t-22 -58.5t-53 -24.5t-52.5 24.5zM355.5 578.5q-21.5 24.5 -21.5 58.5t21.5 58.5t52.5 24.5t53 -24.5t22 -58.5t-22 -58.5t-53 -24.5t-52.5 24.5z" />
    <glyph glyph-name="uni1E9E" unicode="&#x1e9e;" horiz-adv-x="615" 
d="M562.5 312.5q33.5 -55.5 33.5 -129.5q0 -95 -54 -144t-149 -49q-51 0 -94 10l-11 238h3q42 -102 73 -165t49 -63q9 0 13 21.5t4 76.5q0 118 -24.5 208t-91.5 90l75 273q-12 6 -29 6q-43 0 -67 -23.5t-34 -75.5t-10 -143v-259q0 -69 2.5 -105t5.5 -49t10 -30h-244
q19 14 28 27.5t13.5 49t4.5 107.5v239q0 147 62.5 217t178.5 70q31 0 85 -10t84 -10q54 0 87 21l2 -1l-91 -316q52 -26 85.5 -81.5z" />
    <glyph glyph-name="Ygrave" unicode="&#x1ef2;" horiz-adv-x="513" 
d="M515 700q-75 -64 -116 -184l-51 -144v-188q0 -72 4.5 -107.5t13.5 -49t28 -27.5h-271q19 14 28 27.5t13.5 49t4.5 107.5v127l-68 205q-40 123 -103 184h271q-11 -12 -11 -34q0 -17 7 -44.5t16 -58.5l13 -47l34 -118l37 118l11 35q15 46 22 71.5t7 43.5q0 21 -12 34h122z
M158 838q2 21 32 54t50 39l114 -183l-2 -2z" />
    <glyph glyph-name="ygrave" unicode="&#x1ef3;" horiz-adv-x="393" 
d="M405 500q-21 -13 -37.5 -41t-33.5 -80l-122 -359q-18 -55 -35 -94t-46 -71.5t-68 -32.5q-16 0 -29 5.5t-17 10.5v119q25 -9 64 -9q41 0 68.5 13.5t27.5 51.5q0 20 -7.5 47t-23.5 71l-9 25l-79 223q-18 54 -33.5 81.5t-36.5 39.5h238q-20 -14 -20 -42q0 -26 17 -79
l42 -139l40 139q12 42 12 69q0 37 -23 52h111zM96 638q2 21 32 54t50 39l114 -183l-2 -2z" />
    <glyph glyph-name="endash" unicode="&#x2013;" horiz-adv-x="570" 
d="M25 314h520v-21h-520v21z" />
    <glyph glyph-name="emdash" unicode="&#x2014;" horiz-adv-x="760" 
d="M25 314h710v-21h-710v21z" />
    <glyph glyph-name="quoteleft" unicode="&#x2018;" horiz-adv-x="207" 
d="M171 567q23 -29 23 -68q0 -42 -26.5 -72t-63.5 -30q-38 0 -64.5 31.5t-26.5 80.5q0 61 39 117t93 84l2 -3q-18 -22 -25 -48.5t-8 -57.5q34 -5 57 -34z" />
    <glyph glyph-name="quoteright" unicode="&#x2019;" horiz-adv-x="207" 
d="M167.5 678q26.5 -32 26.5 -81q0 -61 -39.5 -116.5t-92.5 -83.5l-2 3q18 22 25 48.5t8 57.5q-34 4 -57 33.5t-23 68.5q0 42 26.5 72t63.5 30q38 0 64.5 -32z" />
    <glyph glyph-name="quotesinglbase" unicode="&#x201a;" horiz-adv-x="221" 
d="M174.5 163q26.5 -32 26.5 -81q0 -61 -39.5 -116.5t-92.5 -83.5l-2 3q18 22 25 48.5t8 57.5q-34 4 -57 33.5t-23 68.5q0 42 26.5 72t63.5 30q38 0 64.5 -32z" />
    <glyph glyph-name="quotedblleft" unicode="&#x201c;" horiz-adv-x="429" 
d="M171 567q23 -29 23 -68q0 -42 -26.5 -72t-63.5 -30q-38 0 -64.5 31.5t-26.5 80.5q0 61 39 117t93 84l2 -3q-18 -22 -25 -48.5t-8 -57.5q34 -5 57 -34zM393 567.5q23 -29.5 23 -68.5q0 -42 -26.5 -72t-63.5 -30q-38 0 -64 31.5t-26 80.5q0 61 39 117t92 84l2 -3
q-18 -22 -25 -48.5t-8 -57.5q34 -4 57 -33.5z" />
    <glyph glyph-name="quotedblright" unicode="&#x201d;" horiz-adv-x="429" 
d="M390.5 678q26.5 -32 26.5 -81q0 -61 -39.5 -116.5t-92.5 -83.5l-2 3q18 22 25 48.5t8 57.5q-34 4 -57 33.5t-23 68.5q0 42 26.5 72t63.5 30q38 0 64.5 -32zM167.5 678q26.5 -32 26.5 -81q0 -61 -39.5 -116.5t-92.5 -83.5l-2 3q18 22 25 48.5t8 57.5q-34 4 -57 33.5
t-23 68.5q0 42 26.5 72t63.5 30q38 0 64.5 -32z" />
    <glyph glyph-name="quotedblbase" unicode="&#x201e;" horiz-adv-x="443" 
d="M396.5 163q26.5 -32 26.5 -81q0 -61 -39.5 -116.5t-92.5 -83.5l-2 3q18 22 25 48.5t8 57.5q-34 4 -57 33.5t-23 68.5q0 42 26.5 72t63.5 30q38 0 64.5 -32zM174.5 163q26.5 -32 26.5 -81q0 -61 -39.5 -116.5t-92.5 -83.5l-2 3q18 22 25 48.5t8 57.5q-34 4 -57 33.5
t-23 68.5q0 42 26.5 72t63.5 30q38 0 64.5 -32z" />
    <glyph glyph-name="dagger" unicode="&#x2020;" horiz-adv-x="360" 
d="M320 643h-130v-842h-20v842h-130v21h130v236h20v-236h130v-21z" />
    <glyph glyph-name="daggerdbl" unicode="&#x2021;" horiz-adv-x="360" 
d="M190 643v-585h130v-21h-130v-236h-20v236h-130v21h130v585h-130v21h130v236h20v-236h130v-21h-130z" />
    <glyph glyph-name="bullet" unicode="&#x2022;" horiz-adv-x="333" 
d="M84 178q-34 39 -34 94q0 54 34 93t83 39q32 0 58.5 -18t42 -48.5t15.5 -65.5q0 -36 -15.5 -66.5t-42 -48.5t-58.5 -18q-49 0 -83 39z" />
    <glyph glyph-name="ellipsis" unicode="&#x2026;" horiz-adv-x="665" 
d="M490.5 20.5q-26.5 30.5 -26.5 72.5t26.5 72t63.5 30t64 -30.5t27 -71.5q0 -42 -27 -72.5t-64 -30.5t-63.5 30.5zM268.5 20.5q-26.5 30.5 -26.5 72.5t26.5 72t63.5 30t64 -30.5t27 -71.5q0 -42 -27 -72.5t-64 -30.5t-63.5 30.5zM46.5 20.5q-26.5 30.5 -26.5 72.5t26.5 72
t63.5 30t64 -30.5t27 -71.5q0 -42 -27 -72.5t-64 -30.5t-63.5 30.5z" />
    <glyph glyph-name="perthousand" unicode="&#x2030;" horiz-adv-x="703" 
d="M45.5 496.5q-27.5 36.5 -27.5 88.5t27.5 88.5t72.5 36.5t72.5 -36.5t27.5 -88.5t-27.5 -88.5t-72.5 -36.5t-72.5 36.5zM360 700h20l-269 -550h-20zM177.5 509q21.5 31 21.5 76t-21.5 76t-59.5 31t-59.5 -31t-21.5 -76t21.5 -76t59.5 -31t59.5 31zM280.5 176.5
q-27.5 36.5 -27.5 88.5t27.5 88.5t72.5 36.5t72.5 -36.5t27.5 -88.5t-27.5 -88.5t-72.5 -36.5t-72.5 36.5zM512.5 176.5q-27.5 36.5 -27.5 88.5t27.5 88.5t72.5 36.5t72.5 -36.5t27.5 -88.5t-27.5 -88.5t-72.5 -36.5t-72.5 36.5zM412.5 189q21.5 31 21.5 76t-21.5 76
t-59.5 31t-59.5 -31t-21.5 -76t21.5 -76t59.5 -31t59.5 31zM644.5 189q21.5 31 21.5 76t-21.5 76t-59.5 31t-59.5 -31t-21.5 -76t21.5 -76t59.5 -31t59.5 31z" />
    <glyph glyph-name="guilsinglleft" unicode="&#x2039;" horiz-adv-x="247" 
d="M25 262l196 188l1 -1l-58 -187l58 -187l-1 -1z" />
    <glyph glyph-name="guilsinglright" unicode="&#x203a;" horiz-adv-x="247" 
d="M25 75l58 187l-58 187l1 1l196 -188l-196 -188z" />
    <glyph glyph-name="fraction" unicode="&#x2044;" horiz-adv-x="230" 
d="M210 800h20l-210 -899h-20z" />
    <glyph glyph-name="Euro" unicode="&#x20ac;" horiz-adv-x="534" 
d="M510 128q-7 -30 -29.5 -62t-60 -54t-85.5 -22q-66 0 -125 42t-97 117.5t-45 171.5h-40v17h39v21v7h-39v17h40q4 87 36.5 161.5t95 120t151.5 45.5q58 0 113 -17q7 -51 23 -206q1 -18 5 -54h-3l-20 34t-20 35q-59 103 -86.5 141.5t-49.5 38.5q-15 0 -32 -18.5t-29 -61.5
t-12 -111q0 -49 8 -108h234v-17h-231l6 -28h225v-17h-221q24 -95 71 -155.5t115 -60.5q40 0 63 23z" />
    <glyph glyph-name="trademark" unicode="&#x2122;" horiz-adv-x="806" 
d="M110 309.5q6 9.5 9 33.5t3 74v205q0 36 -2 48t-13 12t-22.5 -22t-41.5 -94q-6 -13 -11 -25l-10 -24h-2l5 185q32 -1 69 -1h175q37 0 69 1l5 -185h-2q-12 28 -18 44q-30 73 -42.5 97t-24.5 24q-11 0 -13 -12t-2 -48v-205q0 -50 3 -74t9 -33.5t19 -18.5h-181q13 9 19 18.5z
M427 600v-183q0 -51 4 -74.5t12.5 -33t28.5 -18.5h-108q18 9 26 18.5t11.5 33t3.5 74.5v158q0 50 -4.5 74t-13 33.5t-27.5 18.5h165l62 -198l58 197h141q-13 -9 -19 -18.5t-9 -33.5t-3 -73v-158q0 -49 3 -73t9 -33.5t19 -19.5h-181q13 10 19 19.5t9.5 33.5t3.5 73v186
l-98 -319z" />
    <glyph glyph-name="arrowleft" unicode="&#x2190;" horiz-adv-x="710" 
d="M610 246h-470l118 -118l-15 -15l-143 143v1l143 143l15 -15l-118 -118h470v-21z" />
    <glyph glyph-name="arrowup" unicode="&#x2191;" horiz-adv-x="487" 
d="M372 352l-118 118v-470h-21v470l-118 -118l-15 15l143 143h1l143 -143z" />
    <glyph glyph-name="arrowright" unicode="&#x2192;" horiz-adv-x="710" 
d="M610 257v-1l-143 -143l-15 15l118 118h-470v21h470l-118 118l15 15z" />
    <glyph glyph-name="arrowdown" unicode="&#x2193;" horiz-adv-x="487" 
d="M387 143l-143 -143h-1l-143 143l15 15l118 -118v470h21v-470l118 118z" />
    <glyph glyph-name="arrowboth" unicode="&#x2194;" horiz-adv-x="800" 
d="M700 257v-1l-143 -143l-15 15l118 118h-520l118 -118l-15 -15l-143 143v1l143 143l15 -15l-118 -118h520l-118 118l15 15z" />
    <glyph glyph-name="arrowupdn" unicode="&#x2195;" horiz-adv-x="487" 
d="M372 115l15 -15l-143 -143h-1l-143 143l15 15l118 -118v520l-118 -118l-15 15l143 143h1l143 -143l-15 -15l-118 118v-520z" />
    <glyph glyph-name="uni2196" unicode="&#x2196;" horiz-adv-x="568" 
d="M453 131l-332 333v-167h-21v202l1 1h202v-21h-168l333 -333z" />
    <glyph glyph-name="uni2197" unicode="&#x2197;" horiz-adv-x="568" 
d="M468 499v-202h-21v167l-332 -333l-15 15l333 333h-168v21h202z" />
    <glyph glyph-name="uni2198" unicode="&#x2198;" horiz-adv-x="568" 
d="M468 335v-202l-1 -1h-202v21h168l-333 333l15 15l332 -333v167h21z" />
    <glyph glyph-name="uni2199" unicode="&#x2199;" horiz-adv-x="568" 
d="M135 153h168v-21h-202l-1 1v202h21v-167l332 333l15 -15z" />
    <glyph glyph-name="emptyset" unicode="&#x2205;" horiz-adv-x="291" 
d="M272 303q0 -34 -17 -63.5t-46.5 -46.5t-63.5 -17q-47 0 -82 30l-28 -29l-15 14l29 29q-31 36 -31 83q0 34 17 63.5t46.5 46.5t63.5 17q47 0 82 -30l28 29l15 -14l-29 -29q31 -36 31 -83zM64 236l147 149q-30 23 -66 23q-43 0 -74 -30.5t-31 -74.5q0 -38 24 -67z
M219.5 229q30.5 31 30.5 74q0 38 -24 67l-147 -149q30 -23 66 -23q44 0 74.5 31z" />
    <glyph glyph-name="product" unicode="&#x220f;" horiz-adv-x="277" 
d="M253 0h-21v679h-188v-679h-21v700h230v-700z" />
    <glyph glyph-name="minus" unicode="&#x2212;" horiz-adv-x="280" 
d="M25 314h230v-21h-230v21z" />
    <glyph glyph-name="integral" unicode="&#x222b;" horiz-adv-x="265" 
d="M27 11q29 0 49 20t24 62l43 503q4 48 28 76t69 28l-2 -22q-29 0 -49 -20t-24 -62l-43 -503q-4 -48 -28 -76t-69 -28z" />
    <glyph glyph-name="lessequal" unicode="&#x2264;" horiz-adv-x="203" 
d="M51 229l74 74l-75 76l15 14l88 -90l-88 -89zM25 111h153v-21h-153v21z" />
    <glyph glyph-name="greaterequal" unicode="&#x2265;" horiz-adv-x="203" 
d="M50 303l88 90l15 -14l-75 -76l74 -74l-14 -15zM25 111h153v-21h-153v21z" />
    <glyph glyph-name="lozenge" unicode="&#x25ca;" horiz-adv-x="346" 
d="M25 387l148 323l148 -323l-148 -323zM301 387l-128 282l-128 -282l128 -286z" />
    <glyph glyph-name="A.swsh.ss01" horiz-adv-x="510" 
d="M255 0q14 16 14 42q0 19 -6 45t-19 70h-150q-44 -113 -88.5 -178t-96 -94t-120.5 -29t-123.5 28t-85 75t-30.5 102q0 46 20 84t54.5 60t76.5 22q34 0 53 -14.5t24 -36.5q-23 0 -41 -33.5t-18 -83.5q0 -45 17 -81.5t44.5 -57.5t58.5 -21q69 0 121.5 64.5t116.5 230.5
t177 522l174 -532q28 -86 46 -125t38 -59h-257zM105 185h131l-63 202q-32 -107 -68 -202z" />
    <glyph glyph-name="C.swsh.ss01" horiz-adv-x="383" 
d="M119 247.5q-43 33.5 -67 90.5t-24 125q0 73 26 129t72.5 87t106.5 31q45 0 86 -16q14 -84 22 -209h-1l-23 43q-47 88 -70 124t-38 36t-28.5 -29.5t-13.5 -97.5q0 -102 36.5 -175.5t108.5 -73.5q33 0 47 17q-11 -48 -46.5 -81.5t-94.5 -33.5q-56 0 -99 33.5zM166 16
q-21 24 -21 58q0 33 21 56.5t51 23.5q29 0 50.5 -24t21.5 -56q0 -34 -21.5 -58t-50.5 -24q-30 0 -51 24z" />
    <glyph glyph-name="D.swsh.ss01" horiz-adv-x="419" 
d="M44 236q7 11 10.5 38.5t3.5 83.5v214q0 49 -3.5 73t-10.5 34t-21 21h178q84 0 137 -55t53 -176q0 -81 -25 -138.5t-69 -87t-101 -29.5h-173q14 11 21 22zM244.5 280.5q7.5 45.5 7.5 132.5q0 266 -48 266q-12 0 -16.5 -18.5t-4.5 -65.5v-254q0 -58 9.5 -82t23.5 -24
q21 0 28.5 45.5zM157 16q-21 24 -21 58q0 32 21 56t50 24q30 0 51 -23.5t21 -56.5q0 -34 -21 -58t-51 -24q-29 0 -50 24z" />
    <glyph glyph-name="O.swsh.ss01" horiz-adv-x="451" 
d="M118 247.5q-44 33.5 -67 90t-23 125.5q0 70 25 126.5t71 88.5t105 32q60 0 104 -33t67 -89.5t23 -124.5q0 -71 -25 -128t-71 -89t-105 -32q-60 0 -104 33.5zM280 303q0 60 -11.5 152.5t-31.5 161t-45 68.5q-20 0 -20 -64q0 -60 11.5 -152.5t31.5 -161t44 -68.5
q21 0 21 64zM175 16q-21 24 -21 58q0 33 21 56.5t51 23.5q29 0 50 -24t21 -56q0 -34 -21 -58t-50 -24q-30 0 -51 24z" />
    <glyph glyph-name="S.swsh.ss01" horiz-adv-x="341" 
d="M36 247l-5 171q93 -183 135 -183q10 0 16.5 7t6.5 21q0 20 -13 44t-42 67l-63 88q-22 32 -32.5 61t-10.5 59q0 59 40 93.5t105 34.5q37 0 70 -10t49 -23l16 -161l-23 40q-37 65 -61 98.5t-43 33.5q-23 0 -23 -32q0 -19 9 -37.5t32 -52.5l70 -98q30 -41 44.5 -71t14.5 -61
q0 -58 -48.5 -90t-115.5 -32q-70 0 -128 33zM122 16q-21 24 -21 58q0 32 21 56t50 24q30 0 51 -23.5t21 -56.5q0 -34 -21 -58t-51 -24q-29 0 -50 24z" />
    <glyph glyph-name="T.swsh.ss01" horiz-adv-x="414" 
d="M114 259.5q8 19.5 12 58.5t4 111v163q0 47 -3 67t-11 20t-18.5 -20t-33.5 -77q-8 -18 -19.5 -45.5t-29.5 -69.5h-2l10 235q41 -2 118 -2h132q77 0 118 2l10 -235h-2q-41 95 -50 119q-24 58 -33 75.5t-17 17.5q-9 0 -12 -20t-3 -67v-163q0 -72 4 -111t12 -58.5t23 -34.5
h-232q15 15 23 34.5zM156 16q-21 24 -21 58q0 33 21 56.5t51 23.5q29 0 50 -24t21 -56q0 -34 -21 -58t-50 -24q-30 0 -51 24z" />
    <glyph glyph-name="V.swsh.ss01" horiz-adv-x="510" 
d="M82 516q-27 84 -46 124.5t-38 59.5h257q-13 -14 -13 -43q0 -22 8 -54.5t24 -86.5l60 -200q45 185 87.5 295t92.5 162t116 52q59 0 93 -34.5t34 -83.5q0 -48 -33.5 -80.5t-91.5 -32.5q-9 0 -27 2q4 11 4 24q0 29 -20.5 50t-49.5 21q-43 0 -78.5 -61.5t-76.5 -195.5
t-128 -450z" />
    <glyph glyph-name="W.swsh.ss01" horiz-adv-x="797" 
d="M1010 790.5q34 -34.5 34 -83.5q0 -48 -33 -80.5t-91 -32.5q-9 0 -27 2q4 16 4 23q0 30 -21 51t-50 21q-43 0 -78.5 -61.5t-76.5 -195.5t-128 -450l-147 453l-140 -453l-174 532q-28 84 -44.5 123t-39.5 61h257q-13 -14 -13 -42q0 -22 7.5 -54.5t24.5 -87.5l61 -199l20 77
q12 43 12 78q0 51 -23 119l1 -1q-17 45 -30.5 70.5t-28.5 39.5h257q-13 -16 -13 -44q0 -39 31 -140l60 -200q39 181 82 292.5t95.5 164t118.5 52.5q59 0 93 -34.5z" />
    <glyph glyph-name="A.swsh" horiz-adv-x="510" 
d="M255 0q14 17 14 43q0 31 -24 113q-14 -16 -49.5 -36t-92.5 -30q-2 -24 -2 -32q0 -40 17 -58h-120q32 28 56 84q-10 -1 -31 -1q-119 0 -195 49.5t-109 122.5t-33 147q0 71 29 128.5t79.5 90.5t113.5 33q47 0 83.5 -19.5t57 -53t20.5 -74.5q0 -36 -15.5 -57t-37.5 -26
q0 23 -30.5 42t-74.5 19q-49 0 -83 -23.5t-51 -60t-17 -75.5q0 -49 26.5 -100t88.5 -86.5t161 -35.5q18 0 27 1q14 34 27 79l164 532l174 -532q26 -81 44 -122t40 -62h-257zM194.5 150q28.5 29 28.5 66q0 5 -2 17l-45 152l-53 -201q-12 -49 -17 -74q60 11 88.5 40z" />
    <glyph glyph-name="B.swsh" horiz-adv-x="544" 
d="M449 358q38 -24 60 -66.5t22 -99.5q0 -100 -66 -146t-158 -46h-284q19 14 28 27.5t13.5 49t4.5 107.5v312q0 175 -128 175q-62 0 -91 -33.5t-29 -79.5q0 -34 14.5 -59.5t36.5 -39.5t43 -14q10 0 17 3q4 -13 4 -30q0 -44 -33 -75t-83 -31q-38 0 -69 20t-49.5 56t-18.5 82
q0 60 32 112t100.5 85t170.5 33h312q77 0 134.5 -40t57.5 -126q0 -70 -38 -107.5t-86 -41.5q45 -3 83 -27zM259.5 665q-5.5 -13 -8 -47t-2.5 -102v-123q41 2 60 33.5t19 101.5q0 62 -13.5 106t-38.5 44q-11 0 -16.5 -13zM341 57q12 35 12 105q0 95 -23 152.5t-81 60.5v-191
q0 -68 5 -103t15 -47t26 -12q34 0 46 35z" />
    <glyph glyph-name="D.swsh" horiz-adv-x="571" 
d="M404 662q62 -38 100.5 -115.5t38.5 -190.5q0 -112 -38 -192.5t-101 -122t-136 -41.5h-245q19 14 28 27.5t13.5 49t4.5 107.5v312q0 175 -128 175q-62 0 -91 -33.5t-29 -79.5q0 -34 14.5 -59.5t36.5 -39.5t43 -14q10 0 17 3q4 -13 4 -30q0 -44 -33 -75t-83 -31
q-38 0 -69 20t-49.5 56t-18.5 82q0 60 32 112t100.5 85t170.5 33h287q69 0 131 -38zM343 89q12 62 12 185q0 110 -10 201t-28.5 144.5t-43.5 53.5q-14 0 -19 -26t-5 -101v-384q0 -135 50 -135q32 0 44 62z" />
    <glyph glyph-name="E.swsh" horiz-adv-x="493" 
d="M480 270l-26 -270h-431q19 14 28 27.5t13.5 49t4.5 107.5v312q0 175 -128 175q-62 0 -91 -33.5t-29 -79.5q0 -34 14.5 -59.5t36.5 -39.5t43 -14q10 0 17 3q4 -13 4 -30q0 -44 -33 -75t-83 -31q-38 0 -69 20t-49.5 56t-18.5 82q0 60 32 112t100.5 85t170.5 33h448l17 -260
h-3q-93 234 -158 234q-20 0 -29 -18t-10.5 -46.5t-1.5 -92.5v-146q0 -17 12 -17q35 0 71.5 31t52.5 99h3v-286h-3q-16 68 -52.5 99.5t-71.5 31.5q-12 0 -12 -17v-128q0 -65 1.5 -93.5t11 -46.5t31.5 -18q32 0 81 53t103 191h3z" />
    <glyph glyph-name="F.swsh" horiz-adv-x="473" 
d="M261 656q-9 -18 -10.5 -46.5t-1.5 -92.5v-155q0 -17 12 -17q37 0 74.5 34t53.5 104h3v-301h-3q-16 69 -54 103.5t-74 34.5q-12 0 -12 -17v-119q0 -72 4.5 -107.5t13.5 -49t28 -27.5h-272q19 14 28 27.5t13.5 49t4.5 107.5v312q0 175 -128 175q-62 0 -91 -33.5t-29 -79.5
q0 -34 14.5 -59.5t36.5 -39.5t43 -14q10 0 17 3q4 -13 4 -30q0 -44 -33 -75t-83 -31q-38 0 -69 20t-49.5 56t-18.5 82q0 60 32 112t100.5 85t170.5 33h452l17 -260h-3q-94 234 -162 234q-20 0 -29 -18z" />
    <glyph glyph-name="H.swsh" horiz-adv-x="608" 
d="M543.5 76.5q4.5 -35.5 13.5 -49t28 -27.5h-272q19 14 28 27.5t13.5 47.5t4.5 103q-1 45 -31 87t-79 70v-151q0 -72 4.5 -107.5t13.5 -49t28 -27.5h-272q19 14 28 27.5t13.5 49t4.5 107.5v176q-65 -18 -105.5 -70.5t-40.5 -125.5q0 -34 8.5 -67t22.5 -54t28 -21
q-33 -41 -94 -41q-46 0 -78 23t-48.5 60t-16.5 79q0 72 45.5 132.5t120 96t158.5 35.5v109q0 72 -4.5 107.5t-13.5 49t-28 27.5h272q-19 -14 -28 -27.5t-13.5 -49t-4.5 -107.5v-159q25 -15 68 -50q26 -23 34 -23t8 23v209q0 72 -4.5 107.5t-13.5 49t-28 27.5h272
q-19 -14 -28 -27.5t-13.5 -49t-4.5 -107.5v-332q0 -72 4.5 -107.5z" />
    <glyph glyph-name="I.swsh" horiz-adv-x="318" 
d="M253.5 76.5q4.5 -35.5 13.5 -49t28 -27.5h-272q19 14 28 27.5t13.5 49t4.5 107.5v312q0 175 -128 175q-62 0 -91 -33.5t-29 -79.5q0 -34 14.5 -59.5t36.5 -39.5t43 -14q10 0 17 3q4 -13 4 -30q0 -44 -33 -75t-83 -31q-38 0 -69 20t-49.5 56t-18.5 82q0 60 32 112
t100.5 85t170.5 33h309q-19 -14 -28 -27.5t-13.5 -49t-4.5 -107.5v-332q0 -72 4.5 -107.5z" />
    <glyph glyph-name="J.swsh" horiz-adv-x="306" 
d="M270 672.5q-9 -13.5 -13.5 -49t-4.5 -107.5v-356q0 -66 -27 -113.5t-69 -71.5t-88 -24q-36 0 -70 16v3q29 5 45 22.5t23 53t7 96.5v354q0 175 -129 175q-62 0 -90.5 -33.5t-28.5 -79.5q0 -34 15 -59.5t37 -39.5t43 -14q8 0 16 3q5 -17 5 -31q0 -43 -33 -74t-83 -31
q-38 0 -69 20t-49.5 56t-18.5 82q0 60 32 112t100 85t170 33h308q-19 -14 -28 -27.5z" />
    <glyph glyph-name="K.swsh" horiz-adv-x="597" 
d="M253.5 76.5q4.5 -35.5 13.5 -49t28 -27.5h-272q19 14 28 27.5t13.5 49t4.5 107.5v312q0 175 -128 175q-62 0 -91 -33.5t-29 -79.5q0 -34 14.5 -59.5t36.5 -39.5t43 -14q10 0 17 3q4 -13 4 -30q0 -44 -33 -75t-83 -31q-38 0 -69 20t-49.5 56t-18.5 82q0 60 32 112
t100.5 85t170.5 33h309q-19 -14 -28 -27.5t-13.5 -49t-4.5 -107.5v-332q0 -72 4.5 -107.5zM554.5 72q25.5 -48 48.5 -72h-226q-6 39 -70 200l-56 144q79 117 109 180t30 110q0 46 -32 66h199q-76 -37 -189 -207l109 -253q52 -120 77.5 -168z" />
    <glyph glyph-name="L.swsh" horiz-adv-x="461" 
d="M453 300l-41 -299l-408 -1q19 14 28 27.5t13.5 49t4.5 107.5v312q0 102 -37 138.5t-85 36.5q-54 0 -80.5 -34t-26.5 -79q0 -34 14.5 -59.5t36.5 -39.5t43 -14q10 0 17 3q4 -13 4 -30q0 -44 -33 -75t-83 -31q-38 0 -69 20t-49.5 56t-18.5 82q0 59 31 111.5t95 85.5t158 33
h308q-19 -14 -28 -27.5t-13.5 -49t-4.5 -107.5v-332q0 -64 1.5 -92.5t10.5 -46.5t30 -18q16 0 37 23.5t54 82t88 167.5h3z" />
    <glyph glyph-name="M.swsh" horiz-adv-x="721" 
d="M656.5 76.5q4.5 -35.5 13.5 -49t28 -27.5h-272q19 14 28 27.5t13.5 49t4.5 107.5v364l-176 -558l-199 567v-373q0 -74 6 -108.5t19 -48.5t43 -27h-159q27 13 39 27t18 49t6 108v312q0 175 -128 175q-62 0 -91 -33.5t-29 -79.5q0 -34 14.5 -59.5t36.5 -39.5t43 -14
q10 0 17 3q4 -13 4 -30q0 -44 -33 -75t-83 -31q-38 0 -69 20t-49.5 56t-18.5 82q0 60 32 112t100.5 85t170.5 33h263l125 -372l111 372h213q-19 -14 -28 -27.5t-13.5 -49t-4.5 -107.5v-332q0 -72 4.5 -107.5z" />
    <glyph glyph-name="N.swsh" horiz-adv-x="520" 
d="M478 673q-12 -14 -18 -49t-6 -108v-252q0 -81 1.5 -133.5t6.5 -150.5h-5l-360 573v-369q0 -74 6 -108.5t19 -48.5t43 -27h-159q27 13 39 27t18 49t6 108v312q0 175 -128 175q-62 0 -91 -33.5t-29 -79.5q0 -34 14.5 -59.5t36.5 -39.5t43 -14q10 0 17 3q4 -13 4 -30
q0 -44 -33 -75t-83 -31q-38 0 -69 20t-49.5 56t-18.5 82q0 60 32 112t100.5 85t170.5 33h269q2 -17 11 -35t20.5 -38t16.5 -29l123 -216v134q0 73 -6 108t-18 49t-39 27h154q-27 -13 -39 -27z" />
    <glyph glyph-name="P.swsh" horiz-adv-x="529" 
d="M320 339q15 44 15 142q0 86 -12 139.5t-39 53.5q-17 0 -26 -33t-9 -125v-332q0 -72 4.5 -107.5t13.5 -49t28 -27.5h-272q19 14 28 27.5t13.5 49t4.5 107.5v312q0 175 -128 175q-62 0 -91 -33.5t-29 -79.5q0 -34 14.5 -59.5t36.5 -39.5t43 -14q10 0 17 3q4 -13 4 -30
q0 -44 -33 -75t-83 -31q-38 0 -69 20t-49.5 56t-18.5 82q0 60 32 112t100.5 85t170.5 33h312q53 0 102.5 -19.5t82.5 -67t33 -126.5q0 -204 -239 -204v8q28 4 43 48z" />
    <glyph glyph-name="Q.swsh" horiz-adv-x="569" 
d="M923 -82q-5 -62 -49 -95t-124 -33q-59 0 -112 17.5t-94 41.5t-97 63q-57 40 -93 59t-70 19q-84 0 -141.5 50.5t-86 132.5t-28.5 177q0 98 29.5 180t87 131t138.5 49q84 0 141 -50.5t85 -132.5t28 -177q0 -125 -45 -219.5t-129 -126.5q27 -3 59.5 -12.5t88.5 -29.5
q92 -33 160.5 -50.5t139.5 -17.5q75 0 110 28zM215 312.5q14 -122.5 41.5 -208.5t66.5 -86q25 0 33.5 35.5t8.5 106.5q0 105 -14 227.5t-41.5 208.5t-66.5 86q-25 0 -33.5 -35.5t-8.5 -106.5q0 -105 14 -227.5z" />
    <glyph glyph-name="R.swsh" horiz-adv-x="576" 
d="M528.5 95q40.5 -91 66.5 -94q-29 -6 -76 -6q-70 0 -114 39.5t-65 91t-40 124.5q-11 43 -19 63.5t-20 20.5v3q35 0 50.5 6.5t21 26.5t5.5 65q0 91 -15.5 165t-42.5 74q-15 0 -23 -33.5t-8 -124.5v-332q0 -72 4.5 -107.5t13.5 -49t28 -27.5h-272q19 14 28 27.5t13.5 49
t4.5 107.5v312q0 175 -128 175q-62 0 -91 -33.5t-29 -79.5q0 -34 14.5 -59.5t36.5 -39.5t43 -14q10 0 17 3q4 -13 4 -30q0 -44 -33 -75t-83 -31q-38 0 -69 20t-49.5 56t-18.5 82q0 60 32 112t100.5 85t170.5 33h317q55 0 100 -21.5t71.5 -63t26.5 -99.5q0 -52 -20.5 -90
t-56.5 -61q64 -179 104.5 -270z" />
    <glyph glyph-name="V.swsh" horiz-adv-x="510" 
d="M512 700q-26 -23 -47.5 -65.5t-44.5 -118.5l-164 -532l-174 532q-21 63 -61.5 109t-95.5 46q-47 0 -70 -33.5t-23 -76.5q0 -35 15 -61.5t37 -40.5t43 -14q8 0 16 3q5 -17 5 -31q0 -43 -33 -74t-83 -31q-58 0 -97.5 44t-39.5 119q0 58 28.5 108.5t96 83.5t178.5 33h288
q-37 -13 -37 -63q0 -38 25 -121l60 -198l54 198q22 79 22 123q0 40 -18 61h120z" />
    <glyph glyph-name="W.swsh" horiz-adv-x="797" 
d="M799 700q-25 -23 -47 -65.5t-45 -118.5l-164 -532l-147 453l-140 -453l-174 532q-21 63 -61.5 109t-95.5 46q-47 0 -70 -33.5t-23 -76.5q0 -35 15 -61.5t37 -40.5t43 -14q8 0 16 3q5 -17 5 -31q0 -43 -33 -74t-83 -31q-58 0 -97.5 44t-39.5 119q0 58 28.5 108.5t96 83.5
t178.5 33h288q-37 -13 -37 -63q0 -38 25 -121l60 -198l21 76q12 45 12 79q0 53 -23 118l1 -1q-17 44 -30 69.5t-29 40.5h257q-14 -17 -14 -44q0 -22 7.5 -54t24.5 -86l61 -200l54 200q22 79 22 124q0 39 -18 60h119z" />
    <glyph glyph-name="X.swsh" horiz-adv-x="526" 
d="M262 15q4 7 4 19q0 17 -9 51t-31 99l-32 97l-38 -97q-28 -72 -38.5 -104t-10.5 -48q0 -11 4 -18t12 -14h-116q26 17 41 31t36.5 50t46.5 103l51 134l-65 198l-3 9q-21 60 -59.5 103t-89.5 43q-47 0 -69.5 -33.5t-22.5 -76.5q0 -35 14.5 -61.5t36.5 -40.5t43 -14
q10 0 17 3q4 -13 4 -30q0 -44 -33 -75t-83 -31q-58 0 -97.5 44t-39.5 119q0 55 26 104.5t87.5 83t162.5 37.5h312q-35 -13 -35 -61q0 -40 26 -123l18 -54l21 54q22 56 31.5 90t9.5 55q0 25 -16 39h116q-30 -20 -56.5 -59t-59.5 -125l-34 -90l80 -242q23 -71 40.5 -106.5
t29.5 -48.5t34 -29h-279q9 8 13 15z" />
    <glyph glyph-name="i.loclTRK" horiz-adv-x="257" 
d="M47 100v279q0 62 -29 100l192 31v-410q0 -62 29 -100h-221q29 38 29 100zM76.5 578.5q-21.5 24.5 -21.5 58.5t21.5 58.5t52.5 24.5t52.5 -24.5t21.5 -58.5t-21.5 -58.5t-52.5 -24.5t-52.5 24.5z" />
    <glyph glyph-name="a.ss01" horiz-adv-x="436" 
d="M432 50q0 -13 -16.5 -27t-42.5 -23.5t-54 -9.5q-47 0 -74.5 26.5t-27.5 68.5q0 4 -0.5 5.5t-1.5 1.5q-2 0 -6 -6.5t-6 -10.5q-18 -35 -42.5 -60t-64.5 -25q-37 0 -60 23.5t-23 70.5q0 52 25 86t75 74q35 29 55 50.5t34.5 51.5t14.5 70q0 25 -9 46t-33 21q-29 0 -29 -20
q0 -9 8 -35q11 -33 11 -49q0 -29 -19 -52t-48 -23q-26 0 -42 19t-16 51q0 62 55 99t134 37q72 0 112 -36t40 -111v-273q0 -23 7.5 -33.5t28.5 -10.5q8 0 15 4zM217 280q0 11 -1.5 14.5t-4.5 3.5q-11 0 -25.5 -20t-25 -51t-10.5 -63q0 -33 11.5 -50t24.5 -17q31 0 31 67v116z
" />
    <glyph glyph-name="i.ss01" horiz-adv-x="257" 
d="M47 100v279q0 62 -29 100l192 31v-410q0 -62 29 -100h-221q29 38 29 100z" />
    <glyph glyph-name="r.ss01" horiz-adv-x="328" 
d="M572 731q32 -28 32 -71q0 -45 -38.5 -68.5t-98.5 -22.5q3 8 3 14q0 16 -15 27t-36 11q-45 0 -93.5 -50.5t-82 -153t-33.5 -248.5v-69q0 -62 29 -100h-221q29 38 29 100v279q0 62 -29 100l192 31v-167q18 121 57.5 215.5t96.5 147.5t125 53q51 0 83 -28z" />
    <glyph glyph-name="h.swsh.ss01" horiz-adv-x="506" 
d="M291 100v245q0 39 -4.5 55t-22.5 16q-11 0 -27 -6.5t-25 -12.5v-297q0 -62 29 -100h-221q29 38 29 100v403q0 121 -29 163t-74 42q-39 0 -65 -20t-37.5 -49.5t-11.5 -58.5q0 -35 15.5 -60.5t39 -38.5t46.5 -13q11 0 20 3q2 -14 2 -21q0 -46 -30 -77t-74 -31q-33 0 -61 19
t-45 55t-17 85q0 57 25 109.5t84 87.5t155 35h220v-316q88 93 158 93q84 0 84 -131v-279q0 -62 29 -100h-221q29 38 29 100z" />
    <glyph glyph-name="a.ss02" horiz-adv-x="436" 
d="M38 14.5q-25 24.5 -25 72.5q0 38 17 68.5t40.5 53t61.5 51.5q44 35 64.5 58t20.5 51q0 40 -20.5 65.5t-52.5 25.5q-36 0 -60.5 -26t-30.5 -48h-1l12 101q28 10 72 16.5t81 6.5q164 0 164 -147v-273q0 -23 7.5 -33.5t28.5 -10.5q8 0 15 4q0 -13 -16.5 -27t-42.5 -23.5
t-54 -9.5q-47 0 -74.5 26.5t-27.5 68.5q0 4 -0.5 5.5t-1.5 1.5q-3 0 -16.5 -28.5t-37.5 -51t-61 -22.5t-62 24.5zM217 164v116q0 11 -1.5 14.5t-4.5 3.5q-11 0 -25.5 -20t-25 -51t-10.5 -63q0 -33 11.5 -50t24.5 -17q31 0 31 67z" />
    <glyph glyph-name="i.ss02" horiz-adv-x="257" 
d="M47 100v179q0 62 -29 100l192 31v-310q0 -62 29 -100h-221q29 38 29 100z" />
    <glyph glyph-name="a.swsh" horiz-adv-x="672" 
d="M608.5 363q28.5 -19 46 -55t17.5 -85q0 -57 -27.5 -110t-92 -88t-168.5 -35h-5q-89 1 -125.5 25t-36.5 66v4q0 4 -0.5 5.5t-1.5 1.5q-3 0 -16.5 -28.5t-37.5 -51t-61 -22.5t-62 24.5t-25 72.5q0 34 12.5 60t30 44.5t50.5 46.5q37 30 58.5 53.5t37 58.5t15.5 83
q0 55 -19 55q-11 0 -40 -38t-55.5 -76.5t-33.5 -49.5q-13 -22 -23 -35h-2q10 107 16 156l4 42q28 10 72 16.5t81 6.5q81 0 122 -35.5t41 -111.5l1 -218q2 -56 9 -83.5t20 -36.5t36 -9q42 0 69.5 20t40 49t12.5 58q0 34 -15.5 60t-39.5 39.5t-47 13.5q-9 0 -18 -3
q-2 14 -2 21q0 46 29.5 77t72.5 31q32 0 60.5 -19zM217 164v116q0 11 -1.5 14.5t-4.5 3.5q-11 0 -25.5 -20t-25 -51t-10.5 -63q0 -33 11.5 -50t24.5 -17q31 0 31 67z" />
    <glyph glyph-name="d.swsh" horiz-adv-x="727" 
d="M664 363q28 -19 45.5 -55t17.5 -85q0 -57 -27 -110t-91.5 -88t-168.5 -35q-93 0 -130 24t-37 67v21q-13 -38 -45 -75t-76 -37q-37 0 -66.5 30.5t-46 83.5t-16.5 120q0 85 29 150t77 100.5t104 35.5h40v90q0 62 -29 100l191 34v-530q0 -83 6 -122.5t19 -52.5t40 -13
q42 0 70 20t40.5 49t12.5 58q0 34 -15.5 60t-39.5 39.5t-47 13.5q-9 0 -18 -3q-2 14 -2 21q0 46 29.5 77t72.5 31q33 0 61 -19zM266.5 103q6.5 8 6.5 18v301q0 37 -11.5 52t-24.5 15q-21 0 -35 -48.5t-14 -127.5q0 -88 14.5 -153t44.5 -65q13 0 19.5 8z" />
    <glyph glyph-name="h.swsh" horiz-adv-x="748" 
d="M684.5 363q28.5 -19 46 -54t17.5 -82q0 -59 -29 -112.5t-96 -89t-173 -35.5q-88 0 -124.5 21.5t-36.5 47.5v286q0 38 -6.5 54.5t-26.5 16.5q-19 0 -46 -18v-298q0 -62 29 -100h-221q29 38 29 100v500q0 62 -29 100l192 33v-315q87 92 158 92q84 0 84 -131v-154
q0 -94 6 -137.5t19.5 -57.5t40.5 -14q43 0 71.5 20t41.5 50t13 60q0 33 -15.5 58t-39.5 38.5t-47 13.5q-10 0 -19 -3q-2 14 -2 21q0 46 29.5 77t72.5 31q33 0 61.5 -19z" />
    <glyph glyph-name="m.swsh" horiz-adv-x="987" 
d="M923.5 363q28.5 -19 46 -54t17.5 -82q0 -59 -29 -112.5t-95.5 -89t-172.5 -35.5q-89 0 -125 21.5t-36 47.5v286q0 37 -7 54t-27 17q-13 0 -22.5 -5t-21.5 -13h-1v-19v-279q0 -62 29 -100h-220q29 38 29 100v245q0 37 -6.5 54t-26.5 17q-13 0 -23 -5t-22 -13v-298
q0 -62 29 -100h-221q29 38 29 100v279q0 62 -29 100l192 31v-92q85 92 157 92q71 0 81 -95q87 95 160 95q83 0 83 -131v-154q0 -93 6 -137t20 -58t41 -14q43 0 71 20t41 50t13 60q0 33 -15.5 58t-39.5 38.5t-47 13.5q-10 0 -19 -3q-2 14 -2 21q0 46 29.5 77t72.5 31
q33 0 61.5 -19z" />
    <glyph glyph-name="n.swsh" horiz-adv-x="748" 
d="M684.5 363q28.5 -19 46 -54t17.5 -82q0 -59 -29 -112.5t-96 -89t-173 -35.5q-88 0 -124.5 21.5t-36.5 47.5v286q0 38 -6.5 54.5t-26.5 16.5q-19 0 -46 -18v-298q0 -62 29 -100h-221q29 38 29 100v279q0 62 -29 100l192 31v-92q87 92 158 92q84 0 84 -131v-154
q0 -94 6 -137.5t19.5 -57.5t40.5 -14q43 0 71.5 20t41.5 50t13 60q0 33 -15.5 58t-39.5 38.5t-47 13.5q-10 0 -19 -3q-2 14 -2 21q0 46 29.5 77t72.5 31q33 0 61.5 -19z" />
    <glyph glyph-name="p.swsh" horiz-adv-x="482" 
d="M859 -119l-66 -139q-26 26 -78 40.5t-118 14.5q-52 0 -101.5 -6.5t-138.5 -21.5q-75 -13 -120.5 -19.5t-87.5 -6.5q-69 0 -132.5 20.5t-83.5 71.5q29 -29 56 -29q26 0 42 24t16 64v486q0 62 -29 100l192 30v-112q13 38 44.5 75t74.5 37q37 0 67 -30.5t46.5 -83.5
t16.5 -120q0 -85 -28.5 -150t-77 -100.5t-104.5 -35.5h-39v-113q0 -39 -15.5 -64t-34 -36.5t-25.5 -11.5q50 0 105 18.5t148 58.5q102 45 171.5 68t139.5 23q95 0 160 -52zM210 165q0 -81 10 -117.5t26 -36.5q20 0 34 49t14 127q0 88 -14.5 153.5t-44.5 65.5
q-12 0 -18.5 -8.5t-6.5 -19.5v-213z" />
    <glyph glyph-name="t.swsh" horiz-adv-x="307" 
d="M218 440v-326q0 -32 11.5 -50t39.5 -18q20 0 34 5h1q-4 -13 -27 -27.5t-53.5 -24t-58.5 -9.5q-47 0 -78 29t-31 73v348h-53l215 230q0 -121 29 -163t75 -42q39 0 64.5 20t37 49.5t11.5 58.5q0 35 -15.5 60.5t-39 38.5t-46.5 13q-10 0 -19 -3q-2 14 -2 21q0 46 29.5 77
t73.5 31q33 0 61 -19t45 -55t17 -85q0 -57 -25 -109.5t-84 -87.5t-155 -35h-57z" />
    <glyph glyph-name="u.swsh" horiz-adv-x="748" 
d="M684.5 363q28.5 -19 46 -54t17.5 -82q0 -59 -29 -112.5t-96 -89t-173 -35.5q-88 0 -124.5 21.5t-36.5 47.5v23q-87 -92 -158 -92q-84 0 -84 131v238q0 46 -9 76t-20 44l192 31v-355q0 -38 6.5 -54.5t26.5 -16.5q19 0 46 18v257q0 46 -9 76t-20 44l192 31v-285
q0 -94 6 -137.5t19.5 -57.5t40.5 -14q43 0 71.5 20t41.5 50t13 60q0 33 -15.5 58t-39.5 38.5t-47 13.5q-10 0 -19 -3q-2 14 -2 21q0 46 29.5 77t72.5 31q33 0 61.5 -19z" />
    <glyph glyph-name="v.swsh" horiz-adv-x="395" 
d="M335.5 769q56.5 -44 56.5 -152q0 -41 -13.5 -96t-49.5 -162t-130 -378h-1l-140 398q-18 54 -33.5 81.5t-36.5 39.5h238q-20 -14 -20 -42q0 -26 17 -79l42 -140q45 148 59 208t14 106q0 134 -88 134q-41 0 -62 -24.5t-21 -54.5q0 -13 5 -25q-7 -1 -19 -1q-47 0 -79.5 30.5
t-32.5 74.5q0 33 19.5 62t57 46.5t87.5 17.5q74 0 130.5 -44z" />
    <glyph glyph-name="w.swsh" horiz-adv-x="611" 
d="M56 378q-16 50 -32.5 79.5t-35.5 42.5h228q-18 -13 -18 -47q0 -27 14 -75l36 -125l22 67q13 40 13 78q0 33 -10 59t-28 43h212q-19 -14 -19 -49q0 -26 14 -73l38 -123l7 28q35 129 46 178.5t11 92.5q0 133 -88 133q-41 0 -62 -24.5t-21 -54.5q0 -13 5 -25q-7 -1 -19 -1
q-47 0 -79.5 30.5t-32.5 74.5q0 33 19.5 62t57 46.5t87.5 17.5q74 0 130 -44t56 -151q0 -34 -9 -76t-36.5 -132.5t-68.5 -220.5l-65 -208h-1l-122 375l-118 -375h-1z" />
    <glyph glyph-name="x.swsh" horiz-adv-x="417" 
d="M200 47q0 23 -20 72l-32 76l-9 -28q-19 -62 -26 -88t-7 -43q0 -22 17 -36h-122q22 18 36.5 32.5t34 45t40.5 79.5l27 61l-67 161q-21 51 -38 76.5t-38 44.5h248q-15 -9 -21.5 -20t-6.5 -26q0 -24 21 -75l37 -89q50 111 66 164.5t16 99.5q0 133 -88 133q-41 0 -62 -24.5
t-21 -54.5q0 -13 5 -25q-7 -1 -19 -1q-47 0 -79.5 30.5t-32.5 74.5q0 33 19.5 62t57 46.5t87.5 17.5q74 0 130.5 -44t56.5 -151q0 -52 -29.5 -137.5t-99.5 -207.5l64 -156q20 -49 37 -74t37 -43h-248q29 18 29 47z" />
    <glyph glyph-name="y.swsh" horiz-adv-x="391" 
d="M34 -172.5q-13 5.5 -17 10.5v119q25 -9 64 -9q41 0 68.5 13.5t27.5 51.5q0 20 -7.5 47t-23.5 71l-9 25l-79 223q-18 54 -33.5 81.5t-36.5 39.5h238q-20 -14 -20 -42q0 -26 17 -79l41 -138q32 106 46.5 158.5t19 83.5t4.5 69q0 66 -19.5 100.5t-63.5 34.5q-40 0 -63.5 -26
t-23.5 -56q0 -12 5 -22q-7 -1 -20 -1q-47 0 -79.5 30.5t-32.5 74.5q0 33 20 62t58 46.5t88 17.5q75 0 130 -44t55 -153q0 -43 -10 -89t-37.5 -129.5t-103.5 -305.5l-25 -72q-21 -60 -36.5 -96.5t-44.5 -69t-68 -32.5q-16 0 -29 5.5z" />
    <glyph glyph-name="f_t" horiz-adv-x="578" 
d="M574 53q-4 -14 -28.5 -28.5t-58 -24.5t-63.5 -10q-49 0 -76 27.5t-27 74.5v203q0 81 -20 127t-52 46q-17 0 -27.5 -13.5t-10.5 -37.5v-317q0 -75 39 -100h-235q34 29 34 100v340h-36q73 306 197 306q35 0 52 -22t17 -58q0 -42 -22.5 -74.5t-62.5 -32.5q-17 0 -28 5.5
t-27 16.5q-18 16 -33 16q-14 0 -25 -10t-11 -29q0 -30 33 -45.5t107 -15.5q56 0 100 12.5t87 48.5t84 104h2v-163q51 0 81 3l-13 -62h-68v-346q0 -23 13.5 -35.5t37.5 -12.5q18 0 39 7h1z" />
    <glyph glyph-name="fi.ss01" horiz-adv-x="533" 
d="M52 100v340h-39q31 129 84 206.5t113.5 109t120.5 31.5q68 0 106.5 -35t38.5 -86q0 -50 -35.5 -81.5t-81.5 -31.5q-16 0 -29 4q2 29 -9.5 61.5t-37.5 55t-65 22.5q-42 0 -66 -25t-24 -61q0 -48 43.5 -83.5t137.5 -35.5q39 0 93.5 4.5t83.5 14.5v-410q0 -62 29 -100h-221
q29 38 29 100v195q0 53 -11 92.5t-28 60t-36 20.5q-16 0 -24.5 -13.5t-8.5 -37.5v-317q0 -75 39 -100h-236q34 29 34 100z" />
    <glyph glyph-name="zero.osf" horiz-adv-x="474" 
d="M124 24.5q-50 34.5 -78 94t-28 131.5t28 131.5t78 94t113 34.5t113 -34.5t78 -94t28 -131.5t-28 -131.5t-78 -94t-113 -34.5t-113 34.5zM267.5 79.5q9.5 63.5 9.5 170.5t-9.5 170.5t-30.5 63.5q-42 0 -42 -234t42 -234q21 0 30.5 63.5z" />
    <glyph glyph-name="one.osf" horiz-adv-x="329" 
d="M67 34q17 24 17 76v241q0 40 -3 55.5t-17 26t-49 22.5v5l230 70v-420q0 -52 17 -76t62 -34h-319q45 10 62 34z" />
    <glyph glyph-name="two.osf" horiz-adv-x="395" 
d="M33 50q62 89 90.5 133t45 82t16.5 72q0 32 -13 57t-47 25q-60 0 -98 -103h-4q9 80 56.5 137t137.5 57q76 0 111.5 -39.5t35.5 -90.5q0 -45 -28 -85t-67.5 -70.5t-104.5 -74.5q-11 -6 -31 -20q99 0 162 13t92 54l-68 -197h-321z" />
    <glyph glyph-name="three.osf" horiz-adv-x="413" 
d="M265 263q35 0 65 -21t48.5 -63t18.5 -102q0 -77 -35 -143t-95.5 -105t-133.5 -39q-40 0 -76 11.5t-59 29.5q18 -3 35 -3q59 0 103.5 30.5t68 79t23.5 99.5q0 52 -22 74t-52 22q-17 0 -29 -6l73 117l2 1l71 111h-34q-67 0 -106 -4.5t-68.5 -20.5t-50.5 -50l70 219h313
l-155 -240q12 3 25 3z" />
    <glyph glyph-name="four.osf" horiz-adv-x="423" 
d="M334 10v-64q0 -62 29 -100l-219 -39q29 38 29 100v103h-175l336 515v-463h86l-19 -52h-67zM173 235l-112 -173h112v173z" />
    <glyph glyph-name="five.osf" horiz-adv-x="399" 
d="M305 233q35 -24 55.5 -68.5t20.5 -102.5q0 -71 -31 -133.5t-87 -100.5t-125 -38q-38 0 -73.5 10.5t-51.5 22.5q17 -4 38 -4q49 0 85.5 28.5t55.5 75t19 99.5q0 55 -23 86.5t-72 31.5q-40 0 -79 -22l20 382h90q194 0 228 21l-49 -165h-248l-10 -177q89 78 161 78
q41 0 76 -24z" />
    <glyph glyph-name="six.osf" horiz-adv-x="469" 
d="M133 26.5q-49 36.5 -77 107.5t-28 170q0 112 36 205t97.5 147t134.5 54q38 0 62 -10q-85 0 -122 -106t-37 -284q0 -99 12 -198.5t40 -99.5q18 0 27 45.5t9 110.5q0 91 -16 151.5t-56 60.5q-3 0 -13 -2q15 37 44.5 55t63.5 18q73 0 106.5 -64t33.5 -149q0 -76 -26 -132
t-73 -86t-108 -30t-110 36.5z" />
    <glyph glyph-name="seven.osf" horiz-adv-x="424" 
d="M352.5 354q-48.5 -105 -80.5 -239.5t-32 -260.5q0 -18 2 -54h-183q-1 11 -1 31q0 120 49 229.5t112 186.5t108 109h-90q-77 0 -117 -4.5t-68 -20.5t-49 -50l70 219h373q-45 -41 -93.5 -146z" />
    <glyph glyph-name="eight.osf" horiz-adv-x="440" 
d="M367 327.5q25 -35.5 40 -73t15 -77.5q0 -57 -27 -99.5t-75 -65t-108 -22.5q-87 0 -140.5 47.5t-53.5 124.5q0 45 18 80.5t45.5 57.5t56.5 29q-48 63 -70.5 109.5t-22.5 97.5q0 80 50.5 127t129.5 47q72 0 115.5 -40.5t43.5 -105.5q0 -53 -27 -90.5t-62 -53.5
q47 -57 72 -92.5zM201 668.5q-11 -17.5 -11 -45.5q0 -37 21 -80t65 -98q10 48 10 87q0 58 -14 106t-43 48q-17 0 -28 -17.5zM250 38q15 23 15 63q0 45 -21 83.5t-77 107.5l-16 20q-17 -58 -17 -113q0 -45 10 -88t28 -69.5t41 -26.5q22 0 37 23z" />
    <glyph glyph-name="nine.osf" horiz-adv-x="475" 
d="M335.5 473.5q48.5 -36.5 76.5 -107.5t28 -170q0 -112 -36 -205t-97.5 -147t-134.5 -54q-37 0 -61 10q84 0 121.5 106t37.5 284q0 99 -12 198.5t-40 99.5q-19 0 -27.5 -45t-8.5 -111q0 -91 16 -151.5t56 -60.5q3 0 13 2q-15 -37 -45 -55t-63 -18q-73 0 -107 64t-34 149
q0 76 26.5 132t73.5 86t108 30t109.5 -36.5z" />
    </font>
</defs>
</svg>
