<?xml version="1.0" standalone="no"?>
<!DOCTYPE svg PUBLIC "-//W3C//DTD SVG 1.1//EN" "http://www.w3.org/Graphics/SVG/1.1/DTD/svg11.dtd" >
<svg xmlns="http://www.w3.org/2000/svg" xmlns:xlink="http://www.w3.org/1999/xlink" version="1.1">
<metadata>
Created by FontForge 20170731 at Fri Jul 19 02:20:30 2019
 By Aleksey,,,
Copyright (c) 2019 by Connary Fagen. All rights reserved.
</metadata>
<defs>
<font id="WayfinderCF-HeavyItalic" horiz-adv-x="480" >
  <font-face 
    font-family="Wayfinder CF Heavy"
    font-weight="900"
    font-style="italic"
    font-stretch="normal"
    units-per-em="1000"
    panose-1="0 0 10 0 0 0 0 0 0 0"
    ascent="800"
    descent="-200"
    x-height="500"
    cap-height="700"
    bbox="-481 -290 1112 931"
    underline-thickness="50"
    underline-position="-150"
    slope="-6"
    unicode-range="U+0020-FB01"
  />
<missing-glyph horiz-adv-x="500" 
d="M410 -200h-317v1000h317v-1000zM168 733v-33h65v-37h-66v-33h166v33h-66v37h66v33h-165zM167 604v-104h166v34h-66v70h-100zM233 534h-33v36h33v-36zM167 473v-33h66v-37h-66v-33h100v70h66v33h-166zM300 413v-66h-133v-34h166v100h-33zM233 291v-56h34v23h33v-47h-100
v80h-33v-113h166v113h-100zM167 118v-113h166v113h-166zM300 38h-100v47h100v-47zM167 -18v-33h70l-70 -47v-33h166v33h-102l70 47h32v33h-166z" />
    <glyph glyph-name="fi" unicode="fi" horiz-adv-x="576" 
d="M-2.5 -138q26.5 40 37.5 137l46 437h-65q28 28 53.5 62t62.5 87q56 82 92.5 121.5t74.5 39.5q20 0 33 -20t13 -53q0 -47 -28 -82.5t-68 -35.5q-15 0 -23.5 4.5t-18.5 13.5q-9 8 -15.5 11.5t-15.5 3.5q-16 0 -24.5 -10.5t-8.5 -26.5q0 -32 45 -46t156 -14q57 0 119.5 4.5
t93.5 14.5l-43 -410q-1 -7 -1 -20q0 -28 6 -49t14 -31h-238q12 14 24 40t15 60l20 191q3 33 3 61q0 57 -14 86t-39 29q-17 0 -27 -13.5t-16.5 -44t-11.5 -87.5l-25 -258q-6 -66 -39 -122.5t-96.5 -91.5t-158.5 -35q41 7 67.5 47zM411.5 578q-13.5 26 -13.5 57
q0 43 32.5 75.5t76.5 32.5q33 0 53 -19.5t20 -52.5q0 -42 -21.5 -69.5t-51 -40t-54.5 -12.5q-7 0 -15 2q-13 1 -26.5 27z" />
    <glyph glyph-name=".notdef" horiz-adv-x="500" 
d="M410 -200h-317v1000h317v-1000zM168 733v-33h65v-37h-66v-33h166v33h-66v37h66v33h-165zM167 604v-104h166v34h-66v70h-100zM233 534h-33v36h33v-36zM167 473v-33h66v-37h-66v-33h100v70h66v33h-166zM300 413v-66h-133v-34h166v100h-33zM233 291v-56h34v23h33v-47h-100
v80h-33v-113h166v113h-100zM167 118v-113h166v113h-166zM300 38h-100v47h100v-47zM167 -18v-33h70l-70 -47v-33h166v33h-102l70 47h32v33h-166z" />
    <glyph glyph-name=".null" horiz-adv-x="0" 
 />
    <glyph glyph-name="nonmarkingreturn" horiz-adv-x="333" 
 />
    <glyph glyph-name="space" unicode=" " horiz-adv-x="135" 
 />
    <glyph glyph-name="exclam" unicode="!" horiz-adv-x="258" 
d="M112.5 306q-8.5 45 -24.5 109q-14 54 -21 90.5t-7 68.5q0 73 36.5 104.5t78.5 31.5q36 0 65.5 -23t29.5 -75q0 -39 -15.5 -82.5t-50.5 -119.5q-28 -63 -46 -106.5t-31 -90.5h-3q-3 48 -11.5 93zM40 17.5q-24 27.5 -24 68.5q0 31 15 58.5t40 44.5t53 17q37 0 61 -27
t24 -68q0 -31 -15 -59t-40 -45t-53 -17q-37 0 -61 27.5z" />
    <glyph glyph-name="quotedbl" unicode="&#x22;" horiz-adv-x="439" 
d="M283 700h188l-129 -336zM62 700h188l-129 -336z" />
    <glyph glyph-name="numbersign" unicode="#" horiz-adv-x="576" 
d="M446 476l-85 -251h144l-2 -24h-150l-102 -300h-23l102 300h-168l-102 -300h-23l102 300h-129l2 24h135l85 251h-140l2 24h146l102 300h23l-102 -300h168l102 300h23l-102 -300h133l-2 -24h-139zM423 476h-168l-85 -251h168z" />
    <glyph glyph-name="dollar" unicode="$" horiz-adv-x="349" 
d="M308 453q24 -40 33.5 -63t9.5 -54q0 -49 -28 -82t-71.5 -48.5t-90.5 -15.5q-12 0 -18 1l-19 -71h-25l20 73q-55 8 -89 28l53 206q2 -70 15 -120.5t32 -75.5l28 101l-14 27l-53 91q-34 63 -34 112q0 44 27.5 78t74 52t102.5 18h1l19 70h25l-20 -71q45 -4 75 -24l-55 -176
q-2 40 -11.5 80t-23.5 66l-26 -95l0.5 -0.5l0.5 -0.5zM229 592l24 88q-7 5 -13 5q-7 0 -15 -7t-8 -29q0 -24 12 -57zM182 245q0 23 -10 50l-22 -81q8 -2 11 -2q21 0 21 33z" />
    <glyph glyph-name="percent" unicode="%" horiz-adv-x="468" 
d="M74.5 490.5q-23.5 30.5 -23.5 76.5q0 37 14.5 70t40.5 53t58 20q41 0 65 -30.5t24 -76.5q0 -37 -14.5 -70t-41 -53t-58.5 -20q-41 0 -64.5 30.5zM406 700h20l-327 -550h-20zM208.5 515q25.5 37 25.5 87q0 40 -18 65t-53 25q-42 0 -67.5 -37t-25.5 -87q0 -40 18 -65
t53 -25q42 0 67.5 37zM276 170.5q-23 30.5 -23 76.5q0 58 32.5 100.5t81.5 42.5q40 0 64 -30.5t24 -76.5q0 -37 -15 -70t-41.5 -53t-58.5 -20q-41 0 -64 30.5zM410 195q26 37 26 87q0 39 -18.5 64.5t-52.5 25.5q-42 0 -67.5 -37t-25.5 -88q0 -39 18 -64t52 -25q42 0 68 37z
" />
    <glyph glyph-name="ampersand" unicode="&#x26;" horiz-adv-x="582" 
d="M492.5 366q-43.5 -45 -85.5 -116l23 -59q29 -79 50.5 -109.5t56.5 -30.5q10 0 20 6q-2 -15 -18.5 -30.5t-44 -26t-57.5 -10.5q-80 0 -137 77q-26 -34 -66 -55.5t-83 -21.5q-64 0 -104.5 43.5t-40.5 110.5q0 47 23 84.5t55 64t93 69.5l-26 69q-14 38 -21 65t-7 54
q0 49 24 84.5t64.5 54t87.5 18.5q50 0 83.5 -22t33.5 -75q0 -44 -24 -75.5t-70 -64.5l3 -7l76 -196q7 31 7 61q0 36 -11 62.5t-33 38.5v3h232v-3q-60 -18 -103.5 -63zM289 667q-10 -20 -10 -45q0 -26 9.5 -57t27.5 -77q40 60 40 131q0 68 -35 68q-22 0 -32 -20zM241 409
l13 11zM184.5 193.5q13.5 -39.5 38.5 -66.5t58 -28q-14 26 -23 51l-72 189q-15 -33 -15 -69q0 -37 13.5 -76.5z" />
    <glyph glyph-name="quotesingle" unicode="'" horiz-adv-x="218" 
d="M62 700h188l-129 -336z" />
    <glyph glyph-name="parenleft" unicode="(" horiz-adv-x="323" 
d="M84.5 -54.5q-60.5 65.5 -60.5 203.5q0 38 5 93l23 216q13 125 49.5 204t105.5 118.5t176 39.5l-1 -6q-47 -9 -74 -58.5t-43 -141.5t-34 -264q-21 -197 -21 -288q0 -84 17 -125.5t58 -50.5l-1 -6q-139 0 -199.5 65.5z" />
    <glyph glyph-name="parenright" unicode=")" horiz-adv-x="323" 
d="M310.5 754.5q60.5 -65.5 60.5 -203.5q0 -38 -5 -93l-23 -216q-13 -125 -49.5 -204t-105.5 -118.5t-176 -39.5l1 6q47 9 74 58.5t43 141.5t34 264q21 197 21 288q0 84 -17 125.5t-58 50.5l1 6q139 0 199.5 -65.5z" />
    <glyph glyph-name="asterisk" unicode="*" horiz-adv-x="504" 
d="M271 535q-16 33 -25 59.5t-6 53.5q4 34 22 48t38 14q19 0 33.5 -11.5t14.5 -38.5q0 -29 -14.5 -58t-38.5 -64l-15 -22q-4 11 -9 19zM99 495q-24 15 -21 42q3 22 20.5 37t42.5 15q34 0 63.5 -26t61.5 -66l-24 -5q-58 -12 -83 -12q-36 0 -60 15zM355 484q-22 4 -40 8l-25 5
q44 43 77 67.5t67 24.5q27 0 40.5 -15.5t10.5 -36.5q-3 -29 -28.5 -43t-61.5 -14q-18 0 -40 4zM128 332.5q-14 15.5 -12 35.5q3 28 28.5 49.5t54 34t70.5 28.5l-6 -25q-8 -37 -17.5 -64t-29.5 -47q-28 -27 -53 -27q-21 0 -35 15.5zM308 344q-15 23 -19 51.5t-4 52.5v32
q58 -24 94.5 -48.5t32.5 -63.5q-2 -20 -19.5 -35.5t-39.5 -15.5q-27 0 -45 27z" />
    <glyph glyph-name="plus" unicode="+" horiz-adv-x="280" 
d="M260 293h-104l-11 -104h-21l11 104h-105l2 21h105l11 105h21l-11 -105h104z" />
    <glyph glyph-name="comma" unicode="," horiz-adv-x="233" 
d="M171.5 177.5q23.5 -28.5 23.5 -75.5q0 -67 -48.5 -129t-109.5 -94l-3 3q20 22 29.5 49t15.5 60q-33 4 -54.5 31t-21.5 65q0 31 15 58.5t39.5 44t52.5 16.5q38 0 61.5 -28.5z" />
    <glyph glyph-name="hyphen" unicode="-" horiz-adv-x="280" 
d="M32 314h230l-2 -21h-230z" />
    <glyph glyph-name="period" unicode="." horiz-adv-x="232" 
d="M27 17q-24 27 -24 69q0 31 15 58.5t40 44.5t53 17q37 0 61 -27t24 -68q0 -31 -15 -59t-40 -45t-53 -17q-37 0 -61 27z" />
    <glyph glyph-name="slash" unicode="/" horiz-adv-x="210" 
d="M228 800h20l-245 -899h-20z" />
    <glyph glyph-name="zero" unicode="0" horiz-adv-x="537" 
d="M94 73q-51 83 -51 215q0 108 33 205t95 157t145 60q96 0 147.5 -83t51.5 -214q0 -104 -33 -201.5t-95.5 -159.5t-145.5 -62q-96 0 -147 83zM306.5 173q10.5 157 10.5 319q0 84 -3.5 126t-8.5 54t-13 12q-32 0 -42 -150.5t-10 -320.5q0 -85 3 -128t8 -56t13 -13
q32 0 42.5 157z" />
    <glyph glyph-name="one" unicode="1" horiz-adv-x="325" 
d="M36 37.5q18 27.5 25 92.5l31 290q5 47 5 65q0 28 -11.5 39.5t-49.5 24.5l1 5l264 176l-63 -600q-2 -16 -2 -42q0 -42 13 -60.5t45 -27.5h-315q39 10 57 37.5z" />
    <glyph glyph-name="two" unicode="2" horiz-adv-x="421" 
d="M265 156.5q47 3.5 83.5 17t62.5 42.5l-91 -216h-349q119 164 187 292t68 231q0 95 -56 95q-54 0 -107 -102h-3q18 80 70.5 137t141.5 57q80 0 118 -45t38 -105q0 -62 -40 -127t-97 -122.5t-149 -139.5l-20 -18h15q81 0 128 3.5z" />
    <glyph glyph-name="three" unicode="3" horiz-adv-x="412" 
d="M293 474q50 0 83.5 -41.5t33.5 -118.5q0 -84 -41.5 -158.5t-111.5 -120t-151 -45.5q-40 0 -75.5 11.5t-57.5 29.5q18 -2 28 -2q58 0 109 32t81.5 84t30.5 108q0 44 -18 62t-43 18q-16 0 -28 -6l92 127l3 2l68 92h-35q-67 0 -106 -4.5t-69.5 -20.5t-55.5 -50l98 227h314
l-172 -228q8 2 23 2z" />
    <glyph glyph-name="four" unicode="4" horiz-adv-x="422" 
d="M321 130q-2 -16 -2 -41q0 -41 13.5 -60.5t44.5 -28.5h-315q40 10 58 37.5t25 92.5l1 9h-162l400 590l-57 -538h87l-25 -52h-67zM151 191l20 182l-120 -182h100z" />
    <glyph glyph-name="five" unicode="5" horiz-adv-x="403" 
d="M322.5 443q31.5 -21 49.5 -59.5t18 -90.5q0 -76 -38 -146.5t-102 -113.5t-139 -43q-39 0 -73 10.5t-51 22.5q16 -4 36 -4q50 0 90.5 31.5t63.5 83t23 107.5q0 48 -18.5 73t-60.5 25q-40 0 -78 -21l60 382h96q194 0 231 21l-68 -173h-253l-29 -167q97 83 173 83
q38 0 69.5 -21z" />
    <glyph glyph-name="six" unicode="6" horiz-adv-x="489" 
d="M121 19.5q-43 29.5 -67.5 86.5t-24.5 137q0 109 42.5 218t117 179t164.5 70q34 0 56 -10q-81 0 -127.5 -107t-65.5 -290q-10 -97 -10 -175q0 -116 24 -116q22 0 37 88.5t15 163.5q0 115 -46 115q-7 0 -10 -1q19 37 51 55.5t69 18.5q64 0 91 -49.5t27 -124.5
q0 -79 -29 -145t-84.5 -104.5t-130.5 -38.5q-56 0 -99 29.5z" />
    <glyph glyph-name="seven" unicode="7" horiz-adv-x="433" 
d="M503 700q-53 -44 -113.5 -160t-104.5 -262.5t-49 -277.5h-200q5 127 67 242t138 194.5t126 111.5h-98q-80 0 -121 -4.5t-69.5 -20t-54.5 -50.5l98 227h381z" />
    <glyph glyph-name="eight" unicode="8" horiz-adv-x="446" 
d="M392 480.5q-33 -40.5 -70 -55.5q54 -78 77.5 -125.5t23.5 -100.5q0 -62 -32 -109.5t-86.5 -73.5t-118.5 -26q-83 0 -131 42t-48 114q0 50 21.5 89t53.5 62t61 27q-36 57 -53.5 100.5t-17.5 88.5q0 59 27.5 104t74.5 69t102 24q69 0 109 -36.5t40 -96.5q0 -56 -33 -96.5z
M248 665q-11 -21 -11 -54q0 -35 16.5 -72.5t51.5 -88.5q15 65 15 127q0 48 -10 78.5t-33 30.5q-18 0 -29 -21zM229.5 43q17.5 27 17.5 69q0 39 -17 74t-61 99l-15 22q-11 -31 -18 -76.5t-7 -81.5q0 -53 16.5 -93t44.5 -40q22 0 39.5 27z" />
    <glyph glyph-name="nine" unicode="9" horiz-adv-x="489" 
d="M103 0q81 0 127.5 107t65.5 290q10 80 10 175q0 116 -24 116q-22 0 -37 -88.5t-15 -163.5q0 -115 46 -115q7 0 10 1q-19 -36 -51.5 -55t-68.5 -19q-64 0 -91 49.5t-27 124.5q0 80 29 145.5t84 104t131 38.5q56 0 99 -29.5t67.5 -86.5t24.5 -137q0 -109 -42.5 -218
t-117 -179t-165.5 -70q-32 0 -55 10z" />
    <glyph glyph-name="colon" unicode=":" horiz-adv-x="232" 
d="M58 310q-24 27 -24 69q0 31 15 58.5t40 44.5t53 17q37 0 61 -27t24 -68q0 -31 -15 -59t-40 -45t-53 -17q-37 0 -61 27zM27 17q-24 27 -24 69q0 31 15 58.5t40 44.5t53 17q37 0 61 -27t24 -68q0 -31 -15 -59t-40 -45t-53 -17q-37 0 -61 27z" />
    <glyph glyph-name="semicolon" unicode=";" horiz-adv-x="232" 
d="M170.5 177.5q23.5 -28.5 23.5 -75.5q0 -67 -48.5 -129t-109.5 -94l-3 3q20 22 29.5 49t15.5 60q-33 4 -54.5 31t-21.5 65q0 31 15 58.5t39.5 44t52.5 16.5q38 0 61.5 -28.5zM59 310q-24 27 -24 69q0 31 15 58.5t40 44.5t53 17q37 0 61 -27t24 -68q0 -31 -15 -59t-40 -45
t-53 -17q-37 0 -61 27z" />
    <glyph glyph-name="less" unicode="&#x3c;" horiz-adv-x="153" 
d="M24 229l82 74l-67 76l16 14l79 -90l-98 -89z" />
    <glyph glyph-name="equal" unicode="=" horiz-adv-x="280" 
d="M38 374h230l-2 -21h-230zM25 254h230l-2 -21h-230z" />
    <glyph glyph-name="greater" unicode="&#x3e;" horiz-adv-x="153" 
d="M31 303l97 90l14 -14l-83 -76l66 -74l-16 -15z" />
    <glyph glyph-name="question" unicode="?" horiz-adv-x="423" 
d="M184 300q0 26 8.5 55t25.5 75q19 52 29.5 87t14.5 73q2 24 2 31q0 30 -7 45t-16 15q-24 0 -61.5 -78.5t-90.5 -211.5h-3l-15 251q37 30 85 49t104 19q79 0 124.5 -38t45.5 -99q0 -40 -18 -73t-43 -56.5t-67 -55.5q-49 -38 -72.5 -63.5t-25.5 -58.5l1 -29h-2
q-19 26 -19 63zM113.5 17.5q-24.5 27.5 -24.5 68.5q0 31 15 58.5t40 44.5t53 17q37 0 61.5 -27t24.5 -68q0 -31 -15 -59t-40 -45t-53 -17q-37 0 -61.5 27.5z" />
    <glyph glyph-name="at" unicode="@" horiz-adv-x="694" 
d="M168 -93q-64 34 -104 107t-40 183q0 123 49.5 224t140 160t208.5 59q110 0 183 -60t73 -204q0 -79 -22.5 -155t-67.5 -125t-108 -49q-46 0 -72 27t-26 82q0 18 1 27l23 222q1 5 1 13q0 27 -18 27q-25 0 -44.5 -38t-30.5 -92t-11 -99q0 -41 10.5 -68t33.5 -27q11 0 20 6
t10 19q-5 -47 -28.5 -73t-60.5 -26q-46 0 -73.5 38.5t-27.5 109.5q0 72 27.5 134.5t78 100t115.5 37.5q23 0 59 -3.5t51 -8.5l-29 -263q-3 -31 -3 -53q0 -62 22 -62q32 0 46 87.5t14 177.5q0 130 -41.5 198.5t-141.5 68.5q-86 0 -141.5 -53t-80 -137t-24.5 -181
q0 -315 255 -315q59 0 94 13l3 -3q-29 -22 -78.5 -41t-107.5 -19q-73 0 -137 34z" />
    <glyph glyph-name="A" unicode="A" horiz-adv-x="500" 
d="M218 56q0 27 -12 94h-104q-23 -72 -23 -107q0 -26 12 -43h-121q28 22 53.5 64.5t58.5 119.5l216 532l115 -532q18 -82 31.5 -122.5t33.5 -61.5h-278q18 18 18 56zM201 179l-1 5l-28 160l-58 -160l-2 -5h89z" />
    <glyph glyph-name="B" unicode="B" horiz-adv-x="564" 
d="M505.5 335q40.5 -45 40.5 -124q0 -102 -71 -156.5t-184 -54.5h-296q21 14 31 27.5t18.5 49t16.5 107.5l34 332q8 72 8 102q0 38 -7.5 53t-26.5 29h286q76 0 130.5 -36.5t54.5 -117.5q0 -65 -39 -111t-100 -50q64 -5 104.5 -50zM346.5 442q16.5 46 16.5 125q0 110 -28 110
q-10 0 -16.5 -13t-12 -46.5t-12.5 -101.5l-13 -123q49 3 65.5 49zM335 80.5q15 57.5 15 134.5q0 78 -15 117t-56 43l-20 -191q-6 -60 -6 -94q0 -39 7 -53t21 -14q39 0 54 57.5z" />
    <glyph glyph-name="C" unicode="C" horiz-adv-x="494" 
d="M145.5 28.5q-51.5 38.5 -81.5 109t-30 162.5q0 108 41 202.5t118 151t178 56.5q55 0 109 -17q0 -84 -5 -222l-1 -38h-3q-20 40 -49 101q-40 85 -61.5 116.5t-48.5 31.5q-38 0 -55 -88.5t-17 -188.5q0 -122 38.5 -208t116.5 -86q40 0 60 19q-10 -30 -37 -62.5t-68 -55
t-90 -22.5q-63 0 -114.5 38.5z" />
    <glyph glyph-name="D" unicode="D" horiz-adv-x="587" 
d="M26 27.5q10 13.5 18.5 49t16.5 107.5l34 332q8 72 8 102q0 38 -7.5 53t-26.5 29h261q63 0 118.5 -32.5t90 -98.5t34.5 -163q0 -105 -40 -198.5t-113 -150.5t-168 -57h-257q21 14 31 27.5zM330.5 101q17.5 74 26 176.5t8.5 188.5q0 97 -9.5 152t-28.5 55q-10 0 -16 -25.5
t-14 -101.5l-40 -384q-4 -32 -4 -60q0 -75 33 -75q27 0 44.5 74z" />
    <glyph glyph-name="E" unicode="E" horiz-adv-x="508" 
d="M494 278l-52 -278h-447q21 14 31 27.5t18.5 49t16.5 107.5l34 332q8 72 8 102q0 38 -7.5 53t-26.5 29h420l-11 -262h-3q-72 236 -130 236q-24 0 -33 -31t-16 -106l-2 -20l-17 -164l2 20v-5q0 -16 10 -16q17 0 41 13.5t48.5 43.5t40.5 76h3l-30 -291h-3q-6 47 -24.5 76.5
t-39.5 43t-38 13.5q-4 0 -8.5 -5.5t-6.5 -13.5l-13 -123l-3 -23q-7 -59 -7 -85q0 -25 7 -38t23 -13q15 0 44 19t73 75t94 158h4z" />
    <glyph glyph-name="F" unicode="F" horiz-adv-x="481" 
d="M495 700l-11 -262h-3q-72 236 -135 236q-19 0 -28.5 -18.5t-13 -45t-10.5 -93.5l-16 -154q0 -20 9 -20q18 0 44 15t51.5 47t40.5 79h3l-32 -307h-3q-6 47 -24.5 79t-40.5 47t-40 15q-11 0 -15 -19l-12 -115q-7 -62 -7 -100q0 -39 7.5 -54.5t26.5 -29.5h-291
q21 14 31 27.5t18.5 49t16.5 107.5l34 332q8 72 8 102q0 38 -7.5 53t-26.5 29h426z" />
    <glyph glyph-name="G" unicode="G" horiz-adv-x="554" 
d="M135.5 26.5q-46.5 36.5 -74 103t-27.5 153.5q0 111 45 209.5t126 158t184 59.5q61 0 115 -17l-7 -257h-3q-44 117 -85.5 181t-72.5 64q-30 0 -52 -61.5t-33.5 -156.5t-11.5 -193q0 -110 8 -181t24 -71q10 0 18.5 10t11.5 34l9 64q10 68 10 114q0 77 -29 111h262
q-30 -29 -47 -76t-31 -149l-17 -128h-2q-13 15 -26.5 21t-34.5 6q-22 0 -39 -4.5t-40 -13.5q-24 -9 -40 -13t-37 -4q-57 0 -103.5 36.5z" />
    <glyph glyph-name="H" unicode="H" horiz-adv-x="631" 
d="M656 700q-20 -14 -30.5 -27.5t-18.5 -49t-16 -107.5l-35 -332q-7 -62 -7 -100q0 -39 7.5 -54.5t26.5 -29.5h-290q20 14 30.5 27.5t18.5 49t16 107.5l15 147l-2 -18q2 18 -4 22t-23 4h-37q-17 0 -24 -4t-10 -22l-14 -129q-7 -62 -7 -100q0 -39 7.5 -54.5t26.5 -29.5h-291
q21 14 31 27.5t18.5 49t16.5 107.5l34 332q8 72 8 102q0 38 -7.5 53t-26.5 29h290q-20 -14 -30.5 -27.5t-18.5 -49t-16 -107.5l-14 -130q1 -13 7.5 -16t21.5 -3h37q17 0 23.5 3.5t10.5 20.5l13 125q7 62 7 100q0 39 -7.5 54.5t-26.5 29.5h290zM281 397q0 -4 -1 -6zM371 309
v4v-4z" />
    <glyph glyph-name="I" unicode="I" horiz-adv-x="334" 
d="M26 27.5q10 13.5 18.5 49t16.5 107.5l34 332q8 72 8 102q0 38 -7.5 53t-26.5 29h290q-20 -14 -30.5 -27.5t-18.5 -49t-16 -107.5l-35 -332q-7 -62 -7 -100q0 -39 7.5 -54.5t26.5 -29.5h-291q21 14 31 27.5z" />
    <glyph glyph-name="J" unicode="J" horiz-adv-x="321" 
d="M-28 -33l1 3q29 6 45 23t25 52t15 99l40 372q7 62 7 100q0 39 -7.5 54.5t-26.5 29.5h291q-20 -14 -30.5 -27.5t-18.5 -49t-16 -107.5l-37 -356q-7 -67 -41.5 -114.5t-82 -71t-93.5 -23.5q-37 0 -71 16z" />
    <glyph glyph-name="K" unicode="K" horiz-adv-x="623" 
d="M252 84q0 -39 7.5 -54.5t26.5 -29.5h-291q21 14 31 27.5t18.5 49t16.5 107.5l34 332q8 72 8 102q0 38 -7.5 53t-26.5 29h290q-20 -14 -30.5 -27.5t-18.5 -49t-16 -107.5l-35 -332q-7 -62 -7 -100zM504 240q35 -117 56 -164t46 -76h-240q-2 19 -17.5 78t-20.5 76l-12 46
l-39 142q154 191 154 287q0 50 -41 71h232q-41 -19 -93 -67t-106 -120z" />
    <glyph glyph-name="L" unicode="L" horiz-adv-x="486" 
d="M26 27.5q10 13.5 18.5 49t16.5 107.5l34 332q8 72 8 102q0 38 -7.5 53t-26.5 29h290q-20 -14 -30.5 -27.5t-18.5 -49t-16 -107.5l-35 -331q-2 -26 -4 -39q-5 -48 -5 -74q0 -22 4.5 -33t16.5 -11t32.5 22t61 81.5t114.5 175.5h3l-75 -305l-412 -2q21 14 31 27.5z" />
    <glyph glyph-name="M" unicode="M" horiz-adv-x="746" 
d="M740.5 672.5q-10.5 -13.5 -18.5 -49t-16 -107.5l-35 -332q-7 -62 -7 -100q0 -39 7.5 -54.5t26.5 -29.5h-290q20 14 30 27.5t18.5 49t16.5 107.5l38 366l-237 -560l-144 568l-40 -374q-6 -55 -6 -87q0 -33 6 -51t17 -27t33 -19h-160q29 13 42.5 27t23 48.5t17.5 108.5
l35 332q5 43 5 83q0 34 -6 53t-17 28t-32 20h270l81 -344l139 344h233q-20 -14 -30.5 -27.5z" />
    <glyph glyph-name="N" unicode="N" horiz-adv-x="509" 
d="M554 700q-28 -13 -41.5 -27t-23 -49t-17.5 -108l-27 -252q-8 -77 -12.5 -137.5t-8.5 -146.5h-5l-289 576l-40 -372q-6 -55 -6 -87q0 -33 6 -51t17 -27t33 -19h-160q29 13 42.5 27t23 48.5t17.5 108.5l35 332q5 43 5 83q0 34 -6 53t-17 28t-32 20h264q1 -17 8 -35.5
t16.5 -38.5t13.5 -28l84 -185l10 103q5 48 5 89q0 33 -5 50t-14.5 26t-29.5 19h154z" />
    <glyph glyph-name="O" unicode="O" horiz-adv-x="572" 
d="M88 70q-54 80 -54 208q0 112 38 211t109 160t164 61q108 0 162.5 -80.5t54.5 -207.5q0 -111 -38.5 -210.5t-109.5 -160.5t-163 -61q-109 0 -163 80zM339.5 131q17.5 113 17.5 272q0 131 -12.5 205.5t-38.5 74.5q-35 0 -52 -113.5t-17 -273.5q0 -278 51 -278
q34 0 51.5 113z" />
    <glyph glyph-name="P" unicode="P" horiz-adv-x="549" 
d="M26 27.5q10 13.5 18.5 49t16.5 107.5l34 332q8 72 8 102q0 38 -7.5 53t-26.5 29h286q83 0 143 -43.5t60 -147.5q0 -106 -68.5 -166t-192.5 -60l1 8q37 7 50.5 95.5t13.5 180.5q0 107 -23 107q-28 0 -45 -158l-35 -332q-7 -62 -7 -100q0 -39 7.5 -54.5t26.5 -29.5h-291
q21 14 31 27.5z" />
    <glyph glyph-name="Q" unicode="Q" horiz-adv-x="572" 
d="M481 -9q0 -1 4.5 -10.5t2.5 -28.5q-7 -55 -51 -92.5t-106 -37.5q-50 0 -84 21.5t-73 61.5q-29 29 -47 42t-40 13q-17 0 -39 -11q85 46 141 49q-78 22 -116.5 97t-38.5 183q0 112 38 211t109 160t164 61q108 0 162.5 -80.5t54.5 -207.5q0 -111 -38.5 -210.5t-109.5 -160.5
t-163 -61h-4q18 -6 36 -15q31 -14 54 -21t56 -7q41 0 62.5 12t23.5 32h2zM254 569.5q-17 -113.5 -17 -273.5q0 -278 51 -278q34 0 51.5 113t17.5 272q0 131 -12.5 205.5t-38.5 74.5q-35 0 -52 -113.5z" />
    <glyph glyph-name="R" unicode="R" horiz-adv-x="597" 
d="M593 1q-31 -6 -84 -6q-76 0 -117 40t-56 92.5t-25 125.5q-6 43 -10.5 61t-15.5 18l-1 3q37 0 55.5 22t24.5 62.5t6 107.5q0 68 -9 107.5t-23 39.5q-27 0 -44 -158l-35 -332q-7 -62 -7 -100q0 -39 7.5 -54.5t26.5 -29.5h-291q21 14 31 27.5t18.5 49t16.5 107.5l34 332
q8 72 8 102q0 38 -7.5 53t-26.5 29h291q85 0 138 -43.5t53 -125.5q0 -53 -23.5 -95t-65.5 -69q87 -365 131 -366z" />
    <glyph glyph-name="S" unicode="S" horiz-adv-x="444" 
d="M92.5 -3.5q-41.5 6.5 -68.5 23.5l15 251h2q31 -101 74.5 -178.5t85.5 -77.5q29 0 29 38q0 34 -15 71.5t-46 97.5l-21 40l-33 75q-32 68 -45.5 106t-13.5 76q0 58 32 101.5t86 66.5t116 23q72 0 138 -33l-9 -248h-2q-18 35 -48 103q-34 79 -55.5 115t-46.5 36
q-14 0 -22 -12.5t-8 -31.5q0 -28 12.5 -57.5t42.5 -84.5l48 -94q82 -155 82 -242q0 -86 -72 -128.5t-176 -42.5q-40 0 -81.5 6.5z" />
    <glyph glyph-name="T" unicode="T" horiz-adv-x="487" 
d="M97 27q12 14 21 48.5t17 108.5l46 409q5 50 5 63q0 20 -8 20q-5 0 -21.5 -28t-41.5 -74q-61 -111 -82 -147h-3l39 276q58 -3 156 -3h131q98 0 158 3l-20 -276h-3q-41 116 -50 145q-16 47 -26.5 75.5t-15.5 28.5q-7 0 -10 -15t-9 -68l-46 -409q-8 -67 -8 -97
q0 -29 5 -44.5t13.5 -24t26.5 -18.5h-311q25 13 37 27z" />
    <glyph glyph-name="U" unicode="U" horiz-adv-x="533" 
d="M114 42q-52 52 -52 133q0 18 1 27l32 314q8 72 8 102q0 38 -7.5 53t-26.5 29h285q-18 -14 -27 -28t-17 -49t-16 -107l-33 -314q-3 -27 -3 -50q0 -57 18.5 -88t56.5 -31q47 0 77.5 45.5t38.5 123.5l33 314q7 72 7 96q0 29 -4 45t-11 24t-21 19h125q-21 -14 -31.5 -28
t-19 -49t-16.5 -107l-33 -314q-10 -95 -61 -153.5t-153 -58.5q-98 0 -150 52z" />
    <glyph glyph-name="V" unicode="V" horiz-adv-x="500" 
d="M551 700q-28 -22 -53.5 -64.5t-58.5 -119.5l-216 -532l-114 532q-17 80 -31.5 121t-34.5 63h279q-18 -19 -18 -57q0 -32 17 -127l28 -160l58 160q35 97 35 140q0 28 -12 44h121z" />
    <glyph glyph-name="W" unicode="W" horiz-adv-x="800" 
d="M851 700q-28 -22 -53.5 -64.5t-57.5 -119.5l-219 -532l-103 466l-192 -466l-117 532q-20 85 -33 124t-33 60h279q-19 -20 -19 -59q0 -35 18 -125l32 -163l19 59q21 61 21 111q0 31 -5 57q-12 47 -23.5 75t-26.5 45h278q-18 -19 -18 -58q0 -36 18 -126l32 -164l59 164
q35 97 35 140q0 28 -12 44h121z" />
    <glyph glyph-name="X" unicode="X" horiz-adv-x="530" 
d="M453.5 74.5q13.5 -35.5 22.5 -46.5t31 -28h-303q13 11 17.5 18.5t4.5 25.5q0 33 -24 140l-19 90l-44 -90q-37 -76 -51 -109.5t-14 -48.5q0 -13 13 -26h-116q5 3 28.5 17.5t52 56t62.5 110.5l61 127l-43 205q-18 83 -38.5 121t-46.5 63h303q-11 -7 -16 -17.5t-5 -26.5
q0 -26 19 -110l6 -30l9 -43l21 43q31 64 44 98.5t13 54.5q0 19 -13 31h117q-33 -21 -63.5 -59.5t-71.5 -124.5l-39 -82l53 -250q16 -74 29.5 -109.5z" />
    <glyph glyph-name="Y" unicode="Y" horiz-adv-x="522" 
d="M573 700q-34 -27 -69.5 -72.5t-65.5 -111.5l-60 -131l-20 -201q-7 -62 -7 -100q0 -39 7.5 -54.5t26.5 -29.5h-291q20 14 30.5 27.5t18.5 49t16 107.5l14 132l-45 200q-14 65 -37 111t-48 73h295q-15 -15 -15 -46q0 -17 4.5 -43t5.5 -34q7 -31 11 -61l16 -105l43 105
l17 41q20 48 29 73t9 43t-8 27h123z" />
    <glyph glyph-name="Z" unicode="Z" horiz-adv-x="479" 
d="M306.5 56q43.5 25 79.5 74t79 138l-64 -268h-421l314 678q-59 -10 -100 -35.5t-75.5 -73.5t-75.5 -132l62 263h410l-318 -679q66 10 109.5 35z" />
    <glyph glyph-name="bracketleft" unicode="[" horiz-adv-x="330" 
d="M90 820h300l-1 -6l-111 -14l-95 -900l109 -14l-1 -6h-300z" />
    <glyph glyph-name="backslash" unicode="\" horiz-adv-x="230" 
d="M58 800h20l115 -899h-20z" />
    <glyph glyph-name="bracketright" unicode="]" horiz-adv-x="381" 
d="M312 -120h-300l1 6l111 14l95 900l-109 14l1 6h300z" />
    <glyph glyph-name="asciicircum" unicode="^" horiz-adv-x="334" 
d="M22 367l193 343l121 -343l-1 -1l-137 177l-175 -177z" />
    <glyph glyph-name="underscore" unicode="_" horiz-adv-x="450" 
d="M-2 -10h400l-3 -21h-400z" />
    <glyph glyph-name="a" unicode="a" 
d="M420 104q0 -31 5.5 -45.5t14.5 -24.5l-212 -41l21 211q-15 -84 -50 -149t-95 -65q-45 0 -70.5 41t-25.5 118q0 88 34.5 171.5t100 136.5t151.5 53q32 0 83.5 -5.5t81.5 -13.5l-37 -347q-2 -16 -2 -40zM238.5 207q15.5 58 25.5 132t10 110q0 21 -5 30t-10 9q-18 0 -33 -46
t-23.5 -112.5t-8.5 -121.5q0 -34 3.5 -46.5t9.5 -12.5q16 0 31.5 58z" />
    <glyph glyph-name="b" unicode="b" 
d="M88.5 -2.5q-63.5 7.5 -96.5 22.5q22 13 31.5 55t20.5 151l8 73l31 301q1 9 1 25q0 46 -21 75l214 35l-48 -455q13 88 48.5 159t99.5 71q44 0 69.5 -41t25.5 -118q0 -87 -34.5 -171t-98 -137t-147.5 -53q-40 0 -103.5 7.5zM253.5 58.5q14.5 46.5 23.5 113t9 122.5
q0 57 -13 57q-15 0 -30.5 -58t-26 -132.5t-10.5 -109.5q0 -22 5 -30.5t11 -8.5q17 0 31.5 46.5z" />
    <glyph glyph-name="c" unicode="c" horiz-adv-x="380" 
d="M59 47.5q-45 57.5 -45 146.5q0 83 36 156t99.5 116.5t141.5 43.5q47 0 78 -16l-32 -228h-1l-21 84q-19 77 -30.5 107t-27.5 30q-14 0 -30.5 -24t-28 -66.5t-11.5 -93.5q0 -81 26.5 -144t86.5 -63q33 0 48 16q-20 -53 -61 -87.5t-105 -34.5q-78 0 -123 57.5z" />
    <glyph glyph-name="d" unicode="d" 
d="M420 104q0 -31 5.5 -45.5t14.5 -24.5l-212 -41l21 211q-15 -84 -50 -149t-95 -65q-45 0 -70.5 41t-25.5 118q0 86 33 167.5t95.5 135.5t145.5 58l6 60q3 27 3 48q0 55 -19 82l214 35l-64 -591q-2 -16 -2 -40zM237.5 203q14.5 54 26.5 132l9 94q1 8 1 20q0 21 -5 30t-10 9
q-18 0 -33 -46t-23.5 -112.5t-8.5 -121.5q0 -34 3.5 -46.5t9.5 -12.5q16 0 30.5 54z" />
    <glyph glyph-name="e" unicode="e" horiz-adv-x="403" 
d="M108.5 20q-44.5 30 -68.5 83t-24 121q0 79 31 144.5t86.5 103.5t125.5 38q62 0 94 -28t32 -79q0 -47 -36 -81t-125 -72q-16 -7 -22 -17.5t-6 -30.5q0 -50 34.5 -78t84.5 -28q20 0 35.5 4.5t20.5 11.5q-14 -50 -55 -86t-103 -36q-60 0 -104.5 30zM246 324q12 51 12 108
q0 52 -21 52q-23 0 -35 -52.5t-12 -106.5q0 -52 21 -52q23 0 35 51z" />
    <glyph glyph-name="f" unicode="f" horiz-adv-x="311" 
d="M-4 -138q26 40 39 137l46 437h-65q28 28 53.5 62t62.5 87q56 82 92.5 121.5t74.5 39.5q20 0 33 -20t13 -53q0 -47 -28 -82.5t-68 -35.5q-15 0 -23.5 4.5t-18.5 13.5q-9 8 -15.5 11.5t-15.5 3.5q-16 0 -24.5 -10.5t-8.5 -27.5q0 -25 29 -37.5t107 -12.5q25 0 54 2v-1
q-3 -2 -22.5 -13.5t-37 -53.5t-24.5 -112l-25 -258q-12 -105 -83.5 -177t-210.5 -72q40 7 66 47z" />
    <glyph glyph-name="g" unicode="g" horiz-adv-x="475" 
d="M51 -180.5q-38 5.5 -53 14.5l110 132q-4 -11 -4 -29q0 -36 15.5 -69.5t38.5 -33.5q28 0 46.5 58.5t27.5 148.5l17 172q-14 -87 -49 -155t-96 -68q-45 0 -70.5 41t-25.5 118q0 88 34.5 171.5t100 136.5t151.5 53q32 0 83.5 -5.5t81.5 -13.5l-40 -385q-10 -94 -54 -160
t-108 -99t-134 -33q-34 0 -72 5.5zM238.5 207q15.5 58 25.5 132t10 110q0 21 -5 30t-10 9q-18 0 -33 -46t-23.5 -112.5t-8.5 -122.5q0 -58 13 -58q16 0 31.5 58z" />
    <glyph glyph-name="h" unicode="h" horiz-adv-x="522" 
d="M456 100q-2 -13 -2 -33q0 -24 5 -37.5t10 -20.5t6 -9h-238q1 2 10.5 12.5t17.5 33.5t11 54l22 205q5 45 5 75q0 25 -5 25q-6 0 -24.5 -42.5t-37 -111t-27.5 -149.5v-2q-1 -10 -1 -28q0 -30 5.5 -44t15.5 -28h-239q15 16 25 35.5t15 64.5l50 470q3 27 3 48q0 57 -20 82
l214 34l-47 -435q27 110 80.5 160.5t118.5 50.5q31 0 47 -13t16 -50q0 -14 -1 -22z" />
    <glyph glyph-name="i" unicode="i" horiz-adv-x="271" 
d="M103.5 586q-12.5 27 -12.5 56q0 47 32 75t75 28q38 0 57.5 -22t19.5 -57q0 -48 -31 -71t-82 -40q-22 -7 -31 -12q-15 16 -27.5 43zM15 35.5q10 19.5 15 64.5l28 258q2 15 2 40q0 50 -19 80l212 32l-44 -410q-1 -10 -1 -28q0 -30 5.5 -44t15.5 -28h-239q15 16 25 35.5z
" />
    <glyph glyph-name="j" unicode="j" horiz-adv-x="283" 
d="M108.5 586q-12.5 27 -12.5 56q0 47 32 75t75 28q38 0 57.5 -22t19.5 -57q0 -48 -31 -71t-82 -40q-22 -7 -31 -12q-15 16 -27.5 43zM-27 -176.5q-14 4.5 -17 9.5v2q23 5 35.5 21.5t19.5 48t13 90.5l39 363q2 15 2 40q0 50 -19 80l212 32l-51 -485q-6 -59 -37.5 -106
t-75.5 -73.5t-88 -26.5q-19 0 -33 4.5z" />
    <glyph glyph-name="k" unicode="k" horiz-adv-x="522" 
d="M15 35.5q10 19.5 15 64.5l50 470q3 27 3 48q0 57 -20 82l214 34l-68 -634q-1 -10 -1 -28q0 -30 5.5 -44t15.5 -28h-239q15 16 25 35.5zM224 224q48 6 83.5 29.5t35.5 75.5q0 34 -16.5 57.5t-43.5 23.5q-5 0 -15 -2l144 107q11 2 26 -9.5t25.5 -33.5t10.5 -51
q0 -47 -27 -87t-81 -62l59 -141q27 -67 47.5 -93t41.5 -38h-206z" />
    <glyph glyph-name="l" unicode="l" horiz-adv-x="271" 
d="M15 35.5q10 19.5 15 64.5l50 470q3 27 3 48q0 57 -20 82l214 34l-68 -634q-1 -10 -1 -28q0 -30 5.5 -44t15.5 -28h-239q15 16 25 35.5z" />
    <glyph glyph-name="m" unicode="m" horiz-adv-x="768" 
d="M701 100q-2 -24 -2 -32q0 -28 5.5 -40.5t16.5 -27.5h-238q1 2 10.5 12.5t17.5 33.5t11 54l22 205q5 45 5 75q0 25 -5 25q-6 0 -23.5 -40.5t-35.5 -106.5t-27 -144l-2 -14q-2 -13 -2 -33q0 -24 5 -37.5t10 -20.5t6 -9h-238q1 2 10.5 12.5t17.5 33.5t11 54l22 205
q5 45 5 75q0 25 -5 25q-6 0 -24.5 -42.5t-37 -111t-27.5 -149.5v-2q-4 -45 -4 -71q0 -18 3 -29h-218q15 16 25 35.5t15 64.5l28 258q2 15 2 40q0 50 -19 80l212 32l-23 -211q27 110 81 160.5t118 50.5q31 0 47 -13t16 -50q0 -14 -1 -22l-13 -119q27 106 80.5 155t116.5 49
q31 0 47 -13t16 -50q0 -14 -1 -22z" />
    <glyph glyph-name="n" unicode="n" horiz-adv-x="522" 
d="M456 100q-2 -13 -2 -33q0 -24 5 -37.5t10 -20.5t6 -9h-238q1 2 10.5 12.5t17.5 33.5t11 54l22 205q5 45 5 75q0 25 -5 25q-6 0 -24.5 -42.5t-37 -111t-27.5 -149.5v-2q-4 -45 -4 -71q0 -18 3 -29h-218q15 16 25 35.5t15 64.5l28 258q2 15 2 40q0 50 -19 80l212 32
l-23 -211q27 110 81 160.5t118 50.5q31 0 47 -13t16 -50q0 -14 -1 -22z" />
    <glyph glyph-name="o" unicode="o" horiz-adv-x="451" 
d="M54 44q-42 54 -42 146q0 84 34 158t94 118t134 44q80 0 122.5 -54t42.5 -144q0 -85 -34 -159t-94 -118.5t-134 -44.5q-81 0 -123 54zM247.5 102.5q8.5 87.5 8.5 210.5q0 86 -5 129t-19 43q-21 0 -29.5 -89t-8.5 -211q0 -84 5.5 -127t19.5 -43q20 0 28.5 87.5z" />
    <glyph glyph-name="p" unicode="p" 
d="M9 -99l48 452q3 33 3 55q0 32 -5 46.5t-14 25.5l212 30l-25 -232q13 90 48.5 161t99.5 71q45 0 70.5 -41t25.5 -118q0 -87 -34 -170.5t-96 -137t-143 -53.5l-5 -47q-1 -9 -1 -25q0 -45 19 -75l-243 -42q34 36 40 100zM253.5 58q14.5 46 23 113t8.5 123q0 34 -3 45.5
t-10 11.5q-15 0 -30.5 -58t-26 -132.5t-10.5 -109.5q0 -22 5 -30.5t11 -8.5q18 0 32.5 46z" />
    <glyph glyph-name="q" unicode="q" 
d="M404 -73q0 -60 16 -84l-213 -37l25 230l17 168q-14 -84 -50 -149t-95 -65q-45 0 -70.5 41t-25.5 118q0 88 34.5 171.5t100 136.5t151.5 53q32 0 83.5 -5.5t81.5 -13.5l-47 -455l-3 -27q-5 -43 -5 -82zM238.5 207q15.5 58 25.5 132t10 110q0 21 -5 30t-10 9q-18 0 -33 -46
t-23.5 -112.5t-8.5 -121.5q0 -34 3.5 -46.5t9.5 -12.5q16 0 31.5 58z" />
    <glyph glyph-name="r" unicode="r" horiz-adv-x="408" 
d="M408 490.5q13 -19.5 13 -47.5q0 -29 -14.5 -60t-37 -51t-43.5 -20q-9 0 -33 14q-20 13 -29 13q-29 0 -36 -59l-19 -180q-1 -10 -1 -28q0 -30 5.5 -44t15.5 -28h-239q15 16 25 35.5t15 64.5l28 258q2 15 2 40q0 50 -19 80l212 32l-14 -131q-1 -9 4 -9q2 0 4 2t5 7l10 18
q32 59 54.5 86t52.5 27q26 0 39 -19.5z" />
    <glyph glyph-name="s" unicode="s" horiz-adv-x="354" 
d="M66.5 -1q-36.5 9 -57.5 22l53 206q2 -67 13.5 -115.5t28.5 -74t36 -25.5q21 0 21 33q0 21 -10 51.5t-28 62.5l-53 91q-34 63 -34 112q0 44 27.5 78t74 52t102.5 18q63 0 100 -25l-55 -176q-4 65 -23.5 120.5t-42.5 55.5q-7 0 -15 -7t-8 -29q0 -42 29 -90l62 -106
q24 -40 33.5 -63t9.5 -54q0 -49 -28 -82t-71.5 -48.5t-90.5 -15.5q-37 0 -73.5 9z" />
    <glyph glyph-name="t" unicode="t" horiz-adv-x="310" 
d="M213 114q-1 -6 -1 -18q0 -24 10 -37t35 -13q22 0 34 5h1q-6 -14 -31 -28t-59 -23.5t-64 -9.5q-52 0 -82.5 29t-25.5 73l37 346h-50l255 237l-18 -176q42 0 70 3l-19 -64h-58z" />
    <glyph glyph-name="u" unicode="u" horiz-adv-x="521" 
d="M40 3q-16 13 -16 50q0 14 1 22l33 306q1 8 1 24q0 46 -18 73l212 32l-34 -315q-6 -46 -6 -77q0 -23 5 -23t25.5 49t39 115.5t21.5 125.5q1 36 -4 59t-13 34l212 32l-43 -388q-1 -8 -1 -22q0 -52 21 -78l-212 -32l21 208q-27 -107 -80.5 -157.5t-117.5 -50.5q-31 0 -47 13
z" />
    <glyph glyph-name="v" unicode="v" horiz-adv-x="416" 
d="M410 457q0 -63 -52.5 -178.5t-181.5 -297.5h-1l-90 358q-21 85 -34 117t-34 44h238q-15 -15 -15 -47q0 -37 17 -114l32 -147q39 43 39 103q0 45 -22 79t-52 34l138 107q18 -18 18 -58z" />
    <glyph glyph-name="w" unicode="w" horiz-adv-x="664" 
d="M659 457q0 -63 -52 -178.5t-181 -297.5h-1l-70 279q-25 -56 -56 -104t-88 -126l-35 -49h-1l-90 358q-21 85 -34 117t-34 44h238q-15 -15 -15 -47q0 -37 17 -114l33 -153q19 13 34 51t15 73q0 13 -3 25l-1 4q-21 84 -34 116t-34 45h238q-15 -15 -15 -48q0 -36 16 -113
l33 -147q38 44 38 102q0 46 -21.5 80t-52.5 34l138 107q18 -18 18 -58z" />
    <glyph glyph-name="x" unicode="x" horiz-adv-x="442" 
d="M376.5 43q13.5 -25 31.5 -43h-265q18 11 26.5 24t8.5 33q0 23 -12 62l-14 47q-55 -84 -55 -127q0 -25 20 -39h-157q6 4 33 23t63 55.5t72 86.5l17 23l-57 187q-16 54 -30 80.5t-33 44.5h245q-15 -18 -15 -47q0 -30 15 -78l17 -55q53 82 53 136q0 30 -16 46.5t-45 16.5
l142 107q36 -31 36 -77q0 -44 -34.5 -94.5t-129.5 -157.5l54 -179q16 -50 29.5 -75z" />
    <glyph glyph-name="y" unicode="y" horiz-adv-x="423" 
d="M420 445q0 -78 -59 -197t-126 -213t-58 -61q-48 -68 -98.5 -110t-96.5 -42q-16 0 -27 5.5t-13 10.5l46 124q20 -9 62 -9q57 0 86 16t29 55q0 18 -6 42l-69 273q-20 84 -33 116t-34 45h237q-15 -15 -15 -47q0 -37 17 -114l34 -151q36 46 36 106q0 47 -21.5 80.5
t-51.5 33.5l138 107q23 -24 23 -70zM237 138q17 10 27 18z" />
    <glyph glyph-name="z" unicode="z" horiz-adv-x="401" 
d="M285.5 80.5q47.5 46.5 94.5 143.5l-54 -224h-341l233 477q-37 -3 -66 -22.5t-57 -61.5t-65 -117l54 224h331l-232 -475q55 9 102.5 55.5z" />
    <glyph glyph-name="braceleft" unicode="{" horiz-adv-x="348" 
d="M154.5 -100q-56.5 20 -82 66t-25.5 126q0 32 5 80q4 30 4 57q0 86 -45 121q42 29 57 75t21 103q12 113 45.5 176t98 89.5t175.5 26.5l-1 -6q-46 -9 -70.5 -41.5t-39.5 -102t-30 -207.5l-23 -226q-15 -132 -15 -205q0 -74 18 -105.5t63 -40.5l-1 -6q-98 0 -154.5 20z" />
    <glyph glyph-name="bar" unicode="|" horiz-adv-x="220" 
d="M168 900h20l-115 -1099h-20z" />
    <glyph glyph-name="braceright" unicode="}" horiz-adv-x="398" 
d="M265.5 800q56.5 -20 82 -66t25.5 -126q0 -32 -5 -80q-4 -30 -4 -57q0 -86 45 -121q-42 -29 -57 -75t-21 -103q-12 -113 -45.5 -176t-98 -89.5t-175.5 -26.5l1 6q46 9 70.5 41.5t39.5 102t30 207.5l23 226q15 132 15 205q0 74 -18 105.5t-63 40.5l1 6q98 0 154.5 -20z" />
    <glyph glyph-name="asciitilde" unicode="~" horiz-adv-x="400" 
d="M88.5 334.5q41.5 59.5 81.5 59.5q13 0 25.5 -5.5t34.5 -18.5q23 -14 41 -22t37 -8q29 0 47.5 17.5t28.5 36.5h6q-26 -64 -67 -123.5t-80 -59.5q-13 0 -25.5 5.5t-34.5 18.5q-23 14 -41 22t-37 8q-29 0 -48.5 -17.5t-29.5 -36.5h-6q26 64 67.5 123.5z" />
    <glyph glyph-name="exclamdown" unicode="&#xa1;" horiz-adv-x="258" 
d="M218 483q24 -27 24 -68q0 -31 -15 -59t-40 -45t-53 -17q-37 0 -61 27t-24 68q0 31 15 59t40 45t53 17q37 0 61 -27zM145.5 194q8.5 -45 24.5 -109q14 -54 21 -90.5t7 -68.5q0 -73 -36.5 -104.5t-78.5 -31.5q-36 0 -65.5 23t-29.5 75q0 39 15.5 82.5t50.5 119.5
q28 63 46 106.5t31 90.5h3q3 -48 11.5 -93z" />
    <glyph glyph-name="cent" unicode="&#xa2;" horiz-adv-x="374" 
d="M367 312q-19 -52 -60.5 -87t-105.5 -35h-12l-19 -70h-25l20 74q-62 13 -97 67.5t-35 132.5q0 83 36 155.5t99 116.5t140 44l19 70h25l-20 -71q33 -4 56 -15l-32 -228h-1l-19 76q-16 65 -24 93l-77 -280q29 -59 84 -59q33 0 48 16zM220 393l77 278q-10 16 -21 16
q-14 0 -30.5 -24t-28 -66.5t-11.5 -93.5q0 -61 14 -110z" />
    <glyph glyph-name="sterling" unicode="&#xa3;" horiz-adv-x="558" 
d="M335.5 82q94.5 33 139 70t71.5 82q-36 -88 -73 -167t-47 -78q-79 11 -226 11q-132 0 -226 -11l-1 2q49 19 73.5 45.5t33 64.5t8.5 99q0 22 -2 76h-80l2 17h78q-2 58 -2 83q0 174 70 254t229 80q64 0 110 -17l-3 -244h-3l-28 70q-35 90 -54 125.5t-40 35.5
q-34 0 -51.5 -83t-17.5 -184q0 -29 5 -117l149 8l-12 -28h-136q2 -34 2 -46q0 -93 -52.5 -137.5t-166.5 -64.5q156 21 250.5 54z" />
    <glyph glyph-name="currency" unicode="&#xa4;" horiz-adv-x="327" 
d="M334 589q0 -30 -11.5 -57t-32.5 -48l32 -35l-13 -12l-32 35q-44 -34 -94 -34q-25 0 -47.5 9t-39.5 24l-40 -36l-10 12l40 36q-26 32 -26 76q0 60 44 106l-31 35l14 12l31 -35q43 33 93 33q52 0 88 -34l40 36l10 -12l-40 -36q25 -33 25 -75zM109 486q30 -30 76 -30
q34 0 64 18t48 48t18 65q0 45 -30 75t-76 30q-34 0 -64 -18t-48 -48t-18 -65q0 -45 30 -75z" />
    <glyph glyph-name="yen" unicode="&#xa5;" horiz-adv-x="522" 
d="M378 385v-2h120l-2 -17h-119l-3 -28h120l-2 -17h-120l-14 -137q-7 -62 -7 -100q0 -39 7.5 -54.5t26.5 -29.5h-291q20 14 30.5 27.5t18.5 49t16 107.5l14 132l-2 5h-113l2 17h108l-7 28h-99l2 17h94l-30 133q-14 65 -37 111t-48 73h295q-15 -15 -15 -46q0 -17 4.5 -43
t5.5 -34q7 -31 11 -61l16 -105l43 105l17 41q20 48 29 73t9 43t-8 27h123q-34 -27 -69.5 -72.5t-65.5 -111.5z" />
    <glyph glyph-name="brokenbar" unicode="&#xa6;" horiz-adv-x="220" 
d="M168 900h20l-52 -500h-20zM105 301h20l-52 -500h-20z" />
    <glyph glyph-name="section" unicode="&#xa7;" horiz-adv-x="407" 
d="M378.5 257q-24.5 -27 -63 -42.5t-79.5 -18.5l1 -2l48 -78q24 -39 40.5 -82.5t16.5 -77.5q0 -38 -28 -65.5t-71.5 -42t-90.5 -14.5q-40 0 -82 10.5t-65 23.5l20 176q14 -40 38 -83.5t50 -72t45 -28.5q13 0 13 22q0 19 -10 39t-31 51l-21 32l-48 79q-19 32 -29 64.5
t-10 58.5q0 62 43.5 99t105.5 46l-9 15l-46 78q-34 53 -34 120q0 49 27.5 83.5t69.5 51t84 16.5q33 0 62 -10.5t43 -23.5l-17 -167l-21 50q-28 66 -42 95.5t-20 29.5q-8 0 -13 -10t-5 -26q0 -21 10 -42t32 -56l47 -78q28 -48 46 -87.5t18 -70.5q0 -35 -24.5 -62zM197.5 260
q8.5 -18 24.5 -42v3q9 0 9 24q0 15 -9 31t-28 43q-5 -10 -5 -24q0 -17 8.5 -35z" />
    <glyph glyph-name="copyright" unicode="&#xa9;" horiz-adv-x="453" 
d="M134.5 279q-40.5 26 -62.5 71.5t-22 102.5q0 66 29.5 125.5t81.5 95.5t115 36q53 0 94 -26t63 -71.5t22 -102.5q0 -67 -29.5 -126t-81.5 -95t-116 -36q-53 0 -93.5 26zM337 303.5q47 33.5 73 89t26 117.5q0 81 -43.5 132t-117.5 51q-59 0 -106 -33t-73 -88t-26 -119
q0 -80 43 -131.5t116 -51.5q61 0 108 33.5zM174.5 378.5q-24.5 33.5 -24.5 86.5q0 43 16.5 78.5t45 56t64.5 20.5q37 0 51.5 -23t14.5 -45q0 -19 -14.5 -31.5t-30.5 -12.5q-18 0 -27 9.5t-9 24.5q0 14 10.5 32.5t10.5 21.5q0 5 -8 5q-23 0 -34 -29t-11 -66q0 -43 16.5 -75
t51.5 -32q22 0 28 7q-8 -25 -29 -43t-53 -18q-44 0 -68.5 33.5z" />
    <glyph glyph-name="ordfeminine" unicode="&#xaa;" horiz-adv-x="439" 
d="M407 342q0 -28 4.5 -40.5t13.5 -23.5l-192 -37l19 192q-12 -75 -45 -135t-87 -60q-40 0 -63.5 37t-23.5 107q0 80 31.5 156t90.5 124t138 48q30 0 76 -5t73 -13l-33 -314q-2 -28 -2 -36zM243 434.5q14 52.5 23 119.5t9 100q0 20 -4.5 28t-9.5 8q-16 0 -29.5 -42
t-21.5 -102.5t-8 -109.5q0 -32 3 -43t9 -11q15 0 29 52.5zM105 137h230l-2 -21h-230z" />
    <glyph glyph-name="guillemotleft" unicode="&#xab;" horiz-adv-x="413" 
d="M185 262l223 188l1 -1l-71 -187l32 -187l-1 -1zM26 262l223 188l1 -1l-71 -187l32 -187l-1 -1z" />
    <glyph glyph-name="logicalnot" unicode="&#xac;" horiz-adv-x="280" 
d="M249 189h-21l11 104h-209l2 21h230z" />
    <glyph glyph-name="registered" unicode="&#xae;" horiz-adv-x="453" 
d="M134.5 279q-40.5 26 -62.5 71.5t-22 102.5q0 66 29.5 125.5t81.5 95.5t115 36q53 0 94 -26t63 -71.5t22 -102.5q0 -67 -29.5 -126t-81.5 -95t-116 -36q-53 0 -93.5 26zM337 303.5q47 33.5 73 89t26 117.5q0 81 -43.5 132t-117.5 51q-59 0 -106 -33t-73 -88t-26 -119
q0 -80 43 -131.5t116 -51.5q61 0 108 33.5zM282 359q-14 11 -20 36l-16 67l-2 7q-1 0 -3 -1.5t-2 -3.5l-4 -45l-2 -37q0 -14 2.5 -19.5t7.5 -11.5h-97q11 7 16 18.5t9 49.5l13 125q2 15 2 35q0 16 -2.5 21.5t-10.5 12.5h104q28 0 45.5 -16t17.5 -42q0 -31 -14.5 -47
t-41.5 -30q12 -2 18.5 -11.5t14.5 -34.5l8 -25l7 -23q7 -24 15 -33q-15 -3 -28 -3q-23 0 -37 11zM272 513.5q9 25.5 9 51.5q0 14 -3.5 23.5t-9.5 9.5q-7 0 -11.5 -11t-8.5 -43l-5 -48q0 -1 1.5 -4.5t3.5 -3.5q15 0 24 25.5z" />
    <glyph glyph-name="degree" unicode="&#xb0;" horiz-adv-x="280" 
d="M82.5 473.5q-29.5 33.5 -29.5 84.5q0 40 18 75t49 56t68 21q48 0 77.5 -33.5t29.5 -84.5q0 -40 -18 -75t-49 -56t-68 -21q-48 0 -77.5 33.5zM243.5 496.5q32.5 39.5 32.5 95.5q0 45 -24 73t-65 28q-49 0 -82 -39.5t-33 -94.5q0 -44 24.5 -73t65.5 -29q49 0 81.5 39.5z
" />
    <glyph glyph-name="plusminus" unicode="&#xb1;" horiz-adv-x="220" 
d="M202 314l-2 -21h-74l-9 -84h-21l9 84h-75l2 21h75l9 85h21l-9 -85h74zM15 111h153l-1 -21h-153z" />
    <glyph glyph-name="paragraph" unicode="&#xb6;" horiz-adv-x="792" 
d="M227 -93l33 313q-98 0 -156 51.5t-58 150.5q0 83 31 146t90.5 97.5t142.5 34.5h272q-45 -12 -77.5 -55.5t-40.5 -124.5l-60 -577q-1 -9 -1 -25q0 -45 19 -75l-235 -36q34 36 40 100zM499 -93l83 793h272q-45 -12 -77.5 -55.5t-40.5 -124.5l-60 -577q-1 -9 -1 -25
q0 -45 19 -75l-235 -36q34 36 40 100z" />
    <glyph glyph-name="periodcentered" unicode="&#xb7;" horiz-adv-x="232" 
d="M45 186q-24 27 -24 69q0 31 15 58.5t40 44.5t53 17q37 0 61 -27t24 -68q0 -31 -15 -59t-40 -45t-53 -17q-37 0 -61 27z" />
    <glyph glyph-name="ordmasculine" unicode="&#xba;" horiz-adv-x="418" 
d="M73.5 287.5q-38.5 49.5 -38.5 131.5q0 77 31 144t85.5 107t121.5 40q73 0 111.5 -49t38.5 -131q0 -77 -31 -144t-85.5 -107.5t-121.5 -40.5q-73 0 -111.5 49.5zM249 341q8 80 8 190q0 78 -5 117t-17 39q-34 0 -34 -272q0 -76 5 -115t17 -39q18 0 26 80zM95 137h230
l-2 -21h-230z" />
    <glyph glyph-name="guillemotright" unicode="&#xbb;" horiz-adv-x="413" 
d="M390 262l-223 -188l-1 1l71 187l-32 187l1 1zM231 262l-223 -188l-1 1l71 187l-32 187l1 1z" />
    <glyph glyph-name="questiondown" unicode="&#xbf;" horiz-adv-x="423" 
d="M314.5 483q24.5 -27 24.5 -68q0 -31 -15 -59t-40 -45t-53 -17q-37 0 -61 27t-24 68q0 31 15 59t39.5 45t52.5 17q37 0 61.5 -27zM244 201q0 -26 -8.5 -56t-25.5 -74q-19 -51 -29.5 -87t-14.5 -74q-2 -24 -2 -31q0 -30 7 -45t16 -15q24 0 61.5 78.5t90.5 211.5h3l15 -251
q-37 -30 -85 -49t-104 -19q-79 0 -124.5 38t-45.5 99q0 40 18 73t43 56.5t67 55.5q49 38 72.5 63.5t25.5 58.5q0 4 -0.5 13.5t0.5 15.5h2q18 -26 18 -62z" />
    <glyph glyph-name="Agrave" unicode="&#xc0;" horiz-adv-x="500" 
d="M218 56q0 27 -12 94h-104q-23 -72 -23 -107q0 -26 12 -43h-121q28 22 53.5 64.5t58.5 119.5l216 532l115 -532q18 -82 31.5 -122.5t33.5 -61.5h-278q18 18 18 56zM201 179l-1 5l-28 160l-58 -160l-2 -5h89zM208 835q5 22 39.5 55.5t56.5 40.5l97 -188l-2 -2z" />
    <glyph glyph-name="Aacute" unicode="&#xc1;" horiz-adv-x="500" 
d="M218 56q0 27 -12 94h-104q-23 -72 -23 -107q0 -26 12 -43h-121q28 22 53.5 64.5t58.5 119.5l216 532l115 -532q18 -82 31.5 -122.5t33.5 -61.5h-278q18 18 18 56zM201 179l-1 5l-28 160l-58 -160l-2 -5h89zM228 743l138 188q20 -7 46.5 -40.5t27.5 -55.5l-209 -94z" />
    <glyph glyph-name="Acircumflex" unicode="&#xc2;" horiz-adv-x="500" 
d="M218 56q0 27 -12 94h-104q-23 -72 -23 -107q0 -26 12 -43h-121q28 22 53.5 64.5t58.5 119.5l216 532l115 -532q18 -82 31.5 -122.5t33.5 -61.5h-278q18 18 18 56zM201 179l-1 5l-28 160l-58 -160l-2 -5h89zM169 743l153 188l112 -188l-1 -2l-125 63l-136 -63z" />
    <glyph glyph-name="Atilde" unicode="&#xc3;" horiz-adv-x="500" 
d="M218 56q0 27 -12 94h-104q-23 -72 -23 -107q0 -26 12 -43h-121q28 22 53.5 64.5t58.5 119.5l216 532l115 -532q18 -82 31.5 -122.5t33.5 -61.5h-278q18 18 18 56zM201 179l-1 5l-28 160l-58 -160l-2 -5h89zM180.5 870.5q45.5 60.5 90.5 60.5q15 0 30.5 -7t37.5 -20
q28 -17 46.5 -25t39.5 -8q32 0 53.5 19t32.5 41h7q-31 -70 -75 -129.5t-88 -59.5q-15 0 -29.5 6.5t-38.5 20.5q-29 17 -48 25t-40 8q-33 0 -54.5 -19.5t-31.5 -40.5h-7q29 68 74.5 128.5z" />
    <glyph glyph-name="Adieresis" unicode="&#xc4;" horiz-adv-x="500" 
d="M218 56q0 27 -12 94h-104q-23 -72 -23 -107q0 -26 12 -43h-121q28 22 53.5 64.5t58.5 119.5l216 532l115 -532q18 -82 31.5 -122.5t33.5 -61.5h-278q18 18 18 56zM201 179l-1 5l-28 160l-58 -160l-2 -5h89zM148 767q-20 23 -20 57q0 38 26 67t62 29q30 0 50.5 -22
t20.5 -53q0 -40 -27 -70.5t-62 -30.5q-30 0 -50 23zM355 767q-20 23 -20 57q0 38 26 67t62 29q30 0 50.5 -22t20.5 -53q0 -40 -27 -70.5t-62 -30.5q-30 0 -50 23z" />
    <glyph glyph-name="Aring" unicode="&#xc5;" horiz-adv-x="500" 
d="M218 56q0 27 -12 94h-104q-23 -72 -23 -107q0 -26 12 -43h-121q28 22 53.5 64.5t58.5 119.5l216 532l115 -532q18 -82 31.5 -122.5t33.5 -61.5h-278q18 18 18 56zM201 179l-1 5l-28 160l-58 -160l-2 -5h89zM259.5 783.5q-17.5 20.5 -17.5 50.5q0 34 23.5 60t54.5 26
q27 0 45 -20t18 -48q0 -36 -23.5 -62.5t-55.5 -26.5q-27 0 -44.5 20.5zM349 799q19 22 19 51q0 24 -13.5 40t-35.5 16q-26 0 -44.5 -21.5t-18.5 -51.5q0 -24 13.5 -40t35.5 -16q25 0 44 22z" />
    <glyph glyph-name="AE" unicode="&#xc6;" horiz-adv-x="744" 
d="M730 278l-52 -278h-446q20 14 30.5 27.5t18.5 49t16 107.5h-166q-29 -59 -41.5 -91.5t-12.5 -50.5q0 -15 7.5 -23.5t24.5 -18.5h-138q3 3 20.5 17t44 55.5t62.5 111.5l198 389q27 54 27 89q0 18 -6 28q-4 4 -12 10h421l-11 -262h-3q-72 236 -130 236q-18 0 -28 -19
t-14 -47.5t-9 -90.5l-17 -164l2 20v-5q0 -16 10 -16q17 0 41 13.5t48 43t40 76.5h3l-29 -291h-3q-7 47 -25 76.5t-39.5 43t-37.5 13.5q-4 0 -8.5 -5.5t-6.5 -13.5l-13 -123l-3 -23q-7 -59 -7 -85q0 -25 7 -38t23 -13q15 0 44 19t72.5 75t94.5 158h3zM300 212l32 304
q5 50 7 90l-194 -394h155z" />
    <glyph glyph-name="Ccedilla" unicode="&#xc7;" horiz-adv-x="494" 
d="M480 693q0 -84 -5 -222l-1 -38h-3q-20 40 -49 101q-40 85 -61.5 116.5t-48.5 31.5q-38 0 -55 -88.5t-17 -188.5q0 -122 38.5 -208t116.5 -86q40 0 60 19q-9 -28 -34 -59t-62.5 -53.5t-82.5 -26.5q-16 -18 -16 -36q0 -19 12 -34t31 -30q2 -2 10.5 -9.5t8.5 -12.5
q0 -21 -27.5 -47t-63.5 -45t-55 -19q-13 0 -20 8t-7 20q0 10 7.5 14t21.5 4q7 0 23 -2l22 -1q25 0 25 15q0 11 -9.5 22.5t-26.5 26.5q-14 12 -21 20.5t-7 15.5q0 11 18 31t56 58q-62 0 -113.5 39t-81 109.5t-29.5 161.5q0 108 41 202.5t118 151t178 56.5q55 0 109 -17z" />
    <glyph glyph-name="Egrave" unicode="&#xc8;" horiz-adv-x="508" 
d="M494 278l-52 -278h-447q21 14 31 27.5t18.5 49t16.5 107.5l34 332q8 72 8 102q0 38 -7.5 53t-26.5 29h420l-11 -262h-3q-72 236 -130 236q-24 0 -33 -31t-16 -106l-2 -20l-17 -164l2 20v-5q0 -16 10 -16q17 0 41 13.5t48.5 43.5t40.5 76h3l-30 -291h-3q-6 47 -24.5 76.5
t-39.5 43t-38 13.5q-4 0 -8.5 -5.5t-6.5 -13.5l-13 -123l-3 -23q-7 -59 -7 -85q0 -25 7 -38t23 -13q15 0 44 19t73 75t94 158h4zM231 835q5 22 39.5 55.5t56.5 40.5l97 -188l-2 -2z" />
    <glyph glyph-name="Eacute" unicode="&#xc9;" horiz-adv-x="508" 
d="M494 278l-52 -278h-447q21 14 31 27.5t18.5 49t16.5 107.5l34 332q8 72 8 102q0 38 -7.5 53t-26.5 29h420l-11 -262h-3q-72 236 -130 236q-24 0 -33 -31t-16 -106l-2 -20l-17 -164l2 20v-5q0 -16 10 -16q17 0 41 13.5t48.5 43.5t40.5 76h3l-30 -291h-3q-6 47 -24.5 76.5
t-39.5 43t-38 13.5q-4 0 -8.5 -5.5t-6.5 -13.5l-13 -123l-3 -23q-7 -59 -7 -85q0 -25 7 -38t23 -13q15 0 44 19t73 75t94 158h4zM250 743l138 188q20 -7 46.5 -40.5t27.5 -55.5l-209 -94z" />
    <glyph glyph-name="Ecircumflex" unicode="&#xca;" horiz-adv-x="508" 
d="M494 278l-52 -278h-447q21 14 31 27.5t18.5 49t16.5 107.5l34 332q8 72 8 102q0 38 -7.5 53t-26.5 29h420l-11 -262h-3q-72 236 -130 236q-24 0 -33 -31t-16 -106l-2 -20l-17 -164l2 20v-5q0 -16 10 -16q17 0 41 13.5t48.5 43.5t40.5 76h3l-30 -291h-3q-6 47 -24.5 76.5
t-39.5 43t-38 13.5q-4 0 -8.5 -5.5t-6.5 -13.5l-13 -123l-3 -23q-7 -59 -7 -85q0 -25 7 -38t23 -13q15 0 44 19t73 75t94 158h4zM192 743l153 188l112 -188l-1 -2l-125 63l-136 -63z" />
    <glyph glyph-name="Edieresis" unicode="&#xcb;" horiz-adv-x="508" 
d="M494 278l-52 -278h-447q21 14 31 27.5t18.5 49t16.5 107.5l34 332q8 72 8 102q0 38 -7.5 53t-26.5 29h420l-11 -262h-3q-72 236 -130 236q-24 0 -33 -31t-16 -106l-2 -20l-17 -164l2 20v-5q0 -16 10 -16q17 0 41 13.5t48.5 43.5t40.5 76h3l-30 -291h-3q-6 47 -24.5 76.5
t-39.5 43t-38 13.5q-4 0 -8.5 -5.5t-6.5 -13.5l-13 -123l-3 -23q-7 -59 -7 -85q0 -25 7 -38t23 -13q15 0 44 19t73 75t94 158h4zM170 767q-20 23 -20 57q0 38 26 67t62 29q30 0 50.5 -22t20.5 -53q0 -40 -27 -70.5t-62 -30.5q-30 0 -50 23zM377 767q-20 23 -20 57
q0 38 26 67t62 29q30 0 50.5 -22t20.5 -53q0 -40 -27 -70.5t-62 -30.5q-30 0 -50 23z" />
    <glyph glyph-name="Igrave" unicode="&#xcc;" horiz-adv-x="334" 
d="M26 27.5q10 13.5 18.5 49t16.5 107.5l34 332q8 72 8 102q0 38 -7.5 53t-26.5 29h290q-20 -14 -30.5 -27.5t-18.5 -49t-16 -107.5l-35 -332q-7 -62 -7 -100q0 -39 7.5 -54.5t26.5 -29.5h-291q21 14 31 27.5zM125 835q5 22 39.5 55.5t56.5 40.5l97 -188l-2 -2z" />
    <glyph glyph-name="Iacute" unicode="&#xcd;" horiz-adv-x="334" 
d="M26 27.5q10 13.5 18.5 49t16.5 107.5l34 332q8 72 8 102q0 38 -7.5 53t-26.5 29h290q-20 -14 -30.5 -27.5t-18.5 -49t-16 -107.5l-35 -332q-7 -62 -7 -100q0 -39 7.5 -54.5t26.5 -29.5h-291q21 14 31 27.5zM144 743l138 188q20 -7 46.5 -40.5t27.5 -55.5l-209 -94z" />
    <glyph glyph-name="Icircumflex" unicode="&#xce;" horiz-adv-x="334" 
d="M26 27.5q10 13.5 18.5 49t16.5 107.5l34 332q8 72 8 102q0 38 -7.5 53t-26.5 29h290q-20 -14 -30.5 -27.5t-18.5 -49t-16 -107.5l-35 -332q-7 -62 -7 -100q0 -39 7.5 -54.5t26.5 -29.5h-291q21 14 31 27.5zM85 743l153 188l112 -188l-1 -2l-125 63l-136 -63z" />
    <glyph glyph-name="Idieresis" unicode="&#xcf;" horiz-adv-x="334" 
d="M26 27.5q10 13.5 18.5 49t16.5 107.5l34 332q8 72 8 102q0 38 -7.5 53t-26.5 29h290q-20 -14 -30.5 -27.5t-18.5 -49t-16 -107.5l-35 -332q-7 -62 -7 -100q0 -39 7.5 -54.5t26.5 -29.5h-291q21 14 31 27.5zM64 767q-20 23 -20 57q0 38 26 67t62 29q30 0 50.5 -22
t20.5 -53q0 -40 -27 -70.5t-62 -30.5q-30 0 -50 23zM271 767q-20 23 -20 57q0 38 26 67t62 29q30 0 50.5 -22t20.5 -53q0 -40 -27 -70.5t-62 -30.5q-30 0 -50 23z" />
    <glyph glyph-name="Eth" unicode="&#xd0;" horiz-adv-x="584" 
d="M448.5 667.5q55.5 -32.5 90 -98.5t34.5 -163q0 -105 -40 -198.5t-113 -150.5t-168 -57h-257q21 14 31 27.5t18.5 49t16.5 107.5l16 154h-67v17h69l16 161q8 72 8 102q0 38 -7.5 53t-26.5 29h261q63 0 118.5 -32.5zM330.5 101q17.5 74 26 176.5t8.5 188.5q0 97 -9.5 152
t-28.5 55q-10 0 -16 -25.5t-14 -101.5l-19 -182l32 2l-10 -28h-25l-18 -176q-4 -32 -4 -60q0 -75 33 -75q27 0 44.5 74z" />
    <glyph glyph-name="Ntilde" unicode="&#xd1;" horiz-adv-x="509" 
d="M554 700q-28 -13 -41.5 -27t-23 -49t-17.5 -108l-27 -252q-8 -77 -12.5 -137.5t-8.5 -146.5h-5l-289 576l-40 -372q-6 -55 -6 -87q0 -33 6 -51t17 -27t33 -19h-160q29 13 42.5 27t23 48.5t17.5 108.5l35 332q5 43 5 83q0 34 -6 53t-17 28t-32 20h264q1 -17 8 -35.5
t16.5 -38.5t13.5 -28l84 -185l10 103q5 48 5 89q0 33 -5 50t-14.5 26t-29.5 19h154zM209.5 870.5q45.5 60.5 90.5 60.5q15 0 30.5 -7t37.5 -20q28 -17 46.5 -25t39.5 -8q32 0 53.5 19t32.5 41h7q-31 -70 -75 -129.5t-88 -59.5q-15 0 -29.5 6.5t-38.5 20.5q-29 17 -48 25
t-40 8q-33 0 -54.5 -19.5t-31.5 -40.5h-7q29 68 74.5 128.5z" />
    <glyph glyph-name="Ograve" unicode="&#xd2;" horiz-adv-x="572" 
d="M88 70q-54 80 -54 208q0 112 38 211t109 160t164 61q108 0 162.5 -80.5t54.5 -207.5q0 -111 -38.5 -210.5t-109.5 -160.5t-163 -61q-109 0 -163 80zM339.5 131q17.5 113 17.5 272q0 131 -12.5 205.5t-38.5 74.5q-35 0 -52 -113.5t-17 -273.5q0 -278 51 -278
q34 0 51.5 113zM245 835q5 22 39.5 55.5t56.5 40.5l97 -188l-2 -2z" />
    <glyph glyph-name="Oacute" unicode="&#xd3;" horiz-adv-x="572" 
d="M88 70q-54 80 -54 208q0 112 38 211t109 160t164 61q108 0 162.5 -80.5t54.5 -207.5q0 -111 -38.5 -210.5t-109.5 -160.5t-163 -61q-109 0 -163 80zM339.5 131q17.5 113 17.5 272q0 131 -12.5 205.5t-38.5 74.5q-35 0 -52 -113.5t-17 -273.5q0 -278 51 -278
q34 0 51.5 113zM265 743l138 188q20 -7 46.5 -40.5t27.5 -55.5l-209 -94z" />
    <glyph glyph-name="Ocircumflex" unicode="&#xd4;" horiz-adv-x="572" 
d="M88 70q-54 80 -54 208q0 112 38 211t109 160t164 61q108 0 162.5 -80.5t54.5 -207.5q0 -111 -38.5 -210.5t-109.5 -160.5t-163 -61q-109 0 -163 80zM339.5 131q17.5 113 17.5 272q0 131 -12.5 205.5t-38.5 74.5q-35 0 -52 -113.5t-17 -273.5q0 -278 51 -278
q34 0 51.5 113zM206 743l153 188l112 -188l-1 -2l-125 63l-136 -63z" />
    <glyph glyph-name="Otilde" unicode="&#xd5;" horiz-adv-x="572" 
d="M88 70q-54 80 -54 208q0 112 38 211t109 160t164 61q108 0 162.5 -80.5t54.5 -207.5q0 -111 -38.5 -210.5t-109.5 -160.5t-163 -61q-109 0 -163 80zM339.5 131q17.5 113 17.5 272q0 131 -12.5 205.5t-38.5 74.5q-35 0 -52 -113.5t-17 -273.5q0 -278 51 -278
q34 0 51.5 113zM217.5 870.5q45.5 60.5 90.5 60.5q15 0 30.5 -7t37.5 -20q28 -17 46.5 -25t39.5 -8q32 0 53.5 19t32.5 41h7q-31 -70 -75 -129.5t-88 -59.5q-15 0 -29.5 6.5t-38.5 20.5q-29 17 -48 25t-40 8q-33 0 -54.5 -19.5t-31.5 -40.5h-7q29 68 74.5 128.5z" />
    <glyph glyph-name="Odieresis" unicode="&#xd6;" horiz-adv-x="572" 
d="M88 70q-54 80 -54 208q0 112 38 211t109 160t164 61q108 0 162.5 -80.5t54.5 -207.5q0 -111 -38.5 -210.5t-109.5 -160.5t-163 -61q-109 0 -163 80zM339.5 131q17.5 113 17.5 272q0 131 -12.5 205.5t-38.5 74.5q-35 0 -52 -113.5t-17 -273.5q0 -278 51 -278
q34 0 51.5 113zM185 767q-20 23 -20 57q0 38 26 67t62 29q30 0 50.5 -22t20.5 -53q0 -40 -27 -70.5t-62 -30.5q-30 0 -50 23zM392 767q-20 23 -20 57q0 38 26 67t62 29q30 0 50.5 -22t20.5 -53q0 -40 -27 -70.5t-62 -30.5q-30 0 -50 23z" />
    <glyph glyph-name="multiply" unicode="&#xd7;" horiz-adv-x="228" 
d="M134 303l66 -74l-16 -15l-66 75l-82 -75l-12 15l81 75l-66 75l16 14l66 -75l82 75l14 -14z" />
    <glyph glyph-name="Oslash" unicode="&#xd8;" horiz-adv-x="570" 
d="M526 599.5q36 -74.5 36 -177.5q0 -111 -38.5 -210.5t-109.5 -160.5t-163 -61q-20 0 -38 3l-27 -92h-28l28 98q-76 22 -114 97t-38 182q0 112 38 211t109 160t164 61q26 0 46 -4l27 94h28l-29 -101q73 -25 109 -99.5zM240 184l110 382q-11 117 -44 117q-35 0 -52 -113.5
t-17 -273.5q0 -62 3 -112zM339.5 131q17.5 113 17.5 272q0 58 -1 84l-110 -377q13 -92 42 -92q34 0 51.5 113z" />
    <glyph glyph-name="Ugrave" unicode="&#xd9;" horiz-adv-x="533" 
d="M114 42q-52 52 -52 133q0 18 1 27l32 314q8 72 8 102q0 38 -7.5 53t-26.5 29h285q-18 -14 -27 -28t-17 -49t-16 -107l-33 -314q-3 -27 -3 -50q0 -57 18.5 -88t56.5 -31q47 0 77.5 45.5t38.5 123.5l33 314q7 72 7 96q0 29 -4 45t-11 24t-21 19h125q-21 -14 -31.5 -28
t-19 -49t-16.5 -107l-33 -314q-10 -95 -61 -153.5t-153 -58.5q-98 0 -150 52zM271 835q5 22 39.5 55.5t56.5 40.5l97 -188l-2 -2z" />
    <glyph glyph-name="Uacute" unicode="&#xda;" horiz-adv-x="533" 
d="M114 42q-52 52 -52 133q0 18 1 27l32 314q8 72 8 102q0 38 -7.5 53t-26.5 29h285q-18 -14 -27 -28t-17 -49t-16 -107l-33 -314q-3 -27 -3 -50q0 -57 18.5 -88t56.5 -31q47 0 77.5 45.5t38.5 123.5l33 314q7 72 7 96q0 29 -4 45t-11 24t-21 19h125q-21 -14 -31.5 -28
t-19 -49t-16.5 -107l-33 -314q-10 -95 -61 -153.5t-153 -58.5q-98 0 -150 52zM291 743l138 188q20 -7 46.5 -40.5t27.5 -55.5l-209 -94z" />
    <glyph glyph-name="Ucircumflex" unicode="&#xdb;" horiz-adv-x="533" 
d="M114 42q-52 52 -52 133q0 18 1 27l32 314q8 72 8 102q0 38 -7.5 53t-26.5 29h285q-18 -14 -27 -28t-17 -49t-16 -107l-33 -314q-3 -27 -3 -50q0 -57 18.5 -88t56.5 -31q47 0 77.5 45.5t38.5 123.5l33 314q7 72 7 96q0 29 -4 45t-11 24t-21 19h125q-21 -14 -31.5 -28
t-19 -49t-16.5 -107l-33 -314q-10 -95 -61 -153.5t-153 -58.5q-98 0 -150 52zM232 743l153 188l112 -188l-1 -2l-125 63l-136 -63z" />
    <glyph glyph-name="Udieresis" unicode="&#xdc;" horiz-adv-x="533" 
d="M114 42q-52 52 -52 133q0 18 1 27l32 314q8 72 8 102q0 38 -7.5 53t-26.5 29h285q-18 -14 -27 -28t-17 -49t-16 -107l-33 -314q-3 -27 -3 -50q0 -57 18.5 -88t56.5 -31q47 0 77.5 45.5t38.5 123.5l33 314q7 72 7 96q0 29 -4 45t-11 24t-21 19h125q-21 -14 -31.5 -28
t-19 -49t-16.5 -107l-33 -314q-10 -95 -61 -153.5t-153 -58.5q-98 0 -150 52zM211 767q-20 23 -20 57q0 38 26 67t62 29q30 0 50.5 -22t20.5 -53q0 -40 -27 -70.5t-62 -30.5q-30 0 -50 23zM418 767q-20 23 -20 57q0 38 26 67t62 29q30 0 50.5 -22t20.5 -53q0 -40 -27 -70.5
t-62 -30.5q-30 0 -50 23z" />
    <glyph glyph-name="Yacute" unicode="&#xdd;" horiz-adv-x="522" 
d="M573 700q-34 -27 -69.5 -72.5t-65.5 -111.5l-60 -131l-20 -201q-7 -62 -7 -100q0 -39 7.5 -54.5t26.5 -29.5h-291q20 14 30.5 27.5t18.5 49t16 107.5l14 132l-45 200q-14 65 -37 111t-48 73h295q-15 -15 -15 -46q0 -17 4.5 -43t5.5 -34q7 -31 11 -61l16 -105l43 105
l17 41q20 48 29 73t9 43t-8 27h123zM239 743l138 188q20 -7 46.5 -40.5t27.5 -55.5l-209 -94z" />
    <glyph glyph-name="Thorn" unicode="&#xde;" horiz-adv-x="550" 
d="M466 195q-78 -61 -212 -62q-2 -36 -2 -47q0 -40 7.5 -56t26.5 -30h-291q21 14 31 27.5t18.5 49t16.5 107.5l34 332q8 72 8 102q0 38 -7.5 53t-26.5 29h290q-18 -12 -27.5 -23t-17 -36t-14.5 -74q122 -1 183 -52.5t61 -145.5q0 -113 -78 -174zM259 184l-3 -34
q55 2 77.5 82.5t22.5 178.5q0 72 -13.5 105t-44.5 34l-4 -34z" />
    <glyph glyph-name="germandbls" unicode="&#xdf;" horiz-adv-x="558" 
d="M274.5 0q-21.5 10 -29.5 24l10 116q6 -51 27.5 -92t51.5 -41q14 0 19.5 9.5t5.5 28.5q0 22 -9 46.5t-33 81.5l-36 87q-11 26 -15.5 43.5t-4.5 38.5q0 45 16.5 68t48.5 45q30 20 44.5 39t14.5 56q0 51 -30.5 81.5t-71.5 30.5q-29 0 -50 -15t-21 -38q0 -16 5.5 -29.5
t17.5 -33.5q11 -20 15 -30t3 -21l-42 -395q-3 -24 -3 -41q0 -20 7 -59h-223q33 39 39 100l35 336h-30q85 156 170 217.5t184 61.5q149 0 149 -109q0 -43 -19 -63.5t-54 -38.5q-25 -12 -37 -23.5t-12 -30.5q0 -11 7 -30.5t25 -63.5l37 -86q22 -54 34 -89t12 -62
q0 -40 -31 -69t-78 -44.5t-91 -15.5q-36 0 -57.5 10z" />
    <glyph glyph-name="agrave" unicode="&#xe0;" 
d="M420 104q0 -31 5.5 -45.5t14.5 -24.5l-212 -41l21 211q-15 -84 -50 -149t-95 -65q-45 0 -70.5 41t-25.5 118q0 88 34.5 171.5t100 136.5t151.5 53q32 0 83.5 -5.5t81.5 -13.5l-37 -347q-2 -16 -2 -40zM238.5 207q15.5 58 25.5 132t10 110q0 21 -5 30t-10 9q-18 0 -33 -46
t-23.5 -112.5t-8.5 -121.5q0 -34 3.5 -46.5t9.5 -12.5q16 0 31.5 58zM183 635q5 22 39.5 55.5t56.5 40.5l97 -188l-2 -2z" />
    <glyph glyph-name="aacute" unicode="&#xe1;" 
d="M420 104q0 -31 5.5 -45.5t14.5 -24.5l-212 -41l21 211q-15 -84 -50 -149t-95 -65q-45 0 -70.5 41t-25.5 118q0 88 34.5 171.5t100 136.5t151.5 53q32 0 83.5 -5.5t81.5 -13.5l-37 -347q-2 -16 -2 -40zM238.5 207q15.5 58 25.5 132t10 110q0 21 -5 30t-10 9q-18 0 -33 -46
t-23.5 -112.5t-8.5 -121.5q0 -34 3.5 -46.5t9.5 -12.5q16 0 31.5 58zM202 543l138 188q20 -7 46.5 -40.5t27.5 -55.5l-209 -94z" />
    <glyph glyph-name="acircumflex" unicode="&#xe2;" 
d="M420 104q0 -31 5.5 -45.5t14.5 -24.5l-212 -41l21 211q-15 -84 -50 -149t-95 -65q-45 0 -70.5 41t-25.5 118q0 88 34.5 171.5t100 136.5t151.5 53q32 0 83.5 -5.5t81.5 -13.5l-37 -347q-2 -16 -2 -40zM238.5 207q15.5 58 25.5 132t10 110q0 21 -5 30t-10 9q-18 0 -33 -46
t-23.5 -112.5t-8.5 -121.5q0 -34 3.5 -46.5t9.5 -12.5q16 0 31.5 58zM143 543l153 188l112 -188l-1 -2l-125 63l-136 -63z" />
    <glyph glyph-name="atilde" unicode="&#xe3;" 
d="M420 104q0 -31 5.5 -45.5t14.5 -24.5l-212 -41l21 211q-15 -84 -50 -149t-95 -65q-45 0 -70.5 41t-25.5 118q0 88 34.5 171.5t100 136.5t151.5 53q32 0 83.5 -5.5t81.5 -13.5l-37 -347q-2 -16 -2 -40zM238.5 207q15.5 58 25.5 132t10 110q0 21 -5 30t-10 9q-18 0 -33 -46
t-23.5 -112.5t-8.5 -121.5q0 -34 3.5 -46.5t9.5 -12.5q16 0 31.5 58zM154.5 670.5q45.5 60.5 90.5 60.5q15 0 30.5 -7t37.5 -20q28 -17 46.5 -25t39.5 -8q32 0 53.5 19t32.5 41h7q-31 -70 -75 -129.5t-88 -59.5q-15 0 -29.5 6.5t-38.5 20.5q-29 17 -48 25t-40 8
q-33 0 -54.5 -19.5t-31.5 -40.5h-7q29 68 74.5 128.5z" />
    <glyph glyph-name="adieresis" unicode="&#xe4;" 
d="M420 104q0 -31 5.5 -45.5t14.5 -24.5l-212 -41l21 211q-15 -84 -50 -149t-95 -65q-45 0 -70.5 41t-25.5 118q0 88 34.5 171.5t100 136.5t151.5 53q32 0 83.5 -5.5t81.5 -13.5l-37 -347q-2 -16 -2 -40zM238.5 207q15.5 58 25.5 132t10 110q0 21 -5 30t-10 9q-18 0 -33 -46
t-23.5 -112.5t-8.5 -121.5q0 -34 3.5 -46.5t9.5 -12.5q16 0 31.5 58zM122 567q-20 23 -20 57q0 38 26 67t62 29q30 0 50.5 -22t20.5 -53q0 -40 -27 -70.5t-62 -30.5q-30 0 -50 23zM329 567q-20 23 -20 57q0 38 26 67t62 29q30 0 50.5 -22t20.5 -53q0 -40 -27 -70.5
t-62 -30.5q-30 0 -50 23z" />
    <glyph glyph-name="aring" unicode="&#xe5;" 
d="M420 104q0 -31 5.5 -45.5t14.5 -24.5l-212 -41l21 211q-15 -84 -50 -149t-95 -65q-45 0 -70.5 41t-25.5 118q0 88 34.5 171.5t100 136.5t151.5 53q32 0 83.5 -5.5t81.5 -13.5l-37 -347q-2 -16 -2 -40zM238.5 207q15.5 58 25.5 132t10 110q0 21 -5 30t-10 9q-18 0 -33 -46
t-23.5 -112.5t-8.5 -121.5q0 -34 3.5 -46.5t9.5 -12.5q16 0 31.5 58zM233.5 583.5q-17.5 20.5 -17.5 50.5q0 34 23.5 60t54.5 26q27 0 45 -20t18 -48q0 -36 -23.5 -62.5t-55.5 -26.5q-27 0 -44.5 20.5zM323 599q19 22 19 51q0 24 -13.5 40t-35.5 16q-26 0 -44.5 -21.5
t-18.5 -51.5q0 -24 13.5 -40t35.5 -16q25 0 44 22z" />
    <glyph glyph-name="ae" unicode="&#xe6;" horiz-adv-x="640" 
d="M588 100.5q15 4.5 21 11.5q-15 -51 -56 -86.5t-102 -35.5q-60 0 -104.5 30t-68.5 83t-24 121q0 14 2 42l-1 2q0 -42 -15.5 -108.5t-49.5 -118t-86 -51.5q-45 0 -70.5 41t-25.5 118q0 88 34.5 171.5t100 136.5t151.5 53q29 0 60.5 -5.5t53.5 -12.5q41 18 89 18
q62 0 93.5 -28t31.5 -79q0 -47 -36 -81t-125 -72q-16 -7 -22 -17.5t-6 -30.5q0 -50 35 -78t85 -28q20 0 35 4.5zM238.5 206.5q15.5 57.5 25.5 131t10 107.5q0 24 -5 33.5t-10 9.5q-18 0 -33 -46t-23.5 -112.5t-8.5 -121.5q0 -34 3.5 -46.5t9.5 -12.5q16 0 31.5 57.5z
M440 431q-12 -53 -12 -106q0 -52 21 -52q22 0 34 51.5t12 107.5q0 52 -21 52q-22 0 -34 -53z" />
    <glyph glyph-name="ccedilla" unicode="&#xe7;" horiz-adv-x="380" 
d="M348 112q-17 -44 -48 -76t-79 -42q-19 -20 -19 -39t12 -34t31 -30q2 -2 10.5 -9.5t8.5 -12.5q0 -21 -27.5 -47t-63.5 -45t-55 -19q-13 0 -20 8t-7 20q0 10 7.5 14t21.5 4q7 0 23 -2l22 -1q25 0 25 15q0 11 -9.5 22.5t-26.5 26.5q-14 12 -21 20.5t-7 15.5q0 11 18 31
t57 59q-6 -1 -19 -1q-78 0 -123 57.5t-45 146.5q0 83 36 156t99.5 116.5t141.5 43.5q47 0 78 -16l-32 -228h-1l-21 84q-19 77 -30.5 107t-27.5 30q-14 0 -30.5 -24t-28 -66.5t-11.5 -93.5q0 -81 26.5 -144t86.5 -63q33 0 48 16z" />
    <glyph glyph-name="egrave" unicode="&#xe8;" horiz-adv-x="403" 
d="M108.5 20q-44.5 30 -68.5 83t-24 121q0 79 31 144.5t86.5 103.5t125.5 38q62 0 94 -28t32 -79q0 -47 -36 -81t-125 -72q-16 -7 -22 -17.5t-6 -30.5q0 -50 34.5 -78t84.5 -28q20 0 35.5 4.5t20.5 11.5q-14 -50 -55 -86t-103 -36q-60 0 -104.5 30zM246 324q12 51 12 108
q0 52 -21 52q-23 0 -35 -52.5t-12 -106.5q0 -52 21 -52q23 0 35 51zM161 635q5 22 39.5 55.5t56.5 40.5l97 -188l-2 -2z" />
    <glyph glyph-name="eacute" unicode="&#xe9;" horiz-adv-x="403" 
d="M108.5 20q-44.5 30 -68.5 83t-24 121q0 79 31 144.5t86.5 103.5t125.5 38q62 0 94 -28t32 -79q0 -47 -36 -81t-125 -72q-16 -7 -22 -17.5t-6 -30.5q0 -50 34.5 -78t84.5 -28q20 0 35.5 4.5t20.5 11.5q-14 -50 -55 -86t-103 -36q-60 0 -104.5 30zM246 324q12 51 12 108
q0 52 -21 52q-23 0 -35 -52.5t-12 -106.5q0 -52 21 -52q23 0 35 51zM180 543l138 188q20 -7 46.5 -40.5t27.5 -55.5l-209 -94z" />
    <glyph glyph-name="ecircumflex" unicode="&#xea;" horiz-adv-x="403" 
d="M108.5 20q-44.5 30 -68.5 83t-24 121q0 79 31 144.5t86.5 103.5t125.5 38q62 0 94 -28t32 -79q0 -47 -36 -81t-125 -72q-16 -7 -22 -17.5t-6 -30.5q0 -50 34.5 -78t84.5 -28q20 0 35.5 4.5t20.5 11.5q-14 -50 -55 -86t-103 -36q-60 0 -104.5 30zM246 324q12 51 12 108
q0 52 -21 52q-23 0 -35 -52.5t-12 -106.5q0 -52 21 -52q23 0 35 51zM122 543l153 188l112 -188l-1 -2l-125 63l-136 -63z" />
    <glyph glyph-name="edieresis" unicode="&#xeb;" horiz-adv-x="403" 
d="M108.5 20q-44.5 30 -68.5 83t-24 121q0 79 31 144.5t86.5 103.5t125.5 38q62 0 94 -28t32 -79q0 -47 -36 -81t-125 -72q-16 -7 -22 -17.5t-6 -30.5q0 -50 34.5 -78t84.5 -28q20 0 35.5 4.5t20.5 11.5q-14 -50 -55 -86t-103 -36q-60 0 -104.5 30zM246 324q12 51 12 108
q0 52 -21 52q-23 0 -35 -52.5t-12 -106.5q0 -52 21 -52q23 0 35 51zM100 567q-20 23 -20 57q0 38 26 67t62 29q30 0 50.5 -22t20.5 -53q0 -40 -27 -70.5t-62 -30.5q-30 0 -50 23zM307 567q-20 23 -20 57q0 38 26 67t62 29q30 0 50.5 -22t20.5 -53q0 -40 -27 -70.5t-62 -30.5
q-30 0 -50 23z" />
    <glyph glyph-name="igrave" unicode="&#xec;" horiz-adv-x="271" 
d="M15 35.5q10 19.5 15 64.5l28 258q2 15 2 40q0 50 -19 80l212 32l-44 -410q-1 -10 -1 -28q0 -30 5.5 -44t15.5 -28h-239q15 16 25 35.5zM73 635q5 22 39.5 55.5t56.5 40.5l97 -188l-2 -2z" />
    <glyph glyph-name="iacute" unicode="&#xed;" horiz-adv-x="271" 
d="M15 35.5q10 19.5 15 64.5l28 258q2 15 2 40q0 50 -19 80l212 32l-44 -410q-1 -10 -1 -28q0 -30 5.5 -44t15.5 -28h-239q15 16 25 35.5zM93 543l138 188q20 -7 46.5 -40.5t27.5 -55.5l-209 -94z" />
    <glyph glyph-name="icircumflex" unicode="&#xee;" horiz-adv-x="271" 
d="M15 35.5q10 19.5 15 64.5l28 258q2 15 2 40q0 50 -19 80l212 32l-44 -410q-1 -10 -1 -28q0 -30 5.5 -44t15.5 -28h-239q15 16 25 35.5zM34 543l153 188l112 -188l-1 -2l-125 63l-136 -63z" />
    <glyph glyph-name="idieresis" unicode="&#xef;" horiz-adv-x="271" 
d="M15 35.5q10 19.5 15 64.5l28 258q2 15 2 40q0 50 -19 80l212 32l-44 -410q-1 -10 -1 -28q0 -30 5.5 -44t15.5 -28h-239q15 16 25 35.5zM13 567q-20 23 -20 57q0 38 26 67t62 29q30 0 50.5 -22t20.5 -53q0 -40 -27 -70.5t-62 -30.5q-30 0 -50 23zM220 567q-20 23 -20 57
q0 38 26 67t62 29q30 0 50.5 -22t20.5 -53q0 -40 -27 -70.5t-62 -30.5q-30 0 -50 23z" />
    <glyph glyph-name="eth" unicode="&#xf0;" horiz-adv-x="479" 
d="M442 513q21 -68 21 -148q0 -97 -30.5 -183t-89 -139t-138.5 -53q-88 0 -139.5 56.5t-51.5 160.5q0 63 19.5 119.5t56.5 91t87 34.5q36 0 64 -19t38 -55q-3 1 -10 1q-29 0 -48.5 -44.5t-29.5 -110.5t-10 -128q0 -84 18 -84q21 0 40 75.5t31 181t12 181.5q0 64 -7 109
l-58 -37l-9 15l64 40q-26 123 -108 123q25 10 63 10q83 0 146 -69l57 36l8 -15l-54 -34q37 -47 58 -115z" />
    <glyph glyph-name="ntilde" unicode="&#xf1;" horiz-adv-x="522" 
d="M456 100q-2 -13 -2 -33q0 -24 5 -37.5t10 -20.5t6 -9h-238q1 2 10.5 12.5t17.5 33.5t11 54l22 205q5 45 5 75q0 25 -5 25q-6 0 -24.5 -42.5t-37 -111t-27.5 -149.5v-2q-4 -45 -4 -71q0 -18 3 -29h-218q15 16 25 35.5t15 64.5l28 258q2 15 2 40q0 50 -19 80l212 32
l-23 -211q27 110 81 160.5t118 50.5q31 0 47 -13t16 -50q0 -14 -1 -22zM186.5 670.5q45.5 60.5 90.5 60.5q15 0 30.5 -7t37.5 -20q28 -17 46.5 -25t39.5 -8q32 0 53.5 19t32.5 41h7q-31 -70 -75 -129.5t-88 -59.5q-15 0 -29.5 6.5t-38.5 20.5q-29 17 -48 25t-40 8
q-33 0 -54.5 -19.5t-31.5 -40.5h-7q29 68 74.5 128.5z" />
    <glyph glyph-name="ograve" unicode="&#xf2;" horiz-adv-x="451" 
d="M54 44q-42 54 -42 146q0 84 34 158t94 118t134 44q80 0 122.5 -54t42.5 -144q0 -85 -34 -159t-94 -118.5t-134 -44.5q-81 0 -123 54zM247.5 102.5q8.5 87.5 8.5 210.5q0 86 -5 129t-19 43q-21 0 -29.5 -89t-8.5 -211q0 -84 5.5 -127t19.5 -43q20 0 28.5 87.5zM172 635
q5 22 39.5 55.5t56.5 40.5l97 -188l-2 -2z" />
    <glyph glyph-name="oacute" unicode="&#xf3;" horiz-adv-x="451" 
d="M54 44q-42 54 -42 146q0 84 34 158t94 118t134 44q80 0 122.5 -54t42.5 -144q0 -85 -34 -159t-94 -118.5t-134 -44.5q-81 0 -123 54zM247.5 102.5q8.5 87.5 8.5 210.5q0 86 -5 129t-19 43q-21 0 -29.5 -89t-8.5 -211q0 -84 5.5 -127t19.5 -43q20 0 28.5 87.5zM192 543
l138 188q20 -7 46.5 -40.5t27.5 -55.5l-209 -94z" />
    <glyph glyph-name="ocircumflex" unicode="&#xf4;" horiz-adv-x="451" 
d="M54 44q-42 54 -42 146q0 84 34 158t94 118t134 44q80 0 122.5 -54t42.5 -144q0 -85 -34 -159t-94 -118.5t-134 -44.5q-81 0 -123 54zM247.5 102.5q8.5 87.5 8.5 210.5q0 86 -5 129t-19 43q-21 0 -29.5 -89t-8.5 -211q0 -84 5.5 -127t19.5 -43q20 0 28.5 87.5zM133 543
l153 188l112 -188l-1 -2l-125 63l-136 -63z" />
    <glyph glyph-name="otilde" unicode="&#xf5;" horiz-adv-x="451" 
d="M54 44q-42 54 -42 146q0 84 34 158t94 118t134 44q80 0 122.5 -54t42.5 -144q0 -85 -34 -159t-94 -118.5t-134 -44.5q-81 0 -123 54zM247.5 102.5q8.5 87.5 8.5 210.5q0 86 -5 129t-19 43q-21 0 -29.5 -89t-8.5 -211q0 -84 5.5 -127t19.5 -43q20 0 28.5 87.5z
M144.5 670.5q45.5 60.5 90.5 60.5q15 0 30.5 -7t37.5 -20q28 -17 46.5 -25t39.5 -8q32 0 53.5 19t32.5 41h7q-31 -70 -75 -129.5t-88 -59.5q-15 0 -29.5 6.5t-38.5 20.5q-29 17 -48 25t-40 8q-33 0 -54.5 -19.5t-31.5 -40.5h-7q29 68 74.5 128.5z" />
    <glyph glyph-name="odieresis" unicode="&#xf6;" horiz-adv-x="451" 
d="M54 44q-42 54 -42 146q0 84 34 158t94 118t134 44q80 0 122.5 -54t42.5 -144q0 -85 -34 -159t-94 -118.5t-134 -44.5q-81 0 -123 54zM247.5 102.5q8.5 87.5 8.5 210.5q0 86 -5 129t-19 43q-21 0 -29.5 -89t-8.5 -211q0 -84 5.5 -127t19.5 -43q20 0 28.5 87.5zM112 567
q-20 23 -20 57q0 38 26 67t62 29q30 0 50.5 -22t20.5 -53q0 -40 -27 -70.5t-62 -30.5q-30 0 -50 23zM319 567q-20 23 -20 57q0 38 26 67t62 29q30 0 50.5 -22t20.5 -53q0 -40 -27 -70.5t-62 -30.5q-30 0 -50 23z" />
    <glyph glyph-name="divide" unicode="&#xf7;" horiz-adv-x="280" 
d="M143.5 397.5q-5.5 5.5 -5.5 12.5q0 8 6.5 14.5t15.5 6.5q7 0 12 -5t5 -12q0 -9 -6.5 -15.5t-14.5 -6.5q-7 0 -12.5 5.5zM32 314h230l-2 -21h-230zM120.5 182q-5.5 5 -5.5 12q0 9 6.5 15.5t15.5 6.5q7 0 12 -5.5t5 -12.5q0 -8 -6.5 -14.5t-14.5 -6.5q-7 0 -12.5 5z" />
    <glyph glyph-name="oslash" unicode="&#xf8;" horiz-adv-x="445" 
d="M407.5 440.5q31.5 -51.5 31.5 -128.5q0 -85 -34 -159t-94 -118.5t-134 -44.5h-4l-25 -89h-27l25 91q-66 10 -100 62.5t-34 135.5q0 84 34 158t94 118t134 44q11 0 16 -1l23 85h27l-24 -88q60 -14 91.5 -65.5zM194 165l61 219q-3 101 -23 101q-21 0 -29.5 -89t-8.5 -211
v-20zM246.5 95q8.5 80 9.5 196l-59 -212q6 -64 22 -64q19 0 27.5 80z" />
    <glyph glyph-name="ugrave" unicode="&#xf9;" horiz-adv-x="521" 
d="M40 3q-16 13 -16 50q0 14 1 22l33 306q1 8 1 24q0 46 -18 73l212 32l-34 -315q-6 -46 -6 -77q0 -23 5 -23t25.5 49t39 115.5t21.5 125.5q1 36 -4 59t-13 34l212 32l-43 -388q-1 -8 -1 -22q0 -52 21 -78l-212 -32l21 208q-27 -107 -80.5 -157.5t-117.5 -50.5q-31 0 -47 13
zM203 635q5 22 39.5 55.5t56.5 40.5l97 -188l-2 -2z" />
    <glyph glyph-name="uacute" unicode="&#xfa;" horiz-adv-x="521" 
d="M40 3q-16 13 -16 50q0 14 1 22l33 306q1 8 1 24q0 46 -18 73l212 32l-34 -315q-6 -46 -6 -77q0 -23 5 -23t25.5 49t39 115.5t21.5 125.5q1 36 -4 59t-13 34l212 32l-43 -388q-1 -8 -1 -22q0 -52 21 -78l-212 -32l21 208q-27 -107 -80.5 -157.5t-117.5 -50.5q-31 0 -47 13
zM222 543l138 188q20 -7 46.5 -40.5t27.5 -55.5l-209 -94z" />
    <glyph glyph-name="ucircumflex" unicode="&#xfb;" horiz-adv-x="521" 
d="M40 3q-16 13 -16 50q0 14 1 22l33 306q1 8 1 24q0 46 -18 73l212 32l-34 -315q-6 -46 -6 -77q0 -23 5 -23t25.5 49t39 115.5t21.5 125.5q1 36 -4 59t-13 34l212 32l-43 -388q-1 -8 -1 -22q0 -52 21 -78l-212 -32l21 208q-27 -107 -80.5 -157.5t-117.5 -50.5q-31 0 -47 13
zM163 543l153 188l112 -188l-1 -2l-125 63l-136 -63z" />
    <glyph glyph-name="udieresis" unicode="&#xfc;" horiz-adv-x="521" 
d="M40 3q-16 13 -16 50q0 14 1 22l33 306q1 8 1 24q0 46 -18 73l212 32l-34 -315q-6 -46 -6 -77q0 -23 5 -23t25.5 49t39 115.5t21.5 125.5q1 36 -4 59t-13 34l212 32l-43 -388q-1 -8 -1 -22q0 -52 21 -78l-212 -32l21 208q-27 -107 -80.5 -157.5t-117.5 -50.5q-31 0 -47 13
zM142 567q-20 23 -20 57q0 38 26 67t62 29q30 0 50.5 -22t20.5 -53q0 -40 -27 -70.5t-62 -30.5q-30 0 -50 23zM349 567q-20 23 -20 57q0 38 26 67t62 29q30 0 50.5 -22t20.5 -53q0 -40 -27 -70.5t-62 -30.5q-30 0 -50 23z" />
    <glyph glyph-name="yacute" unicode="&#xfd;" horiz-adv-x="423" 
d="M420 445q0 -78 -59 -197t-126 -213t-58 -61q-48 -68 -98.5 -110t-96.5 -42q-16 0 -27 5.5t-13 10.5l46 124q20 -9 62 -9q57 0 86 16t29 55q0 18 -6 42l-69 273q-20 84 -33 116t-34 45h237q-15 -15 -15 -47q0 -37 17 -114l34 -151q36 46 36 106q0 47 -21.5 80.5
t-51.5 33.5l138 107q23 -24 23 -70zM237 138q17 10 27 18zM150 543l138 188q20 -7 46.5 -40.5t27.5 -55.5l-209 -94z" />
    <glyph glyph-name="thorn" unicode="&#xfe;" 
d="M9 -99l73 677q3 32 3 52q0 34 -5.5 49.5t-14.5 25.5l212 30l-49 -457q13 90 48.5 161t99.5 71q45 0 70.5 -41t25.5 -118q0 -87 -34 -170.5t-96 -137t-143 -53.5l-5 -47q-1 -9 -1 -25q0 -45 19 -75l-243 -42q34 36 40 100zM253.5 58q14.5 46 23 113t8.5 123q0 34 -3 45.5
t-10 11.5q-15 0 -30.5 -58t-26 -132.5t-10.5 -109.5q0 -22 5 -30.5t11 -8.5q18 0 32.5 46z" />
    <glyph glyph-name="ydieresis" unicode="&#xff;" horiz-adv-x="423" 
d="M420 445q0 -78 -59 -197t-126 -213t-58 -61q-48 -68 -98.5 -110t-96.5 -42q-16 0 -27 5.5t-13 10.5l46 124q20 -9 62 -9q57 0 86 16t29 55q0 18 -6 42l-69 273q-20 84 -33 116t-34 45h237q-15 -15 -15 -47q0 -37 17 -114l34 -151q36 46 36 106q0 47 -21.5 80.5
t-51.5 33.5l138 107q23 -24 23 -70zM237 138q17 10 27 18zM70 567q-20 23 -20 57q0 38 26 67t62 29q30 0 50.5 -22t20.5 -53q0 -40 -27 -70.5t-62 -30.5q-30 0 -50 23zM277 567q-20 23 -20 57q0 38 26 67t62 29q30 0 50.5 -22t20.5 -53q0 -40 -27 -70.5t-62 -30.5
q-30 0 -50 23z" />
    <glyph glyph-name="Amacron" unicode="&#x100;" horiz-adv-x="500" 
d="M218 56q0 27 -12 94h-104q-23 -72 -23 -107q0 -26 12 -43h-121q28 22 53.5 64.5t58.5 119.5l216 532l115 -532q18 -82 31.5 -122.5t33.5 -61.5h-278q18 18 18 56zM201 179l-1 5l-28 160l-58 -160l-2 -5h89zM174 889h319l-41 -97h-319z" />
    <glyph glyph-name="amacron" unicode="&#x101;" 
d="M420 104q0 -31 5.5 -45.5t14.5 -24.5l-212 -41l21 211q-15 -84 -50 -149t-95 -65q-45 0 -70.5 41t-25.5 118q0 88 34.5 171.5t100 136.5t151.5 53q32 0 83.5 -5.5t81.5 -13.5l-37 -347q-2 -16 -2 -40zM238.5 207q15.5 58 25.5 132t10 110q0 21 -5 30t-10 9q-18 0 -33 -46
t-23.5 -112.5t-8.5 -121.5q0 -34 3.5 -46.5t9.5 -12.5q16 0 31.5 58zM148 689h319l-41 -97h-319z" />
    <glyph glyph-name="Abreve" unicode="&#x102;" horiz-adv-x="500" 
d="M218 56q0 27 -12 94h-104q-23 -72 -23 -107q0 -26 12 -43h-121q28 22 53.5 64.5t58.5 119.5l216 532l115 -532q18 -82 31.5 -122.5t33.5 -61.5h-278q18 18 18 56zM201 179l-1 5l-28 160l-58 -160l-2 -5h89zM233 784.5q-26 28.5 -26 69.5l1 13q3 31 16 53h3q-3 -33 18 -56
t68 -23q48 0 73 23.5t28 55.5h3q5 -16 5 -38q0 -33 -15 -62t-42.5 -46.5t-61.5 -17.5q-44 0 -70 28.5z" />
    <glyph glyph-name="abreve" unicode="&#x103;" 
d="M420 104q0 -31 5.5 -45.5t14.5 -24.5l-212 -41l21 211q-15 -84 -50 -149t-95 -65q-45 0 -70.5 41t-25.5 118q0 88 34.5 171.5t100 136.5t151.5 53q32 0 83.5 -5.5t81.5 -13.5l-37 -347q-2 -16 -2 -40zM238.5 207q15.5 58 25.5 132t10 110q0 21 -5 30t-10 9q-18 0 -33 -46
t-23.5 -112.5t-8.5 -121.5q0 -34 3.5 -46.5t9.5 -12.5q16 0 31.5 58zM207 584.5q-26 28.5 -26 69.5l1 13q3 31 16 53h3q-3 -33 18 -56t68 -23q48 0 73 23.5t28 55.5h3q5 -16 5 -38q0 -33 -15 -62t-42.5 -46.5t-61.5 -17.5q-44 0 -70 28.5z" />
    <glyph glyph-name="Cacute" unicode="&#x106;" horiz-adv-x="494" 
d="M145.5 28.5q-51.5 38.5 -81.5 109t-30 162.5q0 108 41 202.5t118 151t178 56.5q55 0 109 -17q0 -84 -5 -222l-1 -38h-3q-20 40 -49 101q-40 85 -61.5 116.5t-48.5 31.5q-38 0 -55 -88.5t-17 -188.5q0 -122 38.5 -208t116.5 -86q40 0 60 19q-10 -30 -37 -62.5t-68 -55
t-90 -22.5q-63 0 -114.5 38.5zM284 743l138 188q20 -7 46.5 -40.5t27.5 -55.5l-209 -94z" />
    <glyph glyph-name="cacute" unicode="&#x107;" horiz-adv-x="380" 
d="M59 47.5q-45 57.5 -45 146.5q0 83 36 156t99.5 116.5t141.5 43.5q47 0 78 -16l-32 -228h-1l-21 84q-19 77 -30.5 107t-27.5 30q-14 0 -30.5 -24t-28 -66.5t-11.5 -93.5q0 -81 26.5 -144t86.5 -63q33 0 48 16q-20 -53 -61 -87.5t-105 -34.5q-78 0 -123 57.5zM190 543
l138 188q20 -7 46.5 -40.5t27.5 -55.5l-209 -94z" />
    <glyph glyph-name="Cdotaccent" unicode="&#x10a;" horiz-adv-x="494" 
d="M145.5 28.5q-51.5 38.5 -81.5 109t-30 162.5q0 108 41 202.5t118 151t178 56.5q55 0 109 -17q0 -84 -5 -222l-1 -38h-3q-20 40 -49 101q-40 85 -61.5 116.5t-48.5 31.5q-38 0 -55 -88.5t-17 -188.5q0 -122 38.5 -208t116.5 -86q40 0 60 19q-10 -30 -37 -62.5t-68 -55
t-90 -22.5q-63 0 -114.5 38.5zM308.5 767q-19.5 23 -19.5 57q0 38 26 67t61 29q30 0 50.5 -22t20.5 -53q0 -41 -26.5 -71t-62.5 -30q-30 0 -49.5 23z" />
    <glyph glyph-name="cdotaccent" unicode="&#x10b;" horiz-adv-x="380" 
d="M59 47.5q-45 57.5 -45 146.5q0 83 36 156t99.5 116.5t141.5 43.5q47 0 78 -16l-32 -228h-1l-21 84q-19 77 -30.5 107t-27.5 30q-14 0 -30.5 -24t-28 -66.5t-11.5 -93.5q0 -81 26.5 -144t86.5 -63q33 0 48 16q-20 -53 -61 -87.5t-105 -34.5q-78 0 -123 57.5zM214.5 567
q-19.5 23 -19.5 57q0 38 26 67t61 29q30 0 50.5 -22t20.5 -53q0 -41 -26.5 -71t-62.5 -30q-30 0 -49.5 23z" />
    <glyph glyph-name="Ccaron" unicode="&#x10c;" horiz-adv-x="494" 
d="M145.5 28.5q-51.5 38.5 -81.5 109t-30 162.5q0 108 41 202.5t118 151t178 56.5q55 0 109 -17q0 -84 -5 -222l-1 -38h-3q-20 40 -49 101q-40 85 -61.5 116.5t-48.5 31.5q-38 0 -55 -88.5t-17 -188.5q0 -122 38.5 -208t116.5 -86q40 0 60 19q-10 -30 -37 -62.5t-68 -55
t-90 -22.5q-63 0 -114.5 38.5zM244 929l3 2l123 -63l139 63l1 -2l-152 -188z" />
    <glyph glyph-name="ccaron" unicode="&#x10d;" horiz-adv-x="380" 
d="M59 47.5q-45 57.5 -45 146.5q0 83 36 156t99.5 116.5t141.5 43.5q47 0 78 -16l-32 -228h-1l-21 84q-19 77 -30.5 107t-27.5 30q-14 0 -30.5 -24t-28 -66.5t-11.5 -93.5q0 -81 26.5 -144t86.5 -63q33 0 48 16q-20 -53 -61 -87.5t-105 -34.5q-78 0 -123 57.5zM151 729l3 2
l123 -63l139 63l1 -2l-152 -188z" />
    <glyph glyph-name="Dcaron" unicode="&#x10e;" horiz-adv-x="587" 
d="M26 27.5q10 13.5 18.5 49t16.5 107.5l34 332q8 72 8 102q0 38 -7.5 53t-26.5 29h261q63 0 118.5 -32.5t90 -98.5t34.5 -163q0 -105 -40 -198.5t-113 -150.5t-168 -57h-257q21 14 31 27.5zM330.5 101q17.5 74 26 176.5t8.5 188.5q0 97 -9.5 152t-28.5 55q-10 0 -16 -25.5
t-14 -101.5l-40 -384q-4 -32 -4 -60q0 -75 33 -75q27 0 44.5 74zM240 929l3 2l123 -63l139 63l1 -2l-152 -188z" />
    <glyph glyph-name="dcaron" unicode="&#x10f;" 
d="M658 731.5q37 -21.5 46 -41.5l-158 -166h-4l58 227q21 2 58 -19.5zM422 144q-2 -16 -2 -40q0 -31 5.5 -45.5t14.5 -24.5l-212 -41l21 211q-15 -84 -50 -149t-95 -65q-45 0 -70.5 41t-25.5 118q0 86 33 167.5t95.5 135.5t145.5 58l6 60q3 27 3 48q0 55 -19 82l214 35z
M237.5 203q14.5 54 26.5 132l9 94q1 8 1 20q0 21 -5 30t-10 9q-18 0 -33 -46t-23.5 -112.5t-8.5 -121.5q0 -34 3.5 -46.5t9.5 -12.5q16 0 30.5 54z" />
    <glyph glyph-name="Dcroat" unicode="&#x110;" horiz-adv-x="584" 
d="M448.5 667.5q55.5 -32.5 90 -98.5t34.5 -163q0 -105 -40 -198.5t-113 -150.5t-168 -57h-257q21 14 31 27.5t18.5 49t16.5 107.5l16 154h-67v17h69l16 161q8 72 8 102q0 38 -7.5 53t-26.5 29h261q63 0 118.5 -32.5zM330.5 101q17.5 74 26 176.5t8.5 188.5q0 97 -9.5 152
t-28.5 55q-10 0 -16 -25.5t-14 -101.5l-19 -182l32 2l-10 -28h-25l-18 -176q-4 -32 -4 -60q0 -75 33 -75q27 0 44.5 74z" />
    <glyph glyph-name="dcroat" unicode="&#x111;" horiz-adv-x="515" 
d="M422 144q-2 -16 -2 -40q0 -31 5.5 -45.5t14.5 -24.5l-212 -41l21 211q-15 -84 -50 -149t-95 -65q-45 0 -70.5 41t-25.5 118q0 86 33 167.5t95.5 135.5t145.5 58l6 60l1 9h-102v17h103l1 23q0 33 -5.5 50.5t-13.5 30.5l214 35l-14 -130l43 2l-10 -28h-36zM237.5 203
q14.5 54 26.5 132l9 94q1 8 1 20q0 21 -5 30t-10 9q-18 0 -33 -46t-23.5 -112.5t-8.5 -121.5q0 -34 3.5 -46.5t9.5 -12.5q16 0 30.5 54z" />
    <glyph glyph-name="Emacron" unicode="&#x112;" horiz-adv-x="508" 
d="M494 278l-52 -278h-447q21 14 31 27.5t18.5 49t16.5 107.5l34 332q8 72 8 102q0 38 -7.5 53t-26.5 29h420l-11 -262h-3q-72 236 -130 236q-24 0 -33 -31t-16 -106l-2 -20l-17 -164l2 20v-5q0 -16 10 -16q17 0 41 13.5t48.5 43.5t40.5 76h3l-30 -291h-3q-6 47 -24.5 76.5
t-39.5 43t-38 13.5q-4 0 -8.5 -5.5t-6.5 -13.5l-13 -123l-3 -23q-7 -59 -7 -85q0 -25 7 -38t23 -13q15 0 44 19t73 75t94 158h4zM196 889h319l-41 -97h-319z" />
    <glyph glyph-name="emacron" unicode="&#x113;" horiz-adv-x="403" 
d="M108.5 20q-44.5 30 -68.5 83t-24 121q0 79 31 144.5t86.5 103.5t125.5 38q62 0 94 -28t32 -79q0 -47 -36 -81t-125 -72q-16 -7 -22 -17.5t-6 -30.5q0 -50 34.5 -78t84.5 -28q20 0 35.5 4.5t20.5 11.5q-14 -50 -55 -86t-103 -36q-60 0 -104.5 30zM246 324q12 51 12 108
q0 52 -21 52q-23 0 -35 -52.5t-12 -106.5q0 -52 21 -52q23 0 35 51zM126 689h319l-41 -97h-319z" />
    <glyph glyph-name="Edotaccent" unicode="&#x116;" horiz-adv-x="508" 
d="M494 278l-52 -278h-447q21 14 31 27.5t18.5 49t16.5 107.5l34 332q8 72 8 102q0 38 -7.5 53t-26.5 29h420l-11 -262h-3q-72 236 -130 236q-24 0 -33 -31t-16 -106l-2 -20l-17 -164l2 20v-5q0 -16 10 -16q17 0 41 13.5t48.5 43.5t40.5 76h3l-30 -291h-3q-6 47 -24.5 76.5
t-39.5 43t-38 13.5q-4 0 -8.5 -5.5t-6.5 -13.5l-13 -123l-3 -23q-7 -59 -7 -85q0 -25 7 -38t23 -13q15 0 44 19t73 75t94 158h4zM274.5 767q-19.5 23 -19.5 57q0 38 26 67t61 29q30 0 50.5 -22t20.5 -53q0 -41 -26.5 -71t-62.5 -30q-30 0 -49.5 23z" />
    <glyph glyph-name="edotaccent" unicode="&#x117;" horiz-adv-x="403" 
d="M108.5 20q-44.5 30 -68.5 83t-24 121q0 79 31 144.5t86.5 103.5t125.5 38q62 0 94 -28t32 -79q0 -47 -36 -81t-125 -72q-16 -7 -22 -17.5t-6 -30.5q0 -50 34.5 -78t84.5 -28q20 0 35.5 4.5t20.5 11.5q-14 -50 -55 -86t-103 -36q-60 0 -104.5 30zM246 324q12 51 12 108
q0 52 -21 52q-23 0 -35 -52.5t-12 -106.5q0 -52 21 -52q23 0 35 51zM204.5 567q-19.5 23 -19.5 57q0 38 26 67t61 29q30 0 50.5 -22t20.5 -53q0 -41 -26.5 -71t-62.5 -30q-30 0 -49.5 23z" />
    <glyph glyph-name="Ecaron" unicode="&#x11a;" horiz-adv-x="508" 
d="M494 278l-52 -278h-447q21 14 31 27.5t18.5 49t16.5 107.5l34 332q8 72 8 102q0 38 -7.5 53t-26.5 29h420l-11 -262h-3q-72 236 -130 236q-24 0 -33 -31t-16 -106l-2 -20l-17 -164l2 20v-5q0 -16 10 -16q17 0 41 13.5t48.5 43.5t40.5 76h3l-30 -291h-3q-6 47 -24.5 76.5
t-39.5 43t-38 13.5q-4 0 -8.5 -5.5t-6.5 -13.5l-13 -123l-3 -23q-7 -59 -7 -85q0 -25 7 -38t23 -13q15 0 44 19t73 75t94 158h4zM211 929l3 2l123 -63l139 63l1 -2l-152 -188z" />
    <glyph glyph-name="ecaron" unicode="&#x11b;" horiz-adv-x="403" 
d="M108.5 20q-44.5 30 -68.5 83t-24 121q0 79 31 144.5t86.5 103.5t125.5 38q62 0 94 -28t32 -79q0 -47 -36 -81t-125 -72q-16 -7 -22 -17.5t-6 -30.5q0 -50 34.5 -78t84.5 -28q20 0 35.5 4.5t20.5 11.5q-14 -50 -55 -86t-103 -36q-60 0 -104.5 30zM246 324q12 51 12 108
q0 52 -21 52q-23 0 -35 -52.5t-12 -106.5q0 -52 21 -52q23 0 35 51zM141 729l3 2l123 -63l139 63l1 -2l-152 -188z" />
    <glyph glyph-name="Gdotaccent" unicode="&#x120;" horiz-adv-x="554" 
d="M135.5 26.5q-46.5 36.5 -74 103t-27.5 153.5q0 111 45 209.5t126 158t184 59.5q61 0 115 -17l-7 -257h-3q-44 117 -85.5 181t-72.5 64q-30 0 -52 -61.5t-33.5 -156.5t-11.5 -193q0 -110 8 -181t24 -71q10 0 18.5 10t11.5 34l9 64q10 68 10 114q0 77 -29 111h262
q-30 -29 -47 -76t-31 -149l-17 -128h-2q-13 15 -26.5 21t-34.5 6q-22 0 -39 -4.5t-40 -13.5q-24 -9 -40 -13t-37 -4q-57 0 -103.5 36.5zM329.5 767q-19.5 23 -19.5 57q0 38 26 67t61 29q30 0 50.5 -22t20.5 -53q0 -41 -26.5 -71t-62.5 -30q-30 0 -49.5 23z" />
    <glyph glyph-name="gdotaccent" unicode="&#x121;" horiz-adv-x="475" 
d="M51 -180.5q-38 5.5 -53 14.5l110 132q-4 -11 -4 -29q0 -36 15.5 -69.5t38.5 -33.5q28 0 46.5 58.5t27.5 148.5l17 172q-14 -87 -49 -155t-96 -68q-45 0 -70.5 41t-25.5 118q0 88 34.5 171.5t100 136.5t151.5 53q32 0 83.5 -5.5t81.5 -13.5l-40 -385q-10 -94 -54 -160
t-108 -99t-134 -33q-34 0 -72 5.5zM238.5 207q15.5 58 25.5 132t10 110q0 21 -5 30t-10 9q-18 0 -33 -46t-23.5 -112.5t-8.5 -122.5q0 -58 13 -58q16 0 31.5 58zM187.5 567q-19.5 23 -19.5 57q0 38 26 67t61 29q30 0 50.5 -22t20.5 -53q0 -41 -26.5 -71t-62.5 -30
q-30 0 -49.5 23z" />
    <glyph glyph-name="uni0122" unicode="&#x122;" horiz-adv-x="554" 
d="M135.5 26.5q-46.5 36.5 -74 103t-27.5 153.5q0 111 45 209.5t126 158t184 59.5q61 0 115 -17l-7 -257h-3q-44 117 -85.5 181t-72.5 64q-30 0 -52 -61.5t-33.5 -156.5t-11.5 -193q0 -110 8 -181t24 -71q10 0 18.5 10t11.5 34l9 64q10 68 10 114q0 77 -29 111h262
q-30 -29 -47 -76t-31 -149l-17 -128h-2q-13 15 -26.5 21t-34.5 6q-22 0 -39 -4.5t-40 -13.5q-24 -9 -40 -13t-37 -4q-57 0 -103.5 36.5zM298.5 -43.5q19.5 -23.5 19.5 -62.5q0 -56 -40 -107t-91 -77l-2 3q16 18 24 40.5t13 49.5q-28 3 -45.5 25t-17.5 53q0 40 27 69.5
t62 29.5q31 0 50.5 -23.5z" />
    <glyph glyph-name="uni0123" unicode="&#x123;" horiz-adv-x="475" 
d="M178.5 549.5q-19.5 23.5 -19.5 62.5q0 56 40 107t91 77l2 -3q-16 -18 -24 -40.5t-13 -49.5q28 -3 45.5 -25t17.5 -53q0 -40 -27 -69.5t-62 -29.5q-31 0 -50.5 23.5zM51 -180.5q-38 5.5 -53 14.5l110 132q-4 -11 -4 -29q0 -36 15.5 -69.5t38.5 -33.5q28 0 46.5 58.5
t27.5 148.5l17 172q-14 -87 -49 -155t-96 -68q-45 0 -70.5 41t-25.5 118q0 88 34.5 171.5t100 136.5t151.5 53q32 0 83.5 -5.5t81.5 -13.5l-40 -385q-10 -94 -54 -160t-108 -99t-134 -33q-34 0 -72 5.5zM238.5 207q15.5 58 25.5 132t10 110q0 21 -5 30t-10 9q-18 0 -33 -46
t-23.5 -112.5t-8.5 -122.5q0 -58 13 -58q16 0 31.5 58z" />
    <glyph glyph-name="Imacron" unicode="&#x12a;" horiz-adv-x="334" 
d="M26 27.5q10 13.5 18.5 49t16.5 107.5l34 332q8 72 8 102q0 38 -7.5 53t-26.5 29h290q-20 -14 -30.5 -27.5t-18.5 -49t-16 -107.5l-35 -332q-7 -62 -7 -100q0 -39 7.5 -54.5t26.5 -29.5h-291q21 14 31 27.5zM90 889h319l-41 -97h-319z" />
    <glyph glyph-name="imacron" unicode="&#x12b;" horiz-adv-x="271" 
d="M15 35.5q10 19.5 15 64.5l28 258q2 15 2 40q0 50 -19 80l212 32l-44 -410q-1 -10 -1 -28q0 -30 5.5 -44t15.5 -28h-239q15 16 25 35.5zM38 689h319l-41 -97h-319z" />
    <glyph glyph-name="Idotaccent" unicode="&#x130;" horiz-adv-x="334" 
d="M26 27.5q10 13.5 18.5 49t16.5 107.5l34 332q8 72 8 102q0 38 -7.5 53t-26.5 29h290q-20 -14 -30.5 -27.5t-18.5 -49t-16 -107.5l-35 -332q-7 -62 -7 -100q0 -39 7.5 -54.5t26.5 -29.5h-291q21 14 31 27.5zM168.5 767q-19.5 23 -19.5 57q0 38 26 67t61 29q30 0 50.5 -22
t20.5 -53q0 -41 -26.5 -71t-62.5 -30q-30 0 -49.5 23z" />
    <glyph glyph-name="dotlessi" unicode="&#x131;" horiz-adv-x="271" 
d="M15 35.5q10 19.5 15 64.5l28 258q2 15 2 40q0 50 -19 80l212 32l-44 -410q-1 -10 -1 -28q0 -30 5.5 -44t15.5 -28h-239q15 16 25 35.5z" />
    <glyph glyph-name="uni0136" unicode="&#x136;" horiz-adv-x="623" 
d="M252 84q0 -39 7.5 -54.5t26.5 -29.5h-291q21 14 31 27.5t18.5 49t16.5 107.5l34 332q8 72 8 102q0 38 -7.5 53t-26.5 29h290q-20 -14 -30.5 -27.5t-18.5 -49t-16 -107.5l-35 -332q-7 -62 -7 -100zM504 240q35 -117 56 -164t46 -76h-240q-2 19 -17.5 78t-20.5 76l-12 46
l-39 142q154 191 154 287q0 50 -41 71h232q-41 -19 -93 -67t-106 -120zM338.5 -43.5q19.5 -23.5 19.5 -62.5q0 -56 -40 -107t-91 -77l-2 3q16 18 24 40.5t13 49.5q-28 3 -45.5 25t-17.5 53q0 40 27 69.5t62 29.5q31 0 50.5 -23.5z" />
    <glyph glyph-name="uni0137" unicode="&#x137;" horiz-adv-x="522" 
d="M15 35.5q10 19.5 15 64.5l50 470q3 27 3 48q0 57 -20 82l214 34l-68 -634q-1 -10 -1 -28q0 -30 5.5 -44t15.5 -28h-239q15 16 25 35.5zM224 224q48 6 83.5 29.5t35.5 75.5q0 34 -16.5 57.5t-43.5 23.5q-5 0 -15 -2l144 107q11 2 26 -9.5t25.5 -33.5t10.5 -51
q0 -47 -27 -87t-81 -62l59 -141q27 -67 47.5 -93t41.5 -38h-206zM332.5 -43.5q19.5 -23.5 19.5 -62.5q0 -56 -40 -107t-91 -77l-2 3q16 18 24 40.5t13 49.5q-28 3 -45.5 25t-17.5 53q0 40 27 69.5t62 29.5q31 0 50.5 -23.5z" />
    <glyph glyph-name="Lacute" unicode="&#x139;" horiz-adv-x="486" 
d="M26 27.5q10 13.5 18.5 49t16.5 107.5l34 332q8 72 8 102q0 38 -7.5 53t-26.5 29h290q-20 -14 -30.5 -27.5t-18.5 -49t-16 -107.5l-35 -331q-2 -26 -4 -39q-5 -48 -5 -74q0 -22 4.5 -33t16.5 -11t32.5 22t61 81.5t114.5 175.5h3l-75 -305l-412 -2q21 14 31 27.5zM84 743
l138 188q20 -7 46.5 -40.5t27.5 -55.5l-209 -94z" />
    <glyph glyph-name="lacute" unicode="&#x13a;" horiz-adv-x="271" 
d="M15 35.5q10 19.5 15 64.5l50 470q3 27 3 48q0 57 -20 82l214 34l-68 -634q-1 -10 -1 -28q0 -30 5.5 -44t15.5 -28h-239q15 16 25 35.5zM114 743l138 188q20 -7 46.5 -40.5t27.5 -55.5l-209 -94z" />
    <glyph glyph-name="uni013B" unicode="&#x13b;" horiz-adv-x="486" 
d="M26 27.5q10 13.5 18.5 49t16.5 107.5l34 332q8 72 8 102q0 38 -7.5 53t-26.5 29h290q-20 -14 -30.5 -27.5t-18.5 -49t-16 -107.5l-35 -331q-2 -26 -4 -39q-5 -48 -5 -74q0 -22 4.5 -33t16.5 -11t32.5 22t61 81.5t114.5 175.5h3l-75 -305l-412 -2q21 14 31 27.5z
M289.5 -43.5q19.5 -23.5 19.5 -62.5q0 -56 -40 -107t-91 -77l-2 3q16 18 24 40.5t13 49.5q-28 3 -45.5 25t-17.5 53q0 40 27 69.5t62 29.5q31 0 50.5 -23.5z" />
    <glyph glyph-name="uni013C" unicode="&#x13c;" horiz-adv-x="271" 
d="M15 35.5q10 19.5 15 64.5l50 470q3 27 3 48q0 57 -20 82l214 34l-68 -634q-1 -10 -1 -28q0 -30 5.5 -44t15.5 -28h-239q15 16 25 35.5zM157.5 -43.5q19.5 -23.5 19.5 -62.5q0 -56 -40 -107t-91 -77l-2 3q16 18 24 40.5t13 49.5q-28 3 -45.5 25t-17.5 53q0 40 27 69.5
t62 29.5q31 0 50.5 -23.5z" />
    <glyph glyph-name="Lslash" unicode="&#x141;" horiz-adv-x="486" 
d="M482 307l-75 -305l-412 -2q21 14 31 27.5t18.5 49t16.5 107.5l16 154h-58l2 17h58l16 161q8 72 8 102q0 38 -7.5 53t-26.5 29h290q-20 -14 -30.5 -27.5t-18.5 -49t-16 -107.5l-16 -153l44 3l-13 -28h-34l-16 -153q-2 -26 -4 -39q-5 -48 -5 -74q0 -22 4.5 -33t16.5 -11
t32.5 22t61 81.5t114.5 175.5h3z" />
    <glyph glyph-name="lslash" unicode="&#x142;" horiz-adv-x="285" 
d="M202 70q0 -29 5.5 -42.5t15.5 -27.5h-238q1 2 10.5 12.5t17.5 33.5t11 54l21 201l-14 -9l-10 15l27 16l26 247q3 27 3 48q0 55 -19 82l213 34l-31 -292l41 25l10 -15l-53 -33l-34 -319q-2 -22 -2 -30z" />
    <glyph glyph-name="Nacute" unicode="&#x143;" horiz-adv-x="509" 
d="M554 700q-28 -13 -41.5 -27t-23 -49t-17.5 -108l-27 -252q-8 -77 -12.5 -137.5t-8.5 -146.5h-5l-289 576l-40 -372q-6 -55 -6 -87q0 -33 6 -51t17 -27t33 -19h-160q29 13 42.5 27t23 48.5t17.5 108.5l35 332q5 43 5 83q0 34 -6 53t-17 28t-32 20h264q1 -17 8 -35.5
t16.5 -38.5t13.5 -28l84 -185l10 103q5 48 5 89q0 33 -5 50t-14.5 26t-29.5 19h154zM256 743l138 188q20 -7 46.5 -40.5t27.5 -55.5l-209 -94z" />
    <glyph glyph-name="nacute" unicode="&#x144;" horiz-adv-x="522" 
d="M456 100q-2 -13 -2 -33q0 -24 5 -37.5t10 -20.5t6 -9h-238q1 2 10.5 12.5t17.5 33.5t11 54l22 205q5 45 5 75q0 25 -5 25q-6 0 -24.5 -42.5t-37 -111t-27.5 -149.5v-2q-4 -45 -4 -71q0 -18 3 -29h-218q15 16 25 35.5t15 64.5l28 258q2 15 2 40q0 50 -19 80l212 32
l-23 -211q27 110 81 160.5t118 50.5q31 0 47 -13t16 -50q0 -14 -1 -22zM234 543l138 188q20 -7 46.5 -40.5t27.5 -55.5l-209 -94z" />
    <glyph glyph-name="uni0145" unicode="&#x145;" horiz-adv-x="509" 
d="M554 700q-28 -13 -41.5 -27t-23 -49t-17.5 -108l-27 -252q-8 -77 -12.5 -137.5t-8.5 -146.5h-5l-289 576l-40 -372q-6 -55 -6 -87q0 -33 6 -51t17 -27t33 -19h-160q29 13 42.5 27t23 48.5t17.5 108.5l35 332q5 43 5 83q0 34 -6 53t-17 28t-32 20h264q1 -17 8 -35.5
t16.5 -38.5t13.5 -28l84 -185l10 103q5 48 5 89q0 33 -5 50t-14.5 26t-29.5 19h154zM300.5 -43.5q19.5 -23.5 19.5 -62.5q0 -56 -40 -107t-91 -77l-2 3q16 18 24 40.5t13 49.5q-28 3 -45.5 25t-17.5 53q0 40 27 69.5t62 29.5q31 0 50.5 -23.5z" />
    <glyph glyph-name="uni0146" unicode="&#x146;" horiz-adv-x="522" 
d="M456 100q-2 -13 -2 -33q0 -24 5 -37.5t10 -20.5t6 -9h-238q1 2 10.5 12.5t17.5 33.5t11 54l22 205q5 45 5 75q0 25 -5 25q-6 0 -24.5 -42.5t-37 -111t-27.5 -149.5v-2q-4 -45 -4 -71q0 -18 3 -29h-218q15 16 25 35.5t15 64.5l28 258q2 15 2 40q0 50 -19 80l212 32
l-23 -211q27 110 81 160.5t118 50.5q31 0 47 -13t16 -50q0 -14 -1 -22zM281.5 -43.5q19.5 -23.5 19.5 -62.5q0 -56 -40 -107t-91 -77l-2 3q16 18 24 40.5t13 49.5q-28 3 -45.5 25t-17.5 53q0 40 27 69.5t62 29.5q31 0 50.5 -23.5z" />
    <glyph glyph-name="Ncaron" unicode="&#x147;" horiz-adv-x="509" 
d="M554 700q-28 -13 -41.5 -27t-23 -49t-17.5 -108l-27 -252q-8 -77 -12.5 -137.5t-8.5 -146.5h-5l-289 576l-40 -372q-6 -55 -6 -87q0 -33 6 -51t17 -27t33 -19h-160q29 13 42.5 27t23 48.5t17.5 108.5l35 332q5 43 5 83q0 34 -6 53t-17 28t-32 20h264q1 -17 8 -35.5
t16.5 -38.5t13.5 -28l84 -185l10 103q5 48 5 89q0 33 -5 50t-14.5 26t-29.5 19h154zM217 929l3 2l123 -63l139 63l1 -2l-152 -188z" />
    <glyph glyph-name="ncaron" unicode="&#x148;" horiz-adv-x="522" 
d="M456 100q-2 -13 -2 -33q0 -24 5 -37.5t10 -20.5t6 -9h-238q1 2 10.5 12.5t17.5 33.5t11 54l22 205q5 45 5 75q0 25 -5 25q-6 0 -24.5 -42.5t-37 -111t-27.5 -149.5v-2q-4 -45 -4 -71q0 -18 3 -29h-218q15 16 25 35.5t15 64.5l28 258q2 15 2 40q0 50 -19 80l212 32
l-23 -211q27 110 81 160.5t118 50.5q31 0 47 -13t16 -50q0 -14 -1 -22zM194 729l3 2l123 -63l139 63l1 -2l-152 -188z" />
    <glyph glyph-name="Omacron" unicode="&#x14c;" horiz-adv-x="572" 
d="M88 70q-54 80 -54 208q0 112 38 211t109 160t164 61q108 0 162.5 -80.5t54.5 -207.5q0 -111 -38.5 -210.5t-109.5 -160.5t-163 -61q-109 0 -163 80zM339.5 131q17.5 113 17.5 272q0 131 -12.5 205.5t-38.5 74.5q-35 0 -52 -113.5t-17 -273.5q0 -278 51 -278
q34 0 51.5 113zM211 889h319l-41 -97h-319z" />
    <glyph glyph-name="omacron" unicode="&#x14d;" horiz-adv-x="451" 
d="M54 44q-42 54 -42 146q0 84 34 158t94 118t134 44q80 0 122.5 -54t42.5 -144q0 -85 -34 -159t-94 -118.5t-134 -44.5q-81 0 -123 54zM247.5 102.5q8.5 87.5 8.5 210.5q0 86 -5 129t-19 43q-21 0 -29.5 -89t-8.5 -211q0 -84 5.5 -127t19.5 -43q20 0 28.5 87.5zM137 689
h319l-41 -97h-319z" />
    <glyph glyph-name="Ohungarumlaut" unicode="&#x150;" horiz-adv-x="572" 
d="M88 70q-54 80 -54 208q0 112 38 211t109 160t164 61q108 0 162.5 -80.5t54.5 -207.5q0 -111 -38.5 -210.5t-109.5 -160.5t-163 -61q-109 0 -163 80zM339.5 131q17.5 113 17.5 272q0 131 -12.5 205.5t-38.5 74.5q-35 0 -52 -113.5t-17 -273.5q0 -278 51 -278
q34 0 51.5 113zM164 743l138 188q20 -7 46.5 -40.5t27.5 -55.5l-209 -94zM324 743l138 188q20 -7 46.5 -40.5t27.5 -55.5l-209 -94z" />
    <glyph glyph-name="ohungarumlaut" unicode="&#x151;" horiz-adv-x="451" 
d="M54 44q-42 54 -42 146q0 84 34 158t94 118t134 44q80 0 122.5 -54t42.5 -144q0 -85 -34 -159t-94 -118.5t-134 -44.5q-81 0 -123 54zM247.5 102.5q8.5 87.5 8.5 210.5q0 86 -5 129t-19 43q-21 0 -29.5 -89t-8.5 -211q0 -84 5.5 -127t19.5 -43q20 0 28.5 87.5zM91 543
l138 188q20 -7 46.5 -40.5t27.5 -55.5l-209 -94zM251 543l138 188q20 -7 46.5 -40.5t27.5 -55.5l-209 -94z" />
    <glyph glyph-name="OE" unicode="&#x152;" horiz-adv-x="798" 
d="M784 278l-52 -278h-201q-35 0 -148 -5q-67 -5 -118 -5q2 0 3 1q-6 -1 -17 -1q-109 0 -163 80t-54 208q0 111 37.5 209.5t107 159.5t160.5 63h4h2h6q45 0 105 -5q112 -5 148 -5h176l-11 -262h-3q-39 128 -72 182t-58 54q-24 0 -33 -31t-16 -106l-2 -20l-17 -165l1 9
q0 -6 6 -8q30 5 62 37.5t47 94.5h3v-50q14 24 22 50h4l-26 -252v-39h-3q0 2 -1 3v-3h-3q-2 18 -10 43q-18 42 -45.5 64t-50.5 25q-8 -2 -9 -9l1 10h-1l-15 -142l-3 -23q-7 -59 -7 -85q0 -25 7 -38t23 -13q15 0 44 19t72.5 75t94.5 158h3zM288 18q34 0 51.5 113t17.5 272
q0 131 -12.5 205.5t-38.5 74.5q-35 0 -52 -113.5t-17 -273.5q0 -278 51 -278zM570 369l-1 -8q0 5 1 8zM564 310q0 5 1 7z" />
    <glyph glyph-name="oe" unicode="&#x153;" horiz-adv-x="661" 
d="M609 100.5q15 4.5 21 11.5q-15 -51 -56 -86.5t-102 -35.5q-86 0 -141 61q-67 -61 -154 -61q-81 0 -123 54t-42 146q0 84 34 158t94 118t134 44q70 0 112 -42q60 42 132 42q62 0 93.5 -28t31.5 -79q0 -47 -36 -81t-125 -72q-16 -7 -22 -17.5t-6 -30.5q0 -50 35 -78t85 -28
q20 0 35 4.5zM247.5 102.5q8.5 87.5 8.5 210.5q0 86 -5 129t-19 43q-21 0 -29.5 -89t-8.5 -211q0 -84 5.5 -127t19.5 -43q20 0 28.5 87.5zM461 431q-12 -53 -12 -106q0 -52 21 -52q22 0 34 51.5t12 107.5q0 52 -21 52q-22 0 -34 -53z" />
    <glyph glyph-name="Racute" unicode="&#x154;" horiz-adv-x="597" 
d="M593 1q-31 -6 -84 -6q-76 0 -117 40t-56 92.5t-25 125.5q-6 43 -10.5 61t-15.5 18l-1 3q37 0 55.5 22t24.5 62.5t6 107.5q0 68 -9 107.5t-23 39.5q-27 0 -44 -158l-35 -332q-7 -62 -7 -100q0 -39 7.5 -54.5t26.5 -29.5h-291q21 14 31 27.5t18.5 49t16.5 107.5l34 332
q8 72 8 102q0 38 -7.5 53t-26.5 29h291q85 0 138 -43.5t53 -125.5q0 -53 -23.5 -95t-65.5 -69q87 -365 131 -366zM262 743l138 188q20 -7 46.5 -40.5t27.5 -55.5l-209 -94z" />
    <glyph glyph-name="racute" unicode="&#x155;" horiz-adv-x="408" 
d="M408 490.5q13 -19.5 13 -47.5q0 -29 -14.5 -60t-37 -51t-43.5 -20q-9 0 -33 14q-20 13 -29 13q-29 0 -36 -59l-19 -180q-1 -10 -1 -28q0 -30 5.5 -44t15.5 -28h-239q15 16 25 35.5t15 64.5l28 258q2 15 2 40q0 50 -19 80l212 32l-14 -131q-1 -9 4 -9q2 0 4 2t5 7l10 18
q32 59 54.5 86t52.5 27q26 0 39 -19.5zM153 543l138 188q20 -7 46.5 -40.5t27.5 -55.5l-209 -94z" />
    <glyph glyph-name="uni0156" unicode="&#x156;" horiz-adv-x="597" 
d="M593 1q-31 -6 -84 -6q-76 0 -117 40t-56 92.5t-25 125.5q-6 43 -10.5 61t-15.5 18l-1 3q37 0 55.5 22t24.5 62.5t6 107.5q0 68 -9 107.5t-23 39.5q-27 0 -44 -158l-35 -332q-7 -62 -7 -100q0 -39 7.5 -54.5t26.5 -29.5h-291q21 14 31 27.5t18.5 49t16.5 107.5l34 332
q8 72 8 102q0 38 -7.5 53t-26.5 29h291q85 0 138 -43.5t53 -125.5q0 -53 -23.5 -95t-65.5 -69q87 -365 131 -366zM305.5 -43.5q19.5 -23.5 19.5 -62.5q0 -56 -40 -107t-91 -77l-2 3q16 18 24 40.5t13 49.5q-28 3 -45.5 25t-17.5 53q0 40 27 69.5t62 29.5q31 0 50.5 -23.5z
" />
    <glyph glyph-name="uni0157" unicode="&#x157;" horiz-adv-x="408" 
d="M408 490.5q13 -19.5 13 -47.5q0 -29 -14.5 -60t-37 -51t-43.5 -20q-9 0 -33 14q-20 13 -29 13q-29 0 -36 -59l-19 -180q-1 -10 -1 -28q0 -30 5.5 -44t15.5 -28h-239q15 16 25 35.5t15 64.5l28 258q2 15 2 40q0 50 -19 80l212 32l-14 -131q-1 -9 4 -9q2 0 4 2t5 7l10 18
q32 59 54.5 86t52.5 27q26 0 39 -19.5zM158.5 -43.5q19.5 -23.5 19.5 -62.5q0 -56 -40 -107t-91 -77l-2 3q16 18 24 40.5t13 49.5q-28 3 -45.5 25t-17.5 53q0 40 27 69.5t62 29.5q31 0 50.5 -23.5z" />
    <glyph glyph-name="Rcaron" unicode="&#x158;" horiz-adv-x="597" 
d="M593 1q-31 -6 -84 -6q-76 0 -117 40t-56 92.5t-25 125.5q-6 43 -10.5 61t-15.5 18l-1 3q37 0 55.5 22t24.5 62.5t6 107.5q0 68 -9 107.5t-23 39.5q-27 0 -44 -158l-35 -332q-7 -62 -7 -100q0 -39 7.5 -54.5t26.5 -29.5h-291q21 14 31 27.5t18.5 49t16.5 107.5l34 332
q8 72 8 102q0 38 -7.5 53t-26.5 29h291q85 0 138 -43.5t53 -125.5q0 -53 -23.5 -95t-65.5 -69q87 -365 131 -366zM222 929l3 2l123 -63l139 63l1 -2l-152 -188z" />
    <glyph glyph-name="rcaron" unicode="&#x159;" horiz-adv-x="408" 
d="M408 490.5q13 -19.5 13 -47.5q0 -29 -14.5 -60t-37 -51t-43.5 -20q-9 0 -33 14q-20 13 -29 13q-29 0 -36 -59l-19 -180q-1 -10 -1 -28q0 -30 5.5 -44t15.5 -28h-239q15 16 25 35.5t15 64.5l28 258q2 15 2 40q0 50 -19 80l212 32l-14 -131q-1 -9 4 -9q2 0 4 2t5 7l10 18
q32 59 54.5 86t52.5 27q26 0 39 -19.5zM114 729l3 2l123 -63l139 63l1 -2l-152 -188z" />
    <glyph glyph-name="Sacute" unicode="&#x15a;" horiz-adv-x="444" 
d="M92.5 -3.5q-41.5 6.5 -68.5 23.5l15 251h2q31 -101 74.5 -178.5t85.5 -77.5q29 0 29 38q0 34 -15 71.5t-46 97.5l-21 40l-33 75q-32 68 -45.5 106t-13.5 76q0 58 32 101.5t86 66.5t116 23q72 0 138 -33l-9 -248h-2q-18 35 -48 103q-34 79 -55.5 115t-46.5 36
q-14 0 -22 -12.5t-8 -31.5q0 -28 12.5 -57.5t42.5 -84.5l48 -94q82 -155 82 -242q0 -86 -72 -128.5t-176 -42.5q-40 0 -81.5 6.5zM206 743l138 188q20 -7 46.5 -40.5t27.5 -55.5l-209 -94z" />
    <glyph glyph-name="sacute" unicode="&#x15b;" horiz-adv-x="354" 
d="M66.5 -1q-36.5 9 -57.5 22l53 206q2 -67 13.5 -115.5t28.5 -74t36 -25.5q21 0 21 33q0 21 -10 51.5t-28 62.5l-53 91q-34 63 -34 112q0 44 27.5 78t74 52t102.5 18q63 0 100 -25l-55 -176q-4 65 -23.5 120.5t-42.5 55.5q-7 0 -15 -7t-8 -29q0 -42 29 -90l62 -106
q24 -40 33.5 -63t9.5 -54q0 -49 -28 -82t-71.5 -48.5t-90.5 -15.5q-37 0 -73.5 9zM140 543l138 188q20 -7 46.5 -40.5t27.5 -55.5l-209 -94z" />
    <glyph glyph-name="Scedilla" unicode="&#x15e;" horiz-adv-x="444" 
d="M340 403q82 -155 82 -242q0 -73 -53 -114.5t-136 -52.5q-19 -20 -19 -39t12 -34t31 -30q2 -2 10.5 -9.5t8.5 -12.5q0 -21 -27.5 -47t-63.5 -45t-55 -19q-13 0 -20 8t-7 20q0 10 7.5 14t21.5 4q7 0 23 -2l22 -1q25 0 25 15q0 11 -9.5 22.5t-26.5 26.5q-14 12 -21 20.5
t-7 15.5q0 11 21 34.5t55 56.5q-26 -2 -40 -2q-40 0 -81.5 6.5t-68.5 23.5l15 251h2q31 -101 74.5 -178.5t85.5 -77.5q29 0 29 38q0 34 -15 71.5t-46 97.5l-21 40l-33 75q-32 68 -45.5 106t-13.5 76q0 58 32 101.5t86 66.5t116 23q72 0 138 -33l-9 -248h-2q-18 35 -48 103
q-34 79 -55.5 115t-46.5 36q-14 0 -22 -12.5t-8 -31.5q0 -28 12.5 -57.5t42.5 -84.5z" />
    <glyph glyph-name="scedilla" unicode="&#x15f;" horiz-adv-x="354" 
d="M287 253q24 -40 33.5 -63t9.5 -54q0 -59 -40 -94.5t-101 -47.5q-19 -19 -19 -39q0 -19 12 -34t31 -30q2 -2 10.5 -9.5t8.5 -12.5q0 -21 -27.5 -47t-63.5 -45t-55 -19q-13 0 -20 8t-7 20q0 10 7.5 14t21.5 4q7 0 23 -2l22 -1q25 0 25 15q0 11 -9.5 22.5t-26.5 26.5
q-14 12 -21 20.5t-7 15.5q0 11 19.5 33t55.5 58q-18 -2 -29 -2q-37 0 -73.5 9t-57.5 22l53 206q2 -67 13.5 -115.5t28.5 -74t36 -25.5q21 0 21 33q0 21 -10 51.5t-28 62.5l-53 91q-34 63 -34 112q0 44 27.5 78t74 52t102.5 18q63 0 100 -25l-55 -176q-4 65 -23.5 120.5
t-42.5 55.5q-7 0 -15 -7t-8 -29q0 -42 29 -90z" />
    <glyph glyph-name="Scaron" unicode="&#x160;" horiz-adv-x="444" 
d="M92.5 -3.5q-41.5 6.5 -68.5 23.5l15 251h2q31 -101 74.5 -178.5t85.5 -77.5q29 0 29 38q0 34 -15 71.5t-46 97.5l-21 40l-33 75q-32 68 -45.5 106t-13.5 76q0 58 32 101.5t86 66.5t116 23q72 0 138 -33l-9 -248h-2q-18 35 -48 103q-34 79 -55.5 115t-46.5 36
q-14 0 -22 -12.5t-8 -31.5q0 -28 12.5 -57.5t42.5 -84.5l48 -94q82 -155 82 -242q0 -86 -72 -128.5t-176 -42.5q-40 0 -81.5 6.5zM166 929l3 2l123 -63l139 63l1 -2l-152 -188z" />
    <glyph glyph-name="scaron" unicode="&#x161;" horiz-adv-x="354" 
d="M66.5 -1q-36.5 9 -57.5 22l53 206q2 -67 13.5 -115.5t28.5 -74t36 -25.5q21 0 21 33q0 21 -10 51.5t-28 62.5l-53 91q-34 63 -34 112q0 44 27.5 78t74 52t102.5 18q63 0 100 -25l-55 -176q-4 65 -23.5 120.5t-42.5 55.5q-7 0 -15 -7t-8 -29q0 -42 29 -90l62 -106
q24 -40 33.5 -63t9.5 -54q0 -49 -28 -82t-71.5 -48.5t-90.5 -15.5q-37 0 -73.5 9zM101 729l3 2l123 -63l139 63l1 -2l-152 -188z" />
    <glyph glyph-name="uni0162" unicode="&#x162;" horiz-adv-x="487" 
d="M97 27q12 14 21 48.5t17 108.5l46 409q5 50 5 63q0 20 -8 20q-5 0 -21.5 -28t-41.5 -74q-61 -111 -82 -147h-3l39 276q58 -3 156 -3h131q98 0 158 3l-20 -276h-3q-41 116 -50 145q-16 47 -26.5 75.5t-15.5 28.5q-7 0 -10 -15t-9 -68l-46 -409q-8 -67 -8 -97
q0 -29 5 -44.5t13.5 -24t26.5 -18.5h-311q25 13 37 27zM124 -234q-7 8 -7 20q0 10 7.5 14t21.5 4q8 0 22 -2l23 -1q25 0 25 15q0 11 -9.5 22.5t-26.5 26.5q-14 12 -21 20.5t-7 15.5q0 17 70 85l14 14h17q-25 -24 -25 -45q0 -19 12 -34t31 -30q2 -2 10.5 -9.5t8.5 -12.5
q0 -21 -27.5 -47t-63.5 -45t-55 -19q-13 0 -20 8z" />
    <glyph glyph-name="uni0163" unicode="&#x163;" horiz-adv-x="310" 
d="M213 114q-1 -6 -1 -18q0 -24 10 -37t35 -13q22 0 34 5h1q-8 -18 -47.5 -36.5t-81.5 -22.5q-17 -19 -17 -37q0 -19 12 -34t31 -30q2 -2 10.5 -9.5t8.5 -12.5q0 -21 -27.5 -47t-63.5 -45t-55 -19q-13 0 -20 8t-7 20q0 10 7.5 14t21.5 4q7 0 23 -2l22 -1q25 0 25 15
q0 11 -9.5 22.5t-26.5 26.5q-14 12 -21 20.5t-7 15.5q0 11 18 31t56 58h-6q-52 0 -82.5 29t-25.5 73l37 346h-50l255 237l-18 -176q42 0 70 3l-19 -64h-58z" />
    <glyph glyph-name="Umacron" unicode="&#x16a;" horiz-adv-x="533" 
d="M114 42q-52 52 -52 133q0 18 1 27l32 314q8 72 8 102q0 38 -7.5 53t-26.5 29h285q-18 -14 -27 -28t-17 -49t-16 -107l-33 -314q-3 -27 -3 -50q0 -57 18.5 -88t56.5 -31q47 0 77.5 45.5t38.5 123.5l33 314q7 72 7 96q0 29 -4 45t-11 24t-21 19h125q-21 -14 -31.5 -28
t-19 -49t-16.5 -107l-33 -314q-10 -95 -61 -153.5t-153 -58.5q-98 0 -150 52zM236 889h319l-41 -97h-319z" />
    <glyph glyph-name="umacron" unicode="&#x16b;" horiz-adv-x="521" 
d="M40 3q-16 13 -16 50q0 14 1 22l33 306q1 8 1 24q0 46 -18 73l212 32l-34 -315q-6 -46 -6 -77q0 -23 5 -23t25.5 49t39 115.5t21.5 125.5q1 36 -4 59t-13 34l212 32l-43 -388q-1 -8 -1 -22q0 -52 21 -78l-212 -32l21 208q-27 -107 -80.5 -157.5t-117.5 -50.5q-31 0 -47 13
zM168 689h319l-41 -97h-319z" />
    <glyph glyph-name="Ubreve" unicode="&#x16c;" horiz-adv-x="533" 
d="M114 42q-52 52 -52 133q0 18 1 27l32 314q8 72 8 102q0 38 -7.5 53t-26.5 29h285q-18 -14 -27 -28t-17 -49t-16 -107l-33 -314q-3 -27 -3 -50q0 -57 18.5 -88t56.5 -31q47 0 77.5 45.5t38.5 123.5l33 314q7 72 7 96q0 29 -4 45t-11 24t-21 19h125q-21 -14 -31.5 -28
t-19 -49t-16.5 -107l-33 -314q-10 -95 -61 -153.5t-153 -58.5q-98 0 -150 52zM296 784.5q-26 28.5 -26 69.5l1 13q3 31 16 53h3q-3 -33 18 -56t68 -23q48 0 73 23.5t28 55.5h3q5 -16 5 -38q0 -33 -15 -62t-42.5 -46.5t-61.5 -17.5q-44 0 -70 28.5z" />
    <glyph glyph-name="ubreve" unicode="&#x16d;" horiz-adv-x="521" 
d="M40 3q-16 13 -16 50q0 14 1 22l33 306q1 8 1 24q0 46 -18 73l212 32l-34 -315q-6 -46 -6 -77q0 -23 5 -23t25.5 49t39 115.5t21.5 125.5q1 36 -4 59t-13 34l212 32l-43 -388q-1 -8 -1 -22q0 -52 21 -78l-212 -32l21 208q-27 -107 -80.5 -157.5t-117.5 -50.5q-31 0 -47 13
zM227 584.5q-26 28.5 -26 69.5l1 13q3 31 16 53h3q-3 -33 18 -56t68 -23q48 0 73 23.5t28 55.5h3q5 -16 5 -38q0 -33 -15 -62t-42.5 -46.5t-61.5 -17.5q-44 0 -70 28.5z" />
    <glyph glyph-name="Uring" unicode="&#x16e;" horiz-adv-x="533" 
d="M114 42q-52 52 -52 133q0 18 1 27l32 314q8 72 8 102q0 38 -7.5 53t-26.5 29h285q-18 -14 -27 -28t-17 -49t-16 -107l-33 -314q-3 -27 -3 -50q0 -57 18.5 -88t56.5 -31q47 0 77.5 45.5t38.5 123.5l33 314q7 72 7 96q0 29 -4 45t-11 24t-21 19h125q-21 -14 -31.5 -28
t-19 -49t-16.5 -107l-33 -314q-10 -95 -61 -153.5t-153 -58.5q-98 0 -150 52zM322.5 783.5q-17.5 20.5 -17.5 50.5q0 34 23.5 60t54.5 26q27 0 45 -20t18 -48q0 -36 -23.5 -62.5t-55.5 -26.5q-27 0 -44.5 20.5zM412 799q19 22 19 51q0 24 -13.5 40t-35.5 16
q-26 0 -44.5 -21.5t-18.5 -51.5q0 -24 13.5 -40t35.5 -16q25 0 44 22z" />
    <glyph glyph-name="uring" unicode="&#x16f;" horiz-adv-x="521" 
d="M40 3q-16 13 -16 50q0 14 1 22l33 306q1 8 1 24q0 46 -18 73l212 32l-34 -315q-6 -46 -6 -77q0 -23 5 -23t25.5 49t39 115.5t21.5 125.5q1 36 -4 59t-13 34l212 32l-43 -388q-1 -8 -1 -22q0 -52 21 -78l-212 -32l21 208q-27 -107 -80.5 -157.5t-117.5 -50.5q-31 0 -47 13
zM253.5 583.5q-17.5 20.5 -17.5 50.5q0 34 23.5 60t54.5 26q27 0 45 -20t18 -48q0 -36 -23.5 -62.5t-55.5 -26.5q-27 0 -44.5 20.5zM343 599q19 22 19 51q0 24 -13.5 40t-35.5 16q-26 0 -44.5 -21.5t-18.5 -51.5q0 -24 13.5 -40t35.5 -16q25 0 44 22z" />
    <glyph glyph-name="Uhungarumlaut" unicode="&#x170;" horiz-adv-x="533" 
d="M114 42q-52 52 -52 133q0 18 1 27l32 314q8 72 8 102q0 38 -7.5 53t-26.5 29h285q-18 -14 -27 -28t-17 -49t-16 -107l-33 -314q-3 -27 -3 -50q0 -57 18.5 -88t56.5 -31q47 0 77.5 45.5t38.5 123.5l33 314q7 72 7 96q0 29 -4 45t-11 24t-21 19h125q-21 -14 -31.5 -28
t-19 -49t-16.5 -107l-33 -314q-10 -95 -61 -153.5t-153 -58.5q-98 0 -150 52zM190 743l138 188q20 -7 46.5 -40.5t27.5 -55.5l-209 -94zM350 743l138 188q20 -7 46.5 -40.5t27.5 -55.5l-209 -94z" />
    <glyph glyph-name="uhungarumlaut" unicode="&#x171;" horiz-adv-x="521" 
d="M40 3q-16 13 -16 50q0 14 1 22l33 306q1 8 1 24q0 46 -18 73l212 32l-34 -315q-6 -46 -6 -77q0 -23 5 -23t25.5 49t39 115.5t21.5 125.5q1 36 -4 59t-13 34l212 32l-43 -388q-1 -8 -1 -22q0 -52 21 -78l-212 -32l21 208q-27 -107 -80.5 -157.5t-117.5 -50.5q-31 0 -47 13
zM121 543l138 188q20 -7 46.5 -40.5t27.5 -55.5l-209 -94zM281 543l138 188q20 -7 46.5 -40.5t27.5 -55.5l-209 -94z" />
    <glyph glyph-name="Wcircumflex" unicode="&#x174;" horiz-adv-x="800" 
d="M851 700q-28 -22 -53.5 -64.5t-57.5 -119.5l-219 -532l-103 466l-192 -466l-117 532q-20 85 -33 124t-33 60h279q-19 -20 -19 -59q0 -35 18 -125l32 -163l19 59q21 61 21 111q0 31 -5 57q-12 47 -23.5 75t-26.5 45h278q-18 -19 -18 -58q0 -36 18 -126l32 -164l59 164
q35 97 35 140q0 28 -12 44h121zM306 743l153 188l112 -188l-1 -2l-125 63l-136 -63z" />
    <glyph glyph-name="wcircumflex" unicode="&#x175;" horiz-adv-x="664" 
d="M659 457q0 -63 -52 -178.5t-181 -297.5h-1l-70 279q-25 -56 -56 -104t-88 -126l-35 -49h-1l-90 358q-21 85 -34 117t-34 44h238q-15 -15 -15 -47q0 -37 17 -114l33 -153q19 13 34 51t15 73q0 13 -3 25l-1 4q-21 84 -34 116t-34 45h238q-15 -15 -15 -48q0 -36 16 -113
l33 -147q38 44 38 102q0 46 -21.5 80t-52.5 34l138 107q18 -18 18 -58zM233 543l153 188l112 -188l-1 -2l-125 63l-136 -63z" />
    <glyph glyph-name="Ycircumflex" unicode="&#x176;" horiz-adv-x="522" 
d="M573 700q-34 -27 -69.5 -72.5t-65.5 -111.5l-60 -131l-20 -201q-7 -62 -7 -100q0 -39 7.5 -54.5t26.5 -29.5h-291q20 14 30.5 27.5t18.5 49t16 107.5l14 132l-45 200q-14 65 -37 111t-48 73h295q-15 -15 -15 -46q0 -17 4.5 -43t5.5 -34q7 -31 11 -61l16 -105l43 105
l17 41q20 48 29 73t9 43t-8 27h123zM180 743l153 188l112 -188l-1 -2l-125 63l-136 -63z" />
    <glyph glyph-name="ycircumflex" unicode="&#x177;" horiz-adv-x="423" 
d="M420 445q0 -78 -59 -197t-126 -213t-58 -61q-48 -68 -98.5 -110t-96.5 -42q-16 0 -27 5.5t-13 10.5l46 124q20 -9 62 -9q57 0 86 16t29 55q0 18 -6 42l-69 273q-20 84 -33 116t-34 45h237q-15 -15 -15 -47q0 -37 17 -114l34 -151q36 46 36 106q0 47 -21.5 80.5
t-51.5 33.5l138 107q23 -24 23 -70zM237 138q17 10 27 18zM91 543l153 188l112 -188l-1 -2l-125 63l-136 -63z" />
    <glyph glyph-name="Ydieresis" unicode="&#x178;" horiz-adv-x="522" 
d="M573 700q-34 -27 -69.5 -72.5t-65.5 -111.5l-60 -131l-20 -201q-7 -62 -7 -100q0 -39 7.5 -54.5t26.5 -29.5h-291q20 14 30.5 27.5t18.5 49t16 107.5l14 132l-45 200q-14 65 -37 111t-48 73h295q-15 -15 -15 -46q0 -17 4.5 -43t5.5 -34q7 -31 11 -61l16 -105l43 105
l17 41q20 48 29 73t9 43t-8 27h123zM159 767q-20 23 -20 57q0 38 26 67t62 29q30 0 50.5 -22t20.5 -53q0 -40 -27 -70.5t-62 -30.5q-30 0 -50 23zM366 767q-20 23 -20 57q0 38 26 67t62 29q30 0 50.5 -22t20.5 -53q0 -40 -27 -70.5t-62 -30.5q-30 0 -50 23z" />
    <glyph glyph-name="Zacute" unicode="&#x179;" horiz-adv-x="479" 
d="M306.5 56q43.5 25 79.5 74t79 138l-64 -268h-421l314 678q-59 -10 -100 -35.5t-75.5 -73.5t-75.5 -132l62 263h410l-318 -679q66 10 109.5 35zM220 743l138 188q20 -7 46.5 -40.5t27.5 -55.5l-209 -94z" />
    <glyph glyph-name="zacute" unicode="&#x17a;" horiz-adv-x="401" 
d="M285.5 80.5q47.5 46.5 94.5 143.5l-54 -224h-341l233 477q-37 -3 -66 -22.5t-57 -61.5t-65 -117l54 224h331l-232 -475q55 9 102.5 55.5zM172 543l138 188q20 -7 46.5 -40.5t27.5 -55.5l-209 -94z" />
    <glyph glyph-name="Zdotaccent" unicode="&#x17b;" horiz-adv-x="479" 
d="M306.5 56q43.5 25 79.5 74t79 138l-64 -268h-421l314 678q-59 -10 -100 -35.5t-75.5 -73.5t-75.5 -132l62 263h410l-318 -679q66 10 109.5 35zM244.5 767q-19.5 23 -19.5 57q0 38 26 67t61 29q30 0 50.5 -22t20.5 -53q0 -41 -26.5 -71t-62.5 -30q-30 0 -49.5 23z" />
    <glyph glyph-name="zdotaccent" unicode="&#x17c;" horiz-adv-x="401" 
d="M285.5 80.5q47.5 46.5 94.5 143.5l-54 -224h-341l233 477q-37 -3 -66 -22.5t-57 -61.5t-65 -117l54 224h331l-232 -475q55 9 102.5 55.5zM196.5 567q-19.5 23 -19.5 57q0 38 26 67t61 29q30 0 50.5 -22t20.5 -53q0 -41 -26.5 -71t-62.5 -30q-30 0 -49.5 23z" />
    <glyph glyph-name="Zcaron" unicode="&#x17d;" horiz-adv-x="479" 
d="M306.5 56q43.5 25 79.5 74t79 138l-64 -268h-421l314 678q-59 -10 -100 -35.5t-75.5 -73.5t-75.5 -132l62 263h410l-318 -679q66 10 109.5 35zM180 929l3 2l123 -63l139 63l1 -2l-152 -188z" />
    <glyph glyph-name="zcaron" unicode="&#x17e;" horiz-adv-x="401" 
d="M285.5 80.5q47.5 46.5 94.5 143.5l-54 -224h-341l233 477q-37 -3 -66 -22.5t-57 -61.5t-65 -117l54 224h331l-232 -475q55 9 102.5 55.5zM132 729l3 2l123 -63l139 63l1 -2l-152 -188z" />
    <glyph glyph-name="uni01CD" unicode="&#x1cd;" horiz-adv-x="500" 
d="M218 56q0 27 -12 94h-104q-23 -72 -23 -107q0 -26 12 -43h-121q28 22 53.5 64.5t58.5 119.5l216 532l115 -532q18 -82 31.5 -122.5t33.5 -61.5h-278q18 18 18 56zM201 179l-1 5l-28 160l-58 -160l-2 -5h89zM188 929l3 2l123 -63l139 63l1 -2l-152 -188z" />
    <glyph glyph-name="uni01CE" unicode="&#x1ce;" 
d="M420 104q0 -31 5.5 -45.5t14.5 -24.5l-212 -41l21 211q-15 -84 -50 -149t-95 -65q-45 0 -70.5 41t-25.5 118q0 88 34.5 171.5t100 136.5t151.5 53q32 0 83.5 -5.5t81.5 -13.5l-37 -347q-2 -16 -2 -40zM238.5 207q15.5 58 25.5 132t10 110q0 21 -5 30t-10 9q-18 0 -33 -46
t-23.5 -112.5t-8.5 -121.5q0 -34 3.5 -46.5t9.5 -12.5q16 0 31.5 58zM162 729l3 2l123 -63l139 63l1 -2l-152 -188z" />
    <glyph glyph-name="uni01CF" unicode="&#x1cf;" horiz-adv-x="334" 
d="M26 27.5q10 13.5 18.5 49t16.5 107.5l34 332q8 72 8 102q0 38 -7.5 53t-26.5 29h290q-20 -14 -30.5 -27.5t-18.5 -49t-16 -107.5l-35 -332q-7 -62 -7 -100q0 -39 7.5 -54.5t26.5 -29.5h-291q21 14 31 27.5zM104 929l3 2l123 -63l139 63l1 -2l-152 -188z" />
    <glyph glyph-name="uni01D0" unicode="&#x1d0;" horiz-adv-x="271" 
d="M15 35.5q10 19.5 15 64.5l28 258q2 15 2 40q0 50 -19 80l212 32l-44 -410q-1 -10 -1 -28q0 -30 5.5 -44t15.5 -28h-239q15 16 25 35.5zM53 729l3 2l123 -63l139 63l1 -2l-152 -188z" />
    <glyph glyph-name="uni01D1" unicode="&#x1d1;" horiz-adv-x="572" 
d="M88 70q-54 80 -54 208q0 112 38 211t109 160t164 61q108 0 162.5 -80.5t54.5 -207.5q0 -111 -38.5 -210.5t-109.5 -160.5t-163 -61q-109 0 -163 80zM339.5 131q17.5 113 17.5 272q0 131 -12.5 205.5t-38.5 74.5q-35 0 -52 -113.5t-17 -273.5q0 -278 51 -278
q34 0 51.5 113zM225 929l3 2l123 -63l139 63l1 -2l-152 -188z" />
    <glyph glyph-name="uni01D2" unicode="&#x1d2;" horiz-adv-x="451" 
d="M54 44q-42 54 -42 146q0 84 34 158t94 118t134 44q80 0 122.5 -54t42.5 -144q0 -85 -34 -159t-94 -118.5t-134 -44.5q-81 0 -123 54zM247.5 102.5q8.5 87.5 8.5 210.5q0 86 -5 129t-19 43q-21 0 -29.5 -89t-8.5 -211q0 -84 5.5 -127t19.5 -43q20 0 28.5 87.5zM152 729
l3 2l123 -63l139 63l1 -2l-152 -188z" />
    <glyph glyph-name="uni01D3" unicode="&#x1d3;" horiz-adv-x="533" 
d="M114 42q-52 52 -52 133q0 18 1 27l32 314q8 72 8 102q0 38 -7.5 53t-26.5 29h285q-18 -14 -27 -28t-17 -49t-16 -107l-33 -314q-3 -27 -3 -50q0 -57 18.5 -88t56.5 -31q47 0 77.5 45.5t38.5 123.5l33 314q7 72 7 96q0 29 -4 45t-11 24t-21 19h125q-21 -14 -31.5 -28
t-19 -49t-16.5 -107l-33 -314q-10 -95 -61 -153.5t-153 -58.5q-98 0 -150 52zM251 929l3 2l123 -63l139 63l1 -2l-152 -188z" />
    <glyph glyph-name="uni01D4" unicode="&#x1d4;" horiz-adv-x="521" 
d="M40 3q-16 13 -16 50q0 14 1 22l33 306q1 8 1 24q0 46 -18 73l212 32l-34 -315q-6 -46 -6 -77q0 -23 5 -23t25.5 49t39 115.5t21.5 125.5q1 36 -4 59t-13 34l212 32l-43 -388q-1 -8 -1 -22q0 -52 21 -78l-212 -32l21 208q-27 -107 -80.5 -157.5t-117.5 -50.5q-31 0 -47 13
zM182 729l3 2l123 -63l139 63l1 -2l-152 -188z" />
    <glyph glyph-name="Gcaron" unicode="&#x1e6;" horiz-adv-x="554" 
d="M135.5 26.5q-46.5 36.5 -74 103t-27.5 153.5q0 111 45 209.5t126 158t184 59.5q61 0 115 -17l-7 -257h-3q-44 117 -85.5 181t-72.5 64q-30 0 -52 -61.5t-33.5 -156.5t-11.5 -193q0 -110 8 -181t24 -71q10 0 18.5 10t11.5 34l9 64q10 68 10 114q0 77 -29 111h262
q-30 -29 -47 -76t-31 -149l-17 -128h-2q-13 15 -26.5 21t-34.5 6q-22 0 -39 -4.5t-40 -13.5q-24 -9 -40 -13t-37 -4q-57 0 -103.5 36.5zM266 929l3 2l123 -63l139 63l1 -2l-152 -188z" />
    <glyph glyph-name="gcaron" unicode="&#x1e7;" horiz-adv-x="475" 
d="M51 -180.5q-38 5.5 -53 14.5l110 132q-4 -11 -4 -29q0 -36 15.5 -69.5t38.5 -33.5q28 0 46.5 58.5t27.5 148.5l17 172q-14 -87 -49 -155t-96 -68q-45 0 -70.5 41t-25.5 118q0 88 34.5 171.5t100 136.5t151.5 53q32 0 83.5 -5.5t81.5 -13.5l-40 -385q-10 -94 -54 -160
t-108 -99t-134 -33q-34 0 -72 5.5zM238.5 207q15.5 58 25.5 132t10 110q0 21 -5 30t-10 9q-18 0 -33 -46t-23.5 -112.5t-8.5 -122.5q0 -58 13 -58q16 0 31.5 58zM123 729l3 2l123 -63l139 63l1 -2l-152 -188z" />
    <glyph glyph-name="uni0228" unicode="&#x228;" horiz-adv-x="508" 
d="M494 278l-52 -278h-447q21 14 31 27.5t18.5 49t16.5 107.5l34 332q8 72 8 102q0 38 -7.5 53t-26.5 29h420l-11 -262h-3q-72 236 -130 236q-24 0 -33 -31t-16 -106l-2 -20l-17 -164l2 20v-5q0 -16 10 -16q17 0 41 13.5t48.5 43.5t40.5 76h3l-30 -291h-3q-6 47 -24.5 76.5
t-39.5 43t-38 13.5q-4 0 -8.5 -5.5t-6.5 -13.5l-13 -123l-3 -23q-7 -59 -7 -85q0 -25 7 -38t23 -13q15 0 44 19t73 75t94 158h4zM150 -234q-7 8 -7 20q0 10 7.5 14t21.5 4q8 0 22 -2l23 -1q25 0 25 15q0 11 -9.5 22.5t-26.5 26.5q-14 12 -21 20.5t-7 15.5q0 17 70 85l14 14
h17q-25 -24 -25 -45q0 -19 12 -34t31 -30q2 -2 10.5 -9.5t8.5 -12.5q0 -21 -27.5 -47t-63.5 -45t-55 -19q-13 0 -20 8z" />
    <glyph glyph-name="uni0229" unicode="&#x229;" horiz-adv-x="403" 
d="M350.5 100.5q15.5 4.5 20.5 11.5q-14 -50 -55 -86t-103 -36h-5q-15 -19 -15 -35q0 -19 12 -34t31 -30q2 -2 10.5 -9.5t8.5 -12.5q0 -21 -27.5 -47t-63.5 -45t-55 -19q-13 0 -20 8t-7 20q0 10 7.5 14t21.5 4q7 0 23 -2l22 -1q25 0 25 15q0 11 -9.5 22.5t-26.5 26.5
q-14 12 -21 20.5t-7 15.5q0 11 18 31t57 59q-82 8 -129 72t-47 161q0 79 31 144.5t86.5 103.5t125.5 38q62 0 94 -28t32 -79q0 -47 -36 -81t-125 -72q-16 -7 -22 -17.5t-6 -30.5q0 -50 34.5 -78t84.5 -28q20 0 35.5 4.5zM202 431.5q-12 -52.5 -12 -106.5q0 -52 21 -52
q23 0 35 51t12 108q0 52 -21 52q-23 0 -35 -52.5z" />
    <glyph glyph-name="uni0259" unicode="&#x259;" horiz-adv-x="403" 
d="M294.5 480q44.5 -30 68.5 -82.5t24 -120.5q0 -79 -31 -144.5t-86.5 -104t-125.5 -38.5q-62 0 -94 28.5t-32 78.5q0 47 36.5 81t124.5 72q16 7 22 17.5t6 30.5q0 50 -34.5 78t-84.5 28q-20 0 -35.5 -4.5t-20.5 -11.5q14 50 55 86t103 36q60 0 104.5 -30zM157 176
q-12 -51 -12 -108q0 -52 22 -52t34 53t12 106q0 52 -21 52q-23 0 -35 -51z" />
    <glyph glyph-name="uni02C8" unicode="&#x2c8;" horiz-adv-x="69" 
d="M57 700h49l-21 -200h-49z" />
    <glyph glyph-name="gravecomb" unicode="&#x300;" horiz-adv-x="0" 
d="M-173 635q5 22 39.5 55.5t56.5 40.5l97 -188l-2 -2z" />
    <glyph glyph-name="acutecomb" unicode="&#x301;" horiz-adv-x="0" 
d="M-182 543l138 188q20 -7 46.5 -40.5t27.5 -55.5l-209 -94z" />
    <glyph glyph-name="uni0302" unicode="&#x302;" horiz-adv-x="0" 
d="M-237 543l153 188l112 -188l-1 -2l-125 63l-136 -63z" />
    <glyph glyph-name="tildecomb" unicode="&#x303;" horiz-adv-x="0" 
d="M-296.5 670.5q45.5 60.5 90.5 60.5q15 0 30.5 -7t37.5 -20q28 -17 46.5 -25t39.5 -8q32 0 53.5 19t32.5 41h7q-31 -70 -75 -129.5t-88 -59.5q-15 0 -29.5 6.5t-38.5 20.5q-29 17 -48 25t-40 8q-33 0 -54.5 -19.5t-31.5 -40.5h-7q29 68 74.5 128.5z" />
    <glyph glyph-name="uni0304" unicode="&#x304;" horiz-adv-x="0" 
d="M-283 689h319l-41 -97h-319z" />
    <glyph glyph-name="uni0306" unicode="&#x306;" horiz-adv-x="0" 
d="M-155 584.5q-26 28.5 -26 69.5l1 13q3 31 16 53h3q-3 -33 18 -56t68 -23q48 0 73 23.5t28 55.5h3q5 -16 5 -38q0 -33 -15 -62t-42.5 -46.5t-61.5 -17.5q-44 0 -70 28.5z" />
    <glyph glyph-name="uni0307" unicode="&#x307;" horiz-adv-x="0" 
d="M-107.5 567q-19.5 23 -19.5 57q0 38 26 67t61 29q30 0 50.5 -22t20.5 -53q0 -41 -26.5 -71t-62.5 -30q-30 0 -49.5 23z" />
    <glyph glyph-name="uni0308" unicode="&#x308;" horiz-adv-x="0" 
d="M-311 567q-20 23 -20 57q0 38 26 67t62 29q30 0 50.5 -22t20.5 -53q0 -40 -27 -70.5t-62 -30.5q-30 0 -50 23zM-104 567q-20 23 -20 57q0 38 26 67t62 29q30 0 50.5 -22t20.5 -53q0 -40 -27 -70.5t-62 -30.5q-30 0 -50 23z" />
    <glyph glyph-name="uni030A" unicode="&#x30a;" horiz-adv-x="0" 
d="M-91.5 583.5q-17.5 20.5 -17.5 50.5q0 34 23.5 60t54.5 26q27 0 45 -20t18 -48q0 -36 -23.5 -62.5t-55.5 -26.5q-27 0 -44.5 20.5zM-2 599q19 22 19 51q0 24 -13.5 40t-35.5 16q-26 0 -44.5 -21.5t-18.5 -51.5q0 -24 13.5 -40t35.5 -16q25 0 44 22z" />
    <glyph glyph-name="uni030B" unicode="&#x30b;" horiz-adv-x="0" 
d="M-342 543l138 188q20 -7 46.5 -40.5t27.5 -55.5l-209 -94zM-182 543l138 188q20 -7 46.5 -40.5t27.5 -55.5l-209 -94z" />
    <glyph glyph-name="uni030C" unicode="&#x30c;" horiz-adv-x="0" 
d="M-218 729l3 2l123 -63l139 63l1 -2l-152 -188z" />
    <glyph glyph-name="uni0326" unicode="&#x326;" horiz-adv-x="0" 
d="M-78.5 -43.5q19.5 -23.5 19.5 -62.5q0 -56 -40 -107t-91 -77l-2 3q16 18 24 40.5t13 49.5q-28 3 -45.5 25t-17.5 53q0 40 27 69.5t62 29.5q31 0 50.5 -23.5z" />
    <glyph glyph-name="uni0327" unicode="&#x327;" horiz-adv-x="0" 
d="M-171 -234q-7 8 -7 20q0 10 7.5 14t21.5 4q8 0 22 -2l23 -1q25 0 25 15q0 11 -9.5 22.5t-26.5 26.5q-14 12 -21 20.5t-7 15.5q0 17 70 85l14 14h17q-25 -24 -25 -45q0 -19 12 -34t31 -30q2 -2 10.5 -9.5t8.5 -12.5q0 -21 -27.5 -47t-63.5 -45t-55 -19q-13 0 -20 8z" />
    <glyph glyph-name="uni1E44" unicode="&#x1e44;" horiz-adv-x="509" 
d="M554 700q-28 -13 -41.5 -27t-23 -49t-17.5 -108l-27 -252q-8 -77 -12.5 -137.5t-8.5 -146.5h-5l-289 576l-40 -372q-6 -55 -6 -87q0 -33 6 -51t17 -27t33 -19h-160q29 13 42.5 27t23 48.5t17.5 108.5l35 332q5 43 5 83q0 34 -6 53t-17 28t-32 20h264q1 -17 8 -35.5
t16.5 -38.5t13.5 -28l84 -185l10 103q5 48 5 89q0 33 -5 50t-14.5 26t-29.5 19h154zM280.5 767q-19.5 23 -19.5 57q0 38 26 67t61 29q30 0 50.5 -22t20.5 -53q0 -41 -26.5 -71t-62.5 -30q-30 0 -49.5 23z" />
    <glyph glyph-name="uni1E45" unicode="&#x1e45;" horiz-adv-x="522" 
d="M456 100q-2 -13 -2 -33q0 -24 5 -37.5t10 -20.5t6 -9h-238q1 2 10.5 12.5t17.5 33.5t11 54l22 205q5 45 5 75q0 25 -5 25q-6 0 -24.5 -42.5t-37 -111t-27.5 -149.5v-2q-4 -45 -4 -71q0 -18 3 -29h-218q15 16 25 35.5t15 64.5l28 258q2 15 2 40q0 50 -19 80l212 32
l-23 -211q27 110 81 160.5t118 50.5q31 0 47 -13t16 -50q0 -14 -1 -22zM258.5 567q-19.5 23 -19.5 57q0 38 26 67t61 29q30 0 50.5 -22t20.5 -53q0 -41 -26.5 -71t-62.5 -30q-30 0 -49.5 23z" />
    <glyph glyph-name="Wgrave" unicode="&#x1e80;" horiz-adv-x="800" 
d="M851 700q-28 -22 -53.5 -64.5t-57.5 -119.5l-219 -532l-103 466l-192 -466l-117 532q-20 85 -33 124t-33 60h279q-19 -20 -19 -59q0 -35 18 -125l32 -163l19 59q21 61 21 111q0 31 -5 57q-12 47 -23.5 75t-26.5 45h278q-18 -19 -18 -58q0 -36 18 -126l32 -164l59 164
q35 97 35 140q0 28 -12 44h121zM345 835q5 22 39.5 55.5t56.5 40.5l97 -188l-2 -2z" />
    <glyph glyph-name="wgrave" unicode="&#x1e81;" horiz-adv-x="664" 
d="M659 457q0 -63 -52 -178.5t-181 -297.5h-1l-70 279q-25 -56 -56 -104t-88 -126l-35 -49h-1l-90 358q-21 85 -34 117t-34 44h238q-15 -15 -15 -47q0 -37 17 -114l33 -153q19 13 34 51t15 73q0 13 -3 25l-1 4q-21 84 -34 116t-34 45h238q-15 -15 -15 -48q0 -36 16 -113
l33 -147q38 44 38 102q0 46 -21.5 80t-52.5 34l138 107q18 -18 18 -58zM273 635q5 22 39.5 55.5t56.5 40.5l97 -188l-2 -2z" />
    <glyph glyph-name="Wacute" unicode="&#x1e82;" horiz-adv-x="800" 
d="M851 700q-28 -22 -53.5 -64.5t-57.5 -119.5l-219 -532l-103 466l-192 -466l-117 532q-20 85 -33 124t-33 60h279q-19 -20 -19 -59q0 -35 18 -125l32 -163l19 59q21 61 21 111q0 31 -5 57q-12 47 -23.5 75t-26.5 45h278q-18 -19 -18 -58q0 -36 18 -126l32 -164l59 164
q35 97 35 140q0 28 -12 44h121zM364 743l138 188q20 -7 46.5 -40.5t27.5 -55.5l-209 -94z" />
    <glyph glyph-name="wacute" unicode="&#x1e83;" horiz-adv-x="664" 
d="M659 457q0 -63 -52 -178.5t-181 -297.5h-1l-70 279q-25 -56 -56 -104t-88 -126l-35 -49h-1l-90 358q-21 85 -34 117t-34 44h238q-15 -15 -15 -47q0 -37 17 -114l33 -153q19 13 34 51t15 73q0 13 -3 25l-1 4q-21 84 -34 116t-34 45h238q-15 -15 -15 -48q0 -36 16 -113
l33 -147q38 44 38 102q0 46 -21.5 80t-52.5 34l138 107q18 -18 18 -58zM292 543l138 188q20 -7 46.5 -40.5t27.5 -55.5l-209 -94z" />
    <glyph glyph-name="Wdieresis" unicode="&#x1e84;" horiz-adv-x="800" 
d="M851 700q-28 -22 -53.5 -64.5t-57.5 -119.5l-219 -532l-103 466l-192 -466l-117 532q-20 85 -33 124t-33 60h279q-19 -20 -19 -59q0 -35 18 -125l32 -163l19 59q21 61 21 111q0 31 -5 57q-12 47 -23.5 75t-26.5 45h278q-18 -19 -18 -58q0 -36 18 -126l32 -164l59 164
q35 97 35 140q0 28 -12 44h121zM285 767q-20 23 -20 57q0 38 26 67t62 29q30 0 50.5 -22t20.5 -53q0 -40 -27 -70.5t-62 -30.5q-30 0 -50 23zM492 767q-20 23 -20 57q0 38 26 67t62 29q30 0 50.5 -22t20.5 -53q0 -40 -27 -70.5t-62 -30.5q-30 0 -50 23z" />
    <glyph glyph-name="wdieresis" unicode="&#x1e85;" horiz-adv-x="664" 
d="M659 457q0 -63 -52 -178.5t-181 -297.5h-1l-70 279q-25 -56 -56 -104t-88 -126l-35 -49h-1l-90 358q-21 85 -34 117t-34 44h238q-15 -15 -15 -47q0 -37 17 -114l33 -153q19 13 34 51t15 73q0 13 -3 25l-1 4q-21 84 -34 116t-34 45h238q-15 -15 -15 -48q0 -36 16 -113
l33 -147q38 44 38 102q0 46 -21.5 80t-52.5 34l138 107q18 -18 18 -58zM212 567q-20 23 -20 57q0 38 26 67t62 29q30 0 50.5 -22t20.5 -53q0 -40 -27 -70.5t-62 -30.5q-30 0 -50 23zM419 567q-20 23 -20 57q0 38 26 67t62 29q30 0 50.5 -22t20.5 -53q0 -40 -27 -70.5
t-62 -30.5q-30 0 -50 23z" />
    <glyph glyph-name="uni1E9E" unicode="&#x1e9e;" horiz-adv-x="639" 
d="M590 324q27 -47 27 -115q0 -101 -62.5 -160t-172.5 -59q-54 0 -95 10l14 245h3q5 -15 8 -26q34 -101 55.5 -155t35.5 -54q13 0 20 69t7 131q0 196 -90 196l104 273q-10 6 -25 6q-42 0 -67.5 -22.5t-40 -73t-23.5 -139.5l-29 -266q-10 -90 -10 -127q0 -29 4 -41.5t5 -15.5
h-263q21 14 31.5 27.5t19 49t15.5 107.5l25 246q14 142 90.5 211t194.5 69q31 0 87 -10q58 -10 91 -10q59 0 93 21l2 -1l-125 -317q44 -22 71 -69z" />
    <glyph glyph-name="Ygrave" unicode="&#x1ef2;" horiz-adv-x="522" 
d="M573 700q-34 -27 -69.5 -72.5t-65.5 -111.5l-60 -131l-20 -201q-7 -62 -7 -100q0 -39 7.5 -54.5t26.5 -29.5h-291q20 14 30.5 27.5t18.5 49t16 107.5l14 132l-45 200q-14 65 -37 111t-48 73h295q-15 -15 -15 -46q0 -17 4.5 -43t5.5 -34q7 -31 11 -61l16 -105l43 105
l17 41q20 48 29 73t9 43t-8 27h123zM219 835q5 22 39.5 55.5t56.5 40.5l97 -188l-2 -2z" />
    <glyph glyph-name="ygrave" unicode="&#x1ef3;" horiz-adv-x="423" 
d="M420 445q0 -78 -59 -197t-126 -213t-58 -61q-48 -68 -98.5 -110t-96.5 -42q-16 0 -27 5.5t-13 10.5l46 124q20 -9 62 -9q57 0 86 16t29 55q0 18 -6 42l-69 273q-20 84 -33 116t-34 45h237q-15 -15 -15 -47q0 -37 17 -114l34 -151q36 46 36 106q0 47 -21.5 80.5
t-51.5 33.5l138 107q23 -24 23 -70zM237 138q17 10 27 18zM131 635q5 22 39.5 55.5t56.5 40.5l97 -188l-2 -2z" />
    <glyph glyph-name="endash" unicode="&#x2013;" horiz-adv-x="570" 
d="M32 314h520l-2 -21h-520z" />
    <glyph glyph-name="emdash" unicode="&#x2014;" horiz-adv-x="760" 
d="M32 314h710l-2 -21h-710z" />
    <glyph glyph-name="quoteleft" unicode="&#x2018;" horiz-adv-x="216" 
d="M62 411.5q-24 28.5 -24 75.5q0 67 48.5 129t110.5 94l2 -3q-19 -22 -28.5 -48.5t-15.5 -60.5q33 -4 54.5 -31t21.5 -64q0 -31 -15 -59t-40 -44.5t-53 -16.5q-37 0 -61 28.5z" />
    <glyph glyph-name="quoteright" unicode="&#x2019;" horiz-adv-x="216" 
d="M216.5 681.5q23.5 -28.5 23.5 -75.5q0 -67 -48.5 -129t-109.5 -94l-3 3q20 22 29.5 49t15.5 60q-33 4 -54.5 31t-21.5 65q0 31 15 58.5t39.5 44t52.5 16.5q38 0 61.5 -28.5z" />
    <glyph glyph-name="quotesinglbase" unicode="&#x201a;" horiz-adv-x="233" 
d="M171.5 177.5q23.5 -28.5 23.5 -75.5q0 -67 -48.5 -129t-109.5 -94l-3 3q20 22 29.5 49t15.5 60q-33 4 -54.5 31t-21.5 65q0 31 15 58.5t39.5 44t52.5 16.5q38 0 61.5 -28.5z" />
    <glyph glyph-name="quotedblleft" unicode="&#x201c;" horiz-adv-x="450" 
d="M62 411.5q-24 28.5 -24 75.5q0 67 48.5 129t110.5 94l2 -3q-19 -22 -28.5 -48.5t-15.5 -60.5q33 -4 54.5 -31t21.5 -64q0 -31 -15 -59t-40 -44.5t-53 -16.5q-37 0 -61 28.5zM296.5 411.5q-23.5 28.5 -23.5 75.5q0 67 48.5 129t109.5 94l3 -3q-20 -22 -29.5 -49t-15.5 -60
q33 -4 54.5 -31t21.5 -64q0 -31 -15 -59t-39.5 -44.5t-52.5 -16.5q-38 0 -61.5 28.5z" />
    <glyph glyph-name="quotedblright" unicode="&#x201d;" horiz-adv-x="450" 
d="M451.5 681.5q23.5 -28.5 23.5 -75.5q0 -67 -48.5 -129t-109.5 -94l-3 3q20 22 29.5 49t15.5 60q-33 4 -54.5 31t-21.5 65q0 31 15 58.5t39.5 44t52.5 16.5q38 0 61.5 -28.5zM216.5 681.5q23.5 -28.5 23.5 -75.5q0 -67 -48.5 -129t-109.5 -94l-3 3q20 22 29.5 49t15.5 60
q-33 4 -54.5 31t-21.5 65q0 31 15 58.5t39.5 44t52.5 16.5q38 0 61.5 -28.5z" />
    <glyph glyph-name="quotedblbase" unicode="&#x201e;" horiz-adv-x="467" 
d="M406.5 177.5q23.5 -28.5 23.5 -75.5q0 -67 -48.5 -129t-109.5 -94l-3 3q20 22 29.5 49t15.5 60q-33 4 -54.5 31t-21.5 65q0 31 15 58.5t39.5 44t52.5 16.5q38 0 61.5 -28.5zM171.5 177.5q23.5 -28.5 23.5 -75.5q0 -67 -48.5 -129t-109.5 -94l-3 3q20 22 29.5 49t15.5 60
q-33 4 -54.5 31t-21.5 65q0 31 15 58.5t39.5 44t52.5 16.5q38 0 61.5 -28.5z" />
    <glyph glyph-name="dagger" unicode="&#x2020;" horiz-adv-x="360" 
d="M361 643h-130l-88 -842h-20l88 842h-130l3 21h129l25 236h20l-25 -236h131z" />
    <glyph glyph-name="daggerdbl" unicode="&#x2021;" horiz-adv-x="360" 
d="M231 643l-61 -585h130l-2 -21h-130l-25 -236h-20l25 236h-130l2 21h130l61 585h-130l3 21h129l25 236h20l-25 -236h131l-3 -21h-130z" />
    <glyph glyph-name="bullet" unicode="&#x2022;" horiz-adv-x="341" 
d="M82 170q-30 35 -30 86q0 40 19 75t50.5 56t66.5 21q46 0 76 -35t30 -86q0 -39 -18.5 -74t-49.5 -56.5t-67 -21.5q-47 0 -77 35z" />
    <glyph glyph-name="ellipsis" unicode="&#x2026;" horiz-adv-x="690" 
d="M485 17q-24 27 -24 69q0 31 15 58.5t40 44.5t53 17q37 0 61 -27t24 -68q0 -31 -15 -59t-40 -45t-53 -17q-37 0 -61 27zM256 17q-24 27 -24 69q0 31 15 58.5t40 44.5t53 17q37 0 61 -27t24 -68q0 -31 -15 -59t-40 -45t-53 -17q-37 0 -61 27zM27 17q-24 27 -24 69
q0 31 15 58.5t40 44.5t53 17q37 0 61 -27t24 -68q0 -31 -15 -59t-40 -45t-53 -17q-37 0 -61 27z" />
    <glyph glyph-name="perthousand" unicode="&#x2030;" horiz-adv-x="710" 
d="M74.5 490.5q-23.5 30.5 -23.5 76.5q0 37 14.5 70t40.5 53t58 20q41 0 65 -30.5t24 -76.5q0 -37 -14.5 -70t-41 -53t-58.5 -20q-41 0 -64.5 30.5zM406 700h20l-327 -550h-20zM208.5 515q25.5 37 25.5 87q0 40 -18 65t-53 25q-42 0 -67.5 -37t-25.5 -87q0 -40 18 -65
t53 -25q42 0 67.5 37zM276 170.5q-23 30.5 -23 76.5q0 58 32.5 100.5t81.5 42.5q40 0 64 -30.5t24 -76.5q0 -37 -15 -70t-41.5 -53t-58.5 -20q-41 0 -64 30.5zM517.5 170.5q-23.5 30.5 -23.5 76.5q0 37 14.5 70t41 53t59.5 20q41 0 64.5 -30.5t23.5 -76.5q0 -37 -15 -70
t-41.5 -53t-58.5 -20q-41 0 -64.5 30.5zM410 195q26 37 26 87q0 39 -18.5 64.5t-52.5 25.5q-42 0 -67.5 -37t-25.5 -88q0 -39 18 -64t52 -25q42 0 68 37zM652 195q26 37 26 87q0 40 -18 65t-53 25q-42 0 -67.5 -37t-25.5 -88q0 -39 18 -64t52 -25q42 0 68 37z" />
    <glyph glyph-name="guilsinglleft" unicode="&#x2039;" horiz-adv-x="254" 
d="M26 262l223 188l1 -1l-71 -187l32 -187l-1 -1z" />
    <glyph glyph-name="guilsinglright" unicode="&#x203a;" horiz-adv-x="255" 
d="M231 262l-223 -188l-1 1l71 187l-32 187l1 1z" />
    <glyph glyph-name="fraction" unicode="&#x2044;" horiz-adv-x="135" 
d="M173 800h20l-210 -899h-20z" />
    <glyph glyph-name="Euro" unicode="&#x20ac;" horiz-adv-x="545" 
d="M530 693q0 -111 -6 -260h-3l-50 102q-39 84 -60 115.5t-48 31.5q-38 0 -55.5 -89t-17.5 -188v-22h213l-2 -17h-210l2 -28h206l-2 -17h-202q12 -93 49.5 -151.5t101.5 -58.5q39 0 59 19q-9 -30 -36 -62.5t-68 -55t-90 -22.5q-63 0 -114.5 38.5t-81.5 109t-30 162.5v21h-50
l2 17h49l3 28h-51l3 17h50q15 91 59 165.5t113.5 118t157.5 43.5q55 0 109 -17z" />
    <glyph glyph-name="trademark" unicode="&#x2122;" horiz-adv-x="827" 
d="M116 309.5q7 9.5 13 33.5t11 74l21 205q3 24 3 39q0 21 -12 21q-11 0 -23.5 -20t-49.5 -89l-29 -56h-2l25 185q31 -1 68 -1h184q37 0 70 1l-15 -185h-2l-11 36q-23 78 -33.5 103.5t-23.5 25.5q-11 0 -14 -12t-7 -48l-21 -205q-5 -52 -5 -70q0 -26 5 -36t17 -20h-190
q14 9 21 18.5zM473 600l-20 -183q-4 -35 -4 -61q0 -32 7.5 -43.5t28.5 -21.5h-108q19 9 28 18.5t15.5 33t11.5 74.5l16 158q4 48 4 59q0 33 -7.5 45t-28.5 22h176l37 -186l75 185h150q-13 -9 -20 -18.5t-13 -33.5t-11 -73l-16 -158q-5 -50 -5 -69q0 -26 5 -36.5t17 -20.5
h-189q14 9 21 18.5t13 33.5t12 74l19 189l-135 -322z" />
    <glyph glyph-name="arrowleft" unicode="&#x2190;" horiz-adv-x="710" 
d="M610 246h-470l105 -118l-16 -15l-128 143v1l158 143l13 -15l-130 -118h470z" />
    <glyph glyph-name="arrowup" unicode="&#x2191;" horiz-adv-x="487" 
d="M383 352l-106 118l-49 -470h-21l49 470l-130 -118l-14 15l158 143h1l128 -143z" />
    <glyph glyph-name="arrowright" unicode="&#x2192;" horiz-adv-x="710" 
d="M611 257v-1l-158 -143l-14 15l131 118h-470l2 21h470l-106 118l17 15z" />
    <glyph glyph-name="arrowdown" unicode="&#x2193;" horiz-adv-x="487" 
d="M376 143l-158 -143h-1l-128 143l16 15l106 -118l49 470h21l-49 -470l130 118z" />
    <glyph glyph-name="arrowboth" unicode="&#x2194;" horiz-adv-x="800" 
d="M701 257v-1l-158 -143l-14 15l131 118h-520l105 -118l-16 -15l-128 143v1l158 143l13 -15l-130 -118h520l-106 118l17 15z" />
    <glyph glyph-name="arrowupdn" unicode="&#x2195;" horiz-adv-x="487" 
d="M282 517l-55 -520l131 118l13 -15l-158 -143h-1l-128 143l17 15l105 -118l55 520l-130 -118l-14 15l158 143h1l128 -143l-16 -15z" />
    <glyph glyph-name="uni2196" unicode="&#x2196;" horiz-adv-x="568" 
d="M441 131l-298 332l-17 -166h-21l21 202l1 1h202l-2 -21h-167l297 -333z" />
    <glyph glyph-name="uni2197" unicode="&#x2197;" horiz-adv-x="568" 
d="M494 500v-1l-21 -202h-21l18 167l-368 -333l-13 15l368 333h-168l2 21h203z" />
    <glyph glyph-name="uni2198" unicode="&#x2198;" horiz-adv-x="568" 
d="M477 335l-21 -202l-1 -1h-202l2 21h167l-297 333l16 15l297 -333l18 167h21z" />
    <glyph glyph-name="uni2199" unicode="&#x2199;" horiz-adv-x="568" 
d="M125 153h168l-3 -21h-202v1l21 202h21l-18 -167l368 333l13 -15z" />
    <glyph glyph-name="emptyset" unicode="&#x2205;" horiz-adv-x="288" 
d="M255 386q23 -31 23 -70q0 -37 -20 -69.5t-53 -51.5t-69 -19q-46 0 -79 30l-31 -29l-13 14l32 29q-23 29 -23 69q0 37 19.5 69.5t52 52t69.5 19.5q47 0 79 -30l31 29l13 -14zM61 235l163 150q-26 23 -63 23q-31 0 -58 -16t-43.5 -43t-16.5 -58q0 -30 18 -56zM237 371
l-163 -150q28 -23 65 -23q31 0 58 16t43 42.5t16 57.5q0 32 -19 57z" />
    <glyph glyph-name="product" unicode="&#x220f;" horiz-adv-x="273" 
d="M69 700h230l-73 -700h-22l72 679h-188l-71 -679h-22z" />
    <glyph glyph-name="minus" unicode="&#x2212;" horiz-adv-x="280" 
d="M32 314h230l-2 -21h-230z" />
    <glyph glyph-name="integral" unicode="&#x222b;" horiz-adv-x="265" 
d="M2 11q29 0 51 20t30 62l96 503q10 48 37 76t71 28l-4 -22q-29 0 -51.5 -20t-30.5 -62l-96 -503q-9 -48 -35.5 -76t-71.5 -28z" />
    <glyph glyph-name="lessequal" unicode="&#x2264;" horiz-adv-x="204" 
d="M50 229l82 74l-67 76l16 14l79 -90l-98 -89zM10 111h154l-2 -21h-153z" />
    <glyph glyph-name="greaterequal" unicode="&#x2265;" horiz-adv-x="204" 
d="M47 303l97 90l14 -14l-83 -76l66 -74l-16 -15zM10 111h154l-2 -21h-153z" />
    <glyph glyph-name="lozenge" unicode="&#x25ca;" horiz-adv-x="346" 
d="M39 387l182 323l114 -323l-182 -323zM315 387l-98 282l-158 -282l98 -286z" />
    <glyph glyph-name="A.swsh.ss01" horiz-adv-x="510" 
d="M228 59q0 33 -11 91h-139q-56 -111 -106 -174.5t-103.5 -91.5t-121.5 -28q-67 0 -119 25t-80.5 70t-28.5 102q0 49 20.5 89t57 63t82.5 23q37 0 61.5 -15.5t26.5 -36.5q-27 0 -44.5 -30t-17.5 -78q0 -70 28.5 -119t86.5 -49q51 0 103.5 59.5t140 233t239.5 523.5
l120 -532q19 -89 33.5 -127.5t31.5 -56.5h-279q19 18 19 59zM211 180l-1 4l-36 172q-54 -124 -81 -176h118z" />
    <glyph glyph-name="C.swsh.ss01" horiz-adv-x="383" 
d="M89 269q-43 55 -43 139q0 80 34.5 149.5t95 111t134.5 41.5q45 0 74 -16l-30 -217h-1l-20 80q-19 74 -29 102.5t-26 28.5q-13 0 -29 -23t-27 -63t-11 -89q0 -77 25.5 -137t81.5 -60q30 0 46 14q-18 -50 -57.5 -83t-100.5 -33q-74 0 -117 55zM136.5 13q-18.5 21 -18.5 52
q0 37 24.5 64.5t57.5 27.5q28 0 46.5 -20.5t18.5 -52.5q0 -36 -24.5 -64t-57.5 -28q-28 0 -46.5 21z" />
    <glyph glyph-name="D.swsh.ss01" horiz-adv-x="423" 
d="M40.5 236q7.5 11 14 38.5t12.5 83.5l23 214q4 36 4 63q0 29 -5.5 41t-19.5 24h181q79 0 125 -46t46 -151q0 -78 -26.5 -144t-78 -105.5t-122.5 -39.5h-177q16 11 23.5 22zM247.5 296q13.5 61 20.5 143.5t7 143.5q0 52 -5 74t-16 22q-10 0 -16 -18t-11 -66l-26 -254
q-3 -33 -3 -54q0 -52 17 -52q19 0 32.5 61zM130.5 13q-18.5 21 -18.5 52q0 37 25 64.5t58 27.5q28 0 46.5 -20.5t18.5 -52.5q0 -36 -25 -64t-58 -28q-28 0 -46.5 21z" />
    <glyph glyph-name="O.swsh.ss01" horiz-adv-x="450" 
d="M86.5 266q-40.5 52 -40.5 139q0 80 32.5 150.5t89.5 112.5t127 42q77 0 117.5 -51.5t40.5 -137.5q0 -80 -32.5 -151t-90 -113.5t-127.5 -42.5q-76 0 -116.5 52zM271 322.5q8 83.5 8 199.5q0 81 -5.5 122.5t-18.5 41.5q-35 0 -35 -286q0 -80 5 -120.5t18 -40.5
q20 0 28 83.5zM148.5 13q-18.5 21 -18.5 52q0 37 25 64.5t57 27.5q28 0 46.5 -20.5t18.5 -52.5q0 -36 -24.5 -64t-57.5 -28q-28 0 -46.5 21z" />
    <glyph glyph-name="S.swsh.ss01" horiz-adv-x="339" 
d="M87.5 223q-34.5 9 -54.5 21l50 196q2 -63 13 -109.5t27.5 -71t33.5 -24.5q20 0 20 32q0 20 -9.5 49t-26.5 59l-50 87q-15 26 -24 54t-9 53q0 42 26 74t70.5 49.5t97.5 17.5q59 0 95 -24l-51 -168q-5 63 -23.5 115.5t-40.5 52.5q-6 0 -13.5 -7t-7.5 -28q0 -38 27 -85
l59 -101q23 -38 32 -60t9 -52q0 -46 -26.5 -77.5t-68 -46.5t-86.5 -15q-35 0 -69.5 9zM109.5 13q-18.5 21 -18.5 52q0 37 24.5 64.5t57.5 27.5q28 0 46.5 -20.5t18.5 -52.5q0 -36 -24.5 -64t-57.5 -28q-28 0 -46.5 21z" />
    <glyph glyph-name="T.swsh.ss01" horiz-adv-x="422" 
d="M112 264q10 21 18 62.5t15 116.5l16 147q5 48 5 65q0 23 -7 23q-6 0 -15 -14t-32 -58q-40 -75 -77 -140h-1l35 236q40 -2 122 -2h134q82 0 124 2l-16 -236h-1q-29 82 -47 141q-13 42 -19 56.5t-12 14.5q-8 0 -12 -19t-10 -69l-16 -147q-7 -76 -7 -122q0 -39 5.5 -59
t18.5 -34h-248q17 15 27 36zM137.5 13q-18.5 21 -18.5 52q0 37 24.5 64.5t57.5 27.5q28 0 46.5 -20.5t18.5 -52.5q0 -36 -25 -64t-57 -28q-28 0 -46.5 21z" />
    <glyph glyph-name="V.swsh.ss01" horiz-adv-x="510" 
d="M109 516q-20 88 -35 127.5t-31 56.5h279q-18 -18 -18 -59q0 -33 17 -125l33 -167q56 167 108 271t108 156t123 52q56 0 87.5 -32.5t31.5 -79.5q0 -57 -40.5 -92.5t-103.5 -35.5q-9 0 -29 2q7 15 7 31q0 28 -18.5 47t-46.5 19q-42 0 -84 -61.5t-98 -198.5t-171 -443z" />
    <glyph glyph-name="W.swsh.ss01" horiz-adv-x="810" 
d="M1080.5 795.5q31.5 -32.5 31.5 -79.5q0 -57 -40.5 -92.5t-103.5 -35.5q-9 0 -29 2q6 17 6 31q0 28 -18 47t-46 19q-42 0 -84 -62t-99 -200.5t-170 -440.5l-106 468l-194 -468l-119 532q-19 81 -32.5 121t-33.5 63h279q-19 -18 -19 -59q0 -37 18 -125l34 -166l22 62
q8 20 12 28q11 25 15.5 39t4.5 26q0 7 -1 11q-19 86 -34 126t-31 58h278q-17 -18 -17 -59q0 -42 17 -125l32 -167q56 167 108 271t108.5 156t123.5 52q56 0 87.5 -32.5z" />
    <glyph glyph-name="A.swsh" horiz-adv-x="474" 
d="M192 55q0 20 -11 88q-15 -13 -45.5 -30t-77.5 -28q-4 -20 -4 -40q0 -28 12 -45h-121q31 25 60 76q-28 -2 -46 -2q-110 0 -176.5 43.5t-93.5 107.5t-27 132q0 77 33.5 144t91.5 106.5t129 39.5q65 0 105 -37.5t40 -96.5q0 -36 -16.5 -64.5t-47.5 -34.5q2 20 -26.5 35
t-73.5 15q-77 0 -119 -48t-42 -118q0 -80 53 -141t186 -61q16 0 42 2q20 41 39 86l216 532l115 -532q18 -82 31.5 -122.5t33.5 -61.5h-278q18 18 18 55zM141.5 150q24.5 30 24.5 68q0 7 -2 23l1 -5l-19 108l-57 -160q-18 -50 -26 -78q54 14 78.5 44z" />
    <glyph glyph-name="B.swsh" horiz-adv-x="564" 
d="M506 335q41 -45 41 -124q0 -102 -71 -156.5t-184 -54.5h-296q20 14 30.5 27.5t18.5 49t16 107.5l34 324q1 10 1 29q0 77 -32 105t-69 28q-53 0 -85 -36.5t-32 -86.5q0 -46 25.5 -73t56.5 -27q10 0 15 2q2 -14 2 -19q0 -32 -17.5 -60t-48 -44.5t-67.5 -16.5q-55 0 -93 39
t-38 103q0 71 43.5 128t117 89t159.5 32h323q76 0 130.5 -36.5t54.5 -117.5q0 -65 -39.5 -111t-100.5 -50q64 -5 105 -50zM347 442q16 46 16 125q0 110 -28 110q-9 0 -15.5 -13t-12 -46.5t-12.5 -101.5l-13 -123q49 3 65 49zM336 80.5q15 57.5 15 134.5t-15.5 116.5
t-55.5 43.5l-20 -191q-6 -61 -6 -94q0 -40 6.5 -53.5t20.5 -13.5q40 0 55 57.5z" />
    <glyph glyph-name="D.swsh" horiz-adv-x="587" 
d="M449.5 667.5q55.5 -32.5 90 -98.5t34.5 -163q0 -105 -40 -198.5t-113 -150.5t-168 -57h-257q20 14 30.5 27.5t18.5 49t16 107.5l34 324q1 10 1 29q0 77 -32 105t-69 28q-53 0 -85 -36.5t-32 -86.5q0 -46 25.5 -73t56.5 -27q10 0 15 2q2 -14 2 -19q0 -32 -17.5 -60
t-48 -44.5t-67.5 -16.5q-55 0 -93 39t-38 103q0 71 43.5 128t117 89t159.5 32h298q63 0 118.5 -32.5zM331 101q18 74 26.5 177t8.5 188q0 97 -9.5 152t-28.5 55q-10 0 -15.5 -25t-14.5 -102l-40 -384q-4 -32 -4 -60q0 -75 33 -75q26 0 44 74z" />
    <glyph glyph-name="E.swsh" horiz-adv-x="508" 
d="M494 278l-52 -278h-446q20 14 30.5 27.5t18.5 49t16 107.5l34 324q1 10 1 29q0 77 -32 105t-69 28q-53 0 -85 -36.5t-32 -86.5q0 -46 25.5 -73t56.5 -27q10 0 15 2q2 -14 2 -19q0 -32 -17.5 -60t-48 -44.5t-67.5 -16.5q-55 0 -93 39t-38 103q0 71 43.5 128t117 89
t159.5 32h457l-11 -262h-3q-72 236 -130 236q-18 0 -28 -19t-14 -47.5t-9 -90.5l-17 -164l2 20v-5q0 -16 10 -16q17 0 41 13.5t48.5 43.5t40.5 76h3l-30 -291h-3q-7 47 -25 76.5t-39.5 43t-37.5 13.5q-4 0 -8.5 -5.5t-6.5 -13.5l-13 -123l-3 -23q-7 -59 -7 -85q0 -25 7 -38
t23 -13q15 0 44 19t72.5 75t94.5 158h3z" />
    <glyph glyph-name="F.swsh" horiz-adv-x="482" 
d="M485 438h-3q-74 236 -136 236q-18 0 -28 -19t-14 -47.5t-9 -90.5l-16 -154q0 -20 9 -20q18 0 43.5 15t51 47t41.5 79h3l-33 -307h-3q-6 47 -24 79t-40 47t-40 15q-11 0 -15 -19l-12 -115q-7 -62 -7 -100q0 -39 7.5 -54.5t26.5 -29.5h-291q20 14 30.5 27.5t18.5 49
t16 107.5l34 324q1 10 1 29q0 77 -32 105t-69 28q-53 0 -85 -36.5t-32 -86.5q0 -46 25.5 -73t56.5 -27q10 0 15 2q2 -14 2 -19q0 -32 -17.5 -60t-48 -44.5t-67.5 -16.5q-55 0 -93 39t-38 103q0 71 43.5 128t117 89t159.5 32h462z" />
    <glyph glyph-name="H.swsh" horiz-adv-x="631" 
d="M656 700q-20 -14 -30.5 -27.5t-18.5 -49t-16 -107.5l-35 -332q-7 -62 -7 -100q0 -39 7.5 -54.5t26.5 -29.5h-290q20 14 30.5 27.5t18.5 49t16 107.5l12 115l-14 -129l1 14q0 40 -22.5 79t-60.5 65l-15 -144q-7 -62 -7 -100q0 -39 7.5 -54.5t26.5 -29.5h-291
q21 14 31 27.5t18.5 49t16.5 107.5l18 172q-69 -23 -112.5 -82.5t-43.5 -136.5q0 -45 13 -79t29 -31q-40 -48 -109 -48q-63 0 -96 40.5t-33 99.5q0 77 53 144t136 107t168 41l11 105q8 72 8 102q0 38 -7.5 53t-26.5 29h290q-20 -14 -30.5 -27.5t-18.5 -49t-16 -107.5
l-17 -161q26 -18 54 -44q3 -3 11 -9.5t12.5 -9.5t7.5 -3q6 0 9 16l22 211q7 62 7 100q0 39 -7.5 54.5t-26.5 29.5h290zM371 307v-1v1z" />
    <glyph glyph-name="I.swsh" horiz-adv-x="334" 
d="M329.5 672.5q-10.5 -13.5 -18.5 -49t-16 -107.5l-35 -332q-7 -62 -7 -100q0 -39 7.5 -54.5t26.5 -29.5h-291q20 14 30.5 27.5t18.5 49t16 107.5l34 324q1 10 1 29q0 77 -32 105t-69 28q-53 0 -85 -36.5t-32 -86.5q0 -46 25.5 -73t56.5 -27q10 0 15 2q2 -14 2 -19
q0 -32 -17.5 -60t-48 -44.5t-67.5 -16.5q-55 0 -93 39t-38 103q0 71 43.5 128t117 89t159.5 32h327q-20 -14 -30.5 -27.5z" />
    <glyph glyph-name="J.swsh" horiz-adv-x="311" 
d="M334.5 672.5q-10.5 -13.5 -18.5 -49t-16 -107.5l-37 -356q-7 -67 -41.5 -114.5t-82 -71t-93.5 -23.5q-37 0 -71 16l1 3q29 6 45.5 23t25.5 52t15 99l38 349l-6 3q2 15 2 41q0 77 -32 105t-69 28q-53 0 -85 -36.5t-32 -86.5q0 -46 25.5 -73t56.5 -27q10 0 15 2
q2 -14 2 -19q0 -32 -17.5 -60t-48 -44.5t-67.5 -16.5q-55 0 -93 39t-38 103q0 71 43.5 128t117 89t159.5 32h332q-20 -14 -30.5 -27.5z" />
    <glyph glyph-name="K.swsh" horiz-adv-x="624" 
d="M505 240q35 -116 57 -165.5t44 -74.5h-245q-1 20 -28 121l-21 79l-36 132l-16 -148q-7 -62 -7 -100q0 -39 7.5 -54.5t26.5 -29.5h-291q20 14 30.5 27.5t18.5 49t16 107.5l34 324q1 10 1 29q0 77 -32 105t-69 28q-53 0 -85 -36.5t-32 -86.5q0 -46 25.5 -73t56.5 -27
q10 0 15 2q2 -14 2 -19q0 -32 -17.5 -60t-48 -44.5t-67.5 -16.5q-55 0 -93 39t-38 103q0 71 43.5 128t117 89t159.5 32h327q-20 -14 -30.5 -27.5t-18.5 -49t-16 -107.5l-18 -169q96 122 139 192.5t43 108.5q0 35 -37 52h201q-73 -36 -200 -195z" />
    <glyph glyph-name="L.swsh" horiz-adv-x="490" 
d="M482 307l-74 -305l-412 -2q20 14 30.5 27.5t18.5 49t16 107.5l28 267l3 26l3 31q1 10 1 29q0 77 -32 105t-69 28q-53 0 -85 -36.5t-32 -86.5q0 -46 25.5 -73t56.5 -27q10 0 15 2q2 -14 2 -19q0 -32 -17.5 -60t-48 -44.5t-67.5 -16.5q-55 0 -93 39t-38 103q0 71 43.5 128
t117 89t159.5 32h327q-20 -14 -30.5 -27.5t-18.5 -49t-16 -107.5l-35 -331l-4 -37q-7 -52 -7 -76q0 -44 22 -44q12 0 33 22.5t61.5 82t113.5 174.5h3z" />
    <glyph glyph-name="M.swsh" horiz-adv-x="744" 
d="M739.5 672.5q-10.5 -13.5 -18.5 -49t-16 -107.5l-35 -332q-7 -62 -7 -100q0 -39 7.5 -54.5t26.5 -29.5h-291q20 14 30.5 27.5t18.5 49t16 107.5l38 362l-236 -556l-145 568l-39 -374q-6 -57 -6 -89t6 -49.5t16.5 -26.5t32.5 -19h-159q28 13 41.5 27t23 49t17.5 108
l34 324q1 10 1 29q0 77 -32 105t-69 28q-53 0 -85 -36.5t-32 -86.5q0 -46 25.5 -73t56.5 -27q10 0 15 2q2 -14 2 -19q0 -32 -17.5 -60t-48 -44.5t-67.5 -16.5q-55 0 -93 39t-38 103q0 71 43.5 128t117 89t159.5 32h283l82 -344l139 344h233q-20 -14 -30.5 -27.5z" />
    <glyph glyph-name="N.swsh" horiz-adv-x="497" 
d="M553 700q-28 -13 -41.5 -27t-23 -49t-17.5 -108l-27 -252q-8 -77 -12.5 -137.5t-8.5 -146.5h-5l-290 576l-39 -372q-6 -57 -6 -89t6 -49.5t16.5 -26.5t32.5 -19h-159q28 13 41.5 27t23 49t17.5 108l34 324q1 10 1 29q0 77 -32 105t-69 28q-53 0 -85 -36.5t-32 -86.5
q0 -46 25.5 -73t56.5 -27q10 0 15 2q2 -14 2 -19q0 -32 -17.5 -60t-48 -44.5t-67.5 -16.5q-55 0 -93 39t-38 103q0 71 43.5 128t117 89t159.5 32h277q1 -16 7 -32.5t19 -44.5l12 -25l85 -186l10 104q5 48 5 89q0 33 -5 50t-14.5 26t-29.5 19h154z" />
    <glyph glyph-name="P.swsh" horiz-adv-x="546" 
d="M499 656.5q60 -43.5 60 -147.5q0 -106 -68.5 -166t-192.5 -60l1 8q37 6 50 94t13 182q0 107 -23 107q-27 0 -44 -158l-35 -332q-7 -62 -7 -100q0 -39 7.5 -54.5t26.5 -29.5h-291q20 14 30.5 27.5t18.5 49t16 107.5l34 324q1 10 1 29q0 77 -32 105t-69 28q-53 0 -85 -36.5
t-32 -86.5q0 -46 25.5 -73t56.5 -27q10 0 15 2q2 -14 2 -19q0 -32 -17.5 -60t-48 -44.5t-67.5 -16.5q-55 0 -93 39t-38 103q0 71 43.5 128t117 89t159.5 32h323q83 0 143 -43.5z" />
    <glyph glyph-name="Q.swsh" horiz-adv-x="583" 
d="M905 -78q-5 -65 -50.5 -100t-126.5 -35q-59 0 -111.5 17.5t-93.5 42.5t-96 64q-58 41 -92.5 60t-68.5 19l2 1q-5 -1 -17 -1q-109 0 -163 80t-54 208q0 112 38 211t109 160t164 61q108 0 162.5 -80.5t54.5 -207.5q0 -93 -27.5 -179t-79 -149.5t-120.5 -88.5
q29 -1 65.5 -11t94.5 -30q93 -31 160.5 -48t137.5 -17q78 0 110 27zM288 18q34 0 51.5 113t17.5 272q0 131 -12.5 205.5t-38.5 74.5q-35 0 -52 -113.5t-17 -273.5q0 -278 51 -278z" />
    <glyph glyph-name="R.swsh" horiz-adv-x="597" 
d="M593 1q-31 -6 -84 -6q-76 0 -117 40t-56 92.5t-25 125.5q-6 43 -10.5 61t-15.5 18l-1 3q37 0 55.5 22t24.5 62.5t6 107.5q0 68 -9 107.5t-23 39.5q-27 0 -44 -158l-35 -332q-7 -62 -7 -100q0 -39 7.5 -54.5t26.5 -29.5h-291q21 14 31 27.5t18.5 49t16.5 107.5l34 332
l1 11q3 83 -29.5 113t-71.5 30q-53 0 -85 -36.5t-32 -86.5q0 -46 25.5 -73t56.5 -27q10 0 15 2q2 -14 2 -19q0 -32 -17.5 -60t-48 -44.5t-67.5 -16.5q-55 0 -93 39t-38 103q0 71 43.5 128t117 89t159.5 32h327q85 0 138 -43.5t53 -125.5q0 -53 -23.5 -95t-65.5 -69
q87 -365 131 -366z" />
    <glyph glyph-name="V.swsh" horiz-adv-x="520" 
d="M570 700q-28 -23 -54 -65.5t-57 -118.5l-221 -532l-120 532q-33 154 -128 154q-46 0 -77.5 -36.5t-31.5 -86.5q0 -46 25 -73t56 -27q10 0 15 2q2 -14 2 -21q0 -31 -17.5 -58.5t-47.5 -44t-67 -16.5q-57 0 -94 42.5t-37 119.5q0 106 75 167.5t262 61.5h300
q-20 -8 -28.5 -26t-8.5 -47q0 -38 15 -111l33 -164l62 164q36 95 36 139q0 27 -13 45h121z" />
    <glyph glyph-name="W.swsh" horiz-adv-x="799" 
d="M860 700q-28 -22 -53.5 -64.5t-57.5 -119.5l-219 -532l-102 466l-193 -466l-117 532l-3 13q-34 141 -125 141q-46 0 -77.5 -36.5t-31.5 -86.5q0 -46 25 -73t56 -27q10 0 15 2q2 -14 2 -21q0 -31 -17.5 -58.5t-47.5 -44t-67 -16.5q-57 0 -94 42.5t-37 119.5
q0 106 75 167.5t262 61.5h278q-19 -20 -19 -57q0 -21 5.5 -54.5t13.5 -72.5l31 -164l20 60q10 31 15 56t5 55q0 33 -7 69q-12 42 -22.5 67.5t-24.5 40.5h278q-19 -20 -19 -57q0 -21 5.5 -54.5t13.5 -72.5l31 -166l60 166q34 96 34 141q0 28 -11 43h120z" />
    <glyph glyph-name="X.swsh" horiz-adv-x="515" 
d="M439.5 74.5q13.5 -35.5 22.5 -46.5t31 -28h-303q13 11 17.5 18.5t4.5 25.5q0 33 -24 140l-19 90l-44 -90q-40 -82 -53 -113t-13 -46q0 -8 3 -13t10 -12h-116q5 3 28.5 17.5t52 56t62.5 110.5l62 129l-43 203q0 2 -1 3q-33 151 -127 151q-46 0 -77.5 -36.5t-31.5 -86.5
q0 -46 25 -73t56 -27q10 0 15 2q2 -14 2 -21q0 -31 -17.5 -58.5t-47.5 -44t-67 -16.5q-57 0 -94 42.5t-37 119.5q0 103 71 164.5t246 64.5h303q-11 -7 -16 -17.5t-5 -26.5q0 -26 19 -110l6 -30l9 -43l21 43q31 64 44 98.5t13 54.5q0 18 -13 31h116q-32 -21 -62.5 -59.5
t-72.5 -124.5l-38 -80l53 -252q16 -74 29.5 -109.5z" />
    <glyph glyph-name="i.loclTRK" horiz-adv-x="271" 
d="M15 35.5q10 19.5 15 64.5l28 258q2 15 2 40q0 50 -19 80l212 32l-44 -410q-1 -10 -1 -28q0 -30 5.5 -44t15.5 -28h-239q15 16 25 35.5zM117.5 567q-19.5 23 -19.5 57q0 38 26 67t61 29q30 0 50.5 -22t20.5 -53q0 -41 -26.5 -71t-62.5 -30q-30 0 -49.5 23z" />
    <glyph glyph-name="i.ss01" horiz-adv-x="271" 
d="M15 35.5q10 19.5 15 64.5l28 258q2 15 2 40q0 50 -19 80l212 32l-44 -410q-1 -10 -1 -28q0 -30 5.5 -44t15.5 -28h-239q15 16 25 35.5z" />
    <glyph glyph-name="r.ss01" horiz-adv-x="345" 
d="M637 734.5q30 -25.5 30 -66.5q0 -53 -44.5 -81t-109.5 -27q3 8 3 16q0 16 -13 26.5t-34 10.5q-47 0 -99.5 -49.5t-95 -149.5t-57.5 -245h-1l-7 -69q-1 -10 -1 -28q0 -30 5.5 -44t15.5 -28h-239q15 16 25 35.5t15 64.5l28 258q2 15 2 40q0 50 -19 80l212 32l-18 -165
q31 121 80.5 215t112 147t130.5 53q49 0 79 -25.5z" />
    <glyph glyph-name="h.swsh.ss01" horiz-adv-x="523" 
d="M457 100q-2 -13 -2 -33q0 -24 5 -37.5t10 -20.5t6 -9h-238q1 2 10.5 12.5t17.5 33.5t11 54l22 205q5 45 5 75q0 25 -5 25q-6 0 -24 -41t-36 -108t-27 -146l-1 -10q-2 -22 -2 -30q0 -29 5.5 -42.5t15.5 -27.5h-238q1 2 10.5 12.5t17.5 33.5t11 54l43 401l-1 -1q6 51 6 87
q0 72 -20.5 97t-59.5 25q-63 0 -95.5 -38.5t-32.5 -93.5q0 -52 27 -79t61 -27q11 0 20 3q3 -56 -29.5 -95.5t-83.5 -39.5q-47 0 -80.5 37.5t-33.5 106.5q0 72 37 129.5t103.5 89.5t150.5 32h235l-46 -433q27 109 80.5 159t118.5 50q30 0 46 -13t16 -50q0 -14 -1 -22z" />
    <glyph glyph-name="i.ss02" horiz-adv-x="271" 
d="M30 100l18 178q1 9 1 25q0 42 -18 75l212 32l-34 -310q-1 -8 -1 -22q0 -52 21 -78h-239q34 36 40 100z" />
    <glyph glyph-name="a.swsh" horiz-adv-x="720" 
d="M685.5 348.5q32.5 -36.5 32.5 -99.5q0 -60 -30.5 -119t-102 -99.5t-186.5 -40.5q-90 0 -127 21t-37 57q0 9 1 13l15 136q-13 -86 -49 -156.5t-98 -70.5q-45 0 -70.5 41t-25.5 118q0 88 34.5 171.5t100 136.5t151.5 53q32 0 83.5 -5.5t81.5 -13.5l-27 -262l-3 -25
q-10 -85 -10 -115q0 -43 11.5 -57t38.5 -14q43 0 73 22.5t44.5 54.5t14.5 61t-14 51t-35.5 34t-42.5 12q-9 0 -18 -3q-2 36 13.5 67t42.5 49.5t59 18.5q47 0 79.5 -36.5zM238.5 207q15.5 58 25.5 132t10 110q0 21 -5 30t-10 9q-18 0 -33 -46t-23.5 -112.5t-8.5 -121.5
q0 -34 3.5 -46.5t9.5 -12.5q16 0 31.5 58z" />
    <glyph glyph-name="d.swsh" horiz-adv-x="720" 
d="M685.5 348.5q32.5 -36.5 32.5 -99.5q0 -60 -30.5 -119t-102 -99.5t-186.5 -40.5q-90 0 -127 21t-37 58l1 12l15 136q-13 -86 -49 -156.5t-98 -70.5q-45 0 -70.5 41t-25.5 118q0 86 33 167.5t95.5 135.5t145.5 58l6 60q3 27 3 48q0 55 -19 82l214 35l-57 -531
q-8 -82 -8 -115q0 -43 10.5 -57t37.5 -14q43 0 73 22.5t44.5 54.5t14.5 61t-14 51t-35.5 34t-42.5 12q-9 0 -18 -3q-2 36 13.5 67t42.5 49.5t59 18.5q47 0 79.5 -36.5zM237 200.5q15 51.5 25 123.5l12 109v16q0 21 -5 30t-10 9q-18 0 -33 -46t-23.5 -112.5t-8.5 -121.5
q0 -34 3.5 -46.5t9.5 -12.5q15 0 30 51.5zM254 252l2 17l-1 -1q0 -10 -1 -16z" />
    <glyph glyph-name="h.swsh" horiz-adv-x="769" 
d="M708.5 368.5q26.5 -16.5 42.5 -48t16 -74.5q0 -74 -45 -132.5t-122.5 -91t-172.5 -32.5t-127 23t-29 52l27 240q5 45 5 75q0 25 -5 25q-6 0 -24.5 -42.5t-37 -111t-27.5 -149.5v-2q-1 -10 -1 -28q0 -30 5.5 -44t15.5 -28h-239q15 16 25 35.5t15 64.5l50 470q3 27 3 48
q0 57 -20 82l214 34l-47 -435q27 110 80.5 160.5t118.5 50.5q31 0 47.5 -12.5t16.5 -48.5q0 -6 -2 -24l-20 -179q-12 -105 -12 -153q0 -46 11 -60.5t37 -14.5q38 0 70 20.5t50.5 53.5t18.5 68q0 43 -28 68t-62 25q-10 0 -19 -3q-2 36 13.5 67t42.5 49.5t59 18.5
q30 0 56.5 -16.5z" />
    <glyph glyph-name="m.swsh" horiz-adv-x="1014" 
d="M954.5 368.5q26.5 -16.5 42.5 -48t16 -74.5q0 -74 -45 -132.5t-122.5 -91t-172.5 -32.5t-127 23t-29 52l27 240q5 45 5 75q0 25 -5 25q-6 0 -23.5 -40.5t-35.5 -106.5t-27 -144l-2 -14q-2 -13 -2 -33q0 -24 5 -37.5t10 -20.5t6 -9h-238q1 2 10.5 12.5t17.5 33.5t11 54
l22 205q5 45 5 75q0 25 -5 25q-6 0 -24.5 -42.5t-37 -111t-27.5 -149.5v-2q-4 -45 -4 -71q0 -18 3 -29h-218q15 16 25 35.5t15 64.5l28 258q2 15 2 40q0 50 -19 80l212 32l-23 -211q27 110 81 160.5t118 50.5q31 0 47 -13t16 -50q0 -14 -1 -22l-13 -119q27 106 80.5 155
t116.5 49q31 0 47 -13t16 -50q0 -14 -1 -22l-20 -179q-13 -101 -13 -152q0 -47 11 -61.5t38 -14.5q38 0 70 20.5t50.5 53.5t18.5 68q0 43 -28 68t-62 25q-10 0 -19 -3q-2 36 13.5 67t42.5 49.5t59 18.5q30 0 56.5 -16.5z" />
    <glyph glyph-name="n.swsh" horiz-adv-x="769" 
d="M708.5 368.5q26.5 -16.5 42.5 -48t16 -74.5q0 -74 -45 -132.5t-122.5 -91t-172.5 -32.5t-127 23t-29 52l27 240q5 45 5 75q0 25 -5 25q-6 0 -24.5 -42.5t-37 -111t-27.5 -149.5v-2q-4 -45 -4 -71q0 -18 3 -29h-218q15 16 25 35.5t15 64.5l28 258q3 24 3 41q0 50 -20 79
l212 32l-23 -211q27 110 81 160.5t118 50.5q31 0 47.5 -12.5t16.5 -48.5q0 -6 -2 -24l-20 -179q-12 -105 -12 -153q0 -46 11 -60.5t37 -14.5q38 0 70 20.5t50.5 53.5t18.5 68q0 43 -28 68t-62 25q-10 0 -19 -3q-2 36 13.5 67t42.5 49.5t59 18.5q30 0 56.5 -16.5z" />
    <glyph glyph-name="p.swsh" horiz-adv-x="501" 
d="M754 -80q34 -14 62 -38l-86 -151q-23 27 -74.5 41t-119.5 14q-52 0 -102 -5.5t-127 -17.5q-70 -10 -112.5 -15t-83.5 -5q-73 0 -138.5 20.5t-79.5 72.5q26 -29 50 -29q28 0 48.5 33.5t26.5 93.5l45 419q3 33 3 55q0 32 -5 46.5t-14 25.5l212 30l-24 -232q12 88 48 160
t99 72q45 0 70.5 -41t25.5 -118q0 -87 -34 -170.5t-96 -137t-143 -53.5l-7 -72q-6 -62 -26 -96.5t-40.5 -45.5t-35.5 -11q53 0 110.5 19.5t151.5 59.5q100 44 170 67t139 23q53 0 87 -14zM248 293q-15 -58 -25.5 -132.5t-10.5 -109.5q0 -21 5 -30t10 -9q18 0 33 46t23 112.5
t8 123.5q0 33 -3 45t-9 12q-16 0 -31 -58z" />
    <glyph glyph-name="t.swsh" horiz-adv-x="315" 
d="M560.5 795.5q33.5 -37.5 33.5 -106.5q0 -72 -37 -129.5t-103 -89.5t-150 -32h-57l-34 -324q-1 -6 -1 -18q0 -24 10 -37t35 -13q22 0 34 5h1q-6 -14 -31 -28t-59 -23.5t-64 -9.5q-52 0 -82.5 29t-25.5 73l37 346h-50l255 237v-3q-5 -41 -5 -84q0 -75 20.5 -100t60.5 -25
q63 0 95.5 38.5t32.5 93.5q0 52 -27 79t-61 27q-12 0 -21 -3q-2 37 12 68t41 49t60 18q47 0 80.5 -37.5z" />
    <glyph glyph-name="u.swsh" horiz-adv-x="768" 
d="M707.5 367.5q26.5 -16.5 42.5 -48t16 -74.5q0 -74 -45 -132.5t-122.5 -91t-172.5 -32.5t-127 23.5t-29 51.5l15 134q-27 -107 -80.5 -157.5t-117.5 -50.5q-31 0 -47 13t-16 50q0 14 1 22l33 306q1 8 1 24q0 46 -18 73l212 32l-34 -315q-6 -46 -6 -77q0 -23 5 -23
t27.5 52.5t40.5 121.5t18 129q0 30 -5 50t-12 30l212 32l-34 -307q-8 -75 -8 -109q0 -48 11 -62.5t38 -14.5q38 0 70 20.5t50.5 53.5t18.5 68q0 43 -28 68t-62 25q-10 0 -19 -3q-2 36 13.5 67t42.5 49.5t59 18.5q30 0 56.5 -16.5z" />
    <glyph glyph-name="v.swsh" horiz-adv-x="402" 
d="M391.5 778.5q49.5 -36.5 49.5 -125.5q0 -9 -2 -33q-4 -41 -23.5 -96t-66.5 -161.5t-173 -381.5h-1l-90 357q-21 86 -34 118t-34 44h240q-14 -14 -14 -48q0 -42 16 -113l18 -83q54 131 72 189t24 104q2 26 2 36q0 98 -67 98q-39 0 -61 -27.5t-22 -58.5q0 -11 5 -21
q-6 -1 -19 -1q-46 0 -78 29.5t-32 71.5q0 38 24.5 70t65.5 50.5t87 18.5q64 0 113.5 -36.5z" />
    <glyph glyph-name="w.swsh" horiz-adv-x="651" 
d="M641.5 778q49.5 -37 49.5 -127q0 -9 -2 -31q-4 -41 -23.5 -96t-66.5 -161.5t-173 -381.5h-1l-70 278q-25 -55 -56 -103t-87 -125l-36 -50h-1l-90 358q-21 85 -34 117t-34 44h240q-14 -14 -14 -48q0 -42 16 -113l33 -152q19 14 33 51t14 72q0 8 -2 20l-2 8q-21 85 -34 117
t-34 45h240q-14 -14 -14 -48q0 -42 16 -113l18 -83q55 134 73 191t23 102q2 26 2 36q0 98 -67 98q-38 0 -60.5 -27.5t-22.5 -57.5q0 -12 5 -22q-6 -1 -19 -1q-46 0 -78 29.5t-32 71.5q0 38 24.5 70t65.5 50.5t87 18.5q64 0 113.5 -37z" />
    <glyph glyph-name="x.swsh" horiz-adv-x="442" 
d="M403 777.5q49 -37.5 49 -129.5q0 -18 -1 -28q-5 -43 -34 -106t-121 -224l51 -172q16 -50 29.5 -75t31.5 -43h-265q18 11 26.5 24t8.5 33q0 23 -12 62l-14 47q-55 -84 -55 -127q0 -25 20 -39h-157q6 4 33 23t63 55.5t72 86.5l17 23l-57 187q-16 54 -30 80.5t-33 44.5h245
q-15 -18 -15 -47q0 -30 15 -78l19 -62q55 100 73.5 147.5t22.5 88.5q3 21 3 40q0 45 -17.5 69.5t-50.5 24.5q-39 0 -61 -27.5t-22 -58.5q0 -11 5 -21q-6 -1 -19 -1q-46 0 -78 29.5t-32 71.5q0 38 24.5 70t65.5 50.5t87 18.5q64 0 113 -37.5z" />
    <glyph glyph-name="y.swsh" horiz-adv-x="446" 
d="M437 780q50 -35 50 -123q0 -125 -92.5 -309.5t-217.5 -373.5q-44 -66 -96 -109t-99 -43q-16 0 -27 5.5t-13 10.5l46 124q20 -9 62 -9q57 0 86 16.5t29 55.5q0 17 -6 41l-69 273q-20 84 -33 116t-34 45h240q-15 -15 -15 -48q0 -36 16 -113l29 -136q70 132 100 217t30 161
q0 48 -21.5 75t-61.5 27t-60.5 -25t-20.5 -55q0 -16 6 -27q-7 -1 -19 -1q-47 0 -78 29t-31 73q0 38 26.5 70t69.5 50t90 18q64 0 114 -35z" />
    <glyph glyph-name="f_t" horiz-adv-x="608" 
d="M505 94q-3 -22 9.5 -35t36.5 -13q18 0 39 7h1q-6 -14 -33 -28.5t-63.5 -24.5t-70.5 -10q-50 0 -75.5 23.5t-25.5 64.5l1 14l20 199q4 32 4 64q0 54 -13 83t-36 29q-21 0 -31.5 -32.5t-18.5 -112.5l-25 -258q-6 -66 -39 -122.5t-96.5 -91.5t-158.5 -35q41 7 67.5 47
t37.5 137l46 437h-65q28 28 53.5 62t62.5 87q56 82 92.5 121.5t74.5 39.5q20 0 33 -20t13 -53q0 -47 -28 -82.5t-68 -35.5q-15 0 -23.5 4.5t-18.5 13.5q-9 8 -15.5 11.5t-15.5 3.5q-16 0 -24.5 -10.5t-8.5 -27.5q0 -25 30.5 -37.5t113.5 -12.5q69 0 136.5 33t139.5 132h2
l-17 -166q42 0 70 3l-19 -64h-58z" />
    <glyph glyph-name="fi.ss01" horiz-adv-x="576" 
d="M-2.5 -138q26.5 40 37.5 137l46 437h-65q90 194 197 274t207 80q69 0 106 -33t37 -83q0 -36 -20 -66.5t-52 -48.5t-66 -18q-18 0 -31 4q2 16 2 24q0 50 -26 87.5t-79 37.5q-47 0 -76 -27t-29 -67q0 -45 43.5 -77t145.5 -32q46 0 99.5 5t82.5 14l-43 -410q-1 -7 -1 -20
q0 -28 6 -49t14 -31h-238q12 14 24 40t15 60l20 191q3 33 3 61q0 57 -14 86t-39 29q-17 0 -27 -13.5t-16.5 -44t-11.5 -87.5l-25 -258q-6 -66 -39 -122.5t-96.5 -91.5t-158.5 -35q41 7 67.5 47z" />
    <glyph glyph-name="zero.osf" horiz-adv-x="488" 
d="M111 20q-46 30 -71 82t-25 117q0 76 34 143t92.5 107.5t129.5 40.5q60 0 106 -30t71.5 -82t25.5 -116q0 -77 -34 -144t-93 -107.5t-130 -40.5q-60 0 -106 30zM252.5 85q14.5 70 23.5 164t9 152q0 84 -16 84q-19 0 -34.5 -68.5t-24.5 -160.5t-9 -149q0 -41 5 -66.5
t14 -25.5q18 0 32.5 70z" />
    <glyph glyph-name="one.osf" horiz-adv-x="345" 
d="M44.5 37q19.5 27 26.5 93l22 201q4 33 4 58q0 28 -11.5 40.5t-48.5 25.5v5l253 70l-42 -400q-2 -16 -2 -41q0 -42 15 -61.5t53 -27.5h-335q46 10 65.5 37z" />
    <glyph glyph-name="two.osf" horiz-adv-x="395" 
d="M42 96q55 75 81.5 114.5t42 75t15.5 68.5q0 63 -47 63q-54 0 -101 -101h-4q17 79 72 136.5t147 57.5q72 0 103.5 -34.5t31.5 -81.5q0 -48 -31.5 -89.5t-76 -72.5t-116.5 -74l-38 -22q99 0 164 13t99 54l-91 -203h-322q50 70 71 96z" />
    <glyph glyph-name="three.osf" horiz-adv-x="412" 
d="M272 274q50 0 83.5 -41.5t33.5 -118.5q0 -84 -41.5 -158.5t-111.5 -120t-151 -45.5q-40 0 -75.5 11.5t-57.5 29.5q18 -2 28 -2q58 0 109 32t81.5 84t30.5 108q0 44 -18 62t-43 18q-16 0 -28 -6l92 127l3 2l68 92h-35q-67 0 -106 -4.5t-69.5 -20.5t-55.5 -50l98 227h314
l-172 -228q8 2 23 2z" />
    <glyph glyph-name="four.osf" horiz-adv-x="422" 
d="M303 -51q-1 -9 -1 -25q0 -45 19 -75l-239 -42q34 36 39 100l12 103h-162l392 515l-49 -463h86l-24 -52h-67zM154 211l-113 -149h97z" />
    <glyph glyph-name="five.osf" horiz-adv-x="404" 
d="M301.5 243q31.5 -21 49.5 -59.5t18 -90.5q0 -76 -38 -146.5t-102 -113.5t-139 -43q-39 0 -73 10.5t-51 22.5q16 -4 36 -4q50 0 90.5 31.5t63.5 83t23 107.5q0 48 -18.5 73t-60.5 25q-40 0 -78 -21l60 382h96q194 0 231 21l-68 -173h-253l-29 -167q97 83 173 83
q38 0 69.5 -21z" />
    <glyph glyph-name="six.osf" horiz-adv-x="481" 
d="M121 19.5q-43 29.5 -67.5 86.5t-24.5 137q0 109 42.5 218t117 179t164.5 70q34 0 56 -10q-81 0 -127.5 -107t-65.5 -290q-10 -97 -10 -175q0 -116 24 -116q22 0 37 88.5t15 163.5q0 115 -46 115q-7 0 -10 -1q19 37 51 55.5t69 18.5q64 0 91 -49.5t27 -124.5
q0 -79 -29 -145t-84.5 -104.5t-130.5 -38.5q-56 0 -99 29.5z" />
    <glyph glyph-name="seven.osf" horiz-adv-x="433" 
d="M482 500q-53 -44 -113.5 -160t-104.5 -262.5t-49 -277.5h-200q5 127 67 242t138 194.5t126 111.5h-98q-80 0 -121 -4.5t-69.5 -20t-54.5 -50.5l98 227h381z" />
    <glyph glyph-name="eight.osf" horiz-adv-x="446" 
d="M392 480.5q-33 -40.5 -70 -55.5q54 -78 77.5 -125.5t23.5 -100.5q0 -62 -32 -109.5t-86.5 -73.5t-118.5 -26q-83 0 -131 42t-48 114q0 50 21.5 89t53.5 62t61 27q-36 57 -53.5 100.5t-17.5 88.5q0 59 27.5 104t74.5 69t102 24q69 0 109 -36.5t40 -96.5q0 -56 -33 -96.5z
M248 665q-11 -21 -11 -54q0 -35 16.5 -72.5t51.5 -88.5q15 65 15 127q0 48 -10 78.5t-33 30.5q-18 0 -29 -21zM229.5 43q17.5 27 17.5 69q0 39 -17 74t-61 99l-15 22q-11 -31 -18 -76.5t-7 -81.5q0 -53 16.5 -93t44.5 -40q22 0 39.5 27z" />
    <glyph glyph-name="nine.osf" horiz-adv-x="489" 
d="M360 480.5q43 -29.5 67.5 -86.5t24.5 -137q0 -109 -42.5 -218t-117 -179t-165.5 -70q-32 0 -55 10q81 0 127.5 107t65.5 290q10 80 10 175q0 116 -24 116q-22 0 -37 -88.5t-15 -163.5q0 -115 46 -115q7 0 10 1q-19 -36 -51.5 -55t-68.5 -19q-64 0 -91 50t-27 125
q0 79 29 144.5t84 104t131 38.5q56 0 99 -29.5z" />
    </font>
</defs>
</svg>
