<?xml version="1.0" standalone="no"?>
<!DOCTYPE svg PUBLIC "-//W3C//DTD SVG 1.1//EN" "http://www.w3.org/Graphics/SVG/1.1/DTD/svg11.dtd" >
<svg xmlns="http://www.w3.org/2000/svg" xmlns:xlink="http://www.w3.org/1999/xlink" version="1.1">
<metadata>
Created by FontForge 20170731 at Fri Sep  9 20:30:21 2022
 By Aleksey,,,
Copyright (c) 2020 by Bagas Ardiatma. All rights reserved.
</metadata>
<defs>
<font id="CaustenRound-SemiBoldOblique" horiz-adv-x="1171" >
  <font-face 
    font-family="Causten Round Semi Bold Oblique"
    font-weight="600"
    font-style="oblique"
    font-stretch="normal"
    units-per-em="2048"
    panose-1="0 0 7 0 0 0 0 0 0 0"
    ascent="1638"
    descent="-410"
    x-height="942"
    cap-height="1331"
    bbox="-526.215 -410 2769.65 1778"
    underline-thickness="102"
    underline-position="-307"
    unicode-range="U+0020-25CA"
  />
<missing-glyph horiz-adv-x="972" 
d="M799 1536v-1946h-619v1946h619zM647 1405h-319v-64h125v-71h-127v-64h321v64h-127v71h127v64zM520 1155h-194v-203h321v66h-127v137zM453 1090v-72h-64v72h64zM647 899h-321v-63h127v-72h-127v-64h194v136h127v63zM647 782h-63v-127h-258v-67h321v194zM647 545h-194v-109
h67v45h64v-92h-195v156h-63v-219h321v219zM647 209h-321v-219h321v219zM584 145v-92h-195v92h195zM647 -55h-321v-64h135l-135 -92v-63h321v63h-198l137 92h61v64z" />
    <glyph glyph-name="f_f.liga" unicode="ff" horiz-adv-x="1339" 
d="M1294 1159q-52 0 -94.5 -30t-50.5 -101l-12 -86h176q48 0 45 -49l-10 -70q-1 -23 -16.5 -36t-39.5 -13h-176l-88 -725q-6 -49 -55 -49h-121q-49 0 -43 49l88 725h-420l-88 -725q-6 -49 -55 -49h-123q-49 0 -43 49l88 725h-76q-46 0 -43 49l10 70q1 23 16 36t38 13h75
l13 100q19 140 100.5 214.5t220.5 74.5h119q49 0 43 -49l-10 -74q-1 -23 -16 -36t-39 -13h-52q-52 0 -94.5 -30t-50.5 -101l-12 -86h420l12 100q19 140 98 214.5t211 74.5h145q49 0 43 -49l-10 -74q-1 -23 -16 -36t-39 -13h-68z" />
    <glyph glyph-name="t_t.liga" unicode="tt" horiz-adv-x="1300" 
d="M1325 823q-1 -23 -16 -36t-39 -13h-162l-59 -483q-8 -71 24 -95t90 -24h23q49 0 43 -49l-8 -74q-3 -23 -18 -36t-38 -13h-112q-128 0 -185 66t-43 190l64 518h-412l-59 -483q-4 -38 3.5 -63t26 -36.5t37 -15.5t45.5 -4h23q49 0 43 -49l-8 -74q-3 -23 -18 -36t-38 -13
h-112q-127 0 -184 65.5t-43 190.5l63 518h-76q-46 0 -43 49l10 70q1 23 16 36t38 13h75l31 240q6 49 55 49h123q49 0 43 -49l-30 -240h411l31 240q6 49 55 49h121q49 0 43 -49l-31 -240h162q48 0 45 -49z" />
    <glyph glyph-name=".notdef" horiz-adv-x="972" 
d="M799 1536v-1946h-619v1946h619zM647 1405h-319v-64h125v-71h-127v-64h321v64h-127v71h127v64zM520 1155h-194v-203h321v66h-127v137zM453 1090v-72h-64v72h64zM647 899h-321v-63h127v-72h-127v-64h194v136h127v63zM647 782h-63v-127h-258v-67h321v194zM647 545h-194v-109
h67v45h64v-92h-195v156h-63v-219h321v219zM647 209h-321v-219h321v219zM584 145v-92h-195v92h195zM647 -55h-321v-64h135l-135 -92v-63h321v63h-198l137 92h61v64z" />
    <glyph glyph-name=".null" horiz-adv-x="0" 
 />
    <glyph glyph-name="nonmarkingreturn" horiz-adv-x="682" 
 />
    <glyph glyph-name="space" unicode=" " horiz-adv-x="409" 
 />
    <glyph glyph-name="exclam" unicode="!" horiz-adv-x="436" 
d="M408 1331q49 0 43 -49l-125 -874q-1 -23 -16.5 -36.5t-39.5 -13.5h-100q-46 0 -43 50l94 874q6 49 55 49h132zM207 231q51 0 81.5 -34t24.5 -86q-7 -52 -46.5 -86.5t-90.5 -34.5q-53 0 -82 34.5t-22 86.5q6 52 44 86t91 34z" />
    <glyph glyph-name="quotedbl" unicode="&#x22;" horiz-adv-x="712" 
d="M219 1280q3 51 53 51h117q53 0 41 -51l-53 -233q-9 -48 -58 -48h-67q-48 0 -45 48zM598 1280q3 51 53 51h117q53 0 41 -51l-53 -233q-9 -48 -58 -48h-67q-48 0 -45 48z" />
    <glyph glyph-name="numbersign" unicode="#" horiz-adv-x="1468" 
d="M1479 874q-1 -23 -16.5 -36t-39.5 -13h-168l-114 -336h164q49 0 43 -49l-11 -98q-6 -49 -55 -49h-207l-88 -256q-14 -43 -59 -43h-111q-25 0 -35.5 13.5t-1.5 39.5l84 246h-377l-88 -256q-14 -43 -59 -43h-111q-54 0 -36 53l83 246h-133q-49 0 -43 49l11 98q6 49 55 49
h176l115 336h-172q-46 0 -43 49l12 99q6 49 55 49h215l88 260q14 43 60 43h110q25 0 34.5 -14t2.5 -39l-84 -250h377l88 260q14 43 60 43h110q25 0 34.5 -14t2.5 -39l-84 -250h125q49 0 43 -49zM930 489l114 336h-376l-115 -336h377z" />
    <glyph glyph-name="dollar" unicode="$" horiz-adv-x="1271" 
d="M797 768q5 -2 45 -15t61 -21t64 -27t68 -36.5t57.5 -47t49 -60.5t26 -73.5t3.5 -90.5q-20 -157 -134.5 -250t-299.5 -114l-10 -84q-6 -49 -55 -49h-117q-49 0 -43 49l10 88q-139 19 -236.5 82t-133.5 160q-17 38 28 65l117 68q24 13 37.5 8.5t27.5 -25.5
q36 -61 120.5 -107t183.5 -46q227 0 245 145q4 30 -8 56t-28.5 42t-51 32.5t-55 23t-62.5 19t-53 15.5q-7 2 -23 7q-38 11 -60.5 18.5t-66.5 25.5t-72 35.5t-63 46.5t-54 61t-30 77t-5 96q18 141 125.5 228.5t271.5 111.5l10 86q6 49 55 49h117q49 0 43 -49l-10 -88
q119 -17 213.5 -73.5t136.5 -131.5q21 -40 -24 -65l-109 -64q-41 -23 -68 12q-37 52 -114.5 89.5t-163.5 37.5q-98 0 -155.5 -35.5t-65.5 -93.5q-3 -30 8.5 -55t27.5 -40.5t49 -31.5t54 -23.5t62.5 -20.5t54.5 -17z" />
    <glyph glyph-name="percent" unicode="%" horiz-adv-x="1738" 
d="M498 700q-136 0 -214 91t-61 229q19 142 117 231.5t235 89.5q135 0 213.5 -90t59.5 -231q-17 -138 -116.5 -229t-233.5 -91zM600 35q-20 -35 -61 -35h-70q-29 0 -36.5 17t9.5 42l822 1237q20 35 61 35h70q29 0 36.5 -17t-10.5 -42zM516 848q74 0 124.5 48.5t59.5 123.5
q9 76 -29 125t-112 49t-126.5 -49t-61.5 -125q-9 -74 31 -123t114 -49zM1286 -12q-135 0 -213 90.5t-61 228.5q19 142 118.5 232t235.5 90t213.5 -90t58.5 -232q-17 -138 -117 -228.5t-235 -90.5zM1305 135q74 0 126 49t60 123q9 76 -30 125t-113 49q-73 0 -126.5 -49.5
t-62.5 -124.5q-8 -74 32.5 -123t113.5 -49z" />
    <glyph glyph-name="ampersand" unicode="&#x26;" horiz-adv-x="1323" 
d="M1143 51q15 -25 4.5 -42t-41.5 -17h-98q-38 0 -58 28q-47 67 -55 80q-165 -118 -346 -118q-213 0 -321 101.5t-87 264.5q14 113 88 204.5t236 192.5l-10 17q-67 96 -95 162t-18 143q14 116 116 199.5t253 83.5q100 0 172 -42t102.5 -106.5t22.5 -138.5q-9 -68 -40 -127
t-80.5 -105t-89.5 -74.5t-96 -60.5q82 -126 230 -336q69 106 86 234q0 22 51 22h74q48 0 45 -24q-23 -207 -164 -371zM692 1198q-66 0 -116.5 -41t-57.5 -104q-4 -33 8.5 -70.5t23.5 -56.5t48 -78q2 -1 6 -7.5t8 -11.5q92 52 150.5 105t66.5 119q9 66 -31 105.5t-106 39.5z
M571 152q121 0 234 81l-250 375q-64 -43 -106.5 -82.5t-62 -73t-26.5 -55.5t-10 -49q-10 -83 46 -139.5t175 -56.5z" />
    <glyph glyph-name="quotesingle" unicode="'" horiz-adv-x="333" 
d="M217 1280q2 24 16.5 37.5t38.5 13.5h115q53 0 41 -51l-55 -233q-13 -48 -60 -48h-67q-46 0 -43 48z" />
    <glyph glyph-name="parenleft" unicode="(" horiz-adv-x="561" 
d="M264 -98q-40 0 -55 32q-84 181 -89 452t67 543t200 455q23 33 64 33h116q29 0 36 -16t-9 -41q-123 -173 -192 -437.5t-64 -528t84 -435.5q12 -25 1 -41t-40 -16h-119z" />
    <glyph glyph-name="parenright" unicode=")" horiz-adv-x="581" 
d="M317 -66q-22 -32 -63 -32h-119q-29 0 -35 16t13 41q121 172 189.5 436t64.5 528t-82 437q-12 25 -1 41t40 16h116q40 0 56 -33q83 -182 87.5 -454.5t-67.5 -543.5t-199 -452z" />
    <glyph glyph-name="asterisk" unicode="*" horiz-adv-x="788" 
d="M834 1171q21 -41 -25 -67l-178 -103l153 -108q37 -24 4 -68l-14 -18q-13 -20 -31.5 -24t-35.5 10l-142 98l-20 -168q-1 -23 -16.5 -36t-39.5 -13h-26q-46 0 -43 49l22 172l-168 -96q-46 -26 -65 16l-8 19q-18 45 22 67l185 105l-154 108q-37 26 -6 68l14 18q30 40 70 14
l137 -98l20 166q3 23 18 36t38 13h26q49 0 43 -49l-20 -172l166 94q48 27 65 -14z" />
    <glyph glyph-name="plus" unicode="+" horiz-adv-x="1048" 
d="M954 750q23 0 34.5 -13.5t8.5 -36.5l-10 -86q-6 -49 -55 -49h-266l-33 -264q-6 -49 -55 -49h-84q-49 0 -43 49l32 264h-266q-49 0 -43 49l10 86q3 23 18 36.5t38 13.5h266l33 266q6 49 55 49h84q49 0 43 -49l-33 -266h266z" />
    <glyph glyph-name="comma" unicode="," horiz-adv-x="405" 
d="M135 109q11 43 58 43h114q28 0 36.5 -16t-3.5 -42l-127 -252q-20 -39 -61 -39h-64q-25 0 -35.5 14.5t-3.5 39.5z" />
    <glyph glyph-name="hyphen" unicode="-" horiz-adv-x="831" 
d="M176 633q6 49 55 49h496q49 0 43 -49l-14 -111q-3 -23 -18 -36t-38 -13h-495q-49 0 -43 49z" />
    <glyph glyph-name="period" unicode="." horiz-adv-x="354" 
d="M174 -10q-52 0 -81 34t-21 87q6 52 43 85t90 33t82.5 -33t23.5 -85q-8 -53 -46.5 -87t-90.5 -34z" />
    <glyph glyph-name="slash" unicode="/" horiz-adv-x="733" 
d="M102 -96q-26 0 -34.5 15t2.5 40l579 1417q15 41 60 41h114q26 0 35.5 -15t-0.5 -40l-579 -1417q-18 -41 -62 -41h-115z" />
    <glyph glyph-name="zero" unicode="0" horiz-adv-x="1298" 
d="M635 -16q-168 0 -285 88t-165.5 242.5t-24.5 351.5q37 300 213.5 491t429.5 191q168 0 286.5 -88t168.5 -242.5t26 -351.5t-112.5 -351.5t-228.5 -242.5t-308 -88zM662 205q145 0 252.5 123t134.5 338q26 214 -51.5 334t-223.5 120t-254 -120.5t-133 -333.5
q-27 -214 51.5 -337.5t223.5 -123.5z" />
    <glyph glyph-name="one" unicode="1" horiz-adv-x="688" 
d="M666 1331q49 0 43 -49l-152 -1233q-6 -49 -55 -49h-131q-49 0 -43 49l131 1073h-244q-49 0 -43 49l14 111q3 23 18 36t38 13h424z" />
    <glyph glyph-name="two" unicode="2" horiz-adv-x="1067" 
d="M84 152q6 38 35 61l260 205q219 170 309 257q169 161 182 269q9 87 -44 138t-164 51q-79 0 -148 -36.5t-108 -90.5q-29 -43 -68 -23l-111 53q-43 22 -18 64q62 100 189 175t290 75q215 0 328 -107t90 -287q-6 -50 -28 -103.5t-47.5 -96.5t-69 -94t-74.5 -83t-84.5 -78.5
t-77 -66t-71.5 -57.5l-15 -12l-195 -156h523q46 0 43 -49l-15 -111q-6 -49 -55 -49h-823q-49 0 -43 49z" />
    <glyph glyph-name="three" unicode="3" horiz-adv-x="1134" 
d="M764 850q72 -14 130.5 -43t106 -77t69 -122t9.5 -168q-11 -92 -49 -168.5t-93 -129t-125 -89t-145.5 -53t-154.5 -16.5q-128 0 -238.5 46t-169.5 122q-27 34 11 67l88 82q35 32 69 2q43 -43 113.5 -70.5t153.5 -27.5q126 0 213.5 63.5t99.5 171.5q13 112 -57.5 176
t-196.5 64q-87 0 -182 -23q-27 -6 -39.5 4t-9.5 37l10 72q6 37 37 59l397 293h-475q-49 0 -43 49l14 111q6 49 55 49h746q49 0 43 -49l-14 -108q-3 -36 -35 -62z" />
    <glyph glyph-name="four" unicode="4" horiz-adv-x="1198" 
d="M1122 422q49 0 43 -49l-8 -70q-6 -49 -55 -49h-109l-24 -205q-3 -23 -18 -36t-38 -13h-129q-49 0 -43 49l25 205h-629q-49 0 -43 49l8 66q3 29 29 59l741 872q25 31 64 31h141q49 0 43 -49l-106 -860h108zM334 422h452l76 616z" />
    <glyph glyph-name="five" unicode="5" horiz-adv-x="1124" 
d="M602 858q131 0 228.5 -33.5t152.5 -93.5t77 -137t11 -168q-26 -207 -180 -324.5t-377 -117.5q-258 0 -408 157q-27 35 11 70l92 88q34 34 70 2q96 -96 247 -96q125 0 214 61t102 172q13 109 -64.5 171.5t-202.5 62.5q-117 0 -213 -35q-46 -16 -61 25l-25 65q-12 34 -4 64
l146 495q12 45 59 45h600q49 0 43 -49l-14 -111q-6 -49 -55 -49h-465l-80 -270q52 6 96 6z" />
    <glyph glyph-name="six" unicode="6" horiz-adv-x="1130" 
d="M668 944q203 0 320.5 -137t92.5 -342q-25 -204 -177 -342.5t-355 -138.5q-133 0 -233.5 63.5t-148.5 174t-32 243.5q18 158 119 283l430 550q23 33 64 33h137q29 0 36 -17t-12 -42l-252 -328h11zM575 199q113 0 195.5 74.5t95.5 191.5q14 117 -49.5 192.5t-175.5 75.5
q-114 0 -195.5 -75.5t-95.5 -192.5t48.5 -191.5t176.5 -74.5z" />
    <glyph glyph-name="seven" unicode="7" horiz-adv-x="970" 
d="M176 0q-28 0 -37 16t6 41l623 1065h-532q-49 0 -43 49l14 111q6 49 55 49h748q49 0 43 -49l-11 -74q-2 -27 -20 -61l-649 -1110q-19 -37 -62 -37h-135z" />
    <glyph glyph-name="eight" unicode="8" horiz-adv-x="1142" 
d="M922 692q90 -51 130 -133.5t29 -179.5q-23 -178 -159 -288.5t-367 -110.5t-342 111t-88 288q11 96 73 179t167 134q-83 50 -118 129t-26 168q9 67 44 129.5t95 116t154 85.5t209 32q92 0 166.5 -21.5t122.5 -57t78 -82.5t40 -98t3 -104q-9 -88 -63 -167t-148 -130z
M702 1180q-121 0 -191.5 -60.5t-82.5 -144.5q-10 -86 45.5 -144.5t177.5 -58.5t191.5 58.5t79.5 144.5q12 84 -43.5 144.5t-176.5 60.5zM578 168q125 0 199 61.5t85 159.5q11 95 -47.5 158t-181.5 63q-124 0 -201 -63.5t-88 -157.5t49.5 -157.5t184.5 -63.5z" />
    <glyph glyph-name="nine" unicode="9" horiz-adv-x="1130" 
d="M1130 866q-17 -151 -120 -282l-426 -551q-23 -33 -64 -33h-137q-29 0 -36.5 17t11.5 42l248 328h-10q-202 0 -319.5 137t-92.5 342q25 203 177 342.5t354 139.5q134 0 235 -64t148.5 -174.5t31.5 -243.5zM623 600q131 0 219 98l4 7q57 66 69 161q14 117 -49.5 192
t-177.5 75q-111 0 -193.5 -75.5t-95.5 -191.5q-13 -117 50 -191.5t174 -74.5z" />
    <glyph glyph-name="colon" unicode=":" horiz-adv-x="378" 
d="M250 600q-52 0 -81.5 34t-23.5 87q6 52 43.5 85.5t90.5 33.5t82.5 -33.5t23.5 -85.5t-44 -86.5t-91 -34.5zM174 -10q-52 0 -81 34t-21 87q6 52 43 85t90 33t82.5 -33t23.5 -85q-8 -53 -46.5 -87t-90.5 -34z" />
    <glyph glyph-name="semicolon" unicode=";" horiz-adv-x="436" 
d="M301 598q-49 0 -80.5 35.5t-25.5 85.5t46 85.5t89 35.5t80.5 -35.5t25.5 -85.5t-46 -85.5t-89 -35.5zM139 109q11 43 60 43h112q27 0 36 -16.5t-3 -41.5l-131 -252q-22 -39 -61 -39h-64q-25 0 -35.5 14t-1.5 40z" />
    <glyph glyph-name="less" unicode="&#x3c;" horiz-adv-x="911" 
d="M838 977q25 9 39.5 -2t11.5 -37l-8 -72q-6 -40 -45 -55l-430 -152l391 -153q38 -14 32 -55l-8 -72q-3 -26 -20.5 -37t-42.5 -2l-553 215q-37 15 -31 55l10 97q6 41 47 55z" />
    <glyph glyph-name="equal" unicode="=" horiz-adv-x="1050" 
d="M209 905q6 49 55 49h715q49 0 43 -49l-8 -71q-3 -23 -18 -36.5t-38 -13.5h-714q-23 0 -34.5 13.5t-8.5 36.5zM158 485q3 23 17.5 36.5t37.5 13.5h715q23 0 34.5 -13.5t8.5 -36.5l-8 -73q-3 -23 -18 -36.5t-38 -13.5h-714q-23 0 -34.5 13.5t-8.5 36.5z" />
    <glyph glyph-name="greater" unicode="&#x3e;" horiz-adv-x="911" 
d="M213 938q3 26 20.5 37t42.5 2l553 -215q37 -15 31 -55l-10 -97q-6 -41 -47 -55l-606 -215q-25 -9 -40 2t-12 37l9 72q6 41 45 55l432 153l-393 152q-39 14 -33 55z" />
    <glyph glyph-name="question" unicode="?" horiz-adv-x="1026" 
d="M446 358q-23 0 -34.5 10t-8.5 29q8 71 40 133t64.5 97t76.5 71q8 7 31.5 27.5t31 27.5t27.5 25t27 26t22.5 24.5t21.5 26.5t16 26.5t14.5 29.5t9 29t6.5 33q9 76 -38.5 124t-140.5 48q-66 0 -133.5 -35t-107.5 -88q-27 -40 -66 -23l-102 52q-21 9 -26 25.5t9 37.5
q67 105 186.5 172.5t264.5 67.5q192 0 302.5 -95.5t88.5 -269.5q-6 -48 -22.5 -92.5t-33 -74t-49.5 -66.5t-51.5 -54t-58.5 -53q-5 -5 -29 -28t-29.5 -28.5t-25 -25.5t-25.5 -28t-20 -25.5t-19.5 -28.5l-13.5 -27t-12 -30.5t-6 -30.5q-6 -39 -55 -39h-132zM500 225
q52 0 82 -34t24 -87q-6 -52 -45 -86t-92 -34t-83 34t-24 86t45.5 86.5t92.5 34.5z" />
    <glyph glyph-name="at" unicode="@" horiz-adv-x="1630" 
d="M967 1380q146 0 268.5 -52t203.5 -142.5t119 -218t21 -273.5q-11 -82 -34 -152t-61 -131.5t-98 -96.5t-137 -35q-85 0 -145 41t-78 120q-85 -116 -231 -116q-54 0 -103 21.5t-87 62t-56 105t-8 142.5q13 103 67.5 180.5t125 113.5t143.5 36q130 0 188 -94l4 35
q6 49 55 49h47q49 0 43 -49l-43 -365q-10 -83 16 -122.5t77 -39.5q66 0 108 69.5t62 225.5q13 107 -6 197t-63.5 152.5t-109.5 106.5t-142.5 64.5t-164.5 20.5q-107 0 -211.5 -40t-191 -111.5t-146 -181.5t-75.5 -240q-16 -129 16.5 -239t101 -182t163.5 -112.5t202 -40.5
q129 0 221 37q49 19 64 -21l20 -47q22 -45 -29 -65q-133 -47 -292 -47q-148 0 -272 55.5t-204.5 151.5t-117 228.5t-17.5 281.5q25 204 137 369t283.5 257t366.5 92zM840 469q79 0 133 54t63 132t-31.5 131.5t-119.5 53.5t-134.5 -53.5t-64.5 -131.5t33 -132t121 -54z" />
    <glyph glyph-name="A" unicode="A" horiz-adv-x="1349" 
d="M1094 0q-40 0 -52 39l-61 217h-569l-115 -217q-19 -39 -59 -39h-140q-28 0 -37 16t5 41l653 1235q22 39 63 39h92q43 0 52 -39l352 -1235q8 -25 -4.5 -41t-40.5 -16h-139zM520 465h406l-142 508z" />
    <glyph glyph-name="B" unicode="B" horiz-adv-x="1236" 
d="M1047 690q80 -43 120 -122t27 -187q-14 -114 -81 -202.5t-161 -133.5t-198 -45h-607q-49 0 -43 49l152 1233q6 49 55 49h568q161 0 260 -99t78 -269q-23 -187 -170 -273zM463 1122l-41 -344h352q85 0 140.5 47t64.5 125q9 79 -35 125.5t-129 46.5h-352zM745 209
q87 0 147 54.5t69 135.5q9 80 -37.5 134.5t-132.5 54.5h-394l-45 -379h393z" />
    <glyph glyph-name="C" unicode="C" horiz-adv-x="1376" 
d="M1260 973q-41 -27 -68 8q-48 63 -128 101t-179 38q-196 0 -334.5 -128t-163.5 -326t82.5 -326.5t304.5 -128.5q97 0 185.5 40t154.5 105q21 18 36.5 20.5t35.5 -11.5l96 -82q38 -31 2 -70q-103 -109 -241 -169t-298 -60q-146 0 -264.5 51.5t-195 141.5t-110 216.5
t-15.5 272.5t83 272.5t163.5 216.5t229.5 141.5t277 51.5q160 0 283.5 -60.5t198.5 -169.5q24 -38 -19 -67z" />
    <glyph glyph-name="D" unicode="D" horiz-adv-x="1339" 
d="M739 1331q293 0 452 -184.5t122 -480.5q-37 -297 -241 -481.5t-497 -184.5h-428q-49 0 -43 49l152 1233q6 49 55 49h428zM602 221q55 0 112.5 13.5t120 46.5t113 82t88.5 127.5t49 175.5t-7.5 175t-56.5 127t-91.5 82t-107.5 46.5t-109 13.5h-250l-111 -889h250z" />
    <glyph glyph-name="E" unicode="E" horiz-adv-x="1114" 
d="M1128 1171q-6 -49 -55 -49h-610l-43 -352h567q49 0 43 -49l-12 -111q-6 -49 -55 -49h-568l-43 -352h611q46 0 43 -49l-15 -111q-6 -49 -55 -49h-789q-49 0 -43 49l152 1233q6 49 55 49h789q49 0 43 -49z" />
    <glyph glyph-name="F" unicode="F" horiz-adv-x="1116" 
d="M1135 1165q-3 -23 -18 -36t-38 -13h-616l-47 -375h577q48 0 45 -49l-14 -117q-6 -49 -55 -49h-578l-59 -477q-3 -23 -18 -36t-38 -13h-129q-49 0 -43 49l152 1233q6 49 55 49h795q49 0 43 -49z" />
    <glyph glyph-name="G" unicode="G" horiz-adv-x="1503" 
d="M1464 635q-31 -190 -127 -336.5t-249.5 -230.5t-342.5 -84q-146 0 -264.5 51.5t-195 141.5t-110 216.5t-15.5 272.5t83 272.5t163.5 216.5t229.5 141.5t277 51.5q159 0 283 -60t197 -168q26 -37 -19 -67l-117 -78q-38 -25 -67 8q-110 137 -305 137q-196 0 -334.5 -128
t-163.5 -326t82.5 -326.5t304.5 -128.5q145 0 261.5 84t156.5 231h-344q-49 0 -43 49l12 111q6 49 55 49h555q49 0 43 -49z" />
    <glyph glyph-name="H" unicode="H" horiz-adv-x="1310" 
d="M1102 1282q6 49 55 49h129q49 0 43 -49l-151 -1233q-3 -23 -18 -36t-38 -13h-129q-49 0 -43 49l62 506h-619l-61 -506q-3 -23 -18 -36t-38 -13h-129q-49 0 -43 49l152 1233q6 49 55 49h129q49 0 43 -49l-61 -506h618z" />
    <glyph glyph-name="I" unicode="I" horiz-adv-x="462" 
d="M332 49q-3 -23 -18 -36t-38 -13h-129q-49 0 -43 49l152 1233q6 49 55 49h129q49 0 43 -49z" />
    <glyph glyph-name="J" unicode="J" horiz-adv-x="1054" 
d="M846 1282q6 49 55 49h131q49 0 43 -49l-110 -897q-23 -185 -155 -293t-329 -108q-168 0 -265 76.5t-116 207.5q-6 45 41 60l133 45q49 15 58 -33q30 -135 176 -135q99 0 159.5 58t71.5 153z" />
    <glyph glyph-name="K" unicode="K" horiz-adv-x="1140" 
d="M1040 59q17 -25 6 -42t-42 -17h-152q-34 0 -57 29l-400 544l-63 -524q-3 -23 -18 -36t-38 -13h-129q-49 0 -43 49l152 1233q6 49 55 49h129q49 0 43 -49l-63 -522l512 543q28 28 63 28h148q31 0 37 -17t-17 -42l-563 -606z" />
    <glyph glyph-name="L" unicode="L" horiz-adv-x="1079" 
d="M352 209h606q46 0 43 -49l-14 -111q-6 -49 -55 -49h-785q-49 0 -43 49l152 1233q6 49 55 49h129q49 0 43 -49z" />
    <glyph glyph-name="M" unicode="M" horiz-adv-x="1544" 
d="M1522 1331q49 0 43 -49l-152 -1233q-6 -49 -55 -49h-131q-49 0 -43 49l100 825l-410 -681q-22 -37 -65 -37h-76q-42 0 -53 37l-246 684l-102 -828q-3 -23 -18 -36t-38 -13h-129q-49 0 -43 49l152 1233q6 49 55 49h144q41 0 55 -35l303 -802l502 802q20 35 61 35h146z" />
    <glyph glyph-name="N" unicode="N" horiz-adv-x="1298" 
d="M1090 1282q6 49 55 49h129q49 0 43 -49l-152 -1233q-6 -49 -55 -49h-133q-38 0 -55 33l-482 903l-108 -887q-3 -23 -18 -36t-38 -13h-129q-49 0 -43 49l152 1233q6 49 55 49h133q39 0 56 -33l481 -903z" />
    <glyph glyph-name="O" unicode="O" horiz-adv-x="1519" 
d="M745 -16q-146 0 -264.5 51.5t-195 141.5t-110 216.5t-15.5 272.5t83 272.5t163.5 216.5t229.5 141.5t277 51.5q195 0 336.5 -88t205.5 -243t40 -351q-18 -147 -82.5 -273t-162.5 -216t-228.5 -141.5t-276.5 -51.5zM774 211q196 0 331.5 128t160.5 327t-80 326.5
t-301 127.5t-334.5 -128t-163.5 -326t82.5 -326.5t304.5 -128.5z" />
    <glyph glyph-name="P" unicode="P" horiz-adv-x="1206" 
d="M874 1331q76 0 143.5 -29t117.5 -82t73.5 -135.5t10.5 -181.5q-16 -131 -86 -230t-165 -147.5t-198 -48.5h-385l-53 -428q-3 -23 -18 -36t-38 -13h-129q-49 0 -43 49l152 1233q6 49 55 49h563zM758 698q88 0 155.5 58t77.5 147q12 91 -40 149t-138 58h-350l-51 -412h346z
" />
    <glyph glyph-name="Q" unicode="Q" horiz-adv-x="1519" 
d="M1495 666q-23 -187 -117 -336.5t-243 -239.5l122 -199q17 -25 6 -42t-42 -17h-162q-36 0 -55 31l-89 139q-83 -18 -170 -18q-146 0 -264.5 51.5t-195 141.5t-110 216.5t-15.5 272.5q24 195 129 351t268.5 243.5t355.5 87.5q195 0 336.5 -88t205.5 -243t40 -351zM774 211
h12l-86 137q-15 25 -4.5 42.5t41.5 17.5h162q38 0 57 -31l62 -103q102 59 167.5 161.5t80.5 230.5q25 199 -80 326.5t-301 127.5t-334.5 -128t-163.5 -326t82.5 -326.5t304.5 -128.5z" />
    <glyph glyph-name="R" unicode="R" horiz-adv-x="1249" 
d="M1120 59q12 -25 0 -42t-41 -17h-153q-39 0 -56 33l-233 444h-252l-53 -428q-3 -23 -18 -36t-38 -13h-129q-49 0 -43 49l152 1233q6 49 55 49h580q76 0 143.5 -29t117 -82t73 -135.5t10.5 -181.5q-19 -160 -115.5 -268.5t-228.5 -142.5zM463 1110l-51 -412h366
q87 0 153.5 57.5t76.5 147.5q12 91 -39.5 149t-139.5 58h-366z" />
    <glyph glyph-name="S" unicode="S" horiz-adv-x="1241" 
d="M106 254q-15 40 27 68l117 73q22 13 36.5 10t28.5 -24q45 -71 140 -123.5t215 -52.5q131 0 194 45t74 129q4 31 -11 58.5t-38.5 45t-62 35t-68 27t-71 21.5t-58.5 18q-9 3 -49 14.5t-65.5 20t-69 26.5t-72.5 36t-62.5 47.5t-52 62.5t-28 78.5t-3.5 97.5q12 99 62 175
t127 122t170.5 69t199.5 23q164 0 291 -70t172 -170q15 -40 -28 -65l-111 -66q-42 -23 -66 14q-40 52 -124 89.5t-187 37.5q-110 0 -173 -39t-71 -110q-4 -30 10 -56.5t34.5 -43t58.5 -33.5t64 -25t71.5 -21t60.5 -18q8 -3 41 -13.5t55.5 -18.5t61 -23t65.5 -31t60 -38.5
t55 -49.5t40.5 -59t25 -72.5t0.5 -85.5q-24 -200 -177 -307t-397 -107q-197 0 -331 79.5t-181 199.5z" />
    <glyph glyph-name="T" unicode="T" horiz-adv-x="1204" 
d="M1221 1331q49 0 43 -49l-15 -111q-6 -49 -55 -49h-360l-132 -1073q-6 -49 -55 -49h-131q-49 0 -43 49l131 1073h-360q-49 0 -43 49l14 111q6 49 55 49h951z" />
    <glyph glyph-name="U" unicode="U" horiz-adv-x="1257" 
d="M1049 1282q6 49 55 49h131q49 0 43 -49l-100 -815q-12 -100 -57.5 -187t-117.5 -153.5t-174.5 -104.5t-222.5 -38t-213 38t-148 104.5t-78 153.5t-11 187l100 815q6 49 55 49h129q49 0 43 -49l-98 -790q-17 -142 52.5 -214.5t195.5 -72.5q127 0 213.5 72.5t103.5 214.5z
" />
    <glyph glyph-name="V" unicode="V" horiz-adv-x="1333" 
d="M1178 1292q22 39 61 39h139q27 0 35.5 -16t-4.5 -41l-643 -1235q-19 -39 -59 -39h-101q-39 0 -51 39l-340 1235q-7 25 6 41t41 16h139q41 0 50 -39l249 -919z" />
    <glyph glyph-name="W" unicode="W" horiz-adv-x="1943" 
d="M1788 1290q18 41 63 41h140q26 0 34.5 -15t-2.5 -40l-563 -1235q-15 -41 -61 -41h-109q-44 0 -53 41l-170 819l-373 -819q-15 -41 -61 -41h-109q-44 0 -53 41l-260 1235q-4 25 9.5 40t39.5 15h139q46 0 52 -41l182 -874l395 874q18 41 62 41h81q46 0 52 -41l180 -846z
" />
    <glyph glyph-name="X" unicode="X" horiz-adv-x="1280" 
d="M1294 1331q30 0 36.5 -16.5t-13.5 -42.5l-483 -606l335 -607q12 -26 1 -42.5t-40 -16.5h-153q-36 0 -55 31l-244 440l-352 -440q-24 -31 -64 -31h-153q-30 0 -37 16.5t14 42.5l483 607l-336 606q-13 26 -2 42.5t41 16.5h154q39 0 55 -31l246 -440l350 440q25 31 64 31
h153z" />
    <glyph glyph-name="Y" unicode="Y" horiz-adv-x="1253" 
d="M1292 1331q29 0 36.5 -17t-11.5 -42l-522 -699l-64 -524q-6 -49 -55 -49h-129q-49 0 -43 49l63 518l-352 705q-12 26 0 42.5t41 16.5h154q38 0 55 -33l244 -489l366 489q23 33 64 33h153z" />
    <glyph glyph-name="Z" unicode="Z" horiz-adv-x="1107" 
d="M1155 1171q-3 -34 -25 -59l-749 -901l594 -2q46 0 43 -49l-14 -111q-3 -23 -18 -36t-38 -13h-821q-49 0 -43 49l14 111q3 34 25 59l741 901h-588q-49 0 -43 49l15 113q6 49 55 49h823q49 0 43 -49z" />
    <glyph glyph-name="bracketleft" unicode="[" horiz-adv-x="618" 
d="M641 1303q-3 -23 -17.5 -36.5t-37.5 -13.5h-125l-146 -1187h125q23 0 34.5 -13.5t8.5 -36.5l-8 -65q-6 -49 -55 -49h-285q-49 0 -43 49l174 1417q3 23 18 36t38 13h284q49 0 43 -49z" />
    <glyph glyph-name="backslash" unicode="\" horiz-adv-x="716" 
d="M653 -43q5 -25 -8 -40t-39 -15h-114q-44 0 -50 41l-231 1417q-6 25 7.5 40t39.5 15h115q43 0 49 -41z" />
    <glyph glyph-name="bracketright" unicode="]" horiz-adv-x="618" 
d="M301 1253q-23 0 -34.5 13.5t-8.5 36.5l8 65q3 23 18 36t38 13h284q49 0 43 -49l-174 -1417q-6 -49 -55 -49h-285q-49 0 -43 49l8 65q3 23 18 36.5t38 13.5h125l145 1187h-125z" />
    <glyph glyph-name="asciicircum" unicode="^" horiz-adv-x="849" 
d="M791 797q6 -25 -8 -41.5t-40 -16.5h-71q-40 0 -49 39l-82 340l-162 -340q-19 -39 -62 -39h-69q-26 0 -34.5 16.5t3.5 41.5l236 495q19 39 61 39h104q41 0 50 -39z" />
    <glyph glyph-name="underscore" unicode="_" horiz-adv-x="942" 
d="M119 160q1 23 16 36t39 13h606q46 0 43 -49l-14 -111q-6 -49 -55 -49h-607q-49 0 -43 49z" />
    <glyph glyph-name="grave" unicode="`" horiz-adv-x="378" 
d="M356 1331q40 0 54 -37l43 -127q9 -25 -2 -41t-39 -16h-82q-43 0 -54 35l-51 129q-9 26 4 41.5t41 15.5h86z" />
    <glyph glyph-name="a" unicode="a" 
d="M924 893q1 23 15.5 36t37.5 13h121q48 0 45 -49l-105 -844q-6 -49 -55 -49h-121q-49 0 -43 49l8 72q-124 -137 -313 -137q-196 0 -307.5 138t-85.5 349q26 213 170.5 349t341.5 136q192 0 280 -137zM569 190q120 0 203.5 79t97.5 202q15 123 -48 201t-183 78t-204 -78
t-99 -201q-14 -123 49.5 -202t183.5 -79z" />
    <glyph glyph-name="b" unicode="b" 
d="M731 956q197 0 307 -136t84 -349q-26 -211 -170 -349t-340 -138q-190 0 -280 137l-8 -72q-3 -23 -18 -36t-38 -13h-121q-49 0 -43 49l152 1233q6 49 55 49h121q49 0 43 -49l-57 -463q121 137 313 137zM606 190q121 0 205 79.5t98 201.5q15 123 -49 201t-184 78t-203 -78
t-98 -201q-14 -124 48.5 -202.5t182.5 -78.5z" />
    <glyph glyph-name="c" unicode="c" horiz-adv-x="1011" 
d="M889 674q-34 -26 -66 6q-66 70 -180 70q-121 0 -206.5 -78.5t-100.5 -200.5q-14 -123 51.5 -202t185.5 -79q114 0 197 68q37 32 70 6l73 -61q38 -30 0 -68q-150 -153 -370 -153q-213 0 -330.5 137.5t-91.5 351.5t177 350.5t364 136.5q108 0 194 -39.5t139 -111.5
q27 -38 -16 -70z" />
    <glyph glyph-name="d" unicode="d" 
d="M971 1282q6 49 55 49h121q49 0 43 -49l-152 -1233q-6 -49 -55 -49h-121q-49 0 -43 49l8 72q-124 -137 -313 -137q-196 0 -307.5 138t-85.5 349q26 213 170.5 349t341.5 136q192 0 280 -137zM569 190q120 0 203.5 79t97.5 202q15 123 -48 201t-183 78t-204 -78t-99 -201
q-14 -123 49.5 -202t183.5 -79z" />
    <glyph glyph-name="e" unicode="e" horiz-adv-x="1089" 
d="M649 958q204 0 312 -137t81 -350v-12q-6 -49 -55 -49h-659q3 -110 67 -175t168 -65q134 0 225 80q38 31 70 6l66 -53q39 -31 2 -68q-73 -73 -172.5 -113t-212.5 -40q-213 0 -329.5 138t-90.5 351q27 214 172 350.5t356 136.5zM629 784q-102 0 -176 -62.5t-107 -170.5h502
q-6 104 -62.5 168.5t-156.5 64.5z" />
    <glyph glyph-name="f" unicode="f" horiz-adv-x="706" 
d="M655 1159q-63 0 -100.5 -33.5t-44.5 -97.5l-12 -86h174q48 0 45 -49l-10 -70q-1 -23 -16.5 -36t-39.5 -13h-174l-88 -725q-6 -49 -55 -49h-123q-49 0 -43 49l88 725h-76q-46 0 -43 49l10 70q1 23 16 36t38 13h75l13 100q19 140 100.5 214.5t220.5 74.5h133q49 0 43 -49
l-10 -74q-1 -23 -16 -36t-39 -13h-66z" />
    <glyph glyph-name="g" unicode="g" 
d="M924 893q1 23 15.5 36t37.5 13h121q48 0 45 -49l-103 -825q-25 -207 -174.5 -336t-382.5 -129q-219 0 -346 133q-31 36 13 69l79 60q36 26 70 -4q77 -72 207 -72q37 0 75 8.5t78.5 29.5t73 51.5t56.5 79.5t32 110l6 55q-126 -139 -315 -139q-196 0 -306.5 138t-84.5 349
t170 348t340 137q189 0 282 -137zM567 190q121 0 205 79.5t98 201.5q15 123 -49 201t-184 78t-203 -78t-98 -201q-14 -124 48.5 -202.5t182.5 -78.5z" />
    <glyph glyph-name="h" unicode="h" horiz-adv-x="1101" 
d="M711 956q55 0 104.5 -12t95 -40.5t76.5 -71t45 -108t4 -146.5l-65 -529q-3 -23 -18 -36t-38 -13h-122q-49 0 -43 49l61 496q7 61 -7 106.5t-43.5 70t-64 36.5t-73.5 12q-84 0 -154 -54.5t-84 -170.5l-61 -496q-3 -23 -18 -36t-38 -13h-121q-49 0 -43 49l152 1233
q6 49 55 49h121q49 0 43 -49l-55 -440q111 114 291 114z" />
    <glyph glyph-name="i" unicode="i" horiz-adv-x="483" 
d="M356 1102q-49 0 -81 34.5t-25 90.5q6 55 47 88t90 33t83 -33t28 -88q-7 -56 -50 -90.5t-92 -34.5zM338 49q-6 -49 -55 -49h-123q-49 0 -43 49l104 844q1 23 15.5 36t37.5 13h125q48 0 45 -49z" />
    <glyph glyph-name="j" unicode="j" horiz-adv-x="505" 
d="M379 1102q-48 0 -82 35t-27 90q6 55 48 88t92 33q48 0 81 -33t27 -88q-7 -56 -48.5 -90.5t-90.5 -34.5zM27 -377h-74q-46 0 -43 49l10 74q6 49 53 49q65 0 104.5 27t49.5 104l119 967q1 23 15.5 36t37.5 13h123q48 0 45 -49l-125 -1012q-14 -115 -93.5 -186.5
t-221.5 -71.5z" />
    <glyph glyph-name="k" unicode="k" horiz-adv-x="1015" 
d="M913 59q19 -23 7.5 -41t-43.5 -18h-142q-39 0 -57 27l-309 397l-45 -375q-3 -23 -18 -36t-38 -13h-121q-49 0 -43 49l152 1233q6 49 55 49h121q49 0 43 -49l-88 -717l356 350q27 27 64 27h141q32 0 39 -18t-18 -41l-394 -387z" />
    <glyph glyph-name="l" unicode="l" horiz-adv-x="456" 
d="M324 49q-3 -23 -18 -36t-38 -13h-121q-49 0 -43 49l152 1233q6 49 55 49h123q49 0 43 -49z" />
    <glyph glyph-name="m" unicode="m" horiz-adv-x="1677" 
d="M1305 956q54 0 101 -11t90.5 -39t72 -70t41 -108t2.5 -150l-66 -529q-6 -49 -55 -49h-123q-49 0 -43 49l61 500q7 60 -6.5 104.5t-41 67.5t-58 33t-63.5 10t-66 -10.5t-67 -33t-58 -67t-31 -104.5l-61 -500q-6 -49 -55 -49h-121q-49 0 -43 49l61 500q7 60 -6.5 104.5
t-41.5 67.5t-58.5 33t-63.5 10q-34 0 -67 -10t-66 -33t-57 -67.5t-31 -104.5l-61 -500q-3 -23 -18 -36t-38 -13h-121q-49 0 -43 49l105 844q1 23 15.5 36t37.5 13h121q48 0 45 -49l-8 -53q113 116 274 116q93 0 168 -36.5t111 -116.5q63 80 151 116.5t181 36.5z" />
    <glyph glyph-name="n" unicode="n" horiz-adv-x="1101" 
d="M711 956q55 0 104.5 -12t95 -40.5t76.5 -71t45 -108t4 -146.5l-65 -529q-3 -23 -18 -36t-38 -13h-122q-49 0 -43 49l61 496q7 61 -7 106.5t-43.5 70t-64 36.5t-73.5 12q-84 0 -154 -54.5t-84 -170.5l-61 -496q-3 -23 -18 -36t-38 -13h-121q-49 0 -43 49l105 844
q1 23 15.5 36t37.5 13h121q48 0 45 -49l-8 -51q111 114 291 114z" />
    <glyph glyph-name="o" unicode="o" horiz-adv-x="1136" 
d="M547 -18q-213 0 -332.5 138.5t-93.5 350.5q26 214 180 352t367 138t330.5 -137.5t91.5 -352.5q-26 -212 -178.5 -350.5t-364.5 -138.5zM571 190q119 0 202 80t97 201q15 122 -48 200.5t-181 78.5q-119 0 -202.5 -79t-98.5 -200q-14 -122 49.5 -201.5t181.5 -79.5z" />
    <glyph glyph-name="p" unicode="p" 
d="M731 956q196 0 306.5 -138t84.5 -349q-26 -213 -169.5 -349t-340.5 -136q-190 0 -280 137l-56 -449q-1 -23 -16 -36t-39 -13h-121q-46 0 -43 49l152 1221q1 23 15.5 36t37.5 13h121q48 0 45 -49l-10 -74q124 137 313 137zM606 190q120 0 204 78t99 201t-49 202t-184 79
t-203 -79t-98 -202t48 -201t183 -78z" />
    <glyph glyph-name="q" unicode="q" 
d="M924 893q1 23 15.5 36t37.5 13h121q48 0 45 -49l-152 -1221q-1 -23 -16 -36t-39 -13h-121q-46 0 -43 49l55 449q-124 -137 -313 -137q-197 0 -308 136t-85 349q26 211 171 349t341 138q190 0 280 -137zM569 190q120 0 203 78t98 201t-48 202t-183 79t-204 -79t-99 -202
t49 -201t184 -78z" />
    <glyph glyph-name="r" unicode="r" horiz-adv-x="727" 
d="M412 772q113 156 303 180q25 3 36.5 -9.5t8.5 -37.5l-12 -108q-6 -46 -54 -49q-40 -4 -76.5 -13t-79 -30.5t-74.5 -52t-57.5 -81t-33.5 -114.5l-49 -408q-3 -23 -18 -36t-38 -13h-121q-49 0 -43 49l105 844q1 23 15.5 36t37.5 13h121q48 0 45 -49z" />
    <glyph glyph-name="s" unicode="s" horiz-adv-x="923" 
d="M82 156q-17 39 27 65l79 49q42 23 66 -14q32 -43 93 -74.5t132 -31.5q163 0 178 112q2 22 -7 40t-23 30t-38.5 23t-42.5 17t-46.5 14.5t-40.5 12.5q-4 1 -30.5 9t-40.5 13.5t-43 16.5t-47 22.5t-43 28t-40 36t-28.5 43t-18 52.5t-0.5 62q11 93 70 158t144.5 94t190.5 29
q124 0 211 -43.5t125 -110.5q24 -41 -24 -68l-70 -41q-36 -21 -65 11q-33 35 -88.5 58.5t-116.5 23.5q-72 0 -114.5 -28t-47.5 -73q-3 -21 5.5 -39t21.5 -29t37 -22t41 -16.5t46 -14t41 -12.5q3 -1 30 -9.5t41 -14t44 -17.5t48 -23.5t44 -28.5t41 -36.5t29.5 -43.5t19 -53.5
t0.5 -62.5q-17 -144 -126.5 -220.5t-290.5 -76.5q-142 0 -238 51.5t-135 131.5z" />
    <glyph glyph-name="t" unicode="t" horiz-adv-x="681" 
d="M692 823q-1 -23 -16 -36t-39 -13h-160l-59 -483q-4 -38 3.5 -63t26 -36.5t37 -15.5t45.5 -4h23q49 0 43 -49l-8 -74q-3 -23 -18 -36t-38 -13h-110q-129 0 -186 65.5t-43 190.5l63 518h-76q-46 0 -43 49l10 70q1 23 16 36t38 13h75l31 240q6 49 55 49h123q49 0 43 -49
l-30 -240h159q48 0 45 -49z" />
    <glyph glyph-name="u" unicode="u" horiz-adv-x="1101" 
d="M854 893q1 23 15.5 36t37.5 13h123q48 0 45 -49l-104 -844q-3 -23 -18 -36t-38 -13h-122q-49 0 -43 49l6 49q-111 -114 -291 -114q-55 0 -104.5 12t-94.5 41t-75.5 71.5t-44 108.5t-3.5 148l66 528q1 23 15.5 36t37.5 13h121q48 0 45 -49l-61 -496q-7 -61 7 -106.5
t43.5 -70t63.5 -36.5t72 -12q85 0 155.5 54.5t84.5 170.5z" />
    <glyph glyph-name="v" unicode="v" horiz-adv-x="1034" 
d="M430 0q-39 0 -51 39l-229 846q-6 25 6 41t39 16h124q43 0 52 -39l161 -604l314 604q22 39 59 39h127q28 0 37 -16t-4 -41l-442 -846q-19 -39 -60 -39h-133z" />
    <glyph glyph-name="w" unicode="w" horiz-adv-x="1533" 
d="M1348 901q17 41 59 41h127q26 0 36 -15t-1 -40l-385 -846q-15 -41 -60 -41h-129q-44 0 -53 41l-121 561l-262 -563q-14 -39 -61 -39h-129q-44 0 -52 41l-170 846q-4 26 8.5 40.5t39.5 14.5h124q46 0 52 -41l116 -590l277 592q17 39 61 39h78q47 0 53 -39l131 -592z" />
    <glyph glyph-name="x" unicode="x" horiz-adv-x="1052" 
d="M1016 942q31 0 38 -16.5t-14 -42.5l-350 -412l250 -412q13 -26 2.5 -42.5t-41.5 -16.5h-143q-37 0 -56 31l-159 266l-226 -266q-25 -31 -63 -31h-143q-31 0 -38.5 16.5t15.5 42.5l348 412l-248 412q-15 26 -4.5 42.5t41.5 16.5h144q38 0 57 -31l160 -266l225 266
q25 31 61 31h144z" />
    <glyph glyph-name="y" unicode="y" horiz-adv-x="1034" 
d="M846 903q22 39 59 39h127q28 0 37 -16t-4 -41l-637 -1223q-22 -39 -61 -39h-113q-27 0 -35.5 16.5t4.5 41.5l166 319l-239 885q-6 25 6 41t39 16h124q43 0 52 -39l161 -598z" />
    <glyph glyph-name="z" unicode="z" horiz-adv-x="872" 
d="M840 942q48 0 45 -49l-11 -82q-6 -37 -28 -61l-490 -568h387q49 0 43 -49l-10 -84q-6 -49 -55 -49h-615q-49 0 -43 49l11 82q3 37 28 62l490 567h-387q-48 0 -45 49l12 84q1 23 15.5 36t37.5 13h615z" />
    <glyph glyph-name="braceleft" unicode="{" horiz-adv-x="722" 
d="M520 834q-16 -127 -125 -175q98 -48 82 -174l-41 -331q-9 -88 58 -88h51q23 0 34.5 -13.5t8.5 -36.5l-8 -65q-3 -23 -18 -36t-38 -13h-149q-183 0 -158 217l45 366q6 50 -12 76.5t-49 26.5q-14 0 -21 13t-4 36l6 45q6 49 37 49t55.5 26.5t30.5 76.5l45 366q14 117 68 167
t143 50h150q49 0 43 -49l-9 -65q-3 -23 -17.5 -36.5t-37.5 -13.5h-51q-69 0 -78 -88z" />
    <glyph glyph-name="bar" unicode="|" horiz-adv-x="444" 
d="M301 -49q-6 -49 -55 -49h-111q-49 0 -43 49l174 1417q3 23 18 36t38 13h110q49 0 43 -49z" />
    <glyph glyph-name="braceright" unicode="}" horiz-adv-x="722" 
d="M645 731q14 0 21 -13t4 -36l-6 -45q-6 -49 -37 -49t-55.5 -26.5t-30.5 -76.5l-45 -366q-13 -112 -68.5 -164.5t-142.5 -52.5h-150q-49 0 -43 49l8 65q3 23 18 36.5t38 13.5h51q69 0 78 88l41 331q16 126 127 174q-100 47 -84 175l41 331q9 88 -58 88h-51
q-23 0 -34.5 13.5t-8.5 36.5l8 65q3 23 18 36t38 13h149q88 0 130 -50t28 -167l-45 -366q-6 -50 12 -76.5t49 -26.5z" />
    <glyph glyph-name="asciitilde" unicode="~" horiz-adv-x="1206" 
d="M985 758q15 49 57 49h72q24 0 35.5 -13.5t7.5 -37.5q-29 -126 -115 -202.5t-217 -76.5q-54 0 -99.5 18t-66.5 35.5t-51 49.5q-5 5 -16.5 17t-16 17t-14 14t-15 12.5t-15 9.5t-17 8t-18 4t-21.5 2q-48 0 -82.5 -30.5t-50.5 -78.5q-16 -45 -57 -45h-72q-24 0 -35.5 13.5
t-7.5 37.5q27 125 111.5 202t210.5 77q41 0 74.5 -9t62.5 -30.5t40.5 -32t37.5 -37.5q42 -44 71.5 -63t67.5 -19q105 0 139 109z" />
    <glyph glyph-name="exclamdown" unicode="&#xa1;" horiz-adv-x="374" 
d="M297 1100q-50 0 -81.5 35t-25.5 86q6 50 46 85t90 35q51 0 81.5 -34.5t24.5 -85.5t-45 -86t-90 -35zM283 49q-3 -23 -18 -36t-38 -13h-131q-49 0 -43 49l123 860q1 23 15.5 36t37.5 13h101q48 0 45 -49z" />
    <glyph glyph-name="cent" unicode="&#xa2;" horiz-adv-x="1337" 
d="M735 274q176 0 295 125q33 36 70 13l98 -64q42 -25 6 -67q-180 -202 -426 -224l-12 -106q-6 -49 -55 -49h-111q-49 0 -43 49l14 115q-145 29 -240.5 118.5t-131.5 215.5t-17 276q27 228 169.5 396.5t369.5 211.5l12 94q1 23 16 36t39 13h111q46 0 43 -49l-12 -86
q243 -22 370 -223q24 -41 -20 -68l-117 -69q-40 -25 -67 10q-89 133 -262 133q-109 0 -200 -44.5t-153.5 -136.5t-77.5 -218q-24 -189 70.5 -295.5t261.5 -106.5z" />
    <glyph glyph-name="sterling" unicode="&#xa3;" horiz-adv-x="1075" 
d="M504 170h403q49 0 43 -49l-8 -72q-6 -49 -55 -49h-740q-49 0 -43 49l9 72q6 48 55 51q94 7 155.5 42.5t88 92t31.5 133t-15 166.5h-195q-49 0 -43 49l5 23q1 23 16 36t39 13h149q-38 132 -30 243t58 190t137.5 131t209.5 66t275 -5q47 -6 41 -52l-9 -65q-6 -51 -61 -45
q-117 18 -199 3.5t-133.5 -52t-74 -98.5t-19.5 -136.5t29 -165.5l6 -14h278q46 0 43 -49l-4 -23q-6 -49 -55 -49h-238q44 -291 -149 -436z" />
    <glyph glyph-name="currency" unicode="&#xa4;" horiz-adv-x="1183" 
d="M1053 338q30 -34 -9 -70l-53 -45q-38 -35 -67 2l-99 111q-100 -62 -217 -62q-119 0 -205 64l-120 -109q-41 -35 -70 -2l-43 43q-36 31 6 70l131 117q-41 87 -26 205q12 115 77 206l-100 115q-30 35 8 70l53 45q38 35 70 -2l96 -111q100 62 220 62q116 0 198 -60l123 109
q38 34 70 2l39 -41q33 -33 -7 -70l-127 -117q43 -85 31 -208q-14 -114 -80 -209zM631 444q88 0 153.5 60.5t77.5 157.5t-39 156t-139 59t-154.5 -59.5t-78.5 -155.5q-12 -97 40 -157.5t140 -60.5z" />
    <glyph glyph-name="yen" unicode="&#xa5;" horiz-adv-x="1253" 
d="M1292 1331q29 0 36.5 -16.5t-11.5 -42.5l-479 -643h213q49 0 43 -49l-4 -23q-1 -23 -16.5 -36t-39.5 -13h-248l-18 -160h248q49 0 43 -49l-2 -20q-3 -23 -18 -36.5t-38 -13.5h-247l-23 -180q-6 -49 -55 -49h-129q-49 0 -43 49l22 180h-250q-23 0 -34.5 13.5t-8.5 36.5
l3 20q6 49 55 49h250l18 160h-250q-46 0 -43 49l4 23q3 23 18 36t38 13h211l-322 643q-12 26 0 42.5t41 16.5h154q38 0 55 -33l244 -489l366 489q23 33 64 33h153z" />
    <glyph glyph-name="brokenbar" unicode="&#xa6;" horiz-adv-x="444" 
d="M412 844q-3 -23 -18 -36t-38 -13h-110q-49 0 -43 49l63 524q3 23 18 36t38 13h110q49 0 43 -49zM301 -49q-6 -49 -55 -49h-111q-49 0 -43 49l64 522q6 49 55 49h111q49 0 43 -49z" />
    <glyph glyph-name="section" unicode="&#xa7;" horiz-adv-x="970" 
d="M739 451q137 -72 119 -220q-10 -79 -46.5 -138t-91 -92t-115.5 -48.5t-130 -15.5q-138 0 -222.5 52t-117.5 142q-18 47 37 64l78 26q40 13 61 -28q24 -44 77 -65.5t112 -21.5q76 0 127.5 30.5t60.5 94.5q3 23 -5 43t-22 34t-39.5 28t-48.5 22.5t-57 20.5q-124 44 -179 81
q-124 81 -108 204q20 164 170 229q-126 66 -110 213q15 123 117.5 198.5t250.5 75.5q113 0 185 -41t102 -110q7 -21 -3 -39t-32 -27l-71 -28q-37 -15 -64 20q-39 55 -137 55q-79 0 -125.5 -29t-52.5 -75q-4 -42 35 -72t118 -57q10 -3 41.5 -13t52 -16.5t53 -20.5t54 -27.5
t46 -36t37.5 -47t20 -59t2 -73.5q-21 -169 -179 -233zM401 682q-7 -55 40.5 -91t117.5 -36q83 0 132 34.5t57 94.5q8 59 -34.5 93t-131.5 34q-78 0 -125.5 -35t-55.5 -94z" />
    <glyph glyph-name="dieresis" unicode="&#xa8;" horiz-adv-x="671" 
d="M291 1190q-40 0 -68 29t-22 77q6 45 41 73t75 28q41 0 71 -28t24 -73q-6 -48 -42.5 -77t-78.5 -29zM672 1190q-41 0 -68.5 29t-21.5 77q6 45 40.5 73t75.5 28t70 -28t23 -73q-6 -48 -42 -77t-77 -29z" />
    <glyph glyph-name="copyright" unicode="&#xa9;" horiz-adv-x="1574" 
d="M766 -16q-197 0 -339.5 88t-206.5 243t-40 351q18 146 83 272.5t163.5 216.5t230 141.5t277.5 51.5t264.5 -51.5t194.5 -141.5t109.5 -216.5t15.5 -272.5q-24 -197 -127.5 -352.5t-266.5 -242.5t-358 -87zM780 102q108 0 203 31.5t165 86t123.5 127t84 153t41.5 166.5
t0 166.5t-46.5 153t-92 126.5t-143.5 85.5t-195 31.5q-134 0 -247.5 -48t-189.5 -128.5t-123.5 -179.5t-60.5 -207q-11 -85 1 -166.5t48.5 -153.5t94 -126.5t144.5 -86t193 -31.5zM1112 842q-36 -24 -68 8q-56 59 -145 59q-38 0 -78 -13.5t-79 -40.5t-68 -75.5t-37 -111.5
q-7 -51 3 -93.5t30.5 -69.5t49.5 -46t58.5 -27t59.5 -8q86 0 161 59q36 29 68 6l20 -14q19 -14 21 -32t-18 -37q-109 -103 -267 -103q-155 0 -240.5 103.5t-66.5 261.5q20 158 130.5 260t266.5 102q159 0 244 -102q26 -40 -20 -70z" />
    <glyph glyph-name="guillemotleft" unicode="&#xab;" horiz-adv-x="1337" 
d="M670 338q19 -25 9 -43.5t-42 -18.5h-145q-39 0 -60 27l-256 320q-25 36 10 69l334 320q26 26 64 26h145q32 0 39 -18t-18 -43l-336 -320zM1217 338q19 -25 9 -43.5t-42 -18.5h-148q-38 0 -59 27l-256 320q-25 36 10 69l334 320q26 26 63 26h148q32 0 38.5 -18t-18.5 -43
l-335 -320z" />
    <glyph glyph-name="logicalnot" unicode="&#xac;" horiz-adv-x="1101" 
d="M197 793q1 23 15.5 36t37.5 13h766q48 0 45 -49l-45 -367q-6 -49 -55 -49h-111q-49 0 -43 49l24 207h-606q-49 0 -43 49z" />
    <glyph glyph-name="registered" unicode="&#xae;" horiz-adv-x="1570" 
d="M934 1348q194 0 335.5 -89t205.5 -244.5t41 -348.5q-17 -144 -81.5 -270t-162.5 -217t-229 -143t-277 -52q-194 0 -336.5 89t-207.5 244.5t-42 348.5q17 144 82.5 270.5t164 217t230 142.5t277.5 52zM780 102q107 0 201.5 32.5t164 87t123 127.5t84.5 153t42 164
q10 84 -1 164t-46.5 152.5t-91.5 127t-142.5 87t-193.5 32.5q-133 0 -247 -49t-190.5 -130t-123.5 -180t-60 -204q-11 -83 0.5 -163.5t48 -153t93.5 -127.5t144.5 -87.5t194.5 -32.5zM1149 786q-10 -82 -61 -140.5t-119 -80.5l104 -200q12 -25 0 -42.5t-41 -17.5h-33
q-38 0 -55 33l-115 219h-137l-24 -203q-3 -23 -18 -36t-38 -13h-26q-49 0 -43 49l75 611q3 23 18 36t38 13h293q83 0 139 -63t43 -165zM735 895l-26 -215h196q42 0 76.5 30t40.5 76q6 48 -20.5 78.5t-69.5 30.5h-197z" />
    <glyph glyph-name="macron" unicode="&#xaf;" horiz-adv-x="468" 
d="M199 1282q6 49 55 49h289q49 0 43 -49l-6 -45q-3 -23 -18 -36t-38 -13h-288q-49 0 -43 49z" />
    <glyph glyph-name="degree" unicode="&#xb0;" horiz-adv-x="663" 
d="M438 852q-109 0 -170.5 69.5t-48.5 176.5q13 108 92.5 176.5t188.5 68.5q105 0 166.5 -68.5t48.5 -176.5q-13 -107 -92.5 -176.5t-184.5 -69.5zM453 971q53 0 94.5 36t48.5 91q6 55 -27 91t-86 36q-55 0 -97 -36t-48 -91q-7 -55 26.5 -91t88.5 -36z" />
    <glyph glyph-name="plusminus" unicode="&#xb1;" horiz-adv-x="970" 
d="M655 854h234q49 0 43 -49l-6 -47q-1 -23 -16.5 -36t-39.5 -13h-233l-14 -129q-3 -23 -18 -36.5t-38 -13.5h-71q-23 0 -34.5 13.5t-8.5 36.5l14 129h-234q-46 0 -43 49l7 47q6 49 55 49h233l17 127q6 49 55 49h72q49 0 43 -49zM180 272q-23 0 -34.5 13.5t-8.5 36.5l6 47
q3 23 18 36t38 13h637q49 0 43 -49l-7 -47q-3 -23 -17.5 -36.5t-37.5 -13.5h-637z" />
    <glyph glyph-name="uni00B2" unicode="&#xb2;" horiz-adv-x="655" 
d="M80 629q3 23 20 37l158 122q51 40 76 60t72.5 61.5t72.5 69.5t48 63.5t26 63.5q6 53 -26 84t-99 31q-48 0 -89.5 -22.5t-66.5 -55.5q-18 -28 -39 -13l-67 31q-25 15 -10 39q37 61 113 106.5t175 45.5q129 0 197.5 -65t54.5 -173q-5 -43 -29.5 -90t-49.5 -79.5t-72.5 -77
t-66 -60t-64.5 -51.5l-117 -92h315q28 0 25 -31l-8 -68q-3 -28 -33 -28h-498q-27 0 -24 28z" />
    <glyph glyph-name="uni00B3" unicode="&#xb3;" horiz-adv-x="714" 
d="M498 1040q92 -17 147.5 -77t42.5 -168q-18 -136 -116 -206.5t-226 -70.5q-77 0 -143.5 28.5t-102.5 74.5q-19 19 6 41l54 49q22 19 41 0q60 -60 161 -60q75 0 128.5 39t60.5 105t-36 104.5t-118 38.5q-49 0 -110 -12q-32 -10 -29 24l6 43q3 21 23 35l239 176h-286
q-13 0 -21 8.5t-6 22.5l8 68q6 28 35 28h449q29 0 26 -28l-8 -66q-3 -22 -23 -39z" />
    <glyph glyph-name="acute" unicode="&#xb4;" horiz-adv-x="378" 
d="M289 1294q19 37 61 37h86q28 0 36 -15.5t-7 -41.5l-80 -129q-22 -35 -61 -35h-82q-28 0 -36 16t7 41z" />
    <glyph glyph-name="paragraph" unicode="&#xb6;" horiz-adv-x="1157" 
d="M723 1331q49 0 43 -49l-152 -1233q-6 -49 -55 -49h-110q-49 0 -43 49l79 643q-150 0 -223.5 81.5t-54.5 227.5q19 148 114 239t236 91h166zM967 1282q6 49 55 49h111q49 0 43 -49l-152 -1233q-6 -49 -55 -49h-111q-49 0 -43 49z" />
    <glyph glyph-name="periodcentered" unicode="&#xb7;" horiz-adv-x="360" 
d="M248 543q-54 0 -84.5 35t-24.5 90q6 54 44.5 88.5t92.5 34.5t85.5 -34.5t25.5 -88.5q-6 -55 -45.5 -90t-93.5 -35z" />
    <glyph glyph-name="cedilla" unicode="&#xb8;" horiz-adv-x="399" 
d="M207 -86q135 -22 123 -135q-10 -76 -65 -114t-144 -38q-44 0 -80 8q-38 9 -35 56l2 16q4 25 18.5 33.5t41.5 3.5q30 -6 65 -6q78 0 84 41q3 41 -84 41q-14 0 -24 -2q-51 -3 -48 37l2 14q3 29 25 61l27 37q24 33 63 33h21q30 0 37 -16.5t-11 -42.5z" />
    <glyph glyph-name="uni00B9" unicode="&#xb9;" horiz-adv-x="477" 
d="M471 1331q30 0 27 -28l-92 -746q-3 -29 -33 -29h-80q-14 0 -21 8t-4 21l78 649h-147q-14 0 -21 8t-4 21l8 68q3 28 33 28h256z" />
    <glyph glyph-name="guillemotright" unicode="&#xbb;" horiz-adv-x="1304" 
d="M174 276q-32 0 -38.5 18.5t18.5 43.5l333 319l-254 320q-19 25 -9 43t42 18h140q39 0 59 -26l256 -320q25 -36 -10 -69l-334 -320q-27 -27 -64 -27h-139zM713 276q-32 0 -39 18.5t18 43.5l334 319l-254 320q-19 25 -9 43t42 18h139q40 0 60 -26l256 -320q25 -36 -11 -69
l-334 -320q-27 -27 -63 -27h-139z" />
    <glyph glyph-name="onequarter" unicode="&#xbc;" horiz-adv-x="1036" 
d="M190 33q-24 -33 -63 -33h-4q-30 0 -37.5 16.5t12.5 42.5l916 1239q21 33 63 33h4q29 0 36.5 -16.5t-11.5 -42.5zM426 1331q26 0 23 -24l-78 -623q-4 -25 -27 -25h-68q-10 0 -16 7t-4 18l66 543h-123q-26 0 -23 24l8 56q3 24 29 24h213zM1008 209q25 0 22 -25l-4 -34
q-4 -25 -27 -25h-55l-12 -100q-3 -25 -27 -25h-63q-26 0 -23 25l12 100h-311q-10 0 -16 7t-4 18l4 32q0 14 14 31l367 432q11 14 30 14h72q24 0 21 -24l-54 -426h54zM618 209h224l39 305z" />
    <glyph glyph-name="onehalf" unicode="&#xbd;" horiz-adv-x="1146" 
d="M188 33q-24 -33 -63 -33h-4q-30 0 -37.5 16.5t12.5 42.5l916 1239q21 33 63 33h4q29 0 36.5 -16.5t-11.5 -42.5zM426 1331q26 0 23 -24l-78 -623q-4 -25 -27 -25h-68q-10 0 -16 7t-4 18l66 543h-123q-26 0 -23 24l8 56q3 24 29 24h213zM664 74q3 17 16 30l127 99
q56 44 79.5 63.5t68.5 60.5t66.5 73.5t25.5 60.5q5 41 -22 65.5t-81 24.5q-38 0 -71.5 -18t-53.5 -44q-14 -21 -33 -10l-53 25q-19 13 -8 33q30 48 92 84t141 36q104 0 159 -52t44 -140q-14 -125 -227 -287l-94 -76h254q23 0 20 -24l-6 -53q-3 -25 -27 -25h-401
q-24 0 -21 25z" />
    <glyph glyph-name="threequarters" unicode="&#xbe;" horiz-adv-x="1144" 
d="M463 1092q77 -15 123 -65.5t35 -139.5q-14 -111 -96 -169.5t-187 -58.5q-64 0 -120 23t-85 61q-13 17 6 33l43 41q20 17 35 2q49 -49 133 -49q63 0 106.5 31.5t49.5 85.5q7 56 -28 87.5t-97 31.5q-47 0 -92 -11q-12 -3 -19 2.5t-6 18.5l6 35q3 19 19 30l196 146h-235
q-26 0 -23 24l9 56q3 24 26 24h373q23 0 20 -24l-6 -54q-3 -18 -18 -30zM305 33q-24 -33 -63 -33h-4q-30 0 -37.5 16.5t12.5 42.5l915 1239q21 33 64 33h4q29 0 36.5 -16.5t-11.5 -42.5zM1116 209q26 0 23 -25l-4 -34q-4 -25 -27 -25h-55l-13 -100q-3 -25 -26 -25h-64
q-25 0 -22 25l12 100h-311q-10 0 -16.5 7t-4.5 18l4 32q0 12 15 31l366 432q11 14 31 14h72q23 0 20 -24l-53 -426h53zM727 209h223l39 305z" />
    <glyph glyph-name="questiondown" unicode="&#xbf;" horiz-adv-x="935" 
d="M602 1112q-53 0 -83.5 34.5t-24.5 86.5t45 86.5t92 34.5q52 0 82 -34t24 -87q-6 -52 -44 -86.5t-91 -34.5zM653 985q48 0 45 -39q-12 -101 -61 -171.5t-119 -129.5q-50 -44 -64.5 -57t-50 -49t-48.5 -56.5t-27.5 -52.5t-18.5 -65q-9 -75 38.5 -120.5t141.5 -45.5
q67 0 133.5 35t106.5 90q31 41 68 22l104 -53q42 -22 14 -64q-67 -104 -187 -171.5t-265 -67.5q-192 0 -302 95t-89 269q6 49 22.5 93.5t33 74t50 66t52 53.5t59.5 53q5 5 29 28t29.5 28.5t25 25.5t25.5 28t20 25.5t19.5 28.5l13.5 27t12 30.5t6 30.5q3 39 53 39h131z" />
    <glyph glyph-name="Agrave" unicode="&#xc0;" horiz-adv-x="1349" 
d="M823 1675q40 0 54 -37l43 -127q9 -25 -2 -41t-39 -16h-82q-43 0 -54 35l-51 129q-9 26 4 41.5t41 15.5h86zM1094 0q-40 0 -52 39l-61 217h-569l-115 -217q-19 -39 -59 -39h-140q-28 0 -37 16t5 41l653 1235q22 39 63 39h92q43 0 52 -39l352 -1235q8 -25 -4.5 -41
t-40.5 -16h-139zM520 465h406l-142 508z" />
    <glyph glyph-name="Aacute" unicode="&#xc1;" horiz-adv-x="1349" 
d="M862 1638q19 37 62 37h86q28 0 35.5 -15.5t-7.5 -41.5l-80 -129q-22 -35 -61 -35h-82q-28 0 -36 16t7 41zM1094 0q-40 0 -52 39l-61 217h-569l-115 -217q-19 -39 -59 -39h-140q-28 0 -37 16t5 41l653 1235q22 39 63 39h92q43 0 52 -39l352 -1235q8 -25 -4.5 -41
t-40.5 -16h-139zM520 465h406l-142 508z" />
    <glyph glyph-name="Acircumflex" unicode="&#xc2;" horiz-adv-x="1349" 
d="M1079 1513q12 -25 2 -42t-39 -17h-75q-45 0 -56 33l-49 108l-74 -108q-23 -33 -63 -33h-78q-29 0 -36 17t12 42l98 129q23 33 63 33h174q39 0 56 -33zM1094 0q-40 0 -52 39l-61 217h-569l-115 -217q-19 -39 -59 -39h-140q-28 0 -37 16t5 41l653 1235q22 39 63 39h92
q43 0 52 -39l352 -1235q8 -25 -4.5 -41t-40.5 -16h-139zM520 465h406l-142 508z" />
    <glyph glyph-name="Atilde" unicode="&#xc3;" horiz-adv-x="1349" 
d="M578 1446q-53 0 -41 51q24 79 79 126.5t134 47.5q88 0 141 -69q37 -52 82 -52q50 0 74 49q19 46 57 46h35q25 0 35 -13.5t4 -38.5q-25 -79 -81 -126.5t-141 -47.5q-88 0 -143 72q-20 25 -36.5 37t-39.5 12q-44 0 -69 -49q-16 -45 -56 -45h-34zM1094 0q-40 0 -52 39
l-61 217h-569l-115 -217q-19 -39 -59 -39h-140q-28 0 -37 16t5 41l653 1235q22 39 63 39h92q43 0 52 -39l352 -1235q8 -25 -4.5 -41t-40.5 -16h-139zM520 465h406l-142 508z" />
    <glyph glyph-name="Adieresis" unicode="&#xc4;" horiz-adv-x="1349" 
d="M651 1430q-40 0 -68 29t-22 77q6 45 41.5 72.5t75.5 27.5q41 0 70.5 -27.5t23.5 -72.5q-6 -48 -42.5 -77t-78.5 -29zM1032 1430q-41 0 -68.5 29t-21.5 77q6 45 41 72.5t76 27.5t69.5 -27.5t22.5 -72.5q-6 -48 -42 -77t-77 -29zM1094 0q-40 0 -52 39l-61 217h-569
l-115 -217q-19 -39 -59 -39h-140q-28 0 -37 16t5 41l653 1235q22 39 63 39h92q43 0 52 -39l352 -1235q8 -25 -4.5 -41t-40.5 -16h-139zM520 465h406l-142 508z" />
    <glyph glyph-name="Aring" unicode="&#xc5;" horiz-adv-x="1349" 
d="M842 1423q-81 0 -127 50t-37 126q9 79 68 129t141 50t126.5 -49.5t35.5 -129.5q-9 -76 -67.5 -126t-139.5 -50zM854 1524q40 0 61 23t25 52t-11 53.5t-55 24.5t-61 -24.5t-25 -53.5t11 -52t55 -23zM1094 0q-40 0 -52 39l-61 217h-569l-115 -217q-19 -39 -59 -39h-140
q-28 0 -37 16t5 41l653 1235q22 39 63 39h92q43 0 52 -39l352 -1235q8 -25 -4.5 -41t-40.5 -16h-139zM520 465h406l-142 508z" />
    <glyph glyph-name="AE" unicode="&#xc6;" horiz-adv-x="1982" 
d="M1997 1171q-6 -49 -55 -49h-570l-43 -352h526q49 0 43 -49l-12 -111q-6 -49 -55 -49h-526l-43 -352h569q46 0 43 -49l-14 -111q-3 -23 -18 -36t-38 -13h-749q-49 0 -43 49l63 512h-493l-283 -522q-19 -39 -61 -39h-140q-27 0 -35.5 16t5.5 41l665 1235q22 39 64 39h1171
q49 0 43 -49zM692 770h408l43 352h-260z" />
    <glyph glyph-name="Ccedilla" unicode="&#xc7;" horiz-adv-x="1376" 
d="M1395 1118q24 -38 -19 -67l-116 -78q-41 -27 -68 8q-48 63 -128 101t-179 38q-196 0 -334.5 -128t-163.5 -326t82.5 -326.5t304.5 -128.5q97 0 185.5 40t154.5 105q21 18 36.5 20.5t35.5 -11.5l96 -82q38 -31 2 -70q-201 -214 -500 -229q3 -13 -12 -35l-18 -27
q66 -11 98.5 -45.5t26.5 -89.5q-10 -76 -66 -114t-145 -38q-37 0 -80 9q-38 8 -35 55l2 16q4 26 18 34t41 3q30 -6 66 -6q78 0 84 41q3 41 -82 41q-17 0 -27 -2q-50 -3 -47 37l2 14q3 30 25 62l27 36l10 13q-263 25 -404.5 212.5t-107.5 465.5q18 146 83 272.5t163.5 216.5
t229.5 141.5t277 51.5q160 0 283.5 -60.5t198.5 -169.5z" />
    <glyph glyph-name="Egrave" unicode="&#xc8;" horiz-adv-x="1114" 
d="M709 1675q39 0 53 -37l43 -127q9 -25 -2 -41t-39 -16h-82q-42 0 -53 35l-51 129q-9 26 4 41.5t41 15.5h86zM1128 1171q-6 -49 -55 -49h-610l-43 -352h567q49 0 43 -49l-12 -111q-6 -49 -55 -49h-568l-43 -352h611q46 0 43 -49l-15 -111q-6 -49 -55 -49h-789q-49 0 -43 49
l152 1233q6 49 55 49h789q49 0 43 -49z" />
    <glyph glyph-name="Eacute" unicode="&#xc9;" horiz-adv-x="1114" 
d="M748 1638q19 37 61 37h86q28 0 36 -15.5t-7 -41.5l-80 -129q-22 -35 -62 -35h-82q-28 0 -35.5 16t7.5 41zM1128 1171q-6 -49 -55 -49h-610l-43 -352h567q49 0 43 -49l-12 -111q-6 -49 -55 -49h-568l-43 -352h611q46 0 43 -49l-15 -111q-6 -49 -55 -49h-789q-49 0 -43 49
l152 1233q6 49 55 49h789q49 0 43 -49z" />
    <glyph glyph-name="Ecircumflex" unicode="&#xca;" horiz-adv-x="1114" 
d="M965 1513q12 -25 2 -42t-39 -17h-76q-44 0 -55 33l-49 108l-74 -108q-23 -33 -64 -33h-78q-29 0 -36 17t12 42l98 129q23 33 64 33h174q38 0 55 -33zM1128 1171q-6 -49 -55 -49h-610l-43 -352h567q49 0 43 -49l-12 -111q-6 -49 -55 -49h-568l-43 -352h611q46 0 43 -49
l-15 -111q-6 -49 -55 -49h-789q-49 0 -43 49l152 1233q6 49 55 49h789q49 0 43 -49z" />
    <glyph glyph-name="Edieresis" unicode="&#xcb;" horiz-adv-x="1114" 
d="M537 1430q-40 0 -68.5 29t-22.5 77q6 45 41.5 72.5t75.5 27.5q41 0 70.5 -27.5t23.5 -72.5q-6 -48 -42 -77t-78 -29zM918 1430q-41 0 -69 29t-22 77q6 45 41 72.5t76 27.5t69.5 -27.5t22.5 -72.5q-6 -48 -41.5 -77t-76.5 -29zM1128 1171q-6 -49 -55 -49h-610l-43 -352
h567q49 0 43 -49l-12 -111q-6 -49 -55 -49h-568l-43 -352h611q46 0 43 -49l-15 -111q-6 -49 -55 -49h-789q-49 0 -43 49l152 1233q6 49 55 49h789q49 0 43 -49z" />
    <glyph glyph-name="Igrave" unicode="&#xcc;" horiz-adv-x="462" 
d="M365 1675q39 0 53 -37l43 -127q9 -25 -2 -41t-39 -16h-82q-42 0 -53 35l-52 129q-9 26 4.5 41.5t41.5 15.5h86zM332 49q-3 -23 -18 -36t-38 -13h-129q-49 0 -43 49l152 1233q6 49 55 49h129q49 0 43 -49z" />
    <glyph glyph-name="Iacute" unicode="&#xcd;" horiz-adv-x="462" 
d="M403 1638q19 37 62 37h86q28 0 36 -15.5t-7 -41.5l-80 -129q-22 -35 -62 -35h-82q-28 0 -35.5 16t7.5 41zM332 49q-3 -23 -18 -36t-38 -13h-129q-49 0 -43 49l152 1233q6 49 55 49h129q49 0 43 -49z" />
    <glyph glyph-name="Icircumflex" unicode="&#xce;" horiz-adv-x="462" 
d="M621 1513q12 -25 2 -42t-39 -17h-76q-44 0 -55 33l-50 108l-73 -108q-23 -33 -64 -33h-78q-29 0 -36 17t12 42l98 129q23 33 64 33h174q38 0 55 -33zM332 49q-3 -23 -18 -36t-38 -13h-129q-49 0 -43 49l152 1233q6 49 55 49h129q49 0 43 -49z" />
    <glyph glyph-name="Idieresis" unicode="&#xcf;" horiz-adv-x="462" 
d="M193 1430q-40 0 -68.5 29t-22.5 77q6 45 41.5 72.5t75.5 27.5q41 0 70.5 -27.5t23.5 -72.5q-6 -48 -42 -77t-78 -29zM573 1430q-41 0 -68.5 29t-21.5 77q6 45 41 72.5t76 27.5t69.5 -27.5t22.5 -72.5q-6 -48 -42 -77t-77 -29zM332 49q-3 -23 -18 -36t-38 -13h-129
q-49 0 -43 49l152 1233q6 49 55 49h129q49 0 43 -49z" />
    <glyph glyph-name="Ntilde" unicode="&#xd1;" horiz-adv-x="1298" 
d="M547 1446q-53 0 -41 51q24 79 79 126.5t134 47.5q88 0 141 -69q37 -52 82 -52q50 0 74 49q19 46 57 46h35q25 0 35 -13.5t4 -38.5q-25 -80 -80.5 -127t-140.5 -47q-89 0 -144 72q-20 25 -36 37t-39 12q-45 0 -70 -49q-16 -45 -55 -45h-35zM1090 1282q6 49 55 49h129
q49 0 43 -49l-152 -1233q-6 -49 -55 -49h-133q-38 0 -55 33l-482 903l-108 -887q-3 -23 -18 -36t-38 -13h-129q-49 0 -43 49l152 1233q6 49 55 49h133q39 0 56 -33l481 -903z" />
    <glyph glyph-name="Ograve" unicode="&#xd2;" horiz-adv-x="1519" 
d="M903 1675q39 0 53 -37l43 -127q9 -25 -2 -41t-39 -16h-81q-43 0 -54 35l-51 129q-9 26 4 41.5t41 15.5h86zM745 -16q-146 0 -264.5 51.5t-195 141.5t-110 216.5t-15.5 272.5t83 272.5t163.5 216.5t229.5 141.5t277 51.5q195 0 336.5 -88t205.5 -243t40 -351
q-18 -147 -82.5 -273t-162.5 -216t-228.5 -141.5t-276.5 -51.5zM774 211q196 0 331.5 128t160.5 327t-80 326.5t-301 127.5t-334.5 -128t-163.5 -326t82.5 -326.5t304.5 -128.5z" />
    <glyph glyph-name="Oacute" unicode="&#xd3;" horiz-adv-x="1519" 
d="M942 1638q19 37 62 37h86q28 0 35.5 -15.5t-7.5 -41.5l-80 -129q-22 -35 -61 -35h-82q-28 0 -36 16t7 41zM745 -16q-146 0 -264.5 51.5t-195 141.5t-110 216.5t-15.5 272.5t83 272.5t163.5 216.5t229.5 141.5t277 51.5q195 0 336.5 -88t205.5 -243t40 -351
q-18 -147 -82.5 -273t-162.5 -216t-228.5 -141.5t-276.5 -51.5zM774 211q196 0 331.5 128t160.5 327t-80 326.5t-301 127.5t-334.5 -128t-163.5 -326t82.5 -326.5t304.5 -128.5z" />
    <glyph glyph-name="Ocircumflex" unicode="&#xd4;" horiz-adv-x="1519" 
d="M1159 1513q12 -25 2 -42t-39 -17h-75q-45 0 -56 33l-49 108l-74 -108q-23 -33 -63 -33h-78q-29 0 -36.5 17t11.5 42l99 129q23 33 63 33h174q39 0 56 -33zM745 -16q-146 0 -264.5 51.5t-195 141.5t-110 216.5t-15.5 272.5t83 272.5t163.5 216.5t229.5 141.5t277 51.5
q195 0 336.5 -88t205.5 -243t40 -351q-18 -147 -82.5 -273t-162.5 -216t-228.5 -141.5t-276.5 -51.5zM774 211q196 0 331.5 128t160.5 327t-80 326.5t-301 127.5t-334.5 -128t-163.5 -326t82.5 -326.5t304.5 -128.5z" />
    <glyph glyph-name="Otilde" unicode="&#xd5;" horiz-adv-x="1519" 
d="M657 1446q-53 0 -41 51q24 79 79 126.5t134 47.5q89 0 142 -69q37 -52 82 -52q49 0 73 49q19 46 58 46h35q51 0 38 -52q-25 -80 -80.5 -127t-140.5 -47q-88 0 -143 72q-20 25 -36.5 37t-39.5 12q-44 0 -69 -49q-16 -45 -56 -45h-35zM745 -16q-146 0 -264.5 51.5
t-195 141.5t-110 216.5t-15.5 272.5t83 272.5t163.5 216.5t229.5 141.5t277 51.5q195 0 336.5 -88t205.5 -243t40 -351q-18 -147 -82.5 -273t-162.5 -216t-228.5 -141.5t-276.5 -51.5zM774 211q196 0 331.5 128t160.5 327t-80 326.5t-301 127.5t-334.5 -128t-163.5 -326
t82.5 -326.5t304.5 -128.5z" />
    <glyph glyph-name="Odieresis" unicode="&#xd6;" horiz-adv-x="1519" 
d="M731 1430q-40 0 -68 29t-22 77q6 45 41.5 72.5t75.5 27.5q41 0 70.5 -27.5t23.5 -72.5q-6 -48 -42.5 -77t-78.5 -29zM1112 1430q-41 0 -68.5 29t-21.5 77q6 45 41 72.5t76 27.5t69.5 -27.5t22.5 -72.5q-6 -48 -42 -77t-77 -29zM745 -16q-146 0 -264.5 51.5t-195 141.5
t-110 216.5t-15.5 272.5t83 272.5t163.5 216.5t229.5 141.5t277 51.5q195 0 336.5 -88t205.5 -243t40 -351q-18 -147 -82.5 -273t-162.5 -216t-228.5 -141.5t-276.5 -51.5zM774 211q196 0 331.5 128t160.5 327t-80 326.5t-301 127.5t-334.5 -128t-163.5 -326t82.5 -326.5
t304.5 -128.5z" />
    <glyph glyph-name="multiply" unicode="&#xd7;" horiz-adv-x="999" 
d="M940 950q31 -35 -6 -69l-246 -222l193 -217q28 -36 -11 -69l-65 -58q-39 -36 -70 0l-192 217l-242 -217q-42 -38 -70 -2l-51 54q-31 35 6 69l246 219l-192 219q-29 37 10 70l65 57q39 36 70 0l193 -217l243 217q38 35 70 3z" />
    <glyph glyph-name="Oslash" unicode="&#xd8;" horiz-adv-x="1519" 
d="M1364 1163q168 -196 131 -497q-18 -147 -82.5 -273t-162.5 -216t-228.5 -141.5t-276.5 -51.5q-207 0 -356 100l-49 -55q-29 -29 -64 -29h-75q-31 0 -37 17t16 42l107 119q-79 92 -112.5 217t-14.5 271q18 146 83 272.5t163.5 216.5t229.5 141.5t277 51.5q201 0 344 -95
l60 66q26 29 63 29h76q31 0 37 -17.5t-16 -42.5zM387 666q-21 -185 64 -306l643 711q-85 49 -209 49q-200 0 -336.5 -125.5t-161.5 -328.5zM774 211q199 0 333 126t159 329q24 189 -66 315l-647 -715q91 -55 221 -55z" />
    <glyph glyph-name="Ugrave" unicode="&#xd9;" horiz-adv-x="1257" 
d="M772 1675q39 0 53 -37l43 -127q9 -25 -2 -41t-39 -16h-82q-42 0 -53 35l-51 129q-9 26 4 41.5t41 15.5h86zM1049 1282q6 49 55 49h131q49 0 43 -49l-100 -815q-12 -100 -57.5 -187t-117.5 -153.5t-174.5 -104.5t-222.5 -38t-213 38t-148 104.5t-78 153.5t-11 187l100 815
q6 49 55 49h129q49 0 43 -49l-98 -790q-17 -142 52.5 -214.5t195.5 -72.5q127 0 213.5 72.5t103.5 214.5z" />
    <glyph glyph-name="Uacute" unicode="&#xda;" horiz-adv-x="1257" 
d="M811 1638q19 37 61 37h86q28 0 36 -15.5t-7 -41.5l-80 -129q-22 -35 -61 -35h-82q-28 0 -36 16t7 41zM1049 1282q6 49 55 49h131q49 0 43 -49l-100 -815q-12 -100 -57.5 -187t-117.5 -153.5t-174.5 -104.5t-222.5 -38t-213 38t-148 104.5t-78 153.5t-11 187l100 815
q6 49 55 49h129q49 0 43 -49l-98 -790q-17 -142 52.5 -214.5t195.5 -72.5q127 0 213.5 72.5t103.5 214.5z" />
    <glyph glyph-name="Ucircumflex" unicode="&#xdb;" horiz-adv-x="1257" 
d="M1028 1513q12 -25 2 -42t-39 -17h-76q-44 0 -55 33l-49 108l-74 -108q-23 -33 -63 -33h-78q-29 0 -36.5 17t11.5 42l99 129q23 33 63 33h174q39 0 56 -33zM1049 1282q6 49 55 49h131q49 0 43 -49l-100 -815q-12 -100 -57.5 -187t-117.5 -153.5t-174.5 -104.5t-222.5 -38
t-213 38t-148 104.5t-78 153.5t-11 187l100 815q6 49 55 49h129q49 0 43 -49l-98 -790q-17 -142 52.5 -214.5t195.5 -72.5q127 0 213.5 72.5t103.5 214.5z" />
    <glyph glyph-name="Udieresis" unicode="&#xdc;" horiz-adv-x="1257" 
d="M600 1430q-40 0 -68 29t-22 77q6 45 41.5 72.5t75.5 27.5q41 0 70.5 -27.5t23.5 -72.5q-6 -48 -42.5 -77t-78.5 -29zM981 1430q-41 0 -68.5 29t-21.5 77q6 45 41 72.5t76 27.5t69.5 -27.5t22.5 -72.5q-6 -48 -42 -77t-77 -29zM1049 1282q6 49 55 49h131q49 0 43 -49
l-100 -815q-12 -100 -57.5 -187t-117.5 -153.5t-174.5 -104.5t-222.5 -38t-213 38t-148 104.5t-78 153.5t-11 187l100 815q6 49 55 49h129q49 0 43 -49l-98 -790q-17 -142 52.5 -214.5t195.5 -72.5q127 0 213.5 72.5t103.5 214.5z" />
    <glyph glyph-name="Yacute" unicode="&#xdd;" horiz-adv-x="1253" 
d="M805 1638q19 37 61 37h86q28 0 36 -15.5t-7 -41.5l-80 -129q-22 -35 -61 -35h-82q-28 0 -36 16t7 41zM1292 1331q29 0 36.5 -17t-11.5 -42l-522 -699l-64 -524q-6 -49 -55 -49h-129q-49 0 -43 49l63 518l-352 705q-12 26 0 42.5t41 16.5h154q38 0 55 -33l244 -489
l366 489q23 33 64 33h153z" />
    <glyph glyph-name="germandbls" unicode="&#xdf;" horiz-adv-x="1095" 
d="M922 727q86 -52 121.5 -140.5t21.5 -195.5q-21 -171 -148.5 -281t-332.5 -110h-135q-49 0 -43 49l12 98q3 23 17.5 36.5t37.5 13.5h84q70 0 127.5 16t104.5 61.5t55 116.5q6 53 -12 93t-54 62t-80 33t-94 11h-84q-49 0 -43 49l10 86q3 23 18 36t38 13h65q107 0 184 53.5
t87 143.5q12 90 -41 142t-144 52q-104 0 -176 -62t-86 -185l-106 -869q-3 -23 -18 -36t-38 -13h-123q-49 0 -43 49l109 879q25 207 165.5 316.5t338.5 109.5q182 0 287.5 -96.5t85.5 -262.5q-23 -174 -168 -268z" />
    <glyph glyph-name="agrave" unicode="&#xe0;" 
d="M713 1300q40 0 53 -36l43 -127q9 -25 -2.5 -41.5t-38.5 -16.5h-82q-42 0 -53 35l-51 129q-9 26 4 41.5t41 15.5h86zM924 893q1 23 15.5 36t37.5 13h121q48 0 45 -49l-105 -844q-6 -49 -55 -49h-121q-49 0 -43 49l8 72q-124 -137 -313 -137q-196 0 -307.5 138t-85.5 349
q26 213 170.5 349t341.5 136q192 0 280 -137zM569 190q120 0 203.5 79t97.5 202q15 123 -48 201t-183 78t-204 -78t-99 -201q-14 -123 49.5 -202t183.5 -79z" />
    <glyph glyph-name="aacute" unicode="&#xe1;" 
d="M752 1264q19 36 61 36h86q28 0 36 -15.5t-7 -41.5l-80 -129q-22 -35 -62 -35h-81q-28 0 -36 16.5t7 41.5zM924 893q1 23 15.5 36t37.5 13h121q48 0 45 -49l-105 -844q-6 -49 -55 -49h-121q-49 0 -43 49l8 72q-124 -137 -313 -137q-196 0 -307.5 138t-85.5 349
q26 213 170.5 349t341.5 136q192 0 280 -137zM569 190q120 0 203.5 79t97.5 202q15 123 -48 201t-183 78t-204 -78t-99 -201q-14 -123 49.5 -202t183.5 -79z" />
    <glyph glyph-name="acircumflex" unicode="&#xe2;" 
d="M969 1139q12 -25 2 -42.5t-39 -17.5h-76q-44 0 -55 33l-49 109l-74 -109q-23 -33 -64 -33h-77q-29 0 -36.5 17.5t11.5 42.5l98 129q22 32 64 32h174q38 0 55 -32zM924 893q1 23 15.5 36t37.5 13h121q48 0 45 -49l-105 -844q-6 -49 -55 -49h-121q-49 0 -43 49l8 72
q-124 -137 -313 -137q-196 0 -307.5 138t-85.5 349q26 213 170.5 349t341.5 136q192 0 280 -137zM569 190q120 0 203.5 79t97.5 202q15 123 -48 201t-183 78t-204 -78t-99 -201q-14 -123 49.5 -202t183.5 -79z" />
    <glyph glyph-name="atilde" unicode="&#xe3;" 
d="M467 1071q-53 0 -41 51q24 79 79 126.5t134 47.5q88 0 141 -69q37 -51 82 -51q50 0 74 49q19 45 57 45h35q51 0 39 -51q-25 -80 -80.5 -127.5t-140.5 -47.5q-89 0 -144 72q-20 25 -36 37t-39 12q-45 0 -70 -49q-16 -45 -55 -45h-35zM924 893q1 23 15.5 36t37.5 13h121
q48 0 45 -49l-105 -844q-6 -49 -55 -49h-121q-49 0 -43 49l8 72q-124 -137 -313 -137q-196 0 -307.5 138t-85.5 349q26 213 170.5 349t341.5 136q192 0 280 -137zM569 190q120 0 203.5 79t97.5 202q15 123 -48 201t-183 78t-204 -78t-99 -201q-14 -123 49.5 -202t183.5 -79z
" />
    <glyph glyph-name="adieresis" unicode="&#xe4;" 
d="M541 1055q-40 0 -68 29t-22 77q6 45 41 73t75 28q41 0 71 -28t24 -73q-6 -48 -42.5 -77t-78.5 -29zM922 1055q-41 0 -69 29t-22 77q6 45 41 73t76 28t69.5 -28t22.5 -73q-6 -48 -41.5 -77t-76.5 -29zM924 893q1 23 15.5 36t37.5 13h121q48 0 45 -49l-105 -844
q-6 -49 -55 -49h-121q-49 0 -43 49l8 72q-124 -137 -313 -137q-196 0 -307.5 138t-85.5 349q26 213 170.5 349t341.5 136q192 0 280 -137zM569 190q120 0 203.5 79t97.5 202q15 123 -48 201t-183 78t-204 -78t-99 -201q-14 -123 49.5 -202t183.5 -79z" />
    <glyph glyph-name="aring" unicode="&#xe5;" 
d="M731 1049q-81 0 -127 50t-37 126q9 79 68 128.5t141 49.5t126.5 -49t35.5 -129q-9 -76 -67.5 -126t-139.5 -50zM743 1149q40 0 61 23.5t25 52.5t-10.5 53.5t-54.5 24.5t-61 -24.5t-25 -53.5t10.5 -52.5t54.5 -23.5zM924 893q1 23 15.5 36t37.5 13h121q48 0 45 -49
l-105 -844q-6 -49 -55 -49h-121q-49 0 -43 49l8 72q-124 -137 -313 -137q-196 0 -307.5 138t-85.5 349q26 213 170.5 349t341.5 136q192 0 280 -137zM569 190q120 0 203.5 79t97.5 202q15 123 -48 201t-183 78t-204 -78t-99 -201q-14 -123 49.5 -202t183.5 -79z" />
    <glyph glyph-name="ae" unicode="&#xe6;" horiz-adv-x="1849" 
d="M1411 956q195 0 305 -137t84 -348l-2 -20q-3 -23 -17.5 -36.5t-37.5 -13.5h-627q3 -108 62 -168.5t155 -60.5q129 0 215 80q36 36 70 12l68 -49q39 -28 4 -70q-155 -161 -385 -161q-150 0 -254 73t-142 195q-24 -57 -57 -101.5t-84 -84t-127.5 -61t-173.5 -21.5
q-197 0 -294 61.5t-79 200.5q6 55 30.5 98t57.5 72.5t86 51t100.5 33t119.5 19.5t125 10.5t132 4.5q14 144 -33.5 198.5t-146.5 54.5q-123 0 -190 -75q-35 -38 -70 -25l-80 31q-46 19 -18 63q117 174 393 174q162 0 255 -67.5t112 -186.5q67 119 183.5 186.5t260.5 67.5z
M1405 780q-111 0 -181 -66t-94 -177h476q3 118 -54 180.5t-147 62.5zM471 139q112 0 174.5 57t83.5 201q-208 -5 -278 -20q-121 -25 -139 -105q-2 -8 -3 -16q-7 -60 33.5 -88.5t128.5 -28.5z" />
    <glyph glyph-name="ccedilla" unicode="&#xe7;" horiz-adv-x="1011" 
d="M995 807q27 -38 -16 -70l-90 -63q-34 -26 -66 6q-66 70 -180 70q-121 0 -206.5 -78.5t-100.5 -200.5q-14 -123 51.5 -202t185.5 -79q114 0 197 68q37 32 70 6l73 -61q38 -30 0 -68q-133 -136 -325 -151q3 -16 -13 -35l-18 -27q66 -11 98.5 -45.5t26.5 -89.5
q-10 -76 -66 -114t-145 -38q-36 0 -80 9q-38 8 -35 55l2 16q4 25 18.5 33.5t41.5 3.5q30 -6 65 -6q78 0 84 41q3 41 -82 41q-16 0 -26 -2q-50 -3 -47 37l2 14q3 32 24 62l27 36q3 6 8 11q-182 23 -279.5 156.5t-72.5 328.5q26 214 177 350.5t364 136.5q108 0 194 -39.5
t139 -111.5z" />
    <glyph glyph-name="egrave" unicode="&#xe8;" horiz-adv-x="1089" 
d="M643 1300q40 0 53 -36l43 -127q9 -25 -2.5 -41.5t-38.5 -16.5h-82q-42 0 -53 35l-51 129q-9 26 4 41.5t41 15.5h86zM649 958q204 0 312 -137t81 -350v-12q-6 -49 -55 -49h-659q3 -110 67 -175t168 -65q134 0 225 80q38 31 70 6l66 -53q39 -31 2 -68q-73 -73 -172.5 -113
t-212.5 -40q-213 0 -329.5 138t-90.5 351q27 214 172 350.5t356 136.5zM629 784q-102 0 -176 -62.5t-107 -170.5h502q-6 104 -62.5 168.5t-156.5 64.5z" />
    <glyph glyph-name="eacute" unicode="&#xe9;" horiz-adv-x="1089" 
d="M682 1264q19 36 61 36h86q28 0 36 -15.5t-7 -41.5l-80 -129q-22 -35 -61 -35h-82q-28 0 -36 16.5t7 41.5zM649 958q204 0 312 -137t81 -350v-12q-6 -49 -55 -49h-659q3 -110 67 -175t168 -65q134 0 225 80q38 31 70 6l66 -53q39 -31 2 -68q-73 -73 -172.5 -113
t-212.5 -40q-213 0 -329.5 138t-90.5 351q27 214 172 350.5t356 136.5zM629 784q-102 0 -176 -62.5t-107 -170.5h502q-6 104 -62.5 168.5t-156.5 64.5z" />
    <glyph glyph-name="ecircumflex" unicode="&#xea;" horiz-adv-x="1089" 
d="M899 1139q12 -25 2 -42.5t-39 -17.5h-76q-44 0 -55 33l-49 109l-74 -109q-23 -33 -63 -33h-78q-29 0 -36.5 17.5t11.5 42.5l99 129q22 32 63 32h174q39 0 56 -32zM649 958q204 0 312 -137t81 -350v-12q-6 -49 -55 -49h-659q3 -110 67 -175t168 -65q134 0 225 80
q38 31 70 6l66 -53q39 -31 2 -68q-73 -73 -172.5 -113t-212.5 -40q-213 0 -329.5 138t-90.5 351q27 214 172 350.5t356 136.5zM629 784q-102 0 -176 -62.5t-107 -170.5h502q-6 104 -62.5 168.5t-156.5 64.5z" />
    <glyph glyph-name="edieresis" unicode="&#xeb;" horiz-adv-x="1089" 
d="M471 1055q-40 0 -68 29t-22 77q6 45 41.5 73t75.5 28q41 0 70.5 -28t23.5 -73q-6 -48 -42.5 -77t-78.5 -29zM852 1055q-41 0 -68.5 29t-21.5 77q6 45 41 73t76 28t69.5 -28t22.5 -73q-6 -48 -42 -77t-77 -29zM649 958q204 0 312 -137t81 -350v-12q-6 -49 -55 -49h-659
q3 -110 67 -175t168 -65q134 0 225 80q38 31 70 6l66 -53q39 -31 2 -68q-73 -73 -172.5 -113t-212.5 -40q-213 0 -329.5 138t-90.5 351q27 214 172 350.5t356 136.5zM629 784q-102 0 -176 -62.5t-107 -170.5h502q-6 104 -62.5 168.5t-156.5 64.5z" />
    <glyph glyph-name="igrave" unicode="&#xec;" horiz-adv-x="473" 
d="M326 1300q40 0 53 -36l43 -127q9 -25 -2.5 -41.5t-38.5 -16.5h-82q-42 0 -53 35l-51 129q-9 26 4 41.5t41 15.5h86zM332 49q-3 -23 -18 -36t-38 -13h-122q-49 0 -43 49l104 844q1 23 15.5 36t37.5 13h123q48 0 45 -49z" />
    <glyph glyph-name="iacute" unicode="&#xed;" horiz-adv-x="473" 
d="M365 1264q19 36 61 36h86q28 0 36 -15.5t-7 -41.5l-80 -129q-22 -35 -62 -35h-82q-28 0 -35.5 16.5t7.5 41.5zM332 49q-3 -23 -18 -36t-38 -13h-122q-49 0 -43 49l104 844q1 23 15.5 36t37.5 13h123q48 0 45 -49z" />
    <glyph glyph-name="icircumflex" unicode="&#xee;" horiz-adv-x="473" 
d="M582 1139q12 -25 2 -42.5t-39 -17.5h-76q-44 0 -55 33l-49 109l-74 -109q-23 -33 -64 -33h-77q-29 0 -36.5 17.5t11.5 42.5l98 129q22 32 64 32h174q38 0 55 -32zM332 49q-3 -23 -18 -36t-38 -13h-122q-49 0 -43 49l104 844q1 23 15.5 36t37.5 13h123q48 0 45 -49z" />
    <glyph glyph-name="idieresis" unicode="&#xef;" horiz-adv-x="473" 
d="M154 1055q-40 0 -68.5 29t-22.5 77q6 45 41.5 73t75.5 28q41 0 70.5 -28t23.5 -73q-6 -48 -42 -77t-78 -29zM535 1055q-41 0 -69 29t-22 77q6 45 41 73t76 28t69.5 -28t22.5 -73q-6 -48 -41.5 -77t-76.5 -29zM332 49q-3 -23 -18 -36t-38 -13h-122q-49 0 -43 49l104 844
q1 23 15.5 36t37.5 13h123q48 0 45 -49z" />
    <glyph glyph-name="ntilde" unicode="&#xf1;" horiz-adv-x="1101" 
d="M393 1071q-53 0 -41 51q24 79 79 126.5t134 47.5q89 0 142 -69q37 -51 81 -51q50 0 74 49q19 45 58 45h34q51 0 39 -51q-25 -80 -80.5 -127.5t-140.5 -47.5q-88 0 -143 72q-20 25 -36.5 37t-39.5 12q-45 0 -70 -49q-16 -45 -55 -45h-35zM711 956q55 0 104.5 -12t95 -40.5
t76.5 -71t45 -108t4 -146.5l-65 -529q-3 -23 -18 -36t-38 -13h-122q-49 0 -43 49l61 496q7 61 -7 106.5t-43.5 70t-64 36.5t-73.5 12q-84 0 -154 -54.5t-84 -170.5l-61 -496q-3 -23 -18 -36t-38 -13h-121q-49 0 -43 49l105 844q1 23 15.5 36t37.5 13h121q48 0 45 -49l-8 -51
q111 114 291 114z" />
    <glyph glyph-name="ograve" unicode="&#xf2;" horiz-adv-x="1136" 
d="M659 1300q41 0 54 -36l43 -127q9 -25 -2.5 -41.5t-38.5 -16.5h-82q-42 0 -53 35l-52 129q-9 26 4 41.5t41 15.5h86zM547 -18q-213 0 -332.5 138.5t-93.5 350.5q26 214 180 352t367 138t330.5 -137.5t91.5 -352.5q-26 -212 -178.5 -350.5t-364.5 -138.5zM571 190
q119 0 202 80t97 201q15 122 -48 200.5t-181 78.5q-119 0 -202.5 -79t-98.5 -200q-14 -122 49.5 -201.5t181.5 -79.5z" />
    <glyph glyph-name="oacute" unicode="&#xf3;" horiz-adv-x="1136" 
d="M698 1264q19 36 62 36h86q28 0 35.5 -15.5t-7.5 -41.5l-79 -129q-22 -35 -62 -35h-82q-28 0 -35.5 16.5t7.5 41.5zM547 -18q-213 0 -332.5 138.5t-93.5 350.5q26 214 180 352t367 138t330.5 -137.5t91.5 -352.5q-26 -212 -178.5 -350.5t-364.5 -138.5zM571 190
q119 0 202 80t97 201q15 122 -48 200.5t-181 78.5q-119 0 -202.5 -79t-98.5 -200q-14 -122 49.5 -201.5t181.5 -79.5z" />
    <glyph glyph-name="ocircumflex" unicode="&#xf4;" horiz-adv-x="1136" 
d="M915 1139q13 -25 3 -42.5t-39 -17.5h-76q-44 0 -55 33l-50 109l-73 -109q-23 -33 -64 -33h-78q-29 0 -36 17.5t12 42.5l98 129q22 32 64 32h174q38 0 55 -32zM547 -18q-213 0 -332.5 138.5t-93.5 350.5q26 214 180 352t367 138t330.5 -137.5t91.5 -352.5
q-26 -212 -178.5 -350.5t-364.5 -138.5zM571 190q119 0 202 80t97 201q15 122 -48 200.5t-181 78.5q-119 0 -202.5 -79t-98.5 -200q-14 -122 49.5 -201.5t181.5 -79.5z" />
    <glyph glyph-name="otilde" unicode="&#xf5;" horiz-adv-x="1136" 
d="M414 1071q-53 0 -41 51q24 79 79 126.5t134 47.5q88 0 141 -69q37 -51 82 -51q50 0 74 49q19 45 57 45h35q51 0 39 -51q-25 -80 -80.5 -127.5t-140.5 -47.5q-89 0 -144 72q-20 25 -36.5 37t-39.5 12q-44 0 -69 -49q-16 -45 -55 -45h-35zM547 -18q-213 0 -332.5 138.5
t-93.5 350.5q26 214 180 352t367 138t330.5 -137.5t91.5 -352.5q-26 -212 -178.5 -350.5t-364.5 -138.5zM571 190q119 0 202 80t97 201q15 122 -48 200.5t-181 78.5q-119 0 -202.5 -79t-98.5 -200q-14 -122 49.5 -201.5t181.5 -79.5z" />
    <glyph glyph-name="odieresis" unicode="&#xf6;" horiz-adv-x="1136" 
d="M487 1055q-40 0 -68 29t-22 77q6 45 41.5 73t75.5 28q41 0 70.5 -28t23.5 -73q-6 -48 -42.5 -77t-78.5 -29zM868 1055q-41 0 -68.5 29t-21.5 77q6 45 41 73t76 28t69.5 -28t22.5 -73q-6 -48 -42 -77t-77 -29zM547 -18q-213 0 -332.5 138.5t-93.5 350.5q26 214 180 352
t367 138t330.5 -137.5t91.5 -352.5q-26 -212 -178.5 -350.5t-364.5 -138.5zM571 190q119 0 202 80t97 201q15 122 -48 200.5t-181 78.5q-119 0 -202.5 -79t-98.5 -200q-14 -122 49.5 -201.5t181.5 -79.5z" />
    <glyph glyph-name="divide" unicode="&#xf7;" horiz-adv-x="1060" 
d="M621 895q-52 0 -81.5 34t-23.5 87q6 52 43 85.5t90 33.5q54 0 83.5 -33t23.5 -86t-43.5 -87t-91.5 -34zM184 696q3 23 18 36t38 13h727q49 0 43 -49l-11 -73q-3 -23 -17.5 -36.5t-37.5 -13.5h-727q-23 0 -34.5 13.5t-8.5 36.5zM532 184q-52 0 -81 34t-23 87q6 52 43 85.5
t90 33.5q54 0 83.5 -33t23.5 -86t-44 -87t-92 -34z" />
    <glyph glyph-name="oslash" unicode="&#xf8;" horiz-adv-x="1136" 
d="M981 840q136 -139 109 -369q-26 -212 -178.5 -350.5t-364.5 -138.5q-158 0 -266 79l-29 -32q-29 -29 -64 -29q-20 0 -21.5 15.5t17.5 37.5l45 51q-64 67 -92.5 161.5t-15.5 205.5q26 214 180 352t367 138q153 0 264 -78l29 30q26 29 61 29q13 0 18 -8t-0.5 -21.5
t-19.5 -29.5zM340 471q-12 -120 47 -195l391 435q-58 39 -137 39q-119 0 -202.5 -79t-98.5 -200zM571 190q119 0 202 80t97 201q15 118 -45 197l-391 -439q55 -39 137 -39z" />
    <glyph glyph-name="ugrave" unicode="&#xf9;" horiz-adv-x="1101" 
d="M651 1300q41 0 54 -36l43 -127q9 -25 -2.5 -41.5t-38.5 -16.5h-82q-43 0 -54 35l-51 129q-9 26 4 41.5t41 15.5h86zM854 893q1 23 15.5 36t37.5 13h123q48 0 45 -49l-104 -844q-3 -23 -18 -36t-38 -13h-122q-49 0 -43 49l6 49q-111 -114 -291 -114q-55 0 -104.5 12
t-94.5 41t-75.5 71.5t-44 108.5t-3.5 148l66 528q1 23 15.5 36t37.5 13h121q48 0 45 -49l-61 -496q-7 -61 7 -106.5t43.5 -70t63.5 -36.5t72 -12q85 0 155.5 54.5t84.5 170.5z" />
    <glyph glyph-name="uacute" unicode="&#xfa;" horiz-adv-x="1101" 
d="M690 1264q19 36 62 36h86q28 0 35.5 -15.5t-7.5 -41.5l-80 -129q-22 -35 -61 -35h-82q-28 0 -36 16.5t7 41.5zM854 893q1 23 15.5 36t37.5 13h123q48 0 45 -49l-104 -844q-3 -23 -18 -36t-38 -13h-122q-49 0 -43 49l6 49q-111 -114 -291 -114q-55 0 -104.5 12t-94.5 41
t-75.5 71.5t-44 108.5t-3.5 148l66 528q1 23 15.5 36t37.5 13h121q48 0 45 -49l-61 -496q-7 -61 7 -106.5t43.5 -70t63.5 -36.5t72 -12q85 0 155.5 54.5t84.5 170.5z" />
    <glyph glyph-name="ucircumflex" unicode="&#xfb;" horiz-adv-x="1101" 
d="M907 1139q12 -25 2 -42.5t-39 -17.5h-75q-45 0 -56 33l-49 109l-74 -109q-23 -33 -63 -33h-78q-29 0 -36 17.5t12 42.5l98 129q22 32 63 32h174q39 0 56 -32zM854 893q1 23 15.5 36t37.5 13h123q48 0 45 -49l-104 -844q-3 -23 -18 -36t-38 -13h-122q-49 0 -43 49l6 49
q-111 -114 -291 -114q-55 0 -104.5 12t-94.5 41t-75.5 71.5t-44 108.5t-3.5 148l66 528q1 23 15.5 36t37.5 13h121q48 0 45 -49l-61 -496q-7 -61 7 -106.5t43.5 -70t63.5 -36.5t72 -12q85 0 155.5 54.5t84.5 170.5z" />
    <glyph glyph-name="udieresis" unicode="&#xfc;" horiz-adv-x="1101" 
d="M479 1055q-40 0 -68 29t-22 77q6 45 41.5 73t75.5 28q41 0 70.5 -28t23.5 -73q-6 -48 -42.5 -77t-78.5 -29zM860 1055q-41 0 -68.5 29t-21.5 77q6 45 41 73t76 28t69.5 -28t22.5 -73q-6 -48 -42 -77t-77 -29zM854 893q1 23 15.5 36t37.5 13h123q48 0 45 -49l-104 -844
q-3 -23 -18 -36t-38 -13h-122q-49 0 -43 49l6 49q-111 -114 -291 -114q-55 0 -104.5 12t-94.5 41t-75.5 71.5t-44 108.5t-3.5 148l66 528q1 23 15.5 36t37.5 13h121q48 0 45 -49l-61 -496q-7 -61 7 -106.5t43.5 -70t63.5 -36.5t72 -12q85 0 155.5 54.5t84.5 170.5z" />
    <glyph glyph-name="yacute" unicode="&#xfd;" horiz-adv-x="1034" 
d="M645 1264q19 36 62 36h86q28 0 35.5 -15.5t-7.5 -41.5l-80 -129q-22 -35 -61 -35h-82q-28 0 -36 16.5t7 41.5zM846 903q22 39 59 39h127q28 0 37 -16t-4 -41l-637 -1223q-22 -39 -61 -39h-113q-27 0 -35.5 16.5t4.5 41.5l166 319l-239 885q-6 25 6 41t39 16h124
q43 0 52 -39l161 -598z" />
    <glyph glyph-name="ydieresis" unicode="&#xff;" horiz-adv-x="1034" 
d="M434 1055q-40 0 -68 29t-22 77q6 45 41.5 73t75.5 28q41 0 70.5 -28t23.5 -73q-6 -48 -42.5 -77t-78.5 -29zM815 1055q-41 0 -68.5 29t-21.5 77q6 45 41 73t76 28t69.5 -28t22.5 -73q-6 -48 -42 -77t-77 -29zM846 903q22 39 59 39h127q28 0 37 -16t-4 -41l-637 -1223
q-22 -39 -61 -39h-113q-27 0 -35.5 16.5t4.5 41.5l166 319l-239 885q-6 25 6 41t39 16h124q43 0 52 -39l161 -598z" />
    <glyph glyph-name="Amacron" unicode="&#x100;" horiz-adv-x="1349" 
d="M666 1544q6 49 55 49h289q49 0 43 -49l-6 -45q-3 -23 -18 -36t-38 -13h-289q-49 0 -43 49zM1094 0q-40 0 -52 39l-61 217h-569l-115 -217q-19 -39 -59 -39h-140q-28 0 -37 16t5 41l653 1235q22 39 63 39h92q43 0 52 -39l352 -1235q8 -25 -4.5 -41t-40.5 -16h-139z
M520 465h406l-142 508z" />
    <glyph glyph-name="amacron" unicode="&#x101;" 
d="M553 1167q3 23 17.5 36.5t37.5 13.5h289q23 0 34.5 -13.5t8.5 -36.5l-6 -45q-6 -49 -55 -49h-289q-49 0 -43 49zM924 893q1 23 15.5 36t37.5 13h121q48 0 45 -49l-105 -844q-6 -49 -55 -49h-121q-49 0 -43 49l8 72q-124 -137 -313 -137q-196 0 -307.5 138t-85.5 349
q26 213 170.5 349t341.5 136q192 0 280 -137zM569 190q120 0 203.5 79t97.5 202q15 123 -48 201t-183 78t-204 -78t-99 -201q-14 -123 49.5 -202t183.5 -79z" />
    <glyph glyph-name="Abreve" unicode="&#x102;" horiz-adv-x="1349" 
d="M1051 1661q49 0 49 -2l-2 -4q-10 -96 -80 -153.5t-172 -57.5t-158.5 57.5t-46.5 153.5q3 6 51 6h33q49 0 49 -2l-2 -4q-5 -38 19.5 -66t68.5 -28q45 0 73.5 27.5t33.5 66.5q3 6 51 6h33zM1094 0q-40 0 -52 39l-61 217h-569l-115 -217q-19 -39 -59 -39h-140q-28 0 -37 16
t5 41l653 1235q22 39 63 39h92q43 0 52 -39l352 -1235q8 -25 -4.5 -41t-40.5 -16h-139zM520 465h406l-142 508z" />
    <glyph glyph-name="abreve" unicode="&#x103;" 
d="M940 1286q49 0 49 -2l-2 -4q-10 -96 -80 -153.5t-172 -57.5t-158.5 57.5t-46.5 153.5q3 6 52 6h32q50 0 50 -2l-2 -4q-5 -38 19.5 -66t68.5 -28q45 0 73 27.5t33 66.5q3 6 51 6h33zM924 893q1 23 15.5 36t37.5 13h121q48 0 45 -49l-105 -844q-6 -49 -55 -49h-121
q-49 0 -43 49l8 72q-124 -137 -313 -137q-196 0 -307.5 138t-85.5 349q26 213 170.5 349t341.5 136q192 0 280 -137zM569 190q120 0 203.5 79t97.5 202q15 123 -48 201t-183 78t-204 -78t-99 -201q-14 -123 49.5 -202t183.5 -79z" />
    <glyph glyph-name="Aogonek" unicode="&#x104;" horiz-adv-x="1349" 
d="M1192 -31q-44 -40 -49 -82q-3 -22 12 -35.5t53 -9.5q29 5 43 -4.5t11 -34.5l-5 -30q-7 -48 -51 -54q-95 -12 -154.5 24.5t-50.5 111.5q10 81 95 145h-2q-40 0 -52 39l-61 217h-569l-115 -217q-19 -39 -59 -39h-140q-28 0 -37 16t5 41l653 1235q22 39 63 39h92
q43 0 52 -39l352 -1235q8 -25 -4.5 -41t-40.5 -16h-21q-4 -15 -20 -31zM520 465h406l-142 508z" />
    <glyph glyph-name="aogonek" unicode="&#x105;" 
d="M1098 942q48 0 45 -49l-105 -844q-6 -49 -55 -49h-2q3 -16 -20 -39q-45 -41 -50 -82q-3 -22 12.5 -35.5t53.5 -9.5q29 5 42.5 -4.5t10.5 -34.5l-4 -31q-7 -47 -51 -53q-95 -12 -154.5 24.5t-50.5 110.5q10 87 107 154h-15q-49 0 -43 49l8 72q-124 -137 -313 -137
q-196 0 -307.5 138t-85.5 349q26 213 170.5 349t341.5 136q192 0 280 -137l11 74q1 23 15.5 36t37.5 13h121zM870 471q15 123 -48 201t-183 78t-204 -78t-99 -201q-14 -123 49.5 -202t183.5 -79t203.5 79t97.5 202z" />
    <glyph glyph-name="Cacute" unicode="&#x106;" horiz-adv-x="1376" 
d="M924 1642q19 37 61 37h86q28 0 36 -15.5t-7 -41.5l-80 -129q-22 -35 -62 -35h-81q-28 0 -36 16.5t7 41.5zM1260 973q-41 -27 -68 8q-48 63 -128 101t-179 38q-196 0 -334.5 -128t-163.5 -326t82.5 -326.5t304.5 -128.5q97 0 185.5 40t154.5 105q21 18 36.5 20.5
t35.5 -11.5l96 -82q38 -31 2 -70q-103 -109 -241 -169t-298 -60q-146 0 -264.5 51.5t-195 141.5t-110 216.5t-15.5 272.5t83 272.5t163.5 216.5t229.5 141.5t277 51.5q160 0 283.5 -60.5t198.5 -169.5q24 -38 -19 -67z" />
    <glyph glyph-name="cacute" unicode="&#x107;" horiz-adv-x="1011" 
d="M694 1264q19 36 62 36h86q28 0 35.5 -15.5t-7.5 -41.5l-79 -129q-22 -35 -62 -35h-82q-28 0 -36 16.5t7 41.5zM889 674q-34 -26 -66 6q-66 70 -180 70q-121 0 -206.5 -78.5t-100.5 -200.5q-14 -123 51.5 -202t185.5 -79q114 0 197 68q37 32 70 6l73 -61q38 -30 0 -68
q-150 -153 -370 -153q-213 0 -330.5 137.5t-91.5 351.5t177 350.5t364 136.5q108 0 194 -39.5t139 -111.5q27 -38 -16 -70z" />
    <glyph glyph-name="Cdotaccent" unicode="&#x10a;" horiz-adv-x="1376" 
d="M903 1434q-40 0 -68 29t-22 77q6 45 41.5 72.5t75.5 27.5q41 0 70.5 -27.5t23.5 -72.5q-6 -48 -42.5 -77t-78.5 -29zM1260 973q-41 -27 -68 8q-48 63 -128 101t-179 38q-196 0 -334.5 -128t-163.5 -326t82.5 -326.5t304.5 -128.5q97 0 185.5 40t154.5 105
q21 18 36.5 20.5t35.5 -11.5l96 -82q38 -31 2 -70q-103 -109 -241 -169t-298 -60q-146 0 -264.5 51.5t-195 141.5t-110 216.5t-15.5 272.5t83 272.5t163.5 216.5t229.5 141.5t277 51.5q160 0 283.5 -60.5t198.5 -169.5q24 -38 -19 -67z" />
    <glyph glyph-name="cdotaccent" unicode="&#x10b;" horiz-adv-x="1011" 
d="M674 1055q-40 0 -68 29t-22 77q6 45 41 73t75 28q41 0 71 -28t24 -73q-6 -48 -42.5 -77t-78.5 -29zM889 674q-34 -26 -66 6q-66 70 -180 70q-121 0 -206.5 -78.5t-100.5 -200.5q-14 -123 51.5 -202t185.5 -79q114 0 197 68q37 32 70 6l73 -61q38 -30 0 -68
q-150 -153 -370 -153q-213 0 -330.5 137.5t-91.5 351.5t177 350.5t364 136.5q108 0 194 -39.5t139 -111.5q27 -38 -16 -70z" />
    <glyph glyph-name="Ccaron" unicode="&#x10c;" horiz-adv-x="1376" 
d="M991 1647q20 32 64 32h75q29 0 35.5 -17t-12.5 -42l-96 -129q-26 -33 -64 -33h-174q-41 0 -55 33l-68 129q-12 25 -1 42t40 17h78q40 0 55 -32l50 -101zM1260 973q-41 -27 -68 8q-48 63 -128 101t-179 38q-196 0 -334.5 -128t-163.5 -326t82.5 -326.5t304.5 -128.5
q97 0 185.5 40t154.5 105q21 18 36.5 20.5t35.5 -11.5l96 -82q38 -31 2 -70q-103 -109 -241 -169t-298 -60q-146 0 -264.5 51.5t-195 141.5t-110 216.5t-15.5 272.5t83 272.5t163.5 216.5t229.5 141.5t277 51.5q160 0 283.5 -60.5t198.5 -169.5q24 -38 -19 -67z" />
    <glyph glyph-name="ccaron" unicode="&#x10d;" horiz-adv-x="1011" 
d="M762 1268q20 32 63 32h76q29 0 35.5 -17t-12.5 -42l-97 -129q-26 -33 -63 -33h-174q-41 0 -55 33l-68 129q-12 25 -1 42t40 17h78q40 0 55 -32l49 -101zM889 674q-34 -26 -66 6q-66 70 -180 70q-121 0 -206.5 -78.5t-100.5 -200.5q-14 -123 51.5 -202t185.5 -79
q114 0 197 68q37 32 70 6l73 -61q38 -30 0 -68q-150 -153 -370 -153q-213 0 -330.5 137.5t-91.5 351.5t177 350.5t364 136.5q108 0 194 -39.5t139 -111.5q27 -38 -16 -70z" />
    <glyph glyph-name="Dcaron" unicode="&#x10e;" horiz-adv-x="1339" 
d="M797 1645q20 32 63 32h76q29 0 35 -17t-13 -42l-96 -129q-26 -33 -63 -33h-174q-42 0 -56 33l-67 129q-12 25 -1 42t40 17h77q41 0 56 -32l49 -101zM739 1331q293 0 452 -184.5t122 -480.5q-37 -297 -241 -481.5t-497 -184.5h-428q-49 0 -43 49l152 1233q6 49 55 49h428z
M602 221q55 0 112.5 13.5t120 46.5t113 82t88.5 127.5t49 175.5t-7.5 175t-56.5 127t-91.5 82t-107.5 46.5t-109 13.5h-250l-111 -889h250z" />
    <glyph glyph-name="dcaron" unicode="&#x10f;" 
d="M1184 1642q21 33 63 33h76q29 0 35.5 -17t-12.5 -42l-97 -129q-26 -33 -63 -33h-174q-42 0 -56 33l-67 129q-12 25 -1 42t40 17h78q39 0 55 -33l49 -100zM971 1282q6 49 55 49h121q49 0 43 -49l-152 -1233q-6 -49 -55 -49h-121q-49 0 -43 49l8 72q-124 -137 -313 -137
q-196 0 -307.5 138t-85.5 349q26 213 170.5 349t341.5 136q192 0 280 -137zM569 190q120 0 203.5 79t97.5 202q15 123 -48 201t-183 78t-204 -78t-99 -201q-14 -123 49.5 -202t183.5 -79z" />
    <glyph glyph-name="Dcroat" unicode="&#x110;" horiz-adv-x="1347" 
d="M743 1331q195 0 335 -83.5t203.5 -234.5t39.5 -347q-37 -297 -241.5 -481.5t-499.5 -184.5h-433q-49 0 -43 49l62 504h-47q-49 0 -43 49l14 111q6 49 55 49h48l63 520q6 49 55 49h432zM610 225q54 0 112 13.5t120 47t113 82.5t89 126t50 172q11 94 -8.5 171t-58.5 126
t-93 82t-108.5 47t-108.5 14h-256l-41 -344h174q49 0 43 -49l-14 -111q-3 -23 -18 -36t-38 -13h-174l-39 -328h256z" />
    <glyph glyph-name="Emacron" unicode="&#x112;" horiz-adv-x="1114" 
d="M551 1544q6 49 55 49h289q49 0 43 -49l-6 -45q-6 -49 -55 -49h-289q-49 0 -43 49zM1128 1171q-6 -49 -55 -49h-610l-43 -352h567q49 0 43 -49l-12 -111q-6 -49 -55 -49h-568l-43 -352h611q46 0 43 -49l-15 -111q-6 -49 -55 -49h-789q-49 0 -43 49l152 1233q6 49 55 49
h789q49 0 43 -49z" />
    <glyph glyph-name="emacron" unicode="&#x113;" horiz-adv-x="1089" 
d="M483 1167q3 23 18 36.5t38 13.5h288q23 0 34.5 -13.5t8.5 -36.5l-6 -45q-6 -49 -55 -49h-289q-49 0 -43 49zM649 958q204 0 312 -137t81 -350v-12q-6 -49 -55 -49h-659q3 -110 67 -175t168 -65q134 0 225 80q38 31 70 6l66 -53q39 -31 2 -68q-73 -73 -172.5 -113
t-212.5 -40q-213 0 -329.5 138t-90.5 351q27 214 172 350.5t356 136.5zM629 784q-102 0 -176 -62.5t-107 -170.5h502q-6 104 -62.5 168.5t-156.5 64.5z" />
    <glyph glyph-name="Edotaccent" unicode="&#x116;" horiz-adv-x="1114" 
d="M727 1430q-40 0 -68 29t-22 77q6 45 41.5 72.5t75.5 27.5q41 0 70.5 -27.5t23.5 -72.5q-6 -48 -42.5 -77t-78.5 -29zM1128 1171q-6 -49 -55 -49h-610l-43 -352h567q49 0 43 -49l-12 -111q-6 -49 -55 -49h-568l-43 -352h611q46 0 43 -49l-15 -111q-6 -49 -55 -49h-789
q-49 0 -43 49l152 1233q6 49 55 49h789q49 0 43 -49z" />
    <glyph glyph-name="edotaccent" unicode="&#x117;" horiz-adv-x="1089" 
d="M662 1055q-40 0 -68.5 29t-22.5 77q6 45 41.5 73t75.5 28q41 0 70.5 -28t23.5 -73q-6 -48 -42 -77t-78 -29zM649 958q204 0 312 -137t81 -350v-12q-6 -49 -55 -49h-659q3 -110 67 -175t168 -65q134 0 225 80q38 31 70 6l66 -53q39 -31 2 -68q-73 -73 -172.5 -113
t-212.5 -40q-213 0 -329.5 138t-90.5 351q27 214 172 350.5t356 136.5zM629 784q-102 0 -176 -62.5t-107 -170.5h502q-6 104 -62.5 168.5t-156.5 64.5z" />
    <glyph glyph-name="Eogonek" unicode="&#x118;" horiz-adv-x="1114" 
d="M1100 1331q49 0 43 -49l-15 -111q-6 -49 -55 -49h-610l-43 -352h567q49 0 43 -49l-12 -111q-6 -49 -55 -49h-568l-43 -352h611q46 0 43 -49l-15 -111q-6 -49 -55 -49h-2q0 -14 -23 -37q-44 -40 -49 -82q-3 -22 12.5 -35.5t53.5 -9.5q29 5 42.5 -4.5t10.5 -34.5l-4 -30
q-7 -48 -51 -54q-95 -12 -154.5 24.5t-50.5 110.5q10 87 104 152h-678q-49 0 -43 49l152 1233q6 49 55 49h789z" />
    <glyph glyph-name="eogonek" unicode="&#x119;" horiz-adv-x="1089" 
d="M649 958q204 0 312 -137t81 -350v-12q-6 -49 -55 -49h-659q3 -110 67 -175t168 -65q134 0 225 80q38 31 70 6l66 -53q39 -31 2 -68q-141 -141 -353 -153q4 -15 -20 -39q-44 -40 -49 -82q-3 -22 12 -35.5t53 -9.5q29 5 43 -4.5t11 -34.5l-5 -31q-7 -47 -51 -53
q-95 -12 -154.5 24.5t-50.5 110.5q10 87 107 154l6 4q-184 22 -281.5 156.5t-72.5 328.5q27 214 172 350.5t356 136.5zM346 551h502q-6 104 -62.5 168.5t-156.5 64.5q-102 0 -176 -62.5t-107 -170.5z" />
    <glyph glyph-name="Ecaron" unicode="&#x11a;" horiz-adv-x="1114" 
d="M815 1642q21 33 64 33h75q29 0 35.5 -17t-12.5 -42l-96 -129q-26 -33 -64 -33h-174q-41 0 -55 33l-68 129q-12 25 -1 42t40 17h78q39 0 55 -33l49 -100zM1128 1171q-6 -49 -55 -49h-610l-43 -352h567q49 0 43 -49l-12 -111q-6 -49 -55 -49h-568l-43 -352h611q46 0 43 -49
l-15 -111q-6 -49 -55 -49h-789q-49 0 -43 49l152 1233q6 49 55 49h789q49 0 43 -49z" />
    <glyph glyph-name="ecaron" unicode="&#x11b;" horiz-adv-x="1089" 
d="M750 1268q20 32 63 32h76q29 0 35 -17t-13 -42l-96 -129q-26 -33 -63 -33h-174q-42 0 -56 33l-67 129q-12 25 -1 42t40 17h77q41 0 56 -32l49 -101zM649 958q204 0 312 -137t81 -350v-12q-6 -49 -55 -49h-659q3 -110 67 -175t168 -65q134 0 225 80q38 31 70 6l66 -53
q39 -31 2 -68q-73 -73 -172.5 -113t-212.5 -40q-213 0 -329.5 138t-90.5 351q27 214 172 350.5t356 136.5zM629 784q-102 0 -176 -62.5t-107 -170.5h502q-6 104 -62.5 168.5t-156.5 64.5z" />
    <glyph glyph-name="Gbreve" unicode="&#x11e;" horiz-adv-x="1503" 
d="M1133 1661q49 0 49 -2l-2 -4q-10 -96 -80 -153.5t-172 -57.5t-158.5 57.5t-46.5 153.5q3 6 51 6h33q49 0 49 -2l-2 -4q-5 -38 19.5 -66t68.5 -28q45 0 73.5 27.5t33.5 66.5q3 6 51 6h33zM1464 635q-31 -190 -127 -336.5t-249.5 -230.5t-342.5 -84q-146 0 -264.5 51.5
t-195 141.5t-110 216.5t-15.5 272.5t83 272.5t163.5 216.5t229.5 141.5t277 51.5q159 0 283 -60t197 -168q26 -37 -19 -67l-117 -78q-38 -25 -67 8q-110 137 -305 137q-196 0 -334.5 -128t-163.5 -326t82.5 -326.5t304.5 -128.5q145 0 261.5 84t156.5 231h-344q-49 0 -43 49
l12 111q6 49 55 49h555q49 0 43 -49z" />
    <glyph glyph-name="gbreve" unicode="&#x11f;" 
d="M899 1286q49 0 49 -2l-2 -4q-10 -96 -80 -153.5t-172 -57.5t-158.5 57.5t-46.5 153.5q3 6 52 6h32q50 0 50 -2l-2 -4q-5 -38 19.5 -66t68.5 -28q45 0 73 27.5t33 66.5q3 6 51 6h33zM924 893q1 23 15.5 36t37.5 13h121q48 0 45 -49l-103 -825q-25 -207 -174.5 -336
t-382.5 -129q-219 0 -346 133q-31 36 13 69l79 60q36 26 70 -4q77 -72 207 -72q37 0 75 8.5t78.5 29.5t73 51.5t56.5 79.5t32 110l6 55q-126 -139 -315 -139q-196 0 -306.5 138t-84.5 349t170 348t340 137q189 0 282 -137zM567 190q121 0 205 79.5t98 201.5q15 123 -49 201
t-184 78t-203 -78t-98 -201q-14 -124 48.5 -202.5t182.5 -78.5z" />
    <glyph glyph-name="Gdotaccent" unicode="&#x120;" horiz-adv-x="1503" 
d="M924 1430q-40 0 -68 29t-22 77q6 45 41 72.5t75 27.5q41 0 70.5 -27.5t23.5 -72.5q-6 -48 -42 -77t-78 -29zM1464 635q-31 -190 -127 -336.5t-249.5 -230.5t-342.5 -84q-146 0 -264.5 51.5t-195 141.5t-110 216.5t-15.5 272.5t83 272.5t163.5 216.5t229.5 141.5t277 51.5
q159 0 283 -60t197 -168q26 -37 -19 -67l-117 -78q-38 -25 -67 8q-110 137 -305 137q-196 0 -334.5 -128t-163.5 -326t82.5 -326.5t304.5 -128.5q145 0 261.5 84t156.5 231h-344q-49 0 -43 49l12 111q6 49 55 49h555q49 0 43 -49z" />
    <glyph glyph-name="gdotaccent" unicode="&#x121;" 
d="M690 1055q-40 0 -68 29t-22 77q6 45 41.5 73t75.5 28q41 0 70.5 -28t23.5 -73q-6 -48 -42.5 -77t-78.5 -29zM924 893q1 23 15.5 36t37.5 13h121q48 0 45 -49l-103 -825q-25 -207 -174.5 -336t-382.5 -129q-219 0 -346 133q-31 36 13 69l79 60q36 26 70 -4q77 -72 207 -72
q37 0 75 8.5t78.5 29.5t73 51.5t56.5 79.5t32 110l6 55q-126 -139 -315 -139q-196 0 -306.5 138t-84.5 349t170 348t340 137q189 0 282 -137zM567 190q121 0 205 79.5t98 201.5q15 123 -49 201t-184 78t-203 -78t-98 -201q-14 -124 48.5 -202.5t182.5 -78.5z" />
    <glyph glyph-name="uni0122" unicode="&#x122;" horiz-adv-x="1503" 
d="M1464 635q-31 -190 -127 -336.5t-249.5 -230.5t-342.5 -84q-146 0 -264.5 51.5t-195 141.5t-110 216.5t-15.5 272.5t83 272.5t163.5 216.5t229.5 141.5t277 51.5q159 0 283 -60t197 -168q26 -37 -19 -67l-117 -78q-38 -25 -67 8q-110 137 -305 137q-196 0 -334.5 -128
t-163.5 -326t82.5 -326.5t304.5 -128.5q145 0 261.5 84t156.5 231h-344q-49 0 -43 49l12 111q6 49 55 49h555q49 0 43 -49zM629 -154q20 35 63 35h80q28 0 36 -17t-9 -42l-82 -123q-20 -35 -62 -35h-73q-28 0 -37 16t6 41z" />
    <glyph glyph-name="uni0123" unicode="&#x123;" 
d="M778 1323q20 0 23.5 -11t-13.5 -26q-20 -17 -36 -39q27 -8 43.5 -31.5t13.5 -58.5q-5 -40 -36 -70t-79 -30q-50 0 -75.5 30t-20.5 70q7 66 98 143q26 23 62 23h20zM924 893q1 23 15.5 36t37.5 13h121q48 0 45 -49l-103 -825q-25 -207 -174.5 -336t-382.5 -129
q-219 0 -346 133q-31 36 13 69l79 60q36 26 70 -4q77 -72 207 -72q37 0 75 8.5t78.5 29.5t73 51.5t56.5 79.5t32 110l6 55q-126 -139 -315 -139q-196 0 -306.5 138t-84.5 349t170 348t340 137q189 0 282 -137zM567 190q121 0 205 79.5t98 201.5q15 123 -49 201t-184 78
t-203 -78t-98 -201q-14 -124 48.5 -202.5t182.5 -78.5z" />
    <glyph glyph-name="Itilde" unicode="&#x128;" horiz-adv-x="462" 
d="M119 1446q-53 0 -41 51q24 79 79 126.5t134 47.5q88 0 141 -69q37 -52 82 -52q50 0 74 49q19 46 57 46h35q25 0 35 -13.5t4 -38.5q-25 -80 -80.5 -127t-140.5 -47q-89 0 -144 72q-20 25 -36 37t-39 12q-45 0 -70 -49q-16 -45 -55 -45h-35zM332 49q-3 -23 -18 -36t-38 -13
h-129q-49 0 -43 49l152 1233q6 49 55 49h129q49 0 43 -49z" />
    <glyph glyph-name="itilde" unicode="&#x129;" horiz-adv-x="473" 
d="M80 1071q-53 0 -41 51q24 79 79 126.5t134 47.5q88 0 141 -69q37 -51 82 -51q50 0 74 49q19 45 57 45h35q51 0 39 -51q-25 -80 -80.5 -127.5t-140.5 -47.5q-89 0 -144 72q-20 25 -36 37t-39 12q-45 0 -70 -49q-16 -45 -55 -45h-35zM332 49q-3 -23 -18 -36t-38 -13h-122
q-49 0 -43 49l104 844q1 23 15.5 36t37.5 13h123q48 0 45 -49z" />
    <glyph glyph-name="Imacron" unicode="&#x12a;" horiz-adv-x="462" 
d="M207 1544q6 49 55 49h289q49 0 43 -49l-6 -45q-3 -23 -18 -36t-38 -13h-288q-49 0 -43 49zM332 49q-3 -23 -18 -36t-38 -13h-129q-49 0 -43 49l152 1233q6 49 55 49h129q49 0 43 -49z" />
    <glyph glyph-name="imacron" unicode="&#x12b;" horiz-adv-x="473" 
d="M166 1167q3 23 17.5 36.5t37.5 13.5h289q23 0 34.5 -13.5t8.5 -36.5l-6 -45q-6 -49 -55 -49h-289q-49 0 -43 49zM332 49q-3 -23 -18 -36t-38 -13h-122q-49 0 -43 49l104 844q1 23 15.5 36t37.5 13h123q48 0 45 -49z" />
    <glyph glyph-name="Iogonek" unicode="&#x12e;" horiz-adv-x="462" 
d="M440 1331q49 0 43 -49l-151 -1233q-3 -23 -18 -36t-38 -13h-10q6 -15 -20 -41q-44 -40 -49 -82q-3 -22 12 -35.5t53 -9.5q29 5 42.5 -4.5t10.5 -34.5l-4 -31q-7 -47 -51 -53q-95 -12 -154.5 24.5t-50.5 110.5q10 87 107 154q1 0 2 1t2 1h-19q-49 0 -43 49l152 1233
q6 49 55 49h129z" />
    <glyph glyph-name="iogonek" unicode="&#x12f;" horiz-adv-x="473" 
d="M371 1262q41 0 70.5 -28t23.5 -73q-6 -48 -42.5 -77t-78.5 -29q-40 0 -68 29t-22 77q6 45 41.5 73t75.5 28zM391 942q48 0 45 -49l-104 -844q-3 -23 -18 -36t-38 -13h-6q7 -16 -20 -43q-44 -40 -49 -82q-3 -22 12 -35.5t53 -9.5q29 5 42.5 -4.5t10.5 -34.5l-4 -31
q-7 -47 -51 -53q-95 -12 -154.5 24.5t-50.5 110.5q10 87 107 154l8 4h-20q-49 0 -43 49l104 844q1 23 15.5 36t37.5 13h123z" />
    <glyph glyph-name="Idotaccent" unicode="&#x130;" horiz-adv-x="462" 
d="M383 1430q-40 0 -68 29t-22 77q6 45 41.5 72.5t75.5 27.5q41 0 70.5 -27.5t23.5 -72.5q-6 -48 -42.5 -77t-78.5 -29zM332 49q-3 -23 -18 -36t-38 -13h-129q-49 0 -43 49l152 1233q6 49 55 49h129q49 0 43 -49z" />
    <glyph glyph-name="dotlessi" unicode="&#x131;" horiz-adv-x="473" 
d="M332 49q-3 -23 -18 -36t-38 -13h-122q-49 0 -43 49l104 844q1 23 15.5 36t37.5 13h123q48 0 45 -49z" />
    <glyph glyph-name="uni0136" unicode="&#x136;" horiz-adv-x="1140" 
d="M1040 59q17 -25 6 -42t-42 -17h-152q-34 0 -57 29l-400 544l-63 -524q-3 -23 -18 -36t-38 -13h-129q-49 0 -43 49l152 1233q6 49 55 49h129q49 0 43 -49l-63 -522l512 543q28 28 63 28h148q31 0 37 -17t-17 -42l-563 -606zM434 -147q19 34 64 34h80q28 0 35.5 -17
t-9.5 -42l-82 -123q-20 -35 -61 -35h-74q-28 0 -37 16.5t6 41.5z" />
    <glyph glyph-name="uni0137" unicode="&#x137;" horiz-adv-x="1015" 
d="M913 59q19 -23 7.5 -41t-43.5 -18h-142q-39 0 -57 27l-309 397l-45 -375q-3 -23 -18 -36t-38 -13h-121q-49 0 -43 49l152 1233q6 49 55 49h121q49 0 43 -49l-88 -717l356 350q27 27 64 27h141q32 0 39 -18t-18 -41l-394 -387zM373 -147q19 34 63 34h80q28 0 36 -17
t-9 -42l-82 -123q-20 -35 -62 -35h-73q-28 0 -37 16.5t6 41.5z" />
    <glyph glyph-name="Lacute" unicode="&#x139;" horiz-adv-x="1079" 
d="M403 1638q19 37 62 37h86q28 0 36 -15.5t-7 -41.5l-80 -129q-22 -35 -62 -35h-82q-28 0 -35.5 16t7.5 41zM352 209h606q46 0 43 -49l-14 -111q-6 -49 -55 -49h-785q-49 0 -43 49l152 1233q6 49 55 49h129q49 0 43 -49z" />
    <glyph glyph-name="lacute" unicode="&#x13a;" horiz-adv-x="456" 
d="M403 1638q19 37 62 37h86q28 0 36 -15.5t-7 -41.5l-80 -129q-22 -35 -62 -35h-82q-28 0 -35.5 16t7.5 41zM324 49q-3 -23 -18 -36t-38 -13h-121q-49 0 -43 49l152 1233q6 49 55 49h123q49 0 43 -49z" />
    <glyph glyph-name="uni013B" unicode="&#x13b;" horiz-adv-x="1079" 
d="M352 209h606q46 0 43 -49l-14 -111q-6 -49 -55 -49h-785q-49 0 -43 49l152 1233q6 49 55 49h129q49 0 43 -49zM418 -147q19 34 63 34h80q28 0 36 -17t-9 -42l-82 -123q-20 -35 -62 -35h-73q-28 0 -37 16.5t6 41.5z" />
    <glyph glyph-name="uni013C" unicode="&#x13c;" horiz-adv-x="456" 
d="M324 49q-3 -23 -18 -36t-38 -13h-121q-49 0 -43 49l152 1233q6 49 55 49h123q49 0 43 -49zM86 -147q19 34 64 34h79q28 0 36 -17t-9 -42l-82 -123q-20 -35 -61 -35h-74q-28 0 -37 16.5t6 41.5z" />
    <glyph glyph-name="Lcaron" unicode="&#x13d;" horiz-adv-x="1079" 
d="M471 1642q21 33 64 33h75q29 0 35.5 -17t-12.5 -42l-96 -129q-26 -33 -64 -33h-174q-41 0 -55 33l-68 129q-12 25 -1 42t40 17h78q39 0 55 -33l49 -100zM352 209h606q46 0 43 -49l-14 -111q-6 -49 -55 -49h-785q-49 0 -43 49l152 1233q6 49 55 49h129q49 0 43 -49z" />
    <glyph glyph-name="lcaron" unicode="&#x13e;" horiz-adv-x="456" 
d="M471 1642q21 33 64 33h75q29 0 35.5 -17t-12.5 -42l-96 -129q-26 -33 -64 -33h-174q-41 0 -55 33l-68 129q-12 25 -1 42t40 17h78q39 0 55 -33l49 -100zM324 49q-3 -23 -18 -36t-38 -13h-121q-49 0 -43 49l152 1233q6 49 55 49h123q49 0 43 -49z" />
    <glyph glyph-name="Lslash" unicode="&#x141;" horiz-adv-x="1077" 
d="M352 209h604q46 0 43 -49l-14 -111q-6 -49 -55 -49h-783q-49 0 -43 49l66 539l-41 -15q-25 -9 -39.5 2t-11.5 37l14 115q3 40 45 55l60 21l59 479q6 49 55 49h129q49 0 43 -49l-49 -399l184 63q25 9 40 -2t12 -37l-13 -114q-6 -42 -47 -56l-202 -69z" />
    <glyph glyph-name="lslash" unicode="&#x142;" horiz-adv-x="456" 
d="M483 840q26 9 40.5 -3t11.5 -38l-11 -78q-3 -41 -45 -57l-84 -27l-71 -588q-3 -23 -18 -36t-38 -13h-121q-49 0 -43 49l64 512l-35 -10q-26 -9 -40 2t-11 37l10 78q6 43 45 57l51 16l68 541q6 49 55 49h121q49 0 43 -49l-57 -465z" />
    <glyph glyph-name="Nacute" unicode="&#x143;" horiz-adv-x="1298" 
d="M831 1638q19 37 62 37h86q28 0 36 -15.5t-7 -41.5l-80 -129q-22 -35 -62 -35h-82q-28 0 -35.5 16t7.5 41zM1090 1282q6 49 55 49h129q49 0 43 -49l-152 -1233q-6 -49 -55 -49h-133q-38 0 -55 33l-482 903l-108 -887q-3 -23 -18 -36t-38 -13h-129q-49 0 -43 49l152 1233
q6 49 55 49h133q39 0 56 -33l481 -903z" />
    <glyph glyph-name="nacute" unicode="&#x144;" horiz-adv-x="1101" 
d="M678 1264q19 36 61 36h86q28 0 36 -15.5t-7 -41.5l-80 -129q-22 -35 -61 -35h-82q-28 0 -36 16.5t7 41.5zM711 956q55 0 104.5 -12t95 -40.5t76.5 -71t45 -108t4 -146.5l-65 -529q-3 -23 -18 -36t-38 -13h-122q-49 0 -43 49l61 496q7 61 -7 106.5t-43.5 70t-64 36.5
t-73.5 12q-84 0 -154 -54.5t-84 -170.5l-61 -496q-3 -23 -18 -36t-38 -13h-121q-49 0 -43 49l105 844q1 23 15.5 36t37.5 13h121q48 0 45 -49l-8 -51q111 114 291 114z" />
    <glyph glyph-name="uni0145" unicode="&#x145;" horiz-adv-x="1298" 
d="M1090 1282q6 49 55 49h129q49 0 43 -49l-152 -1233q-6 -49 -55 -49h-133q-38 0 -55 33l-482 903l-108 -887q-3 -23 -18 -36t-38 -13h-129q-49 0 -43 49l152 1233q6 49 55 49h133q39 0 56 -33l481 -903zM520 -147q19 34 64 34h80q28 0 35.5 -17t-9.5 -42l-82 -123
q-20 -35 -61 -35h-74q-28 0 -37 16.5t6 41.5z" />
    <glyph glyph-name="uni0146" unicode="&#x146;" horiz-adv-x="1101" 
d="M711 956q55 0 104.5 -12t95 -40.5t76.5 -71t45 -108t4 -146.5l-65 -529q-3 -23 -18 -36t-38 -13h-122q-49 0 -43 49l61 496q7 61 -7 106.5t-43.5 70t-64 36.5t-73.5 12q-84 0 -154 -54.5t-84 -170.5l-61 -496q-3 -23 -18 -36t-38 -13h-121q-49 0 -43 49l105 844
q1 23 15.5 36t37.5 13h121q48 0 45 -49l-8 -51q111 114 291 114zM408 -147q19 34 63 34h80q28 0 36 -17t-9 -42l-82 -123q-20 -35 -62 -35h-74q-28 0 -36.5 16.5t6.5 41.5z" />
    <glyph glyph-name="Ncaron" unicode="&#x147;" horiz-adv-x="1298" 
d="M899 1642q21 33 64 33h75q29 0 35.5 -17t-12.5 -42l-96 -129q-26 -33 -64 -33h-174q-41 0 -55 33l-68 129q-12 25 -1 42t40 17h78q39 0 55 -33l49 -100zM1090 1282q6 49 55 49h129q49 0 43 -49l-152 -1233q-6 -49 -55 -49h-133q-38 0 -55 33l-482 903l-108 -887
q-3 -23 -18 -36t-38 -13h-129q-49 0 -43 49l152 1233q6 49 55 49h133q39 0 56 -33l481 -903z" />
    <glyph glyph-name="ncaron" unicode="&#x148;" horiz-adv-x="1101" 
d="M745 1268q20 32 64 32h76q29 0 35 -17t-13 -42l-96 -129q-26 -33 -63 -33h-175q-41 0 -55 33l-67 129q-12 25 -1.5 42t39.5 17h78q41 0 56 -32l49 -101zM711 956q55 0 104.5 -12t95 -40.5t76.5 -71t45 -108t4 -146.5l-65 -529q-3 -23 -18 -36t-38 -13h-122q-49 0 -43 49
l61 496q7 61 -7 106.5t-43.5 70t-64 36.5t-73.5 12q-84 0 -154 -54.5t-84 -170.5l-61 -496q-3 -23 -18 -36t-38 -13h-121q-49 0 -43 49l105 844q1 23 15.5 36t37.5 13h121q48 0 45 -49l-8 -51q111 114 291 114z" />
    <glyph glyph-name="Omacron" unicode="&#x14c;" horiz-adv-x="1519" 
d="M745 1544q3 23 18 36t38 13h289q49 0 43 -49l-7 -45q-6 -49 -55 -49h-289q-49 0 -43 49zM745 -16q-146 0 -264.5 51.5t-195 141.5t-110 216.5t-15.5 272.5t83 272.5t163.5 216.5t229.5 141.5t277 51.5q195 0 336.5 -88t205.5 -243t40 -351q-18 -147 -82.5 -273
t-162.5 -216t-228.5 -141.5t-276.5 -51.5zM774 211q196 0 331.5 128t160.5 327t-80 326.5t-301 127.5t-334.5 -128t-163.5 -326t82.5 -326.5t304.5 -128.5z" />
    <glyph glyph-name="omacron" unicode="&#x14d;" horiz-adv-x="1136" 
d="M500 1167q3 23 17.5 36.5t37.5 13.5h289q23 0 34.5 -13.5t8.5 -36.5l-6 -45q-3 -23 -18 -36t-38 -13h-288q-49 0 -43 49zM547 -18q-213 0 -332.5 138.5t-93.5 350.5q26 214 180 352t367 138t330.5 -137.5t91.5 -352.5q-26 -212 -178.5 -350.5t-364.5 -138.5zM571 190
q119 0 202 80t97 201q15 122 -48 200.5t-181 78.5q-119 0 -202.5 -79t-98.5 -200q-14 -122 49.5 -201.5t181.5 -79.5z" />
    <glyph glyph-name="Ohungarumlaut" unicode="&#x150;" horiz-adv-x="1519" 
d="M764 1638q19 37 63 37h82q29 0 35.5 -17t-12.5 -42l-96 -129q-26 -33 -64 -33h-55q-28 0 -36 16t7 41zM1110 1638q19 37 64 37h81q29 0 35.5 -17t-12.5 -42l-96 -129q-26 -33 -64 -33h-55q-28 0 -36 16t7 41zM745 -16q-146 0 -264.5 51.5t-195 141.5t-110 216.5
t-15.5 272.5t83 272.5t163.5 216.5t229.5 141.5t277 51.5q195 0 336.5 -88t205.5 -243t40 -351q-18 -147 -82.5 -273t-162.5 -216t-228.5 -141.5t-276.5 -51.5zM774 211q196 0 331.5 128t160.5 327t-80 326.5t-301 127.5t-334.5 -128t-163.5 -326t82.5 -326.5t304.5 -128.5z
" />
    <glyph glyph-name="ohungarumlaut" unicode="&#x151;" horiz-adv-x="1136" 
d="M520 1264q19 36 64 36h82q29 0 35 -17t-13 -42l-96 -129q-26 -33 -64 -33h-55q-28 0 -36 16.5t7 41.5zM866 1264q19 36 64 36h82q29 0 35 -17t-13 -42l-96 -129q-26 -33 -64 -33h-55q-28 0 -35.5 16.5t7.5 41.5zM547 -18q-213 0 -332.5 138.5t-93.5 350.5q26 214 180 352
t367 138t330.5 -137.5t91.5 -352.5q-26 -212 -178.5 -350.5t-364.5 -138.5zM571 190q119 0 202 80t97 201q15 122 -48 200.5t-181 78.5q-119 0 -202.5 -79t-98.5 -200q-14 -122 49.5 -201.5t181.5 -79.5z" />
    <glyph glyph-name="OE" unicode="&#x152;" horiz-adv-x="2134" 
d="M2148 1171q-6 -49 -55 -49h-539l-43 -356h496q49 0 43 -49l-14 -111q-1 -23 -16.5 -36t-39.5 -13h-495l-41 -348h538q46 0 43 -49l-14 -111q-6 -49 -55 -49h-719q-49 0 -43 49l10 86q-197 -151 -452 -151q-195 0 -338.5 87.5t-210.5 243.5t-43 351q24 196 128 351
t269.5 243t362.5 88q255 0 415 -150l11 84q6 49 55 49h719q49 0 43 -49zM780 211q195 0 328 127.5t158 327.5q25 199 -77.5 326.5t-297.5 127.5q-206 0 -342.5 -127t-161.5 -327t81 -327.5t312 -127.5z" />
    <glyph glyph-name="oe" unicode="&#x153;" horiz-adv-x="1820" 
d="M1380 958q205 0 313 -137t81 -350v-12q-3 -23 -18 -36t-38 -13h-659q3 -110 67 -175t170 -65q131 0 226 80q34 34 69 10l66 -47q38 -28 4 -68q-73 -76 -174 -119.5t-213 -43.5q-118 0 -207.5 44.5t-144.5 125.5q-74 -80 -173 -124t-214 -44q-209 0 -324.5 137.5
t-89.5 349.5t174.5 348.5t357.5 136.5q114 0 202.5 -42.5t143.5 -120.5q71 78 168.5 121.5t212.5 43.5zM1360 784q-102 0 -176 -62.5t-107 -170.5h502q-6 104 -62.5 168.5t-156.5 64.5zM561 201q120 0 197.5 73.5t91.5 196.5q15 123 -44 195.5t-179 72.5t-197 -72.5
t-92 -195.5q-14 -124 44.5 -197t178.5 -73z" />
    <glyph glyph-name="Racute" unicode="&#x154;" horiz-adv-x="1249" 
d="M737 1638q19 37 62 37h86q28 0 35.5 -15.5t-7.5 -41.5l-79 -129q-22 -35 -62 -35h-82q-28 0 -35.5 16t7.5 41zM1120 59q12 -25 0 -42t-41 -17h-153q-39 0 -56 33l-233 444h-252l-53 -428q-3 -23 -18 -36t-38 -13h-129q-49 0 -43 49l152 1233q6 49 55 49h580
q76 0 143.5 -29t117 -82t73 -135.5t10.5 -181.5q-19 -160 -115.5 -268.5t-228.5 -142.5zM463 1110l-51 -412h366q87 0 153.5 57.5t76.5 147.5q12 91 -39.5 149t-139.5 58h-366z" />
    <glyph glyph-name="racute" unicode="&#x155;" horiz-adv-x="727" 
d="M535 1264q19 36 61 36h86q28 0 36 -15.5t-7 -41.5l-80 -129q-22 -35 -62 -35h-82q-28 0 -35.5 16.5t7.5 41.5zM412 772q113 156 303 180q25 3 36.5 -9.5t8.5 -37.5l-12 -108q-6 -46 -54 -49q-40 -4 -76.5 -13t-79 -30.5t-74.5 -52t-57.5 -81t-33.5 -114.5l-49 -408
q-3 -23 -18 -36t-38 -13h-121q-49 0 -43 49l105 844q1 23 15.5 36t37.5 13h121q48 0 45 -49z" />
    <glyph glyph-name="uni0156" unicode="&#x156;" horiz-adv-x="1249" 
d="M1120 59q12 -25 0 -42t-41 -17h-153q-39 0 -56 33l-233 444h-252l-53 -428q-3 -23 -18 -36t-38 -13h-129q-49 0 -43 49l152 1233q6 49 55 49h580q76 0 143.5 -29t117 -82t73 -135.5t10.5 -181.5q-19 -160 -115.5 -268.5t-228.5 -142.5zM463 1110l-51 -412h366
q87 0 153.5 57.5t76.5 147.5q12 91 -39.5 149t-139.5 58h-366zM446 -147q19 34 64 34h80q28 0 35.5 -17t-9.5 -42l-81 -123q-20 -35 -62 -35h-74q-28 0 -36.5 16.5t6.5 41.5z" />
    <glyph glyph-name="uni0157" unicode="&#x157;" horiz-adv-x="727" 
d="M412 772q113 156 303 180q25 3 36.5 -9.5t8.5 -37.5l-12 -108q-6 -46 -54 -49q-40 -4 -76.5 -13t-79 -30.5t-74.5 -52t-57.5 -81t-33.5 -114.5l-49 -408q-3 -23 -18 -36t-38 -13h-121q-49 0 -43 49l105 844q1 23 15.5 36t37.5 13h121q48 0 45 -49zM86 -147q19 34 64 34
h79q28 0 36 -17t-9 -42l-82 -123q-20 -35 -61 -35h-74q-28 0 -37 16.5t6 41.5z" />
    <glyph glyph-name="Rcaron" unicode="&#x158;" horiz-adv-x="1249" 
d="M805 1642q21 33 63 33h76q29 0 35.5 -17t-12.5 -42l-97 -129q-26 -33 -63 -33h-174q-41 0 -55 33l-68 129q-12 25 -1 42t40 17h78q39 0 55 -33l49 -100zM1120 59q12 -25 0 -42t-41 -17h-153q-39 0 -56 33l-233 444h-252l-53 -428q-3 -23 -18 -36t-38 -13h-129
q-49 0 -43 49l152 1233q6 49 55 49h580q76 0 143.5 -29t117 -82t73 -135.5t10.5 -181.5q-19 -160 -115.5 -268.5t-228.5 -142.5zM463 1110l-51 -412h366q87 0 153.5 57.5t76.5 147.5q12 91 -39.5 149t-139.5 58h-366z" />
    <glyph glyph-name="rcaron" unicode="&#x159;" horiz-adv-x="727" 
d="M602 1268q20 32 64 32h75q29 0 35.5 -17t-12.5 -42l-96 -129q-26 -33 -64 -33h-174q-41 0 -55 33l-68 129q-12 25 -1 42t40 17h78q40 0 55 -32l49 -101zM412 772q113 156 303 180q25 3 36.5 -9.5t8.5 -37.5l-12 -108q-6 -46 -54 -49q-40 -4 -76.5 -13t-79 -30.5
t-74.5 -52t-57.5 -81t-33.5 -114.5l-49 -408q-3 -23 -18 -36t-38 -13h-121q-49 0 -43 49l105 844q1 23 15.5 36t37.5 13h121q48 0 45 -49z" />
    <glyph glyph-name="Sacute" unicode="&#x15a;" horiz-adv-x="1241" 
d="M815 1638q19 37 62 37h86q28 0 35.5 -15.5t-7.5 -41.5l-80 -129q-22 -35 -61 -35h-82q-28 0 -36 16t7 41zM106 254q-15 40 27 68l117 73q22 13 36.5 10t28.5 -24q45 -71 140 -123.5t215 -52.5q131 0 194 45t74 129q4 31 -11 58.5t-38.5 45t-62 35t-68 27t-71 21.5
t-58.5 18q-9 3 -49 14.5t-65.5 20t-69 26.5t-72.5 36t-62.5 47.5t-52 62.5t-28 78.5t-3.5 97.5q12 99 62 175t127 122t170.5 69t199.5 23q164 0 291 -70t172 -170q15 -40 -28 -65l-111 -66q-42 -23 -66 14q-40 52 -124 89.5t-187 37.5q-110 0 -173 -39t-71 -110
q-4 -30 10 -56.5t34.5 -43t58.5 -33.5t64 -25t71.5 -21t60.5 -18q8 -3 41 -13.5t55.5 -18.5t61 -23t65.5 -31t60 -38.5t55 -49.5t40.5 -59t25 -72.5t0.5 -85.5q-24 -200 -177 -307t-397 -107q-197 0 -331 79.5t-181 199.5z" />
    <glyph glyph-name="sacute" unicode="&#x15b;" horiz-adv-x="923" 
d="M604 1264q19 36 62 36h86q28 0 35.5 -15.5t-7.5 -41.5l-80 -129q-22 -35 -61 -35h-82q-28 0 -36 16.5t7 41.5zM82 156q-17 39 27 65l79 49q42 23 66 -14q32 -43 93 -74.5t132 -31.5q163 0 178 112q2 22 -7 40t-23 30t-38.5 23t-42.5 17t-46.5 14.5t-40.5 12.5
q-4 1 -30.5 9t-40.5 13.5t-43 16.5t-47 22.5t-43 28t-40 36t-28.5 43t-18 52.5t-0.5 62q11 93 70 158t144.5 94t190.5 29q124 0 211 -43.5t125 -110.5q24 -41 -24 -68l-70 -41q-36 -21 -65 11q-33 35 -88.5 58.5t-116.5 23.5q-72 0 -114.5 -28t-47.5 -73q-3 -21 5.5 -39
t21.5 -29t37 -22t41 -16.5t46 -14t41 -12.5q3 -1 30 -9.5t41 -14t44 -17.5t48 -23.5t44 -28.5t41 -36.5t29.5 -43.5t19 -53.5t0.5 -62.5q-17 -144 -126.5 -220.5t-290.5 -76.5q-142 0 -238 51.5t-135 131.5z" />
    <glyph glyph-name="Scedilla" unicode="&#x15e;" horiz-adv-x="1241" 
d="M1249 1116q15 -40 -28 -65l-111 -66q-42 -23 -66 14q-40 52 -124 89.5t-187 37.5q-110 0 -173 -39t-71 -110q-4 -30 10 -56.5t34.5 -43t58.5 -33.5t64 -25t71.5 -21t60.5 -18q8 -3 41 -13.5t55.5 -18.5t61 -23t65.5 -31t60 -38.5t55 -49.5t40.5 -59t25 -72.5t0.5 -85.5
q-23 -190 -161.5 -296.5t-362.5 -115.5q8 -16 -11 -45l-18 -26q66 -11 98.5 -45.5t26.5 -89.5q-10 -76 -66 -114t-145 -38q-41 0 -80 8q-38 9 -35 56l2 16q4 25 18.5 33.5t41.5 3.5q30 -6 65 -6q78 0 84 41q3 41 -82 41q-16 0 -26 -2q-50 -3 -47 36l2 15q3 31 24 61l27 37
q11 15 16 18q-175 11 -294 88.5t-163 188.5q-15 40 27 68l117 73q22 13 36.5 10t28.5 -24q45 -71 140 -123.5t215 -52.5q131 0 194 45t74 129q4 31 -11 58.5t-38.5 45t-62 35t-68 27t-71 21.5t-58.5 18q-9 3 -49 14.5t-65.5 20t-69 26.5t-72.5 36t-62.5 47.5t-52 62.5
t-28 78.5t-3.5 97.5q12 99 62 175t127 122t170.5 69t199.5 23q164 0 291 -70t172 -170z" />
    <glyph glyph-name="scedilla" unicode="&#x15f;" horiz-adv-x="923" 
d="M909 809q24 -41 -24 -68l-70 -41q-36 -21 -65 11q-33 35 -88.5 58.5t-116.5 23.5q-72 0 -114.5 -28t-47.5 -73q-3 -21 5.5 -39t21.5 -29t37 -22t41 -16.5t46 -14t41 -12.5q3 -1 30 -9.5t41 -14t44 -17.5t48 -23.5t44 -28.5t41 -36.5t29.5 -43.5t19 -53.5t0.5 -62.5
q-15 -134 -111.5 -210t-256.5 -85q0 -20 -12 -34l-19 -27q66 -11 98.5 -45.5t26.5 -89.5q-10 -76 -66 -114t-145 -38q-41 0 -80 8q-38 9 -35 56l2 16q4 25 18.5 33.5t41.5 3.5q30 -6 65 -6q78 0 84 41q3 41 -82 41q-16 0 -26 -2q-50 -3 -47 37l2 14q3 31 24 61l27 37
q1 2 4 5t4 5q-115 10 -193.5 59t-113.5 120q-17 39 27 65l79 49q42 23 66 -14q32 -43 93 -74.5t132 -31.5q163 0 178 112q2 22 -7 40t-23 30t-38.5 23t-42.5 17t-46.5 14.5t-40.5 12.5q-4 1 -30.5 9t-40.5 13.5t-43 16.5t-47 22.5t-43 28t-40 36t-28.5 43t-18 52.5t-0.5 62
q11 93 70 158t144.5 94t190.5 29q124 0 211 -43.5t125 -110.5z" />
    <glyph glyph-name="Scaron" unicode="&#x160;" horiz-adv-x="1241" 
d="M883 1642q21 33 63 33h76q29 0 35 -17t-13 -42l-96 -129q-26 -33 -63 -33h-174q-42 0 -56 33l-67 129q-12 25 -1 42t40 17h78q39 0 55 -33l49 -100zM106 254q-15 40 27 68l117 73q22 13 36.5 10t28.5 -24q45 -71 140 -123.5t215 -52.5q131 0 194 45t74 129q4 31 -11 58.5
t-38.5 45t-62 35t-68 27t-71 21.5t-58.5 18q-9 3 -49 14.5t-65.5 20t-69 26.5t-72.5 36t-62.5 47.5t-52 62.5t-28 78.5t-3.5 97.5q12 99 62 175t127 122t170.5 69t199.5 23q164 0 291 -70t172 -170q15 -40 -28 -65l-111 -66q-42 -23 -66 14q-40 52 -124 89.5t-187 37.5
q-110 0 -173 -39t-71 -110q-4 -30 10 -56.5t34.5 -43t58.5 -33.5t64 -25t71.5 -21t60.5 -18q8 -3 41 -13.5t55.5 -18.5t61 -23t65.5 -31t60 -38.5t55 -49.5t40.5 -59t25 -72.5t0.5 -85.5q-24 -200 -177 -307t-397 -107q-197 0 -331 79.5t-181 199.5z" />
    <glyph glyph-name="scaron" unicode="&#x161;" horiz-adv-x="923" 
d="M672 1268q20 32 63 32h76q29 0 35.5 -17t-12.5 -42l-97 -129q-26 -33 -63 -33h-174q-42 0 -56 33l-67 129q-12 25 -1 42t40 17h78q40 0 55 -32l49 -101zM82 156q-17 39 27 65l79 49q42 23 66 -14q32 -43 93 -74.5t132 -31.5q163 0 178 112q2 22 -7 40t-23 30t-38.5 23
t-42.5 17t-46.5 14.5t-40.5 12.5q-4 1 -30.5 9t-40.5 13.5t-43 16.5t-47 22.5t-43 28t-40 36t-28.5 43t-18 52.5t-0.5 62q11 93 70 158t144.5 94t190.5 29q124 0 211 -43.5t125 -110.5q24 -41 -24 -68l-70 -41q-36 -21 -65 11q-33 35 -88.5 58.5t-116.5 23.5
q-72 0 -114.5 -28t-47.5 -73q-3 -21 5.5 -39t21.5 -29t37 -22t41 -16.5t46 -14t41 -12.5q3 -1 30 -9.5t41 -14t44 -17.5t48 -23.5t44 -28.5t41 -36.5t29.5 -43.5t19 -53.5t0.5 -62.5q-17 -144 -126.5 -220.5t-290.5 -76.5q-142 0 -238 51.5t-135 131.5z" />
    <glyph glyph-name="uni0162" unicode="&#x162;" horiz-adv-x="1204" 
d="M1221 1331q49 0 43 -49l-15 -111q-6 -49 -55 -49h-360l-132 -1073q-6 -49 -55 -49h-31q17 -17 -6 -49l-18 -27q66 -11 98.5 -45.5t26.5 -89.5q-10 -76 -66 -113.5t-145 -37.5q-41 0 -80 8q-38 8 -35 55l2 16q4 25 18.5 33.5t41.5 3.5q30 -6 65 -6q78 0 84 41q3 41 -82 41
q-16 0 -26 -2q-51 -3 -48 37l3 14q3 32 24 62l27 36q13 16 22 23h-6q-49 0 -43 49l131 1073h-360q-49 0 -43 49l14 111q6 49 55 49h951z" />
    <glyph glyph-name="uni0163" unicode="&#x163;" horiz-adv-x="681" 
d="M657 942q48 0 45 -49l-10 -70q-1 -23 -16 -36t-39 -13h-160l-59 -483q-4 -38 3.5 -63t26 -36.5t37 -15.5t45.5 -4h23q49 0 43 -49l-8 -74q-3 -23 -18 -36t-38 -13h-63q9 -16 -10 -45l-19 -27q66 -11 98.5 -45.5t26.5 -89.5q-10 -76 -66 -113.5t-145 -37.5q-41 0 -80 8
q-37 8 -34 55l2 16q4 26 18 34t41 3q30 -6 66 -6q78 0 84 41q3 41 -82 41q-17 0 -27 -2q-50 -3 -47 37l2 14q3 30 25 62l26 37q5 9 23 22q-203 24 -178 252l63 518h-76q-46 0 -43 49l10 70q1 23 16 36t38 13h75l31 240q6 49 55 49h123q49 0 43 -49l-30 -240h159z" />
    <glyph glyph-name="Tcaron" unicode="&#x164;" horiz-adv-x="1204" 
d="M844 1642q21 33 63 33h76q29 0 35.5 -17t-12.5 -42l-97 -129q-26 -33 -63 -33h-174q-42 0 -56 33l-67 129q-12 25 -1 42t40 17h78q39 0 55 -33l49 -100zM1221 1331q49 0 43 -49l-15 -111q-6 -49 -55 -49h-360l-132 -1073q-6 -49 -55 -49h-131q-49 0 -43 49l131 1073h-360
q-49 0 -43 49l14 111q6 49 55 49h951z" />
    <glyph glyph-name="tcaron" unicode="&#x165;" horiz-adv-x="681" 
d="M512 1520q20 32 63 32h76q29 0 35.5 -17t-12.5 -42l-96 -129q-26 -33 -64 -33h-174q-41 0 -55 33l-68 129q-12 25 -1 42t40 17h78q40 0 55 -32l49 -101zM692 823q-1 -23 -16 -36t-39 -13h-160l-59 -483q-4 -38 3.5 -63t26 -36.5t37 -15.5t45.5 -4h23q49 0 43 -49l-8 -74
q-3 -23 -18 -36t-38 -13h-110q-129 0 -186 65.5t-43 190.5l63 518h-76q-46 0 -43 49l10 70q1 23 16 36t38 13h75l31 240q6 49 55 49h123q49 0 43 -49l-30 -240h159q48 0 45 -49z" />
    <glyph glyph-name="Tbar" unicode="&#x166;" horiz-adv-x="1218" 
d="M1249 1171q-6 -49 -55 -49h-360l-52 -417h197q23 0 34.5 -13.5t8.5 -36.5l-12 -110q-3 -23 -18 -36t-38 -13h-196l-56 -447q-6 -49 -55 -49h-131q-49 0 -43 49l55 447h-198q-49 0 -43 49l12 110q3 23 17.5 36.5t37.5 13.5h199l51 417h-360q-49 0 -43 49l14 111
q6 49 55 49h951q49 0 43 -49z" />
    <glyph glyph-name="Utilde" unicode="&#x168;" horiz-adv-x="1257" 
d="M526 1446q-53 0 -41 51q24 79 79 126.5t134 47.5q89 0 142 -69q37 -52 82 -52q49 0 73 49q19 46 58 46h34q25 0 35 -13.5t4 -38.5q-25 -80 -80.5 -127t-140.5 -47q-88 0 -143 72q-20 25 -36.5 37t-39.5 12q-45 0 -70 -49q-16 -45 -55 -45h-35zM1049 1282q6 49 55 49h131
q49 0 43 -49l-100 -815q-12 -100 -57.5 -187t-117.5 -153.5t-174.5 -104.5t-222.5 -38t-213 38t-148 104.5t-78 153.5t-11 187l100 815q6 49 55 49h129q49 0 43 -49l-98 -790q-17 -142 52.5 -214.5t195.5 -72.5q127 0 213.5 72.5t103.5 214.5z" />
    <glyph glyph-name="utilde" unicode="&#x169;" horiz-adv-x="1101" 
d="M406 1071q-53 0 -41 51q24 79 79 126.5t134 47.5q88 0 141 -69q37 -51 82 -51q49 0 73 49q19 45 58 45h35q51 0 39 -51q-25 -80 -81 -127.5t-141 -47.5q-88 0 -143 72q-20 25 -36.5 37t-39.5 12q-44 0 -69 -49q-16 -45 -56 -45h-34zM854 893q1 23 15.5 36t37.5 13h123
q48 0 45 -49l-104 -844q-3 -23 -18 -36t-38 -13h-122q-49 0 -43 49l6 49q-111 -114 -291 -114q-55 0 -104.5 12t-94.5 41t-75.5 71.5t-44 108.5t-3.5 148l66 528q1 23 15.5 36t37.5 13h121q48 0 45 -49l-61 -496q-7 -61 7 -106.5t43.5 -70t63.5 -36.5t72 -12
q85 0 155.5 54.5t84.5 170.5z" />
    <glyph glyph-name="Umacron" unicode="&#x16a;" horiz-adv-x="1257" 
d="M614 1544q3 23 18 36t38 13h288q49 0 43 -49l-6 -45q-6 -49 -55 -49h-289q-49 0 -43 49zM1049 1282q6 49 55 49h131q49 0 43 -49l-100 -815q-12 -100 -57.5 -187t-117.5 -153.5t-174.5 -104.5t-222.5 -38t-213 38t-148 104.5t-78 153.5t-11 187l100 815q6 49 55 49h129
q49 0 43 -49l-98 -790q-17 -142 52.5 -214.5t195.5 -72.5q127 0 213.5 72.5t103.5 214.5z" />
    <glyph glyph-name="umacron" unicode="&#x16b;" horiz-adv-x="1101" 
d="M492 1167q3 23 17.5 36.5t37.5 13.5h289q23 0 34.5 -13.5t8.5 -36.5l-7 -45q-6 -49 -55 -49h-289q-49 0 -43 49zM854 893q1 23 15.5 36t37.5 13h123q48 0 45 -49l-104 -844q-3 -23 -18 -36t-38 -13h-122q-49 0 -43 49l6 49q-111 -114 -291 -114q-55 0 -104.5 12t-94.5 41
t-75.5 71.5t-44 108.5t-3.5 148l66 528q1 23 15.5 36t37.5 13h121q48 0 45 -49l-61 -496q-7 -61 7 -106.5t43.5 -70t63.5 -36.5t72 -12q85 0 155.5 54.5t84.5 170.5z" />
    <glyph glyph-name="Uring" unicode="&#x16e;" horiz-adv-x="1257" 
d="M791 1423q-81 0 -127 50t-37 126q9 79 68 129t141 50q81 0 125.5 -49.5t35.5 -129.5q-9 -76 -67 -126t-139 -50zM803 1524q40 0 61 23t25 52t-11 53.5t-55 24.5t-61 -24.5t-25 -53.5t11 -52t55 -23zM1049 1282q6 49 55 49h131q49 0 43 -49l-100 -815q-12 -100 -57.5 -187
t-117.5 -153.5t-174.5 -104.5t-222.5 -38t-213 38t-148 104.5t-78 153.5t-11 187l100 815q6 49 55 49h129q49 0 43 -49l-98 -790q-17 -142 52.5 -214.5t195.5 -72.5q127 0 213.5 72.5t103.5 214.5z" />
    <glyph glyph-name="uring" unicode="&#x16f;" horiz-adv-x="1101" 
d="M670 1049q-81 0 -127 50t-37 126q9 79 68 128.5t141 49.5t126.5 -49t35.5 -129q-9 -76 -67.5 -126t-139.5 -50zM682 1149q40 0 61 23.5t25 52.5t-11 53.5t-55 24.5t-61 -24.5t-25 -53.5t11 -52.5t55 -23.5zM854 893q1 23 15.5 36t37.5 13h123q48 0 45 -49l-104 -844
q-3 -23 -18 -36t-38 -13h-122q-49 0 -43 49l6 49q-111 -114 -291 -114q-55 0 -104.5 12t-94.5 41t-75.5 71.5t-44 108.5t-3.5 148l66 528q1 23 15.5 36t37.5 13h121q48 0 45 -49l-61 -496q-7 -61 7 -106.5t43.5 -70t63.5 -36.5t72 -12q85 0 155.5 54.5t84.5 170.5z" />
    <glyph glyph-name="Uhungarumlaut" unicode="&#x170;" horiz-adv-x="1257" 
d="M633 1638q19 37 63 37h82q29 0 35.5 -17t-12.5 -42l-96 -129q-26 -33 -64 -33h-55q-28 0 -36 16t7 41zM979 1638q19 37 63 37h82q29 0 35.5 -17t-12.5 -42l-96 -129q-26 -33 -64 -33h-55q-28 0 -36 16t7 41zM1049 1282q6 49 55 49h131q49 0 43 -49l-100 -815
q-12 -100 -57.5 -187t-117.5 -153.5t-174.5 -104.5t-222.5 -38t-213 38t-148 104.5t-78 153.5t-11 187l100 815q6 49 55 49h129q49 0 43 -49l-98 -790q-17 -142 52.5 -214.5t195.5 -72.5q127 0 213.5 72.5t103.5 214.5z" />
    <glyph glyph-name="uhungarumlaut" unicode="&#x171;" horiz-adv-x="1101" 
d="M512 1264q19 36 63 36h82q29 0 35.5 -17t-12.5 -42l-96 -129q-26 -33 -64 -33h-55q-28 0 -36 16.5t7 41.5zM858 1264q19 36 64 36h82q29 0 35 -17t-13 -42l-96 -129q-26 -33 -64 -33h-55q-28 0 -36 16.5t7 41.5zM854 893q1 23 15.5 36t37.5 13h123q48 0 45 -49l-104 -844
q-3 -23 -18 -36t-38 -13h-122q-49 0 -43 49l6 49q-111 -114 -291 -114q-55 0 -104.5 12t-94.5 41t-75.5 71.5t-44 108.5t-3.5 148l66 528q1 23 15.5 36t37.5 13h121q48 0 45 -49l-61 -496q-7 -61 7 -106.5t43.5 -70t63.5 -36.5t72 -12q85 0 155.5 54.5t84.5 170.5z" />
    <glyph glyph-name="Uogonek" unicode="&#x172;" horiz-adv-x="1257" 
d="M1235 1331q49 0 43 -49l-100 -815q-24 -196 -165.5 -332t-361.5 -149q0 -13 -20 -33q-44 -40 -49 -82q-3 -22 12 -35.5t53 -9.5q29 5 42.5 -4.5t10.5 -34.5l-4 -31q-7 -47 -51 -53q-95 -12 -154.5 24.5t-50.5 110.5q10 83 101 150q-206 20 -307.5 154t-77.5 325l100 815
q6 49 55 49h129q49 0 43 -49l-98 -790q-17 -142 52.5 -214.5t195.5 -72.5q127 0 213.5 72.5t103.5 214.5l99 790q6 49 55 49h131z" />
    <glyph glyph-name="uogonek" unicode="&#x173;" horiz-adv-x="1101" 
d="M1030 942q48 0 45 -49l-104 -844q-3 -23 -18 -36t-38 -13h-4q0 -13 -20 -33q-44 -40 -49 -82q-3 -22 12 -35.5t53 -9.5q29 5 43 -4.5t11 -34.5l-5 -30q-7 -48 -51 -54q-95 -12 -154.5 24.5t-50.5 111.5q10 83 99 147h-6q-49 0 -43 49l6 49q-111 -114 -291 -114
q-55 0 -104.5 12t-94.5 41t-75.5 71.5t-44 108.5t-3.5 148l66 528q1 23 15.5 36t37.5 13h121q48 0 45 -49l-61 -496q-7 -61 7 -106.5t43.5 -70t63.5 -36.5t72 -12q85 0 155.5 54.5t84.5 170.5l61 496q1 23 15.5 36t37.5 13h123z" />
    <glyph glyph-name="Wcircumflex" unicode="&#x174;" horiz-adv-x="1943" 
d="M1372 1513q12 -25 2 -42t-39 -17h-75q-45 0 -56 33l-49 108l-74 -108q-23 -33 -63 -33h-78q-29 0 -36.5 17t11.5 42l99 129q23 33 63 33h174q39 0 56 -33zM1788 1290q18 41 63 41h140q26 0 34.5 -15t-2.5 -40l-563 -1235q-15 -41 -61 -41h-109q-44 0 -53 41l-170 819
l-373 -819q-15 -41 -61 -41h-109q-44 0 -53 41l-260 1235q-4 25 9.5 40t39.5 15h139q46 0 52 -41l182 -874l395 874q18 41 62 41h81q46 0 52 -41l180 -846z" />
    <glyph glyph-name="wcircumflex" unicode="&#x175;" horiz-adv-x="1533" 
d="M1114 1139q12 -25 2 -42.5t-39 -17.5h-76q-44 0 -55 33l-49 109l-74 -109q-23 -33 -63 -33h-78q-29 0 -36.5 17.5t11.5 42.5l99 129q22 32 63 32h174q39 0 56 -32zM1348 901q17 41 59 41h127q26 0 36 -15t-1 -40l-385 -846q-15 -41 -60 -41h-129q-44 0 -53 41l-121 561
l-262 -563q-14 -39 -61 -39h-129q-44 0 -52 41l-170 846q-4 26 8.5 40.5t39.5 14.5h124q46 0 52 -41l116 -590l277 592q17 39 61 39h78q47 0 53 -39l131 -592z" />
    <glyph glyph-name="Ycircumflex" unicode="&#x176;" horiz-adv-x="1253" 
d="M1022 1513q12 -25 2 -42t-39 -17h-76q-44 0 -55 33l-49 108l-74 -108q-23 -33 -63 -33h-78q-29 0 -36.5 17t11.5 42l99 129q23 33 63 33h174q38 0 55 -33zM1292 1331q29 0 36.5 -17t-11.5 -42l-522 -699l-64 -524q-6 -49 -55 -49h-129q-49 0 -43 49l63 518l-352 705
q-12 26 0 42.5t41 16.5h154q38 0 55 -33l244 -489l366 489q23 33 64 33h153z" />
    <glyph glyph-name="ycircumflex" unicode="&#x177;" horiz-adv-x="1034" 
d="M862 1139q12 -25 2 -42.5t-39 -17.5h-75q-45 0 -56 33l-49 109l-74 -109q-23 -33 -63 -33h-78q-29 0 -36 17.5t12 42.5l98 129q22 32 63 32h174q39 0 56 -32zM846 903q22 39 59 39h127q28 0 37 -16t-4 -41l-637 -1223q-22 -39 -61 -39h-113q-27 0 -35.5 16.5t4.5 41.5
l166 319l-239 885q-6 25 6 41t39 16h124q43 0 52 -39l161 -598z" />
    <glyph glyph-name="Ydieresis" unicode="&#x178;" horiz-adv-x="1253" 
d="M594 1430q-40 0 -68 29t-22 77q6 45 41.5 72.5t75.5 27.5q41 0 70.5 -27.5t23.5 -72.5q-6 -48 -42.5 -77t-78.5 -29zM975 1430q-41 0 -68.5 29t-21.5 77q6 45 40.5 72.5t75.5 27.5t70 -27.5t23 -72.5q-6 -48 -42 -77t-77 -29zM1292 1331q29 0 36.5 -17t-11.5 -42
l-522 -699l-64 -524q-6 -49 -55 -49h-129q-49 0 -43 49l63 518l-352 705q-12 26 0 42.5t41 16.5h154q38 0 55 -33l244 -489l366 489q23 33 64 33h153z" />
    <glyph glyph-name="Zacute" unicode="&#x179;" horiz-adv-x="1107" 
d="M750 1638q19 37 61 37h86q28 0 36 -15.5t-7 -41.5l-80 -129q-22 -35 -62 -35h-82q-28 0 -35.5 16t7.5 41zM1155 1171q-3 -34 -25 -59l-749 -901l594 -2q46 0 43 -49l-14 -111q-3 -23 -18 -36t-38 -13h-821q-49 0 -43 49l14 111q3 34 25 59l741 901h-588q-49 0 -43 49
l15 113q6 49 55 49h823q49 0 43 -49z" />
    <glyph glyph-name="zacute" unicode="&#x17a;" horiz-adv-x="872" 
d="M565 1264q19 36 62 36h86q28 0 35.5 -15.5t-7.5 -41.5l-79 -129q-22 -35 -62 -35h-82q-28 0 -36 16.5t7 41.5zM840 942q48 0 45 -49l-11 -82q-6 -37 -28 -61l-490 -568h387q49 0 43 -49l-10 -84q-6 -49 -55 -49h-615q-49 0 -43 49l11 82q3 37 28 62l490 567h-387
q-48 0 -45 49l12 84q1 23 15.5 36t37.5 13h615z" />
    <glyph glyph-name="Zdotaccent" unicode="&#x17b;" horiz-adv-x="1107" 
d="M729 1430q-40 0 -68 29t-22 77q6 45 41.5 72.5t75.5 27.5q41 0 70.5 -27.5t23.5 -72.5q-6 -48 -42.5 -77t-78.5 -29zM1155 1171q-3 -34 -25 -59l-749 -901l594 -2q46 0 43 -49l-14 -111q-3 -23 -18 -36t-38 -13h-821q-49 0 -43 49l14 111q3 34 25 59l741 901h-588
q-49 0 -43 49l15 113q6 49 55 49h823q49 0 43 -49z" />
    <glyph glyph-name="zdotaccent" unicode="&#x17c;" horiz-adv-x="872" 
d="M545 1055q-40 0 -68 29t-22 77q6 45 41 73t75 28q41 0 71 -28t24 -73q-6 -48 -42.5 -77t-78.5 -29zM840 942q48 0 45 -49l-11 -82q-6 -37 -28 -61l-490 -568h387q49 0 43 -49l-10 -84q-6 -49 -55 -49h-615q-49 0 -43 49l11 82q3 37 28 62l490 567h-387q-48 0 -45 49
l12 84q1 23 15.5 36t37.5 13h615z" />
    <glyph glyph-name="Zcaron" unicode="&#x17d;" horiz-adv-x="1107" 
d="M817 1642q21 33 64 33h75q29 0 35.5 -17t-12.5 -42l-96 -129q-26 -33 -64 -33h-174q-41 0 -55 33l-68 129q-12 25 -1 42t40 17h78q39 0 55 -33l49 -100zM1155 1171q-3 -34 -25 -59l-749 -901l594 -2q46 0 43 -49l-14 -111q-3 -23 -18 -36t-38 -13h-821q-49 0 -43 49
l14 111q3 34 25 59l741 901h-588q-49 0 -43 49l15 113q6 49 55 49h823q49 0 43 -49z" />
    <glyph glyph-name="zcaron" unicode="&#x17e;" horiz-adv-x="872" 
d="M633 1268q20 32 63 32h76q29 0 35.5 -17t-12.5 -42l-97 -129q-26 -33 -63 -33h-174q-41 0 -55 33l-68 129q-12 25 -1 42t40 17h78q40 0 55 -32l49 -101zM840 942q48 0 45 -49l-11 -82q-6 -37 -28 -61l-490 -568h387q49 0 43 -49l-10 -84q-6 -49 -55 -49h-615
q-49 0 -43 49l11 82q3 37 28 62l490 567h-387q-48 0 -45 49l12 84q1 23 15.5 36t37.5 13h615z" />
    <glyph glyph-name="uni01CD" unicode="&#x1cd;" horiz-adv-x="1349" 
d="M930 1642q21 33 63 33h76q29 0 35.5 -17t-12.5 -42l-97 -129q-26 -33 -63 -33h-174q-42 0 -56 33l-67 129q-12 25 -1 42t40 17h78q39 0 55 -33l49 -100zM1094 0q-40 0 -52 39l-61 217h-569l-115 -217q-19 -39 -59 -39h-140q-28 0 -37 16t5 41l653 1235q22 39 63 39h92
q43 0 52 -39l352 -1235q8 -25 -4.5 -41t-40.5 -16h-139zM520 465h406l-142 508z" />
    <glyph glyph-name="uni01CE" unicode="&#x1ce;" 
d="M819 1268q20 32 64 32h75q29 0 35.5 -17t-12.5 -42l-96 -129q-26 -33 -64 -33h-174q-41 0 -55 33l-68 129q-12 25 -1 42t40 17h78q40 0 55 -32l49 -101zM924 893q1 23 15.5 36t37.5 13h121q48 0 45 -49l-105 -844q-6 -49 -55 -49h-121q-49 0 -43 49l8 72
q-124 -137 -313 -137q-196 0 -307.5 138t-85.5 349q26 213 170.5 349t341.5 136q192 0 280 -137zM569 190q120 0 203.5 79t97.5 202q15 123 -48 201t-183 78t-204 -78t-99 -201q-14 -123 49.5 -202t183.5 -79z" />
    <glyph glyph-name="uni01CF" unicode="&#x1cf;" horiz-adv-x="462" 
d="M471 1642q21 33 64 33h75q29 0 35.5 -17t-12.5 -42l-96 -129q-26 -33 -64 -33h-174q-41 0 -55 33l-68 129q-12 25 -1 42t40 17h78q39 0 55 -33l49 -100zM332 49q-3 -23 -18 -36t-38 -13h-129q-49 0 -43 49l152 1233q6 49 55 49h129q49 0 43 -49z" />
    <glyph glyph-name="uni01D0" unicode="&#x1d0;" horiz-adv-x="473" 
d="M432 1268q20 32 64 32h75q29 0 35.5 -17t-12.5 -42l-96 -129q-26 -33 -64 -33h-174q-41 0 -55 33l-68 129q-12 25 -1 42t40 17h78q40 0 55 -32l49 -101zM332 49q-3 -23 -18 -36t-38 -13h-122q-49 0 -43 49l104 844q1 23 15.5 36t37.5 13h123q48 0 45 -49z" />
    <glyph glyph-name="uni01D1" unicode="&#x1d1;" horiz-adv-x="1519" 
d="M1010 1642q21 33 63 33h76q29 0 35 -17t-13 -42l-96 -129q-26 -33 -63 -33h-174q-42 0 -56 33l-67 129q-12 25 -1 42t40 17h77q40 0 56 -33l49 -100zM745 -16q-146 0 -264.5 51.5t-195 141.5t-110 216.5t-15.5 272.5t83 272.5t163.5 216.5t229.5 141.5t277 51.5
q195 0 336.5 -88t205.5 -243t40 -351q-18 -147 -82.5 -273t-162.5 -216t-228.5 -141.5t-276.5 -51.5zM774 211q196 0 331.5 128t160.5 327t-80 326.5t-301 127.5t-334.5 -128t-163.5 -326t82.5 -326.5t304.5 -128.5z" />
    <glyph glyph-name="uni01D2" unicode="&#x1d2;" horiz-adv-x="1136" 
d="M766 1268q20 32 63 32h76q29 0 35.5 -17t-12.5 -42l-97 -129q-26 -33 -63 -33h-174q-41 0 -55 33l-68 129q-12 25 -1 42t40 17h78q40 0 55 -32l49 -101zM547 -18q-213 0 -332.5 138.5t-93.5 350.5q26 214 180 352t367 138t330.5 -137.5t91.5 -352.5
q-26 -212 -178.5 -350.5t-364.5 -138.5zM571 190q119 0 202 80t97 201q15 122 -48 200.5t-181 78.5q-119 0 -202.5 -79t-98.5 -200q-14 -122 49.5 -201.5t181.5 -79.5z" />
    <glyph glyph-name="uni01D3" unicode="&#x1d3;" horiz-adv-x="1257" 
d="M879 1642q21 33 63 33h76q29 0 35 -17t-13 -42l-96 -129q-26 -33 -63 -33h-174q-42 0 -56 33l-67 129q-12 25 -1 42t40 17h77q40 0 56 -33l49 -100zM1049 1282q6 49 55 49h131q49 0 43 -49l-100 -815q-12 -100 -57.5 -187t-117.5 -153.5t-174.5 -104.5t-222.5 -38
t-213 38t-148 104.5t-78 153.5t-11 187l100 815q6 49 55 49h129q49 0 43 -49l-98 -790q-17 -142 52.5 -214.5t195.5 -72.5q127 0 213.5 72.5t103.5 214.5z" />
    <glyph glyph-name="uni01D4" unicode="&#x1d4;" horiz-adv-x="1101" 
d="M758 1268q20 32 63 32h76q29 0 35.5 -17t-12.5 -42l-97 -129q-26 -33 -63 -33h-174q-42 0 -56 33l-67 129q-12 25 -1 42t40 17h78q40 0 55 -32l49 -101zM854 893q1 23 15.5 36t37.5 13h123q48 0 45 -49l-104 -844q-3 -23 -18 -36t-38 -13h-122q-49 0 -43 49l6 49
q-111 -114 -291 -114q-55 0 -104.5 12t-94.5 41t-75.5 71.5t-44 108.5t-3.5 148l66 528q1 23 15.5 36t37.5 13h121q48 0 45 -49l-61 -496q-7 -61 7 -106.5t43.5 -70t63.5 -36.5t72 -12q85 0 155.5 54.5t84.5 170.5z" />
    <glyph glyph-name="Gcaron" unicode="&#x1e6;" horiz-adv-x="1503" 
d="M1012 1642q21 33 63 33h76q29 0 35.5 -17t-12.5 -42l-97 -129q-26 -33 -63 -33h-174q-42 0 -56 33l-67 129q-12 25 -1 42t40 17h78q39 0 55 -33l49 -100zM1464 635q-31 -190 -127 -336.5t-249.5 -230.5t-342.5 -84q-146 0 -264.5 51.5t-195 141.5t-110 216.5t-15.5 272.5
t83 272.5t163.5 216.5t229.5 141.5t277 51.5q159 0 283 -60t197 -168q26 -37 -19 -67l-117 -78q-38 -25 -67 8q-110 137 -305 137q-196 0 -334.5 -128t-163.5 -326t82.5 -326.5t304.5 -128.5q145 0 261.5 84t156.5 231h-344q-49 0 -43 49l12 111q6 49 55 49h555q49 0 43 -49
z" />
    <glyph glyph-name="gcaron" unicode="&#x1e7;" 
d="M778 1268q20 32 64 32h76q29 0 35 -17t-13 -42l-96 -129q-26 -33 -64 -33h-174q-41 0 -55 33l-68 129q-12 25 -1 42t40 17h78q40 0 55 -32l50 -101zM924 893q1 23 15.5 36t37.5 13h121q48 0 45 -49l-103 -825q-25 -207 -174.5 -336t-382.5 -129q-219 0 -346 133
q-31 36 13 69l79 60q36 26 70 -4q77 -72 207 -72q37 0 75 8.5t78.5 29.5t73 51.5t56.5 79.5t32 110l6 55q-126 -139 -315 -139q-196 0 -306.5 138t-84.5 349t170 348t340 137q189 0 282 -137zM567 190q121 0 205 79.5t98 201.5q15 123 -49 201t-184 78t-203 -78t-98 -201
q-14 -124 48.5 -202.5t182.5 -78.5z" />
    <glyph glyph-name="uni0218" unicode="&#x218;" horiz-adv-x="1241" 
d="M106 254q-15 40 27 68l117 73q22 13 36.5 10t28.5 -24q45 -71 140 -123.5t215 -52.5q131 0 194 45t74 129q4 31 -11 58.5t-38.5 45t-62 35t-68 27t-71 21.5t-58.5 18q-9 3 -49 14.5t-65.5 20t-69 26.5t-72.5 36t-62.5 47.5t-52 62.5t-28 78.5t-3.5 97.5q12 99 62 175
t127 122t170.5 69t199.5 23q164 0 291 -70t172 -170q15 -40 -28 -65l-111 -66q-42 -23 -66 14q-40 52 -124 89.5t-187 37.5q-110 0 -173 -39t-71 -110q-4 -30 10 -56.5t34.5 -43t58.5 -33.5t64 -25t71.5 -21t60.5 -18q8 -3 41 -13.5t55.5 -18.5t61 -23t65.5 -31t60 -38.5
t55 -49.5t40.5 -59t25 -72.5t0.5 -85.5q-24 -200 -177 -307t-397 -107q-197 0 -331 79.5t-181 199.5zM506 -164q20 35 63 35h80q28 0 36 -17t-9 -42l-82 -123q-20 -35 -62 -35h-73q-28 0 -37 16t6 41z" />
    <glyph glyph-name="uni0219" unicode="&#x219;" horiz-adv-x="923" 
d="M82 156q-17 39 27 65l79 49q42 23 66 -14q32 -43 93 -74.5t132 -31.5q163 0 178 112q2 22 -7 40t-23 30t-38.5 23t-42.5 17t-46.5 14.5t-40.5 12.5q-4 1 -30.5 9t-40.5 13.5t-43 16.5t-47 22.5t-43 28t-40 36t-28.5 43t-18 52.5t-0.5 62q11 93 70 158t144.5 94t190.5 29
q124 0 211 -43.5t125 -110.5q24 -41 -24 -68l-70 -41q-36 -21 -65 11q-33 35 -88.5 58.5t-116.5 23.5q-72 0 -114.5 -28t-47.5 -73q-3 -21 5.5 -39t21.5 -29t37 -22t41 -16.5t46 -14t41 -12.5q3 -1 30 -9.5t41 -14t44 -17.5t48 -23.5t44 -28.5t41 -36.5t29.5 -43.5t19 -53.5
t0.5 -62.5q-17 -144 -126.5 -220.5t-290.5 -76.5q-142 0 -238 51.5t-135 131.5zM340 -156q20 35 63 35h80q28 0 36 -17t-9 -42l-82 -123q-20 -35 -61 -35h-74q-28 0 -37 16t6 41z" />
    <glyph glyph-name="uni021A" unicode="&#x21a;" horiz-adv-x="1204" 
d="M1221 1331q49 0 43 -49l-15 -111q-6 -49 -55 -49h-360l-132 -1073q-6 -49 -55 -49h-131q-49 0 -43 49l131 1073h-360q-49 0 -43 49l14 111q6 49 55 49h951zM459 -145q19 34 63 34h80q28 0 36 -17t-9 -42l-82 -123q-20 -35 -62 -35h-73q-28 0 -37 16.5t6 41.5z" />
    <glyph glyph-name="uni021B" unicode="&#x21b;" horiz-adv-x="681" 
d="M692 823q-1 -23 -16 -36t-39 -13h-160l-59 -483q-4 -38 3.5 -63t26 -36.5t37 -15.5t45.5 -4h23q49 0 43 -49l-8 -74q-3 -23 -18 -36t-38 -13h-110q-129 0 -186 65.5t-43 190.5l63 518h-76q-46 0 -43 49l10 70q1 23 16 36t38 13h75l31 240q6 49 55 49h123q49 0 43 -49
l-30 -240h159q48 0 45 -49zM307 -141q20 35 64 35h80q28 0 35.5 -17.5t-9.5 -42.5l-82 -123q-20 -35 -61 -35h-74q-28 0 -37 16.5t6 41.5z" />
    <glyph glyph-name="circumflex" unicode="&#x2c6;" horiz-adv-x="616" 
d="M680 1169q12 -25 2 -42t-39 -17h-76q-44 0 -55 33l-49 108l-74 -108q-23 -33 -63 -33h-78q-29 0 -36.5 17t11.5 42l99 129q23 33 63 33h174q38 0 55 -33z" />
    <glyph glyph-name="caron" unicode="&#x2c7;" horiz-adv-x="616" 
d="M530 1298q21 33 64 33h76q29 0 35 -17t-13 -42l-96 -129q-26 -33 -64 -33h-174q-41 0 -55 33l-67 129q-12 25 -1.5 42t39.5 17h78q40 0 56 -33l49 -100z" />
    <glyph glyph-name="breve" unicode="&#x2d8;" horiz-adv-x="514" 
d="M588 1331q49 0 49 -2l-2 -4q-12 -100 -78.5 -154.5t-161.5 -54.5q-96 0 -150 54t-42 155q3 6 51 6h33q49 0 49 -2l-2 -4q-5 -41 15.5 -66.5t60.5 -25.5t64.5 25.5t29.5 66.5q3 6 51 6h33z" />
    <glyph glyph-name="dotaccent" unicode="&#x2d9;" horiz-adv-x="292" 
d="M291 1190q-40 0 -68 29t-22 77q6 45 41 73t75 28q41 0 71 -28t24 -73q-6 -48 -42.5 -77t-78.5 -29z" />
    <glyph glyph-name="ring" unicode="&#x2da;" horiz-adv-x="452" 
d="M356 1014q-82 0 -129.5 52.5t-38.5 129.5q9 81 69 131.5t144 50.5t129.5 -50t36.5 -132q-9 -78 -68 -130t-143 -52zM369 1116q42 0 65 24.5t27 55.5q4 30 -13.5 56t-58.5 26q-42 0 -64 -25.5t-26 -56.5q-4 -32 11.5 -56t58.5 -24z" />
    <glyph glyph-name="ogonek" unicode="&#x2db;" horiz-adv-x="337" 
d="M266 -252q-7 -47 -51 -53q-93 -12 -148.5 24t-46.5 111q5 48 34 87.5t67 64.5q26 18 61 18h4q32 0 36 -14t-21 -39q-44 -40 -49 -84q-3 -22 12 -35.5t53 -9.5q29 5 42.5 -4.5t10.5 -34.5z" />
    <glyph glyph-name="tilde" unicode="&#x2dc;" horiz-adv-x="720" 
d="M238 1178q-53 0 -41 51q24 79 79 126.5t134 47.5q87 0 141 -70q37 -51 82 -51q50 0 74 49q19 45 57 45h35q51 0 39 -51q-25 -79 -81 -126.5t-141 -47.5q-88 0 -143 72q-20 25 -36.5 37t-39.5 12q-44 0 -69 -49q-16 -45 -56 -45h-34z" />
    <glyph glyph-name="hungarumlaut" unicode="&#x2dd;" horiz-adv-x="727" 
d="M289 1294q19 37 63 37h82q29 0 35.5 -17t-12.5 -42l-97 -129q-26 -33 -63 -33h-55q-28 0 -36 16t7 41zM635 1294q19 37 63 37h82q29 0 35.5 -17t-12.5 -42l-96 -129q-26 -33 -64 -33h-55q-28 0 -36 16t7 41z" />
    <glyph glyph-name="gravecomb" unicode="&#x300;" horiz-adv-x="0" 
d="M-23 1331q40 0 54 -37l43 -127q9 -25 -2 -41t-39 -16h-82q-42 0 -53 35l-52 129q-9 26 4 41.5t41 15.5h86z" />
    <glyph glyph-name="acutecomb" unicode="&#x301;" horiz-adv-x="0" 
d="M-90 1294q19 37 61 37h86q28 0 36 -15.5t-7 -41.5l-80 -129q-22 -35 -61 -35h-82q-28 0 -36 16t7 41z" />
    <glyph glyph-name="uni0302" unicode="&#x302;" horiz-adv-x="0" 
d="M63 1169q12 -25 2.5 -42t-38.5 -17h-76q-44 0 -55 33l-50 108l-73 -108q-23 -33 -64 -33h-78q-29 0 -36 17t12 42l98 129q23 33 64 33h174q38 0 55 -33z" />
    <glyph glyph-name="tildecomb" unicode="&#x303;" horiz-adv-x="0" 
d="M-483 1178q-53 0 -41 51q24 79 79 126.5t134 47.5q87 0 141 -70q37 -51 82 -51q50 0 74 49q19 45 57 45h35q51 0 39 -51q-25 -80 -80.5 -127t-140.5 -47q-89 0 -144 72q-20 25 -36.5 37t-39.5 12q-44 0 -69 -49q-16 -45 -56 -45h-34z" />
    <glyph glyph-name="uni0304" unicode="&#x304;" horiz-adv-x="0" 
d="M-270 1282q6 49 55 49h289q49 0 43 -49l-6 -45q-3 -23 -18 -36t-38 -13h-288q-49 0 -43 49z" />
    <glyph glyph-name="uni0306" unicode="&#x306;" horiz-adv-x="0" 
d="M74 1331q49 0 49 -2l-2 -4q-10 -96 -80 -153.5t-172 -57.5t-158.5 57.5t-46.5 153.5q3 6 51 6h33q49 0 49 -2l-2 -4q-5 -38 19.5 -66t68.5 -28q45 0 73.5 27.5t33.5 66.5q3 6 51 6h33z" />
    <glyph glyph-name="uni0307" unicode="&#x307;" horiz-adv-x="0" 
d="M-2 1190q-40 0 -68 29t-22 77q6 45 41.5 73t75.5 28q41 0 70.5 -28t23.5 -73q-6 -48 -42.5 -77t-78.5 -29z" />
    <glyph glyph-name="uni0308" unicode="&#x308;" horiz-adv-x="0" 
d="M-393 1190q-40 0 -68 29t-22 77q6 45 41 73t75 28q41 0 71 -28t24 -73q-6 -48 -42.5 -77t-78.5 -29zM-12 1190q-41 0 -68.5 29t-21.5 77q6 45 40.5 73t75.5 28t69.5 -28t22.5 -73q-6 -48 -41.5 -77t-76.5 -29z" />
    <glyph glyph-name="uni030A" unicode="&#x30a;" horiz-adv-x="0" 
d="M-100 1024q-81 0 -127 50t-37 126q9 79 68 128.5t141 49.5t126 -49t35 -129q-9 -76 -67 -126t-139 -50zM-88 1124q40 0 61 23.5t25 52.5t-11 53.5t-55 24.5t-61 -24.5t-25 -53.5t11 -52.5t55 -23.5z" />
    <glyph glyph-name="uni030B" unicode="&#x30b;" horiz-adv-x="0" 
d="M-438 1294q19 37 63 37h82q29 0 35.5 -17t-12.5 -42l-97 -129q-26 -33 -63 -33h-55q-28 0 -36 16t7 41zM-92 1294q19 37 63 37h82q29 0 35.5 -17t-12.5 -42l-96 -129q-26 -33 -64 -33h-55q-28 0 -36 16t7 41z" />
    <glyph glyph-name="uni030C" unicode="&#x30c;" horiz-adv-x="0" 
d="M-86 1298q21 33 63 33h76q29 0 35.5 -17t-12.5 -42l-96 -129q-26 -33 -64 -33h-174q-41 0 -55 33l-68 129q-12 25 -1 42t40 17h78q39 0 55 -33l49 -100z" />
    <glyph glyph-name="uni0312" unicode="&#x312;" horiz-adv-x="0" 
d="M76 1409q20 0 23.5 -11t-13.5 -26q-23 -20 -37 -39q27 -8 43.5 -31.5t13.5 -58.5q-5 -40 -35.5 -70t-78.5 -30q-50 0 -75.5 30t-20.5 70q7 66 98 143q26 23 61 23h21z" />
    <glyph glyph-name="dotbelowcomb" unicode="&#x323;" horiz-adv-x="0" 
d="M-172 -207q-40 0 -69 29.5t-23 77.5q6 45 41.5 72.5t75.5 27.5q41 0 70.5 -27.5t23.5 -72.5q-6 -48 -42 -77.5t-77 -29.5z" />
    <glyph glyph-name="uni0326" unicode="&#x326;" horiz-adv-x="0" 
d="M-250 -35q20 35 64 35h80q28 0 35.5 -17t-9.5 -42l-82 -123q-20 -35 -61 -35h-74q-28 0 -37 16t6 41z" />
    <glyph glyph-name="uni0327" unicode="&#x327;" horiz-adv-x="0" 
d="M-193 -86q66 -11 98.5 -45.5t26.5 -89.5q-10 -76 -66 -114t-145 -38q-40 0 -79 8q-38 9 -35 56l2 16q4 26 18 34t41 3q30 -6 66 -6q78 0 84 41q3 41 -82 41q-17 0 -27 -2q-50 -3 -47 37l2 14q3 29 25 61l26 37q24 33 64 33h20q30 0 37.5 -16.5t-10.5 -42.5z" />
    <glyph glyph-name="uni0328" unicode="&#x328;" horiz-adv-x="0" 
d="M-72 -252q-7 -47 -51 -53q-95 -12 -154.5 24.5t-50.5 110.5q10 87 107 154q27 16 61 16h8q32 0 36 -15t-21 -40q-44 -40 -49 -82q-3 -22 12 -35.5t53 -9.5q29 5 42.5 -4.5t10.5 -34.5z" />
    <glyph glyph-name="uni0331" unicode="&#x331;" horiz-adv-x="0" 
d="M-418 -49q3 23 18 36t38 13h272q49 0 43 -49l-6 -43q-1 -23 -15.5 -36t-37.5 -13h-273q-48 0 -45 49z" />
    <glyph glyph-name="Gamma" unicode="&#x393;" horiz-adv-x="954" 
d="M932 1331q49 0 43 -49l-14 -111q-3 -23 -18 -36t-38 -13h-448l-131 -1073q-3 -23 -18 -36t-38 -13h-123q-49 0 -43 49l152 1233q6 49 55 49h621z" />
    <glyph glyph-name="uni0394" unicode="&#x394;" horiz-adv-x="1341" 
d="M866 1331q43 0 52 -39l301 -1067q6 -35 4 -59l-15 -117q-6 -49 -55 -49h-1006q-49 0 -43 49l15 117q2 25 20 59l559 1067q22 39 64 39h104zM358 197h631l-221 792z" />
    <glyph glyph-name="Sigma" unicode="&#x3a3;" horiz-adv-x="1208" 
d="M1184 1331q49 0 43 -49l-15 -111q-6 -49 -55 -49h-559l371 -428q28 -36 -11 -69l-466 -416h555q46 0 43 -49l-15 -111q-6 -49 -55 -49h-873q-49 0 -43 49l11 80q3 36 32 59l551 471l-434 490q-21 24 -18 59l10 74q6 49 55 49h873z" />
    <glyph glyph-name="Phi" unicode="&#x3a6;" horiz-adv-x="1585" 
d="M1530 668q-30 -242 -202.5 -378t-446.5 -155l-13 -96q-6 -49 -55 -49h-84q-49 0 -43 49l12 96q-267 19 -407.5 156t-110.5 377q29 237 202.5 374t446.5 156l11 94q6 49 55 49h84q49 0 43 -49l-10 -94q268 -19 408 -155t110 -375zM401 668q-16 -128 62 -212t262 -100
l76 619q-189 -16 -287.5 -98.5t-112.5 -208.5zM907 356q190 16 287 99t113 213q16 128 -61 209.5t-263 97.5z" />
    <glyph glyph-name="Psi" unicode="&#x3a8;" horiz-adv-x="1486" 
d="M1284 1282q6 49 55 49h123q49 0 43 -49l-43 -354q-34 -271 -198.5 -419t-407.5 -173l-35 -287q-6 -49 -55 -49h-86q-49 0 -43 49l35 287q-114 12 -204 53t-154 112t-91 180.5t-10 248.5l43 352q6 49 55 49h123q49 0 43 -49l-43 -352q-23 -182 45 -273.5t219 -109.5
l90 735q3 23 18 36t38 13h86q49 0 43 -49l-90 -735q155 18 245 109.5t113 273.5z" />
    <glyph glyph-name="uni03A9" unicode="&#x3a9;" horiz-adv-x="1609" 
d="M1292 217h158q49 0 43 -49l-14 -111q-1 -23 -16.5 -36t-39.5 -13h-469q-46 0 -43 49l17 121q3 41 45 58q107 48 182 124.5t109 155t45 164.5q8 63 0 124.5t-36 120t-72 103t-115 71.5t-160 27t-167 -27t-134 -71.5t-99 -103t-66.5 -120t-31.5 -124.5q-4 -48 -3.5 -96
t15.5 -98t40 -94t69 -84t102 -68q39 -17 33 -58l-16 -125q-1 -23 -16.5 -36t-39.5 -13h-465q-46 0 -43 49l15 111q6 49 55 49h158q-159 188 -127 449q37 298 245 490t502 192q194 0 334.5 -88t203 -243t38.5 -351q-33 -262 -236 -449z" />
    <glyph glyph-name="uni1E04" unicode="&#x1e04;" horiz-adv-x="1236" 
d="M1047 690q80 -43 120 -122t27 -187q-14 -114 -81 -202.5t-161 -133.5t-198 -45h-607q-49 0 -43 49l152 1233q6 49 55 49h568q161 0 260 -99t78 -269q-23 -187 -170 -273zM463 1122l-41 -344h352q85 0 140.5 47t64.5 125q9 79 -35 125.5t-129 46.5h-352zM745 209
q87 0 147 54.5t69 135.5q9 80 -37.5 134.5t-132.5 54.5h-394l-45 -379h393zM510 -303q-40 0 -69 29t-23 77q6 45 41.5 73t75.5 28q41 0 70.5 -28t23.5 -73q-6 -48 -42 -77t-77 -29z" />
    <glyph glyph-name="uni1E05" unicode="&#x1e05;" 
d="M731 956q197 0 307 -136t84 -349q-26 -211 -170 -349t-340 -138q-190 0 -280 137l-8 -72q-3 -23 -18 -36t-38 -13h-121q-49 0 -43 49l152 1233q6 49 55 49h121q49 0 43 -49l-57 -463q121 137 313 137zM606 190q121 0 205 79.5t98 201.5q15 123 -49 201t-184 78t-203 -78
t-98 -201q-14 -124 48.5 -202.5t182.5 -78.5zM561 -319q-40 0 -69 29t-23 77q6 45 41.5 72.5t75.5 27.5q41 0 70.5 -27.5t23.5 -72.5q-6 -48 -42 -77t-77 -29z" />
    <glyph glyph-name="uni1E0C" unicode="&#x1e0c;" horiz-adv-x="1339" 
d="M739 1331q293 0 452 -184.5t122 -480.5q-37 -297 -241 -481.5t-497 -184.5h-428q-49 0 -43 49l152 1233q6 49 55 49h428zM602 221q55 0 112.5 13.5t120 46.5t113 82t88.5 127.5t49 175.5t-7.5 175t-56.5 127t-91.5 82t-107.5 46.5t-109 13.5h-250l-111 -889h250z
M496 -303q-40 0 -69.5 29t-23.5 77q6 45 41.5 73t75.5 28q41 0 70.5 -28t23.5 -73q-6 -48 -41.5 -77t-76.5 -29z" />
    <glyph glyph-name="uni1E0D" unicode="&#x1e0d;" 
d="M971 1282q6 49 55 49h121q49 0 43 -49l-152 -1233q-6 -49 -55 -49h-121q-49 0 -43 49l8 72q-124 -137 -313 -137q-196 0 -307.5 138t-85.5 349q26 213 170.5 349t341.5 136q192 0 280 -137zM569 190q120 0 203.5 79t97.5 202q15 123 -48 201t-183 78t-204 -78t-99 -201
q-14 -123 49.5 -202t183.5 -79zM524 -319q-40 0 -69 29t-23 77q6 45 41.5 72.5t75.5 27.5q41 0 70.5 -27.5t23.5 -72.5q-6 -48 -42 -77t-77 -29z" />
    <glyph glyph-name="uni1E24" unicode="&#x1e24;" horiz-adv-x="1310" 
d="M1102 1282q6 49 55 49h129q49 0 43 -49l-151 -1233q-3 -23 -18 -36t-38 -13h-129q-49 0 -43 49l62 506h-619l-61 -506q-3 -23 -18 -36t-38 -13h-129q-49 0 -43 49l152 1233q6 49 55 49h129q49 0 43 -49l-61 -506h618zM594 -297q-40 0 -69 29.5t-23 77.5q6 45 41 72.5
t75 27.5q41 0 71 -27.5t24 -72.5q-6 -48 -42 -77.5t-77 -29.5z" />
    <glyph glyph-name="uni1E25" unicode="&#x1e25;" horiz-adv-x="1101" 
d="M711 956q55 0 104.5 -12t95 -40.5t76.5 -71t45 -108t4 -146.5l-65 -529q-3 -23 -18 -36t-38 -13h-122q-49 0 -43 49l61 496q7 61 -7 106.5t-43.5 70t-64 36.5t-73.5 12q-84 0 -154 -54.5t-84 -170.5l-61 -496q-3 -23 -18 -36t-38 -13h-121q-49 0 -43 49l152 1233
q6 49 55 49h121q49 0 43 -49l-55 -440q111 114 291 114zM500 -303q-40 0 -69 29t-23 77q6 45 41 73t75 28q41 0 70.5 -28t23.5 -73q-6 -48 -41.5 -77t-76.5 -29z" />
    <glyph glyph-name="uni1E36" unicode="&#x1e36;" horiz-adv-x="1079" 
d="M352 209h606q46 0 43 -49l-14 -111q-6 -49 -55 -49h-785q-49 0 -43 49l152 1233q6 49 55 49h129q49 0 43 -49zM502 -303q-40 0 -69 29t-23 77q6 45 41 73t75 28q41 0 71 -28t24 -73q-6 -48 -42 -77t-77 -29z" />
    <glyph glyph-name="uni1E37" unicode="&#x1e37;" horiz-adv-x="456" 
d="M324 49q-3 -23 -18 -36t-38 -13h-121q-49 0 -43 49l152 1233q6 49 55 49h123q49 0 43 -49zM170 -303q-40 0 -69 29t-23 77q6 45 41.5 73t75.5 28q41 0 70.5 -28t23.5 -73q-6 -48 -42 -77t-77 -29z" />
    <glyph glyph-name="uni1E3E" unicode="&#x1e3e;" horiz-adv-x="1544" 
d="M948 1638q19 37 62 37h86q28 0 35.5 -15.5t-7.5 -41.5l-80 -129q-22 -35 -61 -35h-82q-28 0 -36 16t7 41zM1522 1331q49 0 43 -49l-152 -1233q-6 -49 -55 -49h-131q-49 0 -43 49l100 825l-410 -681q-22 -37 -65 -37h-76q-42 0 -53 37l-246 684l-102 -828q-3 -23 -18 -36
t-38 -13h-129q-49 0 -43 49l152 1233q6 49 55 49h144q41 0 55 -35l303 -802l502 802q20 35 61 35h146z" />
    <glyph glyph-name="uni1E3F" unicode="&#x1e3f;" horiz-adv-x="1677" 
d="M971 1282q19 37 61 37h86q28 0 36 -15.5t-7 -41.5l-80 -129q-22 -35 -61 -35h-82q-28 0 -36 16t7 41zM1305 956q54 0 101 -11t90.5 -39t72 -70t41 -108t2.5 -150l-66 -529q-6 -49 -55 -49h-123q-49 0 -43 49l61 500q7 60 -6.5 104.5t-41 67.5t-58 33t-63.5 10t-66 -10.5
t-67 -33t-58 -67t-31 -104.5l-61 -500q-6 -49 -55 -49h-121q-49 0 -43 49l61 500q7 60 -6.5 104.5t-41.5 67.5t-58.5 33t-63.5 10q-34 0 -67 -10t-66 -33t-57 -67.5t-31 -104.5l-61 -500q-3 -23 -18 -36t-38 -13h-121q-49 0 -43 49l105 844q1 23 15.5 36t37.5 13h121
q48 0 45 -49l-8 -53q113 116 274 116q93 0 168 -36.5t111 -116.5q63 80 151 116.5t181 36.5z" />
    <glyph glyph-name="uni1E44" unicode="&#x1e44;" horiz-adv-x="1298" 
d="M811 1430q-40 0 -68 29t-22 77q6 45 41.5 72.5t75.5 27.5q41 0 70.5 -27.5t23.5 -72.5q-6 -48 -42.5 -77t-78.5 -29zM1090 1282q6 49 55 49h129q49 0 43 -49l-152 -1233q-6 -49 -55 -49h-133q-38 0 -55 33l-482 903l-108 -887q-3 -23 -18 -36t-38 -13h-129q-49 0 -43 49
l152 1233q6 49 55 49h133q39 0 56 -33l481 -903z" />
    <glyph glyph-name="uni1E45" unicode="&#x1e45;" horiz-adv-x="1101" 
d="M657 1055q-40 0 -68 29t-22 77q6 45 41.5 73t75.5 28q41 0 70.5 -28t23.5 -73q-6 -48 -42.5 -77t-78.5 -29zM711 956q55 0 104.5 -12t95 -40.5t76.5 -71t45 -108t4 -146.5l-65 -529q-3 -23 -18 -36t-38 -13h-122q-49 0 -43 49l61 496q7 61 -7 106.5t-43.5 70t-64 36.5
t-73.5 12q-84 0 -154 -54.5t-84 -170.5l-61 -496q-3 -23 -18 -36t-38 -13h-121q-49 0 -43 49l105 844q1 23 15.5 36t37.5 13h121q48 0 45 -49l-8 -51q111 114 291 114z" />
    <glyph glyph-name="uni1E46" unicode="&#x1e46;" horiz-adv-x="1298" 
d="M1090 1282q6 49 55 49h129q49 0 43 -49l-152 -1233q-6 -49 -55 -49h-133q-38 0 -55 33l-482 903l-108 -887q-3 -23 -18 -36t-38 -13h-129q-49 0 -43 49l152 1233q6 49 55 49h133q39 0 56 -33l481 -903zM604 -303q-40 0 -69 29t-23 77q6 45 41.5 73t75.5 28q41 0 70.5 -28
t23.5 -73q-6 -48 -42 -77t-77 -29z" />
    <glyph glyph-name="uni1E47" unicode="&#x1e47;" horiz-adv-x="1101" 
d="M711 956q55 0 104.5 -12t95 -40.5t76.5 -71t45 -108t4 -146.5l-65 -529q-3 -23 -18 -36t-38 -13h-122q-49 0 -43 49l61 496q7 61 -7 106.5t-43.5 70t-64 36.5t-73.5 12q-84 0 -154 -54.5t-84 -170.5l-61 -496q-3 -23 -18 -36t-38 -13h-121q-49 0 -43 49l105 844
q1 23 15.5 36t37.5 13h121q48 0 45 -49l-8 -51q111 114 291 114zM492 -303q-40 0 -69.5 29t-23.5 77q6 45 41.5 73t75.5 28q41 0 70.5 -28t23.5 -73q-6 -48 -41.5 -77t-76.5 -29z" />
    <glyph glyph-name="uni1E62" unicode="&#x1e62;" horiz-adv-x="1241" 
d="M106 254q-15 40 27 68l117 73q22 13 36.5 10t28.5 -24q45 -71 140 -123.5t215 -52.5q131 0 194 45t74 129q4 31 -11 58.5t-38.5 45t-62 35t-68 27t-71 21.5t-58.5 18q-9 3 -49 14.5t-65.5 20t-69 26.5t-72.5 36t-62.5 47.5t-52 62.5t-28 78.5t-3.5 97.5q12 99 62 175
t127 122t170.5 69t199.5 23q164 0 291 -70t172 -170q15 -40 -28 -65l-111 -66q-42 -23 -66 14q-40 52 -124 89.5t-187 37.5q-110 0 -173 -39t-71 -110q-4 -30 10 -56.5t34.5 -43t58.5 -33.5t64 -25t71.5 -21t60.5 -18q8 -3 41 -13.5t55.5 -18.5t61 -23t65.5 -31t60 -38.5
t55 -49.5t40.5 -59t25 -72.5t0.5 -85.5q-24 -200 -177 -307t-397 -107q-197 0 -331 79.5t-181 199.5zM590 -319q-40 0 -69 29t-23 77q6 45 41 72.5t75 27.5q41 0 71 -27.5t24 -72.5q-6 -48 -42 -77t-77 -29z" />
    <glyph glyph-name="uni1E6C" unicode="&#x1e6c;" horiz-adv-x="1204" 
d="M1221 1331q49 0 43 -49l-15 -111q-6 -49 -55 -49h-360l-132 -1073q-6 -49 -55 -49h-131q-49 0 -43 49l131 1073h-360q-49 0 -43 49l14 111q6 49 55 49h951zM543 -301q-40 0 -69 29t-23 77q6 45 41 73t75 28q41 0 71 -28t24 -73q-6 -48 -42 -77t-77 -29z" />
    <glyph glyph-name="uni1E6D" unicode="&#x1e6d;" horiz-adv-x="681" 
d="M692 823q-1 -23 -16 -36t-39 -13h-160l-59 -483q-4 -38 3.5 -63t26 -36.5t37 -15.5t45.5 -4h23q49 0 43 -49l-8 -74q-3 -23 -18 -36t-38 -13h-110q-129 0 -186 65.5t-43 190.5l63 518h-76q-46 0 -43 49l10 70q1 23 16 36t38 13h75l31 240q6 49 55 49h123q49 0 43 -49
l-30 -240h159q48 0 45 -49zM391 -297q-40 0 -69 29.5t-23 77.5q6 45 41.5 72.5t75.5 27.5q41 0 70.5 -27.5t23.5 -72.5q-6 -48 -42 -77.5t-77 -29.5z" />
    <glyph glyph-name="Wgrave" unicode="&#x1e80;" horiz-adv-x="1943" 
d="M1116 1675q39 0 53 -37l43 -127q9 -25 -2 -41t-39 -16h-81q-43 0 -54 35l-51 129q-9 26 4 41.5t41 15.5h86zM1788 1290q18 41 63 41h140q26 0 34.5 -15t-2.5 -40l-563 -1235q-15 -41 -61 -41h-109q-44 0 -53 41l-170 819l-373 -819q-15 -41 -61 -41h-109q-44 0 -53 41
l-260 1235q-4 25 9.5 40t39.5 15h139q46 0 52 -41l182 -874l395 874q18 41 62 41h81q46 0 52 -41l180 -846z" />
    <glyph glyph-name="wgrave" unicode="&#x1e81;" horiz-adv-x="1533" 
d="M858 1300q40 0 53 -36l43 -127q9 -25 -2.5 -41.5t-38.5 -16.5h-82q-42 0 -53 35l-51 129q-9 26 4 41.5t41 15.5h86zM1348 901q17 41 59 41h127q26 0 36 -15t-1 -40l-385 -846q-15 -41 -60 -41h-129q-44 0 -53 41l-121 561l-262 -563q-14 -39 -61 -39h-129q-44 0 -52 41
l-170 846q-4 26 8.5 40.5t39.5 14.5h124q46 0 52 -41l116 -590l277 592q17 39 61 39h78q47 0 53 -39l131 -592z" />
    <glyph glyph-name="Wacute" unicode="&#x1e82;" horiz-adv-x="1943" 
d="M1155 1638q19 37 62 37h86q28 0 35.5 -15.5t-7.5 -41.5l-80 -129q-22 -35 -61 -35h-82q-28 0 -36 16t7 41zM1788 1290q18 41 63 41h140q26 0 34.5 -15t-2.5 -40l-563 -1235q-15 -41 -61 -41h-109q-44 0 -53 41l-170 819l-373 -819q-15 -41 -61 -41h-109q-44 0 -53 41
l-260 1235q-4 25 9.5 40t39.5 15h139q46 0 52 -41l182 -874l395 874q18 41 62 41h81q46 0 52 -41l180 -846z" />
    <glyph glyph-name="wacute" unicode="&#x1e83;" horiz-adv-x="1533" 
d="M897 1264q19 36 61 36h86q28 0 36 -15.5t-7 -41.5l-80 -129q-22 -35 -61 -35h-82q-28 0 -36 16.5t7 41.5zM1348 901q17 41 59 41h127q26 0 36 -15t-1 -40l-385 -846q-15 -41 -60 -41h-129q-44 0 -53 41l-121 561l-262 -563q-14 -39 -61 -39h-129q-44 0 -52 41l-170 846
q-4 26 8.5 40.5t39.5 14.5h124q46 0 52 -41l116 -590l277 592q17 39 61 39h78q47 0 53 -39l131 -592z" />
    <glyph glyph-name="Wdieresis" unicode="&#x1e84;" horiz-adv-x="1943" 
d="M944 1430q-40 0 -68 29t-22 77q6 45 41.5 72.5t75.5 27.5q41 0 70.5 -27.5t23.5 -72.5q-6 -48 -42.5 -77t-78.5 -29zM1325 1430q-41 0 -68.5 29t-21.5 77q6 45 41 72.5t76 27.5t69.5 -27.5t22.5 -72.5q-6 -48 -42 -77t-77 -29zM1788 1290q18 41 63 41h140q26 0 34.5 -15
t-2.5 -40l-563 -1235q-15 -41 -61 -41h-109q-44 0 -53 41l-170 819l-373 -819q-15 -41 -61 -41h-109q-44 0 -53 41l-260 1235q-4 25 9.5 40t39.5 15h139q46 0 52 -41l182 -874l395 874q18 41 62 41h81q46 0 52 -41l180 -846z" />
    <glyph glyph-name="wdieresis" unicode="&#x1e85;" horiz-adv-x="1533" 
d="M686 1055q-40 0 -68 29t-22 77q6 45 41.5 73t75.5 28q41 0 70.5 -28t23.5 -73q-6 -48 -42.5 -77t-78.5 -29zM1067 1055q-41 0 -68.5 29t-21.5 77q6 45 41 73t76 28t69.5 -28t22.5 -73q-6 -48 -42 -77t-77 -29zM1348 901q17 41 59 41h127q26 0 36 -15t-1 -40l-385 -846
q-15 -41 -60 -41h-129q-44 0 -53 41l-121 561l-262 -563q-14 -39 -61 -39h-129q-44 0 -52 41l-170 846q-4 26 8.5 40.5t39.5 14.5h124q46 0 52 -41l116 -590l277 592q17 39 61 39h78q47 0 53 -39l131 -592z" />
    <glyph glyph-name="uni1E92" unicode="&#x1e92;" horiz-adv-x="1107" 
d="M1155 1171q-3 -34 -25 -59l-749 -901l594 -2q46 0 43 -49l-14 -111q-3 -23 -18 -36t-38 -13h-821q-49 0 -43 49l14 111q3 34 25 59l741 901h-588q-49 0 -43 49l15 113q6 49 55 49h823q49 0 43 -49zM504 -303q-40 0 -69 29t-23 77q6 45 41 73t75 28q41 0 71 -28t24 -73
q-6 -48 -42 -77t-77 -29z" />
    <glyph glyph-name="uni1E93" unicode="&#x1e93;" horiz-adv-x="872" 
d="M840 942q48 0 45 -49l-11 -82q-6 -37 -28 -61l-490 -568h387q49 0 43 -49l-10 -84q-6 -49 -55 -49h-615q-49 0 -43 49l11 82q3 37 28 62l490 567h-387q-48 0 -45 49l12 84q1 23 15.5 36t37.5 13h615zM381 -303q-40 0 -69 29t-23 77q6 45 41.5 73t75.5 28q41 0 70.5 -28
t23.5 -73q-6 -48 -42 -77t-77 -29z" />
    <glyph glyph-name="uni1EA0" unicode="&#x1ea0;" horiz-adv-x="1349" 
d="M1094 0q-40 0 -52 39l-61 217h-569l-115 -217q-19 -39 -59 -39h-140q-28 0 -37 16t5 41l653 1235q22 39 63 39h92q43 0 52 -39l352 -1235q8 -25 -4.5 -41t-40.5 -16h-139zM520 465h406l-142 508zM635 -303q-40 0 -69 29t-23 77q6 45 41 73t75 28q41 0 71 -28t24 -73
q-6 -48 -42 -77t-77 -29z" />
    <glyph glyph-name="uni1EA1" unicode="&#x1ea1;" 
d="M924 893q1 23 15.5 36t37.5 13h121q48 0 45 -49l-105 -844q-6 -49 -55 -49h-121q-49 0 -43 49l8 72q-124 -137 -313 -137q-196 0 -307.5 138t-85.5 349q26 213 170.5 349t341.5 136q192 0 280 -137zM569 190q120 0 203.5 79t97.5 202q15 123 -48 201t-183 78t-204 -78
t-99 -201q-14 -123 49.5 -202t183.5 -79zM565 -309q-40 0 -69 29t-23 77q6 45 41.5 73t75.5 28q41 0 70.5 -28t23.5 -73q-6 -48 -42 -77t-77 -29z" />
    <glyph glyph-name="uni1EB8" unicode="&#x1eb8;" horiz-adv-x="1114" 
d="M1128 1171q-6 -49 -55 -49h-610l-43 -352h567q49 0 43 -49l-12 -111q-6 -49 -55 -49h-568l-43 -352h611q46 0 43 -49l-15 -111q-6 -49 -55 -49h-789q-49 0 -43 49l152 1233q6 49 55 49h789q49 0 43 -49zM516 -299q-40 0 -69 29t-23 77q6 45 41.5 73t75.5 28
q41 0 70.5 -28t23.5 -73q-6 -48 -42 -77t-77 -29z" />
    <glyph glyph-name="uni1EB9" unicode="&#x1eb9;" horiz-adv-x="1089" 
d="M649 958q204 0 312 -137t81 -350v-12q-6 -49 -55 -49h-659q3 -110 67 -175t168 -65q134 0 225 80q38 31 70 6l66 -53q39 -31 2 -68q-73 -73 -172.5 -113t-212.5 -40q-213 0 -329.5 138t-90.5 351q27 214 172 350.5t356 136.5zM629 784q-102 0 -176 -62.5t-107 -170.5h502
q-6 104 -62.5 168.5t-156.5 64.5zM498 -313q-40 0 -69 29t-23 77q6 45 41 73t75 28q41 0 70.5 -28t23.5 -73q-6 -48 -41.5 -77t-76.5 -29z" />
    <glyph glyph-name="uni1EBC" unicode="&#x1ebc;" horiz-adv-x="1114" 
d="M463 1446q-53 0 -41 51q24 79 79 126.5t134 47.5q88 0 141 -69q37 -52 82 -52q50 0 74 49q19 46 57 46h35q25 0 35 -13.5t4 -38.5q-25 -80 -80.5 -127t-140.5 -47q-89 0 -144 72q-20 25 -36 37t-39 12q-45 0 -70 -49q-16 -45 -55 -45h-35zM1128 1171q-6 -49 -55 -49h-610
l-43 -352h567q49 0 43 -49l-12 -111q-6 -49 -55 -49h-568l-43 -352h611q46 0 43 -49l-15 -111q-6 -49 -55 -49h-789q-49 0 -43 49l152 1233q6 49 55 49h789q49 0 43 -49z" />
    <glyph glyph-name="uni1EBD" unicode="&#x1ebd;" horiz-adv-x="1089" 
d="M397 1071q-53 0 -41 51q24 79 79 126.5t134 47.5q89 0 142 -69q37 -51 82 -51q49 0 73 49q19 45 58 45h34q51 0 39 -51q-25 -80 -80.5 -127.5t-140.5 -47.5q-88 0 -143 72q-20 25 -36.5 37t-39.5 12q-45 0 -70 -49q-16 -45 -55 -45h-35zM649 958q204 0 312 -137t81 -350
v-12q-6 -49 -55 -49h-659q3 -110 67 -175t168 -65q134 0 225 80q38 31 70 6l66 -53q39 -31 2 -68q-73 -73 -172.5 -113t-212.5 -40q-213 0 -329.5 138t-90.5 351q27 214 172 350.5t356 136.5zM629 784q-102 0 -176 -62.5t-107 -170.5h502q-6 104 -62.5 168.5t-156.5 64.5z
" />
    <glyph glyph-name="uni1ECA" unicode="&#x1eca;" horiz-adv-x="462" 
d="M332 49q-3 -23 -18 -36t-38 -13h-129q-49 0 -43 49l152 1233q6 49 55 49h129q49 0 43 -49zM174 -303q-40 0 -69 29t-23 77q6 45 41.5 73t75.5 28q41 0 70.5 -28t23.5 -73q-6 -48 -42 -77t-77 -29z" />
    <glyph glyph-name="uni1ECB" unicode="&#x1ecb;" horiz-adv-x="483" 
d="M356 1102q-49 0 -81 34.5t-25 90.5q6 55 47 88t90 33t83 -33t28 -88q-7 -56 -50 -90.5t-92 -34.5zM338 49q-6 -49 -55 -49h-123q-49 0 -43 49l104 844q1 23 15.5 36t37.5 13h125q48 0 45 -49zM182 -319q-40 0 -69 29t-23 77q6 45 41.5 72.5t75.5 27.5q41 0 70.5 -27.5
t23.5 -72.5q-6 -48 -42 -77t-77 -29z" />
    <glyph glyph-name="uni1ECC" unicode="&#x1ecc;" horiz-adv-x="1519" 
d="M745 -16q-146 0 -264.5 51.5t-195 141.5t-110 216.5t-15.5 272.5t83 272.5t163.5 216.5t229.5 141.5t277 51.5q195 0 336.5 -88t205.5 -243t40 -351q-18 -147 -82.5 -273t-162.5 -216t-228.5 -141.5t-276.5 -51.5zM774 211q196 0 331.5 128t160.5 327t-80 326.5
t-301 127.5t-334.5 -128t-163.5 -326t82.5 -326.5t304.5 -128.5zM709 -317q-40 0 -69.5 29t-23.5 77q6 45 41.5 72.5t75.5 27.5q41 0 70.5 -27.5t23.5 -72.5q-6 -48 -41.5 -77t-76.5 -29z" />
    <glyph glyph-name="uni1ECD" unicode="&#x1ecd;" horiz-adv-x="1136" 
d="M547 -18q-213 0 -332.5 138.5t-93.5 350.5q26 214 180 352t367 138t330.5 -137.5t91.5 -352.5q-26 -212 -178.5 -350.5t-364.5 -138.5zM571 190q119 0 202 80t97 201q15 122 -48 200.5t-181 78.5q-119 0 -202.5 -79t-98.5 -200q-14 -122 49.5 -201.5t181.5 -79.5z
M510 -319q-40 0 -69 29t-23 77q6 45 41.5 72.5t75.5 27.5q41 0 70.5 -27.5t23.5 -72.5q-6 -48 -42 -77t-77 -29z" />
    <glyph glyph-name="uni1EE4" unicode="&#x1ee4;" horiz-adv-x="1257" 
d="M1049 1282q6 49 55 49h131q49 0 43 -49l-100 -815q-12 -100 -57.5 -187t-117.5 -153.5t-174.5 -104.5t-222.5 -38t-213 38t-148 104.5t-78 153.5t-11 187l100 815q6 49 55 49h129q49 0 43 -49l-98 -790q-17 -142 52.5 -214.5t195.5 -72.5q127 0 213.5 72.5t103.5 214.5z
M571 -307q-40 0 -69 29t-23 77q6 45 41.5 73t75.5 28q41 0 70.5 -28t23.5 -73q-6 -48 -42 -77t-77 -29z" />
    <glyph glyph-name="uni1EE5" unicode="&#x1ee5;" horiz-adv-x="1101" 
d="M854 893q1 23 15.5 36t37.5 13h123q48 0 45 -49l-104 -844q-3 -23 -18 -36t-38 -13h-122q-49 0 -43 49l6 49q-111 -114 -291 -114q-55 0 -104.5 12t-94.5 41t-75.5 71.5t-44 108.5t-3.5 148l66 528q1 23 15.5 36t37.5 13h121q48 0 45 -49l-61 -496q-7 -61 7 -106.5
t43.5 -70t63.5 -36.5t72 -12q85 0 155.5 54.5t84.5 170.5zM494 -313q-40 0 -69.5 29t-23.5 77q6 45 41.5 73t75.5 28q41 0 70.5 -28t23.5 -73q-6 -48 -41.5 -77t-76.5 -29z" />
    <glyph glyph-name="Ygrave" unicode="&#x1ef2;" horiz-adv-x="1253" 
d="M766 1675q39 0 53 -37l43 -127q9 -25 -2 -41t-39 -16h-82q-42 0 -53 35l-51 129q-9 26 4 41.5t41 15.5h86zM1292 1331q29 0 36.5 -17t-11.5 -42l-522 -699l-64 -524q-6 -49 -55 -49h-129q-49 0 -43 49l63 518l-352 705q-12 26 0 42.5t41 16.5h154q38 0 55 -33l244 -489
l366 489q23 33 64 33h153z" />
    <glyph glyph-name="ygrave" unicode="&#x1ef3;" horiz-adv-x="1034" 
d="M606 1300q40 0 53 -36l43 -127q9 -25 -2 -41.5t-38 -16.5h-82q-43 0 -54 35l-51 129q-9 26 4 41.5t41 15.5h86zM846 903q22 39 59 39h127q28 0 37 -16t-4 -41l-637 -1223q-22 -39 -61 -39h-113q-27 0 -35.5 16.5t4.5 41.5l166 319l-239 885q-6 25 6 41t39 16h124
q43 0 52 -39l161 -598z" />
    <glyph glyph-name="uni1EF4" unicode="&#x1ef4;" horiz-adv-x="1253" 
d="M1292 1331q29 0 36.5 -17t-11.5 -42l-522 -699l-64 -524q-6 -49 -55 -49h-129q-49 0 -43 49l63 518l-352 705q-12 26 0 42.5t41 16.5h154q38 0 55 -33l244 -489l366 489q23 33 64 33h153zM573 -303q-40 0 -69 29t-23 77q6 45 41.5 73t75.5 28q41 0 70.5 -28t23.5 -73
q-6 -48 -42 -77t-77 -29z" />
    <glyph glyph-name="uni1EF5" unicode="&#x1ef5;" horiz-adv-x="1034" 
d="M846 903q22 39 59 39h127q28 0 37 -16t-4 -41l-637 -1223q-22 -39 -61 -39h-113q-27 0 -35.5 16.5t4.5 41.5l166 319l-239 885q-6 25 6 41t39 16h124q43 0 52 -39l161 -598zM684 -365q-40 0 -69 29.5t-23 77.5q6 45 41.5 72.5t75.5 27.5q41 0 70.5 -27.5t23.5 -72.5
q-6 -48 -42 -77.5t-77 -29.5z" />
    <glyph glyph-name="uni1EF8" unicode="&#x1ef8;" horiz-adv-x="1253" 
d="M520 1446q-53 0 -41 51q24 79 79 126.5t134 47.5q89 0 142 -69q37 -52 81 -52q50 0 74 49q19 46 58 46h34q25 0 35 -13.5t4 -38.5q-25 -80 -80.5 -127t-140.5 -47q-88 0 -143 72q-20 25 -36.5 37t-39.5 12q-45 0 -70 -49q-16 -45 -55 -45h-35zM1292 1331q29 0 36.5 -17
t-11.5 -42l-522 -699l-64 -524q-6 -49 -55 -49h-129q-49 0 -43 49l63 518l-352 705q-12 26 0 42.5t41 16.5h154q38 0 55 -33l244 -489l366 489q23 33 64 33h153z" />
    <glyph glyph-name="uni1EF9" unicode="&#x1ef9;" horiz-adv-x="1034" 
d="M360 1071q-53 0 -41 51q24 79 79 126.5t134 47.5q89 0 142 -69q37 -51 82 -51q49 0 73 49q19 45 58 45h35q51 0 39 -51q-25 -80 -81 -127.5t-141 -47.5q-88 0 -143 72q-20 25 -36.5 37t-39.5 12q-44 0 -69 -49q-16 -45 -56 -45h-35zM846 903q22 39 59 39h127q28 0 37 -16
t-4 -41l-637 -1223q-22 -39 -61 -39h-113q-27 0 -35.5 16.5t4.5 41.5l166 319l-239 885q-6 25 6 41t39 16h124q43 0 52 -39l161 -598z" />
    <glyph glyph-name="endash" unicode="&#x2013;" horiz-adv-x="1009" 
d="M176 637q6 49 55 49h676q49 0 43 -49l-12 -111q-6 -49 -55 -49h-676q-49 0 -43 49z" />
    <glyph glyph-name="emdash" unicode="&#x2014;" horiz-adv-x="1230" 
d="M176 635q6 49 55 49h895q49 0 43 -49l-14 -111q-1 -23 -16 -36t-39 -13h-895q-46 0 -43 49z" />
    <glyph glyph-name="quoteleft" unicode="&#x2018;" horiz-adv-x="403" 
d="M412 1042q-11 -43 -58 -43h-112q-28 0 -36.5 16t3.5 42l119 235q20 39 61 39h66q25 0 34.5 -14t2.5 -39z" />
    <glyph glyph-name="quoteright" unicode="&#x2019;" horiz-adv-x="403" 
d="M274 1288q14 43 60 43h115q27 0 35 -16t-5 -41l-121 -236q-17 -39 -59 -39h-63q-25 0 -35.5 14t-3.5 40z" />
    <glyph glyph-name="quotesinglbase" unicode="&#x201a;" horiz-adv-x="403" 
d="M131 109q11 43 57 43h115q27 0 36 -16.5t-3 -41.5l-121 -231q-22 -39 -61 -39h-64q-25 0 -34.5 14t-2.5 39z" />
    <glyph glyph-name="quotedblleft" unicode="&#x201c;" horiz-adv-x="782" 
d="M412 1042q-11 -43 -58 -43h-112q-28 0 -36.5 16t3.5 42l119 235q20 39 61 39h66q25 0 34.5 -14t2.5 -39zM791 1042q-11 -43 -58 -43h-112q-28 0 -36.5 16t3.5 42l119 235q20 39 61 39h66q25 0 34.5 -14t1.5 -39z" />
    <glyph glyph-name="quotedblright" unicode="&#x201d;" horiz-adv-x="782" 
d="M274 1288q14 43 60 43h115q27 0 35 -16t-5 -41l-121 -236q-17 -39 -59 -39h-63q-25 0 -35.5 14t-3.5 40zM655 1288q14 43 60 43h112q27 0 35 -15.5t-4 -41.5l-119 -236q-17 -39 -59 -39h-66q-25 0 -34.5 14.5t-1.5 39.5z" />
    <glyph glyph-name="quotedblbase" unicode="&#x201e;" horiz-adv-x="782" 
d="M131 109q11 43 57 43h115q27 0 36 -16.5t-3 -41.5l-121 -235q-20 -39 -61 -39h-64q-54 0 -39 53zM512 109q11 43 57 43h113q28 0 36.5 -16t-3.5 -42l-119 -235q-20 -39 -61 -39h-66q-25 0 -34.5 14t-2.5 39z" />
    <glyph glyph-name="dagger" unicode="&#x2020;" horiz-adv-x="886" 
d="M815 956q49 0 43 -49l-8 -71q-3 -23 -17.5 -36.5t-37.5 -13.5h-170l-90 -737q-3 -23 -18 -36t-38 -13h-110q-49 0 -43 49l90 737h-172q-23 0 -34.5 13.5t-8.5 36.5l8 71q6 49 55 49h172l41 326q6 49 55 49h111q49 0 43 -49l-41 -326h170z" />
    <glyph glyph-name="daggerdbl" unicode="&#x2021;" horiz-adv-x="886" 
d="M854 862q-6 -49 -55 -49h-170l-35 -281h170q49 0 43 -49l-8 -73q-3 -23 -18 -36.5t-38 -13.5h-170l-38 -311q-3 -23 -18 -36t-38 -13h-110q-49 0 -43 49l39 311h-172q-23 0 -34.5 13.5t-8.5 36.5l8 73q6 49 55 49h172l35 281h-172q-49 0 -43 49l8 74q6 49 55 49h172
l37 297q6 49 55 49h111q49 0 43 -49l-37 -297h170q49 0 43 -49z" />
    <glyph glyph-name="bullet" unicode="&#x2022;" horiz-adv-x="499" 
d="M307 473q-85 0 -132 54t-36 139t70.5 138.5t144.5 53.5t132.5 -53.5t37.5 -138.5t-71 -139t-146 -54z" />
    <glyph glyph-name="ellipsis" unicode="&#x2026;" horiz-adv-x="1193" 
d="M174 -10q-52 0 -81 34t-21 87q6 52 43 85t90 33t82.5 -33t23.5 -85q-8 -53 -46.5 -87t-90.5 -34zM598 -10q-52 0 -81 34t-21 87q6 52 43 85t90 33t82.5 -33t23.5 -85q-8 -53 -46.5 -87t-90.5 -34zM1016 -10q-52 0 -81.5 34t-21.5 87q6 52 43.5 85t90.5 33t82.5 -33
t23.5 -85q-8 -53 -46.5 -87t-90.5 -34z" />
    <glyph glyph-name="perthousand" unicode="&#x2030;" horiz-adv-x="2514" 
d="M498 700q-136 0 -214 91t-61 229q19 142 117 231.5t235 89.5q135 0 213.5 -90t59.5 -231q-17 -138 -116.5 -229t-233.5 -91zM600 35q-20 -35 -61 -35h-70q-29 0 -36.5 17t9.5 42l822 1237q20 35 61 35h70q29 0 36.5 -17t-10.5 -42zM516 848q74 0 124.5 48.5t59.5 123.5
q9 76 -29 125t-112 49t-126.5 -49t-61.5 -125q-9 -74 31 -123t114 -49zM1286 -12q-135 0 -213 90.5t-61 228.5q19 142 118.5 232t235.5 90t213.5 -90t58.5 -232q-17 -138 -117 -228.5t-235 -90.5zM2064 -12q-137 0 -215 90.5t-61 228.5q19 142 119 232t237 90
q135 0 212.5 -90.5t58.5 -231.5q-17 -138 -117 -228.5t-234 -90.5zM1305 135q74 0 126 49t60 123q9 76 -30 125t-113 49q-73 0 -126.5 -49.5t-62.5 -124.5q-8 -74 32.5 -123t113.5 -49zM2083 135q73 0 124.5 49t59.5 123q9 76 -29.5 125t-111.5 49q-75 0 -128.5 -49.5
t-62.5 -124.5q-8 -75 33 -123.5t115 -48.5z" />
    <glyph glyph-name="guilsinglleft" unicode="&#x2039;" horiz-adv-x="772" 
d="M659 338q19 -25 9.5 -43.5t-41.5 -18.5h-146q-38 0 -59 27l-256 320q-25 36 10 69l334 320q26 26 63 26h146q32 0 38.5 -18t-18.5 -43l-336 -320z" />
    <glyph glyph-name="guilsinglright" unicode="&#x203a;" horiz-adv-x="772" 
d="M174 276q-32 0 -38.5 18.5t18.5 43.5l333 319l-254 320q-19 25 -9 43t42 18h146q39 0 59 -26l256 -320q25 -36 -10 -69l-334 -320q-27 -27 -64 -27h-145z" />
    <glyph glyph-name="fraction" unicode="&#x2044;" horiz-adv-x="1015" 
d="M178 33q-24 -33 -63 -33h-4q-30 0 -37.5 16.5t12.5 42.5l915 1239q21 33 64 33h4q29 0 36.5 -16.5t-11.5 -42.5z" />
    <glyph glyph-name="uni2070" unicode="&#x2070;" horiz-adv-x="849" 
d="M444 518q-153 0 -231.5 116t-56.5 298q24 184 131 300t260 116q154 0 234.5 -116.5t58.5 -299.5q-24 -182 -132.5 -298t-263.5 -116zM461 653q88 0 153 75t82 204q15 130 -32 203t-134 73q-89 0 -154.5 -73t-80.5 -203q-17 -129 30 -204t136 -75z" />
    <glyph glyph-name="uni2074" unicode="&#x2074;" horiz-adv-x="774" 
d="M715 782q29 0 26 -28l-6 -43q-3 -29 -33 -29h-65l-14 -125q-6 -29 -35 -29h-78q-14 0 -21 8t-4 21l15 125h-381q-28 0 -25 29l4 41q3 18 19 34l446 527q15 18 39 18h86q31 0 25 -28l-64 -521h66zM238 782h274l45 373z" />
    <glyph glyph-name="uni2075" unicode="&#x2075;" horiz-adv-x="716" 
d="M399 1055q155 0 226 -74t57 -188q-15 -124 -108.5 -195.5t-227.5 -71.5q-153 0 -246 97q-16 19 6 41l58 53q18 21 41 2q60 -60 149 -60q74 0 128 38t63 104q7 65 -39.5 103t-122.5 38q-65 0 -127 -20q-28 -9 -37 14l-16 39q-7 23 -2 39l88 299q6 26 37 26h360
q30 0 27 -28l-8 -68q-6 -29 -35 -29h-281l-47 -163q40 4 57 4z" />
    <glyph glyph-name="uni2076" unicode="&#x2076;" horiz-adv-x="751" 
d="M455 1098q123 0 194 -83t56 -208q-14 -123 -106.5 -207t-215.5 -84q-122 0 -193.5 83.5t-56.5 207.5q12 100 72 172l260 332q14 20 39 20h82q19 0 22.5 -11t-8.5 -26l-151 -196h6zM399 647q68 0 117.5 45t58.5 115q8 71 -31 116.5t-106 45.5q-69 0 -118 -45.5t-58 -116.5
q-8 -71 30 -115.5t107 -44.5z" />
    <glyph glyph-name="uni2077" unicode="&#x2077;" horiz-adv-x="606" 
d="M160 528q-17 0 -22.5 10t3.5 25l375 641h-321q-14 0 -21 8t-4 21l8 67q3 29 33 29h451q29 0 26 -29l-8 -45q0 -15 -12 -36l-389 -668q-14 -23 -37 -23h-82z" />
    <glyph glyph-name="uni2078" unicode="&#x2078;" horiz-adv-x="741" 
d="M604 944q54 -30 79 -80t17 -108q-13 -107 -95 -174.5t-222 -67.5t-207 67.5t-53 174.5q6 59 43.5 108.5t101.5 79.5q-99 61 -88 180q12 88 90.5 153.5t212.5 65.5q70 0 122.5 -19.5t80.5 -51.5t39 -69.5t6 -78.5q-5 -53 -37.5 -101t-89.5 -79zM471 1239q-72 0 -115 -36
t-51 -87q-5 -53 29 -88t106 -35q74 0 116.5 35t47.5 88q7 51 -26.5 87t-106.5 36zM397 629q74 0 119 37t53 96q6 57 -29.5 95t-109.5 38q-75 0 -121.5 -38t-52.5 -95q-8 -57 29 -95t112 -38z" />
    <glyph glyph-name="uni2079" unicode="&#x2079;" horiz-adv-x="753" 
d="M756 1051q-11 -93 -74 -172l-258 -332q-15 -21 -37 -21h-84q-17 0 -21 11t7 26l149 197h-6q-122 0 -193 83t-57 208q15 122 107.5 206t214.5 84t194 -84t58 -206zM449 889q78 0 131 59l4 4q36 48 41 99q9 70 -30 114.5t-108 44.5q-67 0 -117 -44.5t-57 -114.5
q-9 -70 29.5 -116t106.5 -46z" />
    <glyph glyph-name="Euro" unicode="&#x20ac;" horiz-adv-x="1185" 
d="M1087 1139q-134 0 -248 -61t-180 -185h340q46 0 43 -49l-4 -21q-1 -23 -16 -36t-39 -13h-373q-13 -45 -20 -108q-6 -41 -6 -115h372q49 0 43 -49l-2 -21q-6 -49 -55 -49h-338q38 -121 137 -180t232 -59q31 0 49 2q51 0 45 -50l-14 -110q-6 -49 -54 -49q-37 -2 -92 -2
q-220 0 -361 121t-175 327h-170q-49 0 -43 49l2 21q6 49 55 49h145q0 27 9 115q6 56 18 108h-145q-46 0 -43 49l4 21q1 23 16 36t39 13h168q83 208 255 331.5t394 123.5h90q49 0 43 -50l-14 -110q-6 -46 -55 -49h-52z" />
    <glyph glyph-name="trademark" unicode="&#x2122;" horiz-adv-x="2748" 
d="M1221 1331q49 0 43 -49l-15 -111q-6 -49 -55 -49h-360l-132 -1073q-6 -49 -55 -49h-131q-49 0 -43 49l131 1073h-360q-49 0 -43 49l14 111q6 49 55 49h951zM2726 1331q49 0 43 -49l-152 -1233q-6 -49 -55 -49h-131q-49 0 -43 49l100 825l-409 -681q-22 -37 -66 -37h-76
q-42 0 -53 37l-246 684l-102 -828q-6 -49 -55 -49h-129q-49 0 -43 49l151 1233q3 23 18 36t38 13h143q41 0 55 -35l303 -802l502 802q20 35 61 35h146z" />
    <glyph glyph-name="oneeighth" unicode="&#x215b;" horiz-adv-x="1097" 
d="M166 33q-24 -33 -64 -33h-4q-30 0 -37 16.5t13 42.5l915 1239q21 33 64 33h4q29 0 36 -16.5t-12 -42.5zM426 1331q26 0 23 -24l-78 -623q-4 -25 -27 -25h-68q-10 0 -16 7t-4 18l66 543h-123q-26 0 -23 24l8 56q3 24 29 24h213zM1014 342q43 -26 63.5 -67.5t14.5 -88.5
q-11 -88 -79 -143t-182 -55q-116 0 -171 55t-44 143q6 47 37 88.5t82 67.5q-40 25 -57 64.5t-12 82.5q8 72 72.5 126.5t174.5 54.5q111 0 162 -54t43 -127q-5 -43 -31.5 -82.5t-72.5 -64.5zM903 584q-59 0 -94.5 -30t-40.5 -71q-5 -43 22.5 -72.5t88.5 -29.5t95.5 29.5
t39.5 72.5q5 41 -23 71t-88 30zM842 82q62 0 99 30t42 78q6 47 -23.5 79t-89.5 32q-62 0 -100.5 -32t-44.5 -79q-5 -46 25.5 -77t91.5 -31z" />
    <glyph glyph-name="threeeighths" unicode="&#x215c;" horiz-adv-x="1263" 
d="M463 1092q77 -15 123 -65.5t35 -139.5q-14 -111 -96 -169.5t-187 -58.5q-64 0 -120 23t-85 61q-13 17 6 33l43 41q20 17 35 2q49 -49 133 -49q63 0 106.5 31.5t49.5 85.5q7 56 -28 87.5t-97 31.5q-47 0 -92 -11q-12 -3 -19 2.5t-6 18.5l6 35q3 19 19 30l196 146h-235
q-26 0 -23 24l9 56q3 24 26 24h373q23 0 20 -24l-6 -54q-3 -18 -18 -30zM309 33q-24 -33 -63 -33h-4q-30 0 -37.5 16.5t12.5 42.5l916 1239q21 33 63 33h4q29 0 36.5 -16.5t-11.5 -42.5zM1180 342q43 -26 63 -67.5t14 -88.5q-11 -88 -78.5 -143t-181.5 -55q-116 0 -171 55
t-44 143q6 47 37 88.5t82 67.5q-80 51 -70 147q8 72 73 126.5t175 54.5q111 0 162 -54t43 -127q-5 -43 -31.5 -82.5t-72.5 -64.5zM1069 584q-59 0 -94.5 -30t-40.5 -71q-5 -43 22 -72.5t88 -29.5t96 29.5t40 72.5q5 41 -23 71t-88 30zM1008 82q62 0 99 30t42 78
q6 47 -23.5 79t-89.5 32q-62 0 -100.5 -32t-44.5 -79q-5 -46 25.5 -77t91.5 -31z" />
    <glyph glyph-name="fiveeighths" unicode="&#x215d;" horiz-adv-x="1271" 
d="M387 1102q130 0 189.5 -61t48.5 -158q-13 -105 -91.5 -164.5t-191.5 -59.5q-131 0 -207 80q-13 19 6 35l47 45q16 19 35 0q50 -47 125 -47q64 0 109 30.5t51 86.5q7 55 -32 87t-103 32q-54 0 -107 -17q-23 -10 -33 13l-12 32q-5 13 -2 33l74 250q5 22 31 22h305
q23 0 20 -24l-6 -55q-3 -25 -29 -25h-235l-41 -137q18 2 49 2zM317 33q-24 -33 -63 -33h-4q-30 0 -37.5 16.5t12.5 42.5l916 1239q21 33 63 33h4q29 0 36.5 -16.5t-11.5 -42.5zM1190 342q43 -26 63.5 -67.5t14.5 -88.5q-11 -88 -78.5 -143t-181.5 -55q-116 0 -171 55
t-44 143q6 47 36.5 89t81.5 67q-40 25 -57 64.5t-12 82.5q8 72 73 126.5t175 54.5q111 0 161.5 -54t42.5 -127q-5 -43 -31.5 -82.5t-72.5 -64.5zM1079 584q-59 0 -94.5 -30t-40.5 -71q-5 -43 22.5 -72.5t88.5 -29.5t95.5 29.5t39.5 72.5q5 41 -23 71t-88 30zM1018 82
q62 0 99 30t42 78q6 47 -23 79t-89 32q-62 0 -101 -32t-45 -79q-5 -46 25.5 -77t91.5 -31z" />
    <glyph glyph-name="seveneighths" unicode="&#x215e;" horiz-adv-x="1132" 
d="M166 33q-24 -33 -64 -33h-4q-30 0 -37 16.5t13 42.5l915 1239q21 33 64 33h4q29 0 36 -16.5t-12 -42.5zM231 662q-13 0 -17 8t3 20l313 537h-268q-25 0 -22 24l8 56q3 24 26 24h377q26 0 23 -24l-6 -37q0 -9 -11 -31l-325 -559q-12 -18 -31 -18h-70zM1049 342
q43 -26 63 -67.5t14 -88.5q-11 -88 -78.5 -143t-181.5 -55q-116 0 -171 55t-44 143q6 47 37 88.5t82 67.5q-80 51 -70 147q8 72 73 126.5t175 54.5q111 0 162 -54t43 -127q-5 -43 -31.5 -82.5t-72.5 -64.5zM938 584q-59 0 -94.5 -30t-40.5 -71q-5 -43 22 -72.5t88 -29.5
t96 29.5t40 72.5q5 41 -23 71t-88 30zM877 82q62 0 99 30t42 78q6 47 -23.5 79t-89.5 32q-62 0 -100.5 -32t-44.5 -79q-5 -46 25.5 -77t91.5 -31z" />
    <glyph glyph-name="arrowleft" unicode="&#x2190;" horiz-adv-x="1544" 
d="M1452 762q49 0 43 -49l-14 -109q-3 -23 -18 -36t-38 -13h-886l243 -279q28 -36 -10 -69l-72 -64q-41 -35 -69 0l-422 482q-28 36 10 69l537 480q41 35 69 0l60 -64q28 -36 -11 -70l-311 -278h889z" />
    <glyph glyph-name="arrowup" unicode="&#x2191;" horiz-adv-x="1335" 
d="M1262 803q30 -34 -9 -70l-73 -63q-39 -36 -70 0l-242 274l-110 -887q-1 -23 -16.5 -36t-39.5 -13h-110q-46 0 -43 49l110 887l-311 -276q-38 -35 -69 0l-56 65q-30 35 8 70l539 479q39 36 70 0z" />
    <glyph glyph-name="arrowright" unicode="&#x2192;" horiz-adv-x="1544" 
d="M965 1174q41 35 69 0l424 -480q28 -36 -10 -69l-539 -482q-41 -35 -69 0l-58 64q-28 36 11 69l309 279h-887q-49 0 -43 49l14 109q3 23 18 36t38 13h888l-245 278q-29 37 10 70z" />
    <glyph glyph-name="arrowdown" unicode="&#x2193;" horiz-adv-x="1335" 
d="M1108 657q42 36 70 0l57 -65q32 -36 -8 -70l-539 -479q-42 -36 -70 0l-421 481q-29 37 10 70l69 63q42 36 70 0l244 -276l108 887q3 23 18 36t38 13h110q49 0 43 -49l-108 -887z" />
    <glyph glyph-name="arrowboth" unicode="&#x2194;" horiz-adv-x="1972" 
d="M1415 1174q42 36 70 0l424 -480q28 -36 -11 -69l-538 -482q-42 -36 -70 0l-57 64q-28 36 10 69l307 279h-1020l244 -279q28 -36 -10 -69l-72 -64q-41 -35 -69 0l-422 482q-28 36 10 69l537 480q41 35 69 0l60 -64q28 -36 -11 -70l-311 -278h1026l-246 278q-28 36 11 70z
" />
    <glyph glyph-name="arrowupdn" unicode="&#x2195;" horiz-adv-x="1277" 
d="M1161 446q28 -36 -8 -69l-512 -457q-39 -36 -70 0l-391 449q-30 34 8 69l72 64q39 36 70 0l215 -240l98 801l-276 -244q-39 -36 -70 0l-55 64q-30 34 8 69l504 451q38 35 69 0l400 -451q29 -34 -9 -69l-71 -64q-39 -36 -70 0l-223 248l-100 -809l286 252q39 36 70 0z" />
    <glyph glyph-name="uni2196" unicode="&#x2196;" horiz-adv-x="1241" 
d="M1128 508q32 -36 -8 -70l-86 -78q-41 -35 -69 0l-555 633l-50 -391q-6 -49 -55 -49h-90q-49 0 -43 49l84 680q6 49 55 49h680q49 0 43 -49l-12 -92q-6 -49 -55 -49h-392z" />
    <glyph glyph-name="uni2197" unicode="&#x2197;" horiz-adv-x="1241" 
d="M481 1282q3 23 18 36t38 13h680q49 0 43 -49l-84 -680q-3 -23 -18 -36t-38 -13h-90q-49 0 -43 49l49 391l-710 -633q-42 -36 -70 0l-70 78q-28 36 9 70l708 633h-391q-49 0 -43 49z" />
    <glyph glyph-name="uni2198" unicode="&#x2198;" horiz-adv-x="1241" 
d="M1004 729q6 49 55 49h90q49 0 43 -49l-84 -680q-6 -49 -55 -49h-680q-49 0 -43 49l10 92q6 49 55 49h393l-555 633q-28 36 11 70l86 78q41 35 69 0l555 -633z" />
    <glyph glyph-name="uni2199" unicode="&#x2199;" horiz-adv-x="1241" 
d="M1178 893q28 -36 -11 -70l-710 -633h393q49 0 43 -49l-10 -92q-3 -23 -18 -36t-38 -13h-680q-49 0 -43 49l84 680q3 23 18 36t38 13h90q49 0 43 -49l-49 -391l710 633q42 36 70 0z" />
    <glyph glyph-name="partialdiff" unicode="&#x2202;" horiz-adv-x="1161" 
d="M1075 440q-25 -205 -172.5 -337t-347.5 -132q-199 0 -313.5 131.5t-89.5 337.5q26 206 172.5 336.5t345.5 130.5q21 0 57 -4q-112 218 -256 369q-22 23 -12.5 41t43.5 18h119q33 0 59 -20q146 -138 267 -356t130 -384q6 -65 -2 -131zM582 180q110 0 190.5 72t93.5 188
q15 115 -48 186.5t-173 71.5q-109 0 -189.5 -71.5t-95.5 -186.5q-13 -116 50 -188t172 -72z" />
    <glyph glyph-name="emptyset" unicode="&#x2205;" horiz-adv-x="1177" 
d="M995 1047q75 -65 107.5 -166t17.5 -224q-25 -212 -172 -348.5t-356 -136.5q-123 0 -209 47l-39 -53q-23 -33 -63 -33h-7q-29 0 -36 17.5t12 42.5l55 77q-74 65 -107 165t-20 222q26 212 175 349t360 137q115 0 207 -45l36 51q21 33 64 33h6q29 0 36.5 -17t-11.5 -43z
M348 657q-16 -153 68 -237l393 530q-58 23 -119 23q-134 0 -229.5 -89t-112.5 -227zM614 342q132 0 224.5 88.5t109.5 226.5q18 149 -63 240l-393 -530q55 -25 122 -25z" />
    <glyph glyph-name="product" unicode="&#x220f;" horiz-adv-x="1333" 
d="M1309 1331q49 0 43 -49l-15 -111q-6 -49 -55 -49h-158l-131 -1073q-6 -49 -55 -49h-111q-49 0 -43 49l131 1073h-260l-131 -1073q-6 -49 -55 -49h-111q-49 0 -43 49l131 1073h-161q-49 0 -43 49l14 111q6 49 55 49h998z" />
    <glyph glyph-name="summation" unicode="&#x2211;" horiz-adv-x="1148" 
d="M1126 1348q23 0 34.5 -13.5t8.5 -36.5l-14 -110q-6 -49 -55 -49h-559l321 -445q22 -37 -10 -69l-418 -432h551q46 0 43 -50l-14 -110q-3 -23 -18 -36t-38 -13h-813q-49 0 -43 49l13 98q3 38 30 62l459 466l-344 478q-19 28 -14 61l12 100q3 23 17.5 36.5t37.5 13.5h813z
" />
    <glyph glyph-name="minus" unicode="&#x2212;" horiz-adv-x="1048" 
d="M182 688q3 23 18 36t38 13h714q49 0 43 -49l-8 -72q-6 -49 -55 -49h-715q-49 0 -43 49z" />
    <glyph glyph-name="radical" unicode="&#x221a;" horiz-adv-x="1536" 
d="M1522 1417q49 0 43 -49l-9 -72q-6 -49 -55 -49h-276l-639 -1306q-17 -39 -60 -39h-131q-39 0 -51 39l-156 630q-6 25 8 41.5t40 16.5h108q40 0 49 -39l103 -410l583 1198q17 39 60 39h383z" />
    <glyph glyph-name="infinity" unicode="&#x221e;" horiz-adv-x="1705" 
d="M457 354q-132 0 -212 91t-65 217q14 124 117 214.5t235 90.5q115 0 194.5 -40t207.5 -163q151 123 248 163t188 40q137 0 216 -89.5t65 -215.5q-15 -127 -117.5 -217.5t-239.5 -90.5q-111 0 -183.5 41t-201.5 172q-154 -129 -243 -171t-209 -42zM475 506q142 0 320 158
q-99 96 -157.5 123.5t-123.5 27.5q-64 0 -123 -40t-67 -113q-10 -75 38.5 -115.5t112.5 -40.5zM1313 506q67 0 124.5 40t67.5 116q8 74 -39.5 113.5t-113.5 39.5t-127.5 -27t-173.5 -122q83 -91 138.5 -125.5t123.5 -34.5z" />
    <glyph glyph-name="integral" unicode="&#x222b;" horiz-adv-x="1114" 
d="M973 1417h129q49 0 43 -49l-8 -70q-3 -23 -18 -36t-38 -13h-63q-78 0 -127.5 -45.5t-67.5 -126.5l-202 -872q-23 -101 -79.5 -171.5t-127.5 -101t-152 -30.5h-127q-49 0 -43 49l8 72q3 23 18 36t38 13h59q153 0 197 172l198 854q19 83 58.5 146t90 100t104.5 55t110 18z
" />
    <glyph glyph-name="approxequal" unicode="&#x2248;" horiz-adv-x="1206" 
d="M1012 961q15 49 57 49h72q23 0 34 -13.5t7 -38.5q-27 -126 -113.5 -203t-218.5 -77q-42 0 -76 8.5t-61 27t-42 31.5t-38 37q-4 4 -14.5 15.5t-14 15t-13 12.5t-13.5 12t-12.5 9t-14.5 8t-14.5 5t-17.5 4t-19 1q-92 0 -135 -106q-12 -47 -56 -47h-71q-24 0 -35.5 13.5
t-7.5 37.5q27 126 111 203t210 77q41 0 74.5 -9t63 -31t40 -31.5t37.5 -38.5q42 -44 71.5 -63t67.5 -19q44 0 83 26t59 85zM961 557q15 49 57 49h72q24 0 35.5 -13.5t7.5 -37.5q-29 -126 -115 -202.5t-217 -76.5q-42 0 -75.5 8.5t-61.5 27.5t-42.5 32t-37.5 37
q-4 4 -14.5 15.5t-14 15t-13 12.5t-13.5 12t-12.5 9t-14.5 8t-14.5 5t-17.5 4t-19 1q-48 0 -83 -30.5t-51 -78.5q-16 -45 -57 -45h-72q-24 0 -35.5 13.5t-7.5 37.5q27 125 111.5 202t210.5 77q41 0 74.5 -9t62.5 -30.5t40.5 -32t37.5 -37.5q42 -43 71.5 -62t67.5 -19
q106 0 140 108z" />
    <glyph glyph-name="notequal" unicode="&#x2260;" horiz-adv-x="1048" 
d="M1014 829q-3 -23 -18 -36t-38 -13h-227l-129 -245h326q23 0 34.5 -13.5t8.5 -36.5l-8 -71q-3 -23 -18 -36t-38 -13h-395l-80 -152q-22 -39 -61 -39h-60q-27 0 -35.5 16t5.5 41l69 134h-157q-49 0 -43 49l8 71q3 23 17.5 36.5t37.5 13.5h225l131 245h-325q-49 0 -43 49
l8 72q6 49 55 49h393l80 152q22 39 60 39h61q28 0 37.5 -16.5t-4.5 -41.5l-70 -133h158q49 0 43 -49z" />
    <glyph glyph-name="lessequal" unicode="&#x2264;" horiz-adv-x="917" 
d="M852 1036q26 8 40 -3.5t11 -37.5l-8 -57q-3 -42 -47 -55l-414 -115l385 -115q41 -12 35 -55l-8 -57q-3 -26 -20 -37.5t-40 -3.5l-559 172q-38 12 -32 55l8 82q6 43 49 55zM180 264q-49 0 -43 49l4 45q3 23 18 36.5t38 13.5h583q23 0 34.5 -13.5t8.5 -36.5l-4 -45
q-6 -49 -55 -49h-584z" />
    <glyph glyph-name="greaterequal" unicode="&#x2265;" horiz-adv-x="917" 
d="M864 727q-6 -43 -49 -55l-600 -172q-26 -8 -40 3.5t-11 37.5l8 57q6 43 47 55l414 115l-385 115q-38 11 -35 55l8 57q3 26 20 37.5t40 3.5l559 -172q38 -12 32 -55zM141 358q3 23 18 36.5t38 13.5h583q23 0 34.5 -13.5t8.5 -36.5l-4 -45q-6 -49 -55 -49h-584
q-49 0 -43 49z" />
    <glyph glyph-name="lozenge" unicode="&#x25ca;" horiz-adv-x="1296" 
d="M860 1331q38 0 55 -33l310 -604q14 -35 -11 -69l-446 -592q-23 -33 -63 -33h-152q-38 0 -55 33l-303 592q-14 35 10 69l457 604q23 33 63 33h135zM647 150l385 509l-260 510l-383 -510z" />
    <glyph glyph-name="A.ss01" horiz-adv-x="1349" 
d="M1278 57q8 -25 -4.5 -41t-40.5 -16h-139q-42 0 -54 39l-256 926l-485 -926q-19 -39 -61 -39h-140q-28 0 -37 16t5 41l653 1235q22 39 63 39h92q43 0 52 -39z" />
    <glyph glyph-name="I.ss01" horiz-adv-x="843" 
d="M891 1171q-6 -49 -55 -49h-183l-110 -913h182q46 0 43 -49l-14 -111q-3 -23 -18 -36t-38 -13h-592q-49 0 -43 49l15 111q1 23 16 36t39 13h180l111 913h-180q-49 0 -43 49l14 111q6 49 55 49h592q49 0 43 -49z" />
    <glyph glyph-name="J.ss01" horiz-adv-x="1214" 
d="M1190 1331q49 0 43 -49l-98 -805q-29 -226 -190 -359.5t-392 -133.5q-182 0 -297 84.5t-150 216.5q-9 44 39 61l134 49q46 19 59 -28q24 -81 88 -121.5t154 -40.5q129 0 220.5 77.5t110.5 229.5l74 608h-477q-49 0 -43 49l14 113q3 23 18 36t38 13h655z" />
    <glyph glyph-name="R.ss01" horiz-adv-x="1243" 
d="M885 410q40 -91 94.5 -141.5t142.5 -61.5q47 -3 41 -49l-12 -113q-3 -23 -17.5 -35.5t-37.5 -11.5q-173 8 -277 85t-188 263l-60 131h-186l-53 -428q-3 -23 -18 -36t-38 -13h-129q-49 0 -43 49l152 1233q6 49 55 49h586q162 0 262.5 -115.5t75.5 -312.5
q-22 -177 -131 -289t-254 -133zM463 1110l-51 -412h366q87 0 153.5 57.5t76.5 147.5q12 91 -39.5 149t-139.5 58h-366z" />
    <glyph glyph-name="i.loclTRK" horiz-adv-x="473" 
d="M344 1055q-40 0 -68 29t-22 77q6 45 41.5 73t75.5 28q41 0 70.5 -28t23.5 -73q-6 -48 -42.5 -77t-78.5 -29zM332 49q-3 -23 -18 -36t-38 -13h-122q-49 0 -43 49l104 844q1 23 15.5 36t37.5 13h123q48 0 45 -49z" />
    <glyph glyph-name="a.ss01" horiz-adv-x="1079" 
d="M621 961q213 0 313.5 -96t77.5 -277l-66 -539q-6 -49 -55 -49h-121q-49 0 -43 49l6 47q-107 -112 -295 -112q-197 0 -277 77t-65 201q7 59 33.5 105t62 76.5t92.5 52.5t107.5 33t127 17t131 7.5t138.5 1.5l5 27q11 100 -46 151t-151 51q-142 0 -217 -84q-30 -38 -68 -20
l-80 35q-20 9 -28 22t0 25q55 86 161.5 142.5t256.5 56.5zM487 143q126 0 196 60t83 157l8 72q-98 -1 -164 -5.5t-124.5 -14t-92.5 -27t-55 -44.5t-25 -65q-9 -65 36.5 -99t137.5 -34z" />
    <glyph glyph-name="n.ss01" horiz-adv-x="1103" 
d="M698 942q79 0 145 -22t114 -65t70 -112.5t11 -158.5l-65 -535q-6 -49 -55 -49h-123q-49 0 -43 49l59 483q15 122 -35 178t-176 56h-188l-88 -717q-3 -23 -18 -36t-38 -13h-121q-49 0 -43 49l105 844q1 23 15.5 36t37.5 13h436z" />
    <glyph glyph-name="r.ss01" horiz-adv-x="661" 
d="M162 514q51 416 487 440q25 1 36.5 -11.5t8.5 -35.5l-12 -112q-6 -46 -53 -52q-108 -12 -173.5 -80t-80.5 -194l-51 -420q-3 -23 -18 -36t-38 -13h-121q-49 0 -43 49z" />
    <glyph glyph-name="u.ss01" horiz-adv-x="1103" 
d="M856 893q1 23 15.5 36t37.5 13h123q48 0 45 -49l-104 -844q-6 -49 -55 -49h-437q-79 0 -144.5 22t-113.5 65t-70.5 112.5t-11.5 158.5l68 535q1 23 15.5 36t37.5 13h121q48 0 45 -49l-59 -483q-15 -122 35 -178t176 -56h188z" />
    </font>
</defs>
</svg>
