<?xml version="1.0" standalone="no"?>
<!DOCTYPE svg PUBLIC "-//W3C//DTD SVG 1.1//EN" "http://www.w3.org/Graphics/SVG/1.1/DTD/svg11.dtd" >
<svg xmlns="http://www.w3.org/2000/svg" xmlns:xlink="http://www.w3.org/1999/xlink" version="1.1">
<metadata>
Created by FontForge 20170731 at Fri Sep  9 20:30:21 2022
 By Aleksey,,,
Copyright (c) 2020 by Bagas Ardiatma. All rights reserved.
</metadata>
<defs>
<font id="CaustenRound-ExtraLight" horiz-adv-x="1202" >
  <font-face 
    font-family="Causten Round Extra Light"
    font-weight="200"
    font-stretch="normal"
    units-per-em="2048"
    panose-1="0 0 3 0 0 0 0 0 0 0"
    ascent="1638"
    descent="-410"
    x-height="942"
    cap-height="1331"
    bbox="-553.143 -410 2535 1718"
    underline-thickness="102"
    underline-position="-307"
    unicode-range="U+0020-25CA"
  />
<missing-glyph horiz-adv-x="972" 
d="M799 1536v-1946h-619v1946h619zM647 1405h-319v-64h125v-71h-127v-64h321v64h-127v71h127v64zM520 1155h-194v-203h321v66h-127v137zM453 1090v-72h-64v72h64zM647 899h-321v-63h127v-72h-127v-64h194v136h127v63zM647 782h-63v-127h-258v-67h321v194zM647 545h-194v-109
h67v45h64v-92h-195v156h-63v-219h321v219zM647 209h-321v-219h321v219zM584 145v-92h-195v92h195zM647 -55h-321v-64h135l-135 -92v-63h321v63h-198l137 92h61v64z" />
    <glyph glyph-name="f_f.liga" unicode="ff" horiz-adv-x="1269" 
d="M1040 1264q-74 0 -120 -43t-46 -121v-158h256q21 0 21 -20v-25q0 -20 -21 -20h-256v-857q0 -20 -20 -20h-35q-20 0 -20 20v857h-527v-857q0 -20 -20 -20h-37q-20 0 -20 20v857h-117q-21 0 -21 20v25q0 20 21 20h117v162q0 106 61 166.5t168 60.5h121q20 0 20 -20v-27
q0 -20 -20 -20h-109q-74 0 -119 -43t-45 -121v-158h527v162q0 106 60.5 166.5t164.5 60.5h129q21 0 21 -20v-27q0 -20 -21 -20h-113z" />
    <glyph glyph-name="t_t.liga" unicode="tt" horiz-adv-x="1198" 
d="M1100 897q0 -20 -21 -20h-223v-676q0 -66 37.5 -99.5t97.5 -33.5h78q9 0 15 -6t6 -15v-27q0 -20 -21 -20h-94q-88 0 -141.5 51.5t-53.5 143.5v682h-508v-676q0 -66 37 -99.5t99 -33.5h75q9 0 15 -6t6 -15v-27q0 -20 -21 -20h-94q-88 0 -141 51.5t-53 143.5v682h-117
q-21 0 -21 20v25q0 20 21 20h117v264q0 21 20 21h37q20 0 20 -21v-264h508v264q0 9 6 15t15 6h35q20 0 20 -21v-264h223q21 0 21 -20v-25z" />
    <glyph glyph-name=".notdef" horiz-adv-x="972" 
d="M799 1536v-1946h-619v1946h619zM647 1405h-319v-64h125v-71h-127v-64h321v64h-127v71h127v64zM520 1155h-194v-203h321v66h-127v137zM453 1090v-72h-64v72h64zM647 899h-321v-63h127v-72h-127v-64h194v136h127v63zM647 782h-63v-127h-258v-67h321v194zM647 545h-194v-109
h67v45h64v-92h-195v156h-63v-219h321v219zM647 209h-321v-219h321v219zM584 145v-92h-195v92h195zM647 -55h-321v-64h135l-135 -92v-63h321v63h-198l137 92h61v64z" />
    <glyph glyph-name=".null" horiz-adv-x="0" 
 />
    <glyph glyph-name="nonmarkingreturn" horiz-adv-x="682" 
 />
    <glyph glyph-name="space" unicode=" " horiz-adv-x="409" 
 />
    <glyph glyph-name="exclam" unicode="!" horiz-adv-x="350" 
d="M156 1331q20 0 20 -20l-6 -1012q0 -20 -20 -20h-31q-21 0 -21 20l-6 1012q0 20 21 20h43zM133 113q24 0 40.5 -17t16.5 -41q0 -25 -16 -41t-41 -16q-23 0 -39 16t-16 41q0 24 16 41t39 17z" />
    <glyph glyph-name="quotedbl" unicode="&#x22;" horiz-adv-x="528" 
d="M80 1311q-3 20 18 20h64q21 0 18 -20l-14 -162q-3 -21 -23 -21h-28q-9 0 -16 6t-7 15zM350 1311q-1 9 4.5 14.5t14.5 5.5h63q9 0 14.5 -5.5t4.5 -14.5l-15 -162q-3 -21 -22 -21h-27q-19 0 -22 21z" />
    <glyph glyph-name="numbersign" unicode="#" horiz-adv-x="1429" 
d="M1311 922q0 -9 -6 -15t-15 -6h-198l-101 -457h221q21 0 21 -20v-35q0 -20 -21 -20h-237l-78 -357q-3 -18 -23 -18h-40q-10 0 -15.5 6.5t-3.5 15.5l78 353h-522l-78 -357q-3 -18 -23 -18h-41q-22 0 -18 22l78 353h-191q-20 0 -20 20v35q0 20 20 20h207l101 457h-230
q-20 0 -20 21v34q0 21 20 21h246l72 330q3 18 22 18h41q21 0 18 -22l-71 -326h522l72 330q3 18 22 18h41q22 0 19 -22l-72 -326h182q9 0 15 -6t6 -15v-34zM909 444l101 457h-523l-100 -457h522z" />
    <glyph glyph-name="dollar" unicode="$" horiz-adv-x="1273" 
d="M657 725q10 -3 43.5 -11.5t53.5 -14t57.5 -17.5t62 -22.5t59 -28t57 -35.5t48 -43.5t40 -53.5t24.5 -63.5t10 -75.5q0 -155 -114 -244.5t-320 -97.5v-96q0 -20 -21 -20h-39q-20 0 -20 20v96q-177 9 -300 80t-173 193q-6 17 10 26l35 19q18 9 27 -10q46 -107 162 -167.5
t282 -60.5q186 0 284.5 67.5t98.5 192.5q0 42 -14.5 78t-34.5 61.5t-55 48t-63.5 36.5t-72.5 27.5t-68 20t-65 15.5q-6 1 -9 2t-8 2t-9 2q-9 2 -47 11t-55.5 13.5t-57 15.5t-60.5 20.5t-56 26t-55 32.5t-44.5 40t-37.5 50t-22.5 59.5t-9.5 71.5q0 130 114.5 214t303.5 93v99
q0 20 20 20h39q21 0 21 -20v-99q153 -7 269 -69.5t157 -159.5q10 -19 -10 -27l-37 -16q-18 -9 -27 12q-36 81 -143 132t-248 51q-170 0 -270.5 -64t-100.5 -164q0 -36 11.5 -66.5t28.5 -52.5t45.5 -41.5t54 -32t63 -25t64 -19t65 -16.5t57.5 -15z" />
    <glyph glyph-name="percent" unicode="%" horiz-adv-x="1630" 
d="M399 756q-121 0 -200.5 80.5t-79.5 207.5q0 128 79.5 208.5t200.5 80.5t201 -80.5t80 -208.5q0 -126 -80 -207t-201 -81zM483 14q-6 -14 -24 -14h-33q-11 0 -16 7t0 18l698 1292q6 14 25 14h32q11 0 17 -7t0 -17zM399 821q94 0 154.5 62t60.5 161t-60.5 161.5
t-154.5 62.5q-93 0 -154 -62.5t-61 -161.5t61 -161t154 -62zM1192 -2q-122 0 -202.5 81t-80.5 208q0 128 80 208t203 80q120 0 200.5 -80.5t80.5 -207.5q0 -126 -80.5 -207.5t-200.5 -81.5zM1192 63q93 0 154 62.5t61 161.5t-61 161t-154 62t-155 -62t-62 -161t62 -161.5
t155 -62.5z" />
    <glyph glyph-name="ampersand" unicode="&#x26;" horiz-adv-x="1261" 
d="M1081 23q9 -11 4.5 -18t-16.5 -7h-41q-12 0 -24 12q-15 19 -50 63.5t-49 61.5q-66 -76 -157.5 -117t-196.5 -41q-200 0 -316 102t-116 267q0 120 69 215.5t234 204.5q-42 54 -57 76q-115 147 -115 256q0 106 80 181t202 75q120 0 198.5 -75t78.5 -181q0 -38 -11 -74.5
t-26 -64t-43 -57.5t-48 -48t-56.5 -43t-53 -35t-51.5 -31q6 -8 383 -493q64 118 64 270v15q0 20 20 20h31q20 0 20 -20v-15q0 -193 -90 -329q25 -31 133 -170zM322 1096q0 -52 21.5 -97.5t72.5 -115.5q7 -11 61 -82q117 71 161 109q98 87 99 186q0 82 -58.5 136t-146.5 54
q-89 0 -149.5 -55t-60.5 -135zM551 49q192 0 311 144l-397 518q-155 -103 -211.5 -184.5t-56.5 -180.5q0 -134 94 -215.5t260 -81.5z" />
    <glyph glyph-name="quotesingle" unicode="'" horiz-adv-x="258" 
d="M78 1311q0 20 20 20h62q9 0 14.5 -6.5t3.5 -15.5l-26 -162q-3 -19 -21 -19h-31q-20 0 -20 21z" />
    <glyph glyph-name="parenleft" unicode="(" horiz-adv-x="466" 
d="M274 -98q-16 0 -24 14q-113 180 -154 461t0 562.5t154 463.5q8 14 24 14h41q12 0 16.5 -6.5t-1.5 -17.5q-114 -172 -155 -453t1 -562t156 -452q6 -10 1.5 -17t-16.5 -7h-43z" />
    <glyph glyph-name="parenright" unicode=")" horiz-adv-x="487" 
d="M197 -84q-8 -14 -25 -14h-43q-12 0 -16 7t2 17q114 171 156 452t1 562t-155 453q-6 11 -2 17.5t16 6.5h41q17 0 25 -14q113 -182 154 -463.5t0 -562.5t-154 -461z" />
    <glyph glyph-name="asterisk" unicode="*" horiz-adv-x="800" 
d="M676 1182q10 -17 -4 -29l-219 -147l217 -150q16 -13 6 -29l-10 -16q-11 -18 -29 -4l-207 141v-250q0 -20 -20 -20h-21q-20 0 -20 20v248l-207 -139q-16 -13 -27 6l-10 16q-10 17 4 29l219 148l-219 149q-14 12 -4 29l10 14q10 20 27 6l207 -141v248q0 20 20 20h21
q20 0 20 -20v-250l209 141q17 14 27 -6z" />
    <glyph glyph-name="plus" unicode="+" horiz-adv-x="1028" 
d="M848 694q20 0 20 -20v-33q0 -20 -20 -20h-318v-318q0 -20 -20 -20h-31q-20 0 -20 20v318h-320q-20 0 -20 20v33q0 20 20 20h320v320q0 20 20 20h31q20 0 20 -20v-320h318z" />
    <glyph glyph-name="comma" unicode="," horiz-adv-x="309" 
d="M123 74q3 18 22 18h62q22 0 16 -22l-71 -201q-5 -16 -25 -16h-27q-22 0 -18 22z" />
    <glyph glyph-name="hyphen" unicode="-" horiz-adv-x="835" 
d="M119 643q0 21 20 21h518q9 0 15 -6t6 -15v-37q0 -20 -21 -20h-518q-20 0 -20 20v37z" />
    <glyph glyph-name="period" unicode="." horiz-adv-x="268" 
d="M133 -2q-23 0 -39 16t-16 41q0 23 16 39.5t39 16.5q25 0 41 -16.5t16 -39.5q0 -25 -16 -41t-41 -16z" />
    <glyph glyph-name="slash" unicode="/" horiz-adv-x="598" 
d="M102 -96q-24 0 -18 22l424 1475q6 16 22 16h39q25 0 19 -22l-424 -1475q-6 -16 -23 -16h-39z" />
    <glyph glyph-name="zero" unicode="0" horiz-adv-x="1269" 
d="M625 -16q-163 0 -283.5 88.5t-182 242t-61.5 351.5t61.5 351.5t182 242t283.5 88.5q164 0 284.5 -88.5t181 -241.5t60.5 -352t-60.5 -352t-181 -241.5t-284.5 -88.5zM625 63q210 0 327 166t117 437q0 177 -50.5 311.5t-152 211.5t-241.5 77t-242 -77t-153.5 -211.5
t-51.5 -311.5t51.5 -312.5t153.5 -213t242 -77.5z" />
    <glyph glyph-name="one" unicode="1" horiz-adv-x="593" 
d="M414 1331q20 0 20 -20v-1291q0 -20 -20 -20h-41q-21 0 -21 20v1233h-293q-20 0 -20 21v37q0 20 20 20h355z" />
    <glyph glyph-name="two" unicode="2" horiz-adv-x="1064" 
d="M78 59q0 13 12 25l377 330q162 141 226 208q192 201 192 359q0 137 -98 212t-269 75q-123 0 -223 -51.5t-135 -133.5q-6 -17 -25 -10l-39 14q-18 6 -12 25q42 103 161.5 169.5t272.5 66.5q204 0 327.5 -97t123.5 -266q0 -50 -15 -102.5t-38 -97t-58.5 -93t-68.5 -85
t-76.5 -78.5t-73.5 -68.5t-68 -59.5q-19 -16 -28 -24l-336 -299h737q9 0 15 -6t6 -15v-37q0 -20 -21 -20h-844q-20 0 -20 20z" />
    <glyph glyph-name="three" unicode="3" horiz-adv-x="1091" 
d="M502 840q93 0 175.5 -27.5t147 -79t102.5 -133.5t38 -184q0 -132 -64 -231.5t-169 -150t-232 -50.5q-124 0 -235 47.5t-175 128.5q-12 15 4 28l29 25q16 13 29 -4q58 -67 150 -106.5t198 -39.5q164 0 273.5 97t109.5 256q0 165 -108.5 257.5t-274.5 92.5q-121 0 -211 -33
q-10 -3 -16.5 1.5t-6.5 15.5v32q0 12 13 25l538 446h-624q-9 0 -15 6t-6 15v37q0 20 21 20h725q20 0 20 -20v-41q0 -13 -12 -25l-492 -407q23 2 68 2z" />
    <glyph glyph-name="four" unicode="4" horiz-adv-x="1136" 
d="M1018 379q20 0 20 -21v-28q0 -21 -20 -21h-137v-289q0 -20 -21 -20h-41q-20 0 -20 20v289h-701q-20 0 -20 21v30q0 16 8 27l702 932q7 12 27 12h45q21 0 21 -20v-932h137zM168 379h631v835z" />
    <glyph glyph-name="five" unicode="5" horiz-adv-x="1089" 
d="M496 846q219 0 343 -120.5t124 -305.5q0 -198 -125.5 -317t-337.5 -119q-123 0 -234 47.5t-176 126.5q-12 15 4 28l29 25q15 15 29 -2q60 -70 152 -109t194 -39q181 1 282 101t101 260q0 155 -105 253.5t-280 98.5q-70 0 -147 -15t-126 -42q-18 -9 -28 8l-19 31
q-7 13 -4 26l80 531q3 18 20 18h615q20 0 20 -20v-37q0 -21 -20 -21h-565l-64 -446q115 39 238 39z" />
    <glyph glyph-name="six" unicode="6" horiz-adv-x="1120" 
d="M547 905q192 0 319 -129.5t127 -331.5q0 -201 -127 -330.5t-319 -129.5t-320.5 129.5t-128.5 330.5q0 155 82 277l410 598q7 12 24 12h48q12 0 16 -7.5t-2 -16.5l-297 -433q79 31 168 31zM547 63q158 0 262 106t104 275q0 170 -103.5 276.5t-262.5 106.5
q-160 0 -265.5 -106.5t-105.5 -276.5q0 -168 105.5 -274.5t265.5 -106.5z" />
    <glyph glyph-name="seven" unicode="7" horiz-adv-x="929" 
d="M188 0q-11 0 -15.5 7.5t-0.5 17.5l569 1228h-661q-9 0 -15 6t-6 15v37q0 20 21 20h733q21 0 21 -20v-35q0 -8 -7 -25l-571 -1237q-6 -14 -23 -14h-45z" />
    <glyph glyph-name="eight" unicode="8" horiz-adv-x="1122" 
d="M745 690q121 -42 185.5 -132t64.5 -202q0 -169 -115 -270.5t-333 -101.5q-217 0 -333 102t-116 270q0 113 65 203t187 131q-115 38 -173 122t-58 192q0 66 26 126.5t76 110t134.5 78.5t191.5 29q87 0 159 -19.5t121 -52t83 -77t49.5 -93.5t15.5 -102q0 -108 -58 -192
t-172 -122zM197 1001q0 -123 86.5 -198.5t263.5 -75.5q178 0 264 75t86 199q0 53 -20 101t-60.5 87.5t-110 63t-159.5 23.5q-89 0 -158.5 -23.5t-110 -63t-61 -87.5t-20.5 -101zM547 57q182 0 275 81t93 220q0 128 -94.5 212.5t-273.5 84.5q-178 0 -273.5 -85t-95.5 -212
q0 -137 94.5 -219t274.5 -82z" />
    <glyph glyph-name="nine" unicode="9" horiz-adv-x="1120" 
d="M993 887q0 -151 -98 -297l-385 -578q-9 -12 -25 -12h-47q-12 0 -16 8t2 17l289 432q-79 -31 -168 -31q-192 0 -319.5 129.5t-127.5 331.5q0 201 127.5 331t319.5 130t320 -130t128 -331zM176 887q0 -170 104.5 -275.5t264.5 -105.5q159 0 263.5 105.5t104.5 275.5
q0 168 -104.5 274.5t-263.5 106.5q-160 0 -264.5 -106t-104.5 -275z" />
    <glyph glyph-name="colon" unicode=":" horiz-adv-x="272" 
d="M133 588q-23 0 -39 17t-16 40q0 25 16 41t39 16q25 0 41 -16t16 -41q0 -24 -16.5 -40.5t-40.5 -16.5zM133 -2q-23 0 -39 16t-16 41q0 23 16 39.5t39 16.5q25 0 41 -16.5t16 -39.5q0 -25 -16 -41t-41 -16z" />
    <glyph glyph-name="semicolon" unicode=";" horiz-adv-x="325" 
d="M174 588q-24 0 -40.5 16.5t-16.5 40.5t16.5 40.5t40.5 16.5q23 0 39 -17t16 -40t-16 -40t-39 -17zM135 74q3 18 23 18h59q11 0 15.5 -7t0.5 -17l-81 -199q-5 -16 -23 -16h-27q-24 0 -18 22z" />
    <glyph glyph-name="less" unicode="&#x3c;" horiz-adv-x="952" 
d="M770 938q11 3 18 -1.5t7 -14.5v-29q0 -18 -17 -25l-567 -209l567 -210q17 -7 17 -23v-31q0 -10 -7 -14.5t-18 -1.5l-635 235q-16 6 -16 23v43q0 16 16 22z" />
    <glyph glyph-name="equal" unicode="=" horiz-adv-x="1028" 
d="M119 870q0 21 20 21h709q20 0 20 -21v-28q0 -21 -20 -21h-709q-20 0 -20 21v28zM119 477q0 21 20 21h709q20 0 20 -21v-31q0 -20 -20 -20h-709q-20 0 -20 20v31z" />
    <glyph glyph-name="greater" unicode="&#x3e;" horiz-adv-x="952" 
d="M119 922q0 23 24 16l635 -236q17 -7 17 -22v-43q0 -16 -17 -23l-635 -235q-24 -7 -24 16v31q0 17 16 23l567 210l-567 209q-16 6 -16 25v29z" />
    <glyph glyph-name="question" unicode="?" horiz-adv-x="991" 
d="M420 279q-21 0 -21 20v29q0 58 15 108.5t44.5 92t46 59.5t46.5 47q8 8 40.5 39t40 38.5t33 34t32 37t24 34t22.5 39.5t13.5 39.5t11 46.5t2.5 50q0 132 -92 207.5t-236 75.5q-100 0 -193.5 -51.5t-127.5 -132.5q-6 -19 -25 -13l-39 15q-18 6 -12 24q44 103 157 169.5
t240 66.5q177 0 294.5 -96.5t117.5 -262.5q0 -63 -12.5 -112.5t-51.5 -102.5t-60 -75.5t-86 -85.5l-23 -23l-9 -9q-28 -28 -44.5 -46.5t-40 -52.5t-35 -74t-11.5 -86v-29q0 -20 -20 -20h-41zM442 98q23 0 40.5 -17t17.5 -40q0 -24 -17 -40.5t-41 -16.5q-25 0 -41 16t-16 41
q0 24 16.5 40.5t40.5 16.5z" />
    <glyph glyph-name="at" unicode="@" horiz-adv-x="1630" 
d="M797 1362q196 0 349.5 -83t240 -234.5t86.5 -346.5q0 -80 -12.5 -146.5t-39 -121t-73.5 -85t-111 -30.5q-71 0 -124 42t-66 118q-39 -70 -107 -108.5t-158 -38.5q-137 0 -227 92.5t-90 238.5q0 145 90.5 237.5t226.5 92.5q87 0 154 -37.5t106 -103.5v110q0 9 6 15t15 6
h22q9 0 15 -6t6 -15v-432q0 -69 37 -111t94 -42q170 0 170 325q0 135 -45.5 247.5t-126.5 189.5t-193.5 119t-244.5 42q-175 0 -315.5 -81t-220 -225t-79.5 -324t79.5 -325t220 -226.5t315.5 -81.5q153 0 270 57q19 6 29 -10l12 -23q12 -19 -8 -26q-137 -64 -303 -64
q-195 0 -350.5 91.5t-241.5 251t-86 356.5t86.5 356t242 249.5t349.5 90.5zM786 391q115 0 185.5 79t70.5 189q0 109 -71 187t-185 78t-185 -78t-71 -187q0 -110 70.5 -189t185.5 -79z" />
    <glyph glyph-name="A" unicode="A" horiz-adv-x="1302" 
d="M1155 0q-17 0 -22 16l-160 383h-664l-159 -383q-5 -16 -23 -16h-43q-11 0 -15.5 7.5t-0.5 17.5l534 1290q5 16 23 16h32q18 0 23 -16l534 -1290q4 -10 -0.5 -17.5t-15.5 -7.5h-43zM340 477h602l-301 727z" />
    <glyph glyph-name="B" unicode="B" horiz-adv-x="1234" 
d="M903 692q105 -36 168.5 -124t63.5 -208q0 -157 -104 -258.5t-259 -101.5h-633q-20 0 -20 20v1291q0 20 20 20h586q157 0 258.5 -93.5t101.5 -248.5q0 -105 -48.5 -181.5t-133.5 -115.5zM199 1253v-532h518q130 0 208.5 73t78.5 193q0 119 -78.5 192.5t-208.5 73.5h-518z
M764 78q129 0 209 81.5t80 202.5q0 122 -80.5 203.5t-208.5 81.5h-565v-569h565z" />
    <glyph glyph-name="C" unicode="C" horiz-adv-x="1417" 
d="M1249 1044q-14 -11 -28 7q-75 101 -194 158t-265 57q-171 0 -304.5 -77.5t-206.5 -214t-73 -308.5t73 -308.5t206.5 -214t304.5 -77.5q146 0 264.5 58t194.5 159q13 16 28 4l35 -23q16 -13 4 -28q-88 -119 -223.5 -185.5t-302.5 -66.5q-194 0 -346 88t-235 243t-83 351
t83 351t235 243t346 88q167 0 302.5 -66.5t223.5 -185.5q13 -16 -4 -29z" />
    <glyph glyph-name="D" unicode="D" horiz-adv-x="1327" 
d="M541 1331q195 0 345 -83.5t232 -234.5t82 -347t-82 -347t-232 -235t-345 -84h-402q-20 0 -20 20v1291q0 20 20 20h402zM541 80q253 0 415 160t162 426q0 176 -75 310t-205.5 204.5t-296.5 70.5h-342v-1171h342z" />
    <glyph glyph-name="E" unicode="E" horiz-adv-x="1101" 
d="M954 1274q0 -21 -20 -21h-735v-551h692q20 0 20 -20v-37q0 -20 -20 -20h-692v-547h735q20 0 20 -21v-37q0 -20 -20 -20h-795q-20 0 -20 20v1291q0 20 20 20h795q20 0 20 -20v-37z" />
    <glyph glyph-name="F" unicode="F" horiz-adv-x="1095" 
d="M954 1272q0 -21 -20 -21h-735v-555h696q20 0 20 -20v-37q0 -21 -20 -21h-696v-598q0 -20 -21 -20h-39q-20 0 -20 20v1291q0 20 20 20h795q20 0 20 -20v-39z" />
    <glyph glyph-name="G" unicode="G" horiz-adv-x="1540" 
d="M1401 635q-9 -289 -182 -470t-457 -181q-194 0 -346 88t-235 243t-83 351t83 351t235 243t346 88q167 0 302.5 -66t223.5 -184q6 -8 4 -16t-10 -13l-35 -22q-15 -10 -28 6q-77 101 -195.5 157t-261.5 56q-171 0 -304.5 -77.5t-206.5 -214t-73 -308.5t73 -308.5
t206.5 -214t304.5 -77.5q235 0 382.5 143.5t168.5 378.5h-533q-20 0 -20 20v37q0 21 20 21h600q9 0 15 -6t6 -15v-10z" />
    <glyph glyph-name="H" unicode="H" horiz-adv-x="1263" 
d="M1022 1311q0 20 20 20h41q21 0 21 -20v-1291q0 -20 -21 -20h-41q-20 0 -20 20v605h-823v-605q0 -20 -21 -20h-39q-20 0 -20 20v1291q0 20 20 20h39q21 0 21 -20v-606h823v606z" />
    <glyph glyph-name="I" unicode="I" horiz-adv-x="358" 
d="M199 20q0 -20 -21 -20h-39q-20 0 -20 20v1291q0 20 20 20h39q21 0 21 -20v-1291z" />
    <glyph glyph-name="J" unicode="J" horiz-adv-x="997" 
d="M758 1311q0 20 20 20h41q21 0 21 -20v-965q0 -162 -103.5 -262t-281.5 -100q-154 0 -249 71.5t-124 194.5q-3 18 14 24l41 13q18 6 25 -15q21 -96 95 -152.5t198 -56.5q146 0 224.5 81.5t78.5 207.5v959z" />
    <glyph glyph-name="K" unicode="K" horiz-adv-x="1048" 
d="M946 25q10 -11 7 -18t-17 -7h-55q-15 0 -25 10l-657 629v-619q0 -20 -21 -20h-39q-20 0 -20 20v1291q0 20 20 20h39q21 0 21 -20v-617l630 627q10 10 25 10h57q14 0 17.5 -6.5t-6.5 -17.5l-646 -641z" />
    <glyph glyph-name="L" unicode="L" horiz-adv-x="1067" 
d="M199 78h731q20 0 20 -21v-37q0 -20 -20 -20h-791q-20 0 -20 20v1291q0 20 20 20h39q21 0 21 -20v-1233z" />
    <glyph glyph-name="M" unicode="M" horiz-adv-x="1501" 
d="M1323 1331q20 0 20 -20v-1291q0 -20 -20 -20h-41q-20 0 -20 20v1166l-494 -1002q-6 -14 -25 -14h-24q-19 0 -25 14l-495 1002v-1166q0 -20 -21 -20h-39q-20 0 -20 20v1291q0 20 20 20h58q18 0 24 -14l510 -1016l510 1016q6 14 25 14h57z" />
    <glyph glyph-name="N" unicode="N" horiz-adv-x="1261" 
d="M1022 1311q0 20 20 20h41q21 0 21 -20v-1291q0 -20 -21 -20h-43q-17 0 -24 12l-815 1182v-1174q0 -20 -21 -20h-41q-20 0 -20 20v1291q0 20 20 20h43q18 0 25 -12l815 -1178v1170z" />
    <glyph glyph-name="O" unicode="O" horiz-adv-x="1550" 
d="M762 -16q-194 0 -346 88t-235 243t-83 351t83 351t235 243t346 88t345.5 -88t233.5 -243t82 -351t-82 -351t-233.5 -243t-345.5 -88zM762 66q172 0 304.5 77.5t203.5 214t71 308.5t-71 308.5t-203.5 214t-304.5 77.5q-171 0 -304.5 -77.5t-206.5 -214t-73 -308.5
t73 -308.5t206.5 -214t304.5 -77.5z" />
    <glyph glyph-name="P" unicode="P" horiz-adv-x="1187" 
d="M707 1331q153 0 258.5 -110.5t105.5 -274.5q0 -163 -105.5 -273t-258.5 -110h-508v-543q0 -20 -21 -20h-39q-20 0 -20 20v1291q0 20 20 20h568zM698 643q127 0 209 89t82 214t-82 215t-209 90h-499v-608h499z" />
    <glyph glyph-name="Q" unicode="Q" horiz-adv-x="1550" 
d="M1423 666q0 -204 -90.5 -364.5t-249.5 -244.5l150 -200q8 -9 4 -17t-16 -8h-54q-19 0 -26 12l-133 181q-115 -41 -246 -41q-194 0 -346 88t-235 243t-83 351t83.5 351t235 243t345.5 88t345.5 -88t233.5 -243t82 -351zM762 66q103 0 192 28l-135 182q-8 9 -4 17t16 8h54
q19 0 26 -12l121 -164q145 71 227 214t82 327q0 172 -71 308.5t-203.5 214t-304.5 77.5q-171 0 -304.5 -77.5t-206.5 -214t-73 -308.5t73 -308.5t206.5 -214t304.5 -77.5z" />
    <glyph glyph-name="R" unicode="R" horiz-adv-x="1220" 
d="M1085 25q8 -9 4 -17t-16 -8h-51q-18 0 -25 12l-401 551h-397v-543q0 -20 -21 -20h-39q-20 0 -20 20v1291q0 20 20 20h578q154 0 259 -110.5t105 -274.5t-105 -273.5t-259 -109.5h-23zM199 1251v-608h512q127 0 207.5 89t80.5 214t-80.5 215t-207.5 90h-512z" />
    <glyph glyph-name="S" unicode="S" horiz-adv-x="1218" 
d="M84 256q-6 19 10 29l35 18q18 9 27 -10q46 -109 164.5 -171.5t287.5 -62.5q406 0 406 303q0 39 -14 73.5t-33.5 59.5t-53.5 47.5t-62 36t-72 28.5t-69.5 21.5t-68 17t-55.5 13.5q-11 3 -47.5 11t-57 13t-59 16t-63 21t-59.5 26.5t-57.5 33t-48 41t-40 50.5t-24 60.5
t-9.5 72.5q0 168 129 259t354 91q170 0 297 -65t170 -169q6 -19 -12 -26l-35 -17q-18 -9 -27 10q-37 83 -145 134t-254 51q-187 0 -288 -69.5t-101 -196.5q0 -29 8 -55t20.5 -46t33.5 -38.5t41 -31.5t49.5 -26t52 -21t55.5 -17t54 -13.5t53 -12t47 -10.5q10 -3 44.5 -11.5
t56 -14t60 -18t64.5 -23t62 -28.5t60.5 -36.5t51 -44.5t42 -54t26 -64t10.5 -76q0 -190 -128 -289t-368 -99q-196 0 -331.5 74t-188.5 205z" />
    <glyph glyph-name="T" unicode="T" horiz-adv-x="1191" 
d="M1053 1331q20 0 20 -20v-37q0 -21 -20 -21h-437v-1233q0 -20 -20 -20h-41q-20 0 -20 20v1233h-437q-20 0 -20 21v37q0 20 20 20h955z" />
    <glyph glyph-name="U" unicode="U" horiz-adv-x="1257" 
d="M1018 1311q0 20 20 20h41q21 0 21 -20v-854q0 -209 -133 -341t-359 -132t-357.5 131.5t-131.5 341.5v854q0 20 20 20h39q21 0 21 -20v-848q0 -184 109.5 -292t299.5 -108t300 108t110 292v848z" />
    <glyph glyph-name="V" unicode="V" horiz-adv-x="1298" 
d="M1128 1315q5 16 23 16h45q11 0 15.5 -7t0.5 -17l-534 -1291q-5 -16 -23 -16h-32q-18 0 -23 16l-532 1291q-4 10 0.5 17t15.5 7h43q18 0 23 -16l489 -1188z" />
    <glyph glyph-name="W" unicode="W" horiz-adv-x="1931" 
d="M1759 1315q6 16 25 16h45q22 0 16 -22l-430 -1293q-6 -16 -24 -16h-31q-19 0 -25 16l-381 1145l-381 -1145q-6 -16 -24 -16h-29q-18 0 -24 16l-430 1293q-6 22 16 22h43q19 0 25 -16l385 -1157l385 1157q6 16 24 16h25q18 0 24 -16l383 -1153z" />
    <glyph glyph-name="X" unicode="X" horiz-adv-x="1193" 
d="M1067 1331q12 0 15.5 -7.5t-3.5 -16.5l-452 -641l452 -641q8 -9 4 -17t-16 -8h-51q-18 0 -25 12l-413 584l-414 -584q-7 -12 -25 -12h-51q-12 0 -16 8t4 17l452 641l-452 641q-8 9 -4 16.5t16 7.5h51q18 0 25 -12l414 -584l413 584q7 12 25 12h51z" />
    <glyph glyph-name="Y" unicode="Y" horiz-adv-x="1153" 
d="M1049 1331q12 0 15 -6.5t-3 -17.5l-463 -711v-576q0 -20 -20 -20h-39q-21 0 -21 20v572l-465 715q-6 11 -2.5 17.5t15.5 6.5h51q13 0 24 -14l416 -637l416 637q11 14 24 14h52z" />
    <glyph glyph-name="Z" unicode="Z" horiz-adv-x="1099" 
d="M983 1272q0 -11 -8 -27l-780 -1167h751q9 0 15 -6t6 -15v-37q0 -20 -21 -20h-827q-21 0 -21 20v39q0 11 8 27l779 1167h-754q-20 0 -20 21v37q0 20 20 20h832q20 0 20 -20v-39z" />
    <glyph glyph-name="bracketleft" unicode="[" horiz-adv-x="524" 
d="M365 1368q0 -20 -21 -20h-147v-1377h147q21 0 21 -20v-29q0 -20 -21 -20h-205q-20 0 -20 20v1475q0 20 20 20h205q21 0 21 -20v-29z" />
    <glyph glyph-name="backslash" unicode="\" horiz-adv-x="563" 
d="M516 -76q6 -22 -18 -22h-39q-17 0 -23 16l-424 1475q-6 22 19 22h39q16 0 22 -16z" />
    <glyph glyph-name="bracketright" unicode="]" horiz-adv-x="524" 
d="M139 1348q-20 0 -20 20v29q0 20 20 20h205q21 0 21 -20v-1475q0 -20 -21 -20h-205q-20 0 -20 20v29q0 20 20 20h148v1377h-148z" />
    <glyph glyph-name="asciicircum" unicode="^" horiz-adv-x="712" 
d="M545 868q6 -22 -17 -22h-28q-20 0 -25 16l-139 379l-139 -379q-5 -16 -25 -16h-29q-22 0 -16 22l164 447q5 16 24 16h41q20 0 25 -16z" />
    <glyph glyph-name="underscore" unicode="_" horiz-adv-x="962" 
d="M119 57q0 21 20 21h643q9 0 15 -6t6 -15v-37q0 -20 -21 -20h-643q-20 0 -20 20v37z" />
    <glyph glyph-name="grave" unicode="`" horiz-adv-x="245" 
d="M106 1331q17 0 23 -16l66 -139q4 -10 -1 -17.5t-16 -7.5h-28q-19 0 -25 14l-72 142q-4 10 0 17t15 7h38z" />
    <glyph glyph-name="a" unicode="a" 
d="M967 922q0 20 20 20h37q20 0 20 -20v-902q0 -20 -20 -20h-37q-20 0 -20 20v207q-55 -113 -160.5 -178t-243.5 -65q-206 0 -337.5 137.5t-131.5 349.5t131.5 348.5t337.5 136.5q139 0 244 -64.5t160 -176.5v207zM569 57q180 0 289 116t109 298t-109 297t-289 115
q-179 0 -289 -115.5t-110 -296.5q0 -182 110.5 -298t288.5 -116z" />
    <glyph glyph-name="b" unicode="b" 
d="M598 956q206 0 337.5 -136.5t131.5 -348.5t-131.5 -349.5t-337.5 -137.5q-138 0 -243 65t-160 178v-207q0 -20 -21 -20h-35q-20 0 -20 20v1291q0 20 20 20h35q21 0 21 -20v-596q55 112 160 176.5t243 64.5zM592 57q178 0 288.5 116t110.5 298q0 181 -110 296.5
t-289 115.5q-178 0 -287.5 -115t-109.5 -297t109.5 -298t287.5 -116z" />
    <glyph glyph-name="c" unicode="c" horiz-adv-x="1067" 
d="M911 737q-15 -12 -28 4q-116 142 -312 142q-180 0 -290.5 -115t-110.5 -297t110.5 -298t290.5 -116q194 0 312 142q13 16 28 4l25 -17q16 -13 4 -28q-62 -83 -158 -128.5t-213 -45.5q-210 0 -342.5 137.5t-132.5 349.5t132.5 348.5t342.5 136.5q116 0 212 -45.5
t159 -126.5q12 -15 -4 -28z" />
    <glyph glyph-name="d" unicode="d" 
d="M967 1311q0 20 20 20h37q20 0 20 -20v-1291q0 -20 -20 -20h-37q-20 0 -20 20v207q-55 -113 -160.5 -178t-243.5 -65q-206 0 -337.5 137.5t-131.5 349.5t131.5 348.5t337.5 136.5q139 0 244 -64.5t160 -176.5v596zM569 57q180 0 289 116t109 298t-109 297t-289 115
q-179 0 -289 -115.5t-110 -296.5q0 -182 110.5 -298t288.5 -116z" />
    <glyph glyph-name="e" unicode="e" horiz-adv-x="1142" 
d="M557 956q197 0 323 -137t126 -348v-10q0 -9 -6 -15t-15 -6h-815q11 -173 119.5 -280t279.5 -107q105 0 188.5 41t135.5 113q13 17 29 4l22 -14q8 -5 10 -13t-4 -16q-62 -87 -160.5 -135.5t-220.5 -48.5q-211 0 -343 137.5t-132 349.5q0 213 127 349t336 136zM557 889
q-171 0 -274.5 -106.5t-112.5 -280.5h764q-9 170 -113 278.5t-264 108.5z" />
    <glyph glyph-name="f" unicode="f" horiz-adv-x="667" 
d="M436 1264q-75 0 -119.5 -44t-44.5 -120v-158h254q21 0 21 -20v-25q0 -20 -21 -20h-254v-857q0 -20 -20 -20h-37q-20 0 -20 20v857h-117q-21 0 -21 20v25q0 20 21 20h117v162q0 106 61 166.5t168 60.5h125q20 0 20 -20v-27q0 -20 -20 -20h-113z" />
    <glyph glyph-name="g" unicode="g" 
d="M967 922q0 20 20 20h37q20 0 20 -20v-850q0 -202 -136 -327.5t-353 -125.5q-112 0 -208 39t-161 109q-15 15 2 28l23 21q14 11 31 -2q116 -125 313 -125q179 0 295.5 103t116.5 280v155q-55 -113 -160.5 -178t-243.5 -65q-206 0 -337.5 137.5t-131.5 349.5t131.5 348.5
t337.5 136.5q139 0 244 -64.5t160 -176.5v207zM569 57q178 0 288 116t110 298t-109.5 297t-288.5 115t-289 -115.5t-110 -296.5q0 -182 110.5 -298t288.5 -116z" />
    <glyph glyph-name="h" unicode="h" horiz-adv-x="1062" 
d="M524 956q104 0 188 -40t137.5 -126.5t53.5 -207.5v-562q0 -20 -20 -20h-35q-21 0 -21 20v555q0 141 -88.5 226.5t-228.5 85.5q-139 0 -227 -85.5t-88 -226.5v-555q0 -20 -21 -20h-35q-20 0 -20 20v1291q0 20 20 20h35q21 0 21 -20v-527q49 85 136.5 128.5t192.5 43.5z
" />
    <glyph glyph-name="i" unicode="i" horiz-adv-x="391" 
d="M176 1184q-24 0 -40.5 16.5t-16.5 40.5q0 26 16.5 41.5t40.5 15.5q23 0 40 -16t17 -41q0 -24 -17.5 -40.5t-39.5 -16.5zM213 20q0 -20 -20 -20h-35q-21 0 -21 20v902q0 20 21 20h37q20 0 20 -20z" />
    <glyph glyph-name="j" unicode="j" horiz-adv-x="417" 
d="M201 1184q-23 0 -40.5 16.5t-17.5 40.5q0 25 17 41t41 16t40.5 -15.5t16.5 -41.5q0 -24 -16.5 -40.5t-40.5 -16.5zM12 -377h-51q-20 0 -20 21v26q0 21 20 21h35q77 0 122.5 42t45.5 122v1067q0 20 20 20h35q21 0 21 -20v-1078q0 -101 -61 -161t-167 -60z" />
    <glyph glyph-name="k" unicode="k" horiz-adv-x="899" 
d="M795 25q10 -9 7.5 -17t-16.5 -8h-51q-14 0 -24 10l-516 463v-453q0 -20 -21 -20h-35q-20 0 -20 20v1291q0 20 20 20h35q21 0 21 -20v-793l473 414q10 10 24 10h49q14 0 17.5 -7.5t-6.5 -16.5l-480 -422z" />
    <glyph glyph-name="l" unicode="l" horiz-adv-x="354" 
d="M195 20q0 -20 -21 -20h-35q-20 0 -20 20v1291q0 20 20 20h35q21 0 21 -20v-1291z" />
    <glyph glyph-name="m" unicode="m" horiz-adv-x="1658" 
d="M1149 956q71 0 132.5 -21t111.5 -64t79 -117t29 -172v-562q0 -20 -20 -20h-37q-21 0 -21 20v558q0 149 -79.5 228t-208.5 79q-128 0 -207.5 -79t-79.5 -228v-558q0 -20 -21 -20h-36q-21 0 -21 20v558q0 149 -79.5 228t-207.5 79q-129 0 -208.5 -79t-79.5 -228v-558
q0 -20 -21 -20h-35q-20 0 -20 20v902q0 20 20 20h35q21 0 21 -20v-125q45 80 125 119.5t176 39.5q110 0 197 -50.5t126 -155.5q42 105 131 155.5t199 50.5z" />
    <glyph glyph-name="n" unicode="n" horiz-adv-x="1062" 
d="M524 956q104 0 188 -40t137.5 -126.5t53.5 -207.5v-562q0 -20 -20 -20h-35q-21 0 -21 20v555q0 141 -88.5 226.5t-228.5 85.5q-139 0 -227 -85.5t-88 -226.5v-555q0 -20 -21 -20h-35q-20 0 -20 20v902q0 20 20 20h35q21 0 21 -20v-138q49 85 136.5 128.5t192.5 43.5z" />
    <glyph glyph-name="o" unicode="o" horiz-adv-x="1179" 
d="M569 -16q-210 0 -342.5 137.5t-132.5 349.5t132.5 348.5t342.5 136.5q211 0 343 -136.5t132 -348.5t-132 -349.5t-343 -137.5zM569 57q177 0 286.5 117t109.5 297t-109.5 296t-286.5 116q-176 0 -285.5 -116t-109.5 -296t110 -297t285 -117z" />
    <glyph glyph-name="p" unicode="p" 
d="M598 956q206 0 337.5 -137.5t131.5 -349.5t-131.5 -348.5t-337.5 -136.5q-138 0 -243 65t-160 178v-583q0 -9 -6 -15t-15 -6h-35q-20 0 -20 21v1278q0 20 20 20h35q21 0 21 -20v-209q55 113 160 178t243 65zM592 57q179 0 289 115.5t110 296.5q0 182 -110.5 298
t-288.5 116t-287.5 -116t-109.5 -298t109.5 -297t287.5 -115z" />
    <glyph glyph-name="q" unicode="q" 
d="M967 922q0 20 20 20h37q20 0 20 -20v-1278q0 -21 -20 -21h-37q-20 0 -20 21v583q-55 -113 -160.5 -178t-243.5 -65q-206 0 -337.5 136.5t-131.5 348.5t131.5 349.5t337.5 137.5q138 0 243.5 -65t160.5 -178v209zM569 57q180 0 289 115t109 297t-109 298t-289 116
q-178 0 -288.5 -116t-110.5 -298q0 -181 110 -296.5t289 -115.5z" />
    <glyph glyph-name="r" unicode="r" horiz-adv-x="624" 
d="M195 768q45 85 127.5 133.5t183.5 54.5q20 0 20 -20v-33q0 -20 -20 -20q-134 -9 -222.5 -96t-88.5 -228v-539q0 -20 -21 -20h-35q-20 0 -20 20v902q0 20 20 20h35q21 0 21 -20v-154z" />
    <glyph glyph-name="s" unicode="s" horiz-adv-x="923" 
d="M82 172q-8 16 10 27l25 12q17 8 26 -10q34 -72 116 -113t198 -41q276 0 276 207q0 27 -9.5 51t-23 41t-37 32.5t-42.5 25t-50 19.5t-48 14.5t-48.5 12t-40.5 9.5q-6 2 -41.5 10t-52.5 13t-52.5 17t-56 23t-48 30.5t-42.5 40.5t-26 50.5t-11 63.5q0 120 92 185.5t250 65.5
q125 0 214 -43.5t122 -115.5q8 -16 -10 -27l-24 -12q-18 -9 -27 10q-28 55 -102 89t-175 34q-124 0 -194 -49t-70 -135q0 -28 9 -51t30.5 -41t39 -30t52 -23.5t51 -16.5t54.5 -14t45 -11q6 -1 42 -10t54 -14t55.5 -18t59.5 -25t51.5 -33t45.5 -43.5t28 -54.5t12 -68
q0 -136 -91 -207.5t-263 -71.5q-140 0 -237 51.5t-136 143.5z" />
    <glyph glyph-name="t" unicode="t" horiz-adv-x="614" 
d="M514 897q0 -20 -20 -20h-222v-676q0 -66 37 -99.5t99 -33.5h75q9 0 15 -6t6 -15v-27q0 -20 -21 -20h-94q-88 0 -141 51.5t-53 143.5v682h-117q-21 0 -21 20v25q0 20 21 20h117v264q0 21 20 21h37q20 0 20 -21v-264h222q20 0 20 -20v-25z" />
    <glyph glyph-name="u" unicode="u" horiz-adv-x="1062" 
d="M827 922q0 20 21 20h35q20 0 20 -20v-902q0 -20 -20 -20h-35q-21 0 -21 20v136q-49 -85 -136.5 -128.5t-192.5 -43.5q-104 0 -188 40t-137.5 126.5t-53.5 207.5v564q0 20 20 20h35q21 0 21 -20v-557q0 -141 88.5 -226.5t228.5 -85.5q139 0 227 85.5t88 226.5v557z" />
    <glyph glyph-name="v" unicode="v" horiz-adv-x="937" 
d="M424 0q-18 0 -23 16l-354 902q-4 10 -0.5 17t14.5 7h39q18 0 23 -16l323 -820l326 820q5 16 23 16h41q11 0 14.5 -7t-0.5 -17l-358 -902q-5 -16 -23 -16h-45z" />
    <glyph glyph-name="w" unicode="w" horiz-adv-x="1464" 
d="M1298 926q6 16 25 16h39q22 0 16 -22l-307 -904q-6 -16 -24 -16h-43q-19 0 -25 16l-264 781l-271 -781q-6 -16 -24 -16h-43q-19 0 -25 16l-303 904q-6 22 17 22h36q19 0 25 -16l274 -817l281 817q6 16 25 16h14q18 0 24 -16l277 -817z" />
    <glyph glyph-name="x" unicode="x" horiz-adv-x="972" 
d="M844 942q12 0 16 -7.5t-4 -16.5l-344 -447l344 -446q8 -9 4 -17t-16 -8h-45q-20 0 -27 12l-305 400l-307 -400q-7 -12 -27 -12h-45q-12 0 -16 8t4 17l344 446l-344 447q-8 9 -4 16.5t16 7.5h45q20 0 27 -12l307 -400l305 400q7 12 27 12h45z" />
    <glyph glyph-name="y" unicode="y" horiz-adv-x="937" 
d="M772 926q5 16 23 16h41q11 0 14.5 -7t-0.5 -17l-508 -1278q-6 -17 -23 -17h-36q-11 0 -15 7.5t0 17.5l140 354l-361 916q-4 10 -0.5 17t14.5 7h39q18 0 23 -16l323 -820z" />
    <glyph glyph-name="z" unicode="z" horiz-adv-x="886" 
d="M750 942q20 0 20 -20v-31q0 -16 -8 -27l-590 -794h565q9 0 15 -6t6 -15v-29q0 -20 -21 -20h-639q-20 0 -20 20v29q0 16 8 27l590 796h-565q-9 0 -15 6t-6 15v29q0 20 21 20h639z" />
    <glyph glyph-name="braceleft" unicode="{" horiz-adv-x="628" 
d="M301 791q0 -90 -65 -132q65 -42 65 -131v-469q0 -88 68 -88h80q20 0 20 -20v-29q0 -20 -20 -20h-99q-52 0 -89.5 35t-37.5 114v477q0 46 -21 72.5t-52 26.5h-11q-20 0 -20 20v25q0 20 20 20h11q31 0 52 26.5t21 72.5v477q0 80 37 114.5t90 34.5h99q20 0 20 -20v-29
q0 -20 -20 -20h-80q-68 0 -68 -88v-469z" />
    <glyph glyph-name="bar" unicode="|" horiz-adv-x="354" 
d="M197 -78q0 -20 -21 -20h-37q-20 0 -20 20v1475q0 20 20 20h37q21 0 21 -20v-1475z" />
    <glyph glyph-name="braceright" unicode="}" horiz-adv-x="628" 
d="M438 692h11q20 0 20 -20v-25q0 -20 -20 -20h-11q-31 0 -52 -26.5t-21 -72.5v-477q0 -78 -38 -113.5t-89 -35.5h-99q-20 0 -20 20v29q0 20 20 20h80q68 0 68 88v469q0 89 65 131q-65 42 -65 132v469q0 88 -68 88h-80q-20 0 -20 20v29q0 20 20 20h99q52 0 89.5 -34.5
t37.5 -114.5v-477q0 -46 21 -72.5t52 -26.5z" />
    <glyph glyph-name="asciitilde" unicode="~" horiz-adv-x="1234" 
d="M1006 760q0 20 20 20h29q20 0 20 -20q-8 -112 -78 -182t-184 -70q-21 0 -42 4t-36.5 8t-35 15t-29.5 16.5t-28.5 20.5t-23.5 19t-23.5 21.5t-19.5 18.5q-66 61 -95 79q-50 29 -101 29q-82 0 -133.5 -49.5t-57.5 -130.5q0 -20 -20 -20h-29q-20 0 -20 20q6 114 75.5 183
t182.5 69q24 0 46.5 -4t43.5 -13.5t36 -17t34.5 -23t27.5 -22t27 -25t22 -20.5q37 -34 59 -52t61.5 -36t78.5 -18q81 0 134 47.5t59 132.5z" />
    <glyph glyph-name="exclamdown" unicode="&#xa1;" horiz-adv-x="206" 
d="M98 1219q-23 0 -40 17t-17 40q0 24 16.5 40.5t40.5 16.5t41 -16.5t17 -40.5q0 -23 -17.5 -40t-40.5 -17zM141 20q0 -20 -20 -20h-45q-21 0 -21 20l6 1020q0 21 21 21h33q20 0 20 -21z" />
    <glyph glyph-name="cent" unicode="&#xa2;" horiz-adv-x="1378" 
d="M723 133q140 0 239 54t177 159q12 15 28 6l35 -20q18 -12 6 -29q-89 -122 -204 -185.5t-277 -64.5v-131q0 -20 -20 -20h-37q-21 0 -21 20v135q-127 12 -229 66.5t-167 138.5t-99.5 189.5t-34.5 224.5t34.5 224t99.5 188.5t167 137.5t229 66v115q0 20 21 20h37
q20 0 20 -20v-111q162 -1 277 -65t204 -187q11 -14 -6 -26l-35 -23q-15 -10 -28 6q-78 106 -177 161t-239 55q-165 0 -285.5 -74t-179.5 -195t-59 -272t59 -272.5t179.5 -196t285.5 -74.5z" />
    <glyph glyph-name="sterling" unicode="&#xa3;" horiz-adv-x="1062" 
d="M389 70h494q20 0 20 -21v-29q0 -20 -20 -20h-744q-20 0 -20 20v29q0 21 20 21q102 2 169.5 30.5t101 77.5t39 122t-12 158t-57.5 191h-221q-9 0 -15 6t-6 15v18q0 9 6 15t15 6h198l-10 22q-71 168 -59.5 296.5t84.5 211t206.5 113t305.5 0.5q18 -3 18 -23v-31
q0 -21 -22 -18q-154 29 -269.5 3.5t-175 -97.5t-66.5 -184.5t56 -258.5q2 -6 7 -17t7 -17h361q20 0 20 -21v-18q0 -21 -20 -21h-338q159 -444 -72 -579z" />
    <glyph glyph-name="currency" unicode="&#xa4;" horiz-adv-x="1155" 
d="M934 662q0 -147 -82 -248l129 -129q6 -6 6 -14.5t-6 -14.5l-20 -20q-15 -14 -29 0l-127 126q-106 -88 -246 -88q-145 0 -250 91l-127 -127q-14 -14 -28 0l-21 18q-6 6 -6 14.5t6 14.5l129 129q-80 108 -80 248t78 245l-127 127q-6 6 -6 14.5t6 14.5l21 20q14 14 28 0
l127 -127q105 91 250 91q141 0 248 -89l125 125q14 15 29 0l20 -18q6 -6 6 -14.5t-6 -14.5l-127 -127q80 -108 80 -247zM559 344q130 0 217.5 90t87.5 228q0 139 -87 227t-218 88q-130 0 -218.5 -88t-88.5 -227q0 -138 89 -228t218 -90z" />
    <glyph glyph-name="yen" unicode="&#xa5;" horiz-adv-x="1153" 
d="M1049 1331q12 0 15 -6.5t-3 -17.5l-451 -691h338q21 0 21 -20v-21q0 -20 -21 -20h-350v-209h350q21 0 21 -20v-19q0 -20 -21 -20h-350v-267q0 -20 -20 -20h-39q-21 0 -21 20v267h-352q-21 0 -21 20v19q0 20 21 20h352v209h-352q-21 0 -21 20v21q0 20 21 20h338l-451 691
q-6 11 -2.5 17.5t15.5 6.5h51q13 0 24 -14l416 -637l416 637q11 14 24 14h52z" />
    <glyph glyph-name="brokenbar" unicode="&#xa6;" horiz-adv-x="354" 
d="M197 854q0 -20 -21 -20h-37q-20 0 -20 20v543q0 20 20 20h37q21 0 21 -20v-543zM197 -78q0 -20 -21 -20h-37q-20 0 -20 20v543q0 20 20 20h37q21 0 21 -20v-543z" />
    <glyph glyph-name="section" unicode="&#xa7;" horiz-adv-x="1001" 
d="M623 449q44 -15 78.5 -33t68 -45.5t52 -67.5t18.5 -90q0 -137 -90.5 -206.5t-255.5 -69.5q-140 0 -234 51t-133 145q-9 18 12 25l27 10q18 6 27 -12q66 -150 301 -150q136 0 206 53.5t70 153.5q0 24 -6 45t-19.5 37.5t-27 30t-36 25t-39 19.5t-43.5 16t-42 12t-42 10.5
t-36 9.5q-4 1 -33 8.5t-40 10.5t-40.5 12.5t-43.5 16t-40 19t-39.5 24.5t-32 29.5t-27.5 36t-16 42.5t-7 51q0 93 53 154t152 83q-201 72 -201 223q0 117 90 184.5t244 67.5q120 0 198.5 -43t110.5 -118q9 -18 -12 -25l-29 -10q-19 -6 -25 12q-53 115 -243 115
q-126 0 -195.5 -48.5t-69.5 -134.5q0 -105 164 -162q33 -11 105 -30q12 -3 43.5 -10.5t53.5 -13t55.5 -16.5t57 -23t50.5 -31.5t43.5 -42t27.5 -54.5t11 -69q0 -89 -56 -148t-165 -79zM485 858q-126 0 -191 -48.5t-65 -137.5q0 -82 81.5 -126t195.5 -44q132 0 200 48.5
t68 127.5q0 63 -42 105t-104.5 58.5t-142.5 16.5z" />
    <glyph glyph-name="dieresis" unicode="&#xa8;" horiz-adv-x="544" 
d="M94 1237q-21 0 -37 15.5t-16 39.5q0 22 16 36.5t37 14.5q23 0 39.5 -14.5t16.5 -36.5q0 -24 -16.5 -39.5t-39.5 -15.5zM449 1237q-21 0 -37.5 15.5t-16.5 39.5q0 22 16.5 36.5t37.5 14.5q23 0 39 -14t16 -37q0 -24 -16.5 -39.5t-38.5 -15.5z" />
    <glyph glyph-name="copyright" unicode="&#xa9;" horiz-adv-x="1603" 
d="M782 -16q-194 0 -346 88t-234.5 243t-82.5 351t82.5 351t234.5 243t346 88t345.5 -88t234 -243t82.5 -351t-82.5 -351t-234 -243t-345.5 -88zM782 43q181 0 319.5 83t210.5 224t72 316q0 131 -42.5 245t-119 197.5t-190.5 131.5t-250 48t-250.5 -48t-191.5 -131.5
t-119.5 -197.5t-42.5 -245q0 -175 73 -316t212 -224t319 -83zM1053 866q-16 -13 -29 4q-33 46 -91.5 73.5t-131.5 27.5q-125 0 -208 -85t-83 -218q0 -135 83 -220.5t208 -85.5q69 0 128.5 29t94.5 72q13 17 29 6l16 -10q8 -5 10 -13t-4 -16q-97 -127 -274 -127
q-156 0 -254 103t-98 262t98 260.5t254 101.5q173 0 274 -125q13 -16 -6 -28z" />
    <glyph glyph-name="guillemotleft" unicode="&#xab;" horiz-adv-x="1034" 
d="M477 301q9 -11 4.5 -18t-16.5 -7h-51q-17 0 -25 11l-328 356q-12 15 0 29l328 356q7 10 25 10h51q13 0 16.5 -7t-4.5 -17l-327 -357zM926 301q8 -11 4 -18t-17 -7h-53q-16 0 -24 11l-328 356q-12 15 0 29l328 356q7 10 24 10h53q13 0 17 -7t-4 -17l-328 -357z" />
    <glyph glyph-name="logicalnot" unicode="&#xac;" horiz-adv-x="1038" 
d="M119 692q0 21 20 21h719q9 0 15 -6t6 -15v-293q0 -20 -21 -20h-37q-20 0 -20 20v236h-662q-20 0 -20 20v37z" />
    <glyph glyph-name="registered" unicode="&#xae;" horiz-adv-x="1601" 
d="M782 1348q194 0 345.5 -88.5t234 -243.5t82.5 -350t-82.5 -350t-234 -243.5t-345.5 -88.5t-346 88.5t-234.5 243.5t-82.5 350t82.5 350t234.5 243.5t346 88.5zM782 43q181 0 319 83.5t209.5 224t71.5 315.5q0 130 -42 244t-118.5 197.5t-190 132t-249.5 48.5
q-181 0 -320 -83t-211.5 -224t-72.5 -315t72.5 -315t211.5 -224.5t320 -83.5zM881 600h-2l202 -291q7 -9 3.5 -16.5t-15.5 -7.5h-25q-17 0 -24 12l-213 303h-213v-295q0 -20 -21 -20h-18q-20 0 -20 20v709q0 20 20 20h326q88 0 147 -62.5t59 -154.5q0 -90 -59.5 -153.5
t-146.5 -63.5zM594 975v-316h283q62 0 105.5 45.5t43.5 112.5q0 68 -43.5 113t-105.5 45h-283z" />
    <glyph glyph-name="macron" unicode="&#xaf;" horiz-adv-x="405" 
d="M41 1311q0 20 20 20h283q21 0 21 -20v-21q0 -20 -21 -20h-283q-20 0 -20 20v21z" />
    <glyph glyph-name="degree" unicode="&#xb0;" horiz-adv-x="694" 
d="M348 862q-100 0 -166.5 66t-66.5 170q0 105 66 170t167 65q99 0 165.5 -65.5t66.5 -169.5q0 -103 -67 -169.5t-165 -66.5zM348 918q71 0 121.5 51.5t50.5 128.5q0 76 -50.5 127t-121.5 51q-73 0 -123.5 -51t-50.5 -127q0 -77 50.5 -128.5t123.5 -51.5z" />
    <glyph glyph-name="plusminus" unicode="&#xb1;" horiz-adv-x="1011" 
d="M522 793h312q20 0 20 -21v-24q0 -21 -20 -21h-312v-180q0 -21 -20 -21h-31q-20 0 -20 21v180h-312q-20 0 -20 21v24q0 21 20 21h312v178q0 20 20 20h31q20 0 20 -20v-178zM139 324q-20 0 -20 20v25q0 20 20 20h695q20 0 20 -20v-25q0 -20 -20 -20h-695z" />
    <glyph glyph-name="uni00B2" unicode="&#xb2;" horiz-adv-x="710" 
d="M78 571q0 9 8 17l227 198q115 101 157 149q95 107 95 193q0 83 -59.5 129t-161.5 46q-75 0 -135 -31.5t-82 -81.5q-3 -10 -14 -6l-25 8q-9 6 -6 16q25 61 97.5 101.5t164.5 40.5q123 0 196.5 -58.5t73.5 -161.5q0 -25 -5.5 -50.5t-18.5 -51t-23.5 -46t-33 -46.5
t-34 -40.5t-39.5 -40t-36 -33.5t-36.5 -32.5t-29.5 -25.5l-202 -180h444q12 0 12 -13v-22q0 -12 -12 -12h-508q-12 0 -12 12z" />
    <glyph glyph-name="uni00B3" unicode="&#xb3;" horiz-adv-x="743" 
d="M338 1034q117 0 197.5 -67t80.5 -189q0 -119 -81 -189.5t-199 -70.5q-74 0 -141 29t-105 78q-9 9 2 16l17 16q10 6 18 -2q34 -40 89.5 -64t119.5 -24q99 0 165 58t66 153q0 100 -65.5 156.5t-165.5 56.5q-71 0 -127 -20q-14 -3 -14 10v18q0 5 8 17l325 268h-376
q-13 0 -13 12v23q0 12 13 12h436q12 0 12 -12v-25q0 -8 -6 -14l-297 -246h41z" />
    <glyph glyph-name="acute" unicode="&#xb4;" horiz-adv-x="245" 
d="M119 1317q6 14 22 14h37q11 0 15 -7t0 -17l-70 -142q-6 -14 -25 -14h-30q-11 0 -15 7.5t0 17.5z" />
    <glyph glyph-name="paragraph" unicode="&#xb6;" horiz-adv-x="923" 
d="M416 1331q20 0 20 -20v-1291q0 -20 -20 -20h-37q-21 0 -21 20v779q-131 0 -200.5 70t-69.5 194q0 119 67.5 193.5t196.5 74.5h64zM688 1311q0 20 21 20h36q21 0 21 -20v-1291q0 -20 -21 -20h-36q-21 0 -21 20v1291z" />
    <glyph glyph-name="periodcentered" unicode="&#xb7;" horiz-adv-x="284" 
d="M143 600q-29 0 -47 19t-18 47t18 46.5t47 18.5q28 0 47 -18.5t19 -46.5t-19 -47t-47 -19z" />
    <glyph glyph-name="cedilla" unicode="&#xb8;" horiz-adv-x="305" 
d="M143 -70q58 -4 87.5 -33t29.5 -65q0 -42 -30.5 -72t-92.5 -30q-42 0 -71 10q-17 6 -17 22v19q0 22 23 12q27 -8 65 -8q28 0 48 13t20 34t-22 34t-58 13q-19 0 -27 -2q-22 -6 -22 14l-2 17q0 14 2 14l41 64q11 14 24 14h13q12 0 16 -7t-2 -18z" />
    <glyph glyph-name="uni00B9" unicode="&#xb9;" horiz-adv-x="438" 
d="M266 1331q13 0 13 -12v-778q0 -13 -13 -13h-24q-13 0 -13 13v743h-178q-5 0 -8.5 4t-3.5 8v23q0 12 12 12h215z" />
    <glyph glyph-name="guillemotright" unicode="&#xbb;" horiz-adv-x="1093" 
d="M113 276q-13 0 -17 7t4 18l328 356l-328 357q-8 10 -4 17t17 7h49q16 0 24 -10l328 -356q12 -14 0 -29l-328 -356q-8 -11 -24 -11h-49zM559 276q-12 0 -16.5 7t4.5 18l327 356l-327 357q-8 10 -4.5 17t16.5 7h49q18 0 25 -10l328 -356q12 -14 0 -29l-328 -356
q-8 -11 -25 -11h-49z" />
    <glyph glyph-name="onequarter" unicode="&#xbc;" horiz-adv-x="987" 
d="M227 1331q11 0 11 -10v-651q0 -11 -11 -11h-20q-10 0 -10 11v622h-148q-10 0 -10 11v18q0 10 10 10h178zM96 14q-10 -14 -24 -14q-12 0 -16.5 7t1.5 18l799 1292q10 14 25 14q12 0 16 -6.5t-2 -17.5zM938 188q10 0 10 -10v-14q0 -10 -10 -10h-68v-144q0 -10 -10 -10h-20
q-11 0 -11 10v144h-346q-10 0 -10 10v14q0 11 4 15l348 460q2 6 13 6h22q10 0 10 -10v-461h68zM518 188h311v414z" />
    <glyph glyph-name="onehalf" unicode="&#xbd;" horiz-adv-x="1107" 
d="M227 1331q11 0 11 -10v-651q0 -11 -11 -11h-20q-10 0 -10 11v622h-148q-10 0 -10 11v18q0 10 10 10h178zM96 14q-10 -14 -24 -14q-12 0 -16.5 7t1.5 18l799 1292q10 14 25 14q12 0 16 -6.5t-2 -17.5zM633 29q0 8 4 12l184 160q98 88 130 125q73 84 73 151t-47 104
t-131 37q-60 0 -108.5 -25t-65.5 -65q-3 -9 -13 -6l-18 8q-9 3 -6 13q20 50 78.5 82t132.5 32q100 0 159.5 -47t59.5 -131q0 -36 -16.5 -74.5t-35.5 -66t-54.5 -63.5t-51.5 -49.5t-49 -41.5l-164 -145h361q8 0 8 -10v-19q0 -10 -8 -10h-412q-10 0 -10 10v19z" />
    <glyph glyph-name="threequarters" unicode="&#xbe;" horiz-adv-x="1097" 
d="M250 1085q97 0 164 -56t67 -155q0 -98 -67 -156.5t-164 -58.5q-62 0 -117.5 24t-87.5 65q-8 8 2 14l14 12q7 6 15 -2q28 -34 74.5 -54t99.5 -20q80 0 135 48t55 128q0 83 -54 129t-136 46q-60 0 -107 -17q-10 -3 -10 8v17q0 6 6 12l269 223h-312q-10 0 -10 11v18
q0 10 10 10h361q10 0 10 -10v-21q0 -6 -6 -12l-244 -203h33zM231 14q-11 -14 -24 -14q-12 0 -16 7t2 18l798 1292q11 14 25 14q12 0 16 -6.5t-2 -17.5zM1049 188q10 0 10 -10v-14q0 -10 -10 -10h-68v-144q0 -10 -10 -10h-21q-10 0 -10 10v144h-346q-10 0 -10 10v14
q0 11 4 15l348 460q2 6 12 6h23q10 0 10 -10v-461h68zM629 188h311v414z" />
    <glyph glyph-name="questiondown" unicode="&#xbf;" horiz-adv-x="890" 
d="M451 1239q-25 0 -41.5 16.5t-16.5 40.5q0 25 16.5 41.5t41.5 16.5q23 0 40 -17t17 -41q0 -23 -17 -40t-40 -17zM473 1073q21 0 21 -20v-29q0 -58 -15 -108.5t-44.5 -92t-46 -59.5t-46.5 -47q-107 -102 -134 -134q-79 -92 -86 -198q-1 -13 -1 -27q0 -132 92.5 -207
t237.5 -75q99 0 193 52t128 134q5 16 25 10l39 -14q18 -6 12 -25q-44 -103 -157 -169t-240 -66q-177 0 -294.5 96t-117.5 262q0 51 11.5 96.5t27 78.5t47 72t55 63t67.5 66q17 16 25 24l9 9q28 28 44.5 46.5t40 52.5t35 74t11.5 86v29q0 20 20 20h41z" />
    <glyph glyph-name="Agrave" unicode="&#xc0;" horiz-adv-x="1302" 
d="M582 1634q16 0 22 -16l66 -139q4 -10 -1 -17.5t-16 -7.5h-28q-19 0 -25 14l-72 142q-4 10 0 17t15 7h39zM1155 0q-17 0 -22 16l-160 383h-664l-159 -383q-5 -16 -23 -16h-43q-11 0 -15.5 7.5t-0.5 17.5l534 1290q5 16 23 16h32q18 0 23 -16l534 -1290q4 -10 -0.5 -17.5
t-15.5 -7.5h-43zM340 477h602l-301 727z" />
    <glyph glyph-name="Aacute" unicode="&#xc1;" horiz-adv-x="1302" 
d="M680 1620q6 14 22 14h37q11 0 15 -7t0 -17l-70 -142q-6 -14 -25 -14h-30q-11 0 -15 7.5t0 17.5zM1155 0q-17 0 -22 16l-160 383h-664l-159 -383q-5 -16 -23 -16h-43q-11 0 -15.5 7.5t-0.5 17.5l534 1290q5 16 23 16h32q18 0 23 -16l534 -1290q4 -10 -0.5 -17.5
t-15.5 -7.5h-43zM340 477h602l-301 727z" />
    <glyph glyph-name="Acircumflex" unicode="&#xc2;" horiz-adv-x="1302" 
d="M786 1479q6 -11 3 -18t-15 -7h-33q-13 0 -24 14l-76 125l-78 -125q-11 -14 -24 -14h-33q-12 0 -15 7t3 18l88 141q10 14 24 14h68q14 0 24 -14zM1155 0q-17 0 -22 16l-160 383h-664l-159 -383q-5 -16 -23 -16h-43q-11 0 -15.5 7.5t-0.5 17.5l534 1290q5 16 23 16h32
q18 0 23 -16l534 -1290q4 -10 -0.5 -17.5t-15.5 -7.5h-43zM340 477h602l-301 727z" />
    <glyph glyph-name="Atilde" unicode="&#xc3;" horiz-adv-x="1302" 
d="M406 1454q-10 0 -16 6.5t-5 16.5q9 58 47.5 95.5t93.5 37.5q73 0 131 -66q16 -18 25.5 -26.5t29.5 -18.5t42 -10q71 0 82 76q3 20 22 20h19q21 0 18 -22q-8 -60 -44.5 -96.5t-96.5 -36.5q-46 0 -75.5 18.5t-57.5 50.5q-47 51 -95 51q-34 0 -55 -21.5t-27 -55.5
q-3 -19 -20 -19h-18zM1155 0q-17 0 -22 16l-160 383h-664l-159 -383q-5 -16 -23 -16h-43q-11 0 -15.5 7.5t-0.5 17.5l534 1290q5 16 23 16h32q18 0 23 -16l534 -1290q4 -10 -0.5 -17.5t-15.5 -7.5h-43zM340 477h602l-301 727z" />
    <glyph glyph-name="Adieresis" unicode="&#xc4;" horiz-adv-x="1302" 
d="M463 1448q-21 0 -37 15.5t-16 39.5q0 22 16 36.5t37 14.5q23 0 39 -14t16 -37q0 -24 -16.5 -39.5t-38.5 -15.5zM817 1448q-21 0 -37 15.5t-16 39.5q0 22 16 36.5t37 14.5q23 0 39 -14t16 -37q0 -24 -16.5 -39.5t-38.5 -15.5zM1155 0q-17 0 -22 16l-160 383h-664
l-159 -383q-5 -16 -23 -16h-43q-11 0 -15.5 7.5t-0.5 17.5l534 1290q5 16 23 16h32q18 0 23 -16l534 -1290q4 -10 -0.5 -17.5t-15.5 -7.5h-43zM340 477h602l-301 727z" />
    <glyph glyph-name="Aring" unicode="&#xc5;" horiz-adv-x="1302" 
d="M641 1438q-58 0 -98.5 39.5t-40.5 99.5q0 63 40 102t99 39q58 0 97.5 -39t39.5 -102q0 -61 -39.5 -100t-97.5 -39zM641 1489q38 0 60 26.5t22 61.5t-22 61.5t-60 26.5t-61 -26.5t-23 -61.5t23 -61.5t61 -26.5zM1155 0q-17 0 -22 16l-160 383h-664l-159 -383
q-5 -16 -23 -16h-43q-11 0 -15.5 7.5t-0.5 17.5l534 1290q5 16 23 16h32q18 0 23 -16l534 -1290q4 -10 -0.5 -17.5t-15.5 -7.5h-43zM340 477h602l-301 727z" />
    <glyph glyph-name="AE" unicode="&#xc6;" horiz-adv-x="1943" 
d="M1049 1253v-551h682q20 0 20 -20v-37q0 -20 -20 -20h-682v-547h725q20 0 20 -21v-37q0 -20 -20 -20h-787q-20 0 -20 20v605h-564l-253 -609q-5 -16 -23 -16h-43q-11 0 -15.5 7.5t-0.5 17.5l538 1290q5 16 23 16h1145q20 0 20 -20v-37q0 -21 -20 -21h-725zM436 702h531
v551h-303z" />
    <glyph glyph-name="Ccedilla" unicode="&#xc7;" horiz-adv-x="1417" 
d="M1284 264q16 -13 4 -28q-85 -116 -214.5 -182t-289.5 -70q-1 -1 -2 -4.5t-2 -4.5l-26 -45q60 -4 89 -32.5t29 -65.5q0 -42 -31 -72t-93 -30q-41 0 -70 10q-16 5 -16 22v19q0 21 22 12q27 -8 64 -8q29 0 48 13t19 34q0 20 -21.5 33.5t-56.5 13.5q-18 0 -28 -2
q-23 -3 -23 17v14l2 14l39 62q-186 9 -329.5 98.5t-221.5 241.5t-78 342q0 196 83 351t235 243t346 88q167 0 302.5 -66.5t223.5 -185.5q13 -16 -4 -29l-35 -23q-14 -11 -28 7q-75 101 -194 158t-265 57q-171 0 -304.5 -77.5t-206.5 -214t-73 -308.5t73 -308.5t206.5 -214
t304.5 -77.5q146 0 264.5 58t194.5 159q13 16 28 4z" />
    <glyph glyph-name="Egrave" unicode="&#xc8;" horiz-adv-x="1101" 
d="M492 1634q16 0 22 -16l66 -139q4 -10 -1 -17.5t-16 -7.5h-28q-19 0 -25 14l-72 142q-4 10 0 17t15 7h39zM954 1274q0 -21 -20 -21h-735v-551h692q20 0 20 -20v-37q0 -20 -20 -20h-692v-547h735q20 0 20 -21v-37q0 -20 -20 -20h-795q-20 0 -20 20v1291q0 20 20 20h795
q20 0 20 -20v-37z" />
    <glyph glyph-name="Eacute" unicode="&#xc9;" horiz-adv-x="1101" 
d="M590 1620q6 14 22 14h37q11 0 15 -7t0 -17l-70 -142q-6 -14 -25 -14h-30q-11 0 -15 7.5t0 17.5zM954 1274q0 -21 -20 -21h-735v-551h692q20 0 20 -20v-37q0 -20 -20 -20h-692v-547h735q20 0 20 -21v-37q0 -20 -20 -20h-795q-20 0 -20 20v1291q0 20 20 20h795q20 0 20 -20
v-37z" />
    <glyph glyph-name="Ecircumflex" unicode="&#xca;" horiz-adv-x="1101" 
d="M696 1479q6 -11 3 -18t-15 -7h-33q-13 0 -24 14l-76 125l-78 -125q-11 -14 -24 -14h-33q-12 0 -15.5 7t2.5 18l89 141q10 14 24 14h68q14 0 24 -14zM954 1274q0 -21 -20 -21h-735v-551h692q20 0 20 -20v-37q0 -20 -20 -20h-692v-547h735q20 0 20 -21v-37q0 -20 -20 -20
h-795q-20 0 -20 20v1291q0 20 20 20h795q20 0 20 -20v-37z" />
    <glyph glyph-name="Edieresis" unicode="&#xcb;" horiz-adv-x="1101" 
d="M373 1448q-21 0 -37.5 15.5t-16.5 39.5q0 22 16.5 36.5t37.5 14.5q23 0 39 -14t16 -37q0 -24 -16.5 -39.5t-38.5 -15.5zM727 1448q-21 0 -37 15.5t-16 39.5q0 22 16 36.5t37 14.5q23 0 39 -14t16 -37q0 -24 -16.5 -39.5t-38.5 -15.5zM954 1274q0 -21 -20 -21h-735v-551
h692q20 0 20 -20v-37q0 -20 -20 -20h-692v-547h735q20 0 20 -21v-37q0 -20 -20 -20h-795q-20 0 -20 20v1291q0 20 20 20h795q20 0 20 -20v-37z" />
    <glyph glyph-name="Igrave" unicode="&#xcc;" horiz-adv-x="358" 
d="M98 1634q17 0 23 -16l65 -139q4 -10 -0.5 -17.5t-15.5 -7.5h-29q-18 0 -24 14l-72 142q-4 10 -0.5 17t14.5 7h39zM199 20q0 -20 -21 -20h-39q-20 0 -20 20v1291q0 20 20 20h39q21 0 21 -20v-1291z" />
    <glyph glyph-name="Iacute" unicode="&#xcd;" horiz-adv-x="358" 
d="M197 1620q6 14 22 14h37q11 0 14.5 -7t-0.5 -17l-69 -142q-6 -14 -25 -14h-31q-10 0 -14.5 7t0.5 18zM199 20q0 -20 -21 -20h-39q-20 0 -20 20v1291q0 20 20 20h39q21 0 21 -20v-1291z" />
    <glyph glyph-name="Icircumflex" unicode="&#xce;" horiz-adv-x="358" 
d="M303 1479q6 -11 3 -18t-15 -7h-33q-15 0 -25 14l-75 125l-78 -125q-10 -14 -25 -14h-32q-12 0 -15.5 7t2.5 18l88 141q11 14 25 14h67q14 0 25 -14zM199 20q0 -20 -21 -20h-39q-20 0 -20 20v1291q0 20 20 20h39q21 0 21 -20v-1291z" />
    <glyph glyph-name="Idieresis" unicode="&#xcf;" horiz-adv-x="358" 
d="M-20 1448q-21 0 -37.5 15.5t-16.5 39.5q0 22 16.5 36.5t37.5 14.5q23 0 39 -14t16 -37q0 -24 -16.5 -39.5t-38.5 -15.5zM334 1448q-21 0 -37 15.5t-16 39.5q0 22 16 36.5t37 14.5q23 0 39 -14t16 -37q0 -24 -16.5 -39.5t-38.5 -15.5zM199 20q0 -20 -21 -20h-39
q-20 0 -20 20v1291q0 20 20 20h39q21 0 21 -20v-1291z" />
    <glyph glyph-name="Ntilde" unicode="&#xd1;" horiz-adv-x="1261" 
d="M395 1454q-9 0 -15 6.5t-5 16.5q9 58 47.5 95.5t93.5 37.5q73 0 131 -66q17 -18 26 -26.5t28.5 -18.5t41.5 -10q71 0 82 76q3 20 23 20h18q22 0 19 -22q-8 -60 -45 -96.5t-97 -36.5q-46 0 -75.5 18.5t-57.5 50.5q-47 51 -94 51q-34 0 -55 -21.5t-27 -55.5q-3 -19 -20 -19
h-19zM1022 1311q0 20 20 20h41q21 0 21 -20v-1291q0 -20 -21 -20h-43q-17 0 -24 12l-815 1182v-1174q0 -20 -21 -20h-41q-20 0 -20 20v1291q0 20 20 20h43q18 0 25 -12l815 -1178v1170z" />
    <glyph glyph-name="Ograve" unicode="&#xd2;" horiz-adv-x="1550" 
d="M702 1634q17 0 23 -16l66 -139q4 -10 -1 -17.5t-16 -7.5h-29q-18 0 -24 14l-72 142q-4 10 0 17t15 7h38zM762 -16q-194 0 -346 88t-235 243t-83 351t83 351t235 243t346 88t345.5 -88t233.5 -243t82 -351t-82 -351t-233.5 -243t-345.5 -88zM762 66q172 0 304.5 77.5
t203.5 214t71 308.5t-71 308.5t-203.5 214t-304.5 77.5q-171 0 -304.5 -77.5t-206.5 -214t-73 -308.5t73 -308.5t206.5 -214t304.5 -77.5z" />
    <glyph glyph-name="Oacute" unicode="&#xd3;" horiz-adv-x="1550" 
d="M801 1620q6 14 22 14h37q11 0 14.5 -7t-0.5 -17l-69 -142q-6 -14 -25 -14h-30q-11 0 -15 7.5t0 17.5zM762 -16q-194 0 -346 88t-235 243t-83 351t83 351t235 243t346 88t345.5 -88t233.5 -243t82 -351t-82 -351t-233.5 -243t-345.5 -88zM762 66q172 0 304.5 77.5
t203.5 214t71 308.5t-71 308.5t-203.5 214t-304.5 77.5q-171 0 -304.5 -77.5t-206.5 -214t-73 -308.5t73 -308.5t206.5 -214t304.5 -77.5z" />
    <glyph glyph-name="Ocircumflex" unicode="&#xd4;" horiz-adv-x="1550" 
d="M907 1479q6 -11 3 -18t-15 -7h-33q-14 0 -24 14l-76 125l-78 -125q-10 -14 -25 -14h-32q-12 0 -15.5 7t2.5 18l88 141q10 14 25 14h68q13 0 24 -14zM762 -16q-194 0 -346 88t-235 243t-83 351t83 351t235 243t346 88t345.5 -88t233.5 -243t82 -351t-82 -351t-233.5 -243
t-345.5 -88zM762 66q172 0 304.5 77.5t203.5 214t71 308.5t-71 308.5t-203.5 214t-304.5 77.5q-171 0 -304.5 -77.5t-206.5 -214t-73 -308.5t73 -308.5t206.5 -214t304.5 -77.5z" />
    <glyph glyph-name="Otilde" unicode="&#xd5;" horiz-adv-x="1550" 
d="M526 1454q-9 0 -15 6.5t-5 16.5q9 58 47.5 95.5t93.5 37.5q73 0 131 -66q17 -18 26 -26.5t28.5 -18.5t41.5 -10q71 0 82 76q3 20 23 20h18q22 0 19 -22q-8 -60 -45 -96.5t-97 -36.5q-46 0 -75.5 18.5t-57.5 50.5q-47 51 -94 51q-34 0 -55 -21.5t-27 -55.5q-3 -19 -20 -19
h-19zM762 -16q-194 0 -346 88t-235 243t-83 351t83 351t235 243t346 88t345.5 -88t233.5 -243t82 -351t-82 -351t-233.5 -243t-345.5 -88zM762 66q172 0 304.5 77.5t203.5 214t71 308.5t-71 308.5t-203.5 214t-304.5 77.5q-171 0 -304.5 -77.5t-206.5 -214t-73 -308.5
t73 -308.5t206.5 -214t304.5 -77.5z" />
    <glyph glyph-name="Odieresis" unicode="&#xd6;" horiz-adv-x="1550" 
d="M584 1448q-21 0 -37.5 15.5t-16.5 39.5q0 22 16.5 36.5t37.5 14.5q23 0 39 -14t16 -37q0 -24 -16.5 -39.5t-38.5 -15.5zM938 1448q-21 0 -37 15.5t-16 39.5q0 22 16 36.5t37 14.5q23 0 39 -14t16 -37q0 -24 -16.5 -39.5t-38.5 -15.5zM762 -16q-194 0 -346 88t-235 243
t-83 351t83 351t235 243t346 88t345.5 -88t233.5 -243t82 -351t-82 -351t-233.5 -243t-345.5 -88zM762 66q172 0 304.5 77.5t203.5 214t71 308.5t-71 308.5t-203.5 214t-304.5 77.5q-171 0 -304.5 -77.5t-206.5 -214t-73 -308.5t73 -308.5t206.5 -214t304.5 -77.5z" />
    <glyph glyph-name="multiply" unicode="&#xd7;" horiz-adv-x="872" 
d="M700 920q14 -14 0 -29l-231 -232l229 -231q14 -14 0 -29l-22 -22q-6 -6 -14.5 -6t-14.5 6l-229 231l-232 -231q-14 -14 -28 0l-25 22q-6 6 -6 14.5t6 14.5l232 231l-232 232q-6 6 -6 14.5t6 14.5l23 22q14 14 28 0l232 -231l233 231q15 14 29 0z" />
    <glyph glyph-name="Oslash" unicode="&#xd8;" horiz-adv-x="1550" 
d="M1206 1188q104 -93 160.5 -227t56.5 -295q0 -196 -82 -351t-233.5 -243t-345.5 -88q-234 0 -400 122l-73 -94q-9 -12 -27 -12h-35q-12 0 -15.5 7t3.5 18l96 122q-102 93 -157.5 227t-55.5 292q0 196 83 351t235 243t346 88q227 0 393 -119l82 106q10 13 27 13h34
q12 0 16 -8t-3 -17zM178 666q0 -138 47.5 -254t134.5 -199l744 950q-144 103 -342 103q-172 0 -305.5 -77t-206 -213.5t-72.5 -309.5zM762 66q172 0 304.5 77.5t203.5 214t71 308.5q0 141 -48 258.5t-138 197.5l-743 -950q147 -106 350 -106z" />
    <glyph glyph-name="Ugrave" unicode="&#xd9;" horiz-adv-x="1257" 
d="M567 1634q17 0 23 -16l65 -139q4 -10 -0.5 -17.5t-15.5 -7.5h-29q-18 0 -24 14l-72 142q-4 10 -0.5 17t14.5 7h39zM1018 1311q0 20 20 20h41q21 0 21 -20v-854q0 -209 -133 -341t-359 -132t-357.5 131.5t-131.5 341.5v854q0 20 20 20h39q21 0 21 -20v-848
q0 -184 109.5 -292t299.5 -108t300 108t110 292v848z" />
    <glyph glyph-name="Uacute" unicode="&#xda;" horiz-adv-x="1257" 
d="M666 1620q6 14 22 14h37q11 0 14.5 -7t-0.5 -17l-69 -142q-6 -14 -25 -14h-31q-10 0 -14.5 7t0.5 18zM1018 1311q0 20 20 20h41q21 0 21 -20v-854q0 -209 -133 -341t-359 -132t-357.5 131.5t-131.5 341.5v854q0 20 20 20h39q21 0 21 -20v-848q0 -184 109.5 -292
t299.5 -108t300 108t110 292v848z" />
    <glyph glyph-name="Ucircumflex" unicode="&#xdb;" horiz-adv-x="1257" 
d="M772 1479q6 -11 3 -18t-15 -7h-33q-15 0 -25 14l-75 125l-78 -125q-11 -14 -25 -14h-32q-12 0 -15.5 7t2.5 18l88 141q11 14 25 14h67q15 0 25 -14zM1018 1311q0 20 20 20h41q21 0 21 -20v-854q0 -209 -133 -341t-359 -132t-357.5 131.5t-131.5 341.5v854q0 20 20 20h39
q21 0 21 -20v-848q0 -184 109.5 -292t299.5 -108t300 108t110 292v848z" />
    <glyph glyph-name="Udieresis" unicode="&#xdc;" horiz-adv-x="1257" 
d="M449 1448q-21 0 -37.5 15.5t-16.5 39.5q0 22 16.5 36.5t37.5 14.5q23 0 39 -14t16 -37q0 -24 -16.5 -39.5t-38.5 -15.5zM803 1448q-21 0 -37 15.5t-16 39.5q0 22 16 36.5t37 14.5q23 0 39 -14t16 -37q0 -24 -16.5 -39.5t-38.5 -15.5zM1018 1311q0 20 20 20h41
q21 0 21 -20v-854q0 -209 -133 -341t-359 -132t-357.5 131.5t-131.5 341.5v854q0 20 20 20h39q21 0 21 -20v-848q0 -184 109.5 -292t299.5 -108t300 108t110 292v848z" />
    <glyph glyph-name="Yacute" unicode="&#xdd;" horiz-adv-x="1153" 
d="M596 1620q6 14 22 14h37q11 0 15 -7t0 -17l-70 -142q-6 -14 -25 -14h-30q-11 0 -15 7.5t0 17.5zM1049 1331q12 0 15 -6.5t-3 -17.5l-463 -711v-576q0 -20 -20 -20h-39q-21 0 -21 20v572l-465 715q-6 11 -2.5 17.5t15.5 6.5h51q13 0 24 -14l416 -637l416 637q11 14 24 14
h52z" />
    <glyph glyph-name="germandbls" unicode="&#xdf;" horiz-adv-x="1050" 
d="M719 698q106 -35 169.5 -126t63.5 -210q0 -158 -103.5 -260t-268.5 -102h-261q-20 0 -20 20v35q0 21 20 21h250q132 0 217.5 80t85.5 206q0 124 -85.5 204.5t-217.5 80.5h-250q-20 0 -20 21v32q0 21 20 21h207q135 0 217 73.5t82 196.5q0 133 -85 211t-218 78
q-151 0 -237 -77.5t-86 -205.5v-977q0 -20 -21 -20h-39q-20 0 -20 20v979q0 162 110 258.5t293 96.5q164 0 272.5 -97t108.5 -262q0 -103 -49.5 -180.5t-134.5 -116.5z" />
    <glyph glyph-name="agrave" unicode="&#xe0;" 
d="M539 1260q15 0 22 -17l66 -139q4 -10 -1 -17.5t-16 -7.5h-28q-19 0 -25 15l-72 141q-4 10 0 17.5t15 7.5h39zM967 922q0 20 20 20h37q20 0 20 -20v-902q0 -20 -20 -20h-37q-20 0 -20 20v207q-55 -113 -160.5 -178t-243.5 -65q-206 0 -337.5 137.5t-131.5 349.5
t131.5 348.5t337.5 136.5q139 0 244 -64.5t160 -176.5v207zM569 57q180 0 289 116t109 298t-109 297t-289 115q-179 0 -289 -115.5t-110 -296.5q0 -182 110.5 -298t288.5 -116z" />
    <glyph glyph-name="aacute" unicode="&#xe1;" 
d="M637 1245q6 15 22 15h37q11 0 15 -7.5t0 -17.5l-70 -141q-6 -15 -25 -15h-30q-11 0 -15 7.5t0 17.5zM967 922q0 20 20 20h37q20 0 20 -20v-902q0 -20 -20 -20h-37q-20 0 -20 20v207q-55 -113 -160.5 -178t-243.5 -65q-206 0 -337.5 137.5t-131.5 349.5t131.5 348.5
t337.5 136.5q139 0 244 -64.5t160 -176.5v207zM569 57q180 0 289 116t109 298t-109 297t-289 115q-179 0 -289 -115.5t-110 -296.5q0 -182 110.5 -298t288.5 -116z" />
    <glyph glyph-name="acircumflex" unicode="&#xe2;" 
d="M743 1104q6 -10 3 -17.5t-15 -7.5h-33q-13 0 -24 15l-76 125l-78 -125q-11 -15 -24 -15h-33q-12 0 -15 7.5t3 17.5l88 141q11 15 24 15h68q13 0 24 -15zM967 922q0 20 20 20h37q20 0 20 -20v-902q0 -20 -20 -20h-37q-20 0 -20 20v207q-55 -113 -160.5 -178t-243.5 -65
q-206 0 -337.5 137.5t-131.5 349.5t131.5 348.5t337.5 136.5q139 0 244 -64.5t160 -176.5v207zM569 57q180 0 289 116t109 298t-109 297t-289 115q-179 0 -289 -115.5t-110 -296.5q0 -182 110.5 -298t288.5 -116z" />
    <glyph glyph-name="atilde" unicode="&#xe3;" 
d="M362 1079q-9 0 -15 6.5t-5 16.5q9 58 47.5 95.5t93.5 37.5q73 0 131 -66q16 -18 25.5 -26.5t29.5 -18.5t42 -10q71 0 82 76q3 20 22 20h19q21 0 18 -22q-8 -60 -44.5 -96.5t-96.5 -36.5q-46 0 -75.5 18.5t-57.5 50.5q-48 52 -95 52q-34 0 -55 -22t-27 -56q-3 -19 -20 -19
h-19zM967 922q0 20 20 20h37q20 0 20 -20v-902q0 -20 -20 -20h-37q-20 0 -20 20v207q-55 -113 -160.5 -178t-243.5 -65q-206 0 -337.5 137.5t-131.5 349.5t131.5 348.5t337.5 136.5q139 0 244 -64.5t160 -176.5v207zM569 57q180 0 289 116t109 298t-109 297t-289 115
q-179 0 -289 -115.5t-110 -296.5q0 -182 110.5 -298t288.5 -116z" />
    <glyph glyph-name="adieresis" unicode="&#xe4;" 
d="M420 1073q-21 0 -37 15.5t-16 39.5q0 22 16 37t37 15q22 0 38.5 -14.5t16.5 -37.5q0 -24 -16.5 -39.5t-38.5 -15.5zM774 1073q-21 0 -37 15.5t-16 39.5q0 22 16 37t37 15q22 0 38.5 -14.5t16.5 -37.5q0 -24 -16.5 -39.5t-38.5 -15.5zM967 922q0 20 20 20h37q20 0 20 -20
v-902q0 -20 -20 -20h-37q-20 0 -20 20v207q-55 -113 -160.5 -178t-243.5 -65q-206 0 -337.5 137.5t-131.5 349.5t131.5 348.5t337.5 136.5q139 0 244 -64.5t160 -176.5v207zM569 57q180 0 289 116t109 298t-109 297t-289 115q-179 0 -289 -115.5t-110 -296.5
q0 -182 110.5 -298t288.5 -116z" />
    <glyph glyph-name="aring" unicode="&#xe5;" 
d="M598 1063q-58 0 -98.5 39.5t-40.5 99.5q0 63 40 102t99 39q58 0 97.5 -39t39.5 -102q0 -61 -39.5 -100t-97.5 -39zM598 1114q38 0 60 26.5t22 61.5t-22 61.5t-60 26.5t-61 -26.5t-23 -61.5t23 -61.5t61 -26.5zM967 922q0 20 20 20h37q20 0 20 -20v-902q0 -20 -20 -20h-37
q-20 0 -20 20v207q-55 -113 -160.5 -178t-243.5 -65q-206 0 -337.5 137.5t-131.5 349.5t131.5 348.5t337.5 136.5q139 0 244 -64.5t160 -176.5v207zM569 57q180 0 289 116t109 298t-109 297t-289 115q-179 0 -289 -115.5t-110 -296.5q0 -182 110.5 -298t288.5 -116z" />
    <glyph glyph-name="ae" unicode="&#xe6;" horiz-adv-x="1910" 
d="M1325 956q195 0 322 -137t127 -348v-12q0 -9 -6 -15t-15 -6h-797q9 -173 112 -279t271 -106q101 0 184.5 40t137.5 114q13 17 29 6l22 -14q8 -5 10 -13t-4 -16q-63 -88 -161.5 -137t-219.5 -49q-161 0 -277.5 82t-160.5 213q-65 -295 -418 -295q-193 0 -290 55.5
t-97 191.5q0 174 185 231q118 37 384 37q27 0 82 -1h89q0 218 -75.5 305.5t-246.5 87.5q-238 0 -315 -158q-9 -18 -27 -12l-29 8q-22 7 -12 27q86 200 385 200q173 0 268.5 -70.5t116.5 -201.5q50 126 162.5 199t263.5 73zM1329 889q-172 0 -269.5 -106.5t-105.5 -282.5h746
q-6 173 -110 281t-261 108zM477 47q185 0 271 94.5t86 296.5q-35 0 -106 1q-74 2 -144 0t-132 -5.5t-114 -17.5t-89 -35.5t-58 -59t-21 -88.5q0 -105 74.5 -145.5t232.5 -40.5z" />
    <glyph glyph-name="ccedilla" unicode="&#xe7;" horiz-adv-x="1067" 
d="M936 186q16 -13 4 -28q-59 -79 -149 -124.5t-201 -49.5q0 -5 -2 -7l-27 -45q60 -4 89.5 -32.5t29.5 -65.5q0 -42 -31 -72t-94 -30q-41 0 -70 10q-16 5 -16 22v19q0 22 23 12q27 -8 63 -8q29 0 48.5 13t19.5 34q0 20 -21.5 33.5t-56.5 13.5q-19 0 -29 -2q-22 -3 -22 17v14
l2 14l36 62q-194 12 -316 147.5t-122 337.5q0 212 132.5 348.5t342.5 136.5q116 0 212 -45.5t159 -126.5q12 -15 -4 -28l-25 -19q-15 -12 -28 4q-116 142 -312 142q-180 0 -290.5 -115t-110.5 -297t110.5 -298t290.5 -116q194 0 312 142q13 16 28 4z" />
    <glyph glyph-name="egrave" unicode="&#xe8;" horiz-adv-x="1142" 
d="M498 1260q15 0 22 -17l66 -139q4 -10 -1 -17.5t-16 -7.5h-28q-19 0 -25 15l-72 141q-4 10 0 17.5t15 7.5h39zM557 956q197 0 323 -137t126 -348v-10q0 -9 -6 -15t-15 -6h-815q11 -173 119.5 -280t279.5 -107q105 0 188.5 41t135.5 113q13 17 29 4l22 -14q8 -5 10 -13
t-4 -16q-62 -87 -160.5 -135.5t-220.5 -48.5q-211 0 -343 137.5t-132 349.5q0 213 127 349t336 136zM557 889q-171 0 -274.5 -106.5t-112.5 -280.5h764q-9 170 -113 278.5t-264 108.5z" />
    <glyph glyph-name="eacute" unicode="&#xe9;" horiz-adv-x="1142" 
d="M596 1245q6 15 22 15h37q11 0 15 -7.5t0 -17.5l-70 -141q-6 -15 -25 -15h-30q-11 0 -15 7.5t0 17.5zM557 956q197 0 323 -137t126 -348v-10q0 -9 -6 -15t-15 -6h-815q11 -173 119.5 -280t279.5 -107q105 0 188.5 41t135.5 113q13 17 29 4l22 -14q8 -5 10 -13t-4 -16
q-62 -87 -160.5 -135.5t-220.5 -48.5q-211 0 -343 137.5t-132 349.5q0 213 127 349t336 136zM557 889q-171 0 -274.5 -106.5t-112.5 -280.5h764q-9 170 -113 278.5t-264 108.5z" />
    <glyph glyph-name="ecircumflex" unicode="&#xea;" horiz-adv-x="1142" 
d="M702 1104q6 -10 3 -17.5t-15 -7.5h-33q-13 0 -24 15l-76 125l-78 -125q-11 -15 -24 -15h-33q-12 0 -15 7.5t3 17.5l88 141q11 15 24 15h68q13 0 24 -15zM557 956q197 0 323 -137t126 -348v-10q0 -9 -6 -15t-15 -6h-815q11 -173 119.5 -280t279.5 -107q105 0 188.5 41
t135.5 113q13 17 29 4l22 -14q8 -5 10 -13t-4 -16q-62 -87 -160.5 -135.5t-220.5 -48.5q-211 0 -343 137.5t-132 349.5q0 213 127 349t336 136zM557 889q-171 0 -274.5 -106.5t-112.5 -280.5h764q-9 170 -113 278.5t-264 108.5z" />
    <glyph glyph-name="edieresis" unicode="&#xeb;" horiz-adv-x="1142" 
d="M379 1073q-21 0 -37 15.5t-16 39.5q0 22 16 37t37 15q22 0 38.5 -14.5t16.5 -37.5q0 -24 -16.5 -39.5t-38.5 -15.5zM733 1073q-21 0 -37 15.5t-16 39.5q0 22 16 37t37 15q22 0 38.5 -14.5t16.5 -37.5q0 -24 -16.5 -39.5t-38.5 -15.5zM557 956q197 0 323 -137t126 -348
v-10q0 -9 -6 -15t-15 -6h-815q11 -173 119.5 -280t279.5 -107q105 0 188.5 41t135.5 113q13 17 29 4l22 -14q8 -5 10 -13t-4 -16q-62 -87 -160.5 -135.5t-220.5 -48.5q-211 0 -343 137.5t-132 349.5q0 213 127 349t336 136zM557 889q-171 0 -274.5 -106.5t-112.5 -280.5h764
q-9 170 -113 278.5t-264 108.5z" />
    <glyph glyph-name="igrave" unicode="&#xec;" horiz-adv-x="389" 
d="M115 1260q15 0 22 -17l66 -139q4 -10 -1 -17.5t-16 -7.5h-28q-19 0 -25 15l-72 141q-4 10 0 17.5t15 7.5h39zM213 20q0 -20 -20 -20h-37q-21 0 -21 20v902q0 20 21 20h37q20 0 20 -20v-902z" />
    <glyph glyph-name="iacute" unicode="&#xed;" horiz-adv-x="389" 
d="M213 1245q6 15 23 15h36q11 0 15 -7.5t0 -17.5l-70 -141q-6 -15 -24 -15h-31q-11 0 -15 7.5t0 17.5zM213 20q0 -20 -20 -20h-37q-21 0 -21 20v902q0 20 21 20h37q20 0 20 -20v-902z" />
    <glyph glyph-name="icircumflex" unicode="&#xee;" horiz-adv-x="389" 
d="M319 1104q6 -10 3 -17.5t-15 -7.5h-33q-13 0 -24 15l-76 125l-78 -125q-11 -15 -24 -15h-33q-12 0 -15 7.5t3 17.5l88 141q11 15 24 15h68q13 0 24 -15zM213 20q0 -20 -20 -20h-37q-21 0 -21 20v902q0 20 21 20h37q20 0 20 -20v-902z" />
    <glyph glyph-name="idieresis" unicode="&#xef;" horiz-adv-x="389" 
d="M-4 1073q-21 0 -37 15.5t-16 39.5q0 22 16 37t37 15q22 0 38.5 -14.5t16.5 -37.5q0 -24 -16.5 -39.5t-38.5 -15.5zM350 1073q-21 0 -37 15.5t-16 39.5q0 22 16 37t37 15q23 0 39.5 -14.5t16.5 -37.5q0 -24 -16.5 -39.5t-39.5 -15.5zM213 20q0 -20 -20 -20h-37
q-21 0 -21 20v902q0 20 21 20h37q20 0 20 -20v-902z" />
    <glyph glyph-name="ntilde" unicode="&#xf1;" horiz-adv-x="1062" 
d="M274 1079q-9 0 -15 6.5t-5 16.5q9 58 47.5 95.5t93.5 37.5q73 0 131 -66q16 -18 25.5 -26.5t29.5 -18.5t42 -10q71 0 82 76q3 20 22 20h18q22 0 19 -22q-8 -60 -44.5 -96.5t-96.5 -36.5q-46 0 -76 18.5t-58 50.5q-48 52 -94 52q-34 0 -55 -22t-27 -56q-3 -19 -20 -19h-19
zM524 956q104 0 188 -40t137.5 -126.5t53.5 -207.5v-562q0 -20 -20 -20h-35q-21 0 -21 20v555q0 141 -88.5 226.5t-228.5 85.5q-139 0 -227 -85.5t-88 -226.5v-555q0 -20 -21 -20h-35q-20 0 -20 20v902q0 20 20 20h35q21 0 21 -20v-138q49 85 136.5 128.5t192.5 43.5z" />
    <glyph glyph-name="ograve" unicode="&#xf2;" horiz-adv-x="1179" 
d="M510 1260q15 0 22 -17l66 -139q4 -10 -0.5 -17.5t-15.5 -7.5h-29q-19 0 -25 15l-71 141q-5 11 -0.5 18t14.5 7h39zM569 -16q-210 0 -342.5 137.5t-132.5 349.5t132.5 348.5t342.5 136.5q211 0 343 -136.5t132 -348.5t-132 -349.5t-343 -137.5zM569 57q177 0 286.5 117
t109.5 297t-109.5 296t-286.5 116q-176 0 -285.5 -116t-109.5 -296t110 -297t285 -117z" />
    <glyph glyph-name="oacute" unicode="&#xf3;" horiz-adv-x="1179" 
d="M608 1245q6 15 23 15h37q10 0 14.5 -7t-0.5 -18l-70 -141q-6 -15 -24 -15h-31q-10 0 -14.5 7.5t0.5 17.5zM569 -16q-210 0 -342.5 137.5t-132.5 349.5t132.5 348.5t342.5 136.5q211 0 343 -136.5t132 -348.5t-132 -349.5t-343 -137.5zM569 57q177 0 286.5 117t109.5 297
t-109.5 296t-286.5 116q-176 0 -285.5 -116t-109.5 -296t110 -297t285 -117z" />
    <glyph glyph-name="ocircumflex" unicode="&#xf4;" horiz-adv-x="1179" 
d="M715 1104q6 -10 2.5 -17.5t-15.5 -7.5h-32q-14 0 -25 15l-76 125l-77 -125q-11 -15 -25 -15h-33q-12 0 -15 7.5t3 17.5l88 141q11 15 25 15h67q14 0 25 -15zM569 -16q-210 0 -342.5 137.5t-132.5 349.5t132.5 348.5t342.5 136.5q211 0 343 -136.5t132 -348.5t-132 -349.5
t-343 -137.5zM569 57q177 0 286.5 117t109.5 297t-109.5 296t-286.5 116q-176 0 -285.5 -116t-109.5 -296t110 -297t285 -117z" />
    <glyph glyph-name="otilde" unicode="&#xf5;" horiz-adv-x="1179" 
d="M334 1079q-10 0 -16 6.5t-5 16.5q9 58 48 95.5t94 37.5q73 0 131 -66q17 -18 26 -26.5t28.5 -18.5t41.5 -10q71 0 82 76q3 20 22 20h19q21 0 18 -22q-8 -60 -44.5 -96.5t-96.5 -36.5q-46 0 -75.5 18.5t-57.5 50.5q-48 52 -94 52q-34 0 -55 -22t-27 -56q-3 -19 -21 -19
h-18zM569 -16q-210 0 -342.5 137.5t-132.5 349.5t132.5 348.5t342.5 136.5q211 0 343 -136.5t132 -348.5t-132 -349.5t-343 -137.5zM569 57q177 0 286.5 117t109.5 297t-109.5 296t-286.5 116q-176 0 -285.5 -116t-109.5 -296t110 -297t285 -117z" />
    <glyph glyph-name="odieresis" unicode="&#xf6;" horiz-adv-x="1179" 
d="M391 1073q-21 0 -37 15.5t-16 39.5q0 22 16 37t37 15q22 0 38.5 -14.5t16.5 -37.5q0 -24 -16.5 -39.5t-38.5 -15.5zM745 1073q-21 0 -37 15.5t-16 39.5q0 22 16 37t37 15q23 0 39.5 -14.5t16.5 -37.5q0 -24 -16.5 -39.5t-39.5 -15.5zM569 -16q-210 0 -342.5 137.5
t-132.5 349.5t132.5 348.5t342.5 136.5q211 0 343 -136.5t132 -348.5t-132 -349.5t-343 -137.5zM569 57q177 0 286.5 117t109.5 297t-109.5 296t-286.5 116q-176 0 -285.5 -116t-109.5 -296t110 -297t285 -117z" />
    <glyph glyph-name="divide" unicode="&#xf7;" horiz-adv-x="1030" 
d="M496 907q-24 0 -41 17t-17 41q0 25 16.5 41t41.5 16t41 -16t16 -41q0 -24 -16.5 -41t-40.5 -17zM119 674q0 20 20 20h711q20 0 20 -20v-29q0 -20 -20 -20h-711q-20 0 -20 20v29zM496 297q-25 0 -41.5 16t-16.5 41t16.5 41.5t41.5 16.5t41 -16.5t16 -41.5t-16 -41t-41 -16
z" />
    <glyph glyph-name="oslash" unicode="&#xf8;" horiz-adv-x="1179" 
d="M887 844q76 -66 116.5 -162t40.5 -211q0 -212 -132 -349.5t-343 -137.5q-163 0 -282 86l-45 -58q-9 -12 -27 -12h-8q-12 0 -15.5 7t3.5 18l57 73q-76 67 -117 163t-41 210q0 212 132.5 348.5t342.5 136.5q164 0 283 -86l45 60q7 12 27 12h8q12 0 15.5 -7t-3.5 -17z
M174 471q0 -195 125 -311l506 651q-101 72 -236 72q-176 0 -285.5 -116t-109.5 -296zM569 57q177 0 286.5 117t109.5 297q0 195 -125 311l-506 -651q99 -74 235 -74z" />
    <glyph glyph-name="ugrave" unicode="&#xf9;" horiz-adv-x="1062" 
d="M469 1260q16 0 23 -17l65 -139q4 -10 -0.5 -17.5t-15.5 -7.5h-29q-19 0 -25 15l-71 141q-5 11 -0.5 18t14.5 7h39zM827 922q0 20 21 20h35q20 0 20 -20v-902q0 -20 -20 -20h-35q-21 0 -21 20v136q-49 -85 -136.5 -128.5t-192.5 -43.5q-104 0 -188 40t-137.5 126.5
t-53.5 207.5v564q0 20 20 20h35q21 0 21 -20v-557q0 -141 88.5 -226.5t228.5 -85.5q139 0 227 85.5t88 226.5v557z" />
    <glyph glyph-name="uacute" unicode="&#xfa;" horiz-adv-x="1062" 
d="M567 1245q6 15 23 15h37q10 0 14.5 -7t-0.5 -18l-70 -141q-6 -15 -24 -15h-31q-10 0 -14.5 7.5t0.5 17.5zM827 922q0 20 21 20h35q20 0 20 -20v-902q0 -20 -20 -20h-35q-21 0 -21 20v136q-49 -85 -136.5 -128.5t-192.5 -43.5q-104 0 -188 40t-137.5 126.5t-53.5 207.5
v564q0 20 20 20h35q21 0 21 -20v-557q0 -141 88.5 -226.5t228.5 -85.5q139 0 227 85.5t88 226.5v557z" />
    <glyph glyph-name="ucircumflex" unicode="&#xfb;" horiz-adv-x="1062" 
d="M674 1104q6 -10 3 -17.5t-15 -7.5h-33q-14 0 -25 15l-76 125l-77 -125q-11 -15 -25 -15h-33q-12 0 -15 7.5t3 17.5l88 141q11 15 25 15h67q14 0 25 -15zM827 922q0 20 21 20h35q20 0 20 -20v-902q0 -20 -20 -20h-35q-21 0 -21 20v136q-49 -85 -136.5 -128.5t-192.5 -43.5
q-104 0 -188 40t-137.5 126.5t-53.5 207.5v564q0 20 20 20h35q21 0 21 -20v-557q0 -141 88.5 -226.5t228.5 -85.5q139 0 227 85.5t88 226.5v557z" />
    <glyph glyph-name="udieresis" unicode="&#xfc;" horiz-adv-x="1062" 
d="M350 1073q-21 0 -37 15.5t-16 39.5q0 22 16 37t37 15q23 0 39.5 -14.5t16.5 -37.5q0 -24 -16.5 -39.5t-39.5 -15.5zM705 1073q-21 0 -37.5 15.5t-16.5 39.5q0 22 16.5 37t37.5 15q22 0 38.5 -14.5t16.5 -37.5q0 -24 -16.5 -39.5t-38.5 -15.5zM827 922q0 20 21 20h35
q20 0 20 -20v-902q0 -20 -20 -20h-35q-21 0 -21 20v136q-49 -85 -136.5 -128.5t-192.5 -43.5q-104 0 -188 40t-137.5 126.5t-53.5 207.5v564q0 20 20 20h35q21 0 21 -20v-557q0 -141 88.5 -226.5t228.5 -85.5q139 0 227 85.5t88 226.5v557z" />
    <glyph glyph-name="yacute" unicode="&#xfd;" horiz-adv-x="937" 
d="M485 1245q6 15 23 15h37q10 0 14.5 -7t-0.5 -18l-70 -141q-6 -15 -24 -15h-31q-10 0 -14.5 7.5t0.5 17.5zM772 926q5 16 23 16h41q11 0 14.5 -7t-0.5 -17l-508 -1278q-6 -17 -23 -17h-36q-11 0 -15 7.5t0 17.5l140 354l-361 916q-4 10 -0.5 17t14.5 7h39q18 0 23 -16
l323 -820z" />
    <glyph glyph-name="ydieresis" unicode="&#xff;" horiz-adv-x="937" 
d="M268 1073q-21 0 -37 15.5t-16 39.5q0 22 16 37t37 15q23 0 39.5 -14.5t16.5 -37.5q0 -24 -16.5 -39.5t-39.5 -15.5zM623 1073q-21 0 -37.5 15.5t-16.5 39.5q0 22 16.5 37t37.5 15q22 0 38.5 -14.5t16.5 -37.5q0 -24 -16.5 -39.5t-38.5 -15.5zM772 926q5 16 23 16h41
q11 0 14.5 -7t-0.5 -17l-508 -1278q-6 -17 -23 -17h-36q-11 0 -15 7.5t0 17.5l140 354l-361 916q-4 10 -0.5 17t14.5 7h39q18 0 23 -16l323 -820z" />
    <glyph glyph-name="Amacron" unicode="&#x100;" horiz-adv-x="1302" 
d="M479 1495q0 9 6 15t15 6h282q9 0 15 -6t6 -15v-20q0 -9 -6 -15t-15 -6h-282q-9 0 -15 6t-6 15v20zM1155 0q-17 0 -22 16l-160 383h-664l-159 -383q-5 -16 -23 -16h-43q-11 0 -15.5 7.5t-0.5 17.5l534 1290q5 16 23 16h32q18 0 23 -16l534 -1290q4 -10 -0.5 -17.5
t-15.5 -7.5h-43zM340 477h602l-301 727z" />
    <glyph glyph-name="amacron" unicode="&#x101;" 
d="M436 1118q0 9 6 15t15 6h282q9 0 15 -6t6 -15v-20q0 -9 -6 -15t-15 -6h-282q-9 0 -15 6t-6 15v20zM967 922q0 20 20 20h37q20 0 20 -20v-902q0 -20 -20 -20h-37q-20 0 -20 20v207q-55 -113 -160.5 -178t-243.5 -65q-206 0 -337.5 137.5t-131.5 349.5t131.5 348.5
t337.5 136.5q139 0 244 -64.5t160 -176.5v207zM569 57q180 0 289 116t109 298t-109 297t-289 115q-179 0 -289 -115.5t-110 -296.5q0 -182 110.5 -298t288.5 -116z" />
    <glyph glyph-name="Abreve" unicode="&#x102;" horiz-adv-x="1302" 
d="M776 1614q21 0 21 -6q0 -68 -45 -112t-111 -44t-112 44t-46 112q0 6 21 6h18q21 0 21 -6q0 -41 27 -70t71 -29q43 0 69.5 29t26.5 70q0 6 21 6h18zM1155 0q-17 0 -22 16l-160 383h-664l-159 -383q-5 -16 -23 -16h-43q-11 0 -15.5 7.5t-0.5 17.5l534 1290q5 16 23 16h32
q18 0 23 -16l534 -1290q4 -10 -0.5 -17.5t-15.5 -7.5h-43zM340 477h602l-301 727z" />
    <glyph glyph-name="abreve" unicode="&#x103;" 
d="M733 1239q21 0 21 -6q0 -68 -45 -112t-111 -44t-112 44t-46 112q0 6 21 6h18q21 0 21 -6q0 -41 27 -69.5t71 -28.5q43 0 69.5 28.5t26.5 69.5q0 6 21 6h18zM967 922q0 20 20 20h37q20 0 20 -20v-902q0 -20 -20 -20h-37q-20 0 -20 20v207q-55 -113 -160.5 -178t-243.5 -65
q-206 0 -337.5 137.5t-131.5 349.5t131.5 348.5t337.5 136.5q139 0 244 -64.5t160 -176.5v207zM569 57q180 0 289 116t109 298t-109 297t-289 115q-179 0 -289 -115.5t-110 -296.5q0 -182 110.5 -298t288.5 -116z" />
    <glyph glyph-name="Aogonek" unicode="&#x104;" horiz-adv-x="1302" 
d="M1167 -2q-55 -51 -55 -100q0 -23 16.5 -35t51.5 -2q24 6 24 -17v-16q0 -20 -18 -23q-67 -16 -102 12.5t-35 71.5q0 75 81 127h3l-160 383h-664l-159 -383q-5 -16 -23 -16h-43q-11 0 -15.5 7.5t-0.5 17.5l534 1290q5 16 23 16h32q18 0 23 -16l534 -1290q4 -10 -0.5 -17.5
t-15.5 -7.5h-29zM340 477h602l-301 727z" />
    <glyph glyph-name="aogonek" unicode="&#x105;" 
d="M1026 -152q25 6 25 -16v-16q0 -20 -19 -23q-67 -16 -102 12.5t-35 71.5q0 72 80 127q-8 4 -8 16v207q-55 -113 -160.5 -178t-243.5 -65q-206 0 -337.5 137.5t-131.5 349.5t131.5 348.5t337.5 136.5q139 0 244 -64.5t160 -176.5v207q0 20 20 20h37q20 0 20 -20v-902
q0 -20 -20 -20h-2q0 -9 -8 -14q-56 -52 -56 -101q0 -23 16.5 -35t51.5 -2zM569 57q180 0 289 116t109 298t-109 297t-289 115q-179 0 -289 -115.5t-110 -296.5q0 -182 110.5 -298t288.5 -116z" />
    <glyph glyph-name="Cacute" unicode="&#x106;" horiz-adv-x="1417" 
d="M797 1624q6 14 22 14h37q11 0 14.5 -7t-0.5 -17l-69 -141q-6 -15 -25 -15h-31q-10 0 -14.5 7t0.5 18zM1249 1044q-14 -11 -28 7q-75 101 -194 158t-265 57q-171 0 -304.5 -77.5t-206.5 -214t-73 -308.5t73 -308.5t206.5 -214t304.5 -77.5q146 0 264.5 58t194.5 159
q13 16 28 4l35 -23q16 -13 4 -28q-88 -119 -223.5 -185.5t-302.5 -66.5q-194 0 -346 88t-235 243t-83 351t83 351t235 243t346 88q167 0 302.5 -66.5t223.5 -185.5q13 -16 -4 -29z" />
    <glyph glyph-name="cacute" unicode="&#x107;" horiz-adv-x="1067" 
d="M608 1245q6 15 23 15h37q10 0 14.5 -7t-0.5 -18l-70 -141q-6 -15 -24 -15h-31q-10 0 -14.5 7.5t0.5 17.5zM911 737q-15 -12 -28 4q-116 142 -312 142q-180 0 -290.5 -115t-110.5 -297t110.5 -298t290.5 -116q194 0 312 142q13 16 28 4l25 -17q16 -13 4 -28
q-62 -83 -158 -128.5t-213 -45.5q-210 0 -342.5 137.5t-132.5 349.5t132.5 348.5t342.5 136.5q116 0 212 -45.5t159 -126.5q12 -15 -4 -28z" />
    <glyph glyph-name="Cdotaccent" unicode="&#x10a;" horiz-adv-x="1417" 
d="M758 1452q-21 0 -37 15.5t-16 39.5q0 22 16 37t37 15q22 0 38.5 -14.5t16.5 -37.5q0 -24 -16.5 -39.5t-38.5 -15.5zM1249 1044q-14 -11 -28 7q-75 101 -194 158t-265 57q-171 0 -304.5 -77.5t-206.5 -214t-73 -308.5t73 -308.5t206.5 -214t304.5 -77.5q146 0 264.5 58
t194.5 159q13 16 28 4l35 -23q16 -13 4 -28q-88 -119 -223.5 -185.5t-302.5 -66.5q-194 0 -346 88t-235 243t-83 351t83 351t235 243t346 88q167 0 302.5 -66.5t223.5 -185.5q13 -16 -4 -29z" />
    <glyph glyph-name="cdotaccent" unicode="&#x10b;" horiz-adv-x="1067" 
d="M569 1073q-21 0 -37 15.5t-16 39.5q0 22 16 37t37 15q23 0 39.5 -14.5t16.5 -37.5q0 -24 -16.5 -39.5t-39.5 -15.5zM911 737q-15 -12 -28 4q-116 142 -312 142q-180 0 -290.5 -115t-110.5 -297t110.5 -298t290.5 -116q194 0 312 142q13 16 28 4l25 -17q16 -13 4 -28
q-62 -83 -158 -128.5t-213 -45.5q-210 0 -342.5 137.5t-132.5 349.5t132.5 348.5t342.5 136.5q116 0 212 -45.5t159 -126.5q12 -15 -4 -28z" />
    <glyph glyph-name="Ccaron" unicode="&#x10c;" horiz-adv-x="1417" 
d="M834 1624q10 14 24 14h33q12 0 15 -7t-3 -17l-88 -141q-11 -15 -24 -15h-68q-14 0 -25 15l-88 141q-6 10 -2.5 17t15.5 7h32q15 0 25 -14l78 -125zM1249 1044q-14 -11 -28 7q-75 101 -194 158t-265 57q-171 0 -304.5 -77.5t-206.5 -214t-73 -308.5t73 -308.5t206.5 -214
t304.5 -77.5q146 0 264.5 58t194.5 159q13 16 28 4l35 -23q16 -13 4 -28q-88 -119 -223.5 -185.5t-302.5 -66.5q-194 0 -346 88t-235 243t-83 351t83 351t235 243t346 88q167 0 302.5 -66.5t223.5 -185.5q13 -16 -4 -29z" />
    <glyph glyph-name="ccaron" unicode="&#x10d;" horiz-adv-x="1067" 
d="M645 1245q11 15 25 15h32q12 0 15.5 -7t-2.5 -18l-88 -141q-11 -15 -25 -15h-67q-14 0 -25 15l-88 141q-6 11 -3 18t15 7h33q14 0 25 -15l77 -125zM911 737q-15 -12 -28 4q-116 142 -312 142q-180 0 -290.5 -115t-110.5 -297t110.5 -298t290.5 -116q194 0 312 142
q13 16 28 4l25 -17q16 -13 4 -28q-62 -83 -158 -128.5t-213 -45.5q-210 0 -342.5 137.5t-132.5 349.5t132.5 348.5t342.5 136.5q116 0 212 -45.5t159 -126.5q12 -15 -4 -28z" />
    <glyph glyph-name="Dcaron" unicode="&#x10e;" horiz-adv-x="1327" 
d="M604 1622q10 14 25 14h33q12 0 15 -7t-3 -17l-88 -142q-10 -14 -25 -14h-67q-15 0 -25 14l-88 142q-6 10 -3 17t15 7h33q14 0 25 -14l77 -125zM541 1331q195 0 345 -83.5t232 -234.5t82 -347t-82 -347t-232 -235t-345 -84h-402q-20 0 -20 20v1291q0 20 20 20h402zM541 80
q253 0 415 160t162 426q0 176 -75 310t-205.5 204.5t-296.5 70.5h-342v-1171h342z" />
    <glyph glyph-name="dcaron" unicode="&#x10f;" 
d="M1081 1620q11 14 25 14h33q12 0 15 -7t-3 -17l-88 -142q-11 -14 -25 -14h-67q-15 0 -25 14l-88 142q-6 10 -3 17t15 7h33q15 0 25 -14l78 -125zM967 1311q0 20 20 20h37q20 0 20 -20v-1291q0 -20 -20 -20h-37q-20 0 -20 20v207q-55 -113 -160.5 -178t-243.5 -65
q-206 0 -337.5 137.5t-131.5 349.5t131.5 348.5t337.5 136.5q139 0 244 -64.5t160 -176.5v596zM569 57q180 0 289 116t109 298t-109 297t-289 115q-179 0 -289 -115.5t-110 -296.5q0 -182 110.5 -298t288.5 -116z" />
    <glyph glyph-name="Dcroat" unicode="&#x110;" horiz-adv-x="1329" 
d="M543 1331q195 0 345 -83.5t232 -234.5t82 -347t-82 -347t-232 -235t-345 -84h-404q-20 0 -20 20v601h-96q-21 0 -21 20v37q0 20 21 20h96v613q0 20 20 20h404zM543 82q252 0 414.5 160t162.5 424q0 175 -75.5 309t-206 204t-295.5 70h-344v-551h293q20 0 20 -20v-37
q0 -20 -20 -20h-293v-539h344z" />
    <glyph glyph-name="Emacron" unicode="&#x112;" horiz-adv-x="1101" 
d="M389 1495q0 9 6 15t15 6h282q9 0 15 -6t6 -15v-20q0 -9 -6 -15t-15 -6h-282q-9 0 -15 6t-6 15v20zM954 1274q0 -21 -20 -21h-735v-551h692q20 0 20 -20v-37q0 -20 -20 -20h-692v-547h735q20 0 20 -21v-37q0 -20 -20 -20h-795q-20 0 -20 20v1291q0 20 20 20h795
q20 0 20 -20v-37z" />
    <glyph glyph-name="emacron" unicode="&#x113;" horiz-adv-x="1142" 
d="M395 1118q0 9 6 15t15 6h282q9 0 15 -6t6 -15v-20q0 -9 -6 -15t-15 -6h-282q-9 0 -15 6t-6 15v20zM557 956q197 0 323 -137t126 -348v-10q0 -9 -6 -15t-15 -6h-815q11 -173 119.5 -280t279.5 -107q105 0 188.5 41t135.5 113q13 17 29 4l22 -14q8 -5 10 -13t-4 -16
q-62 -87 -160.5 -135.5t-220.5 -48.5q-211 0 -343 137.5t-132 349.5q0 213 127 349t336 136zM557 889q-171 0 -274.5 -106.5t-112.5 -280.5h764q-9 170 -113 278.5t-264 108.5z" />
    <glyph glyph-name="Edotaccent" unicode="&#x116;" horiz-adv-x="1101" 
d="M551 1448q-21 0 -37 15.5t-16 39.5q0 22 16 36.5t37 14.5q23 0 39 -14t16 -37q0 -24 -16.5 -39.5t-38.5 -15.5zM954 1274q0 -21 -20 -21h-735v-551h692q20 0 20 -20v-37q0 -20 -20 -20h-692v-547h735q20 0 20 -21v-37q0 -20 -20 -20h-795q-20 0 -20 20v1291q0 20 20 20
h795q20 0 20 -20v-37z" />
    <glyph glyph-name="edotaccent" unicode="&#x117;" horiz-adv-x="1142" 
d="M557 1073q-21 0 -37 15.5t-16 39.5q0 22 16 37t37 15q22 0 38.5 -14.5t16.5 -37.5q0 -24 -16.5 -39.5t-38.5 -15.5zM557 956q197 0 323 -137t126 -348v-10q0 -9 -6 -15t-15 -6h-815q11 -173 119.5 -280t279.5 -107q105 0 188.5 41t135.5 113q13 17 29 4l22 -14
q8 -5 10 -13t-4 -16q-62 -87 -160.5 -135.5t-220.5 -48.5q-211 0 -343 137.5t-132 349.5q0 213 127 349t336 136zM557 889q-171 0 -274.5 -106.5t-112.5 -280.5h764q-9 170 -113 278.5t-264 108.5z" />
    <glyph glyph-name="Eogonek" unicode="&#x118;" horiz-adv-x="1101" 
d="M934 1253h-735v-551h692q20 0 20 -20v-37q0 -20 -20 -20h-692v-547h735q20 0 20 -21v-37q0 -20 -20 -20h-21q3 -5 -8 -16q-55 -51 -55 -101q0 -23 16.5 -35t51.5 -2q24 6 24 -16v-16q0 -20 -18 -23q-67 -16 -102.5 12.5t-35.5 71.5q0 72 78 125h-725q-20 0 -20 20v1291
q0 20 20 20h795q20 0 20 -20v-37q0 -21 -20 -21z" />
    <glyph glyph-name="eogonek" unicode="&#x119;" horiz-adv-x="1142" 
d="M557 956q197 0 323 -137t126 -348v-10q0 -9 -6 -15t-15 -6h-815q11 -173 119.5 -280t279.5 -107q105 0 188.5 41t135.5 113q13 17 29 4l22 -14q8 -5 10 -13t-4 -16q-60 -83 -151 -131.5t-205 -52.5q4 -8 -8 -17q-56 -52 -56 -100q0 -23 16.5 -35t51.5 -2q25 6 25 -16v-17
q0 -19 -19 -22q-67 -16 -102 12.5t-35 71.5q0 38 23.5 71t56.5 54q-201 9 -327 145.5t-126 341.5q0 213 127 349t336 136zM170 502h764q-9 170 -113 278.5t-264 108.5q-171 0 -274.5 -106.5t-112.5 -280.5z" />
    <glyph glyph-name="Ecaron" unicode="&#x11a;" horiz-adv-x="1101" 
d="M627 1620q11 14 24 14h33q12 0 15 -7t-3 -17l-88 -142q-10 -14 -24 -14h-68q-14 0 -24 14l-89 142q-6 10 -2.5 17t15.5 7h33q13 0 24 -14l78 -125zM954 1274q0 -21 -20 -21h-735v-551h692q20 0 20 -20v-37q0 -20 -20 -20h-692v-547h735q20 0 20 -21v-37q0 -20 -20 -20
h-795q-20 0 -20 20v1291q0 20 20 20h795q20 0 20 -20v-37z" />
    <glyph glyph-name="ecaron" unicode="&#x11b;" horiz-adv-x="1142" 
d="M633 1245q11 15 24 15h33q12 0 15 -7t-3 -18l-88 -141q-11 -15 -24 -15h-68q-13 0 -24 15l-88 141q-6 11 -3 18t15 7h33q13 0 24 -15l78 -125zM557 956q197 0 323 -137t126 -348v-10q0 -9 -6 -15t-15 -6h-815q11 -173 119.5 -280t279.5 -107q105 0 188.5 41t135.5 113
q13 17 29 4l22 -14q8 -5 10 -13t-4 -16q-62 -87 -160.5 -135.5t-220.5 -48.5q-211 0 -343 137.5t-132 349.5q0 213 127 349t336 136zM557 889q-171 0 -274.5 -106.5t-112.5 -280.5h764q-9 170 -113 278.5t-264 108.5z" />
    <glyph glyph-name="Gbreve" unicode="&#x11e;" horiz-adv-x="1540" 
d="M905 1614q21 0 21 -6q0 -68 -45 -112t-111 -44t-112 44t-46 112q0 6 21 6h18q21 0 21 -6q0 -41 27 -70t71 -29q43 0 69.5 29t26.5 70q0 6 21 6h18zM1401 635q-9 -289 -182 -470t-457 -181q-194 0 -346 88t-235 243t-83 351t83 351t235 243t346 88q167 0 302.5 -66
t223.5 -184q6 -8 4 -16t-10 -13l-35 -22q-15 -10 -28 6q-77 101 -195.5 157t-261.5 56q-171 0 -304.5 -77.5t-206.5 -214t-73 -308.5t73 -308.5t206.5 -214t304.5 -77.5q235 0 382.5 143.5t168.5 378.5h-533q-20 0 -20 20v37q0 21 20 21h600q9 0 15 -6t6 -15v-10z" />
    <glyph glyph-name="gbreve" unicode="&#x11f;" 
d="M709 1239q20 0 20 -6q0 -68 -45 -112t-111 -44t-111.5 44t-45.5 112q0 6 20 6h19q20 0 20 -6q0 -41 27 -69.5t71 -28.5q43 0 70 28.5t27 69.5q0 6 20 6h19zM967 922q0 20 20 20h37q20 0 20 -20v-850q0 -202 -136 -327.5t-353 -125.5q-112 0 -208 39t-161 109q-15 15 2 28
l23 21q14 11 31 -2q116 -125 313 -125q179 0 295.5 103t116.5 280v155q-55 -113 -160.5 -178t-243.5 -65q-206 0 -337.5 137.5t-131.5 349.5t131.5 348.5t337.5 136.5q139 0 244 -64.5t160 -176.5v207zM569 57q178 0 288 116t110 298t-109.5 297t-288.5 115t-289 -115.5
t-110 -296.5q0 -182 110.5 -298t288.5 -116z" />
    <glyph glyph-name="Gdotaccent" unicode="&#x120;" horiz-adv-x="1540" 
d="M770 1448q-21 0 -37 15.5t-16 39.5q0 22 16 36.5t37 14.5q23 0 39 -14t16 -37q0 -24 -16.5 -39.5t-38.5 -15.5zM1401 635q-9 -289 -182 -470t-457 -181q-194 0 -346 88t-235 243t-83 351t83 351t235 243t346 88q167 0 302.5 -66t223.5 -184q6 -8 4 -16t-10 -13l-35 -22
q-15 -10 -28 6q-77 101 -195.5 157t-261.5 56q-171 0 -304.5 -77.5t-206.5 -214t-73 -308.5t73 -308.5t206.5 -214t304.5 -77.5q235 0 382.5 143.5t168.5 378.5h-533q-20 0 -20 20v37q0 21 20 21h600q9 0 15 -6t6 -15v-10z" />
    <glyph glyph-name="gdotaccent" unicode="&#x121;" 
d="M573 1073q-21 0 -37 15.5t-16 39.5q0 22 16 37t37 15q23 0 39.5 -14.5t16.5 -37.5q0 -24 -16.5 -39.5t-39.5 -15.5zM967 922q0 20 20 20h37q20 0 20 -20v-850q0 -202 -136 -327.5t-353 -125.5q-112 0 -208 39t-161 109q-15 15 2 28l23 21q14 11 31 -2q116 -125 313 -125
q179 0 295.5 103t116.5 280v155q-55 -113 -160.5 -178t-243.5 -65q-206 0 -337.5 137.5t-131.5 349.5t131.5 348.5t337.5 136.5q139 0 244 -64.5t160 -176.5v207zM569 57q178 0 288 116t110 298t-109.5 297t-288.5 115t-289 -115.5t-110 -296.5q0 -182 110.5 -298
t288.5 -116z" />
    <glyph glyph-name="uni0122" unicode="&#x122;" horiz-adv-x="1540" 
d="M1401 635q-9 -289 -182 -470t-457 -181q-194 0 -346 88t-235 243t-83 351t83 351t235 243t346 88q167 0 302.5 -66t223.5 -184q6 -8 4 -16t-10 -13l-35 -22q-15 -10 -28 6q-77 101 -195.5 157t-261.5 56q-171 0 -304.5 -77.5t-206.5 -214t-73 -308.5t73 -308.5
t206.5 -214t304.5 -77.5q235 0 382.5 143.5t168.5 378.5h-533q-20 0 -20 20v37q0 21 20 21h600q9 0 15 -6t6 -15v-10zM727 -147q6 14 23 14h36q11 0 15 -7.5t0 -17.5l-72 -141q-6 -14 -24 -14h-29q-11 0 -14.5 6.5t0.5 17.5z" />
    <glyph glyph-name="uni0123" unicode="&#x123;" 
d="M600 1233q10 0 12 -7.5t-6 -17.5q-11 -13 -18 -28q41 -11 41 -52q0 -22 -15.5 -37.5t-38.5 -15.5q-24 0 -39.5 15.5t-15.5 37.5q0 31 43 93q12 12 27 12h10zM967 922q0 20 20 20h37q20 0 20 -20v-850q0 -202 -136 -327.5t-353 -125.5q-112 0 -208 39t-161 109
q-15 15 2 28l23 21q14 11 31 -2q116 -125 313 -125q179 0 295.5 103t116.5 280v155q-55 -113 -160.5 -178t-243.5 -65q-206 0 -337.5 137.5t-131.5 349.5t131.5 348.5t337.5 136.5q139 0 244 -64.5t160 -176.5v207zM569 57q178 0 288 116t110 298t-109.5 297t-288.5 115
t-289 -115.5t-110 -296.5q0 -182 110.5 -298t288.5 -116z" />
    <glyph glyph-name="Itilde" unicode="&#x128;" horiz-adv-x="358" 
d="M-78 1454q-9 0 -15 6.5t-5 16.5q9 58 47.5 95.5t93.5 37.5q73 0 131 -66q17 -18 26 -26.5t28.5 -18.5t41.5 -10q71 0 82 76q3 20 23 20h18q22 0 19 -22q-8 -60 -45 -96.5t-97 -36.5q-46 0 -75.5 18.5t-57.5 50.5q-47 51 -94 51q-34 0 -55 -21.5t-27 -55.5q-3 -19 -20 -19
h-19zM199 20q0 -20 -21 -20h-39q-20 0 -20 20v1291q0 20 20 20h39q21 0 21 -20v-1291z" />
    <glyph glyph-name="itilde" unicode="&#x129;" horiz-adv-x="389" 
d="M-61 1079q-9 0 -15.5 6.5t-5.5 16.5q9 58 47.5 95.5t93.5 37.5q73 0 131 -66q16 -18 25.5 -26.5t29.5 -18.5t42 -10q71 0 82 76q3 20 22 20h19q21 0 18 -22q-8 -60 -44.5 -96.5t-96.5 -36.5q-46 0 -75.5 18.5t-57.5 50.5q-48 52 -95 52q-34 0 -55 -22t-27 -56
q-3 -19 -20 -19h-18zM213 20q0 -20 -20 -20h-37q-21 0 -21 20v902q0 20 21 20h37q20 0 20 -20v-902z" />
    <glyph glyph-name="Imacron" unicode="&#x12a;" horiz-adv-x="358" 
d="M-4 1495q0 21 20 21h283q20 0 20 -21v-20q0 -21 -20 -21h-283q-20 0 -20 21v20zM199 20q0 -20 -21 -20h-39q-20 0 -20 20v1291q0 20 20 20h39q21 0 21 -20v-1291z" />
    <glyph glyph-name="imacron" unicode="&#x12b;" horiz-adv-x="389" 
d="M12 1118q0 9 6 15t15 6h282q9 0 15 -6t6 -15v-20q0 -9 -6 -15t-15 -6h-282q-9 0 -15 6t-6 15v20zM213 20q0 -20 -20 -20h-37q-21 0 -21 20v902q0 20 21 20h37q20 0 20 -20v-902z" />
    <glyph glyph-name="Iogonek" unicode="&#x12e;" horiz-adv-x="358" 
d="M180 -154q25 6 25 -16v-16q0 -20 -19 -23q-67 -16 -102 12.5t-35 71.5q0 74 82 127q-12 3 -12 18v1291q0 20 20 20h39q21 0 21 -20v-1291q0 -20 -21 -20h-2q3 -5 -8 -16q-55 -51 -55 -101q0 -23 16 -35t51 -2z" />
    <glyph glyph-name="iogonek" unicode="&#x12f;" horiz-adv-x="389" 
d="M174 1073q-21 0 -37 15.5t-16 39.5q0 22 16 37t37 15q22 0 38.5 -14.5t16.5 -37.5q0 -24 -16.5 -39.5t-38.5 -15.5zM193 -156q24 6 24 -16v-16q0 -20 -18 -23q-67 -16 -102.5 12.5t-35.5 71.5q0 74 82 127q1 0 2 1t2 1q-12 3 -12 18v902q0 20 21 20h37q20 0 20 -20v-902
q0 -20 -20 -20h-5q4 -9 -8 -18q-55 -51 -55 -101q0 -23 16.5 -35t51.5 -2z" />
    <glyph glyph-name="Idotaccent" unicode="&#x130;" horiz-adv-x="358" 
d="M158 1448q-21 0 -37.5 15.5t-16.5 39.5q0 22 16.5 36.5t37.5 14.5q23 0 39 -14t16 -37q0 -24 -16.5 -39.5t-38.5 -15.5zM199 20q0 -20 -21 -20h-39q-20 0 -20 20v1291q0 20 20 20h39q21 0 21 -20v-1291z" />
    <glyph glyph-name="dotlessi" unicode="&#x131;" horiz-adv-x="389" 
d="M213 20q0 -20 -20 -20h-37q-21 0 -21 20v902q0 20 21 20h37q20 0 20 -20v-902z" />
    <glyph glyph-name="uni0136" unicode="&#x136;" horiz-adv-x="1048" 
d="M946 25q10 -11 7 -18t-17 -7h-55q-15 0 -25 10l-657 629v-619q0 -20 -21 -20h-39q-20 0 -20 20v1291q0 20 20 20h39q21 0 21 -20v-617l630 627q10 10 25 10h57q14 0 17.5 -6.5t-6.5 -17.5l-646 -641zM467 -145q6 14 22 14h37q11 0 15 -7.5t0 -17.5l-72 -141
q-6 -14 -25 -14h-28q-11 0 -15 7t0 17z" />
    <glyph glyph-name="uni0137" unicode="&#x137;" horiz-adv-x="899" 
d="M795 25q10 -9 7.5 -17t-16.5 -8h-51q-14 0 -24 10l-516 463v-453q0 -20 -21 -20h-35q-20 0 -20 20v1291q0 20 20 20h35q21 0 21 -20v-793l473 414q10 10 24 10h49q14 0 17.5 -7.5t-6.5 -16.5l-480 -422zM406 -145q6 14 22 14h37q10 0 14.5 -7.5t-0.5 -17.5l-71 -141
q-6 -14 -25 -14h-29q-11 0 -14.5 6.5t0.5 17.5z" />
    <glyph glyph-name="Lacute" unicode="&#x139;" horiz-adv-x="1067" 
d="M197 1620q6 14 22 14h37q11 0 14.5 -7t-0.5 -17l-69 -142q-6 -14 -25 -14h-31q-10 0 -14.5 7t0.5 18zM199 78h731q20 0 20 -21v-37q0 -20 -20 -20h-791q-20 0 -20 20v1291q0 20 20 20h39q21 0 21 -20v-1233z" />
    <glyph glyph-name="lacute" unicode="&#x13a;" horiz-adv-x="354" 
d="M195 1620q6 14 22 14h37q11 0 14.5 -7t-0.5 -17l-69 -142q-6 -14 -25 -14h-31q-10 0 -14.5 7t0.5 18zM195 20q0 -20 -21 -20h-35q-20 0 -20 20v1291q0 20 20 20h35q21 0 21 -20v-1291z" />
    <glyph glyph-name="uni013B" unicode="&#x13b;" horiz-adv-x="1067" 
d="M199 78h731q20 0 20 -21v-37q0 -20 -20 -20h-791q-20 0 -20 20v1291q0 20 20 20h39q21 0 21 -20v-1233zM492 -145q6 14 22 14h37q10 0 14.5 -7.5t-0.5 -17.5l-71 -141q-6 -14 -25 -14h-29q-11 0 -14.5 6.5t0.5 17.5z" />
    <glyph glyph-name="uni013C" unicode="&#x13c;" horiz-adv-x="354" 
d="M195 20q0 -20 -21 -20h-35q-20 0 -20 20v1291q0 20 20 20h35q21 0 21 -20v-1291zM113 -145q6 14 22 14h37q10 0 14.5 -7.5t-0.5 -17.5l-71 -141q-6 -14 -25 -14h-29q-11 0 -14.5 6.5t0.5 17.5z" />
    <glyph glyph-name="Lcaron" unicode="&#x13d;" horiz-adv-x="1067" 
d="M233 1620q10 14 25 14h33q12 0 15 -7t-3 -17l-88 -142q-11 -14 -25 -14h-67q-15 0 -25 14l-88 142q-6 10 -2.5 17t15.5 7h32q15 0 25 -14l78 -125zM199 78h731q20 0 20 -21v-37q0 -20 -20 -20h-791q-20 0 -20 20v1291q0 20 20 20h39q21 0 21 -20v-1233z" />
    <glyph glyph-name="lcaron" unicode="&#x13e;" horiz-adv-x="354" 
d="M231 1620q11 14 25 14h33q12 0 15 -7t-3 -17l-88 -142q-11 -14 -25 -14h-67q-15 0 -25 14l-88 142q-6 10 -3 17t15 7h33q15 0 25 -14l78 -125zM195 20q0 -20 -21 -20h-35q-20 0 -20 20v1291q0 20 20 20h35q21 0 21 -20v-1291z" />
    <glyph glyph-name="Lslash" unicode="&#x141;" horiz-adv-x="1067" 
d="M199 78h731q20 0 20 -21v-37q0 -20 -20 -20h-791q-20 0 -20 20v637l-94 -32q-10 -4 -16.5 0.5t-6.5 15.5v37q0 18 16 24l101 35v574q0 20 20 20h39q21 0 21 -20v-545l290 104q23 7 23 -16v-37q0 -18 -16 -24l-297 -107v-608z" />
    <glyph glyph-name="lslash" unicode="&#x142;" horiz-adv-x="354" 
d="M307 793q10 3 16.5 -1.5t6.5 -15.5v-28q0 -18 -17 -25l-118 -43v-660q0 -20 -21 -20h-35q-20 0 -20 20v633l-92 -32q-10 -4 -16.5 0.5t-6.5 15.5v29q0 18 16 24l99 35v586q0 20 20 20h35q21 0 21 -20v-559z" />
    <glyph glyph-name="Nacute" unicode="&#x143;" horiz-adv-x="1261" 
d="M670 1620q6 14 22 14h37q11 0 14.5 -7t-0.5 -17l-69 -142q-6 -14 -25 -14h-31q-10 0 -14.5 7t0.5 18zM1022 1311q0 20 20 20h41q21 0 21 -20v-1291q0 -20 -21 -20h-43q-17 0 -24 12l-815 1182v-1174q0 -20 -21 -20h-41q-20 0 -20 20v1291q0 20 20 20h43q18 0 25 -12
l815 -1178v1170z" />
    <glyph glyph-name="nacute" unicode="&#x144;" horiz-adv-x="1062" 
d="M549 1245q6 15 22 15h37q11 0 15 -7.5t0 -17.5l-70 -141q-6 -15 -25 -15h-30q-11 0 -15 7.5t0 17.5zM524 956q104 0 188 -40t137.5 -126.5t53.5 -207.5v-562q0 -20 -20 -20h-35q-21 0 -21 20v555q0 141 -88.5 226.5t-228.5 85.5q-139 0 -227 -85.5t-88 -226.5v-555
q0 -20 -21 -20h-35q-20 0 -20 20v902q0 20 20 20h35q21 0 21 -20v-138q49 85 136.5 128.5t192.5 43.5z" />
    <glyph glyph-name="uni0145" unicode="&#x145;" horiz-adv-x="1261" 
d="M1022 1311q0 20 20 20h41q21 0 21 -20v-1291q0 -20 -21 -20h-43q-17 0 -24 12l-815 1182v-1174q0 -20 -21 -20h-41q-20 0 -20 20v1291q0 20 20 20h43q18 0 25 -12l815 -1178v1170zM588 -145q6 14 22 14h37q11 0 15 -7.5t0 -17.5l-72 -141q-6 -14 -25 -14h-28q-11 0 -15 7
t0 17z" />
    <glyph glyph-name="uni0146" unicode="&#x146;" horiz-adv-x="1062" 
d="M524 956q104 0 188 -40t137.5 -126.5t53.5 -207.5v-562q0 -20 -20 -20h-35q-21 0 -21 20v555q0 141 -88.5 226.5t-228.5 85.5q-139 0 -227 -85.5t-88 -226.5v-555q0 -20 -21 -20h-35q-20 0 -20 20v902q0 20 20 20h35q21 0 21 -20v-138q49 85 136.5 128.5t192.5 43.5z
M467 -145q6 14 22 14h37q11 0 15 -7.5t0 -17.5l-72 -141q-6 -14 -25 -14h-28q-11 0 -15 7t0 17z" />
    <glyph glyph-name="Ncaron" unicode="&#x147;" horiz-adv-x="1261" 
d="M707 1620q11 14 24 14h33q12 0 15 -7t-3 -17l-88 -142q-10 -14 -24 -14h-68q-14 0 -25 14l-88 142q-6 10 -2.5 17t15.5 7h32q14 0 25 -14l78 -125zM1022 1311q0 20 20 20h41q21 0 21 -20v-1291q0 -20 -21 -20h-43q-17 0 -24 12l-815 1182v-1174q0 -20 -21 -20h-41
q-20 0 -20 20v1291q0 20 20 20h43q18 0 25 -12l815 -1178v1170z" />
    <glyph glyph-name="ncaron" unicode="&#x148;" horiz-adv-x="1062" 
d="M586 1245q11 15 24 15h33q12 0 15 -7t-3 -18l-88 -141q-11 -15 -24 -15h-68q-13 0 -24 15l-89 141q-6 11 -2.5 18t15.5 7h33q13 0 24 -15l78 -125zM524 956q104 0 188 -40t137.5 -126.5t53.5 -207.5v-562q0 -20 -20 -20h-35q-21 0 -21 20v555q0 141 -88.5 226.5
t-228.5 85.5q-139 0 -227 -85.5t-88 -226.5v-555q0 -20 -21 -20h-35q-20 0 -20 20v902q0 20 20 20h35q21 0 21 -20v-138q49 85 136.5 128.5t192.5 43.5z" />
    <glyph glyph-name="Omacron" unicode="&#x14c;" horiz-adv-x="1550" 
d="M600 1495q0 9 6 15t15 6h282q9 0 15 -6t6 -15v-20q0 -9 -6 -15t-15 -6h-282q-9 0 -15 6t-6 15v20zM762 -16q-194 0 -346 88t-235 243t-83 351t83 351t235 243t346 88t345.5 -88t233.5 -243t82 -351t-82 -351t-233.5 -243t-345.5 -88zM762 66q172 0 304.5 77.5t203.5 214
t71 308.5t-71 308.5t-203.5 214t-304.5 77.5q-171 0 -304.5 -77.5t-206.5 -214t-73 -308.5t73 -308.5t206.5 -214t304.5 -77.5z" />
    <glyph glyph-name="omacron" unicode="&#x14d;" horiz-adv-x="1179" 
d="M408 1118q0 21 20 21h283q20 0 20 -21v-20q0 -21 -20 -21h-283q-20 0 -20 21v20zM569 -16q-210 0 -342.5 137.5t-132.5 349.5t132.5 348.5t342.5 136.5q211 0 343 -136.5t132 -348.5t-132 -349.5t-343 -137.5zM569 57q177 0 286.5 117t109.5 297t-109.5 296t-286.5 116
q-176 0 -285.5 -116t-109.5 -296t110 -297t285 -117z" />
    <glyph glyph-name="Ohungarumlaut" unicode="&#x150;" horiz-adv-x="1550" 
d="M674 1620q6 14 22 14h37q11 0 16 -7t-1 -17l-76 -142q-6 -14 -25 -14h-24q-11 0 -15 7.5t0 17.5zM920 1620q6 14 22 14h37q11 0 15.5 -7t-1.5 -17l-75 -142q-6 -14 -25 -14h-25q-10 0 -14.5 7t0.5 18zM762 -16q-194 0 -346 88t-235 243t-83 351t83 351t235 243t346 88
t345.5 -88t233.5 -243t82 -351t-82 -351t-233.5 -243t-345.5 -88zM762 66q172 0 304.5 77.5t203.5 214t71 308.5t-71 308.5t-203.5 214t-304.5 77.5q-171 0 -304.5 -77.5t-206.5 -214t-73 -308.5t73 -308.5t206.5 -214t304.5 -77.5z" />
    <glyph glyph-name="ohungarumlaut" unicode="&#x151;" horiz-adv-x="1179" 
d="M481 1245q6 15 23 15h37q11 0 15.5 -7t-1.5 -18l-76 -141q-6 -15 -24 -15h-25q-10 0 -14.5 7.5t0.5 17.5zM727 1245q6 15 23 15h36q11 0 16 -7t-1 -18l-76 -141q-6 -15 -25 -15h-24q-10 0 -14.5 7.5t0.5 17.5zM569 -16q-210 0 -342.5 137.5t-132.5 349.5t132.5 348.5
t342.5 136.5q211 0 343 -136.5t132 -348.5t-132 -349.5t-343 -137.5zM569 57q177 0 286.5 117t109.5 297t-109.5 296t-286.5 116q-176 0 -285.5 -116t-109.5 -296t110 -297t285 -117z" />
    <glyph glyph-name="OE" unicode="&#x152;" horiz-adv-x="2320" 
d="M2173 1274q0 -9 -6 -15t-15 -6h-720v-551h677q21 0 21 -20v-37q0 -20 -21 -20h-677v-547h720q9 0 15 -6t6 -15v-37q0 -20 -21 -20h-782q-20 0 -20 20v312q-79 -162 -232 -255t-354 -93q-194 0 -346.5 88t-236 243t-83.5 351t83 351t235.5 243t347.5 88q201 0 354 -93
t232 -256v312q0 20 20 20h782q21 0 21 -20v-37zM764 66q258 0 417.5 169t159.5 431t-159.5 431t-417.5 169q-173 0 -307 -77.5t-206.5 -214t-72.5 -308.5t72.5 -308.5t206.5 -214t307 -77.5z" />
    <glyph glyph-name="oe" unicode="&#x153;" horiz-adv-x="2011" 
d="M1425 956q198 0 324.5 -137t126.5 -348v-10q0 -9 -6 -15t-15 -6h-817q11 -173 120 -280t280 -107q104 0 187 41t136 113q13 17 29 6l25 -16q18 -12 6 -27q-64 -88 -163 -137t-220 -49q-155 0 -270 77t-167 209q-52 -132 -166.5 -209t-267.5 -77q-209 0 -341 137.5
t-132 349.5t131.5 348.5t341.5 136.5q153 0 267 -75.5t167 -206.5q50 131 160.5 206.5t263.5 75.5zM1425 889q-170 0 -274 -106.5t-113 -280.5h764q-9 170 -113 278.5t-264 108.5zM567 59q180 0 288 115t108 297t-108 296t-288 114q-179 0 -288 -114.5t-109 -295.5
q0 -182 109.5 -297t287.5 -115z" />
    <glyph glyph-name="Racute" unicode="&#x154;" horiz-adv-x="1220" 
d="M578 1620q6 14 22 14h37q11 0 14.5 -7t-0.5 -17l-69 -142q-6 -14 -25 -14h-31q-10 0 -14.5 7t0.5 18zM1085 25q8 -9 4 -17t-16 -8h-51q-18 0 -25 12l-401 551h-397v-543q0 -20 -21 -20h-39q-20 0 -20 20v1291q0 20 20 20h578q154 0 259 -110.5t105 -274.5t-105 -273.5
t-259 -109.5h-23zM199 1251v-608h512q127 0 207.5 89t80.5 214t-80.5 215t-207.5 90h-512z" />
    <glyph glyph-name="racute" unicode="&#x155;" horiz-adv-x="624" 
d="M354 1245q6 15 23 15h37q10 0 14.5 -7t-0.5 -18l-70 -141q-6 -15 -24 -15h-31q-10 0 -14.5 7.5t0.5 17.5zM195 768q45 85 127.5 133.5t183.5 54.5q20 0 20 -20v-33q0 -20 -20 -20q-134 -9 -222.5 -96t-88.5 -228v-539q0 -20 -21 -20h-35q-20 0 -20 20v902q0 20 20 20h35
q21 0 21 -20v-154z" />
    <glyph glyph-name="uni0156" unicode="&#x156;" horiz-adv-x="1220" 
d="M1085 25q8 -9 4 -17t-16 -8h-51q-18 0 -25 12l-401 551h-397v-543q0 -20 -21 -20h-39q-20 0 -20 20v1291q0 20 20 20h578q154 0 259 -110.5t105 -274.5t-105 -273.5t-259 -109.5h-23zM199 1251v-608h512q127 0 207.5 89t80.5 214t-80.5 215t-207.5 90h-512zM502 -145
q6 14 22 14h37q10 0 14.5 -7.5t-0.5 -17.5l-71 -141q-6 -14 -25 -14h-28q-11 0 -15 7t0 17z" />
    <glyph glyph-name="uni0157" unicode="&#x157;" horiz-adv-x="624" 
d="M195 768q45 85 127.5 133.5t183.5 54.5q20 0 20 -20v-33q0 -20 -20 -20q-134 -9 -222.5 -96t-88.5 -228v-539q0 -20 -21 -20h-35q-20 0 -20 20v902q0 20 20 20h35q21 0 21 -20v-154zM111 -145q6 14 22 14h37q10 0 14.5 -7.5t-0.5 -17.5l-71 -141q-6 -14 -25 -14h-29
q-11 0 -14.5 6.5t0.5 17.5z" />
    <glyph glyph-name="Rcaron" unicode="&#x158;" horiz-adv-x="1220" 
d="M614 1620q10 14 25 14h33q12 0 15 -7t-3 -17l-88 -142q-10 -14 -25 -14h-67q-14 0 -25 14l-88 142q-6 10 -3 17t15 7h33q14 0 25 -14l78 -125zM1085 25q8 -9 4 -17t-16 -8h-51q-18 0 -25 12l-401 551h-397v-543q0 -20 -21 -20h-39q-20 0 -20 20v1291q0 20 20 20h578
q154 0 259 -110.5t105 -274.5t-105 -273.5t-259 -109.5h-23zM199 1251v-608h512q127 0 207.5 89t80.5 214t-80.5 215t-207.5 90h-512z" />
    <glyph glyph-name="rcaron" unicode="&#x159;" horiz-adv-x="624" 
d="M391 1245q11 15 25 15h33q12 0 15 -7t-3 -18l-88 -141q-11 -15 -25 -15h-67q-14 0 -25 15l-88 141q-6 11 -3 18t15 7h33q14 0 25 -15l77 -125zM195 768q45 85 127.5 133.5t183.5 54.5q20 0 20 -20v-33q0 -20 -20 -20q-134 -9 -222.5 -96t-88.5 -228v-539q0 -20 -21 -20
h-35q-20 0 -20 20v902q0 20 20 20h35q21 0 21 -20v-154z" />
    <glyph glyph-name="Sacute" unicode="&#x15a;" horiz-adv-x="1218" 
d="M641 1620q6 14 23 14h36q11 0 15 -7t0 -17l-70 -142q-6 -14 -24 -14h-31q-11 0 -15 7.5t0 17.5zM84 256q-6 19 10 29l35 18q18 9 27 -10q46 -109 164.5 -171.5t287.5 -62.5q406 0 406 303q0 39 -14 73.5t-33.5 59.5t-53.5 47.5t-62 36t-72 28.5t-69.5 21.5t-68 17
t-55.5 13.5q-11 3 -47.5 11t-57 13t-59 16t-63 21t-59.5 26.5t-57.5 33t-48 41t-40 50.5t-24 60.5t-9.5 72.5q0 168 129 259t354 91q170 0 297 -65t170 -169q6 -19 -12 -26l-35 -17q-18 -9 -27 10q-37 83 -145 134t-254 51q-187 0 -288 -69.5t-101 -196.5q0 -29 8 -55
t20.5 -46t33.5 -38.5t41 -31.5t49.5 -26t52 -21t55.5 -17t54 -13.5t53 -12t47 -10.5q10 -3 44.5 -11.5t56 -14t60 -18t64.5 -23t62 -28.5t60.5 -36.5t51 -44.5t42 -54t26 -64t10.5 -76q0 -190 -128 -289t-368 -99q-196 0 -331.5 74t-188.5 205z" />
    <glyph glyph-name="sacute" unicode="&#x15b;" horiz-adv-x="923" 
d="M485 1245q6 15 23 15h37q10 0 14.5 -7t-0.5 -18l-70 -141q-6 -15 -24 -15h-31q-10 0 -14.5 7.5t0.5 17.5zM82 172q-8 16 10 27l25 12q17 8 26 -10q34 -72 116 -113t198 -41q276 0 276 207q0 27 -9.5 51t-23 41t-37 32.5t-42.5 25t-50 19.5t-48 14.5t-48.5 12t-40.5 9.5
q-6 2 -41.5 10t-52.5 13t-52.5 17t-56 23t-48 30.5t-42.5 40.5t-26 50.5t-11 63.5q0 120 92 185.5t250 65.5q125 0 214 -43.5t122 -115.5q8 -16 -10 -27l-24 -12q-18 -9 -27 10q-28 55 -102 89t-175 34q-124 0 -194 -49t-70 -135q0 -28 9 -51t30.5 -41t39 -30t52 -23.5
t51 -16.5t54.5 -14t45 -11q6 -1 42 -10t54 -14t55.5 -18t59.5 -25t51.5 -33t45.5 -43.5t28 -54.5t12 -68q0 -136 -91 -207.5t-263 -71.5q-140 0 -237 51.5t-136 143.5z" />
    <glyph glyph-name="Scedilla" unicode="&#x15e;" horiz-adv-x="1218" 
d="M1100 365q0 -184 -120 -283t-347 -105q0 -4 -4 -12l-27 -45q60 -4 89.5 -32.5t29.5 -65.5q0 -42 -31.5 -72.5t-93.5 -30.5q-38 0 -70 11q-16 5 -16 22v19q0 21 22 12q27 -8 64 -8q29 0 48.5 13t19.5 34q0 20 -21.5 33.5t-56.5 13.5q-19 0 -29 -2q-22 -3 -22 16v15l2 14
l38 63l3 2q-186 6 -314 79.5t-180 199.5q-6 19 10 29l35 18q18 9 27 -10q46 -109 164.5 -171.5t287.5 -62.5q406 0 406 303q0 39 -14 73.5t-33.5 59.5t-53.5 47.5t-62 36t-72 28.5t-69.5 21.5t-68 17t-55.5 13.5q-11 3 -47.5 11t-57 13t-59 16t-63 21t-59.5 26.5t-57.5 33
t-48 41t-40 50.5t-24 60.5t-9.5 72.5q0 168 129 259t354 91q170 0 297 -65t170 -169q6 -19 -12 -26l-35 -17q-18 -9 -27 10q-37 83 -145 134t-254 51q-187 0 -288 -69.5t-101 -196.5q0 -29 8 -55t20.5 -46t33.5 -38.5t41 -31.5t49.5 -26t52 -21t55.5 -17t54 -13.5t53 -12
t47 -10.5q10 -3 44.5 -11.5t56 -14t60 -18t64.5 -23t62 -28.5t60.5 -36.5t51 -44.5t42 -54t26 -64t10.5 -76z" />
    <glyph glyph-name="scedilla" unicode="&#x15f;" horiz-adv-x="923" 
d="M477 -23q0 -4 -2 -6l-26 -45q60 -4 89 -32.5t29 -65.5q0 -42 -31 -72t-94 -30q-40 0 -69 10q-17 6 -17 22v19q0 22 23 12q27 -8 63 -8q29 0 48.5 13t19.5 34q0 20 -21.5 33.5t-56.5 13.5q-19 0 -29 -2q-22 -3 -22 16v15l2 14l37 59q-127 7 -215 58.5t-123 136.5
q-8 16 10 27l25 12q17 8 26 -10q34 -72 116 -113t198 -41q276 0 276 207q0 27 -9.5 51t-23 41t-37 32.5t-42.5 25t-50 19.5t-48 14.5t-48.5 12t-40.5 9.5q-6 2 -41.5 10t-52.5 13t-52.5 17t-56 23t-48 30.5t-42.5 40.5t-26 50.5t-11 63.5q0 120 92 185.5t250 65.5
q125 0 214 -43.5t122 -115.5q8 -16 -10 -27l-24 -12q-18 -9 -27 10q-28 55 -102 89t-175 34q-124 0 -194 -49t-70 -135q0 -28 9 -51t30.5 -41t39 -30t52 -23.5t51 -16.5t54.5 -14t45 -11q6 -1 42 -10t54 -14t55.5 -18t59.5 -25t51.5 -33t45.5 -43.5t28 -54.5t12 -68
q0 -132 -85 -203t-247 -76z" />
    <glyph glyph-name="Scaron" unicode="&#x160;" horiz-adv-x="1218" 
d="M678 1620q10 14 24 14h33q12 0 15.5 -7t-2.5 -17l-89 -142q-11 -14 -24 -14h-68q-13 0 -24 14l-88 142q-6 10 -3 17t15 7h33q14 0 24 -14l78 -125zM84 256q-6 19 10 29l35 18q18 9 27 -10q46 -109 164.5 -171.5t287.5 -62.5q406 0 406 303q0 39 -14 73.5t-33.5 59.5
t-53.5 47.5t-62 36t-72 28.5t-69.5 21.5t-68 17t-55.5 13.5q-11 3 -47.5 11t-57 13t-59 16t-63 21t-59.5 26.5t-57.5 33t-48 41t-40 50.5t-24 60.5t-9.5 72.5q0 168 129 259t354 91q170 0 297 -65t170 -169q6 -19 -12 -26l-35 -17q-18 -9 -27 10q-37 83 -145 134t-254 51
q-187 0 -288 -69.5t-101 -196.5q0 -29 8 -55t20.5 -46t33.5 -38.5t41 -31.5t49.5 -26t52 -21t55.5 -17t54 -13.5t53 -12t47 -10.5q10 -3 44.5 -11.5t56 -14t60 -18t64.5 -23t62 -28.5t60.5 -36.5t51 -44.5t42 -54t26 -64t10.5 -76q0 -190 -128 -289t-368 -99
q-196 0 -331.5 74t-188.5 205z" />
    <glyph glyph-name="scaron" unicode="&#x161;" horiz-adv-x="923" 
d="M522 1245q11 15 25 15h33q12 0 15 -7t-3 -18l-88 -141q-11 -15 -25 -15h-67q-14 0 -25 15l-88 141q-6 11 -3 18t15 7h33q14 0 25 -15l77 -125zM82 172q-8 16 10 27l25 12q17 8 26 -10q34 -72 116 -113t198 -41q276 0 276 207q0 27 -9.5 51t-23 41t-37 32.5t-42.5 25
t-50 19.5t-48 14.5t-48.5 12t-40.5 9.5q-6 2 -41.5 10t-52.5 13t-52.5 17t-56 23t-48 30.5t-42.5 40.5t-26 50.5t-11 63.5q0 120 92 185.5t250 65.5q125 0 214 -43.5t122 -115.5q8 -16 -10 -27l-24 -12q-18 -9 -27 10q-28 55 -102 89t-175 34q-124 0 -194 -49t-70 -135
q0 -28 9 -51t30.5 -41t39 -30t52 -23.5t51 -16.5t54.5 -14t45 -11q6 -1 42 -10t54 -14t55.5 -18t59.5 -25t51.5 -33t45.5 -43.5t28 -54.5t12 -68q0 -136 -91 -207.5t-263 -71.5q-140 0 -237 51.5t-136 143.5z" />
    <glyph glyph-name="uni0162" unicode="&#x162;" horiz-adv-x="1191" 
d="M1053 1331q20 0 20 -20v-37q0 -21 -20 -21h-437v-1233q0 -20 -20 -20q4 -7 -2 -18l-27 -45q60 -4 89.5 -33t29.5 -66q0 -42 -31 -72t-94 -30q-40 0 -69 10q-17 6 -17 23v18q0 22 23 12q27 -8 63 -8q29 0 48.5 13t19.5 34q0 20 -21.5 33.5t-56.5 13.5q-19 0 -29 -2
q-22 -3 -22 17v14l2 14l39 64l8 8q-14 4 -14 20v1233h-437q-20 0 -20 21v37q0 20 20 20h955z" />
    <glyph glyph-name="uni0163" unicode="&#x163;" horiz-adv-x="614" 
d="M494 942q20 0 20 -20v-25q0 -20 -20 -20h-222v-676q0 -66 37 -99.5t99 -33.5h75q9 0 15 -6t6 -15v-27q0 -20 -21 -20h-71q4 -7 -2 -16l-27 -45q60 -4 89.5 -33t29.5 -66q0 -42 -31 -72t-94 -30q-41 0 -70 10q-16 5 -16 23v18q0 21 22 12q27 -8 64 -8q29 0 48 13t19 34
t-21 34t-56 13q-19 0 -29 -2q-23 -3 -23 17v14l2 14l39 64l6 8q-76 6 -121.5 57t-45.5 136v682h-117q-21 0 -21 20v25q0 20 21 20h117v264q0 21 20 21h37q20 0 20 -21v-264h222z" />
    <glyph glyph-name="Tcaron" unicode="&#x164;" horiz-adv-x="1191" 
d="M653 1620q11 14 25 14h33q12 0 15 -7t-3 -17l-88 -142q-11 -14 -25 -14h-67q-15 0 -25 14l-88 142q-6 10 -3 17t15 7h33q15 0 25 -14l78 -125zM1053 1331q20 0 20 -20v-37q0 -21 -20 -21h-437v-1233q0 -20 -20 -20h-41q-20 0 -20 20v1233h-437q-20 0 -20 21v37
q0 20 20 20h955z" />
    <glyph glyph-name="tcaron" unicode="&#x165;" horiz-adv-x="614" 
d="M305 1497q10 14 25 14h32q12 0 15.5 -6.5t-2.5 -17.5l-88 -141q-11 -15 -25 -15h-67q-14 0 -25 15l-88 141q-6 11 -3 17.5t15 6.5h33q15 0 25 -14l77 -125zM514 897q0 -20 -20 -20h-222v-676q0 -66 37 -99.5t99 -33.5h75q9 0 15 -6t6 -15v-27q0 -20 -21 -20h-94
q-88 0 -141 51.5t-53 143.5v682h-117q-21 0 -21 20v25q0 20 21 20h117v264q0 21 20 21h37q20 0 20 -21v-264h222q20 0 20 -20v-25z" />
    <glyph glyph-name="Tbar" unicode="&#x166;" horiz-adv-x="1226" 
d="M1073 1274q0 -21 -20 -21h-437v-548h299q9 0 15 -6t6 -15v-37q0 -20 -21 -20h-299v-607q0 -20 -20 -20h-41q-20 0 -20 20v607h-302q-20 0 -20 20v37q0 21 20 21h302v548h-437q-20 0 -20 21v37q0 20 20 20h955q20 0 20 -20v-37z" />
    <glyph glyph-name="Utilde" unicode="&#x168;" horiz-adv-x="1257" 
d="M391 1454q-9 0 -15 6.5t-5 16.5q9 58 47.5 95.5t93.5 37.5q73 0 131 -66q17 -18 26 -26.5t28.5 -18.5t41.5 -10q71 0 82 76q3 20 23 20h18q22 0 19 -22q-8 -60 -45 -96.5t-97 -36.5q-46 0 -75.5 18.5t-57.5 50.5q-47 51 -94 51q-34 0 -55 -21.5t-27 -55.5q-3 -19 -20 -19
h-19zM1018 1311q0 20 20 20h41q21 0 21 -20v-854q0 -209 -133 -341t-359 -132t-357.5 131.5t-131.5 341.5v854q0 20 20 20h39q21 0 21 -20v-848q0 -184 109.5 -292t299.5 -108t300 108t110 292v848z" />
    <glyph glyph-name="utilde" unicode="&#x169;" horiz-adv-x="1062" 
d="M293 1079q-9 0 -15.5 6.5t-5.5 16.5q9 58 48 95.5t94 37.5q73 0 131 -66q17 -18 26 -26.5t28.5 -18.5t41.5 -10q71 0 82 76q3 20 22 20h19q21 0 18 -22q-8 -60 -44.5 -96.5t-96.5 -36.5q-46 0 -75.5 18.5t-57.5 50.5q-48 52 -94 52q-34 0 -55 -22t-27 -56q-3 -19 -21 -19
h-18zM827 922q0 20 21 20h35q20 0 20 -20v-902q0 -20 -20 -20h-35q-21 0 -21 20v136q-49 -85 -136.5 -128.5t-192.5 -43.5q-104 0 -188 40t-137.5 126.5t-53.5 207.5v564q0 20 20 20h35q21 0 21 -20v-557q0 -141 88.5 -226.5t228.5 -85.5q139 0 227 85.5t88 226.5v557z" />
    <glyph glyph-name="Umacron" unicode="&#x16a;" horiz-adv-x="1257" 
d="M465 1495q0 21 20 21h283q20 0 20 -21v-20q0 -21 -20 -21h-283q-20 0 -20 21v20zM1018 1311q0 20 20 20h41q21 0 21 -20v-854q0 -209 -133 -341t-359 -132t-357.5 131.5t-131.5 341.5v854q0 20 20 20h39q21 0 21 -20v-848q0 -184 109.5 -292t299.5 -108t300 108t110 292
v848z" />
    <glyph glyph-name="umacron" unicode="&#x16b;" horiz-adv-x="1062" 
d="M367 1118q0 21 20 21h283q20 0 20 -21v-20q0 -21 -20 -21h-283q-20 0 -20 21v20zM827 922q0 20 21 20h35q20 0 20 -20v-902q0 -20 -20 -20h-35q-21 0 -21 20v136q-49 -85 -136.5 -128.5t-192.5 -43.5q-104 0 -188 40t-137.5 126.5t-53.5 207.5v564q0 20 20 20h35
q21 0 21 -20v-557q0 -141 88.5 -226.5t228.5 -85.5q139 0 227 85.5t88 226.5v557z" />
    <glyph glyph-name="Uring" unicode="&#x16e;" horiz-adv-x="1257" 
d="M627 1438q-58 0 -99 39.5t-41 99.5q0 63 40.5 102t99.5 39q58 0 97.5 -39t39.5 -102q0 -61 -39.5 -100t-97.5 -39zM627 1489q38 0 60 26.5t22 61.5t-22 61.5t-60 26.5t-61 -26.5t-23 -61.5t23 -61.5t61 -26.5zM1018 1311q0 20 20 20h41q21 0 21 -20v-854
q0 -209 -133 -341t-359 -132t-357.5 131.5t-131.5 341.5v854q0 20 20 20h39q21 0 21 -20v-848q0 -184 109.5 -292t299.5 -108t300 108t110 292v848z" />
    <glyph glyph-name="uring" unicode="&#x16f;" horiz-adv-x="1062" 
d="M528 1063q-58 0 -98.5 39.5t-40.5 99.5q0 63 40 102t99 39q58 0 98 -39t40 -102q0 -61 -40 -100t-98 -39zM528 1114q38 0 60 26.5t22 61.5t-22 61.5t-60 26.5t-61 -26.5t-23 -61.5t23 -61.5t61 -26.5zM827 922q0 20 21 20h35q20 0 20 -20v-902q0 -20 -20 -20h-35
q-21 0 -21 20v136q-49 -85 -136.5 -128.5t-192.5 -43.5q-104 0 -188 40t-137.5 126.5t-53.5 207.5v564q0 20 20 20h35q21 0 21 -20v-557q0 -141 88.5 -226.5t228.5 -85.5q139 0 227 85.5t88 226.5v557z" />
    <glyph glyph-name="Uhungarumlaut" unicode="&#x170;" horiz-adv-x="1257" 
d="M539 1620q6 14 22 14h37q11 0 15.5 -7t-1.5 -17l-75 -142q-6 -14 -25 -14h-25q-10 0 -14.5 7t0.5 18zM784 1620q6 14 23 14h37q11 0 15.5 -7t-1.5 -17l-76 -142q-6 -14 -24 -14h-25q-10 0 -14.5 7t0.5 18zM1018 1311q0 20 20 20h41q21 0 21 -20v-854q0 -209 -133 -341
t-359 -132t-357.5 131.5t-131.5 341.5v854q0 20 20 20h39q21 0 21 -20v-848q0 -184 109.5 -292t299.5 -108t300 108t110 292v848z" />
    <glyph glyph-name="uhungarumlaut" unicode="&#x171;" horiz-adv-x="1062" 
d="M440 1245q6 15 23 15h37q11 0 15.5 -7t-1.5 -18l-76 -141q-6 -15 -24 -15h-25q-10 0 -14.5 7.5t0.5 17.5zM686 1245q6 15 23 15h36q11 0 16 -7t-1 -18l-76 -141q-6 -15 -25 -15h-24q-10 0 -14.5 7.5t0.5 17.5zM827 922q0 20 21 20h35q20 0 20 -20v-902q0 -20 -20 -20h-35
q-21 0 -21 20v136q-49 -85 -136.5 -128.5t-192.5 -43.5q-104 0 -188 40t-137.5 126.5t-53.5 207.5v564q0 20 20 20h35q21 0 21 -20v-557q0 -141 88.5 -226.5t228.5 -85.5q139 0 227 85.5t88 226.5v557z" />
    <glyph glyph-name="Uogonek" unicode="&#x172;" horiz-adv-x="1257" 
d="M1079 1331q21 0 21 -20v-854q0 -203 -124 -333.5t-339 -139.5l-6 -7q-56 -52 -56 -100q0 -23 16.5 -35t51.5 -2q25 6 25 -16v-17q0 -19 -19 -22q-67 -16 -102 12.5t-35 71.5q0 68 66 115q-213 10 -336 140.5t-123 332.5v854q0 20 20 20h39q21 0 21 -20v-848
q0 -184 109.5 -292t299.5 -108t300 108t110 292v848q0 20 20 20h41z" />
    <glyph glyph-name="uogonek" unicode="&#x173;" horiz-adv-x="1062" 
d="M887 -150q24 6 24 -16v-16q0 -20 -18 -23q-67 -16 -102 12.5t-35 71.5q0 38 23.5 71t56.5 54q-9 6 -9 16v136q-49 -85 -136.5 -128.5t-192.5 -43.5q-104 0 -188 40t-137.5 126.5t-53.5 207.5v564q0 20 20 20h35q21 0 21 -20v-557q0 -141 88.5 -226.5t228.5 -85.5
q139 0 227 85.5t88 226.5v557q0 20 21 20h35q20 0 20 -20v-902q0 -20 -20 -20q0 -3 -9 -12q-55 -51 -55 -101q0 -23 16.5 -35t51.5 -2z" />
    <glyph glyph-name="Wcircumflex" unicode="&#x174;" horiz-adv-x="1931" 
d="M1100 1479q6 -11 2.5 -18t-15.5 -7h-32q-15 0 -25 14l-76 125l-77 -125q-11 -14 -25 -14h-33q-12 0 -15 7t3 18l88 141q11 14 25 14h67q15 0 25 -14zM1759 1315q6 16 25 16h45q22 0 16 -22l-430 -1293q-6 -16 -24 -16h-31q-19 0 -25 16l-381 1145l-381 -1145
q-6 -16 -24 -16h-29q-18 0 -24 16l-430 1293q-6 22 16 22h43q19 0 25 -16l385 -1157l385 1157q6 16 24 16h25q18 0 24 -16l383 -1153z" />
    <glyph glyph-name="wcircumflex" unicode="&#x175;" horiz-adv-x="1464" 
d="M858 1104q6 -10 3 -17.5t-15 -7.5h-33q-14 0 -25 15l-75 125l-78 -125q-11 -15 -25 -15h-32q-12 0 -15.5 7.5t2.5 17.5l88 141q11 15 25 15h67q14 0 25 -15zM1298 926q6 16 25 16h39q22 0 16 -22l-307 -904q-6 -16 -24 -16h-43q-19 0 -25 16l-264 781l-271 -781
q-6 -16 -24 -16h-43q-19 0 -25 16l-303 904q-6 22 17 22h36q19 0 25 -16l274 -817l281 817q6 16 25 16h14q18 0 24 -16l277 -817z" />
    <glyph glyph-name="Ycircumflex" unicode="&#x176;" horiz-adv-x="1153" 
d="M702 1479q6 -11 3 -18t-15 -7h-33q-13 0 -24 14l-76 125l-78 -125q-11 -14 -24 -14h-33q-12 0 -15 7t3 18l88 141q10 14 24 14h68q14 0 24 -14zM1049 1331q12 0 15 -6.5t-3 -17.5l-463 -711v-576q0 -20 -20 -20h-39q-21 0 -21 20v572l-465 715q-6 11 -2.5 17.5t15.5 6.5
h51q13 0 24 -14l416 -637l416 637q11 14 24 14h52z" />
    <glyph glyph-name="ycircumflex" unicode="&#x177;" horiz-adv-x="937" 
d="M592 1104q6 -10 3 -17.5t-15 -7.5h-33q-14 0 -25 15l-76 125l-77 -125q-11 -15 -25 -15h-33q-12 0 -15 7.5t3 17.5l88 141q11 15 25 15h67q14 0 25 -15zM772 926q5 16 23 16h41q11 0 14.5 -7t-0.5 -17l-508 -1278q-6 -17 -23 -17h-36q-11 0 -15 7.5t0 17.5l140 354
l-361 916q-4 10 -0.5 17t14.5 7h39q18 0 23 -16l323 -820z" />
    <glyph glyph-name="Ydieresis" unicode="&#x178;" horiz-adv-x="1153" 
d="M379 1448q-21 0 -37 15.5t-16 39.5q0 22 16 36.5t37 14.5q23 0 39 -14t16 -37q0 -24 -16.5 -39.5t-38.5 -15.5zM733 1448q-21 0 -37 15.5t-16 39.5q0 22 16 36.5t37 14.5q23 0 39 -14t16 -37q0 -24 -16.5 -39.5t-38.5 -15.5zM1049 1331q12 0 15 -6.5t-3 -17.5l-463 -711
v-576q0 -20 -20 -20h-39q-21 0 -21 20v572l-465 715q-6 11 -2.5 17.5t15.5 6.5h51q13 0 24 -14l416 -637l416 637q11 14 24 14h52z" />
    <glyph glyph-name="Zacute" unicode="&#x179;" horiz-adv-x="1099" 
d="M590 1620q6 14 22 14h37q11 0 15 -7t0 -17l-70 -142q-6 -14 -25 -14h-30q-11 0 -15 7.5t0 17.5zM983 1272q0 -11 -8 -27l-780 -1167h751q9 0 15 -6t6 -15v-37q0 -20 -21 -20h-827q-21 0 -21 20v39q0 11 8 27l779 1167h-754q-20 0 -20 21v37q0 20 20 20h832q20 0 20 -20
v-39z" />
    <glyph glyph-name="zacute" unicode="&#x17a;" horiz-adv-x="886" 
d="M463 1245q6 15 22 15h37q11 0 15 -7.5t0 -17.5l-70 -141q-6 -15 -25 -15h-30q-11 0 -15 7.5t0 17.5zM750 942q20 0 20 -20v-31q0 -16 -8 -27l-590 -794h565q9 0 15 -6t6 -15v-29q0 -20 -21 -20h-639q-20 0 -20 20v29q0 16 8 27l590 796h-565q-9 0 -15 6t-6 15v29
q0 20 21 20h639z" />
    <glyph glyph-name="Zdotaccent" unicode="&#x17b;" horiz-adv-x="1099" 
d="M551 1448q-21 0 -37 15.5t-16 39.5q0 22 16 36.5t37 14.5q23 0 39 -14t16 -37q0 -24 -16.5 -39.5t-38.5 -15.5zM983 1272q0 -11 -8 -27l-780 -1167h751q9 0 15 -6t6 -15v-37q0 -20 -21 -20h-827q-21 0 -21 20v39q0 11 8 27l779 1167h-754q-20 0 -20 21v37q0 20 20 20h832
q20 0 20 -20v-39z" />
    <glyph glyph-name="zdotaccent" unicode="&#x17c;" horiz-adv-x="886" 
d="M424 1073q-21 0 -37 15.5t-16 39.5q0 22 16 37t37 15q22 0 38.5 -14.5t16.5 -37.5q0 -24 -16.5 -39.5t-38.5 -15.5zM750 942q20 0 20 -20v-31q0 -16 -8 -27l-590 -794h565q9 0 15 -6t6 -15v-29q0 -20 -21 -20h-639q-20 0 -20 20v29q0 16 8 27l590 796h-565q-9 0 -15 6
t-6 15v29q0 20 21 20h639z" />
    <glyph glyph-name="Zcaron" unicode="&#x17d;" horiz-adv-x="1099" 
d="M627 1620q11 14 24 14h33q12 0 15 -7t-3 -17l-88 -142q-10 -14 -24 -14h-68q-14 0 -24 14l-89 142q-6 10 -2.5 17t15.5 7h33q13 0 24 -14l78 -125zM983 1272q0 -11 -8 -27l-780 -1167h751q9 0 15 -6t6 -15v-37q0 -20 -21 -20h-827q-21 0 -21 20v39q0 11 8 27l779 1167
h-754q-20 0 -20 21v37q0 20 20 20h832q20 0 20 -20v-39z" />
    <glyph glyph-name="zcaron" unicode="&#x17e;" horiz-adv-x="886" 
d="M500 1245q11 15 24 15h33q12 0 15 -7t-3 -18l-88 -141q-11 -15 -24 -15h-68q-13 0 -24 15l-89 141q-6 11 -2.5 18t15.5 7h33q13 0 24 -15l78 -125zM750 942q20 0 20 -20v-31q0 -16 -8 -27l-590 -794h565q9 0 15 -6t6 -15v-29q0 -20 -21 -20h-639q-20 0 -20 20v29
q0 16 8 27l590 796h-565q-9 0 -15 6t-6 15v29q0 20 21 20h639z" />
    <glyph glyph-name="uni01CD" unicode="&#x1cd;" horiz-adv-x="1302" 
d="M717 1620q11 14 24 14h33q12 0 15 -7t-3 -17l-88 -142q-10 -14 -24 -14h-68q-14 0 -24 14l-88 142q-6 10 -3 17t15 7h33q13 0 24 -14l78 -125zM1155 0q-17 0 -22 16l-160 383h-664l-159 -383q-5 -16 -23 -16h-43q-11 0 -15.5 7.5t-0.5 17.5l534 1290q5 16 23 16h32
q18 0 23 -16l534 -1290q4 -10 -0.5 -17.5t-15.5 -7.5h-43zM340 477h602l-301 727z" />
    <glyph glyph-name="uni01CE" unicode="&#x1ce;" 
d="M674 1245q11 15 24 15h33q12 0 15 -7t-3 -18l-88 -141q-11 -15 -24 -15h-68q-13 0 -24 15l-88 141q-6 11 -3 18t15 7h33q13 0 24 -15l78 -125zM967 922q0 20 20 20h37q20 0 20 -20v-902q0 -20 -20 -20h-37q-20 0 -20 20v207q-55 -113 -160.5 -178t-243.5 -65
q-206 0 -337.5 137.5t-131.5 349.5t131.5 348.5t337.5 136.5q139 0 244 -64.5t160 -176.5v207zM569 57q180 0 289 116t109 298t-109 297t-289 115q-179 0 -289 -115.5t-110 -296.5q0 -182 110.5 -298t288.5 -116z" />
    <glyph glyph-name="uni01CF" unicode="&#x1cf;" horiz-adv-x="358" 
d="M233 1620q10 14 25 14h33q12 0 15 -7t-3 -17l-88 -142q-11 -14 -25 -14h-67q-15 0 -25 14l-88 142q-6 10 -2.5 17t15.5 7h32q15 0 25 -14l78 -125zM199 20q0 -20 -21 -20h-39q-20 0 -20 20v1291q0 20 20 20h39q21 0 21 -20v-1291z" />
    <glyph glyph-name="uni01D0" unicode="&#x1d0;" horiz-adv-x="389" 
d="M250 1245q11 15 24 15h33q12 0 15 -7t-3 -18l-88 -141q-11 -15 -24 -15h-68q-13 0 -24 15l-88 141q-6 11 -3 18t15 7h33q13 0 24 -15l78 -125zM213 20q0 -20 -20 -20h-37q-21 0 -21 20v902q0 20 21 20h37q20 0 20 -20v-902z" />
    <glyph glyph-name="uni01D1" unicode="&#x1d1;" horiz-adv-x="1550" 
d="M838 1620q10 14 24 14h33q12 0 15 -7t-3 -17l-88 -142q-11 -14 -24 -14h-68q-15 0 -25 14l-88 142q-6 10 -2.5 17t15.5 7h32q15 0 25 -14l78 -125zM762 -16q-194 0 -346 88t-235 243t-83 351t83 351t235 243t346 88t345.5 -88t233.5 -243t82 -351t-82 -351t-233.5 -243
t-345.5 -88zM762 66q172 0 304.5 77.5t203.5 214t71 308.5t-71 308.5t-203.5 214t-304.5 77.5q-171 0 -304.5 -77.5t-206.5 -214t-73 -308.5t73 -308.5t206.5 -214t304.5 -77.5z" />
    <glyph glyph-name="uni01D2" unicode="&#x1d2;" horiz-adv-x="1179" 
d="M645 1245q11 15 25 15h32q12 0 15.5 -7t-2.5 -18l-88 -141q-11 -15 -25 -15h-67q-14 0 -25 15l-88 141q-6 11 -3 18t15 7h33q14 0 25 -15l77 -125zM569 -16q-210 0 -342.5 137.5t-132.5 349.5t132.5 348.5t342.5 136.5q211 0 343 -136.5t132 -348.5t-132 -349.5
t-343 -137.5zM569 57q177 0 286.5 117t109.5 297t-109.5 296t-286.5 116q-176 0 -285.5 -116t-109.5 -296t110 -297t285 -117z" />
    <glyph glyph-name="uni01D3" unicode="&#x1d3;" horiz-adv-x="1257" 
d="M702 1620q10 14 25 14h33q12 0 15 -7t-3 -17l-88 -142q-10 -14 -25 -14h-67q-14 0 -25 14l-88 142q-6 10 -2.5 17t15.5 7h32q14 0 25 -14l78 -125zM1018 1311q0 20 20 20h41q21 0 21 -20v-854q0 -209 -133 -341t-359 -132t-357.5 131.5t-131.5 341.5v854q0 20 20 20h39
q21 0 21 -20v-848q0 -184 109.5 -292t299.5 -108t300 108t110 292v848z" />
    <glyph glyph-name="uni01D4" unicode="&#x1d4;" horiz-adv-x="1062" 
d="M604 1245q11 15 25 15h33q12 0 15 -7t-3 -18l-88 -141q-11 -15 -25 -15h-67q-14 0 -25 15l-88 141q-6 11 -3 18t15 7h33q14 0 25 -15l77 -125zM827 922q0 20 21 20h35q20 0 20 -20v-902q0 -20 -20 -20h-35q-21 0 -21 20v136q-49 -85 -136.5 -128.5t-192.5 -43.5
q-104 0 -188 40t-137.5 126.5t-53.5 207.5v564q0 20 20 20h35q21 0 21 -20v-557q0 -141 88.5 -226.5t228.5 -85.5q139 0 227 85.5t88 226.5v557z" />
    <glyph glyph-name="Gcaron" unicode="&#x1e6;" horiz-adv-x="1540" 
d="M846 1620q10 14 24 14h33q12 0 15 -7t-3 -17l-88 -142q-11 -14 -24 -14h-68q-13 0 -24 14l-88 142q-6 10 -3 17t15 7h33q14 0 24 -14l78 -125zM1401 635q-9 -289 -182 -470t-457 -181q-194 0 -346 88t-235 243t-83 351t83 351t235 243t346 88q167 0 302.5 -66t223.5 -184
q6 -8 4 -16t-10 -13l-35 -22q-15 -10 -28 6q-77 101 -195.5 157t-261.5 56q-171 0 -304.5 -77.5t-206.5 -214t-73 -308.5t73 -308.5t206.5 -214t304.5 -77.5q235 0 382.5 143.5t168.5 378.5h-533q-20 0 -20 20v37q0 21 20 21h600q9 0 15 -6t6 -15v-10z" />
    <glyph glyph-name="gcaron" unicode="&#x1e7;" 
d="M649 1245q11 15 25 15h33q12 0 15 -7t-3 -18l-88 -141q-11 -15 -25 -15h-67q-14 0 -25 15l-88 141q-6 11 -3 18t15 7h33q14 0 25 -15l77 -125zM967 922q0 20 20 20h37q20 0 20 -20v-850q0 -202 -136 -327.5t-353 -125.5q-112 0 -208 39t-161 109q-15 15 2 28l23 21
q14 11 31 -2q116 -125 313 -125q179 0 295.5 103t116.5 280v155q-55 -113 -160.5 -178t-243.5 -65q-206 0 -337.5 137.5t-131.5 349.5t131.5 348.5t337.5 136.5q139 0 244 -64.5t160 -176.5v207zM569 57q178 0 288 116t110 298t-109.5 297t-288.5 115t-289 -115.5
t-110 -296.5q0 -182 110.5 -298t288.5 -116z" />
    <glyph glyph-name="uni0218" unicode="&#x218;" horiz-adv-x="1218" 
d="M84 256q-6 19 10 29l35 18q18 9 27 -10q46 -109 164.5 -171.5t287.5 -62.5q406 0 406 303q0 39 -14 73.5t-33.5 59.5t-53.5 47.5t-62 36t-72 28.5t-69.5 21.5t-68 17t-55.5 13.5q-11 3 -47.5 11t-57 13t-59 16t-63 21t-59.5 26.5t-57.5 33t-48 41t-40 50.5t-24 60.5
t-9.5 72.5q0 168 129 259t354 91q170 0 297 -65t170 -169q6 -19 -12 -26l-35 -17q-18 -9 -27 10q-37 83 -145 134t-254 51q-187 0 -288 -69.5t-101 -196.5q0 -29 8 -55t20.5 -46t33.5 -38.5t41 -31.5t49.5 -26t52 -21t55.5 -17t54 -13.5t53 -12t47 -10.5q10 -3 44.5 -11.5
t56 -14t60 -18t64.5 -23t62 -28.5t60.5 -36.5t51 -44.5t42 -54t26 -64t10.5 -76q0 -190 -128 -289t-368 -99q-196 0 -331.5 74t-188.5 205zM567 -158q6 15 23 15h37q10 0 14.5 -7.5t-0.5 -17.5l-72 -141q-6 -15 -24 -15h-29q-10 0 -14.5 7t0.5 18z" />
    <glyph glyph-name="uni0219" unicode="&#x219;" horiz-adv-x="923" 
d="M82 172q-8 16 10 27l25 12q17 8 26 -10q34 -72 116 -113t198 -41q276 0 276 207q0 27 -9.5 51t-23 41t-37 32.5t-42.5 25t-50 19.5t-48 14.5t-48.5 12t-40.5 9.5q-6 2 -41.5 10t-52.5 13t-52.5 17t-56 23t-48 30.5t-42.5 40.5t-26 50.5t-11 63.5q0 120 92 185.5t250 65.5
q125 0 214 -43.5t122 -115.5q8 -16 -10 -27l-24 -12q-18 -9 -27 10q-28 55 -102 89t-175 34q-124 0 -194 -49t-70 -135q0 -28 9 -51t30.5 -41t39 -30t52 -23.5t51 -16.5t54.5 -14t45 -11q6 -1 42 -10t54 -14t55.5 -18t59.5 -25t51.5 -33t45.5 -43.5t28 -54.5t12 -68
q0 -136 -91 -207.5t-263 -71.5q-140 0 -237 51.5t-136 143.5zM414 -152q6 15 22 15h37q10 0 14.5 -7.5t-0.5 -17.5l-71 -141q-6 -14 -25 -14h-29q-11 0 -14.5 6.5t0.5 17.5z" />
    <glyph glyph-name="uni021A" unicode="&#x21a;" horiz-adv-x="1191" 
d="M1053 1331q20 0 20 -20v-37q0 -21 -20 -21h-437v-1233q0 -20 -20 -20h-41q-20 0 -20 20v1233h-437q-20 0 -20 21v37q0 20 20 20h955zM532 -141q6 14 23 14h37q10 0 14.5 -7.5t-0.5 -17.5l-71 -141q-6 -14 -25 -14h-29q-11 0 -14.5 6.5t0.5 17.5z" />
    <glyph glyph-name="uni021B" unicode="&#x21b;" horiz-adv-x="614" 
d="M514 897q0 -20 -20 -20h-222v-676q0 -66 37 -99.5t99 -33.5h75q9 0 15 -6t6 -15v-27q0 -20 -21 -20h-94q-88 0 -141 51.5t-53 143.5v682h-117q-21 0 -21 20v25q0 20 21 20h117v264q0 21 20 21h37q20 0 20 -21v-264h222q20 0 20 -20v-25zM348 -139q6 14 23 14h37
q10 0 14.5 -7.5t-0.5 -17.5l-72 -141q-6 -14 -24 -14h-29q-11 0 -14.5 6.5t0.5 17.5z" />
    <glyph glyph-name="circumflex" unicode="&#x2c6;" horiz-adv-x="407" 
d="M350 1176q6 -10 3 -17.5t-15 -7.5h-33q-13 0 -24 14l-76 125l-78 -125q-11 -14 -25 -14h-32q-12 0 -15.5 7.5t2.5 17.5l88 141q10 14 25 14h68q14 0 24 -14z" />
    <glyph glyph-name="caron" unicode="&#x2c7;" horiz-adv-x="407" 
d="M281 1317q11 14 24 14h33q12 0 15 -6.5t-3 -17.5l-88 -142q-11 -14 -24 -14h-68q-14 0 -25 14l-88 142q-6 11 -2.5 17.5t15.5 6.5h32q14 0 25 -14l78 -125z" />
    <glyph glyph-name="breve" unicode="&#x2d8;" horiz-adv-x="389" 
d="M328 1331q20 0 20 -6q0 -69 -44 -112.5t-107 -43.5q-65 0 -110.5 43.5t-45.5 112.5q0 6 20 6h19q20 0 20 -6q0 -42 26 -70t71 -28q42 0 67 28t25 70q0 6 20 6h19z" />
    <glyph glyph-name="dotaccent" unicode="&#x2d9;" horiz-adv-x="190" 
d="M94 1237q-21 0 -37 15.5t-16 39.5q0 22 16 36.5t37 14.5q23 0 39.5 -14.5t16.5 -36.5q0 -24 -16.5 -39.5t-39.5 -15.5z" />
    <glyph glyph-name="ring" unicode="&#x2da;" horiz-adv-x="358" 
d="M190 1040q-62 0 -105.5 42.5t-43.5 107.5q0 67 43 109t106 42t105.5 -41.5t42.5 -109.5q0 -65 -43 -107.5t-105 -42.5zM190 1094q43 0 69 28t26 68t-26 69t-69 29q-44 0 -69 -28.5t-25 -69.5q0 -40 25 -68t69 -28z" />
    <glyph glyph-name="ogonek" unicode="&#x2db;" horiz-adv-x="237" 
d="M195 -195q0 -19 -19 -22q-67 -16 -101 12t-34 72q0 73 80 127q12 6 26 6h5q13 0 16 -8t-8 -17q-58 -49 -58 -100q0 -23 16.5 -35t51.5 -2q25 6 25 -16v-17z" />
    <glyph glyph-name="tilde" unicode="&#x2dc;" horiz-adv-x="595" 
d="M63 1190q-9 0 -15 6t-5 16q9 58 48 96t93 38q73 0 131 -66q16 -18 25.5 -26.5t29.5 -18.5t42 -10q71 0 82 75q3 21 22 21h19q21 0 18 -23q-8 -60 -44.5 -96.5t-96.5 -36.5q-32 0 -59 12t-41 24.5t-33 33.5q-47 51 -95 51q-34 0 -55 -22t-27 -56q-3 -18 -20 -18h-19z" />
    <glyph glyph-name="hungarumlaut" unicode="&#x2dd;" horiz-adv-x="493" 
d="M119 1317q6 14 22 14h37q11 0 16 -6.5t-1 -17.5l-76 -142q-6 -14 -25 -14h-24q-11 0 -15 7.5t0 17.5zM365 1317q6 14 22 14h37q11 0 15.5 -6.5t-1.5 -17.5l-76 -142q-6 -14 -24 -14h-25q-10 0 -14.5 7.5t0.5 17.5z" />
    <glyph glyph-name="gravecomb" unicode="&#x300;" horiz-adv-x="0" 
d="M-139 1331q16 0 22 -16l66 -139q4 -10 -1 -17.5t-16 -7.5h-28q-19 0 -25 14l-72 142q-4 10 0 17t15 7h39z" />
    <glyph glyph-name="acutecomb" unicode="&#x301;" horiz-adv-x="0" 
d="M-127 1317q6 14 23 14h36q11 0 15 -7t0 -17l-70 -142q-6 -14 -24 -14h-31q-11 0 -15 7.5t0 17.5z" />
    <glyph glyph-name="uni0302" unicode="&#x302;" horiz-adv-x="0" 
d="M-57 1176q6 -10 2.5 -17.5t-15.5 -7.5h-32q-14 0 -25 14l-76 125l-78 -125q-10 -14 -24 -14h-33q-12 0 -15 7.5t3 17.5l88 141q11 14 24 14h68q14 0 25 -14z" />
    <glyph glyph-name="tildecomb" unicode="&#x303;" horiz-adv-x="0" 
d="M-532 1190q-10 0 -16 6t-5 16q9 58 48 96t93 38q73 0 131 -66q16 -18 25.5 -26.5t29.5 -18.5t42 -10q71 0 82 75q3 21 22 21h19q21 0 18 -23q-8 -60 -44.5 -96.5t-96.5 -36.5q-32 0 -59 12t-41 24.5t-33 33.5q-47 51 -95 51q-34 0 -55 -22t-27 -56q-3 -18 -20 -18h-18z
" />
    <glyph glyph-name="uni0304" unicode="&#x304;" horiz-adv-x="0" 
d="M-365 1311q0 20 21 20h283q20 0 20 -20v-21q0 -20 -20 -20h-283q-21 0 -21 20v21z" />
    <glyph glyph-name="uni0306" unicode="&#x306;" horiz-adv-x="0" 
d="M-61 1331q20 0 20 -6q0 -68 -45 -112t-111 -44t-111.5 44t-45.5 112q0 6 20 6h19q20 0 20 -6q0 -41 27 -69.5t71 -28.5q43 0 70 28.5t27 69.5q0 6 20 6h19z" />
    <glyph glyph-name="uni0307" unicode="&#x307;" horiz-adv-x="0" 
d="M-96 1237q-21 0 -37.5 15.5t-16.5 39.5q0 22 16.5 36.5t37.5 14.5q23 0 39 -14t16 -37q0 -24 -16.5 -39.5t-38.5 -15.5z" />
    <glyph glyph-name="uni0308" unicode="&#x308;" horiz-adv-x="0" 
d="M-453 1237q-21 0 -37 15.5t-16 39.5q0 22 16 36.5t37 14.5q23 0 39.5 -14.5t16.5 -36.5q0 -24 -16.5 -39.5t-39.5 -15.5zM-98 1237q-21 0 -37.5 15.5t-16.5 39.5q0 22 16.5 36.5t37.5 14.5q23 0 39 -14t16 -37q0 -24 -16.5 -39.5t-38.5 -15.5z" />
    <glyph glyph-name="uni030A" unicode="&#x30a;" horiz-adv-x="0" 
d="M-178 1061q-58 0 -98.5 39.5t-40.5 99.5q0 63 40 102t99 39q58 0 97.5 -39t39.5 -102q0 -61 -39.5 -100t-97.5 -39zM-178 1112q38 0 60 26.5t22 61.5t-22 61.5t-60 26.5t-61 -26.5t-23 -61.5t23 -61.5t61 -26.5z" />
    <glyph glyph-name="uni030B" unicode="&#x30b;" horiz-adv-x="0" 
d="M-375 1317q6 14 23 14h37q11 0 15.5 -6.5t-1.5 -17.5l-76 -142q-6 -14 -24 -14h-25q-10 0 -14.5 7.5t0.5 17.5zM-129 1317q6 14 23 14h36q11 0 16 -6.5t-1 -17.5l-76 -142q-6 -14 -25 -14h-24q-11 0 -15 7.5t0 17.5z" />
    <glyph glyph-name="uni030C" unicode="&#x30c;" horiz-adv-x="0" 
d="M-127 1317q11 14 25 14h32q12 0 15.5 -6.5t-2.5 -17.5l-88 -142q-10 -14 -25 -14h-68q-14 0 -24 14l-88 142q-6 11 -3 17.5t15 6.5h33q13 0 24 -14l78 -125z" />
    <glyph glyph-name="uni0312" unicode="&#x312;" horiz-adv-x="0" 
d="M-70 1348q10 0 12.5 -7t-5.5 -18q-12 -15 -19 -29q41 -11 41 -51q0 -22 -15 -37.5t-38 -15.5q-24 0 -40 15.5t-16 37.5q0 7 1 13.5t4.5 14t5.5 13t7.5 14t8 12t9 13t8.5 12.5q13 13 26 13h10z" />
    <glyph glyph-name="dotbelowcomb" unicode="&#x323;" horiz-adv-x="0" 
d="M-96 -106q-21 0 -37.5 15t-16.5 38t16.5 38t37.5 15q22 0 38.5 -15t16.5 -38t-16.5 -38t-38.5 -15z" />
    <glyph glyph-name="uni0326" unicode="&#x326;" horiz-adv-x="0" 
d="M-127 -14q6 14 23 14h36q11 0 15 -7.5t0 -17.5l-72 -141q-6 -14 -25 -14h-28q-11 0 -15 7t0 17z" />
    <glyph glyph-name="uni0327" unicode="&#x327;" horiz-adv-x="0" 
d="M-160 -70q60 -4 89.5 -32.5t29.5 -65.5q0 -42 -31 -72t-94 -30q-41 0 -70 10q-16 5 -16 22v19q0 22 23 12q27 -8 63 -8q29 0 48.5 13t19.5 34q0 20 -21.5 33.5t-56.5 13.5q-19 0 -29 -2q-22 -3 -22 17v14l2 14l39 64q10 14 24 14h15q12 0 16 -7t-2 -18z" />
    <glyph glyph-name="uni0328" unicode="&#x328;" horiz-adv-x="0" 
d="M-43 -195q0 -19 -18 -22q-67 -16 -102.5 12.5t-35.5 71.5q0 74 82 127q12 6 27 6h2q13 0 16 -8t-8 -17q-55 -51 -55 -100q0 -23 16 -35t51 -2q25 6 25 -16v-17z" />
    <glyph glyph-name="uni0331" unicode="&#x331;" horiz-adv-x="0" 
d="M-360 -20q0 20 20 20h279q20 0 20 -20v-21q0 -20 -20 -20h-279q-20 0 -20 20v21z" />
    <glyph glyph-name="Gamma" unicode="&#x393;" horiz-adv-x="950" 
d="M770 1331q21 0 21 -20v-37q0 -9 -6 -15t-15 -6h-571v-1233q0 -20 -21 -20h-39q-20 0 -20 20v1291q0 20 20 20h631z" />
    <glyph glyph-name="uni0394" unicode="&#x394;" horiz-adv-x="1355" 
d="M674 1331q17 0 22 -16l498 -1227q4 -10 4 -25v-43q0 -20 -20 -20h-1039q-20 0 -20 20v43q0 15 4 25l495 1227q5 16 23 16h33zM207 76h901l-453 1132z" />
    <glyph glyph-name="Sigma" unicode="&#x3a3;" horiz-adv-x="1220" 
d="M1040 1331q21 0 21 -20v-37q0 -9 -6 -15t-15 -6h-796l573 -579q6 -6 6 -14.5t-6 -14.5l-571 -567h794q9 0 15 -6t6 -15v-37q0 -20 -21 -20h-901q-20 0 -20 20v35q0 15 10 25l590 579l-590 594q-10 10 -10 25v33q0 20 20 20h901z" />
    <glyph glyph-name="Phi" unicode="&#x3a6;" horiz-adv-x="1605" 
d="M1446 668q0 -253 -168 -389t-459 -144v-117q0 -20 -20 -20h-33q-21 0 -21 20v117q-191 6 -330 66t-217.5 179t-78.5 288q0 250 167.5 385.5t458.5 144.5v115q0 20 21 20h33q20 0 20 -20v-115q291 -8 459 -143t168 -387zM199 668q0 -212 143.5 -327t402.5 -124v899
q-259 -9 -402.5 -123.5t-143.5 -324.5zM819 217q260 8 403.5 123t143.5 328q0 211 -143.5 325.5t-403.5 122.5v-899z" />
    <glyph glyph-name="Psi" unicode="&#x3a8;" horiz-adv-x="1406" 
d="M1167 1311q0 20 21 20h39q20 0 20 -20v-383q0 -535 -528 -551v-357q0 -20 -21 -20h-32q-21 0 -21 20v357q-526 20 -526 553v381q0 20 20 20h39q21 0 21 -20v-381q0 -246 112.5 -356.5t333.5 -118.5v856q0 20 21 20h32q21 0 21 -20v-856q222 8 335 118.5t113 356.5v381z
" />
    <glyph glyph-name="uni03A9" unicode="&#x3a9;" horiz-adv-x="1609" 
d="M1116 86h316q20 0 20 -20v-37q0 -21 -20 -21h-478q-20 0 -20 21v41q0 18 16 24q187 65 301.5 221t114.5 353q0 168 -69.5 303.5t-202.5 216t-308 80.5t-309 -80.5t-204 -216.5t-70 -303q0 -195 113.5 -350t299.5 -220q17 -7 17 -24v-45q0 -9 -6 -15t-15 -6h-473
q-20 0 -20 21v37q0 20 20 20h320q-153 89 -244.5 240.5t-91.5 339.5q0 196 82.5 351t234.5 243t346 88t345 -88t233 -243t82 -351q0 -186 -90 -337.5t-240 -242.5z" />
    <glyph glyph-name="uni1E04" unicode="&#x1e04;" horiz-adv-x="1234" 
d="M903 692q105 -36 168.5 -124t63.5 -208q0 -157 -104 -258.5t-259 -101.5h-633q-20 0 -20 20v1291q0 20 20 20h586q157 0 258.5 -93.5t101.5 -248.5q0 -105 -48.5 -181.5t-133.5 -115.5zM199 1253v-532h518q130 0 208.5 73t78.5 193q0 119 -78.5 192.5t-208.5 73.5h-518z
M764 78q129 0 209 81.5t80 202.5q0 122 -80.5 203.5t-208.5 81.5h-565v-569h565zM545 -221q-21 0 -37 15t-16 38t16 38t37 15q22 0 38.5 -15t16.5 -38t-16.5 -38t-38.5 -15z" />
    <glyph glyph-name="uni1E05" unicode="&#x1e05;" 
d="M598 956q206 0 337.5 -136.5t131.5 -348.5t-131.5 -349.5t-337.5 -137.5q-138 0 -243 65t-160 178v-207q0 -20 -21 -20h-35q-20 0 -20 20v1291q0 20 20 20h35q21 0 21 -20v-596q55 112 160 176.5t243 64.5zM592 57q178 0 288.5 116t110.5 298q0 181 -110 296.5
t-289 115.5q-178 0 -287.5 -115t-109.5 -297t109.5 -298t287.5 -116zM596 -238q-21 0 -37 15.5t-16 38.5t16 38t37 15q22 0 38.5 -15t16.5 -38t-16.5 -38.5t-38.5 -15.5z" />
    <glyph glyph-name="uni1E0C" unicode="&#x1e0c;" horiz-adv-x="1327" 
d="M541 1331q195 0 345 -83.5t232 -234.5t82 -347t-82 -347t-232 -235t-345 -84h-402q-20 0 -20 20v1291q0 20 20 20h402zM541 80q253 0 415 160t162 426q0 176 -75 310t-205.5 204.5t-296.5 70.5h-342v-1171h342zM528 -221q-21 0 -37 15t-16 38t16 38t37 15q22 0 39 -15
t17 -38t-17 -38t-39 -15z" />
    <glyph glyph-name="uni1E0D" unicode="&#x1e0d;" 
d="M967 1311q0 20 20 20h37q20 0 20 -20v-1291q0 -20 -20 -20h-37q-20 0 -20 20v207q-55 -113 -160.5 -178t-243.5 -65q-206 0 -337.5 137.5t-131.5 349.5t131.5 348.5t337.5 136.5q139 0 244 -64.5t160 -176.5v596zM569 57q180 0 289 116t109 298t-109 297t-289 115
q-179 0 -289 -115.5t-110 -296.5q0 -182 110.5 -298t288.5 -116zM573 -238q-21 0 -37 15.5t-16 38.5t16 38t37 15q22 0 39 -15t17 -38t-17 -38.5t-39 -15.5z" />
    <glyph glyph-name="uni1E24" unicode="&#x1e24;" horiz-adv-x="1263" 
d="M1022 1311q0 20 20 20h41q21 0 21 -20v-1291q0 -20 -21 -20h-41q-20 0 -20 20v605h-823v-605q0 -20 -21 -20h-39q-20 0 -20 20v1291q0 20 20 20h39q21 0 21 -20v-606h823v606zM604 -219q-21 0 -37 15t-16 38t16 38t37 15q22 0 38.5 -15t16.5 -38t-16.5 -38t-38.5 -15z
" />
    <glyph glyph-name="uni1E25" unicode="&#x1e25;" horiz-adv-x="1062" 
d="M524 956q104 0 188 -40t137.5 -126.5t53.5 -207.5v-562q0 -20 -20 -20h-35q-21 0 -21 20v555q0 141 -88.5 226.5t-228.5 85.5q-139 0 -227 -85.5t-88 -226.5v-555q0 -20 -21 -20h-35q-20 0 -20 20v1291q0 20 20 20h35q21 0 21 -20v-527q49 85 136.5 128.5t192.5 43.5z
M528 -221q-21 0 -37 15t-16 38t16 38t37 15q22 0 39 -15t17 -38t-17 -38t-39 -15z" />
    <glyph glyph-name="uni1E36" unicode="&#x1e36;" horiz-adv-x="1067" 
d="M199 78h731q20 0 20 -21v-37q0 -20 -20 -20h-791q-20 0 -20 20v1291q0 20 20 20h39q21 0 21 -20v-1233zM535 -221q-21 0 -37.5 15.5t-16.5 37.5t16.5 37.5t37.5 15.5q22 0 38.5 -15t16.5 -38t-16.5 -38t-38.5 -15z" />
    <glyph glyph-name="uni1E37" unicode="&#x1e37;" horiz-adv-x="354" 
d="M195 20q0 -20 -21 -20h-35q-20 0 -20 20v1291q0 20 20 20h35q21 0 21 -20v-1291zM156 -221q-21 0 -37.5 15.5t-16.5 37.5t16.5 37.5t37.5 15.5q22 0 38.5 -15t16.5 -38t-16.5 -38t-38.5 -15z" />
    <glyph glyph-name="uni1E3E" unicode="&#x1e3e;" horiz-adv-x="1501" 
d="M772 1620q6 14 23 14h36q11 0 15 -7t0 -17l-70 -142q-6 -14 -24 -14h-31q-10 0 -14.5 7t0.5 18zM1323 1331q20 0 20 -20v-1291q0 -20 -20 -20h-41q-20 0 -20 20v1166l-494 -1002q-6 -14 -25 -14h-24q-19 0 -25 14l-495 1002v-1166q0 -20 -21 -20h-39q-20 0 -20 20v1291
q0 20 20 20h58q18 0 24 -14l510 -1016l510 1016q6 14 25 14h57z" />
    <glyph glyph-name="uni1E3F" unicode="&#x1e3f;" horiz-adv-x="1658" 
d="M848 1249q6 15 22 15h37q11 0 15 -7.5t0 -17.5l-70 -141q-6 -15 -25 -15h-30q-11 0 -15 7.5t0 17.5zM1149 956q71 0 132.5 -21t111.5 -64t79 -117t29 -172v-562q0 -20 -20 -20h-37q-21 0 -21 20v558q0 149 -79.5 228t-208.5 79q-128 0 -207.5 -79t-79.5 -228v-558
q0 -20 -21 -20h-36q-21 0 -21 20v558q0 149 -79.5 228t-207.5 79q-129 0 -208.5 -79t-79.5 -228v-558q0 -20 -21 -20h-35q-20 0 -20 20v902q0 20 20 20h35q21 0 21 -20v-125q45 80 125 119.5t176 39.5q110 0 197 -50.5t126 -155.5q42 105 131 155.5t199 50.5z" />
    <glyph glyph-name="uni1E44" unicode="&#x1e44;" horiz-adv-x="1261" 
d="M631 1448q-21 0 -37 15.5t-16 39.5q0 22 16 36.5t37 14.5q23 0 39 -14t16 -37q0 -24 -16.5 -39.5t-38.5 -15.5zM1022 1311q0 20 20 20h41q21 0 21 -20v-1291q0 -20 -21 -20h-43q-17 0 -24 12l-815 1182v-1174q0 -20 -21 -20h-41q-20 0 -20 20v1291q0 20 20 20h43
q18 0 25 -12l815 -1178v1170z" />
    <glyph glyph-name="uni1E45" unicode="&#x1e45;" horiz-adv-x="1062" 
d="M510 1073q-21 0 -37 15.5t-16 39.5q0 22 16 37t37 15q22 0 38.5 -14.5t16.5 -37.5q0 -24 -16.5 -39.5t-38.5 -15.5zM524 956q104 0 188 -40t137.5 -126.5t53.5 -207.5v-562q0 -20 -20 -20h-35q-21 0 -21 20v555q0 141 -88.5 226.5t-228.5 85.5q-139 0 -227 -85.5
t-88 -226.5v-555q0 -20 -21 -20h-35q-20 0 -20 20v902q0 20 20 20h35q21 0 21 -20v-138q49 85 136.5 128.5t192.5 43.5z" />
    <glyph glyph-name="uni1E46" unicode="&#x1e46;" horiz-adv-x="1261" 
d="M1022 1311q0 20 20 20h41q21 0 21 -20v-1291q0 -20 -21 -20h-43q-17 0 -24 12l-815 1182v-1174q0 -20 -21 -20h-41q-20 0 -20 20v1291q0 20 20 20h43q18 0 25 -12l815 -1178v1170zM631 -221q-21 0 -37 15t-16 38t16 38t37 15q22 0 38.5 -15t16.5 -38t-16.5 -38t-38.5 -15
z" />
    <glyph glyph-name="uni1E47" unicode="&#x1e47;" horiz-adv-x="1062" 
d="M524 956q104 0 188 -40t137.5 -126.5t53.5 -207.5v-562q0 -20 -20 -20h-35q-21 0 -21 20v555q0 141 -88.5 226.5t-228.5 85.5q-139 0 -227 -85.5t-88 -226.5v-555q0 -20 -21 -20h-35q-20 0 -20 20v902q0 20 20 20h35q21 0 21 -20v-138q49 85 136.5 128.5t192.5 43.5z
M510 -221q-21 0 -37 15t-16 38t16 38t37 15q22 0 38.5 -15t16.5 -38t-16.5 -38t-38.5 -15z" />
    <glyph glyph-name="uni1E62" unicode="&#x1e62;" horiz-adv-x="1218" 
d="M84 256q-6 19 10 29l35 18q18 9 27 -10q46 -109 164.5 -171.5t287.5 -62.5q406 0 406 303q0 39 -14 73.5t-33.5 59.5t-53.5 47.5t-62 36t-72 28.5t-69.5 21.5t-68 17t-55.5 13.5q-11 3 -47.5 11t-57 13t-59 16t-63 21t-59.5 26.5t-57.5 33t-48 41t-40 50.5t-24 60.5
t-9.5 72.5q0 168 129 259t354 91q170 0 297 -65t170 -169q6 -19 -12 -26l-35 -17q-18 -9 -27 10q-37 83 -145 134t-254 51q-187 0 -288 -69.5t-101 -196.5q0 -29 8 -55t20.5 -46t33.5 -38.5t41 -31.5t49.5 -26t52 -21t55.5 -17t54 -13.5t53 -12t47 -10.5q10 -3 44.5 -11.5
t56 -14t60 -18t64.5 -23t62 -28.5t60.5 -36.5t51 -44.5t42 -54t26 -64t10.5 -76q0 -190 -128 -289t-368 -99q-196 0 -331.5 74t-188.5 205zM610 -233q-21 0 -37 15t-16 38t16 38t37 15q22 0 39 -15t17 -38t-17 -38t-39 -15z" />
    <glyph glyph-name="uni1E6C" unicode="&#x1e6c;" horiz-adv-x="1191" 
d="M1053 1331q20 0 20 -20v-37q0 -21 -20 -21h-437v-1233q0 -20 -20 -20h-41q-20 0 -20 20v1233h-437q-20 0 -20 21v37q0 20 20 20h955zM575 -217q-21 0 -37 15t-16 38t16 38t37 15q22 0 39 -15t17 -38t-17 -38t-39 -15z" />
    <glyph glyph-name="uni1E6D" unicode="&#x1e6d;" horiz-adv-x="614" 
d="M514 897q0 -20 -20 -20h-222v-676q0 -66 37 -99.5t99 -33.5h75q9 0 15 -6t6 -15v-27q0 -20 -21 -20h-94q-88 0 -141 51.5t-53 143.5v682h-117q-21 0 -21 20v25q0 20 21 20h117v264q0 21 20 21h37q20 0 20 -21v-264h222q20 0 20 -20v-25zM391 -215q-21 0 -37 15t-16 38
t16 38t37 15q22 0 38.5 -15t16.5 -38t-16.5 -38t-38.5 -15z" />
    <glyph glyph-name="Wgrave" unicode="&#x1e80;" horiz-adv-x="1931" 
d="M895 1634q17 0 23 -16l65 -139q4 -10 -0.5 -17.5t-15.5 -7.5h-29q-19 0 -25 14l-71 142q-4 10 -0.5 17t14.5 7h39zM1759 1315q6 16 25 16h45q22 0 16 -22l-430 -1293q-6 -16 -24 -16h-31q-19 0 -25 16l-381 1145l-381 -1145q-6 -16 -24 -16h-29q-18 0 -24 16l-430 1293
q-6 22 16 22h43q19 0 25 -16l385 -1157l385 1157q6 16 24 16h25q18 0 24 -16l383 -1153z" />
    <glyph glyph-name="wgrave" unicode="&#x1e81;" horiz-adv-x="1464" 
d="M653 1260q16 0 23 -17l65 -139q4 -10 -0.5 -17.5t-15.5 -7.5h-29q-18 0 -24 15l-72 141q-5 11 -0.5 18t14.5 7h39zM1298 926q6 16 25 16h39q22 0 16 -22l-307 -904q-6 -16 -24 -16h-43q-19 0 -25 16l-264 781l-271 -781q-6 -16 -24 -16h-43q-19 0 -25 16l-303 904
q-6 22 17 22h36q19 0 25 -16l274 -817l281 817q6 16 25 16h14q18 0 24 -16l277 -817z" />
    <glyph glyph-name="Wacute" unicode="&#x1e82;" horiz-adv-x="1931" 
d="M993 1620q6 14 23 14h37q11 0 14.5 -7t-0.5 -17l-70 -142q-6 -14 -24 -14h-31q-10 0 -14.5 7t0.5 18zM1759 1315q6 16 25 16h45q22 0 16 -22l-430 -1293q-6 -16 -24 -16h-31q-19 0 -25 16l-381 1145l-381 -1145q-6 -16 -24 -16h-29q-18 0 -24 16l-430 1293q-6 22 16 22
h43q19 0 25 -16l385 -1157l385 1157q6 16 24 16h25q18 0 24 -16l383 -1153z" />
    <glyph glyph-name="wacute" unicode="&#x1e83;" horiz-adv-x="1464" 
d="M752 1245q6 15 22 15h37q10 0 14.5 -7t-0.5 -18l-69 -141q-6 -15 -25 -15h-31q-10 0 -14.5 7.5t0.5 17.5zM1298 926q6 16 25 16h39q22 0 16 -22l-307 -904q-6 -16 -24 -16h-43q-19 0 -25 16l-264 781l-271 -781q-6 -16 -24 -16h-43q-19 0 -25 16l-303 904q-6 22 17 22h36
q19 0 25 -16l274 -817l281 817q6 16 25 16h14q18 0 24 -16l277 -817z" />
    <glyph glyph-name="Wdieresis" unicode="&#x1e84;" horiz-adv-x="1931" 
d="M776 1448q-21 0 -37 15.5t-16 39.5q0 22 16 36.5t37 14.5q23 0 39 -14t16 -37q0 -24 -16.5 -39.5t-38.5 -15.5zM1130 1448q-21 0 -37 15.5t-16 39.5q0 22 16 36.5t37 14.5q23 0 39.5 -14.5t16.5 -36.5q0 -24 -16.5 -39.5t-39.5 -15.5zM1759 1315q6 16 25 16h45
q22 0 16 -22l-430 -1293q-6 -16 -24 -16h-31q-19 0 -25 16l-381 1145l-381 -1145q-6 -16 -24 -16h-29q-18 0 -24 16l-430 1293q-6 22 16 22h43q19 0 25 -16l385 -1157l385 1157q6 16 24 16h25q18 0 24 -16l383 -1153z" />
    <glyph glyph-name="wdieresis" unicode="&#x1e85;" horiz-adv-x="1464" 
d="M535 1073q-21 0 -37.5 15.5t-16.5 39.5q0 22 16.5 37t37.5 15q22 0 38.5 -14.5t16.5 -37.5q0 -24 -16.5 -39.5t-38.5 -15.5zM889 1073q-21 0 -37 15.5t-16 39.5q0 22 16 37t37 15q22 0 38.5 -14.5t16.5 -37.5q0 -24 -16.5 -39.5t-38.5 -15.5zM1298 926q6 16 25 16h39
q22 0 16 -22l-307 -904q-6 -16 -24 -16h-43q-19 0 -25 16l-264 781l-271 -781q-6 -16 -24 -16h-43q-19 0 -25 16l-303 904q-6 22 17 22h36q19 0 25 -16l274 -817l281 817q6 16 25 16h14q18 0 24 -16l277 -817z" />
    <glyph glyph-name="uni1E92" unicode="&#x1e92;" horiz-adv-x="1099" 
d="M983 1272q0 -11 -8 -27l-780 -1167h751q9 0 15 -6t6 -15v-37q0 -20 -21 -20h-827q-21 0 -21 20v39q0 11 8 27l779 1167h-754q-20 0 -20 21v37q0 20 20 20h832q20 0 20 -20v-39zM547 -221q-21 0 -37 15t-16 38t16 38t37 15q22 0 38.5 -15t16.5 -38t-16.5 -38t-38.5 -15z
" />
    <glyph glyph-name="uni1E93" unicode="&#x1e93;" horiz-adv-x="886" 
d="M750 942q20 0 20 -20v-31q0 -16 -8 -27l-590 -794h565q9 0 15 -6t6 -15v-29q0 -20 -21 -20h-639q-20 0 -20 20v29q0 16 8 27l590 796h-565q-9 0 -15 6t-6 15v29q0 20 21 20h639zM424 -221q-21 0 -37 15t-16 38t16 38t37 15q22 0 38.5 -15t16.5 -38t-16.5 -38t-38.5 -15z
" />
    <glyph glyph-name="uni1EA0" unicode="&#x1ea0;" horiz-adv-x="1302" 
d="M1155 0q-17 0 -22 16l-160 383h-664l-159 -383q-5 -16 -23 -16h-43q-11 0 -15.5 7.5t-0.5 17.5l534 1290q5 16 23 16h32q18 0 23 -16l534 -1290q4 -10 -0.5 -17.5t-15.5 -7.5h-43zM340 477h602l-301 727zM651 -221q-21 0 -37 15t-16 38t16 38t37 15q22 0 39 -15t17 -38
t-17 -38t-39 -15z" />
    <glyph glyph-name="uni1EA1" unicode="&#x1ea1;" 
d="M967 922q0 20 20 20h37q20 0 20 -20v-902q0 -20 -20 -20h-37q-20 0 -20 20v207q-55 -113 -160.5 -178t-243.5 -65q-206 0 -337.5 137.5t-131.5 349.5t131.5 348.5t337.5 136.5q139 0 244 -64.5t160 -176.5v207zM569 57q180 0 289 116t109 298t-109 297t-289 115
q-179 0 -289 -115.5t-110 -296.5q0 -182 110.5 -298t288.5 -116zM598 -227q-21 0 -37 15t-16 38t16 38t37 15q22 0 38.5 -15t16.5 -38t-16.5 -38t-38.5 -15z" />
    <glyph glyph-name="uni1EB8" unicode="&#x1eb8;" horiz-adv-x="1101" 
d="M954 1274q0 -21 -20 -21h-735v-551h692q20 0 20 -20v-37q0 -20 -20 -20h-692v-547h735q20 0 20 -21v-37q0 -20 -20 -20h-795q-20 0 -20 20v1291q0 20 20 20h795q20 0 20 -20v-37zM551 -217q-21 0 -37 15t-16 38t16 38t37 15q22 0 38.5 -15t16.5 -38t-16.5 -38t-38.5 -15z
" />
    <glyph glyph-name="uni1EB9" unicode="&#x1eb9;" horiz-adv-x="1142" 
d="M557 956q197 0 323 -137t126 -348v-10q0 -9 -6 -15t-15 -6h-815q11 -173 119.5 -280t279.5 -107q105 0 188.5 41t135.5 113q13 17 29 4l22 -14q8 -5 10 -13t-4 -16q-62 -87 -160.5 -135.5t-220.5 -48.5q-211 0 -343 137.5t-132 349.5q0 213 127 349t336 136zM557 889
q-171 0 -274.5 -106.5t-112.5 -280.5h764q-9 170 -113 278.5t-264 108.5zM567 -231q-21 0 -37 15t-16 38t16 38t37 15q22 0 39 -15t17 -38t-17 -38t-39 -15z" />
    <glyph glyph-name="uni1EBC" unicode="&#x1ebc;" horiz-adv-x="1101" 
d="M315 1454q-9 0 -15 6.5t-5 16.5q9 58 47.5 95.5t93.5 37.5q73 0 131 -66q16 -18 25.5 -26.5t29.5 -18.5t42 -10q70 0 81 76q3 20 23 20h18q22 0 19 -22q-8 -60 -44.5 -96.5t-96.5 -36.5q-46 0 -76 18.5t-58 50.5q-47 51 -94 51q-34 0 -55 -21.5t-27 -55.5q-3 -19 -20 -19
h-19zM954 1274q0 -21 -20 -21h-735v-551h692q20 0 20 -20v-37q0 -20 -20 -20h-692v-547h735q20 0 20 -21v-37q0 -20 -20 -20h-795q-20 0 -20 20v1291q0 20 20 20h795q20 0 20 -20v-37z" />
    <glyph glyph-name="uni1EBD" unicode="&#x1ebd;" horiz-adv-x="1142" 
d="M322 1079q-10 0 -16 6.5t-5 16.5q9 58 47.5 95.5t93.5 37.5q73 0 131 -66q16 -18 25.5 -26.5t29.5 -18.5t42 -10q71 0 82 76q3 20 22 20h19q21 0 18 -22q-8 -60 -44.5 -96.5t-96.5 -36.5q-46 0 -75.5 18.5t-57.5 50.5q-48 52 -95 52q-34 0 -55 -22t-27 -56
q-3 -19 -20 -19h-18zM557 956q197 0 323 -137t126 -348v-10q0 -9 -6 -15t-15 -6h-815q11 -173 119.5 -280t279.5 -107q105 0 188.5 41t135.5 113q13 17 29 4l22 -14q8 -5 10 -13t-4 -16q-62 -87 -160.5 -135.5t-220.5 -48.5q-211 0 -343 137.5t-132 349.5q0 213 127 349
t336 136zM557 889q-171 0 -274.5 -106.5t-112.5 -280.5h764q-9 170 -113 278.5t-264 108.5z" />
    <glyph glyph-name="uni1ECA" unicode="&#x1eca;" horiz-adv-x="358" 
d="M199 20q0 -20 -21 -20h-39q-20 0 -20 20v1291q0 20 20 20h39q21 0 21 -20v-1291zM158 -221q-21 0 -37.5 15.5t-16.5 37.5t16.5 37.5t37.5 15.5q22 0 38.5 -15t16.5 -38t-16.5 -38t-38.5 -15z" />
    <glyph glyph-name="uni1ECB" unicode="&#x1ecb;" horiz-adv-x="391" 
d="M176 1184q-24 0 -40.5 16.5t-16.5 40.5q0 26 16.5 41.5t40.5 15.5q23 0 40 -16t17 -41q0 -24 -17.5 -40.5t-39.5 -16.5zM213 20q0 -20 -20 -20h-35q-21 0 -21 20v902q0 20 21 20h37q20 0 20 -20zM176 -238q-21 0 -37 15.5t-16 38.5t16 38t37 15q22 0 38.5 -15t16.5 -38
t-16.5 -38.5t-38.5 -15.5z" />
    <glyph glyph-name="uni1ECC" unicode="&#x1ecc;" horiz-adv-x="1550" 
d="M762 -16q-194 0 -346 88t-235 243t-83 351t83 351t235 243t346 88t345.5 -88t233.5 -243t82 -351t-82 -351t-233.5 -243t-345.5 -88zM762 66q172 0 304.5 77.5t203.5 214t71 308.5t-71 308.5t-203.5 214t-304.5 77.5q-171 0 -304.5 -77.5t-206.5 -214t-73 -308.5
t73 -308.5t206.5 -214t304.5 -77.5zM762 -238q-21 0 -37 15.5t-16 38.5t16 38t37 15q22 0 38.5 -15t16.5 -38t-16.5 -38.5t-38.5 -15.5z" />
    <glyph glyph-name="uni1ECD" unicode="&#x1ecd;" horiz-adv-x="1179" 
d="M569 -16q-210 0 -342.5 137.5t-132.5 349.5t132.5 348.5t342.5 136.5q211 0 343 -136.5t132 -348.5t-132 -349.5t-343 -137.5zM569 57q177 0 286.5 117t109.5 297t-109.5 296t-286.5 116q-176 0 -285.5 -116t-109.5 -296t110 -297t285 -117zM569 -238q-21 0 -37 15.5
t-16 38.5t16 38t37 15q22 0 39 -15t17 -38t-17 -38.5t-39 -15.5z" />
    <glyph glyph-name="uni1EE4" unicode="&#x1ee4;" horiz-adv-x="1257" 
d="M1018 1311q0 20 20 20h41q21 0 21 -20v-854q0 -209 -133 -341t-359 -132t-357.5 131.5t-131.5 341.5v854q0 20 20 20h39q21 0 21 -20v-848q0 -184 109.5 -292t299.5 -108t300 108t110 292v848zM608 -221q-21 0 -37 15t-16 38t16 38t37 15q22 0 39 -15t17 -38t-17 -38
t-39 -15z" />
    <glyph glyph-name="uni1EE5" unicode="&#x1ee5;" horiz-adv-x="1062" 
d="M827 922q0 20 21 20h35q20 0 20 -20v-902q0 -20 -20 -20h-35q-21 0 -21 20v136q-49 -85 -136.5 -128.5t-192.5 -43.5q-104 0 -188 40t-137.5 126.5t-53.5 207.5v564q0 20 20 20h35q21 0 21 -20v-557q0 -141 88.5 -226.5t228.5 -85.5q139 0 227 85.5t88 226.5v557z
M512 -236q-21 0 -37 15.5t-16 38.5t16 38t37 15q22 0 38.5 -15t16.5 -38t-16.5 -38.5t-38.5 -15.5z" />
    <glyph glyph-name="Ygrave" unicode="&#x1ef2;" horiz-adv-x="1153" 
d="M498 1634q16 0 22 -16l66 -139q4 -10 -1 -17.5t-16 -7.5h-28q-19 0 -25 14l-72 142q-4 10 0 17t15 7h39zM1049 1331q12 0 15 -6.5t-3 -17.5l-463 -711v-576q0 -20 -20 -20h-39q-21 0 -21 20v572l-465 715q-6 11 -2.5 17.5t15.5 6.5h51q13 0 24 -14l416 -637l416 637
q11 14 24 14h52z" />
    <glyph glyph-name="ygrave" unicode="&#x1ef3;" horiz-adv-x="937" 
d="M387 1260q16 0 23 -17l65 -139q4 -10 -0.5 -17.5t-15.5 -7.5h-29q-18 0 -24 15l-72 141q-5 11 -0.5 18t14.5 7h39zM772 926q5 16 23 16h41q11 0 14.5 -7t-0.5 -17l-508 -1278q-6 -17 -23 -17h-36q-11 0 -15 7.5t0 17.5l140 354l-361 916q-4 10 -0.5 17t14.5 7h39
q18 0 23 -16l323 -820z" />
    <glyph glyph-name="uni1EF4" unicode="&#x1ef4;" horiz-adv-x="1153" 
d="M1049 1331q12 0 15 -6.5t-3 -17.5l-463 -711v-576q0 -20 -20 -20h-39q-21 0 -21 20v572l-465 715q-6 11 -2.5 17.5t15.5 6.5h51q13 0 24 -14l416 -637l416 637q11 14 24 14h52zM557 -221q-21 0 -37 15t-16 38t16 38t37 15q22 0 38.5 -15t16.5 -38t-16.5 -38t-38.5 -15z
" />
    <glyph glyph-name="uni1EF5" unicode="&#x1ef5;" horiz-adv-x="937" 
d="M772 926q5 16 23 16h41q11 0 14.5 -7t-0.5 -17l-508 -1278q-6 -17 -23 -17h-36q-11 0 -15 7.5t0 17.5l140 354l-361 916q-4 10 -0.5 17t14.5 7h39q18 0 23 -16l323 -820zM545 -342q-21 0 -37 15t-16 38t16 38t37 15q22 0 38.5 -15t16.5 -38t-16.5 -38t-38.5 -15z" />
    <glyph glyph-name="uni1EF8" unicode="&#x1ef8;" horiz-adv-x="1153" 
d="M322 1454q-10 0 -16 6.5t-5 16.5q9 58 47.5 95.5t93.5 37.5q73 0 131 -66q16 -18 25.5 -26.5t29.5 -18.5t42 -10q71 0 82 76q3 20 22 20h19q21 0 18 -22q-8 -60 -44.5 -96.5t-96.5 -36.5q-46 0 -75.5 18.5t-57.5 50.5q-47 51 -95 51q-34 0 -55 -21.5t-27 -55.5
q-3 -19 -20 -19h-18zM1049 1331q12 0 15 -6.5t-3 -17.5l-463 -711v-576q0 -20 -20 -20h-39q-21 0 -21 20v572l-465 715q-6 11 -2.5 17.5t15.5 6.5h51q13 0 24 -14l416 -637l416 637q11 14 24 14h52z" />
    <glyph glyph-name="uni1EF9" unicode="&#x1ef9;" horiz-adv-x="937" 
d="M211 1079q-9 0 -15.5 6.5t-5.5 16.5q9 58 48 95.5t94 37.5q73 0 131 -66q17 -18 26 -26.5t28.5 -18.5t41.5 -10q71 0 82 76q3 20 23 20h18q21 0 18 -22q-8 -60 -44.5 -96.5t-96.5 -36.5q-46 0 -75.5 18.5t-57.5 50.5q-48 52 -94 52q-34 0 -55 -22t-27 -56q-3 -19 -21 -19
h-18zM772 926q5 16 23 16h41q11 0 14.5 -7t-0.5 -17l-508 -1278q-6 -17 -23 -17h-36q-11 0 -15 7.5t0 17.5l140 354l-361 916q-4 10 -0.5 17t14.5 7h39q18 0 23 -16l323 -820z" />
    <glyph glyph-name="endash" unicode="&#x2013;" horiz-adv-x="1009" 
d="M119 645q0 21 20 21h692q9 0 15 -6t6 -15v-37q0 -20 -21 -20h-692q-20 0 -20 20v37z" />
    <glyph glyph-name="emdash" unicode="&#x2014;" horiz-adv-x="1357" 
d="M119 643q0 21 20 21h1039q20 0 20 -21v-37q0 -20 -20 -20h-1039q-20 0 -20 20v37z" />
    <glyph glyph-name="quoteleft" unicode="&#x2018;" horiz-adv-x="301" 
d="M186 1147q-3 -19 -22 -19h-62q-11 0 -15.5 7.5t-0.5 17.5l64 162q5 16 22 16h29q22 0 18 -22z" />
    <glyph glyph-name="quoteright" unicode="&#x2019;" horiz-adv-x="301" 
d="M115 1313q3 18 22 18h62q11 0 15.5 -7t0.5 -17l-63 -162q-6 -17 -23 -17h-29q-10 0 -15 6.5t-3 16.5z" />
    <glyph glyph-name="quotesinglbase" unicode="&#x201a;" horiz-adv-x="301" 
d="M115 74q3 18 22 18h60q11 0 15.5 -7t0.5 -17l-61 -152q-5 -16 -23 -16h-29q-21 0 -18 22z" />
    <glyph glyph-name="quotedblleft" unicode="&#x201c;" horiz-adv-x="571" 
d="M186 1147q-3 -19 -22 -19h-62q-11 0 -15.5 7.5t-0.5 17.5l64 162q5 16 22 16h29q22 0 18 -22zM457 1147q-3 -19 -23 -19h-61q-11 0 -16 7.5t-1 17.5l64 162q5 16 22 16h29q22 0 18 -22z" />
    <glyph glyph-name="quotedblright" unicode="&#x201d;" horiz-adv-x="571" 
d="M115 1313q3 18 22 18h62q11 0 15.5 -7t0.5 -17l-63 -162q-6 -17 -23 -17h-29q-10 0 -15 6.5t-3 16.5zM385 1313q3 18 23 18h61q11 0 15.5 -7t0.5 -17l-63 -162q-6 -17 -23 -17h-28q-10 0 -15.5 7t-3.5 16z" />
    <glyph glyph-name="quotedblbase" unicode="&#x201e;" horiz-adv-x="571" 
d="M115 74q3 18 22 18h62q11 0 15.5 -7t0.5 -17l-63 -162q-6 -17 -23 -17h-29q-10 0 -15 6.5t-3 16.5zM385 74q3 18 23 18h61q11 0 15.5 -7t0.5 -17l-63 -162q-6 -17 -23 -17h-28q-10 0 -15.5 7t-3.5 16z" />
    <glyph glyph-name="dagger" unicode="&#x2020;" horiz-adv-x="847" 
d="M668 956q20 0 20 -20v-29q0 -20 -20 -20h-226v-867q0 -20 -20 -20h-37q-20 0 -20 20v867h-226q-20 0 -20 20v29q0 20 20 20h226v355q0 20 20 20h37q20 0 20 -20v-355h226z" />
    <glyph glyph-name="daggerdbl" unicode="&#x2021;" horiz-adv-x="847" 
d="M688 885q0 -21 -20 -21h-226v-383h226q20 0 20 -20v-29q0 -20 -20 -20h-226v-392q0 -20 -20 -20h-37q-20 0 -20 20v392h-226q-20 0 -20 20v29q0 20 20 20h226v383h-226q-20 0 -20 21v28q0 21 20 21h226v377q0 20 20 20h37q20 0 20 -20v-377h226q20 0 20 -21v-28z" />
    <glyph glyph-name="bullet" unicode="&#x2022;" horiz-adv-x="346" 
d="M172 569q-39 0 -66.5 28.5t-27.5 68.5t27 68t67 28q41 0 68.5 -28t27.5 -68t-27.5 -68.5t-68.5 -28.5z" />
    <glyph glyph-name="ellipsis" unicode="&#x2026;" horiz-adv-x="929" 
d="M133 -2q-23 0 -39 16t-16 41q0 23 16 39.5t39 16.5q25 0 41 -16.5t16 -39.5q0 -25 -16 -41t-41 -16zM471 -2q-23 0 -39 16t-16 41q0 23 16 39.5t39 16.5q25 0 41 -16.5t16 -39.5q0 -25 -16 -41t-41 -16zM797 -2q-23 0 -39.5 16t-16.5 41q0 23 16.5 39.5t39.5 16.5
q25 0 41 -16.5t16 -39.5q0 -25 -16 -41t-41 -16z" />
    <glyph glyph-name="perthousand" unicode="&#x2030;" horiz-adv-x="2377" 
d="M399 756q-121 0 -200.5 80.5t-79.5 207.5q0 128 79.5 208.5t200.5 80.5t201 -80.5t80 -208.5q0 -126 -80 -207t-201 -81zM483 14q-6 -14 -24 -14h-33q-11 0 -16 7t0 18l698 1292q6 14 25 14h32q11 0 17 -7t0 -17zM399 821q94 0 154.5 62t60.5 161t-60.5 161.5
t-154.5 62.5q-93 0 -154 -62.5t-61 -161.5t61 -161t154 -62zM1192 -2q-122 0 -202.5 81t-80.5 208q0 128 80 208t203 80q120 0 200.5 -80.5t80.5 -207.5q0 -126 -80.5 -207.5t-200.5 -81.5zM1939 -2q-122 0 -202 81t-80 208q0 128 79.5 208t202.5 80q120 0 199.5 -80.5
t79.5 -207.5q0 -126 -79.5 -207.5t-199.5 -81.5zM1192 63q93 0 154 62.5t61 161.5t-61 161t-154 62t-155 -62t-62 -161t62 -161.5t155 -62.5zM1939 63q93 0 153 62.5t60 161.5t-60 161t-153 62q-95 0 -156 -62t-61 -161t61.5 -161.5t155.5 -62.5z" />
    <glyph glyph-name="guilsinglleft" unicode="&#x2039;" horiz-adv-x="647" 
d="M508 301q9 -11 4.5 -18t-16.5 -7h-52q-16 0 -24 11l-328 356q-12 15 0 29l328 356q8 10 24 10h52q13 0 16.5 -7t-4.5 -17l-328 -357z" />
    <glyph glyph-name="guilsinglright" unicode="&#x203a;" horiz-adv-x="647" 
d="M113 276q-13 0 -17 7t4 18l328 356l-328 357q-8 10 -4 17t17 7h51q16 0 24 -10l328 -356q12 -14 0 -29l-328 -356q-8 -11 -24 -11h-51z" />
    <glyph glyph-name="fraction" unicode="&#x2044;" horiz-adv-x="948" 
d="M94 14q-10 -14 -24 -14q-12 0 -16.5 7t1.5 18l799 1292q10 14 25 14q12 0 16 -6.5t-2 -17.5z" />
    <glyph glyph-name="uni2070" unicode="&#x2070;" horiz-adv-x="856" 
d="M418 518q-149 0 -234.5 115t-85.5 299q0 186 85.5 301t234.5 115q150 0 234.5 -115t84.5 -301q0 -185 -84.5 -299.5t-234.5 -114.5zM418 567q128 0 199 100.5t71 264.5q0 165 -71 264.5t-199 99.5q-127 0 -199 -100t-72 -264q0 -163 72 -264t199 -101z" />
    <glyph glyph-name="uni2074" unicode="&#x2074;" horiz-adv-x="755" 
d="M645 758q12 0 12 -13v-18q0 -12 -12 -12h-82v-174q0 -13 -12 -13h-25q-14 0 -14 13v174h-422q-12 0 -12 12v18q0 9 4 17l424 563q4 6 16 6h29q12 0 12 -12v-561h82zM133 758h379v504z" />
    <glyph glyph-name="uni2075" unicode="&#x2075;" horiz-adv-x="741" 
d="M334 1047q132 0 206 -72t74 -184q0 -120 -75.5 -192.5t-202.5 -72.5q-74 0 -140.5 29t-105.5 76q-8 8 2 18l17 15q9 9 18 0q35 -43 91 -67t118 -24q110 1 169.5 61t59.5 157q0 94 -63.5 153.5t-167.5 59.5q-102 0 -164 -35q-12 -6 -18 6l-11 18q-4 8 -2 15l47 321
q2 10 13 10h370q13 0 13 -12v-22q0 -13 -13 -13h-340l-39 -268q74 23 144 23z" />
    <glyph glyph-name="uni2076" unicode="&#x2076;" horiz-adv-x="765" 
d="M369 1073q117 0 193.5 -77.5t76.5 -200.5q0 -122 -77 -200.5t-193 -78.5t-193.5 78.5t-77.5 200.5q0 94 49 168l248 360q5 8 15 8h28q7 0 10 -4.5t-2 -9.5l-178 -262q46 18 101 18zM369 565q96 0 159.5 64t63.5 166q0 103 -63 167t-160 64t-160.5 -64t-63.5 -167
q0 -102 64 -166t160 -64z" />
    <glyph glyph-name="uni2077" unicode="&#x2077;" horiz-adv-x="622" 
d="M137 528q-6 0 -8.5 4.5t0.5 10.5l342 741h-399q-13 0 -13 12v21q0 12 13 12h442q12 0 12 -12v-21q0 -2 -4 -14l-344 -745q-3 -9 -12 -9h-29z" />
    <glyph glyph-name="uni2078" unicode="&#x2078;" horiz-adv-x="768" 
d="M489 944q73 -26 112.5 -80.5t39.5 -122.5q0 -102 -70 -163.5t-202 -61.5q-130 0 -200.5 62t-70.5 163q0 68 39.5 122.5t112.5 80.5q-69 24 -104 74.5t-35 114.5q0 86 66.5 147t191.5 61q128 0 194 -61t66 -147q0 -64 -35.5 -114.5t-104.5 -74.5zM158 1133
q0 -75 52 -120.5t159 -45.5q109 0 161 45.5t52 120.5q0 68 -53.5 116.5t-159.5 48.5q-105 0 -158 -48.5t-53 -116.5zM369 561q111 0 167 48.5t56 133.5q0 77 -57.5 129t-165.5 52q-107 0 -164.5 -52t-57.5 -129q0 -83 56.5 -132.5t165.5 -49.5z" />
    <glyph glyph-name="uni2079" unicode="&#x2079;" horiz-adv-x="765" 
d="M639 1063q0 -92 -59 -180l-234 -348q-3 -9 -14 -9h-29q-7 0 -9 5t1 10l174 262q-49 -19 -100 -19q-117 0 -194 78t-77 201q0 121 77.5 199.5t193.5 78.5t193 -78.5t77 -199.5zM145 1063q0 -103 63.5 -167.5t160.5 -64.5q95 0 159 64.5t64 167.5q0 101 -64 165t-159 64
q-97 0 -160.5 -64t-63.5 -165z" />
    <glyph glyph-name="Euro" unicode="&#x20ac;" horiz-adv-x="1226" 
d="M969 1270q-197 0 -333.5 -102t-189.5 -283h494q9 0 15 -6t6 -15v-18q0 -9 -6 -15t-15 -6h-508q-14 -69 -14 -159q0 -91 14 -160h508q9 0 15 -6t6 -15v-18q0 -9 -6 -15t-15 -6h-494q53 -181 189.5 -283t333.5 -102h80q20 3 20 -18v-37q0 -19 -20 -22h-88q-232 0 -387 124
t-209 338h-226q-20 0 -20 21v18q0 21 20 21h213q-14 71 -14 160q0 88 14 159h-213q-20 0 -20 21v18q0 21 20 21h226q54 214 209 338.5t387 124.5h88q20 -3 20 -23v-37q0 -21 -20 -18h-80z" />
    <glyph glyph-name="trademark" unicode="&#x2122;" horiz-adv-x="2693" 
d="M1053 1331q20 0 20 -20v-37q0 -21 -20 -21h-437v-1233q0 -20 -20 -20h-41q-20 0 -20 20v1233h-437q-20 0 -20 21v37q0 20 20 20h955zM2515 1331q20 0 20 -20v-1291q0 -20 -20 -20h-41q-20 0 -20 20v1166l-494 -1002q-6 -14 -25 -14h-24q-19 0 -25 14l-495 1002v-1166
q0 -20 -21 -20h-39q-20 0 -20 20v1291q0 20 20 20h58q18 0 24 -14l510 -1016l510 1016q6 14 25 14h57z" />
    <glyph glyph-name="oneeighth" unicode="&#x215b;" horiz-adv-x="1081" 
d="M227 1331q11 0 11 -10v-651q0 -11 -11 -11h-20q-10 0 -10 11v622h-148q-10 0 -10 11v18q0 10 10 10h178zM92 14q-10 -14 -24 -14q-12 0 -16.5 7t1.5 18l799 1292q10 14 25 14q12 0 16 -6.5t-2 -17.5zM920 340q60 -20 92 -64.5t32 -101.5q0 -82 -58 -133t-165 -51t-165 51
t-58 133q0 57 32 101.5t93 64.5q-58 19 -86.5 60.5t-28.5 95.5q0 71 55 121.5t158 50.5t158 -50.5t55 -121.5q0 -53 -29 -94.5t-85 -61.5zM647 496q0 -61 43 -99.5t131 -38.5t131 38.5t43 99.5q0 57 -44 97t-130 40t-130 -40t-44 -97zM821 27q90 0 136.5 40.5t46.5 108.5
q0 64 -47.5 106t-135.5 42t-136 -42t-48 -106q0 -68 47 -108.5t137 -40.5z" />
    <glyph glyph-name="threeeighths" unicode="&#x215c;" horiz-adv-x="1220" 
d="M250 1085q97 0 164 -56t67 -155q0 -98 -67 -156.5t-164 -58.5q-62 0 -117.5 24t-87.5 65q-8 8 2 14l14 12q7 6 15 -2q28 -34 74.5 -54t99.5 -20q80 0 135 48t55 128q0 83 -54 129t-136 46q-60 0 -107 -17q-10 -3 -10 8v17q0 6 6 12l269 223h-312q-10 0 -10 11v18
q0 10 10 10h361q10 0 10 -10v-21q0 -6 -6 -12l-244 -203h33zM229 14q-11 -14 -24 -14q-12 0 -16.5 7t1.5 18l799 1292q10 14 25 14q12 0 16 -6.5t-2 -17.5zM1059 340q60 -20 92.5 -64.5t32.5 -101.5q0 -82 -58 -133t-165 -51t-165.5 51t-58.5 133q0 57 32 101.5t93 64.5
q-58 19 -86 60.5t-28 95.5q0 71 55 121.5t158 50.5t158 -50.5t55 -121.5q0 -53 -29 -94.5t-86 -61.5zM786 496q0 -61 43.5 -99.5t131.5 -38.5t131 38.5t43 99.5q0 57 -44 97t-130 40t-130.5 -40.5t-44.5 -96.5zM961 27q89 0 135.5 40.5t46.5 108.5q0 64 -47 106t-135 42
t-136.5 -42.5t-48.5 -105.5q0 -68 47.5 -108.5t137.5 -40.5z" />
    <glyph glyph-name="fiveeighths" unicode="&#x215d;" horiz-adv-x="1249" 
d="M252 1096q111 0 173 -60.5t62 -154.5q0 -100 -63 -161t-170 -61q-62 0 -118.5 24.5t-90.5 64.5q-5 7 2 14l14 12q7 8 15 0q64 -76 176 -76q91 1 142.5 52t51.5 131q0 79 -53 129.5t-141 50.5q-79 0 -139 -31q-8 -3 -15 4l-8 17q-4 8 -2 14l39 268q3 8 10 8h312
q10 0 10 -10v-18q0 -10 -10 -10h-285l-33 -226q59 19 121 19zM250 14q-10 -14 -25 -14q-12 0 -16 7t2 18l799 1292q10 14 24 14q12 0 16.5 -6.5t-1.5 -17.5zM1087 340q60 -20 92.5 -64.5t32.5 -101.5q0 -82 -58 -133t-165 -51t-165 51t-58 133q0 57 32 101.5t93 64.5
q-58 19 -86.5 60.5t-28.5 95.5q0 71 55 121.5t158 50.5t158 -50.5t55 -121.5q0 -53 -29 -94.5t-86 -61.5zM815 496q0 -61 43 -99.5t131 -38.5t131 38.5t43 99.5q0 57 -44 97t-130 40t-130 -40t-44 -97zM989 27q89 0 135.5 40.5t46.5 108.5q0 64 -47 106t-135 42t-136 -42
t-48 -106q0 -68 47 -108.5t137 -40.5z" />
    <glyph glyph-name="seveneighths" unicode="&#x215e;" horiz-adv-x="1112" 
d="M92 14q-10 -14 -24 -14q-12 0 -16.5 7t1.5 18l799 1292q10 14 25 14q12 0 16 -6.5t-2 -17.5zM152 662q-5 0 -7.5 4t-1.5 8l287 618h-332q-10 0 -10 11v18q0 10 10 10h369q10 0 10 -10v-16q0 -9 -2 -13l-289 -622q-3 -8 -12 -8h-22zM948 340q60 -20 92.5 -64.5
t32.5 -101.5q0 -82 -58 -133t-165 -51t-165 51t-58 133q0 57 32 101.5t93 64.5q-58 19 -86.5 60.5t-28.5 95.5q0 71 54.5 121.5t158.5 50.5q103 0 158 -50.5t55 -121.5q0 -53 -29 -94.5t-86 -61.5zM676 496q0 -61 43 -99.5t131 -38.5t131 38.5t43 99.5q0 57 -44 97t-130 40
t-130 -40t-44 -97zM850 27q89 0 135.5 40.5t46.5 108.5q0 64 -47 106t-135 42t-136 -42t-48 -106q0 -68 47 -108.5t137 -40.5z" />
    <glyph glyph-name="arrowleft" unicode="&#x2190;" horiz-adv-x="1556" 
d="M1376 696q21 0 21 -20v-37q0 -9 -6 -15t-15 -6h-1112l385 -385q14 -14 0 -28l-24 -23q-15 -14 -29 0l-463 463q-6 6 -6 14.5t6 14.5l463 463q14 15 29 0l24 -23q6 -6 6 -14.5t-6 -14.5l-389 -389h1116z" />
    <glyph glyph-name="arrowup" unicode="&#x2191;" horiz-adv-x="1259" 
d="M1087 823q12 -12 0 -28l-22 -25q-15 -14 -29 0l-389 387v-1116q0 -21 -20 -21h-37q-9 0 -15 6t-6 15v1112l-385 -385q-14 -14 -28 0l-23 25q-12 16 0 28l463 463q14 14 29 0z" />
    <glyph glyph-name="arrowright" unicode="&#x2192;" horiz-adv-x="1556" 
d="M891 1137q15 15 29 0l462 -463q14 -14 0 -29l-462 -463q-14 -14 -29 0l-25 23q-14 14 0 28l385 385h-1112q-20 0 -20 21v37q0 20 20 20h1116l-389 389q-14 15 0 29z" />
    <glyph glyph-name="arrowdown" unicode="&#x2193;" horiz-adv-x="1259" 
d="M1036 549q6 6 14.5 6t14.5 -6l22 -25q12 -16 0 -28l-462 -461q-6 -6 -14.5 -6t-14.5 6l-463 463q-12 12 0 28l23 25q14 14 28 0l385 -385v1112q0 20 21 20h37q20 0 20 -20v-1116z" />
    <glyph glyph-name="arrowboth" unicode="&#x2194;" horiz-adv-x="1843" 
d="M1231 1137q6 6 14.5 6t14.5 -6l464 -463q14 -14 0 -29l-464 -463q-14 -14 -29 0l-23 23q-14 14 0 28l385 385h-1347l385 -385q14 -14 0 -28l-25 -23q-14 -14 -28 0l-463 463q-6 6 -6 14.5t6 14.5l463 463q14 14 28 0l25 -23q6 -6 6 -14.5t-6 -14.5l-389 -389h1355
l-389 389q-14 15 0 29z" />
    <glyph glyph-name="arrowupdn" unicode="&#x2195;" horiz-adv-x="1249" 
d="M1075 465q13 -16 0 -29l-457 -459q-14 -14 -28 0l-457 457q-13 13 0 29l23 24q14 14 28 0l379 -376v1110l-379 -379q-14 -14 -28 0l-23 24q-13 16 0 29l457 457q14 14 28 0l457 -457q13 -13 0 -29l-22 -24q-15 -14 -29 0l-383 383v-1119l383 383q6 6 14.5 6t14.5 -6z" />
    <glyph glyph-name="uni2196" unicode="&#x2196;" horiz-adv-x="1220" 
d="M1049 455q6 -6 6 -14.5t-6 -14.5l-27 -27q-6 -6 -14.5 -6t-14.5 6l-800 799v-543q0 -20 -21 -20h-33q-20 0 -20 20v656q0 20 20 20h656q20 0 20 -20v-33q0 -21 -20 -21h-549z" />
    <glyph glyph-name="uni2197" unicode="&#x2197;" horiz-adv-x="1220" 
d="M367 1311q0 20 20 20h655q21 0 21 -20v-656q0 -20 -21 -20h-32q-21 0 -21 20v545l-801 -801q-14 -14 -28 0l-27 27q-6 6 -6 14.5t6 14.5l801 802h-547q-20 0 -20 21v33z" />
    <glyph glyph-name="uni2198" unicode="&#x2198;" horiz-adv-x="1220" 
d="M989 676q0 20 21 20h32q21 0 21 -20v-656q0 -20 -21 -20h-655q-20 0 -20 20v33q0 21 20 21h549l-803 803q-14 14 0 28l27 27q14 14 28 0l801 -801v545z" />
    <glyph glyph-name="uni2199" unicode="&#x2199;" horiz-adv-x="1220" 
d="M1049 905q14 -14 0 -28l-805 -803h551q20 0 20 -21v-33q0 -20 -20 -20h-656q-20 0 -20 20v656q0 20 20 20h33q21 0 21 -20v-543l800 799q15 14 29 0z" />
    <glyph glyph-name="partialdiff" unicode="&#x2202;" horiz-adv-x="1167" 
d="M993 573q17 -70 17 -133q0 -202 -128 -330t-319 -128q-192 0 -318 128t-126 330t126 329.5t318 127.5q129 0 232 -59q-73 132 -172.5 256.5t-200.5 212.5q-10 9 -8 16.5t16 7.5h51q17 0 27 -10q156 -126 303.5 -355t181.5 -393zM563 59q159 0 264 106.5t105 274.5
q0 71 -23 142h-2l-6 20q-43 101 -133 159t-205 58q-159 0 -262.5 -105.5t-103.5 -273.5q0 -169 104 -275t262 -106z" />
    <glyph glyph-name="emptyset" unicode="&#x2205;" horiz-adv-x="1218" 
d="M870 1059q90 -65 140.5 -169.5t50.5 -232.5q0 -212 -130 -348.5t-339 -136.5q-130 0 -234 55l-51 -80q-11 -14 -24 -14h-21q-12 0 -16 7.5t2 17.5l61 100q-90 64 -140 167.5t-50 231.5q0 212 131 349t342 137q122 0 231 -56l49 80q11 15 25 15h21q12 0 16 -7t-2 -18z
M190 657q0 -105 42 -193.5t116 -144.5l436 707q-83 47 -192 47q-178 0 -290 -118.5t-112 -297.5zM592 242q176 0 285.5 117.5t109.5 297.5q0 105 -41 193.5t-115 144.5l-436 -706q86 -47 197 -47z" />
    <glyph glyph-name="product" unicode="&#x220f;" horiz-adv-x="1241" 
d="M1063 1329q20 0 20 -20v-37q0 -21 -20 -21h-221v-1231q0 -20 -21 -20h-37q-20 0 -20 20v1231h-326v-1231q0 -20 -20 -20h-37q-21 0 -21 20v1231h-221q-20 0 -20 21v37q0 20 20 20h221v2h66h12v-2h326v2h65h13v-2h221z" />
    <glyph glyph-name="summation" unicode="&#x2211;" horiz-adv-x="1103" 
d="M926 1348q20 0 20 -21v-37q0 -20 -20 -20h-701l504 -596q6 -6 6 -14.5t-6 -14.5l-502 -584h699q20 0 20 -20v-37q0 -20 -20 -20h-787q-20 0 -20 20v37q0 12 10 25l508 593l-508 605q-10 13 -10 24v39q0 21 20 21h787z" />
    <glyph glyph-name="minus" unicode="&#x2212;" horiz-adv-x="1028" 
d="M119 655q0 21 20 21h709q20 0 20 -21v-30q0 -21 -20 -21h-709q-20 0 -20 21v30z" />
    <glyph glyph-name="radical" unicode="&#x221a;" horiz-adv-x="1458" 
d="M1280 1417q20 0 20 -20v-29q0 -20 -20 -20h-297l-522 -1430q-5 -16 -25 -16h-47q-19 0 -24 16l-238 647q-7 23 16 23h35q19 0 25 -17l209 -567l510 1397q5 16 24 16h334z" />
    <glyph glyph-name="infinity" unicode="&#x221e;" horiz-adv-x="1746" 
d="M422 358q-126 0 -214.5 89.5t-88.5 214.5q0 124 88.5 212.5t214.5 88.5q49 0 88 -8.5t70.5 -21t78.5 -48.5t85 -69t116 -105q87 85 147 135.5t108.5 76t83.5 33t85 7.5q127 0 216 -88.5t89 -212.5q0 -125 -89 -214.5t-216 -89.5q-28 0 -52 2.5t-48.5 11t-42 14.5
t-42.5 23.5t-39.5 28t-44 37t-45 41t-53 50.5t-57.5 55q-69 -67 -102 -98t-81.5 -70.5t-82.5 -55.5t-78 -27.5t-94 -11.5zM422 426q65 0 129 30t119 76.5t139 131.5q-114 108 -180.5 157t-106 61.5t-100.5 12.5q-101 0 -170.5 -66.5t-69.5 -166.5q0 -103 69.5 -169.5
t170.5 -66.5zM1284 426q101 0 170.5 66.5t69.5 169.5q0 100 -69.5 166.5t-170.5 66.5q-64 0 -102.5 -13.5t-96 -58.5t-174.5 -157l26 -26q126 -122 176 -158q80 -56 171 -56z" />
    <glyph glyph-name="integral" unicode="&#x222b;" horiz-adv-x="1048" 
d="M762 1417h108q21 0 21 -20v-25q0 -20 -21 -20h-96q-78 0 -121.5 -45t-52.5 -127l-117 -1047q-12 -111 -73.5 -171t-163.5 -60h-107q-20 0 -20 20v25q0 20 20 20h94q77 0 121.5 46t53.5 128l116 1043q12 112 74 172.5t164 60.5z" />
    <glyph glyph-name="approxequal" unicode="&#x2248;" horiz-adv-x="1234" 
d="M1006 934q0 20 20 20h29q20 0 20 -20q-6 -114 -77 -183t-185 -69q-17 0 -34 2.5t-30.5 5.5t-29 9.5t-26 11t-25 14.5t-21.5 15t-20.5 16.5t-18 15.5t-18 16.5t-15.5 14.5q-66 61 -95 79q-50 29 -101 29q-82 0 -133.5 -49.5t-57.5 -130.5q0 -20 -20 -20h-29q-20 0 -20 20
q6 114 75.5 183t182.5 69q21 0 42 -4t37 -8.5t35 -15t30 -17t28 -20.5t23.5 -19.5t22.5 -20.5t19 -18q38 -36 59 -53t61 -36t79 -19q81 0 134 48.5t59 133.5zM1006 588q0 20 20 20h29q20 0 20 -20q-8 -112 -78 -182t-184 -70q-21 0 -42 4t-36.5 8t-35 15t-29.5 16.5
t-28.5 20.5t-23.5 19t-23.5 21.5t-19.5 18.5q-31 29 -43 39t-40.5 30.5t-55 28.5t-57.5 8q-82 0 -133.5 -49.5t-57.5 -130.5q0 -20 -20 -20h-29q-20 0 -20 20q6 114 75.5 183t182.5 69q21 0 42 -4t37 -8.5t35 -15t30 -17t28 -20.5t23.5 -19.5t22.5 -20.5t19 -18
q38 -36 59 -53t61 -36t79 -19q81 0 134 48.5t59 133.5z" />
    <glyph glyph-name="notequal" unicode="&#x2260;" horiz-adv-x="1028" 
d="M868 840q0 -21 -20 -21h-254l-129 -321h383q20 0 20 -21v-31q0 -20 -20 -20h-412l-82 -201q-5 -16 -22 -16h-31q-11 0 -14.5 6.5t0.5 17.5l75 193h-223q-20 0 -20 20v31q0 21 20 21h254l127 321h-381q-20 0 -20 21v28q0 21 20 21h410l82 203q5 16 22 16h33q10 0 14.5 -7
t-0.5 -18l-77 -194h225q20 0 20 -21v-28z" />
    <glyph glyph-name="lessequal" unicode="&#x2264;" horiz-adv-x="958" 
d="M778 969q10 3 16.5 -2.5t6.5 -16.5v-26q0 -16 -17 -23l-559 -166l559 -166q17 -7 17 -24v-25q0 -11 -6.5 -16t-16.5 -2l-637 190q-16 6 -16 23v41q0 16 16 22zM139 342q-20 0 -20 20v23q0 21 20 21h641q9 0 15 -6t6 -15v-23q0 -20 -21 -20h-641z" />
    <glyph glyph-name="greaterequal" unicode="&#x2265;" horiz-adv-x="958" 
d="M795 715q0 -16 -17 -23l-637 -190q-22 -6 -22 18v25q0 18 16 24l559 166l-559 166q-16 6 -16 23v26q0 25 22 19l637 -191q17 -7 17 -22v-41zM119 385q0 21 20 21h641q9 0 15 -6t6 -15v-23q0 -20 -21 -20h-641q-20 0 -20 20v23z" />
    <glyph glyph-name="lozenge" unicode="&#x25ca;" horiz-adv-x="1212" 
d="M614 1331q14 0 25 -14l408 -643q11 -14 0 -29l-400 -631q-11 -14 -24 -14h-72q-15 0 -25 14l-399 631q-11 15 0 29l408 643q11 14 24 14h55zM588 51l383 608l-383 609l-385 -609z" />
    <glyph glyph-name="A.ss01" horiz-adv-x="1302" 
d="M1214 25q4 -10 -0.5 -17.5t-15.5 -7.5h-43q-17 0 -22 16l-492 1188l-491 -1188q-5 -16 -23 -16h-43q-11 0 -15.5 7.5t-0.5 17.5l534 1290q5 16 23 16h32q18 0 23 -16z" />
    <glyph glyph-name="I.ss01" horiz-adv-x="765" 
d="M647 1274q0 -21 -20 -21h-224v-1175h224q20 0 20 -21v-37q0 -20 -20 -20h-529q-20 0 -20 20v37q0 21 20 21h224v1175h-224q-20 0 -20 21v37q0 20 20 20h529q20 0 20 -20v-37z" />
    <glyph glyph-name="J.ss01" horiz-adv-x="1187" 
d="M1010 1331q20 0 20 -20v-852q0 -214 -133.5 -344.5t-359.5 -130.5q-167 0 -283.5 73.5t-169.5 200.5q-7 20 12 27l37 16q18 9 27 -12q45 -107 142.5 -166.5t234.5 -59.5q191 0 301 109t110 295v786h-610q-9 0 -15 6t-6 15v37q0 20 21 20h672z" />
    <glyph glyph-name="R.ss01" horiz-adv-x="1220" 
d="M739 381q76 -133 107 -173q82 -106 195 -126q19 -3 40 -4q21 0 21 -21v-37q0 -20 -21 -20q-82 3 -140 23t-113 79.5t-83.5 102t-95.5 156.5q-3 4 -4 6l-115 196h-331v-543q0 -20 -21 -20h-39q-20 0 -20 20v1291q0 20 20 20h580q154 0 258 -110.5t104 -274.5t-104 -273.5
t-258 -109.5h-88zM199 1251v-608h512q127 0 207.5 89t80.5 214t-80.5 215t-207.5 90h-512z" />
    <glyph glyph-name="i.loclTRK" horiz-adv-x="389" 
d="M174 1073q-21 0 -37 15.5t-16 39.5q0 22 16 37t37 15q22 0 38.5 -14.5t16.5 -37.5q0 -24 -16.5 -39.5t-38.5 -15.5zM213 20q0 -20 -20 -20h-37q-21 0 -21 20v902q0 20 21 20h37q20 0 20 -20v-902z" />
    <glyph glyph-name="a.ss01" horiz-adv-x="1077" 
d="M518 956q187 0 294.5 -88t107.5 -245v-603q0 -20 -21 -20h-37q-20 0 -20 20v144q-99 -180 -367 -180q-185 0 -283 73t-98 209q0 180 196 240q125 39 404 38q28 0 86 -1h62v78q0 124 -86.5 196t-237.5 72q-242 0 -319 -158q-9 -18 -27 -12l-29 10q-19 6 -16 19
q41 96 137.5 152t253.5 56zM481 49q83 0 147.5 19.5t104 51.5t65 77t35 90.5t9.5 97.5v100q-277 2 -360 -5q-216 -17 -280 -103q-32 -43 -32 -107q0 -221 311 -221z" />
    <glyph glyph-name="n.ss01" horiz-adv-x="1062" 
d="M522 942q165 0 274 -92t109 -266v-564q0 -20 -20 -20h-37q-21 0 -21 20v553q0 141 -85.5 221t-235.5 80h-311v-854q0 -20 -21 -20h-35q-20 0 -20 20v902q0 20 20 20h383z" />
    <glyph glyph-name="r.ss01" horiz-adv-x="610" 
d="M119 569q0 177 103.5 277.5t271.5 109.5q20 0 20 -20v-33q0 -20 -20 -20q-136 -9 -217.5 -96.5t-81.5 -225.5v-541q0 -20 -21 -20h-35q-20 0 -20 20v549z" />
    <glyph glyph-name="u.ss01" horiz-adv-x="1062" 
d="M827 922q0 20 21 20h37q20 0 20 -20v-902q0 -20 -20 -20h-383q-165 0 -274 92t-109 266v564q0 20 20 20h35q21 0 21 -20v-553q0 -141 85.5 -221t235.5 -80h311v854z" />
    </font>
</defs>
</svg>
