<?xml version="1.0" standalone="no"?>
<!DOCTYPE svg PUBLIC "-//W3C//DTD SVG 1.1//EN" "http://www.w3.org/Graphics/SVG/1.1/DTD/svg11.dtd" >
<svg xmlns="http://www.w3.org/2000/svg" xmlns:xlink="http://www.w3.org/1999/xlink" version="1.1">
<metadata>
Created by FontForge 20170731 at Fri Sep  9 20:30:20 2022
 By Aleksey,,,
Copyright (c) 2020 by Bagas Ardiatma. All rights reserved.
</metadata>
<defs>
<font id="CaustenRound-Light" horiz-adv-x="1193" >
  <font-face 
    font-family="Causten Round Light"
    font-weight="300"
    font-stretch="normal"
    units-per-em="2048"
    panose-1="0 0 4 0 0 0 0 0 0 0"
    ascent="1638"
    descent="-410"
    x-height="942"
    cap-height="1331"
    bbox="-582.783 -410 2554 1733"
    underline-thickness="102"
    underline-position="-307"
    unicode-range="U+0020-25CA"
  />
<missing-glyph horiz-adv-x="972" 
d="M799 1536v-1946h-619v1946h619zM647 1405h-319v-64h125v-71h-127v-64h321v64h-127v71h127v64zM520 1155h-194v-203h321v66h-127v137zM453 1090v-72h-64v72h64zM647 899h-321v-63h127v-72h-127v-64h194v136h127v63zM647 782h-63v-127h-258v-67h321v194zM647 545h-194v-109
h67v45h64v-92h-195v156h-63v-219h321v219zM647 209h-321v-219h321v219zM584 145v-92h-195v92h195zM647 -55h-321v-64h135l-135 -92v-63h321v63h-198l137 92h61v64z" />
    <glyph glyph-name="f_f.liga" unicode="ff" horiz-adv-x="1286" 
d="M1069 1237q-69 0 -113.5 -39t-44.5 -115v-141h234q13 0 22 -9t9 -22v-28q0 -13 -9 -22t-22 -9h-234v-821q0 -14 -8.5 -22.5t-21.5 -8.5h-52q-13 0 -21.5 8.5t-8.5 22.5v821h-500v-821q0 -13 -8.5 -22t-22.5 -9h-51q-13 0 -22 9t-9 22v821h-104q-14 0 -22.5 9t-8.5 22v28
q0 13 8.5 22t22.5 9h104v145q0 115 64 179.5t180 64.5h117q13 0 22 -8.5t9 -22.5v-32q0 -14 -9 -22.5t-22 -8.5h-90q-69 0 -113.5 -39t-44.5 -115v-141h500v145q0 115 63 179.5t174 64.5h131q13 0 22 -8.5t9 -22.5v-32q0 -14 -9 -22.5t-22 -8.5h-98z" />
    <glyph glyph-name="t_t.liga" unicode="tt" horiz-adv-x="1222" 
d="M1130 883q0 -14 -8.5 -22.5t-21.5 -8.5h-203v-629q0 -129 133 -129h60q13 0 21.5 -8.5t8.5 -22.5v-32q0 -14 -8.5 -22.5t-21.5 -8.5h-97q-97 0 -153 55t-56 154v643h-485v-629q0 -68 37 -98.5t96 -30.5h62q13 0 21.5 -8.5t8.5 -22.5v-32q0 -14 -8.5 -22.5t-21.5 -8.5h-97
q-98 0 -154.5 55t-56.5 154v643h-104q-14 0 -22.5 9t-8.5 22v28q0 13 8.5 22t22.5 9h104v256q0 14 9 22.5t22 8.5h51q14 0 22.5 -8.5t8.5 -22.5v-256h485v256q0 14 9 22.5t22 8.5h51q14 0 22.5 -8.5t8.5 -22.5v-256h203q13 0 21.5 -8.5t8.5 -22.5v-28z" />
    <glyph glyph-name=".notdef" horiz-adv-x="972" 
d="M799 1536v-1946h-619v1946h619zM647 1405h-319v-64h125v-71h-127v-64h321v64h-127v71h127v64zM520 1155h-194v-203h321v66h-127v137zM453 1090v-72h-64v72h64zM647 899h-321v-63h127v-72h-127v-64h194v136h127v63zM647 782h-63v-127h-258v-67h321v194zM647 545h-194v-109
h67v45h64v-92h-195v156h-63v-219h321v219zM647 209h-321v-219h321v219zM584 145v-92h-195v92h195zM647 -55h-321v-64h135l-135 -92v-63h321v63h-198l137 92h61v64z" />
    <glyph glyph-name=".null" horiz-adv-x="0" 
 />
    <glyph glyph-name="nonmarkingreturn" horiz-adv-x="682" 
 />
    <glyph glyph-name="space" unicode=" " horiz-adv-x="409" 
 />
    <glyph glyph-name="exclam" unicode="!" horiz-adv-x="370" 
d="M174 1331q14 0 22.5 -8.5t8.5 -22.5l-8 -970q0 -14 -8.5 -22.5t-22.5 -8.5h-43q-13 0 -22 8.5t-9 22.5l-8 970q0 14 9 22.5t22 8.5h59zM145 141q31 0 51.5 -20t20.5 -51t-20.5 -52.5t-51.5 -21.5t-52 21.5t-21 52.5t21 51t52 20z" />
    <glyph glyph-name="quotedbl" unicode="&#x22;" horiz-adv-x="575" 
d="M74 1298q-1 15 7 24t23 9h68q15 0 23.5 -9t7.5 -24l-17 -174q-3 -28 -30 -28h-35q-28 0 -31 28zM373 1298q-1 15 7 24t23 9h68q32 0 29 -33l-17 -174q-3 -28 -30 -28h-35q-28 0 -31 28z" />
    <glyph glyph-name="numbersign" unicode="#" horiz-adv-x="1439" 
d="M1327 913q0 -13 -8.5 -21.5t-22.5 -8.5h-188l-94 -428h205q13 0 21.5 -8.5t8.5 -22.5v-43q0 -14 -8.5 -22.5t-21.5 -8.5h-228l-71 -330q-6 -26 -35 -26h-51q-33 0 -27 33l70 323h-486l-72 -330q-7 -26 -34 -26h-52q-32 0 -26 33l69 323h-174q-13 0 -21.5 8.5t-8.5 22.5
v43q0 14 8.5 22.5t21.5 8.5h197l94 428h-213q-14 0 -22 8.5t-8 21.5v43q0 14 8.5 22.5t21.5 8.5h236l67 311q7 27 35 27h51q33 0 27 -33l-66 -305h486l67 311q7 27 35 27h51q33 0 27 -33l-66 -305h166q14 0 22.5 -8.5t8.5 -22.5v-43zM899 455l94 428h-485l-94 -428h485z" />
    <glyph glyph-name="dollar" unicode="$" horiz-adv-x="1273" 
d="M670 735q8 -2 27 -7q33 -8 51.5 -13.5t56 -17t62.5 -22t60.5 -28.5t59 -36.5t49.5 -44.5t41.5 -54.5t26 -65t10.5 -77.5q0 -154 -111.5 -244.5t-310.5 -101.5v-93q0 -14 -8 -22t-22 -8h-52q-14 0 -22 8t-8 22v93q-167 11 -286.5 79.5t-170.5 184.5q-12 28 14 41l47 26
q28 17 41 -12q47 -94 157.5 -151.5t256.5 -57.5q168 0 257 60.5t89 171.5q0 29 -7.5 54.5t-18.5 45.5t-31.5 38.5t-37.5 31t-45 26t-46.5 21t-50.5 17t-47.5 13.5t-46.5 11.5t-40 9.5t-29 7q-33 8 -52 12.5t-57 15.5t-62 21t-58.5 26.5t-57 33.5t-48 41.5t-40 51.5
t-24.5 62.5t-10 74.5q0 135 110.5 219t293.5 96v92q0 14 8.5 22.5t21.5 8.5h52q13 0 21.5 -8.5t8.5 -22.5v-92q146 -10 258 -70t156 -151q13 -25 -16 -41l-43 -24q-12 -7 -23.5 -3.5t-17.5 17.5q-42 72 -143 119t-226 47q-153 0 -241.5 -57t-88.5 -146q0 -32 10.5 -60
t26 -48.5t42.5 -38.5t50.5 -30t59 -24t59 -18.5t61 -16t54.5 -14.5z" />
    <glyph glyph-name="percent" unicode="%" horiz-adv-x="1658" 
d="M403 743q-125 0 -207.5 83.5t-82.5 211.5q0 131 82 214t208 83q124 0 206.5 -83t82.5 -214q0 -128 -82.5 -211.5t-206.5 -83.5zM512 23q-12 -23 -37 -23h-35q-17 0 -22.5 11t2.5 26l686 1272q11 22 37 22h35q17 0 22.5 -11t-2.5 -26zM403 829q88 0 145.5 58.5t57.5 150.5
q0 93 -57.5 152t-145.5 59t-146 -59t-58 -152q0 -92 58 -150.5t146 -58.5zM1217 -4q-125 0 -208 83.5t-83 211.5q0 132 82.5 214.5t208.5 82.5q125 0 206.5 -82.5t81.5 -214.5q0 -128 -82 -211.5t-206 -83.5zM1217 82q88 0 145 58.5t57 150.5q0 93 -57 152t-145 59
q-89 0 -147 -59t-58 -152q0 -92 58.5 -150.5t146.5 -58.5z" />
    <glyph glyph-name="ampersand" unicode="&#x26;" horiz-adv-x="1275" 
d="M1094 33q11 -15 5.5 -26t-24.5 -11h-49q-24 0 -37 18l-88 111q-69 -69 -160 -107t-190 -38q-204 0 -321 101.5t-117 266.5q0 117 68 211t231 201l-50 61q-120 153 -120 269q0 109 82 185.5t211 76.5q128 0 210 -77t82 -185q0 -45 -12 -85.5t-37.5 -75.5t-48.5 -61
t-63 -54.5t-60.5 -42.5t-60.5 -38q265 -341 354 -454q64 115 64 262q0 13 8.5 21.5t21.5 8.5h33q14 0 22.5 -8.5t8.5 -21.5v-2q0 -194 -96 -340q61 -79 133 -166zM338 1085q0 -51 22.5 -95.5t75.5 -115.5q29 -37 51 -67q37 22 55 34t53 36t53.5 43.5t40 46.5t31 56.5
t9.5 61.5q0 77 -55.5 129t-138.5 52t-140 -52.5t-57 -128.5zM553 74q174 0 289 127q-69 89 -202.5 262t-170.5 221q-144 -96 -195 -172.5t-51 -163.5q0 -122 87.5 -198t242.5 -76z" />
    <glyph glyph-name="quotesingle" unicode="'" horiz-adv-x="276" 
d="M74 1300q0 31 28 31h70q32 0 29 -33l-25 -174q-3 -28 -33 -28h-32q-14 0 -22.5 8.5t-8.5 21.5z" />
    <glyph glyph-name="parenleft" unicode="(" horiz-adv-x="489" 
d="M276 -98q-25 0 -36 20q-110 180 -150 458t0 556.5t150 460.5q11 20 36 20h54q39 0 20 -37q-109 -173 -148 -447.5t1 -548.5t149 -445q9 -15 3.5 -26t-23.5 -11h-56z" />
    <glyph glyph-name="parenright" unicode=")" horiz-adv-x="509" 
d="M229 -78q-11 -20 -36 -20h-56q-39 0 -20 37q109 172 149 446t1 548.5t-148 446.5q-19 37 20 37h54q25 0 36 -20q110 -182 150 -460.5t0 -556.5t-150 -458z" />
    <glyph glyph-name="asterisk" unicode="*" horiz-adv-x="796" 
d="M678 1184q15 -26 -8 -43l-205 -135l205 -140q23 -17 8 -41l-8 -12q-14 -26 -43 -8l-189 129v-225q0 -14 -8.5 -22.5t-21.5 -8.5h-17q-13 0 -22 9t-9 22v227l-192 -129q-25 -18 -41 8l-8 12q-14 23 10 41l205 138l-205 139q-23 17 -8 41l8 10q17 28 41 10l190 -129v223
q0 14 9 22.5t22 8.5h17q13 0 21.5 -8.5t8.5 -22.5v-225l191 127q25 19 43 -10z" />
    <glyph glyph-name="plus" unicode="+" horiz-adv-x="1032" 
d="M848 709q14 0 22.5 -8.5t8.5 -22.5v-39q0 -13 -8.5 -22t-22.5 -9h-301v-303q0 -13 -8.5 -22t-22.5 -9h-39q-13 0 -22 9t-9 22v303h-303q-13 0 -21.5 8.5t-8.5 22.5v39q0 14 8.5 22.5t21.5 8.5h303v303q0 13 8.5 21.5t22.5 8.5h39q14 0 22.5 -8.5t8.5 -21.5v-303h301z" />
    <glyph glyph-name="comma" unicode="," horiz-adv-x="333" 
d="M123 82q7 27 35 27h67q37 0 25 -35l-78 -209q-8 -25 -35 -25h-31q-34 0 -28 33z" />
    <glyph glyph-name="hyphen" unicode="-" horiz-adv-x="835" 
d="M113 639q0 14 8.5 22.5t21.5 8.5h508q13 0 22 -9t9 -22v-49q0 -14 -9 -22.5t-22 -8.5h-508q-13 0 -21.5 8.5t-8.5 22.5v49z" />
    <glyph glyph-name="period" unicode="." horiz-adv-x="288" 
d="M145 -4q-32 0 -52.5 21t-20.5 53q0 31 20.5 51t52.5 20q31 0 51.5 -20t20.5 -51q0 -32 -20.5 -53t-51.5 -21z" />
    <glyph glyph-name="slash" unicode="/" horiz-adv-x="632" 
d="M109 -96q-16 0 -23.5 9t-3.5 26l416 1452q6 26 34 26h54q16 0 23 -9t3 -26l-415 -1452q-6 -26 -35 -26h-53z" />
    <glyph glyph-name="zero" unicode="0" horiz-adv-x="1275" 
d="M629 -16q-165 0 -288 88.5t-186 242t-63 351.5t63 351.5t186 242t288 88.5t287.5 -88.5t184.5 -242t62 -351.5t-62 -351.5t-184.5 -242t-287.5 -88.5zM629 100q192 0 302.5 155t110.5 411t-110 409.5t-303 153.5q-195 0 -306.5 -153.5t-111.5 -409.5q0 -255 112 -410.5
t306 -155.5z" />
    <glyph glyph-name="one" unicode="1" horiz-adv-x="616" 
d="M432 1331q14 0 22.5 -8.5t8.5 -22.5v-1269q0 -13 -8.5 -22t-22.5 -9h-55q-13 0 -22 9t-9 22v1190h-278q-14 0 -22.5 8.5t-8.5 21.5v49q0 14 8.5 22.5t22.5 8.5h364z" />
    <glyph glyph-name="two" unicode="2" horiz-adv-x="1067" 
d="M76 80q0 24 16 37l340 299q162 141 221 201q199 204 199 356q0 124 -89 193t-245 69q-111 0 -201 -47t-127 -121q-12 -27 -38 -16l-52 20q-14 5 -19 16t1 25q43 101 162 169.5t274 68.5q207 0 331 -100t124 -273q0 -68 -29.5 -142t-63.5 -127t-101 -123.5t-98.5 -99.5
t-98.5 -88l-27 -24l-295 -262h680q14 0 22.5 -8.5t8.5 -22.5v-49q0 -13 -8.5 -22t-22.5 -9h-834q-13 0 -21.5 8.5t-8.5 22.5v49z" />
    <glyph glyph-name="three" unicode="3" horiz-adv-x="1101" 
d="M510 846q72 0 139.5 -16t127.5 -50t105 -83t71 -119.5t26 -155.5q0 -103 -38.5 -187.5t-104.5 -138.5t-151.5 -83t-180.5 -29q-124 0 -237 46.5t-177 125.5q-19 22 2 43l39 34q21 21 43 -4q55 -58 143 -93.5t187 -35.5q155 0 256.5 87.5t101.5 234.5q0 152 -101 237.5
t-257 85.5q-111 0 -199 -28q-16 -5 -25.5 1t-9.5 23v37q0 21 19 37l491 406h-581q-14 0 -22.5 8.5t-8.5 21.5v49q0 14 9 22.5t22 8.5h723q13 0 21.5 -8.5t8.5 -22.5v-51q0 -22 -18 -37l-438 -366h14z" />
    <glyph glyph-name="four" unicode="4" horiz-adv-x="1150" 
d="M1028 389q14 0 22.5 -8.5t8.5 -22.5v-32q0 -14 -8.5 -22.5t-22.5 -8.5h-127v-264q0 -13 -8.5 -22t-22.5 -9h-55q-13 0 -22 9t-9 22v264h-682q-13 0 -21.5 8.5t-8.5 22.5v36q0 19 12 37l686 914q13 18 37 18h63q14 0 22.5 -8.5t8.5 -22.5v-911h127zM197 389h587v780z" />
    <glyph glyph-name="five" unicode="5" horiz-adv-x="1099" 
d="M498 850q227 0 353 -121t126 -307q0 -200 -129 -319t-344 -119q-127 0 -236 46t-178 124q-19 23 4 43l41 34q22 19 43 -2q60 -64 144.5 -98.5t175.5 -32.5q167 1 263.5 91t96.5 237q0 142 -100.5 232t-261.5 90q-148 0 -254 -50q-29 -13 -41 15l-21 41q-7 14 -4 39
l78 510q3 28 33 28h604q13 0 22 -8.5t9 -22.5v-49q0 -13 -8.5 -21.5t-22.5 -8.5h-539l-59 -400q110 29 205 29z" />
    <glyph glyph-name="six" unicode="6" horiz-adv-x="1124" 
d="M547 915q196 0 325 -131t129 -333t-129.5 -334.5t-324.5 -132.5q-194 0 -324.5 132.5t-130.5 334.5q0 171 96 294l383 566q13 20 39 20h62q19 0 24.5 -10t-4.5 -27l-268 -395q62 16 123 16zM547 96q148 0 244 99t96 256q0 156 -96.5 254t-243.5 98q-148 0 -245 -98.5
t-97 -253.5q0 -157 97 -256t245 -99z" />
    <glyph glyph-name="seven" unicode="7" horiz-adv-x="940" 
d="M188 0q-17 0 -23 10t1 27l547 1184h-625q-14 0 -22.5 8.5t-8.5 21.5v49q0 14 8.5 22.5t22.5 8.5h729q13 0 22 -8.5t9 -22.5v-36q0 -20 -8 -39l-555 -1202q-10 -23 -35 -23h-62z" />
    <glyph glyph-name="eight" unicode="8" horiz-adv-x="1128" 
d="M772 690q113 -44 173.5 -132.5t60.5 -195.5q0 -172 -117.5 -276t-337.5 -104q-221 0 -340 104.5t-119 275.5q0 106 61.5 195t176.5 133q-107 43 -161 125t-54 186q0 66 26 126.5t77.5 110.5t137.5 80t195 30t194.5 -30t136 -80t76 -110.5t25.5 -126.5q0 -104 -53 -186
t-158 -125zM225 995q0 -115 81.5 -186.5t244.5 -71.5t242 71.5t79 186.5q0 106 -80.5 182t-240.5 76t-243 -76t-83 -182zM551 84q166 0 253 77.5t87 205.5q0 120 -88 199t-252 79t-254 -79.5t-90 -198.5q0 -126 89 -204.5t255 -78.5z" />
    <glyph glyph-name="nine" unicode="9" horiz-adv-x="1124" 
d="M1001 881q0 -149 -94 -291l-379 -570q-11 -20 -36 -20h-64q-19 0 -24.5 10t4.5 27l262 395q-66 -16 -125 -16q-194 0 -323.5 131.5t-129.5 333.5t129.5 334.5t323.5 132.5q196 0 326 -132.5t130 -334.5zM205 881q0 -156 96.5 -254.5t243.5 -98.5q149 0 245.5 98.5
t96.5 254.5q0 157 -96.5 255.5t-245.5 98.5q-148 0 -244 -98.5t-96 -255.5z" />
    <glyph glyph-name="colon" unicode=":" horiz-adv-x="299" 
d="M145 592q-32 0 -52.5 20.5t-20.5 51.5q0 32 20.5 52.5t52.5 20.5q31 0 51.5 -20.5t20.5 -52.5q0 -31 -20.5 -51.5t-51.5 -20.5zM145 -4q-32 0 -52.5 21t-20.5 53q0 31 20.5 51t52.5 20q31 0 51.5 -20t20.5 -51q0 -32 -20.5 -53t-51.5 -21z" />
    <glyph glyph-name="semicolon" unicode=";" horiz-adv-x="352" 
d="M186 592q-29 0 -50 21.5t-21 50.5q0 31 21 52t50 21q31 0 52.5 -21t21.5 -52q0 -29 -21.5 -50.5t-52.5 -21.5zM131 82q7 27 33 27h67q37 0 25 -35l-82 -209q-9 -25 -37 -25h-31q-15 0 -22 10t-4 25z" />
    <glyph glyph-name="less" unicode="&#x3c;" horiz-adv-x="942" 
d="M754 946q15 6 24.5 -0.5t9.5 -23.5v-33q0 -26 -24 -35l-526 -195l526 -196q24 -9 24 -35v-33q0 -17 -9.5 -23.5t-24.5 -0.5l-617 229q-24 9 -24 35v47q0 26 24 35z" />
    <glyph glyph-name="equal" unicode="=" horiz-adv-x="1034" 
d="M113 877q0 13 8.5 21.5t21.5 8.5h707q14 0 22.5 -8.5t8.5 -21.5v-35q0 -14 -8.5 -22.5t-22.5 -8.5h-707q-13 0 -21.5 8.5t-8.5 22.5v35zM113 475q0 14 8.5 22.5t21.5 8.5h707q14 0 22.5 -9t8.5 -22v-33q0 -13 -8.5 -21.5t-22.5 -8.5h-707q-13 0 -21.5 8t-8.5 22v33z" />
    <glyph glyph-name="greater" unicode="&#x3e;" horiz-adv-x="942" 
d="M113 922q0 17 9.5 23.5t24.5 0.5l617 -229q24 -9 24 -35v-47q0 -26 -24 -35l-617 -229q-15 -6 -24.5 0.5t-9.5 23.5v33q0 26 24 35l527 196l-527 195q-24 9 -24 35v33z" />
    <glyph glyph-name="question" unicode="?" horiz-adv-x="999" 
d="M418 299q-14 0 -22.5 8.5t-8.5 22.5v16q0 46 12 90t24.5 71.5t40 62t37 44.5t36.5 37q9 9 26 25q42 41 62 61t48 53.5t40.5 59.5t22 61.5t9.5 75.5q0 118 -81.5 187t-214.5 69q-90 0 -174.5 -46.5t-120.5 -119.5q-15 -27 -41 -16l-50 20q-28 14 -16 41q46 102 158.5 167
t243.5 65q181 0 299 -95.5t118 -263.5q0 -62 -14.5 -113.5t-44.5 -96t-59.5 -76.5t-77.5 -79q-14 -13 -21 -20q-34 -34 -50 -51.5t-42.5 -54t-38.5 -75.5t-12 -83v-16q0 -14 -9 -22.5t-22 -8.5h-57zM449 129q32 0 52.5 -20.5t20.5 -51.5t-20.5 -52t-52.5 -21q-31 0 -51.5 21
t-20.5 52t20.5 51.5t51.5 20.5z" />
    <glyph glyph-name="at" unicode="@" horiz-adv-x="1630" 
d="M797 1366q146 0 272.5 -49.5t216 -137t140.5 -212.5t51 -271q0 -81 -12.5 -148.5t-40 -123.5t-77 -87.5t-116.5 -31.5q-72 0 -128.5 41.5t-76.5 118.5q-79 -139 -250 -139q-132 0 -221.5 91.5t-89.5 239.5q0 149 89.5 239.5t221.5 90.5q164 0 244 -127v86q0 14 9 22.5
t22 8.5h24q13 0 22 -8.5t9 -22.5v-411q0 -73 34.5 -113.5t90.5 -40.5q162 0 162 315q0 179 -79 313.5t-213.5 203.5t-303.5 69q-125 0 -235 -45.5t-190 -126t-126.5 -196.5t-46.5 -250q0 -133 46.5 -248.5t126.5 -196t190 -126.5t235 -46q146 0 254 51q28 12 41 -14l12 -23
q8 -12 4.5 -24.5t-16.5 -18.5q-132 -57 -295 -57q-196 0 -353 92.5t-244 253t-87 357.5q0 199 88 359.5t244.5 251.5t351.5 91zM786 412q105 0 169.5 72t64.5 173q0 102 -64.5 174t-169.5 72q-106 0 -171.5 -72t-65.5 -174q0 -101 66 -173t171 -72z" />
    <glyph glyph-name="A" unicode="A" horiz-adv-x="1314" 
d="M1143 0q-28 0 -37 25l-139 340h-639l-140 -340q-9 -25 -36 -25h-62q-36 0 -24 35l526 1272q9 24 37 24h37q27 0 36 -24l527 -1272q12 -35 -25 -35h-61zM373 475h549l-275 672z" />
    <glyph glyph-name="B" unicode="B" horiz-adv-x="1234" 
d="M920 690q100 -38 159.5 -123t59.5 -202q0 -160 -107 -262.5t-264 -102.5h-625q-13 0 -21.5 8.5t-8.5 22.5v1269q0 14 8.5 22.5t21.5 8.5h580q158 0 262.5 -94.5t104.5 -253.5q0 -103 -45.5 -177.5t-124.5 -115.5zM231 1221v-486h478q118 0 189 66.5t71 175.5t-71 176.5
t-189 67.5h-478zM754 111q118 0 191 75.5t73 186.5t-73 185.5t-191 74.5h-523v-522h523z" />
    <glyph glyph-name="C" unicode="C" horiz-adv-x="1406" 
d="M1225 1028q-25 -16 -43 8q-73 90 -182 141.5t-242 51.5q-244 0 -395.5 -158t-151.5 -405t151.5 -405.5t395.5 -158.5q132 0 241.5 52.5t182.5 142.5q17 22 43 6l47 -33q26 -16 6 -43q-88 -116 -221.5 -179.5t-298.5 -63.5q-194 0 -346.5 88t-236 243t-83.5 351t83.5 351
t236 243t346.5 88q165 0 298.5 -64t221.5 -180q20 -27 -6 -43z" />
    <glyph glyph-name="D" unicode="D" horiz-adv-x="1331" 
d="M551 1331q294 0 475.5 -184t181.5 -481t-181.5 -481.5t-475.5 -184.5h-408q-13 0 -21.5 8.5t-8.5 22.5v1269q0 14 8.5 22.5t21.5 8.5h408zM551 117q110 0 207 36.5t171.5 104.5t117.5 173.5t43 234.5t-43 235t-117.5 174t-171.5 105t-207 37h-320v-1100h320z" />
    <glyph glyph-name="E" unicode="E" horiz-adv-x="1105" 
d="M963 1251q0 -13 -8.5 -21.5t-22.5 -8.5h-701v-502h658q13 0 22 -8.5t9 -22.5v-49q0 -13 -9 -22t-22 -9h-658v-497h701q14 0 22.5 -8.5t8.5 -22.5v-49q0 -13 -8.5 -22t-22.5 -9h-789q-13 0 -21.5 8.5t-8.5 22.5v1269q0 14 8.5 22.5t21.5 8.5h789q14 0 22.5 -8.5t8.5 -22.5
v-49z" />
    <glyph glyph-name="F" unicode="F" horiz-adv-x="1099" 
d="M965 1249q0 -13 -8.5 -21.5t-22.5 -8.5h-703v-510h664q13 0 22 -8.5t9 -22.5v-51q0 -13 -9 -22t-22 -9h-664v-565q0 -14 -8.5 -22.5t-21.5 -8.5h-58q-13 0 -21.5 8.5t-8.5 22.5v1269q0 14 8.5 22.5t21.5 8.5h791q14 0 22.5 -8.5t8.5 -22.5v-51z" />
    <glyph glyph-name="G" unicode="G" horiz-adv-x="1529" 
d="M1397 635q-9 -289 -182 -470t-457 -181q-194 0 -346.5 88t-236 243t-83.5 351t83.5 351t236 243t346.5 88q164 0 297 -63.5t223 -178.5q19 -26 -8 -43l-47 -33q-24 -18 -43 8q-74 92 -182.5 141.5t-239.5 49.5q-244 0 -395.5 -158t-151.5 -405t151.5 -405.5t395.5 -158.5
q213 0 350.5 128t159.5 341h-484q-13 0 -21.5 8.5t-8.5 22.5v49q0 14 8.5 22.5t21.5 8.5h582q14 0 22.5 -9t8.5 -22v-16z" />
    <glyph glyph-name="H" unicode="H" horiz-adv-x="1275" 
d="M1004 1300q0 14 8.5 22.5t21.5 8.5h58q13 0 21.5 -8.5t8.5 -22.5v-1269q0 -14 -8.5 -22.5t-21.5 -8.5h-58q-13 0 -21.5 8.5t-8.5 22.5v575h-773v-575q0 -14 -8.5 -22.5t-21.5 -8.5h-58q-13 0 -21.5 8.5t-8.5 22.5v1269q0 14 8.5 22.5t21.5 8.5h58q13 0 21.5 -8.5
t8.5 -22.5v-577h773v577z" />
    <glyph glyph-name="I" unicode="I" horiz-adv-x="385" 
d="M231 31q0 -14 -8.5 -22.5t-21.5 -8.5h-58q-13 0 -21.5 8.5t-8.5 22.5v1269q0 14 8.5 22.5t21.5 8.5h58q13 0 21.5 -8.5t8.5 -22.5v-1269z" />
    <glyph glyph-name="J" unicode="J" horiz-adv-x="1011" 
d="M739 1300q0 14 8.5 22.5t22.5 8.5h57q13 0 22 -8.5t9 -22.5v-944q0 -168 -106.5 -270t-288.5 -102q-157 0 -256 72t-129 194q-6 28 20 37l60 20q31 10 37 -22q25 -85 91.5 -135t176.5 -50q133 0 204.5 75.5t71.5 193.5v931z" />
    <glyph glyph-name="K" unicode="K" horiz-adv-x="1071" 
d="M963 37q13 -15 8 -26t-25 -11h-69q-23 0 -39 16l-607 607v-592q0 -14 -8.5 -22.5t-21.5 -8.5h-58q-13 0 -21.5 8.5t-8.5 22.5v1269q0 14 8.5 22.5t21.5 8.5h58q13 0 21.5 -8.5t8.5 -22.5v-589l582 604q13 16 39 16h68q20 0 25 -11.5t-9 -25.5l-600 -628z" />
    <glyph glyph-name="L" unicode="L" horiz-adv-x="1071" 
d="M231 111h697q13 0 21.5 -8.5t8.5 -22.5v-49q0 -14 -8.5 -22.5t-21.5 -8.5h-785q-13 0 -21.5 8.5t-8.5 22.5v1269q0 14 8.5 22.5t21.5 8.5h58q13 0 21.5 -8.5t8.5 -22.5v-1189z" />
    <glyph glyph-name="M" unicode="M" horiz-adv-x="1513" 
d="M1329 1331q13 0 22 -8.5t9 -22.5v-1269q0 -13 -9 -22t-22 -9h-57q-14 0 -22.5 9t-8.5 22v1079l-453 -920q-13 -22 -34 -22h-35q-22 0 -35 22l-453 920v-1079q0 -14 -8.5 -22.5t-21.5 -8.5h-58q-13 0 -21.5 8.5t-8.5 22.5v1269q0 14 8.5 22.5t21.5 8.5h74q22 0 35 -22
l483 -961l486 961q13 22 34 22h74z" />
    <glyph glyph-name="N" unicode="N" horiz-adv-x="1271" 
d="M999 1300q0 14 8.5 22.5t22.5 8.5h57q13 0 22 -8.5t9 -22.5v-1269q0 -13 -9 -22t-22 -9h-61q-26 0 -39 20l-754 1108v-1097q0 -14 -8.5 -22.5t-21.5 -8.5h-58q-13 0 -21.5 8.5t-8.5 22.5v1269q0 14 8.5 22.5t21.5 8.5h60q26 0 39 -20l755 -1110v1099z" />
    <glyph glyph-name="O" unicode="O" horiz-adv-x="1544" 
d="M758 -16q-194 0 -346.5 88t-236 243t-83.5 351t83.5 351t236 243t346.5 88t346 -88t234.5 -243t82.5 -351t-82.5 -351t-234.5 -243t-346 -88zM758 102q245 0 395 158.5t150 405.5t-150 405t-395 158q-244 0 -395.5 -158t-151.5 -405t151.5 -405.5t395.5 -158.5z" />
    <glyph glyph-name="P" unicode="P" horiz-adv-x="1191" 
d="M707 1331q155 0 263.5 -112t108.5 -283t-108.5 -283t-263.5 -112h-476v-510q0 -14 -8.5 -22.5t-21.5 -8.5h-58q-13 0 -21.5 8.5t-8.5 22.5v1269q0 14 8.5 22.5t21.5 8.5h564zM692 657q117 0 194 81.5t77 197.5t-76.5 198.5t-194.5 82.5h-461v-560h461z" />
    <glyph glyph-name="Q" unicode="Q" horiz-adv-x="1544" 
d="M1421 666q0 -199 -87 -357t-240 -243l145 -197q11 -15 6 -26t-24 -11h-74q-24 0 -37 18l-125 168q-103 -34 -227 -34q-194 0 -346.5 88t-236 243t-83.5 351q0 195 84.5 351t236.5 243.5t345 87.5q195 0 347 -88t234 -243t82 -351zM758 102q77 0 151 19l-96 131
q-11 15 -6 26t24 11h74q23 0 37 -19l80 -106q132 68 206.5 200t74.5 302q0 247 -150 405t-395 158q-244 0 -395.5 -158t-151.5 -405t151.5 -405.5t395.5 -158.5z" />
    <glyph glyph-name="R" unicode="R" horiz-adv-x="1228" 
d="M1090 37q11 -15 5.5 -26t-24.5 -11h-72q-26 0 -38 18l-369 523h-361v-510q0 -14 -8.5 -22.5t-21.5 -8.5h-58q-13 0 -21.5 8.5t-8.5 22.5v1269q0 14 8.5 22.5t21.5 8.5h578q155 0 264 -112.5t109 -282.5q0 -167 -105 -278.5t-256 -116.5zM231 1217v-560h476
q116 0 192 81.5t76 197.5t-76 198.5t-192 82.5h-476z" />
    <glyph glyph-name="S" unicode="S" horiz-adv-x="1224" 
d="M82 252q-10 24 14 41l45 29q28 17 43 -13q49 -96 163.5 -154.5t270.5 -58.5q365 0 365 271q0 35 -13 66t-31.5 54t-50 43.5t-58.5 33.5t-67.5 26.5t-65.5 20t-64 16.5t-53 14q-12 3 -51.5 12t-63 15.5t-65.5 19.5t-70 26.5t-64.5 33t-60 43.5t-45.5 53.5t-32.5 67.5
t-10.5 81q0 175 133.5 268t357.5 93q167 0 296 -65t177 -167q13 -25 -16 -41l-45 -24q-26 -13 -41 14q-41 71 -145.5 118.5t-235.5 47.5q-168 0 -259 -63t-91 -177q0 -29 8.5 -54.5t25.5 -46t36 -37t48 -30.5t52.5 -23.5t58.5 -19.5t57 -15.5t57 -13.5t50 -12
q10 -3 48 -12.5t62 -17t66 -21.5t71.5 -29t67 -36t62.5 -46.5t48 -56.5t34.5 -70.5t11.5 -84.5q0 -192 -131.5 -293t-372.5 -101q-195 0 -333 74.5t-193 200.5z" />
    <glyph glyph-name="T" unicode="T" 
d="M1051 1331q13 0 21.5 -8.5t8.5 -22.5v-49q0 -13 -8.5 -21.5t-21.5 -8.5h-414v-1190q0 -13 -8.5 -22t-22.5 -9h-57q-13 0 -22 9t-9 22v1190h-416q-14 0 -22 8.5t-8 21.5v49q0 14 8.5 22.5t21.5 8.5h949z" />
    <glyph glyph-name="U" unicode="U" horiz-adv-x="1257" 
d="M985 1300q0 14 8.5 22.5t22.5 8.5h57q13 0 22 -8.5t9 -22.5v-839q0 -210 -133 -343.5t-363 -133.5t-362.5 133t-132.5 344v839q0 14 8.5 22.5t21.5 8.5h58q13 0 21.5 -8.5t8.5 -22.5v-831q0 -171 101.5 -270t275.5 -99t275.5 99t101.5 270v831z" />
    <glyph glyph-name="V" unicode="V" horiz-adv-x="1306" 
d="M1100 1307q9 24 37 24h59q37 0 25 -35l-521 -1271q-9 -25 -36 -25h-41q-28 0 -37 25l-520 1271q-12 35 24 35h62q27 0 36 -24l455 -1121z" />
    <glyph glyph-name="W" unicode="W" horiz-adv-x="1933" 
d="M1726 1307q8 24 35 24h64q17 0 23 -9.5t1 -25.5l-424 -1271q-8 -25 -34 -25h-45q-27 0 -35 25l-355 1060l-354 -1060q-8 -25 -35 -25h-45q-27 0 -35 25l-424 1271q-5 15 1.5 25t23.5 10h64q26 0 34 -24l361 -1084l360 1084q8 24 35 24h35q27 0 35 -24l358 -1074z" />
    <glyph glyph-name="X" unicode="X" horiz-adv-x="1216" 
d="M1079 1331q19 0 24 -10t-5 -27l-439 -628l439 -629q10 -17 5 -27t-24 -10h-71q-27 0 -39 18l-381 547l-381 -547q-12 -18 -39 -18h-72q-19 0 -23.5 10t5.5 27l440 629l-440 628q-10 17 -5.5 27t23.5 10h72q27 0 39 -18l381 -547l381 547q12 18 39 18h71z" />
    <glyph glyph-name="Y" unicode="Y" horiz-adv-x="1179" 
d="M1063 1331q18 0 23.5 -11t-3.5 -26l-452 -700v-563q0 -13 -8.5 -22t-22.5 -9h-57q-13 0 -22 9t-9 22v559l-455 704q-9 15 -3 26t24 11h69q26 0 37 -20l385 -598l387 598q11 20 37 20h70z" />
    <glyph glyph-name="Z" unicode="Z" horiz-adv-x="1101" 
d="M989 1247q0 -19 -12 -37l-741 -1097l708 -2q14 0 22.5 -8.5t8.5 -22.5v-49q0 -13 -8.5 -22t-22.5 -9h-821q-13 0 -22 9t-9 22v53q0 19 12 37l744 1100h-711q-14 0 -22.5 8.5t-8.5 21.5v49q0 14 9 22.5t22 8.5h821q14 0 22.5 -8.5t8.5 -22.5v-53z" />
    <glyph glyph-name="bracketleft" unicode="[" horiz-adv-x="546" 
d="M393 1356q0 -14 -8.5 -22.5t-22.5 -8.5h-139v-1331h139q14 0 22.5 -9t8.5 -22v-31q0 -13 -8.5 -21.5t-22.5 -8.5h-219q-13 0 -21.5 8t-8.5 22v1454q0 14 8.5 22.5t21.5 8.5h219q14 0 22.5 -8.5t8.5 -22.5v-30z" />
    <glyph glyph-name="backslash" unicode="\" horiz-adv-x="602" 
d="M551 -63q4 -17 -3.5 -26t-23.5 -9h-53q-29 0 -35 26l-416 1452q-4 17 3.5 26t23.5 9h53q29 0 35 -26z" />
    <glyph glyph-name="bracketright" unicode="]" horiz-adv-x="546" 
d="M143 1325q-13 0 -21.5 8.5t-8.5 22.5v30q0 14 8.5 22.5t21.5 8.5h219q14 0 22.5 -8.5t8.5 -22.5v-1454q0 -13 -8.5 -21.5t-22.5 -8.5h-219q-13 0 -21.5 8t-8.5 22v31q0 14 8.5 22.5t21.5 8.5h140v1331h-140z" />
    <glyph glyph-name="asciicircum" unicode="^" horiz-adv-x="747" 
d="M582 854q12 -35 -25 -35h-33q-27 0 -35 25l-137 370l-135 -370q-8 -25 -35 -25h-32q-37 0 -25 35l166 453q8 24 35 24h53q27 0 35 -24z" />
    <glyph glyph-name="underscore" unicode="_" horiz-adv-x="956" 
d="M113 80q0 14 8.5 22.5t21.5 8.5h629q14 0 22.5 -8.5t8.5 -22.5v-49q0 -13 -8.5 -22t-22.5 -9h-629q-13 0 -21.5 8.5t-8.5 22.5v49z" />
    <glyph glyph-name="grave" unicode="`" horiz-adv-x="278" 
d="M125 1331q26 0 35 -22l61 -131q7 -17 1 -27t-23 -10h-37q-22 0 -35 22l-68 131q-8 15 -1 26t24 11h43z" />
    <glyph glyph-name="a" unicode="a" 
d="M928 911q0 14 8.5 22.5t21.5 8.5h52q13 0 21.5 -8.5t8.5 -22.5v-880q0 -14 -8.5 -22.5t-21.5 -8.5h-52q-13 0 -21.5 8.5t-8.5 22.5v166q-57 -100 -154 -156.5t-223 -56.5q-203 0 -333 137.5t-130 349.5q0 213 129.5 349t333.5 136q126 0 223 -56t154 -155v166zM563 92
q164 0 264.5 106t100.5 273t-100.5 273t-264.5 106q-163 0 -264.5 -106t-101.5 -273t101.5 -273t264.5 -106z" />
    <glyph glyph-name="b" unicode="b" 
d="M602 956q204 0 334.5 -136.5t130.5 -348.5q0 -211 -131 -349t-334 -138q-128 0 -225 57t-152 158v-168q0 -14 -8.5 -22.5t-21.5 -8.5h-52q-13 0 -21.5 8.5t-8.5 22.5v1269q0 14 8.5 22.5t21.5 8.5h52q13 0 21.5 -8.5t8.5 -22.5v-557q56 100 153 156.5t224 56.5zM590 92
q164 0 265 106t101 273t-101 273t-265 106t-264.5 -106t-100.5 -273t100.5 -273t264.5 -106z" />
    <glyph glyph-name="c" unicode="c" horiz-adv-x="1054" 
d="M889 725q-23 -20 -43 4q-106 121 -281 121q-164 0 -265 -106t-101 -273t101 -273t265 -106q177 0 281 119q18 22 43 4l33 -22q26 -16 6 -43q-64 -79 -157.5 -122.5t-207.5 -43.5q-211 0 -343 136.5t-132 350.5q0 213 132 349t343 136q114 0 207.5 -42.5t157.5 -120.5
q17 -23 -6 -43z" />
    <glyph glyph-name="d" unicode="d" 
d="M928 1300q0 14 8.5 22.5t21.5 8.5h52q13 0 21.5 -8.5t8.5 -22.5v-1269q0 -14 -8.5 -22.5t-21.5 -8.5h-52q-13 0 -21.5 8.5t-8.5 22.5v166q-57 -100 -154 -156.5t-223 -56.5q-203 0 -333 137.5t-130 349.5q0 213 129.5 349t333.5 136q126 0 223 -56t154 -155v555zM563 92
q164 0 264.5 106t100.5 273t-100.5 273t-264.5 106q-163 0 -264.5 -106t-101.5 -273t101.5 -273t264.5 -106z" />
    <glyph glyph-name="e" unicode="e" horiz-adv-x="1128" 
d="M551 958q198 0 324 -137.5t126 -349.5v-8q0 -14 -8.5 -22.5t-21.5 -8.5h-774q12 -158 112 -254t254 -96q189 0 295 131q19 26 43 8l31 -20q26 -16 6 -43q-64 -83 -160.5 -129.5t-214.5 -46.5q-212 0 -343.5 138t-131.5 351q0 214 127 350.5t336 136.5zM551 862
q-153 0 -247.5 -95t-106.5 -253h698q-12 155 -105 251.5t-239 96.5z" />
    <glyph glyph-name="f" unicode="f" horiz-adv-x="677" 
d="M457 1237q-74 0 -116 -41t-42 -113v-141h233q14 0 22.5 -9t8.5 -22v-28q0 -13 -8.5 -22t-22.5 -9h-233v-821q0 -13 -8.5 -22t-22.5 -9h-51q-13 0 -22 9t-9 22v821h-104q-14 0 -22.5 9t-8.5 22v28q0 13 8.5 22t22.5 9h104v145q0 115 64 179.5t180 64.5h125q13 0 22 -8.5
t9 -22.5v-32q0 -14 -9 -22.5t-22 -8.5h-98z" />
    <glyph glyph-name="g" unicode="g" 
d="M928 911q0 14 8.5 22.5t21.5 8.5h52q13 0 21.5 -8.5t8.5 -22.5v-839q0 -204 -134.5 -330.5t-356.5 -126.5q-226 0 -367 141q-21 21 4 43l31 27q21 18 43 -4q115 -109 289 -109q104 0 188.5 39.5t137.5 122.5t53 197v125q-57 -100 -154 -156.5t-223 -56.5
q-203 0 -333 137.5t-130 349.5q0 211 130 348t333 137q126 0 223 -56t154 -155v166zM563 92q164 0 264.5 106t100.5 273t-100.5 273t-264.5 106t-265 -106t-101 -273t101 -273t265 -106z" />
    <glyph glyph-name="h" unicode="h" horiz-adv-x="1073" 
d="M541 956q75 0 142 -22.5t120.5 -67t85 -118t31.5 -166.5v-551q0 -13 -9 -22t-22 -9h-51q-14 0 -22.5 9t-8.5 22v536q0 135 -82.5 213t-208.5 78q-127 0 -209 -77.5t-82 -213.5v-536q0 -14 -8.5 -22.5t-21.5 -8.5h-52q-13 0 -21.5 8.5t-8.5 22.5v1269q0 14 8.5 22.5
t21.5 8.5h52q13 0 21.5 -8.5t8.5 -22.5v-499q51 77 134.5 116t181.5 39z" />
    <glyph glyph-name="i" unicode="i" horiz-adv-x="415" 
d="M186 1163q-29 0 -51 21.5t-22 54.5q0 31 22 51.5t51 20.5q30 0 53 -20.5t23 -51.5q0 -33 -23 -54.5t-53 -21.5zM244 31q0 -13 -9 -22t-22 -9h-51q-14 0 -22.5 9t-8.5 22v880q0 13 8.5 22t22.5 9h51q13 0 22 -9t9 -22v-880z" />
    <glyph glyph-name="j" unicode="j" horiz-adv-x="440" 
d="M213 1163q-30 0 -53 21.5t-23 54.5q0 31 22.5 51.5t51.5 20.5q30 0 53 -20.5t23 -51.5q0 -33 -22.5 -54.5t-51.5 -21.5zM27 -377h-54q-13 0 -21.5 8.5t-8.5 22.5v33q0 13 8.5 21.5t21.5 8.5h23q74 0 117 38t43 118v1038q0 14 8.5 22.5t21.5 8.5h52q13 0 21.5 -8.5
t8.5 -22.5v-1056q0 -106 -62.5 -169t-178.5 -63z" />
    <glyph glyph-name="k" unicode="k" horiz-adv-x="927" 
d="M815 37q15 -15 10.5 -26t-24.5 -11h-62q-25 0 -39 14l-475 451v-434q0 -14 -8.5 -22.5t-21.5 -8.5h-52q-13 0 -21.5 8.5t-8.5 22.5v1269q0 14 8.5 22.5t21.5 8.5h52q13 0 21.5 -8.5t8.5 -22.5v-774l432 402q14 14 39 14h62q20 0 24.5 -11t-10.5 -26l-440 -409z" />
    <glyph glyph-name="l" unicode="l" horiz-adv-x="378" 
d="M225 31q0 -14 -8.5 -22.5t-21.5 -8.5h-52q-13 0 -21.5 8.5t-8.5 22.5v1269q0 14 8.5 22.5t21.5 8.5h52q13 0 21.5 -8.5t8.5 -22.5v-1269z" />
    <glyph glyph-name="m" unicode="m" horiz-adv-x="1665" 
d="M1159 956q70 0 130.5 -20.5t111.5 -63t80.5 -117t29.5 -173.5v-551q0 -14 -8.5 -22.5t-21.5 -8.5h-51q-14 0 -22.5 9t-8.5 22v538q0 141 -75.5 213t-190.5 72t-190 -71.5t-75 -213.5v-538q0 -14 -8.5 -22.5t-21.5 -8.5h-52q-13 0 -21.5 8.5t-8.5 22.5v538
q0 141 -75.5 213t-191.5 72q-115 0 -189.5 -71.5t-74.5 -213.5v-538q0 -14 -8.5 -22.5t-21.5 -8.5h-52q-13 0 -21.5 8.5t-8.5 22.5v880q0 14 8.5 22.5t21.5 8.5h52q13 0 21.5 -8.5t8.5 -22.5v-102q48 73 125 110t166 37q106 0 192 -46.5t126 -143.5q45 97 132 143.5
t193 46.5z" />
    <glyph glyph-name="n" unicode="n" horiz-adv-x="1073" 
d="M541 956q75 0 142 -22.5t120.5 -67t85 -118t31.5 -166.5v-551q0 -13 -9 -22t-22 -9h-51q-14 0 -22.5 9t-8.5 22v536q0 135 -82.5 213t-208.5 78q-127 0 -209 -77.5t-82 -213.5v-536q0 -14 -8.5 -22.5t-21.5 -8.5h-52q-13 0 -21.5 8.5t-8.5 22.5v880q0 14 8.5 22.5
t21.5 8.5h52q13 0 21.5 -8.5t8.5 -22.5v-110q51 77 134.5 116t181.5 39z" />
    <glyph glyph-name="o" unicode="o" horiz-adv-x="1169" 
d="M565 -18q-211 0 -344 138.5t-133 350.5q0 213 133 350t344 137t343 -136.5t132 -350.5q0 -213 -132.5 -351t-342.5 -138zM565 92q161 0 261 107t100 272t-100 272t-261 107t-262.5 -107.5t-101.5 -271.5t101.5 -271.5t262.5 -107.5z" />
    <glyph glyph-name="p" unicode="p" 
d="M602 956q203 0 334 -138t131 -349q0 -212 -130.5 -348.5t-334.5 -136.5q-127 0 -224 56.5t-153 156.5v-543q0 -14 -8.5 -22.5t-21.5 -8.5h-52q-13 0 -21.5 8.5t-8.5 22.5v1257q0 14 8.5 22.5t21.5 8.5h52q13 0 21.5 -8.5t8.5 -22.5v-170q55 101 152 158t225 57zM590 92
q165 0 265.5 105t100.5 272t-101 274t-265 107t-264.5 -107t-100.5 -274t100 -272t265 -105z" />
    <glyph glyph-name="q" unicode="q" 
d="M928 911q0 14 8.5 22.5t21.5 8.5h52q13 0 21.5 -8.5t8.5 -22.5v-1257q0 -14 -8.5 -22.5t-21.5 -8.5h-52q-13 0 -21.5 8.5t-8.5 22.5v541q-57 -99 -154 -155t-223 -56q-204 0 -333.5 136t-129.5 349q0 212 130 349.5t333 137.5q126 0 223 -56.5t154 -156.5v168zM563 92
q165 0 265 105t100 272t-100.5 274t-264.5 107q-163 0 -264.5 -107t-101.5 -274t101.5 -272t264.5 -105z" />
    <glyph glyph-name="r" unicode="r" horiz-adv-x="649" 
d="M225 768q46 84 125 131t176 55q31 3 31 -28v-45q0 -30 -29 -33q-128 -12 -215.5 -92t-87.5 -224v-501q0 -14 -8.5 -22.5t-21.5 -8.5h-52q-13 0 -21.5 8.5t-8.5 22.5v880q0 14 8.5 22.5t21.5 8.5h52q13 0 21.5 -8.5t8.5 -22.5v-143z" />
    <glyph glyph-name="s" unicode="s" horiz-adv-x="923" 
d="M78 166q-12 28 14 41l31 16q25 16 41 -12q36 -63 113.5 -101t179.5 -38q250 0 250 184q0 28 -9.5 51.5t-30.5 41t-40 30t-51.5 23.5t-51 17t-52.5 14t-44 11q-7 2 -40 10t-51 13.5t-52.5 17.5t-55.5 24t-48.5 31.5t-43 41.5t-26.5 52.5t-11 65.5q0 125 95.5 193t253.5 68
q123 0 213.5 -43.5t128.5 -114.5q15 -24 -15 -41l-31 -14q-22 -12 -40 12q-30 47 -100.5 77.5t-158.5 30.5q-113 0 -174 -43t-61 -120q0 -25 8.5 -46.5t27.5 -37.5t36.5 -27.5t47.5 -22t47.5 -15.5t50 -13t42.5 -11l36 -9t46.5 -12.5t48.5 -15.5t53 -21t48 -26t46 -34
t34.5 -41t25.5 -52t8 -61q0 -138 -93.5 -210.5t-266.5 -72.5q-142 0 -239.5 50.5t-139.5 138.5z" />
    <glyph glyph-name="t" unicode="t" horiz-adv-x="630" 
d="M535 883q0 -13 -8.5 -22t-22.5 -9h-205v-629q0 -68 37 -98.5t96 -30.5h62q13 0 21.5 -8.5t8.5 -22.5v-32q0 -14 -8.5 -22.5t-21.5 -8.5h-97q-98 0 -154.5 55t-56.5 154v643h-104q-14 0 -22.5 9t-8.5 22v28q0 13 8.5 22t22.5 9h104v256q0 14 9 22.5t22 8.5h51
q14 0 22.5 -8.5t8.5 -22.5v-256h205q14 0 22.5 -9t8.5 -22v-28z" />
    <glyph glyph-name="u" unicode="u" horiz-adv-x="1073" 
d="M807 911q0 13 8.5 22t22.5 9h51q13 0 22 -9t9 -22v-880q0 -13 -9 -22t-22 -9h-51q-14 0 -22.5 9t-8.5 22v108q-51 -77 -134 -116t-181 -39q-75 0 -142 22.5t-120.5 67t-85 118t-31.5 166.5v553q0 14 8.5 22.5t21.5 8.5h52q13 0 21.5 -8.5t8.5 -22.5v-538
q0 -135 82.5 -213t208.5 -78q127 0 209 77.5t82 213.5v538z" />
    <glyph glyph-name="v" unicode="v" horiz-adv-x="960" 
d="M428 0q-28 0 -37 25l-346 882q-12 35 25 35h53q28 0 37 -24l299 -764l303 764q9 24 37 24h51q36 0 24 -35l-350 -882q-9 -25 -37 -25h-59z" />
    <glyph glyph-name="w" unicode="w" horiz-adv-x="1486" 
d="M1290 918q8 24 35 24h53q17 0 23.5 -10t1.5 -25l-299 -882q-8 -25 -35 -25h-59q-27 0 -35 25l-248 723l-250 -723q-8 -25 -35 -25h-59q-27 0 -35 25l-295 882q-10 35 25 35h55q27 0 35 -24l252 -758l260 758q8 24 35 24h26q27 0 35 -24l260 -758z" />
    <glyph glyph-name="x" unicode="x" horiz-adv-x="993" 
d="M854 942q19 0 24 -11t-6 -26l-327 -434l327 -434q11 -15 6 -26t-24 -11h-66q-23 0 -36 18l-275 365l-276 -365q-13 -18 -37 -18h-66q-19 0 -24 11t6 26l330 434l-330 434q-11 15 -6 26t24 11h66q24 0 37 -18l276 -365l275 365q13 18 36 18h66z" />
    <glyph glyph-name="y" unicode="y" horiz-adv-x="960" 
d="M762 918q9 24 37 24h51q36 0 24 -35l-499 -1259q-9 -25 -37 -25h-47q-37 0 -25 35l135 342l-356 907q-12 35 25 35h53q28 0 37 -24l299 -762z" />
    <glyph glyph-name="z" unicode="z" horiz-adv-x="882" 
d="M739 942q13 0 22 -9t9 -22v-39q0 -18 -12 -36l-545 -738h516q14 0 22.5 -8.5t8.5 -21.5v-37q0 -13 -9 -22t-22 -9h-627q-13 0 -21.5 8.5t-8.5 22.5v39q0 18 12 36l547 740h-518q-13 0 -22 9t-9 22v34q0 13 9 22t22 9h626z" />
    <glyph glyph-name="braceleft" unicode="{" horiz-adv-x="651" 
d="M330 801q0 -99 -78 -142q78 -43 78 -141v-436q0 -88 67 -88h70q13 0 22 -9t9 -22v-31q0 -13 -8.5 -21.5t-22.5 -8.5h-109q-60 0 -100.5 39.5t-40.5 126.5v450q0 47 -21.5 72.5t-52.5 25.5q-13 0 -21.5 8.5t-8.5 22.5v25q0 14 8.5 22t21.5 8q31 0 52.5 26t21.5 73v450
q0 88 40.5 127t100.5 39h109q13 0 22 -8.5t9 -22.5v-30q0 -14 -9 -22.5t-22 -8.5h-70q-67 0 -67 -88v-436z" />
    <glyph glyph-name="bar" unicode="|" horiz-adv-x="376" 
d="M223 -68q0 -14 -8.5 -22t-21.5 -8h-50q-13 0 -21.5 8t-8.5 22v1454q0 14 8.5 22.5t21.5 8.5h50q13 0 21.5 -8.5t8.5 -22.5v-1454z" />
    <glyph glyph-name="braceright" unicode="}" horiz-adv-x="651" 
d="M467 702q14 0 22.5 -8.5t8.5 -21.5v-25q0 -13 -9 -22t-22 -9q-31 0 -52.5 -25.5t-21.5 -72.5v-450q0 -87 -40 -126.5t-101 -39.5h-109q-13 0 -21.5 8t-8.5 22v31q0 14 8.5 22.5t21.5 8.5h70q68 0 68 88v436q0 98 77 141q-77 43 -77 142v436q0 88 -68 88h-70
q-13 0 -21.5 8.5t-8.5 22.5v30q0 14 8.5 22.5t21.5 8.5h109q61 0 101 -39t40 -127v-450q0 -47 21.5 -73t52.5 -26z" />
    <glyph glyph-name="asciitilde" unicode="~" horiz-adv-x="1226" 
d="M977 758q3 30 33 30h32q32 0 29 -30q-8 -115 -79.5 -186.5t-190.5 -71.5q-51 0 -98.5 20t-69 37.5t-58.5 51.5q-7 6 -10 9q-4 3 -19.5 18t-20.5 19.5t-19.5 16.5t-22 16.5t-21.5 12.5t-25 11t-25 6t-29 3q-73 0 -118.5 -44.5t-53.5 -115.5q-3 -31 -33 -31h-35
q-31 0 -28 31q8 116 78.5 186t187.5 70q21 0 42 -3.5t36.5 -8t34 -14.5t29 -16t27.5 -20t23 -19t22.5 -20.5t18.5 -17.5q36 -33 57.5 -50.5t58 -34.5t71.5 -17q71 0 120 42.5t56 119.5z" />
    <glyph glyph-name="exclamdown" unicode="&#xa1;" horiz-adv-x="247" 
d="M115 1190q-31 0 -52.5 21.5t-21.5 52.5q0 29 21.5 50t52.5 21q29 0 50 -21t21 -50q0 -31 -21 -52.5t-50 -21.5zM174 31q0 -13 -9 -22t-22 -9h-59q-14 0 -22.5 9t-8.5 22l8 975q0 13 8.5 21.5t22.5 8.5h43q14 0 22.5 -8.5t8.5 -21.5z" />
    <glyph glyph-name="cent" unicode="&#xa2;" horiz-adv-x="1368" 
d="M717 170q128 0 218.5 46.5t162.5 139.5q19 26 43 11l47 -29q27 -17 8 -43q-86 -115 -196.5 -176.5t-262.5 -65.5v-121q0 -14 -8.5 -22t-21.5 -8h-50q-13 0 -21.5 8t-8.5 22v127q-123 14 -221.5 69t-162 138.5t-97 188t-33.5 221.5q0 116 33.5 220t97 187t162 138
t221.5 69v107q0 13 8.5 21.5t21.5 8.5h50q13 0 21.5 -8.5t8.5 -21.5v-101q152 -4 262.5 -65.5t196.5 -175.5q18 -27 -8 -43l-47 -29q-25 -16 -43 8q-73 94 -164.5 142.5t-216.5 48.5q-225 0 -356.5 -142.5t-131.5 -363.5q0 -222 131.5 -364t356.5 -142z" />
    <glyph glyph-name="sterling" unicode="&#xa3;" horiz-adv-x="1064" 
d="M416 96h465q13 0 21.5 -8t8.5 -22v-35q0 -14 -8.5 -22.5t-21.5 -8.5h-738q-13 0 -21.5 8.5t-8.5 22.5v35q0 30 30 30q118 5 187.5 46t90.5 114.5t8.5 166.5t-56.5 216h-211q-14 0 -22.5 8.5t-8.5 22.5v12q0 14 8.5 22.5t22.5 8.5h182q-4 6 -8 18q-70 167 -58.5 295
t84.5 210.5t208 113t311 2.5q28 -3 28 -33v-31q0 -34 -35 -28q-123 19 -216.5 7.5t-154 -55t-88 -111t-18.5 -159t54 -199.5l12 -30h338q13 0 21.5 -8.5t8.5 -22.5v-12q0 -14 -8.5 -22.5t-21.5 -8.5h-312q67 -184 50.5 -327.5t-123.5 -215.5z" />
    <glyph glyph-name="currency" unicode="&#xa4;" horiz-adv-x="1161" 
d="M938 662q0 -141 -74 -240l121 -121q23 -23 0 -45l-20 -20q-23 -22 -45 0l-119 118q-104 -80 -238 -80q-135 0 -241 82l-121 -120q-20 -20 -43 0l-23 22q-21 22 0 43l123 123q-72 101 -72 238q0 134 72 235l-121 121q-23 22 0 45l21 20q22 23 45 0l119 -118q102 82 241 82
t238 -80l119 118q20 20 43 0l22 -22q21 -21 0 -43l-121 -121q74 -99 74 -237zM563 371q120 0 200.5 81.5t80.5 209.5q0 129 -80.5 209.5t-200.5 80.5q-119 0 -199.5 -81t-80.5 -209q0 -127 80.5 -209t199.5 -82z" />
    <glyph glyph-name="yen" unicode="&#xa5;" horiz-adv-x="1179" 
d="M1063 1331q18 0 23.5 -11t-3.5 -26l-436 -676h305q14 0 22.5 -8.5t8.5 -21.5v-13q0 -13 -8.5 -21.5t-22.5 -8.5h-321v-197h321q14 0 22.5 -9t8.5 -22v-14q0 -13 -8.5 -22t-22.5 -9h-321v-241q0 -13 -8.5 -22t-22.5 -9h-57q-13 0 -22 9t-9 22v241h-322q-13 0 -21.5 8.5
t-8.5 22.5v14q0 14 8.5 22.5t21.5 8.5h322v197h-322q-14 0 -22 8.5t-8 21.5v13q0 14 8 22t22 8h302l-435 676q-9 15 -3 26t24 11h69q26 0 37 -20l385 -598l387 598q11 20 37 20h70z" />
    <glyph glyph-name="brokenbar" unicode="&#xa6;" horiz-adv-x="376" 
d="M223 856q0 -14 -8.5 -22.5t-21.5 -8.5h-50q-13 0 -21.5 8.5t-8.5 22.5v530q0 14 8.5 22.5t21.5 8.5h50q13 0 21.5 -8.5t8.5 -22.5v-530zM223 -68q0 -14 -8.5 -22t-21.5 -8h-50q-13 0 -21.5 8t-8.5 22v531q0 14 8.5 22.5t21.5 8.5h50q13 0 21.5 -8.5t8.5 -22.5v-531z" />
    <glyph glyph-name="section" unicode="&#xa7;" horiz-adv-x="995" 
d="M641 449q197 -74 197 -232q0 -140 -93 -210t-253 -70q-138 0 -231.5 50.5t-135.5 141.5q-13 29 18 39l35 12q26 9 39 -18q65 -129 277 -129q120 0 183.5 46.5t63.5 137.5q0 21 -5 40t-17.5 34.5t-22.5 27t-32.5 23.5t-34 18.5t-39.5 16t-37.5 12.5t-40 11.5t-35.5 9.5
q-124 33 -176 58q-145 71 -145 200q0 90 48 150t138 85q-180 72 -180 219q0 119 90.5 188.5t243.5 69.5q117 0 194.5 -41.5t112.5 -113.5q6 -14 0.5 -25t-19.5 -16l-30 -13q-24 -11 -41 17q-53 98 -217 98q-115 0 -177.5 -44t-62.5 -120q0 -30 17 -56.5t38.5 -43t60 -33
t62.5 -24t66 -19.5q12 -3 43.5 -11t53.5 -14t55.5 -18t57 -24.5t50.5 -32.5t43.5 -43t27.5 -55t11 -70q0 -88 -50.5 -147t-150.5 -82zM483 846q-112 0 -171.5 -45.5t-59.5 -124.5q0 -24 6 -39q55 -123 244 -123q121 0 182 46t61 120q0 73 -77 119.5t-185 46.5z" />
    <glyph glyph-name="dieresis" unicode="&#xa8;" horiz-adv-x="575" 
d="M109 1225q-27 0 -47.5 19.5t-20.5 47.5t20.5 47t47.5 19q26 0 45.5 -19t19.5 -47t-19.5 -47.5t-45.5 -19.5zM469 1225q-27 0 -47.5 19.5t-20.5 47.5t20.5 47t47.5 19q26 0 46 -19t20 -47t-20 -47.5t-46 -19.5z" />
    <glyph glyph-name="copyright" unicode="&#xa9;" horiz-adv-x="1595" 
d="M778 -16q-195 0 -347 88t-235 243t-83 351t83 351t235.5 243t346.5 88t346 -88t235 -243t83 -351q0 -197 -83 -352t-234.5 -242.5t-346.5 -87.5zM778 59q180 0 315.5 83t204 219.5t68.5 304.5t-68.5 304.5t-204 220t-315.5 83.5q-136 0 -248.5 -48.5t-186.5 -131.5
t-114.5 -193t-40.5 -235t41 -235t115.5 -193t187 -131t246.5 -48zM1044 862q-24 -15 -43 6q-73 86 -204 86q-114 0 -195.5 -78t-81.5 -208q0 -131 81.5 -210t195.5 -79q61 0 114.5 24t89.5 62q18 21 43 6l13 -8q27 -18 8 -41q-99 -119 -268 -119q-156 0 -254.5 103
t-98.5 262t98.5 260.5t254.5 101.5q168 0 268 -117q19 -23 -8 -43z" />
    <glyph glyph-name="guillemotleft" unicode="&#xab;" horiz-adv-x="1110" 
d="M510 313q14 -13 9 -25t-25 -12h-68q-23 0 -37 17l-317 342q-19 22 0 45l317 342q13 16 37 16h68q20 0 25 -12t-9 -25l-315 -344zM983 313q14 -13 9 -25t-25 -12h-68q-23 0 -37 17l-317 342q-19 22 0 45l317 342q13 16 37 16h68q20 0 25 -12t-9 -25l-315 -344z" />
    <glyph glyph-name="logicalnot" unicode="&#xac;" horiz-adv-x="1054" 
d="M113 715q0 13 8.5 21.5t21.5 8.5h727q14 0 22.5 -8.5t8.5 -21.5v-305q0 -14 -8.5 -22.5t-22.5 -8.5h-49q-13 0 -21.5 8.5t-8.5 22.5v225h-648q-13 0 -21.5 8.5t-8.5 22.5v49z" />
    <glyph glyph-name="registered" unicode="&#xae;" horiz-adv-x="1595" 
d="M778 1348q194 0 346 -88.5t235 -243.5t83 -350t-83 -350t-235 -243.5t-346 -88.5q-146 0 -270.5 51.5t-210.5 142t-135 216.5t-49 272t49 272t135 216.5t210.5 142t270.5 51.5zM778 59q180 0 315.5 83.5t204 220t68.5 303.5q0 124 -40.5 234t-114 193.5t-185.5 132
t-248 48.5q-135 0 -247.5 -48.5t-186.5 -131.5t-115 -193.5t-41 -234.5q0 -167 69.5 -303.5t205.5 -220t315 -83.5zM1079 811q0 -90 -55.5 -152.5t-138.5 -68.5l180 -262q10 -17 5.5 -27t-23.5 -10h-21q-26 0 -39 20l-190 279h-195v-268q0 -14 -9 -22.5t-22 -8.5h-14
q-13 0 -22 8.5t-9 22.5v675q0 13 9 22t22 9h313q88 0 148.5 -61.5t60.5 -155.5zM602 954v-290h262q57 0 97 42t40 105q0 62 -40 102.5t-97 40.5h-262z" />
    <glyph glyph-name="macron" unicode="&#xaf;" horiz-adv-x="421" 
d="M41 1300q0 14 8.5 22.5t22.5 8.5h278q14 0 22.5 -8.5t8.5 -22.5v-20q0 -14 -8.5 -22.5t-22.5 -8.5h-278q-14 0 -22.5 8.5t-8.5 22.5v20z" />
    <glyph glyph-name="degree" unicode="&#xb0;" horiz-adv-x="688" 
d="M344 860q-102 0 -168.5 66.5t-66.5 171.5t66.5 172t168.5 67q101 0 168.5 -67t67.5 -172t-67.5 -171.5t-168.5 -66.5zM344 932q67 0 114.5 47.5t47.5 118.5t-47.5 118.5t-114.5 47.5t-115.5 -47.5t-48.5 -118.5t48.5 -118.5t115.5 -47.5z" />
    <glyph glyph-name="plusminus" unicode="&#xb1;" horiz-adv-x="1001" 
d="M528 807h289q13 0 22 -8.5t9 -22.5v-22q0 -14 -9 -22.5t-22 -8.5h-289v-166q0 -14 -8.5 -22.5t-21.5 -8.5h-33q-13 0 -22 9t-9 22v166h-291q-13 0 -21.5 8.5t-8.5 22.5v22q0 14 8.5 22.5t21.5 8.5h291v164q0 13 8.5 21.5t22.5 8.5h33q14 0 22 -8.5t8 -21.5v-164zM143 311
q-13 0 -21.5 8.5t-8.5 22.5v23q0 13 8.5 21.5t21.5 8.5h674q14 0 22.5 -8.5t8.5 -21.5v-23q0 -14 -9 -22.5t-22 -8.5h-674z" />
    <glyph glyph-name="uni00B2" unicode="&#xb2;" horiz-adv-x="712" 
d="M76 586q0 10 10 20l205 180q117 103 158 149q96 106 96 189q0 74 -53.5 116t-147.5 42q-66 0 -120.5 -28.5t-78.5 -73.5q-7 -18 -22 -9l-31 13q-19 3 -12 24q26 61 97.5 102.5t166.5 41.5q125 0 199.5 -60.5t74.5 -165.5q0 -51 -22.5 -103t-65.5 -101.5t-72.5 -78
t-75.5 -68.5q-10 -9 -15 -13l-179 -158h410q8 0 13 -5t5 -13v-31q0 -7 -5 -12.5t-13 -5.5h-504q-8 0 -13 5.5t-5 12.5v31z" />
    <glyph glyph-name="uni00B3" unicode="&#xb3;" horiz-adv-x="745" 
d="M340 1038q117 0 200 -66t83 -190q0 -123 -83 -193.5t-204 -70.5q-75 0 -142.5 28t-105.5 77q-12 12 0 26l25 21q11 11 24 -2q33 -36 86.5 -57t112.5 -21q94 0 155.5 52t61.5 140q0 92 -61.5 144.5t-155.5 52.5q-60 0 -119 -18q-9 -3 -14.5 1t-5.5 13v22q0 15 10 23
l297 244h-350q-9 0 -15 5t-6 13v31q0 8 6 13t15 5h434q18 0 18 -18v-31q0 -14 -10 -22l-264 -222h8z" />
    <glyph glyph-name="acute" unicode="&#xb4;" horiz-adv-x="278" 
d="M119 1309q9 22 35 22h43q17 0 23 -10t-1 -27l-65 -131q-11 -22 -37 -22h-37q-17 0 -23.5 10t0.5 27z" />
    <glyph glyph-name="paragraph" unicode="&#xb6;" horiz-adv-x="983" 
d="M449 1331q13 0 21.5 -8.5t8.5 -22.5v-1269q0 -14 -8.5 -22.5t-21.5 -8.5h-50q-13 0 -21.5 8.5t-8.5 22.5v741q-133 0 -208 73t-75 202q0 126 72 205t204 79h87zM719 1300q0 14 8.5 22.5t22.5 8.5h49q13 0 21.5 -8.5t8.5 -22.5v-1269q0 -14 -8.5 -22.5t-21.5 -8.5h-49
q-14 0 -22.5 9t-8.5 22v1269z" />
    <glyph glyph-name="periodcentered" unicode="&#xb7;" horiz-adv-x="305" 
d="M152 586q-34 0 -57 23t-23 57q0 35 23 57t57 22q35 0 58 -22t23 -57q0 -34 -23 -57t-58 -23z" />
    <glyph glyph-name="cedilla" unicode="&#xb8;" horiz-adv-x="327" 
d="M162 -74q60 -6 91.5 -36t31.5 -70q0 -50 -36.5 -82.5t-105.5 -32.5q-38 0 -69 8q-25 6 -25 35v10q0 33 35 21q27 -6 59 -6q30 0 51 13t21 34q0 20 -22.5 32.5t-59.5 12.5q-14 0 -24 -2q-33 -7 -33 22v33q2 0 2 2l39 60q11 20 37 20h8q19 0 25 -10t-3 -27z" />
    <glyph glyph-name="uni00B9" unicode="&#xb9;" horiz-adv-x="446" 
d="M274 1331q19 0 19 -18v-766q0 -19 -19 -19h-32q-8 0 -13.5 6t-5.5 13v717h-168q-18 0 -18 20v29q0 18 18 18h219z" />
    <glyph glyph-name="guillemotright" unicode="&#xbb;" horiz-adv-x="1146" 
d="M123 276q-20 0 -25.5 12t8.5 25l316 344l-316 344q-14 13 -8.5 25t25.5 12h65q24 0 37 -16l318 -342q19 -23 0 -45l-318 -342q-14 -17 -37 -17h-65zM594 276q-20 0 -25 12t9 25l315 344l-315 344q-14 13 -9 25t25 12h65q24 0 37 -16l318 -342q19 -23 0 -45l-318 -342
q-14 -17 -37 -17h-65z" />
    <glyph glyph-name="onequarter" unicode="&#xbc;" horiz-adv-x="999" 
d="M233 1331q17 0 17 -16v-639q0 -17 -17 -17h-26q-17 0 -17 17v600h-139q-16 0 -16 14v25q0 16 16 16h182zM123 20q-11 -20 -37 -20q-15 0 -20 11t4 26l786 1274q11 20 37 20q15 0 20 -11t-4 -26zM950 193q6 0 10.5 -4.5t4.5 -10.5v-16q0 -17 -15 -17h-63v-131
q0 -14 -15 -14h-28q-15 0 -15 14v131h-337q-17 0 -17 17v18q0 10 6 19l340 452q8 8 19 8h32q15 0 15 -14v-452h63zM539 193h290v387z" />
    <glyph glyph-name="onehalf" unicode="&#xbd;" horiz-adv-x="1118" 
d="M233 1331q17 0 17 -16v-639q0 -17 -17 -17h-26q-17 0 -17 17v600h-139q-16 0 -16 14v25q0 16 16 16h182zM121 20q-11 -20 -37 -20q-15 0 -20 11t4 26l786 1274q11 20 37 20q15 0 20 -11t-4 -26zM639 39q0 10 8 18l166 146q101 89 136 129q69 79 69 141q0 61 -44 95
t-120 34q-53 0 -97 -23t-63 -59q-6 -14 -18 -8l-25 10q-14 3 -10 21q23 48 80.5 81t132.5 33q102 0 161.5 -48t59.5 -134q0 -35 -15.5 -73t-35 -66t-52.5 -62.5t-51.5 -50.5t-48.5 -41l-143 -129h332q14 0 14 -14v-25q0 -14 -14 -14h-408q-14 0 -14 14v25z" />
    <glyph glyph-name="threequarters" unicode="&#xbe;" horiz-adv-x="1110" 
d="M254 1090q95 0 164 -55t69 -156q0 -102 -68.5 -161t-166.5 -59q-62 0 -118.5 23.5t-88.5 62.5q-11 11 0 21l21 18q11 11 20 -2q62 -65 166 -65q76 0 127 44.5t51 117.5q0 75 -50.5 117t-127.5 42q-54 0 -100 -14q-17 -3 -17 12v19q0 13 8 18l246 203h-291q-14 0 -14 16
v25q0 14 14 14h361q16 0 16 -14v-27q0 -8 -10 -18l-217 -182h6zM252 20q-11 -20 -37 -20q-15 0 -20 11t4 26l786 1274q11 20 37 20q15 0 20 -11t-4 -26zM1059 193q14 0 14 -15v-16q0 -17 -14 -17h-64v-131q0 -14 -14 -14h-29q-14 0 -14 14v131h-338q-16 0 -16 17v18
q0 10 6 19l340 452q8 8 18 8h33q14 0 14 -14v-452h64zM647 193h291v387z" />
    <glyph glyph-name="questiondown" unicode="&#xbf;" horiz-adv-x="903" 
d="M455 1208q-32 0 -53 21t-21 53q0 31 21 51.5t53 20.5q31 0 51 -20.5t20 -51.5q0 -32 -20 -53t-51 -21zM485 1051q13 0 22 -8.5t9 -22.5v-16q0 -46 -11.5 -90t-25 -72t-39 -61.5t-37 -45.5t-36.5 -37q-104 -99 -134 -136q-75 -93 -75 -202q0 -118 82 -186t215 -68
q90 0 174.5 46.5t120.5 119.5q16 28 41 17l49 -21q28 -14 16 -41q-46 -102 -157.5 -166.5t-243.5 -64.5q-182 0 -300 95.5t-118 264.5q0 62 14 112.5t44.5 95t60 76.5t77.5 79q14 13 21 20q70 73 95 110q48 73 48 155v16q0 14 8.5 22.5t22.5 8.5h57z" />
    <glyph glyph-name="Agrave" unicode="&#xc0;" horiz-adv-x="1314" 
d="M588 1645q25 0 35 -23l61 -131q7 -17 1 -27t-23 -10h-37q-22 0 -35 23l-68 131q-8 15 -1 26t24 11h43zM1143 0q-28 0 -37 25l-139 340h-639l-140 -340q-9 -25 -36 -25h-62q-36 0 -24 35l526 1272q9 24 37 24h37q27 0 36 -24l527 -1272q12 -35 -25 -35h-61zM373 475h549
l-275 672z" />
    <glyph glyph-name="Aacute" unicode="&#xc1;" horiz-adv-x="1314" 
d="M674 1622q10 23 35 23h43q17 0 23 -10t-1 -27l-65 -131q-11 -23 -37 -23h-37q-17 0 -23.5 10t0.5 27zM1143 0q-28 0 -37 25l-139 340h-639l-140 -340q-9 -25 -36 -25h-62q-36 0 -24 35l526 1272q9 24 37 24h37q27 0 36 -24l527 -1272q12 -35 -25 -35h-61zM373 475h549
l-275 672z" />
    <glyph glyph-name="Acircumflex" unicode="&#xc2;" horiz-adv-x="1314" 
d="M813 1491q9 -15 3.5 -26t-23.5 -11h-37q-25 0 -37 21l-72 118l-72 -118q-12 -21 -36 -21h-37q-18 0 -24 11t3 26l84 133q12 21 37 21h90q25 0 37 -21zM1143 0q-28 0 -37 25l-139 340h-639l-140 -340q-9 -25 -36 -25h-62q-36 0 -24 35l526 1272q9 24 37 24h37q27 0 36 -24
l527 -1272q12 -35 -25 -35h-61zM373 475h549l-275 672z" />
    <glyph glyph-name="Atilde" unicode="&#xc3;" horiz-adv-x="1314" 
d="M408 1450q-15 0 -23.5 9t-5.5 24q11 63 51.5 102t99.5 39q78 0 138 -68q16 -17 25.5 -26t28.5 -18t40 -9q64 0 78 68q6 28 32 28h15q15 0 23.5 -8.5t7.5 -23.5q-9 -64 -49.5 -102t-106.5 -38q-79 0 -139 68q-16 18 -27.5 27.5t-28.5 17.5t-35 8q-30 0 -49 -19.5
t-26 -49.5q-10 -29 -33 -29h-16zM1143 0q-28 0 -37 25l-139 340h-639l-140 -340q-9 -25 -36 -25h-62q-36 0 -24 35l526 1272q9 24 37 24h37q27 0 36 -24l527 -1272q12 -35 -25 -35h-61zM373 475h549l-275 672z" />
    <glyph glyph-name="Adieresis" unicode="&#xc4;" horiz-adv-x="1314" 
d="M469 1444q-27 0 -47.5 19.5t-20.5 47.5t20.5 47t47.5 19q26 0 46 -19t20 -47t-20 -47.5t-46 -19.5zM829 1444q-27 0 -47 19t-20 48q0 28 20 47t47 19q26 0 46 -19t20 -47t-20 -47.5t-46 -19.5zM1143 0q-28 0 -37 25l-139 340h-639l-140 -340q-9 -25 -36 -25h-62
q-36 0 -24 35l526 1272q9 24 37 24h37q27 0 36 -24l527 -1272q12 -35 -25 -35h-61zM373 475h549l-275 672z" />
    <glyph glyph-name="Aring" unicode="&#xc5;" horiz-adv-x="1314" 
d="M649 1434q-64 0 -107.5 42.5t-43.5 106.5q0 66 43.5 108t107.5 42t107 -42t43 -108q0 -64 -43.5 -106.5t-106.5 -42.5zM649 1499q37 0 58.5 25.5t21.5 58.5q0 34 -21.5 60t-58.5 26q-39 0 -60.5 -26t-21.5 -60t21.5 -59t60.5 -25zM1143 0q-28 0 -37 25l-139 340h-639
l-140 -340q-9 -25 -36 -25h-62q-36 0 -24 35l526 1272q9 24 37 24h37q27 0 36 -24l527 -1272q12 -35 -25 -35h-61zM373 475h549l-275 672z" />
    <glyph glyph-name="AE" unicode="&#xc6;" horiz-adv-x="1953" 
d="M1096 1221v-502h641q13 0 21.5 -8.5t8.5 -22.5v-49q0 -14 -8.5 -22.5t-21.5 -8.5h-641v-497h684q13 0 21.5 -8.5t8.5 -22.5v-49q0 -14 -8.5 -22.5t-21.5 -8.5h-772q-14 0 -22.5 9t-8.5 22v577h-547l-242 -583q-9 -25 -36 -25h-62q-17 0 -23.5 10t-0.5 25l530 1272
q9 24 37 24h1147q13 0 21.5 -8.5t8.5 -22.5v-49q0 -13 -8 -21.5t-22 -8.5h-684zM477 719h500v502h-291z" />
    <glyph glyph-name="Ccedilla" unicode="&#xc7;" horiz-adv-x="1406" 
d="M1272 270q26 -16 6 -43q-84 -110 -211 -173.5t-283 -69.5q0 -7 -6 -19l-20 -37q59 -6 90 -36t31 -70q0 -50 -36 -82.5t-104 -32.5q-40 0 -71 8q-25 6 -25 35v10q0 32 35 23q24 -8 61 -8q29 0 49.5 13t20.5 34q0 20 -22 32.5t-60 12.5q-15 0 -25 -2q-32 -6 -32 22v33
q2 0 2 2l39 60q0 1 1 2t1 2q-277 15 -449 204t-172 476q0 196 83.5 351t236 243t346.5 88q165 0 298.5 -64t221.5 -180q20 -27 -6 -43l-47 -33q-25 -16 -43 8q-73 90 -182 141.5t-242 51.5q-244 0 -395.5 -158t-151.5 -405t151.5 -405.5t395.5 -158.5q132 0 241.5 52.5
t182.5 142.5q17 22 43 6z" />
    <glyph glyph-name="Egrave" unicode="&#xc8;" horiz-adv-x="1105" 
d="M494 1645q24 0 34 -23l62 -131q7 -17 0.5 -27t-23.5 -10h-37q-21 0 -34 23l-68 131q-8 15 -1 26t24 11h43zM963 1251q0 -13 -8.5 -21.5t-22.5 -8.5h-701v-502h658q13 0 22 -8.5t9 -22.5v-49q0 -13 -9 -22t-22 -9h-658v-497h701q14 0 22.5 -8.5t8.5 -22.5v-49
q0 -13 -8.5 -22t-22.5 -9h-789q-13 0 -21.5 8.5t-8.5 22.5v1269q0 14 8.5 22.5t21.5 8.5h789q14 0 22.5 -8.5t8.5 -22.5v-49z" />
    <glyph glyph-name="Eacute" unicode="&#xc9;" horiz-adv-x="1105" 
d="M580 1622q10 23 34 23h43q17 0 23.5 -10t-0.5 -27l-66 -131q-12 -23 -36 -23h-37q-17 0 -23.5 10t0.5 27zM963 1251q0 -13 -8.5 -21.5t-22.5 -8.5h-701v-502h658q13 0 22 -8.5t9 -22.5v-49q0 -13 -9 -22t-22 -9h-658v-497h701q14 0 22.5 -8.5t8.5 -22.5v-49
q0 -13 -8.5 -22t-22.5 -9h-789q-13 0 -21.5 8.5t-8.5 22.5v1269q0 14 8.5 22.5t21.5 8.5h789q14 0 22.5 -8.5t8.5 -22.5v-49z" />
    <glyph glyph-name="Ecircumflex" unicode="&#xca;" horiz-adv-x="1105" 
d="M719 1491q9 -15 3 -26t-24 -11h-36q-25 0 -37 21l-72 118l-72 -118q-12 -21 -37 -21h-36q-18 0 -24 11t3 26l84 133q12 21 37 21h90q25 0 37 -21zM963 1251q0 -13 -8.5 -21.5t-22.5 -8.5h-701v-502h658q13 0 22 -8.5t9 -22.5v-49q0 -13 -9 -22t-22 -9h-658v-497h701
q14 0 22.5 -8.5t8.5 -22.5v-49q0 -13 -8.5 -22t-22.5 -9h-789q-13 0 -21.5 8.5t-8.5 22.5v1269q0 14 8.5 22.5t21.5 8.5h789q14 0 22.5 -8.5t8.5 -22.5v-49z" />
    <glyph glyph-name="Edieresis" unicode="&#xcb;" horiz-adv-x="1105" 
d="M375 1444q-27 0 -47.5 19.5t-20.5 47.5t20.5 47t47.5 19q26 0 45.5 -19t19.5 -47t-19.5 -47.5t-45.5 -19.5zM735 1444q-27 0 -47 19t-20 48q0 28 20 47t47 19q26 0 46 -19t20 -47t-20 -47.5t-46 -19.5zM963 1251q0 -13 -8.5 -21.5t-22.5 -8.5h-701v-502h658q13 0 22 -8.5
t9 -22.5v-49q0 -13 -9 -22t-22 -9h-658v-497h701q14 0 22.5 -8.5t8.5 -22.5v-49q0 -13 -8.5 -22t-22.5 -9h-789q-13 0 -21.5 8.5t-8.5 22.5v1269q0 14 8.5 22.5t21.5 8.5h789q14 0 22.5 -8.5t8.5 -22.5v-49z" />
    <glyph glyph-name="Igrave" unicode="&#xcc;" horiz-adv-x="385" 
d="M111 1645q24 0 34 -23l62 -131q7 -17 0.5 -27t-23.5 -10h-37q-21 0 -34 23l-68 131q-8 15 -1 26t24 11h43zM231 31q0 -14 -8.5 -22.5t-21.5 -8.5h-58q-13 0 -21.5 8.5t-8.5 22.5v1269q0 14 8.5 22.5t21.5 8.5h58q13 0 21.5 -8.5t8.5 -22.5v-1269z" />
    <glyph glyph-name="Iacute" unicode="&#xcd;" horiz-adv-x="385" 
d="M199 1622q10 23 34 23h43q17 0 23.5 -10t-0.5 -27l-66 -131q-11 -23 -36 -23h-37q-17 0 -23.5 10t0.5 27zM231 31q0 -14 -8.5 -22.5t-21.5 -8.5h-58q-13 0 -21.5 8.5t-8.5 22.5v1269q0 14 8.5 22.5t21.5 8.5h58q13 0 21.5 -8.5t8.5 -22.5v-1269z" />
    <glyph glyph-name="Icircumflex" unicode="&#xce;" horiz-adv-x="385" 
d="M336 1491q9 -15 3 -26t-24 -11h-36q-25 0 -37 21l-72 118l-72 -118q-12 -21 -37 -21h-36q-18 0 -24 11t3 26l84 133q12 21 37 21h90q25 0 37 -21zM231 31q0 -14 -8.5 -22.5t-21.5 -8.5h-58q-13 0 -21.5 8.5t-8.5 22.5v1269q0 14 8.5 22.5t21.5 8.5h58q13 0 21.5 -8.5
t8.5 -22.5v-1269z" />
    <glyph glyph-name="Idieresis" unicode="&#xcf;" horiz-adv-x="385" 
d="M-8 1444q-27 0 -47.5 19.5t-20.5 47.5t20.5 47t47.5 19q26 0 45.5 -19t19.5 -47t-19.5 -47.5t-45.5 -19.5zM352 1444q-27 0 -47 19t-20 48q0 28 20 47t47 19q26 0 46 -19t20 -47t-20 -47.5t-46 -19.5zM231 31q0 -14 -8.5 -22.5t-21.5 -8.5h-58q-13 0 -21.5 8.5t-8.5 22.5
v1269q0 14 8.5 22.5t21.5 8.5h58q13 0 21.5 -8.5t8.5 -22.5v-1269z" />
    <glyph glyph-name="Ntilde" unicode="&#xd1;" horiz-adv-x="1271" 
d="M393 1450q-15 0 -23 9t-5 24q11 63 51.5 102t99.5 39q77 0 137 -68q15 -16 25.5 -25.5t29.5 -18.5t40 -9q63 0 77 68q6 28 33 28h14q15 0 23.5 -8.5t7.5 -23.5q-9 -64 -49 -102t-106 -38q-80 0 -140 68q-17 18 -27.5 27.5t-27.5 17.5t-35 8q-30 0 -50 -19.5t-26 -49.5
q-10 -29 -32 -29h-17zM999 1300q0 14 8.5 22.5t22.5 8.5h57q13 0 22 -8.5t9 -22.5v-1269q0 -13 -9 -22t-22 -9h-61q-26 0 -39 20l-754 1108v-1097q0 -14 -8.5 -22.5t-21.5 -8.5h-58q-13 0 -21.5 8.5t-8.5 22.5v1269q0 14 8.5 22.5t21.5 8.5h60q26 0 39 -20l755 -1110v1099z
" />
    <glyph glyph-name="Ograve" unicode="&#xd2;" horiz-adv-x="1544" 
d="M698 1645q25 0 35 -23l62 -131q7 -17 0.5 -27t-23.5 -10h-37q-22 0 -35 23l-67 131q-8 15 -1.5 26t23.5 11h43zM758 -16q-194 0 -346.5 88t-236 243t-83.5 351t83.5 351t236 243t346.5 88t346 -88t234.5 -243t82.5 -351t-82.5 -351t-234.5 -243t-346 -88zM758 102
q245 0 395 158.5t150 405.5t-150 405t-395 158q-244 0 -395.5 -158t-151.5 -405t151.5 -405.5t395.5 -158.5z" />
    <glyph glyph-name="Oacute" unicode="&#xd3;" horiz-adv-x="1544" 
d="M784 1622q10 23 35 23h43q17 0 23.5 -10t-0.5 -27l-66 -131q-11 -23 -37 -23h-37q-17 0 -23 10t1 27zM758 -16q-194 0 -346.5 88t-236 243t-83.5 351t83.5 351t236 243t346.5 88t346 -88t234.5 -243t82.5 -351t-82.5 -351t-234.5 -243t-346 -88zM758 102q245 0 395 158.5
t150 405.5t-150 405t-395 158q-244 0 -395.5 -158t-151.5 -405t151.5 -405.5t395.5 -158.5z" />
    <glyph glyph-name="Ocircumflex" unicode="&#xd4;" horiz-adv-x="1544" 
d="M924 1491q9 -15 3 -26t-24 -11h-37q-25 0 -37 21l-71 118l-72 -118q-12 -21 -37 -21h-37q-18 0 -23.5 11t3.5 26l84 133q12 21 37 21h90q25 0 37 -21zM758 -16q-194 0 -346.5 88t-236 243t-83.5 351t83.5 351t236 243t346.5 88t346 -88t234.5 -243t82.5 -351t-82.5 -351
t-234.5 -243t-346 -88zM758 102q245 0 395 158.5t150 405.5t-150 405t-395 158q-244 0 -395.5 -158t-151.5 -405t151.5 -405.5t395.5 -158.5z" />
    <glyph glyph-name="Otilde" unicode="&#xd5;" horiz-adv-x="1544" 
d="M518 1450q-15 0 -23.5 9t-5.5 24q11 63 52 102t100 39q77 0 137 -68q16 -17 25.5 -26t28.5 -18t40 -9q64 0 78 68q6 28 33 28h14q15 0 23.5 -8.5t7.5 -23.5q-9 -64 -49.5 -102t-106.5 -38q-79 0 -139 68q-17 18 -27.5 27.5t-27.5 17.5t-35 8q-31 0 -50.5 -19.5
t-25.5 -49.5q-10 -29 -32 -29h-17zM758 -16q-194 0 -346.5 88t-236 243t-83.5 351t83.5 351t236 243t346.5 88t346 -88t234.5 -243t82.5 -351t-82.5 -351t-234.5 -243t-346 -88zM758 102q245 0 395 158.5t150 405.5t-150 405t-395 158q-244 0 -395.5 -158t-151.5 -405
t151.5 -405.5t395.5 -158.5z" />
    <glyph glyph-name="Odieresis" unicode="&#xd6;" horiz-adv-x="1544" 
d="M580 1444q-27 0 -47.5 19.5t-20.5 47.5t20.5 47t47.5 19q26 0 45.5 -19t19.5 -47t-19.5 -47.5t-45.5 -19.5zM940 1444q-27 0 -47.5 19.5t-20.5 47.5t20.5 47t47.5 19q26 0 46 -19t20 -47t-20 -47.5t-46 -19.5zM758 -16q-194 0 -346.5 88t-236 243t-83.5 351t83.5 351
t236 243t346.5 88t346 -88t234.5 -243t82.5 -351t-82.5 -351t-234.5 -243t-346 -88zM758 102q245 0 395 158.5t150 405.5t-150 405t-395 158q-244 0 -395.5 -158t-151.5 -405t151.5 -405.5t395.5 -158.5z" />
    <glyph glyph-name="multiply" unicode="&#xd7;" horiz-adv-x="905" 
d="M729 930q23 -22 0 -45l-225 -226l223 -223q23 -22 0 -45l-27 -26q-22 -23 -45 0l-223 223l-225 -226q-20 -20 -43 0l-27 27q-21 21 0 43l225 225l-227 226q-23 23 0 45l27 26q22 22 45 0l225 -225l227 227q20 20 43 0z" />
    <glyph glyph-name="Oslash" unicode="&#xd8;" horiz-adv-x="1544" 
d="M1210 1182q101 -93 156 -225.5t55 -290.5q0 -196 -82.5 -351t-234.5 -243t-346 -88q-225 0 -391 116l-64 -82q-13 -18 -37 -18h-43q-19 0 -24.5 11t6.5 26l92 119q-98 94 -151.5 224.5t-53.5 285.5q0 196 83.5 351t236 243t346.5 88q220 0 383 -113l73 94q14 19 37 19h43
q19 0 25 -11t-6 -26zM211 666q0 -126 42 -233t118 -183l696 891q-130 88 -309 88q-246 0 -396.5 -157.5t-150.5 -405.5zM758 102q245 0 395 158t150 406q0 262 -166 419l-697 -890q136 -93 318 -93z" />
    <glyph glyph-name="Ugrave" unicode="&#xd9;" horiz-adv-x="1257" 
d="M565 1645q25 0 35 -23l62 -131q7 -17 0.5 -27t-23.5 -10h-37q-22 0 -35 23l-67 131q-8 15 -1.5 26t23.5 11h43zM985 1300q0 14 8.5 22.5t22.5 8.5h57q13 0 22 -8.5t9 -22.5v-839q0 -210 -133 -343.5t-363 -133.5t-362.5 133t-132.5 344v839q0 14 8.5 22.5t21.5 8.5h58
q13 0 21.5 -8.5t8.5 -22.5v-831q0 -171 101.5 -270t275.5 -99t275.5 99t101.5 270v831z" />
    <glyph glyph-name="Uacute" unicode="&#xda;" horiz-adv-x="1257" 
d="M651 1622q10 23 35 23h43q17 0 23.5 -10t-0.5 -27l-66 -131q-12 -23 -37 -23h-37q-17 0 -23 10t1 27zM985 1300q0 14 8.5 22.5t22.5 8.5h57q13 0 22 -8.5t9 -22.5v-839q0 -210 -133 -343.5t-363 -133.5t-362.5 133t-132.5 344v839q0 14 8.5 22.5t21.5 8.5h58
q13 0 21.5 -8.5t8.5 -22.5v-831q0 -171 101.5 -270t275.5 -99t275.5 99t101.5 270v831z" />
    <glyph glyph-name="Ucircumflex" unicode="&#xdb;" horiz-adv-x="1257" 
d="M791 1491q9 -15 3 -26t-24 -11h-37q-25 0 -37 21l-71 118l-72 -118q-12 -21 -37 -21h-37q-18 0 -23.5 11t3.5 26l84 133q12 21 37 21h90q25 0 37 -21zM985 1300q0 14 8.5 22.5t22.5 8.5h57q13 0 22 -8.5t9 -22.5v-839q0 -210 -133 -343.5t-363 -133.5t-362.5 133
t-132.5 344v839q0 14 8.5 22.5t21.5 8.5h58q13 0 21.5 -8.5t8.5 -22.5v-831q0 -171 101.5 -270t275.5 -99t275.5 99t101.5 270v831z" />
    <glyph glyph-name="Udieresis" unicode="&#xdc;" horiz-adv-x="1257" 
d="M446 1444q-27 0 -47 19t-20 48q0 28 20 47t47 19q26 0 46 -19t20 -47t-20 -47.5t-46 -19.5zM807 1444q-27 0 -47.5 19.5t-20.5 47.5t20.5 47t47.5 19q26 0 45.5 -19t19.5 -47t-19.5 -47.5t-45.5 -19.5zM985 1300q0 14 8.5 22.5t22.5 8.5h57q13 0 22 -8.5t9 -22.5v-839
q0 -210 -133 -343.5t-363 -133.5t-362.5 133t-132.5 344v839q0 14 8.5 22.5t21.5 8.5h58q13 0 21.5 -8.5t8.5 -22.5v-831q0 -171 101.5 -270t275.5 -99t275.5 99t101.5 270v831z" />
    <glyph glyph-name="Yacute" unicode="&#xdd;" horiz-adv-x="1179" 
d="M598 1622q10 23 35 23h43q17 0 23 -10t-1 -27l-65 -131q-11 -23 -37 -23h-37q-17 0 -23 10t1 27zM1063 1331q18 0 23.5 -11t-3.5 -26l-452 -700v-563q0 -13 -8.5 -22t-22.5 -9h-57q-13 0 -22 9t-9 22v559l-455 704q-9 15 -3 26t24 11h69q26 0 37 -20l385 -598l387 598
q11 20 37 20h70z" />
    <glyph glyph-name="germandbls" unicode="&#xdf;" horiz-adv-x="1060" 
d="M748 707q103 -41 162 -131t59 -207q0 -160 -106.5 -264.5t-280.5 -104.5h-228q-13 0 -21.5 8.5t-8.5 22.5v45q0 14 8 22t22 8h207q126 0 209.5 72t83.5 191q0 120 -83.5 192t-209.5 72h-207q-13 0 -21.5 8.5t-8.5 22.5v38q0 14 8.5 22.5t21.5 8.5h170q127 0 206 69.5
t79 182.5q0 122 -79 194t-202 72q-139 0 -219 -73t-80 -199v-948q0 -14 -8.5 -22.5t-21.5 -8.5h-56q-13 0 -21.5 8.5t-8.5 22.5v952q0 172 114.5 271.5t300.5 99.5q168 0 280 -97t112 -262q0 -100 -46 -174.5t-126 -113.5z" />
    <glyph glyph-name="agrave" unicode="&#xe0;" 
d="M539 1270q24 0 34 -23l62 -131q7 -17 0.5 -27t-23.5 -10h-37q-21 0 -34 23l-68 131q-8 15 -1 26t24 11h43zM928 911q0 14 8.5 22.5t21.5 8.5h52q13 0 21.5 -8.5t8.5 -22.5v-880q0 -14 -8.5 -22.5t-21.5 -8.5h-52q-13 0 -21.5 8.5t-8.5 22.5v166q-57 -100 -154 -156.5
t-223 -56.5q-203 0 -333 137.5t-130 349.5q0 213 129.5 349t333.5 136q126 0 223 -56t154 -155v166zM563 92q164 0 264.5 106t100.5 273t-100.5 273t-264.5 106q-163 0 -264.5 -106t-101.5 -273t101.5 -273t264.5 -106z" />
    <glyph glyph-name="aacute" unicode="&#xe1;" 
d="M625 1247q10 23 34 23h43q17 0 23.5 -10t-0.5 -27l-66 -131q-11 -23 -36 -23h-37q-17 0 -23.5 10t0.5 27zM928 911q0 14 8.5 22.5t21.5 8.5h52q13 0 21.5 -8.5t8.5 -22.5v-880q0 -14 -8.5 -22.5t-21.5 -8.5h-52q-13 0 -21.5 8.5t-8.5 22.5v166q-57 -100 -154 -156.5
t-223 -56.5q-203 0 -333 137.5t-130 349.5q0 213 129.5 349t333.5 136q126 0 223 -56t154 -155v166zM563 92q164 0 264.5 106t100.5 273t-100.5 273t-264.5 106q-163 0 -264.5 -106t-101.5 -273t101.5 -273t264.5 -106z" />
    <glyph glyph-name="acircumflex" unicode="&#xe2;" 
d="M764 1116q9 -15 3 -26t-24 -11h-36q-25 0 -37 21l-72 119l-72 -119q-12 -21 -37 -21h-36q-18 0 -24 11t3 26l84 133q12 21 37 21h90q25 0 37 -21zM928 911q0 14 8.5 22.5t21.5 8.5h52q13 0 21.5 -8.5t8.5 -22.5v-880q0 -14 -8.5 -22.5t-21.5 -8.5h-52q-13 0 -21.5 8.5
t-8.5 22.5v166q-57 -100 -154 -156.5t-223 -56.5q-203 0 -333 137.5t-130 349.5q0 213 129.5 349t333.5 136q126 0 223 -56t154 -155v166zM563 92q164 0 264.5 106t100.5 273t-100.5 273t-264.5 106q-163 0 -264.5 -106t-101.5 -273t101.5 -273t264.5 -106z" />
    <glyph glyph-name="atilde" unicode="&#xe3;" 
d="M358 1075q-15 0 -23 9t-5 24q11 63 51.5 102t99.5 39q78 0 137 -67q16 -17 25.5 -26t29 -18.5t40.5 -9.5q64 0 78 68q6 29 32 29h15q15 0 23 -9t7 -24q-9 -64 -49 -101.5t-106 -37.5q-81 0 -140 67q-17 18 -27.5 27.5t-27.5 18t-35 8.5q-30 0 -49 -20t-26 -50
q-10 -29 -33 -29h-17zM928 911q0 14 8.5 22.5t21.5 8.5h52q13 0 21.5 -8.5t8.5 -22.5v-880q0 -14 -8.5 -22.5t-21.5 -8.5h-52q-13 0 -21.5 8.5t-8.5 22.5v166q-57 -100 -154 -156.5t-223 -56.5q-203 0 -333 137.5t-130 349.5q0 213 129.5 349t333.5 136q126 0 223 -56
t154 -155v166zM563 92q164 0 264.5 106t100.5 273t-100.5 273t-264.5 106q-163 0 -264.5 -106t-101.5 -273t101.5 -273t264.5 -106z" />
    <glyph glyph-name="adieresis" unicode="&#xe4;" 
d="M420 1069q-27 0 -47.5 19.5t-20.5 48.5q0 28 20.5 46.5t47.5 18.5q26 0 45.5 -18.5t19.5 -46.5q0 -29 -19.5 -48.5t-45.5 -19.5zM780 1069q-27 0 -47 19.5t-20 48.5q0 28 20 46.5t47 18.5q26 0 46 -18.5t20 -46.5t-20 -48t-46 -20zM928 911q0 14 8.5 22.5t21.5 8.5h52
q13 0 21.5 -8.5t8.5 -22.5v-880q0 -14 -8.5 -22.5t-21.5 -8.5h-52q-13 0 -21.5 8.5t-8.5 22.5v166q-57 -100 -154 -156.5t-223 -56.5q-203 0 -333 137.5t-130 349.5q0 213 129.5 349t333.5 136q126 0 223 -56t154 -155v166zM563 92q164 0 264.5 106t100.5 273t-100.5 273
t-264.5 106q-163 0 -264.5 -106t-101.5 -273t101.5 -273t264.5 -106z" />
    <glyph glyph-name="aring" unicode="&#xe5;" 
d="M600 1059q-64 0 -107.5 42.5t-43.5 106.5q0 66 43.5 108t107.5 42t107 -42t43 -108q0 -64 -43.5 -106.5t-106.5 -42.5zM600 1124q37 0 58.5 25.5t21.5 58.5q0 34 -21.5 60t-58.5 26q-39 0 -60.5 -26t-21.5 -60t21.5 -59t60.5 -25zM928 911q0 14 8.5 22.5t21.5 8.5h52
q13 0 21.5 -8.5t8.5 -22.5v-880q0 -14 -8.5 -22.5t-21.5 -8.5h-52q-13 0 -21.5 8.5t-8.5 22.5v166q-57 -100 -154 -156.5t-223 -56.5q-203 0 -333 137.5t-130 349.5q0 213 129.5 349t333.5 136q126 0 223 -56t154 -155v166zM563 92q164 0 264.5 106t100.5 273t-100.5 273
t-264.5 106q-163 0 -264.5 -106t-101.5 -273t101.5 -273t264.5 -106z" />
    <glyph glyph-name="ae" unicode="&#xe6;" horiz-adv-x="1894" 
d="M1319 956q195 0 321.5 -137t126.5 -348v-10q0 -14 -8.5 -22.5t-21.5 -8.5h-754q12 -158 105.5 -252t244.5 -94q186 0 289 133q19 26 43 8l33 -22q26 -17 8 -41q-64 -85 -160.5 -131.5t-214.5 -46.5q-158 0 -274.5 79.5t-163.5 208.5q-69 -288 -416 -288q-193 0 -291 57.5
t-98 194.5q0 56 20 100t51.5 72t83 48t102.5 30t122.5 15t130.5 6t138 1h61q-1 135 -34.5 214t-96 110.5t-164.5 31.5q-210 0 -281 -133q-12 -27 -39 -18l-37 12q-31 10 -18 39q88 192 381 192q168 0 265.5 -70t121.5 -196q52 123 163.5 194.5t260.5 71.5zM1323 862
q-155 0 -243.5 -97t-96.5 -257h678q-9 161 -103 257.5t-235 96.5zM473 72q166 0 244.5 84t79.5 272h-90q-67 0 -101 -0.5t-92.5 -2.5t-89 -7t-73.5 -13.5t-65.5 -22.5t-46 -33t-33 -46.5t-9.5 -62.5q0 -94 67.5 -131t208.5 -37z" />
    <glyph glyph-name="ccedilla" unicode="&#xe7;" horiz-adv-x="1054" 
d="M922 193q26 -16 6 -43q-126 -154 -336 -166q0 -8 -6 -17l-21 -37q59 -6 90 -36t31 -70q0 -50 -36 -82.5t-103 -32.5q-41 0 -72 8q-24 5 -24 35v10q0 32 34 23q24 -8 62 -8q29 0 49 13t20 34q0 20 -21.5 32.5t-59.5 12.5q-15 0 -25 -2q-33 -7 -33 22v33q2 0 2 2l39 60v2
q-193 15 -311.5 149t-118.5 336q0 213 132 349t343 136q114 0 207.5 -42.5t157.5 -120.5q17 -23 -6 -43l-33 -25q-23 -20 -43 4q-106 121 -281 121q-164 0 -265 -106t-101 -273t101 -273t265 -106q177 0 281 119q18 22 43 4z" />
    <glyph glyph-name="egrave" unicode="&#xe8;" horiz-adv-x="1128" 
d="M492 1270q24 0 34 -23l62 -131q7 -17 0.5 -27t-23.5 -10h-37q-21 0 -34 23l-68 131q-8 15 -1 26t24 11h43zM551 958q198 0 324 -137.5t126 -349.5v-8q0 -14 -8.5 -22.5t-21.5 -8.5h-774q12 -158 112 -254t254 -96q189 0 295 131q19 26 43 8l31 -20q26 -16 6 -43
q-64 -83 -160.5 -129.5t-214.5 -46.5q-212 0 -343.5 138t-131.5 351q0 214 127 350.5t336 136.5zM551 862q-153 0 -247.5 -95t-106.5 -253h698q-12 155 -105 251.5t-239 96.5z" />
    <glyph glyph-name="eacute" unicode="&#xe9;" horiz-adv-x="1128" 
d="M578 1247q10 23 34 23h43q17 0 23.5 -10t-0.5 -27l-66 -131q-12 -23 -37 -23h-36q-17 0 -23.5 10t0.5 27zM551 958q198 0 324 -137.5t126 -349.5v-8q0 -14 -8.5 -22.5t-21.5 -8.5h-774q12 -158 112 -254t254 -96q189 0 295 131q19 26 43 8l31 -20q26 -16 6 -43
q-64 -83 -160.5 -129.5t-214.5 -46.5q-212 0 -343.5 138t-131.5 351q0 214 127 350.5t336 136.5zM551 862q-153 0 -247.5 -95t-106.5 -253h698q-12 155 -105 251.5t-239 96.5z" />
    <glyph glyph-name="ecircumflex" unicode="&#xea;" horiz-adv-x="1128" 
d="M717 1116q9 -15 3 -26t-24 -11h-37q-24 0 -36 21l-72 119l-72 -119q-12 -21 -37 -21h-36q-18 0 -24 11t3 26l84 133q12 21 37 21h90q25 0 37 -21zM551 958q198 0 324 -137.5t126 -349.5v-8q0 -14 -8.5 -22.5t-21.5 -8.5h-774q12 -158 112 -254t254 -96q189 0 295 131
q19 26 43 8l31 -20q26 -16 6 -43q-64 -83 -160.5 -129.5t-214.5 -46.5q-212 0 -343.5 138t-131.5 351q0 214 127 350.5t336 136.5zM551 862q-153 0 -247.5 -95t-106.5 -253h698q-12 155 -105 251.5t-239 96.5z" />
    <glyph glyph-name="edieresis" unicode="&#xeb;" horiz-adv-x="1128" 
d="M373 1069q-27 0 -47.5 19.5t-20.5 48.5q0 28 20.5 46.5t47.5 18.5q26 0 45.5 -18.5t19.5 -46.5q0 -29 -20 -48.5t-45 -19.5zM733 1069q-27 0 -47 19.5t-20 48.5q0 28 20 46.5t47 18.5q26 0 46 -18.5t20 -46.5t-20 -48t-46 -20zM551 958q198 0 324 -137.5t126 -349.5v-8
q0 -14 -8.5 -22.5t-21.5 -8.5h-774q12 -158 112 -254t254 -96q189 0 295 131q19 26 43 8l31 -20q26 -16 6 -43q-64 -83 -160.5 -129.5t-214.5 -46.5q-212 0 -343.5 138t-131.5 351q0 214 127 350.5t336 136.5zM551 862q-153 0 -247.5 -95t-106.5 -253h698
q-12 155 -105 251.5t-239 96.5z" />
    <glyph glyph-name="igrave" unicode="&#xec;" horiz-adv-x="409" 
d="M123 1270q25 0 35 -23l61 -131q7 -17 1 -27t-23 -10h-37q-22 0 -35 23l-68 131q-8 15 -1 26t24 11h43zM242 31q0 -13 -9 -22t-22 -9h-51q-14 0 -22.5 9t-8.5 22v880q0 13 8.5 22t22.5 9h51q13 0 22 -9t9 -22v-880z" />
    <glyph glyph-name="iacute" unicode="&#xed;" horiz-adv-x="409" 
d="M211 1247q10 23 35 23h43q17 0 23 -10t-1 -27l-65 -131q-12 -23 -37 -23h-37q-17 0 -23 10t1 27zM242 31q0 -13 -9 -22t-22 -9h-51q-14 0 -22.5 9t-8.5 22v880q0 13 8.5 22t22.5 9h51q13 0 22 -9t9 -22v-880z" />
    <glyph glyph-name="icircumflex" unicode="&#xee;" horiz-adv-x="409" 
d="M348 1116q9 -15 3.5 -26t-23.5 -11h-37q-25 0 -37 21l-72 119l-71 -119q-12 -21 -37 -21h-37q-18 0 -24 11t3 26l84 133q12 21 37 21h90q25 0 37 -21zM242 31q0 -13 -9 -22t-22 -9h-51q-14 0 -22.5 9t-8.5 22v880q0 13 8.5 22t22.5 9h51q13 0 22 -9t9 -22v-880z" />
    <glyph glyph-name="idieresis" unicode="&#xef;" horiz-adv-x="409" 
d="M4 1069q-27 0 -47 19.5t-20 48.5q0 28 20 46.5t47 18.5q26 0 46 -18.5t20 -46.5t-20 -48t-46 -20zM365 1069q-27 0 -47.5 19.5t-20.5 48.5q0 28 20.5 46.5t47.5 18.5q26 0 45.5 -18.5t19.5 -46.5q0 -29 -20 -48.5t-45 -19.5zM242 31q0 -13 -9 -22t-22 -9h-51
q-14 0 -22.5 9t-8.5 22v880q0 13 8.5 22t22.5 9h51q13 0 22 -9t9 -22v-880z" />
    <glyph glyph-name="ntilde" unicode="&#xf1;" horiz-adv-x="1073" 
d="M276 1075q-15 0 -23 9t-5 24q11 63 51.5 102t99.5 39q79 0 138 -67q16 -17 25.5 -26t28.5 -18.5t40 -9.5q64 0 78 68q6 29 32 29h15q15 0 23 -9t7 -24q-9 -64 -49 -101.5t-106 -37.5q-80 0 -139 67q-17 18 -27.5 27.5t-28 18t-35.5 8.5q-30 0 -49 -20t-26 -50
q-10 -29 -33 -29h-17zM541 956q75 0 142 -22.5t120.5 -67t85 -118t31.5 -166.5v-551q0 -13 -9 -22t-22 -9h-51q-14 0 -22.5 9t-8.5 22v536q0 135 -82.5 213t-208.5 78q-127 0 -209 -77.5t-82 -213.5v-536q0 -14 -8.5 -22.5t-21.5 -8.5h-52q-13 0 -21.5 8.5t-8.5 22.5v880
q0 14 8.5 22.5t21.5 8.5h52q13 0 21.5 -8.5t8.5 -22.5v-110q51 77 134.5 116t181.5 39z" />
    <glyph glyph-name="ograve" unicode="&#xf2;" horiz-adv-x="1169" 
d="M506 1270q25 0 35 -23l61 -131q7 -17 1 -27t-23 -10h-37q-22 0 -35 23l-68 131q-8 15 -1 26t24 11h43zM565 -18q-211 0 -344 138.5t-133 350.5q0 213 133 350t344 137t343 -136.5t132 -350.5q0 -213 -132.5 -351t-342.5 -138zM565 92q161 0 261 107t100 272t-100 272
t-261 107t-262.5 -107.5t-101.5 -271.5t101.5 -271.5t262.5 -107.5z" />
    <glyph glyph-name="oacute" unicode="&#xf3;" horiz-adv-x="1169" 
d="M592 1247q10 23 35 23h43q17 0 23 -10t-1 -27l-65 -131q-11 -23 -37 -23h-37q-17 0 -23.5 10t0.5 27zM565 -18q-211 0 -344 138.5t-133 350.5q0 213 133 350t344 137t343 -136.5t132 -350.5q0 -213 -132.5 -351t-342.5 -138zM565 92q161 0 261 107t100 272t-100 272
t-261 107t-262.5 -107.5t-101.5 -271.5t101.5 -271.5t262.5 -107.5z" />
    <glyph glyph-name="ocircumflex" unicode="&#xf4;" horiz-adv-x="1169" 
d="M731 1116q9 -15 3.5 -26t-23.5 -11h-37q-25 0 -37 21l-72 119l-71 -119q-12 -21 -37 -21h-37q-18 0 -24 11t3 26l84 133q12 21 37 21h90q25 0 37 -21zM565 -18q-211 0 -344 138.5t-133 350.5q0 213 133 350t344 137t343 -136.5t132 -350.5q0 -213 -132.5 -351
t-342.5 -138zM565 92q161 0 261 107t100 272t-100 272t-261 107t-262.5 -107.5t-101.5 -271.5t101.5 -271.5t262.5 -107.5z" />
    <glyph glyph-name="otilde" unicode="&#xf5;" horiz-adv-x="1169" 
d="M326 1075q-15 0 -23.5 9t-5.5 24q11 63 52 102t100 39q78 0 137 -67q16 -17 25.5 -26t28.5 -18.5t40 -9.5q64 0 78 68q6 29 33 29h14q15 0 23.5 -9t7.5 -24q-9 -63 -49.5 -101t-106.5 -38q-80 0 -139 67q-17 18 -27.5 27.5t-27.5 18t-35 8.5q-30 0 -49.5 -20t-26.5 -50
q-10 -29 -33 -29h-16zM565 -18q-211 0 -344 138.5t-133 350.5q0 213 133 350t344 137t343 -136.5t132 -350.5q0 -213 -132.5 -351t-342.5 -138zM565 92q161 0 261 107t100 272t-100 272t-261 107t-262.5 -107.5t-101.5 -271.5t101.5 -271.5t262.5 -107.5z" />
    <glyph glyph-name="odieresis" unicode="&#xf6;" horiz-adv-x="1169" 
d="M387 1069q-27 0 -47.5 19.5t-20.5 48.5q0 28 20.5 46.5t47.5 18.5q26 0 46 -18.5t20 -46.5t-20 -48t-46 -20zM748 1069q-27 0 -47.5 19.5t-20.5 48.5q0 28 20.5 46.5t47.5 18.5q26 0 45.5 -18.5t19.5 -46.5q0 -29 -19.5 -48.5t-45.5 -19.5zM565 -18q-211 0 -344 138.5
t-133 350.5q0 213 133 350t344 137t343 -136.5t132 -350.5q0 -213 -132.5 -351t-342.5 -138zM565 92q161 0 261 107t100 272t-100 272t-261 107t-262.5 -107.5t-101.5 -271.5t101.5 -271.5t262.5 -107.5z" />
    <glyph glyph-name="divide" unicode="&#xf7;" horiz-adv-x="1038" 
d="M500 905q-31 0 -52.5 20.5t-21.5 51.5q0 32 21.5 53t52.5 21t51 -21t20 -53q0 -31 -20 -51.5t-51 -20.5zM113 676q0 14 8.5 22.5t21.5 8.5h711q14 0 22.5 -8.5t8.5 -22.5v-33q0 -13 -8.5 -22t-22.5 -9h-711q-13 0 -21.5 8.5t-8.5 22.5v33zM500 270q-31 0 -52.5 20.5
t-21.5 51.5t21.5 51.5t52.5 20.5t51 -20.5t20 -51.5t-20 -51.5t-51 -20.5z" />
    <glyph glyph-name="oslash" unicode="&#xf8;" horiz-adv-x="1169" 
d="M885 844q74 -67 114.5 -163t40.5 -210q0 -213 -132.5 -351t-342.5 -138q-163 0 -282 86l-39 -50q-13 -18 -37 -18q-17 0 -21.5 11t7.5 26l49 63q-73 67 -113.5 163t-40.5 208q0 213 133 350t344 137q157 0 281 -84l37 50q13 18 37 18q17 0 20.5 -11t-8.5 -26zM201 471
q0 -174 110 -281l465 596q-89 64 -211 64q-161 0 -262.5 -107.5t-101.5 -271.5zM565 92q161 0 261 107t100 272q0 175 -111 283l-463 -596q92 -66 213 -66z" />
    <glyph glyph-name="ugrave" unicode="&#xf9;" horiz-adv-x="1073" 
d="M473 1270q25 0 35 -23l61 -131q7 -17 1 -27t-23 -10h-37q-22 0 -35 23l-67 131q-8 15 -1.5 26t23.5 11h43zM807 911q0 13 8.5 22t22.5 9h51q13 0 22 -9t9 -22v-880q0 -13 -9 -22t-22 -9h-51q-14 0 -22.5 9t-8.5 22v108q-51 -77 -134 -116t-181 -39q-75 0 -142 22.5
t-120.5 67t-85 118t-31.5 166.5v553q0 14 8.5 22.5t21.5 8.5h52q13 0 21.5 -8.5t8.5 -22.5v-538q0 -135 82.5 -213t208.5 -78q127 0 209 77.5t82 213.5v538z" />
    <glyph glyph-name="uacute" unicode="&#xfa;" horiz-adv-x="1073" 
d="M559 1247q10 23 35 23h43q17 0 23 -10t-1 -27l-65 -131q-12 -23 -37 -23h-37q-17 0 -23 10t1 27zM807 911q0 13 8.5 22t22.5 9h51q13 0 22 -9t9 -22v-880q0 -13 -9 -22t-22 -9h-51q-14 0 -22.5 9t-8.5 22v108q-51 -77 -134 -116t-181 -39q-75 0 -142 22.5t-120.5 67
t-85 118t-31.5 166.5v553q0 14 8.5 22.5t21.5 8.5h52q13 0 21.5 -8.5t8.5 -22.5v-538q0 -135 82.5 -213t208.5 -78q127 0 209 77.5t82 213.5v538z" />
    <glyph glyph-name="ucircumflex" unicode="&#xfb;" horiz-adv-x="1073" 
d="M698 1116q9 -15 3.5 -26t-23.5 -11h-37q-25 0 -37 21l-72 119l-71 -119q-12 -21 -37 -21h-37q-18 0 -23.5 11t3.5 26l84 133q12 21 36 21h91q24 0 36 -21zM807 911q0 13 8.5 22t22.5 9h51q13 0 22 -9t9 -22v-880q0 -13 -9 -22t-22 -9h-51q-14 0 -22.5 9t-8.5 22v108
q-51 -77 -134 -116t-181 -39q-75 0 -142 22.5t-120.5 67t-85 118t-31.5 166.5v553q0 14 8.5 22.5t21.5 8.5h52q13 0 21.5 -8.5t8.5 -22.5v-538q0 -135 82.5 -213t208.5 -78q127 0 209 77.5t82 213.5v538z" />
    <glyph glyph-name="udieresis" unicode="&#xfc;" horiz-adv-x="1073" 
d="M354 1069q-27 0 -47 19.5t-20 48.5q0 28 20 46.5t47 18.5q26 0 46 -18.5t20 -46.5t-20 -48t-46 -20zM715 1069q-27 0 -47.5 19.5t-20.5 48.5q0 28 20.5 46.5t47.5 18.5q26 0 45.5 -18.5t19.5 -46.5q0 -29 -20 -48.5t-45 -19.5zM807 911q0 13 8.5 22t22.5 9h51q13 0 22 -9
t9 -22v-880q0 -13 -9 -22t-22 -9h-51q-14 0 -22.5 9t-8.5 22v108q-51 -77 -134 -116t-181 -39q-75 0 -142 22.5t-120.5 67t-85 118t-31.5 166.5v553q0 14 8.5 22.5t21.5 8.5h52q13 0 21.5 -8.5t8.5 -22.5v-538q0 -135 82.5 -213t208.5 -78q127 0 209 77.5t82 213.5v538z" />
    <glyph glyph-name="yacute" unicode="&#xfd;" horiz-adv-x="980" 
d="M506 1247q10 23 35 23h43q17 0 23 -10t-1 -27l-65 -131q-11 -23 -37 -23h-37q-17 0 -23.5 10t0.5 27zM762 918q9 24 37 24h51q36 0 24 -35l-499 -1259q-9 -25 -37 -25h-47q-37 0 -25 35l135 342l-356 907q-12 35 25 35h53q28 0 37 -24l299 -762z" />
    <glyph glyph-name="ydieresis" unicode="&#xff;" horiz-adv-x="980" 
d="M301 1069q-27 0 -47.5 19.5t-20.5 48.5q0 28 20.5 46.5t47.5 18.5q26 0 46 -18.5t20 -46.5t-20 -48t-46 -20zM662 1069q-27 0 -47.5 19.5t-20.5 48.5q0 28 20.5 46.5t47.5 18.5q26 0 45.5 -18.5t19.5 -46.5q0 -29 -19.5 -48.5t-45.5 -19.5zM762 918q9 24 37 24h51
q36 0 24 -35l-499 -1259q-9 -25 -37 -25h-47q-37 0 -25 35l135 342l-356 907q-12 35 25 35h53q28 0 37 -24l299 -762z" />
    <glyph glyph-name="Amacron" unicode="&#x100;" horiz-adv-x="1314" 
d="M477 1503q0 13 8.5 22t22.5 9h278q14 0 22.5 -9t8.5 -22v-20q0 -13 -8.5 -22t-22.5 -9h-278q-14 0 -22.5 9t-8.5 22v20zM1143 0q-28 0 -37 25l-139 340h-639l-140 -340q-9 -25 -36 -25h-62q-36 0 -24 35l526 1272q9 24 37 24h37q27 0 36 -24l527 -1272q12 -35 -25 -35
h-61zM373 475h549l-275 672z" />
    <glyph glyph-name="amacron" unicode="&#x101;" 
d="M428 1128q0 14 9 22.5t22 8.5h278q13 0 22 -8.5t9 -22.5v-20q0 -14 -9 -22.5t-22 -8.5h-278q-13 0 -22 8.5t-9 22.5v20zM928 911q0 14 8.5 22.5t21.5 8.5h52q13 0 21.5 -8.5t8.5 -22.5v-880q0 -14 -8.5 -22.5t-21.5 -8.5h-52q-13 0 -21.5 8.5t-8.5 22.5v166
q-57 -100 -154 -156.5t-223 -56.5q-203 0 -333 137.5t-130 349.5q0 213 129.5 349t333.5 136q126 0 223 -56t154 -155v166zM563 92q164 0 264.5 106t100.5 273t-100.5 273t-264.5 106q-163 0 -264.5 -106t-101.5 -273t101.5 -273t264.5 -106z" />
    <glyph glyph-name="Abreve" unicode="&#x102;" horiz-adv-x="1314" 
d="M788 1626q31 0 31 -2v-4q0 -76 -49 -123t-123 -47q-75 0 -125.5 47.5t-50.5 122.5q0 6 31 6h16q31 0 31 -2v-4q0 -41 27 -69.5t71 -28.5q43 0 69.5 28.5t26.5 69.5q0 6 31 6h14zM1143 0q-28 0 -37 25l-139 340h-639l-140 -340q-9 -25 -36 -25h-62q-36 0 -24 35l526 1272
q9 24 37 24h37q27 0 36 -24l527 -1272q12 -35 -25 -35h-61zM373 475h549l-275 672z" />
    <glyph glyph-name="abreve" unicode="&#x103;" 
d="M739 1249q31 0 31 -2v-4q0 -76 -49 -123t-123 -47q-75 0 -125.5 47.5t-50.5 122.5q0 6 31 6h16q31 0 31 -2v-4q0 -41 27 -69.5t71 -28.5q43 0 69.5 28.5t26.5 69.5q0 6 31 6h14zM928 911q0 14 8.5 22.5t21.5 8.5h52q13 0 21.5 -8.5t8.5 -22.5v-880q0 -14 -8.5 -22.5
t-21.5 -8.5h-52q-13 0 -21.5 8.5t-8.5 22.5v166q-57 -100 -154 -156.5t-223 -56.5q-203 0 -333 137.5t-130 349.5q0 213 129.5 349t333.5 136q126 0 223 -56t154 -155v166zM563 92q164 0 264.5 106t100.5 273t-100.5 273t-264.5 106q-163 0 -264.5 -106t-101.5 -273
t101.5 -273t264.5 -106z" />
    <glyph glyph-name="Aogonek" unicode="&#x104;" horiz-adv-x="1314" 
d="M1190 -145q37 6 37 -25v-14q0 -27 -29 -33q-71 -11 -113.5 19t-42.5 79q0 37 22 70.5t54 56.5q-8 5 -12 17l-139 340h-639l-140 -340q-9 -25 -36 -25h-62q-36 0 -24 35l526 1272q9 24 37 24h37q27 0 36 -24l527 -1272q12 -35 -25 -35h-22q-2 -4 -8 -10q-50 -50 -50 -96
q0 -22 16 -34t50 -5zM373 475h549l-275 672z" />
    <glyph glyph-name="aogonek" unicode="&#x105;" 
d="M1016 -156q37 6 37 -24v-15q0 -26 -29 -32q-71 -11 -113.5 19t-42.5 79q0 73 80 131q-20 3 -20 29v166q-57 -100 -154 -156.5t-223 -56.5q-203 0 -333 137.5t-130 349.5q0 213 129.5 349t333.5 136q126 0 223 -56t154 -155v166q0 14 8.5 22.5t21.5 8.5h52q13 0 21.5 -8.5
t8.5 -22.5v-880q0 -13 -8 -22t-20 -9q0 -7 -13 -20q-49 -49 -49 -97q0 -22 16 -34t50 -5zM563 92q164 0 264.5 106t100.5 273t-100.5 273t-264.5 106q-163 0 -264.5 -106t-101.5 -273t101.5 -273t264.5 -106z" />
    <glyph glyph-name="Cacute" unicode="&#x106;" horiz-adv-x="1406" 
d="M778 1626q10 23 35 23h43q17 0 23.5 -10t-0.5 -27l-66 -131q-11 -23 -37 -23h-37q-17 0 -23 10t1 27zM1225 1028q-25 -16 -43 8q-73 90 -182 141.5t-242 51.5q-244 0 -395.5 -158t-151.5 -405t151.5 -405.5t395.5 -158.5q132 0 241.5 52.5t182.5 142.5q17 22 43 6l47 -33
q26 -16 6 -43q-88 -116 -221.5 -179.5t-298.5 -63.5q-194 0 -346.5 88t-236 243t-83.5 351t83.5 351t236 243t346.5 88q165 0 298.5 -64t221.5 -180q20 -27 -6 -43z" />
    <glyph glyph-name="cacute" unicode="&#x107;" horiz-adv-x="1054" 
d="M590 1247q10 23 35 23h43q17 0 23 -10t-1 -27l-65 -131q-11 -23 -37 -23h-37q-17 0 -23.5 10t0.5 27zM889 725q-23 -20 -43 4q-106 121 -281 121q-164 0 -265 -106t-101 -273t101 -273t265 -106q177 0 281 119q18 22 43 4l33 -22q26 -16 6 -43q-64 -79 -157.5 -122.5
t-207.5 -43.5q-211 0 -343 136.5t-132 350.5q0 213 132 349t343 136q114 0 207.5 -42.5t157.5 -120.5q17 -23 -6 -43z" />
    <glyph glyph-name="Cdotaccent" unicode="&#x10a;" horiz-adv-x="1406" 
d="M754 1448q-27 0 -47.5 19.5t-20.5 48.5q0 28 20.5 46.5t47.5 18.5q26 0 45.5 -18.5t19.5 -46.5t-19.5 -48t-45.5 -20zM1225 1028q-25 -16 -43 8q-73 90 -182 141.5t-242 51.5q-244 0 -395.5 -158t-151.5 -405t151.5 -405.5t395.5 -158.5q132 0 241.5 52.5t182.5 142.5
q17 22 43 6l47 -33q26 -16 6 -43q-88 -116 -221.5 -179.5t-298.5 -63.5q-194 0 -346.5 88t-236 243t-83.5 351t83.5 351t236 243t346.5 88q165 0 298.5 -64t221.5 -180q20 -27 -6 -43z" />
    <glyph glyph-name="cdotaccent" unicode="&#x10b;" horiz-adv-x="1054" 
d="M565 1069q-27 0 -47 19.5t-20 48.5q0 28 20 46.5t47 18.5q26 0 46 -18.5t20 -46.5t-20 -48t-46 -20zM889 725q-23 -20 -43 4q-106 121 -281 121q-164 0 -265 -106t-101 -273t101 -273t265 -106q177 0 281 119q18 22 43 4l33 -22q26 -16 6 -43q-64 -79 -157.5 -122.5
t-207.5 -43.5q-211 0 -343 136.5t-132 350.5q0 213 132 349t343 136q114 0 207.5 -42.5t157.5 -120.5q17 -23 -6 -43z" />
    <glyph glyph-name="Ccaron" unicode="&#x10c;" horiz-adv-x="1406" 
d="M823 1628q12 21 37 21h37q18 0 24 -11t-3 -26l-84 -133q-12 -21 -37 -21h-90q-25 0 -37 21l-84 133q-9 15 -3.5 26t23.5 11h37q25 0 37 -21l72 -117zM1225 1028q-25 -16 -43 8q-73 90 -182 141.5t-242 51.5q-244 0 -395.5 -158t-151.5 -405t151.5 -405.5t395.5 -158.5
q132 0 241.5 52.5t182.5 142.5q17 22 43 6l47 -33q26 -16 6 -43q-88 -116 -221.5 -179.5t-298.5 -63.5q-194 0 -346.5 88t-236 243t-83.5 351t83.5 351t236 243t346.5 88q165 0 298.5 -64t221.5 -180q20 -27 -6 -43z" />
    <glyph glyph-name="ccaron" unicode="&#x10d;" horiz-adv-x="1054" 
d="M635 1249q12 21 37 21h37q18 0 23.5 -11t-3.5 -26l-84 -133q-12 -21 -37 -21h-90q-25 0 -37 21l-84 133q-9 15 -3 26t24 11h37q25 0 37 -21l71 -116zM889 725q-23 -20 -43 4q-106 121 -281 121q-164 0 -265 -106t-101 -273t101 -273t265 -106q177 0 281 119q18 22 43 4
l33 -22q26 -16 6 -43q-64 -79 -157.5 -122.5t-207.5 -43.5q-211 0 -343 136.5t-132 350.5q0 213 132 349t343 136q114 0 207.5 -42.5t157.5 -120.5q17 -23 -6 -43z" />
    <glyph glyph-name="Dcaron" unicode="&#x10e;" horiz-adv-x="1331" 
d="M602 1626q12 21 37 21h37q18 0 23.5 -11t-3.5 -26l-84 -133q-12 -21 -37 -21h-90q-24 0 -36 21l-84 133q-9 15 -3.5 26t23.5 11h37q25 0 37 -21l71 -117zM551 1331q294 0 475.5 -184t181.5 -481t-181.5 -481.5t-475.5 -184.5h-408q-13 0 -21.5 8.5t-8.5 22.5v1269
q0 14 8.5 22.5t21.5 8.5h408zM551 117q110 0 207 36.5t171.5 104.5t117.5 173.5t43 234.5t-43 235t-117.5 174t-171.5 105t-207 37h-320v-1100h320z" />
    <glyph glyph-name="dcaron" unicode="&#x10f;" 
d="M1057 1624q12 21 37 21h36q18 0 24 -11t-3 -26l-84 -133q-12 -21 -37 -21h-90q-25 0 -37 21l-84 133q-9 15 -3 26t24 11h37q24 0 36 -21l72 -117zM928 1300q0 14 8.5 22.5t21.5 8.5h52q13 0 21.5 -8.5t8.5 -22.5v-1269q0 -14 -8.5 -22.5t-21.5 -8.5h-52q-13 0 -21.5 8.5
t-8.5 22.5v166q-57 -100 -154 -156.5t-223 -56.5q-203 0 -333 137.5t-130 349.5q0 213 129.5 349t333.5 136q126 0 223 -56t154 -155v555zM563 92q164 0 264.5 106t100.5 273t-100.5 273t-264.5 106q-163 0 -264.5 -106t-101.5 -273t101.5 -273t264.5 -106z" />
    <glyph glyph-name="Dcroat" unicode="&#x110;" horiz-adv-x="1333" 
d="M551 1331q195 0 345 -83.5t232 -234.5t82 -347t-82 -347t-232 -235t-345 -84h-408q-13 0 -21.5 8.5t-8.5 22.5v573h-80q-13 0 -22 9t-9 22v49q0 14 9 22.5t22 8.5h80v585q0 14 8.5 22.5t21.5 8.5h408zM553 117q110 0 207.5 37t172 105t118 173.5t43.5 233.5
q-1 128 -44.5 233.5t-118 173.5t-171.5 104.5t-207 36.5h-322v-499h258q13 0 22 -8.5t9 -22.5v-49q0 -13 -9 -22t-22 -9h-258v-487h322z" />
    <glyph glyph-name="Emacron" unicode="&#x112;" horiz-adv-x="1105" 
d="M383 1503q0 13 8.5 22t22.5 9h278q14 0 22.5 -9t8.5 -22v-20q0 -13 -8.5 -22t-22.5 -9h-278q-14 0 -22.5 9t-8.5 22v20zM963 1251q0 -13 -8.5 -21.5t-22.5 -8.5h-701v-502h658q13 0 22 -8.5t9 -22.5v-49q0 -13 -9 -22t-22 -9h-658v-497h701q14 0 22.5 -8.5t8.5 -22.5v-49
q0 -13 -8.5 -22t-22.5 -9h-789q-13 0 -21.5 8.5t-8.5 22.5v1269q0 14 8.5 22.5t21.5 8.5h789q14 0 22.5 -8.5t8.5 -22.5v-49z" />
    <glyph glyph-name="emacron" unicode="&#x113;" horiz-adv-x="1128" 
d="M381 1128q0 14 8.5 22.5t22.5 8.5h278q14 0 22.5 -8.5t8.5 -22.5v-20q0 -14 -8.5 -22.5t-22.5 -8.5h-278q-14 0 -22.5 8.5t-8.5 22.5v20zM551 958q198 0 324 -137.5t126 -349.5v-8q0 -14 -8.5 -22.5t-21.5 -8.5h-774q12 -158 112 -254t254 -96q189 0 295 131q19 26 43 8
l31 -20q26 -16 6 -43q-64 -83 -160.5 -129.5t-214.5 -46.5q-212 0 -343.5 138t-131.5 351q0 214 127 350.5t336 136.5zM551 862q-153 0 -247.5 -95t-106.5 -253h698q-12 155 -105 251.5t-239 96.5z" />
    <glyph glyph-name="Edotaccent" unicode="&#x116;" horiz-adv-x="1105" 
d="M555 1444q-27 0 -47.5 19.5t-20.5 47.5t20.5 47t47.5 19q26 0 46 -19t20 -47t-20 -47.5t-46 -19.5zM963 1251q0 -13 -8.5 -21.5t-22.5 -8.5h-701v-502h658q13 0 22 -8.5t9 -22.5v-49q0 -13 -9 -22t-22 -9h-658v-497h701q14 0 22.5 -8.5t8.5 -22.5v-49q0 -13 -8.5 -22
t-22.5 -9h-789q-13 0 -21.5 8.5t-8.5 22.5v1269q0 14 8.5 22.5t21.5 8.5h789q14 0 22.5 -8.5t8.5 -22.5v-49z" />
    <glyph glyph-name="edotaccent" unicode="&#x117;" horiz-adv-x="1128" 
d="M553 1069q-27 0 -47.5 19.5t-20.5 48.5q0 28 20.5 46.5t47.5 18.5q26 0 45.5 -18.5t19.5 -46.5q0 -29 -20 -48.5t-45 -19.5zM551 958q198 0 324 -137.5t126 -349.5v-8q0 -14 -8.5 -22.5t-21.5 -8.5h-774q12 -158 112 -254t254 -96q189 0 295 131q19 26 43 8l31 -20
q26 -16 6 -43q-64 -83 -160.5 -129.5t-214.5 -46.5q-212 0 -343.5 138t-131.5 351q0 214 127 350.5t336 136.5zM551 862q-153 0 -247.5 -95t-106.5 -253h698q-12 155 -105 251.5t-239 96.5z" />
    <glyph glyph-name="Eogonek" unicode="&#x118;" horiz-adv-x="1105" 
d="M932 1221h-701v-502h658q13 0 22 -8.5t9 -22.5v-49q0 -13 -9 -22t-22 -9h-658v-497h701q14 0 22.5 -8.5t8.5 -22.5v-49q0 -13 -8.5 -22t-22.5 -9h-14q3 -10 -13 -23q-49 -49 -49 -96q0 -22 16 -34t50 -5q36 6 36 -24v-15q0 -26 -28 -32q-71 -11 -113.5 19t-42.5 79
q0 40 24.5 75t57.5 56h-713q-13 0 -21.5 8.5t-8.5 22.5v1269q0 14 8.5 22.5t21.5 8.5h789q14 0 22.5 -8.5t8.5 -22.5v-49q0 -13 -8.5 -21.5t-22.5 -8.5z" />
    <glyph glyph-name="eogonek" unicode="&#x119;" horiz-adv-x="1128" 
d="M551 958q198 0 324 -137.5t126 -349.5v-8q0 -14 -8.5 -22.5t-21.5 -8.5h-774q12 -158 112 -254t254 -96q189 0 295 131q19 26 43 8l31 -20q26 -16 6 -43q-61 -78 -150 -124t-196 -52q4 -11 -12 -23q-50 -50 -50 -96q0 -22 16 -34t50 -5q37 6 37 -25v-14q0 -27 -29 -33
q-71 -11 -113 19t-42 79q0 40 24 75.5t57 56.5h2q-199 12 -321.5 148.5t-122.5 340.5q0 214 127 350.5t336 136.5zM197 514h698q-12 155 -105 251.5t-239 96.5q-153 0 -247.5 -95t-106.5 -253z" />
    <glyph glyph-name="Ecaron" unicode="&#x11a;" horiz-adv-x="1105" 
d="M625 1624q12 21 37 21h36q18 0 24 -11t-3 -26l-84 -133q-12 -21 -37 -21h-90q-25 0 -37 21l-84 133q-9 15 -3 26t24 11h36q25 0 37 -21l72 -117zM963 1251q0 -13 -8.5 -21.5t-22.5 -8.5h-701v-502h658q13 0 22 -8.5t9 -22.5v-49q0 -13 -9 -22t-22 -9h-658v-497h701
q14 0 22.5 -8.5t8.5 -22.5v-49q0 -13 -8.5 -22t-22.5 -9h-789q-13 0 -21.5 8.5t-8.5 22.5v1269q0 14 8.5 22.5t21.5 8.5h789q14 0 22.5 -8.5t8.5 -22.5v-49z" />
    <glyph glyph-name="ecaron" unicode="&#x11b;" horiz-adv-x="1128" 
d="M623 1249q12 21 36 21h37q18 0 24 -11t-3 -26l-84 -133q-12 -21 -37 -21h-90q-25 0 -37 21l-84 133q-9 15 -3 26t24 11h36q25 0 37 -21l72 -116zM551 958q198 0 324 -137.5t126 -349.5v-8q0 -14 -8.5 -22.5t-21.5 -8.5h-774q12 -158 112 -254t254 -96q189 0 295 131
q19 26 43 8l31 -20q26 -16 6 -43q-64 -83 -160.5 -129.5t-214.5 -46.5q-212 0 -343.5 138t-131.5 351q0 214 127 350.5t336 136.5zM551 862q-153 0 -247.5 -95t-106.5 -253h698q-12 155 -105 251.5t-239 96.5z" />
    <glyph glyph-name="Gbreve" unicode="&#x11e;" horiz-adv-x="1529" 
d="M905 1626q31 0 31 -2v-4q0 -76 -49 -123t-123 -47q-75 0 -125.5 47.5t-50.5 122.5q0 6 30 6h17q31 0 31 -2v-4q0 -41 27 -69.5t71 -28.5q43 0 69.5 28.5t26.5 69.5q0 6 31 6h14zM1397 635q-9 -289 -182 -470t-457 -181q-194 0 -346.5 88t-236 243t-83.5 351t83.5 351
t236 243t346.5 88q164 0 297 -63.5t223 -178.5q19 -26 -8 -43l-47 -33q-24 -18 -43 8q-74 92 -182.5 141.5t-239.5 49.5q-244 0 -395.5 -158t-151.5 -405t151.5 -405.5t395.5 -158.5q213 0 350.5 128t159.5 341h-484q-13 0 -21.5 8.5t-8.5 22.5v49q0 14 8.5 22.5t21.5 8.5
h582q14 0 22.5 -9t8.5 -22v-16z" />
    <glyph glyph-name="gbreve" unicode="&#x11f;" 
d="M711 1249q30 0 30 -2v-4q0 -76 -49 -123t-123 -47q-75 0 -125.5 47.5t-50.5 122.5q0 6 31 6h16q31 0 31 -2v-4q0 -41 27 -69.5t71 -28.5q43 0 70 28.5t27 69.5q0 6 30 6h15zM928 911q0 14 8.5 22.5t21.5 8.5h52q13 0 21.5 -8.5t8.5 -22.5v-839q0 -204 -134.5 -330.5
t-356.5 -126.5q-226 0 -367 141q-21 21 4 43l31 27q21 18 43 -4q115 -109 289 -109q104 0 188.5 39.5t137.5 122.5t53 197v125q-57 -100 -154 -156.5t-223 -56.5q-203 0 -333 137.5t-130 349.5q0 211 130 348t333 137q126 0 223 -56t154 -155v166zM563 92q164 0 264.5 106
t100.5 273t-100.5 273t-264.5 106t-265 -106t-101 -273t101 -273t265 -106z" />
    <glyph glyph-name="Gdotaccent" unicode="&#x120;" horiz-adv-x="1529" 
d="M766 1444q-27 0 -47.5 19.5t-20.5 47.5t20.5 47t47.5 19q26 0 45.5 -19t19.5 -47t-19.5 -47.5t-45.5 -19.5zM1397 635q-9 -289 -182 -470t-457 -181q-194 0 -346.5 88t-236 243t-83.5 351t83.5 351t236 243t346.5 88q164 0 297 -63.5t223 -178.5q19 -26 -8 -43l-47 -33
q-24 -18 -43 8q-74 92 -182.5 141.5t-239.5 49.5q-244 0 -395.5 -158t-151.5 -405t151.5 -405.5t395.5 -158.5q213 0 350.5 128t159.5 341h-484q-13 0 -21.5 8.5t-8.5 22.5v49q0 14 8.5 22.5t21.5 8.5h582q14 0 22.5 -9t8.5 -22v-16z" />
    <glyph glyph-name="gdotaccent" unicode="&#x121;" 
d="M571 1069q-27 0 -47 19.5t-20 48.5q0 28 20 46.5t47 18.5q26 0 46 -18.5t20 -46.5t-20 -48t-46 -20zM928 911q0 14 8.5 22.5t21.5 8.5h52q13 0 21.5 -8.5t8.5 -22.5v-839q0 -204 -134.5 -330.5t-356.5 -126.5q-226 0 -367 141q-21 21 4 43l31 27q21 18 43 -4
q115 -109 289 -109q104 0 188.5 39.5t137.5 122.5t53 197v125q-57 -100 -154 -156.5t-223 -56.5q-203 0 -333 137.5t-130 349.5q0 211 130 348t333 137q126 0 223 -56t154 -155v166zM563 92q164 0 264.5 106t100.5 273t-100.5 273t-264.5 106t-265 -106t-101 -273t101 -273
t265 -106z" />
    <glyph glyph-name="uni0122" unicode="&#x122;" horiz-adv-x="1529" 
d="M1397 635q-9 -289 -182 -470t-457 -181q-194 0 -346.5 88t-236 243t-83.5 351t83.5 351t236 243t346.5 88q164 0 297 -63.5t223 -178.5q19 -26 -8 -43l-47 -33q-24 -18 -43 8q-74 92 -182.5 141.5t-239.5 49.5q-244 0 -395.5 -158t-151.5 -405t151.5 -405.5t395.5 -158.5
q213 0 350.5 128t159.5 341h-484q-13 0 -21.5 8.5t-8.5 22.5v49q0 14 8.5 22.5t21.5 8.5h582q14 0 22.5 -9t8.5 -22v-16zM707 -152q10 23 34 23h41q17 0 24 -11t-1 -26l-68 -129q-11 -22 -37 -22h-32q-18 0 -24 9.5t1 26.5z" />
    <glyph glyph-name="uni0123" unicode="&#x123;" 
d="M600 1253q12 0 15.5 -8t-5.5 -20q-11 -11 -20 -29q45 -14 45 -61q0 -26 -18 -45t-48 -19t-48.5 19t-18.5 45q0 40 51 100q13 18 37 18h10zM928 911q0 14 8.5 22.5t21.5 8.5h52q13 0 21.5 -8.5t8.5 -22.5v-839q0 -204 -134.5 -330.5t-356.5 -126.5q-226 0 -367 141
q-21 21 4 43l31 27q21 18 43 -4q115 -109 289 -109q104 0 188.5 39.5t137.5 122.5t53 197v125q-57 -100 -154 -156.5t-223 -56.5q-203 0 -333 137.5t-130 349.5q0 211 130 348t333 137q126 0 223 -56t154 -155v166zM563 92q164 0 264.5 106t100.5 273t-100.5 273t-264.5 106
t-265 -106t-101 -273t101 -273t265 -106z" />
    <glyph glyph-name="Itilde" unicode="&#x128;" horiz-adv-x="385" 
d="M-68 1450q-15 0 -23 9t-5 24q11 63 51.5 102t99.5 39q78 0 138 -68q16 -17 25.5 -26t28.5 -18t40 -9q64 0 78 68q6 28 32 28h15q33 0 30 -32q-9 -64 -49 -102t-106 -38q-80 0 -140 68q-17 18 -27.5 27.5t-27.5 17.5t-35 8q-30 0 -49 -19.5t-26 -49.5q-10 -29 -33 -29h-17
zM231 31q0 -14 -8.5 -22.5t-21.5 -8.5h-58q-13 0 -21.5 8.5t-8.5 22.5v1269q0 14 8.5 22.5t21.5 8.5h58q13 0 21.5 -8.5t8.5 -22.5v-1269z" />
    <glyph glyph-name="itilde" unicode="&#x129;" horiz-adv-x="409" 
d="M-55 1075q-15 0 -23.5 9t-5.5 24q11 63 52 102t100 39q78 0 137 -67q16 -17 25.5 -26t28.5 -18.5t40 -9.5q64 0 78 68q6 29 33 29h14q15 0 23.5 -9t7.5 -24q-9 -63 -49.5 -101t-106.5 -38q-80 0 -139 67q-17 18 -27.5 27.5t-27.5 18t-35 8.5q-30 0 -49.5 -20t-26.5 -50
q-10 -29 -33 -29h-16zM242 31q0 -13 -9 -22t-22 -9h-51q-14 0 -22.5 9t-8.5 22v880q0 13 8.5 22t22.5 9h51q13 0 22 -9t9 -22v-880z" />
    <glyph glyph-name="Imacron" unicode="&#x12a;" horiz-adv-x="385" 
d="M2 1503q0 13 9 22t22 9h278q13 0 22 -9t9 -22v-20q0 -13 -9 -22t-22 -9h-278q-13 0 -22 9t-9 22v20zM231 31q0 -14 -8.5 -22.5t-21.5 -8.5h-58q-13 0 -21.5 8.5t-8.5 22.5v1269q0 14 8.5 22.5t21.5 8.5h58q13 0 21.5 -8.5t8.5 -22.5v-1269z" />
    <glyph glyph-name="imacron" unicode="&#x12b;" horiz-adv-x="409" 
d="M14 1128q0 14 9 22.5t22 8.5h279q13 0 21.5 -8.5t8.5 -22.5v-20q0 -14 -8.5 -22.5t-21.5 -8.5h-279q-13 0 -22 8.5t-9 22.5v20zM242 31q0 -13 -9 -22t-22 -9h-51q-14 0 -22.5 9t-8.5 22v880q0 13 8.5 22t22.5 9h51q13 0 22 -9t9 -22v-880z" />
    <glyph glyph-name="Iogonek" unicode="&#x12e;" horiz-adv-x="385" 
d="M205 -158q37 6 37 -24v-15q0 -26 -29 -32q-71 -11 -113.5 19t-42.5 79q0 40 24.5 75t57.5 56q-26 3 -26 31v1269q0 14 8.5 22.5t21.5 8.5h58q13 0 21.5 -8.5t8.5 -22.5v-1269q0 -14 -8.5 -22.5t-21.5 -8.5q3 -10 -13 -23q-49 -49 -49 -96q0 -22 16 -34t50 -5z" />
    <glyph glyph-name="iogonek" unicode="&#x12f;" horiz-adv-x="409" 
d="M186 1069q-27 0 -47 19.5t-20 48.5q0 28 20 46.5t47 18.5q26 0 46 -18.5t20 -46.5t-20 -48t-46 -20zM215 -160q37 6 37 -24v-15q0 -26 -29 -32q-71 -11 -113 19t-42 79q0 40 24.5 75t57.5 56q1 0 2 1t2 1q-25 7 -25 31v880q0 13 8.5 22t22.5 9h51q13 0 22 -9t9 -22v-880
q0 -13 -9 -22t-22 -9h-2q6 -9 -10 -25q-49 -49 -49 -96q0 -22 15.5 -34t49.5 -5z" />
    <glyph glyph-name="Idotaccent" unicode="&#x130;" horiz-adv-x="385" 
d="M174 1444q-27 0 -47.5 19.5t-20.5 47.5t20.5 47t47.5 19q26 0 46 -19t20 -47t-20 -47.5t-46 -19.5zM231 31q0 -14 -8.5 -22.5t-21.5 -8.5h-58q-13 0 -21.5 8.5t-8.5 22.5v1269q0 14 8.5 22.5t21.5 8.5h58q13 0 21.5 -8.5t8.5 -22.5v-1269z" />
    <glyph glyph-name="dotlessi" unicode="&#x131;" horiz-adv-x="409" 
d="M242 31q0 -13 -9 -22t-22 -9h-51q-14 0 -22.5 9t-8.5 22v880q0 13 8.5 22t22.5 9h51q13 0 22 -9t9 -22v-880z" />
    <glyph glyph-name="uni0136" unicode="&#x136;" horiz-adv-x="1071" 
d="M963 37q13 -15 8 -26t-25 -11h-69q-23 0 -39 16l-607 607v-592q0 -14 -8.5 -22.5t-21.5 -8.5h-58q-13 0 -21.5 8.5t-8.5 22.5v1269q0 14 8.5 22.5t21.5 8.5h58q13 0 21.5 -8.5t8.5 -22.5v-589l582 604q13 16 39 16h68q20 0 25 -11.5t-9 -25.5l-600 -628zM463 -150
q10 23 35 23h41q17 0 23.5 -11t-1.5 -26l-67 -129q-11 -22 -37 -22h-33q-18 0 -24 9.5t1 26.5z" />
    <glyph glyph-name="uni0137" unicode="&#x137;" horiz-adv-x="927" 
d="M815 37q15 -15 10.5 -26t-24.5 -11h-62q-25 0 -39 14l-475 451v-434q0 -14 -8.5 -22.5t-21.5 -8.5h-52q-13 0 -21.5 8.5t-8.5 22.5v1269q0 14 8.5 22.5t21.5 8.5h52q13 0 21.5 -8.5t8.5 -22.5v-774l432 402q14 14 39 14h62q20 0 24.5 -11t-10.5 -26l-440 -409zM401 -150
q10 23 35 23h41q17 0 24 -11t-1 -26l-68 -129q-11 -22 -37 -22h-33q-17 0 -23 9.5t1 26.5z" />
    <glyph glyph-name="Lacute" unicode="&#x139;" horiz-adv-x="1071" 
d="M199 1622q10 23 34 23h43q17 0 23.5 -10t-0.5 -27l-66 -131q-11 -23 -36 -23h-37q-17 0 -23.5 10t0.5 27zM231 111h697q13 0 21.5 -8.5t8.5 -22.5v-49q0 -14 -8.5 -22.5t-21.5 -8.5h-785q-13 0 -21.5 8.5t-8.5 22.5v1269q0 14 8.5 22.5t21.5 8.5h58q13 0 21.5 -8.5
t8.5 -22.5v-1189z" />
    <glyph glyph-name="lacute" unicode="&#x13a;" horiz-adv-x="378" 
d="M197 1622q10 23 34 23h43q17 0 23.5 -10t-0.5 -27l-66 -131q-11 -23 -36 -23h-37q-17 0 -23.5 10t0.5 27zM225 31q0 -14 -8.5 -22.5t-21.5 -8.5h-52q-13 0 -21.5 8.5t-8.5 22.5v1269q0 14 8.5 22.5t21.5 8.5h52q13 0 21.5 -8.5t8.5 -22.5v-1269z" />
    <glyph glyph-name="uni013B" unicode="&#x13b;" horiz-adv-x="1071" 
d="M231 111h697q13 0 21.5 -8.5t8.5 -22.5v-49q0 -14 -8.5 -22.5t-21.5 -8.5h-785q-13 0 -21.5 8.5t-8.5 22.5v1269q0 14 8.5 22.5t21.5 8.5h58q13 0 21.5 -8.5t8.5 -22.5v-1189zM477 -150q10 23 35 23h41q17 0 23.5 -11t-1.5 -26l-67 -129q-11 -22 -37 -22h-33
q-17 0 -23 9.5t1 26.5z" />
    <glyph glyph-name="uni013C" unicode="&#x13c;" horiz-adv-x="378" 
d="M225 31q0 -14 -8.5 -22.5t-21.5 -8.5h-52q-13 0 -21.5 8.5t-8.5 22.5v1269q0 14 8.5 22.5t21.5 8.5h52q13 0 21.5 -8.5t8.5 -22.5v-1269zM111 -150q10 23 34 23h41q17 0 24 -11t-1 -26l-68 -129q-11 -22 -37 -22h-32q-18 0 -24 9.5t1 26.5z" />
    <glyph glyph-name="Lcaron" unicode="&#x13d;" horiz-adv-x="1071" 
d="M242 1624q12 21 37 21h36q18 0 24 -11t-3 -26l-84 -133q-12 -21 -37 -21h-90q-25 0 -37 21l-84 133q-9 15 -3 26t24 11h36q25 0 37 -21l72 -117zM231 111h697q13 0 21.5 -8.5t8.5 -22.5v-49q0 -14 -8.5 -22.5t-21.5 -8.5h-785q-13 0 -21.5 8.5t-8.5 22.5v1269
q0 14 8.5 22.5t21.5 8.5h58q13 0 21.5 -8.5t8.5 -22.5v-1189z" />
    <glyph glyph-name="lcaron" unicode="&#x13e;" horiz-adv-x="378" 
d="M240 1624q12 21 36 21h37q18 0 24 -11t-3 -26l-84 -133q-12 -21 -37 -21h-90q-25 0 -37 21l-84 133q-9 15 -3 26t24 11h36q25 0 37 -21l72 -117zM225 31q0 -14 -8.5 -22.5t-21.5 -8.5h-52q-13 0 -21.5 8.5t-8.5 22.5v1269q0 14 8.5 22.5t21.5 8.5h52q13 0 21.5 -8.5
t8.5 -22.5v-1269z" />
    <glyph glyph-name="Lslash" unicode="&#x141;" horiz-adv-x="1069" 
d="M231 111h695q13 0 21.5 -8.5t8.5 -22.5v-49q0 -14 -8.5 -22.5t-21.5 -8.5h-783q-13 0 -21.5 8.5t-8.5 22.5v608l-76 -27q-15 -6 -25 1t-10 24v51q0 26 25 35l86 31v546q0 14 8.5 22.5t21.5 8.5h58q13 0 21.5 -8.5t8.5 -22.5v-503l258 92q15 6 25 -1t10 -24v-49
q0 -26 -24 -35l-269 -98v-571z" />
    <glyph glyph-name="lslash" unicode="&#x142;" horiz-adv-x="378" 
d="M322 803q15 6 24.5 -1t9.5 -24v-35q0 -25 -24 -34l-107 -39v-639q0 -14 -8.5 -22.5t-21.5 -8.5h-52q-13 0 -21.5 8.5t-8.5 22.5v600l-72 -27q-15 -6 -25 1t-10 24v35q0 25 25 34l82 31v571q0 14 8.5 22.5t21.5 8.5h52q13 0 21.5 -8.5t8.5 -22.5v-532z" />
    <glyph glyph-name="Nacute" unicode="&#x143;" horiz-adv-x="1271" 
d="M659 1622q10 23 35 23h43q17 0 23.5 -10t-0.5 -27l-66 -131q-12 -23 -37 -23h-36q-17 0 -23.5 10t0.5 27zM999 1300q0 14 8.5 22.5t22.5 8.5h57q13 0 22 -8.5t9 -22.5v-1269q0 -13 -9 -22t-22 -9h-61q-26 0 -39 20l-754 1108v-1097q0 -14 -8.5 -22.5t-21.5 -8.5h-58
q-13 0 -21.5 8.5t-8.5 22.5v1269q0 14 8.5 22.5t21.5 8.5h60q26 0 39 -20l755 -1110v1099z" />
    <glyph glyph-name="nacute" unicode="&#x144;" horiz-adv-x="1073" 
d="M543 1247q10 23 35 23h43q17 0 23 -10t-1 -27l-65 -131q-12 -23 -37 -23h-37q-17 0 -23.5 10t0.5 27zM541 956q75 0 142 -22.5t120.5 -67t85 -118t31.5 -166.5v-551q0 -13 -9 -22t-22 -9h-51q-14 0 -22.5 9t-8.5 22v536q0 135 -82.5 213t-208.5 78q-127 0 -209 -77.5
t-82 -213.5v-536q0 -14 -8.5 -22.5t-21.5 -8.5h-52q-13 0 -21.5 8.5t-8.5 22.5v880q0 14 8.5 22.5t21.5 8.5h52q13 0 21.5 -8.5t8.5 -22.5v-110q51 77 134.5 116t181.5 39z" />
    <glyph glyph-name="uni0145" unicode="&#x145;" horiz-adv-x="1271" 
d="M999 1300q0 14 8.5 22.5t22.5 8.5h57q13 0 22 -8.5t9 -22.5v-1269q0 -13 -9 -22t-22 -9h-61q-26 0 -39 20l-754 1108v-1097q0 -14 -8.5 -22.5t-21.5 -8.5h-58q-13 0 -21.5 8.5t-8.5 22.5v1269q0 14 8.5 22.5t21.5 8.5h60q26 0 39 -20l755 -1110v1099zM575 -150
q10 23 35 23h41q17 0 24 -11t-1 -26l-68 -129q-11 -22 -37 -22h-32q-18 0 -24 9.5t1 26.5z" />
    <glyph glyph-name="uni0146" unicode="&#x146;" horiz-adv-x="1073" 
d="M541 956q75 0 142 -22.5t120.5 -67t85 -118t31.5 -166.5v-551q0 -13 -9 -22t-22 -9h-51q-14 0 -22.5 9t-8.5 22v536q0 135 -82.5 213t-208.5 78q-127 0 -209 -77.5t-82 -213.5v-536q0 -14 -8.5 -22.5t-21.5 -8.5h-52q-13 0 -21.5 8.5t-8.5 22.5v880q0 14 8.5 22.5
t21.5 8.5h52q13 0 21.5 -8.5t8.5 -22.5v-110q51 77 134.5 116t181.5 39zM459 -150q10 23 35 23h41q17 0 23.5 -11t-1.5 -26l-68 -129q-11 -22 -36 -22h-33q-18 0 -24 9.5t1 26.5z" />
    <glyph glyph-name="Ncaron" unicode="&#x147;" horiz-adv-x="1271" 
d="M705 1624q12 21 36 21h37q18 0 24 -11t-3 -26l-84 -133q-12 -21 -37 -21h-90q-25 0 -37 21l-84 133q-9 15 -3.5 26t23.5 11h37q25 0 37 -21l72 -117zM999 1300q0 14 8.5 22.5t22.5 8.5h57q13 0 22 -8.5t9 -22.5v-1269q0 -13 -9 -22t-22 -9h-61q-26 0 -39 20l-754 1108
v-1097q0 -14 -8.5 -22.5t-21.5 -8.5h-58q-13 0 -21.5 8.5t-8.5 22.5v1269q0 14 8.5 22.5t21.5 8.5h60q26 0 39 -20l755 -1110v1099z" />
    <glyph glyph-name="ncaron" unicode="&#x148;" horiz-adv-x="1073" 
d="M588 1249q12 21 37 21h37q18 0 23.5 -11t-3.5 -26l-84 -133q-12 -21 -37 -21h-90q-25 0 -37 21l-84 133q-9 15 -3 26t24 11h37q24 0 36 -21l72 -116zM541 956q75 0 142 -22.5t120.5 -67t85 -118t31.5 -166.5v-551q0 -13 -9 -22t-22 -9h-51q-14 0 -22.5 9t-8.5 22v536
q0 135 -82.5 213t-208.5 78q-127 0 -209 -77.5t-82 -213.5v-536q0 -14 -8.5 -22.5t-21.5 -8.5h-52q-13 0 -21.5 8.5t-8.5 22.5v880q0 14 8.5 22.5t21.5 8.5h52q13 0 21.5 -8.5t8.5 -22.5v-110q51 77 134.5 116t181.5 39z" />
    <glyph glyph-name="Omacron" unicode="&#x14c;" horiz-adv-x="1544" 
d="M588 1503q0 14 8.5 22.5t21.5 8.5h279q13 0 22 -9t9 -22v-20q0 -13 -9 -22t-22 -9h-279q-13 0 -21.5 8.5t-8.5 22.5v20zM758 -16q-194 0 -346.5 88t-236 243t-83.5 351t83.5 351t236 243t346.5 88t346 -88t234.5 -243t82.5 -351t-82.5 -351t-234.5 -243t-346 -88z
M758 102q245 0 395 158.5t150 405.5t-150 405t-395 158q-244 0 -395.5 -158t-151.5 -405t151.5 -405.5t395.5 -158.5z" />
    <glyph glyph-name="omacron" unicode="&#x14d;" horiz-adv-x="1169" 
d="M395 1128q0 14 8.5 22.5t22.5 8.5h279q13 0 21.5 -8.5t8.5 -22.5v-20q0 -14 -8.5 -22.5t-21.5 -8.5h-279q-14 0 -22.5 8.5t-8.5 22.5v20zM565 -18q-211 0 -344 138.5t-133 350.5q0 213 133 350t344 137t343 -136.5t132 -350.5q0 -213 -132.5 -351t-342.5 -138zM565 92
q161 0 261 107t100 272t-100 272t-261 107t-262.5 -107.5t-101.5 -271.5t101.5 -271.5t262.5 -107.5z" />
    <glyph glyph-name="Ohungarumlaut" unicode="&#x150;" horiz-adv-x="1544" 
d="M645 1622q10 23 35 23h41q19 0 25 -10t-3 -27l-75 -133q-10 -21 -37 -21h-25q-18 0 -24.5 10t0.5 27zM915 1622q10 23 35 23h41q19 0 25.5 -10t-2.5 -27l-76 -133q-10 -21 -37 -21h-24q-18 0 -25 10t0 27zM758 -16q-194 0 -346.5 88t-236 243t-83.5 351t83.5 351t236 243
t346.5 88t346 -88t234.5 -243t82.5 -351t-82.5 -351t-234.5 -243t-346 -88zM758 102q245 0 395 158.5t150 405.5t-150 405t-395 158q-244 0 -395.5 -158t-151.5 -405t151.5 -405.5t395.5 -158.5z" />
    <glyph glyph-name="ohungarumlaut" unicode="&#x151;" horiz-adv-x="1169" 
d="M453 1247q10 23 34 23h41q19 0 25.5 -10t-2.5 -27l-76 -133q-11 -21 -37 -21h-24q-18 0 -25 10t0 27zM723 1247q10 23 35 23h41q19 0 25 -10t-3 -27l-76 -133q-11 -21 -36 -21h-25q-18 0 -25 10t0 27zM565 -18q-211 0 -344 138.5t-133 350.5q0 213 133 350t344 137
t343 -136.5t132 -350.5q0 -213 -132.5 -351t-342.5 -138zM565 92q161 0 261 107t100 272t-100 272t-261 107t-262.5 -107.5t-101.5 -271.5t101.5 -271.5t262.5 -107.5z" />
    <glyph glyph-name="OE" unicode="&#x152;" horiz-adv-x="2273" 
d="M2130 1251q0 -13 -8.5 -21.5t-22.5 -8.5h-672v-502h629q14 0 22.5 -8.5t8.5 -22.5v-49q0 -13 -8.5 -22t-22.5 -9h-629v-497h672q13 0 22 -8.5t9 -22.5v-49q0 -13 -9 -22t-22 -9h-758q-13 0 -21.5 8.5t-8.5 22.5v235q-86 -133 -228 -207.5t-321 -74.5q-146 0 -271 51.5
t-212.5 141.5t-137 216.5t-49.5 272.5q0 196 84 351t237 243t349 88q179 0 320.5 -75t228.5 -208v235q0 14 8.5 22.5t21.5 8.5h758q13 0 22 -8.5t9 -22.5v-49zM762 102q243 0 392 158.5t149 405.5t-149 405t-392 158q-248 0 -399.5 -158t-151.5 -405t151.5 -405.5
t399.5 -158.5z" />
    <glyph glyph-name="oe" unicode="&#x153;" horiz-adv-x="1964" 
d="M1386 958q198 0 323.5 -137.5t125.5 -349.5v-8q0 -13 -8.5 -22t-22.5 -9h-772q11 -157 110.5 -253.5t254.5 -96.5q191 0 297 131q15 24 41 8l30 -18q28 -18 9 -43q-64 -84 -161.5 -131t-215.5 -47q-143 0 -252.5 65.5t-167.5 181.5q-58 -114 -167 -179.5t-249 -65.5
q-209 0 -341 137.5t-132 349.5t131.5 348.5t341.5 136.5q140 0 248 -64.5t166 -176.5q58 114 164.5 178.5t246.5 64.5zM1386 862q-155 0 -249 -95t-105 -253h699q-12 154 -106 251t-239 97zM561 94q163 0 261 105t98 272t-98 271t-261 104q-164 0 -263 -104t-99 -271
t99 -272t263 -105z" />
    <glyph glyph-name="Racute" unicode="&#x154;" horiz-adv-x="1228" 
d="M567 1622q10 23 35 23h43q17 0 23.5 -10t-0.5 -27l-66 -131q-12 -23 -37 -23h-37q-17 0 -23 10t1 27zM1090 37q11 -15 5.5 -26t-24.5 -11h-72q-26 0 -38 18l-369 523h-361v-510q0 -14 -8.5 -22.5t-21.5 -8.5h-58q-13 0 -21.5 8.5t-8.5 22.5v1269q0 14 8.5 22.5t21.5 8.5
h578q155 0 264 -112.5t109 -282.5q0 -167 -105 -278.5t-256 -116.5zM231 1217v-560h476q116 0 192 81.5t76 197.5t-76 198.5t-192 82.5h-476z" />
    <glyph glyph-name="racute" unicode="&#x155;" horiz-adv-x="649" 
d="M360 1247q10 23 35 23h43q17 0 23.5 -10t-0.5 -27l-66 -131q-11 -23 -37 -23h-36q-17 0 -23.5 10t0.5 27zM225 768q46 84 125 131t176 55q31 3 31 -28v-45q0 -30 -29 -33q-128 -12 -215.5 -92t-87.5 -224v-501q0 -14 -8.5 -22.5t-21.5 -8.5h-52q-13 0 -21.5 8.5
t-8.5 22.5v880q0 14 8.5 22.5t21.5 8.5h52q13 0 21.5 -8.5t8.5 -22.5v-143z" />
    <glyph glyph-name="uni0156" unicode="&#x156;" horiz-adv-x="1228" 
d="M1090 37q11 -15 5.5 -26t-24.5 -11h-72q-26 0 -38 18l-369 523h-361v-510q0 -14 -8.5 -22.5t-21.5 -8.5h-58q-13 0 -21.5 8.5t-8.5 22.5v1269q0 14 8.5 22.5t21.5 8.5h578q155 0 264 -112.5t109 -282.5q0 -167 -105 -278.5t-256 -116.5zM231 1217v-560h476
q116 0 192 81.5t76 197.5t-76 198.5t-192 82.5h-476zM494 -150q10 23 34 23h41q17 0 24 -11t-1 -26l-68 -129q-11 -22 -37 -22h-32q-18 0 -24 9.5t1 26.5z" />
    <glyph glyph-name="uni0157" unicode="&#x157;" horiz-adv-x="649" 
d="M225 768q46 84 125 131t176 55q31 3 31 -28v-45q0 -30 -29 -33q-128 -12 -215.5 -92t-87.5 -224v-501q0 -14 -8.5 -22.5t-21.5 -8.5h-52q-13 0 -21.5 8.5t-8.5 22.5v880q0 14 8.5 22.5t21.5 8.5h52q13 0 21.5 -8.5t8.5 -22.5v-143zM109 -150q10 23 34 23h41q17 0 24 -11
t-1 -26l-68 -129q-11 -22 -37 -22h-32q-18 0 -24 9.5t1 26.5z" />
    <glyph glyph-name="Rcaron" unicode="&#x158;" horiz-adv-x="1228" 
d="M612 1624q12 21 37 21h37q18 0 24 -11t-3 -26l-84 -133q-12 -21 -37 -21h-90q-25 0 -37 21l-84 133q-9 15 -3.5 26t23.5 11h37q25 0 37 -21l72 -117zM1090 37q11 -15 5.5 -26t-24.5 -11h-72q-26 0 -38 18l-369 523h-361v-510q0 -14 -8.5 -22.5t-21.5 -8.5h-58
q-13 0 -21.5 8.5t-8.5 22.5v1269q0 14 8.5 22.5t21.5 8.5h578q155 0 264 -112.5t109 -282.5q0 -167 -105 -278.5t-256 -116.5zM231 1217v-560h476q116 0 192 81.5t76 197.5t-76 198.5t-192 82.5h-476z" />
    <glyph glyph-name="rcaron" unicode="&#x159;" horiz-adv-x="649" 
d="M406 1249q12 21 36 21h37q18 0 24 -11t-3 -26l-84 -133q-12 -21 -37 -21h-90q-25 0 -37 21l-84 133q-9 15 -3.5 26t23.5 11h37q25 0 37 -21l72 -116zM225 768q46 84 125 131t176 55q31 3 31 -28v-45q0 -30 -29 -33q-128 -12 -215.5 -92t-87.5 -224v-501q0 -14 -8.5 -22.5
t-21.5 -8.5h-52q-13 0 -21.5 8.5t-8.5 22.5v880q0 14 8.5 22.5t21.5 8.5h52q13 0 21.5 -8.5t8.5 -22.5v-143z" />
    <glyph glyph-name="Sacute" unicode="&#x15a;" horiz-adv-x="1224" 
d="M635 1622q10 23 35 23h43q17 0 23 -10t-1 -27l-65 -131q-12 -23 -37 -23h-37q-17 0 -23.5 10t0.5 27zM82 252q-10 24 14 41l45 29q28 17 43 -13q49 -96 163.5 -154.5t270.5 -58.5q365 0 365 271q0 35 -13 66t-31.5 54t-50 43.5t-58.5 33.5t-67.5 26.5t-65.5 20t-64 16.5
t-53 14q-12 3 -51.5 12t-63 15.5t-65.5 19.5t-70 26.5t-64.5 33t-60 43.5t-45.5 53.5t-32.5 67.5t-10.5 81q0 175 133.5 268t357.5 93q167 0 296 -65t177 -167q13 -25 -16 -41l-45 -24q-26 -13 -41 14q-41 71 -145.5 118.5t-235.5 47.5q-168 0 -259 -63t-91 -177
q0 -29 8.5 -54.5t25.5 -46t36 -37t48 -30.5t52.5 -23.5t58.5 -19.5t57 -15.5t57 -13.5t50 -12q10 -3 48 -12.5t62 -17t66 -21.5t71.5 -29t67 -36t62.5 -46.5t48 -56.5t34.5 -70.5t11.5 -84.5q0 -192 -131.5 -293t-372.5 -101q-195 0 -333 74.5t-193 200.5z" />
    <glyph glyph-name="sacute" unicode="&#x15b;" horiz-adv-x="923" 
d="M475 1247q10 23 35 23h43q17 0 23 -10t-1 -27l-65 -131q-12 -23 -37 -23h-37q-17 0 -23 10t1 27zM78 166q-12 28 14 41l31 16q25 16 41 -12q36 -63 113.5 -101t179.5 -38q250 0 250 184q0 28 -9.5 51.5t-30.5 41t-40 30t-51.5 23.5t-51 17t-52.5 14t-44 11q-7 2 -40 10
t-51 13.5t-52.5 17.5t-55.5 24t-48.5 31.5t-43 41.5t-26.5 52.5t-11 65.5q0 125 95.5 193t253.5 68q123 0 213.5 -43.5t128.5 -114.5q15 -24 -15 -41l-31 -14q-22 -12 -40 12q-30 47 -100.5 77.5t-158.5 30.5q-113 0 -174 -43t-61 -120q0 -25 8.5 -46.5t27.5 -37.5
t36.5 -27.5t47.5 -22t47.5 -15.5t50 -13t42.5 -11l36 -9t46.5 -12.5t48.5 -15.5t53 -21t48 -26t46 -34t34.5 -41t25.5 -52t8 -61q0 -138 -93.5 -210.5t-266.5 -72.5q-142 0 -239.5 50.5t-139.5 138.5z" />
    <glyph glyph-name="Scedilla" unicode="&#x15e;" horiz-adv-x="1224" 
d="M1112 371q0 -185 -121.5 -285.5t-347.5 -108.5q3 -8 -4 -22l-21 -37q59 -6 90 -36t31 -70q0 -50 -36 -82.5t-103 -32.5q-41 0 -72 8q-24 5 -24 35v10q0 32 35 23q27 -9 61 -9q29 0 49.5 13.5t20.5 34.5q0 20 -22 32.5t-60 12.5q-15 0 -25 -2q-33 -7 -33 22v33q2 0 2 2
l39 59l4 6q-182 6 -310.5 80t-182.5 195q-10 24 14 41l45 29q28 17 43 -13q49 -96 163.5 -154.5t270.5 -58.5q365 0 365 271q0 35 -13 66t-31.5 54t-50 43.5t-58.5 33.5t-67.5 26.5t-65.5 20t-64 16.5t-53 14q-12 3 -51.5 12t-63 15.5t-65.5 19.5t-70 26.5t-64.5 33
t-60 43.5t-45.5 53.5t-32.5 67.5t-10.5 81q0 175 133.5 268t357.5 93q167 0 296 -65t177 -167q13 -25 -16 -41l-45 -24q-26 -13 -41 14q-41 71 -145.5 118.5t-235.5 47.5q-168 0 -259 -63t-91 -177q0 -29 8.5 -54.5t25.5 -46t36 -37t48 -30.5t52.5 -23.5t58.5 -19.5
t57 -15.5t57 -13.5t50 -12q10 -3 48 -12.5t62 -17t66 -21.5t71.5 -29t67 -36t62.5 -46.5t48 -56.5t34.5 -70.5t11.5 -84.5z" />
    <glyph glyph-name="scedilla" unicode="&#x15f;" horiz-adv-x="923" 
d="M817 260q0 -132 -86 -204.5t-246 -78.5q0 -6 -6 -18l-20 -37q59 -6 90 -36t31 -70q0 -50 -36 -82.5t-104 -32.5q-40 0 -71 8q-25 6 -25 35v10q0 32 35 23q24 -8 61 -8q29 0 49.5 13t20.5 34q0 20 -22 32.5t-60 12.5q-15 0 -25 -2q-32 -6 -32 22v33q2 0 2 2l39 59
q0 1 1 2.5t1 2.5q-125 7 -211 56t-125 130q-12 28 14 41l31 16q25 16 41 -12q36 -63 113.5 -101t179.5 -38q250 0 250 184q0 28 -9.5 51.5t-30.5 41t-40 30t-51.5 23.5t-51 17t-52.5 14t-44 11q-7 2 -40 10t-51 13.5t-52.5 17.5t-55.5 24t-48.5 31.5t-43 41.5t-26.5 52.5
t-11 65.5q0 125 95.5 193t253.5 68q123 0 213.5 -43.5t128.5 -114.5q15 -24 -15 -41l-31 -14q-22 -12 -40 12q-30 47 -100.5 77.5t-158.5 30.5q-113 0 -174 -43t-61 -120q0 -25 8.5 -46.5t27.5 -37.5t36.5 -27.5t47.5 -22t47.5 -15.5t50 -13t42.5 -11l36 -9t46.5 -12.5
t48.5 -15.5t53 -21t48 -26t46 -34t34.5 -41t25.5 -52t8 -61z" />
    <glyph glyph-name="Scaron" unicode="&#x160;" horiz-adv-x="1224" 
d="M680 1624q12 21 37 21h37q18 0 23.5 -11t-3.5 -26l-84 -133q-12 -21 -37 -21h-90q-25 0 -37 21l-84 133q-9 15 -3 26t24 11h37q25 0 37 -21l71 -117zM82 252q-10 24 14 41l45 29q28 17 43 -13q49 -96 163.5 -154.5t270.5 -58.5q365 0 365 271q0 35 -13 66t-31.5 54
t-50 43.5t-58.5 33.5t-67.5 26.5t-65.5 20t-64 16.5t-53 14q-12 3 -51.5 12t-63 15.5t-65.5 19.5t-70 26.5t-64.5 33t-60 43.5t-45.5 53.5t-32.5 67.5t-10.5 81q0 175 133.5 268t357.5 93q167 0 296 -65t177 -167q13 -25 -16 -41l-45 -24q-26 -13 -41 14
q-41 71 -145.5 118.5t-235.5 47.5q-168 0 -259 -63t-91 -177q0 -29 8.5 -54.5t25.5 -46t36 -37t48 -30.5t52.5 -23.5t58.5 -19.5t57 -15.5t57 -13.5t50 -12q10 -3 48 -12.5t62 -17t66 -21.5t71.5 -29t67 -36t62.5 -46.5t48 -56.5t34.5 -70.5t11.5 -84.5q0 -192 -131.5 -293
t-372.5 -101q-195 0 -333 74.5t-193 200.5z" />
    <glyph glyph-name="scaron" unicode="&#x161;" horiz-adv-x="923" 
d="M520 1249q12 21 37 21h37q18 0 23.5 -11t-3.5 -26l-84 -133q-12 -21 -36 -21h-91q-24 0 -36 21l-84 133q-9 15 -3.5 26t23.5 11h37q25 0 37 -21l72 -116zM78 166q-12 28 14 41l31 16q25 16 41 -12q36 -63 113.5 -101t179.5 -38q250 0 250 184q0 28 -9.5 51.5t-30.5 41
t-40 30t-51.5 23.5t-51 17t-52.5 14t-44 11q-7 2 -40 10t-51 13.5t-52.5 17.5t-55.5 24t-48.5 31.5t-43 41.5t-26.5 52.5t-11 65.5q0 125 95.5 193t253.5 68q123 0 213.5 -43.5t128.5 -114.5q15 -24 -15 -41l-31 -14q-22 -12 -40 12q-30 47 -100.5 77.5t-158.5 30.5
q-113 0 -174 -43t-61 -120q0 -25 8.5 -46.5t27.5 -37.5t36.5 -27.5t47.5 -22t47.5 -15.5t50 -13t42.5 -11l36 -9t46.5 -12.5t48.5 -15.5t53 -21t48 -26t46 -34t34.5 -41t25.5 -52t8 -61q0 -138 -93.5 -210.5t-266.5 -72.5q-142 0 -239.5 50.5t-139.5 138.5z" />
    <glyph glyph-name="uni0162" unicode="&#x162;" 
d="M1051 1331q13 0 21.5 -8.5t8.5 -22.5v-49q0 -13 -8.5 -21.5t-21.5 -8.5h-414v-1190q0 -13 -8.5 -22t-22.5 -9h-6q7 -11 -2 -29l-20 -37q59 -6 89.5 -36t30.5 -70q0 -50 -36 -82.5t-103 -32.5q-41 0 -72 8q-24 5 -24 35v11q0 31 35 22q24 -8 61 -8q29 0 49.5 13t20.5 34
q0 20 -22 32.5t-60 12.5q-15 0 -25 -2q-15 -3 -24 3.5t-9 19.5v32q3 0 3 2l38 60q6 10 11 12q-23 7 -23 31v1190h-416q-14 0 -22 8.5t-8 21.5v49q0 14 8.5 22.5t21.5 8.5h949z" />
    <glyph glyph-name="uni0163" unicode="&#x163;" horiz-adv-x="630" 
d="M504 942q14 0 22.5 -9t8.5 -22v-28q0 -13 -8.5 -22t-22.5 -9h-205v-629q0 -68 37 -98.5t96 -30.5h62q13 0 21.5 -8.5t8.5 -22.5v-32q0 -14 -8.5 -22.5t-21.5 -8.5h-70q7 -11 -2 -27l-21 -36q59 -6 90 -36.5t31 -70.5q0 -50 -36 -82.5t-103 -32.5q-37 0 -72 9
q-24 5 -24 34v11q0 31 35 22q24 -8 61 -8q29 0 49.5 13t20.5 34q0 20 -22 32.5t-60 12.5q-15 0 -25 -2q-15 -3 -24 3.5t-9 19.5v32q2 0 2 2l39 60q1 2 11 12q-84 9 -131.5 63t-47.5 144v643h-104q-14 0 -22.5 9t-8.5 22v28q0 13 8.5 22t22.5 9h104v256q0 14 9 22.5t22 8.5
h51q14 0 22.5 -8.5t8.5 -22.5v-256h205z" />
    <glyph glyph-name="Tcaron" unicode="&#x164;" 
d="M649 1624q12 21 37 21h37q18 0 23.5 -11t-3.5 -26l-84 -133q-12 -21 -36 -21h-91q-24 0 -36 21l-84 133q-9 15 -3.5 26t23.5 11h37q25 0 37 -21l72 -117zM1051 1331q13 0 21.5 -8.5t8.5 -22.5v-49q0 -13 -8.5 -21.5t-21.5 -8.5h-414v-1190q0 -13 -8.5 -22t-22.5 -9h-57
q-13 0 -22 9t-9 22v1190h-416q-14 0 -22 8.5t-8 21.5v49q0 14 8.5 22.5t21.5 8.5h949z" />
    <glyph glyph-name="tcaron" unicode="&#x165;" horiz-adv-x="630" 
d="M311 1501q12 21 37 21h37q18 0 24 -11t-3 -26l-84 -133q-12 -21 -37 -21h-90q-25 0 -37 21l-84 133q-9 15 -3.5 26t23.5 11h37q25 0 37 -21l72 -117zM535 883q0 -13 -8.5 -22t-22.5 -9h-205v-629q0 -68 37 -98.5t96 -30.5h62q13 0 21.5 -8.5t8.5 -22.5v-32
q0 -14 -8.5 -22.5t-21.5 -8.5h-97q-98 0 -154.5 55t-56.5 154v643h-104q-14 0 -22.5 9t-8.5 22v28q0 13 8.5 22t22.5 9h104v256q0 14 9 22.5t22 8.5h51q14 0 22.5 -8.5t8.5 -22.5v-256h205q14 0 22.5 -9t8.5 -22v-28z" />
    <glyph glyph-name="Tbar" unicode="&#x166;" horiz-adv-x="1224" 
d="M1081 1251q0 -13 -8.5 -21.5t-21.5 -8.5h-414v-516h270q13 0 22 -8.5t9 -22.5v-49q0 -13 -9 -22t-22 -9h-270v-563q0 -13 -8.5 -22t-22.5 -9h-57q-13 0 -22 9t-9 22v563h-272q-14 0 -22.5 9t-8.5 22v49q0 14 8.5 22.5t22.5 8.5h272v516h-416q-14 0 -22 8.5t-8 21.5v49
q0 14 8.5 22.5t21.5 8.5h949q13 0 21.5 -8.5t8.5 -22.5v-49z" />
    <glyph glyph-name="Utilde" unicode="&#x168;" horiz-adv-x="1257" 
d="M385 1450q-15 0 -23.5 9t-5.5 24q11 63 52 102t100 39q77 0 137 -68q16 -17 25.5 -26t28.5 -18t40 -9q64 0 78 68q6 28 33 28h14q15 0 23.5 -8.5t7.5 -23.5q-9 -64 -49.5 -102t-106.5 -38q-79 0 -139 68q-17 18 -27.5 27.5t-27.5 17.5t-35 8q-30 0 -50 -19.5t-26 -49.5
q-10 -29 -33 -29h-16zM985 1300q0 14 8.5 22.5t22.5 8.5h57q13 0 22 -8.5t9 -22.5v-839q0 -210 -133 -343.5t-363 -133.5t-362.5 133t-132.5 344v839q0 14 8.5 22.5t21.5 8.5h58q13 0 21.5 -8.5t8.5 -22.5v-831q0 -171 101.5 -270t275.5 -99t275.5 99t101.5 270v831z" />
    <glyph glyph-name="utilde" unicode="&#x169;" horiz-adv-x="1073" 
d="M293 1075q-15 0 -23.5 9t-5.5 24q11 63 52 102t100 39q78 0 137 -67q16 -17 25.5 -26t28.5 -18.5t40 -9.5q64 0 78 68q6 29 33 29h14q15 0 23.5 -9t7.5 -24q-9 -63 -49.5 -101t-106.5 -38q-80 0 -139 67q-17 18 -27.5 27.5t-27.5 18t-35 8.5q-30 0 -49.5 -20t-26.5 -50
q-10 -29 -33 -29h-16zM807 911q0 13 8.5 22t22.5 9h51q13 0 22 -9t9 -22v-880q0 -13 -9 -22t-22 -9h-51q-14 0 -22.5 9t-8.5 22v108q-51 -77 -134 -116t-181 -39q-75 0 -142 22.5t-120.5 67t-85 118t-31.5 166.5v553q0 14 8.5 22.5t21.5 8.5h52q13 0 21.5 -8.5t8.5 -22.5
v-538q0 -135 82.5 -213t208.5 -78q127 0 209 77.5t82 213.5v538z" />
    <glyph glyph-name="Umacron" unicode="&#x16a;" horiz-adv-x="1257" 
d="M455 1503q0 14 8.5 22.5t21.5 8.5h279q14 0 22.5 -9t8.5 -22v-20q0 -13 -8.5 -22t-22.5 -9h-279q-13 0 -21.5 8.5t-8.5 22.5v20zM985 1300q0 14 8.5 22.5t22.5 8.5h57q13 0 22 -8.5t9 -22.5v-839q0 -210 -133 -343.5t-363 -133.5t-362.5 133t-132.5 344v839
q0 14 8.5 22.5t21.5 8.5h58q13 0 21.5 -8.5t8.5 -22.5v-831q0 -171 101.5 -270t275.5 -99t275.5 99t101.5 270v831z" />
    <glyph glyph-name="umacron" unicode="&#x16b;" horiz-adv-x="1073" 
d="M362 1128q0 14 9 22.5t22 8.5h279q13 0 21.5 -8.5t8.5 -22.5v-20q0 -14 -8.5 -22.5t-21.5 -8.5h-279q-13 0 -22 8.5t-9 22.5v20zM807 911q0 13 8.5 22t22.5 9h51q13 0 22 -9t9 -22v-880q0 -13 -9 -22t-22 -9h-51q-14 0 -22.5 9t-8.5 22v108q-51 -77 -134 -116t-181 -39
q-75 0 -142 22.5t-120.5 67t-85 118t-31.5 166.5v553q0 14 8.5 22.5t21.5 8.5h52q13 0 21.5 -8.5t8.5 -22.5v-538q0 -135 82.5 -213t208.5 -78q127 0 209 77.5t82 213.5v538z" />
    <glyph glyph-name="Uring" unicode="&#x16e;" horiz-adv-x="1257" 
d="M627 1434q-64 0 -108 42.5t-44 106.5q0 66 44 108t108 42t106.5 -41.5t42.5 -108.5q0 -64 -43 -106.5t-106 -42.5zM627 1499q37 0 58.5 25.5t21.5 58.5q0 34 -21.5 60t-58.5 26q-39 0 -60.5 -26t-21.5 -60t21.5 -59t60.5 -25zM985 1300q0 14 8.5 22.5t22.5 8.5h57
q13 0 22 -8.5t9 -22.5v-839q0 -210 -133 -343.5t-363 -133.5t-362.5 133t-132.5 344v839q0 14 8.5 22.5t21.5 8.5h58q13 0 21.5 -8.5t8.5 -22.5v-831q0 -171 101.5 -270t275.5 -99t275.5 99t101.5 270v831z" />
    <glyph glyph-name="uring" unicode="&#x16f;" horiz-adv-x="1073" 
d="M535 1059q-64 0 -108 42.5t-44 106.5q0 66 44 108t108 42t106.5 -41.5t42.5 -108.5q0 -64 -43 -106.5t-106 -42.5zM535 1124q37 0 58 25t21 59t-21 60t-58 26q-39 0 -60.5 -26t-21.5 -60t21.5 -59t60.5 -25zM807 911q0 13 8.5 22t22.5 9h51q13 0 22 -9t9 -22v-880
q0 -13 -9 -22t-22 -9h-51q-14 0 -22.5 9t-8.5 22v108q-51 -77 -134 -116t-181 -39q-75 0 -142 22.5t-120.5 67t-85 118t-31.5 166.5v553q0 14 8.5 22.5t21.5 8.5h52q13 0 21.5 -8.5t8.5 -22.5v-538q0 -135 82.5 -213t208.5 -78q127 0 209 77.5t82 213.5v538z" />
    <glyph glyph-name="Uhungarumlaut" unicode="&#x170;" horiz-adv-x="1257" 
d="M512 1622q10 23 35 23h41q19 0 25 -10t-3 -27l-75 -133q-11 -21 -37 -21h-25q-18 0 -24.5 10t0.5 27zM782 1622q10 23 35 23h41q19 0 25.5 -10t-2.5 -27l-76 -133q-11 -21 -37 -21h-25q-18 0 -24.5 10t0.5 27zM985 1300q0 14 8.5 22.5t22.5 8.5h57q13 0 22 -8.5t9 -22.5
v-839q0 -210 -133 -343.5t-363 -133.5t-362.5 133t-132.5 344v839q0 14 8.5 22.5t21.5 8.5h58q13 0 21.5 -8.5t8.5 -22.5v-831q0 -171 101.5 -270t275.5 -99t275.5 99t101.5 270v831z" />
    <glyph glyph-name="uhungarumlaut" unicode="&#x171;" horiz-adv-x="1073" 
d="M420 1247q10 23 35 23h41q19 0 25 -10t-3 -27l-76 -133q-10 -21 -36 -21h-25q-18 0 -25 10t0 27zM690 1247q10 23 35 23h41q19 0 25 -10t-3 -27l-75 -133q-11 -21 -37 -21h-25q-18 0 -24.5 10t0.5 27zM807 911q0 13 8.5 22t22.5 9h51q13 0 22 -9t9 -22v-880q0 -13 -9 -22
t-22 -9h-51q-14 0 -22.5 9t-8.5 22v108q-51 -77 -134 -116t-181 -39q-75 0 -142 22.5t-120.5 67t-85 118t-31.5 166.5v553q0 14 8.5 22.5t21.5 8.5h52q13 0 21.5 -8.5t8.5 -22.5v-538q0 -135 82.5 -213t208.5 -78q127 0 209 77.5t82 213.5v538z" />
    <glyph glyph-name="Uogonek" unicode="&#x172;" horiz-adv-x="1257" 
d="M1073 1331q13 0 22 -8.5t9 -22.5v-839q0 -202 -124 -334.5t-339 -142.5q-5 -10 -10 -13q-49 -49 -49 -96q0 -22 15.5 -34t49.5 -5q37 6 37 -24v-15q0 -27 -29 -33q-71 -11 -113 19.5t-42 79.5q0 70 69 123q-213 12 -334.5 143t-121.5 332v839q0 14 8.5 22.5t21.5 8.5h58
q13 0 21.5 -8.5t8.5 -22.5v-831q0 -171 101.5 -270t275.5 -99t275.5 99t101.5 270v831q0 14 8.5 22.5t22.5 8.5h57z" />
    <glyph glyph-name="uogonek" unicode="&#x173;" horiz-adv-x="1073" 
d="M895 -152q37 6 37 -24v-14q0 -27 -29 -33q-71 -11 -113 19t-42 79q0 38 22 72t53 55q-16 6 -16 29v108q-51 -77 -134 -116t-181 -39q-75 0 -142 22.5t-120.5 67t-85 118t-31.5 166.5v553q0 14 8.5 22.5t21.5 8.5h52q13 0 21.5 -8.5t8.5 -22.5v-538q0 -135 82.5 -213
t208.5 -78q127 0 209 77.5t82 213.5v538q0 13 8.5 22t22.5 9h51q13 0 22 -9t9 -22v-880q0 -13 -8.5 -22t-20.5 -9q-4 -8 -12 -16q-50 -50 -50 -97q0 -22 16 -34t50 -5z" />
    <glyph glyph-name="Wcircumflex" unicode="&#x174;" horiz-adv-x="1933" 
d="M1122 1491q9 -15 3.5 -26t-23.5 -11h-37q-25 0 -37 21l-72 118l-71 -118q-12 -21 -37 -21h-37q-18 0 -23.5 11t3.5 26l83 133q12 21 37 21h90q25 0 37 -21zM1726 1307q8 24 35 24h64q17 0 23 -9.5t1 -25.5l-424 -1271q-8 -25 -34 -25h-45q-27 0 -35 25l-355 1060
l-354 -1060q-8 -25 -35 -25h-45q-27 0 -35 25l-424 1271q-5 15 1.5 25t23.5 10h64q26 0 34 -24l361 -1084l360 1084q8 24 35 24h35q27 0 35 -24l358 -1074z" />
    <glyph glyph-name="wcircumflex" unicode="&#x175;" horiz-adv-x="1497" 
d="M903 1116q9 -15 3.5 -26t-23.5 -11h-37q-25 0 -37 21l-72 119l-71 -119q-12 -21 -37 -21h-37q-18 0 -24 11t3 26l84 133q12 21 37 21h90q25 0 37 -21zM1290 918q8 24 35 24h53q17 0 23.5 -10t1.5 -25l-299 -882q-8 -25 -35 -25h-59q-27 0 -35 25l-248 723l-250 -723
q-8 -25 -35 -25h-59q-27 0 -35 25l-295 882q-10 35 25 35h55q27 0 35 -24l252 -758l260 758q8 24 35 24h26q27 0 35 -24l260 -758z" />
    <glyph glyph-name="Ycircumflex" unicode="&#x176;" horiz-adv-x="1179" 
d="M737 1491q9 -15 3.5 -26t-23.5 -11h-37q-25 0 -37 21l-72 118l-71 -118q-12 -21 -37 -21h-37q-18 0 -23.5 11t3.5 26l83 133q12 21 37 21h90q25 0 37 -21zM1063 1331q18 0 23.5 -11t-3.5 -26l-452 -700v-563q0 -13 -8.5 -22t-22.5 -9h-57q-13 0 -22 9t-9 22v559l-455 704
q-9 15 -3 26t24 11h69q26 0 37 -20l385 -598l387 598q11 20 37 20h70z" />
    <glyph glyph-name="ycircumflex" unicode="&#x177;" horiz-adv-x="980" 
d="M645 1116q9 -15 3.5 -26t-23.5 -11h-37q-25 0 -37 21l-72 119l-71 -119q-12 -21 -37 -21h-37q-18 0 -24 11t3 26l84 133q12 21 37 21h90q25 0 37 -21zM762 918q9 24 37 24h51q36 0 24 -35l-499 -1259q-9 -25 -37 -25h-47q-37 0 -25 35l135 342l-356 907q-12 35 25 35h53
q28 0 37 -24l299 -762z" />
    <glyph glyph-name="Ydieresis" unicode="&#x178;" horiz-adv-x="1179" 
d="M393 1444q-27 0 -47 19t-20 48q0 28 20 47t47 19q26 0 46 -19t20 -47t-20 -47.5t-46 -19.5zM754 1444q-27 0 -47.5 19.5t-20.5 47.5t20.5 47t47.5 19q26 0 45.5 -19t19.5 -47t-19.5 -47.5t-45.5 -19.5zM1063 1331q18 0 23.5 -11t-3.5 -26l-452 -700v-563q0 -13 -8.5 -22
t-22.5 -9h-57q-13 0 -22 9t-9 22v559l-455 704q-9 15 -3 26t24 11h69q26 0 37 -20l385 -598l387 598q11 20 37 20h70z" />
    <glyph glyph-name="Zacute" unicode="&#x179;" horiz-adv-x="1101" 
d="M578 1622q10 23 34 23h43q17 0 23.5 -10t-0.5 -27l-66 -131q-12 -23 -37 -23h-36q-17 0 -23.5 10t0.5 27zM989 1247q0 -19 -12 -37l-741 -1097l708 -2q14 0 22.5 -8.5t8.5 -22.5v-49q0 -13 -8.5 -22t-22.5 -9h-821q-13 0 -22 9t-9 22v53q0 19 12 37l744 1100h-711
q-14 0 -22.5 8.5t-8.5 21.5v49q0 14 9 22.5t22 8.5h821q14 0 22.5 -8.5t8.5 -22.5v-53z" />
    <glyph glyph-name="zacute" unicode="&#x17a;" horiz-adv-x="882" 
d="M449 1247q10 23 34 23h43q17 0 23.5 -10t-0.5 -27l-66 -131q-11 -23 -37 -23h-36q-17 0 -23.5 10t0.5 27zM739 942q13 0 22 -9t9 -22v-39q0 -18 -12 -36l-545 -738h516q14 0 22.5 -8.5t8.5 -21.5v-37q0 -13 -9 -22t-22 -9h-627q-13 0 -21.5 8.5t-8.5 22.5v39q0 18 12 36
l547 740h-518q-13 0 -22 9t-9 22v34q0 13 9 22t22 9h626z" />
    <glyph glyph-name="Zdotaccent" unicode="&#x17b;" horiz-adv-x="1101" 
d="M553 1444q-27 0 -47.5 19.5t-20.5 47.5t20.5 47t47.5 19q26 0 45.5 -19t19.5 -47t-19.5 -47.5t-45.5 -19.5zM989 1247q0 -19 -12 -37l-741 -1097l708 -2q14 0 22.5 -8.5t8.5 -22.5v-49q0 -13 -8.5 -22t-22.5 -9h-821q-13 0 -22 9t-9 22v53q0 19 12 37l744 1100h-711
q-14 0 -22.5 8.5t-8.5 21.5v49q0 14 9 22.5t22 8.5h821q14 0 22.5 -8.5t8.5 -22.5v-53z" />
    <glyph glyph-name="zdotaccent" unicode="&#x17c;" horiz-adv-x="882" 
d="M424 1069q-27 0 -47.5 19.5t-20.5 48.5q0 28 20.5 46.5t47.5 18.5q26 0 45.5 -18.5t19.5 -46.5q0 -29 -19.5 -48.5t-45.5 -19.5zM739 942q13 0 22 -9t9 -22v-39q0 -18 -12 -36l-545 -738h516q14 0 22.5 -8.5t8.5 -21.5v-37q0 -13 -9 -22t-22 -9h-627q-13 0 -21.5 8.5
t-8.5 22.5v39q0 18 12 36l547 740h-518q-13 0 -22 9t-9 22v34q0 13 9 22t22 9h626z" />
    <glyph glyph-name="Zcaron" unicode="&#x17d;" horiz-adv-x="1101" 
d="M623 1624q12 21 36 21h37q18 0 24 -11t-3 -26l-84 -133q-12 -21 -37 -21h-90q-25 0 -37 21l-84 133q-9 15 -3 26t24 11h36q25 0 37 -21l72 -117zM989 1247q0 -19 -12 -37l-741 -1097l708 -2q14 0 22.5 -8.5t8.5 -22.5v-49q0 -13 -8.5 -22t-22.5 -9h-821q-13 0 -22 9
t-9 22v53q0 19 12 37l744 1100h-711q-14 0 -22.5 8.5t-8.5 21.5v49q0 14 9 22.5t22 8.5h821q14 0 22.5 -8.5t8.5 -22.5v-53z" />
    <glyph glyph-name="zcaron" unicode="&#x17e;" horiz-adv-x="882" 
d="M494 1249q12 21 36 21h37q18 0 24 -11t-3 -26l-84 -133q-12 -21 -37 -21h-90q-25 0 -37 21l-84 133q-9 15 -3.5 26t23.5 11h37q25 0 37 -21l72 -116zM739 942q13 0 22 -9t9 -22v-39q0 -18 -12 -36l-545 -738h516q14 0 22.5 -8.5t8.5 -21.5v-37q0 -13 -9 -22t-22 -9h-627
q-13 0 -21.5 8.5t-8.5 22.5v39q0 18 12 36l547 740h-518q-13 0 -22 9t-9 22v34q0 13 9 22t22 9h626z" />
    <glyph glyph-name="uni01CD" unicode="&#x1cd;" horiz-adv-x="1314" 
d="M719 1624q12 21 37 21h37q18 0 23.5 -11t-3.5 -26l-84 -133q-12 -21 -37 -21h-90q-25 0 -37 21l-84 133q-9 15 -3 26t24 11h37q24 0 36 -21l72 -117zM1143 0q-28 0 -37 25l-139 340h-639l-140 -340q-9 -25 -36 -25h-62q-36 0 -24 35l526 1272q9 24 37 24h37q27 0 36 -24
l527 -1272q12 -35 -25 -35h-61zM373 475h549l-275 672z" />
    <glyph glyph-name="uni01CE" unicode="&#x1ce;" 
d="M670 1249q12 21 37 21h36q18 0 24 -11t-3 -26l-84 -133q-12 -21 -37 -21h-90q-25 0 -37 21l-84 133q-9 15 -3 26t24 11h36q25 0 37 -21l72 -116zM928 911q0 14 8.5 22.5t21.5 8.5h52q13 0 21.5 -8.5t8.5 -22.5v-880q0 -14 -8.5 -22.5t-21.5 -8.5h-52q-13 0 -21.5 8.5
t-8.5 22.5v166q-57 -100 -154 -156.5t-223 -56.5q-203 0 -333 137.5t-130 349.5q0 213 129.5 349t333.5 136q126 0 223 -56t154 -155v166zM563 92q164 0 264.5 106t100.5 273t-100.5 273t-264.5 106q-163 0 -264.5 -106t-101.5 -273t101.5 -273t264.5 -106z" />
    <glyph glyph-name="uni01CF" unicode="&#x1cf;" horiz-adv-x="385" 
d="M242 1624q12 21 37 21h36q18 0 24 -11t-3 -26l-84 -133q-12 -21 -37 -21h-90q-25 0 -37 21l-84 133q-9 15 -3 26t24 11h36q25 0 37 -21l72 -117zM231 31q0 -14 -8.5 -22.5t-21.5 -8.5h-58q-13 0 -21.5 8.5t-8.5 22.5v1269q0 14 8.5 22.5t21.5 8.5h58q13 0 21.5 -8.5
t8.5 -22.5v-1269z" />
    <glyph glyph-name="uni01D0" unicode="&#x1d0;" horiz-adv-x="409" 
d="M254 1249q12 21 37 21h37q18 0 23.5 -11t-3.5 -26l-84 -133q-12 -21 -37 -21h-90q-25 0 -37 21l-84 133q-9 15 -3 26t24 11h37q25 0 37 -21l71 -116zM242 31q0 -13 -9 -22t-22 -9h-51q-14 0 -22.5 9t-8.5 22v880q0 13 8.5 22t22.5 9h51q13 0 22 -9t9 -22v-880z" />
    <glyph glyph-name="uni01D1" unicode="&#x1d1;" horiz-adv-x="1544" 
d="M829 1624q12 21 37 21h37q18 0 24 -11t-3 -26l-84 -133q-12 -21 -37 -21h-90q-25 0 -37 21l-84 133q-9 15 -3.5 26t23.5 11h37q25 0 37 -21l72 -117zM758 -16q-194 0 -346.5 88t-236 243t-83.5 351t83.5 351t236 243t346.5 88t346 -88t234.5 -243t82.5 -351t-82.5 -351
t-234.5 -243t-346 -88zM758 102q245 0 395 158.5t150 405.5t-150 405t-395 158q-244 0 -395.5 -158t-151.5 -405t151.5 -405.5t395.5 -158.5z" />
    <glyph glyph-name="uni01D2" unicode="&#x1d2;" horiz-adv-x="1169" 
d="M637 1249q12 21 37 21h37q18 0 23.5 -11t-3.5 -26l-84 -133q-12 -21 -37 -21h-90q-25 0 -37 21l-84 133q-9 15 -3 26t24 11h37q25 0 37 -21l71 -116zM565 -18q-211 0 -344 138.5t-133 350.5q0 213 133 350t344 137t343 -136.5t132 -350.5q0 -213 -132.5 -351t-342.5 -138
zM565 92q161 0 261 107t100 272t-100 272t-261 107t-262.5 -107.5t-101.5 -271.5t101.5 -271.5t262.5 -107.5z" />
    <glyph glyph-name="uni01D3" unicode="&#x1d3;" horiz-adv-x="1257" 
d="M696 1624q12 21 37 21h37q18 0 24 -11t-3 -26l-84 -133q-12 -21 -37 -21h-90q-25 0 -37 21l-84 133q-9 15 -3.5 26t23.5 11h37q25 0 37 -21l72 -117zM985 1300q0 14 8.5 22.5t22.5 8.5h57q13 0 22 -8.5t9 -22.5v-839q0 -210 -133 -343.5t-363 -133.5t-362.5 133
t-132.5 344v839q0 14 8.5 22.5t21.5 8.5h58q13 0 21.5 -8.5t8.5 -22.5v-831q0 -171 101.5 -270t275.5 -99t275.5 99t101.5 270v831z" />
    <glyph glyph-name="uni01D4" unicode="&#x1d4;" horiz-adv-x="1073" 
d="M604 1249q12 21 37 21h37q18 0 23.5 -11t-3.5 -26l-84 -133q-12 -21 -36 -21h-91q-24 0 -36 21l-84 133q-9 15 -3.5 26t23.5 11h37q25 0 37 -21l71 -116zM807 911q0 13 8.5 22t22.5 9h51q13 0 22 -9t9 -22v-880q0 -13 -9 -22t-22 -9h-51q-14 0 -22.5 9t-8.5 22v108
q-51 -77 -134 -116t-181 -39q-75 0 -142 22.5t-120.5 67t-85 118t-31.5 166.5v553q0 14 8.5 22.5t21.5 8.5h52q13 0 21.5 -8.5t8.5 -22.5v-538q0 -135 82.5 -213t208.5 -78q127 0 209 77.5t82 213.5v538z" />
    <glyph glyph-name="Gcaron" unicode="&#x1e6;" horiz-adv-x="1529" 
d="M836 1624q12 21 36 21h37q18 0 24 -11t-3 -26l-84 -133q-12 -21 -37 -21h-90q-25 0 -37 21l-84 133q-9 15 -3.5 26t23.5 11h37q25 0 37 -21l72 -117zM1397 635q-9 -289 -182 -470t-457 -181q-194 0 -346.5 88t-236 243t-83.5 351t83.5 351t236 243t346.5 88
q164 0 297 -63.5t223 -178.5q19 -26 -8 -43l-47 -33q-24 -18 -43 8q-74 92 -182.5 141.5t-239.5 49.5q-244 0 -395.5 -158t-151.5 -405t151.5 -405.5t395.5 -158.5q213 0 350.5 128t159.5 341h-484q-13 0 -21.5 8.5t-8.5 22.5v49q0 14 8.5 22.5t21.5 8.5h582q14 0 22.5 -9
t8.5 -22v-16z" />
    <glyph glyph-name="gcaron" unicode="&#x1e7;" 
d="M641 1249q12 21 37 21h37q18 0 23.5 -11t-3.5 -26l-84 -133q-12 -21 -37 -21h-90q-25 0 -37 21l-84 133q-9 15 -3 26t24 11h37q25 0 37 -21l71 -116zM928 911q0 14 8.5 22.5t21.5 8.5h52q13 0 21.5 -8.5t8.5 -22.5v-839q0 -204 -134.5 -330.5t-356.5 -126.5
q-226 0 -367 141q-21 21 4 43l31 27q21 18 43 -4q115 -109 289 -109q104 0 188.5 39.5t137.5 122.5t53 197v125q-57 -100 -154 -156.5t-223 -56.5q-203 0 -333 137.5t-130 349.5q0 211 130 348t333 137q126 0 223 -56t154 -155v166zM563 92q164 0 264.5 106t100.5 273
t-100.5 273t-264.5 106t-265 -106t-101 -273t101 -273t265 -106z" />
    <glyph glyph-name="uni0218" unicode="&#x218;" horiz-adv-x="1224" 
d="M82 252q-10 24 14 41l45 29q28 17 43 -13q49 -96 163.5 -154.5t270.5 -58.5q365 0 365 271q0 35 -13 66t-31.5 54t-50 43.5t-58.5 33.5t-67.5 26.5t-65.5 20t-64 16.5t-53 14q-12 3 -51.5 12t-63 15.5t-65.5 19.5t-70 26.5t-64.5 33t-60 43.5t-45.5 53.5t-32.5 67.5
t-10.5 81q0 175 133.5 268t357.5 93q167 0 296 -65t177 -167q13 -25 -16 -41l-45 -24q-26 -13 -41 14q-41 71 -145.5 118.5t-235.5 47.5q-168 0 -259 -63t-91 -177q0 -29 8.5 -54.5t25.5 -46t36 -37t48 -30.5t52.5 -23.5t58.5 -19.5t57 -15.5t57 -13.5t50 -12
q10 -3 48 -12.5t62 -17t66 -21.5t71.5 -29t67 -36t62.5 -46.5t48 -56.5t34.5 -70.5t11.5 -84.5q0 -192 -131.5 -293t-372.5 -101q-195 0 -333 74.5t-193 200.5zM559 -162q10 23 35 23h41q17 0 23.5 -11t-1.5 -26l-67 -129q-12 -23 -37 -23h-33q-17 0 -23 10t1 27z" />
    <glyph glyph-name="uni0219" unicode="&#x219;" horiz-adv-x="923" 
d="M78 166q-12 28 14 41l31 16q25 16 41 -12q36 -63 113.5 -101t179.5 -38q250 0 250 184q0 28 -9.5 51.5t-30.5 41t-40 30t-51.5 23.5t-51 17t-52.5 14t-44 11q-7 2 -40 10t-51 13.5t-52.5 17.5t-55.5 24t-48.5 31.5t-43 41.5t-26.5 52.5t-11 65.5q0 125 95.5 193t253.5 68
q123 0 213.5 -43.5t128.5 -114.5q15 -24 -15 -41l-31 -14q-22 -12 -40 12q-30 47 -100.5 77.5t-158.5 30.5q-113 0 -174 -43t-61 -120q0 -25 8.5 -46.5t27.5 -37.5t36.5 -27.5t47.5 -22t47.5 -15.5t50 -13t42.5 -11l36 -9t46.5 -12.5t48.5 -15.5t53 -21t48 -26t46 -34
t34.5 -41t25.5 -52t8 -61q0 -138 -93.5 -210.5t-266.5 -72.5q-142 0 -239.5 50.5t-139.5 138.5zM399 -158q10 23 35 23h41q17 0 24 -11t-1 -26l-68 -129q-12 -23 -37 -23h-33q-17 0 -23 10t1 27z" />
    <glyph glyph-name="uni021A" unicode="&#x21a;" 
d="M1051 1331q13 0 21.5 -8.5t8.5 -22.5v-49q0 -13 -8.5 -21.5t-21.5 -8.5h-414v-1190q0 -13 -8.5 -22t-22.5 -9h-57q-13 0 -22 9t-9 22v1190h-416q-14 0 -22 8.5t-8 21.5v49q0 14 8.5 22.5t21.5 8.5h949zM518 -145q9 22 35 22h41q17 0 23.5 -11t-1.5 -26l-67 -129
q-11 -22 -37 -22h-33q-17 0 -23 10t1 27z" />
    <glyph glyph-name="uni021B" unicode="&#x21b;" horiz-adv-x="630" 
d="M535 883q0 -13 -8.5 -22t-22.5 -9h-205v-629q0 -68 37 -98.5t96 -30.5h62q13 0 21.5 -8.5t8.5 -22.5v-32q0 -14 -8.5 -22.5t-21.5 -8.5h-97q-98 0 -154.5 55t-56.5 154v643h-104q-14 0 -22.5 9t-8.5 22v28q0 13 8.5 22t22.5 9h104v256q0 14 9 22.5t22 8.5h51
q14 0 22.5 -8.5t8.5 -22.5v-256h205q14 0 22.5 -9t8.5 -22v-28zM342 -143q9 22 35 22h41q17 0 23.5 -11t-1.5 -26l-67 -129q-11 -22 -37 -22h-33q-17 0 -23 10t1 27z" />
    <glyph glyph-name="circumflex" unicode="&#x2c6;" horiz-adv-x="458" 
d="M395 1178q9 -15 3.5 -26t-23.5 -11h-37q-26 0 -37 20l-72 119l-71 -119q-11 -20 -37 -20h-37q-18 0 -24 11t3 26l84 133q11 20 37 20h90q26 0 37 -20z" />
    <glyph glyph-name="caron" unicode="&#x2c7;" horiz-adv-x="458" 
d="M301 1311q11 20 37 20h37q18 0 23.5 -11t-3.5 -26l-84 -133q-11 -20 -37 -20h-90q-26 0 -37 20l-84 133q-9 15 -3 26t24 11h37q26 0 37 -20l71 -117z" />
    <glyph glyph-name="breve" unicode="&#x2d8;" horiz-adv-x="419" 
d="M348 1331q31 0 31 -2v-4q0 -77 -47.5 -122.5t-120.5 -45.5q-72 0 -121 45.5t-49 122.5q0 6 31 6h16q31 0 31 -2v-4q0 -42 25 -69t67 -27q43 0 67.5 27t24.5 69q0 6 31 6h14z" />
    <glyph glyph-name="dotaccent" unicode="&#x2d9;" horiz-adv-x="215" 
d="M109 1225q-27 0 -47.5 19.5t-20.5 47.5t20.5 47t47.5 19q26 0 45.5 -19t19.5 -47t-19.5 -47.5t-45.5 -19.5z" />
    <glyph glyph-name="ring" unicode="&#x2da;" horiz-adv-x="382" 
d="M201 1034q-67 0 -113.5 45t-46.5 113q0 70 46 114t114 44t112.5 -43.5t44.5 -114.5q0 -69 -44.5 -113.5t-112.5 -44.5zM201 1100q43 0 66.5 27t23.5 65q0 37 -23.5 65.5t-66.5 28.5t-66.5 -28.5t-23.5 -65.5q0 -38 23.5 -65t66.5 -27z" />
    <glyph glyph-name="ogonek" unicode="&#x2db;" horiz-adv-x="264" 
d="M221 -207q0 -27 -28 -33q-71 -11 -111.5 19.5t-40.5 79.5q0 41 23.5 75.5t56.5 55.5q13 10 37 10q20 0 22.5 -11t-12.5 -24q-49 -45 -49 -94q0 -22 15.5 -34t49.5 -5q37 6 37 -25v-14z" />
    <glyph glyph-name="tilde" unicode="&#x2dc;" horiz-adv-x="626" 
d="M74 1186q-15 0 -23.5 9t-5.5 24q11 63 52 102t100 39q77 0 137 -68q16 -17 25.5 -26t28.5 -18t40 -9q64 0 78 68q6 28 33 28h14q15 0 23.5 -8.5t7.5 -23.5q-9 -64 -49.5 -102t-106.5 -38q-79 0 -139 68q-17 18 -27.5 27.5t-27.5 17.5t-35 8q-30 0 -49.5 -20t-26.5 -50
q-9 -28 -33 -28h-16z" />
    <glyph glyph-name="hungarumlaut" unicode="&#x2dd;" horiz-adv-x="550" 
d="M121 1309q9 22 35 22h41q19 0 25 -10t-3 -27l-76 -133q-10 -20 -37 -20h-24q-18 0 -25 10t0 27zM391 1309q9 22 35 22h41q19 0 25 -10t-3 -27l-75 -133q-10 -20 -37 -20h-25q-18 0 -24.5 10t0.5 27z" />
    <glyph glyph-name="gravecomb" unicode="&#x300;" horiz-adv-x="0" 
d="M-154 1331q26 0 35 -22l62 -131q7 -17 0.5 -27t-23.5 -10h-37q-22 0 -35 22l-67 131q-8 15 -1.5 26t23.5 11h43z" />
    <glyph glyph-name="acutecomb" unicode="&#x301;" horiz-adv-x="0" 
d="M-160 1309q9 22 35 22h43q17 0 23.5 -10t-0.5 -27l-66 -131q-11 -22 -37 -22h-37q-17 0 -23 10t1 27z" />
    <glyph glyph-name="uni0302" unicode="&#x302;" horiz-adv-x="0" 
d="M-63 1178q9 -15 3 -26t-24 -11h-37q-26 0 -37 20l-71 119l-72 -119q-11 -20 -37 -20h-37q-18 0 -23.5 11t3.5 26l84 133q11 20 37 20h90q26 0 37 -20z" />
    <glyph glyph-name="tildecomb" unicode="&#x303;" horiz-adv-x="0" 
d="M-553 1186q-15 0 -23.5 9t-5.5 24q11 63 52 102t100 39q77 0 137 -68q16 -17 25.5 -26t28.5 -18t40 -9q64 0 78 68q6 28 33 28h14q15 0 23.5 -8.5t7.5 -23.5q-9 -64 -49.5 -102t-106.5 -38q-79 0 -139 68q-17 18 -27.5 27.5t-27.5 17.5t-35 8q-30 0 -49.5 -20t-26.5 -50
q-9 -28 -33 -28h-16z" />
    <glyph glyph-name="uni0304" unicode="&#x304;" horiz-adv-x="0" 
d="M-381 1300q0 14 8.5 22.5t22.5 8.5h278q14 0 22.5 -8.5t8.5 -22.5v-20q0 -14 -8.5 -22.5t-22.5 -8.5h-278q-14 0 -22.5 8.5t-8.5 22.5v20z" />
    <glyph glyph-name="uni0306" unicode="&#x306;" horiz-adv-x="0" 
d="M-72 1331q31 0 31 -2v-4q0 -76 -49 -123t-123 -47q-75 0 -125.5 47.5t-50.5 122.5q0 6 31 6h16q31 0 31 -2v-4q0 -41 27 -69.5t71 -28.5q43 0 69.5 28.5t26.5 69.5q0 6 31 6h14z" />
    <glyph glyph-name="uni0307" unicode="&#x307;" horiz-adv-x="0" 
d="M-106 1225q-27 0 -47.5 19.5t-20.5 47.5t20.5 47t47.5 19q26 0 45.5 -19t19.5 -47t-19.5 -47.5t-45.5 -19.5z" />
    <glyph glyph-name="uni0308" unicode="&#x308;" horiz-adv-x="0" 
d="M-473 1225q-27 0 -47.5 19.5t-20.5 47.5t20.5 47t47.5 19q26 0 45.5 -19t19.5 -47t-19.5 -47.5t-45.5 -19.5zM-113 1225q-27 0 -47 19t-20 48q0 28 20 47t47 19q26 0 46 -19t20 -47t-20 -47.5t-46 -19.5z" />
    <glyph glyph-name="uni030A" unicode="&#x30a;" horiz-adv-x="0" 
d="M-190 1051q-64 0 -108 42.5t-44 106.5q0 66 44 108t108 42t106.5 -41.5t42.5 -108.5q0 -64 -43 -106.5t-106 -42.5zM-190 1116q37 0 58 25t21 59t-21 60t-58 26q-39 0 -60.5 -26t-21.5 -60t21.5 -59t60.5 -25z" />
    <glyph glyph-name="uni030B" unicode="&#x30b;" horiz-adv-x="0" 
d="M-430 1309q9 22 35 22h41q19 0 25 -10t-3 -27l-76 -133q-10 -20 -36 -20h-25q-18 0 -25 10t0 27zM-160 1309q9 22 35 22h41q19 0 25.5 -10t-2.5 -27l-76 -133q-10 -20 -37 -20h-25q-18 0 -24.5 10t0.5 27z" />
    <glyph glyph-name="uni030C" unicode="&#x30c;" horiz-adv-x="0" 
d="M-158 1311q11 20 37 20h37q18 0 24 -11t-3 -26l-84 -133q-11 -20 -37 -20h-90q-26 0 -37 20l-84 133q-9 15 -3.5 26t23.5 11h37q26 0 37 -20l72 -117z" />
    <glyph glyph-name="uni0312" unicode="&#x312;" horiz-adv-x="0" 
d="M-78 1362q12 0 15.5 -8.5t-5.5 -20.5q-12 -12 -20 -28q45 -14 45 -62q0 -26 -18 -44.5t-48 -18.5t-48.5 18.5t-18.5 44.5q0 40 51 100q14 19 37 19h10z" />
    <glyph glyph-name="dotbelowcomb" unicode="&#x323;" horiz-adv-x="0" 
d="M-106 -133q-27 0 -47.5 19.5t-20.5 47.5t20.5 47t47.5 19q26 0 45.5 -19t19.5 -47t-19.5 -47.5t-45.5 -19.5z" />
    <glyph glyph-name="uni0326" unicode="&#x326;" horiz-adv-x="0" 
d="M-158 -23q10 23 35 23h41q17 0 24 -11t-1 -26l-68 -129q-11 -22 -37 -22h-33q-17 0 -23 9.5t1 26.5z" />
    <glyph glyph-name="uni0327" unicode="&#x327;" horiz-adv-x="0" 
d="M-162 -74q59 -6 90 -36t31 -70q0 -50 -36 -82.5t-103 -32.5q-41 0 -72 8q-24 5 -24 35v10q0 32 34 23q24 -8 62 -8q29 0 49 13t20 34q0 20 -22 32.5t-60 12.5q-14 0 -24 -2q-33 -7 -33 22v33q2 0 2 2l39 60q11 20 37 20h10q18 0 24 -10t-3 -27z" />
    <glyph glyph-name="uni0328" unicode="&#x328;" horiz-adv-x="0" 
d="M-43 -207q0 -27 -29 -33q-71 -11 -113 19.5t-42 79.5q0 40 24.5 75t57.5 56q13 10 36 10q20 0 24 -10t-11 -23q-49 -49 -49 -96q0 -22 15.5 -34t49.5 -5q37 6 37 -25v-14z" />
    <glyph glyph-name="uni0331" unicode="&#x331;" horiz-adv-x="0" 
d="M-373 -31q0 13 8.5 22t22.5 9h270q14 0 22.5 -9t8.5 -22v-20q0 -13 -8.5 -22t-22.5 -9h-270q-14 0 -22.5 9t-8.5 22v20z" />
    <glyph glyph-name="Gamma" unicode="&#x393;" horiz-adv-x="950" 
d="M766 1331q14 0 22.5 -8.5t8.5 -22.5v-49q0 -13 -8.5 -21.5t-22.5 -8.5h-537v-1190q0 -14 -8.5 -22.5t-21.5 -8.5h-56q-13 0 -21.5 8.5t-8.5 22.5v1269q0 14 8.5 22.5t21.5 8.5h623z" />
    <glyph glyph-name="uni0394" unicode="&#x394;" horiz-adv-x="1351" 
d="M678 1331q28 0 37 -24l475 -1182q8 -24 8 -39v-55q0 -13 -9 -22t-22 -9h-1024q-13 0 -21.5 8.5t-8.5 22.5v55q0 15 8 39l477 1182q9 24 37 24h43zM240 106h831l-416 1047z" />
    <glyph glyph-name="Sigma" unicode="&#x3a3;" horiz-adv-x="1216" 
d="M1032 1331q14 0 22.5 -8.5t8.5 -22.5v-49q0 -13 -8.5 -21.5t-22.5 -8.5h-733l532 -539q21 -22 -2 -45l-528 -526h731q14 0 22.5 -8.5t8.5 -22.5v-49q0 -13 -8.5 -22t-22.5 -9h-889q-13 0 -21.5 8.5t-8.5 22.5v39q0 23 16 39l563 550l-563 566q-16 16 -16 39v36
q0 14 8.5 22.5t21.5 8.5h889z" />
    <glyph glyph-name="Phi" unicode="&#x3a6;" horiz-adv-x="1599" 
d="M1446 668q0 -250 -165.5 -386t-451.5 -147v-108q0 -14 -8.5 -22.5t-21.5 -8.5h-39q-14 0 -22.5 9t-8.5 22v110q-286 11 -451 146.5t-165 384.5q0 247 165 382t451 146v109q0 13 8.5 21.5t22.5 8.5h39q13 0 21.5 -8.5t8.5 -21.5v-107q286 -11 451.5 -146t165.5 -384z
M829 250q243 11 372.5 118.5t129.5 299.5q0 190 -129.5 297t-372.5 118v-833zM229 668q0 -190 129 -297.5t371 -118.5v829q-242 -11 -371 -117.5t-129 -295.5z" />
    <glyph glyph-name="Psi" unicode="&#x3a8;" horiz-adv-x="1427" 
d="M1157 1300q0 14 8.5 22.5t22.5 8.5h55q13 0 22 -8.5t9 -22.5v-372q0 -141 -38 -246.5t-109.5 -172t-167 -101t-216.5 -39.5v-338q0 -14 -8.5 -22.5t-21.5 -8.5h-39q-14 0 -22.5 9t-8.5 22v338q-121 5 -216 40t-166.5 101t-109.5 172.5t-38 247.5v370q0 14 8.5 22.5
t21.5 8.5h56q13 0 21.5 -8.5t8.5 -22.5v-370q0 -230 104.5 -336t309.5 -115v821q0 14 8.5 22.5t22.5 8.5h39q13 0 21.5 -8.5t8.5 -22.5v-821q204 9 309 115.5t105 335.5v370z" />
    <glyph glyph-name="uni03A9" unicode="&#x3a9;" horiz-adv-x="1609" 
d="M1161 119h264q13 0 22 -8.5t9 -22.5v-49q0 -13 -9 -22t-22 -9h-469q-13 0 -21.5 8.5t-8.5 22.5v55q0 26 24 35q177 67 279 214.5t102 328.5q0 153 -63 279t-189 204t-293 78q-126 0 -230.5 -45t-173 -122.5t-105.5 -179t-37 -214.5q0 -178 100 -325.5t274 -213.5
q25 -9 25 -35v-59q0 -13 -8.5 -22t-22.5 -9h-465q-13 0 -21.5 8.5t-8.5 22.5v49q0 14 8.5 22.5t21.5 8.5h269q-133 93 -211 234t-78 313q0 196 82.5 351t234.5 243t346 88t345 -88t233 -243t82 -351q0 -172 -77 -313t-208 -234z" />
    <glyph glyph-name="uni1E04" unicode="&#x1e04;" horiz-adv-x="1234" 
d="M920 690q100 -38 159.5 -123t59.5 -202q0 -160 -107 -262.5t-264 -102.5h-625q-13 0 -21.5 8.5t-8.5 22.5v1269q0 14 8.5 22.5t21.5 8.5h580q158 0 262.5 -94.5t104.5 -253.5q0 -103 -45.5 -177.5t-124.5 -115.5zM231 1221v-486h478q118 0 189 66.5t71 175.5t-71 176.5
t-189 67.5h-478zM754 111q118 0 191 75.5t73 186.5t-73 185.5t-191 74.5h-523v-522h523zM549 -244q-27 0 -47.5 19.5t-20.5 48.5q0 28 20.5 46.5t47.5 18.5q26 0 45.5 -18.5t19.5 -46.5t-20 -48t-45 -20z" />
    <glyph glyph-name="uni1E05" unicode="&#x1e05;" 
d="M602 956q204 0 334.5 -136.5t130.5 -348.5q0 -211 -131 -349t-334 -138q-128 0 -225 57t-152 158v-168q0 -14 -8.5 -22.5t-21.5 -8.5h-52q-13 0 -21.5 8.5t-8.5 22.5v1269q0 14 8.5 22.5t21.5 8.5h52q13 0 21.5 -8.5t8.5 -22.5v-557q56 100 153 156.5t224 56.5zM590 92
q164 0 265 106t101 273t-101 273t-265 106t-264.5 -106t-100.5 -273t100.5 -273t264.5 -106zM598 -260q-27 0 -47.5 19.5t-20.5 47.5t20.5 47t47.5 19q26 0 46 -19t20 -47t-20 -47.5t-46 -19.5z" />
    <glyph glyph-name="uni1E0C" unicode="&#x1e0c;" horiz-adv-x="1331" 
d="M551 1331q294 0 475.5 -184t181.5 -481t-181.5 -481.5t-475.5 -184.5h-408q-13 0 -21.5 8.5t-8.5 22.5v1269q0 14 8.5 22.5t21.5 8.5h408zM551 117q110 0 207 36.5t171.5 104.5t117.5 173.5t43 234.5t-43 235t-117.5 174t-171.5 105t-207 37h-320v-1100h320zM530 -244
q-27 0 -47 19.5t-20 48.5q0 28 20 46.5t47 18.5q26 0 46 -18.5t20 -46.5t-20 -48t-46 -20z" />
    <glyph glyph-name="uni1E0D" unicode="&#x1e0d;" 
d="M928 1300q0 14 8.5 22.5t21.5 8.5h52q13 0 21.5 -8.5t8.5 -22.5v-1269q0 -14 -8.5 -22.5t-21.5 -8.5h-52q-13 0 -21.5 8.5t-8.5 22.5v166q-57 -100 -154 -156.5t-223 -56.5q-203 0 -333 137.5t-130 349.5q0 213 129.5 349t333.5 136q126 0 223 -56t154 -155v555zM563 92
q164 0 264.5 106t100.5 273t-100.5 273t-264.5 106q-163 0 -264.5 -106t-101.5 -273t101.5 -273t264.5 -106zM573 -260q-27 0 -47 19t-20 48q0 28 20 47t47 19q26 0 46 -19t20 -47t-20 -47.5t-46 -19.5z" />
    <glyph glyph-name="uni1E24" unicode="&#x1e24;" horiz-adv-x="1275" 
d="M1004 1300q0 14 8.5 22.5t21.5 8.5h58q13 0 21.5 -8.5t8.5 -22.5v-1269q0 -14 -8.5 -22.5t-21.5 -8.5h-58q-13 0 -21.5 8.5t-8.5 22.5v575h-773v-575q0 -14 -8.5 -22.5t-21.5 -8.5h-58q-13 0 -21.5 8.5t-8.5 22.5v1269q0 14 8.5 22.5t21.5 8.5h58q13 0 21.5 -8.5
t8.5 -22.5v-577h773v577zM612 -242q-27 0 -47 19.5t-20 48.5q0 28 20 46.5t47 18.5q26 0 46 -18.5t20 -46.5t-20 -48t-46 -20z" />
    <glyph glyph-name="uni1E25" unicode="&#x1e25;" horiz-adv-x="1073" 
d="M541 956q75 0 142 -22.5t120.5 -67t85 -118t31.5 -166.5v-551q0 -13 -9 -22t-22 -9h-51q-14 0 -22.5 9t-8.5 22v536q0 135 -82.5 213t-208.5 78q-127 0 -209 -77.5t-82 -213.5v-536q0 -14 -8.5 -22.5t-21.5 -8.5h-52q-13 0 -21.5 8.5t-8.5 22.5v1269q0 14 8.5 22.5
t21.5 8.5h52q13 0 21.5 -8.5t8.5 -22.5v-499q51 77 134.5 116t181.5 39zM532 -244q-27 0 -47 19.5t-20 48.5q0 28 20 46.5t47 18.5q26 0 46 -18.5t20 -46.5t-20 -48t-46 -20z" />
    <glyph glyph-name="uni1E36" unicode="&#x1e36;" horiz-adv-x="1071" 
d="M231 111h697q13 0 21.5 -8.5t8.5 -22.5v-49q0 -14 -8.5 -22.5t-21.5 -8.5h-785q-13 0 -21.5 8.5t-8.5 22.5v1269q0 14 8.5 22.5t21.5 8.5h58q13 0 21.5 -8.5t8.5 -22.5v-1189zM537 -244q-27 0 -47.5 19.5t-20.5 48.5q0 28 20.5 46.5t47.5 18.5q26 0 45.5 -18.5
t19.5 -46.5t-20 -48t-45 -20z" />
    <glyph glyph-name="uni1E37" unicode="&#x1e37;" horiz-adv-x="378" 
d="M225 31q0 -14 -8.5 -22.5t-21.5 -8.5h-52q-13 0 -21.5 8.5t-8.5 22.5v1269q0 14 8.5 22.5t21.5 8.5h52q13 0 21.5 -8.5t8.5 -22.5v-1269zM172 -244q-27 0 -47.5 19.5t-20.5 48.5q0 28 20.5 46.5t47.5 18.5q26 0 46 -18.5t20 -46.5t-20 -48t-46 -20z" />
    <glyph glyph-name="uni1E3E" unicode="&#x1e3e;" horiz-adv-x="1513" 
d="M764 1622q10 23 35 23h43q17 0 23 -10t-1 -27l-65 -131q-11 -23 -37 -23h-37q-17 0 -23.5 10t0.5 27zM1329 1331q13 0 22 -8.5t9 -22.5v-1269q0 -13 -9 -22t-22 -9h-57q-14 0 -22.5 9t-8.5 22v1079l-453 -920q-13 -22 -34 -22h-35q-22 0 -35 22l-453 920v-1079
q0 -14 -8.5 -22.5t-21.5 -8.5h-58q-13 0 -21.5 8.5t-8.5 22.5v1269q0 14 8.5 22.5t21.5 8.5h74q22 0 35 -22l483 -961l486 961q13 22 34 22h74z" />
    <glyph glyph-name="uni1E3F" unicode="&#x1e3f;" horiz-adv-x="1665" 
d="M838 1255q10 23 34 23h43q17 0 23.5 -10t-0.5 -27l-66 -131q-12 -23 -36 -23h-37q-17 0 -23.5 10t0.5 27zM1159 956q70 0 130.5 -20.5t111.5 -63t80.5 -117t29.5 -173.5v-551q0 -14 -8.5 -22.5t-21.5 -8.5h-51q-14 0 -22.5 9t-8.5 22v538q0 141 -75.5 213t-190.5 72
t-190 -71.5t-75 -213.5v-538q0 -14 -8.5 -22.5t-21.5 -8.5h-52q-13 0 -21.5 8.5t-8.5 22.5v538q0 141 -75.5 213t-191.5 72q-115 0 -189.5 -71.5t-74.5 -213.5v-538q0 -14 -8.5 -22.5t-21.5 -8.5h-52q-13 0 -21.5 8.5t-8.5 22.5v880q0 14 8.5 22.5t21.5 8.5h52
q13 0 21.5 -8.5t8.5 -22.5v-102q48 73 125 110t166 37q106 0 192 -46.5t126 -143.5q45 97 132 143.5t193 46.5z" />
    <glyph glyph-name="uni1E44" unicode="&#x1e44;" horiz-adv-x="1271" 
d="M635 1444q-27 0 -47.5 19.5t-20.5 47.5t20.5 47t47.5 19q26 0 45.5 -19t19.5 -47t-19.5 -47.5t-45.5 -19.5zM999 1300q0 14 8.5 22.5t22.5 8.5h57q13 0 22 -8.5t9 -22.5v-1269q0 -13 -9 -22t-22 -9h-61q-26 0 -39 20l-754 1108v-1097q0 -14 -8.5 -22.5t-21.5 -8.5h-58
q-13 0 -21.5 8.5t-8.5 22.5v1269q0 14 8.5 22.5t21.5 8.5h60q26 0 39 -20l755 -1110v1099z" />
    <glyph glyph-name="uni1E45" unicode="&#x1e45;" horiz-adv-x="1073" 
d="M518 1069q-27 0 -47 19.5t-20 48.5q0 28 20 46.5t47 18.5q26 0 46 -18.5t20 -46.5t-20 -48t-46 -20zM541 956q75 0 142 -22.5t120.5 -67t85 -118t31.5 -166.5v-551q0 -13 -9 -22t-22 -9h-51q-14 0 -22.5 9t-8.5 22v536q0 135 -82.5 213t-208.5 78q-127 0 -209 -77.5
t-82 -213.5v-536q0 -14 -8.5 -22.5t-21.5 -8.5h-52q-13 0 -21.5 8.5t-8.5 22.5v880q0 14 8.5 22.5t21.5 8.5h52q13 0 21.5 -8.5t8.5 -22.5v-110q51 77 134.5 116t181.5 39z" />
    <glyph glyph-name="uni1E46" unicode="&#x1e46;" horiz-adv-x="1271" 
d="M999 1300q0 14 8.5 22.5t22.5 8.5h57q13 0 22 -8.5t9 -22.5v-1269q0 -13 -9 -22t-22 -9h-61q-26 0 -39 20l-754 1108v-1097q0 -14 -8.5 -22.5t-21.5 -8.5h-58q-13 0 -21.5 8.5t-8.5 22.5v1269q0 14 8.5 22.5t21.5 8.5h60q26 0 39 -20l755 -1110v1099zM635 -244
q-27 0 -47.5 19.5t-20.5 48.5q0 28 20.5 46.5t47.5 18.5q26 0 45.5 -18.5t19.5 -46.5t-20 -48t-45 -20z" />
    <glyph glyph-name="uni1E47" unicode="&#x1e47;" horiz-adv-x="1073" 
d="M541 956q75 0 142 -22.5t120.5 -67t85 -118t31.5 -166.5v-551q0 -13 -9 -22t-22 -9h-51q-14 0 -22.5 9t-8.5 22v536q0 135 -82.5 213t-208.5 78q-127 0 -209 -77.5t-82 -213.5v-536q0 -14 -8.5 -22.5t-21.5 -8.5h-52q-13 0 -21.5 8.5t-8.5 22.5v880q0 14 8.5 22.5
t21.5 8.5h52q13 0 21.5 -8.5t8.5 -22.5v-110q51 77 134.5 116t181.5 39zM518 -244q-27 0 -47 19.5t-20 48.5q0 28 20 46.5t47 18.5q26 0 46 -18.5t20 -46.5t-20 -48t-46 -20z" />
    <glyph glyph-name="uni1E62" unicode="&#x1e62;" horiz-adv-x="1224" 
d="M82 252q-10 24 14 41l45 29q28 17 43 -13q49 -96 163.5 -154.5t270.5 -58.5q365 0 365 271q0 35 -13 66t-31.5 54t-50 43.5t-58.5 33.5t-67.5 26.5t-65.5 20t-64 16.5t-53 14q-12 3 -51.5 12t-63 15.5t-65.5 19.5t-70 26.5t-64.5 33t-60 43.5t-45.5 53.5t-32.5 67.5
t-10.5 81q0 175 133.5 268t357.5 93q167 0 296 -65t177 -167q13 -25 -16 -41l-45 -24q-26 -13 -41 14q-41 71 -145.5 118.5t-235.5 47.5q-168 0 -259 -63t-91 -177q0 -29 8.5 -54.5t25.5 -46t36 -37t48 -30.5t52.5 -23.5t58.5 -19.5t57 -15.5t57 -13.5t50 -12
q10 -3 48 -12.5t62 -17t66 -21.5t71.5 -29t67 -36t62.5 -46.5t48 -56.5t34.5 -70.5t11.5 -84.5q0 -192 -131.5 -293t-372.5 -101q-195 0 -333 74.5t-193 200.5zM618 -256q-27 0 -47 19.5t-20 48.5q0 28 20 46.5t47 18.5q26 0 46 -18.5t20 -46.5t-20 -48t-46 -20z" />
    <glyph glyph-name="uni1E6C" unicode="&#x1e6c;" 
d="M1051 1331q13 0 21.5 -8.5t8.5 -22.5v-49q0 -13 -8.5 -21.5t-21.5 -8.5h-414v-1190q0 -13 -8.5 -22t-22.5 -9h-57q-13 0 -22 9t-9 22v1190h-416q-14 0 -22 8.5t-8 21.5v49q0 14 8.5 22.5t21.5 8.5h949zM578 -240q-27 0 -47.5 19.5t-20.5 48.5q0 28 20.5 47t47.5 19
q26 0 45.5 -19t19.5 -47t-19.5 -48t-45.5 -20z" />
    <glyph glyph-name="uni1E6D" unicode="&#x1e6d;" horiz-adv-x="630" 
d="M535 883q0 -13 -8.5 -22t-22.5 -9h-205v-629q0 -68 37 -98.5t96 -30.5h62q13 0 21.5 -8.5t8.5 -22.5v-32q0 -14 -8.5 -22.5t-21.5 -8.5h-97q-98 0 -154.5 55t-56.5 154v643h-104q-14 0 -22.5 9t-8.5 22v28q0 13 8.5 22t22.5 9h104v256q0 14 9 22.5t22 8.5h51
q14 0 22.5 -8.5t8.5 -22.5v-256h205q14 0 22.5 -9t8.5 -22v-28zM401 -238q-27 0 -47 19.5t-20 48.5q0 28 20 47t47 19q26 0 46 -19t20 -47t-20 -48t-46 -20z" />
    <glyph glyph-name="Wgrave" unicode="&#x1e80;" horiz-adv-x="1933" 
d="M897 1645q25 0 35 -23l61 -131q7 -17 1 -27t-23 -10h-37q-22 0 -35 23l-68 131q-8 15 -1 26t24 11h43zM1726 1307q8 24 35 24h64q17 0 23 -9.5t1 -25.5l-424 -1271q-8 -25 -34 -25h-45q-27 0 -35 25l-355 1060l-354 -1060q-8 -25 -35 -25h-45q-27 0 -35 25l-424 1271
q-5 15 1.5 25t23.5 10h64q26 0 34 -24l361 -1084l360 1084q8 24 35 24h35q27 0 35 -24l358 -1074z" />
    <glyph glyph-name="wgrave" unicode="&#x1e81;" horiz-adv-x="1497" 
d="M678 1270q25 0 35 -23l61 -131q7 -17 1 -27t-23 -10h-37q-22 0 -35 23l-68 131q-8 15 -1 26t24 11h43zM1290 918q8 24 35 24h53q17 0 23.5 -10t1.5 -25l-299 -882q-8 -25 -35 -25h-59q-27 0 -35 25l-248 723l-250 -723q-8 -25 -35 -25h-59q-27 0 -35 25l-295 882
q-10 35 25 35h55q27 0 35 -24l252 -758l260 758q8 24 35 24h26q27 0 35 -24l260 -758z" />
    <glyph glyph-name="Wacute" unicode="&#x1e82;" horiz-adv-x="1933" 
d="M983 1622q10 23 35 23h43q17 0 23 -10t-1 -27l-65 -131q-12 -23 -37 -23h-37q-17 0 -23 10t1 27zM1726 1307q8 24 35 24h64q17 0 23 -9.5t1 -25.5l-424 -1271q-8 -25 -34 -25h-45q-27 0 -35 25l-355 1060l-354 -1060q-8 -25 -35 -25h-45q-27 0 -35 25l-424 1271
q-5 15 1.5 25t23.5 10h64q26 0 34 -24l361 -1084l360 1084q8 24 35 24h35q27 0 35 -24l358 -1074z" />
    <glyph glyph-name="wacute" unicode="&#x1e83;" horiz-adv-x="1497" 
d="M764 1247q10 23 35 23h43q17 0 23 -10t-1 -27l-65 -131q-11 -23 -37 -23h-37q-17 0 -23.5 10t0.5 27zM1290 918q8 24 35 24h53q17 0 23.5 -10t1.5 -25l-299 -882q-8 -25 -35 -25h-59q-27 0 -35 25l-248 723l-250 -723q-8 -25 -35 -25h-59q-27 0 -35 25l-295 882
q-10 35 25 35h55q27 0 35 -24l252 -758l260 758q8 24 35 24h26q27 0 35 -24l260 -758z" />
    <glyph glyph-name="Wdieresis" unicode="&#x1e84;" horiz-adv-x="1933" 
d="M778 1444q-27 0 -47 19t-20 48q0 28 20 47t47 19q26 0 46 -19t20 -47t-20 -47.5t-46 -19.5zM1139 1444q-27 0 -47.5 19.5t-20.5 47.5t20.5 47t47.5 19q26 0 45.5 -19t19.5 -47t-19.5 -47.5t-45.5 -19.5zM1726 1307q8 24 35 24h64q17 0 23 -9.5t1 -25.5l-424 -1271
q-8 -25 -34 -25h-45q-27 0 -35 25l-355 1060l-354 -1060q-8 -25 -35 -25h-45q-27 0 -35 25l-424 1271q-5 15 1.5 25t23.5 10h64q26 0 34 -24l361 -1084l360 1084q8 24 35 24h35q27 0 35 -24l358 -1074z" />
    <glyph glyph-name="wdieresis" unicode="&#x1e85;" horiz-adv-x="1497" 
d="M559 1069q-27 0 -47 19.5t-20 48.5q0 28 20 46.5t47 18.5q26 0 46 -18.5t20 -46.5t-20 -48t-46 -20zM920 1069q-27 0 -47.5 19.5t-20.5 48.5q0 28 20.5 46.5t47.5 18.5q26 0 45.5 -18.5t19.5 -46.5q0 -29 -19.5 -48.5t-45.5 -19.5zM1290 918q8 24 35 24h53q17 0 23.5 -10
t1.5 -25l-299 -882q-8 -25 -35 -25h-59q-27 0 -35 25l-248 723l-250 -723q-8 -25 -35 -25h-59q-27 0 -35 25l-295 882q-10 35 25 35h55q27 0 35 -24l252 -758l260 758q8 24 35 24h26q27 0 35 -24l260 -758z" />
    <glyph glyph-name="uni1E92" unicode="&#x1e92;" horiz-adv-x="1101" 
d="M989 1247q0 -19 -12 -37l-741 -1097l708 -2q14 0 22.5 -8.5t8.5 -22.5v-49q0 -13 -8.5 -22t-22.5 -9h-821q-13 0 -22 9t-9 22v53q0 19 12 37l744 1100h-711q-14 0 -22.5 8.5t-8.5 21.5v49q0 14 9 22.5t22 8.5h821q14 0 22.5 -8.5t8.5 -22.5v-53zM549 -244
q-27 0 -47.5 19.5t-20.5 48.5q0 28 20.5 46.5t47.5 18.5q26 0 45.5 -18.5t19.5 -46.5t-20 -48t-45 -20z" />
    <glyph glyph-name="uni1E93" unicode="&#x1e93;" horiz-adv-x="882" 
d="M739 942q13 0 22 -9t9 -22v-39q0 -18 -12 -36l-545 -738h516q14 0 22.5 -8.5t8.5 -21.5v-37q0 -13 -9 -22t-22 -9h-627q-13 0 -21.5 8.5t-8.5 22.5v39q0 18 12 36l547 740h-518q-13 0 -22 9t-9 22v34q0 13 9 22t22 9h626zM424 -244q-27 0 -47.5 19.5t-20.5 48.5
q0 28 20.5 46.5t47.5 18.5q26 0 45.5 -18.5t19.5 -46.5t-19.5 -48t-45.5 -20z" />
    <glyph glyph-name="uni1EA0" unicode="&#x1ea0;" horiz-adv-x="1314" 
d="M1143 0q-28 0 -37 25l-139 340h-639l-140 -340q-9 -25 -36 -25h-62q-36 0 -24 35l526 1272q9 24 37 24h37q27 0 36 -24l527 -1272q12 -35 -25 -35h-61zM373 475h549l-275 672zM657 -244q-27 0 -47 19.5t-20 48.5q0 28 20 46.5t47 18.5q26 0 46 -18.5t20 -46.5t-20 -48
t-46 -20z" />
    <glyph glyph-name="uni1EA1" unicode="&#x1ea1;" 
d="M928 911q0 14 8.5 22.5t21.5 8.5h52q13 0 21.5 -8.5t8.5 -22.5v-880q0 -14 -8.5 -22.5t-21.5 -8.5h-52q-13 0 -21.5 8.5t-8.5 22.5v166q-57 -100 -154 -156.5t-223 -56.5q-203 0 -333 137.5t-130 349.5q0 213 129.5 349t333.5 136q126 0 223 -56t154 -155v166zM563 92
q164 0 264.5 106t100.5 273t-100.5 273t-264.5 106q-163 0 -264.5 -106t-101.5 -273t101.5 -273t264.5 -106zM600 -250q-27 0 -47.5 19.5t-20.5 48.5q0 28 20.5 46.5t47.5 18.5q26 0 46 -18.5t20 -46.5t-20 -48t-46 -20z" />
    <glyph glyph-name="uni1EB8" unicode="&#x1eb8;" horiz-adv-x="1105" 
d="M963 1251q0 -13 -8.5 -21.5t-22.5 -8.5h-701v-502h658q13 0 22 -8.5t9 -22.5v-49q0 -13 -9 -22t-22 -9h-658v-497h701q14 0 22.5 -8.5t8.5 -22.5v-49q0 -13 -8.5 -22t-22.5 -9h-789q-13 0 -21.5 8.5t-8.5 22.5v1269q0 14 8.5 22.5t21.5 8.5h789q14 0 22.5 -8.5t8.5 -22.5
v-49zM555 -240q-27 0 -47.5 19.5t-20.5 48.5q0 28 20.5 47t47.5 19q26 0 46 -19t20 -47t-20 -48t-46 -20z" />
    <glyph glyph-name="uni1EB9" unicode="&#x1eb9;" horiz-adv-x="1128" 
d="M551 958q198 0 324 -137.5t126 -349.5v-8q0 -14 -8.5 -22.5t-21.5 -8.5h-774q12 -158 112 -254t254 -96q189 0 295 131q19 26 43 8l31 -20q26 -16 6 -43q-64 -83 -160.5 -129.5t-214.5 -46.5q-212 0 -343.5 138t-131.5 351q0 214 127 350.5t336 136.5zM551 862
q-153 0 -247.5 -95t-106.5 -253h698q-12 155 -105 251.5t-239 96.5zM563 -254q-27 0 -47 19.5t-20 48.5q0 28 20 46.5t47 18.5q26 0 46 -18.5t20 -46.5t-20 -48t-46 -20z" />
    <glyph glyph-name="uni1EBC" unicode="&#x1ebc;" horiz-adv-x="1105" 
d="M313 1450q-15 0 -23 9t-5 24q11 63 51.5 102t99.5 39q77 0 137 -68q15 -16 25.5 -25.5t29.5 -18.5t40 -9q63 0 77 68q6 28 33 28h15q33 0 30 -32q-9 -64 -49 -102t-106 -38q-80 0 -140 68q-17 18 -27.5 27.5t-27.5 17.5t-35 8q-30 0 -50 -19.5t-26 -49.5q-10 -29 -32 -29
h-17zM963 1251q0 -13 -8.5 -21.5t-22.5 -8.5h-701v-502h658q13 0 22 -8.5t9 -22.5v-49q0 -13 -9 -22t-22 -9h-658v-497h701q14 0 22.5 -8.5t8.5 -22.5v-49q0 -13 -8.5 -22t-22.5 -9h-789q-13 0 -21.5 8.5t-8.5 22.5v1269q0 14 8.5 22.5t21.5 8.5h789q14 0 22.5 -8.5
t8.5 -22.5v-49z" />
    <glyph glyph-name="uni1EBD" unicode="&#x1ebd;" horiz-adv-x="1128" 
d="M311 1075q-15 0 -23 9t-5 24q11 63 51.5 102t99.5 39q78 0 137 -67q16 -17 25.5 -26t29 -18.5t40.5 -9.5q63 0 77 68q6 29 33 29h15q15 0 23 -9t7 -24q-9 -64 -49 -101.5t-106 -37.5q-81 0 -140 67q-17 18 -27.5 27.5t-27.5 18t-35 8.5q-30 0 -49.5 -20t-26.5 -50
q-10 -29 -32 -29h-17zM551 958q198 0 324 -137.5t126 -349.5v-8q0 -14 -8.5 -22.5t-21.5 -8.5h-774q12 -158 112 -254t254 -96q189 0 295 131q19 26 43 8l31 -20q26 -16 6 -43q-64 -83 -160.5 -129.5t-214.5 -46.5q-212 0 -343.5 138t-131.5 351q0 214 127 350.5t336 136.5z
M551 862q-153 0 -247.5 -95t-106.5 -253h698q-12 155 -105 251.5t-239 96.5z" />
    <glyph glyph-name="uni1ECA" unicode="&#x1eca;" horiz-adv-x="385" 
d="M231 31q0 -14 -8.5 -22.5t-21.5 -8.5h-58q-13 0 -21.5 8.5t-8.5 22.5v1269q0 14 8.5 22.5t21.5 8.5h58q13 0 21.5 -8.5t8.5 -22.5v-1269zM174 -244q-27 0 -47.5 19.5t-20.5 48.5q0 28 20.5 46.5t47.5 18.5q26 0 46 -18.5t20 -46.5t-20 -48t-46 -20z" />
    <glyph glyph-name="uni1ECB" unicode="&#x1ecb;" horiz-adv-x="415" 
d="M186 1163q-29 0 -51 21.5t-22 54.5q0 31 22 51.5t51 20.5q30 0 53 -20.5t23 -51.5q0 -33 -23 -54.5t-53 -21.5zM244 31q0 -13 -9 -22t-22 -9h-51q-14 0 -22.5 9t-8.5 22v880q0 13 8.5 22t22.5 9h51q13 0 22 -9t9 -22v-880zM188 -260q-27 0 -47 19t-20 48q0 28 20 47
t47 19q26 0 46 -19t20 -47t-20 -47.5t-46 -19.5z" />
    <glyph glyph-name="uni1ECC" unicode="&#x1ecc;" horiz-adv-x="1544" 
d="M758 -16q-194 0 -346.5 88t-236 243t-83.5 351t83.5 351t236 243t346.5 88t346 -88t234.5 -243t82.5 -351t-82.5 -351t-234.5 -243t-346 -88zM758 102q245 0 395 158.5t150 405.5t-150 405t-395 158q-244 0 -395.5 -158t-151.5 -405t151.5 -405.5t395.5 -158.5zM760 -260
q-27 0 -47.5 19.5t-20.5 47.5t20.5 47t47.5 19q26 0 45.5 -19t19.5 -47t-19.5 -47.5t-45.5 -19.5z" />
    <glyph glyph-name="uni1ECD" unicode="&#x1ecd;" horiz-adv-x="1169" 
d="M565 -18q-211 0 -344 138.5t-133 350.5q0 213 133 350t344 137t343 -136.5t132 -350.5q0 -213 -132.5 -351t-342.5 -138zM565 92q161 0 261 107t100 272t-100 272t-261 107t-262.5 -107.5t-101.5 -271.5t101.5 -271.5t262.5 -107.5zM567 -260q-27 0 -47 19t-20 48
q0 28 20 47t47 19q26 0 46 -19t20 -47t-20 -47.5t-46 -19.5z" />
    <glyph glyph-name="uni1EE4" unicode="&#x1ee4;" horiz-adv-x="1257" 
d="M985 1300q0 14 8.5 22.5t22.5 8.5h57q13 0 22 -8.5t9 -22.5v-839q0 -210 -133 -343.5t-363 -133.5t-362.5 133t-132.5 344v839q0 14 8.5 22.5t21.5 8.5h58q13 0 21.5 -8.5t8.5 -22.5v-831q0 -171 101.5 -270t275.5 -99t275.5 99t101.5 270v831zM610 -246q-27 0 -47 19.5
t-20 48.5q0 28 20 46.5t47 18.5q26 0 46 -18.5t20 -46.5t-20 -48t-46 -20z" />
    <glyph glyph-name="uni1EE5" unicode="&#x1ee5;" horiz-adv-x="1073" 
d="M807 911q0 13 8.5 22t22.5 9h51q13 0 22 -9t9 -22v-880q0 -13 -9 -22t-22 -9h-51q-14 0 -22.5 9t-8.5 22v108q-51 -77 -134 -116t-181 -39q-75 0 -142 22.5t-120.5 67t-85 118t-31.5 166.5v553q0 14 8.5 22.5t21.5 8.5h52q13 0 21.5 -8.5t8.5 -22.5v-538
q0 -135 82.5 -213t208.5 -78q127 0 209 77.5t82 213.5v538zM518 -256q-27 0 -47 19.5t-20 48.5q0 28 20 46.5t47 18.5q26 0 46 -18.5t20 -46.5t-20 -48t-46 -20z" />
    <glyph glyph-name="Ygrave" unicode="&#x1ef2;" horiz-adv-x="1179" 
d="M512 1645q25 0 35 -23l61 -131q7 -17 1 -27t-23 -10h-37q-22 0 -35 23l-68 131q-8 15 -1 26t24 11h43zM1063 1331q18 0 23.5 -11t-3.5 -26l-452 -700v-563q0 -13 -8.5 -22t-22.5 -9h-57q-13 0 -22 9t-9 22v559l-455 704q-9 15 -3 26t24 11h69q26 0 37 -20l385 -598
l387 598q11 20 37 20h70z" />
    <glyph glyph-name="ygrave" unicode="&#x1ef3;" horiz-adv-x="980" 
d="M420 1270q25 0 35 -23l61 -131q7 -17 1 -27t-23 -10h-37q-22 0 -35 23l-68 131q-8 15 -1 26t24 11h43zM762 918q9 24 37 24h51q36 0 24 -35l-499 -1259q-9 -25 -37 -25h-47q-37 0 -25 35l135 342l-356 907q-12 35 25 35h53q28 0 37 -24l299 -762z" />
    <glyph glyph-name="uni1EF4" unicode="&#x1ef4;" horiz-adv-x="1179" 
d="M1063 1331q18 0 23.5 -11t-3.5 -26l-452 -700v-563q0 -13 -8.5 -22t-22.5 -9h-57q-13 0 -22 9t-9 22v559l-455 704q-9 15 -3 26t24 11h69q26 0 37 -20l385 -598l387 598q11 20 37 20h70zM573 -244q-27 0 -47 19.5t-20 48.5q0 28 20 46.5t47 18.5q26 0 46 -18.5t20 -46.5
t-20 -48t-46 -20z" />
    <glyph glyph-name="uni1EF5" unicode="&#x1ef5;" horiz-adv-x="980" 
d="M762 918q9 24 37 24h51q36 0 24 -35l-499 -1259q-9 -25 -37 -25h-47q-37 0 -25 35l135 342l-356 907q-12 35 25 35h53q28 0 37 -24l299 -762zM614 -350q-27 0 -47 19t-20 48q0 28 20 47t47 19q26 0 46 -19t20 -47t-20 -47.5t-46 -19.5z" />
    <glyph glyph-name="uni1EF8" unicode="&#x1ef8;" horiz-adv-x="1179" 
d="M332 1450q-15 0 -23.5 9t-5.5 24q11 63 52 102t100 39q77 0 137 -68q16 -17 25.5 -26t28.5 -18t40 -9q64 0 78 68q6 28 33 28h14q15 0 23.5 -8.5t7.5 -23.5q-9 -64 -49.5 -102t-106.5 -38q-79 0 -139 68q-17 18 -27.5 27.5t-27.5 17.5t-35 8q-31 0 -50.5 -19.5
t-25.5 -49.5q-10 -29 -33 -29h-16zM1063 1331q18 0 23.5 -11t-3.5 -26l-452 -700v-563q0 -13 -8.5 -22t-22.5 -9h-57q-13 0 -22 9t-9 22v559l-455 704q-9 15 -3 26t24 11h69q26 0 37 -20l385 -598l387 598q11 20 37 20h70z" />
    <glyph glyph-name="uni1EF9" unicode="&#x1ef9;" horiz-adv-x="960" 
d="M219 1075q-15 0 -23.5 9t-5.5 24q11 63 52 102t100 39q78 0 137 -67q16 -17 25.5 -26t28.5 -18.5t40 -9.5q64 0 78 68q6 29 33 29h14q15 0 23.5 -9t7.5 -24q-9 -63 -49.5 -101t-106.5 -38q-80 0 -139 67q-17 18 -27.5 27.5t-27.5 18t-35 8.5q-30 0 -49.5 -20t-26.5 -50
q-10 -29 -32 -29h-17zM762 918q9 24 37 24h51q36 0 24 -35l-499 -1259q-9 -25 -37 -25h-47q-37 0 -25 35l135 342l-356 907q-12 35 25 35h53q28 0 37 -24l299 -762z" />
    <glyph glyph-name="endash" unicode="&#x2013;" horiz-adv-x="1009" 
d="M113 639q0 14 8.5 22.5t21.5 8.5h682q13 0 22 -9t9 -22v-49q0 -14 -9 -22.5t-22 -8.5h-682q-13 0 -21.5 8.5t-8.5 22.5v49z" />
    <glyph glyph-name="emdash" unicode="&#x2014;" horiz-adv-x="1325" 
d="M113 639q0 14 8.5 22.5t21.5 8.5h998q13 0 21.5 -8.5t8.5 -22.5v-49q0 -14 -8.5 -22.5t-21.5 -8.5h-998q-13 0 -21.5 8.5t-8.5 22.5v49z" />
    <glyph glyph-name="quoteleft" unicode="&#x2018;" horiz-adv-x="325" 
d="M211 1122q-6 -26 -35 -26h-65q-37 0 -25 34l68 177q9 24 34 24h31q35 0 29 -33z" />
    <glyph glyph-name="quoteright" unicode="&#x2019;" horiz-adv-x="325" 
d="M115 1305q6 26 35 26h65q37 0 25 -35l-68 -176q-9 -24 -35 -24h-31q-34 0 -28 32z" />
    <glyph glyph-name="quotesinglbase" unicode="&#x201a;" horiz-adv-x="325" 
d="M115 82q7 27 35 27h65q37 0 25 -35l-66 -170q-9 -25 -37 -25h-31q-34 0 -28 33z" />
    <glyph glyph-name="quotedblleft" unicode="&#x201c;" horiz-adv-x="624" 
d="M211 1122q-6 -26 -35 -26h-65q-37 0 -25 34l68 177q9 24 34 24h31q35 0 29 -33zM510 1122q-6 -26 -35 -26h-65q-37 0 -25 34l68 177q9 24 34 24h31q35 0 29 -33z" />
    <glyph glyph-name="quotedblright" unicode="&#x201d;" horiz-adv-x="624" 
d="M115 1305q6 26 35 26h65q37 0 25 -35l-68 -176q-9 -24 -35 -24h-31q-34 0 -28 32zM412 1305q6 26 34 26h68q37 0 25 -35l-68 -176q-9 -24 -37 -24h-28q-35 0 -29 32z" />
    <glyph glyph-name="quotedblbase" unicode="&#x201e;" horiz-adv-x="624" 
d="M115 82q6 27 35 27h65q37 0 25 -35l-68 -176q-9 -25 -35 -25h-31q-34 0 -28 33zM412 82q6 27 34 27h68q37 0 25 -35l-68 -176q-9 -25 -37 -25h-28q-35 0 -29 33z" />
    <glyph glyph-name="dagger" unicode="&#x2020;" horiz-adv-x="858" 
d="M674 956q14 0 22.5 -8.5t8.5 -21.5v-33q0 -13 -8.5 -22t-22.5 -9h-209v-831q0 -13 -8.5 -22t-22.5 -9h-49q-13 0 -22 9t-9 22v831h-211q-13 0 -21.5 8.5t-8.5 22.5v33q0 14 8.5 22t21.5 8h211v344q0 14 9 22.5t22 8.5h49q14 0 22.5 -8.5t8.5 -22.5v-344h209z" />
    <glyph glyph-name="daggerdbl" unicode="&#x2021;" horiz-adv-x="858" 
d="M705 883q0 -13 -8.5 -22t-22.5 -9h-209v-358h209q14 0 22.5 -9t8.5 -22v-33q0 -14 -8.5 -22.5t-22.5 -8.5h-209v-368q0 -13 -8.5 -22t-22.5 -9h-49q-13 0 -22 9t-9 22v368h-211q-13 0 -21.5 8.5t-8.5 22.5v33q0 14 8.5 22.5t21.5 8.5h211v358h-211q-13 0 -21.5 8.5
t-8.5 22.5v32q0 14 8.5 22.5t21.5 8.5h211v354q0 14 9 22.5t22 8.5h49q14 0 22.5 -8.5t8.5 -22.5v-354h209q14 0 22.5 -9t8.5 -22v-32z" />
    <glyph glyph-name="bullet" unicode="&#x2022;" horiz-adv-x="385" 
d="M193 545q-51 0 -86 35t-35 86t35 85.5t86 34.5t85.5 -34.5t34.5 -85.5t-34.5 -86t-85.5 -35z" />
    <glyph glyph-name="ellipsis" unicode="&#x2026;" horiz-adv-x="997" 
d="M145 -4q-32 0 -52.5 21t-20.5 53q0 31 20.5 51t52.5 20q31 0 51.5 -20t20.5 -51q0 -32 -20.5 -53t-51.5 -21zM504 -4q-32 0 -53 21t-21 53q0 31 21 51t53 20q31 0 51 -20t20 -51q0 -32 -20 -53t-51 -21zM854 -4q-32 0 -53 21t-21 53q0 31 21 51t53 20q31 0 51.5 -20
t20.5 -51q0 -32 -20.5 -53t-51.5 -21z" />
    <glyph glyph-name="perthousand" unicode="&#x2030;" horiz-adv-x="2412" 
d="M403 743q-125 0 -207.5 83.5t-82.5 211.5q0 131 82 214t208 83q124 0 206.5 -83t82.5 -214q0 -128 -82.5 -211.5t-206.5 -83.5zM512 23q-12 -23 -37 -23h-35q-17 0 -22.5 11t2.5 26l686 1272q11 22 37 22h35q17 0 22.5 -11t-2.5 -26zM403 829q88 0 145.5 58.5t57.5 150.5
q0 93 -57.5 152t-145.5 59t-146 -59t-58 -152q0 -92 58 -150.5t146 -58.5zM1217 -4q-125 0 -208 83.5t-83 211.5q0 132 82.5 214.5t208.5 82.5q125 0 206.5 -82.5t81.5 -214.5q0 -128 -82 -211.5t-206 -83.5zM1970 -4q-125 0 -208 83.5t-83 211.5q0 132 82.5 214.5
t208.5 82.5q125 0 207 -82.5t82 -214.5q0 -128 -82.5 -211.5t-206.5 -83.5zM1217 82q88 0 145 58.5t57 150.5q0 93 -57 152t-145 59q-89 0 -147 -59t-58 -152q0 -92 58.5 -150.5t146.5 -58.5zM1970 82q88 0 145.5 58.5t57.5 150.5q0 93 -57.5 152t-145.5 59q-89 0 -147 -59
t-58 -152q0 -92 58.5 -150.5t146.5 -58.5z" />
    <glyph glyph-name="guilsinglleft" unicode="&#x2039;" horiz-adv-x="677" 
d="M530 313q14 -13 9 -25t-25 -12h-68q-22 0 -36 17l-318 342q-19 22 0 45l318 342q13 16 36 16h68q20 0 25 -12t-9 -25l-315 -344z" />
    <glyph glyph-name="guilsinglright" unicode="&#x203a;" horiz-adv-x="677" 
d="M123 276q-20 0 -25.5 12t8.5 25l316 344l-316 344q-14 13 -8.5 25t25.5 12h67q24 0 37 -16l318 -342q19 -23 0 -45l-318 -342q-14 -17 -37 -17h-67z" />
    <glyph glyph-name="fraction" unicode="&#x2044;" horiz-adv-x="966" 
d="M117 20q-11 -20 -37 -20q-15 0 -20.5 11t3.5 26l787 1274q11 20 37 20q15 0 20 -11t-4 -26z" />
    <glyph glyph-name="uni2070" unicode="&#x2070;" horiz-adv-x="856" 
d="M418 518q-151 0 -238.5 115t-87.5 299q0 185 87.5 300.5t238.5 115.5q152 0 238.5 -115t86.5 -301q0 -184 -86.5 -299t-238.5 -115zM418 590q118 0 185 93.5t67 248.5q0 157 -66.5 249.5t-185.5 92.5q-118 0 -185 -92.5t-67 -249.5q0 -154 67.5 -248t184.5 -94z" />
    <glyph glyph-name="uni2074" unicode="&#x2074;" horiz-adv-x="759" 
d="M649 764q19 0 19 -19v-20q0 -18 -19 -18h-76v-160q0 -8 -5.5 -13.5t-12.5 -5.5h-35q-7 0 -12.5 5.5t-5.5 13.5v160h-412q-8 0 -13 5.5t-5 12.5v23q0 11 8 22l414 551q8 10 22 10h39q18 0 18 -18v-549h76zM147 764h355v471z" />
    <glyph glyph-name="uni2075" unicode="&#x2075;" horiz-adv-x="745" 
d="M334 1049q136 0 212.5 -73t76.5 -185q0 -121 -78.5 -193t-208.5 -72q-75 0 -141 28t-107 75q-14 14 2 26l25 21q13 11 24 0q77 -83 195 -80q100 1 158.5 55.5t58.5 141.5q0 86 -61 140t-158 54q-85 0 -154 -29q-15 -9 -24 9l-13 24q-5 10 -2 23l47 309q0 16 19 16h364
q19 0 19 -18v-29q0 -20 -19 -20h-323l-37 -240q70 17 125 17z" />
    <glyph glyph-name="uni2076" unicode="&#x2076;" horiz-adv-x="765" 
d="M367 1079q119 0 197.5 -79t78.5 -201q0 -123 -78.5 -203t-197.5 -80q-118 0 -196.5 80.5t-78.5 202.5q0 106 60 178l231 342q6 12 23 12h36q12 0 16 -5.5t-3 -16.5l-162 -240q42 10 74 10zM367 584q90 0 148 60t58 155t-58 154t-148 59q-89 0 -148 -59.5t-59 -153.5
t59 -154.5t148 -60.5z" />
    <glyph glyph-name="uni2077" unicode="&#x2077;" horiz-adv-x="624" 
d="M135 528q-9 0 -12.5 6t0.5 17l330 713h-377q-19 0 -19 18v29q0 18 19 18h438q18 0 18 -18v-21q0 -16 -4 -24l-333 -723q-6 -15 -23 -15h-37z" />
    <glyph glyph-name="uni2078" unicode="&#x2078;" horiz-adv-x="768" 
d="M504 944q68 -27 104.5 -80.5t36.5 -118.5q0 -103 -71 -166t-203 -63q-134 0 -206.5 63t-72.5 166q0 65 37.5 118.5t106.5 80.5q-64 26 -97 75.5t-33 113.5q0 85 68 146.5t197 61.5q127 0 193.5 -61.5t66.5 -146.5q0 -138 -127 -189zM174 1128q0 -69 49 -112t148 -43
q98 0 146 43t48 112q0 64 -49 110t-145 46q-97 0 -147 -46t-50 -110zM371 578q99 0 151.5 46.5t52.5 123.5q0 72 -53 119.5t-151 47.5q-100 0 -154.5 -48t-54.5 -119q0 -76 54 -123t155 -47z" />
    <glyph glyph-name="uni2079" unicode="&#x2079;" horiz-adv-x="765" 
d="M643 1059q0 -86 -57 -176l-230 -344q-6 -13 -22 -13h-39q-11 0 -14.5 6t2.5 17l159 239q-31 -10 -75 -10q-118 0 -196.5 79.5t-78.5 201.5t78.5 202t196.5 80q119 0 197.5 -79.5t78.5 -202.5zM160 1059q0 -94 58.5 -153.5t148.5 -59.5t148 59t58 154t-58 154t-148 59
t-148.5 -59.5t-58.5 -153.5z" />
    <glyph glyph-name="Euro" unicode="&#x20ac;" horiz-adv-x="1216" 
d="M963 1237q-181 0 -310 -92t-182 -258h455q13 0 21.5 -8.5t8.5 -22.5v-12q0 -14 -8.5 -22.5t-21.5 -8.5h-473q-13 -73 -13 -147q0 -75 13 -148h473q13 0 21.5 -8.5t8.5 -22.5v-14q0 -14 -8.5 -22.5t-21.5 -8.5h-453q53 -166 181 -257t309 -91h69q31 3 31 -28v-50
q0 -29 -31 -32h-84q-229 0 -384 123t-212 335h-209q-13 0 -21.5 8.5t-8.5 22.5v14q0 14 8.5 22.5t21.5 8.5h195q-12 70 -12 148q0 76 12 147h-195q-13 0 -21.5 8.5t-8.5 22.5v12q0 14 8.5 22.5t21.5 8.5h209q55 212 211 336.5t385 124.5h84q31 -3 31 -33v-49q0 -32 -31 -29
h-69z" />
    <glyph glyph-name="trademark" unicode="&#x2122;" horiz-adv-x="2707" 
d="M1051 1331q13 0 21.5 -8.5t8.5 -22.5v-49q0 -13 -8.5 -21.5t-21.5 -8.5h-414v-1190q0 -13 -8.5 -22t-22.5 -9h-57q-13 0 -22 9t-9 22v1190h-416q-14 0 -22 8.5t-8 21.5v49q0 14 8.5 22.5t21.5 8.5h949zM2523 1331q13 0 22 -8.5t9 -22.5v-1269q0 -13 -9 -22t-22 -9h-57
q-14 0 -22.5 9t-8.5 22v1079l-453 -920q-13 -22 -34 -22h-35q-22 0 -35 22l-453 920v-1079q0 -14 -8.5 -22.5t-21.5 -8.5h-58q-13 0 -21.5 8.5t-8.5 22.5v1269q0 14 8.5 22.5t21.5 8.5h74q22 0 35 -22l483 -961l486 961q13 22 34 22h74z" />
    <glyph glyph-name="oneeighth" unicode="&#x215b;" horiz-adv-x="1085" 
d="M233 1331q17 0 17 -16v-639q0 -17 -17 -17h-26q-17 0 -17 17v600h-139q-16 0 -16 14v25q0 16 16 16h182zM111 20q-11 -20 -37 -20q-15 0 -20.5 11t3.5 26l787 1274q11 20 37 20q15 0 20 -11t-4 -26zM934 340q57 -21 87 -65t30 -97q0 -86 -58 -137t-168 -51
q-111 0 -170 51t-59 137q0 53 31 97t88 65q-107 45 -107 156q0 70 55.5 121t161.5 51q105 0 160 -51t55 -121q0 -112 -106 -156zM664 494q0 -58 39.5 -93.5t121.5 -35.5q81 0 120.5 35.5t39.5 93.5q0 51 -40.5 89t-119.5 38q-80 0 -120.5 -37.5t-40.5 -89.5zM825 39
q82 0 125 38.5t43 102.5q0 59 -43.5 99t-124.5 40q-82 0 -127 -40t-45 -99q0 -63 44.5 -102t127.5 -39z" />
    <glyph glyph-name="threeeighths" unicode="&#x215c;" horiz-adv-x="1230" 
d="M254 1090q95 0 164 -55t69 -156q0 -102 -68.5 -161t-166.5 -59q-62 0 -118.5 23.5t-88.5 62.5q-11 11 0 21l21 18q11 11 20 -2q62 -65 166 -65q76 0 127 44.5t51 117.5q0 75 -50.5 117t-127.5 42q-54 0 -100 -14q-17 -3 -17 12v19q0 13 8 18l246 203h-291q-14 0 -14 16
v25q0 14 14 14h361q16 0 16 -14v-27q0 -8 -10 -18l-217 -182h6zM252 20q-11 -20 -37 -20q-15 0 -20 11t4 26l786 1274q11 20 37 20q15 0 20 -11t-4 -26zM1079 340q57 -21 87 -65t30 -97q0 -86 -58 -137t-167 -51q-111 0 -170.5 51t-59.5 137q0 53 31 97t88 65
q-106 44 -106 156q0 70 55.5 121t161.5 51q105 0 160 -51t55 -121q0 -111 -107 -156zM809 494q0 -58 40 -93.5t122 -35.5q81 0 120 35.5t39 93.5q0 51 -40 89t-119 38q-80 0 -121 -38t-41 -89zM971 39q82 0 125 38.5t43 102.5q0 59 -43.5 99t-124.5 40q-82 0 -127 -40
t-45 -99q0 -63 44.5 -102t127.5 -39z" />
    <glyph glyph-name="fiveeighths" unicode="&#x215d;" horiz-adv-x="1255" 
d="M252 1098q116 0 180 -61t64 -156q0 -101 -66 -161.5t-174 -60.5q-64 0 -119.5 23.5t-91.5 62.5q-9 12 2 23l21 16q11 11 22 0q61 -67 162 -67q85 1 133.5 47t48.5 119q0 72 -50.5 118t-131.5 46q-74 0 -129 -25q-15 -6 -21 6l-10 21q-5 9 -2 20l39 258q0 14 16 14h306
q16 0 16 -14v-24q0 -17 -16 -17h-273l-31 -203q53 15 105 15zM268 20q-11 -20 -37 -20q-15 0 -20 11t4 26l786 1274q11 20 37 20q15 0 20.5 -11t-3.5 -26zM1104 340q57 -21 87 -65t30 -97q0 -86 -58 -137t-168 -51q-111 0 -170 51t-59 137q0 53 31 97t88 65
q-107 45 -107 156q0 70 55.5 121t161.5 51q105 0 160 -51t55 -121q0 -112 -106 -156zM834 494q0 -58 39.5 -93.5t121.5 -35.5q81 0 120.5 35.5t39.5 93.5q0 51 -40.5 89t-119.5 38q-80 0 -120.5 -37.5t-40.5 -89.5zM995 39q82 0 125 38.5t43 102.5q0 59 -43.5 99t-124.5 40
q-82 0 -127 -40t-45 -99q0 -63 44.5 -102t127.5 -39z" />
    <glyph glyph-name="seveneighths" unicode="&#x215e;" horiz-adv-x="1116" 
d="M111 20q-11 -20 -37 -20q-15 0 -20.5 11t3.5 26l787 1274q11 20 37 20q15 0 20 -11t-4 -26zM154 662q-8 0 -11.5 5t0.5 13l275 596h-314q-16 0 -16 16v25q0 14 16 14h367q16 0 16 -14v-19q0 -4 -4 -20l-280 -604q-3 -12 -19 -12h-30zM965 340q56 -21 86 -65t30 -97
q0 -86 -58 -137t-167 -51q-111 0 -170 51t-59 137q0 53 30.5 97t87.5 65q-106 44 -106 156q0 70 55.5 121t161.5 51q105 0 160 -51t55 -121q0 -112 -106 -156zM694 494q0 -58 40 -93.5t122 -35.5q81 0 120.5 35.5t39.5 93.5q0 51 -40.5 89t-119.5 38q-80 0 -121 -38t-41 -89
zM856 39q82 0 125 38.5t43 102.5q0 59 -43.5 99t-124.5 40q-82 0 -127 -40t-45 -99q0 -63 44.5 -102t127.5 -39z" />
    <glyph glyph-name="arrowleft" unicode="&#x2190;" horiz-adv-x="1552" 
d="M1368 713q14 0 22.5 -8.5t8.5 -22.5v-49q0 -13 -8.5 -22t-22.5 -9h-1053l355 -354q22 -22 0 -45l-29 -29q-23 -20 -43 0l-463 463q-23 23 0 45l461 461q22 22 45 2l29 -29q22 -22 0 -45l-359 -358h1057z" />
    <glyph glyph-name="arrowup" unicode="&#x2191;" horiz-adv-x="1280" 
d="M1104 821q22 -23 0 -45l-29 -28q-23 -22 -45 0l-356 356v-1057q0 -13 -9 -22t-22 -9h-49q-14 0 -22.5 9t-8.5 22v1057l-356 -356q-23 -22 -45 0l-27 26q-23 22 0 45l461 463q22 22 45 0z" />
    <glyph glyph-name="arrowright" unicode="&#x2192;" horiz-adv-x="1552" 
d="M870 1145q23 20 45 -2l461 -461q22 -22 0 -45l-461 -461q-22 -22 -45 -2l-28 29q-22 23 0 45l354 354h-1053q-13 0 -21.5 8.5t-8.5 22.5v49q0 14 8.5 22.5t21.5 8.5h1057l-358 358q-22 23 0 45z" />
    <glyph glyph-name="arrowdown" unicode="&#x2193;" horiz-adv-x="1280" 
d="M1030 573q22 23 45 0l29 -28q22 -23 0 -45l-463 -461q-23 -23 -45 0l-461 463q-23 22 0 45l27 26q22 23 45 0l356 -356v1057q0 14 8.5 22.5t22.5 8.5h49q13 0 22 -8.5t9 -22.5v-1057z" />
    <glyph glyph-name="arrowboth" unicode="&#x2194;" horiz-adv-x="1875" 
d="M1239 1145q23 20 45 -2l461 -461q23 -22 0 -45l-461 -461q-22 -22 -45 -2l-29 29q-22 23 0 45l355 354h-1266l356 -354q23 -22 0 -45l-28 -29q-23 -20 -43 0l-463 463q-23 23 0 45l461 461q22 22 45 2l28 -29q23 -22 0 -45l-358 -358h1272l-359 358q-22 23 0 45z" />
    <glyph glyph-name="arrowupdn" unicode="&#x2195;" horiz-adv-x="1255" 
d="M1081 463q20 -23 -2 -45l-450 -451q-23 -23 -45 0l-449 449q-21 21 0 45l29 28q22 23 45 0l342 -342v1035l-344 -342q-23 -22 -45 0l-27 26q-23 22 0 45l449 451q22 22 45 0l450 -451q23 -23 0 -45l-26 -26q-23 -22 -45 0l-349 346v-1043l349 349q22 22 45 0z" />
    <glyph glyph-name="uni2196" unicode="&#x2196;" horiz-adv-x="1226" 
d="M1051 471q23 -23 0 -45l-35 -35q-23 -20 -45 2l-756 756v-504q0 -13 -8.5 -22t-22.5 -9h-41q-13 0 -21.5 8.5t-8.5 22.5v655q0 14 8.5 22.5t21.5 8.5h656q13 0 21.5 -8.5t8.5 -22.5v-40q0 -14 -8.5 -22.5t-21.5 -8.5h-506z" />
    <glyph glyph-name="uni2197" unicode="&#x2197;" horiz-adv-x="1226" 
d="M356 1300q0 14 9 22.5t22 8.5h655q14 0 22.5 -8.5t8.5 -22.5v-655q0 -13 -8.5 -22t-22.5 -9h-41q-13 0 -21.5 8.5t-8.5 22.5v504l-756 -756q-22 -22 -45 -2l-35 35q-23 22 0 45l758 758h-506q-13 0 -22 8.5t-9 22.5v40z" />
    <glyph glyph-name="uni2198" unicode="&#x2198;" horiz-adv-x="1226" 
d="M971 686q0 14 8.5 22.5t21.5 8.5h41q14 0 22.5 -8.5t8.5 -22.5v-655q0 -13 -8.5 -22t-22.5 -9h-655q-13 0 -22 9t-9 22v41q0 13 8.5 21.5t22.5 8.5h506l-758 758q-23 22 0 45l35 35q22 22 45 0l756 -756v502z" />
    <glyph glyph-name="uni2199" unicode="&#x2199;" horiz-adv-x="1226" 
d="M1051 905q23 -23 0 -45l-758 -758h506q13 0 21.5 -8t8.5 -22v-41q0 -14 -8.5 -22.5t-21.5 -8.5h-656q-13 0 -21.5 8.5t-8.5 22.5v655q0 14 8.5 22.5t21.5 8.5h41q14 0 22.5 -8.5t8.5 -22.5v-502l756 756q23 22 45 0z" />
    <glyph glyph-name="partialdiff" unicode="&#x2202;" horiz-adv-x="1165" 
d="M995 571q17 -70 17 -131q0 -202 -128.5 -332.5t-322.5 -130.5q-193 0 -320.5 130t-127.5 333q0 202 127 330.5t321 128.5q103 0 184 -37q-149 257 -346 432q-15 14 -10.5 25.5t25.5 11.5h59q19 0 37 -12q153 -126 298 -342.5t183 -380.5q3 -13 4 -18.5t0 -6.5zM561 90
q148 0 244 97.5t96 252.5q0 78 -24 142h-3q-4 12 -4 16q-40 89 -121.5 139.5t-187.5 50.5q-147 0 -242.5 -96t-95.5 -252q0 -155 96 -252.5t242 -97.5z" />
    <glyph glyph-name="emptyset" unicode="&#x2205;" horiz-adv-x="1208" 
d="M868 1055q88 -63 137.5 -167t49.5 -231q0 -212 -130 -348.5t-339 -136.5q-130 0 -230 53l-45 -71q-12 -21 -37 -21h-10q-18 0 -23.5 11t3.5 26l55 90q-89 65 -137.5 168t-48.5 229q0 212 131 349t342 137q130 0 225 -53l45 71q12 21 37 21h10q18 0 24 -11t-3 -26z
M209 657q0 -98 37.5 -179t105.5 -134l410 664q-77 41 -176 41q-166 0 -271.5 -111.5t-105.5 -280.5zM586 268q167 0 269.5 110t102.5 279q0 100 -36.5 181.5t-104.5 134.5l-409 -664q77 -41 178 -41z" />
    <glyph glyph-name="product" unicode="&#x220f;" horiz-adv-x="1263" 
d="M1079 1329q13 0 22 -8.5t9 -22.5v-49q0 -13 -8.5 -21.5t-22.5 -8.5h-200v-1188q0 -13 -8.5 -22t-22.5 -9h-49q-13 0 -22 9t-9 22v1188h-309v-1188q0 -13 -8.5 -22t-22.5 -9h-49q-13 0 -22 9t-9 22v1188h-205q-13 0 -21.5 8.5t-8.5 21.5v49q0 14 8.5 22.5t21.5 8.5h936z
" />
    <glyph glyph-name="summation" unicode="&#x2211;" horiz-adv-x="1116" 
d="M932 1348q14 0 22.5 -9t8.5 -22v-49q0 -14 -8.5 -22.5t-22.5 -8.5h-662l469 -555q19 -22 0 -45l-465 -543h658q14 0 22.5 -9t8.5 -22v-49q0 -13 -8.5 -21.5t-22.5 -8.5h-789q-13 0 -21.5 8t-8.5 22v47q0 25 14 39l481 559l-481 572q-14 14 -14 39v47q0 14 8.5 22.5
t21.5 8.5h789z" />
    <glyph glyph-name="minus" unicode="&#x2212;" horiz-adv-x="1032" 
d="M113 659q0 14 8.5 22.5t21.5 8.5h705q14 0 22.5 -9t8.5 -22v-32q0 -13 -8.5 -22t-22.5 -9h-705q-13 0 -21.5 8.5t-8.5 22.5v32z" />
    <glyph glyph-name="radical" unicode="&#x221a;" horiz-adv-x="1478" 
d="M1294 1417q14 0 22.5 -8.5t8.5 -22.5v-32q0 -14 -8.5 -22.5t-22.5 -8.5h-288l-510 -1397q-8 -24 -35 -24h-64q-27 0 -35 24l-237 637q-12 35 25 35h49q26 0 34 -25l195 -524l492 1344q8 24 34 24h340z" />
    <glyph glyph-name="infinity" unicode="&#x221e;" horiz-adv-x="1736" 
d="M420 358q-127 0 -217 89.5t-90 214.5q0 123 90 212t217 89q80 0 140 -22t119.5 -67t176.5 -151q109 106 185 159.5t123 67t112 13.5q129 0 218 -88.5t89 -212.5q0 -126 -89 -215t-218 -89q-58 0 -103 11.5t-93.5 43.5t-89 67.5t-114.5 104.5q-15 14 -22 21
q-63 -61 -101 -95t-82.5 -68t-80 -50t-78 -25.5t-92.5 -9.5zM420 446q87 0 169.5 52t194.5 166q-105 98 -169.5 144t-102 57.5t-92.5 11.5q-91 0 -156 -60.5t-65 -154.5q0 -95 65 -155.5t156 -60.5zM1276 446q92 0 157.5 60t65.5 156q0 94 -65.5 154.5t-157.5 60.5
q-57 0 -93.5 -12t-94 -55.5t-162.5 -143.5q62 -59 87.5 -83t67 -58.5t66.5 -46.5t58.5 -22t70.5 -10z" />
    <glyph glyph-name="integral" unicode="&#x222b;" horiz-adv-x="1064" 
d="M770 1417h111q13 0 21.5 -8.5t8.5 -22.5v-30q0 -14 -8.5 -22.5t-21.5 -8.5h-84q-78 0 -121.5 -45t-52.5 -127l-111 -1001q-13 -121 -81.5 -185.5t-176.5 -64.5h-111q-13 0 -21.5 8t-8.5 22v31q0 14 8.5 22.5t21.5 8.5h84q78 0 121.5 45t52.5 127l111 995q13 125 83 190.5
t175 65.5z" />
    <glyph glyph-name="approxequal" unicode="&#x2248;" horiz-adv-x="1226" 
d="M977 938q3 31 33 31h32q14 0 22 -8t7 -23q-8 -115 -79.5 -186.5t-190.5 -71.5q-17 0 -34 2.5t-30.5 5t-29 9.5t-25.5 11t-24.5 14t-21 14.5t-20.5 16.5t-18 15.5t-17.5 16t-15.5 14.5q-1 1 -19 18t-21 19.5t-19 16t-22.5 16.5t-21.5 12t-25 11.5t-24.5 5.5t-29.5 3
q-73 0 -118.5 -44.5t-53.5 -115.5q-3 -30 -33 -30h-35q-31 0 -28 30q8 116 78.5 186t187.5 70q21 0 42 -4t36.5 -8t34.5 -14t28.5 -15.5t27.5 -20t22.5 -18.5t22.5 -20.5t19 -17.5q28 -26 43.5 -39t41 -30.5t50.5 -25.5t52 -8q71 0 120 42.5t56 119.5zM977 578q3 30 33 30
h32q32 0 29 -30q-8 -115 -79.5 -185.5t-190.5 -70.5q-41 0 -76.5 9.5t-69 33t-46 33.5t-44.5 40q-4 3 -19.5 18t-20.5 19.5t-19.5 16.5t-22 16.5t-21.5 12.5t-25 11t-25 6t-29 3q-73 0 -118.5 -44.5t-53.5 -115.5q-3 -31 -33 -31h-35q-31 0 -28 31q8 116 78.5 187t187.5 71
q24 0 46.5 -3.5t43 -13t35 -16.5t34 -22.5t26.5 -21.5t26.5 -24t21.5 -20q36 -33 57.5 -50.5t58 -34.5t71.5 -17q71 0 120 42.5t56 119.5z" />
    <glyph glyph-name="notequal" unicode="&#x2260;" horiz-adv-x="1032" 
d="M879 840q0 -14 -8.5 -22.5t-22.5 -8.5h-244l-121 -303h365q14 0 22.5 -9t8.5 -22v-33q0 -13 -8.5 -21.5t-22.5 -8.5h-404l-73 -187q-9 -24 -37 -24h-31q-36 0 -24 35l69 176h-205q-13 0 -21.5 8t-8.5 22v33q0 14 8.5 22.5t21.5 8.5h244l123 303h-367q-13 0 -21.5 8.5
t-8.5 22.5v34q0 14 8.5 22.5t21.5 8.5h406l74 187q9 24 36 24h29q37 0 25 -35l-70 -176h205q14 0 22.5 -8.5t8.5 -22.5v-34z" />
    <glyph glyph-name="lessequal" unicode="&#x2264;" horiz-adv-x="948" 
d="M760 983q15 4 25 -4t10 -23v-26q0 -28 -27 -35l-516 -152l516 -151q27 -7 27 -35v-29q0 -15 -10 -22.5t-25 -3.5l-615 182q-12 3 -19 13t-7 22v47q0 28 26 35zM143 324q-13 0 -21.5 8t-8.5 22v23q0 14 8.5 22.5t21.5 8.5h621q14 0 22.5 -9t8.5 -22v-23q0 -13 -8.5 -21.5
t-22.5 -8.5h-621z" />
    <glyph glyph-name="greaterequal" unicode="&#x2265;" horiz-adv-x="948" 
d="M788 719q0 -12 -7 -22t-19 -13l-615 -182q-15 -4 -24.5 3.5t-9.5 22.5v29q0 12 7 22t19 13l516 151l-516 152q-26 7 -26 35v26q0 15 9.5 23t24.5 4l615 -182q26 -7 26 -35v-47zM113 377q0 14 8.5 22.5t21.5 8.5h621q14 0 22.5 -9t8.5 -22v-23q0 -13 -8.5 -21.5
t-22.5 -8.5h-621q-13 0 -21.5 8t-8.5 22v23z" />
    <glyph glyph-name="lozenge" unicode="&#x25ca;" horiz-adv-x="1234" 
d="M633 1331q26 0 37 -20l397 -631q12 -21 0 -41l-389 -619q-11 -20 -37 -20h-88q-26 0 -37 20l-389 619q-12 21 0 41l397 631q11 20 37 20h72zM598 76l367 583l-367 582l-369 -582z" />
    <glyph glyph-name="A.ss01" horiz-adv-x="1314" 
d="M1229 35q12 -35 -25 -35h-61q-28 0 -37 25l-459 1120l-459 -1120q-9 -25 -36 -25h-62q-36 0 -24 35l526 1272q9 24 37 24h37q27 0 36 -24z" />
    <glyph glyph-name="I.ss01" horiz-adv-x="784" 
d="M672 1251q0 -13 -8.5 -21.5t-22.5 -8.5h-209v-1110h209q13 0 22 -8.5t9 -22.5v-49q0 -13 -9 -22t-22 -9h-539q-13 0 -21.5 8.5t-8.5 22.5v49q0 14 8.5 22.5t21.5 8.5h211v1110h-211q-14 0 -22 8.5t-8 21.5v49q0 14 8.5 22.5t21.5 8.5h539q13 0 22 -8.5t9 -22.5v-49z" />
    <glyph glyph-name="J.ss01" 
d="M1010 1331q13 0 21.5 -8.5t8.5 -22.5v-835q0 -219 -135 -350t-362 -131q-169 0 -288.5 75t-172.5 201q-12 28 18 41l56 23q26 12 39 -17q43 -100 133 -153.5t215 -53.5q175 0 278 100t103 277v744h-576q-14 0 -22.5 8.5t-8.5 21.5v49q0 14 8.5 22.5t22.5 8.5h662z" />
    <glyph glyph-name="R.ss01" horiz-adv-x="1226" 
d="M762 387q76 -125 110 -165q84 -100 204 -110q4 -1 7 -1q31 -3 31 -33v-49q0 -31 -31 -31q-67 3 -121 20t-95.5 43t-83 74t-74 98t-78.5 129l-105 179h-295v-510q0 -14 -8.5 -22.5t-21.5 -8.5h-58q-13 0 -21.5 8.5t-8.5 22.5v1269q0 14 8.5 22.5t21.5 8.5h580
q156 0 263.5 -112t107.5 -283t-107.5 -283t-263.5 -112h-51zM231 1217v-560h476q116 0 192 81.5t76 197.5t-76 198.5t-192 82.5h-476z" />
    <glyph glyph-name="i.loclTRK" horiz-adv-x="409" 
d="M186 1069q-27 0 -47 19.5t-20 48.5q0 28 20 46.5t47 18.5q26 0 46 -18.5t20 -46.5t-20 -48t-46 -20zM242 31q0 -13 -9 -22t-22 -9h-51q-14 0 -22.5 9t-8.5 22v880q0 13 8.5 22t22.5 9h51q13 0 22 -9t9 -22v-880z" />
    <glyph glyph-name="a.ss01" horiz-adv-x="1077" 
d="M514 958q194 0 302 -90t108 -254v-583q0 -13 -9 -22t-22 -9h-51q-14 0 -22.5 9t-8.5 22v112q-97 -159 -344 -159q-188 0 -283.5 75t-95.5 207q0 69 27.5 119.5t75 79.5t112.5 48t140.5 24t158 8t165.5 0h44v65q0 118 -80.5 185t-216.5 67q-217 0 -291 -135
q-13 -25 -41 -16l-37 14q-28 11 -22 29q41 93 138 148.5t253 55.5zM477 72q75 0 134 17.5t96 46.5t61 69.5t33.5 83t9.5 90.5v92h-37q-80 0 -119.5 -0.5t-107 -2.5t-101 -7.5t-82 -14.5t-72.5 -23.5t-49.5 -35t-35.5 -49.5t-10 -66q0 -200 280 -200z" />
    <glyph glyph-name="n.ss01" horiz-adv-x="1073" 
d="M537 942q165 0 274 -92t109 -266v-553q0 -13 -9 -22t-22 -9h-51q-14 0 -22.5 9t-8.5 22v532q0 136 -79 210.5t-222 74.5h-281v-817q0 -14 -8.5 -22.5t-21.5 -8.5h-52q-13 0 -21.5 8.5t-8.5 22.5v880q0 14 8.5 22.5t21.5 8.5h394z" />
    <glyph glyph-name="r.ss01" horiz-adv-x="622" 
d="M113 557q0 184 104 286t283 113q30 0 30 -30v-47q0 -30 -30 -33q-127 -9 -201 -91t-74 -216v-508q0 -14 -8.5 -22.5t-21.5 -8.5h-52q-13 0 -21.5 8.5t-8.5 22.5v526z" />
    <glyph glyph-name="u.ss01" horiz-adv-x="1073" 
d="M807 911q0 13 8.5 22t22.5 9h51q13 0 22 -9t9 -22v-880q0 -13 -9 -22t-22 -9h-393q-165 0 -274 92t-109 266v553q0 14 8.5 22.5t21.5 8.5h52q13 0 21.5 -8.5t8.5 -22.5v-532q0 -136 79 -209.5t222 -73.5h281v815z" />
    </font>
</defs>
</svg>
