<?xml version="1.0" standalone="no"?>
<!DOCTYPE svg PUBLIC "-//W3C//DTD SVG 1.1//EN" "http://www.w3.org/Graphics/SVG/1.1/DTD/svg11.dtd" >
<svg xmlns="http://www.w3.org/2000/svg" xmlns:xlink="http://www.w3.org/1999/xlink" version="1.1">
<metadata>
Created by FontForge 20170731 at Tue May 17 21:46:09 2022
 By Aleksey,,,
Copyright 2022 Connary Fagen, Inc.
</metadata>
<defs>
<font id="CerulyaCF-DemiBoldItalic" horiz-adv-x="0" >
  <font-face 
    font-family="Cerulya CF Demi Bold"
    font-weight="600"
    font-style="italic"
    font-stretch="normal"
    units-per-em="1000"
    panose-1="0 0 0 0 0 0 0 0 0 0"
    ascent="800"
    descent="-200"
    x-height="504"
    cap-height="704"
    bbox="-181 -248 1040 1034"
    underline-thickness="50"
    underline-position="-175"
    slope="-6"
    unicode-range="U+0020-25CA"
  />
<missing-glyph horiz-adv-x="465" 
d="M381 -200h-295v930h295v-930zM310 -136v31h-95l65 44h30v30h-155v-30h65l-65 -44v-31h155zM310 -9v105h-155v-105h155zM310 152v105h-93v-52h31v21h31v-44h-93v75h-31v-105h155zM310 277v93h-31v-61h-124v-32h155zM248 330v65h62v31h-155v-31h62v-34h-62v-31h93zM310 451
v32h-62v65h-93v-97h155zM310 572v31h-62v34h62v31h-154v-31h61v-34h-62v-31h155zM186 65h93v-44h-93v44zM186 516h31v-33h-31v33z" />
    <glyph glyph-name=".notdef" horiz-adv-x="465" 
d="M381 -200h-295v930h295v-930zM310 -136v31h-95l65 44h30v30h-155v-30h65l-65 -44v-31h155zM310 -9v105h-155v-105h155zM310 152v105h-93v-52h31v21h31v-44h-93v75h-31v-105h155zM310 277v93h-31v-61h-124v-32h155zM248 330v65h62v31h-155v-31h62v-34h-62v-31h93zM310 451
v32h-62v65h-93v-97h155zM310 572v31h-62v34h62v31h-154v-31h61v-34h-62v-31h155zM186 65h93v-44h-93v44zM186 516h31v-33h-31v33z" />
    <glyph glyph-name=".null" 
 />
    <glyph glyph-name="nonmarkingreturn" horiz-adv-x="333" 
 />
    <glyph glyph-name="space" unicode=" " horiz-adv-x="205" 
 />
    <glyph glyph-name="exclam" unicode="!" horiz-adv-x="196" 
d="M125 633q2 24 3 37.5t2 19.5q1 7 4 11t8 4q8 0 8 -12q0 -7 -12 -103q-15 -113 -32 -265l-13 -124q-1 -3 -4.5 -3t-2.5 3l13 124q13 124 26 308zM42 85q14 19 39 19q20 0 31.5 -15t11.5 -40q0 -27 -14 -46t-39 -19q-20 0 -31.5 15t-11.5 40q0 27 14 46zM44.5 3
q9.5 -13 27.5 -13q22 0 34 17.5t12 41.5q0 22 -10 35.5t-28 13.5q-22 0 -33.5 -17t-11.5 -42q0 -23 9.5 -36z" />
    <glyph glyph-name="quotedbl" unicode="&#x22;" horiz-adv-x="206" 
d="M162 468q9 96 14 156t6 76l1 22q1 13 10 13q7 0 7 -9q0 -10 -6 -48q-18 -137 -25 -210q-1 -12 -4 -12q-4 0 -3 12zM84 468q9 96 14 156t6 76l1 22q1 13 10 13q7 0 7 -9q0 -10 -6 -48q-18 -137 -25 -210q-1 -12 -4 -12q-4 0 -3 12z" />
    <glyph glyph-name="numbersign" unicode="#" horiz-adv-x="600" 
d="M305 4q23 87 33 123q30 117 33 128l13 49q-22 1 -72 1h-26h-73l-8 -31q-17 -62 -27 -102.5t-16 -63.5q-13 -54 -16 -65q-3 -9 -8 -9t-3 9q18 62 62 231l8 31l-125 -2q-9 0 -9 5q2 18 41 31t109 24l14 56l-132 -2q-9 0 -9 5q2 6 11 6l132 -3l18 68q24 88 42 174l13 53
q3 13 11 13q10 0 7 -12q-9 -34 -16 -55q-27 -86 -49 -173l-18 -68h65h26h80l18 69q24 88 42 174l13 53q3 13 11 13q10 0 7 -12q-9 -34 -16 -55q-27 -86 -49 -173l-18 -69l121 2q8 0 8 -5q-1 -10 -35 -17.5t-104 -16.5l-20 -76l95 3q15 1 33 1q8 0 8 -6q0 -3 -3.5 -6t-9.5 -3
l-125 3l-13 -49q-19 -72 -55 -218l-8 -33q-3 -9 -8 -9t-3 9zM207 311l13 50q-67 -11 -104 -23t-38 -27h129zM286 311h26l74 1l20 75q-77 -10 -100 -13l-78 -12l-13 -51h71zM306 376l44 6l56 8l8 29h-105h-66l-14 -54zM541 419h-119l-7 -28q125 16 126 28z" />
    <glyph glyph-name="dollar" unicode="$" horiz-adv-x="331" 
d="M145 7q0 8 5 36l8 56q-64 1 -88 35t-24 68q0 17 4.5 28t11.5 11q5 0 5 -9q0 -6 -2 -17.5t-2 -23.5q0 -37 22.5 -61t73.5 -25q4 26 9 70l21 196q-52 56 -77 92.5t-25 78.5q0 89 126 89l5 86q2 18 12 18q8 0 8 -14q0 -6 -9 -69l-3 -21q27 -1 45.5 -6t18.5 -13q0 -6 -9 -6
q-5 0 -21 4q-15 3 -36 6q-8 -55 -18 -141l-11 -102q45 -51 68 -87.5t23 -77.5q0 -47 -31 -77.5t-88 -31.5q-2 -30 -2 -66q-1 -9 -1 -21q-2 -17 -11 -17q-8 0 -8 12zM117.5 467.5q23.5 -35.5 72.5 -89.5l10 97q6 57 10 119l2 23h-13q-105 0 -105 -74q0 -40 23.5 -75.5z
M251.5 134.5q28.5 28.5 28.5 72.5q0 40 -22 76.5t-64 81.5l-20 -190q-5 -41 -6 -70q55 1 83.5 29.5z" />
    <glyph glyph-name="percent" unicode="%" horiz-adv-x="690" 
d="M77 -10q0 3 4 7q44 52 487 646q38 49 65 67h-405q-62 0 -98 -47.5t-36 -115.5q0 -55 25 -88.5t72 -33.5q39 0 65 23t37.5 57.5t11.5 68.5q0 17 -13 37q-2 4 -2 6q0 5 4 8.5t9 3.5q13 0 13 -38q0 -73 -33 -123t-92 -50q-50 0 -77 35.5t-27 92.5q0 45 16.5 84t48.5 62.5
t76 23.5h398q7 0 17.5 2t15.5 2q12 0 12 -7q0 -4 -3.5 -6.5t-9.5 -2.5q-36 0 -82 -60q-255 -340 -423 -574q-53 -73 -60 -81q-5 -5 -10 -5q-6 0 -6 6zM408 196q16 39 45.5 62.5t69.5 23.5q48 0 74.5 -35t26.5 -93q0 -45 -16 -84t-45.5 -62.5t-69.5 -23.5q-48 0 -74.5 35
t-26.5 93q0 45 16 84zM423 23.5q25 -33.5 70 -33.5q37 0 65.5 22.5t44 60t15.5 80.5q0 56 -25 89.5t-70 33.5q-37 0 -65.5 -22.5t-44 -60t-15.5 -80.5q0 -56 25 -89.5z" />
    <glyph glyph-name="ampersand" unicode="&#x26;" horiz-adv-x="675" 
d="M282 -5q0 8 10 8q5 0 12.5 -2t16.5 -2q21 0 30 16.5t13 53.5l19 179q-24 -27 -70 -98q-34 -54 -58.5 -87t-54 -56t-61.5 -23q-42 0 -69.5 35.5t-27.5 94.5q0 72 40 121t101 56q-27 8 -42.5 35.5t-15.5 65.5q0 51 27.5 87.5t76.5 36.5q24 0 42.5 -9t29 -21.5t10.5 -21.5
q0 -6 -5 -6q-3 0 -13 15t-25 26t-40 11q-46 0 -71.5 -35t-25.5 -83q0 -45 20 -71.5t53 -26.5h213q38 0 63.5 2.5t33.5 2.5q12 0 12 -8q0 -9 -14 -9q-8 0 -26 2.5t-40 2.5q-28 0 -57 -32l-20 -190q-3 -30 -9.5 -45t-19.5 -22h17q79 0 140.5 60t96 155.5t34.5 195.5
q0 97 -32.5 165t-86 102t-114.5 34q-46 0 -76.5 -15.5t-60.5 -38.5q-15 -13 -20 -13q-4 0 -4 5q0 11 23 27.5t59.5 28.5t76.5 12q65 0 120 -34.5t88 -104t33 -168.5q0 -100 -35.5 -197t-99 -158.5t-143.5 -61.5h-31q-12 0 -20 -2t-14 -2q-9 0 -9 7zM75 23.5
q26 -33.5 65 -33.5q44 0 81.5 41.5t87.5 122.5q37 59 62.5 91.5t51.5 41.5h-219q-44 0 -79.5 -22t-55.5 -61.5t-20 -89.5q0 -57 26 -90.5z" />
    <glyph glyph-name="quotesingle" unicode="'" horiz-adv-x="128" 
d="M84 468q9 96 14 156t6 76l1 22q1 13 10 13q7 0 7 -9q0 -10 -6 -48q-18 -137 -25 -210q-1 -12 -4 -12q-4 0 -3 12z" />
    <glyph glyph-name="parenleft" unicode="(" horiz-adv-x="425" 
d="M197.5 -21q-62.5 43 -99 122.5t-36.5 184.5q0 128 49 238.5t132 176t181 65.5q5 0 5 -4q0 -2 -2 -4t-5 -2q-96 0 -177 -64.5t-128 -172t-47 -230.5q0 -103 35.5 -181t96.5 -120t135 -42q6 0 6 -5q0 -2 -2 -3.5t-5 -1.5q-76 0 -138.5 43z" />
    <glyph glyph-name="parenright" unicode=")" horiz-adv-x="426" 
d="M249.5 723q62.5 -43 98.5 -122.5t36 -184.5q0 -128 -49 -238.5t-132 -176t-181 -65.5q-5 0 -5 4q0 2 2 4t5 2q96 0 177 64.5t128.5 172t47.5 230.5q0 103 -35.5 181t-96.5 120t-135 42q-6 0 -6 5q0 2 2 3.5t5 1.5q76 0 138.5 -43z" />
    <glyph glyph-name="asterisk" unicode="*" horiz-adv-x="390" 
d="M118 429q-8 0 -8 8q0 6 6 11q46 37 84 74q2 2 4.5 0t0.5 -4q-40 -38 -58 -59.5t-20 -24.5q-4 -5 -9 -5zM86 592q0 4 2.5 6.5t6.5 2.5q3 0 26 -10q34 -17 72 -32q2 -1 0.5 -4t-3.5 -2q-38 14 -64.5 21.5t-32.5 9.5q-7 3 -7 8zM232 692q0 13 10 13q8 0 8 -10q0 -5 -3 -22
q-10 -43 -14 -88q0 -3 -3 -3t-3 3q5 50 5 107zM242 522q2 2 4 0q30 -35 48.5 -53t21.5 -21q4 -4 4 -9q0 -4 -3 -7t-7 -3q-5 0 -9 5t-18 28t-41 56q-2 2 0 4zM259.5 554q-0.5 3 2.5 4q44 16 70 28t31 14q2 1 5 1q8 0 8 -7t-9 -10q-6 -2 -33 -9.5t-72 -22.5q-2 -1 -2.5 2z" />
    <glyph glyph-name="plus" unicode="+" horiz-adv-x="562" 
d="M281 269h-243v7h243l26 242h6l-26 -242h242v-7h-242l-26 -241h-6z" />
    <glyph glyph-name="comma" unicode="," horiz-adv-x="165" 
d="M10 -87q0 4 7 4q36 0 50.5 22t14.5 69q0 57 -19 112v1q0 4 4.5 6t5.5 -2q16 -48 16 -104q0 -116 -68 -116q-11 0 -11 8z" />
    <glyph glyph-name="hyphen" unicode="-" horiz-adv-x="660" 
d="M38 276h589v-7h-589v7z" />
    <glyph glyph-name="period" unicode="." horiz-adv-x="196" 
d="M39.5 -1q-11.5 15 -11.5 40q0 27 14 46t39 19q20 0 31.5 -15t11.5 -40q0 -27 -14 -46t-39 -19q-20 0 -31.5 15zM44.5 3q9.5 -13 27.5 -13q22 0 34 17.5t12 41.5q0 22 -10 35.5t-28 13.5q-22 0 -33.5 -17t-11.5 -42q0 -23 9.5 -36z" />
    <glyph glyph-name="slash" unicode="/" horiz-adv-x="272" 
d="M14 -146l11 38q39 129 59 207l109 411q16 60 44 187q12 56 13 58q5 15 13 15q12 0 7 -15q0 1 -13 -43q-32 -104 -58 -202l-108 -411q-17 -63 -45 -192q-8 -39 -12 -53q-4 -15 -13 -15q-11 0 -7 15z" />
    <glyph glyph-name="zero" unicode="0" horiz-adv-x="549" 
d="M107 56.5q-47 72.5 -47 201.5q0 108 32.5 214.5t94.5 175t145 68.5q84 0 131 -72.5t47 -201.5q0 -108 -32.5 -214.5t-94.5 -175t-145 -68.5q-84 0 -131 72.5zM112 61.5q45 -71.5 126 -71.5q80 0 140.5 66.5t93 171.5t32.5 214q0 125 -45.5 196.5t-126.5 71.5
q-80 0 -140.5 -66.5t-92.5 -171t-32 -214.5q0 -125 45 -196.5z" />
    <glyph glyph-name="one" unicode="1" horiz-adv-x="370" 
d="M14 5q0 9 20 9q6 0 27.5 -2.5t74.5 -2.5q31 0 41.5 14t14.5 53l66 621q-67 -44 -139 -100q-11 -9 -18.5 -14.5t-12.5 -5.5q-7 0 -7 6q0 4 10 11t25 16q39 24 61 40l40 28q7 5 26 18t22 13q5 0 5 -5q0 -4 -5.5 -28.5t-10.5 -71.5l-56 -531q-3 -30 -10.5 -45.5t-22.5 -19.5
h42q38 0 59 2.5t28 2.5q20 0 20 -8t-22 -8q-7 0 -27.5 1.5t-58.5 1.5h-32q-85 0 -111 -2t-31 -2q-18 0 -18 9z" />
    <glyph glyph-name="two" unicode="2" horiz-adv-x="455" 
d="M309 -1l-187 1h-92q0 80 28.5 142t69.5 105.5t106 98.5q55 47 85.5 78t51.5 71t21 88q0 72 -41 94t-105 22q-39 0 -63 -3t-51 -8q-20 -4 -24 -4q-12 0 -12 7q0 11 37 18t85 7q84 0 132.5 -28t48.5 -105q0 -50 -21.5 -91.5t-53 -73.5t-86.5 -78q-64 -54 -104 -96
t-67.5 -101.5t-27.5 -135.5h84q90 0 216 9l22 2h4q15 0 15 -9q0 -11 -21 -11q-27 0 -50 1z" />
    <glyph glyph-name="three" unicode="3" horiz-adv-x="490" 
d="M122 3q-41 19 -63.5 49t-22.5 59q0 15 9 15q7 0 9 -13q25 -123 165 -123q64 0 110 28t69.5 75.5t23.5 106.5q0 87 -51 136t-141 49l-59 -1q-17 0 -17 10t17 10q7 0 30 -1.5t51 -1.5q75 0 119.5 45.5t44.5 118.5q0 72 -44 103t-102 31q-59 0 -114 -11q-13 -4 -23 -4
q-12 0 -12 7q0 11 36.5 18t84.5 7q79 0 129.5 -36t50.5 -115q0 -74 -47 -123t-136 -49q-2 0 -2.5 -1.5t1.5 -1.5q86 0 138 -49.5t52 -139.5q0 -61 -24.5 -110t-72.5 -78t-114 -29q-54 0 -95 19z" />
    <glyph glyph-name="four" unicode="4" horiz-adv-x="485" 
d="M130 5q0 9 20 9q6 0 27.5 -2.5t71.5 -2.5q31 0 42 14t15 53l13 122h-304l161 311q21 41 55 116q13 31 18.5 40.5t12.5 9.5q6 0 6 -7q0 -5 -6 -16.5t-16 -28.5q-39 -67 -65 -118l-155 -300h293l30 285q11 105 15 188l3 40q2 17 11 17q4 0 6 -5t1 -12l-5 -36
q-14 -86 -25 -192l-30 -285h10q34 0 68 4q24 2 29 2q11 0 14.5 -2t3.5 -7q0 -9 -20 -9q-6 0 -28 2q-54 3 -68 3h-10l-13 -125q-3 -30 -10.5 -45.5t-22.5 -19.5h55q21 0 38 2.5t25 2.5q20 0 20 -8t-22 -8q-8 0 -24.5 1.5t-37.5 1.5h-44q-83 0 -109 -2t-31 -2q-18 0 -18 9z
" />
    <glyph glyph-name="five" unicode="5" horiz-adv-x="489" 
d="M121.5 3q-41.5 19 -63.5 48.5t-22 59.5q0 15 9 15q7 0 9 -13q11 -56 48 -89.5t117 -33.5q96 0 148.5 56.5t52.5 148.5q0 90 -50 139t-145 49h-68q-22 0 -38 -1t-23 -1q-9 0 -6 14l50 294q3 13 11 13q12 0 21 -1l63 -1l128 1q19 1 43 1q18 0 18 -10q0 -9 -15 -9
q-11 0 -35 3q-91 8 -140 8h-86l-52 -304h133q94 0 146 -50.5t52 -142.5q0 -96 -55 -154.5t-153 -58.5q-56 0 -97.5 19z" />
    <glyph glyph-name="six" unicode="6" horiz-adv-x="525" 
d="M115 60q-52 76 -52 220q0 98 24 197.5t81 169t151 69.5q49 0 82.5 -19t49.5 -48.5t16 -59.5q0 -14 -10 -14q-6 0 -9 13q-11 57 -39.5 89.5t-91.5 32.5q-90 0 -146 -68.5t-79.5 -166t-23.5 -191.5q0 -145 51 -219.5t148 -74.5q59 0 103.5 30t69.5 85.5t25 129.5
q0 101 -46.5 152t-128.5 51q-44 0 -78 -15.5t-64 -48.5q-10 -10 -20.5 -26t-14.5 -16q-6 0 -6 6q0 13 24 37q65 69 159 69q84 0 132.5 -52.5t48.5 -154.5q0 -75 -25.5 -132.5t-72 -89t-107.5 -31.5q-99 0 -151 76z" />
    <glyph glyph-name="seven" unicode="7" horiz-adv-x="430" 
d="M39.5 -2q-2.5 3 -2.5 7q0 5 2 8l16 26q62 95 145 234l254 421h-78q-92 0 -218 -9l-32 -2q-19 0 -19 9q0 10 19 10q32 0 62 -1l188 -1l60 1q9 1 21 1q5 0 5 -3t-4 -9l-252 -421q-67 -112 -116 -208q-20 -39 -28 -51q-5 -8 -8.5 -11.5t-8.5 -3.5q-3 0 -5.5 3z" />
    <glyph glyph-name="eight" unicode="8" horiz-adv-x="540" 
d="M107.5 24q-61.5 40 -61.5 130q0 57 26 99.5t67 65.5t85 23q9 0 13.5 -1.5t4.5 -6.5q0 -7 -13 -7q-76 0 -126 -46.5t-50 -126.5q0 -88 59.5 -126t140.5 -38q97 0 157 50t60 139q0 56 -24.5 92.5t-60 57t-94.5 44.5t-92.5 43t-56.5 52.5t-23 85.5q0 75 48.5 118.5
t131.5 43.5q77 0 125.5 -38t48.5 -112q0 -53 -24 -97t-62 -69.5t-79 -25.5h-3q55 -23 90 -44.5t58 -57.5t23 -92q0 -92 -62 -144t-162 -52q-83 0 -144.5 40zM147.5 473.5q21.5 -32.5 54.5 -51.5t86 -41h20q39 0 76 24.5t60 67t23 93.5q0 71 -47.5 107.5t-120.5 36.5
q-79 0 -126 -41.5t-47 -113.5q0 -49 21.5 -81.5z" />
    <glyph glyph-name="nine" unicode="9" horiz-adv-x="525" 
d="M431 640q52 -76 52 -220q0 -98 -24 -197.5t-81 -169t-151 -69.5q-49 0 -82.5 19t-49.5 48.5t-16 59.5q0 14 10 14q6 0 9 -13q11 -57 39.5 -89.5t91.5 -32.5q90 0 146 68.5t79.5 166t23.5 191.5q0 145 -51 219.5t-148 74.5q-59 0 -103.5 -30t-69.5 -85.5t-25 -129.5
q0 -101 46.5 -152t128.5 -51q44 0 78 15.5t64 48.5q10 10 20.5 26t14.5 16q6 0 6 -6q0 -13 -24 -37q-64 -69 -159 -69q-84 0 -132.5 52.5t-48.5 154.5q0 75 25.5 132.5t72 89t107.5 31.5q99 0 151 -76z" />
    <glyph glyph-name="colon" unicode=":" horiz-adv-x="196" 
d="M81.5 395q-11.5 15 -11.5 40q0 27 14 46t39 19q20 0 31.5 -15t11.5 -40q0 -27 -14 -46t-39 -19q-20 0 -31.5 15zM86.5 399q9.5 -13 27.5 -13q22 0 34 17.5t12 41.5q0 22 -10 35.5t-28 13.5q-22 0 -33.5 -17t-11.5 -42q0 -23 9.5 -36zM39.5 -1q-11.5 15 -11.5 40
q0 27 14 46t39 19q20 0 31.5 -15t11.5 -40q0 -27 -14 -46t-39 -19q-20 0 -31.5 15zM44.5 3q9.5 -13 27.5 -13q22 0 34 17.5t12 41.5q0 22 -10 35.5t-28 13.5q-22 0 -33.5 -17t-11.5 -42q0 -23 9.5 -36z" />
    <glyph glyph-name="semicolon" unicode=";" horiz-adv-x="196" 
d="M81.5 395q-11.5 15 -11.5 40q0 27 14 46t39 19q20 0 31.5 -15t11.5 -40q0 -27 -14 -46t-39 -19q-20 0 -31.5 15zM86.5 399q9.5 -13 27.5 -13q22 0 34 17.5t12 41.5q0 22 -10 35.5t-28 13.5q-22 0 -33.5 -17t-11.5 -42q0 -23 9.5 -36zM17 -87q0 4 7 4q36 0 50.5 22
t14.5 69q0 57 -19 112v1q0 4 4.5 6t5.5 -2q16 -48 16 -104q0 -116 -68 -116q-11 0 -11 8z" />
    <glyph glyph-name="less" unicode="&#x3c;" horiz-adv-x="660" 
d="M38 280q381 140 554 205l54 21l5 -10l-73 -26q-37 -13 -144.5 -51.5t-380.5 -138.5q327 -130 515 -199q5 -2 11 -3.5t12 -4.5q14 -5 14 -13q0 -6 -5 -9t-13 0q-146 67 -549 229z" />
    <glyph glyph-name="equal" unicode="=" horiz-adv-x="660" 
d="M31 216h589v-7h-589v7zM44 336h589v-7h-589v7z" />
    <glyph glyph-name="greater" unicode="&#x3e;" horiz-adv-x="661" 
d="M104 96q192 68 511 184q-359 142 -539 208q-14 6 -14 12t6 9t12 0q78 -35 181 -78.5t368 -150.5q-391 -144 -555 -206l-53 -20l-5 10q71 25 88 32z" />
    <glyph glyph-name="question" unicode="?" horiz-adv-x="410" 
d="M173 205.5q-22 7.5 -41 28t-19 55.5q0 41 19.5 70t48 48.5t75.5 45.5q44 24 69 40.5t42 40.5t17 57q0 52 -42 85t-112 33q-45 0 -100 -19q-22 -6 -25 -6q-10 0 -9 7q1 12 42 18.5t82 6.5q82 0 126 -34.5t44 -89.5q0 -34 -17.5 -59.5t-43.5 -43t-70 -41.5q-46 -25 -74 -44
t-47 -47t-19 -67q0 -34 18.5 -48t50.5 -23q13 -4 19 -6.5t6 -7.5q0 -4 -1.5 -5.5t-6.5 -1.5q-10 0 -32 7.5zM120 85q14 19 39 19q20 0 31.5 -15t11.5 -40q0 -27 -14 -46t-39 -19q-20 0 -31.5 15t-11.5 40q0 27 14 46zM122.5 3q9.5 -13 27.5 -13q22 0 34 17.5t12 41.5
q0 22 -10 35.5t-28 13.5q-22 0 -33.5 -17t-11.5 -42q0 -23 9.5 -36z" />
    <glyph glyph-name="at" unicode="@" horiz-adv-x="633" 
d="M172 20.5q-51 36.5 -80.5 105.5t-29.5 163q0 110 38.5 208.5t107.5 158.5t155 60q65 0 116.5 -37.5t80.5 -110t29 -175.5q0 -88 -20.5 -167t-65.5 -79t-45 97q0 26 4 68q-18 -75 -59 -122.5t-102 -47.5q-59 0 -89 46.5t-30 123.5q0 57 17 113t52.5 92.5t88.5 36.5
q63 0 95 -52q1 -1 1 -5q0 -6 -4 -9.5t-7 1.5q-20 30 -39 44.5t-49 14.5q-50 0 -83.5 -36t-49 -90t-15.5 -110q0 -74 28 -118.5t84 -44.5q71 0 113.5 63.5t51.5 151.5q5 56 6 81l4 44q0 6 2 11t6 5q3 0 4 -5t1 -11q0 -1 -5 -33q-2 -12 -5 -37t-9 -73q-6 -54 -6 -100
q0 -44 9 -68t31 -24q41 0 59.5 76t18.5 162q0 102 -28.5 173.5t-78 108t-113.5 36.5q-83 0 -150 -58.5t-105 -155t-38 -205.5q0 -94 29 -162t78.5 -103.5t110.5 -35.5q77 0 135 62q3 3 6 3q4 0 5 -4.5t-3 -8.5q-26 -27 -63 -42.5t-80 -15.5q-64 0 -115 36.5z" />
    <glyph glyph-name="A" unicode="A" horiz-adv-x="565" 
d="M91.5 8.5q-23.5 16.5 -39 45t-15.5 63.5q0 53 35 91t100 38q67 0 138.5 -53t170.5 -187l-14 79l-53 289l-60 331l-87 -163q-51 -95 -91 -183l-18 -36q-6 -11 -12 -11q-4 0 -6.5 2.5t-2.5 6.5t3 8q41 64 121 214l93 173h3l63 -340q30 -163 66 -328l7 -33q1 -3 1 -9
q0 -11 -8 -11q-7 0 -12 8q-90 122 -160.5 179t-141.5 57q-64 0 -96 -36.5t-32 -84.5q0 -73 78 -103q25 -9 25 -17q0 -6 -10 -6q-22 0 -45.5 16.5z" />
    <glyph glyph-name="B" unicode="B" horiz-adv-x="495" 
d="M108.5 13.5q-47.5 29.5 -70 70.5t-22.5 75q0 15 8 15q7 0 10 -13q30 -171 192 -171q98 0 152 59t54 155q0 91 -50.5 135.5t-133.5 44.5l-49 -1q-18 0 -18 10t19 10q5 0 21 -2q33 -3 40 -3q40 0 75.5 19.5t57 56.5t21.5 88q0 66 -38 99t-120 33h-142l-21 -219
q-9 -90 -15 -212l-1 -28q0 -15 -11 -15q-10 0 -9 15l6 43q3 25 9 72t14 125l21 217q1 6 2.5 8t6.5 2t16 -1t26 -1h98q84 0 124 -34t40 -104q0 -57 -25 -95t-62.5 -56.5t-75.5 -18.5l-3 -3q78 0 130.5 -46t52.5 -139q0 -100 -57 -160t-155 -60q-70 0 -117.5 29.5z" />
    <glyph glyph-name="C" unicode="C" horiz-adv-x="470" 
d="M102.5 54q-41.5 70 -41.5 205q0 116 31.5 220t100 170.5t175.5 66.5q32 0 53 -5t21 -16q0 -8 -12 -8q-4 0 -22 4q-4 1 -22 4.5t-45 3.5q-92 0 -153.5 -63t-91 -163.5t-29.5 -214.5q0 -268 158 -268q62 0 101 40.5t74 102.5q9 16 17 28t13 12q6 0 6 -7q0 -17 -31 -63
t-79 -82.5t-102 -36.5q-80 0 -121.5 70z" />
    <glyph glyph-name="D" unicode="D" horiz-adv-x="506" 
d="M101.5 13.5q-43.5 29.5 -64.5 71t-21 75.5q0 14 8 14q7 0 10 -13q13 -76 53 -123.5t122 -47.5q87 0 144 61.5t83.5 160.5t26.5 216q0 84 -15.5 141t-62 91t-132.5 34h-138l-21 -219q-9 -90 -15 -212l-1 -28q0 -15 -11 -15q-10 0 -9 15l6 43q3 25 9 72t14 125l21 217
q1 6 2.5 8t6.5 2t16 -1t26 -1h95q88 0 135 -34.5t63.5 -93t16.5 -144.5q0 -120 -27.5 -220.5t-86 -162t-147.5 -61.5q-63 0 -106.5 29.5z" />
    <glyph glyph-name="E" unicode="E" horiz-adv-x="430" 
d="M147 -16q-35 8 -61.5 12t-57.5 4q-11 0 -22 -2t-18 -2q-14 0 -14 9t14 9q31 0 40.5 12t13.5 50l28 269q2 27 24 32q-8 1 -12.5 8.5t-3.5 23.5l29 283q1 6 2.5 8t6.5 2t16 -1t26 -1h46l149 1q22 1 51 1q20 0 20 -10q0 -9 -17 -9q-14 0 -46 3q-104 8 -157 8h-91l-28 -284
q-1 -16 5 -23t21 -7h60q42 0 122 4l67 2q11 0 14.5 -2t3.5 -7q0 -9 -19 -9l-67 2q-120 3 -122 3h-60q-15 0 -23.5 -7t-9.5 -23l-29 -270q-3 -33 -11 -47t-30 -19h13q33 0 59 -4t73 -14q24 -5 48.5 -9.5t43.5 -4.5q42 0 59 8t30 23q6 8 15 15q5 3 9 3q9 0 9 -7
q0 -8 -13.5 -19.5t-39 -20t-60.5 -8.5q-42 0 -106 15z" />
    <glyph glyph-name="F" unicode="F" horiz-adv-x="430" 
d="M35 8q0 9 8 70q14 98 32 267q2 27 24 32q-8 1 -12.5 8.5t-3.5 23.5l29 283q1 6 2.5 8t6.5 2t16 -1t26 -1h48l150 1q22 1 51 1q20 0 20 -10q0 -9 -17 -9q-14 0 -46 3q-104 8 -159 8h-92l-28 -284q-1 -16 5 -23t21 -7h60q42 0 122 4l67 2q11 0 14.5 -2t3.5 -7q0 -9 -19 -9
l-67 2q-120 3 -122 3h-60q-31 0 -34 -30q-14 -142 -25 -310l-1 -22q-1 -16 -11 -16q-9 0 -9 13z" />
    <glyph glyph-name="G" unicode="G" horiz-adv-x="485" 
d="M101 53.5q-40 69.5 -40 205.5q0 116 31.5 220t100 170.5t175.5 66.5q32 0 53 -5t21 -16q0 -8 -12 -8q-4 0 -22 4q-4 1 -22 4.5t-45 3.5q-92 0 -153.5 -63t-91 -163.5t-29.5 -214.5q0 -268 152 -268q96 0 145.5 94.5t61.5 211.5q1 19 11 19t7 -19q-6 -37 -11 -86
q-9 -90 -12 -174q0 -18 -1 -25q-1 -16 -11 -16q-8 0 -8 12q0 15 6 46q2 12 8 53.5t12 103.5l7 72q-26 -154 -82.5 -226t-133.5 -72t-117 69.5z" />
    <glyph glyph-name="H" unicode="H" horiz-adv-x="520" 
d="M35 11l7 54q19 123 27 205l17 167q10 102 17 208l3 45q1 15 11 15t9 -15q-1 -13 -8 -56q-17 -110 -25 -197l-8 -77h374l8 77q10 102 17 208l3 45q1 15 11 15q8 0 8 -11q0 -9 -9 -76q-15 -93 -24 -181l-17 -167q-11 -104 -18 -216l-3 -43q-1 -9 -3.5 -12.5t-7.5 -3.5
q-8 0 -8 12q0 8 9 75q18 117 25 188l8 83h-374l-8 -83q-11 -104 -18 -216l-3 -43q-1 -16 -11 -16t-9 16z" />
    <glyph glyph-name="I" unicode="I" horiz-adv-x="275" 
d="M4 5q0 9 16 9q6 0 17.5 -2.5t24.5 -2.5q29 0 39.5 14t14.5 53l58 551q3 30 10.5 45.5t22.5 20.5h-25q-36 0 -57.5 -2.5t-29.5 -2.5q-18 0 -18 7q0 8 21 8q8 0 28.5 -1.5t56.5 -1.5h14q40 0 57 2t23 2q14 0 14 -8q0 -9 -16 -9q-5 0 -17 2.5t-25 2.5q-29 0 -39 -14.5
t-14 -53.5l-58 -551q-3 -30 -10.5 -45.5t-22.5 -19.5h25q36 0 57.5 2.5t29.5 2.5q18 0 18 -8t-20 -8q-8 0 -29 1.5t-57 1.5h-14q-40 0 -57 -2t-24 -2q-14 0 -14 9z" />
    <glyph glyph-name="J" unicode="J" horiz-adv-x="390" 
d="M9 -1q0 7 14 7q5 0 23 -2q26 -2 45 -2q62 0 93 25t42.5 68t20.5 128l43 404q3 30 10.5 45.5t22.5 20.5h-25q-128 0 -155.5 -2.5t-32.5 -2.5q-18 0 -18 8q0 7 21 7q5 0 31.5 -1.5t154.5 -1.5h14q40 0 57 2t23 2q14 0 14 -8q0 -9 -16 -9q-5 0 -17 2.5t-25 2.5
q-29 0 -39.5 -14.5t-14.5 -53.5l-42 -402q-9 -87 -22.5 -133.5t-53 -74t-117.5 -27.5q-51 0 -51 12z" />
    <glyph glyph-name="K" unicode="K" horiz-adv-x="600" 
d="M89 8h25q36 0 57.5 2.5t29.5 2.5q18 0 18 -8t-20 -8q-8 0 -29 1.5t-57 1.5h-14q-40 0 -57 -2t-24 -2q-14 0 -14 9t16 9q6 0 17.5 -2.5t24.5 -2.5q29 0 39.5 14t14.5 53l58 551q3 30 10.5 45.5t22.5 20.5h-25q-36 0 -57.5 -2.5t-29.5 -2.5q-18 0 -18 7q0 8 21 8
q8 0 28.5 -1.5t56.5 -1.5h14q40 0 57 2t23 2q14 0 14 -8q0 -9 -16 -9q-5 0 -17 2.5t-25 2.5q-29 0 -39 -14.5t-14 -53.5l-58 -551q-2 -18 -4 -26l353 538q43 65 75 92.5t51 27.5q6 0 6 -5t-19 -16q-65 -38 -108 -104l-153 -233l126 -230q25 -46 45 -67.5t35 -32.5t15 -16
q0 -6 -7 -6q-15 0 -32.5 21.5t-55.5 88.5l-129 238l-211 -320q-8 -12 -20 -15z" />
    <glyph glyph-name="L" unicode="L" horiz-adv-x="490" 
d="M269.5 -26.5q-28.5 4.5 -55.5 9.5q-45 9 -75.5 13t-68.5 4q-16 0 -30.5 -2t-22.5 -2q-18 0 -18 9t17 9q6 0 17.5 -2.5t22.5 -2.5q30 0 41 15t15 52l38 361q8 70 17 205l3 44q1 19 12 19q8 0 8 -14q0 -12 -8 -65q-14 -87 -25 -189l-39 -364q-3 -30 -12 -46t-27 -22
q46 0 130 -16q28 -5 56 -9.5t49 -4.5q42 0 59 8t30 23q6 8 15 15q5 3 9 3q9 0 9 -7q0 -8 -13.5 -19.5t-39 -20t-60.5 -8.5q-25 0 -53.5 4.5z" />
    <glyph glyph-name="M" unicode="M" horiz-adv-x="650" 
d="M35 8q0 7 10 85q17 132 31 262l35 340q1 10 6 10q6 0 7 -5l175 -679h3l316 679q3 5 7 5q3 0 4 -2t0 -9l-36 -339q-14 -135 -21 -236t-7 -108q-1 -9 -3.5 -12.5t-7.5 -3.5q-9 0 -8 16l12 103q17 127 29 241l36 338l-316 -677q-3 -6 -8 -6q-4 0 -6 5l-175 678l-35 -338
q-14 -135 -21 -236t-7 -108q-1 -16 -11 -16q-9 0 -9 13z" />
    <glyph glyph-name="N" unicode="N" horiz-adv-x="520" 
d="M35 8q0 -2 9 77q20 146 32 270l35 340q1 10 5 10t6 -5l301 -693l36 338q14 140 23 284l5 60q1 9 3.5 12.5t7.5 3.5q9 0 8 -16l-10 -86q-17 -127 -31 -258l-34 -339q-1 -11 -6 -11q-4 0 -6 6l-301 693l-35 -339q-14 -135 -21 -236t-7 -108q-1 -16 -11 -16q-9 0 -9 13z" />
    <glyph glyph-name="O" unicode="O" horiz-adv-x="549" 
d="M107 56.5q-47 72.5 -47 201.5q0 108 32.5 214.5t94.5 175t145 68.5q84 0 131 -72.5t47 -201.5q0 -108 -32.5 -214.5t-94.5 -175t-145 -68.5q-84 0 -131 72.5zM112 61.5q45 -71.5 126 -71.5q80 0 140.5 66.5t93 171.5t32.5 214q0 125 -45.5 196.5t-126.5 71.5
q-80 0 -140.5 -66.5t-92.5 -171t-32 -214.5q0 -125 45 -196.5z" />
    <glyph glyph-name="P" unicode="P" horiz-adv-x="470" 
d="M35 8q0 10 8 68q19 142 29 239q12 108 22 215t15 164q2 8 9 8q5 0 16 -1t26 -1h117q82 0 126 -44.5t44 -133.5q0 -101 -54 -157.5t-163 -56.5q-35 0 -64 4t-29 15q0 8 13 8q6 0 13 -1t15 -2q40 -8 80 -8q87 0 135 50.5t48 147.5q0 87 -42.5 129.5t-122.5 42.5h-157
l-40 -379q-13 -122 -17.5 -196t-5.5 -84l-1 -24q-1 -16 -11 -16q-9 0 -9 13z" />
    <glyph glyph-name="Q" unicode="Q" horiz-adv-x="545" 
d="M515 -177q-35 24 -58 59.5t-52 92.5q-27 51 -35 65q-59 -54 -132 -54q-48 0 -79 22.5t-31 61.5q0 37 27.5 57t70.5 20q48 0 81.5 -25.5t62.5 -72.5q63 61 98.5 169.5t35.5 223.5q0 125 -45.5 196.5t-128.5 71.5q-80 0 -139.5 -63t-91 -163.5t-31.5 -208.5q0 -36 6 -62
t17 -55q7 -21 7 -27q0 -8 -7 -8q-13 0 -21.5 45.5t-8.5 106.5q0 107 32 208.5t93 167t144 65.5q85 0 132.5 -72.5t47.5 -201.5q0 -116 -36 -226.5t-100 -171.5l29 -52q31 -57 55.5 -92t62.5 -59t92 -24q11 0 11 -7q0 -11 -26 -11q-48 0 -83 24zM165.5 12.5
q30.5 -20.5 74.5 -20.5q70 0 126 53q-28 46 -61 71t-79 25q-39 0 -65 -18.5t-26 -52.5q0 -37 30.5 -57.5z" />
    <glyph glyph-name="R" unicode="R" horiz-adv-x="490" 
d="M35 8q0 10 8 68q19 142 29 239q12 108 22 215t15 164q2 8 9 8q5 0 16 -1t26 -1h127q83 0 129 -44.5t46 -131.5q0 -95 -57 -150.5t-156 -55.5q-18 0 -61 5q-22 2 -27 2q-6 0 -7 -1.5t3 -6.5l169 -210q38 -48 73 -78l8.5 -8.5t9 -10.5t2.5 -7q0 -8 -9 -8q-7 0 -15.5 9
t-26.5 35q-37 50 -48 63l-176 219q-5 6 -5 11q0 4 3.5 6.5t8.5 2.5q11 0 31 -5q3 -1 24.5 -5.5t50.5 -4.5q89 0 144 53t55 145q0 85 -44.5 127.5t-125.5 42.5h-167l-40 -379q-13 -122 -17.5 -196t-5.5 -84l-1 -24q-1 -16 -11 -16q-9 0 -9 13z" />
    <glyph glyph-name="S" unicode="S" horiz-adv-x="455" 
d="M121 13q-42 29 -61 70t-19 77q0 13 8 13q5 0 7.5 -7t6.5 -27q8 -41 20.5 -71t47 -54t97.5 -24q76 0 121.5 36.5t45.5 99.5q0 40 -19.5 79t-47.5 73t-75 84q-47 49 -75 82.5t-47 71.5t-19 77q0 68 54.5 95.5t145.5 27.5q39 0 67.5 -4.5t28.5 -16.5q0 -8 -12 -8q-9 0 -23 3
q-38 9 -89 9q-72 0 -119 -21.5t-47 -83.5q0 -38 19 -76t46.5 -71.5t74.5 -82.5q48 -52 76 -85.5t47.5 -73t19.5 -79.5q0 -68 -48.5 -105t-122.5 -37q-67 0 -109 29z" />
    <glyph glyph-name="T" unicode="T" horiz-adv-x="515" 
d="M92 5q0 9 16 9q9 0 28 -2.5t45 -2.5q31 0 41.5 14t14.5 53l65 618h-30q-49 0 -124 -7q-30 -3 -47 -3q-11 0 -15 2t-4 6q0 10 20 10q27 0 47 -1l124 -1h65l123 1q20 1 47 1q19 0 19 -9t-20 -9q-17 0 -47 3q-72 7 -123 7h-29l-65 -621q-3 -30 -10.5 -45.5t-22.5 -19.5h58
q30 0 50 2.5t29 2.5q18 0 18 -8t-20 -8q-8 0 -28 1.5t-50 1.5h-48q-57 0 -81.5 -2t-31.5 -2q-14 0 -14 9z" />
    <glyph glyph-name="U" unicode="U" horiz-adv-x="570" 
d="M65 207q0 29 5 74l17 156q13 108 18 225l1 27q1 16 11 16q9 0 9 -13q0 -5 -9 -75q-19 -140 -23 -180l-18 -156q-4 -35 -4 -73q0 -109 46 -163.5t140 -54.5q113 0 170 71.5t73 219.5l17 156q12 104 16 207l3 45q1 9 3.5 12.5t7.5 3.5q8 0 8 -12q0 -15 -9 -71
q-17 -128 -23 -185l-17 -156q-16 -150 -75 -223.5t-175 -73.5q-192 0 -192 223z" />
    <glyph glyph-name="V" unicode="V" horiz-adv-x="555" 
d="M103 644q-1 7 -10 46l-1 6q0 12 11 12q10 0 12 -17q23 -154 48 -297l70 -397q72 135 131 241q96 172 137 258t41 134q0 68 -155 68q-47 0 -91 -7q-20 -2 -23 -2q-10 0 -10 7q0 10 26.5 15t72.5 5q187 0 187 -86q0 -49 -49 -149t-168 -315l-99 -180h-5l-72 406
q-16 93 -53 252z" />
    <glyph glyph-name="W" unicode="W" horiz-adv-x="800" 
d="M103 644q-1 7 -10 46l-1 6q0 12 11 12q10 0 12 -17q23 -154 48 -297l70 -397q75 139 120 221l60 109l-12 65q-18 106 -45 234q-4 25 -7.5 40.5t-4.5 23.5q-2 12 21 19t61 7q123 0 123 -85q0 -39 -32 -112t-97 -193l58 -329q53 102 130 240q97 176 138 261.5t41 132.5
q0 37 -25.5 52t-71.5 15q-23 0 -46 -2.5t-29 -3.5q-15 -3 -22 -3q-10 0 -10 7q0 9 26 14.5t60 5.5q125 0 125 -85q0 -50 -50.5 -152.5t-167.5 -313.5q-39 -73 -98 -179h-5l-58 330l-40 -72q-71 -127 -142 -258h-5l-72 406q-16 93 -53 252zM367 627l41 -233l10 -57
q63 114 93.5 184t30.5 110q0 37 -26.5 52t-78.5 15q-33 0 -56.5 -4.5t-22.5 -11.5q3 -11 9 -55z" />
    <glyph glyph-name="X" unicode="X" horiz-adv-x="525" 
d="M402 494q65 81 89 115t24 52q0 22 -29.5 29.5t-77.5 7.5q-57 0 -99 -7l-21 -2q-11 0 -11 7q0 10 29 15t77 5q62 0 101 -11t39 -40q0 -20 -22.5 -52t-86.5 -112q-15 -19 -48.5 -60.5t-63.5 -80.5l-24 -31l9 -18q59 -124 110 -224q28 -52 37 -74l2 -8q0 -10 -10 -10
q-5 0 -8 3t-5 10q2 -3 -11 27q-7 16 -42 99t-77 174l-8 17l-248 -321q-5 -6 -8.5 -7t-4.5 1.5t2 5.5l256 327l-29 62q-29 61 -115 234l-32 64q-2 6 -2 7q0 10 11 10q8 0 12 -12l12 -28q58 -145 118 -272l28 -60l21 26q19 25 106 132z" />
    <glyph glyph-name="Y" unicode="Y" horiz-adv-x="525" 
d="M122.5 -192q-54.5 22 -54.5 75q0 38 36 100t102 153l-49 256q-22 116 -52 246l-12 52l-1 6q0 12 11 12q10 0 12 -17q1 -8 13 -91.5t36 -205.5l48 -250l65 87q116 153 176 248t60 156q0 35 -29.5 49t-91.5 14q-45 0 -87 -7l-22 -2q-11 0 -11 7q0 10 26.5 15t70.5 5
q72 0 111.5 -18t39.5 -63q0 -44 -32.5 -108t-80 -131t-124.5 -169q-104 -138 -155.5 -218t-51.5 -128q0 -45 43.5 -60t112.5 -15q59 0 102 9q10 1 16.5 1.5t8.5 -1.5q1 -1 1 -3q0 -8 -8 -11q-12 -5 -37.5 -10t-65.5 -5q-72 0 -126.5 22z" />
    <glyph glyph-name="Z" unicode="Z" horiz-adv-x="545" 
d="M18.5 -3q-4.5 2 -4.5 8q0 9 21 9q23 0 54 26t60 84l235 468q23 47 44.5 69t44.5 31q-34 2 -88 2h-47q-76 0 -183 -8q-28 -3 -43 -3q-19 0 -19 10q0 9 22 9q24 0 43 -1l181 -1h47q59 0 84 3t34 3q11 0 16 -1.5t5 -7.5q0 -11 -26 -11q-28 0 -53.5 -18.5t-56.5 -79.5
l-233 -465q-50 -98 -104 -114q34 -2 97 -2h222q47 0 73.5 15t26.5 53q0 28 -15 76q-2 8 -2 11q0 11 9 11q5 0 8 -3.5t6 -13.5q11 -33 11 -62q0 -94 -110 -94h-230q-65 0 -95 -4l-20 -1q-10 0 -14.5 2z" />
    <glyph glyph-name="bracketleft" unicode="[" horiz-adv-x="255" 
d="M28 -55q12 92 27 228l38 358q10 96 21 228q0 9 9 9q5 0 16 -1t26 -1l46 1q13 1 40 1q11 0 14.5 -1t3.5 -5t-4 -5t-15 -1q-14 0 -40 2t-46 2h-40l-86 -816h40q19 0 47 2q26 2 40 2q18 0 18 -6q0 -4 -4.5 -5t-15.5 -1q-27 0 -40 1l-46 1q-15 0 -26 -1t-16 -1q-7 0 -7 9z
" />
    <glyph glyph-name="backslash" unicode="\" horiz-adv-x="273" 
d="M159 -157q-3 4 -3 11q0 20 -1 37q0 76 -6 208l-20 411q-4 85 -17 205l-4 40v3q0 12 9 12t11 -15q0 3 2 -60q0 -92 5 -185l21 -411q3 -60 8.5 -117t6.5 -73q5 -42 5 -55q0 -15 -10 -15q-4 0 -7 4z" />
    <glyph glyph-name="bracketright" unicode="]" horiz-adv-x="256" 
d="M249 759q-12 -92 -27 -228l-38 -358q-10 -96 -21 -228q0 -9 -9 -9q-5 0 -16 1t-26 1l-46 -1q-13 -1 -40 -1q-11 0 -14.5 1t-3.5 5t4 5t15 1q14 0 40 -2t46 -2h40l86 816h-40q-19 0 -47 -2q-26 -2 -40 -2q-18 0 -18 6q0 4 4.5 5t15.5 1q27 0 40 -1l46 -1q15 0 26 1t16 1
q7 0 7 -9z" />
    <glyph glyph-name="asciicircum" unicode="^" horiz-adv-x="451" 
d="M399 478q-11 21 -21 39q-64 121 -102 191q-117 -152 -163 -225l-16 -23q-4 -5 -7.5 -8t-8.5 -3q-4 0 -6.5 2.5t-2.5 6.5q0 5 4 9l22 27q59 68 179 222q87 -157 134 -234l16 -28l-11 -7q-6 10 -17 31z" />
    <glyph glyph-name="underscore" unicode="_" horiz-adv-x="660" 
d="M9 0h589v-7h-589v7z" />
    <glyph glyph-name="grave" unicode="`" horiz-adv-x="320" 
d="M97 703q0 3 2.5 5.5t6.5 2.5q6 0 11 -4l187 -130l-1 -3l-197 117q-9 6 -9 12z" />
    <glyph glyph-name="a" unicode="a" horiz-adv-x="400" 
d="M42 144q0 85 25.5 170.5t80.5 143.5t138 58q16 0 66 -4l-46 -425q-3 -27 -3 -43q0 -22 9 -27.5t36 -5.5q12 0 16.5 -1.5t4.5 -5.5q0 -10 -23 -10q-26 0 -38 10t-12 44q0 21 2 34l22 180q-25 -122 -70 -200t-115 -78q-93 0 -93 160zM71 27q22 -37 65 -37q58 0 99 60.5
t63 141t30 150.5l16 154q-46 6 -78 6q-71 0 -120 -55t-73 -138t-24 -165q0 -80 22 -117z" />
    <glyph glyph-name="b" unicode="b" horiz-adv-x="415" 
d="M73 0.5q-20 16.5 -20 56.5q0 15 1 23l64 573q3 27 3 43q0 22 -8.5 27.5t-35.5 5.5q-13 0 -17 1.5t-4 5.5q0 9 23 9q25 0 36 -8.5t11 -41.5q0 -8 -2 -34l-64 -578q-2 -18 -2 -24q0 -39 19 -54t57 -15q79 0 130.5 48.5t75.5 125t24 161.5q0 180 -108 180q-43 0 -66 -21.5
t-41 -54.5q-2 -3 -6 -10t-7 -10t-6 -3q-5 0 -5 5q0 11 16 37t45.5 47t67.5 21q54 0 85 -47t31 -145q0 -85 -24.5 -162.5t-77 -127.5t-133.5 -50q-42 0 -62 16.5z" />
    <glyph glyph-name="c" unicode="c" horiz-adv-x="363" 
d="M77 31.5q-32 47.5 -32 140.5q0 81 23.5 160t75.5 131.5t132 52.5q19 0 35.5 -3.5t16.5 -10.5q0 -9 -8 -9q-6 0 -24 4q-27 5 -43 5q-67 0 -112.5 -50t-67 -125.5t-21.5 -154.5q0 -182 118 -182q43 0 69.5 27.5t52.5 72.5q9 17 15 25t11 8q6 0 6 -7q0 -12 -23 -45.5
t-58 -60t-74 -26.5q-60 0 -92 47.5z" />
    <glyph glyph-name="d" unicode="d" horiz-adv-x="400" 
d="M42 144q0 85 25.5 170.5t80.5 143.5t138 58q22 0 60 -4l16 141q3 26 3 41q0 24 -10 29.5t-44 5.5q-13 0 -17 1.5t-4 5.5q0 9 23 9q22 0 33 -2.5t17.5 -14t6.5 -35.5q0 -8 -2 -32l-62 -574q-3 -27 -3 -43q0 -22 9 -27.5t36 -5.5q12 0 16.5 -1.5t4.5 -5.5q0 -10 -23 -10
q-26 0 -38 10t-12 44q0 21 2 34l22 182q-25 -123 -70 -201.5t-115 -78.5q-93 0 -93 160zM71 27q22 -37 65 -37q58 0 98.5 60.5t62 140.5t30.5 151l17 154q-46 6 -78 6q-71 0 -120 -55t-73 -138t-24 -165q0 -80 22 -117z" />
    <glyph glyph-name="e" unicode="e" horiz-adv-x="365" 
d="M78 33.5q-33 49.5 -33 143.5q0 87 27.5 165.5t74.5 126t102 47.5q61 0 61 -65q0 -51 -33 -116t-83.5 -122.5t-98.5 -86.5q-4 -2 -6.5 -1.5t-2.5 3.5t9 9q45 26 94 80.5t82 118.5t33 115q0 27 -12 43t-43 16q-52 0 -97.5 -46.5t-72.5 -123t-27 -163.5q0 -92 31 -139.5
t90 -47.5q42 0 69 27.5t51 71.5q2 4 8.5 14.5t11 15t8.5 4.5q5 0 5 -7q0 -12 -22.5 -45.5t-57.5 -60t-74 -26.5q-61 0 -94 49.5z" />
    <glyph glyph-name="f" unicode="f" horiz-adv-x="240" 
d="M25 6q0 11 6 41q2 12 8 48.5t10 79.5l41 387q8 73 18 110t33 54.5t67 17.5q38 0 38 -10q0 -7 -11 -7q-13 0 -20 1l-37 1q-28 0 -43 -17t-23.5 -52.5t-15.5 -101.5l-6 -54q3 -4 18 -4q36 0 57.5 2t29.5 2q13 0 13 -7q0 -8 -15 -8l-21 1q-32 4 -71 4q-7 0 -12 3l-34 -322
q-11 -101 -11 -167q0 -5 -3 -9t-7 -4q-9 0 -9 11z" />
    <glyph glyph-name="g" unicode="g" horiz-adv-x="389" 
d="M58 -192q0 8 11 8q5 0 21 -2q33 -3 43 -3q57 0 88.5 22.5t46 68.5t24.5 131l28 231q-25 -123 -70 -201.5t-115 -78.5q-93 0 -93 160q0 85 25.5 170.5t80.5 143.5t138 58q16 0 66 -4l-53 -475q-11 -91 -27.5 -141t-55 -75.5t-110.5 -25.5q-48 0 -48 13zM71 27
q22 -37 65 -37q58 0 98.5 60.5t62 140.5t30.5 151l17 154q-46 6 -78 6q-71 0 -120 -55t-73 -138t-24 -165q0 -80 22 -117z" />
    <glyph glyph-name="h" unicode="h" horiz-adv-x="428" 
d="M48 15q0 25 15 145l6 55l48 438q3 29 3 44q0 21 -8.5 26.5t-34.5 5.5q-13 0 -17 1.5t-4 5.5q0 9 23 9q17 0 26.5 -2.5t15 -13.5t5.5 -35q0 -7 -2 -33q-10 -94 -38 -343q-32 -281 -32 -298q0 -15 5 -15t12 23.5t20 76.5q28 113 55 196t71 149t103 66q36 0 50.5 -24.5
t14.5 -73.5q0 -38 -6 -88l-13 -114q-9 -87 -15 -162l-3 -43q-2 -16 -11 -16q-10 0 -8 16q18 103 29 204l13 112q7 65 7 95q0 44 -13 65.5t-45 21.5q-69 0 -118.5 -94t-89.5 -249l-16 -66q-13 -57 -21 -81t-17 -24q-10 0 -10 20z" />
    <glyph glyph-name="i" unicode="i" horiz-adv-x="151" 
d="M100 706q-4 4 -4 10t3.5 10t10.5 4q6 0 10 -4t4 -10q0 -5 -4 -9.5t-10 -4.5t-10 4zM54 505q17 0 26 -2.5t14.5 -13.5t5.5 -35q0 -7 -2 -33l-38 -334q-3 -27 -3 -43q0 -21 8 -26.5t34 -5.5q12 0 16.5 -1.5t4.5 -5.5q0 -10 -23 -10q-17 0 -25.5 2.5t-14 13.5t-5.5 35
q0 6 2 34l37 333q3 29 3 44q0 21 -8 26.5t-34 5.5q-13 0 -17 1.5t-4 5.5q0 9 23 9z" />
    <glyph glyph-name="j" unicode="j" horiz-adv-x="155" 
d="M105 706.5q-4 4.5 -4 9.5q0 6 4 10t10 4q7 0 10.5 -4t3.5 -10t-4 -10t-10 -4t-10 4.5zM-170 -184q5 0 21 -2q33 -3 42 -3q58 0 89.5 22.5t46.5 68.5t24 130l44 381q3 29 3 43q0 22 -8 27.5t-34 5.5q-13 0 -17 1.5t-4 5.5q0 9 23 9q17 0 25.5 -2.5t14 -13.5t5.5 -34
q0 -8 -2 -34l-43 -383q-10 -91 -27 -141t-55.5 -76t-110.5 -26q-48 0 -48 13q0 8 11 8z" />
    <glyph glyph-name="k" unicode="k" horiz-adv-x="405" 
d="M346 3l-155 310q-54 -81 -92 -165t-38 -122q0 -14 42 -14q12 0 16.5 -1.5t4.5 -5.5q0 -10 -23 -10q-18 0 -28 2.5t-15.5 14t-5.5 35.5q0 7 2 33l19 170l45 403q3 27 3 43q0 22 -8.5 27.5t-35.5 5.5q-13 0 -17 1.5t-4 5.5q0 9 23 9q17 0 26.5 -2.5t15 -13.5t5.5 -34
q0 -8 -2 -34l-45 -411l-19 -163q-3 -21 -3 -36q12 58 63 155.5t114 182t108 111.5q5 3 8 3q2 0 4 -2t2 -5q0 -4 -7 -10q-47 -30 -94 -86q-32 -39 -60 -81q103 -206 167 -309q2 -2 2 -6q0 -9 -8 -9q-6 0 -10 8z" />
    <glyph glyph-name="l" unicode="l" horiz-adv-x="155" 
d="M73 -2.5q-10 2.5 -15.5 14t-5.5 35.5q0 7 2 33l64 573q3 27 3 43q0 22 -8.5 27.5t-35.5 5.5q-13 0 -17 1.5t-4 5.5q0 9 23 9q17 0 26.5 -2.5t15 -13.5t5.5 -34q0 -8 -2 -34l-64 -574q-3 -27 -3 -41q0 -23 9 -28.5t37 -5.5q12 0 16.5 -1.5t4.5 -5.5q0 -10 -23 -10
q-18 0 -28 2.5z" />
    <glyph glyph-name="m" unicode="m" horiz-adv-x="635" 
d="M53 15q0 27 21 200l22 198q3 29 3 44q0 21 -8 26.5t-34 5.5q-13 0 -17 1.5t-4 5.5q0 9 23 9q25 0 35.5 -8t10.5 -41q0 -14 -3 -35l-6 -51q-18 -155 -27.5 -243t-9.5 -107q0 -15 5 -15q6 0 12 23t20 90q23 110 45 191t57.5 144t82.5 63q34 0 49 -28t15 -83q0 -28 -5 -73
l-14 -116l-11 -97q-10 -80 -10 -99q0 -15 5 -15q6 0 12 23t20 90q23 110 45 191t57.5 144t82.5 63q34 0 49 -28t15 -83q0 -28 -5 -73l-13 -116q-9 -87 -15 -162l-3 -43q-2 -16 -10 -16q-5 0 -7.5 4.5t-0.5 11.5q21 120 30 204l13 114q5 48 5 76q0 52 -14 78t-45 26
q-55 0 -96 -94t-72 -248l-11 -55q-15 -70 -22 -93.5t-16 -23.5q-10 0 -10 20q0 28 21 201l13 113q6 45 6 79q0 50 -14 75.5t-45 25.5q-55 0 -96 -94t-72 -248l-11 -55q-15 -70 -22 -93.5t-16 -23.5q-10 0 -10 20z" />
    <glyph glyph-name="n" unicode="n" horiz-adv-x="433" 
d="M53 15q0 27 21 200l22 198q3 29 3 44q0 21 -8 26.5t-34 5.5q-13 0 -17 1.5t-4 5.5q0 9 23 9q25 0 35.5 -8t10.5 -41q0 -14 -3 -35l-6 -51q-18 -155 -27.5 -243t-9.5 -107q0 -15 5 -15t12 23.5t20 76.5q28 113 55 196t71 149t103 66q36 0 50.5 -24.5t14.5 -73.5
q0 -38 -6 -88l-13 -114q-9 -87 -15 -162l-3 -43q-2 -16 -11 -16q-10 0 -8 16q18 103 29 204l13 112q7 65 7 95q0 44 -13 65.5t-45 21.5q-69 0 -118.5 -94t-89.5 -249l-16 -66q-13 -57 -21 -81t-17 -24q-10 0 -10 20z" />
    <glyph glyph-name="o" unicode="o" horiz-adv-x="410" 
d="M78 36.5q-32 52.5 -32 146.5q0 79 22.5 156t66.5 127t104 50q61 0 93 -52t32 -146q0 -80 -22.5 -157t-66.5 -127t-104 -50q-61 0 -93 52.5zM83 41q30 -51 88 -51t100.5 48.5t64.5 124.5t22 155q0 91 -30.5 141.5t-88.5 50.5t-100 -48t-64 -123.5t-22 -155.5
q0 -91 30 -142z" />
    <glyph glyph-name="p" unicode="p" horiz-adv-x="416" 
d="M137 -5q-28 11 -51 21.5t-31 14.5l-19 -170q-2 -16 -2 -36q0 -16 1 -21v-2q0 -7 -7 -7q-9 0 -9 11q0 8 5 30q5 25 8 46l60 531q3 29 3 43q0 22 -8 27.5t-34 5.5q-13 0 -17.5 1.5t-4.5 5.5q0 9 24 9q17 0 26 -2.5t14.5 -13.5t5.5 -35q0 -7 -2 -33l-38 -342
q39 183 91.5 310t120.5 127q41 0 69 -48.5t28 -145.5q0 -82 -21 -160t-63 -128t-102 -50q-19 0 -47 11zM94 27.5q29 -15.5 55.5 -26t40.5 -10.5q53 0 92.5 48t60.5 124.5t21 158.5q0 92 -26.5 140t-64.5 48q-66 0 -120.5 -137t-92.5 -327q5 -3 34 -18.5z" />
    <glyph glyph-name="q" unicode="q" horiz-adv-x="398" 
d="M295 -202.5q-10 2.5 -16 13.5t-6 35q0 20 2 33l45 385q-25 -123 -70 -201.5t-115 -78.5q-93 0 -93 160q0 85 25.5 170.5t80.5 143.5t138 58q16 0 66 -4l-70 -624q-3 -27 -3 -42q0 -23 9 -29t37 -6q13 0 17 -1.5t4 -5.5q0 -9 -23 -9q-18 0 -28 2.5zM71 27q22 -37 65 -37
q58 0 98.5 60.5t62 140.5t30.5 151l17 154q-46 6 -78 6q-71 0 -120 -55t-73 -138t-24 -165q0 -80 22 -117z" />
    <glyph glyph-name="r" unicode="r" horiz-adv-x="325" 
d="M53 15q0 27 21 200l22 198q3 29 3 44q0 21 -8 26.5t-34 5.5q-13 0 -17 1.5t-4 5.5q0 9 23 9q25 0 35.5 -8t10.5 -41q0 -14 -3 -35l-6 -51q-18 -155 -27.5 -243t-9.5 -107q0 -15 5 -15t13 25.5t21 81.5q26 111 50.5 190.5t63.5 142t89 62.5q20 0 20 -9q0 -5 -3.5 -10.5
t-7.5 -5.5t-7 5t-8 5q-58 0 -100 -87.5t-79 -238.5q-9 -34 -15 -63q-13 -58 -21 -83t-17 -25q-10 0 -10 20z" />
    <glyph glyph-name="s" unicode="s" horiz-adv-x="330" 
d="M58 18.5q-25 34.5 -25 68.5q0 17 4.5 28t11.5 11q5 0 5 -9q0 -6 -2 -17.5t-2 -23.5q0 -38 23.5 -62t76.5 -24q57 0 87 28.5t30 73.5q0 43 -25 81.5t-73 90.5q-47 50 -71 86.5t-24 76.5q0 89 128 89q31 0 53 -5t22 -14q0 -6 -9 -6q-6 0 -11 1l-10 2q-26 8 -61 8
q-105 0 -105 -74q0 -39 23.5 -75t70.5 -88q48 -52 73 -90.5t25 -81.5q0 -48 -32.5 -78.5t-90.5 -30.5q-67 0 -92 34.5z" />
    <glyph glyph-name="t" unicode="t" horiz-adv-x="320" 
d="M119.5 12q-17.5 17 -17.5 54q0 23 5 61l35 297q2 18 2 24q0 24 -11 34.5t-36 10.5q-7 0 -17.5 -2.5t-17.5 -2.5q-16 0 -16 9q0 8 18 8q7 0 20.5 -2.5t35.5 -2.5h58q-15 6 -20.5 17t-5.5 30q0 14 1 22q4 47 6 95q3 45 2 39q1 7 4 12t7 5q8 0 8 -13q0 -3 -6 -43
q-12 -67 -15 -100q-1 -8 -1 -22q0 -22 12.5 -32t48.5 -10q4 0 34 3q16 2 22 2q17 0 17 -8q0 -9 -19 -9q-7 0 -32.5 3t-91.5 3h-26q15 -4 21.5 -15.5t6.5 -31.5q0 -6 -2 -22l-35 -297q-5 -40 -5 -60q0 -35 14 -48t51 -13q36 0 57.5 8.5t27.5 8.5q7 0 7 -6q0 -10 -26 -16.5
t-57 -6.5q-46 0 -63.5 17z" />
    <glyph glyph-name="u" unicode="u" horiz-adv-x="433" 
d="M62.5 8.5q-14.5 24.5 -14.5 73.5q0 39 6 88l13 114q9 87 15 162l3 43q2 16 11 16q5 0 7.5 -4.5t0.5 -11.5q-18 -103 -29 -204l-13 -112q-7 -65 -7 -95q0 -44 13 -65.5t45 -21.5q70 0 119 94.5t89 249.5l16 66q15 61 22 82.5t16 21.5q10 0 10 -19q0 -28 -21 -201l-22 -198
q-3 -28 -3 -44q0 -21 8 -26t34 -5q12 0 16.5 -1.5t4.5 -5.5q0 -10 -23 -10q-25 0 -35.5 8t-10.5 41q0 15 3 36l5 43q18 158 28 248t10 110q0 15 -5 15t-12 -23.5t-20 -76.5q-28 -114 -55 -197t-71 -149t-103 -66q-36 0 -50.5 24.5z" />
    <glyph glyph-name="v" unicode="v" horiz-adv-x="396" 
d="M68 463l-6 28l-1 5q0 9 8 9t10 -12l10 -61q7 -48 25 -153l50 -284q9 17 68 130q77 146 109.5 216.5t32.5 107.5q0 26 -26 36t-73 10q-29 0 -51 -3.5t-30 -3.5q-9 0 -9 6q0 7 19.5 11t51.5 4q57 0 91 -13t34 -47q0 -38 -38.5 -119.5t-129.5 -252.5l-48 -91h-5l-53 292
q-13 72 -39 185z" />
    <glyph glyph-name="w" unicode="w" horiz-adv-x="585" 
d="M68 463l-6 28l-1 5q0 9 8 9t10 -12l10 -61q7 -48 25 -153l50 -284q38 70 58 105l73 135l-8 43l-31 162l-11 54q-1 6 17.5 10.5t46.5 4.5q38 0 59.5 -12.5t21.5 -45.5q0 -28 -22 -81t-67 -136l43 -239q47 87 87 159q73 133 103.5 197t30.5 100q0 25 -16.5 34.5t-50.5 9.5
q-21 0 -37.5 -3t-23.5 -3q-6 0 -6 5q0 15 54 15q40 0 63 -12.5t23 -45.5q0 -39 -38.5 -117.5t-131.5 -245.5l-57 -102h-4l-44 240q-19 -36 -99 -183q-6 -11 -32 -57h-5l-53 292q-13 72 -39 185zM261 454q20 -105 32 -175l6 -36q43 80 64 129.5t21 78.5q0 25 -18.5 34.5
t-56.5 9.5q-55 0 -54 -11z" />
    <glyph glyph-name="x" unicode="x" horiz-adv-x="388" 
d="M293 4l-18 44q-38 98 -78 179l-173 -227q-5 -6 -8.5 -4t-0.5 6l179 232l-22 46q-86 178 -104 212l-2 5q0 8 9 8q7 0 11 -10q41 -106 92 -213l20 -43l34 44q11 15 53 67q43 53 61.5 80t17.5 41q0 15 -24 19.5t-60 4.5q-21 0 -64 -5l-24 -2q-9 0 -9 6q0 15 81 15
q106 0 107 -36q1 -15 -16.5 -40.5t-61.5 -81.5l-55 -70l-37 -49q21 -45 44.5 -93t33.5 -67l31 -63q2 -4 2 -6q0 -8 -9 -8q-7 0 -10 9z" />
    <glyph glyph-name="y" unicode="y" horiz-adv-x="403" 
d="M83.5 -193q-42.5 16 -42.5 54q0 28 22.5 70.5t63.5 101.5l-33 247q-7 57 -26 166l-7 47v3q0 9 9 9q8 0 9 -12l4 -40q1 -14 6 -66t12 -106l31 -242l70 96q88 118 133.5 191.5t45.5 122.5q0 27 -24 37.5t-72 10.5q-29 0 -51 -3.5t-30 -3.5q-9 0 -9 6q0 7 19.5 11t51.5 4
q58 0 90 -13.5t32 -48.5q0 -50 -45.5 -123.5t-135.5 -193.5q-80 -108 -119.5 -170.5t-39.5 -101.5q0 -32 34.5 -43t86.5 -11q40 0 68.5 5.5t31.5 2.5q1 -1 1 -3t-1.5 -4t-3.5 -3q-7 -4 -29 -8.5t-57 -4.5q-53 0 -95.5 16z" />
    <glyph glyph-name="z" unicode="z" horiz-adv-x="405" 
d="M14 5q0 8 17 8q19 0 39 16.5t39 54.5l172 343q27 54 57 64q-13 3 -66 3h-93q-41 0 -60.5 -3t-27.5 -3q-18 0 -18 7q0 9 20 9q8 0 26.5 -2t59.5 -2h93q45 0 63.5 2t24.5 2q18 0 18 -6q0 -5 -5 -7t-15 -2q-19 0 -36 -13.5t-36 -51.5l-171 -341q-28 -57 -63 -73q12 -3 67 -3
h148q34 0 48 10.5t14 33.5q0 18 -10 56q-1 3 -1 8q0 8 7 8q6 0 10 -12q10 -27 10 -49q0 -28 -18 -45t-57 -17h-153q-45 0 -63 -2t-24 -2q-16 0 -16 9z" />
    <glyph glyph-name="braceleft" unicode="{" horiz-adv-x="280" 
d="M149 -63l-47 1q-28 0 -37.5 11t-7.5 36l5 43q11 86 18 145l8 71q1 7 1 20q0 35 -15 55.5t-43 31.5v2q34 12 54 37t25 70l8 71q6 49 13 139q1 17 4 49q2 25 14.5 36t40.5 11l46 1q13 1 40 1q18 0 18 -6q0 -4 -4 -5t-15 -1q-14 0 -40 2t-46 2q-23 0 -32.5 -8t-11.5 -31
l-28 -262q-9 -82 -72 -107q51 -19 51 -86q0 -14 -1 -21l-28 -262q-2 -23 6 -31t30 -8q19 0 47 2q26 2 40 2q11 0 14.5 -1t3.5 -5q0 -6 -19 -6q-27 0 -40 1z" />
    <glyph glyph-name="bar" unicode="|" horiz-adv-x="169" 
d="M34 -148q0 13 10 78q18 135 22 169l44 411q11 96 15 196l3 46q2 18 12 18q7 0 7 -13q0 -6 -9 -76q-18 -132 -22 -171l-44 -411q-7 -67 -16 -197l-3 -46q-2 -17 -10 -17q-9 0 -9 13z" />
    <glyph glyph-name="braceright" unicode="}" horiz-adv-x="290" 
d="M153 767l47 -1q28 0 37.5 -11t7.5 -36l-5 -43q-11 -86 -18 -145l-8 -71q-1 -7 -1 -20q0 -35 15 -55.5t43 -31.5v-2q-34 -12 -54 -37t-25 -70l-8 -71q-6 -49 -13 -139q-1 -16 -4 -49q-2 -25 -14.5 -36t-40.5 -11l-46 -1q-13 -1 -40 -1q-18 0 -18 6q0 4 4 5t15 1
q14 0 40 -2t46 -2q23 0 32.5 8t11.5 31l28 262q9 82 72 107q-51 19 -51 86q0 14 1 21l28 262q2 23 -5.5 31t-30.5 8q-19 0 -47 -2q-26 -2 -40 -2q-11 0 -14.5 1t-3.5 5q0 6 19 6q27 0 40 -1z" />
    <glyph glyph-name="asciitilde" unicode="~" horiz-adv-x="590" 
d="M358.5 238.5q-27.5 11.5 -64.5 33.5q-34 21 -59 31.5t-58 10.5q-44 0 -68 -16t-45 -41q-2 -2 -7 -7.5t-8.5 -8t-6.5 -2.5q-7 0 -7 7q0 11 17 29t48 31.5t71 13.5q39 0 66.5 -11.5t64.5 -33.5q33 -21 58 -31t58 -10q46 0 70.5 16t45.5 42q12 17 19 17t7 -8
q0 -11 -16.5 -29t-47.5 -31.5t-72 -13.5q-38 0 -65.5 11.5z" />
    <glyph glyph-name="uni00A0" unicode="&#xa0;" horiz-adv-x="205" 
 />
    <glyph glyph-name="exclamdown" unicode="&#xa1;" horiz-adv-x="196" 
d="M71 -133q-2 -24 -3 -37.5t-2 -19.5q-1 -7 -4 -11t-8 -4q-8 0 -8 12q0 7 12 103q15 113 32 265l13 124q1 3 4.5 3t2.5 -3l-13 -124q-13 -124 -26 -308zM86 497q14 19 39 19q20 0 31.5 -15t11.5 -40q0 -27 -14 -46t-39 -19q-20 0 -31.5 15t-11.5 40q0 27 14 46zM88 415.5
q10 -13.5 28 -13.5q22 0 33.5 17t11.5 42q0 23 -9.5 36t-27.5 13q-22 0 -34 -17.5t-12 -41.5q0 -22 10 -35.5z" />
    <glyph glyph-name="cent" unicode="&#xa2;" horiz-adv-x="363" 
d="M118 101l2 8q3 8 10.5 24t20.5 47q-85 28 -85 192q0 84 22.5 160t73.5 125t130 49q16 0 30.5 -2.5t21.5 -6.5l16 50l9 27q5 14 12 14t7 -9q0 -4 -2 -10q-4 -11 -10 -21q-31 -67 -56 -135l-128 -347q-23 -64 -29 -82q12 -3 27 -3q43 0 69 27t53 72q9 17 15 25t11 8
q6 0 6 -7q0 -12 -23 -45.5t-58 -60t-74 -26.5q-14 0 -28 3q-11 -33 -16 -48.5t-7 -22.5q-5 -14 -12 -14q-8 0 -8 9zM154 186q23 56 32 81l129 348l24 67q-25 10 -67 10q-67 0 -112 -46t-66 -119t-21 -155q0 -160 81 -186z" />
    <glyph glyph-name="sterling" unicode="&#xa3;" horiz-adv-x="518" 
d="M287 -26.5q-29 4.5 -56 9.5q-45 9 -75.5 13t-67.5 4q-17 0 -31.5 -2t-22.5 -2q-17 0 -17 9t17 9q5 0 16.5 -2.5t22.5 -2.5q52 0 78 38.5t26 113.5q0 57 -17 151h-28q-33 0 -50.5 -3t-22.5 -3q-7 0 -12 3t-5 7q0 8 17 8q5 0 22.5 -3t50.5 -3h27l-8 40q-11 57 -17 96t-6 74
q0 92 56 140t184 48q88 0 88 -21q0 -8 -12 -8q-7 0 -21 3q-36 9 -82 9q-108 0 -157 -43t-49 -128q0 -34 6 -73t17 -95l8 -42h4q43 0 128 5l47 2q17 0 17 -9q0 -10 -17 -10l-47 2q-68 4 -128 4h-3q16 -87 16 -149q0 -69 -22 -109.5t-65 -48.5q46 0 130 -16q28 -5 56.5 -9.5
t49.5 -4.5q42 0 59 8t30 23q6 8 15 15q5 3 9 3q9 0 9 -7q0 -8 -13.5 -19.5t-39 -20t-61.5 -8.5q-24 0 -53 4.5z" />
    <glyph glyph-name="currency" unicode="&#xa4;" horiz-adv-x="425" 
d="M198.5 460.5q-22.5 9.5 -38.5 26.5q-21 -24 -32 -38.5t-14 -18.5q-5 -5 -9 -5q-7 0 -7 7q0 6 5 10q42 37 53 48q-30 33 -30 80t30 80q-11 11 -53 48q-5 4 -5 9q0 3 2 5.5t6 2.5q3 0 8 -5q3 -4 14 -18.5t32 -38.5q16 17 38.5 26.5t47.5 9.5t47.5 -9.5t38.5 -26.5
q21 24 32 38.5t14 18.5q5 5 9 5q7 0 7 -7q0 -6 -5 -10q-42 -37 -53 -48q30 -33 30 -80t-30 -80q11 -11 53 -48q5 -4 5 -9q0 -3 -2 -5.5t-6 -2.5q-3 0 -8 5q-3 4 -14 18.5t-32 38.5q-16 -17 -38.5 -26.5t-47.5 -9.5t-47.5 9.5zM166 490.5q33 -32.5 80 -32.5t80.5 32.5
t33.5 79.5t-33.5 80t-80.5 33t-80 -33t-33 -80t33 -79.5z" />
    <glyph glyph-name="yen" unicode="&#xa5;" horiz-adv-x="590" 
d="M85 259q-5 3 -5 7q0 8 17 8q4 0 20 -3t43 -3h55l-24 124q-22 116 -52 246l-12 52l-1 6q0 12 11 12q10 0 12 -17q1 -8 13 -91.5t36 -205.5l24 -126h117q99 131 153.5 220.5t54.5 146.5q0 35 -29.5 49t-91.5 14q-45 0 -87 -7l-22 -2q-11 0 -11 7q0 10 26.5 15t70.5 5
q72 0 111.5 -18t39.5 -63q0 -58 -53.5 -146.5t-152.5 -220.5h10q38 0 125 5l47 2q7 0 12 -2.5t5 -6.5t-5 -7t-12 -3l-47 2q-70 4 -125 4h-14l-49 -64h3q42 0 139 5l53 2q7 0 12 -3t5 -7t-5 -7t-12 -3l-53 2q-78 4 -139 4h-8q-89 -120 -134.5 -192.5t-45.5 -117.5t43.5 -60
t112.5 -15q59 0 102 9q10 1 16.5 1.5t8.5 -1.5q1 -1 1 -3q0 -8 -8 -11q-12 -5 -37.5 -10t-65.5 -5q-72 0 -126.5 22t-54.5 75q0 38 36 100t102 153l-10 55h-100q-33 0 -51 -3t-22 -3q-7 0 -12 3t-5 7t5 6.5t12 2.5q4 0 22 -3t51 -3h98l-12 64h-56q-27 0 -43 -3t-20 -3
q-7 0 -12 3zM236 198h51l48 64h-112zM246 144l35 47h-44z" />
    <glyph glyph-name="brokenbar" unicode="&#xa6;" horiz-adv-x="170" 
d="M34 -149q0 11 7 48q1 9 8 49.5t13 100.5l2 21q4 40 11 154q0 19 2 39q2 17 11 17q10 0 8 -17l-5 -33q-14 -86 -21 -160l-2 -21q-7 -77 -12 -153l-3 -41q-2 -16 -11 -16q-8 0 -8 12zM92 389q1 9 8 49.5t13 100.5l2 21q4 40 11 154q0 19 2 39q2 17 11 17q10 0 8 -17l-5 -33
q-14 -86 -21 -160l-2 -21q-7 -72 -12 -151l-3 -42q-2 -17 -11 -17q-8 0 -8 12q0 11 7 48z" />
    <glyph glyph-name="section" unicode="&#xa7;" horiz-adv-x="355" 
d="M93.5 5.5q-30.5 21.5 -44 51t-13.5 56.5q0 13 9 13q5 0 7 -6.5t5 -21.5q4 -29 12.5 -51.5t32.5 -39.5t69 -17q54 0 87 25.5t33 69.5q0 43 -25.5 80.5t-77.5 93.5q-51 54 -76 90.5t-25 77.5q0 65 76 82q-26 32 -40.5 60.5t-14.5 57.5q0 49 40 69t109 20q66 0 66 -15
q0 -7 -9 -7t-21 3q-32 5 -61 5q-117 0 -117 -74q0 -40 24.5 -76t75.5 -92q52 -56 77.5 -93.5t25.5 -79.5q0 -35 -17.5 -58t-48.5 -35q45 -59 45 -107q0 -49 -35.5 -76t-88.5 -27q-49 0 -79.5 21.5zM119 351q25 -37 75 -91q38 -40 54 -61q30 11 47 33.5t17 52.5
q0 42 -25.5 80t-76.5 93l-38 42q-78 -11 -78 -72q0 -40 25 -77z" />
    <glyph glyph-name="dieresis" unicode="&#xa8;" horiz-adv-x="290" 
d="M98 624q-7 7 -7 17t7 17t17 7t17 -7t7 -17t-7 -17t-17 -7t-17 7zM240 624q-7 7 -7 17t7 17t17 7t17 -7t7 -17t-7 -17t-17 -7t-17 7z" />
    <glyph glyph-name="copyright" unicode="&#xa9;" horiz-adv-x="549" 
d="M107 56.5q-47 72.5 -47 201.5q0 108 32.5 214.5t94.5 175t145 68.5q84 0 131 -72.5t47 -201.5q0 -108 -32.5 -214.5t-94.5 -175t-145 -68.5q-84 0 -131 72.5zM112 61.5q45 -71.5 126 -71.5q80 0 140.5 66.5t93 171.5t32.5 214q0 125 -45.5 196.5t-126.5 71.5
q-80 0 -140.5 -66.5t-92.5 -171t-32 -214.5q0 -125 45 -196.5zM207.5 482q39.5 83 125.5 83q38 0 38 -14q0 -6 -7 -6q-5 0 -19.5 4t-29.5 4q-69 0 -104.5 -79t-35.5 -189q0 -82 21 -121t60 -39q34 0 55 21t39 56q9 16 14 22.5t10 6.5t5 -6q0 -11 -17.5 -38t-45.5 -48
t-60 -21q-42 0 -65 41t-23 126q0 114 39.5 197z" />
    <glyph glyph-name="ordfeminine" unicode="&#xaa;" horiz-adv-x="255" 
d="M96 443.5q-16 25.5 -16 78.5q0 76 34 134.5t106 58.5q12 0 40 -2l-25 -237l-2 -21q0 -12 5 -15t21 -3q6 0 8 -1t2 -5q0 -3 -3 -5.5t-9 -2.5q-15 0 -22 5.5t-7 25.5q0 10 1 16l8 70q-14 -48 -38 -85t-59 -37q-28 0 -44 25.5zM101 449q14 -24 39 -24q31 0 52.5 29.5t33 65
t13.5 53.5l13 127q-33 3 -43 3q-61 0 -91.5 -54.5t-30.5 -126.5q0 -49 14 -73z" />
    <glyph glyph-name="guillemotleft" unicode="&#xab;" horiz-adv-x="425" 
d="M234 57l-16 20q-115 141 -165 200q140 133 228 221q9 9 14 9q7 0 7 -6q0 -3 -4 -7q-5 -5 -35 -31q-12 -11 -67 -60t-136 -126q69 -82 162 -184l30 -33q3 -3 3 -6q0 -7 -7 -7q-6 0 -14 10zM334 57l-16 20q-115 141 -165 200q140 133 228 221q9 9 14 9q7 0 7 -6q0 -3 -4 -7
q-5 -5 -35 -31q-12 -11 -67 -60t-136 -126q69 -82 162 -184l30 -33q3 -3 3 -6q0 -7 -7 -7q-6 0 -14 10z" />
    <glyph glyph-name="logicalnot" unicode="&#xac;" horiz-adv-x="660" 
d="M621 269h-583v7h590l-12 -112h-6z" />
    <glyph glyph-name="registered" unicode="&#xae;" horiz-adv-x="549" 
d="M107 56.5q-47 72.5 -47 201.5q0 108 32.5 214.5t94.5 175t145 68.5q84 0 131 -72.5t47 -201.5q0 -108 -32.5 -214.5t-94.5 -175t-145 -68.5q-84 0 -131 72.5zM112 61.5q45 -71.5 126 -71.5q80 0 140.5 66.5t93 171.5t32.5 214q0 125 -45.5 196.5t-126.5 71.5
q-80 0 -140.5 -66.5t-92.5 -171t-32 -214.5q0 -125 45 -196.5zM174 220q2 14 6.5 48t7.5 63q13 121 20 217q0 9 9 9q5 0 16 -1t26 -1h34q56 0 81.5 -29.5t25.5 -80.5q0 -59 -30.5 -96.5t-81.5 -37.5q14 -7 25.5 -21.5t29.5 -57.5q17 -38 24.5 -57.5t7.5 -26.5q0 -4 -2 -6
t-4 -2q-5 0 -7.5 6.5t-4.5 16.5q-1 5 -6 24.5t-14 43.5q-17 45 -35.5 62.5t-41.5 17.5h-23q-14 0 -14 8q0 4 4 6t9 2q6 0 22.5 -4.5t30.5 -4.5q47 0 76 35.5t29 91.5q0 48 -24.5 76t-77.5 28h-74l-23 -218q-7 -62 -9 -138q-1 -9 -1 -18t-1 -17q-1 -18 -10 -18q-8 0 -8 13
q0 16 8 67z" />
    <glyph glyph-name="macron" unicode="&#xaf;" horiz-adv-x="396" 
d="M91 636h295v-7h-295v7z" />
    <glyph glyph-name="degree" unicode="&#xb0;" horiz-adv-x="402" 
d="M158.5 437.5q-34.5 19.5 -54.5 54t-20 75.5t20 75.5t54.5 54t75.5 19.5t75.5 -19.5t54.5 -54t20 -75.5t-20 -75.5t-54.5 -54t-75.5 -19.5t-75.5 19.5zM110 495.5q19 -32.5 52 -51.5t72 -19t72.5 19t52.5 51.5t19 71.5t-19.5 72t-52.5 52t-72 19t-72 -19t-52 -52t-19 -72
t19 -71.5z" />
    <glyph glyph-name="plusminus" unicode="&#xb1;" horiz-adv-x="661" 
d="M335 309h-293v7h293l22 202h6l-22 -202h291v-7h-291l-22 -201h-6zM11 26h589v-7h-589v7z" />
    <glyph glyph-name="acute" unicode="&#xb4;" horiz-adv-x="294" 
d="M84 577l189 130q5 4 11 4q9 0 9 -8q0 -6 -10 -12l-197 -117z" />
    <glyph glyph-name="uni00B5" unicode="&#xb5;" horiz-adv-x="443" 
d="M41 -202.5q-10 2.5 -16 14t-6 35.5q0 8 2 32l47 405q9 87 15 162l3 43q2 16 11 16q4 0 6.5 -4.5t0.5 -11.5q-18 -103 -30 -204l-12 -102q-5 -50 -5 -81q0 -57 15.5 -84.5t51.5 -27.5q54 0 94 58t64.5 134.5t51.5 186.5q16 71 26.5 103.5t21.5 32.5q8 0 11.5 -6t3.5 -20
t-9 -91q-10 -71 -13 -103l-23 -198q-3 -28 -3 -43q0 -21 8 -26.5t34 -5.5q12 0 16.5 -1.5t4.5 -5.5q0 -10 -23 -10q-17 0 -25.5 2.5t-14 13.5t-5.5 35q0 6 2 34q38 351 38 392q0 14 -7 14q-6 0 -12.5 -22t-21.5 -83q-27 -112 -52 -191.5t-67 -142.5t-100 -63q-37 0 -54 27.5
t-19 82.5l-23 -207q-3 -27 -3 -41q0 -23 9 -29t37 -6q13 0 17 -1.5t4 -5.5q0 -9 -23 -9q-18 0 -28 2.5z" />
    <glyph glyph-name="paragraph" unicode="&#xb6;" horiz-adv-x="530" 
d="M346 14l8 57q20 141 26 199l4 35h-105q-90 0 -144 44.5t-54 135.5q0 98 62.5 156.5t168.5 58.5h72q15 0 26 1t16 1q9 0 7 -9q-16 -121 -43 -379q44 1 75 8l11 108q10 102 17 211q2 34 3 41q1 13 4 18t8 5q10 0 7 -23l-5 -34q-17 -111 -28 -218l-16 -160
q-12 -121 -19 -227l-2 -29q-3 -19 -11 -19q-11 0 -8 19l8 57q20 141 26 199l4 35h-74q-2 -11 -4 -35q-12 -121 -19 -227l-2 -29q-3 -19 -11 -19q-11 0 -8 19zM140 355.5q52 -43.5 140 -43.5l105 1l39 381h-115q-65 0 -115 -25t-78 -72t-28 -111q0 -87 52 -130.5z" />
    <glyph glyph-name="periodcentered" unicode="&#xb7;" horiz-adv-x="246" 
d="M89.5 236q-11.5 15 -11.5 40q0 27 14 46t39 19q20 0 31.5 -15t11.5 -40q0 -27 -14 -46t-39 -19q-20 0 -31.5 15zM94.5 240q9.5 -13 27.5 -13q22 0 34 17.5t12 41.5q0 22 -10 35.5t-28 13.5q-22 0 -33.5 -17t-11.5 -42q0 -23 9.5 -36z" />
    <glyph glyph-name="cedilla" unicode="&#xb8;" horiz-adv-x="270" 
d="M53 -189.5q-33 10.5 -33 22.5q0 6 9 6q8 0 22 -8q21 -10 44 -16.5t56 -6.5q50 0 71.5 16t21.5 38q0 62 -167 62l75 76h7l-70 -71q161 0 161 -67q0 -25 -26 -43.5t-87 -18.5q-51 0 -84 10.5z" />
    <glyph glyph-name="ordmasculine" unicode="&#xba;" horiz-adv-x="279" 
d="M100.5 447.5q-19.5 29.5 -19.5 81.5q0 44 13.5 87t38.5 71t59 28t53.5 -29.5t19.5 -81.5q0 -44 -13.5 -87t-38.5 -71t-59 -28t-53.5 29.5zM105.5 452.5q17.5 -27.5 48.5 -27.5t55 26.5t37 68t13 84.5q0 48 -18 76.5t-50 28.5q-31 0 -54.5 -26.5t-36 -68.5t-12.5 -85
q0 -49 17.5 -76.5z" />
    <glyph glyph-name="guillemotright" unicode="&#xbb;" horiz-adv-x="425" 
d="M198 497l19 -23q85 -107 161 -197q-140 -133 -228 -221q-9 -9 -14 -9q-7 0 -7 6q0 3 4 7q5 5 35 31q12 11 67 60t136 126q-60 72 -105 121.5t-56 62.5q-9 9 -30 33q-3 3 -3 6q0 7 7 7q6 0 14 -10zM97 497l19 -23q85 -107 161 -197q-140 -133 -228 -221q-9 -9 -14 -9
q-7 0 -7 6q0 3 4 7q5 5 35 31q12 11 67 60t136 126q-60 72 -105 121.5t-56 62.5q-9 9 -30 33q-3 3 -3 6q0 7 7 7q6 0 14 -10z" />
    <glyph glyph-name="questiondown" unicode="&#xbf;" horiz-adv-x="400" 
d="M237 294.5q22 -7.5 41 -28t19 -55.5q0 -41 -19.5 -70t-48 -48.5t-75.5 -45.5q-44 -24 -69 -40.5t-42 -40.5t-17 -57q0 -52 42 -85t112 -33q45 0 100 19q22 6 25 6q10 0 9 -7q-1 -12 -42 -18.5t-82 -6.5q-82 0 -126 34.5t-44 89.5q0 34 17.5 59.5t43.5 43t70 41.5
q46 25 74 44t47 47t19 67q0 34 -18.5 48t-50.5 23q-13 4 -19 6.5t-6 7.5q0 4 1.5 5.5t6.5 1.5q10 0 32 -7.5zM223 497q14 19 39 19q20 0 31.5 -15t11.5 -40q0 -27 -14 -46t-39 -19q-20 0 -31.5 15t-11.5 40q0 27 14 46zM225 415.5q10 -13.5 28 -13.5q22 0 33.5 17t11.5 42
q0 23 -9.5 36t-27.5 13q-22 0 -34 -17.5t-12 -41.5q0 -22 10 -35.5z" />
    <glyph glyph-name="Agrave" unicode="&#xc0;" horiz-adv-x="565" 
d="M91.5 8.5q-23.5 16.5 -39 45t-15.5 63.5q0 53 35 91t100 38q67 0 138.5 -53t170.5 -187l-14 79l-53 289l-60 331l-87 -163q-51 -95 -91 -183l-18 -36q-6 -11 -12 -11q-4 0 -6.5 2.5t-2.5 6.5t3 8q41 64 121 214l93 173h3l63 -340q30 -163 66 -328l7 -33q1 -3 1 -9
q0 -11 -8 -11q-7 0 -12 8q-90 122 -160.5 179t-141.5 57q-64 0 -96 -36.5t-32 -84.5q0 -73 78 -103q25 -9 25 -17q0 -6 -10 -6q-22 0 -45.5 16.5zM271 903q0 3 2.5 5.5t6.5 2.5q6 0 11 -4l187 -130l-1 -3l-197 117q-9 6 -9 12z" />
    <glyph glyph-name="Aacute" unicode="&#xc1;" horiz-adv-x="565" 
d="M91.5 8.5q-23.5 16.5 -39 45t-15.5 63.5q0 53 35 91t100 38q67 0 138.5 -53t170.5 -187l-14 79l-53 289l-60 331l-87 -163q-51 -95 -91 -183l-18 -36q-6 -11 -12 -11q-4 0 -6.5 2.5t-2.5 6.5t3 8q41 64 121 214l93 173h3l63 -340q30 -163 66 -328l7 -33q1 -3 1 -9
q0 -11 -8 -11q-7 0 -12 8q-90 122 -160.5 179t-141.5 57q-64 0 -96 -36.5t-32 -84.5q0 -73 78 -103q25 -9 25 -17q0 -6 -10 -6q-22 0 -45.5 16.5zM263 777l189 130q5 4 11 4q9 0 9 -8q0 -6 -10 -12l-197 -117z" />
    <glyph glyph-name="Acircumflex" unicode="&#xc2;" horiz-adv-x="565" 
d="M91.5 8.5q-23.5 16.5 -39 45t-15.5 63.5q0 53 35 91t100 38q67 0 138.5 -53t170.5 -187l-14 79l-53 289l-60 331l-87 -163q-51 -95 -91 -183l-18 -36q-6 -11 -12 -11q-4 0 -6.5 2.5t-2.5 6.5t3 8q41 64 121 214l93 173h3l63 -340q30 -163 66 -328l7 -33q1 -3 1 -9
q0 -11 -8 -11q-7 0 -12 8q-90 122 -160.5 179t-141.5 57q-64 0 -96 -36.5t-32 -84.5q0 -73 78 -103q25 -9 25 -17q0 -6 -10 -6q-22 0 -45.5 16.5zM216 772q0 5 4 9l28 23q71 59 129 111l110 -128l17 -19l-8 -6l-26 32l-93 113q-45 -40 -106 -104q-20 -22 -30 -31t-16 -9
q-9 0 -9 9z" />
    <glyph glyph-name="Atilde" unicode="&#xc3;" horiz-adv-x="565" 
d="M91.5 8.5q-23.5 16.5 -39 45t-15.5 63.5q0 53 35 91t100 38q67 0 138.5 -53t170.5 -187l-14 79l-53 289l-60 331l-87 -163q-51 -95 -91 -183l-18 -36q-6 -11 -12 -11q-4 0 -6.5 2.5t-2.5 6.5t3 8q41 64 121 214l93 173h3l63 -340q30 -163 66 -328l7 -33q1 -3 1 -9
q0 -11 -8 -11q-7 0 -12 8q-90 122 -160.5 179t-141.5 57q-64 0 -96 -36.5t-32 -84.5q0 -73 78 -103q25 -9 25 -17q0 -6 -10 -6q-22 0 -45.5 16.5zM392.5 803.5q-10.5 8.5 -25.5 26.5q-13 17 -23 25t-25 8q-18 0 -28.5 -10.5t-20.5 -28.5q-8 -17 -14 -17q-2 0 -3.5 2t-1.5 5
q0 10 8.5 23.5t23 23t33.5 9.5q17 0 28.5 -9t24.5 -26t22.5 -24.5t24.5 -7.5q19 0 29.5 10.5t20.5 28.5q1 2 5 9t8 7q6 0 6 -7q0 -8 -8.5 -22t-23.5 -24t-33 -10q-17 0 -27.5 8.5z" />
    <glyph glyph-name="Adieresis" unicode="&#xc4;" horiz-adv-x="565" 
d="M91.5 8.5q-23.5 16.5 -39 45t-15.5 63.5q0 53 35 91t100 38q67 0 138.5 -53t170.5 -187l-14 79l-53 289l-60 331l-87 -163q-51 -95 -91 -183l-18 -36q-6 -11 -12 -11q-4 0 -6.5 2.5t-2.5 6.5t3 8q41 64 121 214l93 173h3l63 -340q30 -163 66 -328l7 -33q1 -3 1 -9
q0 -11 -8 -11q-7 0 -12 8q-90 122 -160.5 179t-141.5 57q-64 0 -96 -36.5t-32 -84.5q0 -73 78 -103q25 -9 25 -17q0 -6 -10 -6q-22 0 -45.5 16.5zM282 824q-7 7 -7 17t7 17t17 7t17 -7t7 -17t-7 -17t-17 -7t-17 7zM424 824q-7 7 -7 17t7 17t17 7t17 -7t7 -17t-7 -17t-17 -7
t-17 7z" />
    <glyph glyph-name="Aring" unicode="&#xc5;" horiz-adv-x="565" 
d="M91.5 8.5q-23.5 16.5 -39 45t-15.5 63.5q0 53 35 91t100 38q67 0 138.5 -53t170.5 -187l-14 79l-53 289l-60 331l-87 -163q-51 -95 -91 -183l-18 -36q-6 -11 -12 -11q-4 0 -6.5 2.5t-2.5 6.5t3 8q41 64 121 214l93 173h3l63 -340q30 -163 66 -328l7 -33q1 -3 1 -9
q0 -11 -8 -11q-7 0 -12 8q-90 122 -160.5 179t-141.5 57q-64 0 -96 -36.5t-32 -84.5q0 -73 78 -103q25 -9 25 -17q0 -6 -10 -6q-22 0 -45.5 16.5zM334 807q-14 14 -14 34t14 34t34 14t34 -14t14 -34t-14 -34t-34 -14t-34 14zM338.5 812q11.5 -12 29.5 -12t30 12t12 29
q0 18 -12 30t-30 12t-29.5 -12t-11.5 -30q0 -17 11.5 -29z" />
    <glyph glyph-name="AE" unicode="&#xc6;" horiz-adv-x="935" 
d="M526.5 -10q-61.5 26 -99.5 62.5t-82 93.5q-37 -55 -61 -84.5t-55 -49.5t-69 -20q-53 0 -87.5 37.5t-34.5 93.5q0 41 19 74t52 51.5t73 18.5q49 0 84 -27.5t79 -83.5q31 45 58.5 78.5t60.5 61.5l-14 78l-60 331l-86 -158q-63 -116 -94 -186l-16 -32q-6 -11 -13 -11
q-8 0 -8 9q0 5 3 9q26 39 122 212l92 168h4l63 -340l14 -74q26 21 54 35l35 355q1 6 2.5 8t6.5 2t16 -1t26 -1h47l149 1q22 1 51 1q19 0 19 -10q0 -9 -17 -9q-13 0 -43 3q-104 8 -160 8h-90l-36 -353q78 39 175 39q56 0 114 -10q8 -2 11 -4t3 -6q0 -7 -7 -7q-2 0 -10 2
q-30 8 -57 12.5t-64 4.5q-91 0 -165 -38l-23 -223l25 -116q57 -23 133 -23q65 0 107.5 14t78.5 34q7 4 12 4q7 0 7 -7q0 -9 -14 -17q-25 -14 -74 -25t-107 -11q-88 0 -149.5 26zM75.5 35q31.5 -37 84.5 -37q37 0 67 20t53.5 49t60.5 84q-30 38 -50.5 60t-47.5 36t-61 14
q-58 0 -98 -38.5t-40 -98.5q0 -52 31.5 -89zM430 59q37 -36 89 -59l-53 289q-32 -27 -58 -58.5t-59 -79.5q44 -56 81 -92zM504 132l20 198q-25 -13 -52 -35z" />
    <glyph glyph-name="Ccedilla" unicode="&#xc7;" horiz-adv-x="470" 
d="M102.5 54q-41.5 70 -41.5 205q0 116 31.5 220t100 170.5t175.5 66.5q32 0 53 -5t21 -16q0 -8 -12 -8q-4 0 -22 4q-4 1 -22 4.5t-45 3.5q-92 0 -153.5 -63t-91 -163.5t-29.5 -214.5q0 -268 158 -268q62 0 101 40.5t74 102.5q9 16 17 28t13 12q6 0 6 -7q0 -17 -31 -63
t-79 -82.5t-102 -36.5q-80 0 -121.5 70zM128 -205.5q-33 10.5 -33 22.5q0 6 9 6q8 0 22 -8q21 -10 44 -16.5t56 -6.5q50 0 71.5 16t21.5 38q0 62 -167 62l75 76h7l-70 -71q161 0 161 -67q0 -25 -26 -43.5t-87 -18.5q-51 0 -84 10.5z" />
    <glyph glyph-name="Egrave" unicode="&#xc8;" horiz-adv-x="430" 
d="M147 -16q-35 8 -61.5 12t-57.5 4q-11 0 -22 -2t-18 -2q-14 0 -14 9t14 9q31 0 40.5 12t13.5 50l28 269q2 27 24 32q-8 1 -12.5 8.5t-3.5 23.5l29 283q1 6 2.5 8t6.5 2t16 -1t26 -1h46l149 1q22 1 51 1q20 0 20 -10q0 -9 -17 -9q-14 0 -46 3q-104 8 -157 8h-91l-28 -284
q-1 -16 5 -23t21 -7h60q42 0 122 4l67 2q11 0 14.5 -2t3.5 -7q0 -9 -19 -9l-67 2q-120 3 -122 3h-60q-15 0 -23.5 -7t-9.5 -23l-29 -270q-3 -33 -11 -47t-30 -19h13q33 0 59 -4t73 -14q24 -5 48.5 -9.5t43.5 -4.5q42 0 59 8t30 23q6 8 15 15q5 3 9 3q9 0 9 -7
q0 -8 -13.5 -19.5t-39 -20t-60.5 -8.5q-42 0 -106 15zM176 903q0 3 2.5 5.5t6.5 2.5q6 0 11 -4l187 -130l-1 -3l-197 117q-9 6 -9 12z" />
    <glyph glyph-name="Eacute" unicode="&#xc9;" horiz-adv-x="430" 
d="M147 -16q-35 8 -61.5 12t-57.5 4q-11 0 -22 -2t-18 -2q-14 0 -14 9t14 9q31 0 40.5 12t13.5 50l28 269q2 27 24 32q-8 1 -12.5 8.5t-3.5 23.5l29 283q1 6 2.5 8t6.5 2t16 -1t26 -1h46l149 1q22 1 51 1q20 0 20 -10q0 -9 -17 -9q-14 0 -46 3q-104 8 -157 8h-91l-28 -284
q-1 -16 5 -23t21 -7h60q42 0 122 4l67 2q11 0 14.5 -2t3.5 -7q0 -9 -19 -9l-67 2q-120 3 -122 3h-60q-15 0 -23.5 -7t-9.5 -23l-29 -270q-3 -33 -11 -47t-30 -19h13q33 0 59 -4t73 -14q24 -5 48.5 -9.5t43.5 -4.5q42 0 59 8t30 23q6 8 15 15q5 3 9 3q9 0 9 -7
q0 -8 -13.5 -19.5t-39 -20t-60.5 -8.5q-42 0 -106 15zM168 777l189 130q5 4 11 4q9 0 9 -8q0 -6 -10 -12l-197 -117z" />
    <glyph glyph-name="Ecircumflex" unicode="&#xca;" horiz-adv-x="430" 
d="M147 -16q-35 8 -61.5 12t-57.5 4q-11 0 -22 -2t-18 -2q-14 0 -14 9t14 9q31 0 40.5 12t13.5 50l28 269q2 27 24 32q-8 1 -12.5 8.5t-3.5 23.5l29 283q1 6 2.5 8t6.5 2t16 -1t26 -1h46l149 1q22 1 51 1q20 0 20 -10q0 -9 -17 -9q-14 0 -46 3q-104 8 -157 8h-91l-28 -284
q-1 -16 5 -23t21 -7h60q42 0 122 4l67 2q11 0 14.5 -2t3.5 -7q0 -9 -19 -9l-67 2q-120 3 -122 3h-60q-15 0 -23.5 -7t-9.5 -23l-29 -270q-3 -33 -11 -47t-30 -19h13q33 0 59 -4t73 -14q24 -5 48.5 -9.5t43.5 -4.5q42 0 59 8t30 23q6 8 15 15q5 3 9 3q9 0 9 -7
q0 -8 -13.5 -19.5t-39 -20t-60.5 -8.5q-42 0 -106 15zM121 772q0 5 4 9l28 23q71 59 129 111l110 -128l17 -19l-8 -6l-26 32l-93 113q-45 -40 -106 -104q-20 -22 -30 -31t-16 -9q-9 0 -9 9z" />
    <glyph glyph-name="Edieresis" unicode="&#xcb;" horiz-adv-x="430" 
d="M147 -16q-35 8 -61.5 12t-57.5 4q-11 0 -22 -2t-18 -2q-14 0 -14 9t14 9q31 0 40.5 12t13.5 50l28 269q2 27 24 32q-8 1 -12.5 8.5t-3.5 23.5l29 283q1 6 2.5 8t6.5 2t16 -1t26 -1h46l149 1q22 1 51 1q20 0 20 -10q0 -9 -17 -9q-14 0 -46 3q-104 8 -157 8h-91l-28 -284
q-1 -16 5 -23t21 -7h60q42 0 122 4l67 2q11 0 14.5 -2t3.5 -7q0 -9 -19 -9l-67 2q-120 3 -122 3h-60q-15 0 -23.5 -7t-9.5 -23l-29 -270q-3 -33 -11 -47t-30 -19h13q33 0 59 -4t73 -14q24 -5 48.5 -9.5t43.5 -4.5q42 0 59 8t30 23q6 8 15 15q5 3 9 3q9 0 9 -7
q0 -8 -13.5 -19.5t-39 -20t-60.5 -8.5q-42 0 -106 15zM187 824q-7 7 -7 17t7 17t17 7t17 -7t7 -17t-7 -17t-17 -7t-17 7zM329 824q-7 7 -7 17t7 17t17 7t17 -7t7 -17t-7 -17t-17 -7t-17 7z" />
    <glyph glyph-name="Igrave" unicode="&#xcc;" horiz-adv-x="275" 
d="M4 5q0 9 16 9q6 0 17.5 -2.5t24.5 -2.5q29 0 39.5 14t14.5 53l58 551q3 30 10.5 45.5t22.5 20.5h-25q-36 0 -57.5 -2.5t-29.5 -2.5q-18 0 -18 7q0 8 21 8q8 0 28.5 -1.5t56.5 -1.5h14q40 0 57 2t23 2q14 0 14 -8q0 -9 -16 -9q-5 0 -17 2.5t-25 2.5q-29 0 -39 -14.5
t-14 -53.5l-58 -551q-3 -30 -10.5 -45.5t-22.5 -19.5h25q36 0 57.5 2.5t29.5 2.5q18 0 18 -8t-20 -8q-8 0 -29 1.5t-57 1.5h-14q-40 0 -57 -2t-24 -2q-14 0 -14 9zM114 903q0 3 2.5 5.5t6.5 2.5q6 0 11 -4l187 -130l-1 -3l-197 117q-9 6 -9 12z" />
    <glyph glyph-name="Iacute" unicode="&#xcd;" horiz-adv-x="275" 
d="M4 5q0 9 16 9q6 0 17.5 -2.5t24.5 -2.5q29 0 39.5 14t14.5 53l58 551q3 30 10.5 45.5t22.5 20.5h-25q-36 0 -57.5 -2.5t-29.5 -2.5q-18 0 -18 7q0 8 21 8q8 0 28.5 -1.5t56.5 -1.5h14q40 0 57 2t23 2q14 0 14 -8q0 -9 -16 -9q-5 0 -17 2.5t-25 2.5q-29 0 -39 -14.5
t-14 -53.5l-58 -551q-3 -30 -10.5 -45.5t-22.5 -19.5h25q36 0 57.5 2.5t29.5 2.5q18 0 18 -8t-20 -8q-8 0 -29 1.5t-57 1.5h-14q-40 0 -57 -2t-24 -2q-14 0 -14 9zM106 777l189 130q5 4 11 4q9 0 9 -8q0 -6 -10 -12l-197 -117z" />
    <glyph glyph-name="Icircumflex" unicode="&#xce;" horiz-adv-x="275" 
d="M4 5q0 9 16 9q6 0 17.5 -2.5t24.5 -2.5q29 0 39.5 14t14.5 53l58 551q3 30 10.5 45.5t22.5 20.5h-25q-36 0 -57.5 -2.5t-29.5 -2.5q-18 0 -18 7q0 8 21 8q8 0 28.5 -1.5t56.5 -1.5h14q40 0 57 2t23 2q14 0 14 -8q0 -9 -16 -9q-5 0 -17 2.5t-25 2.5q-29 0 -39 -14.5
t-14 -53.5l-58 -551q-3 -30 -10.5 -45.5t-22.5 -19.5h25q36 0 57.5 2.5t29.5 2.5q18 0 18 -8t-20 -8q-8 0 -29 1.5t-57 1.5h-14q-40 0 -57 -2t-24 -2q-14 0 -14 9zM58 772q0 5 4 9l28 23q71 59 129 111l110 -128l17 -19l-8 -6l-26 32l-93 113q-45 -40 -106 -104
q-20 -22 -30 -31t-16 -9q-9 0 -9 9z" />
    <glyph glyph-name="Idieresis" unicode="&#xcf;" horiz-adv-x="275" 
d="M4 5q0 9 16 9q6 0 17.5 -2.5t24.5 -2.5q29 0 39.5 14t14.5 53l58 551q3 30 10.5 45.5t22.5 20.5h-25q-36 0 -57.5 -2.5t-29.5 -2.5q-18 0 -18 7q0 8 21 8q8 0 28.5 -1.5t56.5 -1.5h14q40 0 57 2t23 2q14 0 14 -8q0 -9 -16 -9q-5 0 -17 2.5t-25 2.5q-29 0 -39 -14.5
t-14 -53.5l-58 -551q-3 -30 -10.5 -45.5t-22.5 -19.5h25q36 0 57.5 2.5t29.5 2.5q18 0 18 -8t-20 -8q-8 0 -29 1.5t-57 1.5h-14q-40 0 -57 -2t-24 -2q-14 0 -14 9zM125 824q-7 7 -7 17t7 17t17 7t17 -7t7 -17t-7 -17t-17 -7t-17 7zM267 824q-7 7 -7 17t7 17t17 7t17 -7
t7 -17t-7 -17t-17 -7t-17 7z" />
    <glyph glyph-name="Eth" unicode="&#xd0;" horiz-adv-x="505" 
d="M266 277q-159 3 -157 3h-29l-2 -45q0 -15 -11 -15q-10 0 -9 15l6 45h-10q-12 0 -32 -2l-28 -1q-6 0 -6 7q0 6 6 6l28 -1q20 -2 32 -2h11q12 84 22 188l21 217q1 6 2.5 8t6.5 2t16 -1t26 -1h95q88 0 135 -34.5t63.5 -93t16.5 -144.5q0 -120 -27.5 -220.5t-86 -162
t-147.5 -61.5q-63 0 -106.5 29.5t-64.5 71t-21 75.5q0 14 8 14q7 0 10 -13q13 -76 53 -123.5t122 -47.5q87 0 144 61.5t83.5 160.5t26.5 216q0 84 -15.5 141t-62 91t-132.5 34h-138l-21 -219q-10 -98 -14 -188h29q51 0 157 4l78 2q19 0 19 -9t-19 -9z" />
    <glyph glyph-name="Ntilde" unicode="&#xd1;" horiz-adv-x="520" 
d="M35 8q0 -2 9 77q20 146 32 270l35 340q1 10 5 10t6 -5l301 -693l36 338q14 140 23 284l5 60q1 9 3.5 12.5t7.5 3.5q9 0 8 -16l-10 -86q-17 -127 -31 -258l-34 -339q-1 -11 -6 -11q-4 0 -6 6l-301 693l-35 -339q-14 -135 -21 -236t-7 -108q-1 -16 -11 -16q-9 0 -9 13z
M346.5 803.5q-10.5 8.5 -25.5 26.5q-13 17 -23 25t-25 8q-18 0 -28.5 -10.5t-20.5 -28.5q-8 -17 -14 -17q-2 0 -3.5 2t-1.5 5q0 10 8.5 23.5t23 23t33.5 9.5q17 0 28.5 -9t24.5 -26t22.5 -24.5t24.5 -7.5q19 0 29.5 10.5t20.5 28.5q1 2 5 9t8 7q6 0 6 -7q0 -8 -8.5 -22
t-23.5 -24t-33 -10q-17 0 -27.5 8.5z" />
    <glyph glyph-name="Ograve" unicode="&#xd2;" horiz-adv-x="549" 
d="M107 56.5q-47 72.5 -47 201.5q0 108 32.5 214.5t94.5 175t145 68.5q84 0 131 -72.5t47 -201.5q0 -108 -32.5 -214.5t-94.5 -175t-145 -68.5q-84 0 -131 72.5zM112 61.5q45 -71.5 126 -71.5q80 0 140.5 66.5t93 171.5t32.5 214q0 125 -45.5 196.5t-126.5 71.5
q-80 0 -140.5 -66.5t-92.5 -171t-32 -214.5q0 -125 45 -196.5zM243 903q0 3 2.5 5.5t6.5 2.5q6 0 11 -4l187 -130l-1 -3l-197 117q-9 6 -9 12z" />
    <glyph glyph-name="Oacute" unicode="&#xd3;" horiz-adv-x="549" 
d="M107 56.5q-47 72.5 -47 201.5q0 108 32.5 214.5t94.5 175t145 68.5q84 0 131 -72.5t47 -201.5q0 -108 -32.5 -214.5t-94.5 -175t-145 -68.5q-84 0 -131 72.5zM112 61.5q45 -71.5 126 -71.5q80 0 140.5 66.5t93 171.5t32.5 214q0 125 -45.5 196.5t-126.5 71.5
q-80 0 -140.5 -66.5t-92.5 -171t-32 -214.5q0 -125 45 -196.5zM235 777l189 130q5 4 11 4q9 0 9 -8q0 -6 -10 -12l-197 -117z" />
    <glyph glyph-name="Ocircumflex" unicode="&#xd4;" horiz-adv-x="549" 
d="M107 56.5q-47 72.5 -47 201.5q0 108 32.5 214.5t94.5 175t145 68.5q84 0 131 -72.5t47 -201.5q0 -108 -32.5 -214.5t-94.5 -175t-145 -68.5q-84 0 -131 72.5zM112 61.5q45 -71.5 126 -71.5q80 0 140.5 66.5t93 171.5t32.5 214q0 125 -45.5 196.5t-126.5 71.5
q-80 0 -140.5 -66.5t-92.5 -171t-32 -214.5q0 -125 45 -196.5zM188 772q0 5 4 9l28 23q71 59 129 111l110 -128l17 -19l-8 -6l-26 32l-93 113q-45 -40 -106 -104q-20 -22 -30 -31t-16 -9q-9 0 -9 9z" />
    <glyph glyph-name="Otilde" unicode="&#xd5;" horiz-adv-x="549" 
d="M107 56.5q-47 72.5 -47 201.5q0 108 32.5 214.5t94.5 175t145 68.5q84 0 131 -72.5t47 -201.5q0 -108 -32.5 -214.5t-94.5 -175t-145 -68.5q-84 0 -131 72.5zM112 61.5q45 -71.5 126 -71.5q80 0 140.5 66.5t93 171.5t32.5 214q0 125 -45.5 196.5t-126.5 71.5
q-80 0 -140.5 -66.5t-92.5 -171t-32 -214.5q0 -125 45 -196.5zM364.5 803.5q-10.5 8.5 -25.5 26.5q-13 17 -23 25t-25 8q-18 0 -28.5 -10.5t-20.5 -28.5q-8 -17 -14 -17q-2 0 -3.5 2t-1.5 5q0 10 8.5 23.5t23 23t33.5 9.5q17 0 28.5 -9t24.5 -26t22.5 -24.5t24.5 -7.5
q19 0 29.5 10.5t20.5 28.5q1 2 5 9t8 7q6 0 6 -7q0 -8 -8.5 -22t-23.5 -24t-33 -10q-17 0 -27.5 8.5z" />
    <glyph glyph-name="Odieresis" unicode="&#xd6;" horiz-adv-x="549" 
d="M107 56.5q-47 72.5 -47 201.5q0 108 32.5 214.5t94.5 175t145 68.5q84 0 131 -72.5t47 -201.5q0 -108 -32.5 -214.5t-94.5 -175t-145 -68.5q-84 0 -131 72.5zM112 61.5q45 -71.5 126 -71.5q80 0 140.5 66.5t93 171.5t32.5 214q0 125 -45.5 196.5t-126.5 71.5
q-80 0 -140.5 -66.5t-92.5 -171t-32 -214.5q0 -125 45 -196.5zM254 824q-7 7 -7 17t7 17t17 7t17 -7t7 -17t-7 -17t-17 -7t-17 7zM396 824q-7 7 -7 17t7 17t17 7t17 -7t7 -17t-7 -17t-17 -7t-17 7z" />
    <glyph glyph-name="multiply" unicode="&#xd7;" horiz-adv-x="511" 
d="M15 52l238 222l-192 220l6 5l192 -221l237 221l5 -6l-238 -221l192 -220l-6 -5l-192 221l-237 -221z" />
    <glyph glyph-name="Oslash" unicode="&#xd8;" horiz-adv-x="549" 
d="M156 -74q-1 2 0 6l20 64q-56 24 -86 92t-30 170q0 108 32.5 214.5t94.5 175t145 68.5q26 0 50 -8l16 55q4 13 10 13q5 0 6.5 -4.5t-0.5 -11.5l-18 -57q55 -25 84.5 -92.5t29.5 -168.5q0 -108 -32.5 -214.5t-94.5 -175t-145 -68.5q-29 0 -55 9l-18 -62q-2 -7 -6 -7
q-2 0 -3 2zM95.5 92.5q28.5 -66.5 82.5 -90.5l84 282l38 132q29 99 81 286q-24 8 -49 8q-80 0 -140.5 -66.5t-92.5 -171t-32 -214.5q0 -99 28.5 -165.5zM238 -10q80 0 140.5 66.5t93 171.5t32.5 214q0 99 -28.5 165t-81.5 90l-14 -45q-45 -138 -74 -236l-38 -132l-83 -285
q24 -9 53 -9z" />
    <glyph glyph-name="Ugrave" unicode="&#xd9;" horiz-adv-x="570" 
d="M65 207q0 29 5 74l17 156q13 108 18 225l1 27q1 16 11 16q9 0 9 -13q0 -5 -9 -75q-19 -140 -23 -180l-18 -156q-4 -35 -4 -73q0 -109 46 -163.5t140 -54.5q113 0 170 71.5t73 219.5l17 156q12 104 16 207l3 45q1 9 3.5 12.5t7.5 3.5q8 0 8 -12q0 -15 -9 -71
q-17 -128 -23 -185l-17 -156q-16 -150 -75 -223.5t-175 -73.5q-192 0 -192 223zM249 903q0 3 2.5 5.5t6.5 2.5q6 0 11 -4l187 -130l-1 -3l-197 117q-9 6 -9 12z" />
    <glyph glyph-name="Uacute" unicode="&#xda;" horiz-adv-x="570" 
d="M65 207q0 29 5 74l17 156q13 108 18 225l1 27q1 16 11 16q9 0 9 -13q0 -5 -9 -75q-19 -140 -23 -180l-18 -156q-4 -35 -4 -73q0 -109 46 -163.5t140 -54.5q113 0 170 71.5t73 219.5l17 156q12 104 16 207l3 45q1 9 3.5 12.5t7.5 3.5q8 0 8 -12q0 -15 -9 -71
q-17 -128 -23 -185l-17 -156q-16 -150 -75 -223.5t-175 -73.5q-192 0 -192 223zM241 777l189 130q5 4 11 4q9 0 9 -8q0 -6 -10 -12l-197 -117z" />
    <glyph glyph-name="Ucircumflex" unicode="&#xdb;" horiz-adv-x="570" 
d="M65 207q0 29 5 74l17 156q13 108 18 225l1 27q1 16 11 16q9 0 9 -13q0 -5 -9 -75q-19 -140 -23 -180l-18 -156q-4 -35 -4 -73q0 -109 46 -163.5t140 -54.5q113 0 170 71.5t73 219.5l17 156q12 104 16 207l3 45q1 9 3.5 12.5t7.5 3.5q8 0 8 -12q0 -15 -9 -71
q-17 -128 -23 -185l-17 -156q-16 -150 -75 -223.5t-175 -73.5q-192 0 -192 223zM194 772q0 5 4 9l28 23q71 59 129 111l110 -128l17 -19l-8 -6l-26 32l-93 113q-45 -40 -106 -104q-20 -22 -30 -31t-16 -9q-9 0 -9 9z" />
    <glyph glyph-name="Udieresis" unicode="&#xdc;" horiz-adv-x="570" 
d="M65 207q0 29 5 74l17 156q13 108 18 225l1 27q1 16 11 16q9 0 9 -13q0 -5 -9 -75q-19 -140 -23 -180l-18 -156q-4 -35 -4 -73q0 -109 46 -163.5t140 -54.5q113 0 170 71.5t73 219.5l17 156q12 104 16 207l3 45q1 9 3.5 12.5t7.5 3.5q8 0 8 -12q0 -15 -9 -71
q-17 -128 -23 -185l-17 -156q-16 -150 -75 -223.5t-175 -73.5q-192 0 -192 223zM260 824q-7 7 -7 17t7 17t17 7t17 -7t7 -17t-7 -17t-17 -7t-17 7zM402 824q-7 7 -7 17t7 17t17 7t17 -7t7 -17t-7 -17t-17 -7t-17 7z" />
    <glyph glyph-name="Yacute" unicode="&#xdd;" horiz-adv-x="525" 
d="M122.5 -192q-54.5 22 -54.5 75q0 38 36 100t102 153l-49 256q-22 116 -52 246l-12 52l-1 6q0 12 11 12q10 0 12 -17q1 -8 13 -91.5t36 -205.5l48 -250l65 87q116 153 176 248t60 156q0 35 -29.5 49t-91.5 14q-45 0 -87 -7l-22 -2q-11 0 -11 7q0 10 26.5 15t70.5 5
q72 0 111.5 -18t39.5 -63q0 -44 -32.5 -108t-80 -131t-124.5 -169q-104 -138 -155.5 -218t-51.5 -128q0 -45 43.5 -60t112.5 -15q59 0 102 9q10 1 16.5 1.5t8.5 -1.5q1 -1 1 -3q0 -8 -8 -11q-12 -5 -37.5 -10t-65.5 -5q-72 0 -126.5 22zM221 777l189 130q5 4 11 4q9 0 9 -8
q0 -6 -10 -12l-197 -117z" />
    <glyph glyph-name="Thorn" unicode="&#xde;" horiz-adv-x="545" 
d="M4 5q0 9 16 9q6 0 17.5 -2.5t24.5 -2.5q29 0 39.5 14t14.5 53l58 551q3 30 10.5 45.5t22.5 20.5h-25q-36 0 -57.5 -2.5t-29.5 -2.5q-18 0 -18 7q0 8 21 8q8 0 28.5 -1.5t56.5 -1.5h14q40 0 57 2t23 2q14 0 14 -8q0 -9 -16 -9q-5 0 -17 2.5t-25 2.5q-29 0 -39 -14.5
t-14 -53.5l-8 -75h159q83 0 129 -45t46 -132q0 -100 -60 -157.5t-173 -57.5q-35 0 -64 4t-29 15q0 8 13 8q6 0 13 -1t15 -2q40 -8 80 -8q92 0 145.5 51t53.5 148q0 86 -44.5 128.5t-125.5 42.5h-159l-49 -470q-3 -30 -10.5 -45.5t-22.5 -19.5h25q36 0 57.5 2.5t29.5 2.5
q18 0 18 -8t-20 -8q-8 0 -29 1.5t-57 1.5h-14q-40 0 -57 -2t-24 -2q-14 0 -14 9z" />
    <glyph glyph-name="germandbls" unicode="&#xdf;" horiz-adv-x="410" 
d="M86.5 -195.5q-36.5 20.5 -54 50t-17.5 57.5q0 7 3.5 11.5t8.5 4.5q4 0 7 -4t3 -11q0 -27 14 -55.5t45.5 -48t81.5 -19.5q62 0 101 35.5t39 93.5q0 33 -12.5 57t-30 38.5t-45.5 32.5q-28 17 -41 30t-13 30q0 14 12 27l95 114h-204q-11 0 -15 4l-9 -77q-11 -101 -11 -167
q0 -5 -3 -9t-7 -4q-9 0 -9 11t6 41q2 12 8 48.5t10 79.5q25 233 49 357.5t48 169t54 44.5q41 0 41 -64q0 -67 -36 -149t-95 -187q-17 -30 -29.5 -54.5t-12.5 -31.5q0 -5 18 -5h211l-102 -123q-8 -8 -10.5 -13t-2.5 -12q0 -15 12 -26t38 -28q29 -18 47 -33.5t31.5 -40.5
t13.5 -60q0 -60 -41 -97.5t-107 -37.5q-53 0 -89.5 20.5zM86 313.5q14 24.5 19 33.5q59 107 94.5 187t35.5 147q0 59 -35 59q-25 0 -46 -36.5t-43 -138.5t-45 -290q6 14 20 38.5z" />
    <glyph glyph-name="agrave" unicode="&#xe0;" horiz-adv-x="400" 
d="M42 144q0 85 25.5 170.5t80.5 143.5t138 58q16 0 66 -4l-46 -425q-3 -27 -3 -43q0 -22 9 -27.5t36 -5.5q12 0 16.5 -1.5t4.5 -5.5q0 -10 -23 -10q-26 0 -38 10t-12 44q0 21 2 34l22 180q-25 -122 -70 -200t-115 -78q-93 0 -93 160zM71 27q22 -37 65 -37q58 0 99 60.5
t63 141t30 150.5l16 154q-46 6 -78 6q-71 0 -120 -55t-73 -138t-24 -165q0 -80 22 -117zM165 703q0 3 2.5 5.5t6.5 2.5q6 0 11 -4l187 -130l-1 -3l-197 117q-9 6 -9 12z" />
    <glyph glyph-name="aacute" unicode="&#xe1;" horiz-adv-x="400" 
d="M42 144q0 85 25.5 170.5t80.5 143.5t138 58q16 0 66 -4l-46 -425q-3 -27 -3 -43q0 -22 9 -27.5t36 -5.5q12 0 16.5 -1.5t4.5 -5.5q0 -10 -23 -10q-26 0 -38 10t-12 44q0 21 2 34l22 180q-25 -122 -70 -200t-115 -78q-93 0 -93 160zM71 27q22 -37 65 -37q58 0 99 60.5
t63 141t30 150.5l16 154q-46 6 -78 6q-71 0 -120 -55t-73 -138t-24 -165q0 -80 22 -117zM157 577l189 130q5 4 11 4q9 0 9 -8q0 -6 -10 -12l-197 -117z" />
    <glyph glyph-name="acircumflex" unicode="&#xe2;" horiz-adv-x="400" 
d="M42 144q0 85 25.5 170.5t80.5 143.5t138 58q16 0 66 -4l-46 -425q-3 -27 -3 -43q0 -22 9 -27.5t36 -5.5q12 0 16.5 -1.5t4.5 -5.5q0 -10 -23 -10q-26 0 -38 10t-12 44q0 21 2 34l22 180q-25 -122 -70 -200t-115 -78q-93 0 -93 160zM71 27q22 -37 65 -37q58 0 99 60.5
t63 141t30 150.5l16 154q-46 6 -78 6q-71 0 -120 -55t-73 -138t-24 -165q0 -80 22 -117zM110 572q0 5 4 9l28 23q71 59 129 111l110 -128l17 -19l-8 -6l-26 32l-93 113q-45 -40 -106 -104q-20 -22 -30 -31t-16 -9q-9 0 -9 9z" />
    <glyph glyph-name="atilde" unicode="&#xe3;" horiz-adv-x="400" 
d="M42 144q0 85 25.5 170.5t80.5 143.5t138 58q16 0 66 -4l-46 -425q-3 -27 -3 -43q0 -22 9 -27.5t36 -5.5q12 0 16.5 -1.5t4.5 -5.5q0 -10 -23 -10q-26 0 -38 10t-12 44q0 21 2 34l22 180q-25 -122 -70 -200t-115 -78q-93 0 -93 160zM71 27q22 -37 65 -37q58 0 99 60.5
t63 141t30 150.5l16 154q-46 6 -78 6q-71 0 -120 -55t-73 -138t-24 -165q0 -80 22 -117zM286.5 603.5q-10.5 8.5 -25.5 26.5q-13 17 -23 25t-25 8q-18 0 -28.5 -10.5t-20.5 -28.5q-8 -17 -14 -17q-2 0 -3.5 2t-1.5 5q0 10 8.5 23.5t23 23t33.5 9.5q17 0 28.5 -9t24.5 -26
t22.5 -24.5t24.5 -7.5q19 0 29.5 10.5t20.5 28.5q1 2 5 9t8 7q6 0 6 -7q0 -8 -8.5 -22t-23.5 -24t-33 -10q-17 0 -27.5 8.5z" />
    <glyph glyph-name="adieresis" unicode="&#xe4;" horiz-adv-x="400" 
d="M42 144q0 85 25.5 170.5t80.5 143.5t138 58q16 0 66 -4l-46 -425q-3 -27 -3 -43q0 -22 9 -27.5t36 -5.5q12 0 16.5 -1.5t4.5 -5.5q0 -10 -23 -10q-26 0 -38 10t-12 44q0 21 2 34l22 180q-25 -122 -70 -200t-115 -78q-93 0 -93 160zM71 27q22 -37 65 -37q58 0 99 60.5
t63 141t30 150.5l16 154q-46 6 -78 6q-71 0 -120 -55t-73 -138t-24 -165q0 -80 22 -117zM176 624q-7 7 -7 17t7 17t17 7t17 -7t7 -17t-7 -17t-17 -7t-17 7zM318 624q-7 7 -7 17t7 17t17 7t17 -7t7 -17t-7 -17t-17 -7t-17 7z" />
    <glyph glyph-name="aring" unicode="&#xe5;" horiz-adv-x="400" 
d="M42 144q0 85 25.5 170.5t80.5 143.5t138 58q16 0 66 -4l-46 -425q-3 -27 -3 -43q0 -22 9 -27.5t36 -5.5q12 0 16.5 -1.5t4.5 -5.5q0 -10 -23 -10q-26 0 -38 10t-12 44q0 21 2 34l22 180q-25 -122 -70 -200t-115 -78q-93 0 -93 160zM71 27q22 -37 65 -37q58 0 99 60.5
t63 141t30 150.5l16 154q-46 6 -78 6q-71 0 -120 -55t-73 -138t-24 -165q0 -80 22 -117zM228 607q-14 14 -14 34t14 34t34 14t34 -14t14 -34t-14 -34t-34 -14t-34 14zM232.5 612q11.5 -12 29.5 -12t30 12t12 29q0 18 -12 30t-30 12t-29.5 -12t-11.5 -30q0 -17 11.5 -29z" />
    <glyph glyph-name="ae" unicode="&#xe6;" horiz-adv-x="760" 
d="M72.5 30q-27.5 46 -27.5 141q0 86 25 164.5t82 129.5t146 51q20 0 70 -4l-47 -425q-3 -24 -3 -40q0 -27 7 -36.5t21 -9.5q13 0 40.5 20t63.5 54q-14 45 -14 106q0 87 26.5 164t75 124t111.5 47q71 0 71 -69q0 -36 -40.5 -103t-102 -140.5t-120.5 -129.5q29 -84 111 -84
q41 0 67.5 26.5t52.5 71.5q10 18 16.5 26.5t11.5 8.5t5 -7q0 -12 -23 -45.5t-58 -60t-73 -26.5q-83 0 -115 85q-80 -75 -107 -75q-14 0 -23.5 10t-9.5 43q0 21 2 35l15 121q-24 -84 -69 -151.5t-112 -67.5q-48 0 -75.5 46zM78 34.5q26 -44.5 71 -44.5q57 0 98 54t62.5 117.5
t24.5 91.5l26 243q-46 6 -83 6q-77 0 -127.5 -48.5t-74 -124t-23.5 -158.5q0 -92 26 -136.5zM456 80q92 90 175 203t83 164q0 29 -13.5 46t-51.5 17q-61 0 -108 -45.5t-72.5 -121t-25.5 -162.5q0 -62 13 -101z" />
    <glyph glyph-name="ccedilla" unicode="&#xe7;" horiz-adv-x="363" 
d="M77 31.5q-32 47.5 -32 140.5q0 81 23.5 160t75.5 131.5t132 52.5q19 0 35.5 -3.5t16.5 -10.5q0 -9 -8 -9q-6 0 -24 4q-27 5 -43 5q-67 0 -112.5 -50t-67 -125.5t-21.5 -154.5q0 -182 118 -182q43 0 69.5 27.5t52.5 72.5q9 17 15 25t11 8q6 0 6 -7q0 -12 -23 -45.5
t-58 -60t-74 -26.5q-60 0 -92 47.5zM70 -205.5q-33 10.5 -33 22.5q0 6 9 6q8 0 22 -8q21 -10 44 -16.5t56 -6.5q50 0 71.5 16t21.5 38q0 62 -167 62l75 76h7l-70 -71q161 0 161 -67q0 -25 -26 -43.5t-87 -18.5q-51 0 -84 10.5z" />
    <glyph glyph-name="egrave" unicode="&#xe8;" horiz-adv-x="365" 
d="M78 33.5q-33 49.5 -33 143.5q0 87 27.5 165.5t74.5 126t102 47.5q61 0 61 -65q0 -51 -33 -116t-83.5 -122.5t-98.5 -86.5q-4 -2 -6.5 -1.5t-2.5 3.5t9 9q45 26 94 80.5t82 118.5t33 115q0 27 -12 43t-43 16q-52 0 -97.5 -46.5t-72.5 -123t-27 -163.5q0 -92 31 -139.5
t90 -47.5q42 0 69 27.5t51 71.5q2 4 8.5 14.5t11 15t8.5 4.5q5 0 5 -7q0 -12 -22.5 -45.5t-57.5 -60t-74 -26.5q-61 0 -94 49.5zM143 703q0 3 2.5 5.5t6.5 2.5q6 0 11 -4l187 -130l-1 -3l-197 117q-9 6 -9 12z" />
    <glyph glyph-name="eacute" unicode="&#xe9;" horiz-adv-x="365" 
d="M78 33.5q-33 49.5 -33 143.5q0 87 27.5 165.5t74.5 126t102 47.5q61 0 61 -65q0 -51 -33 -116t-83.5 -122.5t-98.5 -86.5q-4 -2 -6.5 -1.5t-2.5 3.5t9 9q45 26 94 80.5t82 118.5t33 115q0 27 -12 43t-43 16q-52 0 -97.5 -46.5t-72.5 -123t-27 -163.5q0 -92 31 -139.5
t90 -47.5q42 0 69 27.5t51 71.5q2 4 8.5 14.5t11 15t8.5 4.5q5 0 5 -7q0 -12 -22.5 -45.5t-57.5 -60t-74 -26.5q-61 0 -94 49.5zM136 577l189 130q5 4 11 4q9 0 9 -8q0 -6 -10 -12l-197 -117z" />
    <glyph glyph-name="ecircumflex" unicode="&#xea;" horiz-adv-x="365" 
d="M78 33.5q-33 49.5 -33 143.5q0 87 27.5 165.5t74.5 126t102 47.5q61 0 61 -65q0 -51 -33 -116t-83.5 -122.5t-98.5 -86.5q-4 -2 -6.5 -1.5t-2.5 3.5t9 9q45 26 94 80.5t82 118.5t33 115q0 27 -12 43t-43 16q-52 0 -97.5 -46.5t-72.5 -123t-27 -163.5q0 -92 31 -139.5
t90 -47.5q42 0 69 27.5t51 71.5q2 4 8.5 14.5t11 15t8.5 4.5q5 0 5 -7q0 -12 -22.5 -45.5t-57.5 -60t-74 -26.5q-61 0 -94 49.5zM88 572q0 5 4 9l28 23q71 59 129 111l110 -128l17 -19l-8 -6l-26 32l-93 113q-45 -40 -106 -104q-20 -22 -30 -31t-16 -9q-9 0 -9 9z" />
    <glyph glyph-name="edieresis" unicode="&#xeb;" horiz-adv-x="365" 
d="M78 33.5q-33 49.5 -33 143.5q0 87 27.5 165.5t74.5 126t102 47.5q61 0 61 -65q0 -51 -33 -116t-83.5 -122.5t-98.5 -86.5q-4 -2 -6.5 -1.5t-2.5 3.5t9 9q45 26 94 80.5t82 118.5t33 115q0 27 -12 43t-43 16q-52 0 -97.5 -46.5t-72.5 -123t-27 -163.5q0 -92 31 -139.5
t90 -47.5q42 0 69 27.5t51 71.5q2 4 8.5 14.5t11 15t8.5 4.5q5 0 5 -7q0 -12 -22.5 -45.5t-57.5 -60t-74 -26.5q-61 0 -94 49.5zM155 624q-7 7 -7 17t7 17t17 7t17 -7t7 -17t-7 -17t-17 -7t-17 7zM297 624q-7 7 -7 17t7 17t17 7t17 -7t7 -17t-7 -17t-17 -7t-17 7z" />
    <glyph glyph-name="igrave" unicode="&#xec;" horiz-adv-x="151" 
d="M71.5 -2.5q-8.5 2.5 -14 13.5t-5.5 35q0 6 2 34l37 333q3 29 3 44q0 21 -8 26.5t-34 5.5q-13 0 -17 1.5t-4 5.5q0 9 23 9q17 0 26 -2.5t14.5 -13.5t5.5 -35q0 -7 -2 -33l-38 -334q-3 -27 -3 -43q0 -21 8 -26.5t34 -5.5q12 0 16.5 -1.5t4.5 -5.5q0 -10 -23 -10
q-17 0 -25.5 2.5zM18 703q0 3 2.5 5.5t6.5 2.5q6 0 11 -4l187 -130l-1 -3l-197 117q-9 6 -9 12z" />
    <glyph glyph-name="iacute" unicode="&#xed;" horiz-adv-x="151" 
d="M71.5 -2.5q-8.5 2.5 -14 13.5t-5.5 35q0 6 2 34l37 333q3 29 3 44q0 21 -8 26.5t-34 5.5q-13 0 -17 1.5t-4 5.5q0 9 23 9q17 0 26 -2.5t14.5 -13.5t5.5 -35q0 -7 -2 -33l-38 -334q-3 -27 -3 -43q0 -21 8 -26.5t34 -5.5q12 0 16.5 -1.5t4.5 -5.5q0 -10 -23 -10
q-17 0 -25.5 2.5zM10 577l189 130q5 4 11 4q9 0 9 -8q0 -6 -10 -12l-197 -117z" />
    <glyph glyph-name="icircumflex" unicode="&#xee;" horiz-adv-x="151" 
d="M71.5 -2.5q-8.5 2.5 -14 13.5t-5.5 35q0 6 2 34l37 333q3 29 3 44q0 21 -8 26.5t-34 5.5q-13 0 -17 1.5t-4 5.5q0 9 23 9q17 0 26 -2.5t14.5 -13.5t5.5 -35q0 -7 -2 -33l-38 -334q-3 -27 -3 -43q0 -21 8 -26.5t34 -5.5q12 0 16.5 -1.5t4.5 -5.5q0 -10 -23 -10
q-17 0 -25.5 2.5zM-37 572q0 5 4 9l28 23q71 59 129 111l110 -128l17 -19l-8 -6l-26 32l-93 113q-45 -40 -106 -104q-20 -22 -30 -31t-16 -9q-9 0 -9 9z" />
    <glyph glyph-name="idieresis" unicode="&#xef;" horiz-adv-x="151" 
d="M71.5 -2.5q-8.5 2.5 -14 13.5t-5.5 35q0 6 2 34l37 333q3 29 3 44q0 21 -8 26.5t-34 5.5q-13 0 -17 1.5t-4 5.5q0 9 23 9q17 0 26 -2.5t14.5 -13.5t5.5 -35q0 -7 -2 -33l-38 -334q-3 -27 -3 -43q0 -21 8 -26.5t34 -5.5q12 0 16.5 -1.5t4.5 -5.5q0 -10 -23 -10
q-17 0 -25.5 2.5zM29 624q-7 7 -7 17t7 17t17 7t17 -7t7 -17t-7 -17t-17 -7t-17 7zM171 624q-7 7 -7 17t7 17t17 7t17 -7t7 -17t-7 -17t-17 -7t-17 7z" />
    <glyph glyph-name="eth" unicode="&#xf0;" horiz-adv-x="435" 
d="M74 30q-29 46 -29 141q0 86 25.5 164.5t83.5 129.5t149 51q13 0 43 -2l21 -1q7 56 5 103h-22q-25 0 -94 -3q-30 -2 -39 -2q-11 0 -15 2t-4 6q0 5 4 7t15 2q9 0 39 -2q46 -4 94 -4h22q-3 47 -20 70t-46 30t-81 7q-12 0 -15.5 1.5t-3.5 5.5q0 9 23 9q45 0 75 -8t50 -34.5
t24 -80.5h11q11 0 33 2l26 1q6 0 6 -6t-6 -6l-26 1q-22 2 -33 2h-10q2 -39 -4 -88l-50 -441q-3 -27 -3 -41q0 -23 9 -28.5t37 -5.5q12 0 16.5 -1.5t4.5 -5.5q0 -10 -23 -10q-26 0 -38 9t-12 42q0 21 2 34l14 120q-23 -82 -67.5 -149t-111.5 -67q-50 0 -79 46zM79 34.5
q27 -44.5 75 -44.5q57 0 98 55t62 118t24 87l27 245q-49 7 -83 7q-79 0 -130.5 -48t-75.5 -123.5t-24 -159.5q0 -92 27 -136.5z" />
    <glyph glyph-name="ntilde" unicode="&#xf1;" horiz-adv-x="433" 
d="M53 15q0 27 21 200l22 198q3 29 3 44q0 21 -8 26.5t-34 5.5q-13 0 -17 1.5t-4 5.5q0 9 23 9q25 0 35.5 -8t10.5 -41q0 -14 -3 -35l-6 -51q-18 -155 -27.5 -243t-9.5 -107q0 -15 5 -15t12 23.5t20 76.5q28 113 55 196t71 149t103 66q36 0 50.5 -24.5t14.5 -73.5
q0 -38 -6 -88l-13 -114q-9 -87 -15 -162l-3 -43q-2 -16 -11 -16q-10 0 -8 16q18 103 29 204l13 112q7 65 7 95q0 44 -13 65.5t-45 21.5q-69 0 -118.5 -94t-89.5 -249l-16 -66q-13 -57 -21 -81t-17 -24q-10 0 -10 20zM278.5 603.5q-10.5 8.5 -25.5 26.5q-13 17 -23 25t-25 8
q-18 0 -28.5 -10.5t-20.5 -28.5q-8 -17 -14 -17q-2 0 -3.5 2t-1.5 5q0 10 8.5 23.5t23 23t33.5 9.5q17 0 28.5 -9t24.5 -26t22.5 -24.5t24.5 -7.5q19 0 29.5 10.5t20.5 28.5q1 2 5 9t8 7q6 0 6 -7q0 -8 -8.5 -22t-23.5 -24t-33 -10q-17 0 -27.5 8.5z" />
    <glyph glyph-name="ograve" unicode="&#xf2;" horiz-adv-x="410" 
d="M78 36.5q-32 52.5 -32 146.5q0 79 22.5 156t66.5 127t104 50q61 0 93 -52t32 -146q0 -80 -22.5 -157t-66.5 -127t-104 -50q-61 0 -93 52.5zM83 41q30 -51 88 -51t100.5 48.5t64.5 124.5t22 155q0 91 -30.5 141.5t-88.5 50.5t-100 -48t-64 -123.5t-22 -155.5
q0 -91 30 -142zM152 703q0 3 2.5 5.5t6.5 2.5q6 0 11 -4l187 -130l-1 -3l-197 117q-9 6 -9 12z" />
    <glyph glyph-name="oacute" unicode="&#xf3;" horiz-adv-x="410" 
d="M78 36.5q-32 52.5 -32 146.5q0 79 22.5 156t66.5 127t104 50q61 0 93 -52t32 -146q0 -80 -22.5 -157t-66.5 -127t-104 -50q-61 0 -93 52.5zM83 41q30 -51 88 -51t100.5 48.5t64.5 124.5t22 155q0 91 -30.5 141.5t-88.5 50.5t-100 -48t-64 -123.5t-22 -155.5
q0 -91 30 -142zM144 577l189 130q5 4 11 4q9 0 9 -8q0 -6 -10 -12l-197 -117z" />
    <glyph glyph-name="ocircumflex" unicode="&#xf4;" horiz-adv-x="410" 
d="M78 36.5q-32 52.5 -32 146.5q0 79 22.5 156t66.5 127t104 50q61 0 93 -52t32 -146q0 -80 -22.5 -157t-66.5 -127t-104 -50q-61 0 -93 52.5zM83 41q30 -51 88 -51t100.5 48.5t64.5 124.5t22 155q0 91 -30.5 141.5t-88.5 50.5t-100 -48t-64 -123.5t-22 -155.5
q0 -91 30 -142zM96 572q0 5 4 9l28 23q71 59 129 111l110 -128l17 -19l-8 -6l-26 32l-93 113q-45 -40 -106 -104q-20 -22 -30 -31t-16 -9q-9 0 -9 9z" />
    <glyph glyph-name="otilde" unicode="&#xf5;" horiz-adv-x="410" 
d="M78 36.5q-32 52.5 -32 146.5q0 79 22.5 156t66.5 127t104 50q61 0 93 -52t32 -146q0 -80 -22.5 -157t-66.5 -127t-104 -50q-61 0 -93 52.5zM83 41q30 -51 88 -51t100.5 48.5t64.5 124.5t22 155q0 91 -30.5 141.5t-88.5 50.5t-100 -48t-64 -123.5t-22 -155.5
q0 -91 30 -142zM273.5 603.5q-10.5 8.5 -25.5 26.5q-13 17 -23 25t-25 8q-18 0 -28.5 -10.5t-20.5 -28.5q-8 -17 -14 -17q-2 0 -3.5 2t-1.5 5q0 10 8.5 23.5t23 23t33.5 9.5q17 0 28.5 -9t24.5 -26t22.5 -24.5t24.5 -7.5q19 0 29.5 10.5t20.5 28.5q1 2 5 9t8 7q6 0 6 -7
q0 -8 -8.5 -22t-23.5 -24t-33 -10q-17 0 -27.5 8.5z" />
    <glyph glyph-name="odieresis" unicode="&#xf6;" horiz-adv-x="410" 
d="M78 36.5q-32 52.5 -32 146.5q0 79 22.5 156t66.5 127t104 50q61 0 93 -52t32 -146q0 -80 -22.5 -157t-66.5 -127t-104 -50q-61 0 -93 52.5zM83 41q30 -51 88 -51t100.5 48.5t64.5 124.5t22 155q0 91 -30.5 141.5t-88.5 50.5t-100 -48t-64 -123.5t-22 -155.5
q0 -91 30 -142zM163 624q-7 7 -7 17t7 17t17 7t17 -7t7 -17t-7 -17t-17 -7t-17 7zM305 624q-7 7 -7 17t7 17t17 7t17 -7t7 -17t-7 -17t-17 -7t-17 7z" />
    <glyph glyph-name="divide" unicode="&#xf7;" horiz-adv-x="660" 
d="M331.5 445.5q-7.5 7.5 -7.5 18.5t7.5 18.5t18.5 7.5t19 -7.5t8 -18.5t-8 -18.5t-19 -7.5t-18.5 7.5zM38 276h589v-7h-589v7zM291.5 100.5q7.5 7.5 18.5 7.5t19 -7.5t8 -18.5t-8 -19t-19 -8t-18.5 8t-7.5 19t7.5 18.5z" />
    <glyph glyph-name="oslash" unicode="&#xf8;" horiz-adv-x="410" 
d="M107 -74q-1 2 0 6l19 61q-39 17 -59.5 66t-20.5 124q0 79 22.5 156t66.5 127t104 50q23 0 44 -8l14 47q3 12 10 12q4 0 5 -4t-1 -10q-2 -9 -16 -51q34 -21 51.5 -68.5t17.5 -115.5q0 -80 -22.5 -157t-66.5 -127t-104 -50q-19 0 -36 6l-17 -58q-3 -8 -8 -8q-2 0 -3 2z
M72 62.5q19 -47.5 56 -63.5l8 24q33 104 68 220q20 63 35.5 117t27.5 93l14 49q-21 8 -42 8q-58 0 -100 -48t-64 -123.5t-22 -155.5q0 -73 19 -120.5zM171 -10q58 0 100.5 48.5t64.5 124.5t22 155q0 67 -16.5 112.5t-48.5 65.5q-53 -155 -83 -253q-39 -126 -73 -248
q17 -5 34 -5z" />
    <glyph glyph-name="ugrave" unicode="&#xf9;" horiz-adv-x="433" 
d="M62.5 8.5q-14.5 24.5 -14.5 73.5q0 39 6 88l13 114q9 87 15 162l3 43q2 16 11 16q5 0 7.5 -4.5t0.5 -11.5q-18 -103 -29 -204l-13 -112q-7 -65 -7 -95q0 -44 13 -65.5t45 -21.5q70 0 119 94.5t89 249.5l16 66q15 61 22 82.5t16 21.5q10 0 10 -19q0 -28 -21 -201l-22 -198
q-3 -28 -3 -44q0 -21 8 -26t34 -5q12 0 16.5 -1.5t4.5 -5.5q0 -10 -23 -10q-25 0 -35.5 8t-10.5 41q0 15 3 36l5 43q18 158 28 248t10 110q0 15 -5 15t-12 -23.5t-20 -76.5q-28 -114 -55 -197t-71 -149t-103 -66q-36 0 -50.5 24.5zM164 703q0 3 2.5 5.5t6.5 2.5q6 0 11 -4
l187 -130l-1 -3l-197 117q-9 6 -9 12z" />
    <glyph glyph-name="uacute" unicode="&#xfa;" horiz-adv-x="433" 
d="M62.5 8.5q-14.5 24.5 -14.5 73.5q0 39 6 88l13 114q9 87 15 162l3 43q2 16 11 16q5 0 7.5 -4.5t0.5 -11.5q-18 -103 -29 -204l-13 -112q-7 -65 -7 -95q0 -44 13 -65.5t45 -21.5q70 0 119 94.5t89 249.5l16 66q15 61 22 82.5t16 21.5q10 0 10 -19q0 -28 -21 -201l-22 -198
q-3 -28 -3 -44q0 -21 8 -26t34 -5q12 0 16.5 -1.5t4.5 -5.5q0 -10 -23 -10q-25 0 -35.5 8t-10.5 41q0 15 3 36l5 43q18 158 28 248t10 110q0 15 -5 15t-12 -23.5t-20 -76.5q-28 -114 -55 -197t-71 -149t-103 -66q-36 0 -50.5 24.5zM157 577l189 130q5 4 11 4q9 0 9 -8
q0 -6 -10 -12l-197 -117z" />
    <glyph glyph-name="ucircumflex" unicode="&#xfb;" horiz-adv-x="433" 
d="M62.5 8.5q-14.5 24.5 -14.5 73.5q0 39 6 88l13 114q9 87 15 162l3 43q2 16 11 16q5 0 7.5 -4.5t0.5 -11.5q-18 -103 -29 -204l-13 -112q-7 -65 -7 -95q0 -44 13 -65.5t45 -21.5q70 0 119 94.5t89 249.5l16 66q15 61 22 82.5t16 21.5q10 0 10 -19q0 -28 -21 -201l-22 -198
q-3 -28 -3 -44q0 -21 8 -26t34 -5q12 0 16.5 -1.5t4.5 -5.5q0 -10 -23 -10q-25 0 -35.5 8t-10.5 41q0 15 3 36l5 43q18 158 28 248t10 110q0 15 -5 15t-12 -23.5t-20 -76.5q-28 -114 -55 -197t-71 -149t-103 -66q-36 0 -50.5 24.5zM109 572q0 5 4 9l28 23q71 59 129 111
l110 -128l17 -19l-8 -6l-26 32l-93 113q-45 -40 -106 -104q-20 -22 -30 -31t-16 -9q-9 0 -9 9z" />
    <glyph glyph-name="udieresis" unicode="&#xfc;" horiz-adv-x="433" 
d="M62.5 8.5q-14.5 24.5 -14.5 73.5q0 39 6 88l13 114q9 87 15 162l3 43q2 16 11 16q5 0 7.5 -4.5t0.5 -11.5q-18 -103 -29 -204l-13 -112q-7 -65 -7 -95q0 -44 13 -65.5t45 -21.5q70 0 119 94.5t89 249.5l16 66q15 61 22 82.5t16 21.5q10 0 10 -19q0 -28 -21 -201l-22 -198
q-3 -28 -3 -44q0 -21 8 -26t34 -5q12 0 16.5 -1.5t4.5 -5.5q0 -10 -23 -10q-25 0 -35.5 8t-10.5 41q0 15 3 36l5 43q18 158 28 248t10 110q0 15 -5 15t-12 -23.5t-20 -76.5q-28 -114 -55 -197t-71 -149t-103 -66q-36 0 -50.5 24.5zM176 624q-7 7 -7 17t7 17t17 7t17 -7
t7 -17t-7 -17t-17 -7t-17 7zM318 624q-7 7 -7 17t7 17t17 7t17 -7t7 -17t-7 -17t-17 -7t-17 7z" />
    <glyph glyph-name="yacute" unicode="&#xfd;" horiz-adv-x="403" 
d="M83.5 -193q-42.5 16 -42.5 54q0 28 22.5 70.5t63.5 101.5l-33 247q-7 57 -26 166l-7 47v3q0 9 9 9q8 0 9 -12l4 -40q1 -14 6 -66t12 -106l31 -242l70 96q88 118 133.5 191.5t45.5 122.5q0 27 -24 37.5t-72 10.5q-29 0 -51 -3.5t-30 -3.5q-9 0 -9 6q0 7 19.5 11t51.5 4
q58 0 90 -13.5t32 -48.5q0 -50 -45.5 -123.5t-135.5 -193.5q-80 -108 -119.5 -170.5t-39.5 -101.5q0 -32 34.5 -43t86.5 -11q40 0 68.5 5.5t31.5 2.5q1 -1 1 -3t-1.5 -4t-3.5 -3q-7 -4 -29 -8.5t-57 -4.5q-53 0 -95.5 16zM145 577l189 130q5 4 11 4q9 0 9 -8q0 -6 -10 -12
l-197 -117z" />
    <glyph glyph-name="thorn" unicode="&#xfe;" horiz-adv-x="421" 
d="M140 -4.5q-29 11.5 -51 22t-27 12.5l-6 -30v0l-14 -120q-4 -38 -12.5 -56.5t-20.5 -23.5t-33 -5q-18 0 -18 10q0 7 19 7q26 0 36 4t15 18.5t9 52.5l87 766q3 27 3 43q0 22 -8.5 27.5t-35.5 5.5q-13 0 -17 1.5t-4 5.5q0 9 23 9q17 0 26.5 -2.5t15 -13.5t5.5 -34
q0 -8 -2 -34l-68 -601q43 200 95.5 328t120.5 128q41 0 69 -48.5t28 -145.5q0 -82 -21 -160t-63 -128t-102 -50q-20 0 -49 11.5zM145 5.5q31 -14.5 50 -14.5q53 0 92.5 48t60.5 124.5t21 158.5q0 92 -26.5 140t-64.5 48q-116 0 -213 -464q49 -26 80 -40.5z" />
    <glyph glyph-name="ydieresis" unicode="&#xff;" horiz-adv-x="403" 
d="M83.5 -193q-42.5 16 -42.5 54q0 28 22.5 70.5t63.5 101.5l-33 247q-7 57 -26 166l-7 47v3q0 9 9 9q8 0 9 -12l4 -40q1 -14 6 -66t12 -106l31 -242l70 96q88 118 133.5 191.5t45.5 122.5q0 27 -24 37.5t-72 10.5q-29 0 -51 -3.5t-30 -3.5q-9 0 -9 6q0 7 19.5 11t51.5 4
q58 0 90 -13.5t32 -48.5q0 -50 -45.5 -123.5t-135.5 -193.5q-80 -108 -119.5 -170.5t-39.5 -101.5q0 -32 34.5 -43t86.5 -11q40 0 68.5 5.5t31.5 2.5q1 -1 1 -3t-1.5 -4t-3.5 -3q-7 -4 -29 -8.5t-57 -4.5q-53 0 -95.5 16zM164 624q-7 7 -7 17t7 17t17 7t17 -7t7 -17t-7 -17
t-17 -7t-17 7zM306 624q-7 7 -7 17t7 17t17 7t17 -7t7 -17t-7 -17t-17 -7t-17 7z" />
    <glyph glyph-name="Amacron" unicode="&#x100;" horiz-adv-x="565" 
d="M91.5 8.5q-23.5 16.5 -39 45t-15.5 63.5q0 53 35 91t100 38q67 0 138.5 -53t170.5 -187l-14 79l-53 289l-60 331l-87 -163q-51 -95 -91 -183l-18 -36q-6 -11 -12 -11q-4 0 -6.5 2.5t-2.5 6.5t3 8q41 64 121 214l93 173h3l63 -340q30 -163 66 -328l7 -33q1 -3 1 -9
q0 -11 -8 -11q-7 0 -12 8q-90 122 -160.5 179t-141.5 57q-64 0 -96 -36.5t-32 -84.5q0 -73 78 -103q25 -9 25 -17q0 -6 -10 -6q-22 0 -45.5 16.5zM226 836h295v-7h-295v7z" />
    <glyph glyph-name="amacron" unicode="&#x101;" horiz-adv-x="400" 
d="M42 144q0 85 25.5 170.5t80.5 143.5t138 58q16 0 66 -4l-46 -425q-3 -27 -3 -43q0 -22 9 -27.5t36 -5.5q12 0 16.5 -1.5t4.5 -5.5q0 -10 -23 -10q-26 0 -38 10t-12 44q0 21 2 34l22 180q-25 -122 -70 -200t-115 -78q-93 0 -93 160zM71 27q22 -37 65 -37q58 0 99 60.5
t63 141t30 150.5l16 154q-46 6 -78 6q-71 0 -120 -55t-73 -138t-24 -165q0 -80 22 -117zM120 636h295v-7h-295v7z" />
    <glyph glyph-name="Abreve" unicode="&#x102;" horiz-adv-x="565" 
d="M91.5 8.5q-23.5 16.5 -39 45t-15.5 63.5q0 53 35 91t100 38q67 0 138.5 -53t170.5 -187l-14 79l-53 289l-60 331l-87 -163q-51 -95 -91 -183l-18 -36q-6 -11 -12 -11q-4 0 -6.5 2.5t-2.5 6.5t3 8q41 64 121 214l93 173h3l63 -340q30 -163 66 -328l7 -33q1 -3 1 -9
q0 -11 -8 -11q-7 0 -12 8q-90 122 -160.5 179t-141.5 57q-64 0 -96 -36.5t-32 -84.5q0 -73 78 -103q25 -9 25 -17q0 -6 -10 -6q-22 0 -45.5 16.5zM282 803q-29 27 -29 66q0 16 4.5 25t8.5 9t4 -5q0 -4 -1 -9.5t-1 -15.5q0 -40 24.5 -65t74.5 -25q51 0 80.5 28t29.5 73
q0 9 -2 21h6q2 -12 2 -21q0 -46 -29.5 -77t-87.5 -31q-55 0 -84 27z" />
    <glyph glyph-name="abreve" unicode="&#x103;" horiz-adv-x="400" 
d="M42 144q0 85 25.5 170.5t80.5 143.5t138 58q16 0 66 -4l-46 -425q-3 -27 -3 -43q0 -22 9 -27.5t36 -5.5q12 0 16.5 -1.5t4.5 -5.5q0 -10 -23 -10q-26 0 -38 10t-12 44q0 21 2 34l22 180q-25 -122 -70 -200t-115 -78q-93 0 -93 160zM71 27q22 -37 65 -37q58 0 99 60.5
t63 141t30 150.5l16 154q-46 6 -78 6q-71 0 -120 -55t-73 -138t-24 -165q0 -80 22 -117zM176 603q-29 27 -29 66q0 16 4.5 25t8.5 9t4 -5q0 -4 -1 -9.5t-1 -15.5q0 -40 24.5 -65t74.5 -25q51 0 80.5 28t29.5 73q0 9 -2 21h6q2 -12 2 -21q0 -46 -29.5 -77t-87.5 -31
q-55 0 -84 27z" />
    <glyph glyph-name="Aogonek" unicode="&#x104;" horiz-adv-x="565" 
d="M91.5 8.5q-23.5 16.5 -39 45t-15.5 63.5q0 53 35 91t100 38q67 0 138.5 -53t170.5 -187l-14 79l-53 289l-60 331l-87 -163q-51 -95 -91 -183l-18 -36q-6 -11 -12 -11q-4 0 -6.5 2.5t-2.5 6.5t3 8q41 64 121 214l93 173h3l63 -340q30 -163 66 -328l7 -33q1 -3 1 -9
q0 -11 -8 -11h-1v0h-48q-50 0 -85 -13.5t-52.5 -35.5t-17.5 -46q0 -29 21 -49t65 -20q25 0 42 6t35 16q14 9 21 9q9 0 9 -7q0 -11 -27 -21.5t-66 -10.5q-55 0 -81 22t-26 54q0 26 19 50t56 38.5t89 14.5h36l-1 1q-90 122 -160.5 179t-141.5 57q-64 0 -96 -36.5t-32 -84.5
q0 -73 78 -103q25 -9 25 -17q0 -6 -10 -6q-22 0 -45.5 16.5z" />
    <glyph glyph-name="aogonek" unicode="&#x105;" horiz-adv-x="400" 
d="M42 144q0 85 25.5 170.5t80.5 143.5t138 58q16 0 66 -4l-46 -425q-3 -27 -3 -43q0 -22 9 -27.5t36 -5.5q12 0 16.5 -1.5t4.5 -5.5q0 -10 -23 -10h-48q-50 0 -85 -13.5t-52.5 -35.5t-17.5 -46q0 -29 21 -49t65 -20q25 0 42 6t35 16q14 9 21 9q9 0 9 -7q0 -11 -27 -21.5
t-66 -10.5q-55 0 -81 22t-26 54q0 26 19 50t56 38.5t89 14.5h11q-15 11 -15 47q0 21 2 34l22 180q-25 -122 -70 -200t-115 -78q-93 0 -93 160zM71 27q22 -37 65 -37q58 0 99 60.5t63 141t30 150.5l16 154q-46 6 -78 6q-71 0 -120 -55t-73 -138t-24 -165q0 -80 22 -117z" />
    <glyph glyph-name="Cacute" unicode="&#x106;" horiz-adv-x="470" 
d="M102.5 54q-41.5 70 -41.5 205q0 116 31.5 220t100 170.5t175.5 66.5q32 0 53 -5t21 -16q0 -8 -12 -8q-4 0 -22 4q-4 1 -22 4.5t-45 3.5q-92 0 -153.5 -63t-91 -163.5t-29.5 -214.5q0 -268 158 -268q62 0 101 40.5t74 102.5q9 16 17 28t13 12q6 0 6 -7q0 -17 -31 -63
t-79 -82.5t-102 -36.5q-80 0 -121.5 70zM220 777l189 130q5 4 11 4q9 0 9 -8q0 -6 -10 -12l-197 -117z" />
    <glyph glyph-name="cacute" unicode="&#x107;" horiz-adv-x="363" 
d="M77 31.5q-32 47.5 -32 140.5q0 81 23.5 160t75.5 131.5t132 52.5q19 0 35.5 -3.5t16.5 -10.5q0 -9 -8 -9q-6 0 -24 4q-27 5 -43 5q-67 0 -112.5 -50t-67 -125.5t-21.5 -154.5q0 -182 118 -182q43 0 69.5 27.5t52.5 72.5q9 17 15 25t11 8q6 0 6 -7q0 -12 -23 -45.5
t-58 -60t-74 -26.5q-60 0 -92 47.5zM142 577l189 130q5 4 11 4q9 0 9 -8q0 -6 -10 -12l-197 -117z" />
    <glyph glyph-name="Cdotaccent" unicode="&#x10a;" horiz-adv-x="470" 
d="M102.5 54q-41.5 70 -41.5 205q0 116 31.5 220t100 170.5t175.5 66.5q32 0 53 -5t21 -16q0 -8 -12 -8q-4 0 -22 4q-4 1 -22 4.5t-45 3.5q-92 0 -153.5 -63t-91 -163.5t-29.5 -214.5q0 -268 158 -268q62 0 101 40.5t74 102.5q9 16 17 28t13 12q6 0 6 -7q0 -17 -31 -63
t-79 -82.5t-102 -36.5q-80 0 -121.5 70zM310 824q-7 7 -7 17t7 17t17 7t17 -7t7 -17t-7 -17t-17 -7t-17 7z" />
    <glyph glyph-name="cdotaccent" unicode="&#x10b;" horiz-adv-x="363" 
d="M77 31.5q-32 47.5 -32 140.5q0 81 23.5 160t75.5 131.5t132 52.5q19 0 35.5 -3.5t16.5 -10.5q0 -9 -8 -9q-6 0 -24 4q-27 5 -43 5q-67 0 -112.5 -50t-67 -125.5t-21.5 -154.5q0 -182 118 -182q43 0 69.5 27.5t52.5 72.5q9 17 15 25t11 8q6 0 6 -7q0 -12 -23 -45.5
t-58 -60t-74 -26.5q-60 0 -92 47.5zM232 624q-7 7 -7 17t7 17t17 7t17 -7t7 -17t-7 -17t-17 -7t-17 7z" />
    <glyph glyph-name="Ccaron" unicode="&#x10c;" horiz-adv-x="470" 
d="M102.5 54q-41.5 70 -41.5 205q0 116 31.5 220t100 170.5t175.5 66.5q32 0 53 -5t21 -16q0 -8 -12 -8q-4 0 -22 4q-4 1 -22 4.5t-45 3.5q-92 0 -153.5 -63t-91 -163.5t-29.5 -214.5q0 -268 158 -268q62 0 101 40.5t74 102.5q9 16 17 28t13 12q6 0 6 -7q0 -17 -31 -63
t-79 -82.5t-102 -36.5q-80 0 -121.5 70zM191 905l8 6l54 -65l65 -80q45 40 106 104q20 22 30 31t16 9q4 0 7 -2.5t3 -6.5t-5 -9l-26 -22q-48 -38 -131 -112q-96 114 -127 147z" />
    <glyph glyph-name="ccaron" unicode="&#x10d;" horiz-adv-x="363" 
d="M77 31.5q-32 47.5 -32 140.5q0 81 23.5 160t75.5 131.5t132 52.5q19 0 35.5 -3.5t16.5 -10.5q0 -9 -8 -9q-6 0 -24 4q-27 5 -43 5q-67 0 -112.5 -50t-67 -125.5t-21.5 -154.5q0 -182 118 -182q43 0 69.5 27.5t52.5 72.5q9 17 15 25t11 8q6 0 6 -7q0 -12 -23 -45.5
t-58 -60t-74 -26.5q-60 0 -92 47.5zM113 705l8 6l54 -65l65 -80q45 40 106 104q20 22 30 31t16 9q4 0 7 -2.5t3 -6.5t-5 -9l-26 -22q-48 -38 -131 -112q-96 114 -127 147z" />
    <glyph glyph-name="Dcaron" unicode="&#x10e;" horiz-adv-x="506" 
d="M101.5 13.5q-43.5 29.5 -64.5 71t-21 75.5q0 14 8 14q7 0 10 -13q13 -76 53 -123.5t122 -47.5q87 0 144 61.5t83.5 160.5t26.5 216q0 84 -15.5 141t-62 91t-132.5 34h-138l-21 -219q-9 -90 -15 -212l-1 -28q0 -15 -11 -15q-10 0 -9 15l6 43q3 25 9 72t14 125l21 217
q1 6 2.5 8t6.5 2t16 -1t26 -1h95q88 0 135 -34.5t63.5 -93t16.5 -144.5q0 -120 -27.5 -220.5t-86 -162t-147.5 -61.5q-63 0 -106.5 29.5zM167 905l8 6l54 -65l65 -80q45 40 106 104q20 22 30 31t16 9q4 0 7 -2.5t3 -6.5t-5 -9l-26 -22q-48 -38 -131 -112q-96 114 -127 147z
" />
    <glyph glyph-name="dcaron" unicode="&#x10f;" horiz-adv-x="400" 
d="M42 144q0 85 25.5 170.5t80.5 143.5t138 58q22 0 60 -4l16 141q3 26 3 41q0 24 -10 29.5t-44 5.5q-13 0 -17 1.5t-4 5.5q0 9 23 9q22 0 33 -2.5t17.5 -14t6.5 -35.5q0 -8 -2 -32l-62 -574q-3 -27 -3 -43q0 -22 9 -27.5t36 -5.5q12 0 16.5 -1.5t4.5 -5.5q0 -10 -23 -10
q-26 0 -38 10t-12 44q0 21 2 34l22 182q-25 -123 -70 -201.5t-115 -78.5q-93 0 -93 160zM71 27q22 -37 65 -37q58 0 98.5 60.5t62 140.5t30.5 151l17 154q-46 6 -78 6q-71 0 -120 -55t-73 -138t-24 -165q0 -80 22 -117zM422 478q9 96 14 156t6 76l1 22q1 13 10 13q7 0 7 -9
q0 -10 -6 -48q-18 -137 -25 -210q-1 -12 -4 -12q-4 0 -3 12z" />
    <glyph glyph-name="Dcroat" unicode="&#x110;" horiz-adv-x="505" 
d="M266 277q-159 3 -157 3h-29l-2 -45q0 -15 -11 -15q-10 0 -9 15l6 45h-10q-12 0 -32 -2l-28 -1q-6 0 -6 7q0 6 6 6l28 -1q20 -2 32 -2h11q12 84 22 188l21 217q1 6 2.5 8t6.5 2t16 -1t26 -1h95q88 0 135 -34.5t63.5 -93t16.5 -144.5q0 -120 -27.5 -220.5t-86 -162
t-147.5 -61.5q-63 0 -106.5 29.5t-64.5 71t-21 75.5q0 14 8 14q7 0 10 -13q13 -76 53 -123.5t122 -47.5q87 0 144 61.5t83.5 160.5t26.5 216q0 84 -15.5 141t-62 91t-132.5 34h-138l-21 -219q-10 -98 -14 -188h29q51 0 157 4l78 2q19 0 19 -9t-19 -9z" />
    <glyph glyph-name="dcroat" unicode="&#x111;" horiz-adv-x="435" 
d="M202 613q-4 2 -4 6q0 5 4 7t15 2q8 0 38 -2q46 -4 93 -4h10l4 31q3 26 3 41q0 24 -10 29.5t-44 5.5q-13 0 -17 1.5t-4 5.5q0 9 23 9q22 0 33 -2.5t17.5 -14t6.5 -35.5q0 -8 -2 -32l-4 -39h23q13 0 35 2l26 1q6 0 6 -6t-6 -6l-26 1q-22 2 -35 2h-24l-57 -529
q-3 -27 -3 -43q0 -22 9 -27.5t36 -5.5q12 0 16.5 -1.5t4.5 -5.5q0 -10 -23 -10q-26 0 -38 10t-12 44q0 21 2 34l22 182q-25 -123 -70 -201.5t-115 -78.5q-93 0 -93 160q0 85 25.5 170.5t80.5 143.5t138 58q22 0 60 -4l12 104h-10q-24 0 -93 -3q-30 -2 -38 -2q-11 0 -15 2z
M71 27q22 -37 65 -37q58 0 98.5 60.5t62 140.5t30.5 151l17 154q-46 6 -78 6q-71 0 -120 -55t-73 -138t-24 -165q0 -80 22 -117z" />
    <glyph glyph-name="Emacron" unicode="&#x112;" horiz-adv-x="430" 
d="M147 -16q-35 8 -61.5 12t-57.5 4q-11 0 -22 -2t-18 -2q-14 0 -14 9t14 9q31 0 40.5 12t13.5 50l28 269q2 27 24 32q-8 1 -12.5 8.5t-3.5 23.5l29 283q1 6 2.5 8t6.5 2t16 -1t26 -1h46l149 1q22 1 51 1q20 0 20 -10q0 -9 -17 -9q-14 0 -46 3q-104 8 -157 8h-91l-28 -284
q-1 -16 5 -23t21 -7h60q42 0 122 4l67 2q11 0 14.5 -2t3.5 -7q0 -9 -19 -9l-67 2q-120 3 -122 3h-60q-15 0 -23.5 -7t-9.5 -23l-29 -270q-3 -33 -11 -47t-30 -19h13q33 0 59 -4t73 -14q24 -5 48.5 -9.5t43.5 -4.5q42 0 59 8t30 23q6 8 15 15q5 3 9 3q9 0 9 -7
q0 -8 -13.5 -19.5t-39 -20t-60.5 -8.5q-42 0 -106 15zM131 836h295v-7h-295v7z" />
    <glyph glyph-name="emacron" unicode="&#x113;" horiz-adv-x="365" 
d="M78 33.5q-33 49.5 -33 143.5q0 87 27.5 165.5t74.5 126t102 47.5q61 0 61 -65q0 -51 -33 -116t-83.5 -122.5t-98.5 -86.5q-4 -2 -6.5 -1.5t-2.5 3.5t9 9q45 26 94 80.5t82 118.5t33 115q0 27 -12 43t-43 16q-52 0 -97.5 -46.5t-72.5 -123t-27 -163.5q0 -92 31 -139.5
t90 -47.5q42 0 69 27.5t51 71.5q2 4 8.5 14.5t11 15t8.5 4.5q5 0 5 -7q0 -12 -22.5 -45.5t-57.5 -60t-74 -26.5q-61 0 -94 49.5zM98 636h295v-7h-295v7z" />
    <glyph glyph-name="Edotaccent" unicode="&#x116;" horiz-adv-x="430" 
d="M147 -16q-35 8 -61.5 12t-57.5 4q-11 0 -22 -2t-18 -2q-14 0 -14 9t14 9q31 0 40.5 12t13.5 50l28 269q2 27 24 32q-8 1 -12.5 8.5t-3.5 23.5l29 283q1 6 2.5 8t6.5 2t16 -1t26 -1h46l149 1q22 1 51 1q20 0 20 -10q0 -9 -17 -9q-14 0 -46 3q-104 8 -157 8h-91l-28 -284
q-1 -16 5 -23t21 -7h60q42 0 122 4l67 2q11 0 14.5 -2t3.5 -7q0 -9 -19 -9l-67 2q-120 3 -122 3h-60q-15 0 -23.5 -7t-9.5 -23l-29 -270q-3 -33 -11 -47t-30 -19h13q33 0 59 -4t73 -14q24 -5 48.5 -9.5t43.5 -4.5q42 0 59 8t30 23q6 8 15 15q5 3 9 3q9 0 9 -7
q0 -8 -13.5 -19.5t-39 -20t-60.5 -8.5q-42 0 -106 15zM258 824q-7 7 -7 17t7 17t17 7t17 -7t7 -17t-7 -17t-17 -7t-17 7z" />
    <glyph glyph-name="edotaccent" unicode="&#x117;" horiz-adv-x="365" 
d="M78 33.5q-33 49.5 -33 143.5q0 87 27.5 165.5t74.5 126t102 47.5q61 0 61 -65q0 -51 -33 -116t-83.5 -122.5t-98.5 -86.5q-4 -2 -6.5 -1.5t-2.5 3.5t9 9q45 26 94 80.5t82 118.5t33 115q0 27 -12 43t-43 16q-52 0 -97.5 -46.5t-72.5 -123t-27 -163.5q0 -92 31 -139.5
t90 -47.5q42 0 69 27.5t51 71.5q2 4 8.5 14.5t11 15t8.5 4.5q5 0 5 -7q0 -12 -22.5 -45.5t-57.5 -60t-74 -26.5q-61 0 -94 49.5zM225 624q-7 7 -7 17t7 17t17 7t17 -7t7 -17t-7 -17t-17 -7t-17 7z" />
    <glyph glyph-name="Eogonek" unicode="&#x118;" horiz-adv-x="430" 
d="M156 -154q-28 18 -28 48q0 29 21.5 50t62.5 28q-31 4 -66 12q-36 8 -61.5 12t-56.5 4q-11 0 -22 -2t-18 -2q-14 0 -14 9t14 9q31 0 40.5 12t13.5 50l28 269q2 27 24 32q-8 1 -12.5 8.5t-3.5 23.5l29 283q1 6 2.5 8t6.5 2t16 -1t26 -1h46l149 1q22 1 51 1q20 0 20 -10
q0 -9 -17 -9q-14 0 -46 3q-104 8 -157 8h-91l-28 -284q-1 -16 5 -23t21 -7h60q42 0 122 4l67 2q11 0 14.5 -2t3.5 -7q0 -9 -19 -9l-67 2q-120 3 -122 3h-60q-15 0 -23.5 -7t-9.5 -23l-29 -270q-3 -33 -11 -47t-30 -19h13q33 0 59 -4t73 -14q24 -5 48.5 -9.5t43.5 -4.5
q42 0 59 8t30 23q6 8 15 15q5 3 9 3q9 0 9 -7q0 -8 -13.5 -19.5t-39 -20t-60.5 -8.5q-57 0 -87.5 -21t-30.5 -53q0 -26 23.5 -42.5t71.5 -16.5q29 0 48 6t39 16q16 9 23 9q9 0 9 -6q0 -11 -30.5 -22t-74.5 -11q-60 0 -88 18z" />
    <glyph glyph-name="eogonek" unicode="&#x119;" horiz-adv-x="365" 
d="M121.5 -151.5q-26.5 20.5 -26.5 52.5q0 55 76 83q-60 0 -93 49.5t-33 143.5q0 87 27.5 165.5t74.5 126t102 47.5q61 0 61 -65q0 -51 -33 -116t-83.5 -122.5t-98.5 -86.5q-4 -2 -6.5 -1.5t-2.5 3.5t9 9q45 26 94 80.5t82 118.5t33 115q0 27 -12 43t-43 16
q-52 0 -97.5 -46.5t-72.5 -123t-27 -163.5q0 -92 31 -139.5t90 -47.5q42 0 69 27.5t51 71.5q2 4 8.5 14.5t11 15t8.5 4.5q5 0 5 -7q0 -11 -18 -39.5t-47.5 -54.5t-62.5 -35q-50 -15 -73 -35.5t-23 -50.5q0 -28 22 -46.5t65 -18.5q26 0 42.5 6t34.5 16q16 9 23 9q10 0 10 -8
q0 -10 -28 -20.5t-68 -10.5q-55 0 -81.5 20.5z" />
    <glyph glyph-name="Ecaron" unicode="&#x11a;" horiz-adv-x="430" 
d="M147 -16q-35 8 -61.5 12t-57.5 4q-11 0 -22 -2t-18 -2q-14 0 -14 9t14 9q31 0 40.5 12t13.5 50l28 269q2 27 24 32q-8 1 -12.5 8.5t-3.5 23.5l29 283q1 6 2.5 8t6.5 2t16 -1t26 -1h46l149 1q22 1 51 1q20 0 20 -10q0 -9 -17 -9q-14 0 -46 3q-104 8 -157 8h-91l-28 -284
q-1 -16 5 -23t21 -7h60q42 0 122 4l67 2q11 0 14.5 -2t3.5 -7q0 -9 -19 -9l-67 2q-120 3 -122 3h-60q-15 0 -23.5 -7t-9.5 -23l-29 -270q-3 -33 -11 -47t-30 -19h13q33 0 59 -4t73 -14q24 -5 48.5 -9.5t43.5 -4.5q42 0 59 8t30 23q6 8 15 15q5 3 9 3q9 0 9 -7
q0 -8 -13.5 -19.5t-39 -20t-60.5 -8.5q-42 0 -106 15zM139 905l8 6l54 -65l65 -80q45 40 106 104q20 22 30 31t16 9q4 0 7 -2.5t3 -6.5t-5 -9l-26 -22q-48 -38 -131 -112q-96 114 -127 147z" />
    <glyph glyph-name="ecaron" unicode="&#x11b;" horiz-adv-x="365" 
d="M78 33.5q-33 49.5 -33 143.5q0 87 27.5 165.5t74.5 126t102 47.5q61 0 61 -65q0 -51 -33 -116t-83.5 -122.5t-98.5 -86.5q-4 -2 -6.5 -1.5t-2.5 3.5t9 9q45 26 94 80.5t82 118.5t33 115q0 27 -12 43t-43 16q-52 0 -97.5 -46.5t-72.5 -123t-27 -163.5q0 -92 31 -139.5
t90 -47.5q42 0 69 27.5t51 71.5q2 4 8.5 14.5t11 15t8.5 4.5q5 0 5 -7q0 -12 -22.5 -45.5t-57.5 -60t-74 -26.5q-61 0 -94 49.5zM107 705l8 6l54 -65l65 -80q45 40 106 104q20 22 30 31t16 9q4 0 7 -2.5t3 -6.5t-5 -9l-26 -22q-48 -38 -131 -112q-96 114 -127 147z" />
    <glyph glyph-name="Gbreve" unicode="&#x11e;" horiz-adv-x="485" 
d="M101 53.5q-40 69.5 -40 205.5q0 116 31.5 220t100 170.5t175.5 66.5q32 0 53 -5t21 -16q0 -8 -12 -8q-4 0 -22 4q-4 1 -22 4.5t-45 3.5q-92 0 -153.5 -63t-91 -163.5t-29.5 -214.5q0 -268 152 -268q96 0 145.5 94.5t61.5 211.5q1 19 11 19t7 -19q-6 -37 -11 -86
q-9 -90 -12 -174q0 -18 -1 -25q-1 -16 -11 -16q-8 0 -8 12q0 15 6 46q2 12 8 53.5t12 103.5l7 72q-26 -154 -82.5 -226t-133.5 -72t-117 69.5zM239 803q-29 27 -29 66q0 16 4.5 25t8.5 9t4 -5q0 -4 -1 -9.5t-1 -15.5q0 -40 24.5 -65t74.5 -25q51 0 80.5 28t29.5 73
q0 9 -2 21h6q2 -12 2 -21q0 -46 -29.5 -77t-87.5 -31q-55 0 -84 27z" />
    <glyph glyph-name="gbreve" unicode="&#x11f;" horiz-adv-x="389" 
d="M58 -192q0 8 11 8q5 0 21 -2q33 -3 43 -3q57 0 88.5 22.5t46 68.5t24.5 131l28 231q-25 -123 -70 -201.5t-115 -78.5q-93 0 -93 160q0 85 25.5 170.5t80.5 143.5t138 58q16 0 66 -4l-53 -475q-11 -91 -27.5 -141t-55 -75.5t-110.5 -25.5q-48 0 -48 13zM71 27
q22 -37 65 -37q58 0 98.5 60.5t62 140.5t30.5 151l17 154q-46 6 -78 6q-71 0 -120 -55t-73 -138t-24 -165q0 -80 22 -117zM173 603q-29 27 -29 66q0 16 4.5 25t8.5 9t4 -5q0 -4 -1 -9.5t-1 -15.5q0 -40 24.5 -65t74.5 -25q51 0 80.5 28t29.5 73q0 9 -2 21h6q2 -12 2 -21
q0 -46 -29.5 -77t-87.5 -31q-55 0 -84 27z" />
    <glyph glyph-name="Gdotaccent" unicode="&#x120;" horiz-adv-x="485" 
d="M101 53.5q-40 69.5 -40 205.5q0 116 31.5 220t100 170.5t175.5 66.5q32 0 53 -5t21 -16q0 -8 -12 -8q-4 0 -22 4q-4 1 -22 4.5t-45 3.5q-92 0 -153.5 -63t-91 -163.5t-29.5 -214.5q0 -268 152 -268q96 0 145.5 94.5t61.5 211.5q1 19 11 19t7 -19q-6 -37 -11 -86
q-9 -90 -12 -174q0 -18 -1 -25q-1 -16 -11 -16q-8 0 -8 12q0 15 6 46q2 12 8 53.5t12 103.5l7 72q-26 -154 -82.5 -226t-133.5 -72t-117 69.5zM310 824q-7 7 -7 17t7 17t17 7t17 -7t7 -17t-7 -17t-17 -7t-17 7z" />
    <glyph glyph-name="gdotaccent" unicode="&#x121;" horiz-adv-x="389" 
d="M58 -192q0 8 11 8q5 0 21 -2q33 -3 43 -3q57 0 88.5 22.5t46 68.5t24.5 131l28 231q-25 -123 -70 -201.5t-115 -78.5q-93 0 -93 160q0 85 25.5 170.5t80.5 143.5t138 58q16 0 66 -4l-53 -475q-11 -91 -27.5 -141t-55 -75.5t-110.5 -25.5q-48 0 -48 13zM71 27
q22 -37 65 -37q58 0 98.5 60.5t62 140.5t30.5 151l17 154q-46 6 -78 6q-71 0 -120 -55t-73 -138t-24 -165q0 -80 22 -117zM244 624q-7 7 -7 17t7 17t17 7t17 -7t7 -17t-7 -17t-17 -7t-17 7z" />
    <glyph glyph-name="uni0122" unicode="&#x122;" horiz-adv-x="485" 
d="M101 53.5q-40 69.5 -40 205.5q0 116 31.5 220t100 170.5t175.5 66.5q32 0 53 -5t21 -16q0 -8 -12 -8q-4 0 -22 4q-4 1 -22 4.5t-45 3.5q-92 0 -153.5 -63t-91 -163.5t-29.5 -214.5q0 -268 152 -268q96 0 145.5 94.5t61.5 211.5q1 19 11 19t7 -19q-6 -37 -11 -86
q-9 -90 -12 -174q0 -18 -1 -25q-1 -16 -11 -16q-8 0 -8 12q0 15 6 46q2 12 8 53.5t12 103.5l7 72q-26 -154 -82.5 -226t-133.5 -72t-117 69.5zM144 -219q0 4 6 4q38 0 61.5 11t23.5 54q0 38 -15 83q-1 4 3.5 6t5.5 -2q13 -41 13 -73q0 -54 -28 -72t-59 -18q-11 0 -11 7z" />
    <glyph glyph-name="uni0123" unicode="&#x123;" horiz-adv-x="389" 
d="M58 -192q0 8 11 8q5 0 21 -2q33 -3 43 -3q57 0 88.5 22.5t46 68.5t24.5 131l28 231q-25 -123 -70 -201.5t-115 -78.5q-93 0 -93 160q0 85 25.5 170.5t80.5 143.5t138 58q16 0 66 -4l-53 -475q-11 -91 -27.5 -141t-55 -75.5t-110.5 -25.5q-48 0 -48 13zM71 27
q22 -37 65 -37q58 0 98.5 60.5t62 140.5t30.5 151l17 154q-46 6 -78 6q-71 0 -120 -55t-73 -138t-24 -165q0 -80 22 -117zM310 746q0 -4 -7 -4q-36 0 -50.5 -22t-14.5 -69q0 -57 19 -112v-1q0 -4 -4.5 -6t-5.5 2q-16 48 -16 104q0 116 68 116q11 0 11 -8z" />
    <glyph glyph-name="Hbar" unicode="&#x126;" horiz-adv-x="520" 
d="M35 11l7 54q19 123 27 205l17 167q10 102 17 208l3 45q1 15 11 15t9 -15q-1 -13 -8 -56q-17 -110 -25 -197l-3 -26h374l3 26q10 102 17 208l3 45q1 15 11 15q8 0 8 -11q0 -9 -9 -76q-15 -93 -24 -181l-17 -167q-11 -104 -18 -216l-3 -43q-1 -9 -3.5 -12.5t-7.5 -3.5
q-8 0 -8 12q0 8 9 75q18 117 25 188l8 83h-374l-8 -83q-11 -104 -18 -216l-3 -43q-1 -16 -11 -16t-9 16zM459 360l5 45h-374l-5 -45h374z" />
    <glyph glyph-name="hbar" unicode="&#x127;" horiz-adv-x="428" 
d="M242 613q-72 3 -96 3h-27l-33 -299q-32 -279 -32 -297q0 -15 5 -15t12 23.5t20 76.5q28 113 55 196t71 149t103 66q36 0 50.5 -24.5t14.5 -73.5q0 -38 -6 -88l-13 -114q-9 -87 -15 -162l-3 -43q-2 -16 -11 -16q-10 0 -8 16q18 103 29 204l13 112q7 65 7 95q0 44 -13 65.5
t-45 21.5q-69 0 -118.5 -94t-89.5 -249l-16 -66q-13 -57 -21 -81t-17 -24q-10 0 -10 20q0 25 15 145l6 55l44 401h-6q-10 0 -32 -2l-25 -1q-6 0 -6 6t6 6l25 -1q22 -2 32 -2h7l3 31q3 29 3 44q0 21 -8.5 26.5t-34.5 5.5q-13 0 -17 1.5t-4 5.5q0 9 23 9q17 0 26.5 -2.5
t15 -13.5t5.5 -35q0 -7 -2 -33l-4 -39h26q48 0 96 4q30 2 40 2q11 0 15 -2t4 -7q0 -4 -4 -6t-15 -2q-10 0 -40 2z" />
    <glyph glyph-name="Itilde" unicode="&#x128;" horiz-adv-x="275" 
d="M4 5q0 9 16 9q6 0 17.5 -2.5t24.5 -2.5q29 0 39.5 14t14.5 53l58 551q3 30 10.5 45.5t22.5 20.5h-25q-36 0 -57.5 -2.5t-29.5 -2.5q-18 0 -18 7q0 8 21 8q8 0 28.5 -1.5t56.5 -1.5h14q40 0 57 2t23 2q14 0 14 -8q0 -9 -16 -9q-5 0 -17 2.5t-25 2.5q-29 0 -39 -14.5
t-14 -53.5l-58 -551q-3 -30 -10.5 -45.5t-22.5 -19.5h25q36 0 57.5 2.5t29.5 2.5q18 0 18 -8t-20 -8q-8 0 -29 1.5t-57 1.5h-14q-40 0 -57 -2t-24 -2q-14 0 -14 9zM235.5 803.5q-10.5 8.5 -25.5 26.5q-13 17 -23 25t-25 8q-18 0 -28.5 -10.5t-20.5 -28.5q-8 -17 -14 -17
q-2 0 -3.5 2t-1.5 5q0 10 8.5 23.5t23 23t33.5 9.5q17 0 28.5 -9t24.5 -26t22.5 -24.5t24.5 -7.5q19 0 29.5 10.5t20.5 28.5q1 2 5 9t8 7q6 0 6 -7q0 -8 -8.5 -22t-23.5 -24t-33 -10q-17 0 -27.5 8.5z" />
    <glyph glyph-name="itilde" unicode="&#x129;" horiz-adv-x="151" 
d="M71.5 -2.5q-8.5 2.5 -14 13.5t-5.5 35q0 6 2 34l37 333q3 29 3 44q0 21 -8 26.5t-34 5.5q-13 0 -17 1.5t-4 5.5q0 9 23 9q17 0 26 -2.5t14.5 -13.5t5.5 -35q0 -7 -2 -33l-38 -334q-3 -27 -3 -43q0 -21 8 -26.5t34 -5.5q12 0 16.5 -1.5t4.5 -5.5q0 -10 -23 -10
q-17 0 -25.5 2.5zM139.5 603.5q-10.5 8.5 -25.5 26.5q-13 17 -23 25t-25 8q-18 0 -28.5 -10.5t-20.5 -28.5q-8 -17 -14 -17q-2 0 -3.5 2t-1.5 5q0 10 8.5 23.5t23 23t33.5 9.5q17 0 28.5 -9t24.5 -26t22.5 -24.5t24.5 -7.5q19 0 29.5 10.5t20.5 28.5q1 2 5 9t8 7q6 0 6 -7
q0 -8 -8.5 -22t-23.5 -24t-33 -10q-17 0 -27.5 8.5z" />
    <glyph glyph-name="Imacron" unicode="&#x12a;" horiz-adv-x="275" 
d="M4 5q0 9 16 9q6 0 17.5 -2.5t24.5 -2.5q29 0 39.5 14t14.5 53l58 551q3 30 10.5 45.5t22.5 20.5h-25q-36 0 -57.5 -2.5t-29.5 -2.5q-18 0 -18 7q0 8 21 8q8 0 28.5 -1.5t56.5 -1.5h14q40 0 57 2t23 2q14 0 14 -8q0 -9 -16 -9q-5 0 -17 2.5t-25 2.5q-29 0 -39 -14.5
t-14 -53.5l-58 -551q-3 -30 -10.5 -45.5t-22.5 -19.5h25q36 0 57.5 2.5t29.5 2.5q18 0 18 -8t-20 -8q-8 0 -29 1.5t-57 1.5h-14q-40 0 -57 -2t-24 -2q-14 0 -14 9zM68 836h295v-7h-295v7z" />
    <glyph glyph-name="imacron" unicode="&#x12b;" horiz-adv-x="151" 
d="M71.5 -2.5q-8.5 2.5 -14 13.5t-5.5 35q0 6 2 34l37 333q3 29 3 44q0 21 -8 26.5t-34 5.5q-13 0 -17 1.5t-4 5.5q0 9 23 9q17 0 26 -2.5t14.5 -13.5t5.5 -35q0 -7 -2 -33l-38 -334q-3 -27 -3 -43q0 -21 8 -26.5t34 -5.5q12 0 16.5 -1.5t4.5 -5.5q0 -10 -23 -10
q-17 0 -25.5 2.5zM-27 636h295v-7h-295v7z" />
    <glyph glyph-name="Iogonek" unicode="&#x12e;" horiz-adv-x="275" 
d="M4 5q0 9 16 9q6 0 17.5 -2.5t24.5 -2.5q29 0 39.5 14t14.5 53l58 551q3 30 10.5 45.5t22.5 20.5h-25q-36 0 -57.5 -2.5t-29.5 -2.5q-18 0 -18 7q0 8 21 8q8 0 28.5 -1.5t56.5 -1.5h14q40 0 57 2t23 2q14 0 14 -8q0 -9 -16 -9q-5 0 -17 2.5t-25 2.5q-29 0 -39 -14.5
t-14 -53.5l-58 -551q-3 -30 -10.5 -45.5t-22.5 -19.5h25q36 0 57.5 2.5t29.5 2.5q18 0 18 -8t-20 -8q-8 0 -21.5 1t-39.5 2q-68 -3 -105.5 -31t-37.5 -64q0 -29 21.5 -49t65.5 -20q25 0 42 6t35 16q14 9 21 9q9 0 9 -7q0 -11 -27 -21.5t-66 -10.5q-55 0 -81.5 22t-26.5 54
q0 31 26.5 57.5t74.5 38.5q-33 0 -49 -2t-22 -2q-14 0 -14 9z" />
    <glyph glyph-name="iogonek" unicode="&#x12f;" horiz-adv-x="145" 
d="M-31.5 -149q-24.5 23 -24.5 57q0 36 30.5 61.5t91.5 31.5q-14 9 -14 46q0 7 2 33l37 333q3 29 3 44q0 21 -8 26.5t-34 5.5q-13 0 -17 1.5t-4 5.5q0 9 23 9q17 0 26 -2.5t14.5 -13.5t5.5 -35q0 -7 -2 -33l-38 -334q-3 -27 -3 -43q0 -21 8 -26.5t34 -5.5q12 0 16.5 -1.5
t4.5 -5.5q0 -10 -23 -10q-75 0 -110.5 -24.5t-35.5 -62.5q0 -30 20 -51t61 -21q21 0 35.5 5.5t29.5 15.5q13 10 22 10q10 0 10 -8q0 -10 -25 -20.5t-59 -10.5q-52 0 -76.5 23zM137 658q7 7 17 7t17 -7t7 -17t-7 -17t-17 -7t-17 7t-7 17t7 17z" />
    <glyph glyph-name="Idotaccent" unicode="&#x130;" horiz-adv-x="275" 
d="M4 5q0 9 16 9q6 0 17.5 -2.5t24.5 -2.5q29 0 39.5 14t14.5 53l58 551q3 30 10.5 45.5t22.5 20.5h-25q-36 0 -57.5 -2.5t-29.5 -2.5q-18 0 -18 7q0 8 21 8q8 0 28.5 -1.5t56.5 -1.5h14q40 0 57 2t23 2q14 0 14 -8q0 -9 -16 -9q-5 0 -17 2.5t-25 2.5q-29 0 -39 -14.5
t-14 -53.5l-58 -551q-3 -30 -10.5 -45.5t-22.5 -19.5h25q36 0 57.5 2.5t29.5 2.5q18 0 18 -8t-20 -8q-8 0 -29 1.5t-57 1.5h-14q-40 0 -57 -2t-24 -2q-14 0 -14 9zM196 824q-7 7 -7 17t7 17t17 7t17 -7t7 -17t-7 -17t-17 -7t-17 7z" />
    <glyph glyph-name="dotlessi" unicode="&#x131;" horiz-adv-x="151" 
d="M71.5 -2.5q-8.5 2.5 -14 13.5t-5.5 35q0 6 2 34l37 333q3 29 3 44q0 21 -8 26.5t-34 5.5q-13 0 -17 1.5t-4 5.5q0 9 23 9q17 0 26 -2.5t14.5 -13.5t5.5 -35q0 -7 -2 -33l-38 -334q-3 -27 -3 -43q0 -21 8 -26.5t34 -5.5q12 0 16.5 -1.5t4.5 -5.5q0 -10 -23 -10
q-17 0 -25.5 2.5z" />
    <glyph glyph-name="IJ" unicode="&#x132;" horiz-adv-x="650" 
d="M269 -1q0 7 14 7q5 0 23 -2q26 -2 45 -2q62 0 93 25t42.5 68t20.5 128l43 404q3 30 10.5 45.5t22.5 20.5h-345q-31 0 -42.5 -15t-15.5 -54l-58 -551q-3 -30 -10.5 -45.5t-22.5 -19.5h25q36 0 57.5 2.5t29.5 2.5q18 0 18 -8t-20 -8q-8 0 -29 1.5t-57 1.5h-14q-40 0 -57 -2
t-24 -2q-14 0 -14 9t16 9q6 0 17.5 -2.5t24.5 -2.5q29 0 39.5 14t14.5 53l58 551q3 30 10.5 45.5t22.5 20.5h-25q-36 0 -57.5 -2.5t-29.5 -2.5q-18 0 -18 7q0 8 21 8q8 0 28.5 -1.5t56.5 -1.5h390q40 0 57 2t23 2q14 0 14 -8q0 -9 -16 -9q-5 0 -17 2.5t-25 2.5
q-29 0 -39.5 -14.5t-14.5 -53.5l-42 -402q-9 -87 -22.5 -133.5t-53 -74t-117.5 -27.5q-51 0 -51 12z" />
    <glyph glyph-name="ij" unicode="&#x133;" horiz-adv-x="306" 
d="M100 706q-4 4 -4 10t3.5 10t10.5 4q6 0 10 -4t4 -10q0 -5 -4 -9.5t-10 -4.5t-10 4zM54 505q17 0 26 -2.5t14.5 -13.5t5.5 -35q0 -7 -2 -33l-38 -334q-3 -27 -3 -43q0 -21 8 -26.5t34 -5.5q12 0 16.5 -1.5t4.5 -5.5q0 -10 -23 -10q-17 0 -25.5 2.5t-14 13.5t-5.5 35
q0 6 2 34l37 333q3 29 3 44q0 21 -8 26.5t-34 5.5q-13 0 -17 1.5t-4 5.5q0 9 23 9zM256 706.5q-4 4.5 -4 9.5q0 6 4 10t10 4q7 0 10.5 -4t3.5 -10t-4 -10t-10 -4t-10 4.5zM-19 -184q5 0 21 -2q33 -3 42 -3q58 0 89.5 22.5t46.5 68.5t24 130l44 381q3 29 3 43q0 22 -8 27.5
t-34 5.5q-13 0 -17 1.5t-4 5.5q0 9 23 9q17 0 25.5 -2.5t14 -13.5t5.5 -34q0 -8 -2 -34l-43 -383q-10 -91 -27 -141t-55.5 -76t-110.5 -26q-48 0 -48 13q0 8 11 8z" />
    <glyph glyph-name="uni0136" unicode="&#x136;" horiz-adv-x="600" 
d="M89 8h25q36 0 57.5 2.5t29.5 2.5q18 0 18 -8t-20 -8q-8 0 -29 1.5t-57 1.5h-14q-40 0 -57 -2t-24 -2q-14 0 -14 9t16 9q6 0 17.5 -2.5t24.5 -2.5q29 0 39.5 14t14.5 53l58 551q3 30 10.5 45.5t22.5 20.5h-25q-36 0 -57.5 -2.5t-29.5 -2.5q-18 0 -18 7q0 8 21 8
q8 0 28.5 -1.5t56.5 -1.5h14q40 0 57 2t23 2q14 0 14 -8q0 -9 -16 -9q-5 0 -17 2.5t-25 2.5q-29 0 -39 -14.5t-14 -53.5l-58 -551q-2 -18 -4 -26l353 538q43 65 75 92.5t51 27.5q6 0 6 -5t-19 -16q-65 -38 -108 -104l-153 -233l126 -230q25 -46 45 -67.5t35 -32.5t15 -16
q0 -6 -7 -6q-15 0 -32.5 21.5t-55.5 88.5l-129 238l-211 -320q-8 -12 -20 -15zM235 -203q0 4 6 4q38 0 61.5 11t23.5 54q0 38 -15 83q-1 4 3.5 6t5.5 -2q13 -41 13 -73q0 -54 -28 -72t-59 -18q-11 0 -11 7z" />
    <glyph glyph-name="uni0137" unicode="&#x137;" horiz-adv-x="405" 
d="M346 3l-155 310q-54 -81 -92 -165t-38 -122q0 -14 42 -14q12 0 16.5 -1.5t4.5 -5.5q0 -10 -23 -10q-18 0 -28 2.5t-15.5 14t-5.5 35.5q0 7 2 33l19 170l45 403q3 27 3 43q0 22 -8.5 27.5t-35.5 5.5q-13 0 -17 1.5t-4 5.5q0 9 23 9q17 0 26.5 -2.5t15 -13.5t5.5 -34
q0 -8 -2 -34l-45 -411l-19 -163q-3 -21 -3 -36q12 58 63 155.5t114 182t108 111.5q5 3 8 3q2 0 4 -2t2 -5q0 -4 -7 -10q-47 -30 -94 -86q-32 -39 -60 -81q103 -206 167 -309q2 -2 2 -6q0 -9 -8 -9q-6 0 -10 8zM105 -203q0 4 6 4q38 0 61.5 11t23.5 54q0 38 -15 83
q-1 4 3.5 6t5.5 -2q13 -41 13 -73q0 -54 -28 -72t-59 -18q-11 0 -11 7z" />
    <glyph glyph-name="Lacute" unicode="&#x139;" horiz-adv-x="490" 
d="M269.5 -26.5q-28.5 4.5 -55.5 9.5q-45 9 -75.5 13t-68.5 4q-16 0 -30.5 -2t-22.5 -2q-18 0 -18 9t17 9q6 0 17.5 -2.5t22.5 -2.5q30 0 41 15t15 52l38 361q8 70 17 205l3 44q1 19 12 19q8 0 8 -14q0 -12 -8 -65q-14 -87 -25 -189l-39 -364q-3 -30 -12 -46t-27 -22
q46 0 130 -16q28 -5 56 -9.5t49 -4.5q42 0 59 8t30 23q6 8 15 15q5 3 9 3q9 0 9 -7q0 -8 -13.5 -19.5t-39 -20t-60.5 -8.5q-25 0 -53.5 4.5zM89 777l189 130q5 4 11 4q9 0 9 -8q0 -6 -10 -12l-197 -117z" />
    <glyph glyph-name="lacute" unicode="&#x13a;" horiz-adv-x="155" 
d="M73 -2.5q-10 2.5 -15.5 14t-5.5 35.5q0 7 2 33l64 573q3 27 3 43q0 22 -8.5 27.5t-35.5 5.5q-13 0 -17 1.5t-4 5.5q0 9 23 9q17 0 26.5 -2.5t15 -13.5t5.5 -34q0 -8 -2 -34l-64 -574q-3 -27 -3 -41q0 -23 9 -28.5t37 -5.5q12 0 16.5 -1.5t4.5 -5.5q0 -10 -23 -10
q-18 0 -28 2.5zM11 807l189 130q5 4 11 4q9 0 9 -8q0 -6 -10 -12l-197 -117z" />
    <glyph glyph-name="uni013B" unicode="&#x13b;" horiz-adv-x="490" 
d="M269.5 -26.5q-28.5 4.5 -55.5 9.5q-45 9 -75.5 13t-68.5 4q-16 0 -30.5 -2t-22.5 -2q-18 0 -18 9t17 9q6 0 17.5 -2.5t22.5 -2.5q30 0 41 15t15 52l38 361q8 70 17 205l3 44q1 19 12 19q8 0 8 -14q0 -12 -8 -65q-14 -87 -25 -189l-39 -364q-3 -30 -12 -46t-27 -22
q46 0 130 -16q28 -5 56 -9.5t49 -4.5q42 0 59 8t30 23q6 8 15 15q5 3 9 3q9 0 9 -7q0 -8 -13.5 -19.5t-39 -20t-60.5 -8.5q-25 0 -53.5 4.5zM119 -203q0 4 6 4q38 0 61.5 11t23.5 54q0 38 -15 83q-1 4 3.5 6t5.5 -2q13 -41 13 -73q0 -54 -28 -72t-59 -18q-11 0 -11 7z" />
    <glyph glyph-name="uni013C" unicode="&#x13c;" horiz-adv-x="155" 
d="M73 -2.5q-10 2.5 -15.5 14t-5.5 35.5q0 7 2 33l64 573q3 27 3 43q0 22 -8.5 27.5t-35.5 5.5q-13 0 -17 1.5t-4 5.5q0 9 23 9q17 0 26.5 -2.5t15 -13.5t5.5 -34q0 -8 -2 -34l-64 -574q-3 -27 -3 -41q0 -23 9 -28.5t37 -5.5q12 0 16.5 -1.5t4.5 -5.5q0 -10 -23 -10
q-18 0 -28 2.5zM-4 -203q0 4 6 4q38 0 61.5 11t23.5 54q0 38 -15 83q-1 4 3.5 6t5.5 -2q13 -41 13 -73q0 -54 -28 -72t-59 -18q-11 0 -11 7z" />
    <glyph glyph-name="Lcaron" unicode="&#x13d;" horiz-adv-x="490" 
d="M269.5 -26.5q-28.5 4.5 -55.5 9.5q-45 9 -75.5 13t-68.5 4q-16 0 -30.5 -2t-22.5 -2q-18 0 -18 9t17 9q6 0 17.5 -2.5t22.5 -2.5q30 0 41 15t15 52l38 361q8 70 17 205l3 44q1 19 12 19q8 0 8 -14q0 -12 -8 -65q-14 -87 -25 -189l-39 -364q-3 -30 -12 -46t-27 -22
q46 0 130 -16q28 -5 56 -9.5t49 -4.5q42 0 59 8t30 23q6 8 15 15q5 3 9 3q9 0 9 -7q0 -8 -13.5 -19.5t-39 -20t-60.5 -8.5q-25 0 -53.5 4.5zM264 438q9 96 14 156t6 76l1 22q1 13 10 13q7 0 7 -9q0 -10 -6 -48q-18 -137 -25 -210q-1 -12 -4 -12q-4 0 -3 12z" />
    <glyph glyph-name="lcaron" unicode="&#x13e;" horiz-adv-x="155" 
d="M73 -2.5q-10 2.5 -15.5 14t-5.5 35.5q0 7 2 33l64 573q3 27 3 43q0 22 -8.5 27.5t-35.5 5.5q-13 0 -17 1.5t-4 5.5q0 9 23 9q17 0 26.5 -2.5t15 -13.5t5.5 -34q0 -8 -2 -34l-64 -574q-3 -27 -3 -41q0 -23 9 -28.5t37 -5.5q12 0 16.5 -1.5t4.5 -5.5q0 -10 -23 -10
q-18 0 -28 2.5zM163 478q9 96 14 156t6 76l1 22q1 13 10 13q7 0 7 -9q0 -10 -6 -48q-18 -137 -25 -210q-1 -12 -4 -12q-4 0 -3 12z" />
    <glyph glyph-name="Lslash" unicode="&#x141;" horiz-adv-x="490" 
d="M374 276q-50 4 -124 4h-110l-22 -207q-3 -30 -12 -46t-27 -22q46 0 130 -16q28 -5 56 -9.5t49 -4.5q42 0 59 8t30 23q6 8 15 15q5 3 9 3q9 0 9 -7q0 -8 -13.5 -19.5t-39 -20t-60.5 -8.5q-25 0 -53.5 4.5t-55.5 9.5q-45 9 -75.5 13t-68.5 4q-16 0 -30.5 -2t-22.5 -2
q-18 0 -18 9t17 9q6 0 17.5 -2.5t22.5 -2.5q30 0 41 15t15 52l21 204h-39q-19 0 -39 -2l-20 -1q-6 0 -6 6t6 6l20 -1q20 -2 39 -2h40l16 151q8 70 17 205l3 44q1 19 12 19q8 0 8 -14q0 -12 -8 -65q-14 -87 -25 -189l-16 -151h109q48 0 81 2t43 2q26 2 32 2q10 0 14 -2t4 -6
q0 -5 -4 -7t-14 -2z" />
    <glyph glyph-name="lslash" unicode="&#x142;" horiz-adv-x="155" 
d="M133 277q-33 3 -42 3h-9l-22 -193q-3 -27 -3 -41q0 -23 9 -28.5t37 -5.5q12 0 16.5 -1.5t4.5 -5.5q0 -10 -23 -10q-18 0 -28 2.5t-15.5 14t-5.5 35.5q0 7 2 33l22 200h-11q-24 0 -48 -2l-23 -1q-6 0 -6 6t6 6l23 -1q24 -2 48 -2h12l41 367q3 27 3 43q0 22 -8.5 27.5
t-35.5 5.5q-13 0 -17 1.5t-4 5.5q0 9 23 9q17 0 26.5 -2.5t15 -13.5t5.5 -34q0 -8 -2 -34l-42 -375h9q20 0 42 4q14 2 22 2q10 0 14 -1.5t4 -6.5t-3.5 -7t-14.5 -2q-8 0 -22 2z" />
    <glyph glyph-name="Nacute" unicode="&#x143;" horiz-adv-x="520" 
d="M35 8q0 -2 9 77q20 146 32 270l35 340q1 10 5 10t6 -5l301 -693l36 338q14 140 23 284l5 60q1 9 3.5 12.5t7.5 3.5q9 0 8 -16l-10 -86q-17 -127 -31 -258l-34 -339q-1 -11 -6 -11q-4 0 -6 6l-301 693l-35 -339q-14 -135 -21 -236t-7 -108q-1 -16 -11 -16q-9 0 -9 13z
M217 777l189 130q5 4 11 4q9 0 9 -8q0 -6 -10 -12l-197 -117z" />
    <glyph glyph-name="nacute" unicode="&#x144;" horiz-adv-x="433" 
d="M53 15q0 27 21 200l22 198q3 29 3 44q0 21 -8 26.5t-34 5.5q-13 0 -17 1.5t-4 5.5q0 9 23 9q25 0 35.5 -8t10.5 -41q0 -14 -3 -35l-6 -51q-18 -155 -27.5 -243t-9.5 -107q0 -15 5 -15t12 23.5t20 76.5q28 113 55 196t71 149t103 66q36 0 50.5 -24.5t14.5 -73.5
q0 -38 -6 -88l-13 -114q-9 -87 -15 -162l-3 -43q-2 -16 -11 -16q-10 0 -8 16q18 103 29 204l13 112q7 65 7 95q0 44 -13 65.5t-45 21.5q-69 0 -118.5 -94t-89.5 -249l-16 -66q-13 -57 -21 -81t-17 -24q-10 0 -10 20zM149 577l189 130q5 4 11 4q9 0 9 -8q0 -6 -10 -12
l-197 -117z" />
    <glyph glyph-name="uni0145" unicode="&#x145;" horiz-adv-x="520" 
d="M35 8q0 -2 9 77q20 146 32 270l35 340q1 10 5 10t6 -5l301 -693l36 338q14 140 23 284l5 60q1 9 3.5 12.5t7.5 3.5q9 0 8 -16l-10 -86q-17 -127 -31 -258l-34 -339q-1 -11 -6 -11q-4 0 -6 6l-301 693l-35 -339q-14 -135 -21 -236t-7 -108q-1 -16 -11 -16q-9 0 -9 13z
M151 -203q0 4 6 4q38 0 61.5 11t23.5 54q0 38 -15 83q-1 4 3.5 6t5.5 -2q13 -41 13 -73q0 -54 -28 -72t-59 -18q-11 0 -11 7z" />
    <glyph glyph-name="uni0146" unicode="&#x146;" horiz-adv-x="433" 
d="M53 15q0 27 21 200l22 198q3 29 3 44q0 21 -8 26.5t-34 5.5q-13 0 -17 1.5t-4 5.5q0 9 23 9q25 0 35.5 -8t10.5 -41q0 -14 -3 -35l-6 -51q-18 -155 -27.5 -243t-9.5 -107q0 -15 5 -15t12 23.5t20 76.5q28 113 55 196t71 149t103 66q36 0 50.5 -24.5t14.5 -73.5
q0 -38 -6 -88l-13 -114q-9 -87 -15 -162l-3 -43q-2 -16 -11 -16q-10 0 -8 16q18 103 29 204l13 112q7 65 7 95q0 44 -13 65.5t-45 21.5q-69 0 -118.5 -94t-89.5 -249l-16 -66q-13 -57 -21 -81t-17 -24q-10 0 -10 20zM125 -203q0 4 6 4q38 0 61.5 11t23.5 54q0 38 -15 83
q-1 4 3.5 6t5.5 -2q13 -41 13 -73q0 -54 -28 -72t-59 -18q-11 0 -11 7z" />
    <glyph glyph-name="Ncaron" unicode="&#x147;" horiz-adv-x="520" 
d="M35 8q0 -2 9 77q20 146 32 270l35 340q1 10 5 10t6 -5l301 -693l36 338q14 140 23 284l5 60q1 9 3.5 12.5t7.5 3.5q9 0 8 -16l-10 -86q-17 -127 -31 -258l-34 -339q-1 -11 -6 -11q-4 0 -6 6l-301 693l-35 -339q-14 -135 -21 -236t-7 -108q-1 -16 -11 -16q-9 0 -9 13z
M188 905l8 6l54 -65l65 -80q45 40 106 104q20 22 30 31t16 9q4 0 7 -2.5t3 -6.5t-5 -9l-26 -22q-48 -38 -131 -112q-96 114 -127 147z" />
    <glyph glyph-name="ncaron" unicode="&#x148;" horiz-adv-x="433" 
d="M53 15q0 27 21 200l22 198q3 29 3 44q0 21 -8 26.5t-34 5.5q-13 0 -17 1.5t-4 5.5q0 9 23 9q25 0 35.5 -8t10.5 -41q0 -14 -3 -35l-6 -51q-18 -155 -27.5 -243t-9.5 -107q0 -15 5 -15t12 23.5t20 76.5q28 113 55 196t71 149t103 66q36 0 50.5 -24.5t14.5 -73.5
q0 -38 -6 -88l-13 -114q-9 -87 -15 -162l-3 -43q-2 -16 -11 -16q-10 0 -8 16q18 103 29 204l13 112q7 65 7 95q0 44 -13 65.5t-45 21.5q-69 0 -118.5 -94t-89.5 -249l-16 -66q-13 -57 -21 -81t-17 -24q-10 0 -10 20zM120 705l8 6l54 -65l65 -80q45 40 106 104q20 22 30 31
t16 9q4 0 7 -2.5t3 -6.5t-5 -9l-26 -22q-48 -38 -131 -112q-96 114 -127 147z" />
    <glyph glyph-name="Eng" unicode="&#x14a;" horiz-adv-x="520" 
d="M189 -187q0 7 13 7l24 -2q26 -2 45 -2q58 0 89 21t43 57.5t19 99.5l-304 700l-35 -339q-14 -135 -21 -236t-7 -108q-1 -16 -11 -16q-9 0 -9 13q0 -2 9 77q20 146 32 270l35 340q1 10 5 10t6 -5l301 -693l36 338q14 140 23 284l5 60q1 9 3.5 12.5t7.5 3.5q9 0 8 -16
l-10 -86q-17 -127 -31 -258l-34 -339q-7 -71 -21 -112t-54 -67.5t-118 -26.5q-49 0 -49 13z" />
    <glyph glyph-name="eng" unicode="&#x14b;" horiz-adv-x="431" 
d="M109 -192q0 8 11 8q5 0 21 -2q33 -3 43 -3q58 0 89 22.5t46 68.5t24 130l33 295q7 65 7 95q0 44 -13 65.5t-45 21.5q-69 0 -118.5 -94t-89.5 -249l-16 -66q-13 -57 -21 -81t-17 -24q-10 0 -10 20q0 27 21 200l22 198q3 29 3 44q0 21 -8 26.5t-34 5.5q-13 0 -17 1.5
t-4 5.5q0 9 23 9q25 0 35.5 -8t10.5 -41q0 -14 -3 -35l-6 -51q-18 -155 -27.5 -243t-9.5 -107q0 -15 5 -15t12 23.5t20 76.5q28 113 55 196t71 149t103 66q36 0 50.5 -24.5t14.5 -73.5q0 -38 -6 -88l-34 -292q-10 -91 -27 -141t-55.5 -76t-110.5 -26q-48 0 -48 13z" />
    <glyph glyph-name="Omacron" unicode="&#x14c;" horiz-adv-x="549" 
d="M107 56.5q-47 72.5 -47 201.5q0 108 32.5 214.5t94.5 175t145 68.5q84 0 131 -72.5t47 -201.5q0 -108 -32.5 -214.5t-94.5 -175t-145 -68.5q-84 0 -131 72.5zM112 61.5q45 -71.5 126 -71.5q80 0 140.5 66.5t93 171.5t32.5 214q0 125 -45.5 196.5t-126.5 71.5
q-80 0 -140.5 -66.5t-92.5 -171t-32 -214.5q0 -125 45 -196.5zM198 836h295v-7h-295v7z" />
    <glyph glyph-name="omacron" unicode="&#x14d;" horiz-adv-x="410" 
d="M78 36.5q-32 52.5 -32 146.5q0 79 22.5 156t66.5 127t104 50q61 0 93 -52t32 -146q0 -80 -22.5 -157t-66.5 -127t-104 -50q-61 0 -93 52.5zM83 41q30 -51 88 -51t100.5 48.5t64.5 124.5t22 155q0 91 -30.5 141.5t-88.5 50.5t-100 -48t-64 -123.5t-22 -155.5
q0 -91 30 -142zM107 636h295v-7h-295v7z" />
    <glyph glyph-name="Ohungarumlaut" unicode="&#x150;" horiz-adv-x="549" 
d="M107 56.5q-47 72.5 -47 201.5q0 108 32.5 214.5t94.5 175t145 68.5q84 0 131 -72.5t47 -201.5q0 -108 -32.5 -214.5t-94.5 -175t-145 -68.5q-84 0 -131 72.5zM112 61.5q45 -71.5 126 -71.5q80 0 140.5 66.5t93 171.5t32.5 214q0 125 -45.5 196.5t-126.5 71.5
q-80 0 -140.5 -66.5t-92.5 -171t-32 -214.5q0 -125 45 -196.5zM201 777l189 130q5 4 11 4q9 0 9 -8q0 -6 -10 -12l-197 -117zM333 777l189 130q5 4 11 4q9 0 9 -8q0 -6 -10 -12l-197 -117z" />
    <glyph glyph-name="ohungarumlaut" unicode="&#x151;" horiz-adv-x="410" 
d="M78 36.5q-32 52.5 -32 146.5q0 79 22.5 156t66.5 127t104 50q61 0 93 -52t32 -146q0 -80 -22.5 -157t-66.5 -127t-104 -50q-61 0 -93 52.5zM83 41q30 -51 88 -51t100.5 48.5t64.5 124.5t22 155q0 91 -30.5 141.5t-88.5 50.5t-100 -48t-64 -123.5t-22 -155.5
q0 -91 30 -142zM110 577l189 130q5 4 11 4q9 0 9 -8q0 -6 -10 -12l-197 -117zM242 577l189 130q5 4 11 4q9 0 9 -8q0 -6 -10 -12l-197 -117z" />
    <glyph glyph-name="OE" unicode="&#x152;" horiz-adv-x="805" 
d="M107 56.5q-47 72.5 -47 201.5q0 108 32.5 214.5t94.5 175t145 68.5q48 0 84 -24t59 -70l7 70q1 6 2.5 8t6.5 2t16 -1t26 -1h46l149 1q22 1 51 1q20 0 20 -10q0 -9 -17 -9q-14 0 -46 3q-104 8 -157 8h-91l-8 -82q30 -67 30 -170v-62h36q42 0 122 4l67 2q11 0 14.5 -2
t3.5 -7q0 -9 -19 -9l-67 2q-120 3 -122 3h-60q-15 0 -23.5 -7t-9.5 -23l-29 -270q-6 -57 -6 -66q30 0 56 -4.5t59 -13.5q22 -5 44.5 -9.5t42.5 -4.5q42 0 59 8t30 23q6 8 15 15q5 3 9 3q9 0 9 -7q0 -8 -13.5 -19.5t-39 -20t-60.5 -8.5q-27 0 -51 4t-55 12q-6 1 -37.5 8
t-66.5 7q-11 0 -11 10q0 5 4 23.5t6 42.5l2 23q-33 -54 -79.5 -84.5t-101.5 -30.5q-84 0 -131 72.5zM112 61.5q45 -71.5 126 -71.5q56 0 102 32.5t81 90.5l24 232q2 27 24 32q-8 1 -12.5 8.5t-3.5 23.5l21 202q-22 48 -58 73.5t-84 25.5q-80 0 -140.5 -66.5t-92.5 -171
t-32 -214.5q0 -125 45 -196.5zM465 387q6 -7 21 -7h18v62q0 91 -25 157l-19 -189q-1 -16 5 -23z" />
    <glyph glyph-name="oe" unicode="&#x153;" horiz-adv-x="600" 
d="M80.5 37q-34.5 53 -34.5 146q0 79 24 156t69 127t105 50q36 0 63 -18.5t44 -52.5q23 34 53 52.5t64 18.5q62 0 62 -62q0 -55 -45 -93t-111 -55q0 -64 -18 -129.5t-50 -112.5q28 -74 102 -74q42 0 69 27.5t51 71.5q2 4 8.5 14.5t11 15t8.5 4.5q5 0 5 -7q0 -12 -22.5 -45.5
t-57.5 -60t-74 -26.5q-74 0 -106 74q-53 -74 -125 -74q-61 0 -95.5 53zM85.5 41.5q32.5 -51.5 90.5 -51.5q36 0 67 19.5t56 54.5q-18 47 -18 117q0 74 17.5 142t48.5 116q-16 34 -42 52.5t-61 18.5q-58 0 -101.5 -48.5t-66.5 -124t-23 -154.5q0 -90 32.5 -141.5zM303 71
q31 46 48 108t17 125q-37 -8 -69 -8q-11 -57 -11 -115q0 -66 15 -110zM404 322q52 18 86 52t34 80q0 56 -56 56q-60 0 -104.5 -57.5t-63.5 -149.5q52 1 104 19z" />
    <glyph glyph-name="Racute" unicode="&#x154;" horiz-adv-x="490" 
d="M35 8q0 10 8 68q19 142 29 239q12 108 22 215t15 164q2 8 9 8q5 0 16 -1t26 -1h127q83 0 129 -44.5t46 -131.5q0 -95 -57 -150.5t-156 -55.5q-18 0 -61 5q-22 2 -27 2q-6 0 -7 -1.5t3 -6.5l169 -210q38 -48 73 -78l8.5 -8.5t9 -10.5t2.5 -7q0 -8 -9 -8q-7 0 -15.5 9
t-26.5 35q-37 50 -48 63l-176 219q-5 6 -5 11q0 4 3.5 6.5t8.5 2.5q11 0 31 -5q3 -1 24.5 -5.5t50.5 -4.5q89 0 144 53t55 145q0 85 -44.5 127.5t-125.5 42.5h-167l-40 -379q-13 -122 -17.5 -196t-5.5 -84l-1 -24q-1 -16 -11 -16q-9 0 -9 13zM201 777l189 130q5 4 11 4
q9 0 9 -8q0 -6 -10 -12l-197 -117z" />
    <glyph glyph-name="racute" unicode="&#x155;" horiz-adv-x="325" 
d="M53 15q0 27 21 200l22 198q3 29 3 44q0 21 -8 26.5t-34 5.5q-13 0 -17 1.5t-4 5.5q0 9 23 9q25 0 35.5 -8t10.5 -41q0 -14 -3 -35l-6 -51q-18 -155 -27.5 -243t-9.5 -107q0 -15 5 -15t13 25.5t21 81.5q26 111 50.5 190.5t63.5 142t89 62.5q20 0 20 -9q0 -5 -3.5 -10.5
t-7.5 -5.5t-7 5t-8 5q-58 0 -100 -87.5t-79 -238.5q-9 -34 -15 -63q-13 -58 -21 -83t-17 -25q-10 0 -10 20zM98 577l189 130q5 4 11 4q9 0 9 -8q0 -6 -10 -12l-197 -117z" />
    <glyph glyph-name="uni0156" unicode="&#x156;" horiz-adv-x="490" 
d="M35 8q0 10 8 68q19 142 29 239q12 108 22 215t15 164q2 8 9 8q5 0 16 -1t26 -1h127q83 0 129 -44.5t46 -131.5q0 -95 -57 -150.5t-156 -55.5q-18 0 -61 5q-22 2 -27 2q-6 0 -7 -1.5t3 -6.5l169 -210q38 -48 73 -78l8.5 -8.5t9 -10.5t2.5 -7q0 -8 -9 -8q-7 0 -15.5 9
t-26.5 35q-37 50 -48 63l-176 219q-5 6 -5 11q0 4 3.5 6.5t8.5 2.5q11 0 31 -5q3 -1 24.5 -5.5t50.5 -4.5q89 0 144 53t55 145q0 85 -44.5 127.5t-125.5 42.5h-167l-40 -379q-13 -122 -17.5 -196t-5.5 -84l-1 -24q-1 -16 -11 -16q-9 0 -9 13zM136 -203q0 4 6 4q38 0 61.5 11
t23.5 54q0 38 -15 83q-1 4 3.5 6t5.5 -2q13 -41 13 -73q0 -54 -28 -72t-59 -18q-11 0 -11 7z" />
    <glyph glyph-name="uni0157" unicode="&#x157;" horiz-adv-x="325" 
d="M53 15q0 27 21 200l22 198q3 29 3 44q0 21 -8 26.5t-34 5.5q-13 0 -17 1.5t-4 5.5q0 9 23 9q25 0 35.5 -8t10.5 -41q0 -14 -3 -35l-6 -51q-18 -155 -27.5 -243t-9.5 -107q0 -15 5 -15t13 25.5t21 81.5q26 111 50.5 190.5t63.5 142t89 62.5q20 0 20 -9q0 -5 -3.5 -10.5
t-7.5 -5.5t-7 5t-8 5q-58 0 -100 -87.5t-79 -238.5q-9 -34 -15 -63q-13 -58 -21 -83t-17 -25q-10 0 -10 20zM54 -203q0 4 6 4q38 0 61.5 11t23.5 54q0 38 -15 83q-1 4 3.5 6t5.5 -2q13 -41 13 -73q0 -54 -28 -72t-59 -18q-11 0 -11 7z" />
    <glyph glyph-name="Rcaron" unicode="&#x158;" horiz-adv-x="490" 
d="M35 8q0 10 8 68q19 142 29 239q12 108 22 215t15 164q2 8 9 8q5 0 16 -1t26 -1h127q83 0 129 -44.5t46 -131.5q0 -95 -57 -150.5t-156 -55.5q-18 0 -61 5q-22 2 -27 2q-6 0 -7 -1.5t3 -6.5l169 -210q38 -48 73 -78l8.5 -8.5t9 -10.5t2.5 -7q0 -8 -9 -8q-7 0 -15.5 9
t-26.5 35q-37 50 -48 63l-176 219q-5 6 -5 11q0 4 3.5 6.5t8.5 2.5q11 0 31 -5q3 -1 24.5 -5.5t50.5 -4.5q89 0 144 53t55 145q0 85 -44.5 127.5t-125.5 42.5h-167l-40 -379q-13 -122 -17.5 -196t-5.5 -84l-1 -24q-1 -16 -11 -16q-9 0 -9 13zM172 905l8 6l54 -65l65 -80
q45 40 106 104q20 22 30 31t16 9q4 0 7 -2.5t3 -6.5t-5 -9l-26 -22q-48 -38 -131 -112q-96 114 -127 147z" />
    <glyph glyph-name="rcaron" unicode="&#x159;" horiz-adv-x="325" 
d="M53 15q0 27 21 200l22 198q3 29 3 44q0 21 -8 26.5t-34 5.5q-13 0 -17 1.5t-4 5.5q0 9 23 9q25 0 35.5 -8t10.5 -41q0 -14 -3 -35l-6 -51q-18 -155 -27.5 -243t-9.5 -107q0 -15 5 -15t13 25.5t21 81.5q26 111 50.5 190.5t63.5 142t89 62.5q20 0 20 -9q0 -5 -3.5 -10.5
t-7.5 -5.5t-7 5t-8 5q-58 0 -100 -87.5t-79 -238.5q-9 -34 -15 -63q-13 -58 -21 -83t-17 -25q-10 0 -10 20zM69 705l8 6l54 -65l65 -80q45 40 106 104q20 22 30 31t16 9q4 0 7 -2.5t3 -6.5t-5 -9l-26 -22q-48 -38 -131 -112q-96 114 -127 147z" />
    <glyph glyph-name="Sacute" unicode="&#x15a;" horiz-adv-x="455" 
d="M121 13q-42 29 -61 70t-19 77q0 13 8 13q5 0 7.5 -7t6.5 -27q8 -41 20.5 -71t47 -54t97.5 -24q76 0 121.5 36.5t45.5 99.5q0 40 -19.5 79t-47.5 73t-75 84q-47 49 -75 82.5t-47 71.5t-19 77q0 68 54.5 95.5t145.5 27.5q39 0 67.5 -4.5t28.5 -16.5q0 -8 -12 -8q-9 0 -23 3
q-38 9 -89 9q-72 0 -119 -21.5t-47 -83.5q0 -38 19 -76t46.5 -71.5t74.5 -82.5q48 -52 76 -85.5t47.5 -73t19.5 -79.5q0 -68 -48.5 -105t-122.5 -37q-67 0 -109 29zM136 777l189 130q5 4 11 4q9 0 9 -8q0 -6 -10 -12l-197 -117z" />
    <glyph glyph-name="sacute" unicode="&#x15b;" horiz-adv-x="330" 
d="M58 18.5q-25 34.5 -25 68.5q0 17 4.5 28t11.5 11q5 0 5 -9q0 -6 -2 -17.5t-2 -23.5q0 -38 23.5 -62t76.5 -24q57 0 87 28.5t30 73.5q0 43 -25 81.5t-73 90.5q-47 50 -71 86.5t-24 76.5q0 89 128 89q31 0 53 -5t22 -14q0 -6 -9 -6q-6 0 -11 1l-10 2q-26 8 -61 8
q-105 0 -105 -74q0 -39 23.5 -75t70.5 -88q48 -52 73 -90.5t25 -81.5q0 -48 -32.5 -78.5t-90.5 -30.5q-67 0 -92 34.5zM234 577l189 130q5 4 11 4q9 0 9 -8q0 -6 -10 -12l-197 -117z" />
    <glyph glyph-name="Scedilla" unicode="&#x15e;" horiz-adv-x="455" 
d="M130 -200.5q-33 10.5 -33 22.5q0 6 9 6q8 0 22 -8q21 -10 44 -16.5t56 -6.5q50 0 71.5 16t21.5 38q0 62 -167 62l70 71q-64 1 -105.5 30.5t-59.5 69.5t-18 76q0 13 8 13q5 0 7.5 -7t6.5 -27q8 -41 20.5 -71t47 -54t97.5 -24q76 0 121.5 36.5t45.5 99.5q0 40 -19.5 79
t-47.5 73t-75 84q-47 49 -75 82.5t-47 71.5t-19 77q0 68 54.5 95.5t145.5 27.5q39 0 67.5 -4.5t28.5 -16.5q0 -8 -12 -8q-9 0 -23 3q-38 9 -89 9q-72 0 -119 -21.5t-47 -83.5q0 -38 19 -76t46.5 -71.5t74.5 -82.5q48 -52 76 -85.5t47.5 -73t19.5 -79.5q0 -68 -48.5 -105
t-121.5 -37l-65 -66q161 0 161 -67q0 -25 -26 -43.5t-87 -18.5q-51 0 -84 10.5z" />
    <glyph glyph-name="scedilla" unicode="&#x15f;" horiz-adv-x="330" 
d="M58 18.5q-25 34.5 -25 68.5q0 17 4.5 28t11.5 11q5 0 5 -9q0 -6 -2 -17.5t-2 -23.5q0 -38 23.5 -62t76.5 -24q57 0 87 28.5t30 73.5q0 43 -25 81.5t-73 90.5q-47 50 -71 86.5t-24 76.5q0 89 128 89q31 0 53 -5t22 -14q0 -6 -9 -6q-6 0 -11 1l-10 2q-26 8 -61 8
q-105 0 -105 -74q0 -39 23.5 -75t70.5 -88q48 -52 73 -90.5t25 -81.5q0 -48 -32.5 -78.5t-90.5 -30.5q-67 0 -92 34.5zM181 -200.5q-33 10.5 -33 22.5q0 6 9 6q8 0 22 -8q21 -10 44 -16.5t56 -6.5q50 0 71.5 16t21.5 38q0 62 -167 62l75 76h7l-70 -71q161 0 161 -67
q0 -25 -26 -43.5t-87 -18.5q-51 0 -84 10.5z" />
    <glyph glyph-name="Scaron" unicode="&#x160;" horiz-adv-x="455" 
d="M121 13q-42 29 -61 70t-19 77q0 13 8 13q5 0 7.5 -7t6.5 -27q8 -41 20.5 -71t47 -54t97.5 -24q76 0 121.5 36.5t45.5 99.5q0 40 -19.5 79t-47.5 73t-75 84q-47 49 -75 82.5t-47 71.5t-19 77q0 68 54.5 95.5t145.5 27.5q39 0 67.5 -4.5t28.5 -16.5q0 -8 -12 -8q-9 0 -23 3
q-38 9 -89 9q-72 0 -119 -21.5t-47 -83.5q0 -38 19 -76t46.5 -71.5t74.5 -82.5q48 -52 76 -85.5t47.5 -73t19.5 -79.5q0 -68 -48.5 -105t-122.5 -37q-67 0 -109 29zM107 905l8 6l54 -65l65 -80q45 40 106 104q20 22 30 31t16 9q4 0 7 -2.5t3 -6.5t-5 -9l-26 -22
q-48 -38 -131 -112q-96 114 -127 147z" />
    <glyph glyph-name="scaron" unicode="&#x161;" horiz-adv-x="330" 
d="M58 18.5q-25 34.5 -25 68.5q0 17 4.5 28t11.5 11q5 0 5 -9q0 -6 -2 -17.5t-2 -23.5q0 -38 23.5 -62t76.5 -24q57 0 87 28.5t30 73.5q0 43 -25 81.5t-73 90.5q-47 50 -71 86.5t-24 76.5q0 89 128 89q31 0 53 -5t22 -14q0 -6 -9 -6q-6 0 -11 1l-10 2q-26 8 -61 8
q-105 0 -105 -74q0 -39 23.5 -75t70.5 -88q48 -52 73 -90.5t25 -81.5q0 -48 -32.5 -78.5t-90.5 -30.5q-67 0 -92 34.5zM188 705l8 6l54 -65l65 -80q45 40 106 104q20 22 30 31t16 9q4 0 7 -2.5t3 -6.5t-5 -9l-26 -22q-48 -38 -131 -112q-96 114 -127 147z" />
    <glyph glyph-name="uni0162" unicode="&#x162;" horiz-adv-x="515" 
d="M92 5q0 9 16 9q9 0 28 -2.5t45 -2.5q31 0 41.5 14t14.5 53l65 618h-30q-49 0 -124 -7q-30 -3 -47 -3q-11 0 -15 2t-4 6q0 10 20 10q27 0 47 -1l124 -1h65l123 1q20 1 47 1q19 0 19 -9t-20 -9q-17 0 -47 3q-72 7 -123 7h-29l-65 -621q-3 -30 -10.5 -45.5t-22.5 -19.5h58
q30 0 50 2.5t29 2.5q18 0 18 -8t-20 -8q-8 0 -28 1.5t-50 1.5h-31l-70 -71q161 0 161 -67q0 -25 -26 -43.5t-87 -18.5q-51 0 -84 10.5t-33 22.5q0 6 9 6q8 0 22 -8q21 -10 44 -16.5t56 -6.5q50 0 71.5 16t21.5 38q0 62 -167 62l75 76h-10q-57 0 -81.5 -2t-31.5 -2
q-14 0 -14 9z" />
    <glyph glyph-name="uni0163" unicode="&#x163;" horiz-adv-x="340" 
d="M72 -189.5q-33 10.5 -33 22.5q0 6 9 6q8 0 22 -8q21 -10 44 -16.5t56 -6.5q50 0 71.5 16t21.5 38q0 62 -167 62l64 64h7l-59 -59q161 0 161 -67q0 -25 -26 -43.5t-87 -18.5q-51 0 -84 10.5zM64 505q7 0 20.5 -2.5t35.5 -2.5h58q-15 6 -20.5 17t-5.5 30q0 14 1 22
q4 47 6 95q3 45 2 39q1 7 4 12t7 5q8 0 8 -13q0 -3 -6 -43q-12 -67 -15 -100q-1 -8 -1 -22q0 -22 12.5 -32t48.5 -10q4 0 34 3q16 2 22 2q17 0 17 -8q0 -9 -19 -9q-7 0 -32.5 3t-91.5 3h-26q15 -4 21.5 -15.5t6.5 -31.5q0 -6 -2 -22l-35 -297q-5 -40 -5 -60q0 -35 14 -48
t51 -13q36 0 57.5 8.5t27.5 8.5q7 0 7 -6q0 -10 -26 -16.5t-57 -6.5q-46 0 -63.5 17t-17.5 54q0 23 5 61l35 297q2 18 2 24q0 24 -11 34.5t-36 10.5q-7 0 -17.5 -2.5t-17.5 -2.5q-16 0 -16 9q0 8 18 8z" />
    <glyph glyph-name="Tcaron" unicode="&#x164;" horiz-adv-x="515" 
d="M92 5q0 9 16 9q9 0 28 -2.5t45 -2.5q31 0 41.5 14t14.5 53l65 618h-30q-49 0 -124 -7q-30 -3 -47 -3q-11 0 -15 2t-4 6q0 10 20 10q27 0 47 -1l124 -1h65l123 1q20 1 47 1q19 0 19 -9t-20 -9q-17 0 -47 3q-72 7 -123 7h-29l-65 -621q-3 -30 -10.5 -45.5t-22.5 -19.5h58
q30 0 50 2.5t29 2.5q18 0 18 -8t-20 -8q-8 0 -28 1.5t-50 1.5h-48q-57 0 -81.5 -2t-31.5 -2q-14 0 -14 9zM186 905l8 6l54 -65l65 -80q45 40 106 104q20 22 30 31t16 9q4 0 7 -2.5t3 -6.5t-5 -9l-26 -22q-48 -38 -131 -112q-96 114 -127 147z" />
    <glyph glyph-name="tcaron" unicode="&#x165;" horiz-adv-x="320" 
d="M119.5 12q-17.5 17 -17.5 54q0 23 5 61l35 297q2 18 2 24q0 24 -11 34.5t-36 10.5q-7 0 -17.5 -2.5t-17.5 -2.5q-16 0 -16 9q0 8 18 8q7 0 20.5 -2.5t35.5 -2.5h58q-15 6 -20.5 17t-5.5 30q0 14 1 22q4 47 6 95q3 45 2 39q1 7 4 12t7 5q8 0 8 -13q0 -3 -6 -43
q-12 -67 -15 -100q-1 -8 -1 -22q0 -22 12.5 -32t48.5 -10q4 0 34 3q16 2 22 2q17 0 17 -8q0 -9 -19 -9q-7 0 -32.5 3t-91.5 3h-26q15 -4 21.5 -15.5t6.5 -31.5q0 -6 -2 -22l-35 -297q-5 -40 -5 -60q0 -35 14 -48t51 -13q36 0 57.5 8.5t27.5 8.5q7 0 7 -6q0 -10 -26 -16.5
t-57 -6.5q-46 0 -63.5 17zM229 571q9 96 14 156t6 76l1 22q1 13 10 13q7 0 7 -9q0 -10 -6 -48q-18 -137 -25 -210q-1 -12 -4 -12q-4 0 -3 12z" />
    <glyph glyph-name="Tbar" unicode="&#x166;" horiz-adv-x="515" 
d="M137 517h147l18 177h-30q-49 0 -124 -7q-30 -3 -47 -3q-11 0 -15 2t-4 6q0 10 20 10q27 0 47 -1l124 -1h65l123 1q20 1 47 1q19 0 19 -9t-20 -9q-17 0 -47 3q-72 7 -123 7h-29l-18 -177h144v-6h-145l-46 -438q-3 -30 -10.5 -45.5t-22.5 -19.5h58q30 0 50 2.5t29 2.5
q18 0 18 -8t-20 -8q-8 0 -28 1.5t-50 1.5h-48q-57 0 -81.5 -2t-31.5 -2q-14 0 -14 9t16 9q9 0 28 -2.5t45 -2.5q31 0 41.5 14t14.5 53l46 435h-146v6z" />
    <glyph glyph-name="tbar" unicode="&#x167;" horiz-adv-x="320" 
d="M36 397h103l3 27q2 18 2 24q0 24 -11 34.5t-36 10.5q-7 0 -17.5 -2.5t-17.5 -2.5q-16 0 -16 9q0 8 18 8q7 0 20.5 -2.5t35.5 -2.5h58q-15 6 -20.5 17t-5.5 30q0 14 1 22q4 47 6 95q3 45 2 39q1 7 4 12t7 5q8 0 8 -13q0 -3 -6 -43q-12 -67 -15 -100q-1 -8 -1 -22
q0 -22 12.5 -32t48.5 -10q4 0 34 3q16 2 22 2q17 0 17 -8q0 -9 -19 -9q-7 0 -32.5 3t-91.5 3h-26q15 -4 21.5 -15.5t6.5 -31.5q0 -6 -2 -22l-3 -28h128v-6h-129l-31 -263q-5 -40 -5 -60q0 -35 14 -48t51 -13q36 0 57.5 8.5t27.5 8.5q7 0 7 -6q0 -10 -26 -16.5t-57 -6.5
q-46 0 -63.5 17t-17.5 54q0 23 5 61l31 264h-102v6z" />
    <glyph glyph-name="Utilde" unicode="&#x168;" horiz-adv-x="570" 
d="M65 207q0 29 5 74l17 156q13 108 18 225l1 27q1 16 11 16q9 0 9 -13q0 -5 -9 -75q-19 -140 -23 -180l-18 -156q-4 -35 -4 -73q0 -109 46 -163.5t140 -54.5q113 0 170 71.5t73 219.5l17 156q12 104 16 207l3 45q1 9 3.5 12.5t7.5 3.5q8 0 8 -12q0 -15 -9 -71
q-17 -128 -23 -185l-17 -156q-16 -150 -75 -223.5t-175 -73.5q-192 0 -192 223zM370.5 803.5q-10.5 8.5 -25.5 26.5q-13 17 -23 25t-25 8q-18 0 -28.5 -10.5t-20.5 -28.5q-8 -17 -14 -17q-2 0 -3.5 2t-1.5 5q0 10 8.5 23.5t23 23t33.5 9.5q17 0 28.5 -9t24.5 -26t22.5 -24.5
t24.5 -7.5q19 0 29.5 10.5t20.5 28.5q1 2 5 9t8 7q6 0 6 -7q0 -8 -8.5 -22t-23.5 -24t-33 -10q-17 0 -27.5 8.5z" />
    <glyph glyph-name="utilde" unicode="&#x169;" horiz-adv-x="433" 
d="M62.5 8.5q-14.5 24.5 -14.5 73.5q0 39 6 88l13 114q9 87 15 162l3 43q2 16 11 16q5 0 7.5 -4.5t0.5 -11.5q-18 -103 -29 -204l-13 -112q-7 -65 -7 -95q0 -44 13 -65.5t45 -21.5q70 0 119 94.5t89 249.5l16 66q15 61 22 82.5t16 21.5q10 0 10 -19q0 -28 -21 -201l-22 -198
q-3 -28 -3 -44q0 -21 8 -26t34 -5q12 0 16.5 -1.5t4.5 -5.5q0 -10 -23 -10q-25 0 -35.5 8t-10.5 41q0 15 3 36l5 43q18 158 28 248t10 110q0 15 -5 15t-12 -23.5t-20 -76.5q-28 -114 -55 -197t-71 -149t-103 -66q-36 0 -50.5 24.5zM286.5 603.5q-10.5 8.5 -25.5 26.5
q-13 17 -23 25t-25 8q-18 0 -28.5 -10.5t-20.5 -28.5q-8 -17 -14 -17q-2 0 -3.5 2t-1.5 5q0 10 8.5 23.5t23 23t33.5 9.5q17 0 28.5 -9t24.5 -26t22.5 -24.5t24.5 -7.5q19 0 29.5 10.5t20.5 28.5q1 2 5 9t8 7q6 0 6 -7q0 -8 -8.5 -22t-23.5 -24t-33 -10q-17 0 -27.5 8.5z
" />
    <glyph glyph-name="Umacron" unicode="&#x16a;" horiz-adv-x="570" 
d="M65 207q0 29 5 74l17 156q13 108 18 225l1 27q1 16 11 16q9 0 9 -13q0 -5 -9 -75q-19 -140 -23 -180l-18 -156q-4 -35 -4 -73q0 -109 46 -163.5t140 -54.5q113 0 170 71.5t73 219.5l17 156q12 104 16 207l3 45q1 9 3.5 12.5t7.5 3.5q8 0 8 -12q0 -15 -9 -71
q-17 -128 -23 -185l-17 -156q-16 -150 -75 -223.5t-175 -73.5q-192 0 -192 223zM204 836h295v-7h-295v7z" />
    <glyph glyph-name="umacron" unicode="&#x16b;" horiz-adv-x="433" 
d="M62.5 8.5q-14.5 24.5 -14.5 73.5q0 39 6 88l13 114q9 87 15 162l3 43q2 16 11 16q5 0 7.5 -4.5t0.5 -11.5q-18 -103 -29 -204l-13 -112q-7 -65 -7 -95q0 -44 13 -65.5t45 -21.5q70 0 119 94.5t89 249.5l16 66q15 61 22 82.5t16 21.5q10 0 10 -19q0 -28 -21 -201l-22 -198
q-3 -28 -3 -44q0 -21 8 -26t34 -5q12 0 16.5 -1.5t4.5 -5.5q0 -10 -23 -10q-25 0 -35.5 8t-10.5 41q0 15 3 36l5 43q18 158 28 248t10 110q0 15 -5 15t-12 -23.5t-20 -76.5q-28 -114 -55 -197t-71 -149t-103 -66q-36 0 -50.5 24.5zM119 636h295v-7h-295v7z" />
    <glyph glyph-name="ubreve" unicode="&#x16d;" horiz-adv-x="433" 
d="M62.5 8.5q-14.5 24.5 -14.5 73.5q0 39 6 88l13 114q9 87 15 162l3 43q2 16 11 16q5 0 7.5 -4.5t0.5 -11.5q-18 -103 -29 -204l-13 -112q-7 -65 -7 -95q0 -44 13 -65.5t45 -21.5q70 0 119 94.5t89 249.5l16 66q15 61 22 82.5t16 21.5q10 0 10 -19q0 -28 -21 -201l-22 -198
q-3 -28 -3 -44q0 -21 8 -26t34 -5q12 0 16.5 -1.5t4.5 -5.5q0 -10 -23 -10q-25 0 -35.5 8t-10.5 41q0 15 3 36l5 43q18 158 28 248t10 110q0 15 -5 15t-12 -23.5t-20 -76.5q-28 -114 -55 -197t-71 -149t-103 -66q-36 0 -50.5 24.5zM175 603q-29 27 -29 66q0 16 4.5 25t8.5 9
t4 -5q0 -4 -1 -9.5t-1 -15.5q0 -40 24.5 -65t74.5 -25q51 0 80.5 28t29.5 73q0 9 -2 21h6q2 -12 2 -21q0 -46 -29.5 -77t-87.5 -31q-55 0 -84 27z" />
    <glyph glyph-name="Uring" unicode="&#x16e;" horiz-adv-x="570" 
d="M65 207q0 29 5 74l17 156q13 108 18 225l1 27q1 16 11 16q9 0 9 -13q0 -5 -9 -75q-19 -140 -23 -180l-18 -156q-4 -35 -4 -73q0 -109 46 -163.5t140 -54.5q113 0 170 71.5t73 219.5l17 156q12 104 16 207l3 45q1 9 3.5 12.5t7.5 3.5q8 0 8 -12q0 -15 -9 -71
q-17 -128 -23 -185l-17 -156q-16 -150 -75 -223.5t-175 -73.5q-192 0 -192 223zM312 807q-14 14 -14 34t14 34t34 14t34 -14t14 -34t-14 -34t-34 -14t-34 14zM316.5 812q11.5 -12 29.5 -12t30 12t12 29q0 18 -12 30t-30 12t-29.5 -12t-11.5 -30q0 -17 11.5 -29z" />
    <glyph glyph-name="uring" unicode="&#x16f;" horiz-adv-x="433" 
d="M62.5 8.5q-14.5 24.5 -14.5 73.5q0 39 6 88l13 114q9 87 15 162l3 43q2 16 11 16q5 0 7.5 -4.5t0.5 -11.5q-18 -103 -29 -204l-13 -112q-7 -65 -7 -95q0 -44 13 -65.5t45 -21.5q70 0 119 94.5t89 249.5l16 66q15 61 22 82.5t16 21.5q10 0 10 -19q0 -28 -21 -201l-22 -198
q-3 -28 -3 -44q0 -21 8 -26t34 -5q12 0 16.5 -1.5t4.5 -5.5q0 -10 -23 -10q-25 0 -35.5 8t-10.5 41q0 15 3 36l5 43q18 158 28 248t10 110q0 15 -5 15t-12 -23.5t-20 -76.5q-28 -114 -55 -197t-71 -149t-103 -66q-36 0 -50.5 24.5zM228 607q-14 14 -14 34t14 34t34 14
t34 -14t14 -34t-14 -34t-34 -14t-34 14zM232.5 612q11.5 -12 29.5 -12t30 12t12 29q0 18 -12 30t-30 12t-29.5 -12t-11.5 -30q0 -17 11.5 -29z" />
    <glyph glyph-name="Uhungarumlaut" unicode="&#x170;" horiz-adv-x="570" 
d="M65 207q0 29 5 74l17 156q13 108 18 225l1 27q1 16 11 16q9 0 9 -13q0 -5 -9 -75q-19 -140 -23 -180l-18 -156q-4 -35 -4 -73q0 -109 46 -163.5t140 -54.5q113 0 170 71.5t73 219.5l17 156q12 104 16 207l3 45q1 9 3.5 12.5t7.5 3.5q8 0 8 -12q0 -15 -9 -71
q-17 -128 -23 -185l-17 -156q-16 -150 -75 -223.5t-175 -73.5q-192 0 -192 223zM207 777l189 130q5 4 11 4q9 0 9 -8q0 -6 -10 -12l-197 -117zM339 777l189 130q5 4 11 4q9 0 9 -8q0 -6 -10 -12l-197 -117z" />
    <glyph glyph-name="uhungarumlaut" unicode="&#x171;" horiz-adv-x="433" 
d="M62.5 8.5q-14.5 24.5 -14.5 73.5q0 39 6 88l13 114q9 87 15 162l3 43q2 16 11 16q5 0 7.5 -4.5t0.5 -11.5q-18 -103 -29 -204l-13 -112q-7 -65 -7 -95q0 -44 13 -65.5t45 -21.5q70 0 119 94.5t89 249.5l16 66q15 61 22 82.5t16 21.5q10 0 10 -19q0 -28 -21 -201l-22 -198
q-3 -28 -3 -44q0 -21 8 -26t34 -5q12 0 16.5 -1.5t4.5 -5.5q0 -10 -23 -10q-25 0 -35.5 8t-10.5 41q0 15 3 36l5 43q18 158 28 248t10 110q0 15 -5 15t-12 -23.5t-20 -76.5q-28 -114 -55 -197t-71 -149t-103 -66q-36 0 -50.5 24.5zM123 577l189 130q5 4 11 4q9 0 9 -8
q0 -6 -10 -12l-197 -117zM255 577l189 130q5 4 11 4q9 0 9 -8q0 -6 -10 -12l-197 -117z" />
    <glyph glyph-name="Uogonek" unicode="&#x172;" horiz-adv-x="570" 
d="M240.5 -151.5q-27.5 20.5 -27.5 54.5q0 26 17 47.5t52 34.5q-8 -1 -25 -1q-192 0 -192 223q0 29 5 74l17 156q13 108 18 225l1 27q1 16 11 16q9 0 9 -13q0 -5 -9 -75q-19 -140 -23 -180l-18 -156q-4 -35 -4 -73q0 -109 46 -163.5t140 -54.5q113 0 170 71.5t73 219.5
l17 156q12 104 16 207l3 45q1 9 3.5 12.5t7.5 3.5q8 0 8 -12q0 -15 -9 -71q-17 -128 -23 -185l-17 -156q-14 -131 -60.5 -203.5t-134.5 -88.5q-93 -24 -93 -86q0 -30 23 -48.5t69 -18.5q29 0 47.5 6t37.5 16q2 1 9 5t13 4q10 0 10 -8q0 -10 -29 -20.5t-73 -10.5
q-58 0 -85.5 20.5z" />
    <glyph glyph-name="uogonek" unicode="&#x173;" horiz-adv-x="433" 
d="M236.5 -149q-24.5 23 -24.5 57q0 37 33 62.5t102 30.5q-14 9 -14 43q0 15 3 36l5 43q18 158 28 248t10 110q0 15 -5 15t-12 -23.5t-20 -76.5q-28 -114 -55 -197t-71 -149t-103 -66q-36 0 -50.5 24.5t-14.5 73.5q0 39 6 88l13 114q9 87 15 162l3 43q2 16 11 16
q5 0 7.5 -4.5t0.5 -11.5q-18 -103 -29 -204l-13 -112q-7 -65 -7 -95q0 -44 13 -65.5t45 -21.5q70 0 119 94.5t89 249.5l16 66q15 61 22 82.5t16 21.5q10 0 10 -19q0 -28 -21 -201l-22 -198q-3 -28 -3 -44q0 -21 8 -26t34 -5q12 0 16.5 -1.5t4.5 -5.5q0 -10 -23 -10
q-84 0 -122 -24.5t-38 -62.5q0 -30 20 -51t60 -21q19 0 31 5.5t27 15.5q12 10 20 10q10 0 10 -8q0 -10 -22 -20.5t-53 -10.5q-51 0 -75.5 23z" />
    <glyph glyph-name="Wcircumflex" unicode="&#x174;" horiz-adv-x="800" 
d="M103 644q-1 7 -10 46l-1 6q0 12 11 12q10 0 12 -17q23 -154 48 -297l70 -397q75 139 120 221l60 109l-12 65q-18 106 -45 234q-4 25 -7.5 40.5t-4.5 23.5q-2 12 21 19t61 7q123 0 123 -85q0 -39 -32 -112t-97 -193l58 -329q53 102 130 240q97 176 138 261.5t41 132.5
q0 37 -25.5 52t-71.5 15q-23 0 -46 -2.5t-29 -3.5q-15 -3 -22 -3q-10 0 -10 7q0 9 26 14.5t60 5.5q125 0 125 -85q0 -50 -50.5 -152.5t-167.5 -313.5q-39 -73 -98 -179h-5l-58 330l-40 -72q-71 -127 -142 -258h-5l-72 406q-16 93 -53 252zM367 627l41 -233l10 -57
q63 114 93.5 184t30.5 110q0 37 -26.5 52t-78.5 15q-33 0 -56.5 -4.5t-22.5 -11.5q3 -11 9 -55zM508 772q0 5 4 9l28 23q71 59 129 111l110 -128l17 -19l-8 -6l-26 32l-93 113q-45 -40 -106 -104q-20 -22 -30 -31t-16 -9q-9 0 -9 9z" />
    <glyph glyph-name="wcircumflex" unicode="&#x175;" horiz-adv-x="585" 
d="M68 463l-6 28l-1 5q0 9 8 9t10 -12l10 -61q7 -48 25 -153l50 -284q38 70 58 105l73 135l-8 43l-31 162l-11 54q-1 6 17.5 10.5t46.5 4.5q38 0 59.5 -12.5t21.5 -45.5q0 -28 -22 -81t-67 -136l43 -239q47 87 87 159q73 133 103.5 197t30.5 100q0 25 -16.5 34.5t-50.5 9.5
q-21 0 -37.5 -3t-23.5 -3q-6 0 -6 5q0 15 54 15q40 0 63 -12.5t23 -45.5q0 -39 -38.5 -117.5t-131.5 -245.5l-57 -102h-4l-44 240q-19 -36 -99 -183q-6 -11 -32 -57h-5l-53 292q-13 72 -39 185zM261 454q20 -105 32 -175l6 -36q43 80 64 129.5t21 78.5q0 25 -18.5 34.5
t-56.5 9.5q-55 0 -54 -11zM178 572q0 5 4 9l28 23q71 59 129 111l110 -128l17 -19l-8 -6l-26 32l-93 113q-45 -40 -106 -104q-20 -22 -30 -31t-16 -9q-9 0 -9 9z" />
    <glyph glyph-name="Ycircumflex" unicode="&#x176;" horiz-adv-x="525" 
d="M122.5 -192q-54.5 22 -54.5 75q0 38 36 100t102 153l-49 256q-22 116 -52 246l-12 52l-1 6q0 12 11 12q10 0 12 -17q1 -8 13 -91.5t36 -205.5l48 -250l65 87q116 153 176 248t60 156q0 35 -29.5 49t-91.5 14q-45 0 -87 -7l-22 -2q-11 0 -11 7q0 10 26.5 15t70.5 5
q72 0 111.5 -18t39.5 -63q0 -44 -32.5 -108t-80 -131t-124.5 -169q-104 -138 -155.5 -218t-51.5 -128q0 -45 43.5 -60t112.5 -15q59 0 102 9q10 1 16.5 1.5t8.5 -1.5q1 -1 1 -3q0 -8 -8 -11q-12 -5 -37.5 -10t-65.5 -5q-72 0 -126.5 22zM174 772q0 5 4 9l28 23
q71 59 129 111l110 -128l17 -19l-8 -6l-26 32l-93 113q-45 -40 -106 -104q-20 -22 -30 -31t-16 -9q-9 0 -9 9z" />
    <glyph glyph-name="ycircumflex" unicode="&#x177;" horiz-adv-x="403" 
d="M83.5 -193q-42.5 16 -42.5 54q0 28 22.5 70.5t63.5 101.5l-33 247q-7 57 -26 166l-7 47v3q0 9 9 9q8 0 9 -12l4 -40q1 -14 6 -66t12 -106l31 -242l70 96q88 118 133.5 191.5t45.5 122.5q0 27 -24 37.5t-72 10.5q-29 0 -51 -3.5t-30 -3.5q-9 0 -9 6q0 7 19.5 11t51.5 4
q58 0 90 -13.5t32 -48.5q0 -50 -45.5 -123.5t-135.5 -193.5q-80 -108 -119.5 -170.5t-39.5 -101.5q0 -32 34.5 -43t86.5 -11q40 0 68.5 5.5t31.5 2.5q1 -1 1 -3t-1.5 -4t-3.5 -3q-7 -4 -29 -8.5t-57 -4.5q-53 0 -95.5 16zM97 572q0 5 4 9l28 23q71 59 129 111l110 -128
l17 -19l-8 -6l-26 32l-93 113q-45 -40 -106 -104q-20 -22 -30 -31t-16 -9q-9 0 -9 9z" />
    <glyph glyph-name="Ydieresis" unicode="&#x178;" horiz-adv-x="525" 
d="M122.5 -192q-54.5 22 -54.5 75q0 38 36 100t102 153l-49 256q-22 116 -52 246l-12 52l-1 6q0 12 11 12q10 0 12 -17q1 -8 13 -91.5t36 -205.5l48 -250l65 87q116 153 176 248t60 156q0 35 -29.5 49t-91.5 14q-45 0 -87 -7l-22 -2q-11 0 -11 7q0 10 26.5 15t70.5 5
q72 0 111.5 -18t39.5 -63q0 -44 -32.5 -108t-80 -131t-124.5 -169q-104 -138 -155.5 -218t-51.5 -128q0 -45 43.5 -60t112.5 -15q59 0 102 9q10 1 16.5 1.5t8.5 -1.5q1 -1 1 -3q0 -8 -8 -11q-12 -5 -37.5 -10t-65.5 -5q-72 0 -126.5 22zM240 824q-7 7 -7 17t7 17t17 7t17 -7
t7 -17t-7 -17t-17 -7t-17 7zM382 824q-7 7 -7 17t7 17t17 7t17 -7t7 -17t-7 -17t-17 -7t-17 7z" />
    <glyph glyph-name="Zacute" unicode="&#x179;" horiz-adv-x="545" 
d="M18.5 -3q-4.5 2 -4.5 8q0 9 21 9q23 0 54 26t60 84l235 468q23 47 44.5 69t44.5 31q-34 2 -88 2h-47q-76 0 -183 -8q-28 -3 -43 -3q-19 0 -19 10q0 9 22 9q24 0 43 -1l181 -1h47q59 0 84 3t34 3q11 0 16 -1.5t5 -7.5q0 -11 -26 -11q-28 0 -53.5 -18.5t-56.5 -79.5
l-233 -465q-50 -98 -104 -114q34 -2 97 -2h222q47 0 73.5 15t26.5 53q0 28 -15 76q-2 8 -2 11q0 11 9 11q5 0 8 -3.5t6 -13.5q11 -33 11 -62q0 -94 -110 -94h-230q-65 0 -95 -4l-20 -1q-10 0 -14.5 2zM221 776l189 130q5 4 11 4q9 0 9 -8q0 -6 -10 -12l-197 -117z" />
    <glyph glyph-name="zacute" unicode="&#x17a;" horiz-adv-x="405" 
d="M14 5q0 8 17 8q19 0 39 16.5t39 54.5l172 343q27 54 57 64q-13 3 -66 3h-93q-41 0 -60.5 -3t-27.5 -3q-18 0 -18 7q0 9 20 9q8 0 26.5 -2t59.5 -2h93q45 0 63.5 2t24.5 2q18 0 18 -6q0 -5 -5 -7t-15 -2q-19 0 -36 -13.5t-36 -51.5l-171 -341q-28 -57 -63 -73q12 -3 67 -3
h148q34 0 48 10.5t14 33.5q0 18 -10 56q-1 3 -1 8q0 8 7 8q6 0 10 -12q10 -27 10 -49q0 -28 -18 -45t-57 -17h-153q-45 0 -63 -2t-24 -2q-16 0 -16 9zM137 577l189 130q5 4 11 4q9 0 9 -8q0 -6 -10 -12l-197 -117z" />
    <glyph glyph-name="Zdotaccent" unicode="&#x17b;" horiz-adv-x="545" 
d="M18.5 -3q-4.5 2 -4.5 8q0 9 21 9q23 0 54 26t60 84l235 468q23 47 44.5 69t44.5 31q-34 2 -88 2h-47q-76 0 -183 -8q-28 -3 -43 -3q-19 0 -19 10q0 9 22 9q24 0 43 -1l181 -1h47q59 0 84 3t34 3q11 0 16 -1.5t5 -7.5q0 -11 -26 -11q-28 0 -53.5 -18.5t-56.5 -79.5
l-233 -465q-50 -98 -104 -114q34 -2 97 -2h222q47 0 73.5 15t26.5 53q0 28 -15 76q-2 8 -2 11q0 11 9 11q5 0 8 -3.5t6 -13.5q11 -33 11 -62q0 -94 -110 -94h-230q-65 0 -95 -4l-20 -1q-10 0 -14.5 2zM311 823q-7 7 -7 17t7 17t17 7t17 -7t7 -17t-7 -17t-17 -7t-17 7z" />
    <glyph glyph-name="zdotaccent" unicode="&#x17c;" horiz-adv-x="405" 
d="M14 5q0 8 17 8q19 0 39 16.5t39 54.5l172 343q27 54 57 64q-13 3 -66 3h-93q-41 0 -60.5 -3t-27.5 -3q-18 0 -18 7q0 9 20 9q8 0 26.5 -2t59.5 -2h93q45 0 63.5 2t24.5 2q18 0 18 -6q0 -5 -5 -7t-15 -2q-19 0 -36 -13.5t-36 -51.5l-171 -341q-28 -57 -63 -73q12 -3 67 -3
h148q34 0 48 10.5t14 33.5q0 18 -10 56q-1 3 -1 8q0 8 7 8q6 0 10 -12q10 -27 10 -49q0 -28 -18 -45t-57 -17h-153q-45 0 -63 -2t-24 -2q-16 0 -16 9zM227 624q-7 7 -7 17t7 17t17 7t17 -7t7 -17t-7 -17t-17 -7t-17 7z" />
    <glyph glyph-name="Zcaron" unicode="&#x17d;" horiz-adv-x="545" 
d="M18.5 -3q-4.5 2 -4.5 8q0 9 21 9q23 0 54 26t60 84l235 468q23 47 44.5 69t44.5 31q-34 2 -88 2h-47q-76 0 -183 -8q-28 -3 -43 -3q-19 0 -19 10q0 9 22 9q24 0 43 -1l181 -1h47q59 0 84 3t34 3q11 0 16 -1.5t5 -7.5q0 -11 -26 -11q-28 0 -53.5 -18.5t-56.5 -79.5
l-233 -465q-50 -98 -104 -114q34 -2 97 -2h222q47 0 73.5 15t26.5 53q0 28 -15 76q-2 8 -2 11q0 11 9 11q5 0 8 -3.5t6 -13.5q11 -33 11 -62q0 -94 -110 -94h-230q-65 0 -95 -4l-20 -1q-10 0 -14.5 2zM192 904l8 6l54 -65l65 -80q45 40 106 104q20 22 30 31t16 9q4 0 7 -2.5
t3 -6.5t-5 -9l-26 -22q-48 -38 -131 -112q-96 114 -127 147z" />
    <glyph glyph-name="zcaron" unicode="&#x17e;" horiz-adv-x="405" 
d="M14 5q0 8 17 8q19 0 39 16.5t39 54.5l172 343q27 54 57 64q-13 3 -66 3h-93q-41 0 -60.5 -3t-27.5 -3q-18 0 -18 7q0 9 20 9q8 0 26.5 -2t59.5 -2h93q45 0 63.5 2t24.5 2q18 0 18 -6q0 -5 -5 -7t-15 -2q-19 0 -36 -13.5t-36 -51.5l-171 -341q-28 -57 -63 -73q12 -3 67 -3
h148q34 0 48 10.5t14 33.5q0 18 -10 56q-1 3 -1 8q0 8 7 8q6 0 10 -12q10 -27 10 -49q0 -28 -18 -45t-57 -17h-153q-45 0 -63 -2t-24 -2q-16 0 -16 9zM108 705l8 6l54 -65l65 -80q45 40 106 104q20 22 30 31t16 9q4 0 7 -2.5t3 -6.5t-5 -9l-26 -22q-48 -38 -131 -112
q-96 114 -127 147z" />
    <glyph glyph-name="longs" unicode="&#x17f;" horiz-adv-x="240" 
d="M25 6q0 11 6 41q2 12 8 48.5t10 79.5l41 387q8 73 18 110t33 54.5t67 17.5q38 0 38 -10q0 -7 -11 -7q-13 0 -20 1l-37 1q-28 0 -43 -17t-23.5 -52.5t-15.5 -101.5l-41 -383q-11 -101 -11 -167q0 -5 -3 -9t-7 -4q-9 0 -9 11z" />
    <glyph glyph-name="florin" unicode="&#x192;" horiz-adv-x="490" 
d="M374 496q-54 2 -96 2l-53 -506q-8 -79 -20.5 -116.5t-48 -56.5t-110.5 -19q-42 0 -42 11q0 6 11 6q8 0 23.5 -1t39.5 -1q59 0 86 17t37 51.5t18 112.5l52 502q-41 1 -152 1q-4 0 -4 3t4 3l153 1l4 36q8 80 20.5 120t48.5 61t110 21q41 0 41 -10q0 -7 -11 -7q-9 0 -23.5 1
t-37.5 1q-58 0 -86 -19.5t-38 -56t-18 -115.5l-3 -32l71 2q78 2 96 2q14 0 18.5 -2t4.5 -6t-4.5 -5.5t-18.5 -1.5z" />
    <glyph glyph-name="Ohorn" unicode="&#x1a0;" horiz-adv-x="549" 
d="M404 699q51 -27 78.5 -93.5t27.5 -163.5q0 -108 -32.5 -214.5t-94.5 -175t-145 -68.5q-84 0 -131 72.5t-47 201.5q0 108 32.5 214.5t94.5 175t145 68.5q27 0 48 -7q55 -12 77 -12q32 0 41.5 21.5t9.5 56.5q0 25 -7 48l-1 4q0 3 2 5.5t6 2.5q7 0 10 -14t3 -32
q0 -44 -15.5 -71t-48.5 -27q-21 0 -53 8zM112 61.5q45 -71.5 126 -71.5q80 0 140.5 66.5t93 171.5t32.5 214q0 125 -45.5 196.5t-126.5 71.5q-80 0 -140.5 -66.5t-92.5 -171t-32 -214.5q0 -125 45 -196.5z" />
    <glyph glyph-name="ohorn" unicode="&#x1a1;" horiz-adv-x="414" 
d="M293 502q35 -20 53 -67t18 -117q0 -80 -22.5 -157t-66.5 -127t-104 -50q-61 0 -93 52.5t-32 146.5q0 79 22.5 156t66.5 127t104 50q15 0 28 -3q48 -10 68 -10q32 0 41.5 21.5t9.5 56.5q0 25 -7 48l-1 4q0 3 2 5.5t6 2.5q7 0 10 -14t3 -32q0 -44 -15.5 -71t-48.5 -27
q-17 0 -42 5zM83 41q30 -51 88 -51t100.5 48.5t64.5 124.5t22 155q0 91 -30.5 141.5t-88.5 50.5t-100 -48t-64 -123.5t-22 -155.5q0 -91 30 -142z" />
    <glyph glyph-name="Uhorn" unicode="&#x1af;" horiz-adv-x="570" 
d="M65 207q0 29 5 74l17 156q13 108 18 225l1 27q1 16 11 16q9 0 9 -13q0 -5 -9 -75q-19 -140 -23 -180l-18 -156q-4 -35 -4 -73q0 -109 46 -163.5t140 -54.5q113 0 170 71.5t73 219.5l17 156q12 104 16 207l3 45q1 9 3.5 12.5t7.5 3.5h13q39 0 50.5 20.5t11.5 55.5
q0 25 -7 48l-1 4q0 3 2 5.5t6 2.5q7 0 10 -14t3 -32q0 -96 -75 -96h-5v-10l-8 -63q-2 -17 -10 -72.5t-14 -116.5l-17 -156q-16 -150 -75 -223.5t-175 -73.5q-192 0 -192 223z" />
    <glyph glyph-name="uhorn" unicode="&#x1b0;" horiz-adv-x="433" 
d="M62.5 8.5q-14.5 24.5 -14.5 73.5q0 39 6 88l13 114q9 87 15 162l3 43q2 16 11 16q5 0 7.5 -4.5t0.5 -11.5q-18 -103 -29 -204l-13 -112q-7 -65 -7 -95q0 -44 13 -65.5t45 -21.5q70 0 119 94.5t89 249.5l16 66q15 61 22 82.5t16 21.5h13q39 0 50.5 20.5t11.5 55.5
q0 25 -7 48l-1 4q0 3 2 5.5t6 2.5q7 0 10 -14t3 -32q0 -96 -75 -96h-5q2 -3 2 -13q0 -28 -21 -201l-22 -198q-3 -28 -3 -44q0 -21 8 -26t34 -5q12 0 16.5 -1.5t4.5 -5.5q0 -10 -23 -10q-25 0 -35.5 8t-10.5 41q0 15 3 36l5 43q18 158 28 248t10 110q0 15 -5 15t-12 -23.5
t-20 -76.5q-28 -114 -55 -197t-71 -149t-103 -66q-36 0 -50.5 24.5z" />
    <glyph glyph-name="uni01CD" unicode="&#x1cd;" horiz-adv-x="565" 
d="M91.5 8.5q-23.5 16.5 -39 45t-15.5 63.5q0 53 35 91t100 38q67 0 138.5 -53t170.5 -187l-14 79l-53 289l-60 331l-87 -163q-51 -95 -91 -183l-18 -36q-6 -11 -12 -11q-4 0 -6.5 2.5t-2.5 6.5t3 8q41 64 121 214l93 173h3l63 -340q30 -163 66 -328l7 -33q1 -3 1 -9
q0 -11 -8 -11q-7 0 -12 8q-90 122 -160.5 179t-141.5 57q-64 0 -96 -36.5t-32 -84.5q0 -73 78 -103q25 -9 25 -17q0 -6 -10 -6q-22 0 -45.5 16.5zM234 905l8 6l54 -65l65 -80q45 40 106 104q20 22 30 31t16 9q4 0 7 -2.5t3 -6.5t-5 -9l-26 -22q-48 -38 -131 -112
q-96 114 -127 147z" />
    <glyph glyph-name="uni01CE" unicode="&#x1ce;" horiz-adv-x="400" 
d="M42 144q0 85 25.5 170.5t80.5 143.5t138 58q16 0 66 -4l-46 -425q-3 -27 -3 -43q0 -22 9 -27.5t36 -5.5q12 0 16.5 -1.5t4.5 -5.5q0 -10 -23 -10q-26 0 -38 10t-12 44q0 21 2 34l22 180q-25 -122 -70 -200t-115 -78q-93 0 -93 160zM71 27q22 -37 65 -37q58 0 99 60.5
t63 141t30 150.5l16 154q-46 6 -78 6q-71 0 -120 -55t-73 -138t-24 -165q0 -80 22 -117zM128 705l8 6l54 -65l65 -80q45 40 106 104q20 22 30 31t16 9q4 0 7 -2.5t3 -6.5t-5 -9l-26 -22q-48 -38 -131 -112q-96 114 -127 147z" />
    <glyph glyph-name="uni01E4" unicode="&#x1e4;" horiz-adv-x="485" 
d="M152 122q-4 2 -4 6q0 5 4 7t15 2l84 -2q23 -1 136 -4q30 74 39 165q1 19 11 19t7 -19q-6 -37 -11 -86l-2 -21l-5 -58h16q11 0 27 2l22 1q6 0 6 -6t-6 -6l-22 1q-16 2 -27 2h-17q-4 -49 -4.5 -77t-0.5 -37q-1 -16 -11 -16q-8 0 -8 12q0 14 6 47q7 39 11 71h-16h-11
q-31 -72 -75.5 -106.5t-97.5 -34.5q-77 0 -117 69.5t-40 205.5q0 116 31.5 220t100 170.5t175.5 66.5q32 0 53 -5t21 -16q0 -8 -12 -8q-4 0 -22 4q-4 1 -22 4.5t-45 3.5q-92 0 -153.5 -63t-91 -163.5t-29.5 -214.5q0 -268 152 -268q58 0 98.5 37t66.5 98l-129 -3l-88 -2
q-11 0 -15 2zM402 131h16q5 34 9 79l7 72q-15 -87 -41 -151h9z" />
    <glyph glyph-name="uni01E5" unicode="&#x1e5;" horiz-adv-x="389" 
d="M67 -82q0 9 19 9l54 -2q68 -4 114 -4h19q11 41 19 112l28 231q-25 -123 -70 -201.5t-115 -78.5q-93 0 -93 160q0 85 25.5 170.5t80.5 143.5t138 58q16 0 66 -4l-53 -475q-8 -74 -20 -116h15q11 0 22.5 1.5t21.5 1.5q6 0 6 -7q0 -6 -6 -6q-10 0 -21.5 1.5t-22.5 1.5h-17
q-18 -62 -56.5 -90.5t-114.5 -28.5q-48 0 -48 13q0 8 11 8q5 0 21 -2q33 -3 43 -3q59 0 90.5 24t47.5 79h-17q-12 0 -114 -3l-54 -2q-19 0 -19 9zM71 27q22 -37 65 -37q58 0 98.5 60.5t62 140.5t30.5 151l17 154q-46 6 -78 6q-71 0 -120 -55t-73 -138t-24 -165
q0 -80 22 -117z" />
    <glyph glyph-name="Gcaron" unicode="&#x1e6;" horiz-adv-x="485" 
d="M101 53.5q-40 69.5 -40 205.5q0 116 31.5 220t100 170.5t175.5 66.5q32 0 53 -5t21 -16q0 -8 -12 -8q-4 0 -22 4q-4 1 -22 4.5t-45 3.5q-92 0 -153.5 -63t-91 -163.5t-29.5 -214.5q0 -268 152 -268q96 0 145.5 94.5t61.5 211.5q1 19 11 19t7 -19q-6 -37 -11 -86
q-9 -90 -12 -174q0 -18 -1 -25q-1 -16 -11 -16q-8 0 -8 12q0 15 6 46q2 12 8 53.5t12 103.5l7 72q-26 -154 -82.5 -226t-133.5 -72t-117 69.5zM191 905l8 6l54 -65l65 -80q45 40 106 104q20 22 30 31t16 9q4 0 7 -2.5t3 -6.5t-5 -9l-26 -22q-48 -38 -131 -112
q-96 114 -127 147z" />
    <glyph glyph-name="gcaron" unicode="&#x1e7;" horiz-adv-x="389" 
d="M58 -192q0 8 11 8q5 0 21 -2q33 -3 43 -3q57 0 88.5 22.5t46 68.5t24.5 131l28 231q-25 -123 -70 -201.5t-115 -78.5q-93 0 -93 160q0 85 25.5 170.5t80.5 143.5t138 58q16 0 66 -4l-53 -475q-11 -91 -27.5 -141t-55 -75.5t-110.5 -25.5q-48 0 -48 13zM71 27
q22 -37 65 -37q58 0 98.5 60.5t62 140.5t30.5 151l17 154q-46 6 -78 6q-71 0 -120 -55t-73 -138t-24 -165q0 -80 22 -117zM125 705l8 6l54 -65l65 -80q45 40 106 104q20 22 30 31t16 9q4 0 7 -2.5t3 -6.5t-5 -9l-26 -22q-48 -38 -131 -112q-96 114 -127 147z" />
    <glyph glyph-name="uni01E8" unicode="&#x1e8;" horiz-adv-x="600" 
d="M89 8h25q36 0 57.5 2.5t29.5 2.5q18 0 18 -8t-20 -8q-8 0 -29 1.5t-57 1.5h-14q-40 0 -57 -2t-24 -2q-14 0 -14 9t16 9q6 0 17.5 -2.5t24.5 -2.5q29 0 39.5 14t14.5 53l58 551q3 30 10.5 45.5t22.5 20.5h-25q-36 0 -57.5 -2.5t-29.5 -2.5q-18 0 -18 7q0 8 21 8
q8 0 28.5 -1.5t56.5 -1.5h14q40 0 57 2t23 2q14 0 14 -8q0 -9 -16 -9q-5 0 -17 2.5t-25 2.5q-29 0 -39 -14.5t-14 -53.5l-58 -551q-2 -18 -4 -26l353 538q43 65 75 92.5t51 27.5q6 0 6 -5t-19 -16q-65 -38 -108 -104l-153 -233l126 -230q25 -46 45 -67.5t35 -32.5t15 -16
q0 -6 -7 -6q-15 0 -32.5 21.5t-55.5 88.5l-129 238l-211 -320q-8 -12 -20 -15zM272 905l8 6l54 -65l65 -80q45 40 106 104q20 22 30 31t16 9q4 0 7 -2.5t3 -6.5t-5 -9l-26 -22q-48 -38 -131 -112q-96 114 -127 147z" />
    <glyph glyph-name="uni0218" unicode="&#x218;" horiz-adv-x="455" 
d="M121 13q-42 29 -61 70t-19 77q0 13 8 13q5 0 7.5 -7t6.5 -27q8 -41 20.5 -71t47 -54t97.5 -24q76 0 121.5 36.5t45.5 99.5q0 40 -19.5 79t-47.5 73t-75 84q-47 49 -75 82.5t-47 71.5t-19 77q0 68 54.5 95.5t145.5 27.5q39 0 67.5 -4.5t28.5 -16.5q0 -8 -12 -8q-9 0 -23 3
q-38 9 -89 9q-72 0 -119 -21.5t-47 -83.5q0 -38 19 -76t46.5 -71.5t74.5 -82.5q48 -52 76 -85.5t47.5 -73t19.5 -79.5q0 -68 -48.5 -105t-122.5 -37q-67 0 -109 29zM146 -214q0 4 6 4q38 0 61.5 11t23.5 54q0 38 -15 83q-1 4 3.5 6t5.5 -2q13 -41 13 -73q0 -54 -28 -72
t-59 -18q-11 0 -11 7z" />
    <glyph glyph-name="uni0219" unicode="&#x219;" horiz-adv-x="330" 
d="M58 18.5q-25 34.5 -25 68.5q0 17 4.5 28t11.5 11q5 0 5 -9q0 -6 -2 -17.5t-2 -23.5q0 -38 23.5 -62t76.5 -24q57 0 87 28.5t30 73.5q0 43 -25 81.5t-73 90.5q-47 50 -71 86.5t-24 76.5q0 89 128 89q31 0 53 -5t22 -14q0 -6 -9 -6q-6 0 -11 1l-10 2q-26 8 -61 8
q-105 0 -105 -74q0 -39 23.5 -75t70.5 -88q48 -52 73 -90.5t25 -81.5q0 -48 -32.5 -78.5t-90.5 -30.5q-67 0 -92 34.5zM207 -214q0 4 6 4q38 0 61.5 11t23.5 54q0 38 -15 83q-1 4 3.5 6t5.5 -2q13 -41 13 -73q0 -54 -28 -72t-59 -18q-11 0 -11 7z" />
    <glyph glyph-name="uni021A" unicode="&#x21a;" horiz-adv-x="515" 
d="M92 5q0 9 16 9q9 0 28 -2.5t45 -2.5q31 0 41.5 14t14.5 53l65 618h-30q-49 0 -124 -7q-30 -3 -47 -3q-11 0 -15 2t-4 6q0 10 20 10q27 0 47 -1l124 -1h65l123 1q20 1 47 1q19 0 19 -9t-20 -9q-17 0 -47 3q-72 7 -123 7h-29l-65 -621q-3 -30 -10.5 -45.5t-22.5 -19.5h58
q30 0 50 2.5t29 2.5q18 0 18 -8t-20 -8q-8 0 -28 1.5t-50 1.5h-48q-57 0 -81.5 -2t-31.5 -2q-14 0 -14 9zM146 -203q0 4 6 4q38 0 61.5 11t23.5 54q0 38 -15 83q-1 4 3.5 6t5.5 -2q13 -41 13 -73q0 -54 -28 -72t-59 -18q-11 0 -11 7z" />
    <glyph glyph-name="uni021B" unicode="&#x21b;" horiz-adv-x="320" 
d="M119.5 12q-17.5 17 -17.5 54q0 23 5 61l35 297q2 18 2 24q0 24 -11 34.5t-36 10.5q-7 0 -17.5 -2.5t-17.5 -2.5q-16 0 -16 9q0 8 18 8q7 0 20.5 -2.5t35.5 -2.5h58q-15 6 -20.5 17t-5.5 30q0 14 1 22q4 47 6 95q3 45 2 39q1 7 4 12t7 5q8 0 8 -13q0 -3 -6 -43
q-12 -67 -15 -100q-1 -8 -1 -22q0 -22 12.5 -32t48.5 -10q4 0 34 3q16 2 22 2q17 0 17 -8q0 -9 -19 -9q-7 0 -32.5 3t-91.5 3h-26q15 -4 21.5 -15.5t6.5 -31.5q0 -6 -2 -22l-35 -297q-5 -40 -5 -60q0 -35 14 -48t51 -13q36 0 57.5 8.5t27.5 8.5q7 0 7 -6q0 -10 -26 -16.5
t-57 -6.5q-46 0 -63.5 17zM100 -203q0 4 6 4q38 0 61.5 11t23.5 54q0 38 -15 83q-1 4 3.5 6t5.5 -2q13 -41 13 -73q0 -54 -28 -72t-59 -18q-11 0 -11 7z" />
    <glyph glyph-name="uni0237" unicode="&#x237;" horiz-adv-x="155" 
d="M-181 -192q0 8 11 8q5 0 21 -2q33 -3 42 -3q58 0 89.5 22.5t46.5 68.5t24 130l44 381q3 29 3 43q0 22 -8 27.5t-34 5.5q-13 0 -17 1.5t-4 5.5q0 9 23 9q17 0 25.5 -2.5t14 -13.5t5.5 -34q0 -8 -2 -34l-43 -383q-10 -91 -27 -141t-55.5 -76t-110.5 -26q-48 0 -48 13z" />
    <glyph glyph-name="uni0259" unicode="&#x259;" horiz-adv-x="380" 
d="M50 54q0 48 35.5 84.5t97 56t136.5 19.5q9 50 9 105q0 96 -30 143.5t-87 47.5q-34 0 -57.5 -16t-36.5 -36t-26 -50q-7 -16 -11.5 -23.5t-9.5 -7.5q-6 0 -6 7q0 14 18.5 46.5t52 59t77.5 26.5q58 0 90 -49.5t32 -147.5q0 -89 -23.5 -165.5t-70 -123t-110.5 -46.5
q-80 0 -80 70zM130 -10q72 0 120.5 60.5t67.5 157.5q-74 0 -133.5 -19t-93.5 -54t-34 -81q0 -64 73 -64z" />
    <glyph glyph-name="circumflex" unicode="&#x2c6;" horiz-adv-x="430" 
d="M105 572q0 5 4 9l28 23q71 59 129 111l110 -128l17 -19l-8 -6l-26 32l-93 113q-45 -40 -106 -104q-20 -22 -30 -31t-16 -9q-9 0 -9 9z" />
    <glyph glyph-name="caron" unicode="&#x2c7;" horiz-adv-x="389" 
d="M98 705l8 6l54 -65l65 -80q45 40 106 104q20 22 30 31t16 9q4 0 7 -2.5t3 -6.5t-5 -9l-26 -22q-48 -38 -131 -112q-96 114 -127 147z" />
    <glyph glyph-name="breve" unicode="&#x2d8;" horiz-adv-x="330" 
d="M124 603q-29 27 -29 66q0 16 4.5 25t8.5 9t4 -5q0 -4 -1 -9.5t-1 -15.5q0 -40 24.5 -65t74.5 -25q51 0 80.5 28t29.5 73q0 9 -2 21h6q2 -12 2 -21q0 -46 -29.5 -77t-87.5 -31q-55 0 -84 27z" />
    <glyph glyph-name="dotaccent" unicode="&#x2d9;" horiz-adv-x="148" 
d="M98 624q-7 7 -7 17t7 17t17 7t17 -7t7 -17t-7 -17t-17 -7t-17 7z" />
    <glyph glyph-name="ring" unicode="&#x2da;" horiz-adv-x="196" 
d="M105 607q-14 14 -14 34t14 34t34 14t34 -14t14 -34t-14 -34t-34 -14t-34 14zM109.5 612q11.5 -12 29.5 -12t30 12t12 29q0 18 -12 30t-30 12t-29.5 -12t-11.5 -30q0 -17 11.5 -29z" />
    <glyph glyph-name="ogonek" unicode="&#x2db;" horiz-adv-x="255" 
d="M40 -150q-26 22 -26 54q0 26 19 50t56 38.5t89 14.5h46v-7h-48q-50 0 -85 -13.5t-52.5 -35.5t-17.5 -46q0 -29 21 -49t65 -20q25 0 42 6t35 16q14 9 21 9q9 0 9 -7q0 -11 -27 -21.5t-66 -10.5q-55 0 -81 22z" />
    <glyph glyph-name="tilde" unicode="&#x2dc;" horiz-adv-x="330" 
d="M229.5 603.5q-10.5 8.5 -25.5 26.5q-13 17 -23 25t-25 8q-18 0 -28.5 -10.5t-20.5 -28.5q-8 -17 -14 -17q-2 0 -3.5 2t-1.5 5q0 10 8.5 23.5t23 23t33.5 9.5q17 0 28.5 -9t24.5 -26t22.5 -24.5t24.5 -7.5q19 0 29.5 10.5t20.5 28.5q1 2 5 9t8 7q6 0 6 -7q0 -8 -8.5 -22
t-23.5 -24t-33 -10q-17 0 -27.5 8.5z" />
    <glyph glyph-name="hungarumlaut" unicode="&#x2dd;" horiz-adv-x="426" 
d="M84 577l189 130q5 4 11 4q9 0 9 -8q0 -6 -10 -12l-197 -117zM216 577l189 130q5 4 11 4q9 0 9 -8q0 -6 -10 -12l-197 -117z" />
    <glyph glyph-name="gravecomb" unicode="&#x300;" 
d="M97 703q0 3 2.5 5.5t6.5 2.5q6 0 11 -4l187 -130l-1 -3l-197 117q-9 6 -9 12z" />
    <glyph glyph-name="acutecomb" unicode="&#x301;" 
d="M84 577l189 130q5 4 11 4q9 0 9 -8q0 -6 -10 -12l-197 -117z" />
    <glyph glyph-name="uni0302" unicode="&#x302;" 
d="M105 572q0 5 4 9l28 23q71 59 129 111l110 -128l17 -19l-8 -6l-26 32l-93 113q-45 -40 -106 -104q-20 -22 -30 -31t-16 -9q-9 0 -9 9z" />
    <glyph glyph-name="tildecomb" unicode="&#x303;" 
d="M229.5 603.5q-10.5 8.5 -25.5 26.5q-13 17 -23 25t-25 8q-18 0 -28.5 -10.5t-20.5 -28.5q-8 -17 -14 -17q-2 0 -3.5 2t-1.5 5q0 10 8.5 23.5t23 23t33.5 9.5q17 0 28.5 -9t24.5 -26t22.5 -24.5t24.5 -7.5q19 0 29.5 10.5t20.5 28.5q1 2 5 9t8 7q6 0 6 -7q0 -8 -8.5 -22
t-23.5 -24t-33 -10q-17 0 -27.5 8.5z" />
    <glyph glyph-name="uni0304" unicode="&#x304;" 
d="M91 636h295v-7h-295v7z" />
    <glyph glyph-name="uni0306" unicode="&#x306;" 
d="M124 603q-29 27 -29 66q0 16 4.5 25t8.5 9t4 -5q0 -4 -1 -9.5t-1 -15.5q0 -40 24.5 -65t74.5 -25q51 0 80.5 28t29.5 73q0 9 -2 21h6q2 -12 2 -21q0 -46 -29.5 -77t-87.5 -31q-55 0 -84 27z" />
    <glyph glyph-name="uni0307" unicode="&#x307;" 
d="M98 624q-7 7 -7 17t7 17t17 7t17 -7t7 -17t-7 -17t-17 -7t-17 7z" />
    <glyph glyph-name="uni0308" unicode="&#x308;" 
d="M98 624q-7 7 -7 17t7 17t17 7t17 -7t7 -17t-7 -17t-17 -7t-17 7zM240 624q-7 7 -7 17t7 17t17 7t17 -7t7 -17t-7 -17t-17 -7t-17 7z" />
    <glyph glyph-name="hookabovecomb" unicode="&#x309;" 
d="M147.5 568q-6.5 3 -6.5 7q0 5 8 5q48 0 77 16.5t29 49.5q0 26 -20 42t-52 16q-35 0 -59.5 -17.5t-24.5 -44.5q0 -4 -3.5 -4t-3.5 4q0 30 27.5 49t64.5 19q33 0 55 -17t22 -47q0 -37 -29 -59t-66 -22q-12 0 -18.5 3z" />
    <glyph glyph-name="uni030A" unicode="&#x30a;" 
d="M105 607q-14 14 -14 34t14 34t34 14t34 -14t14 -34t-14 -34t-34 -14t-34 14zM109.5 612q11.5 -12 29.5 -12t30 12t12 29q0 18 -12 30t-30 12t-29.5 -12t-11.5 -30q0 -17 11.5 -29z" />
    <glyph glyph-name="uni030B" unicode="&#x30b;" 
d="M84 577l189 130q5 4 11 4q9 0 9 -8q0 -6 -10 -12l-197 -117zM216 577l189 130q5 4 11 4q9 0 9 -8q0 -6 -10 -12l-197 -117z" />
    <glyph glyph-name="uni030C" unicode="&#x30c;" 
d="M98 705l8 6l54 -65l65 -80q45 40 106 104q20 22 30 31t16 9q4 0 7 -2.5t3 -6.5t-5 -9l-26 -22q-48 -38 -131 -112q-96 114 -127 147z" />
    <glyph glyph-name="uni0312" unicode="&#x312;" 
d="M172 746q0 -4 -7 -4q-36 0 -50.5 -22t-14.5 -69q0 -57 19 -112v-1q0 -4 -4.5 -6t-5.5 2q-16 48 -16 104q0 116 68 116q11 0 11 -8z" />
    <glyph glyph-name="uni031B" unicode="&#x31b;" 
d="M29 521h13q39 0 50.5 20.5t11.5 55.5q0 25 -7 48l-1 4q0 3 2 5.5t6 2.5q7 0 10 -14t3 -32q0 -96 -75 -96h-14z" />
    <glyph glyph-name="dotbelowcomb" unicode="&#x323;" 
d="M18 -140q-7 7 -7 17t7 17t17 7t17 -7t7 -17t-7 -17t-17 -7t-17 7z" />
    <glyph glyph-name="uni0326" unicode="&#x326;" 
d="M2 -203q0 4 6 4q38 0 61.5 11t23.5 54q0 38 -15 83q-1 4 3.5 6t5.5 -2q13 -41 13 -73q0 -54 -28 -72t-59 -18q-11 0 -11 7z" />
    <glyph glyph-name="uni0327" unicode="&#x327;" 
d="M53 -189.5q-33 10.5 -33 22.5q0 6 9 6q8 0 22 -8q21 -10 44 -16.5t56 -6.5q50 0 71.5 16t21.5 38q0 62 -167 62l75 76h7l-70 -71q161 0 161 -67q0 -25 -26 -43.5t-87 -18.5q-51 0 -84 10.5z" />
    <glyph glyph-name="uni0328" unicode="&#x328;" 
d="M40 -150q-26 22 -26 54q0 26 19 50t56 38.5t89 14.5h46v-7h-48q-50 0 -85 -13.5t-52.5 -35.5t-17.5 -46q0 -29 21 -49t65 -20q25 0 42 6t35 16q14 9 21 9q9 0 9 -7q0 -11 -27 -21.5t-66 -10.5q-55 0 -81 22z" />
    <glyph glyph-name="uni0E3F" unicode="&#xe3f;" horiz-adv-x="415" 
d="M147 7l4 34q5 22 9 56q-44 1 -83 13.5t-58 30.5q-3 3 -3 7q0 9 8 9q4 0 22.5 -14t45.5 -25.5t69 -13.5q5 33 9 71l25 230q-16 0 -24.5 -0.5t-14.5 -0.5q-14 0 -14 9q2 9 15 9q7 0 16.5 -1t22.5 -2l6 56q9 84 12 149h-138l-19 -182q-5 -48 -8.5 -93t-4.5 -62l-3 -45
q-1 -15 -11 -15q-6 0 -6 10q0 9 2 22.5t4 29.5q10 58 20 153q11 114 16 183q2 7 8 7q3 0 12 -1t22 -1h107l1 26q2 49 4 63q1 7 4 11.5t8 4.5q8 0 8 -12t-12 -93h12q62 0 96 -25.5t34 -75.5q0 -59 -46.5 -87.5t-119.5 -28.5v-3q78 0 125 -36t47 -108q0 -81 -58.5 -124
t-147.5 -45q-3 -43 -3 -65l-1 -21q-1 -7 -4.5 -11.5t-7.5 -4.5q-7 0 -7 12zM172 104q86 0 142 41.5t56 120.5q0 68 -45 103t-123 36l-25 -230l-7 -71h2zM216 419q66 0 107 29t41 81q0 47 -32.5 71t-91.5 24h-13q-1 -12 -5 -38q-11 -90 -13 -111l-6 -56h13z" />
    <glyph glyph-name="uni1E20" unicode="&#x1e20;" horiz-adv-x="485" 
d="M101 53.5q-40 69.5 -40 205.5q0 116 31.5 220t100 170.5t175.5 66.5q32 0 53 -5t21 -16q0 -8 -12 -8q-4 0 -22 4q-4 1 -22 4.5t-45 3.5q-92 0 -153.5 -63t-91 -163.5t-29.5 -214.5q0 -268 152 -268q96 0 145.5 94.5t61.5 211.5q1 19 11 19t7 -19q-6 -37 -11 -86
q-9 -90 -12 -174q0 -18 -1 -25q-1 -16 -11 -16q-8 0 -8 12q0 15 6 46q2 12 8 53.5t12 103.5l7 72q-26 -154 -82.5 -226t-133.5 -72t-117 69.5zM183 836h295v-7h-295v7z" />
    <glyph glyph-name="uni1E21" unicode="&#x1e21;" horiz-adv-x="389" 
d="M58 -192q0 8 11 8q5 0 21 -2q33 -3 43 -3q57 0 88.5 22.5t46 68.5t24.5 131l28 231q-25 -123 -70 -201.5t-115 -78.5q-93 0 -93 160q0 85 25.5 170.5t80.5 143.5t138 58q16 0 66 -4l-53 -475q-11 -91 -27.5 -141t-55 -75.5t-110.5 -25.5q-48 0 -48 13zM71 27
q22 -37 65 -37q58 0 98.5 60.5t62 140.5t30.5 151l17 154q-46 6 -78 6q-71 0 -120 -55t-73 -138t-24 -165q0 -80 22 -117zM117 636h295v-7h-295v7z" />
    <glyph glyph-name="Wgrave" unicode="&#x1e80;" horiz-adv-x="800" 
d="M103 644q-1 7 -10 46l-1 6q0 12 11 12q10 0 12 -17q23 -154 48 -297l70 -397q75 139 120 221l60 109l-12 65q-18 106 -45 234q-4 25 -7.5 40.5t-4.5 23.5q-2 12 21 19t61 7q123 0 123 -85q0 -39 -32 -112t-97 -193l58 -329q53 102 130 240q97 176 138 261.5t41 132.5
q0 37 -25.5 52t-71.5 15q-23 0 -46 -2.5t-29 -3.5q-15 -3 -22 -3q-10 0 -10 7q0 9 26 14.5t60 5.5q125 0 125 -85q0 -50 -50.5 -152.5t-167.5 -313.5q-39 -73 -98 -179h-5l-58 330l-40 -72q-71 -127 -142 -258h-5l-72 406q-16 93 -53 252zM367 627l41 -233l10 -57
q63 114 93.5 184t30.5 110q0 37 -26.5 52t-78.5 15q-33 0 -56.5 -4.5t-22.5 -11.5q3 -11 9 -55zM560 903q0 3 2.5 5.5t6.5 2.5q6 0 11 -4l187 -130l-1 -3l-197 117q-9 6 -9 12z" />
    <glyph glyph-name="wgrave" unicode="&#x1e81;" horiz-adv-x="585" 
d="M68 463l-6 28l-1 5q0 9 8 9t10 -12l10 -61q7 -48 25 -153l50 -284q38 70 58 105l73 135l-8 43l-31 162l-11 54q-1 6 17.5 10.5t46.5 4.5q38 0 59.5 -12.5t21.5 -45.5q0 -28 -22 -81t-67 -136l43 -239q47 87 87 159q73 133 103.5 197t30.5 100q0 25 -16.5 34.5t-50.5 9.5
q-21 0 -37.5 -3t-23.5 -3q-6 0 -6 5q0 15 54 15q40 0 63 -12.5t23 -45.5q0 -39 -38.5 -117.5t-131.5 -245.5l-57 -102h-4l-44 240q-19 -36 -99 -183q-6 -11 -32 -57h-5l-53 292q-13 72 -39 185zM261 454q20 -105 32 -175l6 -36q43 80 64 129.5t21 78.5q0 25 -18.5 34.5
t-56.5 9.5q-55 0 -54 -11zM233 703q0 3 2.5 5.5t6.5 2.5q6 0 11 -4l187 -130l-1 -3l-197 117q-9 6 -9 12z" />
    <glyph glyph-name="Wacute" unicode="&#x1e82;" horiz-adv-x="800" 
d="M103 644q-1 7 -10 46l-1 6q0 12 11 12q10 0 12 -17q23 -154 48 -297l70 -397q75 139 120 221l60 109l-12 65q-18 106 -45 234q-4 25 -7.5 40.5t-4.5 23.5q-2 12 21 19t61 7q123 0 123 -85q0 -39 -32 -112t-97 -193l58 -329q53 102 130 240q97 176 138 261.5t41 132.5
q0 37 -25.5 52t-71.5 15q-23 0 -46 -2.5t-29 -3.5q-15 -3 -22 -3q-10 0 -10 7q0 9 26 14.5t60 5.5q125 0 125 -85q0 -50 -50.5 -152.5t-167.5 -313.5q-39 -73 -98 -179h-5l-58 330l-40 -72q-71 -127 -142 -258h-5l-72 406q-16 93 -53 252zM367 627l41 -233l10 -57
q63 114 93.5 184t30.5 110q0 37 -26.5 52t-78.5 15q-33 0 -56.5 -4.5t-22.5 -11.5q3 -11 9 -55zM547 777l189 130q5 4 11 4q9 0 9 -8q0 -6 -10 -12l-197 -117z" />
    <glyph glyph-name="wacute" unicode="&#x1e83;" horiz-adv-x="585" 
d="M68 463l-6 28l-1 5q0 9 8 9t10 -12l10 -61q7 -48 25 -153l50 -284q38 70 58 105l73 135l-8 43l-31 162l-11 54q-1 6 17.5 10.5t46.5 4.5q38 0 59.5 -12.5t21.5 -45.5q0 -28 -22 -81t-67 -136l43 -239q47 87 87 159q73 133 103.5 197t30.5 100q0 25 -16.5 34.5t-50.5 9.5
q-21 0 -37.5 -3t-23.5 -3q-6 0 -6 5q0 15 54 15q40 0 63 -12.5t23 -45.5q0 -39 -38.5 -117.5t-131.5 -245.5l-57 -102h-4l-44 240q-19 -36 -99 -183q-6 -11 -32 -57h-5l-53 292q-13 72 -39 185zM261 454q20 -105 32 -175l6 -36q43 80 64 129.5t21 78.5q0 25 -18.5 34.5
t-56.5 9.5q-55 0 -54 -11zM226 577l189 130q5 4 11 4q9 0 9 -8q0 -6 -10 -12l-197 -117z" />
    <glyph glyph-name="Wdieresis" unicode="&#x1e84;" horiz-adv-x="800" 
d="M103 644q-1 7 -10 46l-1 6q0 12 11 12q10 0 12 -17q23 -154 48 -297l70 -397q75 139 120 221l60 109l-12 65q-18 106 -45 234q-4 25 -7.5 40.5t-4.5 23.5q-2 12 21 19t61 7q123 0 123 -85q0 -39 -32 -112t-97 -193l58 -329q53 102 130 240q97 176 138 261.5t41 132.5
q0 37 -25.5 52t-71.5 15q-23 0 -46 -2.5t-29 -3.5q-15 -3 -22 -3q-10 0 -10 7q0 9 26 14.5t60 5.5q125 0 125 -85q0 -50 -50.5 -152.5t-167.5 -313.5q-39 -73 -98 -179h-5l-58 330l-40 -72q-71 -127 -142 -258h-5l-72 406q-16 93 -53 252zM367 627l41 -233l10 -57
q63 114 93.5 184t30.5 110q0 37 -26.5 52t-78.5 15q-33 0 -56.5 -4.5t-22.5 -11.5q3 -11 9 -55zM571 824q-7 7 -7 17t7 17t17 7t17 -7t7 -17t-7 -17t-17 -7t-17 7zM713 824q-7 7 -7 17t7 17t17 7t17 -7t7 -17t-7 -17t-17 -7t-17 7z" />
    <glyph glyph-name="wdieresis" unicode="&#x1e85;" horiz-adv-x="585" 
d="M68 463l-6 28l-1 5q0 9 8 9t10 -12l10 -61q7 -48 25 -153l50 -284q38 70 58 105l73 135l-8 43l-31 162l-11 54q-1 6 17.5 10.5t46.5 4.5q38 0 59.5 -12.5t21.5 -45.5q0 -28 -22 -81t-67 -136l43 -239q47 87 87 159q73 133 103.5 197t30.5 100q0 25 -16.5 34.5t-50.5 9.5
q-21 0 -37.5 -3t-23.5 -3q-6 0 -6 5q0 15 54 15q40 0 63 -12.5t23 -45.5q0 -39 -38.5 -117.5t-131.5 -245.5l-57 -102h-4l-44 240q-19 -36 -99 -183q-6 -11 -32 -57h-5l-53 292q-13 72 -39 185zM261 454q20 -105 32 -175l6 -36q43 80 64 129.5t21 78.5q0 25 -18.5 34.5
t-56.5 9.5q-55 0 -54 -11zM245 624q-7 7 -7 17t7 17t17 7t17 -7t7 -17t-7 -17t-17 -7t-17 7zM387 624q-7 7 -7 17t7 17t17 7t17 -7t7 -17t-7 -17t-17 -7t-17 7z" />
    <glyph glyph-name="uni1E9E" unicode="&#x1e9e;" horiz-adv-x="500" 
d="M105 13.5q-46 29.5 -67.5 70.5t-21.5 76q0 14 8 14q7 0 10 -13q30 -171 185 -171q67 0 117 29.5t76.5 81t26.5 115.5q0 83 -44 125.5t-123 42.5q-22 0 -33 -0.5t-18 -0.5q-15 0 -15 10q0 5 4 10l189 291h-284l-21 -219q-9 -90 -15 -212l-1 -28q0 -15 -11 -15q-10 0 -9 15
l6 43q3 25 9 72t14 125l21 217q1 6 2.5 8t6.5 2t16 -1t26 -1h254l-197 -298q0 -6 17.5 -9t43.5 -3q78 0 123 -44.5t45 -130.5q0 -65 -28 -117.5t-79 -83t-119 -30.5t-114 29.5z" />
    <glyph glyph-name="uni1EA0" unicode="&#x1ea0;" horiz-adv-x="565" 
d="M91.5 8.5q-23.5 16.5 -39 45t-15.5 63.5q0 53 35 91t100 38q67 0 138.5 -53t170.5 -187l-14 79l-53 289l-60 331l-87 -163q-51 -95 -91 -183l-18 -36q-6 -11 -12 -11q-4 0 -6.5 2.5t-2.5 6.5t3 8q41 64 121 214l93 173h3l63 -340q30 -163 66 -328l7 -33q1 -3 1 -9
q0 -11 -8 -11q-7 0 -12 8q-90 122 -160.5 179t-141.5 57q-64 0 -96 -36.5t-32 -84.5q0 -73 78 -103q25 -9 25 -17q0 -6 -10 -6q-22 0 -45.5 16.5zM222 -140q-7 7 -7 17t7 17t17 7t17 -7t7 -17t-7 -17t-17 -7t-17 7z" />
    <glyph glyph-name="uni1EA1" unicode="&#x1ea1;" horiz-adv-x="400" 
d="M42 144q0 85 25.5 170.5t80.5 143.5t138 58q16 0 66 -4l-46 -425q-3 -27 -3 -43q0 -22 9 -27.5t36 -5.5q12 0 16.5 -1.5t4.5 -5.5q0 -10 -23 -10q-26 0 -38 10t-12 44q0 21 2 34l22 180q-25 -122 -70 -200t-115 -78q-93 0 -93 160zM71 27q22 -37 65 -37q58 0 99 60.5
t63 141t30 150.5l16 154q-46 6 -78 6q-71 0 -120 -55t-73 -138t-24 -165q0 -80 22 -117zM105 -140q-7 7 -7 17t7 17t17 7t17 -7t7 -17t-7 -17t-17 -7t-17 7z" />
    <glyph glyph-name="uni1EA2" unicode="&#x1ea2;" horiz-adv-x="565" 
d="M91.5 8.5q-23.5 16.5 -39 45t-15.5 63.5q0 53 35 91t100 38q67 0 138.5 -53t170.5 -187l-14 79l-53 289l-60 331l-87 -163q-51 -95 -91 -183l-18 -36q-6 -11 -12 -11q-4 0 -6.5 2.5t-2.5 6.5t3 8q41 64 121 214l93 173h3l63 -340q30 -163 66 -328l7 -33q1 -3 1 -9
q0 -11 -8 -11q-7 0 -12 8q-90 122 -160.5 179t-141.5 57q-64 0 -96 -36.5t-32 -84.5q0 -73 78 -103q25 -9 25 -17q0 -6 -10 -6q-22 0 -45.5 16.5zM339.5 768q-6.5 3 -6.5 7q0 5 8 5q48 0 77 16.5t29 49.5q0 26 -20 42t-52 16q-35 0 -59.5 -17.5t-24.5 -44.5q0 -4 -3.5 -4
t-3.5 4q0 30 27.5 49t64.5 19q33 0 55 -17t22 -47q0 -37 -29 -59t-66 -22q-12 0 -18.5 3z" />
    <glyph glyph-name="uni1EA3" unicode="&#x1ea3;" horiz-adv-x="400" 
d="M42 144q0 85 25.5 170.5t80.5 143.5t138 58q16 0 66 -4l-46 -425q-3 -27 -3 -43q0 -22 9 -27.5t36 -5.5q12 0 16.5 -1.5t4.5 -5.5q0 -10 -23 -10q-26 0 -38 10t-12 44q0 21 2 34l22 180q-25 -122 -70 -200t-115 -78q-93 0 -93 160zM71 27q22 -37 65 -37q58 0 99 60.5
t63 141t30 150.5l16 154q-46 6 -78 6q-71 0 -120 -55t-73 -138t-24 -165q0 -80 22 -117zM233.5 568q-6.5 3 -6.5 7q0 5 8 5q48 0 77 16.5t29 49.5q0 26 -20 42t-52 16q-35 0 -59.5 -17.5t-24.5 -44.5q0 -4 -3.5 -4t-3.5 4q0 30 27.5 49t64.5 19q33 0 55 -17t22 -47
q0 -37 -29 -59t-66 -22q-12 0 -18.5 3z" />
    <glyph glyph-name="uni1EA4" unicode="&#x1ea4;" horiz-adv-x="565" 
d="M91.5 8.5q-23.5 16.5 -39 45t-15.5 63.5q0 53 35 91t100 38q67 0 138.5 -53t170.5 -187l-14 79l-53 289l-60 331l-87 -163q-51 -95 -91 -183l-18 -36q-6 -11 -12 -11q-4 0 -6.5 2.5t-2.5 6.5t3 8q41 64 121 214l93 173h3l63 -340q30 -163 66 -328l7 -33q1 -3 1 -9
q0 -11 -8 -11q-7 0 -12 8q-90 122 -160.5 179t-141.5 57q-64 0 -96 -36.5t-32 -84.5q0 -73 78 -103q25 -9 25 -17q0 -6 -10 -6q-22 0 -45.5 16.5zM447 876l163 129q4 4 10 4q4 0 7 -3t3 -7q0 -6 -7 -10l-173 -117zM248 804q71 59 129 111l110 -128l17 -19l-8 -6l-26 32
l-93 113q-45 -40 -106 -104q-20 -22 -30 -31t-16 -9q-9 0 -9 9q0 5 4 9z" />
    <glyph glyph-name="uni1EA5" unicode="&#x1ea5;" horiz-adv-x="400" 
d="M42 144q0 85 25.5 170.5t80.5 143.5t138 58q16 0 66 -4l-46 -425q-3 -27 -3 -43q0 -22 9 -27.5t36 -5.5q12 0 16.5 -1.5t4.5 -5.5q0 -10 -23 -10q-26 0 -38 10t-12 44q0 21 2 34l22 180q-25 -122 -70 -200t-115 -78q-93 0 -93 160zM71 27q22 -37 65 -37q58 0 99 60.5
t63 141t30 150.5l16 154q-46 6 -78 6q-71 0 -120 -55t-73 -138t-24 -165q0 -80 22 -117zM341 676l163 129q4 4 10 4q4 0 7 -3t3 -7q0 -6 -7 -10l-173 -117zM142 604q71 59 129 111l110 -128l17 -19l-8 -6l-26 32l-93 113q-45 -40 -106 -104q-20 -22 -30 -31t-16 -9
q-9 0 -9 9q0 5 4 9z" />
    <glyph glyph-name="uni1EA6" unicode="&#x1ea6;" horiz-adv-x="565" 
d="M91.5 8.5q-23.5 16.5 -39 45t-15.5 63.5q0 53 35 91t100 38q67 0 138.5 -53t170.5 -187l-14 79l-53 289l-60 331l-87 -163q-51 -95 -91 -183l-18 -36q-6 -11 -12 -11q-4 0 -6.5 2.5t-2.5 6.5t3 8q41 64 121 214l93 173h3l63 -340q30 -163 66 -328l7 -33q1 -3 1 -9
q0 -11 -8 -11q-7 0 -12 8q-90 122 -160.5 179t-141.5 57q-64 0 -96 -36.5t-32 -84.5q0 -73 78 -103q25 -9 25 -17q0 -6 -10 -6q-22 0 -45.5 16.5zM374 1001q0 4 3 6.5t7 2.5q5 0 9 -5l131 -158l-3 -3l-142 147q-5 5 -5 10zM248 804q71 59 129 111l110 -128l17 -19l-8 -6
l-26 32l-93 113q-45 -40 -106 -104q-20 -22 -30 -31t-16 -9q-9 0 -9 9q0 5 4 9z" />
    <glyph glyph-name="uni1EA7" unicode="&#x1ea7;" horiz-adv-x="400" 
d="M42 144q0 85 25.5 170.5t80.5 143.5t138 58q16 0 66 -4l-46 -425q-3 -27 -3 -43q0 -22 9 -27.5t36 -5.5q12 0 16.5 -1.5t4.5 -5.5q0 -10 -23 -10q-26 0 -38 10t-12 44q0 21 2 34l22 180q-25 -122 -70 -200t-115 -78q-93 0 -93 160zM71 27q22 -37 65 -37q58 0 99 60.5
t63 141t30 150.5l16 154q-46 6 -78 6q-71 0 -120 -55t-73 -138t-24 -165q0 -80 22 -117zM268 801q0 4 3 6.5t7 2.5q5 0 9 -5l131 -158l-3 -3l-142 147q-5 5 -5 10zM142 604q71 59 129 111l110 -128l17 -19l-8 -6l-26 32l-93 113q-45 -40 -106 -104q-20 -22 -30 -31t-16 -9
q-9 0 -9 9q0 5 4 9z" />
    <glyph glyph-name="uni1EA8" unicode="&#x1ea8;" horiz-adv-x="565" 
d="M91.5 8.5q-23.5 16.5 -39 45t-15.5 63.5q0 53 35 91t100 38q67 0 138.5 -53t170.5 -187l-14 79l-53 289l-60 331l-87 -163q-51 -95 -91 -183l-18 -36q-6 -11 -12 -11q-4 0 -6.5 2.5t-2.5 6.5t3 8q41 64 121 214l93 173h3l63 -340q30 -163 66 -328l7 -33q1 -3 1 -9
q0 -11 -8 -11q-7 0 -12 8q-90 122 -160.5 179t-141.5 57q-64 0 -96 -36.5t-32 -84.5q0 -73 78 -103q25 -9 25 -17q0 -6 -10 -6q-22 0 -45.5 16.5zM216 772q0 5 4 9l28 23q71 59 129 111l110 -128l17 -19l-8 -6l-26 32l-93 113q-45 -40 -106 -104q-20 -22 -30 -31t-16 -9
q-9 0 -9 9zM473.5 892q-6.5 3 -6.5 7q0 5 8 5q48 0 77 16.5t29 49.5q0 26 -20 42t-52 16q-35 0 -59.5 -17.5t-24.5 -44.5q0 -4 -3.5 -4t-3.5 4q0 30 27.5 49t64.5 19q33 0 55 -17t22 -47q0 -37 -29 -59t-66 -22q-12 0 -18.5 3z" />
    <glyph glyph-name="uni1EA9" unicode="&#x1ea9;" horiz-adv-x="400" 
d="M42 144q0 85 25.5 170.5t80.5 143.5t138 58q16 0 66 -4l-46 -425q-3 -27 -3 -43q0 -22 9 -27.5t36 -5.5q12 0 16.5 -1.5t4.5 -5.5q0 -10 -23 -10q-26 0 -38 10t-12 44q0 21 2 34l22 180q-25 -122 -70 -200t-115 -78q-93 0 -93 160zM71 27q22 -37 65 -37q58 0 99 60.5
t63 141t30 150.5l16 154q-46 6 -78 6q-71 0 -120 -55t-73 -138t-24 -165q0 -80 22 -117zM110 572q0 5 4 9l28 23q71 59 129 111l110 -128l17 -19l-8 -6l-26 32l-93 113q-45 -40 -106 -104q-20 -22 -30 -31t-16 -9q-9 0 -9 9zM367.5 692q-6.5 3 -6.5 7q0 5 8 5q48 0 77 16.5
t29 49.5q0 26 -20 42t-52 16q-35 0 -59.5 -17.5t-24.5 -44.5q0 -4 -3.5 -4t-3.5 4q0 30 27.5 49t64.5 19q33 0 55 -17t22 -47q0 -37 -29 -59t-66 -22q-12 0 -18.5 3z" />
    <glyph glyph-name="uni1EAA" unicode="&#x1eaa;" horiz-adv-x="565" 
d="M91.5 8.5q-23.5 16.5 -39 45t-15.5 63.5q0 53 35 91t100 38q67 0 138.5 -53t170.5 -187l-14 79l-53 289l-60 331l-87 -163q-51 -95 -91 -183l-18 -36q-6 -11 -12 -11q-4 0 -6.5 2.5t-2.5 6.5t3 8q41 64 121 214l93 173h3l63 -340q30 -163 66 -328l7 -33q1 -3 1 -9
q0 -11 -8 -11q-7 0 -12 8q-90 122 -160.5 179t-141.5 57q-64 0 -96 -36.5t-32 -84.5q0 -73 78 -103q25 -9 25 -17q0 -6 -10 -6q-22 0 -45.5 16.5zM405 958.5q-13 6.5 -30 19.5q-16 13 -27.5 19t-26.5 6q-22 0 -33 -8.5t-19 -21.5t-12 -13q-5 0 -5 5q0 14 16.5 29.5
t47.5 15.5q18 0 31 -6.5t30 -19.5q17 -12 28 -18t26 -6q23 0 34 8.5t18.5 21t11.5 12.5q5 0 5 -5q0 -8 -7 -18.5t-21.5 -18.5t-35.5 -8q-18 0 -31 6.5zM249 804q71 59 129 111l110 -128l17 -19l-8 -6l-26 32l-93 113q-45 -40 -106 -104q-20 -22 -30 -31t-16 -9q-9 0 -9 9
q0 5 4 9z" />
    <glyph glyph-name="uni1EAB" unicode="&#x1eab;" horiz-adv-x="400" 
d="M42 144q0 85 25.5 170.5t80.5 143.5t138 58q16 0 66 -4l-46 -425q-3 -27 -3 -43q0 -22 9 -27.5t36 -5.5q12 0 16.5 -1.5t4.5 -5.5q0 -10 -23 -10q-26 0 -38 10t-12 44q0 21 2 34l22 180q-25 -122 -70 -200t-115 -78q-93 0 -93 160zM71 27q22 -37 65 -37q58 0 99 60.5
t63 141t30 150.5l16 154q-46 6 -78 6q-71 0 -120 -55t-73 -138t-24 -165q0 -80 22 -117zM299 758.5q-13 6.5 -30 19.5q-16 13 -27.5 19t-26.5 6q-22 0 -33 -8.5t-19 -21.5t-12 -13q-5 0 -5 5q0 14 16.5 29.5t47.5 15.5q18 0 31 -6.5t30 -19.5q17 -12 28 -18t26 -6
q23 0 34 8.5t18.5 21t11.5 12.5q5 0 5 -5q0 -8 -7 -18.5t-21.5 -18.5t-35.5 -8q-18 0 -31 6.5zM143 604q71 59 129 111l110 -128l17 -19l-8 -6l-26 32l-93 113q-45 -40 -106 -104q-20 -22 -30 -31t-16 -9q-9 0 -9 9q0 5 4 9z" />
    <glyph glyph-name="uni1EAC" unicode="&#x1eac;" horiz-adv-x="565" 
d="M91.5 8.5q-23.5 16.5 -39 45t-15.5 63.5q0 53 35 91t100 38q67 0 138.5 -53t170.5 -187l-14 79l-53 289l-60 331l-87 -163q-51 -95 -91 -183l-18 -36q-6 -11 -12 -11q-4 0 -6.5 2.5t-2.5 6.5t3 8q41 64 121 214l93 173h3l63 -340q30 -163 66 -328l7 -33q1 -3 1 -9
q0 -11 -8 -11q-7 0 -12 8q-90 122 -160.5 179t-141.5 57q-64 0 -96 -36.5t-32 -84.5q0 -73 78 -103q25 -9 25 -17q0 -6 -10 -6q-22 0 -45.5 16.5zM222 -140q-7 7 -7 17t7 17t17 7t17 -7t7 -17t-7 -17t-17 -7t-17 7zM216 772q0 5 4 9l28 23q71 59 129 111l110 -128l17 -19
l-8 -6l-26 32l-93 113q-45 -40 -106 -104q-20 -22 -30 -31t-16 -9q-9 0 -9 9z" />
    <glyph glyph-name="uni1EAD" unicode="&#x1ead;" horiz-adv-x="400" 
d="M42 144q0 85 25.5 170.5t80.5 143.5t138 58q16 0 66 -4l-46 -425q-3 -27 -3 -43q0 -22 9 -27.5t36 -5.5q12 0 16.5 -1.5t4.5 -5.5q0 -10 -23 -10q-26 0 -38 10t-12 44q0 21 2 34l22 180q-25 -122 -70 -200t-115 -78q-93 0 -93 160zM71 27q22 -37 65 -37q58 0 99 60.5
t63 141t30 150.5l16 154q-46 6 -78 6q-71 0 -120 -55t-73 -138t-24 -165q0 -80 22 -117zM105 -140q-7 7 -7 17t7 17t17 7t17 -7t7 -17t-7 -17t-17 -7t-17 7zM110 572q0 5 4 9l28 23q71 59 129 111l110 -128l17 -19l-8 -6l-26 32l-93 113q-45 -40 -106 -104q-20 -22 -30 -31
t-16 -9q-9 0 -9 9z" />
    <glyph glyph-name="uni1EAE" unicode="&#x1eae;" horiz-adv-x="565" 
d="M91.5 8.5q-23.5 16.5 -39 45t-15.5 63.5q0 53 35 91t100 38q67 0 138.5 -53t170.5 -187l-14 79l-53 289l-60 331l-87 -163q-51 -95 -91 -183l-18 -36q-6 -11 -12 -11q-4 0 -6.5 2.5t-2.5 6.5t3 8q41 64 121 214l93 173h3l63 -340q30 -163 66 -328l7 -33q1 -3 1 -9
q0 -11 -8 -11q-7 0 -12 8q-90 122 -160.5 179t-141.5 57q-64 0 -96 -36.5t-32 -84.5q0 -73 78 -103q25 -9 25 -17q0 -6 -10 -6q-22 0 -45.5 16.5zM313 876l163 129q4 4 10 4q4 0 7 -3t3 -7q0 -6 -7 -10l-173 -117zM257.5 894q4.5 9 8.5 9t4 -5q0 -4 -1 -9.5t-1 -15.5
q0 -40 24.5 -65t74.5 -25q51 0 80.5 28t29.5 73q0 9 -2 21h6q2 -12 2 -21q0 -46 -29.5 -77t-87.5 -31q-55 0 -84 27t-29 66q0 16 4.5 25z" />
    <glyph glyph-name="uni1EAF" unicode="&#x1eaf;" horiz-adv-x="400" 
d="M42 144q0 85 25.5 170.5t80.5 143.5t138 58q16 0 66 -4l-46 -425q-3 -27 -3 -43q0 -22 9 -27.5t36 -5.5q12 0 16.5 -1.5t4.5 -5.5q0 -10 -23 -10q-26 0 -38 10t-12 44q0 21 2 34l22 180q-25 -122 -70 -200t-115 -78q-93 0 -93 160zM71 27q22 -37 65 -37q58 0 99 60.5
t63 141t30 150.5l16 154q-46 6 -78 6q-71 0 -120 -55t-73 -138t-24 -165q0 -80 22 -117zM207 676l163 129q4 4 10 4q4 0 7 -3t3 -7q0 -6 -7 -10l-173 -117zM151.5 694q4.5 9 8.5 9t4 -5q0 -4 -1 -9.5t-1 -15.5q0 -40 24.5 -65t74.5 -25q51 0 80.5 28t29.5 73q0 9 -2 21h6
q2 -12 2 -21q0 -46 -29.5 -77t-87.5 -31q-55 0 -84 27t-29 66q0 16 4.5 25z" />
    <glyph glyph-name="uni1EB0" unicode="&#x1eb0;" horiz-adv-x="565" 
d="M91.5 8.5q-23.5 16.5 -39 45t-15.5 63.5q0 53 35 91t100 38q67 0 138.5 -53t170.5 -187l-14 79l-53 289l-60 331l-87 -163q-51 -95 -91 -183l-18 -36q-6 -11 -12 -11q-4 0 -6.5 2.5t-2.5 6.5t3 8q41 64 121 214l93 173h3l63 -340q30 -163 66 -328l7 -33q1 -3 1 -9
q0 -11 -8 -11q-7 0 -12 8q-90 122 -160.5 179t-141.5 57q-64 0 -96 -36.5t-32 -84.5q0 -73 78 -103q25 -9 25 -17q0 -6 -10 -6q-22 0 -45.5 16.5zM287 1001q0 4 2.5 6.5t6.5 2.5q6 0 10 -5l121 -147l-3 -3l-133 136q-4 4 -4 10zM257.5 894q4.5 9 8.5 9t4 -5q0 -4 -1 -9.5
t-1 -15.5q0 -40 24.5 -65t74.5 -25q51 0 80.5 28t29.5 73q0 9 -2 21h6q2 -12 2 -21q0 -46 -29.5 -77t-87.5 -31q-55 0 -84 27t-29 66q0 16 4.5 25z" />
    <glyph glyph-name="uni1EB1" unicode="&#x1eb1;" horiz-adv-x="400" 
d="M42 144q0 85 25.5 170.5t80.5 143.5t138 58q16 0 66 -4l-46 -425q-3 -27 -3 -43q0 -22 9 -27.5t36 -5.5q12 0 16.5 -1.5t4.5 -5.5q0 -10 -23 -10q-26 0 -38 10t-12 44q0 21 2 34l22 180q-25 -122 -70 -200t-115 -78q-93 0 -93 160zM71 27q22 -37 65 -37q58 0 99 60.5
t63 141t30 150.5l16 154q-46 6 -78 6q-71 0 -120 -55t-73 -138t-24 -165q0 -80 22 -117zM181 801q0 4 2.5 6.5t6.5 2.5q6 0 10 -5l121 -147l-3 -3l-133 136q-4 4 -4 10zM151.5 694q4.5 9 8.5 9t4 -5q0 -4 -1 -9.5t-1 -15.5q0 -40 24.5 -65t74.5 -25q51 0 80.5 28t29.5 73
q0 9 -2 21h6q2 -12 2 -21q0 -46 -29.5 -77t-87.5 -31q-55 0 -84 27t-29 66q0 16 4.5 25z" />
    <glyph glyph-name="uni1EB2" unicode="&#x1eb2;" horiz-adv-x="565" 
d="M91.5 8.5q-23.5 16.5 -39 45t-15.5 63.5q0 53 35 91t100 38q67 0 138.5 -53t170.5 -187l-14 79l-53 289l-60 331l-87 -163q-51 -95 -91 -183l-18 -36q-6 -11 -12 -11q-4 0 -6.5 2.5t-2.5 6.5t3 8q41 64 121 214l93 173h3l63 -340q30 -163 66 -328l7 -33q1 -3 1 -9
q0 -11 -8 -11q-7 0 -12 8q-90 122 -160.5 179t-141.5 57q-64 0 -96 -36.5t-32 -84.5q0 -73 78 -103q25 -9 25 -17q0 -6 -10 -6q-22 0 -45.5 16.5zM282 803q-29 27 -29 66q0 16 4.5 25t8.5 9t4 -5q0 -4 -1 -9.5t-1 -15.5q0 -40 24.5 -65t74.5 -25q51 0 80.5 28t29.5 73
q0 9 -2 21h6q2 -12 2 -21q0 -46 -29.5 -77t-87.5 -31q-55 0 -84 27zM345.5 882q-6.5 3 -6.5 7q0 5 8 5q48 0 77 16.5t29 49.5q0 26 -20 42t-52 16q-35 0 -59.5 -17.5t-24.5 -44.5q0 -4 -3.5 -4t-3.5 4q0 30 27.5 49t64.5 19q33 0 55 -17t22 -47q0 -37 -29 -59t-66 -22
q-12 0 -18.5 3z" />
    <glyph glyph-name="uni1EB3" unicode="&#x1eb3;" horiz-adv-x="400" 
d="M42 144q0 85 25.5 170.5t80.5 143.5t138 58q16 0 66 -4l-46 -425q-3 -27 -3 -43q0 -22 9 -27.5t36 -5.5q12 0 16.5 -1.5t4.5 -5.5q0 -10 -23 -10q-26 0 -38 10t-12 44q0 21 2 34l22 180q-25 -122 -70 -200t-115 -78q-93 0 -93 160zM71 27q22 -37 65 -37q58 0 99 60.5
t63 141t30 150.5l16 154q-46 6 -78 6q-71 0 -120 -55t-73 -138t-24 -165q0 -80 22 -117zM176 603q-29 27 -29 66q0 16 4.5 25t8.5 9t4 -5q0 -4 -1 -9.5t-1 -15.5q0 -40 24.5 -65t74.5 -25q51 0 80.5 28t29.5 73q0 9 -2 21h6q2 -12 2 -21q0 -46 -29.5 -77t-87.5 -31
q-55 0 -84 27zM239.5 682q-6.5 3 -6.5 7q0 5 8 5q48 0 77 16.5t29 49.5q0 26 -20 42t-52 16q-35 0 -59.5 -17.5t-24.5 -44.5q0 -4 -3.5 -4t-3.5 4q0 30 27.5 49t64.5 19q33 0 55 -17t22 -47q0 -37 -29 -59t-66 -22q-12 0 -18.5 3z" />
    <glyph glyph-name="uni1EB4" unicode="&#x1eb4;" horiz-adv-x="565" 
d="M91.5 8.5q-23.5 16.5 -39 45t-15.5 63.5q0 53 35 91t100 38q67 0 138.5 -53t170.5 -187l-14 79l-53 289l-60 331l-87 -163q-51 -95 -91 -183l-18 -36q-6 -11 -12 -11q-4 0 -6.5 2.5t-2.5 6.5t3 8q41 64 121 214l93 173h3l63 -340q30 -163 66 -328l7 -33q1 -3 1 -9
q0 -11 -8 -11q-7 0 -12 8q-90 122 -160.5 179t-141.5 57q-64 0 -96 -36.5t-32 -84.5q0 -73 78 -103q25 -9 25 -17q0 -6 -10 -6q-22 0 -45.5 16.5zM406.5 958.5q-12.5 6.5 -27.5 19.5t-26 19t-26 6q-22 0 -33 -8.5t-19 -21.5t-12 -13q-5 0 -5 5q0 14 16.5 29.5t47.5 15.5
q18 0 30.5 -6.5t27.5 -19.5q16 -12 26.5 -18t25.5 -6q23 0 34 8.5t18.5 21t11.5 12.5q5 0 5 -5q0 -8 -7 -18.5t-21.5 -18.5t-35.5 -8q-18 0 -30.5 6.5zM263.5 894q4.5 9 8.5 9t4 -5q0 -4 -1 -9.5t-1 -15.5q0 -40 24.5 -65t74.5 -25q51 0 80.5 28t29.5 73q0 9 -2 21h6
q2 -12 2 -21q0 -46 -29.5 -77t-87.5 -31q-55 0 -84 27t-29 66q0 16 4.5 25z" />
    <glyph glyph-name="uni1EB5" unicode="&#x1eb5;" horiz-adv-x="400" 
d="M42 144q0 85 25.5 170.5t80.5 143.5t138 58q16 0 66 -4l-46 -425q-3 -27 -3 -43q0 -22 9 -27.5t36 -5.5q12 0 16.5 -1.5t4.5 -5.5q0 -10 -23 -10q-26 0 -38 10t-12 44q0 21 2 34l22 180q-25 -122 -70 -200t-115 -78q-93 0 -93 160zM71 27q22 -37 65 -37q58 0 99 60.5
t63 141t30 150.5l16 154q-46 6 -78 6q-71 0 -120 -55t-73 -138t-24 -165q0 -80 22 -117zM300.5 758.5q-12.5 6.5 -27.5 19.5t-26 19t-26 6q-22 0 -33 -8.5t-19 -21.5t-12 -13q-5 0 -5 5q0 14 16.5 29.5t47.5 15.5q18 0 30.5 -6.5t27.5 -19.5q16 -12 26.5 -18t25.5 -6
q23 0 34 8.5t18.5 21t11.5 12.5q5 0 5 -5q0 -8 -7 -18.5t-21.5 -18.5t-35.5 -8q-18 0 -30.5 6.5zM157.5 694q4.5 9 8.5 9t4 -5q0 -4 -1 -9.5t-1 -15.5q0 -40 24.5 -65t74.5 -25q51 0 80.5 28t29.5 73q0 9 -2 21h6q2 -12 2 -21q0 -46 -29.5 -77t-87.5 -31q-55 0 -84 27
t-29 66q0 16 4.5 25z" />
    <glyph glyph-name="uni1EB6" unicode="&#x1eb6;" horiz-adv-x="565" 
d="M91.5 8.5q-23.5 16.5 -39 45t-15.5 63.5q0 53 35 91t100 38q67 0 138.5 -53t170.5 -187l-14 79l-53 289l-60 331l-87 -163q-51 -95 -91 -183l-18 -36q-6 -11 -12 -11q-4 0 -6.5 2.5t-2.5 6.5t3 8q41 64 121 214l93 173h3l63 -340q30 -163 66 -328l7 -33q1 -3 1 -9
q0 -11 -8 -11q-7 0 -12 8q-90 122 -160.5 179t-141.5 57q-64 0 -96 -36.5t-32 -84.5q0 -73 78 -103q25 -9 25 -17q0 -6 -10 -6q-22 0 -45.5 16.5zM222 -140q-7 7 -7 17t7 17t17 7t17 -7t7 -17t-7 -17t-17 -7t-17 7zM282 803q-29 27 -29 66q0 16 4.5 25t8.5 9t4 -5
q0 -4 -1 -9.5t-1 -15.5q0 -40 24.5 -65t74.5 -25q51 0 80.5 28t29.5 73q0 9 -2 21h6q2 -12 2 -21q0 -46 -29.5 -77t-87.5 -31q-55 0 -84 27z" />
    <glyph glyph-name="uni1EB7" unicode="&#x1eb7;" horiz-adv-x="400" 
d="M42 144q0 85 25.5 170.5t80.5 143.5t138 58q16 0 66 -4l-46 -425q-3 -27 -3 -43q0 -22 9 -27.5t36 -5.5q12 0 16.5 -1.5t4.5 -5.5q0 -10 -23 -10q-26 0 -38 10t-12 44q0 21 2 34l22 180q-25 -122 -70 -200t-115 -78q-93 0 -93 160zM71 27q22 -37 65 -37q58 0 99 60.5
t63 141t30 150.5l16 154q-46 6 -78 6q-71 0 -120 -55t-73 -138t-24 -165q0 -80 22 -117zM105 -140q-7 7 -7 17t7 17t17 7t17 -7t7 -17t-7 -17t-17 -7t-17 7zM176 603q-29 27 -29 66q0 16 4.5 25t8.5 9t4 -5q0 -4 -1 -9.5t-1 -15.5q0 -40 24.5 -65t74.5 -25q51 0 80.5 28
t29.5 73q0 9 -2 21h6q2 -12 2 -21q0 -46 -29.5 -77t-87.5 -31q-55 0 -84 27z" />
    <glyph glyph-name="uni1EB8" unicode="&#x1eb8;" horiz-adv-x="430" 
d="M147 -16q-35 8 -61.5 12t-57.5 4q-11 0 -22 -2t-18 -2q-14 0 -14 9t14 9q31 0 40.5 12t13.5 50l28 269q2 27 24 32q-8 1 -12.5 8.5t-3.5 23.5l29 283q1 6 2.5 8t6.5 2t16 -1t26 -1h46l149 1q22 1 51 1q20 0 20 -10q0 -9 -17 -9q-14 0 -46 3q-104 8 -157 8h-91l-28 -284
q-1 -16 5 -23t21 -7h60q42 0 122 4l67 2q11 0 14.5 -2t3.5 -7q0 -9 -19 -9l-67 2q-120 3 -122 3h-60q-15 0 -23.5 -7t-9.5 -23l-29 -270q-3 -33 -11 -47t-30 -19h13q33 0 59 -4t73 -14q24 -5 48.5 -9.5t43.5 -4.5q42 0 59 8t30 23q6 8 15 15q5 3 9 3q9 0 9 -7
q0 -8 -13.5 -19.5t-39 -20t-60.5 -8.5q-42 0 -106 15zM157 -140q-7 7 -7 17t7 17t17 7t17 -7t7 -17t-7 -17t-17 -7t-17 7z" />
    <glyph glyph-name="uni1EB9" unicode="&#x1eb9;" horiz-adv-x="365" 
d="M78 33.5q-33 49.5 -33 143.5q0 87 27.5 165.5t74.5 126t102 47.5q61 0 61 -65q0 -51 -33 -116t-83.5 -122.5t-98.5 -86.5q-4 -2 -6.5 -1.5t-2.5 3.5t9 9q45 26 94 80.5t82 118.5t33 115q0 27 -12 43t-43 16q-52 0 -97.5 -46.5t-72.5 -123t-27 -163.5q0 -92 31 -139.5
t90 -47.5q42 0 69 27.5t51 71.5q2 4 8.5 14.5t11 15t8.5 4.5q5 0 5 -7q0 -12 -22.5 -45.5t-57.5 -60t-74 -26.5q-61 0 -94 49.5zM143 -155q-7 7 -7 17t7 17t17 7t17 -7t7 -17t-7 -17t-17 -7t-17 7z" />
    <glyph glyph-name="uni1EBA" unicode="&#x1eba;" horiz-adv-x="430" 
d="M147 -16q-35 8 -61.5 12t-57.5 4q-11 0 -22 -2t-18 -2q-14 0 -14 9t14 9q31 0 40.5 12t13.5 50l28 269q2 27 24 32q-8 1 -12.5 8.5t-3.5 23.5l29 283q1 6 2.5 8t6.5 2t16 -1t26 -1h46l149 1q22 1 51 1q20 0 20 -10q0 -9 -17 -9q-14 0 -46 3q-104 8 -157 8h-91l-28 -284
q-1 -16 5 -23t21 -7h60q42 0 122 4l67 2q11 0 14.5 -2t3.5 -7q0 -9 -19 -9l-67 2q-120 3 -122 3h-60q-15 0 -23.5 -7t-9.5 -23l-29 -270q-3 -33 -11 -47t-30 -19h13q33 0 59 -4t73 -14q24 -5 48.5 -9.5t43.5 -4.5q42 0 59 8t30 23q6 8 15 15q5 3 9 3q9 0 9 -7
q0 -8 -13.5 -19.5t-39 -20t-60.5 -8.5q-42 0 -106 15zM244.5 768q-6.5 3 -6.5 7q0 5 8 5q48 0 77 16.5t29 49.5q0 26 -20 42t-52 16q-35 0 -59.5 -17.5t-24.5 -44.5q0 -4 -3.5 -4t-3.5 4q0 30 27.5 49t64.5 19q33 0 55 -17t22 -47q0 -37 -29 -59t-66 -22q-12 0 -18.5 3z" />
    <glyph glyph-name="uni1EBB" unicode="&#x1ebb;" horiz-adv-x="365" 
d="M78 33.5q-33 49.5 -33 143.5q0 87 27.5 165.5t74.5 126t102 47.5q61 0 61 -65q0 -51 -33 -116t-83.5 -122.5t-98.5 -86.5q-4 -2 -6.5 -1.5t-2.5 3.5t9 9q45 26 94 80.5t82 118.5t33 115q0 27 -12 43t-43 16q-52 0 -97.5 -46.5t-72.5 -123t-27 -163.5q0 -92 31 -139.5
t90 -47.5q42 0 69 27.5t51 71.5q2 4 8.5 14.5t11 15t8.5 4.5q5 0 5 -7q0 -12 -22.5 -45.5t-57.5 -60t-74 -26.5q-61 0 -94 49.5zM212.5 568q-6.5 3 -6.5 7q0 5 8 5q48 0 77 16.5t29 49.5q0 26 -20 42t-52 16q-35 0 -59.5 -17.5t-24.5 -44.5q0 -4 -3.5 -4t-3.5 4
q0 30 27.5 49t64.5 19q33 0 55 -17t22 -47q0 -37 -29 -59t-66 -22q-12 0 -18.5 3z" />
    <glyph glyph-name="uni1EBC" unicode="&#x1ebc;" horiz-adv-x="430" 
d="M147 -16q-35 8 -61.5 12t-57.5 4q-11 0 -22 -2t-18 -2q-14 0 -14 9t14 9q31 0 40.5 12t13.5 50l28 269q2 27 24 32q-8 1 -12.5 8.5t-3.5 23.5l29 283q1 6 2.5 8t6.5 2t16 -1t26 -1h46l149 1q22 1 51 1q20 0 20 -10q0 -9 -17 -9q-14 0 -46 3q-104 8 -157 8h-91l-28 -284
q-1 -16 5 -23t21 -7h60q42 0 122 4l67 2q11 0 14.5 -2t3.5 -7q0 -9 -19 -9l-67 2q-120 3 -122 3h-60q-15 0 -23.5 -7t-9.5 -23l-29 -270q-3 -33 -11 -47t-30 -19h13q33 0 59 -4t73 -14q24 -5 48.5 -9.5t43.5 -4.5q42 0 59 8t30 23q6 8 15 15q5 3 9 3q9 0 9 -7
q0 -8 -13.5 -19.5t-39 -20t-60.5 -8.5q-42 0 -106 15zM297.5 803.5q-10.5 8.5 -25.5 26.5q-13 17 -23 25t-25 8q-18 0 -28.5 -10.5t-20.5 -28.5q-8 -17 -14 -17q-2 0 -3.5 2t-1.5 5q0 10 8.5 23.5t23 23t33.5 9.5q17 0 28.5 -9t24.5 -26t22.5 -24.5t24.5 -7.5
q19 0 29.5 10.5t20.5 28.5q1 2 5 9t8 7q6 0 6 -7q0 -8 -8.5 -22t-23.5 -24t-33 -10q-17 0 -27.5 8.5z" />
    <glyph glyph-name="uni1EBD" unicode="&#x1ebd;" horiz-adv-x="365" 
d="M78 33.5q-33 49.5 -33 143.5q0 87 27.5 165.5t74.5 126t102 47.5q61 0 61 -65q0 -51 -33 -116t-83.5 -122.5t-98.5 -86.5q-4 -2 -6.5 -1.5t-2.5 3.5t9 9q45 26 94 80.5t82 118.5t33 115q0 27 -12 43t-43 16q-52 0 -97.5 -46.5t-72.5 -123t-27 -163.5q0 -92 31 -139.5
t90 -47.5q42 0 69 27.5t51 71.5q2 4 8.5 14.5t11 15t8.5 4.5q5 0 5 -7q0 -12 -22.5 -45.5t-57.5 -60t-74 -26.5q-61 0 -94 49.5zM265.5 603.5q-10.5 8.5 -25.5 26.5q-13 17 -23 25t-25 8q-18 0 -28.5 -10.5t-20.5 -28.5q-8 -17 -14 -17q-2 0 -3.5 2t-1.5 5q0 10 8.5 23.5
t23 23t33.5 9.5q17 0 28.5 -9t24.5 -26t22.5 -24.5t24.5 -7.5q19 0 29.5 10.5t20.5 28.5q1 2 5 9t8 7q6 0 6 -7q0 -8 -8.5 -22t-23.5 -24t-33 -10q-17 0 -27.5 8.5z" />
    <glyph glyph-name="uni1EBE" unicode="&#x1ebe;" horiz-adv-x="430" 
d="M147 -16q-35 8 -61.5 12t-57.5 4q-11 0 -22 -2t-18 -2q-14 0 -14 9t14 9q31 0 40.5 12t13.5 50l28 269q2 27 24 32q-8 1 -12.5 8.5t-3.5 23.5l29 283q1 6 2.5 8t6.5 2t16 -1t26 -1h46l149 1q22 1 51 1q20 0 20 -10q0 -9 -17 -9q-14 0 -46 3q-104 8 -157 8h-91l-28 -284
q-1 -16 5 -23t21 -7h60q42 0 122 4l67 2q11 0 14.5 -2t3.5 -7q0 -9 -19 -9l-67 2q-120 3 -122 3h-60q-15 0 -23.5 -7t-9.5 -23l-29 -270q-3 -33 -11 -47t-30 -19h13q33 0 59 -4t73 -14q24 -5 48.5 -9.5t43.5 -4.5q42 0 59 8t30 23q6 8 15 15q5 3 9 3q9 0 9 -7
q0 -8 -13.5 -19.5t-39 -20t-60.5 -8.5q-42 0 -106 15zM352 876l163 129q4 4 10 4q4 0 7 -3t3 -7q0 -6 -7 -10l-173 -117zM153 804q71 59 129 111l110 -128l17 -19l-8 -6l-26 32l-93 113q-45 -40 -106 -104q-20 -22 -30 -31t-16 -9q-9 0 -9 9q0 5 4 9z" />
    <glyph glyph-name="uni1EBF" unicode="&#x1ebf;" horiz-adv-x="365" 
d="M78 33.5q-33 49.5 -33 143.5q0 87 27.5 165.5t74.5 126t102 47.5q61 0 61 -65q0 -51 -33 -116t-83.5 -122.5t-98.5 -86.5q-4 -2 -6.5 -1.5t-2.5 3.5t9 9q45 26 94 80.5t82 118.5t33 115q0 27 -12 43t-43 16q-52 0 -97.5 -46.5t-72.5 -123t-27 -163.5q0 -92 31 -139.5
t90 -47.5q42 0 69 27.5t51 71.5q2 4 8.5 14.5t11 15t8.5 4.5q5 0 5 -7q0 -12 -22.5 -45.5t-57.5 -60t-74 -26.5q-61 0 -94 49.5zM319 676l163 129q4 4 10 4q4 0 7 -3t3 -7q0 -6 -7 -10l-173 -117zM120 604q71 59 129 111l110 -128l17 -19l-8 -6l-26 32l-93 113
q-45 -40 -106 -104q-20 -22 -30 -31t-16 -9q-9 0 -9 9q0 5 4 9z" />
    <glyph glyph-name="uni1EC0" unicode="&#x1ec0;" horiz-adv-x="430" 
d="M147 -16q-35 8 -61.5 12t-57.5 4q-11 0 -22 -2t-18 -2q-14 0 -14 9t14 9q31 0 40.5 12t13.5 50l28 269q2 27 24 32q-8 1 -12.5 8.5t-3.5 23.5l29 283q1 6 2.5 8t6.5 2t16 -1t26 -1h46l149 1q22 1 51 1q20 0 20 -10q0 -9 -17 -9q-14 0 -46 3q-104 8 -157 8h-91l-28 -284
q-1 -16 5 -23t21 -7h60q42 0 122 4l67 2q11 0 14.5 -2t3.5 -7q0 -9 -19 -9l-67 2q-120 3 -122 3h-60q-15 0 -23.5 -7t-9.5 -23l-29 -270q-3 -33 -11 -47t-30 -19h13q33 0 59 -4t73 -14q24 -5 48.5 -9.5t43.5 -4.5q42 0 59 8t30 23q6 8 15 15q5 3 9 3q9 0 9 -7
q0 -8 -13.5 -19.5t-39 -20t-60.5 -8.5q-42 0 -106 15zM279 1001q0 4 3 6.5t7 2.5q5 0 9 -5l131 -158l-3 -3l-142 147q-5 5 -5 10zM153 804q71 59 129 111l110 -128l17 -19l-8 -6l-26 32l-93 113q-45 -40 -106 -104q-20 -22 -30 -31t-16 -9q-9 0 -9 9q0 5 4 9z" />
    <glyph glyph-name="uni1EC1" unicode="&#x1ec1;" horiz-adv-x="365" 
d="M78 33.5q-33 49.5 -33 143.5q0 87 27.5 165.5t74.5 126t102 47.5q61 0 61 -65q0 -51 -33 -116t-83.5 -122.5t-98.5 -86.5q-4 -2 -6.5 -1.5t-2.5 3.5t9 9q45 26 94 80.5t82 118.5t33 115q0 27 -12 43t-43 16q-52 0 -97.5 -46.5t-72.5 -123t-27 -163.5q0 -92 31 -139.5
t90 -47.5q42 0 69 27.5t51 71.5q2 4 8.5 14.5t11 15t8.5 4.5q5 0 5 -7q0 -12 -22.5 -45.5t-57.5 -60t-74 -26.5q-61 0 -94 49.5zM246 801q0 4 3 6.5t7 2.5q5 0 9 -5l131 -158l-3 -3l-142 147q-5 5 -5 10zM120 604q71 59 129 111l110 -128l17 -19l-8 -6l-26 32l-93 113
q-45 -40 -106 -104q-20 -22 -30 -31t-16 -9q-9 0 -9 9q0 5 4 9z" />
    <glyph glyph-name="uni1EC2" unicode="&#x1ec2;" horiz-adv-x="430" 
d="M147 -16q-35 8 -61.5 12t-57.5 4q-11 0 -22 -2t-18 -2q-14 0 -14 9t14 9q31 0 40.5 12t13.5 50l28 269q2 27 24 32q-8 1 -12.5 8.5t-3.5 23.5l29 283q1 6 2.5 8t6.5 2t16 -1t26 -1h46l149 1q22 1 51 1q20 0 20 -10q0 -9 -17 -9q-14 0 -46 3q-104 8 -157 8h-91l-28 -284
q-1 -16 5 -23t21 -7h60q42 0 122 4l67 2q11 0 14.5 -2t3.5 -7q0 -9 -19 -9l-67 2q-120 3 -122 3h-60q-15 0 -23.5 -7t-9.5 -23l-29 -270q-3 -33 -11 -47t-30 -19h13q33 0 59 -4t73 -14q24 -5 48.5 -9.5t43.5 -4.5q42 0 59 8t30 23q6 8 15 15q5 3 9 3q9 0 9 -7
q0 -8 -13.5 -19.5t-39 -20t-60.5 -8.5q-42 0 -106 15zM121 772q0 5 4 9l28 23q71 59 129 111l110 -128l17 -19l-8 -6l-26 32l-93 113q-45 -40 -106 -104q-20 -22 -30 -31t-16 -9q-9 0 -9 9zM378.5 892q-6.5 3 -6.5 7q0 5 8 5q48 0 77 16.5t29 49.5q0 26 -20 42t-52 16
q-35 0 -59.5 -17.5t-24.5 -44.5q0 -4 -3.5 -4t-3.5 4q0 30 27.5 49t64.5 19q33 0 55 -17t22 -47q0 -37 -29 -59t-66 -22q-12 0 -18.5 3z" />
    <glyph glyph-name="uni1EC3" unicode="&#x1ec3;" horiz-adv-x="365" 
d="M78 33.5q-33 49.5 -33 143.5q0 87 27.5 165.5t74.5 126t102 47.5q61 0 61 -65q0 -51 -33 -116t-83.5 -122.5t-98.5 -86.5q-4 -2 -6.5 -1.5t-2.5 3.5t9 9q45 26 94 80.5t82 118.5t33 115q0 27 -12 43t-43 16q-52 0 -97.5 -46.5t-72.5 -123t-27 -163.5q0 -92 31 -139.5
t90 -47.5q42 0 69 27.5t51 71.5q2 4 8.5 14.5t11 15t8.5 4.5q5 0 5 -7q0 -12 -22.5 -45.5t-57.5 -60t-74 -26.5q-61 0 -94 49.5zM88 572q0 5 4 9l28 23q71 59 129 111l110 -128l17 -19l-8 -6l-26 32l-93 113q-45 -40 -106 -104q-20 -22 -30 -31t-16 -9q-9 0 -9 9zM345.5 692
q-6.5 3 -6.5 7q0 5 8 5q48 0 77 16.5t29 49.5q0 26 -20 42t-52 16q-35 0 -59.5 -17.5t-24.5 -44.5q0 -4 -3.5 -4t-3.5 4q0 30 27.5 49t64.5 19q33 0 55 -17t22 -47q0 -37 -29 -59t-66 -22q-12 0 -18.5 3z" />
    <glyph glyph-name="uni1EC4" unicode="&#x1ec4;" horiz-adv-x="430" 
d="M147 -16q-35 8 -61.5 12t-57.5 4q-11 0 -22 -2t-18 -2q-14 0 -14 9t14 9q31 0 40.5 12t13.5 50l28 269q2 27 24 32q-8 1 -12.5 8.5t-3.5 23.5l29 283q1 6 2.5 8t6.5 2t16 -1t26 -1h46l149 1q22 1 51 1q20 0 20 -10q0 -9 -17 -9q-14 0 -46 3q-104 8 -157 8h-91l-28 -284
q-1 -16 5 -23t21 -7h60q42 0 122 4l67 2q11 0 14.5 -2t3.5 -7q0 -9 -19 -9l-67 2q-120 3 -122 3h-60q-15 0 -23.5 -7t-9.5 -23l-29 -270q-3 -33 -11 -47t-30 -19h13q33 0 59 -4t73 -14q24 -5 48.5 -9.5t43.5 -4.5q42 0 59 8t30 23q6 8 15 15q5 3 9 3q9 0 9 -7
q0 -8 -13.5 -19.5t-39 -20t-60.5 -8.5q-42 0 -106 15zM310 958.5q-13 6.5 -30 19.5q-16 13 -27.5 19t-26.5 6q-22 0 -33 -8.5t-19 -21.5t-12 -13q-5 0 -5 5q0 14 16.5 29.5t47.5 15.5q18 0 31 -6.5t30 -19.5q17 -12 28 -18t26 -6q23 0 34 8.5t18.5 21t11.5 12.5q5 0 5 -5
q0 -8 -7 -18.5t-21.5 -18.5t-35.5 -8q-18 0 -31 6.5zM154 804q71 59 129 111l110 -128l17 -19l-8 -6l-26 32l-93 113q-45 -40 -106 -104q-20 -22 -30 -31t-16 -9q-9 0 -9 9q0 5 4 9z" />
    <glyph glyph-name="uni1EC5" unicode="&#x1ec5;" horiz-adv-x="365" 
d="M78 33.5q-33 49.5 -33 143.5q0 87 27.5 165.5t74.5 126t102 47.5q61 0 61 -65q0 -51 -33 -116t-83.5 -122.5t-98.5 -86.5q-4 -2 -6.5 -1.5t-2.5 3.5t9 9q45 26 94 80.5t82 118.5t33 115q0 27 -12 43t-43 16q-52 0 -97.5 -46.5t-72.5 -123t-27 -163.5q0 -92 31 -139.5
t90 -47.5q42 0 69 27.5t51 71.5q2 4 8.5 14.5t11 15t8.5 4.5q5 0 5 -7q0 -12 -22.5 -45.5t-57.5 -60t-74 -26.5q-61 0 -94 49.5zM278 758.5q-13 6.5 -30 19.5q-16 13 -27.5 19t-26.5 6q-22 0 -33 -8.5t-19 -21.5t-12 -13q-5 0 -5 5q0 14 16.5 29.5t47.5 15.5q18 0 31 -6.5
t30 -19.5q17 -12 28 -18t26 -6q23 0 34 8.5t18.5 21t11.5 12.5q5 0 5 -5q0 -8 -7 -18.5t-21.5 -18.5t-35.5 -8q-18 0 -31 6.5zM122 604q71 59 129 111l110 -128l17 -19l-8 -6l-26 32l-93 113q-45 -40 -106 -104q-20 -22 -30 -31t-16 -9q-9 0 -9 9q0 5 4 9z" />
    </font>
</defs>
</svg>
