<?xml version="1.0" standalone="no"?>
<!DOCTYPE svg PUBLIC "-//W3C//DTD SVG 1.1//EN" "http://www.w3.org/Graphics/SVG/1.1/DTD/svg11.dtd" >
<svg xmlns="http://www.w3.org/2000/svg" xmlns:xlink="http://www.w3.org/1999/xlink" version="1.1">
<metadata>
Created by FontForge 20170731 at Tue May 17 21:46:15 2022
 By Aleksey,,,
Copyright 2022 Connary Fagen, Inc.
</metadata>
<defs>
<font id="CerulyaCF-Light" horiz-adv-x="640" >
  <font-face 
    font-family="Cerulya CF Light"
    font-weight="300"
    font-stretch="normal"
    units-per-em="1000"
    panose-1="0 0 0 0 0 0 0 0 0 0"
    ascent="800"
    descent="-200"
    x-height="504"
    cap-height="704"
    bbox="-490 -283 1520 1034"
    underline-thickness="50"
    underline-position="-175"
    unicode-range="U+0020-FB02"
  />
<missing-glyph horiz-adv-x="465" 
d="M381 -200h-295v930h295v-930zM310 -136v31h-95l65 44h30v30h-155v-30h65l-65 -44v-31h155zM310 -9v105h-155v-105h155zM310 152v105h-93v-52h31v21h31v-44h-93v75h-31v-105h155zM310 277v93h-31v-61h-124v-32h155zM248 330v65h62v31h-155v-31h62v-34h-62v-31h93zM310 451
v32h-62v65h-93v-97h155zM310 572v31h-62v34h62v31h-154v-31h61v-34h-62v-31h155zM186 65h93v-44h-93v44zM186 516h31v-33h-31v33z" />
    <glyph glyph-name="fi" unicode="fi" horiz-adv-x="546" 
d="M25 4q0 7 15 7q5 0 18.5 -3t26.5 -3q27 0 36 16.5t9 54.5v425h-101q-4 0 -4 2t4 2h101v37q0 77 10.5 118t46.5 62.5t110 21.5q53 0 53 -10q0 -5 -11 -5q-12 0 -20 1l-51 1q-60 0 -88.5 -19.5t-37 -59t-8.5 -114.5v-32q142 2 188 2q100 2 125 2q16 0 20 -4t4 -13l-1 -28
q-5 -70 -5 -140v-150q0 -77 5 -140l1 -23q0 -17 -8 -17t-8 17l1 23q5 63 5 140v150q0 102 -1 129v32q0 7 -3 9t-11 2q-33 0 -141 2q-102 2 -171 2v-426q0 -31 -6 -48t-22 -23h88q41 0 106 5l35 2q6 0 11.5 -1t5.5 -5q0 -8 -17 -8q-20 0 -35 1q-52 2 -106 2h-74
q-38 0 -55.5 -2t-24.5 -2q-15 0 -15 8zM454 726.5q3 3.5 9 3.5t9 -3.5t3 -8.5q0 -12 -12 -12t-12 12q0 5 3 8.5z" />
    <glyph glyph-name="fl" unicode="fl" horiz-adv-x="675" 
d="M549.5 10.5q-14.5 16.5 -14.5 59.5v610q0 23 -4 33t-17.5 14t-44.5 4h-111q-84 0 -130.5 -15.5t-70 -63t-23.5 -143.5v-3q73 1 113 3l52 1q15 0 19 -1t4 -5t-4.5 -5.5t-18.5 -1.5l-52 1q-40 2 -113 3v-426q0 -31 -6 -48t-22 -23h138q41 0 106 5l35 2q6 0 11.5 -1t5.5 -5
q0 -8 -17 -8q-20 0 -35 1q-52 2 -106 2h-124q-38 0 -55.5 -2t-24.5 -2q-15 0 -15 8q0 7 15 7q5 0 18.5 -3t26.5 -3q27 0 36 16.5t9 54.5v425h-101q-4 0 -4 2t4 2h101v7q0 97 25.5 147t80 68t152.5 18h78q44 0 58.5 -13t14.5 -52v-619q0 -32 14 -43t45 -11q30 0 53 5l6 1
q8 0 8 -5q0 -6 -15.5 -10t-40.5 -4q-45 0 -59.5 16.5z" />
    <glyph glyph-name="f_f_i" unicode="ffi" horiz-adv-x="875" 
d="M354 4q0 7 15 7q5 0 18.5 -3t26.5 -3q27 0 36 16.5t9 54.5v425h-101h-224v-426q0 -31 -6 -48t-22 -23h48q41 0 106 5l35 2q6 0 11.5 -1t5.5 -5q0 -8 -17 -8q-20 0 -35 1q-52 2 -106 2h-34q-38 0 -55.5 -2t-24.5 -2q-15 0 -15 8q0 7 15 7q5 0 18.5 -3t26.5 -3
q27 0 36 16.5t9 54.5v425h-101q-4 0 -4 2t4 2h101v37q0 77 11.5 118t51.5 62.5t124 21.5h302h7q53 0 53 -10q0 -5 -11 -5q-12 0 -20 1l-51 1q-60 0 -88.5 -19.5t-37 -59t-8.5 -114.5v-32q142 2 188 2q100 2 125 2q16 0 20 -4t4 -13l-1 -28q-5 -70 -5 -140v-150q0 -77 5 -140
l1 -23q0 -17 -8 -17t-8 17l1 23q5 63 5 140v150q0 102 -1 129v32q0 7 -3 9t-11 2q-33 0 -141 2q-102 2 -171 2v-426q0 -31 -6 -48t-22 -23h88q41 0 106 5l35 2q6 0 11.5 -1t5.5 -5q0 -8 -17 -8q-20 0 -35 1q-52 2 -106 2h-74q-38 0 -55.5 -2t-24.5 -2q-15 0 -15 8zM358 505
h101v37q0 85 14 128.5t61 60.5h-246q-69 0 -102 -19.5t-42.5 -58.5t-9.5 -115v-33h224zM783 726.5q3 3.5 9 3.5t9 -3.5t3 -8.5q0 -12 -12 -12t-12 12q0 5 3 8.5z" />
    <glyph glyph-name="f_f_l" unicode="ffl" horiz-adv-x="990" 
d="M25 4q0 7 15 7q5 0 18.5 -3t26.5 -3q27 0 36 16.5t9 54.5v425h-101q-4 0 -4 2t4 2h101v7q0 97 25.5 146.5t79.5 67.5t152 18h269q15 1 47 1h78q44 0 58.5 -13t14.5 -52v-619q0 -32 14 -43t45 -11q30 0 53 5l6 1q8 0 8 -5q0 -6 -15.5 -10t-40.5 -4q-45 0 -59.5 16.5
t-14.5 59.5v610q0 23 -4 33t-17.5 14t-44.5 4h-111q-84 0 -130.5 -15.5t-70 -63t-23.5 -143.5v-3q73 1 113 3l52 1q15 0 19 -1t4 -5t-4.5 -5.5t-18.5 -1.5l-52 1q-40 2 -113 3v-426q0 -31 -6 -48t-22 -23h138q41 0 106 5l35 2q6 0 11.5 -1t5.5 -5q0 -8 -17 -8q-20 0 -35 1
q-52 2 -106 2h-124q-38 0 -55.5 -2t-24.5 -2q-15 0 -15 8q0 7 15 7q5 0 18.5 -3t26.5 -3q27 0 36 16.5t9 54.5v425h-101h-210v-426q0 -31 -6 -48t-22 -23h48q41 0 106 5l35 2q6 0 11.5 -1t5.5 -5q0 -8 -17 -8q-20 0 -35 1q-52 2 -106 2h-34q-38 0 -55.5 -2t-24.5 -2
q-15 0 -15 8zM344 505h101v7q0 101 28 151t91 68h-206q-84 0 -130.5 -15.5t-70 -63.5t-23.5 -144v-3h210z" />
    <glyph glyph-name=".notdef" horiz-adv-x="465" 
d="M381 -200h-295v930h295v-930zM310 -136v31h-95l65 44h30v30h-155v-30h65l-65 -44v-31h155zM310 -9v105h-155v-105h155zM310 152v105h-93v-52h31v21h31v-44h-93v75h-31v-105h155zM310 277v93h-31v-61h-124v-32h155zM248 330v65h62v31h-155v-31h62v-34h-62v-31h93zM310 451
v32h-62v65h-93v-97h155zM310 572v31h-62v34h62v31h-154v-31h61v-34h-62v-31h155zM186 65h93v-44h-93v44zM186 516h31v-33h-31v33z" />
    <glyph glyph-name=".null" horiz-adv-x="0" 
 />
    <glyph glyph-name="nonmarkingreturn" horiz-adv-x="333" 
 />
    <glyph glyph-name="space" unicode=" " horiz-adv-x="215" 
 />
    <glyph glyph-name="exclam" unicode="!" horiz-adv-x="220" 
d="M104 627l-2 63q0 15 8 15t8 -15l-1 -63q-4 -146 -4 -302v-124q0 -3 -2 -3t-2 3v124q0 120 -5 302zM67 87q17 17 43 17t43 -17t17 -43t-17 -43t-43 -17t-43 17t-17 43t17 43zM70 4q16 -16 40 -16t40 16t16 40t-16 40t-40 16t-40 -16t-16 -40t16 -40z" />
    <glyph glyph-name="quotedbl" unicode="&#x22;" horiz-adv-x="205" 
d="M140 460q0 87 -4 235q-1 13 -1 29q0 11 8 11q7 0 7 -11q0 -16 -1 -29q-4 -148 -4 -235q0 -4 -2 -4q-3 0 -3 4zM60 460q0 87 -4 235q-1 13 -1 29q0 11 8 11q7 0 7 -11q0 -16 -1 -29q-4 -148 -4 -235q0 -4 -2 -4q-3 0 -3 4z" />
    <glyph glyph-name="numbersign" unicode="#" horiz-adv-x="600" 
d="M331 4q14 64 37 213l13 89q-23 1 -75 1h-26h-75l-5 -33q-18 -112 -26 -183l-7 -48q-1 -9 -6 -9q-6 0 -4 9l38 231l5 33l-126 -2q-4 0 -6.5 0.5t-2.5 2.5q0 18 37.5 31t106.5 24l9 56l-133 -2q-9 0 -9 4t10 4l133 -2l11 70q12 76 27 199l4 28q2 13 8 13q9 0 7 -12l-10 -53
q-16 -84 -31 -175l-11 -70h67h26h82l11 73q18 130 28 207l3 20q2 13 8 13q8 0 6 -12q-1 -6 -3 -16.5t-5 -25.5q-3 -14 -13 -69.5t-19 -116.5l-11 -73l122 2q4 0 6.5 -0.5t2.5 -2.5q0 -10 -34 -17.5t-103 -16.5l-11 -76q56 0 104 2h24q9 0 9 -5q0 -2 -3.5 -4t-8.5 -2l-126 3
l-14 -89l-31 -213q-1 -9 -6 -9q-6 0 -4 9zM201 311l8 50q-65 -11 -101 -23t-36 -27h129zM280 311h26h76l12 76l-24 -3q-55 -7 -77 -10l-79 -12l-8 -51h74zM293 376l101 14l4 29h-107h-68l-9 -55zM523 419h-120l-4 -28q124 16 124 28z" />
    <glyph glyph-name="dollar" unicode="$" horiz-adv-x="560" 
d="M273 12l1 34l3 53h-5q-72 0 -128.5 18t-86.5 39q-7 6 -7 11q0 7 7 7q2 0 9 -5q2 -2 24 -20t71.5 -32t112.5 -14h3q1 20 1 72v206q-73 15 -113.5 27.5t-69 37t-28.5 65.5q0 53 50 84t158 33l-3 90q0 17 8 17t8 -17q0 -25 -3 -90h4q64 0 117 -5.5t53 -15.5q0 -4 -7 -4
t-27 3q-8 1 -47.5 5.5t-92.5 5.5q-2 -80 -2 -142v-91q71 -14 116 -29t75.5 -43.5t30.5 -76.5q0 -67 -60.5 -100.5t-160.5 -35.5l3 -53l1 -34q0 -17 -8 -17q-7 0 -7 17zM99 447q28 -24 68.5 -36t110.5 -26v90q0 82 -3 142h-13h-25q-80 0 -123 -28.5t-43 -77.5q0 -40 28 -64z
M284 103q97 2 157 34.5t60 97.5q0 46 -29.5 74t-73.5 42.5t-115 28.5v-205q0 -52 1 -72z" />
    <glyph glyph-name="percent" unicode="%" horiz-adv-x="840" 
d="M142.5 -13q-1.5 3 2.5 8q16 21 37 47q17 21 78.5 99.5t114.5 150.5q86 116 106 144l153 207q42 58 58 69h-487q-40 0 -73.5 -19.5t-53 -52.5t-19.5 -73t19.5 -73.5t53 -52.5t73.5 -19t73 19t52 52t19 73q0 18 -18 42q-3 5 -3 9t2.5 6.5t6.5 2.5q10 0 14 -20t4 -39
q0 -41 -20 -75.5t-54.5 -54t-75.5 -19.5t-75.5 19.5t-54.5 54t-20 75.5t20 75.5t54.5 54t75.5 19.5h478q7 0 17 2t15 2q14 0 14 -8q0 -6 -13 -6q-19 0 -37 -17t-39 -45l-33 -45l-229 -308q-188 -252 -223 -302q-4 -5 -8 -5q-3 0 -4.5 3zM505 208.5q20 34.5 54.5 54
t75.5 19.5t75.5 -19.5t54.5 -54t20 -75.5t-20 -75.5t-54.5 -54t-75.5 -19.5t-75.5 19.5t-54.5 54t-20 75.5t20 75.5zM508.5 59.5q19.5 -33.5 53 -52.5t73.5 -19t73.5 19t53 52.5t19.5 73.5t-19.5 73.5t-53 52.5t-73.5 19t-73.5 -19t-53 -52.5t-19.5 -73.5t19.5 -73.5z" />
    <glyph glyph-name="ampersand" unicode="&#x26;" horiz-adv-x="895" 
d="M408 -5q0 3 4 5.5t9 2.5t15.5 -3t21.5 -3q30 0 39.5 16t9.5 55v181q-21 -18 -41 -42.5t-46 -61.5q-39 -53 -67 -85t-64.5 -54t-80.5 -22q-41 0 -76 19t-56 53t-21 77q0 65 46 107.5t122 49.5q-42 8 -68.5 39.5t-26.5 74.5q0 47 33 79.5t96 32.5q31 0 58.5 -9.5t44 -22
t16.5 -20.5q0 -4 -6 -4q-4 0 -19.5 15t-37.5 26t-56 11q-61 0 -93 -30.5t-32 -77.5q0 -49 34 -81t85 -32h298q66 0 108 4l25 1q17 0 17 -6q0 -4 -5 -6t-12 -2l-32 2q-48 3 -53 3q-43 0 -86 -35v-187q0 -32 -7 -48.5t-26 -20.5h31q77 0 152.5 41.5t125 121.5t49.5 188
q0 118 -54 200.5t-140 123.5t-179 41q-68 0 -113.5 -16t-82.5 -39q-17 -10 -21 -10q-6 0 -6 4q0 11 31.5 26.5t82 27t107.5 11.5q95 0 182 -42t142 -125.5t55 -201.5q0 -108 -50 -189t-127 -123.5t-154 -42.5h-44q-16 0 -26.5 -2t-17.5 -2q-13 0 -13 7zM79.5 57
q20.5 -33 54.5 -51t74 -18q43 0 79 21.5t63.5 53t65.5 83.5q46 63 79.5 97.5t75.5 43.5h-320q-87 0 -139.5 -42.5t-52.5 -111.5q0 -43 20.5 -76z" />
    <glyph glyph-name="quotesingle" unicode="'" horiz-adv-x="125" 
d="M60 460q0 87 -4 235q-1 13 -1 29q0 11 8 11q7 0 7 -11q0 -16 -1 -29q-4 -148 -4 -235q0 -4 -2 -4q-3 0 -3 4z" />
    <glyph glyph-name="parenleft" unicode="(" horiz-adv-x="425" 
d="M213 -12.5q-72 51.5 -115 146t-43 217.5t43 217.5t115 146t156 51.5q6 0 6 -4t-6 -4q-82 0 -153 -50.5t-114 -143t-43 -213.5t43 -213.5t114 -143t153 -50.5q6 0 6 -4t-6 -4q-84 0 -156 51.5z" />
    <glyph glyph-name="parenright" unicode=")" horiz-adv-x="425" 
d="M212 714.5q72 -51.5 115 -146t43 -217.5t-43 -217.5t-115 -146t-156 -51.5q-6 0 -6 4t6 4q82 0 153 50.5t114 143t43 213.5t-43 213.5t-114 143t-153 50.5q-6 0 -6 4t6 4q84 0 156 -51.5z" />
    <glyph glyph-name="asterisk" unicode="*" horiz-adv-x="390" 
d="M97 431q-6 0 -6 6q0 5 6 9q3 2 23 20t54 54q1 2 2 1t0 -3q-23 -24 -56 -66l-14 -16q-4 -5 -9 -5zM50 593q0 2 2 4t6 2q2 0 31 -14t72 -29q2 -1 1.5 -2t-1.5 0q-41 14 -68.5 21t-34.5 9q-8 3 -8 9zM195 705q7 0 7 -13q0 -8 -3 -37t-3 -70q0 -3 -1 -3t-1 3q0 41 -3 70
t-3 37q0 13 7 13zM214 521q1 1 2 -1q34 -36 54 -54t23 -20q6 -4 6 -9q0 -3 -2 -5t-4 -2q-4 0 -9 6l-14 16q-33 42 -56 66q-1 2 0 3zM227.5 554q-0.5 1 1.5 2q42 15 67.5 27.5t30.5 14.5q2 1 5 1q8 0 8 -7q0 -5 -8 -8q-7 -2 -34.5 -9t-68.5 -21q-1 -1 -1.5 0z" />
    <glyph glyph-name="plus" unicode="+" horiz-adv-x="560" 
d="M35 275h243v243h4v-243h243v-4h-243v-243h-4v243h-243v4z" />
    <glyph glyph-name="comma" unicode="," horiz-adv-x="195" 
d="M45 -89q0 4 6 4q26 0 44.5 4.5t32 22t13.5 54.5q0 32 -9.5 61t-24.5 63v1q0 4 4.5 6t5.5 -2q12 -29 20 -58.5t8 -68.5q0 -93 -88 -93q-12 0 -12 6z" />
    <glyph glyph-name="hyphen" unicode="-" horiz-adv-x="660" 
d="M35 275h590v-4h-590v4z" />
    <glyph glyph-name="period" unicode="." horiz-adv-x="220" 
d="M67 1q-17 17 -17 43t17 43t43 17t43 -17t17 -43t-17 -43t-43 -17t-43 17zM70 4q16 -16 40 -16t40 16t16 40t-16 40t-40 16t-40 -16t-16 -40t16 -40z" />
    <glyph glyph-name="slash" unicode="/" horiz-adv-x="279" 
d="M60 -146q1 9 8 40q20 97 37 205l65 411q14 89 25 189q6 50 7 56q2 15 10 15q9 0 7 -15q-1 -9 -8 -40q-19 -97 -37 -205l-65 -411q-14 -89 -25 -189q-6 -50 -7 -56q-2 -15 -10 -15q-9 0 -7 15z" />
    <glyph glyph-name="zero" unicode="0" horiz-adv-x="860" 
d="M245 30q-86 46 -138 129.5t-52 191.5q0 107 52 190t138 129t185 46t185 -46t138 -129t52 -190q0 -108 -52 -191.5t-138 -129.5t-185 -46t-185 46zM110.5 161q51.5 -83 136.5 -128t183 -45t183 45t136.5 128t51.5 190q0 106 -51.5 188.5t-136.5 127.5t-183 45t-183 -45
t-136.5 -127.5t-51.5 -188.5q0 -107 51.5 -190z" />
    <glyph glyph-name="one" unicode="1" horiz-adv-x="385" 
d="M50 4q0 7 19 7q6 0 28 -2.5t74 -2.5q33 0 42.5 15t9.5 55v627q-67 -49 -127 -101q-11 -10 -19 -15.5t-11 -5.5q-6 0 -6 5t7.5 11t26.5 18q36 24 44 30l47 35q39 29 42 29q5 0 5 -7q0 -3 -2.5 -25t-2.5 -73v-531q0 -31 -6 -47t-23 -21h47q37 0 57 2.5t27 2.5q21 0 21 -6
q0 -7 -21 -7q-7 0 -27 1.5t-57 1.5h-32q-87 0 -113 -2t-31 -2q-19 0 -19 8z" />
    <glyph glyph-name="two" unicode="2" horiz-adv-x="680" 
d="M564 -2q-92 2 -209 2h-305q0 79 42.5 135t103 92t161.5 82q86 39 136 67.5t83.5 68.5t33.5 94q0 81 -73 127t-190 46q-74 0 -122.5 -17t-73 -38.5t-45.5 -48.5q-6 -8 -11.5 -13.5t-9.5 -5.5t-4 4q0 15 30.5 45t90.5 54t146 24q77 0 137 -21t94.5 -61t34.5 -95t-34 -96.5
t-85 -70.5t-137 -67q-98 -44 -158 -79.5t-102.5 -90.5t-43.5 -131h301q119 0 185 5t72 5h5q13 0 13 -8q0 -4 -4 -6t-15 -2h-47z" />
    <glyph glyph-name="three" unicode="3" horiz-adv-x="700" 
d="M212 1.5q-61 17.5 -103 45t-58 55.5q-2 4 -2 6q0 4 2.5 6.5t5.5 2.5q5 0 10 -8q17 -29 55 -57t95.5 -46t128.5 -18q76 0 143 23t109.5 70.5t42.5 117.5q0 87 -66.5 137.5t-178.5 50.5l-51 -1q-10 0 -14 2t-4 6q0 8 17 8q9 0 28.5 -2t45.5 -2q52 0 92 19.5t62 53t22 74.5
q0 45 -27 83t-83 61t-138 23q-73 0 -121.5 -17t-73 -38.5t-45.5 -48.5q-6 -8 -11.5 -13.5t-9.5 -5.5t-4 4q0 16 29.5 45.5t89.5 53.5t146 24q83 0 140 -23.5t84.5 -62t27.5 -84.5q0 -41 -21.5 -75.5t-65 -56t-107.5 -21.5q-1 0 -1.5 -1.5t0.5 -1.5q106 0 174 -50.5
t68 -140.5q0 -71 -42.5 -119.5t-111 -72t-147.5 -23.5q-71 0 -132 17.5z" />
    <glyph glyph-name="four" unicode="4" horiz-adv-x="690" 
d="M599 195q-54 3 -79 3h-10v-125q0 -31 -6 -47t-23 -21h59q37 0 57 2.5t27 2.5q21 0 21 -6q0 -7 -21 -7q-7 0 -27 1.5t-57 1.5h-44q-83 0 -108.5 -2t-30.5 -2q-19 0 -19 8q0 7 19 7q6 0 27.5 -2.5t69.5 -2.5q33 0 42.5 15t9.5 55v122h-481l220 324q22 31 67 104
q16 27 23.5 38t13.5 11t6 -6q0 -5 -7.5 -15.5t-19.5 -25.5q-48 -61 -80 -108l-217 -318h475v278q0 57 -2 114.5t-2 76.5l-2 47q0 17 7 17q4 0 6.5 -5t2.5 -12l-1 -46q-5 -110 -5 -192v-278h10q25 0 79 3q22 2 27 2q11 0 15 -1.5t4 -5.5q0 -7 -19 -7q-5 0 -27 2z" />
    <glyph glyph-name="five" unicode="5" horiz-adv-x="700" 
d="M212 1.5q-61 17.5 -103 45t-58 55.5q-2 4 -2 6q0 4 2.5 6.5t5.5 2.5q5 0 10 -8q17 -29 55.5 -57t95.5 -46t128 -18q76 0 143 23t109.5 70.5t42.5 117.5q0 87 -67.5 135.5t-180.5 48.5h-217q-22 0 -39 -1t-24 -1q-8 0 -6 9q7 38 19 152q10 93 12 151q0 9 9 9q13 0 21 -1
l62 -1h80q117 0 209 2h47q11 0 15 -2t4 -6q0 -9 -15 -9l-39 2q-101 9 -221 9h-165l-31 -309h289q107 0 174.5 -49t67.5 -139q0 -71 -42.5 -119.5t-111 -72t-147.5 -23.5q-71 0 -132 17.5z" />
    <glyph glyph-name="six" unicode="6" horiz-adv-x="730" 
d="M211.5 27.5q-74.5 43.5 -115.5 127t-41 200.5q0 103 34 184t108 129t189 48q87 0 148.5 -23.5t93 -53.5t31.5 -46q0 -2 -1.5 -3.5t-3.5 -1.5q-5 0 -20 18q-23 28 -49 49.5t-75.5 39t-123.5 17.5q-168 0 -247.5 -99.5t-79.5 -257.5q0 -117 41 -199.5t114.5 -125
t170.5 -42.5q74 0 140.5 25.5t108.5 77.5t42 129q0 74 -39.5 123.5t-105 73t-144.5 23.5q-65 0 -122 -16t-95 -48q-6 -5 -28 -27q-5 -6 -10 -10.5t-8 -4.5q-5 0 -5 5q0 11 28 34q42 35 105.5 53t134.5 18q81 0 147.5 -24t106 -74.5t39.5 -125.5q0 -78 -42 -131t-109.5 -79
t-143.5 -26q-99 0 -173.5 43.5z" />
    <glyph glyph-name="seven" unicode="7" horiz-adv-x="620" 
d="M158 -1q-2 4 0 9l34 50q87 130 139 213l268 425h-84q-256 0 -429 -10l-22 -1q-19 0 -19 9q0 8 19 8h98l357 -2l60 1q9 1 21 1q5 0 5 -3t-4 -9q-53 -80 -143 -225l-123 -195q-75 -119 -134 -225l-19 -33q-6 -10 -9.5 -13.5t-8.5 -3.5q-4 0 -6 4z" />
    <glyph glyph-name="eight" unicode="8" horiz-adv-x="730" 
d="M146 27q-91 43 -91 142q0 60 37 99t91 56.5t107 17.5q24 0 24 -6q0 -7 -16 -7q-93 0 -166 -37t-73 -123q0 -97 90 -139t216 -42q128 0 217 43t89 135q0 63 -41 101.5t-100.5 58.5t-158.5 42q-95 21 -150 39.5t-93 52.5t-38 90q0 84 79 125t191 41q116 0 197 -41t81 -125
q0 -47 -28 -88t-81 -66t-124 -25q-11 0 -33 2q99 -22 159.5 -42.5t102 -60t41.5 -104.5q0 -94 -90 -138t-220 -44q-128 0 -219 43zM144.5 451.5q50.5 -34.5 144.5 -59.5v1q72 -18 116 -18q70 0 122 24t79.5 64.5t27.5 86.5q0 82 -80.5 122t-193.5 40q-110 0 -188 -40.5
t-78 -121.5q0 -64 50.5 -98.5z" />
    <glyph glyph-name="nine" unicode="9" horiz-adv-x="730" 
d="M518.5 672.5q74.5 -43.5 115.5 -127t41 -200.5q0 -103 -34 -184t-108 -129t-189 -48q-87 0 -148.5 23.5t-93 53.5t-31.5 46q0 2 1.5 3.5t3.5 1.5q5 0 20 -18q23 -28 49 -49.5t75.5 -39t123.5 -17.5q168 0 247.5 99.5t79.5 257.5q0 117 -41 199.5t-114.5 125t-170.5 42.5
q-74 0 -140.5 -25.5t-108.5 -77.5t-42 -129q0 -74 39.5 -123.5t105 -73t144.5 -23.5q65 0 122 16t95 48q6 5 28 27q5 6 10 10.5t8 4.5q5 0 5 -5q0 -11 -28 -34q-42 -35 -105.5 -53t-134.5 -18q-81 0 -147.5 24t-106 74.5t-39.5 125.5q0 78 42 131t109.5 79t143.5 26
q99 0 173.5 -43.5z" />
    <glyph glyph-name="colon" unicode=":" horiz-adv-x="220" 
d="M67 397q-17 17 -17 43t17 43t43 17t43 -17t17 -43t-17 -43t-43 -17t-43 17zM70 400q16 -16 40 -16t40 16t16 40t-16 40t-40 16t-40 -16t-16 -40t16 -40zM67 1q-17 17 -17 43t17 43t43 17t43 -17t17 -43t-17 -43t-43 -17t-43 17zM70 4q16 -16 40 -16t40 16t16 40t-16 40
t-40 16t-40 -16t-16 -40t16 -40z" />
    <glyph glyph-name="semicolon" unicode=";" horiz-adv-x="220" 
d="M67 397q-17 17 -17 43t17 43t43 17t43 -17t17 -43t-17 -43t-43 -17t-43 17zM70 400q16 -16 40 -16t40 16t16 40t-16 40t-40 16t-40 -16t-16 -40t16 -40zM50 -89q0 4 6 4q26 0 44.5 4.5t32 22t13.5 54.5q0 32 -9.5 61t-24.5 63v1q0 4 4.5 6t5.5 -2q12 -29 20 -58.5
t8 -68.5q0 -93 -88 -93q-12 0 -12 6z" />
    <glyph glyph-name="less" unicode="&#x3c;" horiz-adv-x="660" 
d="M35 280q401 153 542 209q-2 -1 44 17l4 -8l-578 -218q429 -164 563 -212q6 -2 10.5 -4.5t4.5 -6.5q0 -5 -4.5 -7t-10.5 1q-186 79 -575 229z" />
    <glyph glyph-name="equal" unicode="=" horiz-adv-x="660" 
d="M35 215h590v-4h-590v4zM35 335h590v-4h-590v4z" />
    <glyph glyph-name="greater" unicode="&#x3e;" horiz-adv-x="660" 
d="M613 280q-429 164 -563 212q-6 2 -10.5 4.5t-4.5 6.5q0 5 4.5 7t10.5 -1q186 -79 575 -229q-401 -153 -542 -209q2 1 -44 -17l-4 8z" />
    <glyph glyph-name="question" unicode="?" horiz-adv-x="450" 
d="M196 206.5q-24 8.5 -44.5 31.5t-20.5 63q0 36 18.5 62.5t45 44t70.5 40.5q42 21 67 37t42 39.5t17 55.5q0 38 -25 67.5t-70 46.5t-104 17q-34 0 -58 -5t-53 -14q-22 -6 -24 -6t-4.5 1.5t-2.5 3.5q0 12 42 18.5t90 6.5q103 0 158 -38t55 -98q0 -33 -17.5 -57.5t-43 -41
t-68.5 -38.5q-44 -23 -69.5 -40t-43.5 -42t-18 -60q0 -41 21.5 -58t56.5 -26q14 -4 20 -6.5t6 -7.5t-8 -5q-11 0 -35 8.5zM148 87q17 17 43 17t43 -17t17 -43t-17 -43t-43 -17t-43 17t-17 43t17 43zM151 4q16 -16 40 -16t40 16t16 40t-16 40t-40 16t-40 -16t-16 -40t16 -40z
" />
    <glyph glyph-name="at" unicode="@" horiz-adv-x="860" 
d="M242.5 29q-85.5 45 -136.5 128.5t-51 193.5q0 109 51 192t137 128t187 45q103 0 188.5 -45.5t136 -131t50.5 -201.5q0 -81 -24 -136t-71 -55q-77 0 -77 165q-16 -75 -68.5 -122.5t-140.5 -47.5q-64 0 -110 27t-70 74t-24 106q0 60 25 106.5t71 72.5t107 26q83 0 143 -52
q3 -3 3 -6q0 -5 -4.5 -7.5t-9.5 2.5q-38 31 -66 45t-68 14q-59 0 -103.5 -25.5t-69 -71t-24.5 -104.5q0 -58 23.5 -104t68.5 -72.5t108 -26.5q69 0 116 31t69.5 81t22.5 106q0 45 -4 89q-2 28 -2 36q0 16 9 16q7 0 7 -16q0 -6 -2 -34q-4 -48 -4 -109q0 -92 15 -143.5
t59 -51.5t67.5 53t23.5 134q0 116 -50 200.5t-134.5 129t-186.5 44.5q-100 0 -185 -44t-135.5 -126t-50.5 -191q0 -110 51 -192.5t135.5 -126.5t183.5 -44q112 0 188 62q3 3 6 3q4 0 5.5 -4t-1.5 -7q-33 -27 -84.5 -42.5t-113.5 -15.5q-101 0 -186.5 45z" />
    <glyph glyph-name="A" unicode="A" horiz-adv-x="820" 
d="M108.5 10q-25.5 18 -42 49t-16.5 66q0 36 19 66.5t57.5 49t92.5 18.5q79 0 203.5 -53.5t346.5 -205.5q-56 112 -199 375l-181 334l-93 -162q-78 -135 -115 -212q-4 -10 -7 -13.5t-8 -3.5q-8 0 -8 9q0 5 2 8l26 42q57 87 106 172l96 167h2l184 -340q78 -144 180 -321
q20 -34 22 -38q4 -8 4 -13q0 -9 -10 -9q-5 0 -12 5q-214 149 -337 202t-202 53q-80 0 -122.5 -37.5t-42.5 -92.5q0 -45 24.5 -70t61.5 -40q4 -2 12.5 -5.5t12 -6t3.5 -5.5q0 -2 -3 -4t-8 -2q-23 0 -48.5 18z" />
    <glyph glyph-name="B" unicode="B" horiz-adv-x="695" 
d="M198 3q-63 19 -105.5 48t-59.5 60q-3 5 -3 8q0 4 2.5 6t4.5 2q7 0 12 -8q18 -31 58 -61t99.5 -50t130.5 -20q76 0 144.5 22.5t111.5 69.5t43 115q0 92 -80.5 141.5t-221.5 49.5l-49 -1q-10 0 -14 2t-4 6q0 8 17 8q9 0 29 -2t46 -2q106 0 161.5 39.5t55.5 111.5t-52 110
t-143 38h-306v-221q0 -94 5 -209l2 -47q0 -19 -9 -19q-4 0 -6 4t-2 15l1 47q5 115 5 209q0 107 -3 218q0 9 8 9q5 0 16 -1t26 -1h262q93 0 146.5 -39t53.5 -113q0 -79 -61 -117.5t-175 -38.5v-3q134 0 215 -49.5t81 -144.5q0 -69 -43 -116.5t-113 -71t-150 -23.5
q-73 0 -136 19z" />
    <glyph glyph-name="C" unicode="C" horiz-adv-x="835" 
d="M251 28q-88 44 -142 127t-54 196q0 112 53.5 195t141.5 126.5t189 43.5q65 0 121.5 -18t97.5 -46t61 -58q1 -1 1 -3q0 -4 -4 -5t-6 3q-35 49 -106.5 86t-165.5 37q-100 0 -186.5 -43t-139.5 -124.5t-53 -193.5t53.5 -194.5t140.5 -125.5t185 -43q87 0 150 29t99 65t68 81
q12 17 19 25t12 8q4 0 4 -5q0 -17 -44.5 -69t-123 -95t-183.5 -43q-100 0 -188 44z" />
    <glyph glyph-name="D" unicode="D" horiz-adv-x="725" 
d="M187.5 3.5q-58.5 19.5 -98 49t-56.5 58.5q-3 5 -3 8q0 4 2.5 6t4.5 2q7 0 12 -8q19 -30 56 -60t92 -50.5t123 -20.5q98 0 177 43t124 124t45 191q0 98 -37.5 177t-115.5 126t-196 47h-242v-221q0 -94 5 -209l2 -47q0 -19 -9 -19q-4 0 -6 4t-2 15l1 47q5 115 5 209
q0 107 -3 218q0 9 8 9q5 0 16 -1t26 -1h200q118 0 197 -47.5t117 -128t38 -178.5q0 -110 -45.5 -192t-126 -126t-182.5 -44q-70 0 -128.5 19.5z" />
    <glyph glyph-name="E" unicode="E" horiz-adv-x="635" 
d="M362 -27.5q-34 3.5 -89 10.5q-67 8 -115.5 12.5t-111.5 4.5q-7 0 -17 -2t-15 -2q-14 0 -14 8q0 3 4 5t9 2q20 0 29.5 5.5t12.5 18.5t3 41v269q0 27 20 32q-8 1 -14 9t-6 23v56q0 115 -3 229q0 8 8 8q5 0 16 -1t26 -1h187q117 0 209 2h47q19 0 19 -8q0 -9 -15 -9l-39 2
q-101 9 -221 9h-230v-286q0 -31 30 -31h78q95 0 247 5l59 1q11 0 15 -2t4 -6t-4 -5.5t-15 -1.5l-59 1q-122 4 -247 4h-78q-30 0 -30 -32v-270q0 -31 -6.5 -46.5t-23.5 -22.5q69 0 128 -5t127 -14q10 -1 56 -6.5t84 -5.5q74 0 105 13t49 37q10 13 17 6q2 -2 2 -5q0 -7 -7 -15
q-16 -20 -51.5 -30t-105.5 -10q-40 0 -74 3.5z" />
    <glyph glyph-name="F" unicode="F" horiz-adv-x="625" 
d="M65 14l1 47q5 115 5 209v75q0 27 20 32q-8 1 -14 9t-6 23v56q0 115 -3 229q0 8 8 8q5 0 16 -1t26 -1h187q117 0 209 2h47q19 0 19 -8q0 -9 -15 -9l-39 2q-101 9 -221 9h-230v-286q0 -15 8 -23t22 -8h78q95 0 247 5l59 1q11 0 15 -2t4 -6t-4 -5.5t-15 -1.5l-59 1
q-122 4 -247 4h-78q-14 0 -22 -8.5t-8 -23.5v-73q0 -94 5 -209l2 -47q0 -19 -9 -19q-8 0 -8 19z" />
    <glyph glyph-name="G" unicode="G" horiz-adv-x="835" 
d="M243 27.5q-85 43.5 -136.5 127t-51.5 196.5q0 112 53.5 195t141.5 126.5t189 43.5q65 0 121.5 -18t97.5 -46t61 -58q1 -1 1 -4q0 -4 -3 -5t-7 4q-35 49 -106.5 86t-165.5 37q-99 0 -186 -43t-140 -125t-53 -193q0 -113 51 -195t135 -125t182 -43q110 0 185 49.5
t110.5 121.5t35.5 140q0 7 1 11.5t4 4.5q4 0 5 -5.5t1 -20.5v-29q-1 -22 -1 -100q0 -49 5 -109q2 -30 2 -37q0 -19 -8 -19q-9 0 -9 19q0 7 2 37q4 48 4 109q0 21 -3 81l-1 22q-9 -71 -50.5 -135t-113.5 -104t-168 -40q-100 0 -185 43.5z" />
    <glyph glyph-name="H" unicode="H" horiz-adv-x="670" 
d="M588 14l2 47q5 115 5 209v83h-520v-83q0 -94 5 -209l2 -47q0 -19 -8 -19q-9 0 -9 19l1 47q5 115 5 209v167q0 93 -5 203l-1 46q0 19 9 19q8 0 8 -19l-2 -46q-5 -110 -5 -203v-80h520v80q0 93 -5 203l-2 46q0 19 8 19q9 0 9 -19l-1 -46q-5 -110 -5 -203v-167q0 -94 5 -209
l1 -47q0 -19 -9 -19q-8 0 -8 19z" />
    <glyph glyph-name="I" unicode="I" horiz-adv-x="285" 
d="M35 4q0 7 19 7q5 0 14.5 -2.5t23.5 -2.5q30 0 39 15.5t9 54.5v551q0 31 6.5 47t23.5 21h-29q-37 0 -57.5 -2.5t-27.5 -2.5q-21 0 -21 6q0 7 21 7q7 0 27.5 -1.5t57.5 -1.5h14q39 0 54.5 2t21.5 2q19 0 19 -8q0 -7 -19 -7q-5 0 -14.5 2.5t-23.5 2.5q-30 0 -39.5 -15.5
t-9.5 -54.5v-551q0 -31 -6 -47t-23 -21h29q37 0 57.5 2.5t27.5 2.5q21 0 21 -6q0 -7 -21 -7q-7 0 -27.5 1.5t-57.5 1.5h-14q-39 0 -54.5 -2t-21.5 -2q-19 0 -19 8z" />
    <glyph glyph-name="J" unicode="J" horiz-adv-x="425" 
d="M45 -2q0 5 13 5l23 -1q21 -3 47 -3q63 0 96 25.5t44.5 73t11.5 125.5v404q0 31 6.5 47t23.5 21h-29q-129 0 -159.5 -2.5t-35.5 -2.5q-21 0 -21 6q0 7 21 7q5 0 35.5 -1.5t159.5 -1.5h14q39 0 54.5 2t21.5 2q19 0 19 -8q0 -7 -19 -7q-5 0 -14.5 2.5t-23.5 2.5
q-30 0 -39.5 -15.5t-9.5 -54.5v-402q0 -80 -13 -129.5t-53.5 -77.5t-118.5 -28q-54 0 -54 11z" />
    <glyph glyph-name="K" unicode="K" horiz-adv-x="735" 
d="M35 4q0 7 19 7q5 0 14.5 -2.5t23.5 -2.5q30 0 39 15.5t9 54.5v551q0 31 6.5 47t23.5 21h-29q-37 0 -57.5 -2.5t-27.5 -2.5q-21 0 -21 6q0 7 21 7q7 0 27.5 -1.5t57.5 -1.5h14q39 0 54.5 2t21.5 2q19 0 19 -8q0 -7 -19 -7q-5 0 -14.5 2.5t-23.5 2.5q-30 0 -39.5 -15.5
t-9.5 -54.5v-551q0 -28 -4 -41l441 550q53 67 78.5 95t33.5 28q7 0 7 -7q0 -3 -8 -10t-11 -9q-3 -3 -30.5 -27.5t-65.5 -71.5l-196 -244l237 -257q33 -36 64 -60q15 -12 15 -17q0 -7 -7 -7q-4 0 -9 5t-10 11t-8 9q-29 34 -48 55l-237 258l-251 -312q-6 -11 -20 -16h29
q37 0 57.5 2.5t27.5 2.5q21 0 21 -6q0 -7 -21 -7q-7 0 -27.5 1.5t-57.5 1.5h-14q-39 0 -54.5 -2t-21.5 -2q-19 0 -19 8z" />
    <glyph glyph-name="L" unicode="L" horiz-adv-x="698" 
d="M348 -18q-78 9 -131 13.5t-129 4.5q-16 0 -27 -2t-18 -2q-18 0 -18 8q0 7 18 7q5 0 15.5 -2.5t21.5 -2.5q23 0 33.5 6.5t13.5 20.5t3 43v361q0 93 -5 203l-1 46q0 19 8 19q9 0 9 -19l-2 -46q-5 -110 -5 -203v-364q0 -32 -6.5 -47.5t-24.5 -21.5q69 0 128 -5t127 -14
q10 -1 56 -6.5t84 -5.5q68 0 98 13t48 37q10 13 17 6q1 -1 1 -5q0 -8 -6 -15q-16 -20 -50.5 -30t-98.5 -10q-61 0 -159 13z" />
    <glyph glyph-name="M" unicode="M" horiz-adv-x="920" 
d="M65 14q0 5 0.5 18.5t0.5 40.5q5 168 5 272l-1 277q-1 37 -1 77q0 6 5 6q4 0 7 -5l377 -693q2 -2 4 0l377 693q3 5 7 5q5 0 5 -6q0 -40 -1 -77l-1 -277q0 -104 5 -272q0 -27 0.5 -40.5t0.5 -18.5q0 -19 -9 -19q-8 0 -8 19l2 59q5 168 5 272v356l-379 -696q-2 -5 -6 -5
q-3 0 -6 5l-379 696v-356q0 -104 5 -272l2 -59q0 -19 -8 -19q-9 0 -9 19z" />
    <glyph glyph-name="N" unicode="N" horiz-adv-x="710" 
d="M65 14q0 5 0.5 18.5t0.5 40.5q5 168 5 272l-1 276q-1 38 -1 79q0 5 4 5t8 -6l554 -698v354q0 105 -5 272l-2 59q0 19 8 19q9 0 9 -19q0 -5 -0.5 -18.5t-0.5 -40.5q-5 -167 -5 -272l1 -276q1 -38 1 -79q0 -5 -4 -5q-3 0 -8 6l-554 698v-354q0 -104 5 -272l2 -59
q0 -19 -8 -19q-9 0 -9 19z" />
    <glyph glyph-name="O" unicode="O" horiz-adv-x="860" 
d="M245 30q-86 46 -138 129.5t-52 191.5q0 107 52 190t138 129t185 46t185 -46t138 -129t52 -190q0 -108 -52 -191.5t-138 -129.5t-185 -46t-185 46zM110.5 161q51.5 -83 136.5 -128t183 -45t183 45t136.5 128t51.5 190q0 106 -51.5 188.5t-136.5 127.5t-183 45t-183 -45
t-136.5 -127.5t-51.5 -188.5q0 -107 51.5 -190z" />
    <glyph glyph-name="P" unicode="P" horiz-adv-x="635" 
d="M65 14q0 20 1 39q5 120 5 262q0 108 -1 215t-2 164q0 8 8 8q5 0 16 -1t26 -1h203q119 0 189 -48t70 -147q0 -100 -70.5 -150t-188.5 -50h-166q-20 0 -20 9q0 7 13 7q9 0 21 -3q60 -9 152 -9q117 0 186 49.5t69 146.5q0 96 -68.5 143.5t-185.5 47.5h-247v-381
q0 -118 6 -262l1 -39q0 -19 -8 -19q-9 0 -9 19z" />
    <glyph glyph-name="Q" unicode="Q" horiz-adv-x="850" 
d="M845 -176q-53 25 -97.5 60.5t-112.5 96.5q-14 14 -44 40q-76 -35 -167 -35q-68 0 -111 21t-43 66q0 34 25 54t68 20q54 0 108.5 -31.5t121.5 -89.5q95 43 151.5 128t56.5 197q0 106 -51.5 188t-136.5 127.5t-183 45.5t-183.5 -45.5t-136.5 -127.5t-51 -188
q0 -69 18 -117.5t41 -76t51 -52.5q8 -7 13.5 -13t5.5 -9q0 -6 -7 -6q-12 0 -43.5 34.5t-57 96.5t-25.5 143q0 106 51.5 189.5t138 129.5t185.5 46t185.5 -46t138 -129.5t51.5 -189.5q0 -112 -57 -198t-152 -130l34 -29q68 -60 114.5 -95.5t102.5 -60.5t116 -25q12 0 12 -6
q0 -8 -23 -8q-54 0 -107 25zM317.5 9q43.5 -19 105.5 -19q88 0 165 34q-65 57 -118 88t-106 31q-40 0 -65 -18t-25 -52q0 -45 43.5 -64z" />
    <glyph glyph-name="R" unicode="R" horiz-adv-x="670" 
d="M65 14q0 20 1 39q5 120 5 262q0 108 -1 215t-2 164q0 8 8 8q5 0 16 -1t26 -1h203q119 0 189 -48t70 -147q0 -100 -70.5 -150t-188.5 -50h-2q14 -4 24.5 -11.5t23.5 -20.5l156 -167q44 -48 81 -78q4 -3 9 -8t8.5 -9t3.5 -7q0 -9 -9 -9q-4 0 -10.5 7.5t-16.5 19.5
q-39 47 -69 80l-155 168q-20 21 -41 28t-59 7h-110q-20 0 -20 9q0 7 13 7q9 0 21 -3q4 -1 26 -4t70 -4q19 0 27 -1h29q117 0 186 49.5t69 146.5q0 96 -68.5 143.5t-185.5 47.5h-247v-381q0 -118 6 -262l1 -39q0 -19 -8 -19q-9 0 -9 19z" />
    <glyph glyph-name="S" unicode="S" horiz-adv-x="710" 
d="M177.5 9.5q-67.5 25.5 -97.5 57.5t-30 51q0 8 5 8t14 -17q19 -30 45 -55t84 -45.5t152 -20.5q125 0 213 43.5t88 129.5q0 56 -40 94.5t-97 62.5t-154 54q-93 29 -148 51.5t-93 58t-38 87.5q0 147 310 147q86 0 148 -11t62 -25q0 -5 -10 -5t-30 6q-40 9 -83 15t-119 6
q-119 0 -196.5 -27.5t-77.5 -104.5q0 -50 37 -85.5t92 -58t146 -50.5q98 -30 156 -54t98.5 -63.5t40.5 -97.5q0 -89 -88 -133t-218 -44q-104 0 -171.5 25.5z" />
    <glyph glyph-name="T" unicode="T" horiz-adv-x="695" 
d="M177 4q0 7 19 7q6 0 27.5 -2.5t69.5 -2.5q33 0 42.5 15t9.5 55v620h-30q-92 0 -215 -8l-46 -2q-19 0 -19 7q0 9 19 9h46q92 -2 215 -2h65q123 0 215 2h46q19 0 19 -9q0 -7 -19 -7l-46 2q-123 8 -215 8h-31v-623q0 -31 -6 -47t-23 -21h85q37 0 57 2.5t27 2.5q21 0 21 -6
q0 -7 -21 -7q-7 0 -27 1.5t-57 1.5h-70q-83 0 -108.5 -2t-30.5 -2q-19 0 -19 8z" />
    <glyph glyph-name="U" unicode="U" horiz-adv-x="770" 
d="M153.5 60q-82.5 76 -82.5 221v156q0 93 -5 203l-1 46q0 19 9 19q8 0 8 -19l-2 -46q-5 -110 -5 -203v-156q0 -143 81.5 -218t228.5 -75t228.5 75t81.5 218v156q0 93 -5 203l-2 46q0 19 8 19q9 0 9 -19l-1 -46q-5 -110 -5 -203v-156q0 -145 -82.5 -221t-231.5 -76
t-231.5 76z" />
    <glyph glyph-name="V" unicode="V" horiz-adv-x="815" 
d="M47 685q-2 4 -2 8q0 8 9 8q8 0 13 -12l21 -44q71 -150 158 -317l175 -335q166 269 232 378.5t89 157.5t23 75q0 56 -51.5 76t-134.5 20q-57 0 -106 -7q-22 -3 -24 -1t-2 3q0 4 6 7q8 5 37 9.5t75 4.5q84 0 144.5 -24t60.5 -88q0 -27 -22 -73.5t-83.5 -148t-231.5 -376.5
l-12 -20h-1l-178 340q-93 176 -195 359z" />
    <glyph glyph-name="W" unicode="W" horiz-adv-x="1185" 
d="M99.5 592.5q-48.5 85.5 -52.5 92.5q-2 4 -2 8q0 8 9 8q8 0 13 -12q4 -8 25 -53q77 -163 151 -308l168 -335l89 146l119 197q-158 311 -180 349q-4 10 -4 11q0 5 5 8q7 4 37 8t70 4q86 0 147 -24t61 -88q0 -28 -25 -80t-106 -188l4 -8l168 -335q161 264 226.5 374t89 160
t23.5 77q0 56 -51.5 76t-134.5 20q-57 0 -106 -7q-22 -3 -24 -1t-2 3q0 4 6 7q8 5 37 9.5t75 4.5q84 0 144.5 -24t60.5 -88q0 -28 -23.5 -77t-86 -154t-234.5 -387h-1l-171 340l-3 6q-142 -234 -156 -257l-54 -89h-1l-171 340q-91 181 -139.5 266.5zM536 509
q21 -41 42.5 -83t43.5 -85q78 132 103 183.5t25 79.5q0 56 -52.5 76t-140.5 20q-72 0 -113 -9q15 -32 92 -182z" />
    <glyph glyph-name="X" unicode="X" horiz-adv-x="645" 
d="M438 445q87 100 122 145t35 67q0 24 -28 33.5t-76 9.5q-43 0 -90 -7q-4 0 -15 -2t-14 1q-2 2 -2 3q0 4 6 7q9 5 35.5 9.5t65.5 4.5q123 0 123 -57q0 -22 -31 -63t-107 -128l-68 -78l-55 -64l15 -20q137 -179 230 -295q3 -3 3 -8q0 -8 -9 -8q-5 0 -12 11l-21 31
q-124 175 -195 267l-14 18l-277 -321h-9l283 325l-49 64q-114 149 -231 295q-3 3 -3 9q0 7 8 7q3 0 6 -3.5t6 -7.5l33 -46q12 -17 67 -94.5t118 -157.5l48 -63l55 63q-5 -6 47 53z" />
    <glyph glyph-name="Y" unicode="Y" horiz-adv-x="790" 
d="M379.5 -192q-60.5 24 -60.5 88q0 40 68 148l-146 282q-110 212 -184 341l-10 18q-2 4 -2 7q0 9 9 9q8 0 13 -12q40 -95 178 -361l145 -280q48 75 145 211q102 144 153.5 226t51.5 119q0 55 -52 75.5t-134 20.5q-57 0 -106 -7q-22 -3 -24 -1t-2 3q0 4 6 7q8 5 37 9.5
t75 4.5q84 0 144.5 -24t60.5 -88q0 -38 -52.5 -121.5t-157.5 -231.5q-106 -149 -158.5 -232.5t-52.5 -122.5q0 -55 50 -75t132 -20q39 0 68 2.5t35 3.5q27 5 31 1t-1 -8q-11 -6 -40.5 -11t-75.5 -5q-83 0 -143.5 24z" />
    <glyph glyph-name="Z" unicode="Z" horiz-adv-x="745" 
d="M109.5 30q23.5 19 42.5 45l409 548q17 22 38 41t38 26q-42 6 -99 6h-206q-118 0 -185 -5t-76 -6h-4q-15 0 -15 8q0 9 19 9h46q92 -2 215 -2h206q59 0 84 3t34 3q11 0 16.5 -2t5.5 -8q0 -8 -25 -8q-19 0 -42 -19.5t-43 -45.5l-410 -548q-17 -23 -38 -41t-40 -24
q48 -6 100 -6h416q98 0 98 61q0 15 -6 33.5t-20 51.5q-3 8 -3 13q0 9 8 9q7 0 13 -16q10 -25 14.5 -42.5t4.5 -34.5q0 -36 -23.5 -57.5t-77.5 -21.5h-424q-58 0 -82.5 -2.5t-32.5 -2.5q-12 0 -18.5 2t-6.5 7q0 7 25 7q21 0 44.5 19z" />
    <glyph glyph-name="bracketleft" unicode="[" horiz-adv-x="255" 
d="M65 -55q3 111 3 228v358q0 117 -3 228q0 9 8 9q5 0 16 -1t26 -1l46 1q13 1 40 1q11 0 15 -1t4 -5t-19 -4q-14 0 -40 2t-46 2h-43v-820h43q20 0 46 2t40 2q19 0 19 -4t-4 -5t-15 -1q-27 0 -40 1l-46 1q-15 0 -26 -1t-16 -1q-8 0 -8 9z" />
    <glyph glyph-name="backslash" unicode="\" horiz-adv-x="279" 
d="M202 -146q-1 6 -7 56q-11 100 -25 189l-65 411q-17 108 -37 205q-7 31 -8 40v4q0 11 7 11q8 0 10 -15q2 -8 7 -55q13 -119 24 -190l66 -411q18 -108 37 -205q7 -31 8 -40v-4q0 -11 -7 -11q-8 0 -10 15z" />
    <glyph glyph-name="bracketright" unicode="]" horiz-adv-x="255" 
d="M190 759q-3 -111 -3 -228v-358q0 -117 3 -228q0 -9 -8 -9q-5 0 -16 1t-26 1l-46 -1q-13 -1 -40 -1q-11 0 -15 1t-4 5t19 4q14 0 40 -2t46 -2h43v820h-43q-20 0 -46 -2t-40 -2q-19 0 -19 4t4 5t15 1q27 0 40 -1l46 -1q15 0 26 1t16 1q8 0 8 -9z" />
    <glyph glyph-name="asciicircum" unicode="^" horiz-adv-x="445" 
d="M356 510q-70 111 -128 200q-98 -147 -146 -231l-11 -19q-3 -5 -6 -8t-7 -3q-5 0 -7.5 6t1.5 10l24 33q81 112 152 218q44 -67 158 -235l19 -28l-8 -6z" />
    <glyph glyph-name="underscore" unicode="_" horiz-adv-x="660" 
d="M35 0h590v-4h-590v4z" />
    <glyph glyph-name="grave" unicode="`" horiz-adv-x="248" 
d="M20 703q0 6 7 6q5 0 10 -4l191 -129l-1 -2l-198 117q-9 6 -9 12z" />
    <glyph glyph-name="a" unicode="a" horiz-adv-x="665" 
d="M99 13.5q-49 29.5 -49 93.5q0 48 34 78.5t122 45.5l117 20q73 13 113 30.5t56.5 43.5t16.5 66q0 66 -40 88.5t-113 22.5h-45q-88 0 -166 -10l-25 -2q-7 0 -7 4q0 10 51 14.5t121 4.5q86 0 134.5 -10.5t71 -37t22.5 -75.5q0 -42 -17.5 -68.5t-58.5 -44t-115 -30.5
l-116 -20q-87 -15 -119.5 -44t-32.5 -76q0 -63 47.5 -91t133.5 -28q72 0 134.5 18.5t100.5 53t38 80.5q0 8 2 13t5 5q9 0 6 -15q-1 -3 -4 -18t-3 -39q0 -81 64 -81q13 0 48 7l6 1q8 0 8 -5q0 -6 -13 -10t-29 -4q-37 0 -56.5 14t-26 37t-9.5 61q-21 -57 -98.5 -89.5
t-172.5 -32.5q-87 0 -136 29.5z" />
    <glyph glyph-name="b" unicode="b" horiz-adv-x="645" 
d="M235 -1.5q-50 14.5 -81 39.5q-2 1 -2 5t3.5 6t7.5 -2q34 -27 80.5 -43t94.5 -16q74 0 131.5 33.5t89.5 93t32 135.5q0 74 -30.5 133.5t-88 94t-135.5 34.5q-79 0 -137 -36.5t-88.5 -99t-31.5 -138.5q0 -77 5 -182l1 -44q0 -7 -2.5 -12t-6.5 -5q-7 0 -7 17l2 47
q0 19 2 74.5t2 111.5v240q0 56 -2 111.5t-2 74.5l-2 47q0 17 7 17q4 0 6.5 -5t2.5 -12l-2 -46q0 -19 -2 -75t-2 -112v-196q16 100 83.5 163.5t173.5 63.5q78 0 136.5 -35t90 -95.5t31.5 -135.5q0 -76 -32.5 -137t-92 -95t-135.5 -34q-50 0 -100 14.5z" />
    <glyph glyph-name="c" unicode="c" horiz-adv-x="630" 
d="M193 16q-64 32 -103.5 92.5t-39.5 142.5q0 81 39.5 141.5t103.5 92t138 31.5q68 0 123.5 -26.5t78.5 -61.5q1 -1 1 -3q0 -3 -3 -3.5t-5 2.5q-25 35 -77 61.5t-119 26.5q-73 0 -136 -30.5t-101.5 -90t-38.5 -140.5q0 -82 38.5 -141.5t101.5 -90.5t134 -31q63 0 108.5 20.5
t71 46.5t49.5 59q7 10 13.5 17.5t10.5 7.5t4 -5q0 -13 -32 -50.5t-90 -68.5t-134 -31q-72 0 -136 32z" />
    <glyph glyph-name="d" unicode="d" horiz-adv-x="645" 
d="M171.5 19q-58.5 35 -90 95.5t-31.5 135.5q0 76 32.5 137t92 95t135.5 34q50 0 100 -14.5t81 -39.5q2 -1 2 -5t-3.5 -6t-7.5 2q-34 27 -80.5 43t-94.5 16q-74 0 -131.5 -33.5t-89.5 -93t-32 -135.5q0 -74 30.5 -133.5t88 -94t135.5 -34.5q80 0 138 37t88.5 100t30.5 140
v220q0 56 -2 111.5t-2 74.5l-2 47q0 17 7 17q4 0 6.5 -5t2.5 -12l-2 -46q0 -19 -2 -75t-2 -112v-240q0 -56 2 -112t2 -75l2 -46q0 -7 -2.5 -12t-6.5 -5q-7 0 -7 17l2 46q4 142 4 152q-16 -100 -83.5 -163t-173.5 -63q-78 0 -136.5 35z" />
    <glyph glyph-name="e" unicode="e" horiz-adv-x="625" 
d="M193.5 17q-64.5 33 -104 94.5t-39.5 143.5q0 79 37 138.5t97 91t129 31.5q58 0 107.5 -22.5t78.5 -61t29 -86.5h-459q-15 -40 -15 -91q0 -82 39 -142.5t102.5 -92.5t136.5 -32q61 0 105.5 20.5t70 46.5t49.5 59q7 10 13.5 17.5t10.5 7.5t4 -5q0 -13 -32 -50.5t-89 -68.5
t-132 -31q-74 0 -138.5 33zM523 350q0 43 -27.5 80.5t-75.5 59.5t-107 22q-81 0 -148 -43t-95 -119h453z" />
    <glyph glyph-name="f" unicode="f" horiz-adv-x="385" 
d="M25 4q0 7 15 7q5 0 18.5 -3t26.5 -3q27 0 36 16.5t9 54.5v424q-25 1 -101 1q-4 0 -4 2t4 2l101 1v36q0 77 10.5 118t46.5 62.5t110 21.5q53 0 53 -10q0 -5 -11 -5q-12 0 -20 1l-51 1q-60 0 -88.5 -19.5t-37 -59t-8.5 -114.5v-32q50 1 83 3l52 1q15 0 19 -1t4 -5
t-4.5 -5.5t-18.5 -1.5q-37 0 -54 1q-1 0 -81 2v-425q0 -31 -6 -48t-22 -23h28q41 0 106 5l35 2q6 0 11.5 -1t5.5 -5q0 -8 -17 -8q-20 0 -35 1q-52 2 -106 2h-14q-38 0 -55.5 -2t-24.5 -2q-15 0 -15 8z" />
    <glyph glyph-name="g" unicode="g" horiz-adv-x="600" 
d="M116 -174q-19 8 -19 18q0 4 3.5 5t8.5 -1q42 -24 76 -34t72 -10q85 0 151.5 31t102.5 80.5t36 102.5q0 85 -77 85q-41 0 -82 -20.5t-99 -61.5q-59 -40 -96.5 -59t-76.5 -19q-36 0 -58.5 21t-22.5 54q0 40 35.5 76t86 60.5t93.5 32.5q-88 7 -134 53.5t-46 111.5
q0 70 53 117t156 47q73 0 121.5 -21.5t63.5 -61.5q0 31 21.5 51.5t62.5 20.5q5 0 8.5 -2t3.5 -4q0 -8 -10 -8q-39 0 -60.5 -12.5t-21.5 -44.5q0 -10 3.5 -18.5t3.5 -10.5q0 -5 -1 -6.5t-5 -1.5q-7 0 -7 12q0 46 -49 74.5t-134 28.5q-102 0 -153.5 -45.5t-51.5 -114.5
t51.5 -115.5t152.5 -46.5q60 0 104 17.5t66.5 47t22.5 63.5q0 10 -5 23q-2 4 2 5t5 -4q2 -10 2 -24q0 -35 -23.5 -65.5t-68 -48.5t-105.5 -18q-37 0 -95 -23.5t-101 -62.5t-43 -82q0 -31 21.5 -51t56.5 -20q37 0 73.5 19t93.5 58q60 41 102 62t86 21q40 0 59.5 -21.5
t19.5 -67.5q0 -55 -38 -106.5t-106 -83.5t-153 -32q-75 0 -138 30z" />
    <glyph glyph-name="h" unicode="h" horiz-adv-x="625" 
d="M539 12l2 44q0 17 2 64.5t2 94.5v38q0 124 -58 191.5t-171 67.5q-114 0 -175 -68t-61 -191v-8q0 -56 2 -112t2 -75l2 -46q0 -7 -2.5 -12t-6.5 -5q-7 0 -7 17l2 47q0 19 2 74.5t2 111.5v240q0 56 -2 111.5t-2 74.5l-2 47q0 17 7 17q4 0 6.5 -5t2.5 -12l-2 -46
q0 -19 -2 -75t-2 -112v-173q14 97 74.5 150.5t161.5 53.5q114 0 173.5 -68.5t59.5 -192.5v-40q0 -47 2 -94.5t2 -64.5l2 -44q0 -7 -2.5 -12t-6.5 -5q-7 0 -7 17z" />
    <glyph glyph-name="i" unicode="i" horiz-adv-x="166" 
d="M71 718q0 5 3 8.5t9 3.5t9 -3.5t3 -8.5q0 -12 -12 -12t-12 12zM77 35q5 63 5 140v150q0 80 -5 142q-1 10 -1 21q0 17 7 17q8 0 8 -17q0 -11 -1 -21q-5 -62 -5 -142v-150q0 -77 5 -140l1 -23q0 -17 -8 -17q-7 0 -7 17z" />
    <glyph glyph-name="j" unicode="j" horiz-adv-x="180" 
d="M85 718q0 5 3 8.5t9 3.5t9 -3.5t3 -8.5q0 -12 -12 -12t-12 12zM-105 -187q5 0 21 -2q36 -3 45 -3q55 0 84 21t40 64t11 118v314q0 80 -5 142q-1 10 -1 21q0 17 7 17q9 0 9 -17q0 -11 -1 -21q-5 -62 -5 -142v-315q0 -78 -12.5 -123t-49.5 -68.5t-109 -23.5q-44 0 -44 12
q0 6 10 6z" />
    <glyph glyph-name="k" unicode="k" horiz-adv-x="610" 
d="M86 4h28q41 0 106 5l35 2q6 0 11.5 -1t5.5 -5q0 -8 -17 -8q-20 0 -35 1q-52 2 -106 2h-14q-33 0 -51 -2t-24 -2q-15 0 -15 7q0 8 15 8q5 0 17 -3t23 -3q27 0 36 16.5t9 54.5v409q0 56 -2 111.5t-2 74.5l-2 47q0 17 7 17q4 0 6.5 -5t2.5 -12l-2 -46q0 -19 -2 -75t-2 -112
v-410q0 -33 -6 -47l325 355q21 22 70 80q16 19 27 30.5t15 11.5q7 0 7 -7q0 -6 -29 -32q-52 -49 -86 -86l-102 -112l135 -148q32 -36 90 -91q25 -21 25 -27q0 -7 -7 -7q-4 0 -13.5 10t-22.5 27q-38 45 -75 85l-136 147l-232 -252q-8 -6 -13 -8z" />
    <glyph glyph-name="l" unicode="l" horiz-adv-x="275" 
d="M149.5 10.5q-14.5 16.5 -14.5 59.5v600q0 35 -14 48.5t-54 13.5q-15 0 -30.5 -1.5t-23.5 -1.5t-8 5q0 11 45 11q50 0 69.5 -17t19.5 -58v-609q0 -32 14 -43t45 -11q30 0 53 5l6 1q8 0 8 -5q0 -6 -15.5 -10t-40.5 -4q-45 0 -59.5 16.5z" />
    <glyph glyph-name="m" unicode="m" horiz-adv-x="1026" 
d="M941 12l2 40q0 17 2 66t2 97v39q0 123 -51 190.5t-156 67.5q-106 0 -159 -67t-53 -191v-1v-38q0 -48 2 -97t2 -66l2 -40q0 -7 -2.5 -12t-6.5 -5q-7 0 -7 17l2 40q0 17 2 66t2 97v39q0 124 -51 191t-156 67q-106 0 -159 -67t-53 -192v-38q0 -48 2 -97t2 -66l2 -40
q0 -7 -2.5 -12t-6.5 -5q-7 0 -7 17l2 40q0 17 2 66t2 97v151q0 68 -12.5 97.5t-41.5 29.5q-5 0 -8.5 1t-3.5 5q0 6 12 6q22 0 40 -28t18 -106v-54q13 96 66.5 147.5t145.5 51.5q96 0 148 -56t61 -160q10 104 63.5 160t150.5 56q106 0 158 -68t52 -194v-39q0 -48 2 -97t2 -66
l2 -40q0 -7 -2 -12t-6 -5q-7 0 -7 17z" />
    <glyph glyph-name="n" unicode="n" horiz-adv-x="650" 
d="M564 12l2 44q0 17 2 64.5t2 94.5v38q0 124 -58 191.5t-171 67.5q-114 0 -175 -68t-61 -191v-38q0 -48 2 -97t2 -66l2 -40q0 -7 -2.5 -12t-6.5 -5q-7 0 -7 17l2 40q0 17 2 66t2 97v151q0 68 -12.5 96.5t-41.5 28.5q-12 0 -12 6q0 8 12 8q22 0 40 -28t18 -106v-59
q14 97 74.5 150.5t161.5 53.5q114 0 173.5 -68.5t59.5 -192.5v-40q0 -47 2 -94.5t2 -64.5l2 -44q0 -7 -2.5 -12t-6.5 -5q-7 0 -7 17z" />
    <glyph glyph-name="o" unicode="o" 
d="M189 16q-62 32 -100.5 92.5t-38.5 141.5t38.5 141.5t100.5 92.5t131 32t131 -32t100.5 -92.5t38.5 -141.5t-38.5 -141.5t-100.5 -92.5t-131 -32t-131 32zM91.5 110.5q37.5 -59.5 98.5 -91t130 -31.5t130 31.5t98.5 91t37.5 139.5t-37.5 139.5t-98.5 91t-130 31.5
t-130 -31.5t-98.5 -91t-37.5 -139.5t37.5 -139.5z" />
    <glyph glyph-name="p" unicode="p" horiz-adv-x="670" 
d="M260 -1.5q-50 14.5 -81 39.5q-2 1 -2 5t3.5 6t7.5 -2q34 -27 80.5 -43t94.5 -16q74 0 131.5 33.5t89.5 93t32 135.5q0 74 -30.5 133.5t-88 94t-135.5 34.5q-80 0 -138 -37t-88.5 -100t-30.5 -140v-360q0 -31 -6 -48t-22 -23h43q41 0 106 5l35 2q6 0 11.5 -1t5.5 -5
q0 -8 -17 -8q-20 0 -35 1q-52 2 -106 2h-14q-38 0 -54 -2t-23 -2q-14 0 -14 8q0 6 14 6q6 0 15.5 -2.5t16.5 -2.5q23 0 31.5 16.5t8.5 54.5v449q0 80 -5 142q-1 10 -1 21q0 17 7 17q4 0 6.5 -5t2.5 -12q0 -11 -1 -21q-5 -62 -5 -142v-36q16 100 83.5 163.5t173.5 63.5
q78 0 136.5 -35t90 -95.5t31.5 -135.5q0 -76 -32.5 -137t-92 -95t-135.5 -34q-50 0 -100 14.5z" />
    <glyph glyph-name="q" unicode="q" horiz-adv-x="650" 
d="M174.5 18q-59.5 34 -92 95t-32.5 137q0 75 31.5 135.5t90 95.5t136.5 35q106 0 173.5 -63.5t83.5 -163.5v36q0 80 -5 142q-1 10 -1 21q0 17 7 17q4 0 6.5 -5t2.5 -12q0 -11 -1 -21q-5 -62 -5 -142v-405q0 -105 -67 -115h44q18 0 50 4l32 2q6 0 11.5 -1t5.5 -5
q0 -8 -17 -8l-32 1q-32 2 -50 2h-4q-38 0 -62 -2t-32 -2q-15 0 -15 8q0 7 15 7q6 0 16 -2.5t15 -2.5q39 0 62.5 25t23.5 90v314q0 77 -30.5 140t-88.5 100t-138 37q-78 0 -135.5 -34.5t-88 -94t-30.5 -133.5q0 -76 32 -135.5t89.5 -93t131.5 -33.5q48 0 94.5 16t80.5 43
q2 2 6 2t5.5 -4t-2.5 -7q-31 -25 -81 -39.5t-100 -14.5q-76 0 -135.5 34z" />
    <glyph glyph-name="r" unicode="r" horiz-adv-x="400" 
d="M88.5 462.5q-12.5 28.5 -41.5 28.5q-12 0 -12 6q0 8 12 8q22 0 40 -28t18 -106v-31q10 85 56 129t156 44q53 0 53 -11q0 -5 -11 -5q-9 0 -28 1.5t-42 1.5q-82 0 -121.5 -31.5t-51 -84t-11.5 -141.5v-28q0 -48 2 -97t2 -66l2 -40q0 -7 -2.5 -12t-6.5 -5q-7 0 -7 17l2 40
q0 17 2 66t2 97v151q0 68 -12.5 96.5z" />
    <glyph glyph-name="s" unicode="s" horiz-adv-x="555" 
d="M143.5 2q-56.5 18 -86.5 39q-7 6 -7 11q0 7 7 7q2 0 9 -5q2 -2 24 -20t71.5 -32t112.5 -14q101 0 164 32.5t63 99.5q0 47 -31 75t-75.5 42t-118.5 29q-71 15 -112 27.5t-69 37t-28 65.5q0 54 53.5 85.5t168.5 31.5q64 0 117 -5.5t53 -15.5q0 -4 -7 -4q-8 0 -26 3
q-85 11 -164 11h-25q-80 0 -123 -28.5t-43 -77.5q0 -39 27.5 -63t68.5 -36.5t110 -26.5q76 -16 120.5 -30t76 -43t31.5 -77q0 -69 -64 -102.5t-169 -33.5q-72 0 -128.5 18z" />
    <glyph glyph-name="t" unicode="t" horiz-adv-x="380" 
d="M170 10.5q-26 15.5 -33 41.5t-7 75v297q0 40 -9 55.5t-39 15.5q-10 0 -22.5 -2.5t-18.5 -2.5q-16 0 -16 7q0 8 16 8q7 0 22 -2.5t41 -2.5h45q-11 4 -15 13.5t-4 25.5q0 40 -2 78t-2 51l-2 35q0 17 7 17q9 0 9 -17l-2 -35q0 -13 -2 -51t-2 -78q0 -21 7 -30t30 -9
q80 0 108 2.5t34 2.5q18 0 18 -8q0 -7 -18 -7q-6 0 -37 3t-142 3h-32q19 -4 25.5 -21.5t6.5 -49.5v-297q0 -50 7.5 -75.5t29 -37t65.5 -11.5t64.5 8.5t25.5 8.5q9 0 9 -7q0 -9 -25 -14t-59 -5q-55 0 -81 15.5z" />
    <glyph glyph-name="u" unicode="u" 
d="M128 47q-57 62 -57 183v56q0 47 -2 94.5t-2 64.5l-2 44q0 7 2.5 12t6.5 5q7 0 7 -17l-2 -44q0 -17 -2 -64.5t-2 -94.5v-54q0 -243 222 -243q119 0 181 67.5t62 191.5v38q0 48 -2 97t-2 66l-2 40q0 7 2.5 12t6.5 5q7 0 7 -17l-2 -40q0 -17 -2 -66t-2 -97v-151
q0 -68 12.5 -96.5t41.5 -28.5q12 0 12 -6q0 -8 -12 -8q-22 0 -40 28t-18 106v59q-14 -98 -76 -151t-167 -53q-112 0 -169 62z" />
    <glyph glyph-name="v" unicode="v" horiz-adv-x="605" 
d="M90 396q-30 53 -36 63l-16 28q-3 5 -3 11q0 7 7 7q3 0 5.5 -3.5t4.5 -8.5l17 -35q35 -78 86 -177l147 -288q145 210 204.5 307t59.5 136q0 37 -35 49.5t-96 12.5q-25 0 -47.5 -2.5t-31.5 -2.5q-8 0 -10 3q-3 4 3 7q3 3 24 5.5t48 2.5q64 0 106.5 -15.5t42.5 -60.5
q0 -40 -58 -134.5t-210 -314.5h-1l-149 293q-32 64 -62 117z" />
    <glyph glyph-name="w" unicode="w" horiz-adv-x="916" 
d="M90 396q-30 53 -36 63l-16 28q-3 5 -3 11q0 7 7 7q3 0 5.5 -3.5t4.5 -8.5l17 -35q35 -78 86 -177l147 -288q124 180 174 258l-15 29q-44 86 -76.5 142.5t-35.5 62.5q-2 4 -2 7q0 5 6 8q5 3 37.5 7t62.5 4q54 0 85.5 -16.5t31.5 -59.5q0 -24 -22 -68t-68 -117l133 -257
q145 211 204.5 308t59.5 135q0 37 -35 49.5t-96 12.5q-25 0 -47.5 -2.5t-31.5 -2.5q-8 0 -10 3q-3 4 3 7q3 3 24 5.5t48 2.5q149 0 149 -76q0 -39 -58 -133.5t-210 -315.5h-1l-134 261q-51 -79 -133 -197q-6 -10 -43 -64h-1l-149 293q-32 64 -62 117zM464 282l14 -27
q45 71 66.5 114.5t21.5 66.5q0 36 -27 49t-80 13q-38 0 -69 -4t-36 -7q55 -99 110 -205z" />
    <glyph glyph-name="x" unicode="x" horiz-adv-x="530" 
d="M367 335q60 61 86 91.5t26 46.5q0 18 -20 24t-59 6q-17 0 -65 -3q-20 -2 -23 -2q-8 0 -10 3q-3 4 3 7q4 3 26.5 5.5t51.5 2.5q102 0 102 -41q0 -16 -24.5 -45t-82.5 -89q-61 -64 -57 -60l-44 -47l12 -14q34 -40 76.5 -87.5t61.5 -69.5q13 -15 25.5 -28.5t21.5 -24.5
q4 -6 4 -8q0 -7 -7 -7q-5 0 -12 9q-108 139 -174 216l-10 12l-221 -232q-5 -6 -8.5 -5t0.5 5l226 235l-39 45q-94 108 -160 182l-25 28q-3 5 -3 8q0 7 7 7q4 0 11 -9q98 -126 175 -216l36 -43l43 45q47 50 50 53z" />
    <glyph glyph-name="y" unicode="y" horiz-adv-x="605" 
d="M266 -190q-45 19 -45 67q0 22 15.5 49t45.5 70l-137 284q-35 73 -80 156q-24 43 -28 53q-2 4 -2 10t8 6q5 0 10 -12l14 -32q42 -98 81 -180l136 -282l1 1l39 53q137 187 189.5 267.5t52.5 115.5q0 37 -35 49.5t-96 12.5q-25 0 -47.5 -2.5t-31.5 -2.5q-8 0 -10 3q-3 4 3 7
q3 3 24 5.5t48 2.5q64 0 106.5 -15.5t42.5 -60.5q0 -36 -53.5 -117.5t-184.5 -258.5l-43 -59q-31 -43 -47.5 -72.5t-16.5 -51.5q0 -72 131 -72q35 0 61.5 5t27.5 3q2 -2 1 -4.5t-4 -3.5q-6 -4 -26 -8.5t-49 -4.5q-56 0 -101 19z" />
    <glyph glyph-name="z" unicode="z" horiz-adv-x="580" 
d="M91.5 22q17.5 13 32.5 32l311 392q13 15 28.5 28t29.5 18q-24 4 -74 4h-263q-44 0 -62 -2t-25 -2q-8 0 -13.5 1t-5.5 5t5.5 5t13.5 1q7 0 25 -2t62 -2h263q45 0 63 2t24 2q19 0 19 -7q0 -6 -19 -6q-15 0 -33 -13.5t-33 -31.5l-311 -392q-11 -14 -25.5 -27.5t-27.5 -19.5
q33 -3 70 -3h323q32 0 45.5 9t13.5 29q0 18 -17 64q-5 14 1 17h2q3 0 6 -3t5 -9q15 -32 15 -57t-16.5 -39.5t-53.5 -14.5h-324q-45 0 -63 -2t-24 -2q-19 0 -19 7q0 6 19 6q15 0 32.5 13z" />
    <glyph glyph-name="braceleft" unicode="{" horiz-adv-x="280" 
d="M186 -63l-46 1q-28 0 -39 11t-11 36q0 26 1 48q2 74 2 140v71q0 45 -17.5 70t-50.5 37v2q33 12 50.5 37t17.5 70v71q0 66 -2 140q-1 22 -1 48q0 25 11 36t39 11l46 1q13 1 40 1q11 0 15 -1t4 -5t-19 -4q-14 0 -40 2t-46 2q-23 0 -33 -9t-10 -32v-262q0 -83 -61 -107
q61 -24 61 -107v-262q0 -23 10 -32t33 -9q20 0 46 2t40 2q19 0 19 -4t-4 -5t-15 -1q-27 0 -40 1z" />
    <glyph glyph-name="bar" unicode="|" horiz-adv-x="177" 
d="M82.5 -156q-2.5 5 -2.5 12l2 48q5 115 5 195v411q0 80 -5 195l-2 48q0 7 2.5 12t6.5 5q8 0 8 -17l-2 -48q0 -21 -2 -79.5t-2 -115.5v-411q0 -57 2 -115.5t2 -79.5l2 -48q0 -17 -8 -17q-4 0 -6.5 5z" />
    <glyph glyph-name="braceright" unicode="}" horiz-adv-x="300" 
d="M94 767l46 -1q28 0 39 -11t11 -36q0 -26 -1 -48q-2 -74 -2 -140v-71q0 -45 17.5 -70t50.5 -37v-2q-33 -12 -50.5 -37t-17.5 -70v-71q0 -66 2 -140q1 -22 1 -48q0 -25 -11 -36t-39 -11l-46 -1q-13 -1 -40 -1q-11 0 -15 1t-4 5t19 4q14 0 40 -2t46 -2q23 0 33 9t10 32v262
q0 83 61 107q-61 24 -61 107v262q0 23 -10 32t-33 9q-20 0 -46 -2t-40 -2q-19 0 -19 4t4 5t15 1q27 0 40 -1z" />
    <glyph glyph-name="asciitilde" unicode="~" horiz-adv-x="595" 
d="M358 238.5q-28 11.5 -64 34.5q-33 21 -58.5 32t-58.5 11q-50 0 -75 -17t-42 -43q-5 -7 -9.5 -12t-8.5 -5q-7 0 -7 7q0 11 17 29t48 31.5t71 13.5q38 0 65.5 -11.5t65.5 -34.5q33 -22 58 -32.5t58 -10.5q51 0 76 17t42 44q2 2 7 9t10 7q7 0 7 -7q0 -11 -16.5 -29
t-47.5 -31.5t-72 -13.5q-38 0 -66 11.5z" />
    <glyph glyph-name="uni00A0" unicode="&#xa0;" horiz-adv-x="215" 
 />
    <glyph glyph-name="exclamdown" unicode="&#xa1;" horiz-adv-x="220" 
d="M116 -127l2 -63q0 -15 -8 -15t-8 15l1 63q4 146 4 302v124q0 3 2 3t2 -3v-124q0 -119 5 -302zM67 499q17 17 43 17t43 -17t17 -43t-17 -43t-43 -17t-43 17t-17 43t17 43zM70 416q16 -16 40 -16t40 16t16 40t-16 40t-40 16t-40 -16t-16 -40t16 -40z" />
    <glyph glyph-name="cent" unicode="&#xa2;" horiz-adv-x="630" 
d="M219 102q0 6 1 9q1 4 8 24q7 16 18 50q-86 25 -141 91.5t-55 164.5q0 81 39.5 141.5t103.5 92t138 31.5q19 0 51 -4l12 52l4 20q4 14 11 14t7 -9q0 -4 -2 -10q0 -1 -7 -19l-17 -50q49 -9 87 -32t56 -50q1 -1 1 -3q0 -3 -3 -3.5t-5 2.5q-19 26 -55 49t-82 33
q-11 -31 -25 -83l-91 -347l-20 -79q38 -9 75 -9q63 0 108.5 20.5t71 46.5t49.5 59q7 10 13.5 17.5t10.5 7.5t4 -5q0 -13 -32 -50.5t-90 -68.5t-134 -31q-42 0 -76 10q-8 -34 -11.5 -52t-5.5 -26q-4 -14 -11 -14q-6 0 -6 10zM108 277.5q54 -65.5 139 -88.5q14 42 23 78
l91 348q8 30 20 82q-27 5 -51 5q-73 0 -136 -30.5t-101.5 -90t-38.5 -140.5q0 -98 54 -163.5z" />
    <glyph glyph-name="sterling" unicode="&#xa3;" horiz-adv-x="665" 
d="M375 -27.5q-32 3.5 -83 10.5q-58 9 -98 13t-93 4q-13 0 -24.5 -2t-20.5 -2q-14 0 -14 8q0 6 13 6q59 0 88.5 25t29.5 98q0 44 -10 86t-28 93h-10q-30 0 -49 -3t-26 -3q-15 0 -15 9q0 8 15 8q7 0 26 -3t49 -3h8l-8 22q-22 58 -33 98.5t-11 82.5q0 196 283 196
q67 0 135 -7.5t68 -20.5q0 -6 -11 -6q-8 0 -25 3.5t-25 4.5q-48 10 -84 15t-80 5q-121 0 -189 -48t-68 -141q0 -38 10.5 -76t32.5 -99l10 -29h92q58 0 116.5 2t79.5 2l49 2q15 0 15 -8t-15 -8l-49 1q-92 4 -196 4h-91q18 -52 28 -94t10 -85q0 -75 -30.5 -101t-77.5 -26
q72 0 127.5 -5.5t117.5 -15.5q8 -1 47.5 -6.5t73.5 -5.5q60 0 94.5 12t60.5 31q13 11 19 3q1 -1 1 -3q0 -9 -13 -16q-49 -31 -152 -31q-38 0 -70 3.5z" />
    <glyph glyph-name="currency" unicode="&#xa4;" horiz-adv-x="396" 
d="M150.5 460.5q-22.5 9.5 -38.5 26.5q-21 -24 -32 -38.5t-14 -18.5q-5 -5 -9 -5q-7 0 -7 7q0 6 5 10q42 37 53 48q-30 33 -30 80t30 80q-11 11 -53 48q-5 4 -5 9q0 3 2 5.5t6 2.5q3 0 8 -5q3 -4 14 -18.5t32 -38.5q16 17 38.5 26.5t47.5 9.5t47.5 -9.5t38.5 -26.5
q21 24 32 38.5t14 18.5q5 5 9 5q7 0 7 -7q0 -6 -5 -10q-42 -37 -53 -48q30 -33 30 -80t-30 -80q11 -11 53 -48q5 -4 5 -9q0 -3 -2 -5.5t-6 -2.5q-3 0 -8 5q-3 4 -14 18.5t-32 38.5q-16 -17 -38.5 -26.5t-47.5 -9.5t-47.5 9.5zM115.5 488q33.5 -33 82.5 -33t82.5 33t33.5 82
t-33.5 82t-82.5 33t-82.5 -33t-33.5 -82t33.5 -82z" />
    <glyph glyph-name="yen" unicode="&#xa5;" horiz-adv-x="790" 
d="M111 212q0 8 17 8q4 0 20 -3t43 -3h108l-58 112q-110 212 -184 341l-10 18q-2 4 -2 7q0 9 9 9q8 0 13 -12q40 -95 178 -361l59 -114h107l93 1l32 45q101 143 152.5 225t51.5 119q0 55 -52 75.5t-134 20.5q-57 0 -106 -7q-22 -3 -24 -1t-2 3q0 4 6 7q8 5 37 9.5t75 4.5
q84 0 144.5 -24t60.5 -88q0 -38 -52 -121t-156 -230l-27 -38l70 3q53 3 74 3q7 0 12 -2.5t5 -6.5q0 -8 -17 -8l-53 2l-96 3l-46 -66q-14 0 115 4l50 2q17 0 17 -8q0 -4 -5 -6.5t-12 -2.5l-43 1q-35 2 -126 4q-62 -89 -96.5 -150t-34.5 -91q0 -55 50 -75t132 -20q39 0 68 2.5
t35 3.5q27 5 31 1t-1 -8q-11 -6 -40.5 -11t-75.5 -5q-83 0 -143.5 24t-60.5 88q0 40 68 148l-49 94h-167q-30 0 -49 -3t-24 -3q-7 0 -12 2.5t-5 6.5q0 7 17 7q5 0 24 -3t49 -3h165l-35 68h-110q-27 0 -43 -3t-20 -3q-17 0 -17 8zM341 142h40l72 1l47 66q-28 1 -89 1h-105z
M390 48l46 70l13 19q-21 1 -68 1h-38z" />
    <glyph glyph-name="brokenbar" unicode="&#xa6;" horiz-adv-x="177" 
d="M82.5 334q-2.5 5 -2.5 12q0 6 2 36q5 75 5 157v21q0 82 -5 157q-2 30 -2 36q0 7 2.5 12t6.5 5q8 0 8 -17q0 -6 -2 -36q0 -11 -2 -53t-2 -104v-21q0 -62 2 -104t2 -53q2 -30 2 -36q0 -17 -8 -17q-4 0 -6.5 5zM82 -108q5 75 5 157v21q0 82 -5 157q-2 30 -2 36q0 7 2.5 12
t6.5 5t6.5 -5t2.5 -12q0 -6 -2 -36q-5 -75 -5 -157v-21q0 -62 2 -104t2 -53q2 -30 2 -36q0 -17 -8 -17q-4 0 -6.5 5t-2.5 12q0 6 2 36z" />
    <glyph glyph-name="section" unicode="&#xa7;" horiz-adv-x="560" 
d="M138 -3.5q-58 12.5 -83 30.5q-5 4 -5 9q0 3 2.5 5.5t6.5 2.5q3 0 25.5 -15t70 -28t120.5 -13q103 0 164.5 29.5t61.5 98.5q0 46 -31 74t-75.5 42.5t-118.5 30.5q-71 15 -113 28.5t-70.5 38.5t-28.5 66q0 36 23 61.5t63 39.5q-41 16 -63.5 40t-22.5 59q0 61 60.5 90.5
t149.5 29.5q62 0 117 -13t80 -31q4 -3 4 -8q0 -7 -8 -7q-3 0 -25.5 15t-63.5 27.5t-103 12.5q-88 0 -147.5 -28.5t-59.5 -87.5q0 -39 28 -63t68.5 -37t110.5 -28q77 -17 122 -32t76.5 -43.5t31.5 -76.5q0 -68 -63 -100q63 -36 63 -100q0 -132 -233 -132q-76 0 -134 12.5z
M96 333q28 -24 68.5 -37t110.5 -28q60 -13 97 -23.5t66 -26.5q63 31 63 98q0 46 -31 74t-75.5 42.5t-118.5 30.5q-77 16 -121 32q-40 -13 -63.5 -38t-23.5 -61q0 -39 28 -63z" />
    <glyph glyph-name="dieresis" unicode="&#xa8;" horiz-adv-x="230" 
d="M27 624q-7 7 -7 17t7 17t17 7t17 -7t7 -17t-7 -17t-17 -7t-17 7zM169 624q-7 7 -7 17t7 17t17 7t17 -7t7 -17t-7 -17t-17 -7t-17 7z" />
    <glyph glyph-name="copyright" unicode="&#xa9;" horiz-adv-x="860" 
d="M245 30q-86 46 -138 129.5t-52 191.5q0 107 52 190t138 129t185 46t185 -46t138 -129t52 -190q0 -108 -52 -191.5t-138 -129.5t-185 -46t-185 46zM110.5 161q51.5 -83 136.5 -128t183 -45t183 45t136.5 128t51.5 190q0 106 -51.5 188.5t-136.5 127.5t-183 45t-183 -45
t-136.5 -127.5t-51.5 -188.5q0 -107 51.5 -190zM234 470q32 51 85 78.5t113 27.5q64 0 115 -28.5t73 -64.5q3 -4 0 -5.5t-6 1.5q-24 37 -71.5 65t-111.5 28q-60 0 -111.5 -26.5t-82.5 -77t-31 -117.5q0 -68 31.5 -119t83.5 -77.5t111 -26.5q55 0 94 20t60 46t40 58
q2 3 7 11.5t8.5 12t6.5 3.5q4 0 4 -5q0 -13 -27 -50.5t-76 -68.5t-116 -31q-60 0 -113.5 27.5t-85.5 79.5t-32 120t32 119z" />
    <glyph glyph-name="ordfeminine" unicode="&#xaa;" horiz-adv-x="405" 
d="M78 435q-28 17 -28 52q0 26 19.5 44t67.5 26l66 11q59 10 80.5 27t21.5 50q0 35 -21 47.5t-58 12.5h-30q-46 0 -72.5 -3t-31.5 -3q-6 0 -6 4q0 12 95 12q70 0 99 -15t29 -55q0 -36 -23.5 -53.5t-82.5 -27.5l-66 -11q-47 -8 -65 -24.5t-18 -41.5q0 -65 100 -65
q61 0 106 22.5t45 60.5q0 11 5 11q4 0 4 -6q0 -7 -1 -14.5t-1 -20.5q0 -21 7.5 -32t25.5 -11q6 0 27 3q8 1 8 -4q0 -3 -6.5 -5t-16.5 -2q-30 0 -39.5 15t-12.5 47q-11 -32 -55 -50t-96 -18q-48 0 -76 17z" />
    <glyph glyph-name="guillemotleft" unicode="&#xab;" horiz-adv-x="425" 
d="M257 57q-57 64 -207 220q150 156 207 220q8 10 12 10q5 0 6 -3.5t-3 -7.5l-36 -36q-99 -97 -182 -183q83 -86 182 -183l36 -36q4 -4 3 -7.5t-6 -3.5q-4 0 -12 10zM357 57q-57 64 -207 220q150 156 207 220q8 10 12 10q5 0 6 -3.5t-3 -7.5l-36 -36q-99 -97 -182 -183
q83 -86 182 -183l36 -36q4 -4 3 -7.5t-6 -3.5q-4 0 -12 10z" />
    <glyph glyph-name="logicalnot" unicode="&#xac;" horiz-adv-x="660" 
d="M621 271h-586v4h590v-111h-4v107z" />
    <glyph glyph-name="registered" unicode="&#xae;" horiz-adv-x="860" 
d="M245 30q-86 46 -138 129.5t-52 191.5q0 107 52 190t138 129t185 46t185 -46t138 -129t52 -190q0 -108 -52 -191.5t-138 -129.5t-185 -46t-185 46zM110.5 161q51.5 -83 136.5 -128t183 -45t183 45t136.5 128t51.5 190q0 106 -51.5 188.5t-136.5 127.5t-183 45t-183 -45
t-136.5 -127.5t-51.5 -188.5q0 -107 51.5 -190zM280 200q4 68 4 131q0 118 -3 217q0 9 8 9q5 0 16 -1t26 -1h110q80 0 124 -32t44 -90q0 -59 -45.5 -90.5t-132.5 -31.5q18 -4 30 -11t25 -21l28 -30q46 -47 68 -68q13 -11 20.5 -19.5t7.5 -13.5q0 -8 -7 -8q-3 0 -11 10
t-11 13q-4 5 -22 28t-46 53l-30 32q-33 35 -76 35h-46q-18 0 -18 9q0 7 14 7q6 0 11.5 -1t9.5 -2q26 -8 61 -8q80 0 123 30.5t43 86.5t-42.5 87t-121.5 31h-153v-220q0 -46 5 -131l2 -42q0 -10 -2 -14t-6 -4q-9 0 -9 18z" />
    <glyph glyph-name="macron" unicode="&#xaf;" horiz-adv-x="355" 
d="M20 635h315v-4h-315v4z" />
    <glyph glyph-name="degree" unicode="&#xb0;" horiz-adv-x="400" 
d="M124.5 437.5q-34.5 19.5 -54.5 54t-20 75.5t20 75.5t54.5 54t75.5 19.5t75.5 -19.5t54.5 -54t20 -75.5t-20 -75.5t-54.5 -54t-75.5 -19.5t-75.5 19.5zM73.5 493.5q19.5 -33.5 53 -52.5t73.5 -19t73.5 19t53 52.5t19.5 73.5t-19.5 73.5t-53 52.5t-73.5 19t-73.5 -19
t-53 -52.5t-19.5 -73.5t19.5 -73.5z" />
    <glyph glyph-name="plusminus" unicode="&#xb1;" horiz-adv-x="660" 
d="M35 315h293v203h4v-203h293v-4h-293v-203h-4v203h-293v4zM35 25h590v-4h-590v4z" />
    <glyph glyph-name="acute" unicode="&#xb4;" horiz-adv-x="248" 
d="M20 576l191 129q5 4 10 4q3 0 5 -2t2 -4q0 -6 -9 -12l-198 -117z" />
    <glyph glyph-name="uni00B5" unicode="&#xb5;" horiz-adv-x="646" 
d="M71 -188l1 23q5 62 5 140v311q0 47 -2 94.5t-2 64.5l-2 44q0 17 8 17t8 -17l-2 -44q0 -17 -2 -64.5t-2 -94.5v-54q0 -243 222 -243q119 0 181 67.5t62 191.5v38q0 48 -2 97t-2 66l-2 40q0 7 2.5 12t6.5 5q7 0 7 -17l-2 -40q0 -17 -2 -66t-2 -97v-151q0 -68 12.5 -96.5
t41.5 -28.5q12 0 12 -6q0 -8 -12 -8q-22 0 -40 28t-18 106v60q-13 -98 -75.5 -151.5t-167.5 -53.5q-197 0 -222 187v-197q0 -78 5 -140l1 -23q0 -17 -9 -17q-7 0 -7 17z" />
    <glyph glyph-name="paragraph" unicode="&#xb6;" horiz-adv-x="560" 
d="M394 13l2 47q5 128 5 210v35h-116q-103 0 -166.5 50.5t-63.5 149.5t63 147t167 48h73q15 0 26 1t16 1q8 0 8 -9q-3 -90 -3 -383q32 1 46 2.5t28 4.5v113q0 83 -5 210l-2 47q0 18 9 18q4 0 6 -4t2 -14l-1 -47q-5 -127 -5 -210v-160q0 -82 5 -210l1 -47q0 -10 -2 -14t-6 -4
q-9 0 -9 18l2 47q5 128 5 210v35h-74v-35q0 -82 5 -210l1 -47q0 -18 -9 -18q-8 0 -8 18zM121 358.5q62 -49.5 164 -49.5q90 0 116 1v386h-117q-102 0 -163.5 -47.5t-61.5 -143.5q0 -97 62 -146.5z" />
    <glyph glyph-name="periodcentered" unicode="&#xb7;" horiz-adv-x="270" 
d="M92 238q-17 17 -17 43t17 43t43 17t43 -17t17 -43t-17 -43t-43 -17t-43 17zM95 241q16 -16 40 -16t40 16t16 40t-16 40t-40 16t-40 -16t-16 -40t16 -40z" />
    <glyph glyph-name="cedilla" unicode="&#xb8;" horiz-adv-x="270" 
d="M76.5 -195q-26.5 5 -41.5 12.5t-15 13.5t8 6q9 0 23 -8q24 -11 45.5 -17t54.5 -6q52 0 73.5 16.5t21.5 39.5q0 28 -37.5 45t-131.5 17l75 76h5l-73 -73q91 0 128.5 -17t37.5 -48q0 -25 -26 -43.5t-87 -18.5q-34 0 -60.5 5z" />
    <glyph glyph-name="ordmasculine" unicode="&#xba;" horiz-adv-x="398" 
d="M123.5 437.5q-34.5 19.5 -54 54t-19.5 75.5t19.5 75t54 53.5t75.5 19.5t75.5 -19.5t54 -53.5t19.5 -75t-19.5 -75.5t-54 -54t-75.5 -19.5t-75.5 19.5zM73 493.5q19 -33.5 52.5 -52.5t73.5 -19t73.5 19t52.5 52.5t19 73.5t-19 73t-52.5 52t-73.5 19t-73.5 -19t-52.5 -52
t-19 -73t19 -73.5z" />
    <glyph glyph-name="guillemotright" unicode="&#xbb;" horiz-adv-x="425" 
d="M150 50.5q-1 3.5 3 7.5l36 36q99 97 182 183q-83 86 -182 183l-36 36q-4 4 -3 7.5t6 3.5q4 0 12 -10q57 -64 207 -220q-150 -156 -207 -220q-8 -10 -12 -10q-5 0 -6 3.5zM50 50.5q-1 3.5 3 7.5l36 36q99 97 182 183q-83 86 -182 183l-36 36q-4 4 -3 7.5t6 3.5q4 0 12 -10
q57 -64 207 -220q-150 -156 -207 -220q-8 -10 -12 -10q-5 0 -6 3.5z" />
    <glyph glyph-name="questiondown" unicode="&#xbf;" horiz-adv-x="455" 
d="M254 293.5q24 -8.5 44.5 -31.5t20.5 -63q0 -36 -18.5 -62.5t-45 -44t-70.5 -40.5q-42 -21 -67 -37t-42 -39.5t-17 -55.5q0 -38 25 -67.5t70 -46.5t104 -17q34 0 58 5t53 14q22 6 24 6t4.5 -1.5t2.5 -3.5q0 -12 -42 -18.5t-90 -6.5q-103 0 -158 38t-55 98q0 33 17.5 57.5
t43 41t68.5 38.5q44 23 69.5 40t43.5 42t18 60q0 41 -21.5 58t-56.5 26q-14 4 -20 6.5t-6 7.5t8 5q11 0 35 -8.5zM216 499q17 17 43 17t43 -17t17 -43t-17 -43t-43 -17t-43 17t-17 43t17 43zM219 416q16 -16 40 -16t40 16t16 40t-16 40t-40 16t-40 -16t-16 -40t16 -40z" />
    <glyph glyph-name="Agrave" unicode="&#xc0;" horiz-adv-x="820" 
d="M108.5 10q-25.5 18 -42 49t-16.5 66q0 36 19 66.5t57.5 49t92.5 18.5q79 0 203.5 -53.5t346.5 -205.5q-56 112 -199 375l-181 334l-93 -162q-78 -135 -115 -212q-4 -10 -7 -13.5t-8 -3.5q-8 0 -8 9q0 5 2 8l26 42q57 87 106 172l96 167h2l184 -340q78 -144 180 -321
q20 -34 22 -38q4 -8 4 -13q0 -9 -10 -9q-5 0 -12 5q-214 149 -337 202t-202 53q-80 0 -122.5 -37.5t-42.5 -92.5q0 -45 24.5 -70t61.5 -40q4 -2 12.5 -5.5t12 -6t3.5 -5.5q0 -2 -3 -4t-8 -2q-23 0 -48.5 18zM285 903q0 6 7 6q5 0 10 -4l191 -129l-1 -2l-198 117q-9 6 -9 12z
" />
    <glyph glyph-name="Aacute" unicode="&#xc1;" horiz-adv-x="820" 
d="M108.5 10q-25.5 18 -42 49t-16.5 66q0 36 19 66.5t57.5 49t92.5 18.5q79 0 203.5 -53.5t346.5 -205.5q-56 112 -199 375l-181 334l-93 -162q-78 -135 -115 -212q-4 -10 -7 -13.5t-8 -3.5q-8 0 -8 9q0 5 2 8l26 42q57 87 106 172l96 167h2l184 -340q78 -144 180 -321
q20 -34 22 -38q4 -8 4 -13q0 -9 -10 -9q-5 0 -12 5q-214 149 -337 202t-202 53q-80 0 -122.5 -37.5t-42.5 -92.5q0 -45 24.5 -70t61.5 -40q4 -2 12.5 -5.5t12 -6t3.5 -5.5q0 -2 -3 -4t-8 -2q-23 0 -48.5 18zM285 776l191 129q5 4 10 4q3 0 5 -2t2 -4q0 -6 -9 -12l-198 -117z
" />
    <glyph glyph-name="Acircumflex" unicode="&#xc2;" horiz-adv-x="820" 
d="M108.5 10q-25.5 18 -42 49t-16.5 66q0 36 19 66.5t57.5 49t92.5 18.5q79 0 203.5 -53.5t346.5 -205.5q-56 112 -199 375l-181 334l-93 -162q-78 -135 -115 -212q-4 -10 -7 -13.5t-8 -3.5q-8 0 -8 9q0 5 2 8l26 42q57 87 106 172l96 167h2l184 -340q78 -144 180 -321
q20 -34 22 -38q4 -8 4 -13q0 -9 -10 -9q-5 0 -12 5q-214 149 -337 202t-202 53q-80 0 -122.5 -37.5t-42.5 -92.5q0 -45 24.5 -70t61.5 -40q4 -2 12.5 -5.5t12 -6t3.5 -5.5q0 -2 -3 -4t-8 -2q-23 0 -48.5 18zM226 769.5q-2 6.5 3 10.5l32 25q69 54 132 110q58 -54 88 -80.5
t45 -40.5l29 -26l-4 -4l-158 146q-71 -62 -120 -114l-24 -24l-5 -5t-9 -4q-7 0 -9 6.5z" />
    <glyph glyph-name="Atilde" unicode="&#xc3;" horiz-adv-x="820" 
d="M108.5 10q-25.5 18 -42 49t-16.5 66q0 36 19 66.5t57.5 49t92.5 18.5q79 0 203.5 -53.5t346.5 -205.5q-56 112 -199 375l-181 334l-93 -162q-78 -135 -115 -212q-4 -10 -7 -13.5t-8 -3.5q-8 0 -8 9q0 5 2 8l26 42q57 87 106 172l96 167h2l184 -340q78 -144 180 -321
q20 -34 22 -38q4 -8 4 -13q0 -9 -10 -9q-5 0 -12 5q-214 149 -337 202t-202 53q-80 0 -122.5 -37.5t-42.5 -92.5q0 -45 24.5 -70t61.5 -40q4 -2 12.5 -5.5t12 -6t3.5 -5.5q0 -2 -3 -4t-8 -2q-23 0 -48.5 18zM432.5 804.5q-19.5 9.5 -44.5 27.5q-24 17 -41.5 25.5t-40.5 8.5
q-33 0 -52 -12.5t-34 -32.5q-10 -14 -16 -14q-7 0 -7 7q0 10 13.5 23.5t37 23t53.5 9.5q26 0 45.5 -9.5t44.5 -27.5q24 -17 41.5 -25.5t40.5 -8.5q33 0 52 12.5t34 32.5q11 14 16 14q7 0 7 -7q0 -8 -13.5 -22t-37.5 -24t-53 -10q-26 0 -45.5 9.5z" />
    <glyph glyph-name="Adieresis" unicode="&#xc4;" horiz-adv-x="820" 
d="M108.5 10q-25.5 18 -42 49t-16.5 66q0 36 19 66.5t57.5 49t92.5 18.5q79 0 203.5 -53.5t346.5 -205.5q-56 112 -199 375l-181 334l-93 -162q-78 -135 -115 -212q-4 -10 -7 -13.5t-8 -3.5q-8 0 -8 9q0 5 2 8l26 42q57 87 106 172l96 167h2l184 -340q78 -144 180 -321
q20 -34 22 -38q4 -8 4 -13q0 -9 -10 -9q-5 0 -12 5q-214 149 -337 202t-202 53q-80 0 -122.5 -37.5t-42.5 -92.5q0 -45 24.5 -70t61.5 -40q4 -2 12.5 -5.5t12 -6t3.5 -5.5q0 -2 -3 -4t-8 -2q-23 0 -48.5 18zM302 824q-7 7 -7 17t7 17t17 7t17 -7t7 -17t-7 -17t-17 -7t-17 7z
M444 824q-7 7 -7 17t7 17t17 7t17 -7t7 -17t-7 -17t-17 -7t-17 7z" />
    <glyph glyph-name="Aring" unicode="&#xc5;" horiz-adv-x="820" 
d="M108.5 10q-25.5 18 -42 49t-16.5 66q0 36 19 66.5t57.5 49t92.5 18.5q79 0 203.5 -53.5t346.5 -205.5q-56 112 -199 375l-181 334l-93 -162q-78 -135 -115 -212q-4 -10 -7 -13.5t-8 -3.5q-8 0 -8 9q0 5 2 8l26 42q57 87 106 172l96 167h2l184 -340q78 -144 180 -321
q20 -34 22 -38q4 -8 4 -13q0 -9 -10 -9q-5 0 -12 5q-214 149 -337 202t-202 53q-80 0 -122.5 -37.5t-42.5 -92.5q0 -45 24.5 -70t61.5 -40q4 -2 12.5 -5.5t12 -6t3.5 -5.5q0 -2 -3 -4t-8 -2q-23 0 -48.5 18zM356 807q-14 14 -14 34t14 34t34 14t34 -14t14 -34t-14 -34
t-34 -14t-34 14zM358.5 810q12.5 -13 31.5 -13t31.5 13t12.5 31t-12.5 31t-31.5 13t-31.5 -13t-12.5 -31t12.5 -31z" />
    <glyph glyph-name="AE" unicode="&#xc6;" horiz-adv-x="1284" 
d="M786 -9.5q-98 26.5 -162 63.5t-141 95q-58 -58 -90.5 -87t-74.5 -49.5t-93 -20.5q-50 0 -90 18.5t-62.5 50.5t-22.5 70q0 36 21 67t61 50t96 19q49 0 91 -14.5t78 -37.5t86 -61q40 40 72.5 69t70.5 55l-53 97l-180 334l-93 -162q-73 -125 -114 -212q-4 -9 -7.5 -13
t-8.5 -4q-8 0 -8 9q0 5 2 8l26 42q56 86 107 172l95 167h2l183 -340l52 -96q37 26 79 45v140q0 117 -3 228q0 9 8 9q5 0 16 -1t26 -1h180q118 0 210 2h48q19 0 19 -8q0 -9 -15 -9l-39 2q-135 9 -223 9h-223v-369q117 52 262 52q113 0 167 -9q10 -2 14 -4t4 -6q0 -5 -10 -5
q-6 0 -9 1q-81 19 -166 19q-145 0 -262 -52v-190q20 -36 41 -71q36 -62 40 -70q91 -22 203 -22q98 0 149.5 13.5t84.5 32.5q8 6 12 6.5t6 -3.5q1 -1 1 -3q0 -9 -13 -16q-26 -15 -81 -25.5t-139 -10.5q-132 0 -230 26.5zM74.5 65q20.5 -31 59 -50t91.5 -19q50 0 91.5 20
t74.5 49t89 86q-53 40 -86.5 61.5t-74.5 36t-89 14.5q-57 0 -96.5 -18.5t-59.5 -48.5t-20 -65t20.5 -66zM627 56.5q62 -36.5 147 -59.5q-14 30 -62 120v-1l-4 8l-81 151q-64 -44 -141 -123q79 -59 141 -95.5zM708 140v181q-38 -18 -77 -43z" />
    <glyph glyph-name="Ccedilla" unicode="&#xc7;" horiz-adv-x="835" 
d="M251 28q-88 44 -142 127t-54 196q0 112 53.5 195t141.5 126.5t189 43.5q65 0 121.5 -18t97.5 -46t61 -58q1 -1 1 -3q0 -4 -4 -5t-6 3q-35 49 -106.5 86t-165.5 37q-100 0 -186.5 -43t-139.5 -124.5t-53 -193.5t53.5 -194.5t140.5 -125.5t185 -43q87 0 150 29t99 65t68 81
q12 17 19 25t12 8q4 0 4 -5q0 -17 -44.5 -69t-123 -95t-183.5 -43q-100 0 -188 44zM363.5 -211q-26.5 5 -41.5 12.5t-15 13.5t8 6q9 0 23 -8q24 -11 45.5 -17t54.5 -6q52 0 73.5 16.5t21.5 39.5q0 28 -37.5 45t-131.5 17l75 76h5l-73 -73q91 0 128.5 -17t37.5 -48
q0 -25 -26 -43.5t-87 -18.5q-34 0 -60.5 5z" />
    <glyph glyph-name="Egrave" unicode="&#xc8;" horiz-adv-x="635" 
d="M362 -27.5q-34 3.5 -89 10.5q-67 8 -115.5 12.5t-111.5 4.5q-7 0 -17 -2t-15 -2q-14 0 -14 8q0 3 4 5t9 2q20 0 29.5 5.5t12.5 18.5t3 41v269q0 27 20 32q-8 1 -14 9t-6 23v56q0 115 -3 229q0 8 8 8q5 0 16 -1t26 -1h187q117 0 209 2h47q19 0 19 -8q0 -9 -15 -9l-39 2
q-101 9 -221 9h-230v-286q0 -31 30 -31h78q95 0 247 5l59 1q11 0 15 -2t4 -6t-4 -5.5t-15 -1.5l-59 1q-122 4 -247 4h-78q-30 0 -30 -32v-270q0 -31 -6.5 -46.5t-23.5 -22.5q69 0 128 -5t127 -14q10 -1 56 -6.5t84 -5.5q74 0 105 13t49 37q10 13 17 6q2 -2 2 -5q0 -7 -7 -15
q-16 -20 -51.5 -30t-105.5 -10q-40 0 -74 3.5zM215 903q0 6 7 6q5 0 10 -4l191 -129l-1 -2l-198 117q-9 6 -9 12z" />
    <glyph glyph-name="Eacute" unicode="&#xc9;" horiz-adv-x="635" 
d="M362 -27.5q-34 3.5 -89 10.5q-67 8 -115.5 12.5t-111.5 4.5q-7 0 -17 -2t-15 -2q-14 0 -14 8q0 3 4 5t9 2q20 0 29.5 5.5t12.5 18.5t3 41v269q0 27 20 32q-8 1 -14 9t-6 23v56q0 115 -3 229q0 8 8 8q5 0 16 -1t26 -1h187q117 0 209 2h47q19 0 19 -8q0 -9 -15 -9l-39 2
q-101 9 -221 9h-230v-286q0 -31 30 -31h78q95 0 247 5l59 1q11 0 15 -2t4 -6t-4 -5.5t-15 -1.5l-59 1q-122 4 -247 4h-78q-30 0 -30 -32v-270q0 -31 -6.5 -46.5t-23.5 -22.5q69 0 128 -5t127 -14q10 -1 56 -6.5t84 -5.5q74 0 105 13t49 37q10 13 17 6q2 -2 2 -5q0 -7 -7 -15
q-16 -20 -51.5 -30t-105.5 -10q-40 0 -74 3.5zM215 776l191 129q5 4 10 4q3 0 5 -2t2 -4q0 -6 -9 -12l-198 -117z" />
    <glyph glyph-name="Ecircumflex" unicode="&#xca;" horiz-adv-x="635" 
d="M362 -27.5q-34 3.5 -89 10.5q-67 8 -115.5 12.5t-111.5 4.5q-7 0 -17 -2t-15 -2q-14 0 -14 8q0 3 4 5t9 2q20 0 29.5 5.5t12.5 18.5t3 41v269q0 27 20 32q-8 1 -14 9t-6 23v56q0 115 -3 229q0 8 8 8q5 0 16 -1t26 -1h187q117 0 209 2h47q19 0 19 -8q0 -9 -15 -9l-39 2
q-101 9 -221 9h-230v-286q0 -31 30 -31h78q95 0 247 5l59 1q11 0 15 -2t4 -6t-4 -5.5t-15 -1.5l-59 1q-122 4 -247 4h-78q-30 0 -30 -32v-270q0 -31 -6.5 -46.5t-23.5 -22.5q69 0 128 -5t127 -14q10 -1 56 -6.5t84 -5.5q74 0 105 13t49 37q10 13 17 6q2 -2 2 -5q0 -7 -7 -15
q-16 -20 -51.5 -30t-105.5 -10q-40 0 -74 3.5zM156 769.5q-2 6.5 3 10.5l32 25q69 54 132 110q58 -54 88 -80.5t45 -40.5l29 -26l-4 -4l-158 146q-71 -62 -120 -114l-24 -24l-5 -5t-9 -4q-7 0 -9 6.5z" />
    <glyph glyph-name="Edieresis" unicode="&#xcb;" horiz-adv-x="635" 
d="M362 -27.5q-34 3.5 -89 10.5q-67 8 -115.5 12.5t-111.5 4.5q-7 0 -17 -2t-15 -2q-14 0 -14 8q0 3 4 5t9 2q20 0 29.5 5.5t12.5 18.5t3 41v269q0 27 20 32q-8 1 -14 9t-6 23v56q0 115 -3 229q0 8 8 8q5 0 16 -1t26 -1h187q117 0 209 2h47q19 0 19 -8q0 -9 -15 -9l-39 2
q-101 9 -221 9h-230v-286q0 -31 30 -31h78q95 0 247 5l59 1q11 0 15 -2t4 -6t-4 -5.5t-15 -1.5l-59 1q-122 4 -247 4h-78q-30 0 -30 -32v-270q0 -31 -6.5 -46.5t-23.5 -22.5q69 0 128 -5t127 -14q10 -1 56 -6.5t84 -5.5q74 0 105 13t49 37q10 13 17 6q2 -2 2 -5q0 -7 -7 -15
q-16 -20 -51.5 -30t-105.5 -10q-40 0 -74 3.5zM232 824q-7 7 -7 17t7 17t17 7t17 -7t7 -17t-7 -17t-17 -7t-17 7zM374 824q-7 7 -7 17t7 17t17 7t17 -7t7 -17t-7 -17t-17 -7t-17 7z" />
    <glyph glyph-name="Igrave" unicode="&#xcc;" horiz-adv-x="285" 
d="M35 4q0 7 19 7q5 0 14.5 -2.5t23.5 -2.5q30 0 39 15.5t9 54.5v551q0 31 6.5 47t23.5 21h-29q-37 0 -57.5 -2.5t-27.5 -2.5q-21 0 -21 6q0 7 21 7q7 0 27.5 -1.5t57.5 -1.5h14q39 0 54.5 2t21.5 2q19 0 19 -8q0 -7 -19 -7q-5 0 -14.5 2.5t-23.5 2.5q-30 0 -39.5 -15.5
t-9.5 -54.5v-551q0 -31 -6 -47t-23 -21h29q37 0 57.5 2.5t27.5 2.5q21 0 21 -6q0 -7 -21 -7q-7 0 -27.5 1.5t-57.5 1.5h-14q-39 0 -54.5 -2t-21.5 -2q-19 0 -19 8zM38 903q0 6 7 6q5 0 10 -4l191 -129l-1 -2l-198 117q-9 6 -9 12z" />
    <glyph glyph-name="Iacute" unicode="&#xcd;" horiz-adv-x="285" 
d="M35 4q0 7 19 7q5 0 14.5 -2.5t23.5 -2.5q30 0 39 15.5t9 54.5v551q0 31 6.5 47t23.5 21h-29q-37 0 -57.5 -2.5t-27.5 -2.5q-21 0 -21 6q0 7 21 7q7 0 27.5 -1.5t57.5 -1.5h14q39 0 54.5 2t21.5 2q19 0 19 -8q0 -7 -19 -7q-5 0 -14.5 2.5t-23.5 2.5q-30 0 -39.5 -15.5
t-9.5 -54.5v-551q0 -31 -6 -47t-23 -21h29q37 0 57.5 2.5t27.5 2.5q21 0 21 -6q0 -7 -21 -7q-7 0 -27.5 1.5t-57.5 1.5h-14q-39 0 -54.5 -2t-21.5 -2q-19 0 -19 8zM38 776l191 129q5 4 10 4q3 0 5 -2t2 -4q0 -6 -9 -12l-198 -117z" />
    <glyph glyph-name="Icircumflex" unicode="&#xce;" horiz-adv-x="285" 
d="M35 4q0 7 19 7q5 0 14.5 -2.5t23.5 -2.5q30 0 39 15.5t9 54.5v551q0 31 6.5 47t23.5 21h-29q-37 0 -57.5 -2.5t-27.5 -2.5q-21 0 -21 6q0 7 21 7q7 0 27.5 -1.5t57.5 -1.5h14q39 0 54.5 2t21.5 2q19 0 19 -8q0 -7 -19 -7q-5 0 -14.5 2.5t-23.5 2.5q-30 0 -39.5 -15.5
t-9.5 -54.5v-551q0 -31 -6 -47t-23 -21h29q37 0 57.5 2.5t27.5 2.5q21 0 21 -6q0 -7 -21 -7q-7 0 -27.5 1.5t-57.5 1.5h-14q-39 0 -54.5 -2t-21.5 -2q-19 0 -19 8zM-21 769.5q-2 6.5 3 10.5l32 25q69 54 132 110q58 -54 88 -80.5t45 -40.5l29 -26l-4 -4l-158 146
q-71 -62 -120 -114l-24 -24l-5 -5t-9 -4q-7 0 -9 6.5z" />
    <glyph glyph-name="Idieresis" unicode="&#xcf;" horiz-adv-x="285" 
d="M35 4q0 7 19 7q5 0 14.5 -2.5t23.5 -2.5q30 0 39 15.5t9 54.5v551q0 31 6.5 47t23.5 21h-29q-37 0 -57.5 -2.5t-27.5 -2.5q-21 0 -21 6q0 7 21 7q7 0 27.5 -1.5t57.5 -1.5h14q39 0 54.5 2t21.5 2q19 0 19 -8q0 -7 -19 -7q-5 0 -14.5 2.5t-23.5 2.5q-30 0 -39.5 -15.5
t-9.5 -54.5v-551q0 -31 -6 -47t-23 -21h29q37 0 57.5 2.5t27.5 2.5q21 0 21 -6q0 -7 -21 -7q-7 0 -27.5 1.5t-57.5 1.5h-14q-39 0 -54.5 -2t-21.5 -2q-19 0 -19 8zM55 824q-7 7 -7 17t7 17t17 7t17 -7t7 -17t-7 -17t-17 -7t-17 7zM197 824q-7 7 -7 17t7 17t17 7t17 -7t7 -17
t-7 -17t-17 -7t-17 7z" />
    <glyph glyph-name="Eth" unicode="&#xd0;" horiz-adv-x="725" 
d="M417 276q-122 4 -247 4h-90l2 -61q0 -19 -9 -19q-4 0 -6 4t-2 15l2 61h-2q-11 0 -33 -2l-26 -1q-6 0 -6 5t6 5l26 -1q22 -2 33 -2h2q4 92 4 191q0 107 -3 218q0 9 8 9q5 0 16 -1t26 -1h200q118 0 197 -47.5t117 -128t38 -178.5q0 -110 -45.5 -192t-126 -126t-182.5 -44
q-70 0 -128.5 19.5t-98 49t-56.5 58.5q-3 5 -3 8q0 4 2.5 6t4.5 2q7 0 12 -8q19 -30 56 -60t92 -50.5t123 -20.5q98 0 177 43t124 124t45 191q0 98 -37.5 177t-115.5 126t-196 47h-242v-221q0 -114 5 -191h90q95 0 247 5l59 1q19 0 19 -7q0 -4 -4 -6t-15 -2z" />
    <glyph glyph-name="Ntilde" unicode="&#xd1;" horiz-adv-x="710" 
d="M65 14q0 5 0.5 18.5t0.5 40.5q5 168 5 272l-1 276q-1 38 -1 79q0 5 4 5t8 -6l554 -698v354q0 105 -5 272l-2 59q0 19 8 19q9 0 9 -19q0 -5 -0.5 -18.5t-0.5 -40.5q-5 -167 -5 -272l1 -276q1 -38 1 -79q0 -5 -4 -5q-3 0 -8 6l-554 698v-354q0 -104 5 -272l2 -59
q0 -19 -8 -19q-9 0 -9 19zM397.5 804.5q-19.5 9.5 -44.5 27.5q-24 17 -41.5 25.5t-40.5 8.5q-33 0 -52 -12.5t-34 -32.5q-10 -14 -16 -14q-7 0 -7 7q0 10 13.5 23.5t37 23t53.5 9.5q26 0 45.5 -9.5t44.5 -27.5q24 -17 41.5 -25.5t40.5 -8.5q33 0 52 12.5t34 32.5
q11 14 16 14q7 0 7 -7q0 -8 -13.5 -22t-37.5 -24t-53 -10q-26 0 -45.5 9.5z" />
    <glyph glyph-name="Ograve" unicode="&#xd2;" horiz-adv-x="860" 
d="M245 30q-86 46 -138 129.5t-52 191.5q0 107 52 190t138 129t185 46t185 -46t138 -129t52 -190q0 -108 -52 -191.5t-138 -129.5t-185 -46t-185 46zM110.5 161q51.5 -83 136.5 -128t183 -45t183 45t136.5 128t51.5 190q0 106 -51.5 188.5t-136.5 127.5t-183 45t-183 -45
t-136.5 -127.5t-51.5 -188.5q0 -107 51.5 -190zM325 903q0 6 7 6q5 0 10 -4l191 -129l-1 -2l-198 117q-9 6 -9 12z" />
    <glyph glyph-name="Oacute" unicode="&#xd3;" horiz-adv-x="860" 
d="M245 30q-86 46 -138 129.5t-52 191.5q0 107 52 190t138 129t185 46t185 -46t138 -129t52 -190q0 -108 -52 -191.5t-138 -129.5t-185 -46t-185 46zM110.5 161q51.5 -83 136.5 -128t183 -45t183 45t136.5 128t51.5 190q0 106 -51.5 188.5t-136.5 127.5t-183 45t-183 -45
t-136.5 -127.5t-51.5 -188.5q0 -107 51.5 -190zM325 776l191 129q5 4 10 4q3 0 5 -2t2 -4q0 -6 -9 -12l-198 -117z" />
    <glyph glyph-name="Ocircumflex" unicode="&#xd4;" horiz-adv-x="860" 
d="M245 30q-86 46 -138 129.5t-52 191.5q0 107 52 190t138 129t185 46t185 -46t138 -129t52 -190q0 -108 -52 -191.5t-138 -129.5t-185 -46t-185 46zM110.5 161q51.5 -83 136.5 -128t183 -45t183 45t136.5 128t51.5 190q0 106 -51.5 188.5t-136.5 127.5t-183 45t-183 -45
t-136.5 -127.5t-51.5 -188.5q0 -107 51.5 -190zM266 769.5q-2 6.5 3 10.5l32 25q69 54 132 110q58 -54 88 -80.5t45 -40.5l29 -26l-4 -4l-158 146q-71 -62 -120 -114l-24 -24l-5 -5t-9 -4q-7 0 -9 6.5z" />
    <glyph glyph-name="Otilde" unicode="&#xd5;" horiz-adv-x="860" 
d="M245 30q-86 46 -138 129.5t-52 191.5q0 107 52 190t138 129t185 46t185 -46t138 -129t52 -190q0 -108 -52 -191.5t-138 -129.5t-185 -46t-185 46zM110.5 161q51.5 -83 136.5 -128t183 -45t183 45t136.5 128t51.5 190q0 106 -51.5 188.5t-136.5 127.5t-183 45t-183 -45
t-136.5 -127.5t-51.5 -188.5q0 -107 51.5 -190zM472.5 804.5q-19.5 9.5 -44.5 27.5q-24 17 -41.5 25.5t-40.5 8.5q-33 0 -52 -12.5t-34 -32.5q-10 -14 -16 -14q-7 0 -7 7q0 10 13.5 23.5t37 23t53.5 9.5q26 0 45.5 -9.5t44.5 -27.5q24 -17 41.5 -25.5t40.5 -8.5
q33 0 52 12.5t34 32.5q11 14 16 14q7 0 7 -7q0 -8 -13.5 -22t-37.5 -24t-53 -10q-26 0 -45.5 9.5z" />
    <glyph glyph-name="Odieresis" unicode="&#xd6;" horiz-adv-x="860" 
d="M245 30q-86 46 -138 129.5t-52 191.5q0 107 52 190t138 129t185 46t185 -46t138 -129t52 -190q0 -108 -52 -191.5t-138 -129.5t-185 -46t-185 46zM110.5 161q51.5 -83 136.5 -128t183 -45t183 45t136.5 128t51.5 190q0 106 -51.5 188.5t-136.5 127.5t-183 45t-183 -45
t-136.5 -127.5t-51.5 -188.5q0 -107 51.5 -190zM342 824q-7 7 -7 17t7 17t17 7t17 -7t7 -17t-7 -17t-17 -7t-17 7zM484 824q-7 7 -7 17t7 17t17 7t17 -7t7 -17t-7 -17t-17 -7t-17 7z" />
    <glyph glyph-name="multiply" unicode="&#xd7;" horiz-adv-x="510" 
d="M35 50l217 223l-217 221l3 4l217 -222l217 222l3 -4l-217 -221l217 -223l-3 -3l-217 223l-217 -223z" />
    <glyph glyph-name="Oslash" unicode="&#xd8;" horiz-adv-x="860" 
d="M344 -68l12 59q-84 16 -152.5 64.5t-108.5 124.5t-40 171q0 107 52 190t138 129t185 46q33 0 60 -4q2 8 4 27l4 21q4 16 11 16q4 0 6 -4.5t0 -11.5l-11 -51q84 -16 152.5 -64.5t108.5 -124t40 -169.5q0 -108 -52 -191.5t-138 -129.5t-185 -46q-34 0 -67 6l-10 -58
q-2 -8 -6 -8q-5 0 -3 8zM99 181.5q40 -75.5 107.5 -123.5t150.5 -63l56 289l25 132q28 150 51 292q-25 4 -59 4q-98 0 -183 -45t-136.5 -127.5t-51.5 -188.5q0 -94 40 -169.5zM430 -12q98 0 183 45t136.5 128t51.5 190q0 93 -40 168t-107.5 123t-150.5 63q-38 -171 -60 -289
l-25 -132l-54 -291q37 -5 66 -5z" />
    <glyph glyph-name="Ugrave" unicode="&#xd9;" horiz-adv-x="770" 
d="M153.5 60q-82.5 76 -82.5 221v156q0 93 -5 203l-1 46q0 19 9 19q8 0 8 -19l-2 -46q-5 -110 -5 -203v-156q0 -143 81.5 -218t228.5 -75t228.5 75t81.5 218v156q0 93 -5 203l-2 46q0 19 8 19q9 0 9 -19l-1 -46q-5 -110 -5 -203v-156q0 -145 -82.5 -221t-231.5 -76
t-231.5 76zM280 903q0 6 7 6q5 0 10 -4l191 -129l-1 -2l-198 117q-9 6 -9 12z" />
    <glyph glyph-name="Uacute" unicode="&#xda;" horiz-adv-x="770" 
d="M153.5 60q-82.5 76 -82.5 221v156q0 93 -5 203l-1 46q0 19 9 19q8 0 8 -19l-2 -46q-5 -110 -5 -203v-156q0 -143 81.5 -218t228.5 -75t228.5 75t81.5 218v156q0 93 -5 203l-2 46q0 19 8 19q9 0 9 -19l-1 -46q-5 -110 -5 -203v-156q0 -145 -82.5 -221t-231.5 -76
t-231.5 76zM280 776l191 129q5 4 10 4q3 0 5 -2t2 -4q0 -6 -9 -12l-198 -117z" />
    <glyph glyph-name="Ucircumflex" unicode="&#xdb;" horiz-adv-x="770" 
d="M153.5 60q-82.5 76 -82.5 221v156q0 93 -5 203l-1 46q0 19 9 19q8 0 8 -19l-2 -46q-5 -110 -5 -203v-156q0 -143 81.5 -218t228.5 -75t228.5 75t81.5 218v156q0 93 -5 203l-2 46q0 19 8 19q9 0 9 -19l-1 -46q-5 -110 -5 -203v-156q0 -145 -82.5 -221t-231.5 -76
t-231.5 76zM221 769.5q-2 6.5 3 10.5l32 25q69 54 132 110q58 -54 88 -80.5t45 -40.5l29 -26l-4 -4l-158 146q-71 -62 -120 -114l-24 -24l-5 -5t-9 -4q-7 0 -9 6.5z" />
    <glyph glyph-name="Udieresis" unicode="&#xdc;" horiz-adv-x="770" 
d="M153.5 60q-82.5 76 -82.5 221v156q0 93 -5 203l-1 46q0 19 9 19q8 0 8 -19l-2 -46q-5 -110 -5 -203v-156q0 -143 81.5 -218t228.5 -75t228.5 75t81.5 218v156q0 93 -5 203l-2 46q0 19 8 19q9 0 9 -19l-1 -46q-5 -110 -5 -203v-156q0 -145 -82.5 -221t-231.5 -76
t-231.5 76zM297 824q-7 7 -7 17t7 17t17 7t17 -7t7 -17t-7 -17t-17 -7t-17 7zM439 824q-7 7 -7 17t7 17t17 7t17 -7t7 -17t-7 -17t-17 -7t-17 7z" />
    <glyph glyph-name="Yacute" unicode="&#xdd;" horiz-adv-x="790" 
d="M379.5 -192q-60.5 24 -60.5 88q0 40 68 148l-146 282q-110 212 -184 341l-10 18q-2 4 -2 7q0 9 9 9q8 0 13 -12q40 -95 178 -361l145 -280q48 75 145 211q102 144 153.5 226t51.5 119q0 55 -52 75.5t-134 20.5q-57 0 -106 -7q-22 -3 -24 -1t-2 3q0 4 6 7q8 5 37 9.5
t75 4.5q84 0 144.5 -24t60.5 -88q0 -38 -52.5 -121.5t-157.5 -231.5q-106 -149 -158.5 -232.5t-52.5 -122.5q0 -55 50 -75t132 -20q39 0 68 2.5t35 3.5q27 5 31 1t-1 -8q-11 -6 -40.5 -11t-75.5 -5q-83 0 -143.5 24zM300 776l191 129q5 4 10 4q3 0 5 -2t2 -4q0 -6 -9 -12
l-198 -117z" />
    <glyph glyph-name="Thorn" unicode="&#xde;" horiz-adv-x="635" 
d="M193 154q-4 1 -4 5q0 6 15 6q7 0 31 -4t85 -4q117 0 186.5 49.5t69.5 146.5t-68.5 144t-186.5 47h-177v-471q0 -31 -6 -47t-23 -21h29q37 0 57.5 2.5t27.5 2.5q21 0 21 -6q0 -7 -21 -7q-7 0 -27.5 1.5t-57.5 1.5h-14q-39 0 -54.5 -2t-21.5 -2q-19 0 -19 8q0 7 19 7
q5 0 14.5 -2.5t23.5 -2.5q30 0 39 15.5t9 54.5v551q0 31 6.5 47t23.5 21h-29q-37 0 -57.5 -2.5t-27.5 -2.5q-21 0 -21 6q0 7 21 7q7 0 27.5 -1.5t57.5 -1.5h14q39 0 54.5 2t21.5 2q19 0 19 -8q0 -7 -19 -7q-5 0 -14.5 2.5t-23.5 2.5q-30 0 -39.5 -15.5t-9.5 -54.5v-76h176
q119 0 189.5 -48t70.5 -147q0 -100 -71 -150t-189 -50h-113q-10 0 -14 1z" />
    <glyph glyph-name="germandbls" unicode="&#xdf;" horiz-adv-x="630" 
d="M164.5 -183q-61.5 33 -90.5 74q-2 3 -2 8q0 3 2 5t4 2q5 0 11 -7q32 -44 88 -77.5t139 -33.5q66 0 124 23t94.5 69.5t36.5 113.5q0 95 -76.5 143.5t-214.5 48.5q-22 0 -33 -0.5t-19 -0.5q-16 0 -16 7q0 5 5 10l283 294h-419v-204q0 -87 5 -225l1 -55q0 -17 -8 -17
q-4 0 -6.5 5t-2.5 12l2 55q5 138 5 225v250q0 77 10.5 118t46.5 62.5t110 21.5q53 0 53 -10q0 -5 -11 -5q-12 0 -20 1l-51 1q-59 0 -87.5 -19.5t-37.5 -59t-9 -114.5v-38h429l-288 -298q0 -6 18 -9t45 -3q133 0 211.5 -49t78.5 -147q0 -68 -36.5 -115.5t-96 -71
t-129.5 -23.5q-87 0 -148.5 33z" />
    <glyph glyph-name="agrave" unicode="&#xe0;" horiz-adv-x="665" 
d="M99 13.5q-49 29.5 -49 93.5q0 48 34 78.5t122 45.5l117 20q73 13 113 30.5t56.5 43.5t16.5 66q0 66 -40 88.5t-113 22.5h-45q-88 0 -166 -10l-25 -2q-7 0 -7 4q0 10 51 14.5t121 4.5q86 0 134.5 -10.5t71 -37t22.5 -75.5q0 -42 -17.5 -68.5t-58.5 -44t-115 -30.5
l-116 -20q-87 -15 -119.5 -44t-32.5 -76q0 -63 47.5 -91t133.5 -28q72 0 134.5 18.5t100.5 53t38 80.5q0 8 2 13t5 5q9 0 6 -15q-1 -3 -4 -18t-3 -39q0 -81 64 -81q13 0 48 7l6 1q8 0 8 -5q0 -6 -13 -10t-29 -4q-37 0 -56.5 14t-26 37t-9.5 61q-21 -57 -98.5 -89.5
t-172.5 -32.5q-87 0 -136 29.5zM219 703q0 6 7 6q5 0 10 -4l191 -129l-1 -2l-198 117q-9 6 -9 12z" />
    <glyph glyph-name="aacute" unicode="&#xe1;" horiz-adv-x="665" 
d="M99 13.5q-49 29.5 -49 93.5q0 48 34 78.5t122 45.5l117 20q73 13 113 30.5t56.5 43.5t16.5 66q0 66 -40 88.5t-113 22.5h-45q-88 0 -166 -10l-25 -2q-7 0 -7 4q0 10 51 14.5t121 4.5q86 0 134.5 -10.5t71 -37t22.5 -75.5q0 -42 -17.5 -68.5t-58.5 -44t-115 -30.5
l-116 -20q-87 -15 -119.5 -44t-32.5 -76q0 -63 47.5 -91t133.5 -28q72 0 134.5 18.5t100.5 53t38 80.5q0 8 2 13t5 5q9 0 6 -15q-1 -3 -4 -18t-3 -39q0 -81 64 -81q13 0 48 7l6 1q8 0 8 -5q0 -6 -13 -10t-29 -4q-37 0 -56.5 14t-26 37t-9.5 61q-21 -57 -98.5 -89.5
t-172.5 -32.5q-87 0 -136 29.5zM219 576l191 129q5 4 10 4q3 0 5 -2t2 -4q0 -6 -9 -12l-198 -117z" />
    <glyph glyph-name="acircumflex" unicode="&#xe2;" horiz-adv-x="665" 
d="M99 13.5q-49 29.5 -49 93.5q0 48 34 78.5t122 45.5l117 20q73 13 113 30.5t56.5 43.5t16.5 66q0 66 -40 88.5t-113 22.5h-45q-88 0 -166 -10l-25 -2q-7 0 -7 4q0 10 51 14.5t121 4.5q86 0 134.5 -10.5t71 -37t22.5 -75.5q0 -42 -17.5 -68.5t-58.5 -44t-115 -30.5
l-116 -20q-87 -15 -119.5 -44t-32.5 -76q0 -63 47.5 -91t133.5 -28q72 0 134.5 18.5t100.5 53t38 80.5q0 8 2 13t5 5q9 0 6 -15q-1 -3 -4 -18t-3 -39q0 -81 64 -81q13 0 48 7l6 1q8 0 8 -5q0 -6 -13 -10t-29 -4q-37 0 -56.5 14t-26 37t-9.5 61q-21 -57 -98.5 -89.5
t-172.5 -32.5q-87 0 -136 29.5zM160 569.5q-2 6.5 3 10.5l32 25q69 54 132 110q58 -54 88 -80.5t45 -40.5l29 -26l-4 -4l-158 146q-71 -62 -120 -114l-24 -24l-5 -5t-9 -4q-7 0 -9 6.5z" />
    <glyph glyph-name="atilde" unicode="&#xe3;" horiz-adv-x="665" 
d="M99 13.5q-49 29.5 -49 93.5q0 48 34 78.5t122 45.5l117 20q73 13 113 30.5t56.5 43.5t16.5 66q0 66 -40 88.5t-113 22.5h-45q-88 0 -166 -10l-25 -2q-7 0 -7 4q0 10 51 14.5t121 4.5q86 0 134.5 -10.5t71 -37t22.5 -75.5q0 -42 -17.5 -68.5t-58.5 -44t-115 -30.5
l-116 -20q-87 -15 -119.5 -44t-32.5 -76q0 -63 47.5 -91t133.5 -28q72 0 134.5 18.5t100.5 53t38 80.5q0 8 2 13t5 5q9 0 6 -15q-1 -3 -4 -18t-3 -39q0 -81 64 -81q13 0 48 7l6 1q8 0 8 -5q0 -6 -13 -10t-29 -4q-37 0 -56.5 14t-26 37t-9.5 61q-21 -57 -98.5 -89.5
t-172.5 -32.5q-87 0 -136 29.5zM366.5 604.5q-19.5 9.5 -44.5 27.5q-24 17 -41.5 25.5t-40.5 8.5q-33 0 -52 -12.5t-34 -32.5q-10 -14 -16 -14q-7 0 -7 7q0 10 13.5 23.5t37 23t53.5 9.5q26 0 45.5 -9.5t44.5 -27.5q24 -17 41.5 -25.5t40.5 -8.5q33 0 52 12.5t34 32.5
q11 14 16 14q7 0 7 -7q0 -8 -13.5 -22t-37.5 -24t-53 -10q-26 0 -45.5 9.5z" />
    <glyph glyph-name="adieresis" unicode="&#xe4;" horiz-adv-x="665" 
d="M99 13.5q-49 29.5 -49 93.5q0 48 34 78.5t122 45.5l117 20q73 13 113 30.5t56.5 43.5t16.5 66q0 66 -40 88.5t-113 22.5h-45q-88 0 -166 -10l-25 -2q-7 0 -7 4q0 10 51 14.5t121 4.5q86 0 134.5 -10.5t71 -37t22.5 -75.5q0 -42 -17.5 -68.5t-58.5 -44t-115 -30.5
l-116 -20q-87 -15 -119.5 -44t-32.5 -76q0 -63 47.5 -91t133.5 -28q72 0 134.5 18.5t100.5 53t38 80.5q0 8 2 13t5 5q9 0 6 -15q-1 -3 -4 -18t-3 -39q0 -81 64 -81q13 0 48 7l6 1q8 0 8 -5q0 -6 -13 -10t-29 -4q-37 0 -56.5 14t-26 37t-9.5 61q-21 -57 -98.5 -89.5
t-172.5 -32.5q-87 0 -136 29.5zM236 624q-7 7 -7 17t7 17t17 7t17 -7t7 -17t-7 -17t-17 -7t-17 7zM378 624q-7 7 -7 17t7 17t17 7t17 -7t7 -17t-7 -17t-17 -7t-17 7z" />
    <glyph glyph-name="aring" unicode="&#xe5;" horiz-adv-x="665" 
d="M99 13.5q-49 29.5 -49 93.5q0 48 34 78.5t122 45.5l117 20q73 13 113 30.5t56.5 43.5t16.5 66q0 66 -40 88.5t-113 22.5h-45q-88 0 -166 -10l-25 -2q-7 0 -7 4q0 10 51 14.5t121 4.5q86 0 134.5 -10.5t71 -37t22.5 -75.5q0 -42 -17.5 -68.5t-58.5 -44t-115 -30.5
l-116 -20q-87 -15 -119.5 -44t-32.5 -76q0 -63 47.5 -91t133.5 -28q72 0 134.5 18.5t100.5 53t38 80.5q0 8 2 13t5 5q9 0 6 -15q-1 -3 -4 -18t-3 -39q0 -81 64 -81q13 0 48 7l6 1q8 0 8 -5q0 -6 -13 -10t-29 -4q-37 0 -56.5 14t-26 37t-9.5 61q-21 -57 -98.5 -89.5
t-172.5 -32.5q-87 0 -136 29.5zM290 607q-14 14 -14 34t14 34t34 14t34 -14t14 -34t-14 -34t-34 -14t-34 14zM292.5 610q12.5 -13 31.5 -13t31.5 13t12.5 31t-12.5 31t-31.5 13t-31.5 -13t-12.5 -31t12.5 -31z" />
    <glyph glyph-name="ae" unicode="&#xe6;" horiz-adv-x="1135" 
d="M110 14.5q-60 30.5 -60 97.5q0 45 34.5 75t121.5 45l117 20q68 12 104.5 28t51.5 41.5t15 67.5q0 65 -38 89t-104 24h-41q-88 0 -166 -10l-25 -2q-7 0 -7 4q0 10 51 14.5t121 4.5q77 0 123 -11t68 -38t22 -75q0 -44 -16 -70.5t-53.5 -42.5t-106.5 -28l-116 -20
q-85 -15 -118.5 -44t-33.5 -72q0 -66 58.5 -95t148.5 -29q86 0 175 25.5t174 69.5q-64 75 -64 179q0 76 33 133.5t90 89t127 31.5q47 0 84 -14t57.5 -36t20.5 -47q0 -39 -45.5 -99t-124 -124t-172.5 -114q40 -45 97 -69.5t122 -24.5q62 0 107 20.5t70.5 46.5t49.5 59
q7 10 13.5 17.5t10.5 7.5t4 -5q0 -13 -32 -50.5t-90 -68.5t-134 -31q-65 0 -123 25t-98 71q-187 -96 -352 -96q-91 0 -151 30.5zM613 85q94 49 172.5 113t123.5 123.5t45 97.5q0 23 -19.5 44.5t-55.5 35t-83 13.5q-69 0 -125 -30.5t-88.5 -87t-32.5 -132.5q0 -103 63 -177z
" />
    <glyph glyph-name="ccedilla" unicode="&#xe7;" horiz-adv-x="630" 
d="M193 16q-64 32 -103.5 92.5t-39.5 142.5q0 81 39.5 141.5t103.5 92t138 31.5q68 0 123.5 -26.5t78.5 -61.5q1 -1 1 -3q0 -3 -3 -3.5t-5 2.5q-25 35 -77 61.5t-119 26.5q-73 0 -136 -30.5t-101.5 -90t-38.5 -140.5q0 -82 38.5 -141.5t101.5 -90.5t134 -31q63 0 108.5 20.5
t71 46.5t49.5 59q7 10 13.5 17.5t10.5 7.5t4 -5q0 -13 -32 -50.5t-90 -68.5t-134 -31q-72 0 -136 32zM253.5 -211q-26.5 5 -41.5 12.5t-15 13.5t8 6q9 0 23 -8q24 -11 45.5 -17t54.5 -6q52 0 73.5 16.5t21.5 39.5q0 28 -37.5 45t-131.5 17l75 76h5l-73 -73q91 0 128.5 -17
t37.5 -48q0 -25 -26 -43.5t-87 -18.5q-34 0 -60.5 5z" />
    <glyph glyph-name="egrave" unicode="&#xe8;" horiz-adv-x="625" 
d="M193.5 17q-64.5 33 -104 94.5t-39.5 143.5q0 79 37 138.5t97 91t129 31.5q58 0 107.5 -22.5t78.5 -61t29 -86.5h-459q-15 -40 -15 -91q0 -82 39 -142.5t102.5 -92.5t136.5 -32q61 0 105.5 20.5t70 46.5t49.5 59q7 10 13.5 17.5t10.5 7.5t4 -5q0 -13 -32 -50.5t-89 -68.5
t-132 -31q-74 0 -138.5 33zM523 350q0 43 -27.5 80.5t-75.5 59.5t-107 22q-81 0 -148 -43t-95 -119h453zM210 703q0 6 7 6q5 0 10 -4l191 -129l-1 -2l-198 117q-9 6 -9 12z" />
    <glyph glyph-name="eacute" unicode="&#xe9;" horiz-adv-x="625" 
d="M193.5 17q-64.5 33 -104 94.5t-39.5 143.5q0 79 37 138.5t97 91t129 31.5q58 0 107.5 -22.5t78.5 -61t29 -86.5h-459q-15 -40 -15 -91q0 -82 39 -142.5t102.5 -92.5t136.5 -32q61 0 105.5 20.5t70 46.5t49.5 59q7 10 13.5 17.5t10.5 7.5t4 -5q0 -13 -32 -50.5t-89 -68.5
t-132 -31q-74 0 -138.5 33zM523 350q0 43 -27.5 80.5t-75.5 59.5t-107 22q-81 0 -148 -43t-95 -119h453zM210 576l191 129q5 4 10 4q3 0 5 -2t2 -4q0 -6 -9 -12l-198 -117z" />
    <glyph glyph-name="ecircumflex" unicode="&#xea;" horiz-adv-x="625" 
d="M193.5 17q-64.5 33 -104 94.5t-39.5 143.5q0 79 37 138.5t97 91t129 31.5q58 0 107.5 -22.5t78.5 -61t29 -86.5h-459q-15 -40 -15 -91q0 -82 39 -142.5t102.5 -92.5t136.5 -32q61 0 105.5 20.5t70 46.5t49.5 59q7 10 13.5 17.5t10.5 7.5t4 -5q0 -13 -32 -50.5t-89 -68.5
t-132 -31q-74 0 -138.5 33zM523 350q0 43 -27.5 80.5t-75.5 59.5t-107 22q-81 0 -148 -43t-95 -119h453zM151 569.5q-2 6.5 3 10.5l32 25q69 54 132 110q58 -54 88 -80.5t45 -40.5l29 -26l-4 -4l-158 146q-71 -62 -120 -114l-24 -24l-5 -5t-9 -4q-7 0 -9 6.5z" />
    <glyph glyph-name="edieresis" unicode="&#xeb;" horiz-adv-x="625" 
d="M193.5 17q-64.5 33 -104 94.5t-39.5 143.5q0 79 37 138.5t97 91t129 31.5q58 0 107.5 -22.5t78.5 -61t29 -86.5h-459q-15 -40 -15 -91q0 -82 39 -142.5t102.5 -92.5t136.5 -32q61 0 105.5 20.5t70 46.5t49.5 59q7 10 13.5 17.5t10.5 7.5t4 -5q0 -13 -32 -50.5t-89 -68.5
t-132 -31q-74 0 -138.5 33zM523 350q0 43 -27.5 80.5t-75.5 59.5t-107 22q-81 0 -148 -43t-95 -119h453zM227 624q-7 7 -7 17t7 17t17 7t17 -7t7 -17t-7 -17t-17 -7t-17 7zM369 624q-7 7 -7 17t7 17t17 7t17 -7t7 -17t-7 -17t-17 -7t-17 7z" />
    <glyph glyph-name="igrave" unicode="&#xec;" horiz-adv-x="157" 
d="M71 12l1 23q5 63 5 140v150q0 80 -5 142q-1 10 -1 21q0 17 7 17q8 0 8 -17q0 -11 -1 -21q-5 -62 -5 -142v-150q0 -77 5 -140l1 -23q0 -17 -8 -17q-7 0 -7 17zM-27 703q0 6 7 6q5 0 10 -4l191 -129l-1 -2l-198 117q-9 6 -9 12z" />
    <glyph glyph-name="iacute" unicode="&#xed;" horiz-adv-x="157" 
d="M71 12l1 23q5 63 5 140v150q0 80 -5 142q-1 10 -1 21q0 17 7 17q8 0 8 -17q0 -11 -1 -21q-5 -62 -5 -142v-150q0 -77 5 -140l1 -23q0 -17 -8 -17q-7 0 -7 17zM-27 576l191 129q5 4 10 4q3 0 5 -2t2 -4q0 -6 -9 -12l-198 -117z" />
    <glyph glyph-name="icircumflex" unicode="&#xee;" horiz-adv-x="157" 
d="M71 12l1 23q5 63 5 140v150q0 80 -5 142q-1 10 -1 21q0 17 7 17q8 0 8 -17q0 -11 -1 -21q-5 -62 -5 -142v-150q0 -77 5 -140l1 -23q0 -17 -8 -17q-7 0 -7 17zM-86 569.5q-2 6.5 3 10.5l32 25q69 54 132 110q58 -54 88 -80.5t45 -40.5l29 -26l-4 -4l-158 146
q-71 -62 -120 -114l-24 -24l-5 -5t-9 -4q-7 0 -9 6.5z" />
    <glyph glyph-name="idieresis" unicode="&#xef;" horiz-adv-x="157" 
d="M71 12l1 23q5 63 5 140v150q0 80 -5 142q-1 10 -1 21q0 17 7 17q8 0 8 -17q0 -11 -1 -21q-5 -62 -5 -142v-150q0 -77 5 -140l1 -23q0 -17 -8 -17q-7 0 -7 17zM-10 624q-7 7 -7 17t7 17t17 7t17 -7t7 -17t-7 -17t-17 -7t-17 7zM132 624q-7 7 -7 17t7 17t17 7t17 -7t7 -17
t-7 -17t-17 -7t-17 7z" />
    <glyph glyph-name="eth" unicode="&#xf0;" horiz-adv-x="645" 
d="M171.5 19q-58.5 35 -90 95.5t-31.5 135.5q0 76 32.5 137t92 95t135.5 34q50 0 100 -14.5t81 -39.5q2 -1 2 -5t-3.5 -6t-7.5 2q-34 27 -80.5 43t-94.5 16q-74 0 -131.5 -33.5t-89.5 -93t-32 -135.5q0 -74 31 -133.5t88.5 -94t134.5 -34.5q80 0 138 37t88.5 100t30.5 140
v220q0 82 -13 131h-82q-27 0 -135 -3l-51 -2q-11 0 -15 2t-4 6t4 5.5t15 1.5l51 -2q72 -4 135 -4h80q-17 58 -60.5 84t-124.5 26q-26 0 -26 9q0 7 15 7q87 0 134.5 -30.5t65.5 -95.5h21q11 0 33 2l26 1q6 0 6 -5t-6 -5l-26 1q-22 2 -33 2h-19q13 -52 13 -131v-240
q0 -56 2 -112t2 -75l2 -46q0 -7 -2.5 -12t-6.5 -5q-7 0 -7 17l2 46q4 142 4 152q-16 -100 -83.5 -163t-173.5 -63q-78 0 -136.5 35z" />
    <glyph glyph-name="ntilde" unicode="&#xf1;" horiz-adv-x="650" 
d="M564 12l2 44q0 17 2 64.5t2 94.5v38q0 124 -58 191.5t-171 67.5q-114 0 -175 -68t-61 -191v-38q0 -48 2 -97t2 -66l2 -40q0 -7 -2.5 -12t-6.5 -5q-7 0 -7 17l2 40q0 17 2 66t2 97v151q0 68 -12.5 96.5t-41.5 28.5q-12 0 -12 6q0 8 12 8q22 0 40 -28t18 -106v-59
q14 97 74.5 150.5t161.5 53.5q114 0 173.5 -68.5t59.5 -192.5v-40q0 -47 2 -94.5t2 -64.5l2 -44q0 -7 -2.5 -12t-6.5 -5q-7 0 -7 17zM380.5 604.5q-19.5 9.5 -44.5 27.5q-24 17 -41.5 25.5t-40.5 8.5q-33 0 -52 -12.5t-34 -32.5q-10 -14 -16 -14q-7 0 -7 7q0 10 13.5 23.5
t37 23t53.5 9.5q26 0 45.5 -9.5t44.5 -27.5q24 -17 41.5 -25.5t40.5 -8.5q33 0 52 12.5t34 32.5q11 14 16 14q7 0 7 -7q0 -8 -13.5 -22t-37.5 -24t-53 -10q-26 0 -45.5 9.5z" />
    <glyph glyph-name="ograve" unicode="&#xf2;" 
d="M189 16q-62 32 -100.5 92.5t-38.5 141.5t38.5 141.5t100.5 92.5t131 32t131 -32t100.5 -92.5t38.5 -141.5t-38.5 -141.5t-100.5 -92.5t-131 -32t-131 32zM91.5 110.5q37.5 -59.5 98.5 -91t130 -31.5t130 31.5t98.5 91t37.5 139.5t-37.5 139.5t-98.5 91t-130 31.5
t-130 -31.5t-98.5 -91t-37.5 -139.5t37.5 -139.5zM215 703q0 6 7 6q5 0 10 -4l191 -129l-1 -2l-198 117q-9 6 -9 12z" />
    <glyph glyph-name="oacute" unicode="&#xf3;" 
d="M189 16q-62 32 -100.5 92.5t-38.5 141.5t38.5 141.5t100.5 92.5t131 32t131 -32t100.5 -92.5t38.5 -141.5t-38.5 -141.5t-100.5 -92.5t-131 -32t-131 32zM91.5 110.5q37.5 -59.5 98.5 -91t130 -31.5t130 31.5t98.5 91t37.5 139.5t-37.5 139.5t-98.5 91t-130 31.5
t-130 -31.5t-98.5 -91t-37.5 -139.5t37.5 -139.5zM215 576l191 129q5 4 10 4q3 0 5 -2t2 -4q0 -6 -9 -12l-198 -117z" />
    <glyph glyph-name="ocircumflex" unicode="&#xf4;" 
d="M189 16q-62 32 -100.5 92.5t-38.5 141.5t38.5 141.5t100.5 92.5t131 32t131 -32t100.5 -92.5t38.5 -141.5t-38.5 -141.5t-100.5 -92.5t-131 -32t-131 32zM91.5 110.5q37.5 -59.5 98.5 -91t130 -31.5t130 31.5t98.5 91t37.5 139.5t-37.5 139.5t-98.5 91t-130 31.5
t-130 -31.5t-98.5 -91t-37.5 -139.5t37.5 -139.5zM156 569.5q-2 6.5 3 10.5l32 25q69 54 132 110q58 -54 88 -80.5t45 -40.5l29 -26l-4 -4l-158 146q-71 -62 -120 -114l-24 -24l-5 -5t-9 -4q-7 0 -9 6.5z" />
    <glyph glyph-name="otilde" unicode="&#xf5;" 
d="M189 16q-62 32 -100.5 92.5t-38.5 141.5t38.5 141.5t100.5 92.5t131 32t131 -32t100.5 -92.5t38.5 -141.5t-38.5 -141.5t-100.5 -92.5t-131 -32t-131 32zM91.5 110.5q37.5 -59.5 98.5 -91t130 -31.5t130 31.5t98.5 91t37.5 139.5t-37.5 139.5t-98.5 91t-130 31.5
t-130 -31.5t-98.5 -91t-37.5 -139.5t37.5 -139.5zM362.5 604.5q-19.5 9.5 -44.5 27.5q-24 17 -41.5 25.5t-40.5 8.5q-33 0 -52 -12.5t-34 -32.5q-10 -14 -16 -14q-7 0 -7 7q0 10 13.5 23.5t37 23t53.5 9.5q26 0 45.5 -9.5t44.5 -27.5q24 -17 41.5 -25.5t40.5 -8.5
q33 0 52 12.5t34 32.5q11 14 16 14q7 0 7 -7q0 -8 -13.5 -22t-37.5 -24t-53 -10q-26 0 -45.5 9.5z" />
    <glyph glyph-name="odieresis" unicode="&#xf6;" 
d="M189 16q-62 32 -100.5 92.5t-38.5 141.5t38.5 141.5t100.5 92.5t131 32t131 -32t100.5 -92.5t38.5 -141.5t-38.5 -141.5t-100.5 -92.5t-131 -32t-131 32zM91.5 110.5q37.5 -59.5 98.5 -91t130 -31.5t130 31.5t98.5 91t37.5 139.5t-37.5 139.5t-98.5 91t-130 31.5
t-130 -31.5t-98.5 -91t-37.5 -139.5t37.5 -139.5zM232 624q-7 7 -7 17t7 17t17 7t17 -7t7 -17t-7 -17t-17 -7t-17 7zM374 624q-7 7 -7 17t7 17t17 7t17 -7t7 -17t-7 -17t-17 -7t-17 7z" />
    <glyph glyph-name="divide" unicode="&#xf7;" horiz-adv-x="660" 
d="M313 449q-7 7 -7 17t7 17t17 7t17 -7t7 -17t-7 -17t-17 -7t-17 7zM35 275h590v-4h-590v4zM313 96q7 7 17 7t17 -7t7 -17t-7 -17t-17 -7t-17 7t-7 17t7 17z" />
    <glyph glyph-name="oslash" unicode="&#xf8;" 
d="M251 -68l13 58q-59 11 -107.5 45.5t-77.5 89.5t-29 125q0 81 38.5 141.5t100.5 92.5t131 32q26 0 47 -4l7 39q1 6 3.5 11t6.5 5q9 0 5 -16l-9 -41q58 -13 105.5 -47.5t76 -89t28.5 -123.5q0 -81 -38.5 -141.5t-100.5 -92.5t-131 -32q-28 0 -49 4l-11 -56q-2 -8 -6 -8
q-5 0 -3 8zM82.5 127q28.5 -54 76.5 -88t106 -46q19 86 52 250q18 92 34 184l15 81q-20 4 -46 4q-69 0 -130 -31.5t-98.5 -91t-37.5 -139.5q0 -69 28.5 -123zM320 -12q69 0 130 31.5t98.5 91t37.5 139.5q0 68 -28 122t-75 88t-104 46l-17 -77q-37 -171 -40 -186l-50 -251
q21 -4 48 -4z" />
    <glyph glyph-name="ugrave" unicode="&#xf9;" 
d="M128 47q-57 62 -57 183v56q0 47 -2 94.5t-2 64.5l-2 44q0 7 2.5 12t6.5 5q7 0 7 -17l-2 -44q0 -17 -2 -64.5t-2 -94.5v-54q0 -243 222 -243q119 0 181 67.5t62 191.5v38q0 48 -2 97t-2 66l-2 40q0 7 2.5 12t6.5 5q7 0 7 -17l-2 -40q0 -17 -2 -66t-2 -97v-151
q0 -68 12.5 -96.5t41.5 -28.5q12 0 12 -6q0 -8 -12 -8q-22 0 -40 28t-18 106v59q-14 -98 -76 -151t-167 -53q-112 0 -169 62zM215 703q0 6 7 6q5 0 10 -4l191 -129l-1 -2l-198 117q-9 6 -9 12z" />
    <glyph glyph-name="uacute" unicode="&#xfa;" 
d="M128 47q-57 62 -57 183v56q0 47 -2 94.5t-2 64.5l-2 44q0 7 2.5 12t6.5 5q7 0 7 -17l-2 -44q0 -17 -2 -64.5t-2 -94.5v-54q0 -243 222 -243q119 0 181 67.5t62 191.5v38q0 48 -2 97t-2 66l-2 40q0 7 2.5 12t6.5 5q7 0 7 -17l-2 -40q0 -17 -2 -66t-2 -97v-151
q0 -68 12.5 -96.5t41.5 -28.5q12 0 12 -6q0 -8 -12 -8q-22 0 -40 28t-18 106v59q-14 -98 -76 -151t-167 -53q-112 0 -169 62zM215 576l191 129q5 4 10 4q3 0 5 -2t2 -4q0 -6 -9 -12l-198 -117z" />
    <glyph glyph-name="ucircumflex" unicode="&#xfb;" 
d="M128 47q-57 62 -57 183v56q0 47 -2 94.5t-2 64.5l-2 44q0 7 2.5 12t6.5 5q7 0 7 -17l-2 -44q0 -17 -2 -64.5t-2 -94.5v-54q0 -243 222 -243q119 0 181 67.5t62 191.5v38q0 48 -2 97t-2 66l-2 40q0 7 2.5 12t6.5 5q7 0 7 -17l-2 -40q0 -17 -2 -66t-2 -97v-151
q0 -68 12.5 -96.5t41.5 -28.5q12 0 12 -6q0 -8 -12 -8q-22 0 -40 28t-18 106v59q-14 -98 -76 -151t-167 -53q-112 0 -169 62zM156 569.5q-2 6.5 3 10.5l32 25q69 54 132 110q58 -54 88 -80.5t45 -40.5l29 -26l-4 -4l-158 146q-71 -62 -120 -114l-24 -24l-5 -5t-9 -4
q-7 0 -9 6.5z" />
    <glyph glyph-name="udieresis" unicode="&#xfc;" 
d="M128 47q-57 62 -57 183v56q0 47 -2 94.5t-2 64.5l-2 44q0 7 2.5 12t6.5 5q7 0 7 -17l-2 -44q0 -17 -2 -64.5t-2 -94.5v-54q0 -243 222 -243q119 0 181 67.5t62 191.5v38q0 48 -2 97t-2 66l-2 40q0 7 2.5 12t6.5 5q7 0 7 -17l-2 -40q0 -17 -2 -66t-2 -97v-151
q0 -68 12.5 -96.5t41.5 -28.5q12 0 12 -6q0 -8 -12 -8q-22 0 -40 28t-18 106v59q-14 -98 -76 -151t-167 -53q-112 0 -169 62zM232 624q-7 7 -7 17t7 17t17 7t17 -7t7 -17t-7 -17t-17 -7t-17 7zM374 624q-7 7 -7 17t7 17t17 7t17 -7t7 -17t-7 -17t-17 -7t-17 7z" />
    <glyph glyph-name="yacute" unicode="&#xfd;" horiz-adv-x="605" 
d="M266 -190q-45 19 -45 67q0 22 15.5 49t45.5 70l-137 284q-35 73 -80 156q-24 43 -28 53q-2 4 -2 10t8 6q5 0 10 -12l14 -32q42 -98 81 -180l136 -282l1 1l39 53q137 187 189.5 267.5t52.5 115.5q0 37 -35 49.5t-96 12.5q-25 0 -47.5 -2.5t-31.5 -2.5q-8 0 -10 3q-3 4 3 7
q3 3 24 5.5t48 2.5q64 0 106.5 -15.5t42.5 -60.5q0 -36 -53.5 -117.5t-184.5 -258.5l-43 -59q-31 -43 -47.5 -72.5t-16.5 -51.5q0 -72 131 -72q35 0 61.5 5t27.5 3q2 -2 1 -4.5t-4 -3.5q-6 -4 -26 -8.5t-49 -4.5q-56 0 -101 19zM198 576l191 129q5 4 10 4q3 0 5 -2t2 -4
q0 -6 -9 -12l-198 -117z" />
    <glyph glyph-name="thorn" unicode="&#xfe;" horiz-adv-x="690" 
d="M15 -196q0 7 15 7q4 0 18 -3t28 -3q27 0 36 16.5t9 54.5v609q0 56 -2 112t-2 75l-2 46q0 7 2.5 12t6.5 5q7 0 7 -17l-2 -47q0 -19 -2 -74.5t-2 -111.5v-197q9 65 42 116.5t88 81.5t127 30q78 0 136.5 -35t90 -95.5t31.5 -135.5q0 -76 -32.5 -137t-92 -95t-135.5 -34
q-50 0 -100 14.5t-81 39.5q-2 1 -2 5t3.5 6t7.5 -2q34 -27 80.5 -43t94.5 -16q74 0 131.5 33.5t89.5 93t32 135.5q0 74 -30.5 133.5t-88 94t-135.5 34.5q-80 0 -138 -37t-88.5 -100t-30.5 -140v-360q0 -31 -6 -48t-22 -23h28q41 0 106 5l35 2q6 0 11.5 -1t5.5 -5
q0 -8 -17 -8q-20 0 -35 1q-52 2 -106 2h-14q-38 0 -56 -2t-25 -2q-15 0 -15 8z" />
    <glyph glyph-name="ydieresis" unicode="&#xff;" horiz-adv-x="605" 
d="M266 -190q-45 19 -45 67q0 22 15.5 49t45.5 70l-137 284q-35 73 -80 156q-24 43 -28 53q-2 4 -2 10t8 6q5 0 10 -12l14 -32q42 -98 81 -180l136 -282l1 1l39 53q137 187 189.5 267.5t52.5 115.5q0 37 -35 49.5t-96 12.5q-25 0 -47.5 -2.5t-31.5 -2.5q-8 0 -10 3q-3 4 3 7
q3 3 24 5.5t48 2.5q64 0 106.5 -15.5t42.5 -60.5q0 -36 -53.5 -117.5t-184.5 -258.5l-43 -59q-31 -43 -47.5 -72.5t-16.5 -51.5q0 -72 131 -72q35 0 61.5 5t27.5 3q2 -2 1 -4.5t-4 -3.5q-6 -4 -26 -8.5t-49 -4.5q-56 0 -101 19zM215 624q-7 7 -7 17t7 17t17 7t17 -7t7 -17
t-7 -17t-17 -7t-17 7zM357 624q-7 7 -7 17t7 17t17 7t17 -7t7 -17t-7 -17t-17 -7t-17 7z" />
    <glyph glyph-name="Amacron" unicode="&#x100;" horiz-adv-x="820" 
d="M108.5 10q-25.5 18 -42 49t-16.5 66q0 36 19 66.5t57.5 49t92.5 18.5q79 0 203.5 -53.5t346.5 -205.5q-56 112 -199 375l-181 334l-93 -162q-78 -135 -115 -212q-4 -10 -7 -13.5t-8 -3.5q-8 0 -8 9q0 5 2 8l26 42q57 87 106 172l96 167h2l184 -340q78 -144 180 -321
q20 -34 22 -38q4 -8 4 -13q0 -9 -10 -9q-5 0 -12 5q-214 149 -337 202t-202 53q-80 0 -122.5 -37.5t-42.5 -92.5q0 -45 24.5 -70t61.5 -40q4 -2 12.5 -5.5t12 -6t3.5 -5.5q0 -2 -3 -4t-8 -2q-23 0 -48.5 18zM232 835h315v-4h-315v4z" />
    <glyph glyph-name="amacron" unicode="&#x101;" horiz-adv-x="665" 
d="M99 13.5q-49 29.5 -49 93.5q0 48 34 78.5t122 45.5l117 20q73 13 113 30.5t56.5 43.5t16.5 66q0 66 -40 88.5t-113 22.5h-45q-88 0 -166 -10l-25 -2q-7 0 -7 4q0 10 51 14.5t121 4.5q86 0 134.5 -10.5t71 -37t22.5 -75.5q0 -42 -17.5 -68.5t-58.5 -44t-115 -30.5
l-116 -20q-87 -15 -119.5 -44t-32.5 -76q0 -63 47.5 -91t133.5 -28q72 0 134.5 18.5t100.5 53t38 80.5q0 8 2 13t5 5q9 0 6 -15q-1 -3 -4 -18t-3 -39q0 -81 64 -81q13 0 48 7l6 1q8 0 8 -5q0 -6 -13 -10t-29 -4q-37 0 -56.5 14t-26 37t-9.5 61q-21 -57 -98.5 -89.5
t-172.5 -32.5q-87 0 -136 29.5zM166 635h315v-4h-315v4z" />
    <glyph glyph-name="Abreve" unicode="&#x102;" horiz-adv-x="820" 
d="M108.5 10q-25.5 18 -42 49t-16.5 66q0 36 19 66.5t57.5 49t92.5 18.5q79 0 203.5 -53.5t346.5 -205.5q-56 112 -199 375l-181 334l-93 -162q-78 -135 -115 -212q-4 -10 -7 -13.5t-8 -3.5q-8 0 -8 9q0 5 2 8l26 42q57 87 106 172l96 167h2l184 -340q78 -144 180 -321
q20 -34 22 -38q4 -8 4 -13q0 -9 -10 -9q-5 0 -12 5q-214 149 -337 202t-202 53q-80 0 -122.5 -37.5t-42.5 -92.5q0 -45 24.5 -70t61.5 -40q4 -2 12.5 -5.5t12 -6t3.5 -5.5q0 -2 -3 -4t-8 -2q-23 0 -48.5 18zM326.5 790.5q-28.5 14.5 -42.5 37.5t-14 48q0 13 3 20.5t6 7.5
t3 -8q0 -52 27.5 -84t84.5 -32q54 0 83 26.5t29 67.5q0 18 -5 31h4q5 -13 5 -31q0 -42 -30 -70t-86 -28q-39 0 -67.5 14.5z" />
    <glyph glyph-name="abreve" unicode="&#x103;" horiz-adv-x="665" 
d="M99 13.5q-49 29.5 -49 93.5q0 48 34 78.5t122 45.5l117 20q73 13 113 30.5t56.5 43.5t16.5 66q0 66 -40 88.5t-113 22.5h-45q-88 0 -166 -10l-25 -2q-7 0 -7 4q0 10 51 14.5t121 4.5q86 0 134.5 -10.5t71 -37t22.5 -75.5q0 -42 -17.5 -68.5t-58.5 -44t-115 -30.5
l-116 -20q-87 -15 -119.5 -44t-32.5 -76q0 -63 47.5 -91t133.5 -28q72 0 134.5 18.5t100.5 53t38 80.5q0 8 2 13t5 5q9 0 6 -15q-1 -3 -4 -18t-3 -39q0 -81 64 -81q13 0 48 7l6 1q8 0 8 -5q0 -6 -13 -10t-29 -4q-37 0 -56.5 14t-26 37t-9.5 61q-21 -57 -98.5 -89.5
t-172.5 -32.5q-87 0 -136 29.5zM260.5 590.5q-28.5 14.5 -42.5 37.5t-14 48q0 13 3 20.5t6 7.5t3 -8q0 -52 27.5 -84t84.5 -32q54 0 83 26.5t29 67.5q0 18 -5 31h4q5 -13 5 -31q0 -42 -30 -70t-86 -28q-39 0 -67.5 14.5z" />
    <glyph glyph-name="Aogonek" unicode="&#x104;" horiz-adv-x="820" 
d="M108.5 10q-25.5 18 -42 49t-16.5 66q0 36 19 66.5t57.5 49t92.5 18.5q79 0 203.5 -53.5t346.5 -205.5q-56 112 -199 375l-181 334l-93 -162q-78 -135 -115 -212q-4 -10 -7 -13.5t-8 -3.5q-8 0 -8 9q0 5 2 8l26 42q57 87 106 172l96 167h2l184 -340q78 -144 180 -321
q20 -34 22 -38q4 -8 4 -13q0 -9 -10 -9h-66q-76 0 -113 -25.5t-37 -62.5q0 -31 26.5 -54.5t79.5 -23.5q29 0 47.5 6t38.5 17q3 2 10 5t11 3t6 -2t2 -4q0 -6 -13 -13.5t-36 -12.5t-51 -5q-63 0 -94 24.5t-31 59.5q0 38 39 65t115 27h55l-1 1q-214 149 -337 202t-202 53
q-80 0 -122.5 -37.5t-42.5 -92.5q0 -45 24.5 -70t61.5 -40q4 -2 12.5 -5.5t12 -6t3.5 -5.5q0 -2 -3 -4t-8 -2q-23 0 -48.5 18z" />
    <glyph glyph-name="aogonek" unicode="&#x105;" horiz-adv-x="665" 
d="M99 13.5q-49 29.5 -49 93.5q0 48 34 78.5t122 45.5l117 20q73 13 113 30.5t56.5 43.5t16.5 66q0 66 -40 88.5t-113 22.5h-45q-88 0 -166 -10l-25 -2q-7 0 -7 4q0 10 51 14.5t121 4.5q86 0 134.5 -10.5t71 -37t22.5 -75.5q0 -42 -17.5 -68.5t-58.5 -44t-115 -30.5
l-116 -20q-87 -15 -119.5 -44t-32.5 -76q0 -63 47.5 -91t133.5 -28q72 0 134.5 18.5t100.5 53t38 80.5q0 8 2 13t5 5q9 0 6 -15q-1 -3 -4 -18t-3 -39q0 -81 64 -81q13 0 48 7l6 1q8 0 8 -5q0 -6 -13 -10t-29 -4h-66q-76 0 -113 -25.5t-37 -62.5q0 -31 26.5 -54.5t79.5 -23.5
q29 0 47.5 6t38.5 17q3 2 10 5t11 3t6 -2t2 -4q0 -6 -13 -13.5t-36 -12.5t-51 -5q-63 0 -94 24.5t-31 59.5q0 38 39 65t115 27h32q-33 9 -43.5 34.5t-14.5 73.5q-21 -57 -98.5 -89.5t-172.5 -32.5q-87 0 -136 29.5z" />
    <glyph glyph-name="Cacute" unicode="&#x106;" horiz-adv-x="835" 
d="M251 28q-88 44 -142 127t-54 196q0 112 53.5 195t141.5 126.5t189 43.5q65 0 121.5 -18t97.5 -46t61 -58q1 -1 1 -3q0 -4 -4 -5t-6 3q-35 49 -106.5 86t-165.5 37q-100 0 -186.5 -43t-139.5 -124.5t-53 -193.5t53.5 -194.5t140.5 -125.5t185 -43q87 0 150 29t99 65t68 81
q12 17 19 25t12 8q4 0 4 -5q0 -17 -44.5 -69t-123 -95t-183.5 -43q-100 0 -188 44zM333 776l191 129q5 4 10 4q3 0 5 -2t2 -4q0 -6 -9 -12l-198 -117z" />
    <glyph glyph-name="cacute" unicode="&#x107;" horiz-adv-x="630" 
d="M193 16q-64 32 -103.5 92.5t-39.5 142.5q0 81 39.5 141.5t103.5 92t138 31.5q68 0 123.5 -26.5t78.5 -61.5q1 -1 1 -3q0 -3 -3 -3.5t-5 2.5q-25 35 -77 61.5t-119 26.5q-73 0 -136 -30.5t-101.5 -90t-38.5 -140.5q0 -82 38.5 -141.5t101.5 -90.5t134 -31q63 0 108.5 20.5
t71 46.5t49.5 59q7 10 13.5 17.5t10.5 7.5t4 -5q0 -13 -32 -50.5t-90 -68.5t-134 -31q-72 0 -136 32zM210 576l191 129q5 4 10 4q3 0 5 -2t2 -4q0 -6 -9 -12l-198 -117z" />
    <glyph glyph-name="Cdotaccent" unicode="&#x10a;" horiz-adv-x="835" 
d="M251 28q-88 44 -142 127t-54 196q0 112 53.5 195t141.5 126.5t189 43.5q65 0 121.5 -18t97.5 -46t61 -58q1 -1 1 -3q0 -4 -4 -5t-6 3q-35 49 -106.5 86t-165.5 37q-100 0 -186.5 -43t-139.5 -124.5t-53 -193.5t53.5 -194.5t140.5 -125.5t185 -43q87 0 150 29t99 65t68 81
q12 17 19 25t12 8q4 0 4 -5q0 -17 -44.5 -69t-123 -95t-183.5 -43q-100 0 -188 44zM421 824q-7 7 -7 17t7 17t17 7t17 -7t7 -17t-7 -17t-17 -7t-17 7z" />
    <glyph glyph-name="cdotaccent" unicode="&#x10b;" horiz-adv-x="630" 
d="M193 16q-64 32 -103.5 92.5t-39.5 142.5q0 81 39.5 141.5t103.5 92t138 31.5q68 0 123.5 -26.5t78.5 -61.5q1 -1 1 -3q0 -3 -3 -3.5t-5 2.5q-25 35 -77 61.5t-119 26.5q-73 0 -136 -30.5t-101.5 -90t-38.5 -140.5q0 -82 38.5 -141.5t101.5 -90.5t134 -31q63 0 108.5 20.5
t71 46.5t49.5 59q7 10 13.5 17.5t10.5 7.5t4 -5q0 -13 -32 -50.5t-90 -68.5t-134 -31q-72 0 -136 32zM298 624q-7 7 -7 17t7 17t17 7t17 -7t7 -17t-7 -17t-17 -7t-17 7z" />
    <glyph glyph-name="Ccaron" unicode="&#x10c;" horiz-adv-x="835" 
d="M251 28q-88 44 -142 127t-54 196q0 112 53.5 195t141.5 126.5t189 43.5q65 0 121.5 -18t97.5 -46t61 -58q1 -1 1 -3q0 -4 -4 -5t-6 3q-35 49 -106.5 86t-165.5 37q-100 0 -186.5 -43t-139.5 -124.5t-53 -193.5t53.5 -194.5t140.5 -125.5t185 -43q87 0 150 29t99 65t68 81
q12 17 19 25t12 8q4 0 4 -5q0 -17 -44.5 -69t-123 -95t-183.5 -43q-100 0 -188 44zM347 838.5q-30 26.5 -45 40.5l-29 26l4 4l158 -146q71 62 120 114l24 24l5 5t9 4q7 0 9 -6.5t-3 -10.5l-32 -25q-69 -54 -132 -110q-58 54 -88 80.5z" />
    <glyph glyph-name="ccaron" unicode="&#x10d;" horiz-adv-x="630" 
d="M193 16q-64 32 -103.5 92.5t-39.5 142.5q0 81 39.5 141.5t103.5 92t138 31.5q68 0 123.5 -26.5t78.5 -61.5q1 -1 1 -3q0 -3 -3 -3.5t-5 2.5q-25 35 -77 61.5t-119 26.5q-73 0 -136 -30.5t-101.5 -90t-38.5 -140.5q0 -82 38.5 -141.5t101.5 -90.5t134 -31q63 0 108.5 20.5
t71 46.5t49.5 59q7 10 13.5 17.5t10.5 7.5t4 -5q0 -13 -32 -50.5t-90 -68.5t-134 -31q-72 0 -136 32zM224 638.5q-30 26.5 -45 40.5l-29 26l4 4l158 -146q71 62 120 114l24 24l5 5t9 4q7 0 9 -6.5t-3 -10.5l-32 -25q-69 -54 -132 -110q-58 54 -88 80.5z" />
    <glyph glyph-name="Dcaron" unicode="&#x10e;" horiz-adv-x="725" 
d="M187.5 3.5q-58.5 19.5 -98 49t-56.5 58.5q-3 5 -3 8q0 4 2.5 6t4.5 2q7 0 12 -8q19 -30 56 -60t92 -50.5t123 -20.5q98 0 177 43t124 124t45 191q0 98 -37.5 177t-115.5 126t-196 47h-242v-221q0 -94 5 -209l2 -47q0 -19 -9 -19q-4 0 -6 4t-2 15l1 47q5 115 5 209
q0 107 -3 218q0 9 8 9q5 0 16 -1t26 -1h200q118 0 197 -47.5t117 -128t38 -178.5q0 -110 -45.5 -192t-126 -126t-182.5 -44q-70 0 -128.5 19.5zM237 838.5q-30 26.5 -45 40.5l-29 26l4 4l158 -146q71 62 120 114l24 24l5 5t9 4q7 0 9 -6.5t-3 -10.5l-32 -25
q-69 -54 -132 -110q-58 54 -88 80.5z" />
    <glyph glyph-name="dcaron" unicode="&#x10f;" horiz-adv-x="645" 
d="M171.5 19q-58.5 35 -90 95.5t-31.5 135.5q0 76 32.5 137t92 95t135.5 34q50 0 100 -14.5t81 -39.5q2 -1 2 -5t-3.5 -6t-7.5 2q-34 27 -80.5 43t-94.5 16q-74 0 -131.5 -33.5t-89.5 -93t-32 -135.5q0 -74 30.5 -133.5t88 -94t135.5 -34.5q80 0 138 37t88.5 100t30.5 140
v220q0 56 -2 111.5t-2 74.5l-2 47q0 17 7 17q4 0 6.5 -5t2.5 -12l-2 -46q0 -19 -2 -75t-2 -112v-240q0 -56 2 -112t2 -75l2 -46q0 -7 -2.5 -12t-6.5 -5q-7 0 -7 17l2 46q4 142 4 152q-16 -100 -83.5 -163t-173.5 -63q-78 0 -136.5 35zM630 460q0 87 -4 235q-1 13 -1 29
q0 11 8 11q7 0 7 -11q0 -16 -1 -29q-4 -148 -4 -235q0 -4 -2 -4q-3 0 -3 4z" />
    <glyph glyph-name="Dcroat" unicode="&#x110;" horiz-adv-x="725" 
d="M417 276q-122 4 -247 4h-90l2 -61q0 -19 -9 -19q-4 0 -6 4t-2 15l2 61h-2q-11 0 -33 -2l-26 -1q-6 0 -6 5t6 5l26 -1q22 -2 33 -2h2q4 92 4 191q0 107 -3 218q0 9 8 9q5 0 16 -1t26 -1h200q118 0 197 -47.5t117 -128t38 -178.5q0 -110 -45.5 -192t-126 -126t-182.5 -44
q-70 0 -128.5 19.5t-98 49t-56.5 58.5q-3 5 -3 8q0 4 2.5 6t4.5 2q7 0 12 -8q19 -30 56 -60t92 -50.5t123 -20.5q98 0 177 43t124 124t45 191q0 98 -37.5 177t-115.5 126t-196 47h-242v-221q0 -114 5 -191h90q95 0 247 5l59 1q19 0 19 -7q0 -4 -4 -6t-15 -2z" />
    <glyph glyph-name="dcroat" unicode="&#x111;" horiz-adv-x="645" 
d="M269 613q-4 2 -4 6t4 5.5t15 1.5l51 -2q72 -4 135 -4h93l-2 46l-2 52q0 17 7 17q4 0 6.5 -5t2.5 -12l-2 -52l-2 -46h4q11 0 33 2l26 1q6 0 6 -5t-6 -5l-26 1q-22 2 -33 2h-4q-2 -74 -2 -131v-240q0 -56 2 -112t2 -75l2 -46q0 -7 -2.5 -12t-6.5 -5q-7 0 -7 17l2 46
q4 142 4 152q-16 -100 -83.5 -163t-173.5 -63q-78 0 -136.5 35t-90 95.5t-31.5 135.5q0 76 32.5 137t92 95t135.5 34q50 0 100 -14.5t81 -39.5q2 -1 2 -5t-3.5 -6t-7.5 2q-34 27 -80.5 43t-94.5 16q-74 0 -131.5 -33.5t-89.5 -93t-32 -135.5q0 -74 30.5 -133.5t88 -94
t135.5 -34.5q80 0 138 37t88.5 100t30.5 140v220q0 57 -2 131h-93q-27 0 -135 -3l-51 -2q-11 0 -15 2z" />
    <glyph glyph-name="Emacron" unicode="&#x112;" horiz-adv-x="635" 
d="M362 -27.5q-34 3.5 -89 10.5q-67 8 -115.5 12.5t-111.5 4.5q-7 0 -17 -2t-15 -2q-14 0 -14 8q0 3 4 5t9 2q20 0 29.5 5.5t12.5 18.5t3 41v269q0 27 20 32q-8 1 -14 9t-6 23v56q0 115 -3 229q0 8 8 8q5 0 16 -1t26 -1h187q117 0 209 2h47q19 0 19 -8q0 -9 -15 -9l-39 2
q-101 9 -221 9h-230v-286q0 -31 30 -31h78q95 0 247 5l59 1q11 0 15 -2t4 -6t-4 -5.5t-15 -1.5l-59 1q-122 4 -247 4h-78q-30 0 -30 -32v-270q0 -31 -6.5 -46.5t-23.5 -22.5q69 0 128 -5t127 -14q10 -1 56 -6.5t84 -5.5q74 0 105 13t49 37q10 13 17 6q2 -2 2 -5q0 -7 -7 -15
q-16 -20 -51.5 -30t-105.5 -10q-40 0 -74 3.5zM162 835h315v-4h-315v4z" />
    <glyph glyph-name="emacron" unicode="&#x113;" horiz-adv-x="625" 
d="M193.5 17q-64.5 33 -104 94.5t-39.5 143.5q0 79 37 138.5t97 91t129 31.5q58 0 107.5 -22.5t78.5 -61t29 -86.5h-459q-15 -40 -15 -91q0 -82 39 -142.5t102.5 -92.5t136.5 -32q61 0 105.5 20.5t70 46.5t49.5 59q7 10 13.5 17.5t10.5 7.5t4 -5q0 -13 -32 -50.5t-89 -68.5
t-132 -31q-74 0 -138.5 33zM523 350q0 43 -27.5 80.5t-75.5 59.5t-107 22q-81 0 -148 -43t-95 -119h453zM157 635h315v-4h-315v4z" />
    <glyph glyph-name="Edotaccent" unicode="&#x116;" horiz-adv-x="635" 
d="M362 -27.5q-34 3.5 -89 10.5q-67 8 -115.5 12.5t-111.5 4.5q-7 0 -17 -2t-15 -2q-14 0 -14 8q0 3 4 5t9 2q20 0 29.5 5.5t12.5 18.5t3 41v269q0 27 20 32q-8 1 -14 9t-6 23v56q0 115 -3 229q0 8 8 8q5 0 16 -1t26 -1h187q117 0 209 2h47q19 0 19 -8q0 -9 -15 -9l-39 2
q-101 9 -221 9h-230v-286q0 -31 30 -31h78q95 0 247 5l59 1q11 0 15 -2t4 -6t-4 -5.5t-15 -1.5l-59 1q-122 4 -247 4h-78q-30 0 -30 -32v-270q0 -31 -6.5 -46.5t-23.5 -22.5q69 0 128 -5t127 -14q10 -1 56 -6.5t84 -5.5q74 0 105 13t49 37q10 13 17 6q2 -2 2 -5q0 -7 -7 -15
q-16 -20 -51.5 -30t-105.5 -10q-40 0 -74 3.5zM303 824q-7 7 -7 17t7 17t17 7t17 -7t7 -17t-7 -17t-17 -7t-17 7z" />
    <glyph glyph-name="edotaccent" unicode="&#x117;" horiz-adv-x="625" 
d="M193.5 17q-64.5 33 -104 94.5t-39.5 143.5q0 79 37 138.5t97 91t129 31.5q58 0 107.5 -22.5t78.5 -61t29 -86.5h-459q-15 -40 -15 -91q0 -82 39 -142.5t102.5 -92.5t136.5 -32q61 0 105.5 20.5t70 46.5t49.5 59q7 10 13.5 17.5t10.5 7.5t4 -5q0 -13 -32 -50.5t-89 -68.5
t-132 -31q-74 0 -138.5 33zM523 350q0 43 -27.5 80.5t-75.5 59.5t-107 22q-81 0 -148 -43t-95 -119h453zM298 624q-7 7 -7 17t7 17t17 7t17 -7t7 -17t-7 -17t-17 -7t-17 7z" />
    <glyph glyph-name="Eogonek" unicode="&#x118;" horiz-adv-x="635" 
d="M358 -151.5q-30 20.5 -30 53.5q0 25 18 43t53 25q-52 2 -127 13q-65 8 -113.5 12.5t-112.5 4.5q-7 0 -17 -2t-15 -2q-14 0 -14 8q0 3 4 5t9 2q20 0 29.5 5.5t12.5 18.5t3 41v269q0 27 20 32q-8 1 -14 9t-6 23v56q0 115 -3 229q0 8 8 8q5 0 16 -1t26 -1h187q117 0 209 2
h47q19 0 19 -8q0 -9 -15 -9l-39 2q-101 9 -221 9h-230v-286q0 -31 30 -31h78q95 0 247 5l59 1q11 0 15 -2t4 -6t-4 -5.5t-15 -1.5l-59 1q-122 4 -247 4h-78q-30 0 -30 -32v-270q0 -31 -6.5 -46.5t-23.5 -22.5q69 0 128 -5t127 -14q10 -1 56 -6.5t84 -5.5q74 0 105 13t49 37
q10 13 17 6q2 -2 2 -5q0 -7 -7 -15q-16 -20 -51.5 -30t-105.5 -10q-52 0 -78 -18.5t-26 -48.5q0 -31 25.5 -49.5t78.5 -18.5q29 0 48.5 6.5t39.5 16.5q14 8 21 8q4 0 6 -2t2 -4q0 -6 -13 -13.5t-36.5 -12.5t-52.5 -5q-63 0 -93 20.5z" />
    <glyph glyph-name="eogonek" unicode="&#x119;" horiz-adv-x="625" 
d="M300 -151.5q-30 20.5 -30 53.5q0 57 88 83q-8 -1 -26 -1q-74 0 -138.5 33t-104 94.5t-39.5 143.5q0 79 37 138.5t97 91t129 31.5q58 0 107.5 -22.5t78.5 -61t29 -86.5h-459q-15 -40 -15 -91q0 -82 39 -142.5t102.5 -92.5t136.5 -32q61 0 105.5 20.5t70 46.5t49.5 59
q7 10 13.5 17.5t10.5 7.5t4 -5q0 -11 -26 -43.5t-72.5 -63t-108.5 -40.5q-54 -14 -79 -35t-25 -50q0 -31 25.5 -49.5t78.5 -18.5q29 0 48.5 6.5t39.5 16.5q14 8 21 8q4 0 6 -2t2 -4q0 -6 -13 -13.5t-36.5 -12.5t-52.5 -5q-63 0 -93 20.5zM523 350q0 43 -27.5 80.5
t-75.5 59.5t-107 22q-81 0 -148 -43t-95 -119h453z" />
    <glyph glyph-name="Ecaron" unicode="&#x11a;" horiz-adv-x="635" 
d="M362 -27.5q-34 3.5 -89 10.5q-67 8 -115.5 12.5t-111.5 4.5q-7 0 -17 -2t-15 -2q-14 0 -14 8q0 3 4 5t9 2q20 0 29.5 5.5t12.5 18.5t3 41v269q0 27 20 32q-8 1 -14 9t-6 23v56q0 115 -3 229q0 8 8 8q5 0 16 -1t26 -1h187q117 0 209 2h47q19 0 19 -8q0 -9 -15 -9l-39 2
q-101 9 -221 9h-230v-286q0 -31 30 -31h78q95 0 247 5l59 1q11 0 15 -2t4 -6t-4 -5.5t-15 -1.5l-59 1q-122 4 -247 4h-78q-30 0 -30 -32v-270q0 -31 -6.5 -46.5t-23.5 -22.5q69 0 128 -5t127 -14q10 -1 56 -6.5t84 -5.5q74 0 105 13t49 37q10 13 17 6q2 -2 2 -5q0 -7 -7 -15
q-16 -20 -51.5 -30t-105.5 -10q-40 0 -74 3.5zM229 838.5q-30 26.5 -45 40.5l-29 26l4 4l158 -146q71 62 120 114l24 24l5 5t9 4q7 0 9 -6.5t-3 -10.5l-32 -25q-69 -54 -132 -110q-58 54 -88 80.5z" />
    <glyph glyph-name="ecaron" unicode="&#x11b;" horiz-adv-x="625" 
d="M193.5 17q-64.5 33 -104 94.5t-39.5 143.5q0 79 37 138.5t97 91t129 31.5q58 0 107.5 -22.5t78.5 -61t29 -86.5h-459q-15 -40 -15 -91q0 -82 39 -142.5t102.5 -92.5t136.5 -32q61 0 105.5 20.5t70 46.5t49.5 59q7 10 13.5 17.5t10.5 7.5t4 -5q0 -13 -32 -50.5t-89 -68.5
t-132 -31q-74 0 -138.5 33zM523 350q0 43 -27.5 80.5t-75.5 59.5t-107 22q-81 0 -148 -43t-95 -119h453zM224 638.5q-30 26.5 -45 40.5l-29 26l4 4l158 -146q71 62 120 114l24 24l5 5t9 4q7 0 9 -6.5t-3 -10.5l-32 -25q-69 -54 -132 -110q-58 54 -88 80.5z" />
    <glyph glyph-name="Gbreve" unicode="&#x11e;" horiz-adv-x="835" 
d="M243 27.5q-85 43.5 -136.5 127t-51.5 196.5q0 112 53.5 195t141.5 126.5t189 43.5q65 0 121.5 -18t97.5 -46t61 -58q1 -1 1 -4q0 -4 -3 -5t-7 4q-35 49 -106.5 86t-165.5 37q-99 0 -186 -43t-140 -125t-53 -193q0 -113 51 -195t135 -125t182 -43q110 0 185 49.5
t110.5 121.5t35.5 140q0 7 1 11.5t4 4.5q4 0 5 -5.5t1 -20.5v-29q-1 -22 -1 -100q0 -49 5 -109q2 -30 2 -37q0 -19 -8 -19q-9 0 -9 19q0 7 2 37q4 48 4 109q0 21 -3 81l-1 22q-9 -71 -50.5 -135t-113.5 -104t-168 -40q-100 0 -185 43.5zM366.5 790.5q-28.5 14.5 -42.5 37.5
t-14 48q0 13 3 20.5t6 7.5t3 -8q0 -52 27.5 -84t84.5 -32q54 0 83 26.5t29 67.5q0 18 -5 31h4q5 -13 5 -31q0 -42 -30 -70t-86 -28q-39 0 -67.5 14.5z" />
    <glyph glyph-name="gbreve" unicode="&#x11f;" horiz-adv-x="600" 
d="M116 -174q-19 8 -19 18q0 4 3.5 5t8.5 -1q42 -24 76 -34t72 -10q85 0 151.5 31t102.5 80.5t36 102.5q0 85 -77 85q-41 0 -82 -20.5t-99 -61.5q-59 -40 -96.5 -59t-76.5 -19q-36 0 -58.5 21t-22.5 54q0 40 35.5 76t86 60.5t93.5 32.5q-88 7 -134 53.5t-46 111.5
q0 70 53 117t156 47q73 0 121.5 -21.5t63.5 -61.5q0 31 21.5 51.5t62.5 20.5q5 0 8.5 -2t3.5 -4q0 -8 -10 -8q-39 0 -60.5 -12.5t-21.5 -44.5q0 -10 3.5 -18.5t3.5 -10.5q0 -5 -1 -6.5t-5 -1.5q-7 0 -7 12q0 46 -49 74.5t-134 28.5q-102 0 -153.5 -45.5t-51.5 -114.5
t51.5 -115.5t152.5 -46.5q60 0 104 17.5t66.5 47t22.5 63.5q0 10 -5 23q-2 4 2 5t5 -4q2 -10 2 -24q0 -35 -23.5 -65.5t-68 -48.5t-105.5 -18q-37 0 -95 -23.5t-101 -62.5t-43 -82q0 -31 21.5 -51t56.5 -20q37 0 73.5 19t93.5 58q60 41 102 62t86 21q40 0 59.5 -21.5
t19.5 -67.5q0 -55 -38 -106.5t-106 -83.5t-153 -32q-75 0 -138 30zM214.5 590.5q-28.5 14.5 -42.5 37.5t-14 48q0 13 3 20.5t6 7.5t3 -8q0 -52 27.5 -84t84.5 -32q54 0 83 26.5t29 67.5q0 18 -5 31h4q5 -13 5 -31q0 -42 -30 -70t-86 -28q-39 0 -67.5 14.5z" />
    <glyph glyph-name="Gdotaccent" unicode="&#x120;" horiz-adv-x="835" 
d="M243 27.5q-85 43.5 -136.5 127t-51.5 196.5q0 112 53.5 195t141.5 126.5t189 43.5q65 0 121.5 -18t97.5 -46t61 -58q1 -1 1 -4q0 -4 -3 -5t-7 4q-35 49 -106.5 86t-165.5 37q-99 0 -186 -43t-140 -125t-53 -193q0 -113 51 -195t135 -125t182 -43q110 0 185 49.5
t110.5 121.5t35.5 140q0 7 1 11.5t4 4.5q4 0 5 -5.5t1 -20.5v-29q-1 -22 -1 -100q0 -49 5 -109q2 -30 2 -37q0 -19 -8 -19q-9 0 -9 19q0 7 2 37q4 48 4 109q0 21 -3 81l-1 22q-9 -71 -50.5 -135t-113.5 -104t-168 -40q-100 0 -185 43.5zM413 824q-7 7 -7 17t7 17t17 7t17 -7
t7 -17t-7 -17t-17 -7t-17 7z" />
    <glyph glyph-name="gdotaccent" unicode="&#x121;" horiz-adv-x="600" 
d="M116 -174q-19 8 -19 18q0 4 3.5 5t8.5 -1q42 -24 76 -34t72 -10q85 0 151.5 31t102.5 80.5t36 102.5q0 85 -77 85q-41 0 -82 -20.5t-99 -61.5q-59 -40 -96.5 -59t-76.5 -19q-36 0 -58.5 21t-22.5 54q0 40 35.5 76t86 60.5t93.5 32.5q-88 7 -134 53.5t-46 111.5
q0 70 53 117t156 47q73 0 121.5 -21.5t63.5 -61.5q0 31 21.5 51.5t62.5 20.5q5 0 8.5 -2t3.5 -4q0 -8 -10 -8q-39 0 -60.5 -12.5t-21.5 -44.5q0 -10 3.5 -18.5t3.5 -10.5q0 -5 -1 -6.5t-5 -1.5q-7 0 -7 12q0 46 -49 74.5t-134 28.5q-102 0 -153.5 -45.5t-51.5 -114.5
t51.5 -115.5t152.5 -46.5q60 0 104 17.5t66.5 47t22.5 63.5q0 10 -5 23q-2 4 2 5t5 -4q2 -10 2 -24q0 -35 -23.5 -65.5t-68 -48.5t-105.5 -18q-37 0 -95 -23.5t-101 -62.5t-43 -82q0 -31 21.5 -51t56.5 -20q37 0 73.5 19t93.5 58q60 41 102 62t86 21q40 0 59.5 -21.5
t19.5 -67.5q0 -55 -38 -106.5t-106 -83.5t-153 -32q-75 0 -138 30zM261 624q-7 7 -7 17t7 17t17 7t17 -7t7 -17t-7 -17t-17 -7t-17 7z" />
    <glyph glyph-name="uni0122" unicode="&#x122;" horiz-adv-x="835" 
d="M243 27.5q-85 43.5 -136.5 127t-51.5 196.5q0 112 53.5 195t141.5 126.5t189 43.5q65 0 121.5 -18t97.5 -46t61 -58q1 -1 1 -4q0 -4 -3 -5t-7 4q-35 49 -106.5 86t-165.5 37q-99 0 -186 -43t-140 -125t-53 -193q0 -113 51 -195t135 -125t182 -43q110 0 185 49.5
t110.5 121.5t35.5 140q0 7 1 11.5t4 4.5q4 0 5 -5.5t1 -20.5v-29q-1 -22 -1 -100q0 -49 5 -109q2 -30 2 -37q0 -19 -8 -19q-9 0 -9 19q0 7 2 37q4 48 4 109q0 21 -3 81l-1 22q-9 -71 -50.5 -135t-113.5 -104t-168 -40q-100 0 -185 43.5zM375 -203q0 4 6 4q36 0 57 9t21 43
q0 38 -24 96v1q0 4 4 5.5t5 -2.5q21 -51 21 -87q0 -46 -25 -61t-53 -15q-12 0 -12 7z" />
    <glyph glyph-name="uni0123" unicode="&#x123;" horiz-adv-x="600" 
d="M116 -174q-19 8 -19 18q0 4 3.5 5t8.5 -1q42 -24 76 -34t72 -10q85 0 151.5 31t102.5 80.5t36 102.5q0 85 -77 85q-41 0 -82 -20.5t-99 -61.5q-59 -40 -96.5 -59t-76.5 -19q-36 0 -58.5 21t-22.5 54q0 40 35.5 76t86 60.5t93.5 32.5q-88 7 -134 53.5t-46 111.5
q0 63 43.5 108t129.5 54q-10 37 -10 77q0 93 88 93q12 0 12 -6q0 -4 -6 -4q-26 0 -44.5 -4.5t-32 -22t-13.5 -54.5q0 -35 15 -78q9 1 27 1q73 0 121.5 -21.5t63.5 -61.5q0 31 21.5 51.5t62.5 20.5q5 0 8.5 -2t3.5 -4q0 -8 -10 -8q-39 0 -60.5 -12.5t-21.5 -44.5
q0 -10 3.5 -18.5t3.5 -10.5q0 -5 -1 -6.5t-5 -1.5q-7 0 -7 12q0 46 -49 74.5t-134 28.5l-26 -1l18 -42v-1q0 -4 -4.5 -6t-5.5 2q-10 25 -17 46q-84 -8 -127 -51.5t-43 -106.5q0 -69 51.5 -115.5t152.5 -46.5q60 0 104 17.5t66.5 47t22.5 63.5q0 10 -5 23q-2 4 2 5t5 -4
q2 -10 2 -24q0 -35 -23.5 -65.5t-68 -48.5t-105.5 -18q-37 0 -95 -23.5t-101 -62.5t-43 -82q0 -31 21.5 -51t56.5 -20q37 0 73.5 19t93.5 58q60 41 102 62t86 21q40 0 59.5 -21.5t19.5 -67.5q0 -55 -38 -106.5t-106 -83.5t-153 -32q-75 0 -138 30z" />
    <glyph glyph-name="Hbar" unicode="&#x126;" horiz-adv-x="670" 
d="M588 14l2 47q5 115 5 209v83h-520v-83q0 -94 5 -209l2 -47q0 -19 -8 -19q-9 0 -9 19l1 47q5 115 5 209v130h-31v3h31v34q0 93 -5 203l-1 46q0 19 9 19q8 0 8 -19l-2 -46q-5 -110 -5 -203v-34h520v34q0 93 -5 203l-2 46q0 19 8 19q9 0 9 -19l-1 -46q-5 -110 -5 -203v-34
h31v-3h-31v-130q0 -94 5 -209l1 -47q0 -19 -9 -19q-8 0 -8 19zM595 357v43h-520v-43h520z" />
    <glyph glyph-name="hbar" unicode="&#x127;" horiz-adv-x="625" 
d="M305 613q-108 3 -135 3h-88q-2 -74 -2 -131v-173q14 97 74.5 150.5t161.5 53.5q114 0 173.5 -68.5t59.5 -192.5v-40q0 -47 2 -94.5t2 -64.5l2 -44q0 -7 -2.5 -12t-6.5 -5q-7 0 -7 17l2 44q0 17 2 64.5t2 94.5v38q0 124 -58 191.5t-171 67.5q-114 0 -175 -68t-61 -191v-8
q0 -56 2 -112t2 -75l2 -46q0 -7 -2.5 -12t-6.5 -5q-7 0 -7 17l2 47q0 19 2 74.5t2 111.5v240q0 57 -2 131h-9q-11 0 -33 -2l-26 -1q-6 0 -6 5t6 5l26 -1q22 -2 33 -2h9l-2 46l-2 52q0 17 7 17q4 0 6.5 -5t2.5 -12l-2 -52l-2 -46h88q63 0 135 4l51 2q11 0 15 -1.5t4 -5.5
t-4 -6t-15 -2z" />
    <glyph glyph-name="Itilde" unicode="&#x128;" horiz-adv-x="285" 
d="M35 4q0 7 19 7q5 0 14.5 -2.5t23.5 -2.5q30 0 39 15.5t9 54.5v551q0 31 6.5 47t23.5 21h-29q-37 0 -57.5 -2.5t-27.5 -2.5q-21 0 -21 6q0 7 21 7q7 0 27.5 -1.5t57.5 -1.5h14q39 0 54.5 2t21.5 2q19 0 19 -8q0 -7 -19 -7q-5 0 -14.5 2.5t-23.5 2.5q-30 0 -39.5 -15.5
t-9.5 -54.5v-551q0 -31 -6 -47t-23 -21h29q37 0 57.5 2.5t27.5 2.5q21 0 21 -6q0 -7 -21 -7q-7 0 -27.5 1.5t-57.5 1.5h-14q-39 0 -54.5 -2t-21.5 -2q-19 0 -19 8zM185.5 804.5q-19.5 9.5 -44.5 27.5q-24 17 -41.5 25.5t-40.5 8.5q-33 0 -52 -12.5t-34 -32.5
q-10 -14 -16 -14q-7 0 -7 7q0 10 13.5 23.5t37 23t53.5 9.5q26 0 45.5 -9.5t44.5 -27.5q24 -17 41.5 -25.5t40.5 -8.5q33 0 52 12.5t34 32.5q11 14 16 14q7 0 7 -7q0 -8 -13.5 -22t-37.5 -24t-53 -10q-26 0 -45.5 9.5z" />
    <glyph glyph-name="itilde" unicode="&#x129;" horiz-adv-x="157" 
d="M71 12l1 23q5 63 5 140v150q0 80 -5 142q-1 10 -1 21q0 17 7 17q8 0 8 -17q0 -11 -1 -21q-5 -62 -5 -142v-150q0 -77 5 -140l1 -23q0 -17 -8 -17q-7 0 -7 17zM120.5 604.5q-19.5 9.5 -44.5 27.5q-24 17 -41.5 25.5t-40.5 8.5q-33 0 -52 -12.5t-34 -32.5q-10 -14 -16 -14
q-7 0 -7 7q0 10 13.5 23.5t37 23t53.5 9.5q26 0 45.5 -9.5t44.5 -27.5q24 -17 41.5 -25.5t40.5 -8.5q33 0 52 12.5t34 32.5q11 14 16 14q7 0 7 -7q0 -8 -13.5 -22t-37.5 -24t-53 -10q-26 0 -45.5 9.5z" />
    <glyph glyph-name="Imacron" unicode="&#x12a;" horiz-adv-x="285" 
d="M35 4q0 7 19 7q5 0 14.5 -2.5t23.5 -2.5q30 0 39 15.5t9 54.5v551q0 31 6.5 47t23.5 21h-29q-37 0 -57.5 -2.5t-27.5 -2.5q-21 0 -21 6q0 7 21 7q7 0 27.5 -1.5t57.5 -1.5h14q39 0 54.5 2t21.5 2q19 0 19 -8q0 -7 -19 -7q-5 0 -14.5 2.5t-23.5 2.5q-30 0 -39.5 -15.5
t-9.5 -54.5v-551q0 -31 -6 -47t-23 -21h29q37 0 57.5 2.5t27.5 2.5q21 0 21 -6q0 -7 -21 -7q-7 0 -27.5 1.5t-57.5 1.5h-14q-39 0 -54.5 -2t-21.5 -2q-19 0 -19 8zM-15 835h315v-4h-315v4z" />
    <glyph glyph-name="imacron" unicode="&#x12b;" horiz-adv-x="157" 
d="M71 12l1 23q5 63 5 140v150q0 80 -5 142q-1 10 -1 21q0 17 7 17q8 0 8 -17q0 -11 -1 -21q-5 -62 -5 -142v-150q0 -77 5 -140l1 -23q0 -17 -8 -17q-7 0 -7 17zM-80 635h315v-4h-315v4z" />
    <glyph glyph-name="Iogonek" unicode="&#x12e;" horiz-adv-x="285" 
d="M35 4q0 7 19 7q5 0 14.5 -2.5t23.5 -2.5q30 0 39 15.5t9 54.5v551q0 31 6.5 47t23.5 21h-29q-37 0 -57.5 -2.5t-27.5 -2.5q-21 0 -21 6q0 7 21 7q7 0 27.5 -1.5t57.5 -1.5h14q39 0 54.5 2t21.5 2q19 0 19 -8q0 -7 -19 -7q-5 0 -14.5 2.5t-23.5 2.5q-30 0 -39.5 -15.5
t-9.5 -54.5v-551q0 -31 -6 -47t-23 -21h29q37 0 57.5 2.5t27.5 2.5q21 0 21 -6q0 -7 -21 -7q-7 0 -25 1.5t-47 1.5q-73 -1 -108.5 -26.5t-35.5 -61.5q0 -31 26.5 -54.5t79.5 -23.5q29 0 47.5 6t38.5 17q3 2 10 5t11 3t6 -2t2 -4q0 -6 -13 -13.5t-36 -12.5t-51 -5
q-63 0 -94 24.5t-31 59.5q0 31 25 55t76 33q-24 -1 -37 -2.5t-19 -1.5q-19 0 -19 8z" />
    <glyph glyph-name="iogonek" unicode="&#x12f;" horiz-adv-x="145" 
d="M-54 -148.5q-26 23.5 -26 57.5q0 38 38 63.5t115 26.5q-2 3 -2 13l1 23q5 63 5 140v150q0 80 -5 142q-1 10 -1 21q0 17 7 17q8 0 8 -17q0 -11 -1 -21q-5 -62 -5 -142v-150q0 -77 5 -140l1 -23q0 -17 -8 -17q-80 0 -117 -24t-37 -62q0 -31 22 -53t66 -22q27 0 44.5 6.5
t31.5 16.5q14 8 19 8q4 0 6 -2t2 -4q0 -10 -26 -20.5t-63 -10.5q-54 0 -80 23.5zM56 658q7 7 17 7t17 -7t7 -17t-7 -17t-17 -7t-17 7t-7 17t7 17z" />
    <glyph glyph-name="Idotaccent" unicode="&#x130;" horiz-adv-x="285" 
d="M35 4q0 7 19 7q5 0 14.5 -2.5t23.5 -2.5q30 0 39 15.5t9 54.5v551q0 31 6.5 47t23.5 21h-29q-37 0 -57.5 -2.5t-27.5 -2.5q-21 0 -21 6q0 7 21 7q7 0 27.5 -1.5t57.5 -1.5h14q39 0 54.5 2t21.5 2q19 0 19 -8q0 -7 -19 -7q-5 0 -14.5 2.5t-23.5 2.5q-30 0 -39.5 -15.5
t-9.5 -54.5v-551q0 -31 -6 -47t-23 -21h29q37 0 57.5 2.5t27.5 2.5q21 0 21 -6q0 -7 -21 -7q-7 0 -27.5 1.5t-57.5 1.5h-14q-39 0 -54.5 -2t-21.5 -2q-19 0 -19 8zM126 824q-7 7 -7 17t7 17t17 7t17 -7t7 -17t-7 -17t-17 -7t-17 7z" />
    <glyph glyph-name="dotlessi" unicode="&#x131;" horiz-adv-x="157" 
d="M71 12l1 23q5 63 5 140v150q0 80 -5 142q-1 10 -1 21q0 17 7 17q8 0 8 -17q0 -11 -1 -21q-5 -62 -5 -142v-150q0 -77 5 -140l1 -23q0 -17 -8 -17q-7 0 -7 17z" />
    <glyph glyph-name="IJ" unicode="&#x132;" horiz-adv-x="700" 
d="M320 -2q0 5 13 5l23 -1q21 -3 47 -3q63 0 96 25.5t44.5 73t11.5 125.5v404q0 31 6.5 47t23.5 21h-390q-33 0 -42 -15t-9 -56v-551q0 -31 -6 -47t-23 -21h29q37 0 57.5 2.5t27.5 2.5q21 0 21 -6q0 -7 -21 -7q-7 0 -27.5 1.5t-57.5 1.5h-14q-39 0 -54.5 -2t-21.5 -2
q-19 0 -19 8q0 7 19 7q5 0 14.5 -2.5t23.5 -2.5q30 0 39 15.5t9 54.5v551q0 31 6.5 47t23.5 21h-29q-37 0 -57.5 -2.5t-27.5 -2.5q-21 0 -21 6q0 7 21 7q7 0 27.5 -1.5t57.5 -1.5h429q39 0 54.5 2t21.5 2q19 0 19 -8q0 -7 -19 -7q-5 0 -14.5 2.5t-23.5 2.5
q-30 0 -39.5 -15.5t-9.5 -54.5v-402q0 -80 -13 -129.5t-53.5 -77.5t-118.5 -28q-54 0 -54 11z" />
    <glyph glyph-name="ij" unicode="&#x133;" horiz-adv-x="346" 
d="M71 718q0 5 3 8.5t9 3.5t9 -3.5t3 -8.5q0 -12 -12 -12t-12 12zM77 35q5 63 5 140v150q0 80 -5 142q-1 10 -1 21q0 17 7 17q8 0 8 -17q0 -11 -1 -21q-5 -62 -5 -142v-150q0 -77 5 -140l1 -23q0 -17 -8 -17q-7 0 -7 17zM251 718q0 5 3 8.5t9 3.5t9 -3.5t3 -8.5
q0 -12 -12 -12t-12 12zM61 -187q5 0 21 -2q36 -3 45 -3q55 0 84 21t40 64t11 118v314q0 80 -5 142q-1 10 -1 21q0 17 7 17q9 0 9 -17q0 -11 -1 -21q-5 -62 -5 -142v-315q0 -78 -12.5 -123t-49.5 -68.5t-109 -23.5q-44 0 -44 12q0 6 10 6z" />
    <glyph glyph-name="uni0136" unicode="&#x136;" horiz-adv-x="735" 
d="M35 4q0 7 19 7q5 0 14.5 -2.5t23.5 -2.5q30 0 39 15.5t9 54.5v551q0 31 6.5 47t23.5 21h-29q-37 0 -57.5 -2.5t-27.5 -2.5q-21 0 -21 6q0 7 21 7q7 0 27.5 -1.5t57.5 -1.5h14q39 0 54.5 2t21.5 2q19 0 19 -8q0 -7 -19 -7q-5 0 -14.5 2.5t-23.5 2.5q-30 0 -39.5 -15.5
t-9.5 -54.5v-551q0 -28 -4 -41l441 550q53 67 78.5 95t33.5 28q7 0 7 -7q0 -3 -8 -10t-11 -9q-3 -3 -30.5 -27.5t-65.5 -71.5l-196 -244l237 -257q33 -36 64 -60q15 -12 15 -17q0 -7 -7 -7q-4 0 -9 5t-10 11t-8 9q-29 34 -48 55l-237 258l-251 -312q-6 -11 -20 -16h29
q37 0 57.5 2.5t27.5 2.5q21 0 21 -6q0 -7 -21 -7q-7 0 -27.5 1.5t-57.5 1.5h-14q-39 0 -54.5 -2t-21.5 -2q-19 0 -19 8zM315 -203q0 4 6 4q36 0 57 9t21 43q0 38 -24 96v1q0 4 4 5.5t5 -2.5q21 -51 21 -87q0 -46 -25 -61t-53 -15q-12 0 -12 7z" />
    <glyph glyph-name="uni0137" unicode="&#x137;" horiz-adv-x="610" 
d="M86 4h28q41 0 106 5l35 2q6 0 11.5 -1t5.5 -5q0 -8 -17 -8q-20 0 -35 1q-52 2 -106 2h-14q-33 0 -51 -2t-24 -2q-15 0 -15 7q0 8 15 8q5 0 17 -3t23 -3q27 0 36 16.5t9 54.5v409q0 56 -2 111.5t-2 74.5l-2 47q0 17 7 17q4 0 6.5 -5t2.5 -12l-2 -46q0 -19 -2 -75t-2 -112
v-410q0 -33 -6 -47l325 355q21 22 70 80q16 19 27 30.5t15 11.5q7 0 7 -7q0 -6 -29 -32q-52 -49 -86 -86l-102 -112l135 -148q32 -36 90 -91q25 -21 25 -27q0 -7 -7 -7q-4 0 -13.5 10t-22.5 27q-38 45 -75 85l-136 147l-232 -252q-8 -6 -13 -8zM238 -203q0 4 6 4q36 0 57 9
t21 43q0 38 -24 96v1q0 4 4 5.5t5 -2.5q21 -51 21 -87q0 -46 -25 -61t-53 -15q-12 0 -12 7z" />
    <glyph glyph-name="Lacute" unicode="&#x139;" horiz-adv-x="698" 
d="M348 -18q-78 9 -131 13.5t-129 4.5q-16 0 -27 -2t-18 -2q-18 0 -18 8q0 7 18 7q5 0 15.5 -2.5t21.5 -2.5q23 0 33.5 6.5t13.5 20.5t3 43v361q0 93 -5 203l-1 46q0 19 8 19q9 0 9 -19l-2 -46q-5 -110 -5 -203v-364q0 -32 -6.5 -47.5t-24.5 -21.5q69 0 128 -5t127 -14
q10 -1 56 -6.5t84 -5.5q68 0 98 13t48 37q10 13 17 6q1 -1 1 -5q0 -8 -6 -15q-16 -20 -50.5 -30t-98.5 -10q-61 0 -159 13zM28 776l191 129q5 4 10 4q3 0 5 -2t2 -4q0 -6 -9 -12l-198 -117z" />
    <glyph glyph-name="lacute" unicode="&#x13a;" horiz-adv-x="275" 
d="M149.5 10.5q-14.5 16.5 -14.5 59.5v600q0 35 -14 48.5t-54 13.5q-15 0 -30.5 -1.5t-23.5 -1.5t-8 5q0 11 45 11q50 0 69.5 -17t19.5 -58v-609q0 -32 14 -43t45 -11q30 0 53 5l6 1q8 0 8 -5q0 -6 -15.5 -10t-40.5 -4q-45 0 -59.5 16.5zM33 806l191 129q5 4 10 4q3 0 5 -2
t2 -4q0 -6 -9 -12l-198 -117z" />
    <glyph glyph-name="uni013B" unicode="&#x13b;" horiz-adv-x="698" 
d="M348 -18q-78 9 -131 13.5t-129 4.5q-16 0 -27 -2t-18 -2q-18 0 -18 8q0 7 18 7q5 0 15.5 -2.5t21.5 -2.5q23 0 33.5 6.5t13.5 20.5t3 43v361q0 93 -5 203l-1 46q0 19 8 19q9 0 9 -19l-2 -46q-5 -110 -5 -203v-364q0 -32 -6.5 -47.5t-24.5 -21.5q69 0 128 -5t127 -14
q10 -1 56 -6.5t84 -5.5q68 0 98 13t48 37q10 13 17 6q1 -1 1 -5q0 -8 -6 -15q-16 -20 -50.5 -30t-98.5 -10q-61 0 -159 13zM247 -203q0 4 6 4q36 0 57 9t21 43q0 38 -24 96v1q0 4 4 5.5t5 -2.5q21 -51 21 -87q0 -46 -25 -61t-53 -15q-12 0 -12 7z" />
    <glyph glyph-name="uni013C" unicode="&#x13c;" horiz-adv-x="275" 
d="M149.5 10.5q-14.5 16.5 -14.5 59.5v600q0 35 -14 48.5t-54 13.5q-15 0 -30.5 -1.5t-23.5 -1.5t-8 5q0 11 45 11q50 0 69.5 -17t19.5 -58v-609q0 -32 14 -43t45 -11q30 0 53 5l6 1q8 0 8 -5q0 -6 -15.5 -10t-40.5 -4q-45 0 -59.5 16.5zM131 -203q0 4 6 4q36 0 57 9t21 43
q0 38 -24 96v1q0 4 4 5.5t5 -2.5q21 -51 21 -87q0 -46 -25 -61t-53 -15q-12 0 -12 7z" />
    <glyph glyph-name="Lcaron" unicode="&#x13d;" horiz-adv-x="698" 
d="M348 -18q-78 9 -131 13.5t-129 4.5q-16 0 -27 -2t-18 -2q-18 0 -18 8q0 7 18 7q5 0 15.5 -2.5t21.5 -2.5q23 0 33.5 6.5t13.5 20.5t3 43v361q0 93 -5 203l-1 46q0 19 8 19q9 0 9 -19l-2 -46q-5 -110 -5 -203v-364q0 -32 -6.5 -47.5t-24.5 -21.5q69 0 128 -5t127 -14
q10 -1 56 -6.5t84 -5.5q68 0 98 13t48 37q10 13 17 6q1 -1 1 -5q0 -8 -6 -15q-16 -20 -50.5 -30t-98.5 -10q-61 0 -159 13zM240 430q0 87 -4 235q-1 13 -1 29q0 11 8 11q7 0 7 -11q0 -16 -1 -29q-4 -148 -4 -235q0 -4 -2 -4q-3 0 -3 4z" />
    <glyph glyph-name="lcaron" unicode="&#x13e;" horiz-adv-x="275" 
d="M149.5 10.5q-14.5 16.5 -14.5 59.5v600q0 35 -14 48.5t-54 13.5q-15 0 -30.5 -1.5t-23.5 -1.5t-8 5q0 11 45 11q50 0 69.5 -17t19.5 -58v-609q0 -32 14 -43t45 -11q30 0 53 5l6 1q8 0 8 -5q0 -6 -15.5 -10t-40.5 -4q-45 0 -59.5 16.5zM198 460q0 87 -4 235q-1 13 -1 29
q0 11 8 11q7 0 7 -11q0 -16 -1 -29q-4 -148 -4 -235q0 -4 -2 -4q-3 0 -3 4z" />
    <glyph glyph-name="Lslash" unicode="&#x141;" horiz-adv-x="698" 
d="M380 276q-42 4 -136 4h-110v-207q0 -32 -6.5 -47.5t-24.5 -21.5q69 0 128 -5t127 -14q10 -1 56 -6.5t84 -5.5q68 0 98 13t48 37q10 13 17 6q1 -1 1 -5q0 -8 -6 -15q-16 -20 -50.5 -30t-98.5 -10q-61 0 -159 13q-78 9 -131 13.5t-129 4.5q-16 0 -27 -2t-18 -2q-18 0 -18 8
q0 7 18 7q5 0 15.5 -2.5t21.5 -2.5q23 0 33.5 6.5t13.5 20.5t3 43v204h-40q-19 0 -39 -2l-20 -1q-6 0 -6 5t6 5l20 -1q20 -2 39 -2h40v153q0 93 -5 203l-1 46q0 19 8 19q9 0 9 -19l-2 -46q-5 -110 -5 -203v-153h110q84 0 136 5l24 1q16 0 16 -7q0 -4 -3.5 -6t-12.5 -2
q-15 0 -24 1z" />
    <glyph glyph-name="lslash" unicode="&#x142;" horiz-adv-x="275" 
d="M216.5 277.5q-23.5 2.5 -77.5 2.5v-219q0 -32 14 -43t45 -11q30 0 53 5l6 1q8 0 8 -5q0 -6 -15.5 -10t-40.5 -4q-45 0 -59.5 16.5t-14.5 59.5v210h-60q-19 0 -39 -2l-20 -1q-6 0 -6 5t6 5l20 -1q20 -2 39 -2h60v386q0 35 -14 48.5t-54 13.5q-15 0 -30.5 -1.5t-23.5 -1.5
t-8 5q0 11 45 11q50 0 69.5 -17t19.5 -58v-386q54 0 77.5 3t32.5 3q16 0 16 -7q0 -4 -3.5 -6t-12.5 -2t-32.5 2.5z" />
    <glyph glyph-name="Nacute" unicode="&#x143;" horiz-adv-x="710" 
d="M65 14q0 5 0.5 18.5t0.5 40.5q5 168 5 272l-1 276q-1 38 -1 79q0 5 4 5t8 -6l554 -698v354q0 105 -5 272l-2 59q0 19 8 19q9 0 9 -19q0 -5 -0.5 -18.5t-0.5 -40.5q-5 -167 -5 -272l1 -276q1 -38 1 -79q0 -5 -4 -5q-3 0 -8 6l-554 698v-354q0 -104 5 -272l2 -59
q0 -19 -8 -19q-9 0 -9 19zM250 776l191 129q5 4 10 4q3 0 5 -2t2 -4q0 -6 -9 -12l-198 -117z" />
    <glyph glyph-name="nacute" unicode="&#x144;" horiz-adv-x="650" 
d="M564 12l2 44q0 17 2 64.5t2 94.5v38q0 124 -58 191.5t-171 67.5q-114 0 -175 -68t-61 -191v-38q0 -48 2 -97t2 -66l2 -40q0 -7 -2.5 -12t-6.5 -5q-7 0 -7 17l2 40q0 17 2 66t2 97v151q0 68 -12.5 96.5t-41.5 28.5q-12 0 -12 6q0 8 12 8q22 0 40 -28t18 -106v-59
q14 97 74.5 150.5t161.5 53.5q114 0 173.5 -68.5t59.5 -192.5v-40q0 -47 2 -94.5t2 -64.5l2 -44q0 -7 -2.5 -12t-6.5 -5q-7 0 -7 17zM233 576l191 129q5 4 10 4q3 0 5 -2t2 -4q0 -6 -9 -12l-198 -117z" />
    <glyph glyph-name="uni0145" unicode="&#x145;" horiz-adv-x="710" 
d="M65 14q0 5 0.5 18.5t0.5 40.5q5 168 5 272l-1 276q-1 38 -1 79q0 5 4 5t8 -6l554 -698v354q0 105 -5 272l-2 59q0 19 8 19q9 0 9 -19q0 -5 -0.5 -18.5t-0.5 -40.5q-5 -167 -5 -272l1 -276q1 -38 1 -79q0 -5 -4 -5q-3 0 -8 6l-554 698v-354q0 -104 5 -272l2 -59
q0 -19 -8 -19q-9 0 -9 19zM300 -203q0 4 6 4q36 0 57 9t21 43q0 38 -24 96v1q0 4 4 5.5t5 -2.5q21 -51 21 -87q0 -46 -25 -61t-53 -15q-12 0 -12 7z" />
    <glyph glyph-name="uni0146" unicode="&#x146;" horiz-adv-x="650" 
d="M564 12l2 44q0 17 2 64.5t2 94.5v38q0 124 -58 191.5t-171 67.5q-114 0 -175 -68t-61 -191v-38q0 -48 2 -97t2 -66l2 -40q0 -7 -2.5 -12t-6.5 -5q-7 0 -7 17l2 40q0 17 2 66t2 97v151q0 68 -12.5 96.5t-41.5 28.5q-12 0 -12 6q0 8 12 8q22 0 40 -28t18 -106v-59
q14 97 74.5 150.5t161.5 53.5q114 0 173.5 -68.5t59.5 -192.5v-40q0 -47 2 -94.5t2 -64.5l2 -44q0 -7 -2.5 -12t-6.5 -5q-7 0 -7 17zM283 -203q0 4 6 4q36 0 57 9t21 43q0 38 -24 96v1q0 4 4 5.5t5 -2.5q21 -51 21 -87q0 -46 -25 -61t-53 -15q-12 0 -12 7z" />
    <glyph glyph-name="Ncaron" unicode="&#x147;" horiz-adv-x="710" 
d="M65 14q0 5 0.5 18.5t0.5 40.5q5 168 5 272l-1 276q-1 38 -1 79q0 5 4 5t8 -6l554 -698v354q0 105 -5 272l-2 59q0 19 8 19q9 0 9 -19q0 -5 -0.5 -18.5t-0.5 -40.5q-5 -167 -5 -272l1 -276q1 -38 1 -79q0 -5 -4 -5q-3 0 -8 6l-554 698v-354q0 -104 5 -272l2 -59
q0 -19 -8 -19q-9 0 -9 19zM264 838.5q-30 26.5 -45 40.5l-29 26l4 4l158 -146q71 62 120 114l24 24l5 5t9 4q7 0 9 -6.5t-3 -10.5l-32 -25q-69 -54 -132 -110q-58 54 -88 80.5z" />
    <glyph glyph-name="ncaron" unicode="&#x148;" horiz-adv-x="650" 
d="M564 12l2 44q0 17 2 64.5t2 94.5v38q0 124 -58 191.5t-171 67.5q-114 0 -175 -68t-61 -191v-38q0 -48 2 -97t2 -66l2 -40q0 -7 -2.5 -12t-6.5 -5q-7 0 -7 17l2 40q0 17 2 66t2 97v151q0 68 -12.5 96.5t-41.5 28.5q-12 0 -12 6q0 8 12 8q22 0 40 -28t18 -106v-59
q14 97 74.5 150.5t161.5 53.5q114 0 173.5 -68.5t59.5 -192.5v-40q0 -47 2 -94.5t2 -64.5l2 -44q0 -7 -2.5 -12t-6.5 -5q-7 0 -7 17zM247 638.5q-30 26.5 -45 40.5l-29 26l4 4l158 -146q71 62 120 114l24 24l5 5t9 4q7 0 9 -6.5t-3 -10.5l-32 -25q-69 -54 -132 -110
q-58 54 -88 80.5z" />
    <glyph glyph-name="Eng" unicode="&#x14a;" horiz-adv-x="710" 
d="M400 -189q0 5 13 5l23 -1q21 -3 47 -3q84 0 116 45t35 140l-559 702v-354q0 -104 5 -272l2 -59q0 -19 -8 -19q-9 0 -9 19q0 5 0.5 18.5t0.5 40.5q5 168 5 272l-1 276q-1 38 -1 79q0 5 4 5t8 -6l554 -696v33v319q0 105 -5 272l-2 59q0 19 8 19q9 0 9 -19q0 -5 -0.5 -18.5
t-0.5 -40.5q-5 -167 -5 -272v-320q0 -80 -13 -129.5t-53.5 -77.5t-118.5 -28q-54 0 -54 11z" />
    <glyph glyph-name="eng" unicode="&#x14b;" horiz-adv-x="644" 
d="M359 -193q0 6 10 6q6 0 22 -2q36 -3 45 -3q55 0 84 21t39.5 64t10.5 118v242q0 124 -58 191.5t-171 67.5q-114 0 -175 -68t-61 -191v-38q0 -48 2 -97t2 -66l2 -40q0 -7 -2.5 -12t-6.5 -5q-7 0 -7 17l2 40q0 17 2 66t2 97v151q0 68 -12.5 96.5t-41.5 28.5q-12 0 -12 6
q0 8 12 8q22 0 40 -28t18 -106v-59q14 97 74.5 150.5t161.5 53.5q114 0 173.5 -68.5t59.5 -192.5v-245q0 -78 -12.5 -123t-49 -68.5t-108.5 -23.5q-45 0 -45 12z" />
    <glyph glyph-name="Omacron" unicode="&#x14c;" horiz-adv-x="860" 
d="M245 30q-86 46 -138 129.5t-52 191.5q0 107 52 190t138 129t185 46t185 -46t138 -129t52 -190q0 -108 -52 -191.5t-138 -129.5t-185 -46t-185 46zM110.5 161q51.5 -83 136.5 -128t183 -45t183 45t136.5 128t51.5 190q0 106 -51.5 188.5t-136.5 127.5t-183 45t-183 -45
t-136.5 -127.5t-51.5 -188.5q0 -107 51.5 -190zM272 835h315v-4h-315v4z" />
    <glyph glyph-name="omacron" unicode="&#x14d;" 
d="M189 16q-62 32 -100.5 92.5t-38.5 141.5t38.5 141.5t100.5 92.5t131 32t131 -32t100.5 -92.5t38.5 -141.5t-38.5 -141.5t-100.5 -92.5t-131 -32t-131 32zM91.5 110.5q37.5 -59.5 98.5 -91t130 -31.5t130 31.5t98.5 91t37.5 139.5t-37.5 139.5t-98.5 91t-130 31.5
t-130 -31.5t-98.5 -91t-37.5 -139.5t37.5 -139.5zM162 635h315v-4h-315v4z" />
    <glyph glyph-name="Ohungarumlaut" unicode="&#x150;" horiz-adv-x="860" 
d="M245 30q-86 46 -138 129.5t-52 191.5q0 107 52 190t138 129t185 46t185 -46t138 -129t52 -190q0 -108 -52 -191.5t-138 -129.5t-185 -46t-185 46zM110.5 161q51.5 -83 136.5 -128t183 -45t183 45t136.5 128t51.5 190q0 106 -51.5 188.5t-136.5 127.5t-183 45t-183 -45
t-136.5 -127.5t-51.5 -188.5q0 -107 51.5 -190zM310 776l191 129q5 4 10 4q3 0 5 -2t2 -4q0 -6 -9 -12l-198 -117zM442 776l191 129q5 4 10 4q3 0 5 -2t2 -4q0 -6 -9 -12l-198 -117z" />
    <glyph glyph-name="ohungarumlaut" unicode="&#x151;" 
d="M189 16q-62 32 -100.5 92.5t-38.5 141.5t38.5 141.5t100.5 92.5t131 32t131 -32t100.5 -92.5t38.5 -141.5t-38.5 -141.5t-100.5 -92.5t-131 -32t-131 32zM91.5 110.5q37.5 -59.5 98.5 -91t130 -31.5t130 31.5t98.5 91t37.5 139.5t-37.5 139.5t-98.5 91t-130 31.5
t-130 -31.5t-98.5 -91t-37.5 -139.5t37.5 -139.5zM200 576l191 129q5 4 10 4q3 0 5 -2t2 -4q0 -6 -9 -12l-198 -117zM332 576l191 129q5 4 10 4q3 0 5 -2t2 -4q0 -6 -9 -12l-198 -117z" />
    <glyph glyph-name="OE" unicode="&#x152;" horiz-adv-x="1300" 
d="M245 30q-86 46 -138 129.5t-52 191.5q0 107 52 190t138 129t185 46q86 0 163 -34.5t129 -97.5l-2 110q0 8 8 8q5 0 16 -1t26 -1h187q117 0 209 2h47q19 0 19 -8q0 -9 -15 -9l-39 2q-101 9 -221 9h-230v-118q68 -86 77 -199h31q95 0 247 5l59 1q11 0 15 -2t4 -6t-4 -5.5
t-15 -1.5l-59 1q-122 4 -247 4h-78q-30 0 -30 -32v-270q0 -31 -6.5 -46.5t-23.5 -22.5q69 0 128 -5t127 -14q10 -1 56 -6.5t84 -5.5q74 0 105 13t49 37q10 13 17 6q2 -2 2 -5q0 -7 -7 -15q-16 -20 -51.5 -30t-105.5 -10q-40 0 -74 3.5t-89 10.5q-67 8 -115.5 12.5
t-111.5 4.5q-7 0 -17 -2t-15 -2q-14 0 -14 8q0 3 4 5t9 2q20 0 29.5 5.5t12.5 18.5t3 41v41q-52 -63 -129 -98t-164 -35q-99 0 -185 46zM110.5 161q51.5 -83 136.5 -128t183 -45q87 0 164.5 35.5t128.5 100.5v221q0 27 20 32q-8 1 -14 9t-6 23v56l-1 113q-52 64 -129 99
t-163 35q-98 0 -183 -45t-136.5 -127.5t-51.5 -188.5q0 -107 51.5 -190zM757 379h43q-7 110 -73 193v-162q0 -31 30 -31z" />
    <glyph glyph-name="oe" unicode="&#x153;" horiz-adv-x="1065" 
d="M189 16q-62 32 -100.5 93t-38.5 142t38.5 141t100.5 92t131 32q64 0 122 -27.5t96 -77.5q37 50 94 77.5t121 27.5q58 0 107.5 -22.5t78.5 -61t29 -86.5h-394q16 -45 16 -95q0 -87 -46 -154q38 -52 99 -80.5t129 -28.5q61 0 105.5 20.5t70 46.5t49.5 59q7 10 13.5 17.5
t10.5 7.5t4 -5q0 -13 -32 -50.5t-89 -68.5t-132 -31q-69 0 -130.5 29t-100.5 81q-38 -52 -97 -81t-124 -29q-69 0 -131 32zM91.5 110.5q37.5 -59.5 98.5 -91t130 -31.5q65 0 123.5 28.5t95.5 80.5q-49 69 -49 158q0 88 45 152q-37 51 -94 78t-121 27q-69 0 -130 -31.5
t-98.5 -90.5t-37.5 -139q0 -81 37.5 -140.5zM541 100q45 64 45 151q0 45 -16 95h-61q-15 -40 -15 -91q0 -89 47 -155zM963 350q0 43 -27.5 80.5t-75.5 59.5t-107 22q-81 0 -148 -43t-95 -119h453z" />
    <glyph glyph-name="Racute" unicode="&#x154;" horiz-adv-x="670" 
d="M65 14q0 20 1 39q5 120 5 262q0 108 -1 215t-2 164q0 8 8 8q5 0 16 -1t26 -1h203q119 0 189 -48t70 -147q0 -100 -70.5 -150t-188.5 -50h-2q14 -4 24.5 -11.5t23.5 -20.5l156 -167q44 -48 81 -78q4 -3 9 -8t8.5 -9t3.5 -7q0 -9 -9 -9q-4 0 -10.5 7.5t-16.5 19.5
q-39 47 -69 80l-155 168q-20 21 -41 28t-59 7h-110q-20 0 -20 9q0 7 13 7q9 0 21 -3q4 -1 26 -4t70 -4q19 0 27 -1h29q117 0 186 49.5t69 146.5q0 96 -68.5 143.5t-185.5 47.5h-247v-381q0 -118 6 -262l1 -39q0 -19 -8 -19q-9 0 -9 19zM233 776l191 129q5 4 10 4q3 0 5 -2
t2 -4q0 -6 -9 -12l-198 -117z" />
    <glyph glyph-name="racute" unicode="&#x155;" horiz-adv-x="400" 
d="M88.5 462.5q-12.5 28.5 -41.5 28.5q-12 0 -12 6q0 8 12 8q22 0 40 -28t18 -106v-31q10 85 56 129t156 44q53 0 53 -11q0 -5 -11 -5q-9 0 -28 1.5t-42 1.5q-82 0 -121.5 -31.5t-51 -84t-11.5 -141.5v-28q0 -48 2 -97t2 -66l2 -40q0 -7 -2.5 -12t-6.5 -5q-7 0 -7 17l2 40
q0 17 2 66t2 97v151q0 68 -12.5 96.5zM110 576l191 129q5 4 10 4q3 0 5 -2t2 -4q0 -6 -9 -12l-198 -117z" />
    <glyph glyph-name="uni0156" unicode="&#x156;" horiz-adv-x="670" 
d="M65 14q0 20 1 39q5 120 5 262q0 108 -1 215t-2 164q0 8 8 8q5 0 16 -1t26 -1h203q119 0 189 -48t70 -147q0 -100 -70.5 -150t-188.5 -50h-2q14 -4 24.5 -11.5t23.5 -20.5l156 -167q44 -48 81 -78q4 -3 9 -8t8.5 -9t3.5 -7q0 -9 -9 -9q-4 0 -10.5 7.5t-16.5 19.5
q-39 47 -69 80l-155 168q-20 21 -41 28t-59 7h-110q-20 0 -20 9q0 7 13 7q9 0 21 -3q4 -1 26 -4t70 -4q19 0 27 -1h29q117 0 186 49.5t69 146.5q0 96 -68.5 143.5t-185.5 47.5h-247v-381q0 -118 6 -262l1 -39q0 -19 -8 -19q-9 0 -9 19zM283 -203q0 4 6 4q36 0 57 9t21 43
q0 38 -24 96v1q0 4 4 5.5t5 -2.5q21 -51 21 -87q0 -46 -25 -61t-53 -15q-12 0 -12 7z" />
    <glyph glyph-name="uni0157" unicode="&#x157;" horiz-adv-x="400" 
d="M88.5 462.5q-12.5 28.5 -41.5 28.5q-12 0 -12 6q0 8 12 8q22 0 40 -28t18 -106v-31q10 85 56 129t156 44q53 0 53 -11q0 -5 -11 -5q-9 0 -28 1.5t-42 1.5q-82 0 -121.5 -31.5t-51 -84t-11.5 -141.5v-28q0 -48 2 -97t2 -66l2 -40q0 -7 -2.5 -12t-6.5 -5q-7 0 -7 17l2 40
q0 17 2 66t2 97v151q0 68 -12.5 96.5zM48 -203q0 4 6 4q36 0 57 9t21 43q0 38 -24 96v1q0 4 4 5.5t5 -2.5q21 -51 21 -87q0 -46 -25 -61t-53 -15q-12 0 -12 7z" />
    <glyph glyph-name="Rcaron" unicode="&#x158;" horiz-adv-x="670" 
d="M65 14q0 20 1 39q5 120 5 262q0 108 -1 215t-2 164q0 8 8 8q5 0 16 -1t26 -1h203q119 0 189 -48t70 -147q0 -100 -70.5 -150t-188.5 -50h-2q14 -4 24.5 -11.5t23.5 -20.5l156 -167q44 -48 81 -78q4 -3 9 -8t8.5 -9t3.5 -7q0 -9 -9 -9q-4 0 -10.5 7.5t-16.5 19.5
q-39 47 -69 80l-155 168q-20 21 -41 28t-59 7h-110q-20 0 -20 9q0 7 13 7q9 0 21 -3q4 -1 26 -4t70 -4q19 0 27 -1h29q117 0 186 49.5t69 146.5q0 96 -68.5 143.5t-185.5 47.5h-247v-381q0 -118 6 -262l1 -39q0 -19 -8 -19q-9 0 -9 19zM247 838.5q-30 26.5 -45 40.5l-29 26
l4 4l158 -146q71 62 120 114l24 24l5 5t9 4q7 0 9 -6.5t-3 -10.5l-32 -25q-69 -54 -132 -110q-58 54 -88 80.5z" />
    <glyph glyph-name="rcaron" unicode="&#x159;" horiz-adv-x="400" 
d="M88.5 462.5q-12.5 28.5 -41.5 28.5q-12 0 -12 6q0 8 12 8q22 0 40 -28t18 -106v-31q10 85 56 129t156 44q53 0 53 -11q0 -5 -11 -5q-9 0 -28 1.5t-42 1.5q-82 0 -121.5 -31.5t-51 -84t-11.5 -141.5v-28q0 -48 2 -97t2 -66l2 -40q0 -7 -2.5 -12t-6.5 -5q-7 0 -7 17l2 40
q0 17 2 66t2 97v151q0 68 -12.5 96.5zM124 638.5q-30 26.5 -45 40.5l-29 26l4 4l158 -146q71 62 120 114l24 24l5 5t9 4q7 0 9 -6.5t-3 -10.5l-32 -25q-69 -54 -132 -110q-58 54 -88 80.5z" />
    <glyph glyph-name="Sacute" unicode="&#x15a;" horiz-adv-x="710" 
d="M177.5 9.5q-67.5 25.5 -97.5 57.5t-30 51q0 8 5 8t14 -17q19 -30 45 -55t84 -45.5t152 -20.5q125 0 213 43.5t88 129.5q0 56 -40 94.5t-97 62.5t-154 54q-93 29 -148 51.5t-93 58t-38 87.5q0 147 310 147q86 0 148 -11t62 -25q0 -5 -10 -5t-30 6q-40 9 -83 15t-119 6
q-119 0 -196.5 -27.5t-77.5 -104.5q0 -50 37 -85.5t92 -58t146 -50.5q98 -30 156 -54t98.5 -63.5t40.5 -97.5q0 -89 -88 -133t-218 -44q-104 0 -171.5 25.5zM248 776l191 129q5 4 10 4q3 0 5 -2t2 -4q0 -6 -9 -12l-198 -117z" />
    <glyph glyph-name="sacute" unicode="&#x15b;" horiz-adv-x="555" 
d="M143.5 2q-56.5 18 -86.5 39q-7 6 -7 11q0 7 7 7q2 0 9 -5q2 -2 24 -20t71.5 -32t112.5 -14q101 0 164 32.5t63 99.5q0 47 -31 75t-75.5 42t-118.5 29q-71 15 -112 27.5t-69 37t-28 65.5q0 54 53.5 85.5t168.5 31.5q64 0 117 -5.5t53 -15.5q0 -4 -7 -4q-8 0 -26 3
q-85 11 -164 11h-25q-80 0 -123 -28.5t-43 -77.5q0 -39 27.5 -63t68.5 -36.5t110 -26.5q76 -16 120.5 -30t76 -43t31.5 -77q0 -69 -64 -102.5t-169 -33.5q-72 0 -128.5 18zM170 576l191 129q5 4 10 4q3 0 5 -2t2 -4q0 -6 -9 -12l-198 -117z" />
    <glyph glyph-name="Scedilla" unicode="&#x15e;" horiz-adv-x="710" 
d="M274.5 -206q-26.5 5 -41.5 12.5t-15 13.5t8 6q9 0 23 -8q24 -11 45.5 -17t54.5 -6q52 0 73.5 16.5t21.5 39.5q0 28 -37.5 45t-131.5 17l70 71q-103 0 -169 25.5t-96 57.5t-30 51q0 8 5 8t14 -17q19 -30 44.5 -55t83.5 -45.5t152 -20.5l1 1h5l-1 -1q125 1 211 44t86 129
q0 56 -40 94.5t-97 62.5t-154 54q-93 29 -148 51.5t-93 58t-38 87.5q0 147 310 147q86 0 148 -11t62 -25q0 -5 -10 -5t-30 6q-40 9 -83 15t-119 6q-119 0 -196.5 -27.5t-77.5 -104.5q0 -50 37 -85.5t92 -58t146 -50.5q98 -30 156 -54t98.5 -63.5t40.5 -97.5q0 -89 -88 -133
t-217 -44l-68 -68q91 0 128.5 -17t37.5 -48q0 -25 -26 -43.5t-87 -18.5q-34 0 -60.5 5z" />
    <glyph glyph-name="scedilla" unicode="&#x15f;" horiz-adv-x="555" 
d="M143.5 2q-56.5 18 -86.5 39q-7 6 -7 11q0 7 7 7q2 0 9 -5q2 -2 24 -20t71.5 -32t112.5 -14q101 0 164 32.5t63 99.5q0 47 -31 75t-75.5 42t-118.5 29q-71 15 -112 27.5t-69 37t-28 65.5q0 54 53.5 85.5t168.5 31.5q64 0 117 -5.5t53 -15.5q0 -4 -7 -4q-8 0 -26 3
q-85 11 -164 11h-25q-80 0 -123 -28.5t-43 -77.5q0 -39 27.5 -63t68.5 -36.5t110 -26.5q76 -16 120.5 -30t76 -43t31.5 -77q0 -69 -64 -102.5t-169 -33.5q-72 0 -128.5 18zM199.5 -211q-26.5 5 -41.5 12.5t-15 13.5t8 6q9 0 23 -8q24 -11 45.5 -17t54.5 -6q52 0 73.5 16.5
t21.5 39.5q0 28 -37.5 45t-131.5 17l75 76h5l-73 -73q91 0 128.5 -17t37.5 -48q0 -25 -26 -43.5t-87 -18.5q-34 0 -60.5 5z" />
    <glyph glyph-name="Scaron" unicode="&#x160;" horiz-adv-x="710" 
d="M177.5 9.5q-67.5 25.5 -97.5 57.5t-30 51q0 8 5 8t14 -17q19 -30 45 -55t84 -45.5t152 -20.5q125 0 213 43.5t88 129.5q0 56 -40 94.5t-97 62.5t-154 54q-93 29 -148 51.5t-93 58t-38 87.5q0 147 310 147q86 0 148 -11t62 -25q0 -5 -10 -5t-30 6q-40 9 -83 15t-119 6
q-119 0 -196.5 -27.5t-77.5 -104.5q0 -50 37 -85.5t92 -58t146 -50.5q98 -30 156 -54t98.5 -63.5t40.5 -97.5q0 -89 -88 -133t-218 -44q-104 0 -171.5 25.5zM262 838.5q-30 26.5 -45 40.5l-29 26l4 4l158 -146q71 62 120 114l24 24l5 5t9 4q7 0 9 -6.5t-3 -10.5l-32 -25
q-69 -54 -132 -110q-58 54 -88 80.5z" />
    <glyph glyph-name="scaron" unicode="&#x161;" horiz-adv-x="555" 
d="M143.5 2q-56.5 18 -86.5 39q-7 6 -7 11q0 7 7 7q2 0 9 -5q2 -2 24 -20t71.5 -32t112.5 -14q101 0 164 32.5t63 99.5q0 47 -31 75t-75.5 42t-118.5 29q-71 15 -112 27.5t-69 37t-28 65.5q0 54 53.5 85.5t168.5 31.5q64 0 117 -5.5t53 -15.5q0 -4 -7 -4q-8 0 -26 3
q-85 11 -164 11h-25q-80 0 -123 -28.5t-43 -77.5q0 -39 27.5 -63t68.5 -36.5t110 -26.5q76 -16 120.5 -30t76 -43t31.5 -77q0 -69 -64 -102.5t-169 -33.5q-72 0 -128.5 18zM184 638.5q-30 26.5 -45 40.5l-29 26l4 4l158 -146q71 62 120 114l24 24l5 5t9 4q7 0 9 -6.5
t-3 -10.5l-32 -25q-69 -54 -132 -110q-58 54 -88 80.5z" />
    <glyph glyph-name="uni0162" unicode="&#x162;" horiz-adv-x="695" 
d="M177 4q0 7 19 7q6 0 27.5 -2.5t69.5 -2.5q33 0 42.5 15t9.5 55v620h-30q-92 0 -215 -8l-46 -2q-19 0 -19 7q0 9 19 9h46q92 -2 215 -2h65q123 0 215 2h46q19 0 19 -9q0 -7 -19 -7l-46 2q-123 8 -215 8h-31v-623q0 -31 -6 -47t-23 -21h85q37 0 57 2.5t27 2.5q21 0 21 -6
q0 -7 -21 -7q-7 0 -27 1.5t-57 1.5h-55l-73 -73q91 0 128.5 -17t37.5 -48q0 -25 -26 -43.5t-87 -18.5q-34 0 -60.5 5t-41.5 12.5t-15 13.5t8 6q9 0 23 -8q24 -11 45.5 -17t54.5 -6q52 0 73.5 16.5t21.5 39.5q0 28 -37.5 45t-131.5 17l75 76h-10q-83 0 -108.5 -2t-30.5 -2
q-19 0 -19 8z" />
    <glyph glyph-name="uni0163" unicode="&#x163;" horiz-adv-x="380" 
d="M216 -3l-70 -70q91 0 128.5 -17t37.5 -48q0 -25 -26 -43.5t-87 -18.5q-34 0 -60.5 5t-41.5 12.5t-15 13.5t8 6q9 0 23 -8q24 -11 45.5 -17t54.5 -6q52 0 73.5 16.5t21.5 39.5q0 28 -37.5 45t-131.5 17l73 73q-37 6 -55 22.5t-22.5 41t-4.5 66.5v297q0 40 -9 55.5
t-39 15.5q-10 0 -22.5 -2.5t-18.5 -2.5q-16 0 -16 7q0 8 16 8q7 0 22 -2.5t41 -2.5h45q-11 4 -15 13.5t-4 25.5q0 40 -2 78t-2 51l-2 35q0 17 7 17q9 0 9 -17l-2 -35q0 -13 -2 -51t-2 -78q0 -21 7 -30t30 -9q80 0 108 2.5t34 2.5q18 0 18 -8q0 -7 -18 -7q-6 0 -37 3t-142 3
h-32q19 -4 25.5 -21.5t6.5 -49.5v-297q0 -50 7.5 -75.5t29 -37t65.5 -11.5t64.5 8.5t25.5 8.5q9 0 9 -7q0 -9 -25 -14t-59 -5q-15 0 -35 2z" />
    <glyph glyph-name="Tcaron" unicode="&#x164;" horiz-adv-x="695" 
d="M177 4q0 7 19 7q6 0 27.5 -2.5t69.5 -2.5q33 0 42.5 15t9.5 55v620h-30q-92 0 -215 -8l-46 -2q-19 0 -19 7q0 9 19 9h46q92 -2 215 -2h65q123 0 215 2h46q19 0 19 -9q0 -7 -19 -7l-46 2q-123 8 -215 8h-31v-623q0 -31 -6 -47t-23 -21h85q37 0 57 2.5t27 2.5q21 0 21 -6
q0 -7 -21 -7q-7 0 -27 1.5t-57 1.5h-70q-83 0 -108.5 -2t-30.5 -2q-19 0 -19 8zM257 838.5q-30 26.5 -45 40.5l-29 26l4 4l158 -146q71 62 120 114l24 24l5 5t9 4q7 0 9 -6.5t-3 -10.5l-32 -25q-69 -54 -132 -110q-58 54 -88 80.5z" />
    <glyph glyph-name="tcaron" unicode="&#x165;" horiz-adv-x="380" 
d="M170 10.5q-26 15.5 -33 41.5t-7 75v297q0 40 -9 55.5t-39 15.5q-10 0 -22.5 -2.5t-18.5 -2.5q-16 0 -16 7q0 8 16 8q7 0 22 -2.5t41 -2.5h45q-11 4 -15 13.5t-4 25.5q0 40 -2 78t-2 51l-2 35q0 17 7 17q9 0 9 -17l-2 -35q0 -13 -2 -51t-2 -78q0 -21 7 -30t30 -9
q80 0 108 2.5t34 2.5q18 0 18 -8q0 -7 -18 -7q-6 0 -37 3t-142 3h-32q19 -4 25.5 -21.5t6.5 -49.5v-297q0 -50 7.5 -75.5t29 -37t65.5 -11.5t64.5 8.5t25.5 8.5q9 0 9 -7q0 -9 -25 -14t-59 -5q-55 0 -81 15.5zM205 563q0 87 -4 235q-1 13 -1 29q0 11 8 11q7 0 7 -11
q0 -16 -1 -29q-4 -148 -4 -235q0 -4 -2 -4q-3 0 -3 4z" />
    <glyph glyph-name="Tbar" unicode="&#x166;" horiz-adv-x="695" 
d="M63 591h282v105h-30q-92 0 -215 -8l-46 -2q-19 0 -19 7q0 9 19 9h46q92 -2 215 -2h65q123 0 215 2h46q19 0 19 -9q0 -7 -19 -7l-46 2q-123 8 -215 8h-31v-105h284v-4h-284v-514q0 -31 -6 -47t-23 -21h85q37 0 57 2.5t27 2.5q21 0 21 -6q0 -7 -21 -7q-7 0 -27 1.5t-57 1.5
h-70q-83 0 -108.5 -2t-30.5 -2q-19 0 -19 8q0 7 19 7q6 0 27.5 -2.5t69.5 -2.5q33 0 42.5 15t9.5 55v511h-282v4z" />
    <glyph glyph-name="tbar" unicode="&#x167;" horiz-adv-x="380" 
d="M30 432h100q-1 35 -10.5 49t-37.5 14q-10 0 -22.5 -2.5t-18.5 -2.5q-16 0 -16 7q0 8 16 8q7 0 22 -2.5t41 -2.5h45q-11 4 -15 13.5t-4 25.5q0 40 -2 78t-2 51l-2 35q0 17 7 17q9 0 9 -17l-2 -35q0 -13 -2 -51t-2 -78q0 -21 7 -30t30 -9q80 0 108 2.5t34 2.5q18 0 18 -8
q0 -7 -18 -7q-6 0 -37 3t-142 3h-32q18 -4 24.5 -19.5t7.5 -44.5h190v-4h-190v-3v-297q0 -50 7.5 -75.5t29 -37t65.5 -11.5t64.5 8.5t25.5 8.5q9 0 9 -7q0 -9 -25 -14t-59 -5q-55 0 -81 15.5t-33 41.5t-7 75v297v4h-100v4z" />
    <glyph glyph-name="Utilde" unicode="&#x168;" horiz-adv-x="770" 
d="M153.5 60q-82.5 76 -82.5 221v156q0 93 -5 203l-1 46q0 19 9 19q8 0 8 -19l-2 -46q-5 -110 -5 -203v-156q0 -143 81.5 -218t228.5 -75t228.5 75t81.5 218v156q0 93 -5 203l-2 46q0 19 8 19q9 0 9 -19l-1 -46q-5 -110 -5 -203v-156q0 -145 -82.5 -221t-231.5 -76
t-231.5 76zM427.5 804.5q-19.5 9.5 -44.5 27.5q-24 17 -41.5 25.5t-40.5 8.5q-33 0 -52 -12.5t-34 -32.5q-10 -14 -16 -14q-7 0 -7 7q0 10 13.5 23.5t37 23t53.5 9.5q26 0 45.5 -9.5t44.5 -27.5q24 -17 41.5 -25.5t40.5 -8.5q33 0 52 12.5t34 32.5q11 14 16 14q7 0 7 -7
q0 -8 -13.5 -22t-37.5 -24t-53 -10q-26 0 -45.5 9.5z" />
    <glyph glyph-name="utilde" unicode="&#x169;" 
d="M128 47q-57 62 -57 183v56q0 47 -2 94.5t-2 64.5l-2 44q0 7 2.5 12t6.5 5q7 0 7 -17l-2 -44q0 -17 -2 -64.5t-2 -94.5v-54q0 -243 222 -243q119 0 181 67.5t62 191.5v38q0 48 -2 97t-2 66l-2 40q0 7 2.5 12t6.5 5q7 0 7 -17l-2 -40q0 -17 -2 -66t-2 -97v-151
q0 -68 12.5 -96.5t41.5 -28.5q12 0 12 -6q0 -8 -12 -8q-22 0 -40 28t-18 106v59q-14 -98 -76 -151t-167 -53q-112 0 -169 62zM362.5 604.5q-19.5 9.5 -44.5 27.5q-24 17 -41.5 25.5t-40.5 8.5q-33 0 -52 -12.5t-34 -32.5q-10 -14 -16 -14q-7 0 -7 7q0 10 13.5 23.5t37 23
t53.5 9.5q26 0 45.5 -9.5t44.5 -27.5q24 -17 41.5 -25.5t40.5 -8.5q33 0 52 12.5t34 32.5q11 14 16 14q7 0 7 -7q0 -8 -13.5 -22t-37.5 -24t-53 -10q-26 0 -45.5 9.5z" />
    <glyph glyph-name="Umacron" unicode="&#x16a;" horiz-adv-x="770" 
d="M153.5 60q-82.5 76 -82.5 221v156q0 93 -5 203l-1 46q0 19 9 19q8 0 8 -19l-2 -46q-5 -110 -5 -203v-156q0 -143 81.5 -218t228.5 -75t228.5 75t81.5 218v156q0 93 -5 203l-2 46q0 19 8 19q9 0 9 -19l-1 -46q-5 -110 -5 -203v-156q0 -145 -82.5 -221t-231.5 -76
t-231.5 76zM227 835h315v-4h-315v4z" />
    <glyph glyph-name="umacron" unicode="&#x16b;" 
d="M128 47q-57 62 -57 183v56q0 47 -2 94.5t-2 64.5l-2 44q0 7 2.5 12t6.5 5q7 0 7 -17l-2 -44q0 -17 -2 -64.5t-2 -94.5v-54q0 -243 222 -243q119 0 181 67.5t62 191.5v38q0 48 -2 97t-2 66l-2 40q0 7 2.5 12t6.5 5q7 0 7 -17l-2 -40q0 -17 -2 -66t-2 -97v-151
q0 -68 12.5 -96.5t41.5 -28.5q12 0 12 -6q0 -8 -12 -8q-22 0 -40 28t-18 106v59q-14 -98 -76 -151t-167 -53q-112 0 -169 62zM162 635h315v-4h-315v4z" />
    <glyph glyph-name="ubreve" unicode="&#x16d;" 
d="M128 47q-57 62 -57 183v56q0 47 -2 94.5t-2 64.5l-2 44q0 7 2.5 12t6.5 5q7 0 7 -17l-2 -44q0 -17 -2 -64.5t-2 -94.5v-54q0 -243 222 -243q119 0 181 67.5t62 191.5v38q0 48 -2 97t-2 66l-2 40q0 7 2.5 12t6.5 5q7 0 7 -17l-2 -40q0 -17 -2 -66t-2 -97v-151
q0 -68 12.5 -96.5t41.5 -28.5q12 0 12 -6q0 -8 -12 -8q-22 0 -40 28t-18 106v59q-14 -98 -76 -151t-167 -53q-112 0 -169 62zM256.5 590.5q-28.5 14.5 -42.5 37.5t-14 48q0 13 3 20.5t6 7.5t3 -8q0 -52 27.5 -84t84.5 -32q54 0 83 26.5t29 67.5q0 18 -5 31h4q5 -13 5 -31
q0 -42 -30 -70t-86 -28q-39 0 -67.5 14.5z" />
    <glyph glyph-name="Uring" unicode="&#x16e;" horiz-adv-x="770" 
d="M153.5 60q-82.5 76 -82.5 221v156q0 93 -5 203l-1 46q0 19 9 19q8 0 8 -19l-2 -46q-5 -110 -5 -203v-156q0 -143 81.5 -218t228.5 -75t228.5 75t81.5 218v156q0 93 -5 203l-2 46q0 19 8 19q9 0 9 -19l-1 -46q-5 -110 -5 -203v-156q0 -145 -82.5 -221t-231.5 -76
t-231.5 76zM351 807q-14 14 -14 34t14 34t34 14t34 -14t14 -34t-14 -34t-34 -14t-34 14zM353.5 810q12.5 -13 31.5 -13t31.5 13t12.5 31t-12.5 31t-31.5 13t-31.5 -13t-12.5 -31t12.5 -31z" />
    <glyph glyph-name="uring" unicode="&#x16f;" 
d="M128 47q-57 62 -57 183v56q0 47 -2 94.5t-2 64.5l-2 44q0 7 2.5 12t6.5 5q7 0 7 -17l-2 -44q0 -17 -2 -64.5t-2 -94.5v-54q0 -243 222 -243q119 0 181 67.5t62 191.5v38q0 48 -2 97t-2 66l-2 40q0 7 2.5 12t6.5 5q7 0 7 -17l-2 -40q0 -17 -2 -66t-2 -97v-151
q0 -68 12.5 -96.5t41.5 -28.5q12 0 12 -6q0 -8 -12 -8q-22 0 -40 28t-18 106v59q-14 -98 -76 -151t-167 -53q-112 0 -169 62zM286 607q-14 14 -14 34t14 34t34 14t34 -14t14 -34t-14 -34t-34 -14t-34 14zM288.5 610q12.5 -13 31.5 -13t31.5 13t12.5 31t-12.5 31t-31.5 13
t-31.5 -13t-12.5 -31t12.5 -31z" />
    <glyph glyph-name="Uhungarumlaut" unicode="&#x170;" horiz-adv-x="770" 
d="M153.5 60q-82.5 76 -82.5 221v156q0 93 -5 203l-1 46q0 19 9 19q8 0 8 -19l-2 -46q-5 -110 -5 -203v-156q0 -143 81.5 -218t228.5 -75t228.5 75t81.5 218v156q0 93 -5 203l-2 46q0 19 8 19q9 0 9 -19l-1 -46q-5 -110 -5 -203v-156q0 -145 -82.5 -221t-231.5 -76
t-231.5 76zM265 776l191 129q5 4 10 4q3 0 5 -2t2 -4q0 -6 -9 -12l-198 -117zM397 776l191 129q5 4 10 4q3 0 5 -2t2 -4q0 -6 -9 -12l-198 -117z" />
    <glyph glyph-name="uhungarumlaut" unicode="&#x171;" 
d="M128 47q-57 62 -57 183v56q0 47 -2 94.5t-2 64.5l-2 44q0 7 2.5 12t6.5 5q7 0 7 -17l-2 -44q0 -17 -2 -64.5t-2 -94.5v-54q0 -243 222 -243q119 0 181 67.5t62 191.5v38q0 48 -2 97t-2 66l-2 40q0 7 2.5 12t6.5 5q7 0 7 -17l-2 -40q0 -17 -2 -66t-2 -97v-151
q0 -68 12.5 -96.5t41.5 -28.5q12 0 12 -6q0 -8 -12 -8q-22 0 -40 28t-18 106v59q-14 -98 -76 -151t-167 -53q-112 0 -169 62zM200 576l191 129q5 4 10 4q3 0 5 -2t2 -4q0 -6 -9 -12l-198 -117zM332 576l191 129q5 4 10 4q3 0 5 -2t2 -4q0 -6 -9 -12l-198 -117z" />
    <glyph glyph-name="Uogonek" unicode="&#x172;" horiz-adv-x="770" 
d="M370 -151.5q-30 20.5 -30 53.5q0 56 89 84q-28 -2 -44 -2q-149 0 -231.5 76t-82.5 221v156q0 93 -5 203l-1 46q0 19 9 19q8 0 8 -19l-2 -46q-5 -110 -5 -203v-156q0 -143 81.5 -218t228.5 -75t228.5 75t81.5 218v156q0 93 -5 203l-2 46q0 19 8 19q9 0 9 -19l-1 -46
q-5 -110 -5 -203v-156q0 -129 -66 -204t-188 -90q-101 -27 -101 -85q0 -31 25.5 -49.5t78.5 -18.5q29 0 48.5 6.5t39.5 16.5q14 8 21 8q4 0 6 -2t2 -4q0 -6 -13 -13.5t-36.5 -12.5t-52.5 -5q-63 0 -93 20.5z" />
    <glyph glyph-name="uogonek" unicode="&#x173;" 
d="M128 47q-57 62 -57 183v56q0 47 -2 94.5t-2 64.5l-2 44q0 7 2.5 12t6.5 5q7 0 7 -17l-2 -44q0 -17 -2 -64.5t-2 -94.5v-54q0 -243 222 -243q119 0 181 67.5t62 191.5v38q0 48 -2 97t-2 66l-2 40q0 7 2.5 12t6.5 5q7 0 7 -17l-2 -40q0 -17 -2 -66t-2 -97v-151
q0 -68 12.5 -96.5t41.5 -28.5q12 0 12 -6q0 -8 -12 -8h-66q-76 0 -113 -25.5t-37 -62.5q0 -31 26.5 -54.5t79.5 -23.5q29 0 47.5 6t38.5 17q3 2 10 5t11 3t6 -2t2 -4q0 -6 -13 -13.5t-36 -12.5t-51 -5q-63 0 -94 24.5t-31 59.5q0 38 39 65t115 27h49q-41 21 -41 130v59
q-14 -98 -76 -151t-167 -53q-112 0 -169 62z" />
    <glyph glyph-name="Wcircumflex" unicode="&#x174;" horiz-adv-x="1185" 
d="M99.5 592.5q-48.5 85.5 -52.5 92.5q-2 4 -2 8q0 8 9 8q8 0 13 -12q4 -8 25 -53q77 -163 151 -308l168 -335l89 146l119 197q-158 311 -180 349q-4 10 -4 11q0 5 5 8q7 4 37 8t70 4q86 0 147 -24t61 -88q0 -28 -25 -80t-106 -188l4 -8l168 -335q161 264 226.5 374t89 160
t23.5 77q0 56 -51.5 76t-134.5 20q-57 0 -106 -7q-22 -3 -24 -1t-2 3q0 4 6 7q8 5 37 9.5t75 4.5q84 0 144.5 -24t60.5 -88q0 -28 -23.5 -77t-86 -154t-234.5 -387h-1l-171 340l-3 6q-142 -234 -156 -257l-54 -89h-1l-171 340q-91 181 -139.5 266.5zM536 509
q21 -41 42.5 -83t43.5 -85q78 132 103 183.5t25 79.5q0 56 -52.5 76t-140.5 20q-72 0 -113 -9q15 -32 92 -182zM429 769.5q-2 6.5 3 10.5l32 25q69 54 132 110q58 -54 88 -80.5t45 -40.5l29 -26l-4 -4l-158 146q-71 -62 -120 -114l-24 -24l-5 -5t-9 -4q-7 0 -9 6.5z" />
    <glyph glyph-name="wcircumflex" unicode="&#x175;" horiz-adv-x="916" 
d="M90 396q-30 53 -36 63l-16 28q-3 5 -3 11q0 7 7 7q3 0 5.5 -3.5t4.5 -8.5l17 -35q35 -78 86 -177l147 -288q124 180 174 258l-15 29q-44 86 -76.5 142.5t-35.5 62.5q-2 4 -2 7q0 5 6 8q5 3 37.5 7t62.5 4q54 0 85.5 -16.5t31.5 -59.5q0 -24 -22 -68t-68 -117l133 -257
q145 211 204.5 308t59.5 135q0 37 -35 49.5t-96 12.5q-25 0 -47.5 -2.5t-31.5 -2.5q-8 0 -10 3q-3 4 3 7q3 3 24 5.5t48 2.5q149 0 149 -76q0 -39 -58 -133.5t-210 -315.5h-1l-134 261q-51 -79 -133 -197q-6 -10 -43 -64h-1l-149 293q-32 64 -62 117zM464 282l14 -27
q45 71 66.5 114.5t21.5 66.5q0 36 -27 49t-80 13q-38 0 -69 -4t-36 -7q55 -99 110 -205zM294 569.5q-2 6.5 3 10.5l32 25q69 54 132 110q58 -54 88 -80.5t45 -40.5l29 -26l-4 -4l-158 146q-71 -62 -120 -114l-24 -24l-5 -5t-9 -4q-7 0 -9 6.5z" />
    <glyph glyph-name="Ycircumflex" unicode="&#x176;" horiz-adv-x="790" 
d="M379.5 -192q-60.5 24 -60.5 88q0 40 68 148l-146 282q-110 212 -184 341l-10 18q-2 4 -2 7q0 9 9 9q8 0 13 -12q40 -95 178 -361l145 -280q48 75 145 211q102 144 153.5 226t51.5 119q0 55 -52 75.5t-134 20.5q-57 0 -106 -7q-22 -3 -24 -1t-2 3q0 4 6 7q8 5 37 9.5
t75 4.5q84 0 144.5 -24t60.5 -88q0 -38 -52.5 -121.5t-157.5 -231.5q-106 -149 -158.5 -232.5t-52.5 -122.5q0 -55 50 -75t132 -20q39 0 68 2.5t35 3.5q27 5 31 1t-1 -8q-11 -6 -40.5 -11t-75.5 -5q-83 0 -143.5 24zM241 769.5q-2 6.5 3 10.5l32 25q69 54 132 110
q58 -54 88 -80.5t45 -40.5l29 -26l-4 -4l-158 146q-71 -62 -120 -114l-24 -24l-5 -5t-9 -4q-7 0 -9 6.5z" />
    <glyph glyph-name="ycircumflex" unicode="&#x177;" horiz-adv-x="605" 
d="M266 -190q-45 19 -45 67q0 22 15.5 49t45.5 70l-137 284q-35 73 -80 156q-24 43 -28 53q-2 4 -2 10t8 6q5 0 10 -12l14 -32q42 -98 81 -180l136 -282l1 1l39 53q137 187 189.5 267.5t52.5 115.5q0 37 -35 49.5t-96 12.5q-25 0 -47.5 -2.5t-31.5 -2.5q-8 0 -10 3q-3 4 3 7
q3 3 24 5.5t48 2.5q64 0 106.5 -15.5t42.5 -60.5q0 -36 -53.5 -117.5t-184.5 -258.5l-43 -59q-31 -43 -47.5 -72.5t-16.5 -51.5q0 -72 131 -72q35 0 61.5 5t27.5 3q2 -2 1 -4.5t-4 -3.5q-6 -4 -26 -8.5t-49 -4.5q-56 0 -101 19zM139 569.5q-2 6.5 3 10.5l32 25
q69 54 132 110q58 -54 88 -80.5t45 -40.5l29 -26l-4 -4l-158 146q-71 -62 -120 -114l-24 -24l-5 -5t-9 -4q-7 0 -9 6.5z" />
    <glyph glyph-name="Ydieresis" unicode="&#x178;" horiz-adv-x="790" 
d="M379.5 -192q-60.5 24 -60.5 88q0 40 68 148l-146 282q-110 212 -184 341l-10 18q-2 4 -2 7q0 9 9 9q8 0 13 -12q40 -95 178 -361l145 -280q48 75 145 211q102 144 153.5 226t51.5 119q0 55 -52 75.5t-134 20.5q-57 0 -106 -7q-22 -3 -24 -1t-2 3q0 4 6 7q8 5 37 9.5
t75 4.5q84 0 144.5 -24t60.5 -88q0 -38 -52.5 -121.5t-157.5 -231.5q-106 -149 -158.5 -232.5t-52.5 -122.5q0 -55 50 -75t132 -20q39 0 68 2.5t35 3.5q27 5 31 1t-1 -8q-11 -6 -40.5 -11t-75.5 -5q-83 0 -143.5 24zM317 824q-7 7 -7 17t7 17t17 7t17 -7t7 -17t-7 -17
t-17 -7t-17 7zM459 824q-7 7 -7 17t7 17t17 7t17 -7t7 -17t-7 -17t-17 -7t-17 7z" />
    <glyph glyph-name="Zacute" unicode="&#x179;" horiz-adv-x="745" 
d="M109.5 30q23.5 19 42.5 45l409 548q17 22 38 41t38 26q-42 6 -99 6h-206q-118 0 -185 -5t-76 -6h-4q-15 0 -15 8q0 9 19 9h46q92 -2 215 -2h206q59 0 84 3t34 3q11 0 16.5 -2t5.5 -8q0 -8 -25 -8q-19 0 -42 -19.5t-43 -45.5l-410 -548q-17 -23 -38 -41t-40 -24
q48 -6 100 -6h416q98 0 98 61q0 15 -6 33.5t-20 51.5q-3 8 -3 13q0 9 8 9q7 0 13 -16q10 -25 14.5 -42.5t4.5 -34.5q0 -36 -23.5 -57.5t-77.5 -21.5h-424q-58 0 -82.5 -2.5t-32.5 -2.5q-12 0 -18.5 2t-6.5 7q0 7 25 7q21 0 44.5 19zM265 776l191 129q5 4 10 4q3 0 5 -2t2 -4
q0 -6 -9 -12l-198 -117z" />
    <glyph glyph-name="zacute" unicode="&#x17a;" horiz-adv-x="580" 
d="M91.5 22q17.5 13 32.5 32l311 392q13 15 28.5 28t29.5 18q-24 4 -74 4h-263q-44 0 -62 -2t-25 -2q-8 0 -13.5 1t-5.5 5t5.5 5t13.5 1q7 0 25 -2t62 -2h263q45 0 63 2t24 2q19 0 19 -7q0 -6 -19 -6q-15 0 -33 -13.5t-33 -31.5l-311 -392q-11 -14 -25.5 -27.5t-27.5 -19.5
q33 -3 70 -3h323q32 0 45.5 9t13.5 29q0 18 -17 64q-5 14 1 17h2q3 0 6 -3t5 -9q15 -32 15 -57t-16.5 -39.5t-53.5 -14.5h-324q-45 0 -63 -2t-24 -2q-19 0 -19 7q0 6 19 6q15 0 32.5 13zM185 576l191 129q5 4 10 4q3 0 5 -2t2 -4q0 -6 -9 -12l-198 -117z" />
    <glyph glyph-name="Zdotaccent" unicode="&#x17b;" horiz-adv-x="745" 
d="M109.5 30q23.5 19 42.5 45l409 548q17 22 38 41t38 26q-42 6 -99 6h-206q-118 0 -185 -5t-76 -6h-4q-15 0 -15 8q0 9 19 9h46q92 -2 215 -2h206q59 0 84 3t34 3q11 0 16.5 -2t5.5 -8q0 -8 -25 -8q-19 0 -42 -19.5t-43 -45.5l-410 -548q-17 -23 -38 -41t-40 -24
q48 -6 100 -6h416q98 0 98 61q0 15 -6 33.5t-20 51.5q-3 8 -3 13q0 9 8 9q7 0 13 -16q10 -25 14.5 -42.5t4.5 -34.5q0 -36 -23.5 -57.5t-77.5 -21.5h-424q-58 0 -82.5 -2.5t-32.5 -2.5q-12 0 -18.5 2t-6.5 7q0 7 25 7q21 0 44.5 19zM353 824q-7 7 -7 17t7 17t17 7t17 -7
t7 -17t-7 -17t-17 -7t-17 7z" />
    <glyph glyph-name="zdotaccent" unicode="&#x17c;" horiz-adv-x="580" 
d="M91.5 22q17.5 13 32.5 32l311 392q13 15 28.5 28t29.5 18q-24 4 -74 4h-263q-44 0 -62 -2t-25 -2q-8 0 -13.5 1t-5.5 5t5.5 5t13.5 1q7 0 25 -2t62 -2h263q45 0 63 2t24 2q19 0 19 -7q0 -6 -19 -6q-15 0 -33 -13.5t-33 -31.5l-311 -392q-11 -14 -25.5 -27.5t-27.5 -19.5
q33 -3 70 -3h323q32 0 45.5 9t13.5 29q0 18 -17 64q-5 14 1 17h2q3 0 6 -3t5 -9q15 -32 15 -57t-16.5 -39.5t-53.5 -14.5h-324q-45 0 -63 -2t-24 -2q-19 0 -19 7q0 6 19 6q15 0 32.5 13zM273 624q-7 7 -7 17t7 17t17 7t17 -7t7 -17t-7 -17t-17 -7t-17 7z" />
    <glyph glyph-name="Zcaron" unicode="&#x17d;" horiz-adv-x="745" 
d="M109.5 30q23.5 19 42.5 45l409 548q17 22 38 41t38 26q-42 6 -99 6h-206q-118 0 -185 -5t-76 -6h-4q-15 0 -15 8q0 9 19 9h46q92 -2 215 -2h206q59 0 84 3t34 3q11 0 16.5 -2t5.5 -8q0 -8 -25 -8q-19 0 -42 -19.5t-43 -45.5l-410 -548q-17 -23 -38 -41t-40 -24
q48 -6 100 -6h416q98 0 98 61q0 15 -6 33.5t-20 51.5q-3 8 -3 13q0 9 8 9q7 0 13 -16q10 -25 14.5 -42.5t4.5 -34.5q0 -36 -23.5 -57.5t-77.5 -21.5h-424q-58 0 -82.5 -2.5t-32.5 -2.5q-12 0 -18.5 2t-6.5 7q0 7 25 7q21 0 44.5 19zM279 838.5q-30 26.5 -45 40.5l-29 26l4 4
l158 -146q71 62 120 114l24 24l5 5t9 4q7 0 9 -6.5t-3 -10.5l-32 -25q-69 -54 -132 -110q-58 54 -88 80.5z" />
    <glyph glyph-name="zcaron" unicode="&#x17e;" horiz-adv-x="580" 
d="M91.5 22q17.5 13 32.5 32l311 392q13 15 28.5 28t29.5 18q-24 4 -74 4h-263q-44 0 -62 -2t-25 -2q-8 0 -13.5 1t-5.5 5t5.5 5t13.5 1q7 0 25 -2t62 -2h263q45 0 63 2t24 2q19 0 19 -7q0 -6 -19 -6q-15 0 -33 -13.5t-33 -31.5l-311 -392q-11 -14 -25.5 -27.5t-27.5 -19.5
q33 -3 70 -3h323q32 0 45.5 9t13.5 29q0 18 -17 64q-5 14 1 17h2q3 0 6 -3t5 -9q15 -32 15 -57t-16.5 -39.5t-53.5 -14.5h-324q-45 0 -63 -2t-24 -2q-19 0 -19 7q0 6 19 6q15 0 32.5 13zM199 638.5q-30 26.5 -45 40.5l-29 26l4 4l158 -146q71 62 120 114l24 24l5 5t9 4
q7 0 9 -6.5t-3 -10.5l-32 -25q-69 -54 -132 -110q-58 54 -88 80.5z" />
    <glyph glyph-name="longs" unicode="&#x17f;" horiz-adv-x="332" 
d="M72.5 0q-2.5 5 -2.5 12l2 55q5 138 5 225v250q0 77 10.5 118t46.5 62.5t110 21.5q53 0 53 -10q0 -5 -11 -5q-12 0 -20 1l-51 1q-59 0 -87.5 -19.5t-37.5 -59t-9 -114.5v-246q0 -87 5 -225l1 -55q0 -17 -8 -17q-4 0 -6.5 5z" />
    <glyph glyph-name="florin" unicode="&#x192;" horiz-adv-x="495" 
d="M360 498l-116 2v-508q0 -76 -10.5 -115t-45.5 -58t-110 -19q-53 0 -53 10q0 5 11 5q12 0 20 -1l50 -1q60 0 88.5 17.5t37 54.5t8.5 111v504q-37 1 -130 1q-4 0 -4 2t4 2q93 0 130 1v36q0 77 10.5 118t46.5 62.5t110 21.5q53 0 53 -10q0 -5 -11 -5q-12 0 -20 1l-51 1
q-60 0 -88.5 -19.5t-37 -59t-8.5 -114.5v-32l122 3l71 1q15 0 19 -1t4 -5t-4.5 -5.5t-18.5 -1.5q-47 0 -77 1z" />
    <glyph glyph-name="Ohorn" unicode="&#x1a0;" horiz-adv-x="860" 
d="M245 30q-86 46 -138 129.5t-52 191.5q0 107 52 190t138 129t185 46q73 0 142 -26h127q42 0 62 13.5t24.5 31.5t4.5 43q0 35 -6 50l-1 5q0 7 7 7q6 0 9 -14t3 -32q0 -52 -21.5 -79.5t-81.5 -27.5h-120q101 -41 163.5 -129.5t62.5 -206.5q0 -108 -52 -191.5t-138 -129.5
t-185 -46t-185 46zM110.5 161q51.5 -83 136.5 -128t183 -45t183 45t136.5 128t51.5 190q0 106 -51.5 188.5t-136.5 127.5t-183 45t-183 -45t-136.5 -127.5t-51.5 -188.5q0 -107 51.5 -190z" />
    <glyph glyph-name="ohorn" unicode="&#x1a1;" 
d="M189 16q-62 32 -100.5 92.5t-38.5 141.5t38.5 141.5t100.5 92.5t131 32q59 0 117 -25h44q42 0 62 13.5t24.5 31.5t4.5 43q0 35 -6 50l-1 5q0 7 7 7q6 0 9 -14t3 -32q0 -52 -21.5 -79.5t-81.5 -27.5h-38q66 -32 106.5 -93t40.5 -145q0 -81 -38.5 -141.5t-100.5 -92.5
t-131 -32t-131 32zM91.5 110.5q37.5 -59.5 98.5 -91t130 -31.5t130 31.5t98.5 91t37.5 139.5t-37.5 139.5t-98.5 91t-130 31.5t-130 -31.5t-98.5 -91t-37.5 -139.5t37.5 -139.5z" />
    <glyph glyph-name="Uhorn" unicode="&#x1af;" horiz-adv-x="770" 
d="M153.5 60q-82.5 76 -82.5 221v156q0 93 -5 203l-1 46q0 19 9 19q8 0 8 -19l-2 -46q-5 -110 -5 -203v-156q0 -143 81.5 -218t228.5 -75t228.5 75t81.5 218v156q0 93 -5 203l-2 46q0 19 8 19h1q7 0 24 -1.5t34 -1.5q30 0 39.5 21t9.5 56q0 34 -6 49l-1 5q0 7 7 7q6 0 9 -14
t3 -32q0 -50 -17.5 -75t-58.5 -25l-36 1q1 -2 1 -9l-1 -46q-5 -110 -5 -203v-156q0 -145 -82.5 -221t-231.5 -76t-231.5 76z" />
    <glyph glyph-name="uhorn" unicode="&#x1b0;" 
d="M128 47q-57 62 -57 183v56q0 47 -2 94.5t-2 64.5l-2 44q0 7 2.5 12t6.5 5q7 0 7 -17l-2 -44q0 -17 -2 -64.5t-2 -94.5v-54q0 -243 222 -243q119 0 181 67.5t62 191.5v38q0 48 -2 97t-2 66l-2 40q0 7 2.5 12t6.5 5q51 -3 59 -3q30 0 39.5 21t9.5 56q0 34 -6 49l-1 5
q0 7 7 7q6 0 9 -14t3 -32q0 -50 -17.5 -75t-58.5 -25l-38 1q1 -2 1 -7l-2 -40q0 -17 -2 -66t-2 -97v-151q0 -68 12.5 -96.5t41.5 -28.5q12 0 12 -6q0 -8 -12 -8q-22 0 -40 28t-18 106v59q-14 -98 -76 -151t-167 -53q-112 0 -169 62z" />
    <glyph glyph-name="uni01CD" unicode="&#x1cd;" horiz-adv-x="820" 
d="M108.5 10q-25.5 18 -42 49t-16.5 66q0 36 19 66.5t57.5 49t92.5 18.5q79 0 203.5 -53.5t346.5 -205.5q-56 112 -199 375l-181 334l-93 -162q-78 -135 -115 -212q-4 -10 -7 -13.5t-8 -3.5q-8 0 -8 9q0 5 2 8l26 42q57 87 106 172l96 167h2l184 -340q78 -144 180 -321
q20 -34 22 -38q4 -8 4 -13q0 -9 -10 -9q-5 0 -12 5q-214 149 -337 202t-202 53q-80 0 -122.5 -37.5t-42.5 -92.5q0 -45 24.5 -70t61.5 -40q4 -2 12.5 -5.5t12 -6t3.5 -5.5q0 -2 -3 -4t-8 -2q-23 0 -48.5 18zM299 838.5q-30 26.5 -45 40.5l-29 26l4 4l158 -146q71 62 120 114
l24 24l5 5t9 4q7 0 9 -6.5t-3 -10.5l-32 -25q-69 -54 -132 -110q-58 54 -88 80.5z" />
    <glyph glyph-name="uni01CE" unicode="&#x1ce;" horiz-adv-x="665" 
d="M99 13.5q-49 29.5 -49 93.5q0 48 34 78.5t122 45.5l117 20q73 13 113 30.5t56.5 43.5t16.5 66q0 66 -40 88.5t-113 22.5h-45q-88 0 -166 -10l-25 -2q-7 0 -7 4q0 10 51 14.5t121 4.5q86 0 134.5 -10.5t71 -37t22.5 -75.5q0 -42 -17.5 -68.5t-58.5 -44t-115 -30.5
l-116 -20q-87 -15 -119.5 -44t-32.5 -76q0 -63 47.5 -91t133.5 -28q72 0 134.5 18.5t100.5 53t38 80.5q0 8 2 13t5 5q9 0 6 -15q-1 -3 -4 -18t-3 -39q0 -81 64 -81q13 0 48 7l6 1q8 0 8 -5q0 -6 -13 -10t-29 -4q-37 0 -56.5 14t-26 37t-9.5 61q-21 -57 -98.5 -89.5
t-172.5 -32.5q-87 0 -136 29.5zM233 638.5q-30 26.5 -45 40.5l-29 26l4 4l158 -146q71 62 120 114l24 24l5 5t9 4q7 0 9 -6.5t-3 -10.5l-32 -25q-69 -54 -132 -110q-58 54 -88 80.5z" />
    <glyph glyph-name="uni01E4" unicode="&#x1e4;" horiz-adv-x="835" 
d="M417 119.5q-4 1.5 -4 5.5t4 6t15 2l60 -1q93 -4 212 -5q27 40 40.5 85.5t13.5 86.5q0 7 1 11.5t4 4.5q4 0 5 -5.5t1 -20.5v-29q-1 -22 -1 -100v-33h12q11 0 33 2l26 1q6 0 6 -5t-6 -5l-26 1q-22 2 -33 2h-12q1 -39 5 -71q2 -30 2 -38q0 -19 -8 -19q-9 0 -9 19q0 9 2 39
q4 75 4 70h-26h-32q-44 -63 -114.5 -101t-163.5 -38q-100 0 -185 43.5t-136.5 127t-51.5 196.5q0 112 53.5 195t141.5 126.5t189 43.5q65 0 121.5 -18t97.5 -46t61 -58q1 -1 1 -4q0 -4 -3 -5t-7 4q-35 49 -106.5 86t-165.5 37q-99 0 -186 -43t-140 -125t-53 -193
q0 -113 51 -195t135 -125t182 -43q95 0 163.5 37t110.5 98q-154 -2 -207 -4l-62 -1q-11 0 -15 1.5zM738 127h26v33q0 21 -3 81l-1 22q-10 -74 -51 -136h29z" />
    <glyph glyph-name="uni01E5" unicode="&#x1e5;" horiz-adv-x="600" 
d="M270 -70.5q-4 1.5 -4 5.5t4 6t15 2l38 -1q85 -5 180 -5h22q22 41 22 81q0 85 -77 85q-41 0 -82 -20.5t-99 -61.5q-59 -40 -96.5 -59t-76.5 -19q-36 0 -58.5 21t-22.5 54q0 40 35.5 76t86 60.5t93.5 32.5q-88 7 -134 53.5t-46 111.5q0 70 53 117t156 47q73 0 121.5 -21.5
t63.5 -61.5q0 31 21.5 51.5t62.5 20.5q5 0 8.5 -2t3.5 -4q0 -8 -10 -8q-39 0 -60.5 -12.5t-21.5 -44.5q0 -10 3.5 -18.5t3.5 -10.5q0 -5 -1 -6.5t-5 -1.5q-7 0 -7 12q0 46 -49 74.5t-134 28.5q-102 0 -153.5 -45.5t-51.5 -114.5t51.5 -115.5t152.5 -46.5q60 0 104 17.5
t66.5 47t22.5 63.5q0 10 -5 23q-2 4 2 5t5 -4q2 -10 2 -24q0 -35 -23.5 -65.5t-68 -48.5t-105.5 -18q-37 0 -95 -23.5t-101 -62.5t-43 -82q0 -31 21.5 -51t56.5 -20q37 0 73.5 19t93.5 58q60 41 102 62t86 21q40 0 59.5 -21.5t19.5 -67.5q0 -40 -22 -81h16q11 0 22.5 1.5
t21.5 1.5q6 0 6 -5t-6 -5q-10 0 -21.5 1.5t-22.5 1.5h-18q-34 -60 -106.5 -98.5t-166.5 -38.5q-75 0 -138 30q-19 8 -19 18q0 4 3.5 5t8.5 -1q42 -24 76 -34t72 -10q92 0 162 36t103 93h-19q-112 0 -180 -4l-38 -1q-11 0 -15 1.5z" />
    <glyph glyph-name="Gcaron" unicode="&#x1e6;" horiz-adv-x="835" 
d="M243 27.5q-85 43.5 -136.5 127t-51.5 196.5q0 112 53.5 195t141.5 126.5t189 43.5q65 0 121.5 -18t97.5 -46t61 -58q1 -1 1 -4q0 -4 -3 -5t-7 4q-35 49 -106.5 86t-165.5 37q-99 0 -186 -43t-140 -125t-53 -193q0 -113 51 -195t135 -125t182 -43q110 0 185 49.5
t110.5 121.5t35.5 140q0 7 1 11.5t4 4.5q4 0 5 -5.5t1 -20.5v-29q-1 -22 -1 -100q0 -49 5 -109q2 -30 2 -37q0 -19 -8 -19q-9 0 -9 19q0 7 2 37q4 48 4 109q0 21 -3 81l-1 22q-9 -71 -50.5 -135t-113.5 -104t-168 -40q-100 0 -185 43.5zM339 838.5q-30 26.5 -45 40.5l-29 26
l4 4l158 -146q71 62 120 114l24 24l5 5t9 4q7 0 9 -6.5t-3 -10.5l-32 -25q-69 -54 -132 -110q-58 54 -88 80.5z" />
    <glyph glyph-name="gcaron" unicode="&#x1e7;" horiz-adv-x="600" 
d="M116 -174q-19 8 -19 18q0 4 3.5 5t8.5 -1q42 -24 76 -34t72 -10q85 0 151.5 31t102.5 80.5t36 102.5q0 85 -77 85q-41 0 -82 -20.5t-99 -61.5q-59 -40 -96.5 -59t-76.5 -19q-36 0 -58.5 21t-22.5 54q0 40 35.5 76t86 60.5t93.5 32.5q-88 7 -134 53.5t-46 111.5
q0 70 53 117t156 47q73 0 121.5 -21.5t63.5 -61.5q0 31 21.5 51.5t62.5 20.5q5 0 8.5 -2t3.5 -4q0 -8 -10 -8q-39 0 -60.5 -12.5t-21.5 -44.5q0 -10 3.5 -18.5t3.5 -10.5q0 -5 -1 -6.5t-5 -1.5q-7 0 -7 12q0 46 -49 74.5t-134 28.5q-102 0 -153.5 -45.5t-51.5 -114.5
t51.5 -115.5t152.5 -46.5q60 0 104 17.5t66.5 47t22.5 63.5q0 10 -5 23q-2 4 2 5t5 -4q2 -10 2 -24q0 -35 -23.5 -65.5t-68 -48.5t-105.5 -18q-37 0 -95 -23.5t-101 -62.5t-43 -82q0 -31 21.5 -51t56.5 -20q37 0 73.5 19t93.5 58q60 41 102 62t86 21q40 0 59.5 -21.5
t19.5 -67.5q0 -55 -38 -106.5t-106 -83.5t-153 -32q-75 0 -138 30zM187 638.5q-30 26.5 -45 40.5l-29 26l4 4l158 -146q71 62 120 114l24 24l5 5t9 4q7 0 9 -6.5t-3 -10.5l-32 -25q-69 -54 -132 -110q-58 54 -88 80.5z" />
    <glyph glyph-name="uni01E8" unicode="&#x1e8;" horiz-adv-x="735" 
d="M35 4q0 7 19 7q5 0 14.5 -2.5t23.5 -2.5q30 0 39 15.5t9 54.5v551q0 31 6.5 47t23.5 21h-29q-37 0 -57.5 -2.5t-27.5 -2.5q-21 0 -21 6q0 7 21 7q7 0 27.5 -1.5t57.5 -1.5h14q39 0 54.5 2t21.5 2q19 0 19 -8q0 -7 -19 -7q-5 0 -14.5 2.5t-23.5 2.5q-30 0 -39.5 -15.5
t-9.5 -54.5v-551q0 -28 -4 -41l441 550q53 67 78.5 95t33.5 28q7 0 7 -7q0 -3 -8 -10t-11 -9q-3 -3 -30.5 -27.5t-65.5 -71.5l-196 -244l237 -257q33 -36 64 -60q15 -12 15 -17q0 -7 -7 -7q-4 0 -9 5t-10 11t-8 9q-29 34 -48 55l-237 258l-251 -312q-6 -11 -20 -16h29
q37 0 57.5 2.5t27.5 2.5q21 0 21 -6q0 -7 -21 -7q-7 0 -27.5 1.5t-57.5 1.5h-14q-39 0 -54.5 -2t-21.5 -2q-19 0 -19 8zM279 838.5q-30 26.5 -45 40.5l-29 26l4 4l158 -146q71 62 120 114l24 24l5 5t9 4q7 0 9 -6.5t-3 -10.5l-32 -25q-69 -54 -132 -110q-58 54 -88 80.5z
" />
    <glyph glyph-name="uni0218" unicode="&#x218;" horiz-adv-x="710" 
d="M177.5 9.5q-67.5 25.5 -97.5 57.5t-30 51q0 8 5 8t14 -17q19 -30 45 -55t84 -45.5t152 -20.5q125 0 213 43.5t88 129.5q0 56 -40 94.5t-97 62.5t-154 54q-93 29 -148 51.5t-93 58t-38 87.5q0 147 310 147q86 0 148 -11t62 -25q0 -5 -10 -5t-30 6q-40 9 -83 15t-119 6
q-119 0 -196.5 -27.5t-77.5 -104.5q0 -50 37 -85.5t92 -58t146 -50.5q98 -30 156 -54t98.5 -63.5t40.5 -97.5q0 -89 -88 -133t-218 -44q-104 0 -171.5 25.5zM295 -214q0 4 6 4q36 0 57 9t21 43q0 38 -24 96v1q0 4 4 5.5t5 -2.5q21 -51 21 -87q0 -46 -25 -61t-53 -15
q-12 0 -12 7z" />
    <glyph glyph-name="uni0219" unicode="&#x219;" horiz-adv-x="555" 
d="M143.5 2q-56.5 18 -86.5 39q-7 6 -7 11q0 7 7 7q2 0 9 -5q2 -2 24 -20t71.5 -32t112.5 -14q101 0 164 32.5t63 99.5q0 47 -31 75t-75.5 42t-118.5 29q-71 15 -112 27.5t-69 37t-28 65.5q0 54 53.5 85.5t168.5 31.5q64 0 117 -5.5t53 -15.5q0 -4 -7 -4q-8 0 -26 3
q-85 11 -164 11h-25q-80 0 -123 -28.5t-43 -77.5q0 -39 27.5 -63t68.5 -36.5t110 -26.5q76 -16 120.5 -30t76 -43t31.5 -77q0 -69 -64 -102.5t-169 -33.5q-72 0 -128.5 18zM220 -219q0 4 6 4q36 0 57 9t21 43q0 38 -24 96v1q0 4 4 5.5t5 -2.5q21 -51 21 -87q0 -46 -25 -61
t-53 -15q-12 0 -12 7z" />
    <glyph glyph-name="uni021A" unicode="&#x21a;" horiz-adv-x="695" 
d="M177 4q0 7 19 7q6 0 27.5 -2.5t69.5 -2.5q33 0 42.5 15t9.5 55v620h-30q-92 0 -215 -8l-46 -2q-19 0 -19 7q0 9 19 9h46q92 -2 215 -2h65q123 0 215 2h46q19 0 19 -9q0 -7 -19 -7l-46 2q-123 8 -215 8h-31v-623q0 -31 -6 -47t-23 -21h85q37 0 57 2.5t27 2.5q21 0 21 -6
q0 -7 -21 -7q-7 0 -27 1.5t-57 1.5h-70q-83 0 -108.5 -2t-30.5 -2q-19 0 -19 8zM290 -203q0 4 6 4q36 0 57 9t21 43q0 38 -24 96v1q0 4 4 5.5t5 -2.5q21 -51 21 -87q0 -46 -25 -61t-53 -15q-12 0 -12 7z" />
    <glyph glyph-name="uni021B" unicode="&#x21b;" horiz-adv-x="380" 
d="M170 10.5q-26 15.5 -33 41.5t-7 75v297q0 40 -9 55.5t-39 15.5q-10 0 -22.5 -2.5t-18.5 -2.5q-16 0 -16 7q0 8 16 8q7 0 22 -2.5t41 -2.5h45q-11 4 -15 13.5t-4 25.5q0 40 -2 78t-2 51l-2 35q0 17 7 17q9 0 9 -17l-2 -35q0 -13 -2 -51t-2 -78q0 -21 7 -30t30 -9
q80 0 108 2.5t34 2.5q18 0 18 -8q0 -7 -18 -7q-6 0 -37 3t-142 3h-32q19 -4 25.5 -21.5t6.5 -49.5v-297q0 -50 7.5 -75.5t29 -37t65.5 -11.5t64.5 8.5t25.5 8.5q9 0 9 -7q0 -9 -25 -14t-59 -5q-55 0 -81 15.5zM159 -203q0 4 6 4q36 0 57 9t21 43q0 38 -24 96v1q0 4 4 5.5
t5 -2.5q21 -51 21 -87q0 -46 -25 -61t-53 -15q-12 0 -12 7z" />
    <glyph glyph-name="uni0237" unicode="&#x237;" horiz-adv-x="166" 
d="M-125 -193q0 6 10 6q5 0 21 -2q36 -3 45 -3q55 0 84 21t40 64t11 118v314q0 80 -5 142q-1 10 -1 21q0 17 7 17q9 0 9 -17q0 -11 -1 -21q-5 -62 -5 -142v-315q0 -78 -12.5 -123t-49.5 -68.5t-109 -23.5q-44 0 -44 12z" />
    <glyph glyph-name="uni0259" unicode="&#x259;" horiz-adv-x="613" 
d="M168 6.5q-54 22.5 -86 61.5t-32 86h494q15 47 15 93q0 81 -39.5 141t-103 92t-135.5 32q-54 0 -93.5 -17t-62.5 -38t-47 -49q-18 -23 -25 -23q-4 0 -4 5q0 12 30 43.5t82.5 57t119.5 25.5q73 0 137.5 -32.5t104.5 -94t40 -142.5q0 -80 -38.5 -140t-102 -91.5
t-137.5 -31.5q-63 0 -117 22.5zM85.5 69.5q30.5 -37.5 83 -59.5t116.5 -22q87 0 157.5 42.5t99.5 119.5h-487q0 -43 30.5 -80.5z" />
    <glyph glyph-name="circumflex" unicode="&#x2c6;" horiz-adv-x="370" 
d="M21 569.5q-2 6.5 3 10.5l32 25q69 54 132 110q58 -54 88 -80.5t45 -40.5l29 -26l-4 -4l-158 146q-71 -62 -120 -114l-24 -24l-5 -5t-9 -4q-7 0 -9 6.5z" />
    <glyph glyph-name="caron" unicode="&#x2c7;" horiz-adv-x="370" 
d="M94 638.5q-30 26.5 -45 40.5l-29 26l4 4l158 -146q71 62 120 114l24 24l5 5t9 4q7 0 9 -6.5t-3 -10.5l-32 -25q-69 -54 -132 -110q-58 54 -88 80.5z" />
    <glyph glyph-name="breve" unicode="&#x2d8;" horiz-adv-x="280" 
d="M76.5 590.5q-28.5 14.5 -42.5 37.5t-14 48q0 13 3 20.5t6 7.5t3 -8q0 -52 27.5 -84t84.5 -32q54 0 83 26.5t29 67.5q0 18 -5 31h4q5 -13 5 -31q0 -42 -30 -70t-86 -28q-39 0 -67.5 14.5z" />
    <glyph glyph-name="dotaccent" unicode="&#x2d9;" horiz-adv-x="68" 
d="M17 624q-7 7 -7 17t7 17t17 7t17 -7t7 -17t-7 -17t-17 -7t-17 7z" />
    <glyph glyph-name="ring" unicode="&#x2da;" horiz-adv-x="116" 
d="M24 607q-14 14 -14 34t14 34t34 14t34 -14t14 -34t-14 -34t-34 -14t-34 14zM26.5 610q12.5 -13 31.5 -13t31.5 13t12.5 31t-12.5 31t-31.5 13t-31.5 -13t-12.5 -31t12.5 -31z" />
    <glyph glyph-name="ogonek" unicode="&#x2db;" horiz-adv-x="265" 
d="M51 -147.5q-31 24.5 -31 59.5q0 38 39 65t115 27h66v-4h-66q-76 0 -113 -25.5t-37 -62.5q0 -31 26.5 -54.5t79.5 -23.5q29 0 47.5 6t38.5 17q3 2 10 5t11 3t6 -2t2 -4q0 -6 -13 -13.5t-36 -12.5t-51 -5q-63 0 -94 24.5z" />
    <glyph glyph-name="tilde" unicode="&#x2dc;" horiz-adv-x="405" 
d="M245.5 604.5q-19.5 9.5 -44.5 27.5q-24 17 -41.5 25.5t-40.5 8.5q-33 0 -52 -12.5t-34 -32.5q-10 -14 -16 -14q-7 0 -7 7q0 10 13.5 23.5t37 23t53.5 9.5q26 0 45.5 -9.5t44.5 -27.5q24 -17 41.5 -25.5t40.5 -8.5q33 0 52 12.5t34 32.5q11 14 16 14q7 0 7 -7
q0 -8 -13.5 -22t-37.5 -24t-53 -10q-26 0 -45.5 9.5z" />
    <glyph glyph-name="hungarumlaut" unicode="&#x2dd;" horiz-adv-x="380" 
d="M20 576l191 129q5 4 10 4q3 0 5 -2t2 -4q0 -6 -9 -12l-198 -117zM152 576l191 129q5 4 10 4q3 0 5 -2t2 -4q0 -6 -9 -12l-198 -117z" />
    <glyph glyph-name="gravecomb" unicode="&#x300;" horiz-adv-x="0" 
d="M20 703q0 6 7 6q5 0 10 -4l191 -129l-1 -2l-198 117q-9 6 -9 12z" />
    <glyph glyph-name="acutecomb" unicode="&#x301;" horiz-adv-x="0" 
d="M20 576l191 129q5 4 10 4q3 0 5 -2t2 -4q0 -6 -9 -12l-198 -117z" />
    <glyph glyph-name="uni0302" unicode="&#x302;" horiz-adv-x="0" 
d="M21 569.5q-2 6.5 3 10.5l32 25q69 54 132 110q58 -54 88 -80.5t45 -40.5l29 -26l-4 -4l-158 146q-71 -62 -120 -114l-24 -24l-5 -5t-9 -4q-7 0 -9 6.5z" />
    <glyph glyph-name="tildecomb" unicode="&#x303;" horiz-adv-x="0" 
d="M245.5 604.5q-19.5 9.5 -44.5 27.5q-24 17 -41.5 25.5t-40.5 8.5q-33 0 -52 -12.5t-34 -32.5q-10 -14 -16 -14q-7 0 -7 7q0 10 13.5 23.5t37 23t53.5 9.5q26 0 45.5 -9.5t44.5 -27.5q24 -17 41.5 -25.5t40.5 -8.5q33 0 52 12.5t34 32.5q11 14 16 14q7 0 7 -7
q0 -8 -13.5 -22t-37.5 -24t-53 -10q-26 0 -45.5 9.5z" />
    <glyph glyph-name="uni0304" unicode="&#x304;" horiz-adv-x="0" 
d="M20 635h315v-4h-315v4z" />
    <glyph glyph-name="uni0306" unicode="&#x306;" horiz-adv-x="0" 
d="M76.5 590.5q-28.5 14.5 -42.5 37.5t-14 48q0 13 3 20.5t6 7.5t3 -8q0 -52 27.5 -84t84.5 -32q54 0 83 26.5t29 67.5q0 18 -5 31h4q5 -13 5 -31q0 -42 -30 -70t-86 -28q-39 0 -67.5 14.5z" />
    <glyph glyph-name="uni0307" unicode="&#x307;" horiz-adv-x="0" 
d="M17 624q-7 7 -7 17t7 17t17 7t17 -7t7 -17t-7 -17t-17 -7t-17 7z" />
    <glyph glyph-name="uni0308" unicode="&#x308;" horiz-adv-x="0" 
d="M27 624q-7 7 -7 17t7 17t17 7t17 -7t7 -17t-7 -17t-17 -7t-17 7zM169 624q-7 7 -7 17t7 17t17 7t17 -7t7 -17t-7 -17t-17 -7t-17 7z" />
    <glyph glyph-name="hookabovecomb" unicode="&#x309;" horiz-adv-x="0" 
d="M83 568q-7 3 -7 6q0 1 2.5 2t5.5 1q48 0 75 15.5t27 47.5q0 30 -23 48t-60 18q-35 0 -56.5 -16.5t-21.5 -47.5q0 -4 -2.5 -4t-2.5 4q0 32 24 50t59 18q37 0 62 -19t25 -52q0 -35 -26 -54.5t-61 -19.5q-13 0 -20 3z" />
    <glyph glyph-name="uni030A" unicode="&#x30a;" horiz-adv-x="0" 
d="M24 607q-14 14 -14 34t14 34t34 14t34 -14t14 -34t-14 -34t-34 -14t-34 14zM26.5 610q12.5 -13 31.5 -13t31.5 13t12.5 31t-12.5 31t-31.5 13t-31.5 -13t-12.5 -31t12.5 -31z" />
    <glyph glyph-name="uni030B" unicode="&#x30b;" horiz-adv-x="0" 
d="M20 576l191 129q5 4 10 4q3 0 5 -2t2 -4q0 -6 -9 -12l-198 -117zM152 576l191 129q5 4 10 4q3 0 5 -2t2 -4q0 -6 -9 -12l-198 -117z" />
    <glyph glyph-name="uni030C" unicode="&#x30c;" horiz-adv-x="0" 
d="M94 638.5q-30 26.5 -45 40.5l-29 26l4 4l158 -146q71 62 120 114l24 24l5 5t9 4q7 0 9 -6.5t-3 -10.5l-32 -25q-69 -54 -132 -110q-58 54 -88 80.5z" />
    <glyph glyph-name="uni0312" unicode="&#x312;" horiz-adv-x="0" 
d="M150 698q0 -4 -6 -4q-26 0 -44.5 -4.5t-32 -22t-13.5 -54.5q0 -32 9.5 -61t24.5 -63v-1q0 -4 -4.5 -6t-5.5 2q-12 29 -20 58.5t-8 68.5q0 93 88 93q12 0 12 -6z" />
    <glyph glyph-name="uni031B" unicode="&#x31b;" horiz-adv-x="0" 
d="M20 511v9q51 -3 59 -3q30 0 39.5 21t9.5 56q0 34 -6 49l-1 5q0 7 7 7q6 0 9 -14t3 -32q0 -50 -17.5 -75t-58.5 -25q-20 0 -44 2z" />
    <glyph glyph-name="dotbelowcomb" unicode="&#x323;" horiz-adv-x="0" 
d="M57 -140q-7 7 -7 17t7 17t17 7t17 -7t7 -17t-7 -17t-17 -7t-17 7z" />
    <glyph glyph-name="uni0326" unicode="&#x326;" horiz-adv-x="0" 
d="M20 -203q0 4 6 4q36 0 57 9t21 43q0 38 -24 96v1q0 4 4 5.5t5 -2.5q21 -51 21 -87q0 -46 -25 -61t-53 -15q-12 0 -12 7z" />
    <glyph glyph-name="uni0327" unicode="&#x327;" horiz-adv-x="0" 
d="M76.5 -195q-26.5 5 -41.5 12.5t-15 13.5t8 6q9 0 23 -8q24 -11 45.5 -17t54.5 -6q52 0 73.5 16.5t21.5 39.5q0 28 -37.5 45t-131.5 17l75 76h5l-73 -73q91 0 128.5 -17t37.5 -48q0 -25 -26 -43.5t-87 -18.5q-34 0 -60.5 5z" />
    <glyph glyph-name="uni0328" unicode="&#x328;" horiz-adv-x="0" 
d="M51 -147.5q-31 24.5 -31 59.5q0 38 39 65t115 27h66v-4h-66q-76 0 -113 -25.5t-37 -62.5q0 -31 26.5 -54.5t79.5 -23.5q29 0 47.5 6t38.5 17q3 2 10 5t11 3t6 -2t2 -4q0 -6 -13 -13.5t-36 -12.5t-51 -5q-63 0 -94 24.5z" />
    <glyph glyph-name="uni03BC" unicode="&#x3bc;" horiz-adv-x="646" 
d="M71 -188l1 23q5 62 5 140v311q0 47 -2 94.5t-2 64.5l-2 44q0 17 8 17t8 -17l-2 -44q0 -17 -2 -64.5t-2 -94.5v-54q0 -243 222 -243q119 0 181 67.5t62 191.5v38q0 48 -2 97t-2 66l-2 40q0 7 2.5 12t6.5 5q7 0 7 -17l-2 -40q0 -17 -2 -66t-2 -97v-151q0 -68 12.5 -96.5
t41.5 -28.5q12 0 12 -6q0 -8 -12 -8q-22 0 -40 28t-18 106v60q-13 -98 -75.5 -151.5t-167.5 -53.5q-197 0 -222 187v-197q0 -78 5 -140l1 -23q0 -17 -9 -17q-7 0 -7 17z" />
    <glyph glyph-name="uni0E3F" unicode="&#xe3f;" horiz-adv-x="490" 
d="M107.5 110q-48.5 13 -73.5 31q-4 3 -4 7q0 2 2 4t5 2q4 0 28 -14.5t62.5 -26.5t94.5 -12h5l1 74v232q-18 0 -27.5 -0.5t-15.5 -0.5q-15 0 -15 7t14 7q7 0 17.5 -1t26.5 -2v58q0 49 -2 117l-1 34h-186v-184q0 -91 4 -163l1 -37q0 -15 -8 -15q-4 0 -5 3t-1 12l1 37
q4 72 4 163q0 93 -3 183q0 7 7 7q3 0 12 -1t22 -1h152l-2 40l-2 49q0 16 8 16q9 0 9 -16q0 -18 -1 -31l-2 -58h10q73 0 115.5 -27t42.5 -80q0 -54 -46 -82t-125 -28v-3q88 0 145.5 -40t57.5 -116q0 -74 -55 -113.5t-147 -43.5l3 -59l2 -27q0 -16 -9 -16q-7 0 -7 16l2 27
l3 59h-12q-59 0 -107.5 13zM233 101q89 2 143.5 41t54.5 112q0 74 -54.5 113t-144.5 40v-232zM243 417q73 0 114.5 27.5t41.5 78.5t-40.5 77t-112.5 26h-11q-3 -63 -3 -151v-58h11z" />
    <glyph glyph-name="uni1E20" unicode="&#x1e20;" horiz-adv-x="835" 
d="M243 27.5q-85 43.5 -136.5 127t-51.5 196.5q0 112 53.5 195t141.5 126.5t189 43.5q65 0 121.5 -18t97.5 -46t61 -58q1 -1 1 -4q0 -4 -3 -5t-7 4q-35 49 -106.5 86t-165.5 37q-99 0 -186 -43t-140 -125t-53 -193q0 -113 51 -195t135 -125t182 -43q110 0 185 49.5
t110.5 121.5t35.5 140q0 7 1 11.5t4 4.5q4 0 5 -5.5t1 -20.5v-29q-1 -22 -1 -100q0 -49 5 -109q2 -30 2 -37q0 -19 -8 -19q-9 0 -9 19q0 7 2 37q4 48 4 109q0 21 -3 81l-1 22q-9 -71 -50.5 -135t-113.5 -104t-168 -40q-100 0 -185 43.5zM272 835h315v-4h-315v4z" />
    <glyph glyph-name="uni1E21" unicode="&#x1e21;" horiz-adv-x="600" 
d="M116 -174q-19 8 -19 18q0 4 3.5 5t8.5 -1q42 -24 76 -34t72 -10q85 0 151.5 31t102.5 80.5t36 102.5q0 85 -77 85q-41 0 -82 -20.5t-99 -61.5q-59 -40 -96.5 -59t-76.5 -19q-36 0 -58.5 21t-22.5 54q0 40 35.5 76t86 60.5t93.5 32.5q-88 7 -134 53.5t-46 111.5
q0 70 53 117t156 47q73 0 121.5 -21.5t63.5 -61.5q0 31 21.5 51.5t62.5 20.5q5 0 8.5 -2t3.5 -4q0 -8 -10 -8q-39 0 -60.5 -12.5t-21.5 -44.5q0 -10 3.5 -18.5t3.5 -10.5q0 -5 -1 -6.5t-5 -1.5q-7 0 -7 12q0 46 -49 74.5t-134 28.5q-102 0 -153.5 -45.5t-51.5 -114.5
t51.5 -115.5t152.5 -46.5q60 0 104 17.5t66.5 47t22.5 63.5q0 10 -5 23q-2 4 2 5t5 -4q2 -10 2 -24q0 -35 -23.5 -65.5t-68 -48.5t-105.5 -18q-37 0 -95 -23.5t-101 -62.5t-43 -82q0 -31 21.5 -51t56.5 -20q37 0 73.5 19t93.5 58q60 41 102 62t86 21q40 0 59.5 -21.5
t19.5 -67.5q0 -55 -38 -106.5t-106 -83.5t-153 -32q-75 0 -138 30zM120 635h315v-4h-315v4z" />
    <glyph glyph-name="Wgrave" unicode="&#x1e80;" horiz-adv-x="1185" 
d="M99.5 592.5q-48.5 85.5 -52.5 92.5q-2 4 -2 8q0 8 9 8q8 0 13 -12q4 -8 25 -53q77 -163 151 -308l168 -335l89 146l119 197q-158 311 -180 349q-4 10 -4 11q0 5 5 8q7 4 37 8t70 4q86 0 147 -24t61 -88q0 -28 -25 -80t-106 -188l4 -8l168 -335q161 264 226.5 374t89 160
t23.5 77q0 56 -51.5 76t-134.5 20q-57 0 -106 -7q-22 -3 -24 -1t-2 3q0 4 6 7q8 5 37 9.5t75 4.5q84 0 144.5 -24t60.5 -88q0 -28 -23.5 -77t-86 -154t-234.5 -387h-1l-171 340l-3 6q-142 -234 -156 -257l-54 -89h-1l-171 340q-91 181 -139.5 266.5zM536 509
q21 -41 42.5 -83t43.5 -85q78 132 103 183.5t25 79.5q0 56 -52.5 76t-140.5 20q-72 0 -113 -9q15 -32 92 -182zM488 903q0 6 7 6q5 0 10 -4l191 -129l-1 -2l-198 117q-9 6 -9 12z" />
    <glyph glyph-name="wgrave" unicode="&#x1e81;" horiz-adv-x="916" 
d="M90 396q-30 53 -36 63l-16 28q-3 5 -3 11q0 7 7 7q3 0 5.5 -3.5t4.5 -8.5l17 -35q35 -78 86 -177l147 -288q124 180 174 258l-15 29q-44 86 -76.5 142.5t-35.5 62.5q-2 4 -2 7q0 5 6 8q5 3 37.5 7t62.5 4q54 0 85.5 -16.5t31.5 -59.5q0 -24 -22 -68t-68 -117l133 -257
q145 211 204.5 308t59.5 135q0 37 -35 49.5t-96 12.5q-25 0 -47.5 -2.5t-31.5 -2.5q-8 0 -10 3q-3 4 3 7q3 3 24 5.5t48 2.5q149 0 149 -76q0 -39 -58 -133.5t-210 -315.5h-1l-134 261q-51 -79 -133 -197q-6 -10 -43 -64h-1l-149 293q-32 64 -62 117zM464 282l14 -27
q45 71 66.5 114.5t21.5 66.5q0 36 -27 49t-80 13q-38 0 -69 -4t-36 -7q55 -99 110 -205zM353 703q0 6 7 6q5 0 10 -4l191 -129l-1 -2l-198 117q-9 6 -9 12z" />
    <glyph glyph-name="Wacute" unicode="&#x1e82;" horiz-adv-x="1185" 
d="M99.5 592.5q-48.5 85.5 -52.5 92.5q-2 4 -2 8q0 8 9 8q8 0 13 -12q4 -8 25 -53q77 -163 151 -308l168 -335l89 146l119 197q-158 311 -180 349q-4 10 -4 11q0 5 5 8q7 4 37 8t70 4q86 0 147 -24t61 -88q0 -28 -25 -80t-106 -188l4 -8l168 -335q161 264 226.5 374t89 160
t23.5 77q0 56 -51.5 76t-134.5 20q-57 0 -106 -7q-22 -3 -24 -1t-2 3q0 4 6 7q8 5 37 9.5t75 4.5q84 0 144.5 -24t60.5 -88q0 -28 -23.5 -77t-86 -154t-234.5 -387h-1l-171 340l-3 6q-142 -234 -156 -257l-54 -89h-1l-171 340q-91 181 -139.5 266.5zM536 509
q21 -41 42.5 -83t43.5 -85q78 132 103 183.5t25 79.5q0 56 -52.5 76t-140.5 20q-72 0 -113 -9q15 -32 92 -182zM488 776l191 129q5 4 10 4q3 0 5 -2t2 -4q0 -6 -9 -12l-198 -117z" />
    <glyph glyph-name="wacute" unicode="&#x1e83;" horiz-adv-x="916" 
d="M90 396q-30 53 -36 63l-16 28q-3 5 -3 11q0 7 7 7q3 0 5.5 -3.5t4.5 -8.5l17 -35q35 -78 86 -177l147 -288q124 180 174 258l-15 29q-44 86 -76.5 142.5t-35.5 62.5q-2 4 -2 7q0 5 6 8q5 3 37.5 7t62.5 4q54 0 85.5 -16.5t31.5 -59.5q0 -24 -22 -68t-68 -117l133 -257
q145 211 204.5 308t59.5 135q0 37 -35 49.5t-96 12.5q-25 0 -47.5 -2.5t-31.5 -2.5q-8 0 -10 3q-3 4 3 7q3 3 24 5.5t48 2.5q149 0 149 -76q0 -39 -58 -133.5t-210 -315.5h-1l-134 261q-51 -79 -133 -197q-6 -10 -43 -64h-1l-149 293q-32 64 -62 117zM464 282l14 -27
q45 71 66.5 114.5t21.5 66.5q0 36 -27 49t-80 13q-38 0 -69 -4t-36 -7q55 -99 110 -205zM353 576l191 129q5 4 10 4q3 0 5 -2t2 -4q0 -6 -9 -12l-198 -117z" />
    <glyph glyph-name="Wdieresis" unicode="&#x1e84;" horiz-adv-x="1185" 
d="M99.5 592.5q-48.5 85.5 -52.5 92.5q-2 4 -2 8q0 8 9 8q8 0 13 -12q4 -8 25 -53q77 -163 151 -308l168 -335l89 146l119 197q-158 311 -180 349q-4 10 -4 11q0 5 5 8q7 4 37 8t70 4q86 0 147 -24t61 -88q0 -28 -25 -80t-106 -188l4 -8l168 -335q161 264 226.5 374t89 160
t23.5 77q0 56 -51.5 76t-134.5 20q-57 0 -106 -7q-22 -3 -24 -1t-2 3q0 4 6 7q8 5 37 9.5t75 4.5q84 0 144.5 -24t60.5 -88q0 -28 -23.5 -77t-86 -154t-234.5 -387h-1l-171 340l-3 6q-142 -234 -156 -257l-54 -89h-1l-171 340q-91 181 -139.5 266.5zM536 509
q21 -41 42.5 -83t43.5 -85q78 132 103 183.5t25 79.5q0 56 -52.5 76t-140.5 20q-72 0 -113 -9q15 -32 92 -182zM505 824q-7 7 -7 17t7 17t17 7t17 -7t7 -17t-7 -17t-17 -7t-17 7zM647 824q-7 7 -7 17t7 17t17 7t17 -7t7 -17t-7 -17t-17 -7t-17 7z" />
    <glyph glyph-name="wdieresis" unicode="&#x1e85;" horiz-adv-x="916" 
d="M90 396q-30 53 -36 63l-16 28q-3 5 -3 11q0 7 7 7q3 0 5.5 -3.5t4.5 -8.5l17 -35q35 -78 86 -177l147 -288q124 180 174 258l-15 29q-44 86 -76.5 142.5t-35.5 62.5q-2 4 -2 7q0 5 6 8q5 3 37.5 7t62.5 4q54 0 85.5 -16.5t31.5 -59.5q0 -24 -22 -68t-68 -117l133 -257
q145 211 204.5 308t59.5 135q0 37 -35 49.5t-96 12.5q-25 0 -47.5 -2.5t-31.5 -2.5q-8 0 -10 3q-3 4 3 7q3 3 24 5.5t48 2.5q149 0 149 -76q0 -39 -58 -133.5t-210 -315.5h-1l-134 261q-51 -79 -133 -197q-6 -10 -43 -64h-1l-149 293q-32 64 -62 117zM464 282l14 -27
q45 71 66.5 114.5t21.5 66.5q0 36 -27 49t-80 13q-38 0 -69 -4t-36 -7q55 -99 110 -205zM370 624q-7 7 -7 17t7 17t17 7t17 -7t7 -17t-7 -17t-17 -7t-17 7zM512 624q-7 7 -7 17t7 17t17 7t17 -7t7 -17t-7 -17t-17 -7t-17 7z" />
    <glyph glyph-name="uni1E9E" unicode="&#x1e9e;" horiz-adv-x="685" 
d="M196 2.5q-62 18.5 -104.5 45.5t-59.5 54q-2 2 -2 7q0 9 9 9q5 0 11 -8q17 -27 57 -55.5t98.5 -47.5t126.5 -19q74 0 141 22.5t110 69.5t43 116q0 92 -79.5 141t-218.5 49q-22 0 -33 -0.5t-19 -0.5q-17 0 -17 7q0 5 5 10l297 294h-496v-228q0 -93 5 -203l2 -46
q0 -19 -8 -19q-9 0 -9 19l1 46q5 110 5 203q0 114 -3 225q0 9 8 9q5 0 16 -1t26 -1h462l-299 -298q0 -6 17.5 -9t44.5 -3q134 0 215.5 -49.5t81.5 -144.5q0 -69 -43 -117t-111.5 -71.5t-146.5 -23.5q-71 0 -133 18.5z" />
    <glyph glyph-name="uni1EA0" unicode="&#x1ea0;" horiz-adv-x="820" 
d="M108.5 10q-25.5 18 -42 49t-16.5 66q0 36 19 66.5t57.5 49t92.5 18.5q79 0 203.5 -53.5t346.5 -205.5q-56 112 -199 375l-181 334l-93 -162q-78 -135 -115 -212q-4 -10 -7 -13.5t-8 -3.5q-8 0 -8 9q0 5 2 8l26 42q57 87 106 172l96 167h2l184 -340q78 -144 180 -321
q20 -34 22 -38q4 -8 4 -13q0 -9 -10 -9q-5 0 -12 5q-214 149 -337 202t-202 53q-80 0 -122.5 -37.5t-42.5 -92.5q0 -45 24.5 -70t61.5 -40q4 -2 12.5 -5.5t12 -6t3.5 -5.5q0 -2 -3 -4t-8 -2q-23 0 -48.5 18zM373 -140q-7 7 -7 17t7 17t17 7t17 -7t7 -17t-7 -17t-17 -7t-17 7
z" />
    <glyph glyph-name="uni1EA1" unicode="&#x1ea1;" horiz-adv-x="665" 
d="M99 13.5q-49 29.5 -49 93.5q0 48 34 78.5t122 45.5l117 20q73 13 113 30.5t56.5 43.5t16.5 66q0 66 -40 88.5t-113 22.5h-45q-88 0 -166 -10l-25 -2q-7 0 -7 4q0 10 51 14.5t121 4.5q86 0 134.5 -10.5t71 -37t22.5 -75.5q0 -42 -17.5 -68.5t-58.5 -44t-115 -30.5
l-116 -20q-87 -15 -119.5 -44t-32.5 -76q0 -63 47.5 -91t133.5 -28q72 0 134.5 18.5t100.5 53t38 80.5q0 8 2 13t5 5q9 0 6 -15q-1 -3 -4 -18t-3 -39q0 -81 64 -81q13 0 48 7l6 1q8 0 8 -5q0 -6 -13 -10t-29 -4q-37 0 -56.5 14t-26 37t-9.5 61q-21 -57 -98.5 -89.5
t-172.5 -32.5q-87 0 -136 29.5zM318 -140q-7 7 -7 17t7 17t17 7t17 -7t7 -17t-7 -17t-17 -7t-17 7z" />
    <glyph glyph-name="uni1EA2" unicode="&#x1ea2;" horiz-adv-x="820" 
d="M108.5 10q-25.5 18 -42 49t-16.5 66q0 36 19 66.5t57.5 49t92.5 18.5q79 0 203.5 -53.5t346.5 -205.5q-56 112 -199 375l-181 334l-93 -162q-78 -135 -115 -212q-4 -10 -7 -13.5t-8 -3.5q-8 0 -8 9q0 5 2 8l26 42q57 87 106 172l96 167h2l184 -340q78 -144 180 -321
q20 -34 22 -38q4 -8 4 -13q0 -9 -10 -9q-5 0 -12 5q-214 149 -337 202t-202 53q-80 0 -122.5 -37.5t-42.5 -92.5q0 -45 24.5 -70t61.5 -40q4 -2 12.5 -5.5t12 -6t3.5 -5.5q0 -2 -3 -4t-8 -2q-23 0 -48.5 18zM368 768q-7 3 -7 6q0 1 2.5 2t5.5 1q48 0 75 15.5t27 47.5
q0 30 -23 48t-60 18q-35 0 -56.5 -16.5t-21.5 -47.5q0 -4 -2.5 -4t-2.5 4q0 32 24 50t59 18q37 0 62 -19t25 -52q0 -35 -26 -54.5t-61 -19.5q-13 0 -20 3z" />
    <glyph glyph-name="uni1EA3" unicode="&#x1ea3;" horiz-adv-x="665" 
d="M99 13.5q-49 29.5 -49 93.5q0 48 34 78.5t122 45.5l117 20q73 13 113 30.5t56.5 43.5t16.5 66q0 66 -40 88.5t-113 22.5h-45q-88 0 -166 -10l-25 -2q-7 0 -7 4q0 10 51 14.5t121 4.5q86 0 134.5 -10.5t71 -37t22.5 -75.5q0 -42 -17.5 -68.5t-58.5 -44t-115 -30.5
l-116 -20q-87 -15 -119.5 -44t-32.5 -76q0 -63 47.5 -91t133.5 -28q72 0 134.5 18.5t100.5 53t38 80.5q0 8 2 13t5 5q9 0 6 -15q-1 -3 -4 -18t-3 -39q0 -81 64 -81q13 0 48 7l6 1q8 0 8 -5q0 -6 -13 -10t-29 -4q-37 0 -56.5 14t-26 37t-9.5 61q-21 -57 -98.5 -89.5
t-172.5 -32.5q-87 0 -136 29.5zM302 568q-7 3 -7 6q0 1 2.5 2t5.5 1q48 0 75 15.5t27 47.5q0 30 -23 48t-60 18q-35 0 -56.5 -16.5t-21.5 -47.5q0 -4 -2.5 -4t-2.5 4q0 32 24 50t59 18q37 0 62 -19t25 -52q0 -35 -26 -54.5t-61 -19.5q-13 0 -20 3z" />
    <glyph glyph-name="uni1EA4" unicode="&#x1ea4;" horiz-adv-x="820" 
d="M108.5 10q-25.5 18 -42 49t-16.5 66q0 36 19 66.5t57.5 49t92.5 18.5q79 0 203.5 -53.5t346.5 -205.5q-56 112 -199 375l-181 334l-93 -162q-78 -135 -115 -212q-4 -10 -7 -13.5t-8 -3.5q-8 0 -8 9q0 5 2 8l26 42q57 87 106 172l96 167h2l184 -340q78 -144 180 -321
q20 -34 22 -38q4 -8 4 -13q0 -9 -10 -9q-5 0 -12 5q-214 149 -337 202t-202 53q-80 0 -122.5 -37.5t-42.5 -92.5q0 -45 24.5 -70t61.5 -40q4 -2 12.5 -5.5t12 -6t3.5 -5.5q0 -2 -3 -4t-8 -2q-23 0 -48.5 18zM223 769.5q-2 6.5 3 10.5l32 25q69 54 132 110q58 -54 88 -80.5
t45 -40.5l29 -26l-4 -4l-158 146q-71 -62 -120 -114l-24 -24l-5 -5t-9 -4q-7 0 -9 6.5zM469 874l191 129q5 4 10 4q3 0 5 -2t2 -4q0 -6 -9 -12l-198 -117z" />
    <glyph glyph-name="uni1EA5" unicode="&#x1ea5;" horiz-adv-x="665" 
d="M99 13.5q-49 29.5 -49 93.5q0 48 34 78.5t122 45.5l117 20q73 13 113 30.5t56.5 43.5t16.5 66q0 66 -40 88.5t-113 22.5h-45q-88 0 -166 -10l-25 -2q-7 0 -7 4q0 10 51 14.5t121 4.5q86 0 134.5 -10.5t71 -37t22.5 -75.5q0 -42 -17.5 -68.5t-58.5 -44t-115 -30.5
l-116 -20q-87 -15 -119.5 -44t-32.5 -76q0 -63 47.5 -91t133.5 -28q72 0 134.5 18.5t100.5 53t38 80.5q0 8 2 13t5 5q9 0 6 -15q-1 -3 -4 -18t-3 -39q0 -81 64 -81q13 0 48 7l6 1q8 0 8 -5q0 -6 -13 -10t-29 -4q-37 0 -56.5 14t-26 37t-9.5 61q-21 -57 -98.5 -89.5
t-172.5 -32.5q-87 0 -136 29.5zM157 569.5q-2 6.5 3 10.5l32 25q69 54 132 110q58 -54 88 -80.5t45 -40.5l29 -26l-4 -4l-158 146q-71 -62 -120 -114l-24 -24l-5 -5t-9 -4q-7 0 -9 6.5zM403 674l191 129q5 4 10 4q3 0 5 -2t2 -4q0 -6 -9 -12l-198 -117z" />
    <glyph glyph-name="uni1EA6" unicode="&#x1ea6;" horiz-adv-x="820" 
d="M108.5 10q-25.5 18 -42 49t-16.5 66q0 36 19 66.5t57.5 49t92.5 18.5q79 0 203.5 -53.5t346.5 -205.5q-56 112 -199 375l-181 334l-93 -162q-78 -135 -115 -212q-4 -10 -7 -13.5t-8 -3.5q-8 0 -8 9q0 5 2 8l26 42q57 87 106 172l96 167h2l184 -340q78 -144 180 -321
q20 -34 22 -38q4 -8 4 -13q0 -9 -10 -9q-5 0 -12 5q-214 149 -337 202t-202 53q-80 0 -122.5 -37.5t-42.5 -92.5q0 -45 24.5 -70t61.5 -40q4 -2 12.5 -5.5t12 -6t3.5 -5.5q0 -2 -3 -4t-8 -2q-23 0 -48.5 18zM223 769.5q-2 6.5 3 10.5l32 25q69 54 132 110q58 -54 88 -80.5
t45 -40.5l29 -26l-4 -4l-158 146q-71 -62 -120 -114l-24 -24l-5 -5t-9 -4q-7 0 -9 6.5zM372 1015q0 2 2 4t5 2q5 0 10 -5l168 -158l-1 -2l-177 147q-7 6 -7 12z" />
    <glyph glyph-name="uni1EA7" unicode="&#x1ea7;" horiz-adv-x="665" 
d="M99 13.5q-49 29.5 -49 93.5q0 48 34 78.5t122 45.5l117 20q73 13 113 30.5t56.5 43.5t16.5 66q0 66 -40 88.5t-113 22.5h-45q-88 0 -166 -10l-25 -2q-7 0 -7 4q0 10 51 14.5t121 4.5q86 0 134.5 -10.5t71 -37t22.5 -75.5q0 -42 -17.5 -68.5t-58.5 -44t-115 -30.5
l-116 -20q-87 -15 -119.5 -44t-32.5 -76q0 -63 47.5 -91t133.5 -28q72 0 134.5 18.5t100.5 53t38 80.5q0 8 2 13t5 5q9 0 6 -15q-1 -3 -4 -18t-3 -39q0 -81 64 -81q13 0 48 7l6 1q8 0 8 -5q0 -6 -13 -10t-29 -4q-37 0 -56.5 14t-26 37t-9.5 61q-21 -57 -98.5 -89.5
t-172.5 -32.5q-87 0 -136 29.5zM157 569.5q-2 6.5 3 10.5l32 25q69 54 132 110q58 -54 88 -80.5t45 -40.5l29 -26l-4 -4l-158 146q-71 -62 -120 -114l-24 -24l-5 -5t-9 -4q-7 0 -9 6.5zM306 815q0 2 2 4t5 2q5 0 10 -5l168 -158l-1 -2l-177 147q-7 6 -7 12z" />
    <glyph glyph-name="uni1EA8" unicode="&#x1ea8;" horiz-adv-x="820" 
d="M108.5 10q-25.5 18 -42 49t-16.5 66q0 36 19 66.5t57.5 49t92.5 18.5q79 0 203.5 -53.5t346.5 -205.5q-56 112 -199 375l-181 334l-93 -162q-78 -135 -115 -212q-4 -10 -7 -13.5t-8 -3.5q-8 0 -8 9q0 5 2 8l26 42q57 87 106 172l96 167h2l184 -340q78 -144 180 -321
q20 -34 22 -38q4 -8 4 -13q0 -9 -10 -9q-5 0 -12 5q-214 149 -337 202t-202 53q-80 0 -122.5 -37.5t-42.5 -92.5q0 -45 24.5 -70t61.5 -40q4 -2 12.5 -5.5t12 -6t3.5 -5.5q0 -2 -3 -4t-8 -2q-23 0 -48.5 18zM228 769.5q-2 6.5 3 10.5l32 25q69 54 132 110q58 -54 88 -80.5
t45 -40.5l29 -26l-4 -4l-158 146q-71 -62 -120 -114l-24 -24l-5 -5t-9 -4q-7 0 -9 6.5zM505 892q-7 3 -7 6q0 1 2.5 2t5.5 1q48 0 75 15.5t27 47.5q0 30 -23 48t-60 18q-35 0 -56.5 -16.5t-21.5 -47.5q0 -4 -2.5 -4t-2.5 4q0 32 24 50t59 18q37 0 62 -19t25 -52
q0 -35 -26 -54.5t-61 -19.5q-13 0 -20 3z" />
    <glyph glyph-name="uni1EA9" unicode="&#x1ea9;" horiz-adv-x="665" 
d="M99 13.5q-49 29.5 -49 93.5q0 48 34 78.5t122 45.5l117 20q73 13 113 30.5t56.5 43.5t16.5 66q0 66 -40 88.5t-113 22.5h-45q-88 0 -166 -10l-25 -2q-7 0 -7 4q0 10 51 14.5t121 4.5q86 0 134.5 -10.5t71 -37t22.5 -75.5q0 -42 -17.5 -68.5t-58.5 -44t-115 -30.5
l-116 -20q-87 -15 -119.5 -44t-32.5 -76q0 -63 47.5 -91t133.5 -28q72 0 134.5 18.5t100.5 53t38 80.5q0 8 2 13t5 5q9 0 6 -15q-1 -3 -4 -18t-3 -39q0 -81 64 -81q13 0 48 7l6 1q8 0 8 -5q0 -6 -13 -10t-29 -4q-37 0 -56.5 14t-26 37t-9.5 61q-21 -57 -98.5 -89.5
t-172.5 -32.5q-87 0 -136 29.5zM162 569.5q-2 6.5 3 10.5l32 25q69 54 132 110q58 -54 88 -80.5t45 -40.5l29 -26l-4 -4l-158 146q-71 -62 -120 -114l-24 -24l-5 -5t-9 -4q-7 0 -9 6.5zM439 692q-7 3 -7 6q0 1 2.5 2t5.5 1q48 0 75 15.5t27 47.5q0 30 -23 48t-60 18
q-35 0 -56.5 -16.5t-21.5 -47.5q0 -4 -2.5 -4t-2.5 4q0 32 24 50t59 18q37 0 62 -19t25 -52q0 -35 -26 -54.5t-61 -19.5q-13 0 -20 3z" />
    <glyph glyph-name="uni1EAA" unicode="&#x1eaa;" horiz-adv-x="820" 
d="M108.5 10q-25.5 18 -42 49t-16.5 66q0 36 19 66.5t57.5 49t92.5 18.5q79 0 203.5 -53.5t346.5 -205.5q-56 112 -199 375l-181 334l-93 -162q-78 -135 -115 -212q-4 -10 -7 -13.5t-8 -3.5q-8 0 -8 9q0 5 2 8l26 42q57 87 106 172l96 167h2l184 -340q78 -144 180 -321
q20 -34 22 -38q4 -8 4 -13q0 -9 -10 -9q-5 0 -12 5q-214 149 -337 202t-202 53q-80 0 -122.5 -37.5t-42.5 -92.5q0 -45 24.5 -70t61.5 -40q4 -2 12.5 -5.5t12 -6t3.5 -5.5q0 -2 -3 -4t-8 -2q-23 0 -48.5 18zM419 959q-13 7 -30 21q-18 13 -28.5 19t-25.5 6q-24 0 -35 -9.5
t-18 -22.5t-11 -13q-5 0 -5 5q0 14 16.5 29.5t47.5 15.5q18 0 31 -7t30 -21q18 -13 28.5 -19t25.5 -6q24 0 35 9.5t18 22.5t11 13q5 0 5 -5q0 -8 -7 -18.5t-21.5 -18.5t-35.5 -8q-18 0 -31 7zM261 805q69 54 132 110q58 -54 88 -80.5t45 -40.5l29 -26l-4 -4l-158 146
q-71 -62 -120 -114l-24 -24l-5 -5t-9 -4q-7 0 -9 6.5t3 10.5z" />
    <glyph glyph-name="uni1EAB" unicode="&#x1eab;" horiz-adv-x="665" 
d="M99 13.5q-49 29.5 -49 93.5q0 48 34 78.5t122 45.5l117 20q73 13 113 30.5t56.5 43.5t16.5 66q0 66 -40 88.5t-113 22.5h-45q-88 0 -166 -10l-25 -2q-7 0 -7 4q0 10 51 14.5t121 4.5q86 0 134.5 -10.5t71 -37t22.5 -75.5q0 -42 -17.5 -68.5t-58.5 -44t-115 -30.5
l-116 -20q-87 -15 -119.5 -44t-32.5 -76q0 -63 47.5 -91t133.5 -28q72 0 134.5 18.5t100.5 53t38 80.5q0 8 2 13t5 5q9 0 6 -15q-1 -3 -4 -18t-3 -39q0 -81 64 -81q13 0 48 7l6 1q8 0 8 -5q0 -6 -13 -10t-29 -4q-37 0 -56.5 14t-26 37t-9.5 61q-21 -57 -98.5 -89.5
t-172.5 -32.5q-87 0 -136 29.5zM353 759q-13 7 -30 21q-18 13 -28.5 19t-25.5 6q-24 0 -35 -9.5t-18 -22.5t-11 -13q-5 0 -5 5q0 14 16.5 29.5t47.5 15.5q18 0 31 -7t30 -21q18 -13 28.5 -19t25.5 -6q24 0 35 9.5t18 22.5t11 13q5 0 5 -5q0 -8 -7 -18.5t-21.5 -18.5
t-35.5 -8q-18 0 -31 7zM195 605q69 54 132 110q58 -54 88 -80.5t45 -40.5l29 -26l-4 -4l-158 146q-71 -62 -120 -114l-24 -24l-5 -5t-9 -4q-7 0 -9 6.5t3 10.5z" />
    <glyph glyph-name="uni1EAC" unicode="&#x1eac;" horiz-adv-x="820" 
d="M108.5 10q-25.5 18 -42 49t-16.5 66q0 36 19 66.5t57.5 49t92.5 18.5q79 0 203.5 -53.5t346.5 -205.5q-56 112 -199 375l-181 334l-93 -162q-78 -135 -115 -212q-4 -10 -7 -13.5t-8 -3.5q-8 0 -8 9q0 5 2 8l26 42q57 87 106 172l96 167h2l184 -340q78 -144 180 -321
q20 -34 22 -38q4 -8 4 -13q0 -9 -10 -9q-5 0 -12 5q-214 149 -337 202t-202 53q-80 0 -122.5 -37.5t-42.5 -92.5q0 -45 24.5 -70t61.5 -40q4 -2 12.5 -5.5t12 -6t3.5 -5.5q0 -2 -3 -4t-8 -2q-23 0 -48.5 18zM373 -140q-7 7 -7 17t7 17t17 7t17 -7t7 -17t-7 -17t-17 -7t-17 7
zM226 769.5q-2 6.5 3 10.5l32 25q69 54 132 110q58 -54 88 -80.5t45 -40.5l29 -26l-4 -4l-158 146q-71 -62 -120 -114l-24 -24l-5 -5t-9 -4q-7 0 -9 6.5z" />
    <glyph glyph-name="uni1EAD" unicode="&#x1ead;" horiz-adv-x="665" 
d="M99 13.5q-49 29.5 -49 93.5q0 48 34 78.5t122 45.5l117 20q73 13 113 30.5t56.5 43.5t16.5 66q0 66 -40 88.5t-113 22.5h-45q-88 0 -166 -10l-25 -2q-7 0 -7 4q0 10 51 14.5t121 4.5q86 0 134.5 -10.5t71 -37t22.5 -75.5q0 -42 -17.5 -68.5t-58.5 -44t-115 -30.5
l-116 -20q-87 -15 -119.5 -44t-32.5 -76q0 -63 47.5 -91t133.5 -28q72 0 134.5 18.5t100.5 53t38 80.5q0 8 2 13t5 5q9 0 6 -15q-1 -3 -4 -18t-3 -39q0 -81 64 -81q13 0 48 7l6 1q8 0 8 -5q0 -6 -13 -10t-29 -4q-37 0 -56.5 14t-26 37t-9.5 61q-21 -57 -98.5 -89.5
t-172.5 -32.5q-87 0 -136 29.5zM318 -140q-7 7 -7 17t7 17t17 7t17 -7t7 -17t-7 -17t-17 -7t-17 7zM160 569.5q-2 6.5 3 10.5l32 25q69 54 132 110q58 -54 88 -80.5t45 -40.5l29 -26l-4 -4l-158 146q-71 -62 -120 -114l-24 -24l-5 -5t-9 -4q-7 0 -9 6.5z" />
    <glyph glyph-name="uni1EAE" unicode="&#x1eae;" horiz-adv-x="820" 
d="M108.5 10q-25.5 18 -42 49t-16.5 66q0 36 19 66.5t57.5 49t92.5 18.5q79 0 203.5 -53.5t346.5 -205.5q-56 112 -199 375l-181 334l-93 -162q-78 -135 -115 -212q-4 -10 -7 -13.5t-8 -3.5q-8 0 -8 9q0 5 2 8l26 42q57 87 106 172l96 167h2l184 -340q78 -144 180 -321
q20 -34 22 -38q4 -8 4 -13q0 -9 -10 -9q-5 0 -12 5q-214 149 -337 202t-202 53q-80 0 -122.5 -37.5t-42.5 -92.5q0 -45 24.5 -70t61.5 -40q4 -2 12.5 -5.5t12 -6t3.5 -5.5q0 -2 -3 -4t-8 -2q-23 0 -48.5 18zM326.5 790.5q-28.5 14.5 -42.5 37.5t-14 48q0 13 3 20.5t6 7.5
t3 -8q0 -52 27.5 -84t84.5 -32q54 0 83 26.5t29 67.5q0 18 -5 31h4q5 -13 5 -31q0 -42 -30 -70t-86 -28q-39 0 -67.5 14.5zM322 875l191 129q5 4 10 4q3 0 5 -2t2 -4q0 -6 -9 -12l-198 -117z" />
    <glyph glyph-name="uni1EAF" unicode="&#x1eaf;" horiz-adv-x="665" 
d="M99 13.5q-49 29.5 -49 93.5q0 48 34 78.5t122 45.5l117 20q73 13 113 30.5t56.5 43.5t16.5 66q0 66 -40 88.5t-113 22.5h-45q-88 0 -166 -10l-25 -2q-7 0 -7 4q0 10 51 14.5t121 4.5q86 0 134.5 -10.5t71 -37t22.5 -75.5q0 -42 -17.5 -68.5t-58.5 -44t-115 -30.5
l-116 -20q-87 -15 -119.5 -44t-32.5 -76q0 -63 47.5 -91t133.5 -28q72 0 134.5 18.5t100.5 53t38 80.5q0 8 2 13t5 5q9 0 6 -15q-1 -3 -4 -18t-3 -39q0 -81 64 -81q13 0 48 7l6 1q8 0 8 -5q0 -6 -13 -10t-29 -4q-37 0 -56.5 14t-26 37t-9.5 61q-21 -57 -98.5 -89.5
t-172.5 -32.5q-87 0 -136 29.5zM260.5 590.5q-28.5 14.5 -42.5 37.5t-14 48q0 13 3 20.5t6 7.5t3 -8q0 -52 27.5 -84t84.5 -32q54 0 83 26.5t29 67.5q0 18 -5 31h4q5 -13 5 -31q0 -42 -30 -70t-86 -28q-39 0 -67.5 14.5zM256 675l191 129q5 4 10 4q3 0 5 -2t2 -4
q0 -6 -9 -12l-198 -117z" />
    <glyph glyph-name="uni1EB0" unicode="&#x1eb0;" horiz-adv-x="820" 
d="M108.5 10q-25.5 18 -42 49t-16.5 66q0 36 19 66.5t57.5 49t92.5 18.5q79 0 203.5 -53.5t346.5 -205.5q-56 112 -199 375l-181 334l-93 -162q-78 -135 -115 -212q-4 -10 -7 -13.5t-8 -3.5q-8 0 -8 9q0 5 2 8l26 42q57 87 106 172l96 167h2l184 -340q78 -144 180 -321
q20 -34 22 -38q4 -8 4 -13q0 -9 -10 -9q-5 0 -12 5q-214 149 -337 202t-202 53q-80 0 -122.5 -37.5t-42.5 -92.5q0 -45 24.5 -70t61.5 -40q4 -2 12.5 -5.5t12 -6t3.5 -5.5q0 -2 -3 -4t-8 -2q-23 0 -48.5 18zM326.5 790.5q-28.5 14.5 -42.5 37.5t-14 48q0 13 3 20.5t6 7.5
t3 -8q0 -52 27.5 -84t84.5 -32q54 0 83 26.5t29 67.5q0 18 -5 31h4q5 -13 5 -31q0 -42 -30 -70t-86 -28q-39 0 -67.5 14.5zM280 1002q0 6 7 6q5 0 10 -4l191 -129l-1 -2l-198 117q-9 6 -9 12z" />
    <glyph glyph-name="uni1EB1" unicode="&#x1eb1;" horiz-adv-x="665" 
d="M99 13.5q-49 29.5 -49 93.5q0 48 34 78.5t122 45.5l117 20q73 13 113 30.5t56.5 43.5t16.5 66q0 66 -40 88.5t-113 22.5h-45q-88 0 -166 -10l-25 -2q-7 0 -7 4q0 10 51 14.5t121 4.5q86 0 134.5 -10.5t71 -37t22.5 -75.5q0 -42 -17.5 -68.5t-58.5 -44t-115 -30.5
l-116 -20q-87 -15 -119.5 -44t-32.5 -76q0 -63 47.5 -91t133.5 -28q72 0 134.5 18.5t100.5 53t38 80.5q0 8 2 13t5 5q9 0 6 -15q-1 -3 -4 -18t-3 -39q0 -81 64 -81q13 0 48 7l6 1q8 0 8 -5q0 -6 -13 -10t-29 -4q-37 0 -56.5 14t-26 37t-9.5 61q-21 -57 -98.5 -89.5
t-172.5 -32.5q-87 0 -136 29.5zM260.5 590.5q-28.5 14.5 -42.5 37.5t-14 48q0 13 3 20.5t6 7.5t3 -8q0 -52 27.5 -84t84.5 -32q54 0 83 26.5t29 67.5q0 18 -5 31h4q5 -13 5 -31q0 -42 -30 -70t-86 -28q-39 0 -67.5 14.5zM214 802q0 6 7 6q5 0 10 -4l191 -129l-1 -2l-198 117
q-9 6 -9 12z" />
    <glyph glyph-name="uni1EB2" unicode="&#x1eb2;" horiz-adv-x="820" 
d="M108.5 10q-25.5 18 -42 49t-16.5 66q0 36 19 66.5t57.5 49t92.5 18.5q79 0 203.5 -53.5t346.5 -205.5q-56 112 -199 375l-181 334l-93 -162q-78 -135 -115 -212q-4 -10 -7 -13.5t-8 -3.5q-8 0 -8 9q0 5 2 8l26 42q57 87 106 172l96 167h2l184 -340q78 -144 180 -321
q20 -34 22 -38q4 -8 4 -13q0 -9 -10 -9q-5 0 -12 5q-214 149 -337 202t-202 53q-80 0 -122.5 -37.5t-42.5 -92.5q0 -45 24.5 -70t61.5 -40q4 -2 12.5 -5.5t12 -6t3.5 -5.5q0 -2 -3 -4t-8 -2q-23 0 -48.5 18zM326.5 790.5q-28.5 14.5 -42.5 37.5t-14 48q0 13 3 20.5t6 7.5
t3 -8q0 -52 27.5 -84t84.5 -32q54 0 83 26.5t29 67.5q0 18 -5 31h4q5 -13 5 -31q0 -42 -30 -70t-86 -28q-39 0 -67.5 14.5zM363 882q-7 3 -7 6q0 1 2.5 2t5.5 1q48 0 75 15.5t27 47.5q0 30 -23 48t-60 18q-35 0 -56.5 -16.5t-21.5 -47.5q0 -4 -2.5 -4t-2.5 4q0 32 24 50
t59 18q37 0 62 -19t25 -52q0 -35 -26 -54.5t-61 -19.5q-13 0 -20 3z" />
    <glyph glyph-name="uni1EB3" unicode="&#x1eb3;" horiz-adv-x="665" 
d="M99 13.5q-49 29.5 -49 93.5q0 48 34 78.5t122 45.5l117 20q73 13 113 30.5t56.5 43.5t16.5 66q0 66 -40 88.5t-113 22.5h-45q-88 0 -166 -10l-25 -2q-7 0 -7 4q0 10 51 14.5t121 4.5q86 0 134.5 -10.5t71 -37t22.5 -75.5q0 -42 -17.5 -68.5t-58.5 -44t-115 -30.5
l-116 -20q-87 -15 -119.5 -44t-32.5 -76q0 -63 47.5 -91t133.5 -28q72 0 134.5 18.5t100.5 53t38 80.5q0 8 2 13t5 5q9 0 6 -15q-1 -3 -4 -18t-3 -39q0 -81 64 -81q13 0 48 7l6 1q8 0 8 -5q0 -6 -13 -10t-29 -4q-37 0 -56.5 14t-26 37t-9.5 61q-21 -57 -98.5 -89.5
t-172.5 -32.5q-87 0 -136 29.5zM260.5 590.5q-28.5 14.5 -42.5 37.5t-14 48q0 13 3 20.5t6 7.5t3 -8q0 -52 27.5 -84t84.5 -32q54 0 83 26.5t29 67.5q0 18 -5 31h4q5 -13 5 -31q0 -42 -30 -70t-86 -28q-39 0 -67.5 14.5zM297 682q-7 3 -7 6q0 1 2.5 2t5.5 1q48 0 75 15.5
t27 47.5q0 30 -23 48t-60 18q-35 0 -56.5 -16.5t-21.5 -47.5q0 -4 -2.5 -4t-2.5 4q0 32 24 50t59 18q37 0 62 -19t25 -52q0 -35 -26 -54.5t-61 -19.5q-13 0 -20 3z" />
    <glyph glyph-name="uni1EB4" unicode="&#x1eb4;" horiz-adv-x="820" 
d="M108.5 10q-25.5 18 -42 49t-16.5 66q0 36 19 66.5t57.5 49t92.5 18.5q79 0 203.5 -53.5t346.5 -205.5q-56 112 -199 375l-181 334l-93 -162q-78 -135 -115 -212q-4 -10 -7 -13.5t-8 -3.5q-8 0 -8 9q0 5 2 8l26 42q57 87 106 172l96 167h2l184 -340q78 -144 180 -321
q20 -34 22 -38q4 -8 4 -13q0 -9 -10 -9q-5 0 -12 5q-214 149 -337 202t-202 53q-80 0 -122.5 -37.5t-42.5 -92.5q0 -45 24.5 -70t61.5 -40q4 -2 12.5 -5.5t12 -6t3.5 -5.5q0 -2 -3 -4t-8 -2q-23 0 -48.5 18zM419 959q-13 7 -30 21q-18 13 -28.5 19t-25.5 6q-24 0 -35 -9.5
t-18 -22.5t-11 -13q-5 0 -5 5q0 14 16.5 29.5t47.5 15.5q18 0 31 -7t30 -21q18 -13 28.5 -19t25.5 -6q24 0 35 9.5t18 22.5t11 13q5 0 5 -5q0 -8 -7 -18.5t-21.5 -18.5t-35.5 -8q-18 0 -31 7zM273 896.5q3 7.5 6 7.5t3 -8q0 -52 27.5 -84t84.5 -32q54 0 83 26.5t29 67.5
q0 18 -5 31h4q5 -13 5 -31q0 -42 -30 -70t-86 -28q-39 0 -67.5 14.5t-42.5 37.5t-14 48q0 13 3 20.5z" />
    <glyph glyph-name="uni1EB5" unicode="&#x1eb5;" horiz-adv-x="665" 
d="M99 13.5q-49 29.5 -49 93.5q0 48 34 78.5t122 45.5l117 20q73 13 113 30.5t56.5 43.5t16.5 66q0 66 -40 88.5t-113 22.5h-45q-88 0 -166 -10l-25 -2q-7 0 -7 4q0 10 51 14.5t121 4.5q86 0 134.5 -10.5t71 -37t22.5 -75.5q0 -42 -17.5 -68.5t-58.5 -44t-115 -30.5
l-116 -20q-87 -15 -119.5 -44t-32.5 -76q0 -63 47.5 -91t133.5 -28q72 0 134.5 18.5t100.5 53t38 80.5q0 8 2 13t5 5q9 0 6 -15q-1 -3 -4 -18t-3 -39q0 -81 64 -81q13 0 48 7l6 1q8 0 8 -5q0 -6 -13 -10t-29 -4q-37 0 -56.5 14t-26 37t-9.5 61q-21 -57 -98.5 -89.5
t-172.5 -32.5q-87 0 -136 29.5zM353 759q-13 7 -30 21q-18 13 -28.5 19t-25.5 6q-24 0 -35 -9.5t-18 -22.5t-11 -13q-5 0 -5 5q0 14 16.5 29.5t47.5 15.5q18 0 31 -7t30 -21q18 -13 28.5 -19t25.5 -6q24 0 35 9.5t18 22.5t11 13q5 0 5 -5q0 -8 -7 -18.5t-21.5 -18.5
t-35.5 -8q-18 0 -31 7zM207 696.5q3 7.5 6 7.5t3 -8q0 -52 27.5 -84t84.5 -32q54 0 83 26.5t29 67.5q0 18 -5 31h4q5 -13 5 -31q0 -42 -30 -70t-86 -28q-39 0 -67.5 14.5t-42.5 37.5t-14 48q0 13 3 20.5z" />
    <glyph glyph-name="uni1EB6" unicode="&#x1eb6;" horiz-adv-x="820" 
d="M108.5 10q-25.5 18 -42 49t-16.5 66q0 36 19 66.5t57.5 49t92.5 18.5q79 0 203.5 -53.5t346.5 -205.5q-56 112 -199 375l-181 334l-93 -162q-78 -135 -115 -212q-4 -10 -7 -13.5t-8 -3.5q-8 0 -8 9q0 5 2 8l26 42q57 87 106 172l96 167h2l184 -340q78 -144 180 -321
q20 -34 22 -38q4 -8 4 -13q0 -9 -10 -9q-5 0 -12 5q-214 149 -337 202t-202 53q-80 0 -122.5 -37.5t-42.5 -92.5q0 -45 24.5 -70t61.5 -40q4 -2 12.5 -5.5t12 -6t3.5 -5.5q0 -2 -3 -4t-8 -2q-23 0 -48.5 18zM373 -140q-7 7 -7 17t7 17t17 7t17 -7t7 -17t-7 -17t-17 -7t-17 7
zM326.5 790.5q-28.5 14.5 -42.5 37.5t-14 48q0 13 3 20.5t6 7.5t3 -8q0 -52 27.5 -84t84.5 -32q54 0 83 26.5t29 67.5q0 18 -5 31h4q5 -13 5 -31q0 -42 -30 -70t-86 -28q-39 0 -67.5 14.5z" />
    <glyph glyph-name="uni1EB7" unicode="&#x1eb7;" horiz-adv-x="665" 
d="M99 13.5q-49 29.5 -49 93.5q0 48 34 78.5t122 45.5l117 20q73 13 113 30.5t56.5 43.5t16.5 66q0 66 -40 88.5t-113 22.5h-45q-88 0 -166 -10l-25 -2q-7 0 -7 4q0 10 51 14.5t121 4.5q86 0 134.5 -10.5t71 -37t22.5 -75.5q0 -42 -17.5 -68.5t-58.5 -44t-115 -30.5
l-116 -20q-87 -15 -119.5 -44t-32.5 -76q0 -63 47.5 -91t133.5 -28q72 0 134.5 18.5t100.5 53t38 80.5q0 8 2 13t5 5q9 0 6 -15q-1 -3 -4 -18t-3 -39q0 -81 64 -81q13 0 48 7l6 1q8 0 8 -5q0 -6 -13 -10t-29 -4q-37 0 -56.5 14t-26 37t-9.5 61q-21 -57 -98.5 -89.5
t-172.5 -32.5q-87 0 -136 29.5zM318 -140q-7 7 -7 17t7 17t17 7t17 -7t7 -17t-7 -17t-17 -7t-17 7zM260.5 590.5q-28.5 14.5 -42.5 37.5t-14 48q0 13 3 20.5t6 7.5t3 -8q0 -52 27.5 -84t84.5 -32q54 0 83 26.5t29 67.5q0 18 -5 31h4q5 -13 5 -31q0 -42 -30 -70t-86 -28
q-39 0 -67.5 14.5z" />
    <glyph glyph-name="uni1EB8" unicode="&#x1eb8;" horiz-adv-x="635" 
d="M362 -27.5q-34 3.5 -89 10.5q-67 8 -115.5 12.5t-111.5 4.5q-7 0 -17 -2t-15 -2q-14 0 -14 8q0 3 4 5t9 2q20 0 29.5 5.5t12.5 18.5t3 41v269q0 27 20 32q-8 1 -14 9t-6 23v56q0 115 -3 229q0 8 8 8q5 0 16 -1t26 -1h187q117 0 209 2h47q19 0 19 -8q0 -9 -15 -9l-39 2
q-101 9 -221 9h-230v-286q0 -31 30 -31h78q95 0 247 5l59 1q11 0 15 -2t4 -6t-4 -5.5t-15 -1.5l-59 1q-122 4 -247 4h-78q-30 0 -30 -32v-270q0 -31 -6.5 -46.5t-23.5 -22.5q69 0 128 -5t127 -14q10 -1 56 -6.5t84 -5.5q74 0 105 13t49 37q10 13 17 6q2 -2 2 -5q0 -7 -7 -15
q-16 -20 -51.5 -30t-105.5 -10q-40 0 -74 3.5zM303 -140q-7 7 -7 17t7 17t17 7t17 -7t7 -17t-7 -17t-17 -7t-17 7z" />
    </font>
</defs>
</svg>
