<?xml version="1.0" standalone="no"?>
<!DOCTYPE svg PUBLIC "-//W3C//DTD SVG 1.1//EN" "http://www.w3.org/Graphics/SVG/1.1/DTD/svg11.dtd" >
<svg xmlns="http://www.w3.org/2000/svg" xmlns:xlink="http://www.w3.org/1999/xlink" version="1.1">
<metadata>
Created by FontForge 20170731 at Tue May 17 21:46:15 2022
 By Aleksey,,,
Copyright 2022 Connary Fagen, Inc.
</metadata>
<defs>
<font id="CerulyaCF-Regular" horiz-adv-x="640" >
  <font-face 
    font-family="Cerulya CF"
    font-weight="400"
    font-stretch="normal"
    units-per-em="1000"
    panose-1="0 0 0 0 0 0 0 0 0 0"
    ascent="800"
    descent="-200"
    x-height="504"
    cap-height="704"
    bbox="-490 -283 1520 1034"
    underline-thickness="50"
    underline-position="-175"
    unicode-range="U+0020-FB02"
  />
<missing-glyph horiz-adv-x="465" 
d="M381 -200h-295v930h295v-930zM310 -136v31h-95l65 44h30v30h-155v-30h65l-65 -44v-31h155zM310 -9v105h-155v-105h155zM310 152v105h-93v-52h31v21h31v-44h-93v75h-31v-105h155zM310 277v93h-31v-61h-124v-32h155zM248 330v65h62v31h-155v-31h62v-34h-62v-31h93zM310 451
v32h-62v65h-93v-97h155zM310 572v31h-62v34h62v31h-154v-31h61v-34h-62v-31h155zM186 65h93v-44h-93v44zM186 516h31v-33h-31v33z" />
    <glyph glyph-name="fi" unicode="fi" horiz-adv-x="546" 
d="M25 4q0 8 15 8q5 0 18.5 -3t26.5 -3q27 0 36 16t9 54v424h-101q-4 0 -4 2.5t4 2.5h101v37q0 77 10.5 118t46.5 62.5t110 21.5q53 0 53 -10q0 -6 -11 -6q-12 0 -20 1l-51 1q-59 0 -87.5 -19.5t-37 -59t-8.5 -113.5v-32q142 2 188 2q100 2 125 2q15 0 19.5 -4.5t4.5 -14.5
l-1 -29q-5 -67 -5 -137v-150q0 -72 5 -137l1 -26q0 -17 -9 -17q-8 0 -8 17l1 26q5 65 5 137v150l-1 160q0 6 -3.5 8.5t-10.5 2.5q-30 0 -138 2q-102 2 -173 2v-425q0 -31 -6 -47.5t-22 -22.5h87q41 0 106 5l35 2q17 0 17 -7q0 -8 -17 -8q-20 0 -35 1q-52 2 -106 2h-74
q-38 0 -55.5 -2t-24.5 -2q-15 0 -15 8zM453.5 726q3.5 4 9.5 4t9.5 -4t3.5 -9t-3.5 -9t-9.5 -4t-9.5 4t-3.5 9t3.5 9z" />
    <glyph glyph-name="fl" unicode="fl" horiz-adv-x="675" 
d="M550.5 10.5q-15.5 16.5 -15.5 59.5v610q0 22 -4 32t-17 14t-42 4h-114q-83 0 -129.5 -15.5t-70 -63t-23.5 -142.5v-3q71 1 112 3l52 1q14 0 18.5 -1.5t4.5 -5.5t-4.5 -5.5t-18.5 -1.5l-52 1q-41 2 -112 3v-425q0 -31 -6 -47.5t-22 -22.5h137q41 0 106 5l35 2q17 0 17 -7
q0 -8 -17 -8q-20 0 -35 1q-52 2 -106 2h-124q-38 0 -55.5 -2t-24.5 -2q-15 0 -15 8t15 8q5 0 18.5 -3t26.5 -3q27 0 36 16t9 54v424h-101q-4 0 -4 2.5t4 2.5h101v7q0 97 25.5 147t80 68t152.5 18h79q44 0 58.5 -13.5t14.5 -51.5v-619q0 -32 14 -42.5t44 -10.5t53 5l6 1
q8 0 8 -6t-15 -10t-39 -4q-45 0 -60.5 16.5z" />
    <glyph glyph-name="f_f_i" unicode="ffi" horiz-adv-x="875" 
d="M354 4q0 8 15 8q5 0 18.5 -3t26.5 -3q27 0 36 16t9 54v424h-101h-223v-425q0 -31 -6 -47.5t-22 -22.5h47q41 0 106 5l35 2q17 0 17 -7q0 -8 -17 -8q-20 0 -35 1q-52 2 -106 2h-34q-38 0 -55.5 -2t-24.5 -2q-15 0 -15 8t15 8q5 0 18.5 -3t26.5 -3q27 0 36 16t9 54v424
h-101q-4 0 -4 2.5t4 2.5h101v37q0 77 11.5 118t51.5 62.5t124 21.5h303h6q53 0 53 -10q0 -6 -11 -6q-12 0 -20 1l-51 1q-59 0 -87.5 -19.5t-37 -59t-8.5 -113.5v-32q142 2 188 2q100 2 125 2q15 0 19.5 -4.5t4.5 -14.5l-1 -29q-5 -67 -5 -137v-150q0 -72 5 -137l1 -26
q0 -17 -9 -17q-8 0 -8 17l1 26q5 65 5 137v150l-1 160q0 6 -3.5 8.5t-10.5 2.5q-30 0 -138 2q-102 2 -173 2v-425q0 -31 -6 -47.5t-22 -22.5h87q41 0 106 5l35 2q17 0 17 -7q0 -8 -17 -8q-20 0 -35 1q-52 2 -106 2h-74q-38 0 -55.5 -2t-24.5 -2q-15 0 -15 8zM358 505h101v37
q0 84 13.5 127t58.5 61h-243q-69 0 -101.5 -19.5t-42 -58.5t-9.5 -114v-33h223zM782.5 726q3.5 4 9.5 4t9.5 -4t3.5 -9t-3.5 -9t-9.5 -4t-9.5 4t-3.5 9t3.5 9z" />
    <glyph glyph-name="f_f_l" unicode="ffl" horiz-adv-x="990" 
d="M25 4q0 8 15 8q5 0 18.5 -3t26.5 -3q27 0 36 16t9 54v424h-101q-4 0 -4 2.5t4 2.5h101v7q0 97 25.5 146.5t79.5 67.5t152 18h269q15 1 47 1h79q44 0 58.5 -13.5t14.5 -51.5v-619q0 -32 14 -42.5t44 -10.5t53 5l6 1q8 0 8 -6t-15 -10t-39 -4q-45 0 -60.5 16.5t-15.5 59.5
v610q0 22 -4 32t-17 14t-42 4h-114q-83 0 -129.5 -15.5t-70 -63t-23.5 -142.5v-3q71 1 112 3l52 1q14 0 18.5 -1.5t4.5 -5.5t-4.5 -5.5t-18.5 -1.5l-52 1q-41 2 -112 3v-425q0 -31 -6 -47.5t-22 -22.5h137q41 0 106 5l35 2q17 0 17 -7q0 -8 -17 -8q-20 0 -35 1q-52 2 -106 2
h-124q-38 0 -55.5 -2t-24.5 -2q-15 0 -15 8t15 8q5 0 18.5 -3t26.5 -3q27 0 36 16t9 54v424h-101h-209v-425q0 -31 -6 -47.5t-22 -22.5h47q41 0 106 5l35 2q17 0 17 -7q0 -8 -17 -8q-20 0 -35 1q-52 2 -106 2h-34q-38 0 -55.5 -2t-24.5 -2q-15 0 -15 8zM344 505h101v7
q0 99 27 149.5t88 68.5h-202q-83 0 -129.5 -15.5t-70 -63t-23.5 -143.5v-3h209z" />
    <glyph glyph-name=".notdef" horiz-adv-x="465" 
d="M381 -200h-295v930h295v-930zM310 -136v31h-95l65 44h30v30h-155v-30h65l-65 -44v-31h155zM310 -9v105h-155v-105h155zM310 152v105h-93v-52h31v21h31v-44h-93v75h-31v-105h155zM310 277v93h-31v-61h-124v-32h155zM248 330v65h62v31h-155v-31h62v-34h-62v-31h93zM310 451
v32h-62v65h-93v-97h155zM310 572v31h-62v34h62v31h-154v-31h61v-34h-62v-31h155zM186 65h93v-44h-93v44zM186 516h31v-33h-31v33z" />
    <glyph glyph-name=".null" horiz-adv-x="0" 
 />
    <glyph glyph-name="nonmarkingreturn" horiz-adv-x="333" 
 />
    <glyph glyph-name="space" unicode=" " horiz-adv-x="215" 
 />
    <glyph glyph-name="exclam" unicode="!" horiz-adv-x="220" 
d="M103 625l-2 65q0 15 9 15t9 -15q0 -6 -0.5 -21t-0.5 -44q-5 -182 -5 -300v-124q0 -3 -2.5 -3t-2.5 3v124q0 118 -5 300zM67 87q17 17 43 17t43 -17t17 -43t-17 -43t-43 -17t-43 17t-17 43t17 43zM70.5 5q15.5 -16 39.5 -16t39.5 16t15.5 39t-15.5 39t-39.5 16t-39.5 -16
t-15.5 -39t15.5 -39z" />
    <glyph glyph-name="quotedbl" unicode="&#x22;" horiz-adv-x="205" 
d="M139 460q0 86 -4 234q-1 13 -1 29q0 12 8 12t8 -12q0 -16 -1 -29q-4 -148 -4 -234q0 -4 -3 -4t-3 4zM60 460q0 86 -4 234q-1 13 -1 29q0 12 8 12t8 -12q0 -16 -1 -29q-4 -148 -4 -234q0 -4 -3 -4t-3 4z" />
    <glyph glyph-name="numbersign" unicode="#" horiz-adv-x="600" 
d="M331 4q13 70 38 231l11 70q-23 1 -74 1h-26h-74l-5 -32q-14 -89 -27 -184q-6 -42 -7 -47q-1 -9 -6 -9q-6 0 -4 9l38 231l5 32l-126 -2q-9 0 -9 4q0 18 37.5 31t106.5 24l9 56l-133 -2q-9 0 -9 4q0 5 10 5l133 -2l11 69q12 76 27 199l4 28q2 13 9 13q9 0 7 -12l-10 -53
q-16 -84 -31 -175l-11 -69h66h26h81l11 71q11 76 17.5 125t10.5 75l3 27q2 13 9 13q9 0 7 -12l-9 -47q-3 -14 -13 -68t-19 -113l-11 -71l122 2q9 0 9 -4q0 -10 -33.5 -17.5t-102.5 -16.5l-12 -76l92 2q17 1 36 1q9 0 9 -6q0 -3 -3.5 -5t-8.5 -2l-126 3l-11 -70
q-24 -163 -25 -167l-9 -64q-1 -9 -6 -9q-6 0 -4 9zM201 311l8 50q-65 -11 -101 -23t-36 -27h129zM280 311h26l75 1l11 75l-26 -3q-48 -6 -73 -10l-78 -12l-8 -51h73zM293 376l100 14l4 29h-106h-67l-9 -55zM523 419h-120l-4 -28q124 16 124 28z" />
    <glyph glyph-name="dollar" unicode="$" horiz-adv-x="560" 
d="M272 12l1 27q2 16 4 60h-5q-72 0 -128.5 18t-86.5 39q-7 6 -7 11q0 8 8 8q3 0 10 -5q3 -2 24.5 -20t70 -32t111.5 -14h3q1 20 1 71v205q-71 15 -112.5 27.5t-70 37.5t-28.5 66q0 52 49.5 83t158.5 34l-2 39l-2 51q0 7 2.5 12t6.5 5t6.5 -5t2.5 -12l-3 -90h8q61 0 113 -6
t52 -16q0 -5 -7 -5t-27 3q-8 1 -47.5 5.5t-92.5 5.5q-2 -80 -2 -140v-91q71 -14 116 -29t75.5 -43.5t30.5 -76.5q0 -67 -60.5 -100.5t-160.5 -35.5q2 -44 4 -60l1 -27q0 -7 -2.5 -12t-6.5 -5q-8 0 -8 17zM99.5 448q27.5 -24 67.5 -36t111 -27v90q0 82 -3 140h-13h-27
q-78 0 -120.5 -28t-42.5 -76q0 -39 27.5 -63zM284 104q97 2 156.5 34t59.5 97q0 46 -29.5 73.5t-73.5 42t-114 28.5v-204q0 -51 1 -71z" />
    <glyph glyph-name="percent" unicode="%" horiz-adv-x="840" 
d="M141.5 -12.5q-1.5 3.5 2.5 8.5l36 47q102 126 193 249q37 50 64.5 87.5t49.5 66.5q70 92 146 197q41 56 58 68h-486q-40 0 -73 -19t-52.5 -52t-19.5 -73t19.5 -73t52.5 -52t73 -19t72.5 19t51.5 52t19 72q0 18 -18 42q-3 5 -3 9t3 6.5t7 2.5q10 0 14 -20t4 -39
q0 -41 -20 -75.5t-54.5 -54t-75.5 -19.5t-75.5 19.5t-54.5 54t-20 75.5t20 75.5t54.5 54t75.5 19.5h478q7 0 17 2t15 2q14 0 14 -8q0 -7 -13 -7q-19 0 -37.5 -16.5t-38.5 -44.5q-148 -200 -263 -354q-74 -100 -222 -301q-4 -5 -8 -5t-5.5 3.5zM505 208.5q20 34.5 54.5 54
t75.5 19.5t75.5 -19.5t54.5 -54t20 -75.5t-20 -75.5t-54.5 -54t-75.5 -19.5t-75.5 19.5t-54.5 54t-20 75.5t20 75.5zM509.5 60q19.5 -33 52.5 -52t73 -19t73 19t52.5 52t19.5 73t-19.5 73t-52.5 52t-73 19t-73 -19t-52.5 -52t-19.5 -73t19.5 -73z" />
    <glyph glyph-name="ampersand" unicode="&#x26;" horiz-adv-x="895" 
d="M408 -5q0 4 4 6t9 2t15.5 -2.5t21.5 -2.5q30 0 39.5 16t9.5 54v181q-21 -18 -41 -42.5t-46 -61.5q-39 -53 -67 -85t-65 -54t-81 -22q-41 0 -75.5 19t-55.5 53t-21 77q0 65 46 107.5t122 49.5q-42 8 -68.5 39.5t-26.5 74.5q0 47 33 79.5t96 32.5q31 0 58.5 -9.5t44 -22
t16.5 -20.5q0 -5 -6 -5q-5 0 -17 12q-21 18 -41 29t-55 11q-61 0 -92.5 -30.5t-31.5 -76.5q0 -49 33.5 -80.5t84.5 -31.5h298q66 0 108 4l25 1q17 0 17 -7q0 -4 -5 -6t-12 -2l-32 2q-48 3 -53 3q-45 0 -85 -34v-188q0 -31 -6.5 -47.5t-24.5 -20.5h28q76 0 152 41.5t125 121
t49 187.5q0 117 -54 199.5t-139.5 123.5t-178.5 41q-66 0 -110 -16t-82 -39q-5 -3 -13 -7t-11 -4q-7 0 -7 5q0 11 31.5 27t82 27.5t107.5 11.5q95 0 182 -42t142 -125.5t55 -201.5q0 -108 -50 -189t-127 -123.5t-154 -42.5h-44q-16 0 -26.5 -2t-17.5 -2q-13 0 -13 7z
M80 57.5q20 -32.5 54 -50.5t73 -18q43 0 79.5 22t64 53.5t65.5 83.5q47 63 78.5 95.5t71.5 43.5h-315q-86 0 -138.5 -42.5t-52.5 -111.5q0 -43 20 -75.5z" />
    <glyph glyph-name="quotesingle" unicode="'" horiz-adv-x="126" 
d="M60 460q0 86 -4 234q-1 13 -1 29q0 12 8 12t8 -12q0 -16 -1 -29q-4 -148 -4 -234q0 -4 -3 -4t-3 4z" />
    <glyph glyph-name="parenleft" unicode="(" horiz-adv-x="425" 
d="M213 -12.5q-72 51.5 -115 146t-43 217.5t43 217.5t115 146t156 51.5q6 0 6 -4.5t-6 -4.5q-82 0 -153 -50.5t-113.5 -143t-42.5 -212.5t42.5 -212.5t113.5 -143t153 -50.5q6 0 6 -4.5t-6 -4.5q-84 0 -156 51.5z" />
    <glyph glyph-name="parenright" unicode=")" horiz-adv-x="425" 
d="M212 714.5q72 -51.5 115 -146t43 -217.5t-43 -217.5t-115 -146t-156 -51.5q-6 0 -6 4.5t6 4.5q82 0 153 50.5t113.5 143t42.5 212.5t-42.5 212.5t-113.5 143t-153 50.5q-6 0 -6 4.5t6 4.5q84 0 156 -51.5z" />
    <glyph glyph-name="asterisk" unicode="*" horiz-adv-x="390" 
d="M98 430q-7 0 -7 7q0 6 5 10q3 2 23 20t54 54q2 2 3 0.5t0 -3.5q-30 -33 -47.5 -55.5t-21.5 -27.5t-9 -5zM50 593q0 7 8 7q2 0 31.5 -14t71.5 -29q2 -1 1.5 -3t-2.5 -1q-41 14 -68.5 21.5t-33.5 9.5q-8 3 -8 9zM195 705q8 0 8 -13q0 -8 -3 -37t-3 -70q0 -3 -2 -3t-2 3
q0 41 -3 70t-3 37q0 13 8 13zM214 521.5q1 1.5 3 -0.5q34 -36 54 -54t23 -20q5 -4 5 -10q0 -7 -7 -7q-5 0 -9 5t-21.5 27.5t-47.5 55.5q-1 2 0 3.5zM296.5 584.5q25.5 12.5 30.5 14.5q2 1 5 1q8 0 8 -7q0 -6 -8 -9q-6 -2 -33.5 -9.5t-68.5 -21.5q-2 -1 -2.5 1t1.5 3
q42 15 67.5 27.5z" />
    <glyph glyph-name="plus" unicode="+" horiz-adv-x="560" 
d="M35 275h243v243h5v-243h242v-5h-242v-242h-5v242h-243v5z" />
    <glyph glyph-name="comma" unicode="," horiz-adv-x="195" 
d="M45 -88q0 4 6 4q26 0 44 4t31.5 22t13.5 54q0 32 -9.5 62t-23.5 62v2q0 4 4.5 5.5t5.5 -2.5q12 -29 20 -58.5t8 -68.5q0 -93 -88 -93q-12 0 -12 7z" />
    <glyph glyph-name="hyphen" unicode="-" horiz-adv-x="660" 
d="M35 275h590v-5h-590v5z" />
    <glyph glyph-name="period" unicode="." horiz-adv-x="220" 
d="M67 1q-17 17 -17 43t17 43t43 17t43 -17t17 -43t-17 -43t-43 -17t-43 17zM70.5 5q15.5 -16 39.5 -16t39.5 16t15.5 39t-15.5 39t-39.5 16t-39.5 -16t-15.5 -39t15.5 -39z" />
    <glyph glyph-name="slash" unicode="/" horiz-adv-x="280" 
d="M60 -146q1 9 8 40q20 97 37 205l65 411q14 89 25 189q6 50 7 56q2 15 11 15t7 -15q-1 -9 -8 -40q-19 -97 -37 -205l-65 -411q-14 -89 -25 -189q-6 -50 -7 -56q-2 -15 -11 -15t-7 15z" />
    <glyph glyph-name="zero" unicode="0" horiz-adv-x="860" 
d="M245 30q-86 46 -138 129.5t-52 191.5q0 107 52 190t138 129t185 46t185 -46t138 -129t52 -190q0 -108 -52 -191.5t-138 -129.5t-185 -46t-185 46zM111.5 161.5q51.5 -82.5 136.5 -127.5t182 -45t182 45t136.5 127.5t51.5 189.5q0 106 -51.5 188t-136.5 127t-182 45
t-182 -45t-136.5 -127t-51.5 -188q0 -107 51.5 -189.5z" />
    <glyph glyph-name="one" unicode="1" horiz-adv-x="385" 
d="M50 4q0 8 19 8q6 0 28 -2.5t74 -2.5q32 0 41.5 15t9.5 54v624q-78 -56 -128 -101q-4 -3 -10 -8.5t-11 -8.5t-8 -3q-7 0 -7 6q0 5 9.5 12.5t23.5 15.5q7 5 22 14.5t28 19.5l33 25q49 37 53 37q5 0 5 -7q0 -4 -2.5 -26t-2.5 -72v-531q0 -31 -6 -46.5t-22 -20.5h45
q37 0 57.5 2.5t27.5 2.5q21 0 21 -7t-21 -7q-7 0 -27.5 1.5t-57.5 1.5h-32q-86 0 -112 -2t-31 -2q-19 0 -19 8z" />
    <glyph glyph-name="two" unicode="2" horiz-adv-x="680" 
d="M564 -2q-92 2 -209 2h-305q0 80 42.5 136t102.5 91.5t162 82.5q86 39 135.5 67t83 68t33.5 94q0 53 -33.5 92t-93 59.5t-135.5 20.5q-73 0 -121.5 -17t-73 -38.5t-45.5 -48.5q-6 -8 -11.5 -13.5t-9.5 -5.5q-5 0 -5 5q0 15 30.5 45t90.5 54t146 24q77 0 137 -21t94.5 -61
t34.5 -95t-34 -96.5t-85 -70t-136 -67.5q-98 -44 -157.5 -79.5t-102 -90t-43.5 -130.5h299q115 0 182 5t75 6h4q14 0 14 -9t-19 -9h-47z" />
    <glyph glyph-name="three" unicode="3" horiz-adv-x="700" 
d="M212 1.5q-61 17.5 -103 45t-58 55.5q-1 2 -1 6t2.5 6.5t5.5 2.5q7 0 11 -8q18 -29 55.5 -56.5t94.5 -45.5t127 -18q76 0 143 23t109 70t42 117q0 87 -67 137t-178 50l-50 -1q-18 0 -18 9t17 9q9 0 28.5 -2t45.5 -2q52 0 91.5 19.5t61.5 52.5t22 74q0 45 -27 82.5
t-82.5 60.5t-137.5 23q-73 0 -121.5 -17t-73 -38.5t-44.5 -48.5q-6 -8 -11.5 -13.5t-9.5 -5.5q-5 0 -5 5q0 16 29.5 45.5t89.5 53.5t146 24q83 0 140 -23.5t84.5 -62t27.5 -84.5q0 -41 -21.5 -75.5t-65 -56t-107.5 -21.5q-1 0 -1.5 -1.5t0.5 -1.5q106 0 174 -50.5t68 -140.5
q0 -71 -42.5 -119.5t-111 -72t-147.5 -23.5q-71 0 -132 17.5z" />
    <glyph glyph-name="four" unicode="4" horiz-adv-x="690" 
d="M599 195q-54 3 -79 3h-10v-125q0 -31 -6 -46.5t-22 -20.5h57q37 0 57.5 2.5t27.5 2.5q21 0 21 -7t-21 -7q-7 0 -27.5 1.5t-57.5 1.5h-44q-83 0 -108.5 -2t-30.5 -2q-19 0 -19 8t19 8q6 0 27.5 -2.5t70.5 -2.5q32 0 41.5 15t9.5 54v122h-480l220 324q23 34 41.5 64
t24.5 40q18 30 25 39.5t13 9.5q7 0 7 -7q0 -4 -7.5 -14.5t-18.5 -24.5q-48 -61 -81 -110l-215 -316h471v282q0 56 -2 111.5t-2 74.5l-2 47q0 17 8 17q4 0 6.5 -5t2.5 -12l-2 -46q0 -19 -2 -75t-2 -112v-282h10q43 0 79 4q22 2 27 2q11 0 15 -2t4 -6q0 -8 -19 -8q-5 0 -27 2z
" />
    <glyph glyph-name="five" unicode="5" horiz-adv-x="700" 
d="M212 1.5q-61 17.5 -103 45t-58 55.5q-1 2 -1 6t2.5 6.5t5.5 2.5q7 0 11 -8q18 -29 55.5 -56.5t94.5 -45.5t127 -18q75 0 142.5 23t109.5 70.5t42 116.5q0 87 -67.5 135.5t-179.5 48.5h-217q-22 0 -39 -1t-24 -1q-8 0 -6 9q7 38 19 152q10 93 12 151q0 9 9 9q13 0 21 -1
l62 -1h80q117 0 209 2h47q19 0 19 -9t-15 -9l-39 2q-101 9 -221 9h-164l-31 -307h288q107 0 174.5 -49.5t67.5 -139.5q0 -71 -42.5 -119.5t-111 -72t-147.5 -23.5q-71 0 -132 17.5z" />
    <glyph glyph-name="six" unicode="6" horiz-adv-x="730" 
d="M211.5 27.5q-74.5 43.5 -115.5 127t-41 200.5q0 103 34 184t108 129t189 48q87 0 148.5 -23.5t93 -53.5t31.5 -46q0 -6 -6 -6q-4 0 -9.5 5.5t-11.5 13.5q-23 27 -49 48.5t-75 39t-122 17.5q-168 0 -247 -99.5t-79 -256.5q0 -116 41 -198.5t114 -125t170 -42.5
q74 0 140 25t108 77.5t42 128.5q0 74 -39.5 123t-105 72.5t-143.5 23.5q-65 0 -121.5 -16t-94.5 -48q-6 -5 -28 -27q-5 -6 -10 -10.5t-8 -4.5q-6 0 -6 6q0 11 28 34q42 35 105.5 53t134.5 18q81 0 147.5 -24t106 -74.5t39.5 -125.5q0 -78 -42 -131t-109.5 -79t-143.5 -26
q-99 0 -173.5 43.5z" />
    <glyph glyph-name="seven" unicode="7" horiz-adv-x="620" 
d="M157 -0.5q-2 4.5 1 9.5q7 11 16 25t20 30q68 99 136 207l267 424h-82q-262 0 -429 -10l-22 -1q-19 0 -19 9t19 9h98l357 -2l60 1q9 1 21 1q5 0 5 -3t-4 -9q-53 -80 -143 -225l-123 -195q-75 -119 -134 -225l-19 -33q-6 -10 -9.5 -13.5t-8.5 -3.5t-7 4.5z" />
    <glyph glyph-name="eight" unicode="8" horiz-adv-x="730" 
d="M146 27q-91 43 -91 142q0 60 37 99t91 56.5t107 17.5q24 0 24 -7t-16 -7q-93 0 -165.5 -36.5t-72.5 -122.5q0 -96 90 -138t215 -42q127 0 216 43t89 134q0 63 -41 101.5t-100 58.5t-158 42q-95 21 -150 39.5t-93 52.5t-38 90q0 84 79 125t191 41q116 0 197 -41t81 -125
q0 -47 -28 -88t-81 -66t-124 -25l-29 1q98 -22 157.5 -42.5t100.5 -60t41 -103.5q0 -94 -90 -138t-220 -44q-128 0 -219 43zM145.5 451.5q50.5 -35.5 143.5 -58.5q68 -17 116 -17q70 0 121.5 24t79 64t27.5 86q0 81 -80 121t-193 40q-109 0 -187 -40t-78 -121
q0 -63 50.5 -98.5z" />
    <glyph glyph-name="nine" unicode="9" horiz-adv-x="730" 
d="M518.5 672.5q74.5 -43.5 115.5 -127t41 -200.5q0 -103 -34 -184t-108 -129t-189 -48q-87 0 -148.5 23.5t-93 53.5t-31.5 46q0 6 6 6q4 0 9.5 -5.5t11.5 -13.5q23 -27 49 -48.5t75 -39t122 -17.5q168 0 247 99.5t79 256.5q0 116 -41 198.5t-114 125t-170 42.5
q-74 0 -140 -25t-108 -77.5t-42 -128.5q0 -74 39.5 -123t105 -72.5t143.5 -23.5q65 0 121.5 16t94.5 48q6 5 28 27q5 6 10 10.5t8 4.5q6 0 6 -6q0 -11 -28 -34q-42 -35 -105.5 -53t-134.5 -18q-81 0 -147.5 24t-106 74.5t-39.5 125.5q0 78 42 131t109.5 79t143.5 26
q99 0 173.5 -43.5z" />
    <glyph glyph-name="colon" unicode=":" horiz-adv-x="220" 
d="M67 397q-17 17 -17 43t17 43t43 17t43 -17t17 -43t-17 -43t-43 -17t-43 17zM70.5 401q15.5 -16 39.5 -16t39.5 16t15.5 39t-15.5 39t-39.5 16t-39.5 -16t-15.5 -39t15.5 -39zM67 1q-17 17 -17 43t17 43t43 17t43 -17t17 -43t-17 -43t-43 -17t-43 17zM70.5 5
q15.5 -16 39.5 -16t39.5 16t15.5 39t-15.5 39t-39.5 16t-39.5 -16t-15.5 -39t15.5 -39z" />
    <glyph glyph-name="semicolon" unicode=";" horiz-adv-x="220" 
d="M67 397q-17 17 -17 43t17 43t43 17t43 -17t17 -43t-17 -43t-43 -17t-43 17zM70.5 401q15.5 -16 39.5 -16t39.5 16t15.5 39t-15.5 39t-39.5 16t-39.5 -16t-15.5 -39t15.5 -39zM50 -88q0 4 6 4q26 0 44 4t31.5 22t13.5 54q0 32 -9.5 62t-23.5 62v2q0 4 4.5 5.5t5.5 -2.5
q12 -29 20 -58.5t8 -68.5q0 -93 -88 -93q-12 0 -12 7z" />
    <glyph glyph-name="less" unicode="&#x3c;" horiz-adv-x="660" 
d="M35 280q355 135 536 207l49 19l5 -9l-67 -25q-542 -204 -510 -192q392 -150 562 -210q15 -5 15 -12q0 -5 -4.5 -7.5t-11.5 0.5q-167 72 -574 229z" />
    <glyph glyph-name="equal" unicode="=" horiz-adv-x="660" 
d="M35 215h590v-5h-590v5zM35 335h590v-5h-590v5z" />
    <glyph glyph-name="greater" unicode="&#x3e;" horiz-adv-x="660" 
d="M102 88q542 204 510 192q-392 150 -562 210q-15 5 -15 12q0 5 4.5 7.5t11.5 -0.5q167 -72 574 -229q-355 -135 -536 -207l-49 -19l-5 9z" />
    <glyph glyph-name="question" unicode="?" horiz-adv-x="450" 
d="M196 206.5q-24 8.5 -45 31.5t-21 63q0 36 18.5 62.5t45 44t70.5 40.5q42 21 67 37t42 39.5t17 55.5q0 37 -25 66.5t-70 46.5t-103 17q-54 0 -109 -19q-22 -6 -25 -6q-8 0 -8 6q0 12 42 18.5t90 6.5q103 0 158 -38t55 -98q0 -33 -17.5 -57.5t-43 -41t-68.5 -38.5
q-44 -23 -69.5 -40t-43.5 -42t-18 -60q0 -41 21 -57.5t56 -25.5q14 -4 20.5 -7t6.5 -8t-8 -5q-11 0 -35 8.5zM148 87q17 17 43 17t43 -17t17 -43t-17 -43t-43 -17t-43 17t-17 43t17 43zM151.5 5q15.5 -16 39.5 -16t39.5 16t15.5 39t-15.5 39t-39.5 16t-39.5 -16t-15.5 -39
t15.5 -39z" />
    <glyph glyph-name="at" unicode="@" horiz-adv-x="860" 
d="M242.5 29q-85.5 45 -136.5 128.5t-51 193.5q0 109 51 192t137 128t187 45q103 0 188.5 -45.5t136 -131t50.5 -201.5q0 -81 -24 -136t-71 -55q-77 0 -77 165q-16 -75 -68.5 -122.5t-140.5 -47.5q-64 0 -110 27t-70 74t-24 106q0 60 25 106.5t71 72.5t107 26q83 0 143 -52
q3 -3 3 -7q0 -5 -4.5 -7.5t-10.5 2.5q-37 31 -65 45t-68 14q-58 0 -102.5 -25.5t-69 -70.5t-24.5 -104q0 -57 23 -103t68 -72.5t108 -26.5q69 0 116 31t69.5 80.5t22.5 105.5q0 45 -4 89q-2 28 -2 36q0 16 9 16q8 0 8 -16q0 -6 -2 -34q-4 -48 -4 -109q0 -91 15 -142.5
t58 -51.5q44 0 67 53t23 133q0 115 -50 199.5t-134.5 129t-185.5 44.5q-99 0 -184 -44t-135.5 -125.5t-50.5 -190.5q0 -110 51 -192t135.5 -126t182.5 -44q111 0 187 62q3 3 7 3q5 0 6.5 -4.5t-2.5 -7.5q-33 -27 -84.5 -42.5t-113.5 -15.5q-101 0 -186.5 45z" />
    <glyph glyph-name="A" unicode="A" horiz-adv-x="820" 
d="M108.5 10q-25.5 18 -42 49t-16.5 66q0 36 19 66.5t57.5 49t92.5 18.5q78 0 202.5 -53t345.5 -204q-41 84 -198 373l-180 332l-92 -160q-73 -125 -114 -212q-4 -9 -7.5 -13t-8.5 -4q-9 0 -9 9q0 5 2 8l26 42q57 87 106 172l96 167h2l184 -340q78 -144 180 -321
q20 -34 22 -38q4 -8 4 -13q0 -9 -10 -9q-5 0 -12 5q-216 149 -338.5 201.5t-200.5 52.5q-79 0 -121.5 -37t-42.5 -92q0 -45 24.5 -69.5t61.5 -39.5q4 -2 12.5 -5.5t12 -6t3.5 -5.5q0 -7 -12 -7q-23 0 -48.5 18z" />
    <glyph glyph-name="B" unicode="B" horiz-adv-x="695" 
d="M198 2.5q-63 18.5 -105.5 48t-59.5 59.5q-3 5 -3 9t2.5 6t5.5 2q7 0 12 -8q18 -31 58 -61t99 -49.5t130 -19.5q76 0 144 22.5t111 69t43 114.5q0 92 -80 141t-221 49l-49 -1q-18 0 -18 9t17 9q9 0 29 -2t46 -2q105 0 160.5 39t55.5 111q0 71 -52 109t-142 38h-305v-220
q0 -94 5 -209l2 -47q0 -19 -9 -19t-9 19l1 47q5 115 5 209q0 107 -3 218q0 9 8 9q5 0 16 -1t26 -1h262q93 0 146.5 -39t53.5 -113q0 -79 -61 -117.5t-175 -38.5v-3q134 0 215 -49.5t81 -144.5q0 -69 -43 -116.5t-113 -71t-150 -23.5q-73 0 -136 18.5z" />
    <glyph glyph-name="C" unicode="C" horiz-adv-x="835" 
d="M251 28q-88 44 -142 127t-54 196q0 112 53.5 195t141.5 126.5t189 43.5q65 0 121.5 -18t97.5 -46t61 -58q1 -1 1 -3q0 -4 -4 -5.5t-7 3.5q-35 48 -106.5 85t-164.5 37q-99 0 -185.5 -43t-139.5 -124.5t-53 -192.5q0 -112 53.5 -194t140 -125t184.5 -43q87 0 149.5 29
t98.5 65t68 81q12 17 19 25t12 8t5 -6q0 -17 -44.5 -69t-123 -95t-183.5 -43q-100 0 -188 44z" />
    <glyph glyph-name="D" unicode="D" horiz-adv-x="725" 
d="M187.5 3.5q-58.5 19.5 -97.5 48.5t-57 58q-3 5 -3 9t2.5 6t5.5 2q7 0 12 -8q31 -49 101 -89.5t169 -40.5q98 0 176.5 43t123.5 124t45 190q0 97 -37.5 176t-115.5 126t-195 47h-241v-220q0 -94 5 -209l2 -47q0 -19 -9 -19t-9 19l1 47q5 115 5 209q0 107 -3 218q0 9 8 9
q5 0 16 -1t26 -1h200q118 0 197 -47.5t117 -128t38 -178.5q0 -110 -45.5 -192t-126 -126t-182.5 -44q-70 0 -128.5 19.5z" />
    <glyph glyph-name="E" unicode="E" horiz-adv-x="635" 
d="M362 -27.5q-34 3.5 -89 10.5q-67 8 -115.5 12.5t-111.5 4.5q-7 0 -17 -2t-15 -2q-14 0 -14 8q0 4 4 6t9 2q29 0 37 12t8 52v269q0 27 20 32q-8 1 -14 9t-6 23v56q0 115 -3 229q0 8 8 8q5 0 16 -1t26 -1h187q117 0 209 2h47q19 0 19 -9t-15 -9l-39 2q-101 9 -221 9h-229
v-285q0 -31 29 -31h78q95 0 247 5l59 1q11 0 15 -2t4 -6t-4 -6t-15 -2l-59 1q-122 4 -247 4h-78q-29 0 -29 -31v-270q0 -31 -6.5 -46.5t-24.5 -21.5q69 0 127 -5t128 -14q10 -1 56 -6.5t84 -5.5q71 0 103 13t51 37q10 13 17 6q2 -2 2 -5q0 -8 -7 -16q-16 -20 -52 -30
t-105 -10q-40 0 -74 3.5z" />
    <glyph glyph-name="F" unicode="F" horiz-adv-x="625" 
d="M65 14l1 47q5 115 5 209v75q0 27 20 32q-8 1 -14 9t-6 23v56q0 115 -3 229q0 8 8 8q5 0 16 -1t26 -1h187q117 0 209 2h47q19 0 19 -9t-15 -9l-39 2q-101 9 -221 9h-229v-285q0 -31 29 -31h78q95 0 247 5l59 1q11 0 15 -2t4 -6t-4 -6t-15 -2l-59 1q-122 4 -247 4h-78
q-29 0 -29 -31v-73q0 -94 5 -209l2 -47q0 -19 -9 -19t-9 19z" />
    <glyph glyph-name="G" unicode="G" horiz-adv-x="835" 
d="M243 27.5q-85 43.5 -136.5 127t-51.5 196.5q0 112 53.5 195t141.5 126.5t189 43.5q65 0 121.5 -18t97.5 -46t61 -58q1 -1 1 -3q0 -4 -4 -5.5t-7 3.5q-35 48 -106.5 85t-164.5 37q-99 0 -185.5 -43t-139.5 -124.5t-53 -192.5q0 -112 50.5 -194t134.5 -125t182 -43
q110 0 184.5 49.5t110 121t35.5 139.5q0 16 6 16q4 0 5.5 -5.5t1.5 -20.5q0 -17 -1 -29l-1 -100q0 -49 5 -109q2 -30 2 -37q0 -19 -9 -19t-9 19q0 7 2 37q4 48 4 109q0 52 -4 98q-10 -70 -51.5 -133t-113 -102t-166.5 -39q-100 0 -185 43.5z" />
    <glyph glyph-name="H" unicode="H" horiz-adv-x="670" 
d="M587 14l2 47q5 115 5 209v83h-518v-83q0 -94 5 -209l2 -47q0 -19 -9 -19t-9 19l1 47q5 115 5 209v167q0 93 -5 203l-1 46q0 19 9 19t9 -19l-2 -46q-5 -110 -5 -203v-79h518v79q0 93 -5 203l-2 46q0 19 9 19t9 -19l-1 -46q-5 -110 -5 -203v-167q0 -94 5 -209l1 -47
q0 -19 -9 -19t-9 19z" />
    <glyph glyph-name="I" unicode="I" horiz-adv-x="285" 
d="M35 4q0 8 19 8q5 0 14.5 -2.5t23.5 -2.5q30 0 39 15t9 54v551q0 31 6 46.5t22 20.5h-27q-37 0 -57.5 -2.5t-27.5 -2.5q-21 0 -21 7t21 7q7 0 27.5 -1.5t57.5 -1.5h14q39 0 54.5 2t21.5 2q19 0 19 -8t-19 -8q-5 0 -14.5 2.5t-23.5 2.5q-30 0 -39 -15t-9 -54v-551
q0 -31 -6 -46.5t-22 -20.5h27q37 0 57.5 2.5t27.5 2.5q21 0 21 -7t-21 -7q-7 0 -27.5 1.5t-57.5 1.5h-14q-39 0 -54.5 -2t-21.5 -2q-19 0 -19 8z" />
    <glyph glyph-name="J" unicode="J" horiz-adv-x="425" 
d="M45 -2q0 6 13 6l23 -1q21 -3 47 -3q63 0 96 25.5t44.5 73t11.5 124.5v404q0 31 6 46.5t22 20.5h-27q-129 0 -159.5 -2.5t-35.5 -2.5q-21 0 -21 7t21 7q5 0 35.5 -1.5t159.5 -1.5h14q39 0 54.5 2t21.5 2q19 0 19 -8t-19 -8q-5 0 -14.5 2.5t-23.5 2.5q-30 0 -39 -15t-9 -54
v-402q0 -80 -13.5 -129.5t-54 -77.5t-118.5 -28q-54 0 -54 11z" />
    <glyph glyph-name="K" unicode="K" horiz-adv-x="735" 
d="M35 4q0 8 19 8q5 0 14.5 -2.5t23.5 -2.5q30 0 39 15t9 54v551q0 31 6 46.5t22 20.5h-27q-37 0 -57.5 -2.5t-27.5 -2.5q-21 0 -21 7t21 7q7 0 27.5 -1.5t57.5 -1.5h14q39 0 54.5 2t21.5 2q19 0 19 -8t-19 -8q-5 0 -14.5 2.5t-23.5 2.5q-30 0 -39 -15t-9 -54v-551
q0 -25 -4 -40l440 550q54 67 78.5 94.5t33.5 27.5q7 0 7 -7q0 -4 -20 -21q-55 -47 -95 -97l-196 -244l237 -257q33 -36 64 -60q15 -12 15 -17q0 -7 -7 -7q-4 0 -9 5t-10 11t-8 9q-29 34 -48 55l-237 257l-251 -312q-5 -9 -18 -14h27q37 0 57.5 2.5t27.5 2.5q21 0 21 -7
t-21 -7q-7 0 -27.5 1.5t-57.5 1.5h-14q-39 0 -54.5 -2t-21.5 -2q-19 0 -19 8z" />
    <glyph glyph-name="L" unicode="L" horiz-adv-x="700" 
d="M348 -18q-78 9 -131 13.5t-129 4.5q-16 0 -27 -2t-18 -2q-18 0 -18 8t18 8q5 0 15.5 -2.5t21.5 -2.5q32 0 41 14.5t9 54.5v361q0 93 -5 203l-1 46q0 19 9 19t9 -19l-2 -46q-5 -110 -5 -203v-364q0 -31 -6.5 -46.5t-24.5 -21.5q68 0 126 -5t128 -14q10 -1 56 -6.5t84 -5.5
q67 0 98 13t50 37q10 13 17 6q2 -2 2 -5q0 -8 -7 -16q-16 -20 -51 -30t-100 -10q-61 0 -159 13z" />
    <glyph glyph-name="M" unicode="M" horiz-adv-x="920" 
d="M65 14q0 5 0.5 18.5t0.5 40.5q5 168 5 272l-1 277q-1 37 -1 77q0 6 5 6q4 0 7 -6l377 -690q1 -1 2 -1t2 1l377 690q3 6 7 6q5 0 5 -6q0 -40 -1 -77l-1 -277q0 -104 5 -272q0 -27 0.5 -40.5t0.5 -18.5q0 -19 -9 -19t-9 19l2 59q5 168 5 272v351l-378 -691q-2 -5 -6 -5
q-3 0 -6 5l-378 691v-351q0 -104 5 -272l2 -59q0 -19 -9 -19t-9 19z" />
    <glyph glyph-name="N" unicode="N" horiz-adv-x="710" 
d="M65 14q0 5 0.5 18.5t0.5 40.5q5 168 5 272l-1 276q-1 38 -1 79q0 5 4 5t8 -6l553 -694v350q0 105 -5 272l-2 59q0 19 9 19t9 -19q0 -5 -0.5 -18.5t-0.5 -40.5q-5 -167 -5 -272l1 -276q1 -38 1 -79q0 -5 -4 -5q-3 0 -8 6l-553 694v-350q0 -104 5 -272l2 -59q0 -19 -9 -19
t-9 19z" />
    <glyph glyph-name="O" unicode="O" horiz-adv-x="860" 
d="M245 30q-86 46 -138 129.5t-52 191.5q0 107 52 190t138 129t185 46t185 -46t138 -129t52 -190q0 -108 -52 -191.5t-138 -129.5t-185 -46t-185 46zM111.5 161.5q51.5 -82.5 136.5 -127.5t182 -45t182 45t136.5 127.5t51.5 189.5q0 106 -51.5 188t-136.5 127t-182 45
t-182 -45t-136.5 -127t-51.5 -188q0 -107 51.5 -189.5z" />
    <glyph glyph-name="P" unicode="P" horiz-adv-x="635" 
d="M65 14q0 20 1 39q5 120 5 262q0 108 -1 215t-2 164q0 8 8 8q5 0 16 -1t26 -1h203q119 0 189 -48t70 -147q0 -100 -70.5 -150t-188.5 -50h-165q-21 0 -21 10q0 8 14 8q8 0 20 -3q32 -5 60.5 -7.5t91.5 -2.5q116 0 185 49.5t69 145.5t-68.5 143t-184.5 47h-246v-380
q0 -118 6 -262l1 -39q0 -19 -9 -19t-9 19z" />
    <glyph glyph-name="Q" unicode="Q" horiz-adv-x="850" 
d="M846 -176.5q-52 24.5 -97 60t-110 94.5l-48 43q-78 -35 -167 -35q-68 0 -111 21t-43 66q0 34 25 54t68 20q54 0 107.5 -31t122.5 -89q94 43 150.5 128t56.5 196q0 105 -51 187t-136 127.5t-183 45.5t-183 -45.5t-136 -127.5t-51 -187q0 -68 18 -116.5t40.5 -76
t50.5 -52.5q8 -7 14 -13t6 -10q0 -6 -7 -6q-13 0 -44.5 34.5t-57 96.5t-25.5 143q0 106 51.5 189.5t138 129.5t185.5 46t185.5 -46t138 -129.5t51.5 -189.5q0 -112 -57 -198t-151 -130q24 -20 35 -31q69 -59 115 -93.5t101.5 -59t114.5 -24.5q5 0 8.5 -2t3.5 -5q0 -9 -23 -9
q-54 0 -106 24.5zM318 10q43 -19 105 -19q85 0 164 33q-65 57 -118 87.5t-105 30.5q-40 0 -64.5 -18t-24.5 -51q0 -44 43 -63z" />
    <glyph glyph-name="R" unicode="R" horiz-adv-x="670" 
d="M65 14q0 20 1 39q5 120 5 262q0 108 -1 215t-2 164q0 8 8 8q5 0 16 -1t26 -1h203q119 0 189 -48t70 -147q0 -100 -70.5 -150t-188.5 -50h-1q14 -4 24.5 -11.5t23.5 -20.5l156 -167q38 -41 79 -77q10 -8 16 -14.5t6 -10.5q0 -9 -9 -9q-5 0 -12 7.5t-17 20.5q-32 42 -67 79
l-155 168q-20 21 -41 28t-59 7h-109q-21 0 -21 10q0 8 14 8q8 0 20 -3q32 -5 60.5 -7.5t91.5 -2.5q116 0 185 49.5t69 145.5t-68.5 143t-184.5 47h-246v-380q0 -118 6 -262l1 -39q0 -19 -9 -19t-9 19z" />
    <glyph glyph-name="S" unicode="S" horiz-adv-x="710" 
d="M177.5 9.5q-67.5 25.5 -97.5 58t-30 51.5q0 9 6 9t16 -18q20 -31 45 -55.5t82.5 -45t150.5 -20.5q125 0 212.5 43t87.5 129q0 56 -39.5 94.5t-97 62.5t-153.5 53q-95 30 -149.5 52t-92 58t-37.5 88q0 147 310 147q86 0 148 -11t62 -25q0 -6 -10 -6q-11 0 -31 6
q-36 9 -81 15t-120 6q-120 0 -196.5 -27t-76.5 -104q0 -50 37 -85t91 -57t146 -51q97 -30 155.5 -54.5t99 -64t40.5 -97.5q0 -89 -88 -133t-218 -44q-104 0 -171.5 25.5z" />
    <glyph glyph-name="T" unicode="T" horiz-adv-x="695" 
d="M177 4q0 8 19 8q6 0 27.5 -2.5t70.5 -2.5q32 0 41.5 15t9.5 54v619h-30q-92 0 -215 -8l-46 -2q-19 0 -19 8q0 9 19 9h46q92 -2 215 -2h65q123 0 215 2h46q19 0 19 -9q0 -8 -19 -8l-46 2q-123 8 -215 8h-30v-622q0 -31 -6 -46.5t-22 -20.5h82q37 0 57.5 2.5t27.5 2.5
q21 0 21 -7t-21 -7q-7 0 -27.5 1.5t-57.5 1.5h-69q-83 0 -108.5 -2t-30.5 -2q-19 0 -19 8z" />
    <glyph glyph-name="U" unicode="U" horiz-adv-x="770" 
d="M153.5 60q-82.5 76 -82.5 221v156q0 93 -5 203l-1 46q0 19 9 19t9 -19l-2 -46q-5 -110 -5 -203v-156q0 -143 81 -217.5t228 -74.5t228 74.5t81 217.5v156q0 93 -5 203l-2 46q0 19 9 19t9 -19l-1 -46q-5 -110 -5 -203v-156q0 -145 -82.5 -221t-231.5 -76t-231.5 76z" />
    <glyph glyph-name="V" unicode="V" horiz-adv-x="815" 
d="M47 684q-2 4 -2 8q0 9 10 9q8 0 13 -12l21 -44q71 -150 158 -317l174 -333q171 277 234 382t86 152.5t23 74.5q0 55 -51.5 75t-133.5 20q-53 0 -104 -7q-24 -3 -26 -1t-2 4q0 4 6 7q8 5 37 9.5t75 4.5q84 0 144.5 -24t60.5 -88q0 -27 -22 -73.5t-83.5 -148t-231.5 -376.5
l-12 -20h-1l-178 340q-113 216 -195 358z" />
    <glyph glyph-name="W" unicode="W" horiz-adv-x="1185" 
d="M47 684q-2 4 -2 8q0 9 10 9q8 0 13 -12q1 -1 26 -54q69 -150 149 -307l168 -333l185 305q7 12 12.5 21t9.5 16q-156 307 -180 347q-4 8 -4 11q0 6 6 9q7 4 37 8t71 4q85 0 146 -24t61 -88q0 -28 -25 -80t-106 -188l4 -8l168 -333q165 272 228 378t86.5 155t23.5 76
q0 55 -51.5 75t-133.5 20q-53 0 -104 -7q-24 -3 -26 -1t-2 4q0 4 6 7q8 5 37 9.5t75 4.5q84 0 144.5 -24t60.5 -88q0 -28 -23.5 -77t-86 -154t-234.5 -387h-1l-172 340l-3 5q-67 -113 -209 -345h-1l-172 340q-107 212 -191 358zM474 632q18 -35 41 -81l106 -209
q79 132 103.5 183t24.5 79q0 55 -52 75t-138 20q-73 0 -114 -9q11 -23 29 -58z" />
    <glyph glyph-name="X" unicode="X" horiz-adv-x="645" 
d="M437 445q87 100 122 145t35 67q0 42 -103 42q-43 0 -90 -7q-4 0 -15 -2t-14 1q-2 2 -2 4q0 4 6 7q9 5 35.5 9.5t65.5 4.5q123 0 123 -57q0 -22 -31 -63t-107 -128l-68 -78l-55 -64l15 -20q137 -179 230 -295q3 -3 3 -8q0 -8 -9 -8q-6 0 -13 11l-23 33q-110 159 -192 265
l-14 18l-276 -321h-10l283 325l-49 64q-114 149 -231 295q-3 3 -3 8q0 8 9 8q6 0 13 -11l20 -28q107 -154 196 -270l48 -62l54 62q-5 -6 47 53z" />
    <glyph glyph-name="Y" unicode="Y" horiz-adv-x="790" 
d="M378.5 -192q-60.5 24 -60.5 88q0 40 69 149l-146 281q-101 197 -194 358q-2 4 -2 8q0 9 10 9q8 0 13 -12q59 -130 178 -361l144 -278q33 53 82 121.5t60 84.5q103 145 155 227.5t52 120.5q0 55 -51.5 75t-133.5 20q-53 0 -104 -7q-24 -3 -26 -1t-2 4q0 4 6 7q8 5 37 9.5
t75 4.5q84 0 144.5 -24t60.5 -88q0 -38 -52.5 -121.5t-157.5 -231.5q-106 -149 -158.5 -232.5t-52.5 -122.5q0 -55 50.5 -74.5t130.5 -19.5q38 0 104 6q27 5 31 1q2 -2 1 -5t-4 -5q-11 -5 -40 -10t-74 -5q-84 0 -144.5 24z" />
    <glyph glyph-name="Z" unicode="Z" horiz-adv-x="745" 
d="M109.5 30.5q23.5 18.5 42.5 44.5l409 548q16 21 36.5 40t38.5 26q-45 6 -98 6h-206q-118 0 -185 -5t-76 -6h-4q-15 0 -15 9t19 9h46q92 -2 215 -2h206q59 0 84 3t34 3q11 0 16.5 -2t5.5 -8q0 -9 -25 -9q-19 0 -42 -19t-43 -45l-410 -548q-16 -22 -36 -40t-39 -25
q38 -5 97 -5h416q50 0 73 15.5t23 44.5q0 15 -6 34.5t-19 50.5q-3 8 -3 13q0 9 8 9t14 -16q10 -25 14.5 -42.5t4.5 -34.5q0 -36 -23.5 -57.5t-77.5 -21.5h-424q-58 0 -82.5 -2.5t-32.5 -2.5q-12 0 -18.5 2t-6.5 7q0 8 25 8q21 0 44.5 18.5z" />
    <glyph glyph-name="bracketleft" unicode="[" horiz-adv-x="255" 
d="M65 -55q3 111 3 228v358q0 117 -3 228q0 9 8 9q5 0 16 -1t26 -1l46 1q13 1 40 1q11 0 15 -1t4 -5q0 -3 -5 -4t-14 -1q-14 0 -40 2t-46 2h-42v-818h42q20 0 46 2t40 2q9 0 14 -1t5 -4q0 -4 -4 -5t-15 -1q-27 0 -40 1l-46 1q-15 0 -26 -1t-16 -1q-8 0 -8 9z" />
    <glyph glyph-name="backslash" unicode="\" horiz-adv-x="280" 
d="M202 -146q-1 6 -7 56q-11 100 -25 189l-65 411q-17 108 -37 205q-7 31 -8 40v4q0 11 7 11q9 0 11 -15q1 -6 7 -56q11 -100 25 -189l65 -411q18 -108 37 -205q7 -31 8 -40v-4q0 -11 -7 -11q-9 0 -11 15z" />
    <glyph glyph-name="bracketright" unicode="]" horiz-adv-x="255" 
d="M190 759q-3 -111 -3 -228v-358q0 -117 3 -228q0 -9 -8 -9q-5 0 -16 1t-26 1l-46 -1q-13 -1 -40 -1q-11 0 -15 1t-4 5q0 3 5 4t14 1q14 0 40 -2t46 -2h42v818h-42q-20 0 -46 -2t-40 -2q-9 0 -14 1t-5 4q0 4 4 5t15 1q27 0 40 -1l46 -1q15 0 26 1t16 1q8 0 8 -9z" />
    <glyph glyph-name="asciicircum" unicode="^" horiz-adv-x="445" 
d="M354 512q-70 111 -126 197q-86 -129 -144 -230l-11 -19q-4 -6 -7 -8.5t-7 -2.5q-6 0 -8.5 6t1.5 11q5 8 20 28q50 65 156 222q44 -67 158 -235l19 -28l-9 -6q-15 22 -42 65z" />
    <glyph glyph-name="underscore" unicode="_" horiz-adv-x="660" 
d="M35 0h590v-5h-590v5z" />
    <glyph glyph-name="grave" unicode="`" horiz-adv-x="248" 
d="M20 703q0 7 8 7q5 0 10 -4l190 -130l-1 -2l-198 117q-9 6 -9 12z" />
    <glyph glyph-name="a" unicode="a" horiz-adv-x="665" 
d="M99 13.5q-49 29.5 -49 93.5q0 48 34 79t122 46l117 20q72 13 112 30t56.5 42.5t16.5 65.5q0 65 -39 87.5t-110 22.5h-48q-88 0 -166 -10l-25 -2q-7 0 -7 5q0 10 51 15t121 5q86 0 134.5 -10.5t71 -37t22.5 -75.5q0 -43 -18 -69.5t-58.5 -43.5t-114.5 -30l-116 -20
q-86 -15 -118.5 -44t-32.5 -76q0 -118 180 -118q71 0 133.5 18.5t100.5 53t38 79.5q0 18 8 18q9 0 6 -15q-6 -30 -6 -57q0 -79 63 -79q18 0 48 6l6 1q8 0 8 -6t-12.5 -10t-29.5 -4q-37 0 -56.5 14t-26 37t-9.5 61q-21 -57 -98.5 -89.5t-172.5 -32.5q-87 0 -136 29.5z" />
    <glyph glyph-name="b" unicode="b" horiz-adv-x="645" 
d="M235 -1.5q-50 14.5 -81 39.5q-2 1 -2 5q0 5 3.5 7t8.5 -2q34 -27 80 -43t94 -16q73 0 130.5 33.5t89.5 93t32 134.5q0 73 -30.5 132.5t-88 94t-134.5 34.5q-79 0 -137 -36.5t-88 -98.5t-31 -138q0 -77 5 -182l1 -44q0 -7 -2.5 -12t-6.5 -5q-8 0 -8 17l2 47q0 19 2 74.5
t2 111.5v240q0 56 -2 111.5t-2 74.5l-2 47q0 17 8 17q4 0 6.5 -5t2.5 -12l-2 -46q0 -19 -2 -75t-2 -112v-190q16 98 83.5 159.5t172.5 61.5q78 0 136.5 -35t90 -95.5t31.5 -135.5q0 -76 -32.5 -137t-92 -95t-135.5 -34q-50 0 -100 14.5z" />
    <glyph glyph-name="c" unicode="c" horiz-adv-x="630" 
d="M193 16q-64 32 -103.5 92.5t-39.5 142.5q0 81 39.5 141.5t103.5 92t138 31.5q68 0 123.5 -26.5t78.5 -61.5q1 -1 1 -4t-3 -4t-6 3q-25 35 -76.5 61.5t-118.5 26.5q-72 0 -135 -30.5t-101.5 -89.5t-38.5 -140t38.5 -140.5t101.5 -90.5t133 -31q63 0 108.5 20.5t71 46.5
t49.5 59q7 10 13 17.5t10 7.5q5 0 5 -6q0 -13 -32 -50.5t-90 -68.5t-134 -31q-72 0 -136 32z" />
    <glyph glyph-name="d" unicode="d" horiz-adv-x="645" 
d="M171.5 19q-58.5 35 -90 95.5t-31.5 135.5q0 76 32.5 137t92 95t135.5 34q50 0 100 -14.5t81 -39.5q2 -1 2 -5q0 -5 -3.5 -7t-8.5 2q-34 27 -80 43t-94 16q-73 0 -130.5 -33.5t-89.5 -93t-32 -134.5q0 -73 30.5 -132.5t88 -94t134.5 -34.5q79 0 137 37t88.5 99.5
t30.5 139.5v220q0 56 -2 111.5t-2 74.5l-2 47q0 17 8 17q4 0 6.5 -5t2.5 -12l-2 -46q0 -19 -2 -75t-2 -112v-240q0 -56 2 -112t2 -75l2 -46q0 -7 -2.5 -12t-6.5 -5q-8 0 -8 17l2 46q4 141 4 146q-17 -98 -84.5 -159t-171.5 -61q-78 0 -136.5 35z" />
    <glyph glyph-name="e" unicode="e" horiz-adv-x="625" 
d="M193.5 17q-64.5 33 -104 94.5t-39.5 143.5q0 79 37 138.5t97 91t129 31.5q58 0 107.5 -22.5t78.5 -61t29 -86.5h-458q-15 -40 -15 -91q0 -82 39 -142t102.5 -92t135.5 -32q61 0 105 20.5t69.5 46.5t49.5 59q7 10 13.5 17.5t10.5 7.5q5 0 5 -6q0 -13 -32 -50.5t-89 -68.5
t-132 -31q-74 0 -138.5 33zM522 351q0 42 -27.5 79t-75.5 59t-106 22q-80 0 -146.5 -42.5t-95.5 -117.5h451z" />
    <glyph glyph-name="f" unicode="f" horiz-adv-x="385" 
d="M25 4q0 8 15 8q5 0 18.5 -3t26.5 -3q27 0 36 16t9 54v423q-25 1 -101 1q-4 0 -4 2.5t4 2.5l101 1v36q0 77 10.5 118t46.5 62.5t110 21.5q53 0 53 -10q0 -6 -11 -6q-12 0 -20 1l-51 1q-59 0 -87.5 -19.5t-37 -59t-8.5 -113.5v-32q47 1 83 3l51 1q14 0 18.5 -1.5t4.5 -5.5
t-4.5 -5.5t-18.5 -1.5q-36 0 -53 1q-1 0 -81 2v-424q0 -31 -6 -47.5t-22 -22.5h27q41 0 106 5l35 2q17 0 17 -7q0 -8 -17 -8q-20 0 -35 1q-52 2 -106 2h-14q-38 0 -55.5 -2t-24.5 -2q-15 0 -15 8z" />
    <glyph glyph-name="g" unicode="g" horiz-adv-x="600" 
d="M116 -174q-19 8 -19 19q0 4 3.5 5.5t8.5 -1.5q41 -24 76 -33.5t74 -9.5q84 0 149.5 30.5t101.5 79.5t36 102q0 85 -76 85q-41 0 -82 -20.5t-99 -61.5q-59 -40 -96.5 -59t-76.5 -19q-36 0 -58.5 21t-22.5 54q0 40 35 76t84.5 60t92.5 33q-87 8 -132 54.5t-45 110.5
q0 70 53 117t156 47q73 0 121.5 -21.5t63.5 -61.5q0 32 21.5 52t62.5 20q5 0 8.5 -2t3.5 -5q0 -8 -10 -8q-39 0 -60 -12t-21 -43q0 -10 3.5 -19t3.5 -11q0 -8 -7 -8q-8 0 -8 12q0 46 -49 74t-133 28q-101 0 -152.5 -45t-51.5 -114t51.5 -115t151.5 -46q60 0 103.5 17.5
t66 46.5t22.5 63q0 10 -5 23v1q0 3 3.5 3.5t4.5 -3.5q2 -10 2 -24q0 -35 -23.5 -65.5t-68 -48.5t-105.5 -18q-37 0 -94.5 -23.5t-100.5 -62t-43 -82.5q0 -31 21.5 -50.5t55.5 -19.5q37 0 73.5 19t93.5 58q60 41 102 62t86 21q79 0 79 -90q0 -55 -38 -106.5t-106 -83.5
t-153 -32q-75 0 -138 30z" />
    <glyph glyph-name="h" unicode="h" horiz-adv-x="625" 
d="M538 12l2 44q0 17 2 64.5t2 94.5v38q0 123 -58 190.5t-170 67.5q-113 0 -174 -68t-61 -190v-8q0 -56 2 -112t2 -75l2 -46q0 -7 -2.5 -12t-6.5 -5q-8 0 -8 17l2 47q0 19 2 74.5t2 111.5v240q0 56 -2 111.5t-2 74.5l-2 47q0 17 8 17q4 0 6.5 -5t2.5 -12l-2 -46
q0 -19 -2 -75t-2 -112v-167q15 95 75.5 146.5t159.5 51.5q114 0 173.5 -68.5t59.5 -192.5v-40q0 -47 2 -94.5t2 -64.5l2 -44q0 -7 -2.5 -12t-6.5 -5q-8 0 -8 17z" />
    <glyph glyph-name="i" unicode="i" horiz-adv-x="166" 
d="M73.5 708q-3.5 4 -3.5 9t3.5 9t9.5 4t9.5 -4t3.5 -9t-3.5 -9t-9.5 -4t-9.5 4zM76 38q5 65 5 137v150q0 73 -5 138l-1 25q0 17 8 17q9 0 9 -17l-1 -25q-5 -65 -5 -138v-150q0 -72 5 -137l1 -26q0 -17 -9 -17q-8 0 -8 17z" />
    <glyph glyph-name="j" unicode="j" horiz-adv-x="180" 
d="M87.5 708q-3.5 4 -3.5 9t3.5 9t9.5 4t9.5 -4t3.5 -9t-3.5 -9t-9.5 -4t-9.5 4zM-105 -186q6 0 22 -2q33 -3 42 -3q56 0 85.5 21t40 63.5t10.5 117.5v314q0 73 -5 138l-1 25q0 17 8 17q9 0 9 -17l-1 -25q-5 -65 -5 -138v-315q0 -78 -12.5 -123t-49.5 -68.5t-109 -23.5
q-44 0 -44 12q0 7 10 7z" />
    <glyph glyph-name="k" unicode="k" horiz-adv-x="610" 
d="M87 5h27q41 0 106 5l35 2q17 0 17 -7q0 -8 -17 -8q-20 0 -35 1q-52 2 -106 2h-14q-32 0 -50 -2t-25 -2q-15 0 -15 8t15 8q5 0 17 -3t23 -3q27 0 36 16t9 54v409q0 56 -2 111.5t-2 74.5l-2 47q0 17 8 17q4 0 6.5 -5t2.5 -12l-2 -46q0 -19 -2 -75t-2 -112v-410
q0 -30 -5 -44l323 352q18 20 71 82q14 18 24.5 29t15.5 11q7 0 7 -7t-30 -34q-51 -48 -84 -84l-102 -111l136 -149q42 -47 87 -87q12 -11 19.5 -19t7.5 -12q0 -7 -7 -7q-5 0 -14.5 10t-22.5 27q-51 60 -74 85l-136 148l-231 -252q-8 -6 -13 -8z" />
    <glyph glyph-name="l" unicode="l" horiz-adv-x="275" 
d="M150.5 10.5q-15.5 16.5 -15.5 59.5v600q0 35 -14 47.5t-54 12.5q-15 0 -30.5 -1.5t-23.5 -1.5t-8 6t13 9t33 3q50 0 69.5 -17t19.5 -58v-609q0 -32 14 -42.5t44 -10.5t53 5l6 1q8 0 8 -6t-15 -10t-39 -4q-45 0 -60.5 16.5z" />
    <glyph glyph-name="m" unicode="m" horiz-adv-x="1026" 
d="M939 12l2 40q0 17 2 66t2 97v39q0 123 -51 190t-155 67q-105 0 -158 -67t-53 -190v-1v-38q0 -48 2 -97t2 -66l2 -40q0 -7 -2.5 -12t-6.5 -5q-8 0 -8 17l2 40q0 17 2 66t2 97v39q0 124 -50.5 190.5t-155.5 66.5t-158 -67t-53 -191v-38q0 -48 2 -97t2 -66l2 -40
q0 -7 -2.5 -12t-6.5 -5q-8 0 -8 17l2 40q0 17 2 66t2 97v151q0 68 -12.5 96.5t-41.5 28.5q-12 0 -12 7t12 7q23 0 41 -28t18 -106v-47q14 92 67 142t144 50q95 0 147 -54.5t62 -156.5q11 102 64.5 156.5t148.5 54.5q106 0 158.5 -68t52.5 -194v-39q0 -48 2 -97t2 -66l2 -40
q0 -7 -2.5 -12t-6.5 -5q-8 0 -8 17z" />
    <glyph glyph-name="n" unicode="n" horiz-adv-x="650" 
d="M563 12l2 44q0 17 2 64.5t2 94.5v38q0 123 -58 190.5t-170 67.5q-113 0 -174 -68t-61 -190v-38q0 -48 2 -97t2 -66l2 -40q0 -7 -2.5 -12t-6.5 -5q-8 0 -8 17l2 40q0 17 2 66t2 97v151q0 68 -12.5 96t-41.5 28q-12 0 -12 7q0 8 12 8q23 0 41 -28t18 -106v-53
q15 95 75.5 146.5t159.5 51.5q114 0 173.5 -68.5t59.5 -192.5v-40q0 -47 2 -94.5t2 -64.5l2 -44q0 -7 -2.5 -12t-6.5 -5q-8 0 -8 17z" />
    <glyph glyph-name="o" unicode="o" 
d="M189 16q-62 32 -100.5 92.5t-38.5 141.5t38.5 141.5t100.5 92.5t131 32t131 -32t100.5 -92.5t38.5 -141.5t-38.5 -141.5t-100.5 -92.5t-131 -32t-131 32zM92.5 111q37.5 -59 98.5 -90.5t129 -31.5t129 31.5t98.5 90.5t37.5 139t-37.5 139t-98.5 90.5t-129 31.5
t-129 -31.5t-98.5 -90.5t-37.5 -139t37.5 -139z" />
    <glyph glyph-name="p" unicode="p" horiz-adv-x="670" 
d="M260 -1.5q-50 14.5 -81 39.5q-2 1 -2 5q0 5 3.5 7t8.5 -2q34 -27 80 -43t94 -16q73 0 130.5 33.5t89.5 93t32 134.5q0 73 -30.5 132.5t-88 94t-134.5 34.5q-79 0 -137 -37t-88.5 -99.5t-30.5 -139.5v-360q0 -31 -6 -47.5t-21 -22.5h41q41 0 106 5l35 2q17 0 17 -7
q0 -8 -17 -8q-20 0 -35 1q-52 2 -106 2h-14q-38 0 -54 -2t-23 -2q-14 0 -14 8q0 7 14 7q6 0 15.5 -2.5t16.5 -2.5q23 0 31.5 16t8.5 54v449q0 73 -5 138l-1 25q0 17 8 17q4 0 6.5 -5t2.5 -12l-1 -25q-5 -65 -5 -138v-30q16 98 83.5 159.5t172.5 61.5q78 0 136.5 -35
t90 -95.5t31.5 -135.5q0 -76 -32.5 -137t-92 -95t-135.5 -34q-50 0 -100 14.5z" />
    <glyph glyph-name="q" unicode="q" horiz-adv-x="650" 
d="M174.5 18q-59.5 34 -92 95t-32.5 137q0 75 31.5 135.5t90 95.5t136.5 35q105 0 172.5 -61.5t83.5 -159.5v30q0 73 -5 138l-1 25q0 17 8 17q4 0 6.5 -5t2.5 -12l-1 -25q-5 -65 -5 -138v-405q0 -105 -66 -115h45q15 0 47 4q20 3 33 3q17 0 17 -7q0 -8 -17 -8l-33 1
q-32 2 -47 2h-4q-40 0 -63 -2t-31 -2q-15 0 -15 8t15 8q7 0 18.5 -2t16.5 -2q36 0 57.5 23.5t21.5 89.5v314q0 77 -30.5 139.5t-88.5 99.5t-137 37q-77 0 -134.5 -34.5t-88 -94t-30.5 -132.5q0 -75 32 -134.5t89.5 -93t130.5 -33.5q48 0 94 16t80 43q3 3 6 3q5 0 6.5 -5
t-2.5 -8q-31 -25 -81 -39.5t-100 -14.5q-76 0 -135.5 34z" />
    <glyph glyph-name="r" unicode="r" horiz-adv-x="400" 
d="M88.5 462q-12.5 28 -41.5 28q-12 0 -12 7q0 8 12 8q23 0 41 -28t18 -106v-27q11 82 58 125.5t154 43.5q52 0 52 -11q0 -6 -11 -6q-9 0 -28 1.5t-41 1.5q-81 0 -121 -32.5t-51.5 -85.5t-11.5 -138v-28q0 -48 2 -97t2 -66l2 -40q0 -7 -2.5 -12t-6.5 -5q-8 0 -8 17l2 40
q0 17 2 66t2 97v151q0 68 -12.5 96z" />
    <glyph glyph-name="s" unicode="s" horiz-adv-x="555" 
d="M143.5 2q-56.5 18 -86.5 39q-7 6 -7 11q0 8 8 8q3 0 10 -5q3 -2 24.5 -20t70 -32t111.5 -14q100 0 163 32t63 99q0 47 -30.5 75t-74.5 42t-119 29q-69 14 -111 27t-70 37.5t-28 65.5q0 54 54.5 85.5t172.5 31.5q61 0 113 -6t52 -16q0 -5 -7 -5q-8 0 -26 3q-85 11 -164 11
h-27q-78 0 -120.5 -28t-42.5 -76q0 -39 27.5 -63t68 -36t109.5 -26q75 -15 120 -29.5t76.5 -44t31.5 -77.5q0 -69 -64 -102.5t-169 -33.5q-72 0 -128.5 18z" />
    <glyph glyph-name="t" unicode="t" horiz-adv-x="380" 
d="M170 10.5q-26 15.5 -33 41.5t-7 75v297q0 39 -9 54.5t-39 15.5q-10 0 -22.5 -2.5t-18.5 -2.5q-16 0 -16 8t16 8q7 0 22 -2.5t41 -2.5h45q-11 5 -15 14.5t-4 25.5q0 39 -2 76.5t-2 50.5l-2 36q0 17 8 17q9 0 9 -17l-2 -36q0 -13 -2 -50.5t-2 -76.5q0 -21 7.5 -30.5
t31.5 -9.5q78 0 105.5 2.5t33.5 2.5q18 0 18 -8t-18 -8q-6 0 -37 3t-142 3h-29q18 -5 24 -21.5t6 -48.5v-297q0 -49 7 -74.5t28.5 -37t65.5 -11.5t64.5 8.5t25.5 8.5q9 0 9 -7q0 -9 -25 -14.5t-59 -5.5q-55 0 -81 15.5z" />
    <glyph glyph-name="u" unicode="u" 
d="M128 47q-57 62 -57 183v56q0 47 -2 94.5t-2 64.5l-2 44q0 7 2.5 12t6.5 5q8 0 8 -17l-2 -44q0 -17 -2 -64.5t-2 -94.5v-54q0 -242 221 -242q119 0 180.5 67.5t61.5 190.5v38q0 48 -2 97t-2 66l-2 40q0 7 2.5 12t6.5 5q8 0 8 -17l-2 -40q0 -17 -2 -66t-2 -97v-151
q0 -68 12.5 -96t41.5 -28q12 0 12 -7q0 -8 -12 -8q-23 0 -41 28t-18 106v53q-15 -95 -77 -146.5t-165 -51.5q-112 0 -169 62z" />
    <glyph glyph-name="v" unicode="v" horiz-adv-x="605" 
d="M90 396q-30 53 -36 63l-16 28q-3 5 -3 10q0 8 8 8q6 0 11 -12q0 -1 17 -36q43 -94 85 -176l146 -286q148 215 205.5 308.5t57.5 132.5q0 37 -34.5 49t-95.5 12q-25 0 -47.5 -2.5t-31.5 -2.5q-8 0 -10 3q-3 5 3 8q4 3 24.5 5.5t47.5 2.5q64 0 106.5 -15.5t42.5 -60.5
q0 -40 -58 -134.5t-210 -314.5h-1l-149 293q-32 64 -62 117z" />
    <glyph glyph-name="w" unicode="w" horiz-adv-x="916" 
d="M90 396q-30 53 -36 63l-16 28q-3 5 -3 10q0 8 8 8q6 0 11 -12q0 -1 17 -36q43 -94 85 -176l146 -286q126 183 173 257l-14 28q-44 86 -76.5 142.5t-35.5 62.5q-2 4 -2 7q0 5 6 8q5 3 36.5 7t62.5 4q53 0 85.5 -16.5t32.5 -59.5q0 -24 -22 -68.5t-67 -115.5l132 -256
q146 212 204.5 307.5t58.5 133.5q0 37 -34.5 49t-95.5 12q-25 0 -47.5 -2.5t-31.5 -2.5q-8 0 -10 3q-3 5 3 8q4 3 24.5 5.5t47.5 2.5q149 0 149 -76q0 -40 -59 -136t-209 -313h-1l-134 261q-51 -79 -133 -197q-6 -10 -43 -64h-1l-149 293q-32 64 -62 117zM465 282l13 -25
q45 71 66 113.5t21 65.5q0 36 -27.5 48.5t-81.5 12.5q-38 0 -64 -4t-36 -7q80 -148 109 -204z" />
    <glyph glyph-name="x" unicode="x" horiz-adv-x="530" 
d="M366 335q60 61 86 91.5t26 46.5q0 18 -20 23.5t-58 5.5q-17 0 -65 -3q-20 -2 -23 -2q-8 0 -10 3q-3 5 3 8q5 3 27 5.5t51 2.5q102 0 102 -41q0 -16 -24.5 -45t-82.5 -89q-61 -64 -57 -60l-44 -46l13 -15q94 -108 160 -182l25 -28q3 -4 3 -8q0 -7 -7 -7q-5 0 -12 9
q-100 128 -174 215l-11 13l-219 -232q-4 -4 -6.5 -5t-3.5 1t1 4l225 235l-38 45q-94 108 -160 182l-25 28q-3 5 -3 8q0 7 7 7q5 0 12 -9q100 -128 174 -215l36 -43l42 44q47 50 50 53z" />
    <glyph glyph-name="y" unicode="y" horiz-adv-x="605" 
d="M266 -190q-45 19 -45 67q0 22 15.5 50t45.5 70l-137 283q-35 73 -80 156q-24 43 -28 53q-2 3 -2 9q0 7 8 7q6 0 11 -12l13 -31q43 -100 82 -180l136 -281l40 55q135 184 187.5 264t52.5 116q0 37 -34.5 49t-95.5 12q-25 0 -47.5 -2.5t-31.5 -2.5q-8 0 -10 3q-3 5 3 8
q4 3 24.5 5.5t47.5 2.5q64 0 106.5 -15.5t42.5 -60.5q0 -36 -53.5 -117.5t-184.5 -258.5l-43 -59q-31 -42 -47 -71.5t-16 -52.5q0 -71 130 -71q35 0 61 5t28 3t1 -5t-4 -4q-6 -4 -26 -8.5t-49 -4.5q-56 0 -101 19z" />
    <glyph glyph-name="z" unicode="z" horiz-adv-x="580" 
d="M91.5 23q17.5 13 32.5 31l311 392q12 14 27 26.5t29 18.5q-24 4 -72 4h-263q-42 0 -61 -2.5t-26 -2.5q-19 0 -19 7t19 7q7 0 26 -2t61 -2h263q45 0 63 2t24 2q19 0 19 -7t-19 -7q-15 0 -32.5 -13t-32.5 -31l-311 -392q-28 -34 -53 -46q36 -3 69 -3h323q31 0 44 9t13 27
q0 19 -17 65q-2 6 -2 10q0 6 4 7h2q8 0 12 -12q15 -32 15 -57t-16.5 -39.5t-53.5 -14.5h-324q-45 0 -63 -2t-24 -2q-19 0 -19 7t19 7q15 0 32.5 13z" />
    <glyph glyph-name="braceleft" unicode="{" horiz-adv-x="280" 
d="M186 -63l-46 1q-28 0 -39 11t-11 36q0 26 1 48q2 74 2 140v71q0 45 -17.5 70t-50.5 37v2q33 12 50.5 37t17.5 70v71q0 66 -2 140q-1 22 -1 48q0 25 11 36t39 11l46 1q13 1 40 1q11 0 15 -1t4 -5q0 -3 -5 -4t-14 -1q-14 0 -40 2t-46 2q-23 0 -32.5 -8.5t-9.5 -31.5v-262
q0 -83 -61 -107q61 -24 61 -107v-262q0 -23 9.5 -31.5t32.5 -8.5q20 0 46 2t40 2q9 0 14 -1t5 -4q0 -4 -4 -5t-15 -1q-27 0 -40 1z" />
    <glyph glyph-name="bar" unicode="|" horiz-adv-x="178" 
d="M82.5 -156q-2.5 5 -2.5 12l2 48q5 115 5 195v411q0 80 -5 195l-2 48q0 7 2.5 12t6.5 5t6.5 -5t2.5 -12l-2 -48q0 -21 -2 -79.5t-2 -115.5v-411q0 -57 2 -115.5t2 -79.5l2 -48q0 -7 -2.5 -12t-6.5 -5t-6.5 5z" />
    <glyph glyph-name="braceright" unicode="}" horiz-adv-x="300" 
d="M94 767l46 -1q28 0 39 -11t11 -36q0 -26 -1 -48q-2 -74 -2 -140v-71q0 -45 17.5 -70t50.5 -37v-2q-33 -12 -50.5 -37t-17.5 -70v-71q0 -66 2 -140q1 -22 1 -48q0 -25 -11 -36t-39 -11l-46 -1q-13 -1 -40 -1q-11 0 -15 1t-4 5q0 3 5 4t14 1q14 0 40 -2t46 -2
q23 0 32.5 8.5t9.5 31.5v262q0 83 61 107q-61 24 -61 107v262q0 23 -9.5 31.5t-32.5 8.5q-20 0 -46 -2t-40 -2q-9 0 -14 1t-5 4q0 4 4 5t15 1q27 0 40 -1z" />
    <glyph glyph-name="asciitilde" unicode="~" horiz-adv-x="595" 
d="M358 238.5q-28 11.5 -64 34.5q-34 21 -59 31.5t-58 10.5q-48 0 -72 -16.5t-44 -42.5q-12 -17 -19 -17t-7 7q0 11 17 29t48 31.5t71 13.5q39 0 67 -11.5t64 -34.5q35 -21 59 -31.5t57 -10.5q48 0 73 16.5t44 42.5q5 7 9.5 12t8.5 5q7 0 7 -7q0 -11 -16.5 -29t-47.5 -31.5
t-72 -13.5q-38 0 -66 11.5z" />
    <glyph glyph-name="uni00A0" unicode="&#xa0;" horiz-adv-x="215" 
 />
    <glyph glyph-name="exclamdown" unicode="&#xa1;" horiz-adv-x="220" 
d="M117 -125l2 -65q0 -15 -9 -15t-9 15q0 6 0.5 21t0.5 44q5 183 5 300v124q0 3 2.5 3t2.5 -3v-124q0 -117 5 -300zM67 499q17 17 43 17t43 -17t17 -43t-17 -43t-43 -17t-43 17t-17 43t17 43zM70.5 417q15.5 -16 39.5 -16t39.5 16t15.5 39t-15.5 39t-39.5 16t-39.5 -16
t-15.5 -39t15.5 -39z" />
    <glyph glyph-name="cent" unicode="&#xa2;" horiz-adv-x="630" 
d="M219 102q0 6 1 9q1 6 8 25q3 7 17 50q-85 24 -140 90.5t-55 164.5q0 81 39.5 141.5t103.5 92t138 31.5q19 0 51 -4l12 52l4 20q4 14 11 14t7 -9q0 -4 -2 -10l-8 -25l-15 -44q49 -10 86.5 -33t55.5 -49q1 -1 1 -4t-3 -4t-6 3q-20 26 -55 49t-81 33q-14 -43 -24 -82
l-92 -347q-16 -61 -19 -78q36 -9 74 -9q63 0 108.5 20.5t71 46.5t49.5 59q7 10 13 17.5t10 7.5q5 0 5 -6q0 -13 -32 -50.5t-90 -68.5t-134 -31q-42 0 -76 10q-8 -34 -11.5 -52t-5.5 -26q-4 -14 -11 -14q-6 0 -6 10zM109 278.5q54 -65.5 138 -88.5l6 21l16 56l92 348
q6 21 20 81q-27 5 -51 5q-72 0 -135 -30.5t-101.5 -89.5t-38.5 -140q0 -97 54 -162.5z" />
    <glyph glyph-name="sterling" unicode="&#xa3;" horiz-adv-x="665" 
d="M375 -27.5q-32 3.5 -83 10.5q-58 9 -98 13t-93 4q-13 0 -24.5 -2t-20.5 -2q-14 0 -14 8q0 7 13 7q60 0 89 24.5t29 97.5q0 44 -10 86t-28 93h-10q-30 0 -49 -3t-26 -3q-15 0 -15 9q0 8 15 8q7 0 26 -3t49 -3h8l-8 22q-22 58 -33 98.5t-11 82.5q0 196 283 196
q68 0 135.5 -7.5t67.5 -21.5q0 -7 -11 -7q-8 0 -25 3.5t-25 4.5q-93 21 -164 21q-120 0 -188 -48t-68 -140q0 -38 10.5 -76t32.5 -99l10 -29h91q81 0 196 5l49 2q15 0 15 -9t-15 -9l-49 2q-21 0 -79.5 2t-116.5 2h-90q18 -52 28 -94t10 -85q0 -74 -30 -100.5t-76 -26.5
q69 0 122.5 -5t119.5 -15q8 -1 47.5 -6.5t73.5 -5.5q60 0 94 12.5t61 31.5q6 5 12 5q4 0 7 -4q1 -1 1 -3q0 -9 -13 -16q-49 -31 -152 -31q-38 0 -70 3.5z" />
    <glyph glyph-name="currency" unicode="&#xa4;" horiz-adv-x="396" 
d="M150.5 460.5q-22.5 9.5 -38.5 26.5q-21 -24 -32 -38.5t-14 -18.5q-5 -5 -9 -5q-7 0 -7 7q0 6 5 10q42 37 53 48q-30 33 -30 80t30 80q-11 11 -53 48q-5 4 -5 9q0 3 2 5.5t6 2.5q3 0 8 -5q3 -4 14 -18.5t32 -38.5q16 17 38.5 26.5t47.5 9.5t47.5 -9.5t38.5 -26.5
q21 24 32 38.5t14 18.5q5 5 9 5q7 0 7 -7q0 -6 -5 -10q-42 -37 -53 -48q30 -33 30 -80t-30 -80q11 -11 53 -48q5 -4 5 -9q0 -3 -2 -5.5t-6 -2.5q-3 0 -8 5q-3 4 -14 18.5t-32 38.5q-16 -17 -38.5 -26.5t-47.5 -9.5t-47.5 9.5zM116.5 489q33.5 -33 81.5 -33t81.5 33t33.5 81
t-33.5 81t-81.5 33t-81.5 -33t-33.5 -81t33.5 -81z" />
    <glyph glyph-name="yen" unicode="&#xa5;" horiz-adv-x="790" 
d="M116 205.5q-5 2.5 -5 6.5q0 8 17 8q4 0 20 -3t43 -3h108l-58 112q-101 197 -194 358q-2 4 -2 8q0 9 10 9q8 0 13 -12q59 -130 178 -361l59 -114h106l92 1l32 45q101 143 152.5 225t51.5 119q0 55 -51.5 75t-133.5 20q-53 0 -104 -7q-24 -3 -26 -1t-2 4q0 4 6 7
q8 5 37 9.5t75 4.5q84 0 144.5 -24t60.5 -88q0 -38 -52 -121t-156 -230l-27 -38l70 3q53 3 74 3q7 0 12 -2.5t5 -6.5t-5 -6.5t-12 -2.5l-54 2l-96 3l-45 -64q-14 0 115 4l50 2q7 0 12 -2.5t5 -6.5t-5 -6.5t-12 -2.5l-43 1q-35 2 -126 4q-62 -89 -96.5 -150t-34.5 -91
q0 -55 50.5 -74.5t130.5 -19.5q38 0 104 6q27 5 31 1q2 -2 1 -5t-4 -5q-11 -5 -40 -10t-74 -5q-84 0 -144.5 24t-60.5 88q0 40 69 149l-49 93h-167q-31 0 -49.5 -3t-23.5 -3q-7 0 -12 2.5t-5 6.5q0 8 17 8q5 0 23.5 -3t49.5 -3h165l-34 66h-111q-27 0 -43 -3t-20 -3
q-7 0 -12 2.5zM342 143h39l72 1q17 26 45 64q-27 1 -87 1h-103zM390 50q26 41 58 87q-21 1 -67 1h-37z" />
    <glyph glyph-name="brokenbar" unicode="&#xa6;" horiz-adv-x="178" 
d="M82.5 334q-2.5 5 -2.5 12q0 6 2 36q5 75 5 157v21q0 82 -5 157q-2 30 -2 36q0 7 2.5 12t6.5 5t6.5 -5t2.5 -12q0 -6 -2 -36q0 -11 -2 -53t-2 -104v-21q0 -62 2 -104t2 -53q2 -30 2 -36q0 -7 -2.5 -12t-6.5 -5t-6.5 5zM82 -108q5 75 5 157v21q0 82 -5 157q-2 30 -2 36
q0 7 2.5 12t6.5 5t6.5 -5t2.5 -12q0 -6 -2 -36q0 -11 -2 -53t-2 -104v-21q0 -62 2 -104t2 -53q2 -30 2 -36q0 -7 -2.5 -12t-6.5 -5t-6.5 5t-2.5 12q0 6 2 36z" />
    <glyph glyph-name="section" unicode="&#xa7;" horiz-adv-x="560" 
d="M138 -3.5q-58 12.5 -83 30.5q-5 4 -5 9q0 4 2.5 6.5t6.5 2.5q3 0 26 -15t70 -28t120 -13q102 0 163.5 29.5t61.5 97.5q0 46 -30.5 74t-75.5 42.5t-119 30.5q-70 15 -112 28.5t-70.5 38.5t-28.5 66q0 36 22.5 61.5t62.5 39.5q-41 16 -63 40t-22 59q0 61 60.5 90.5
t149.5 29.5q62 0 117 -13t80 -31q4 -3 4 -8q0 -8 -9 -8q-3 0 -25 15t-63 27.5t-103 12.5q-87 0 -146.5 -28t-59.5 -87q0 -39 28 -63t68.5 -37t110.5 -28q76 -17 121 -32t76.5 -44t31.5 -76q0 -68 -63 -100q63 -36 63 -100q0 -132 -233 -132q-76 0 -134 12.5zM96.5 333
q27.5 -24 68.5 -37t111 -28q60 -14 96.5 -24t65.5 -26q62 31 62 98q0 46 -30.5 74t-75 42.5t-118.5 30.5q-80 17 -120 32q-87 -31 -87 -99q0 -39 27.5 -63z" />
    <glyph glyph-name="dieresis" unicode="&#xa8;" horiz-adv-x="230" 
d="M27 624q-7 7 -7 17t7 17t17 7t17 -7t7 -17t-7 -17t-17 -7t-17 7zM169 624q-7 7 -7 17t7 17t17 7t17 -7t7 -17t-7 -17t-17 -7t-17 7z" />
    <glyph glyph-name="copyright" unicode="&#xa9;" horiz-adv-x="860" 
d="M245 30q-86 46 -138 129.5t-52 191.5q0 107 52 190t138 129t185 46t185 -46t138 -129t52 -190q0 -108 -52 -191.5t-138 -129.5t-185 -46t-185 46zM111.5 161.5q51.5 -82.5 136.5 -127.5t182 -45t182 45t136.5 127.5t51.5 189.5q0 106 -51.5 188t-136.5 127t-182 45
t-182 -45t-136.5 -127t-51.5 -188q0 -107 51.5 -189.5zM234 470q32 51 85 78.5t113 27.5q64 0 115 -28.5t73 -64.5q1 -1 1 -3t-3 -3t-5 2q-25 36 -72 64t-110 28q-59 0 -110.5 -26.5t-82.5 -76.5t-31 -117q0 -68 31.5 -118.5t83 -77t110.5 -26.5q55 0 93.5 20t59.5 46t40 58
q2 3 7 11.5t8.5 12t6.5 3.5q5 0 5 -6q0 -13 -27 -50.5t-76 -68.5t-116 -31q-60 0 -113.5 27.5t-85.5 79.5t-32 120t32 119z" />
    <glyph glyph-name="ordfeminine" unicode="&#xaa;" horiz-adv-x="405" 
d="M78 435q-28 17 -28 52q0 57 87 71l66 11q58 10 79.5 26.5t21.5 49.5q0 34 -21 46.5t-57 12.5h-30q-45 0 -72 -3t-32 -3q-6 0 -6 4q0 13 95 13q70 0 99 -15t29 -55q0 -36 -23.5 -53.5t-82.5 -27.5l-66 -11q-46 -8 -64 -24.5t-18 -41.5q0 -33 26.5 -48.5t72.5 -15.5
q61 0 105.5 22.5t44.5 59.5q0 11 6 11q4 0 4 -6q0 -7 -1 -14.5t-1 -20.5q0 -42 33 -42q6 0 27 3q8 1 8 -4q0 -4 -6.5 -6t-16.5 -2q-30 0 -39.5 15t-12.5 47q-11 -32 -55 -50t-96 -18q-48 0 -76 17z" />
    <glyph glyph-name="guillemotleft" unicode="&#xab;" horiz-adv-x="425" 
d="M256 57q-55 62 -206 220q151 158 206 220q8 10 13 10t6 -4t-3 -8l-34 -34q-72 -68 -183 -184q111 -116 183 -184l34 -34q3 -3 3 -6q0 -6 -6 -6q-5 0 -13 10zM356 57q-55 62 -206 220q151 158 206 220q8 10 13 10t6 -4t-3 -8l-34 -34q-72 -68 -183 -184q111 -116 183 -184
l34 -34q3 -3 3 -6q0 -6 -6 -6q-5 0 -13 10z" />
    <glyph glyph-name="logicalnot" unicode="&#xac;" horiz-adv-x="660" 
d="M620 270h-585v5h590v-111h-5v106z" />
    <glyph glyph-name="registered" unicode="&#xae;" horiz-adv-x="860" 
d="M245 30q-86 46 -138 129.5t-52 191.5q0 107 52 190t138 129t185 46t185 -46t138 -129t52 -190q0 -108 -52 -191.5t-138 -129.5t-185 -46t-185 46zM111.5 161.5q51.5 -82.5 136.5 -127.5t182 -45t182 45t136.5 127.5t51.5 189.5q0 106 -51.5 188t-136.5 127t-182 45
t-182 -45t-136.5 -127t-51.5 -188q0 -107 51.5 -189.5zM280 200q4 68 4 131q0 118 -3 217q0 9 8 9q5 0 16 -1t26 -1h110q80 0 124 -32t44 -90q0 -59 -45 -90.5t-130 -31.5q16 -4 27.5 -11t24.5 -21l28 -30l68 -68q13 -11 20.5 -19.5t7.5 -13.5q0 -8 -8 -8q-3 0 -9.5 7
t-15.5 19q-43 53 -66 78l-29 32q-33 35 -77 35h-44q-18 0 -18 9q0 8 14 8q6 0 11.5 -1t9.5 -2q26 -8 61 -8q80 0 122.5 30t42.5 86t-42.5 86.5t-120.5 30.5h-152v-219q0 -46 5 -131l2 -42q0 -18 -9 -18t-9 18z" />
    <glyph glyph-name="macron" unicode="&#xaf;" horiz-adv-x="355" 
d="M20 635h315v-5h-315v5z" />
    <glyph glyph-name="degree" unicode="&#xb0;" horiz-adv-x="400" 
d="M124.5 437.5q-34.5 19.5 -54.5 54t-20 75.5t20 75.5t54.5 54t75.5 19.5t75.5 -19.5t54.5 -54t20 -75.5t-20 -75.5t-54.5 -54t-75.5 -19.5t-75.5 19.5zM74.5 494q19.5 -33 52.5 -52t73 -19t73 19t52.5 52t19.5 73t-19.5 73t-52.5 52t-73 19t-73 -19t-52.5 -52t-19.5 -73
t19.5 -73z" />
    <glyph glyph-name="plusminus" unicode="&#xb1;" horiz-adv-x="660" 
d="M35 315h293v203h5v-203h292v-5h-292v-202h-5v202h-293v5zM35 25h590v-5h-590v5z" />
    <glyph glyph-name="acute" unicode="&#xb4;" horiz-adv-x="248" 
d="M20 576l190 130q5 4 10 4q8 0 8 -7q0 -6 -9 -12l-198 -117z" />
    <glyph glyph-name="uni00B5" unicode="&#xb5;" horiz-adv-x="645" 
d="M70 -188l1 26q5 65 5 137v311q0 47 -2 94.5t-2 64.5l-2 44q0 7 2.5 12t6.5 5q8 0 8 -17l-2 -44q0 -17 -2 -64.5t-2 -94.5v-54q0 -242 221 -242q119 0 180.5 67.5t61.5 190.5v38q0 48 -2 97t-2 66l-2 40q0 7 2.5 12t6.5 5q8 0 8 -17l-2 -40q0 -17 -2 -66t-2 -97v-151
q0 -68 12.5 -96t41.5 -28q12 0 12 -7q0 -8 -12 -8q-23 0 -41 28t-18 106v53q-15 -95 -77 -146.5t-165 -51.5q-192 0 -221 180v-190q0 -72 5 -137l1 -26q0 -17 -9 -17q-8 0 -8 17z" />
    <glyph glyph-name="paragraph" unicode="&#xb6;" horiz-adv-x="560" 
d="M393 13l2 47q5 128 5 210v35h-115q-103 0 -166.5 50.5t-63.5 149.5t63 147t167 48h73q15 0 26 1t16 1q8 0 8 -9q-3 -90 -3 -382q50 2 74 8v111q0 83 -5 210l-2 47q0 18 9 18t9 -18l-1 -47q-5 -127 -5 -210v-160q0 -82 5 -210l1 -47q0 -18 -9 -18t-9 18l2 47q5 128 5 210
v35h-74v-35q0 -82 5 -210l1 -47q0 -18 -9 -18t-9 18zM122 359.5q62 -49.5 163 -49.5q89 0 115 1v384h-116q-101 0 -162.5 -47.5t-61.5 -142.5q0 -96 62 -145.5z" />
    <glyph glyph-name="periodcentered" unicode="&#xb7;" horiz-adv-x="270" 
d="M92 238q-17 17 -17 43t17 43t43 17t43 -17t17 -43t-17 -43t-43 -17t-43 17zM95.5 242q15.5 -16 39.5 -16t39.5 16t15.5 39t-15.5 39t-39.5 16t-39.5 -16t-15.5 -39t15.5 -39z" />
    <glyph glyph-name="cedilla" unicode="&#xb8;" horiz-adv-x="270" 
d="M76 -194.5q-27 5.5 -41.5 13t-14.5 13.5t8 6q9 0 23 -8q24 -11 45.5 -17t54.5 -6q51 0 72.5 16t21.5 39q0 28 -37.5 45t-130.5 17l75 76h6l-72 -72q164 0 164 -66q0 -25 -26 -43.5t-87 -18.5q-34 0 -61 5.5z" />
    <glyph glyph-name="ordmasculine" unicode="&#xba;" horiz-adv-x="398" 
d="M123.5 437.5q-34.5 19.5 -54 54t-19.5 75.5t19.5 75t54 53.5t75.5 19.5t75.5 -19.5t54 -53.5t19.5 -75t-19.5 -75.5t-54 -54t-75.5 -19.5t-75.5 19.5zM74 494q19 -33 52 -52t73 -19t73 19t52 52t19 73t-19 72.5t-52 51.5t-73 19t-73 -19t-52 -51.5t-19 -72.5t19 -73z" />
    <glyph glyph-name="guillemotright" unicode="&#xbb;" horiz-adv-x="425" 
d="M150 51q-1 4 3 8l34 34q72 68 183 184q-111 116 -183 184l-34 34q-3 3 -3 6q0 6 6 6q5 0 13 -10q55 -62 206 -220q-151 -158 -206 -220q-8 -10 -13 -10t-6 4zM50 51q-1 4 3 8l34 34q72 68 183 184q-111 116 -183 184l-34 34q-3 3 -3 6q0 6 6 6q5 0 13 -10
q55 -62 206 -220q-151 -158 -206 -220q-8 -10 -13 -10t-6 4z" />
    <glyph glyph-name="questiondown" unicode="&#xbf;" horiz-adv-x="455" 
d="M254 293.5q24 -8.5 45 -31.5t21 -63q0 -36 -18.5 -62.5t-45 -44t-70.5 -40.5q-42 -21 -67 -37t-42 -39.5t-17 -55.5q0 -37 25 -66.5t70 -46.5t103 -17q54 0 109 19q22 6 25 6q8 0 8 -6q0 -12 -42 -18.5t-90 -6.5q-103 0 -158 38t-55 98q0 33 17.5 57.5t43 41t68.5 38.5
q44 23 69.5 40t43.5 42t18 60q0 41 -21 57.5t-56 25.5q-14 4 -20.5 7t-6.5 8t8 5q11 0 35 -8.5zM216 499q17 17 43 17t43 -17t17 -43t-17 -43t-43 -17t-43 17t-17 43t17 43zM219.5 417q15.5 -16 39.5 -16t39.5 16t15.5 39t-15.5 39t-39.5 16t-39.5 -16t-15.5 -39t15.5 -39z
" />
    <glyph glyph-name="Agrave" unicode="&#xc0;" horiz-adv-x="820" 
d="M108.5 10q-25.5 18 -42 49t-16.5 66q0 36 19 66.5t57.5 49t92.5 18.5q78 0 202.5 -53t345.5 -204q-41 84 -198 373l-180 332l-92 -160q-73 -125 -114 -212q-4 -9 -7.5 -13t-8.5 -4q-9 0 -9 9q0 5 2 8l26 42q57 87 106 172l96 167h2l184 -340q78 -144 180 -321
q20 -34 22 -38q4 -8 4 -13q0 -9 -10 -9q-5 0 -12 5q-216 149 -338.5 201.5t-200.5 52.5q-79 0 -121.5 -37t-42.5 -92q0 -45 24.5 -69.5t61.5 -39.5q4 -2 12.5 -5.5t12 -6t3.5 -5.5q0 -7 -12 -7q-23 0 -48.5 18zM285 903q0 7 8 7q5 0 10 -4l190 -130l-1 -2l-198 117
q-9 6 -9 12z" />
    <glyph glyph-name="Aacute" unicode="&#xc1;" horiz-adv-x="820" 
d="M108.5 10q-25.5 18 -42 49t-16.5 66q0 36 19 66.5t57.5 49t92.5 18.5q78 0 202.5 -53t345.5 -204q-41 84 -198 373l-180 332l-92 -160q-73 -125 -114 -212q-4 -9 -7.5 -13t-8.5 -4q-9 0 -9 9q0 5 2 8l26 42q57 87 106 172l96 167h2l184 -340q78 -144 180 -321
q20 -34 22 -38q4 -8 4 -13q0 -9 -10 -9q-5 0 -12 5q-216 149 -338.5 201.5t-200.5 52.5q-79 0 -121.5 -37t-42.5 -92q0 -45 24.5 -69.5t61.5 -39.5q4 -2 12.5 -5.5t12 -6t3.5 -5.5q0 -7 -12 -7q-23 0 -48.5 18zM285 776l190 130q5 4 10 4q8 0 8 -7q0 -6 -9 -12l-198 -117z
" />
    <glyph glyph-name="Acircumflex" unicode="&#xc2;" horiz-adv-x="820" 
d="M108.5 10q-25.5 18 -42 49t-16.5 66q0 36 19 66.5t57.5 49t92.5 18.5q78 0 202.5 -53t345.5 -204q-41 84 -198 373l-180 332l-92 -160q-73 -125 -114 -212q-4 -9 -7.5 -13t-8.5 -4q-9 0 -9 9q0 5 2 8l26 42q57 87 106 172l96 167h2l184 -340q78 -144 180 -321
q20 -34 22 -38q4 -8 4 -13q0 -9 -10 -9q-5 0 -12 5q-216 149 -338.5 201.5t-200.5 52.5q-79 0 -121.5 -37t-42.5 -92q0 -45 24.5 -69.5t61.5 -39.5q4 -2 12.5 -5.5t12 -6t3.5 -5.5q0 -7 -12 -7q-23 0 -48.5 18zM228 766q-3 3 -3 7t4 8q14 13 31 24q6 5 38 30t95 80
q58 -54 88 -80.5t45 -40.5l29 -26l-5 -5l-157 146q-76 -67 -119 -113l-24 -24q-4 -4 -7.5 -6.5t-7.5 -2.5t-7 3z" />
    <glyph glyph-name="Atilde" unicode="&#xc3;" horiz-adv-x="820" 
d="M108.5 10q-25.5 18 -42 49t-16.5 66q0 36 19 66.5t57.5 49t92.5 18.5q78 0 202.5 -53t345.5 -204q-41 84 -198 373l-180 332l-92 -160q-73 -125 -114 -212q-4 -9 -7.5 -13t-8.5 -4q-9 0 -9 9q0 5 2 8l26 42q57 87 106 172l96 167h2l184 -340q78 -144 180 -321
q20 -34 22 -38q4 -8 4 -13q0 -9 -10 -9q-5 0 -12 5q-216 149 -338.5 201.5t-200.5 52.5q-79 0 -121.5 -37t-42.5 -92q0 -45 24.5 -69.5t61.5 -39.5q4 -2 12.5 -5.5t12 -6t3.5 -5.5q0 -7 -12 -7q-23 0 -48.5 18zM433.5 804q-19.5 9 -45.5 27q-24 17 -41.5 25.5t-40.5 8.5
q-32 0 -50 -12t-34 -31q-12 -15 -18 -15q-7 0 -7 7q0 10 13.5 23.5t37 23t53.5 9.5q25 0 44.5 -9t45.5 -27q24 -17 41.5 -25.5t40.5 -8.5q32 0 50 12t34 31q12 15 18 15q7 0 7 -7q0 -8 -13.5 -22t-37.5 -24t-53 -10q-25 0 -44.5 9z" />
    <glyph glyph-name="Adieresis" unicode="&#xc4;" horiz-adv-x="820" 
d="M108.5 10q-25.5 18 -42 49t-16.5 66q0 36 19 66.5t57.5 49t92.5 18.5q78 0 202.5 -53t345.5 -204q-41 84 -198 373l-180 332l-92 -160q-73 -125 -114 -212q-4 -9 -7.5 -13t-8.5 -4q-9 0 -9 9q0 5 2 8l26 42q57 87 106 172l96 167h2l184 -340q78 -144 180 -321
q20 -34 22 -38q4 -8 4 -13q0 -9 -10 -9q-5 0 -12 5q-216 149 -338.5 201.5t-200.5 52.5q-79 0 -121.5 -37t-42.5 -92q0 -45 24.5 -69.5t61.5 -39.5q4 -2 12.5 -5.5t12 -6t3.5 -5.5q0 -7 -12 -7q-23 0 -48.5 18zM302 824q-7 7 -7 17t7 17t17 7t17 -7t7 -17t-7 -17t-17 -7
t-17 7zM444 824q-7 7 -7 17t7 17t17 7t17 -7t7 -17t-7 -17t-17 -7t-17 7z" />
    <glyph glyph-name="Aring" unicode="&#xc5;" horiz-adv-x="820" 
d="M108.5 10q-25.5 18 -42 49t-16.5 66q0 36 19 66.5t57.5 49t92.5 18.5q78 0 202.5 -53t345.5 -204q-41 84 -198 373l-180 332l-92 -160q-73 -125 -114 -212q-4 -9 -7.5 -13t-8.5 -4q-9 0 -9 9q0 5 2 8l26 42q57 87 106 172l96 167h2l184 -340q78 -144 180 -321
q20 -34 22 -38q4 -8 4 -13q0 -9 -10 -9q-5 0 -12 5q-216 149 -338.5 201.5t-200.5 52.5q-79 0 -121.5 -37t-42.5 -92q0 -45 24.5 -69.5t61.5 -39.5q4 -2 12.5 -5.5t12 -6t3.5 -5.5q0 -7 -12 -7q-23 0 -48.5 18zM356 807q-14 14 -14 34t14 34t34 14t34 -14t14 -34t-14 -34
t-34 -14t-34 14zM359 810.5q12 -12.5 31 -12.5t31 12.5t12 30.5t-12 30.5t-31 12.5t-31 -12.5t-12 -30.5t12 -30.5z" />
    <glyph glyph-name="AE" unicode="&#xc6;" horiz-adv-x="1284" 
d="M785.5 -9.5q-98.5 26.5 -163 64t-139.5 94.5q-58 -58 -90.5 -87t-74.5 -49.5t-93 -20.5q-50 0 -90 18.5t-62.5 50.5t-22.5 70q0 36 21 67t61 50t96 19q49 0 91 -14.5t76.5 -36.5t87.5 -61q40 40 72 69t70 54l-53 97l-180 332l-92 -160q-73 -125 -114 -212q-4 -9 -7.5 -13
t-8.5 -4q-9 0 -9 9q0 5 2 8l26 42q57 87 106 172l96 167h2l184 -340l52 -95q39 26 79 44v140q0 117 -3 228q0 9 8 9q5 0 16 -1t26 -1h182q117 0 209 2h47q19 0 19 -9t-15 -9l-39 2q-101 9 -221 9h-224v-368q114 52 261 52q113 0 167 -9q10 -2 14 -4t4 -6q0 -6 -9 -6
q-6 0 -10 1q-81 19 -166 19q-147 0 -261 -52v-190l80 -139q91 -22 203 -22q97 0 148 13.5t85 33.5q14 9 19 1q1 -1 1 -3q0 -9 -13 -16q-26 -15 -81 -25.5t-139 -10.5q-132 0 -230.5 26.5zM75.5 66q20.5 -31 59 -50t90.5 -19q49 0 91 20t75 49t88 85q-51 39 -85 60.5t-75 36
t-89 14.5q-56 0 -96 -18t-59.5 -48t-19.5 -65q0 -34 20.5 -65zM623 59q63 -37 148 -60q-62 122 -144 275q-37 -25 -69 -53.5t-72 -68.5q74 -56 137 -93zM708 140v180q-41 -19 -77 -43z" />
    <glyph glyph-name="Ccedilla" unicode="&#xc7;" horiz-adv-x="835" 
d="M251 28q-88 44 -142 127t-54 196q0 112 53.5 195t141.5 126.5t189 43.5q65 0 121.5 -18t97.5 -46t61 -58q1 -1 1 -3q0 -4 -4 -5.5t-7 3.5q-35 48 -106.5 85t-164.5 37q-99 0 -185.5 -43t-139.5 -124.5t-53 -192.5q0 -112 53.5 -194t140 -125t184.5 -43q87 0 149.5 29
t98.5 65t68 81q12 17 19 25t12 8t5 -6q0 -17 -44.5 -69t-123 -95t-183.5 -43q-100 0 -188 44zM363 -210.5q-27 5.5 -41.5 13t-14.5 13.5t8 6q9 0 23 -8q24 -11 45.5 -17t54.5 -6q51 0 72.5 16t21.5 39q0 28 -37.5 45t-130.5 17l75 76h6l-72 -72q164 0 164 -66
q0 -25 -26 -43.5t-87 -18.5q-34 0 -61 5.5z" />
    <glyph glyph-name="Egrave" unicode="&#xc8;" horiz-adv-x="635" 
d="M362 -27.5q-34 3.5 -89 10.5q-67 8 -115.5 12.5t-111.5 4.5q-7 0 -17 -2t-15 -2q-14 0 -14 8q0 4 4 6t9 2q29 0 37 12t8 52v269q0 27 20 32q-8 1 -14 9t-6 23v56q0 115 -3 229q0 8 8 8q5 0 16 -1t26 -1h187q117 0 209 2h47q19 0 19 -9t-15 -9l-39 2q-101 9 -221 9h-229
v-285q0 -31 29 -31h78q95 0 247 5l59 1q11 0 15 -2t4 -6t-4 -6t-15 -2l-59 1q-122 4 -247 4h-78q-29 0 -29 -31v-270q0 -31 -6.5 -46.5t-24.5 -21.5q69 0 127 -5t128 -14q10 -1 56 -6.5t84 -5.5q71 0 103 13t51 37q10 13 17 6q2 -2 2 -5q0 -8 -7 -16q-16 -20 -52 -30
t-105 -10q-40 0 -74 3.5zM215 903q0 7 8 7q5 0 10 -4l190 -130l-1 -2l-198 117q-9 6 -9 12z" />
    <glyph glyph-name="Eacute" unicode="&#xc9;" horiz-adv-x="635" 
d="M362 -27.5q-34 3.5 -89 10.5q-67 8 -115.5 12.5t-111.5 4.5q-7 0 -17 -2t-15 -2q-14 0 -14 8q0 4 4 6t9 2q29 0 37 12t8 52v269q0 27 20 32q-8 1 -14 9t-6 23v56q0 115 -3 229q0 8 8 8q5 0 16 -1t26 -1h187q117 0 209 2h47q19 0 19 -9t-15 -9l-39 2q-101 9 -221 9h-229
v-285q0 -31 29 -31h78q95 0 247 5l59 1q11 0 15 -2t4 -6t-4 -6t-15 -2l-59 1q-122 4 -247 4h-78q-29 0 -29 -31v-270q0 -31 -6.5 -46.5t-24.5 -21.5q69 0 127 -5t128 -14q10 -1 56 -6.5t84 -5.5q71 0 103 13t51 37q10 13 17 6q2 -2 2 -5q0 -8 -7 -16q-16 -20 -52 -30
t-105 -10q-40 0 -74 3.5zM215 776l190 130q5 4 10 4q8 0 8 -7q0 -6 -9 -12l-198 -117z" />
    <glyph glyph-name="Ecircumflex" unicode="&#xca;" horiz-adv-x="635" 
d="M362 -27.5q-34 3.5 -89 10.5q-67 8 -115.5 12.5t-111.5 4.5q-7 0 -17 -2t-15 -2q-14 0 -14 8q0 4 4 6t9 2q29 0 37 12t8 52v269q0 27 20 32q-8 1 -14 9t-6 23v56q0 115 -3 229q0 8 8 8q5 0 16 -1t26 -1h187q117 0 209 2h47q19 0 19 -9t-15 -9l-39 2q-101 9 -221 9h-229
v-285q0 -31 29 -31h78q95 0 247 5l59 1q11 0 15 -2t4 -6t-4 -6t-15 -2l-59 1q-122 4 -247 4h-78q-29 0 -29 -31v-270q0 -31 -6.5 -46.5t-24.5 -21.5q69 0 127 -5t128 -14q10 -1 56 -6.5t84 -5.5q71 0 103 13t51 37q10 13 17 6q2 -2 2 -5q0 -8 -7 -16q-16 -20 -52 -30
t-105 -10q-40 0 -74 3.5zM158 766q-3 3 -3 7t4 8q14 13 31 24q6 5 38 30t95 80q58 -54 88 -80.5t45 -40.5l29 -26l-5 -5l-157 146q-76 -67 -119 -113l-24 -24q-4 -4 -7.5 -6.5t-7.5 -2.5t-7 3z" />
    <glyph glyph-name="Edieresis" unicode="&#xcb;" horiz-adv-x="635" 
d="M362 -27.5q-34 3.5 -89 10.5q-67 8 -115.5 12.5t-111.5 4.5q-7 0 -17 -2t-15 -2q-14 0 -14 8q0 4 4 6t9 2q29 0 37 12t8 52v269q0 27 20 32q-8 1 -14 9t-6 23v56q0 115 -3 229q0 8 8 8q5 0 16 -1t26 -1h187q117 0 209 2h47q19 0 19 -9t-15 -9l-39 2q-101 9 -221 9h-229
v-285q0 -31 29 -31h78q95 0 247 5l59 1q11 0 15 -2t4 -6t-4 -6t-15 -2l-59 1q-122 4 -247 4h-78q-29 0 -29 -31v-270q0 -31 -6.5 -46.5t-24.5 -21.5q69 0 127 -5t128 -14q10 -1 56 -6.5t84 -5.5q71 0 103 13t51 37q10 13 17 6q2 -2 2 -5q0 -8 -7 -16q-16 -20 -52 -30
t-105 -10q-40 0 -74 3.5zM232 824q-7 7 -7 17t7 17t17 7t17 -7t7 -17t-7 -17t-17 -7t-17 7zM374 824q-7 7 -7 17t7 17t17 7t17 -7t7 -17t-7 -17t-17 -7t-17 7z" />
    <glyph glyph-name="Igrave" unicode="&#xcc;" horiz-adv-x="285" 
d="M35 4q0 8 19 8q5 0 14.5 -2.5t23.5 -2.5q30 0 39 15t9 54v551q0 31 6 46.5t22 20.5h-27q-37 0 -57.5 -2.5t-27.5 -2.5q-21 0 -21 7t21 7q7 0 27.5 -1.5t57.5 -1.5h14q39 0 54.5 2t21.5 2q19 0 19 -8t-19 -8q-5 0 -14.5 2.5t-23.5 2.5q-30 0 -39 -15t-9 -54v-551
q0 -31 -6 -46.5t-22 -20.5h27q37 0 57.5 2.5t27.5 2.5q21 0 21 -7t-21 -7q-7 0 -27.5 1.5t-57.5 1.5h-14q-39 0 -54.5 -2t-21.5 -2q-19 0 -19 8zM38 903q0 7 8 7q5 0 10 -4l190 -130l-1 -2l-198 117q-9 6 -9 12z" />
    <glyph glyph-name="Iacute" unicode="&#xcd;" horiz-adv-x="285" 
d="M35 4q0 8 19 8q5 0 14.5 -2.5t23.5 -2.5q30 0 39 15t9 54v551q0 31 6 46.5t22 20.5h-27q-37 0 -57.5 -2.5t-27.5 -2.5q-21 0 -21 7t21 7q7 0 27.5 -1.5t57.5 -1.5h14q39 0 54.5 2t21.5 2q19 0 19 -8t-19 -8q-5 0 -14.5 2.5t-23.5 2.5q-30 0 -39 -15t-9 -54v-551
q0 -31 -6 -46.5t-22 -20.5h27q37 0 57.5 2.5t27.5 2.5q21 0 21 -7t-21 -7q-7 0 -27.5 1.5t-57.5 1.5h-14q-39 0 -54.5 -2t-21.5 -2q-19 0 -19 8zM38 776l190 130q5 4 10 4q8 0 8 -7q0 -6 -9 -12l-198 -117z" />
    <glyph glyph-name="Icircumflex" unicode="&#xce;" horiz-adv-x="285" 
d="M35 4q0 8 19 8q5 0 14.5 -2.5t23.5 -2.5q30 0 39 15t9 54v551q0 31 6 46.5t22 20.5h-27q-37 0 -57.5 -2.5t-27.5 -2.5q-21 0 -21 7t21 7q7 0 27.5 -1.5t57.5 -1.5h14q39 0 54.5 2t21.5 2q19 0 19 -8t-19 -8q-5 0 -14.5 2.5t-23.5 2.5q-30 0 -39 -15t-9 -54v-551
q0 -31 -6 -46.5t-22 -20.5h27q37 0 57.5 2.5t27.5 2.5q21 0 21 -7t-21 -7q-7 0 -27.5 1.5t-57.5 1.5h-14q-39 0 -54.5 -2t-21.5 -2q-19 0 -19 8zM-19 766q-3 3 -3 7t4 8q14 13 31 24q6 5 38 30t95 80q58 -54 88 -80.5t45 -40.5l29 -26l-5 -5l-157 146q-76 -67 -119 -113
l-24 -24q-4 -4 -7.5 -6.5t-7.5 -2.5t-7 3z" />
    <glyph glyph-name="Idieresis" unicode="&#xcf;" horiz-adv-x="285" 
d="M35 4q0 8 19 8q5 0 14.5 -2.5t23.5 -2.5q30 0 39 15t9 54v551q0 31 6 46.5t22 20.5h-27q-37 0 -57.5 -2.5t-27.5 -2.5q-21 0 -21 7t21 7q7 0 27.5 -1.5t57.5 -1.5h14q39 0 54.5 2t21.5 2q19 0 19 -8t-19 -8q-5 0 -14.5 2.5t-23.5 2.5q-30 0 -39 -15t-9 -54v-551
q0 -31 -6 -46.5t-22 -20.5h27q37 0 57.5 2.5t27.5 2.5q21 0 21 -7t-21 -7q-7 0 -27.5 1.5t-57.5 1.5h-14q-39 0 -54.5 -2t-21.5 -2q-19 0 -19 8zM55 824q-7 7 -7 17t7 17t17 7t17 -7t7 -17t-7 -17t-17 -7t-17 7zM197 824q-7 7 -7 17t7 17t17 7t17 -7t7 -17t-7 -17t-17 -7
t-17 7z" />
    <glyph glyph-name="Eth" unicode="&#xd0;" horiz-adv-x="725" 
d="M417 276q-122 4 -247 4h-89l2 -61q0 -19 -9 -19t-9 19l2 61h-2q-11 0 -33 -2l-26 -1q-6 0 -6 6q0 2 1.5 3.5t4.5 1.5l26 -1q22 -2 33 -2h2q4 92 4 190q0 107 -3 218q0 9 8 9q5 0 16 -1t26 -1h200q118 0 197 -47.5t117 -128t38 -178.5q0 -110 -45.5 -192t-126 -126
t-182.5 -44q-70 0 -128.5 19.5t-97.5 48.5t-57 58q-3 5 -3 9t2.5 6t5.5 2q7 0 12 -8q31 -49 101 -89.5t169 -40.5q98 0 176.5 43t123.5 124t45 190q0 97 -37.5 176t-115.5 126t-195 47h-241v-220q0 -98 4 -190h90q95 0 247 5l59 1q11 0 15 -2t4 -6t-4 -6t-15 -2z" />
    <glyph glyph-name="Ntilde" unicode="&#xd1;" horiz-adv-x="710" 
d="M65 14q0 5 0.5 18.5t0.5 40.5q5 168 5 272l-1 276q-1 38 -1 79q0 5 4 5t8 -6l553 -694v350q0 105 -5 272l-2 59q0 19 9 19t9 -19q0 -5 -0.5 -18.5t-0.5 -40.5q-5 -167 -5 -272l1 -276q1 -38 1 -79q0 -5 -4 -5q-3 0 -8 6l-553 694v-350q0 -104 5 -272l2 -59q0 -19 -9 -19
t-9 19zM398.5 804q-19.5 9 -45.5 27q-24 17 -41.5 25.5t-40.5 8.5q-32 0 -50 -12t-34 -31q-12 -15 -18 -15q-7 0 -7 7q0 10 13.5 23.5t37 23t53.5 9.5q25 0 44.5 -9t45.5 -27q24 -17 41.5 -25.5t40.5 -8.5q32 0 50 12t34 31q12 15 18 15q7 0 7 -7q0 -8 -13.5 -22t-37.5 -24
t-53 -10q-25 0 -44.5 9z" />
    <glyph glyph-name="Ograve" unicode="&#xd2;" horiz-adv-x="860" 
d="M245 30q-86 46 -138 129.5t-52 191.5q0 107 52 190t138 129t185 46t185 -46t138 -129t52 -190q0 -108 -52 -191.5t-138 -129.5t-185 -46t-185 46zM111.5 161.5q51.5 -82.5 136.5 -127.5t182 -45t182 45t136.5 127.5t51.5 189.5q0 106 -51.5 188t-136.5 127t-182 45
t-182 -45t-136.5 -127t-51.5 -188q0 -107 51.5 -189.5zM325 903q0 7 8 7q5 0 10 -4l190 -130l-1 -2l-198 117q-9 6 -9 12z" />
    <glyph glyph-name="Oacute" unicode="&#xd3;" horiz-adv-x="860" 
d="M245 30q-86 46 -138 129.5t-52 191.5q0 107 52 190t138 129t185 46t185 -46t138 -129t52 -190q0 -108 -52 -191.5t-138 -129.5t-185 -46t-185 46zM111.5 161.5q51.5 -82.5 136.5 -127.5t182 -45t182 45t136.5 127.5t51.5 189.5q0 106 -51.5 188t-136.5 127t-182 45
t-182 -45t-136.5 -127t-51.5 -188q0 -107 51.5 -189.5zM325 776l190 130q5 4 10 4q8 0 8 -7q0 -6 -9 -12l-198 -117z" />
    <glyph glyph-name="Ocircumflex" unicode="&#xd4;" horiz-adv-x="860" 
d="M245 30q-86 46 -138 129.5t-52 191.5q0 107 52 190t138 129t185 46t185 -46t138 -129t52 -190q0 -108 -52 -191.5t-138 -129.5t-185 -46t-185 46zM111.5 161.5q51.5 -82.5 136.5 -127.5t182 -45t182 45t136.5 127.5t51.5 189.5q0 106 -51.5 188t-136.5 127t-182 45
t-182 -45t-136.5 -127t-51.5 -188q0 -107 51.5 -189.5zM268 766q-3 3 -3 7t4 8q14 13 31 24q6 5 38 30t95 80q58 -54 88 -80.5t45 -40.5l29 -26l-5 -5l-157 146q-76 -67 -119 -113l-24 -24q-4 -4 -7.5 -6.5t-7.5 -2.5t-7 3z" />
    <glyph glyph-name="Otilde" unicode="&#xd5;" horiz-adv-x="860" 
d="M245 30q-86 46 -138 129.5t-52 191.5q0 107 52 190t138 129t185 46t185 -46t138 -129t52 -190q0 -108 -52 -191.5t-138 -129.5t-185 -46t-185 46zM111.5 161.5q51.5 -82.5 136.5 -127.5t182 -45t182 45t136.5 127.5t51.5 189.5q0 106 -51.5 188t-136.5 127t-182 45
t-182 -45t-136.5 -127t-51.5 -188q0 -107 51.5 -189.5zM473.5 804q-19.5 9 -45.5 27q-24 17 -41.5 25.5t-40.5 8.5q-32 0 -50 -12t-34 -31q-12 -15 -18 -15q-7 0 -7 7q0 10 13.5 23.5t37 23t53.5 9.5q25 0 44.5 -9t45.5 -27q24 -17 41.5 -25.5t40.5 -8.5q32 0 50 12t34 31
q12 15 18 15q7 0 7 -7q0 -8 -13.5 -22t-37.5 -24t-53 -10q-25 0 -44.5 9z" />
    <glyph glyph-name="Odieresis" unicode="&#xd6;" horiz-adv-x="860" 
d="M245 30q-86 46 -138 129.5t-52 191.5q0 107 52 190t138 129t185 46t185 -46t138 -129t52 -190q0 -108 -52 -191.5t-138 -129.5t-185 -46t-185 46zM111.5 161.5q51.5 -82.5 136.5 -127.5t182 -45t182 45t136.5 127.5t51.5 189.5q0 106 -51.5 188t-136.5 127t-182 45
t-182 -45t-136.5 -127t-51.5 -188q0 -107 51.5 -189.5zM342 824q-7 7 -7 17t7 17t17 7t17 -7t7 -17t-7 -17t-17 -7t-17 7zM484 824q-7 7 -7 17t7 17t17 7t17 -7t7 -17t-7 -17t-17 -7t-17 7z" />
    <glyph glyph-name="multiply" unicode="&#xd7;" horiz-adv-x="510" 
d="M35 51l216 222l-216 221l4 4l216 -221l216 221l4 -4l-216 -221l216 -222l-4 -4l-216 222l-216 -222z" />
    <glyph glyph-name="Oslash" unicode="&#xd8;" horiz-adv-x="860" 
d="M344 -68l12 59q-84 16 -152.5 64.5t-108.5 124.5t-40 171q0 107 52 190t138 129t185 46q33 0 60 -4q2 8 4 27l4 21q4 16 11 16q4 0 6 -4.5t0 -11.5l-11 -51q84 -16 152.5 -64.5t108.5 -124t40 -169.5q0 -108 -52 -191.5t-138 -129.5t-185 -46q-34 0 -67 6l-10 -58
q-2 -8 -6 -8q-5 0 -3 8zM99.5 182.5q39.5 -75.5 107.5 -123.5t150 -63l56 288l25 132q20 105 37 213q6 28 9 47t5 31q-27 4 -59 4q-97 0 -182 -45t-136.5 -127t-51.5 -188q0 -93 39.5 -168.5zM430 -11q97 0 182 45t136.5 127.5t51.5 189.5q0 93 -39.5 167.5t-107.5 122.5
t-150 63q-39 -177 -60 -288l-25 -132l-54 -290q37 -5 66 -5z" />
    <glyph glyph-name="Ugrave" unicode="&#xd9;" horiz-adv-x="770" 
d="M153.5 60q-82.5 76 -82.5 221v156q0 93 -5 203l-1 46q0 19 9 19t9 -19l-2 -46q-5 -110 -5 -203v-156q0 -143 81 -217.5t228 -74.5t228 74.5t81 217.5v156q0 93 -5 203l-2 46q0 19 9 19t9 -19l-1 -46q-5 -110 -5 -203v-156q0 -145 -82.5 -221t-231.5 -76t-231.5 76z
M280 903q0 7 8 7q5 0 10 -4l190 -130l-1 -2l-198 117q-9 6 -9 12z" />
    <glyph glyph-name="Uacute" unicode="&#xda;" horiz-adv-x="770" 
d="M153.5 60q-82.5 76 -82.5 221v156q0 93 -5 203l-1 46q0 19 9 19t9 -19l-2 -46q-5 -110 -5 -203v-156q0 -143 81 -217.5t228 -74.5t228 74.5t81 217.5v156q0 93 -5 203l-2 46q0 19 9 19t9 -19l-1 -46q-5 -110 -5 -203v-156q0 -145 -82.5 -221t-231.5 -76t-231.5 76z
M280 776l190 130q5 4 10 4q8 0 8 -7q0 -6 -9 -12l-198 -117z" />
    <glyph glyph-name="Ucircumflex" unicode="&#xdb;" horiz-adv-x="770" 
d="M153.5 60q-82.5 76 -82.5 221v156q0 93 -5 203l-1 46q0 19 9 19t9 -19l-2 -46q-5 -110 -5 -203v-156q0 -143 81 -217.5t228 -74.5t228 74.5t81 217.5v156q0 93 -5 203l-2 46q0 19 9 19t9 -19l-1 -46q-5 -110 -5 -203v-156q0 -145 -82.5 -221t-231.5 -76t-231.5 76z
M223 766q-3 3 -3 7t4 8q14 13 31 24q6 5 38 30t95 80q58 -54 88 -80.5t45 -40.5l29 -26l-5 -5l-157 146q-76 -67 -119 -113l-24 -24q-4 -4 -7.5 -6.5t-7.5 -2.5t-7 3z" />
    <glyph glyph-name="Udieresis" unicode="&#xdc;" horiz-adv-x="770" 
d="M153.5 60q-82.5 76 -82.5 221v156q0 93 -5 203l-1 46q0 19 9 19t9 -19l-2 -46q-5 -110 -5 -203v-156q0 -143 81 -217.5t228 -74.5t228 74.5t81 217.5v156q0 93 -5 203l-2 46q0 19 9 19t9 -19l-1 -46q-5 -110 -5 -203v-156q0 -145 -82.5 -221t-231.5 -76t-231.5 76z
M297 824q-7 7 -7 17t7 17t17 7t17 -7t7 -17t-7 -17t-17 -7t-17 7zM439 824q-7 7 -7 17t7 17t17 7t17 -7t7 -17t-7 -17t-17 -7t-17 7z" />
    <glyph glyph-name="Yacute" unicode="&#xdd;" horiz-adv-x="790" 
d="M378.5 -192q-60.5 24 -60.5 88q0 40 69 149l-146 281q-101 197 -194 358q-2 4 -2 8q0 9 10 9q8 0 13 -12q59 -130 178 -361l144 -278q33 53 82 121.5t60 84.5q103 145 155 227.5t52 120.5q0 55 -51.5 75t-133.5 20q-53 0 -104 -7q-24 -3 -26 -1t-2 4q0 4 6 7q8 5 37 9.5
t75 4.5q84 0 144.5 -24t60.5 -88q0 -38 -52.5 -121.5t-157.5 -231.5q-106 -149 -158.5 -232.5t-52.5 -122.5q0 -55 50.5 -74.5t130.5 -19.5q38 0 104 6q27 5 31 1q2 -2 1 -5t-4 -5q-11 -5 -40 -10t-74 -5q-84 0 -144.5 24zM300 776l190 130q5 4 10 4q8 0 8 -7q0 -6 -9 -12
l-198 -117z" />
    <glyph glyph-name="Thorn" unicode="&#xde;" horiz-adv-x="635" 
d="M193 154q-4 1 -4 5q0 7 15 7q7 0 31 -4t85 -4q116 0 185.5 49.5t69.5 145.5t-68.5 143t-185.5 47h-176v-470q0 -31 -6 -46.5t-22 -20.5h27q37 0 57.5 2.5t27.5 2.5q21 0 21 -7t-21 -7q-7 0 -27.5 1.5t-57.5 1.5h-14q-39 0 -54.5 -2t-21.5 -2q-19 0 -19 8t19 8
q5 0 14.5 -2.5t23.5 -2.5q30 0 39 15t9 54v551q0 31 6 46.5t22 20.5h-27q-37 0 -57.5 -2.5t-27.5 -2.5q-21 0 -21 7t21 7q7 0 27.5 -1.5t57.5 -1.5h14q39 0 54.5 2t21.5 2q19 0 19 -8t-19 -8q-5 0 -14.5 2.5t-23.5 2.5q-30 0 -39 -15t-9 -54v-76h175q119 0 189.5 -48
t70.5 -147q0 -100 -71 -150t-189 -50h-113q-10 0 -14 1z" />
    <glyph glyph-name="germandbls" unicode="&#xdf;" horiz-adv-x="630" 
d="M164.5 -183q-61.5 33 -90.5 74q-3 4 -3 8q0 3 2 5.5t5 2.5q7 0 12 -8q31 -43 87 -76.5t139 -33.5q65 0 123.5 23t94.5 69.5t36 112.5q0 95 -76.5 143t-213.5 48q-22 0 -33 -0.5t-19 -0.5q-18 0 -18 8q0 5 5 10l282 293h-415v-240q0 -57 2 -115.5t2 -79.5l2 -48
q0 -7 -2.5 -12t-6.5 -5t-6.5 5t-2.5 12l2 48q5 115 5 195v287q0 77 10.5 118t46.5 62.5t110 21.5q53 0 53 -10q0 -6 -11 -6q-12 0 -20 1l-51 1q-59 0 -87.5 -19.5t-37 -59t-8.5 -113.5v-38h428l-288 -298q0 -6 18 -9t45 -3q133 0 211.5 -49t78.5 -147q0 -68 -36.5 -115.5
t-96 -71t-129.5 -23.5q-87 0 -148.5 33z" />
    <glyph glyph-name="agrave" unicode="&#xe0;" horiz-adv-x="665" 
d="M99 13.5q-49 29.5 -49 93.5q0 48 34 79t122 46l117 20q72 13 112 30t56.5 42.5t16.5 65.5q0 65 -39 87.5t-110 22.5h-48q-88 0 -166 -10l-25 -2q-7 0 -7 5q0 10 51 15t121 5q86 0 134.5 -10.5t71 -37t22.5 -75.5q0 -43 -18 -69.5t-58.5 -43.5t-114.5 -30l-116 -20
q-86 -15 -118.5 -44t-32.5 -76q0 -118 180 -118q71 0 133.5 18.5t100.5 53t38 79.5q0 18 8 18q9 0 6 -15q-6 -30 -6 -57q0 -79 63 -79q18 0 48 6l6 1q8 0 8 -6t-12.5 -10t-29.5 -4q-37 0 -56.5 14t-26 37t-9.5 61q-21 -57 -98.5 -89.5t-172.5 -32.5q-87 0 -136 29.5z
M219 703q0 7 8 7q5 0 10 -4l190 -130l-1 -2l-198 117q-9 6 -9 12z" />
    <glyph glyph-name="aacute" unicode="&#xe1;" horiz-adv-x="665" 
d="M99 13.5q-49 29.5 -49 93.5q0 48 34 79t122 46l117 20q72 13 112 30t56.5 42.5t16.5 65.5q0 65 -39 87.5t-110 22.5h-48q-88 0 -166 -10l-25 -2q-7 0 -7 5q0 10 51 15t121 5q86 0 134.5 -10.5t71 -37t22.5 -75.5q0 -43 -18 -69.5t-58.5 -43.5t-114.5 -30l-116 -20
q-86 -15 -118.5 -44t-32.5 -76q0 -118 180 -118q71 0 133.5 18.5t100.5 53t38 79.5q0 18 8 18q9 0 6 -15q-6 -30 -6 -57q0 -79 63 -79q18 0 48 6l6 1q8 0 8 -6t-12.5 -10t-29.5 -4q-37 0 -56.5 14t-26 37t-9.5 61q-21 -57 -98.5 -89.5t-172.5 -32.5q-87 0 -136 29.5z
M219 576l190 130q5 4 10 4q8 0 8 -7q0 -6 -9 -12l-198 -117z" />
    <glyph glyph-name="acircumflex" unicode="&#xe2;" horiz-adv-x="665" 
d="M99 13.5q-49 29.5 -49 93.5q0 48 34 79t122 46l117 20q72 13 112 30t56.5 42.5t16.5 65.5q0 65 -39 87.5t-110 22.5h-48q-88 0 -166 -10l-25 -2q-7 0 -7 5q0 10 51 15t121 5q86 0 134.5 -10.5t71 -37t22.5 -75.5q0 -43 -18 -69.5t-58.5 -43.5t-114.5 -30l-116 -20
q-86 -15 -118.5 -44t-32.5 -76q0 -118 180 -118q71 0 133.5 18.5t100.5 53t38 79.5q0 18 8 18q9 0 6 -15q-6 -30 -6 -57q0 -79 63 -79q18 0 48 6l6 1q8 0 8 -6t-12.5 -10t-29.5 -4q-37 0 -56.5 14t-26 37t-9.5 61q-21 -57 -98.5 -89.5t-172.5 -32.5q-87 0 -136 29.5z
M162 566q-3 3 -3 7t4 8q14 13 31 24q6 5 38 30t95 80q58 -54 88 -80.5t45 -40.5l29 -26l-5 -5l-157 146q-76 -67 -119 -113l-24 -24q-4 -4 -7.5 -6.5t-7.5 -2.5t-7 3z" />
    <glyph glyph-name="atilde" unicode="&#xe3;" horiz-adv-x="665" 
d="M99 13.5q-49 29.5 -49 93.5q0 48 34 79t122 46l117 20q72 13 112 30t56.5 42.5t16.5 65.5q0 65 -39 87.5t-110 22.5h-48q-88 0 -166 -10l-25 -2q-7 0 -7 5q0 10 51 15t121 5q86 0 134.5 -10.5t71 -37t22.5 -75.5q0 -43 -18 -69.5t-58.5 -43.5t-114.5 -30l-116 -20
q-86 -15 -118.5 -44t-32.5 -76q0 -118 180 -118q71 0 133.5 18.5t100.5 53t38 79.5q0 18 8 18q9 0 6 -15q-6 -30 -6 -57q0 -79 63 -79q18 0 48 6l6 1q8 0 8 -6t-12.5 -10t-29.5 -4q-37 0 -56.5 14t-26 37t-9.5 61q-21 -57 -98.5 -89.5t-172.5 -32.5q-87 0 -136 29.5z
M367.5 604q-19.5 9 -45.5 27q-24 17 -41.5 25.5t-40.5 8.5q-32 0 -50 -12t-34 -31q-12 -15 -18 -15q-7 0 -7 7q0 10 13.5 23.5t37 23t53.5 9.5q25 0 44.5 -9t45.5 -27q24 -17 41.5 -25.5t40.5 -8.5q32 0 50 12t34 31q12 15 18 15q7 0 7 -7q0 -8 -13.5 -22t-37.5 -24t-53 -10
q-25 0 -44.5 9z" />
    <glyph glyph-name="adieresis" unicode="&#xe4;" horiz-adv-x="665" 
d="M99 13.5q-49 29.5 -49 93.5q0 48 34 79t122 46l117 20q72 13 112 30t56.5 42.5t16.5 65.5q0 65 -39 87.5t-110 22.5h-48q-88 0 -166 -10l-25 -2q-7 0 -7 5q0 10 51 15t121 5q86 0 134.5 -10.5t71 -37t22.5 -75.5q0 -43 -18 -69.5t-58.5 -43.5t-114.5 -30l-116 -20
q-86 -15 -118.5 -44t-32.5 -76q0 -118 180 -118q71 0 133.5 18.5t100.5 53t38 79.5q0 18 8 18q9 0 6 -15q-6 -30 -6 -57q0 -79 63 -79q18 0 48 6l6 1q8 0 8 -6t-12.5 -10t-29.5 -4q-37 0 -56.5 14t-26 37t-9.5 61q-21 -57 -98.5 -89.5t-172.5 -32.5q-87 0 -136 29.5z
M236 624q-7 7 -7 17t7 17t17 7t17 -7t7 -17t-7 -17t-17 -7t-17 7zM378 624q-7 7 -7 17t7 17t17 7t17 -7t7 -17t-7 -17t-17 -7t-17 7z" />
    <glyph glyph-name="aring" unicode="&#xe5;" horiz-adv-x="665" 
d="M99 13.5q-49 29.5 -49 93.5q0 48 34 79t122 46l117 20q72 13 112 30t56.5 42.5t16.5 65.5q0 65 -39 87.5t-110 22.5h-48q-88 0 -166 -10l-25 -2q-7 0 -7 5q0 10 51 15t121 5q86 0 134.5 -10.5t71 -37t22.5 -75.5q0 -43 -18 -69.5t-58.5 -43.5t-114.5 -30l-116 -20
q-86 -15 -118.5 -44t-32.5 -76q0 -118 180 -118q71 0 133.5 18.5t100.5 53t38 79.5q0 18 8 18q9 0 6 -15q-6 -30 -6 -57q0 -79 63 -79q18 0 48 6l6 1q8 0 8 -6t-12.5 -10t-29.5 -4q-37 0 -56.5 14t-26 37t-9.5 61q-21 -57 -98.5 -89.5t-172.5 -32.5q-87 0 -136 29.5z
M290 607q-14 14 -14 34t14 34t34 14t34 -14t14 -34t-14 -34t-34 -14t-34 14zM293 610.5q12 -12.5 31 -12.5t31 12.5t12 30.5t-12 30.5t-31 12.5t-31 -12.5t-12 -30.5t12 -30.5z" />
    <glyph glyph-name="ae" unicode="&#xe6;" horiz-adv-x="1135" 
d="M110 14.5q-60 30.5 -60 97.5q0 45 34.5 75t121.5 45l117 20q68 12 104 28t51 41.5t15 67.5q0 65 -37.5 88t-103.5 23h-41q-88 0 -166 -10l-25 -2q-7 0 -7 5q0 10 51 15t121 5q77 0 123 -11t68 -38t22 -75q0 -44 -16 -70.5t-53.5 -43t-106.5 -28.5l-116 -20
q-84 -15 -117.5 -43.5t-33.5 -71.5q0 -65 58.5 -94t147.5 -29q86 0 175 25.5t174 69.5q-31 35 -47.5 80.5t-16.5 97.5q0 76 33 133.5t90 89t127 31.5q47 0 84 -14t57.5 -36t20.5 -47q0 -39 -45.5 -99t-123.5 -124t-172 -114q40 -44 97 -68.5t121 -24.5q62 0 106.5 20.5
t70 46.5t49.5 59q7 10 13.5 17.5t10.5 7.5q5 0 5 -6q0 -13 -32 -50.5t-90 -68.5t-134 -31q-65 0 -123 25t-98 71q-187 -96 -352 -96q-91 0 -151 30.5zM614 86q93 49 171 112.5t123 123t45 97.5q0 22 -19.5 43.5t-55.5 35t-82 13.5q-69 0 -124.5 -30.5t-88 -87t-32.5 -131.5
q0 -103 63 -176z" />
    <glyph glyph-name="ccedilla" unicode="&#xe7;" horiz-adv-x="630" 
d="M193 16q-64 32 -103.5 92.5t-39.5 142.5q0 81 39.5 141.5t103.5 92t138 31.5q68 0 123.5 -26.5t78.5 -61.5q1 -1 1 -4t-3 -4t-6 3q-25 35 -76.5 61.5t-118.5 26.5q-72 0 -135 -30.5t-101.5 -89.5t-38.5 -140t38.5 -140.5t101.5 -90.5t133 -31q63 0 108.5 20.5t71 46.5
t49.5 59q7 10 13 17.5t10 7.5q5 0 5 -6q0 -13 -32 -50.5t-90 -68.5t-134 -31q-72 0 -136 32zM253 -210.5q-27 5.5 -41.5 13t-14.5 13.5t8 6q9 0 23 -8q24 -11 45.5 -17t54.5 -6q51 0 72.5 16t21.5 39q0 28 -37.5 45t-130.5 17l75 76h6l-72 -72q164 0 164 -66
q0 -25 -26 -43.5t-87 -18.5q-34 0 -61 5.5z" />
    <glyph glyph-name="egrave" unicode="&#xe8;" horiz-adv-x="625" 
d="M193.5 17q-64.5 33 -104 94.5t-39.5 143.5q0 79 37 138.5t97 91t129 31.5q58 0 107.5 -22.5t78.5 -61t29 -86.5h-458q-15 -40 -15 -91q0 -82 39 -142t102.5 -92t135.5 -32q61 0 105 20.5t69.5 46.5t49.5 59q7 10 13.5 17.5t10.5 7.5q5 0 5 -6q0 -13 -32 -50.5t-89 -68.5
t-132 -31q-74 0 -138.5 33zM522 351q0 42 -27.5 79t-75.5 59t-106 22q-80 0 -146.5 -42.5t-95.5 -117.5h451zM210 703q0 7 8 7q5 0 10 -4l190 -130l-1 -2l-198 117q-9 6 -9 12z" />
    <glyph glyph-name="eacute" unicode="&#xe9;" horiz-adv-x="625" 
d="M193.5 17q-64.5 33 -104 94.5t-39.5 143.5q0 79 37 138.5t97 91t129 31.5q58 0 107.5 -22.5t78.5 -61t29 -86.5h-458q-15 -40 -15 -91q0 -82 39 -142t102.5 -92t135.5 -32q61 0 105 20.5t69.5 46.5t49.5 59q7 10 13.5 17.5t10.5 7.5q5 0 5 -6q0 -13 -32 -50.5t-89 -68.5
t-132 -31q-74 0 -138.5 33zM522 351q0 42 -27.5 79t-75.5 59t-106 22q-80 0 -146.5 -42.5t-95.5 -117.5h451zM210 576l190 130q5 4 10 4q8 0 8 -7q0 -6 -9 -12l-198 -117z" />
    <glyph glyph-name="ecircumflex" unicode="&#xea;" horiz-adv-x="625" 
d="M193.5 17q-64.5 33 -104 94.5t-39.5 143.5q0 79 37 138.5t97 91t129 31.5q58 0 107.5 -22.5t78.5 -61t29 -86.5h-458q-15 -40 -15 -91q0 -82 39 -142t102.5 -92t135.5 -32q61 0 105 20.5t69.5 46.5t49.5 59q7 10 13.5 17.5t10.5 7.5q5 0 5 -6q0 -13 -32 -50.5t-89 -68.5
t-132 -31q-74 0 -138.5 33zM522 351q0 42 -27.5 79t-75.5 59t-106 22q-80 0 -146.5 -42.5t-95.5 -117.5h451zM153 566q-3 3 -3 7t4 8q14 13 31 24q6 5 38 30t95 80q58 -54 88 -80.5t45 -40.5l29 -26l-5 -5l-157 146q-76 -67 -119 -113l-24 -24q-4 -4 -7.5 -6.5t-7.5 -2.5
t-7 3z" />
    <glyph glyph-name="edieresis" unicode="&#xeb;" horiz-adv-x="625" 
d="M193.5 17q-64.5 33 -104 94.5t-39.5 143.5q0 79 37 138.5t97 91t129 31.5q58 0 107.5 -22.5t78.5 -61t29 -86.5h-458q-15 -40 -15 -91q0 -82 39 -142t102.5 -92t135.5 -32q61 0 105 20.5t69.5 46.5t49.5 59q7 10 13.5 17.5t10.5 7.5q5 0 5 -6q0 -13 -32 -50.5t-89 -68.5
t-132 -31q-74 0 -138.5 33zM522 351q0 42 -27.5 79t-75.5 59t-106 22q-80 0 -146.5 -42.5t-95.5 -117.5h451zM227 624q-7 7 -7 17t7 17t17 7t17 -7t7 -17t-7 -17t-17 -7t-17 7zM369 624q-7 7 -7 17t7 17t17 7t17 -7t7 -17t-7 -17t-17 -7t-17 7z" />
    <glyph glyph-name="igrave" unicode="&#xec;" horiz-adv-x="155" 
d="M69 12l1 26q5 65 5 137v150q0 73 -5 138l-1 25q0 17 8 17q9 0 9 -17l-1 -25q-5 -65 -5 -138v-150q0 -72 5 -137l1 -26q0 -17 -9 -17q-8 0 -8 17zM-28 703q0 7 8 7q5 0 10 -4l190 -130l-1 -2l-198 117q-9 6 -9 12z" />
    <glyph glyph-name="iacute" unicode="&#xed;" horiz-adv-x="155" 
d="M69 12l1 26q5 65 5 137v150q0 73 -5 138l-1 25q0 17 8 17q9 0 9 -17l-1 -25q-5 -65 -5 -138v-150q0 -72 5 -137l1 -26q0 -17 -9 -17q-8 0 -8 17zM-28 576l190 130q5 4 10 4q8 0 8 -7q0 -6 -9 -12l-198 -117z" />
    <glyph glyph-name="icircumflex" unicode="&#xee;" horiz-adv-x="155" 
d="M69 12l1 26q5 65 5 137v150q0 73 -5 138l-1 25q0 17 8 17q9 0 9 -17l-1 -25q-5 -65 -5 -138v-150q0 -72 5 -137l1 -26q0 -17 -9 -17q-8 0 -8 17zM-85 566q-3 3 -3 7t4 8q14 13 31 24q6 5 38 30t95 80q58 -54 88 -80.5t45 -40.5l29 -26l-5 -5l-157 146q-76 -67 -119 -113
l-24 -24q-4 -4 -7.5 -6.5t-7.5 -2.5t-7 3z" />
    <glyph glyph-name="idieresis" unicode="&#xef;" horiz-adv-x="155" 
d="M69 12l1 26q5 65 5 137v150q0 73 -5 138l-1 25q0 17 8 17q9 0 9 -17l-1 -25q-5 -65 -5 -138v-150q0 -72 5 -137l1 -26q0 -17 -9 -17q-8 0 -8 17zM-11 624q-7 7 -7 17t7 17t17 7t17 -7t7 -17t-7 -17t-17 -7t-17 7zM131 624q-7 7 -7 17t7 17t17 7t17 -7t7 -17t-7 -17
t-17 -7t-17 7z" />
    <glyph glyph-name="eth" unicode="&#xf0;" horiz-adv-x="645" 
d="M171.5 19q-58.5 35 -90 95.5t-31.5 135.5q0 76 32.5 137t92 95t135.5 34q50 0 100 -14.5t81 -39.5q2 -1 2 -5q0 -5 -3.5 -7t-8.5 2q-34 27 -80 43t-94 16q-73 0 -130.5 -33.5t-89.5 -93t-32 -134.5q0 -73 31 -132.5t88 -94t134 -34.5q79 0 137 37t88.5 99.5t30.5 139.5
v220q0 83 -14 131h-80q-27 0 -135 -3l-51 -2q-11 0 -15 2t-4 6t4 6t15 2l51 -2q72 -4 135 -4h79q-17 58 -60.5 83t-123.5 25q-26 0 -26 9q0 8 15 8q87 0 134.5 -30.5t65.5 -94.5h21q11 0 33 2l26 1q3 0 4.5 -1.5t1.5 -3.5q0 -6 -6 -6l-26 1q-22 2 -33 2h-19q13 -52 13 -131
v-240q0 -56 2 -112t2 -75l2 -46q0 -7 -2.5 -12t-6.5 -5q-8 0 -8 17l2 46q4 141 4 146q-17 -98 -84.5 -159t-171.5 -61q-78 0 -136.5 35z" />
    <glyph glyph-name="ntilde" unicode="&#xf1;" horiz-adv-x="650" 
d="M563 12l2 44q0 17 2 64.5t2 94.5v38q0 123 -58 190.5t-170 67.5q-113 0 -174 -68t-61 -190v-38q0 -48 2 -97t2 -66l2 -40q0 -7 -2.5 -12t-6.5 -5q-8 0 -8 17l2 40q0 17 2 66t2 97v151q0 68 -12.5 96t-41.5 28q-12 0 -12 7q0 8 12 8q23 0 41 -28t18 -106v-53
q15 95 75.5 146.5t159.5 51.5q114 0 173.5 -68.5t59.5 -192.5v-40q0 -47 2 -94.5t2 -64.5l2 -44q0 -7 -2.5 -12t-6.5 -5q-8 0 -8 17zM381.5 604q-19.5 9 -45.5 27q-24 17 -41.5 25.5t-40.5 8.5q-32 0 -50 -12t-34 -31q-12 -15 -18 -15q-7 0 -7 7q0 10 13.5 23.5t37 23
t53.5 9.5q25 0 44.5 -9t45.5 -27q24 -17 41.5 -25.5t40.5 -8.5q32 0 50 12t34 31q12 15 18 15q7 0 7 -7q0 -8 -13.5 -22t-37.5 -24t-53 -10q-25 0 -44.5 9z" />
    <glyph glyph-name="ograve" unicode="&#xf2;" 
d="M189 16q-62 32 -100.5 92.5t-38.5 141.5t38.5 141.5t100.5 92.5t131 32t131 -32t100.5 -92.5t38.5 -141.5t-38.5 -141.5t-100.5 -92.5t-131 -32t-131 32zM92.5 111q37.5 -59 98.5 -90.5t129 -31.5t129 31.5t98.5 90.5t37.5 139t-37.5 139t-98.5 90.5t-129 31.5
t-129 -31.5t-98.5 -90.5t-37.5 -139t37.5 -139zM215 703q0 7 8 7q5 0 10 -4l190 -130l-1 -2l-198 117q-9 6 -9 12z" />
    <glyph glyph-name="oacute" unicode="&#xf3;" 
d="M189 16q-62 32 -100.5 92.5t-38.5 141.5t38.5 141.5t100.5 92.5t131 32t131 -32t100.5 -92.5t38.5 -141.5t-38.5 -141.5t-100.5 -92.5t-131 -32t-131 32zM92.5 111q37.5 -59 98.5 -90.5t129 -31.5t129 31.5t98.5 90.5t37.5 139t-37.5 139t-98.5 90.5t-129 31.5
t-129 -31.5t-98.5 -90.5t-37.5 -139t37.5 -139zM215 576l190 130q5 4 10 4q8 0 8 -7q0 -6 -9 -12l-198 -117z" />
    <glyph glyph-name="ocircumflex" unicode="&#xf4;" 
d="M189 16q-62 32 -100.5 92.5t-38.5 141.5t38.5 141.5t100.5 92.5t131 32t131 -32t100.5 -92.5t38.5 -141.5t-38.5 -141.5t-100.5 -92.5t-131 -32t-131 32zM92.5 111q37.5 -59 98.5 -90.5t129 -31.5t129 31.5t98.5 90.5t37.5 139t-37.5 139t-98.5 90.5t-129 31.5
t-129 -31.5t-98.5 -90.5t-37.5 -139t37.5 -139zM158 566q-3 3 -3 7t4 8q14 13 31 24q6 5 38 30t95 80q58 -54 88 -80.5t45 -40.5l29 -26l-5 -5l-157 146q-76 -67 -119 -113l-24 -24q-4 -4 -7.5 -6.5t-7.5 -2.5t-7 3z" />
    <glyph glyph-name="otilde" unicode="&#xf5;" 
d="M189 16q-62 32 -100.5 92.5t-38.5 141.5t38.5 141.5t100.5 92.5t131 32t131 -32t100.5 -92.5t38.5 -141.5t-38.5 -141.5t-100.5 -92.5t-131 -32t-131 32zM92.5 111q37.5 -59 98.5 -90.5t129 -31.5t129 31.5t98.5 90.5t37.5 139t-37.5 139t-98.5 90.5t-129 31.5
t-129 -31.5t-98.5 -90.5t-37.5 -139t37.5 -139zM363.5 604q-19.5 9 -45.5 27q-24 17 -41.5 25.5t-40.5 8.5q-32 0 -50 -12t-34 -31q-12 -15 -18 -15q-7 0 -7 7q0 10 13.5 23.5t37 23t53.5 9.5q25 0 44.5 -9t45.5 -27q24 -17 41.5 -25.5t40.5 -8.5q32 0 50 12t34 31
q12 15 18 15q7 0 7 -7q0 -8 -13.5 -22t-37.5 -24t-53 -10q-25 0 -44.5 9z" />
    <glyph glyph-name="odieresis" unicode="&#xf6;" 
d="M189 16q-62 32 -100.5 92.5t-38.5 141.5t38.5 141.5t100.5 92.5t131 32t131 -32t100.5 -92.5t38.5 -141.5t-38.5 -141.5t-100.5 -92.5t-131 -32t-131 32zM92.5 111q37.5 -59 98.5 -90.5t129 -31.5t129 31.5t98.5 90.5t37.5 139t-37.5 139t-98.5 90.5t-129 31.5
t-129 -31.5t-98.5 -90.5t-37.5 -139t37.5 -139zM232 624q-7 7 -7 17t7 17t17 7t17 -7t7 -17t-7 -17t-17 -7t-17 7zM374 624q-7 7 -7 17t7 17t17 7t17 -7t7 -17t-7 -17t-17 -7t-17 7z" />
    <glyph glyph-name="divide" unicode="&#xf7;" horiz-adv-x="660" 
d="M312.5 447.5q-7.5 7.5 -7.5 17.5q0 11 7.5 18t17.5 7q11 0 18 -7t7 -18q0 -10 -7 -17.5t-18 -7.5q-10 0 -17.5 7.5zM35 275h590v-5h-590v5zM312.5 98q7.5 7 17.5 7q11 0 18 -7t7 -18q0 -10 -7 -17.5t-18 -7.5q-10 0 -17.5 7.5t-7.5 17.5q0 11 7.5 18z" />
    <glyph glyph-name="oslash" unicode="&#xf8;" 
d="M251 -68l13 58q-59 11 -107.5 45.5t-77.5 89.5t-29 125q0 81 38.5 141.5t100.5 92.5t131 32q26 0 47 -4l7 39q1 6 3.5 11t6.5 5q9 0 5 -16l-9 -41q58 -13 105.5 -47.5t76 -89t28.5 -123.5q0 -81 -38.5 -141.5t-100.5 -92.5t-131 -32q-28 0 -49 4l-11 -56q-2 -8 -6 -8
q-5 0 -3 8zM83.5 127q28.5 -54 76 -87.5t105.5 -45.5q25 115 41 197q0 1 11 52l35 186l14 78q-20 4 -46 4q-68 0 -129 -31.5t-98.5 -90.5t-37.5 -139q0 -69 28.5 -123zM320 -11q68 0 129 31.5t98.5 90.5t37.5 139q0 68 -28 121.5t-74.5 87.5t-103.5 46q-39 -171 -57 -262
l-50 -250q21 -4 48 -4z" />
    <glyph glyph-name="ugrave" unicode="&#xf9;" 
d="M128 47q-57 62 -57 183v56q0 47 -2 94.5t-2 64.5l-2 44q0 7 2.5 12t6.5 5q8 0 8 -17l-2 -44q0 -17 -2 -64.5t-2 -94.5v-54q0 -242 221 -242q119 0 180.5 67.5t61.5 190.5v38q0 48 -2 97t-2 66l-2 40q0 7 2.5 12t6.5 5q8 0 8 -17l-2 -40q0 -17 -2 -66t-2 -97v-151
q0 -68 12.5 -96t41.5 -28q12 0 12 -7q0 -8 -12 -8q-23 0 -41 28t-18 106v53q-15 -95 -77 -146.5t-165 -51.5q-112 0 -169 62zM215 703q0 7 8 7q5 0 10 -4l190 -130l-1 -2l-198 117q-9 6 -9 12z" />
    <glyph glyph-name="uacute" unicode="&#xfa;" 
d="M128 47q-57 62 -57 183v56q0 47 -2 94.5t-2 64.5l-2 44q0 7 2.5 12t6.5 5q8 0 8 -17l-2 -44q0 -17 -2 -64.5t-2 -94.5v-54q0 -242 221 -242q119 0 180.5 67.5t61.5 190.5v38q0 48 -2 97t-2 66l-2 40q0 7 2.5 12t6.5 5q8 0 8 -17l-2 -40q0 -17 -2 -66t-2 -97v-151
q0 -68 12.5 -96t41.5 -28q12 0 12 -7q0 -8 -12 -8q-23 0 -41 28t-18 106v53q-15 -95 -77 -146.5t-165 -51.5q-112 0 -169 62zM215 576l190 130q5 4 10 4q8 0 8 -7q0 -6 -9 -12l-198 -117z" />
    <glyph glyph-name="ucircumflex" unicode="&#xfb;" 
d="M128 47q-57 62 -57 183v56q0 47 -2 94.5t-2 64.5l-2 44q0 7 2.5 12t6.5 5q8 0 8 -17l-2 -44q0 -17 -2 -64.5t-2 -94.5v-54q0 -242 221 -242q119 0 180.5 67.5t61.5 190.5v38q0 48 -2 97t-2 66l-2 40q0 7 2.5 12t6.5 5q8 0 8 -17l-2 -40q0 -17 -2 -66t-2 -97v-151
q0 -68 12.5 -96t41.5 -28q12 0 12 -7q0 -8 -12 -8q-23 0 -41 28t-18 106v53q-15 -95 -77 -146.5t-165 -51.5q-112 0 -169 62zM158 566q-3 3 -3 7t4 8q14 13 31 24q6 5 38 30t95 80q58 -54 88 -80.5t45 -40.5l29 -26l-5 -5l-157 146q-76 -67 -119 -113l-24 -24
q-4 -4 -7.5 -6.5t-7.5 -2.5t-7 3z" />
    <glyph glyph-name="udieresis" unicode="&#xfc;" 
d="M128 47q-57 62 -57 183v56q0 47 -2 94.5t-2 64.5l-2 44q0 7 2.5 12t6.5 5q8 0 8 -17l-2 -44q0 -17 -2 -64.5t-2 -94.5v-54q0 -242 221 -242q119 0 180.5 67.5t61.5 190.5v38q0 48 -2 97t-2 66l-2 40q0 7 2.5 12t6.5 5q8 0 8 -17l-2 -40q0 -17 -2 -66t-2 -97v-151
q0 -68 12.5 -96t41.5 -28q12 0 12 -7q0 -8 -12 -8q-23 0 -41 28t-18 106v53q-15 -95 -77 -146.5t-165 -51.5q-112 0 -169 62zM232 624q-7 7 -7 17t7 17t17 7t17 -7t7 -17t-7 -17t-17 -7t-17 7zM374 624q-7 7 -7 17t7 17t17 7t17 -7t7 -17t-7 -17t-17 -7t-17 7z" />
    <glyph glyph-name="yacute" unicode="&#xfd;" horiz-adv-x="605" 
d="M266 -190q-45 19 -45 67q0 22 15.5 50t45.5 70l-137 283q-35 73 -80 156q-24 43 -28 53q-2 3 -2 9q0 7 8 7q6 0 11 -12l13 -31q43 -100 82 -180l136 -281l40 55q135 184 187.5 264t52.5 116q0 37 -34.5 49t-95.5 12q-25 0 -47.5 -2.5t-31.5 -2.5q-8 0 -10 3q-3 5 3 8
q4 3 24.5 5.5t47.5 2.5q64 0 106.5 -15.5t42.5 -60.5q0 -36 -53.5 -117.5t-184.5 -258.5l-43 -59q-31 -42 -47 -71.5t-16 -52.5q0 -71 130 -71q35 0 61 5t28 3t1 -5t-4 -4q-6 -4 -26 -8.5t-49 -4.5q-56 0 -101 19zM198 576l190 130q5 4 10 4q8 0 8 -7q0 -6 -9 -12l-198 -117
z" />
    <glyph glyph-name="thorn" unicode="&#xfe;" horiz-adv-x="690" 
d="M15 -196q0 8 15 8q4 0 18 -3t28 -3q27 0 36 16t9 54v609q0 56 -2 112t-2 75l-2 46q0 7 2.5 12t6.5 5q8 0 8 -17l-2 -47q0 -19 -2 -74.5t-2 -111.5v-190q16 98 83.5 159.5t172.5 61.5q78 0 136.5 -35t90 -95.5t31.5 -135.5q0 -76 -32.5 -137t-92 -95t-135.5 -34
q-50 0 -100 14.5t-81 39.5q-2 1 -2 5q0 5 3.5 7t8.5 -2q34 -27 80 -43t94 -16q73 0 130.5 33.5t89.5 93t32 134.5q0 73 -30.5 132.5t-88 94t-134.5 34.5q-79 0 -137 -37t-88.5 -99.5t-30.5 -139.5v-360q0 -31 -6 -47.5t-22 -22.5h27q41 0 106 5l35 2q17 0 17 -7q0 -8 -17 -8
q-20 0 -35 1q-52 2 -106 2h-14q-38 0 -56 -2t-25 -2q-15 0 -15 8z" />
    <glyph glyph-name="ydieresis" unicode="&#xff;" horiz-adv-x="605" 
d="M266 -190q-45 19 -45 67q0 22 15.5 50t45.5 70l-137 283q-35 73 -80 156q-24 43 -28 53q-2 3 -2 9q0 7 8 7q6 0 11 -12l13 -31q43 -100 82 -180l136 -281l40 55q135 184 187.5 264t52.5 116q0 37 -34.5 49t-95.5 12q-25 0 -47.5 -2.5t-31.5 -2.5q-8 0 -10 3q-3 5 3 8
q4 3 24.5 5.5t47.5 2.5q64 0 106.5 -15.5t42.5 -60.5q0 -36 -53.5 -117.5t-184.5 -258.5l-43 -59q-31 -42 -47 -71.5t-16 -52.5q0 -71 130 -71q35 0 61 5t28 3t1 -5t-4 -4q-6 -4 -26 -8.5t-49 -4.5q-56 0 -101 19zM215 624q-7 7 -7 17t7 17t17 7t17 -7t7 -17t-7 -17t-17 -7
t-17 7zM357 624q-7 7 -7 17t7 17t17 7t17 -7t7 -17t-7 -17t-17 -7t-17 7z" />
    <glyph glyph-name="Amacron" unicode="&#x100;" horiz-adv-x="820" 
d="M108.5 10q-25.5 18 -42 49t-16.5 66q0 36 19 66.5t57.5 49t92.5 18.5q78 0 202.5 -53t345.5 -204q-41 84 -198 373l-180 332l-92 -160q-73 -125 -114 -212q-4 -9 -7.5 -13t-8.5 -4q-9 0 -9 9q0 5 2 8l26 42q57 87 106 172l96 167h2l184 -340q78 -144 180 -321
q20 -34 22 -38q4 -8 4 -13q0 -9 -10 -9q-5 0 -12 5q-216 149 -338.5 201.5t-200.5 52.5q-79 0 -121.5 -37t-42.5 -92q0 -45 24.5 -69.5t61.5 -39.5q4 -2 12.5 -5.5t12 -6t3.5 -5.5q0 -7 -12 -7q-23 0 -48.5 18zM232 835h315v-5h-315v5z" />
    <glyph glyph-name="amacron" unicode="&#x101;" horiz-adv-x="665" 
d="M99 13.5q-49 29.5 -49 93.5q0 48 34 79t122 46l117 20q72 13 112 30t56.5 42.5t16.5 65.5q0 65 -39 87.5t-110 22.5h-48q-88 0 -166 -10l-25 -2q-7 0 -7 5q0 10 51 15t121 5q86 0 134.5 -10.5t71 -37t22.5 -75.5q0 -43 -18 -69.5t-58.5 -43.5t-114.5 -30l-116 -20
q-86 -15 -118.5 -44t-32.5 -76q0 -118 180 -118q71 0 133.5 18.5t100.5 53t38 79.5q0 18 8 18q9 0 6 -15q-6 -30 -6 -57q0 -79 63 -79q18 0 48 6l6 1q8 0 8 -6t-12.5 -10t-29.5 -4q-37 0 -56.5 14t-26 37t-9.5 61q-21 -57 -98.5 -89.5t-172.5 -32.5q-87 0 -136 29.5z
M166 635h315v-5h-315v5z" />
    <glyph glyph-name="Abreve" unicode="&#x102;" horiz-adv-x="820" 
d="M108.5 10q-25.5 18 -42 49t-16.5 66q0 36 19 66.5t57.5 49t92.5 18.5q78 0 202.5 -53t345.5 -204q-41 84 -198 373l-180 332l-92 -160q-73 -125 -114 -212q-4 -9 -7.5 -13t-8.5 -4q-9 0 -9 9q0 5 2 8l26 42q57 87 106 172l96 167h2l184 -340q78 -144 180 -321
q20 -34 22 -38q4 -8 4 -13q0 -9 -10 -9q-5 0 -12 5q-216 149 -338.5 201.5t-200.5 52.5q-79 0 -121.5 -37t-42.5 -92q0 -45 24.5 -69.5t61.5 -39.5q4 -2 12.5 -5.5t12 -6t3.5 -5.5q0 -7 -12 -7q-23 0 -48.5 18zM326.5 790.5q-28.5 14.5 -42.5 37.5t-14 48q0 13 3 20.5t6 7.5
q4 0 4 -8q0 -51 27 -83t84 -32q53 0 82 26.5t29 66.5q0 18 -5 31h5q5 -13 5 -31q0 -42 -30 -70t-86 -28q-39 0 -67.5 14.5z" />
    <glyph glyph-name="abreve" unicode="&#x103;" horiz-adv-x="665" 
d="M99 13.5q-49 29.5 -49 93.5q0 48 34 79t122 46l117 20q72 13 112 30t56.5 42.5t16.5 65.5q0 65 -39 87.5t-110 22.5h-48q-88 0 -166 -10l-25 -2q-7 0 -7 5q0 10 51 15t121 5q86 0 134.5 -10.5t71 -37t22.5 -75.5q0 -43 -18 -69.5t-58.5 -43.5t-114.5 -30l-116 -20
q-86 -15 -118.5 -44t-32.5 -76q0 -118 180 -118q71 0 133.5 18.5t100.5 53t38 79.5q0 18 8 18q9 0 6 -15q-6 -30 -6 -57q0 -79 63 -79q18 0 48 6l6 1q8 0 8 -6t-12.5 -10t-29.5 -4q-37 0 -56.5 14t-26 37t-9.5 61q-21 -57 -98.5 -89.5t-172.5 -32.5q-87 0 -136 29.5z
M260.5 590.5q-28.5 14.5 -42.5 37.5t-14 48q0 13 3 20.5t6 7.5q4 0 4 -8q0 -51 27 -83t84 -32q53 0 82 26.5t29 66.5q0 18 -5 31h5q5 -13 5 -31q0 -42 -30 -70t-86 -28q-39 0 -67.5 14.5z" />
    <glyph glyph-name="Aogonek" unicode="&#x104;" horiz-adv-x="820" 
d="M108.5 10q-25.5 18 -42 49t-16.5 66q0 36 19 66.5t57.5 49t92.5 18.5q78 0 202.5 -53t345.5 -204q-41 84 -198 373l-180 332l-92 -160q-73 -125 -114 -212q-4 -9 -7.5 -13t-8.5 -4q-9 0 -9 9q0 5 2 8l26 42q57 87 106 172l96 167h2l184 -340q78 -144 180 -321
q20 -34 22 -38q4 -8 4 -13q0 -9 -10 -9h-66q-75 0 -112 -25.5t-37 -62.5q0 -31 26.5 -54t78.5 -23q28 0 46.5 6t37.5 16q16 9 22 9q9 0 9 -7q0 -6 -13 -13.5t-36 -12.5t-51 -5q-63 0 -94 24.5t-31 59.5q0 39 38.5 66t115.5 27h54q-216 149 -338.5 201.5t-200.5 52.5
q-79 0 -121.5 -37t-42.5 -92q0 -45 24.5 -69.5t61.5 -39.5q4 -2 12.5 -5.5t12 -6t3.5 -5.5q0 -7 -12 -7q-23 0 -48.5 18z" />
    <glyph glyph-name="aogonek" unicode="&#x105;" horiz-adv-x="665" 
d="M99 13.5q-49 29.5 -49 93.5q0 48 34 79t122 46l117 20q72 13 112 30t56.5 42.5t16.5 65.5q0 65 -39 87.5t-110 22.5h-48q-88 0 -166 -10l-25 -2q-7 0 -7 5q0 10 51 15t121 5q86 0 134.5 -10.5t71 -37t22.5 -75.5q0 -43 -18 -69.5t-58.5 -43.5t-114.5 -30l-116 -20
q-86 -15 -118.5 -44t-32.5 -76q0 -118 180 -118q71 0 133.5 18.5t100.5 53t38 79.5q0 18 8 18q9 0 6 -15q-6 -30 -6 -57q0 -79 63 -79q18 0 48 6l6 1q8 0 8 -6t-12.5 -10t-29.5 -4h-66q-75 0 -112 -25.5t-37 -62.5q0 -31 26.5 -54t78.5 -23q28 0 46.5 6t37.5 16q16 9 22 9
q9 0 9 -7q0 -6 -13 -13.5t-36 -12.5t-51 -5q-63 0 -94 24.5t-31 59.5q0 39 38.5 66t115.5 27h29q-30 9 -40.5 35t-14.5 72q-21 -57 -98.5 -89.5t-172.5 -32.5q-87 0 -136 29.5z" />
    <glyph glyph-name="Cacute" unicode="&#x106;" horiz-adv-x="835" 
d="M251 28q-88 44 -142 127t-54 196q0 112 53.5 195t141.5 126.5t189 43.5q65 0 121.5 -18t97.5 -46t61 -58q1 -1 1 -3q0 -4 -4 -5.5t-7 3.5q-35 48 -106.5 85t-164.5 37q-99 0 -185.5 -43t-139.5 -124.5t-53 -192.5q0 -112 53.5 -194t140 -125t184.5 -43q87 0 149.5 29
t98.5 65t68 81q12 17 19 25t12 8t5 -6q0 -17 -44.5 -69t-123 -95t-183.5 -43q-100 0 -188 44zM333 776l190 130q5 4 10 4q8 0 8 -7q0 -6 -9 -12l-198 -117z" />
    <glyph glyph-name="cacute" unicode="&#x107;" horiz-adv-x="630" 
d="M193 16q-64 32 -103.5 92.5t-39.5 142.5q0 81 39.5 141.5t103.5 92t138 31.5q68 0 123.5 -26.5t78.5 -61.5q1 -1 1 -4t-3 -4t-6 3q-25 35 -76.5 61.5t-118.5 26.5q-72 0 -135 -30.5t-101.5 -89.5t-38.5 -140t38.5 -140.5t101.5 -90.5t133 -31q63 0 108.5 20.5t71 46.5
t49.5 59q7 10 13 17.5t10 7.5q5 0 5 -6q0 -13 -32 -50.5t-90 -68.5t-134 -31q-72 0 -136 32zM210 576l190 130q5 4 10 4q8 0 8 -7q0 -6 -9 -12l-198 -117z" />
    <glyph glyph-name="Cdotaccent" unicode="&#x10a;" horiz-adv-x="835" 
d="M251 28q-88 44 -142 127t-54 196q0 112 53.5 195t141.5 126.5t189 43.5q65 0 121.5 -18t97.5 -46t61 -58q1 -1 1 -3q0 -4 -4 -5.5t-7 3.5q-35 48 -106.5 85t-164.5 37q-99 0 -185.5 -43t-139.5 -124.5t-53 -192.5q0 -112 53.5 -194t140 -125t184.5 -43q87 0 149.5 29
t98.5 65t68 81q12 17 19 25t12 8t5 -6q0 -17 -44.5 -69t-123 -95t-183.5 -43q-100 0 -188 44zM421 824q-7 7 -7 17t7 17t17 7t17 -7t7 -17t-7 -17t-17 -7t-17 7z" />
    <glyph glyph-name="cdotaccent" unicode="&#x10b;" horiz-adv-x="630" 
d="M193 16q-64 32 -103.5 92.5t-39.5 142.5q0 81 39.5 141.5t103.5 92t138 31.5q68 0 123.5 -26.5t78.5 -61.5q1 -1 1 -4t-3 -4t-6 3q-25 35 -76.5 61.5t-118.5 26.5q-72 0 -135 -30.5t-101.5 -89.5t-38.5 -140t38.5 -140.5t101.5 -90.5t133 -31q63 0 108.5 20.5t71 46.5
t49.5 59q7 10 13 17.5t10 7.5q5 0 5 -6q0 -13 -32 -50.5t-90 -68.5t-134 -31q-72 0 -136 32zM298 624q-7 7 -7 17t7 17t17 7t17 -7t7 -17t-7 -17t-17 -7t-17 7z" />
    <glyph glyph-name="Ccaron" unicode="&#x10c;" horiz-adv-x="835" 
d="M251 28q-88 44 -142 127t-54 196q0 112 53.5 195t141.5 126.5t189 43.5q65 0 121.5 -18t97.5 -46t61 -58q1 -1 1 -3q0 -4 -4 -5.5t-7 3.5q-35 48 -106.5 85t-164.5 37q-99 0 -185.5 -43t-139.5 -124.5t-53 -192.5q0 -112 53.5 -194t140 -125t184.5 -43q87 0 149.5 29
t98.5 65t68 81q12 17 19 25t12 8t5 -6q0 -17 -44.5 -69t-123 -95t-183.5 -43q-100 0 -188 44zM347 838.5q-30 26.5 -45 40.5l-29 26l5 5l157 -146q76 67 119 113l24 24q4 4 7.5 6.5t7.5 2.5t7 -3t3 -7t-4 -8q-14 -13 -31 -24q-6 -5 -38 -30t-95 -80q-58 54 -88 80.5z" />
    <glyph glyph-name="ccaron" unicode="&#x10d;" horiz-adv-x="630" 
d="M193 16q-64 32 -103.5 92.5t-39.5 142.5q0 81 39.5 141.5t103.5 92t138 31.5q68 0 123.5 -26.5t78.5 -61.5q1 -1 1 -4t-3 -4t-6 3q-25 35 -76.5 61.5t-118.5 26.5q-72 0 -135 -30.5t-101.5 -89.5t-38.5 -140t38.5 -140.5t101.5 -90.5t133 -31q63 0 108.5 20.5t71 46.5
t49.5 59q7 10 13 17.5t10 7.5q5 0 5 -6q0 -13 -32 -50.5t-90 -68.5t-134 -31q-72 0 -136 32zM224 638.5q-30 26.5 -45 40.5l-29 26l5 5l157 -146q76 67 119 113l24 24q4 4 7.5 6.5t7.5 2.5t7 -3t3 -7t-4 -8q-14 -13 -31 -24q-6 -5 -38 -30t-95 -80q-58 54 -88 80.5z" />
    <glyph glyph-name="Dcaron" unicode="&#x10e;" horiz-adv-x="725" 
d="M187.5 3.5q-58.5 19.5 -97.5 48.5t-57 58q-3 5 -3 9t2.5 6t5.5 2q7 0 12 -8q31 -49 101 -89.5t169 -40.5q98 0 176.5 43t123.5 124t45 190q0 97 -37.5 176t-115.5 126t-195 47h-241v-220q0 -94 5 -209l2 -47q0 -19 -9 -19t-9 19l1 47q5 115 5 209q0 107 -3 218q0 9 8 9
q5 0 16 -1t26 -1h200q118 0 197 -47.5t117 -128t38 -178.5q0 -110 -45.5 -192t-126 -126t-182.5 -44q-70 0 -128.5 19.5zM237 838.5q-30 26.5 -45 40.5l-29 26l5 5l157 -146q76 67 119 113l24 24q4 4 7.5 6.5t7.5 2.5t7 -3t3 -7t-4 -8q-14 -13 -31 -24q-6 -5 -38 -30
t-95 -80q-58 54 -88 80.5z" />
    <glyph glyph-name="dcaron" unicode="&#x10f;" horiz-adv-x="645" 
d="M171.5 19q-58.5 35 -90 95.5t-31.5 135.5q0 76 32.5 137t92 95t135.5 34q50 0 100 -14.5t81 -39.5q2 -1 2 -5q0 -5 -3.5 -7t-8.5 2q-34 27 -80 43t-94 16q-73 0 -130.5 -33.5t-89.5 -93t-32 -134.5q0 -73 30.5 -132.5t88 -94t134.5 -34.5q79 0 137 37t88.5 99.5
t30.5 139.5v220q0 56 -2 111.5t-2 74.5l-2 47q0 17 8 17q4 0 6.5 -5t2.5 -12l-2 -46q0 -19 -2 -75t-2 -112v-240q0 -56 2 -112t2 -75l2 -46q0 -7 -2.5 -12t-6.5 -5q-8 0 -8 17l2 46q4 141 4 146q-17 -98 -84.5 -159t-171.5 -61q-78 0 -136.5 35zM629 460q0 86 -4 234
q-1 13 -1 29q0 12 8 12t8 -12q0 -16 -1 -29q-4 -148 -4 -234q0 -4 -3 -4t-3 4z" />
    <glyph glyph-name="Dcroat" unicode="&#x110;" horiz-adv-x="725" 
d="M417 276q-122 4 -247 4h-89l2 -61q0 -19 -9 -19t-9 19l2 61h-2q-11 0 -33 -2l-26 -1q-6 0 -6 6q0 2 1.5 3.5t4.5 1.5l26 -1q22 -2 33 -2h2q4 92 4 190q0 107 -3 218q0 9 8 9q5 0 16 -1t26 -1h200q118 0 197 -47.5t117 -128t38 -178.5q0 -110 -45.5 -192t-126 -126
t-182.5 -44q-70 0 -128.5 19.5t-97.5 48.5t-57 58q-3 5 -3 9t2.5 6t5.5 2q7 0 12 -8q31 -49 101 -89.5t169 -40.5q98 0 176.5 43t123.5 124t45 190q0 97 -37.5 176t-115.5 126t-195 47h-241v-220q0 -98 4 -190h90q95 0 247 5l59 1q11 0 15 -2t4 -6t-4 -6t-15 -2z" />
    <glyph glyph-name="dcroat" unicode="&#x111;" horiz-adv-x="645" 
d="M269 613q-4 2 -4 6t4 6t15 2l51 -2q72 -4 135 -4h91l-3 97q0 17 8 17q4 0 6.5 -5t2.5 -12l-3 -97h3q11 0 33 2l26 1q3 0 4.5 -1.5t1.5 -3.5q0 -6 -6 -6l-26 1q-22 2 -33 2h-4q-2 -74 -2 -131v-240q0 -56 2 -112t2 -75l2 -46q0 -7 -2.5 -12t-6.5 -5q-8 0 -8 17l2 46
q4 141 4 146q-17 -98 -84.5 -159t-171.5 -61q-78 0 -136.5 35t-90 95.5t-31.5 135.5q0 76 32.5 137t92 95t135.5 34q50 0 100 -14.5t81 -39.5q2 -1 2 -5q0 -5 -3.5 -7t-8.5 2q-34 27 -80 43t-94 16q-73 0 -130.5 -33.5t-89.5 -93t-32 -134.5q0 -73 30.5 -132.5t88 -94
t134.5 -34.5q79 0 137 37t88.5 99.5t30.5 139.5v220q0 57 -2 131h-92q-27 0 -135 -3l-51 -2q-11 0 -15 2z" />
    <glyph glyph-name="Emacron" unicode="&#x112;" horiz-adv-x="635" 
d="M362 -27.5q-34 3.5 -89 10.5q-67 8 -115.5 12.5t-111.5 4.5q-7 0 -17 -2t-15 -2q-14 0 -14 8q0 4 4 6t9 2q29 0 37 12t8 52v269q0 27 20 32q-8 1 -14 9t-6 23v56q0 115 -3 229q0 8 8 8q5 0 16 -1t26 -1h187q117 0 209 2h47q19 0 19 -9t-15 -9l-39 2q-101 9 -221 9h-229
v-285q0 -31 29 -31h78q95 0 247 5l59 1q11 0 15 -2t4 -6t-4 -6t-15 -2l-59 1q-122 4 -247 4h-78q-29 0 -29 -31v-270q0 -31 -6.5 -46.5t-24.5 -21.5q69 0 127 -5t128 -14q10 -1 56 -6.5t84 -5.5q71 0 103 13t51 37q10 13 17 6q2 -2 2 -5q0 -8 -7 -16q-16 -20 -52 -30
t-105 -10q-40 0 -74 3.5zM162 835h315v-5h-315v5z" />
    <glyph glyph-name="emacron" unicode="&#x113;" horiz-adv-x="625" 
d="M193.5 17q-64.5 33 -104 94.5t-39.5 143.5q0 79 37 138.5t97 91t129 31.5q58 0 107.5 -22.5t78.5 -61t29 -86.5h-458q-15 -40 -15 -91q0 -82 39 -142t102.5 -92t135.5 -32q61 0 105 20.5t69.5 46.5t49.5 59q7 10 13.5 17.5t10.5 7.5q5 0 5 -6q0 -13 -32 -50.5t-89 -68.5
t-132 -31q-74 0 -138.5 33zM522 351q0 42 -27.5 79t-75.5 59t-106 22q-80 0 -146.5 -42.5t-95.5 -117.5h451zM157 635h315v-5h-315v5z" />
    <glyph glyph-name="Edotaccent" unicode="&#x116;" horiz-adv-x="635" 
d="M362 -27.5q-34 3.5 -89 10.5q-67 8 -115.5 12.5t-111.5 4.5q-7 0 -17 -2t-15 -2q-14 0 -14 8q0 4 4 6t9 2q29 0 37 12t8 52v269q0 27 20 32q-8 1 -14 9t-6 23v56q0 115 -3 229q0 8 8 8q5 0 16 -1t26 -1h187q117 0 209 2h47q19 0 19 -9t-15 -9l-39 2q-101 9 -221 9h-229
v-285q0 -31 29 -31h78q95 0 247 5l59 1q11 0 15 -2t4 -6t-4 -6t-15 -2l-59 1q-122 4 -247 4h-78q-29 0 -29 -31v-270q0 -31 -6.5 -46.5t-24.5 -21.5q69 0 127 -5t128 -14q10 -1 56 -6.5t84 -5.5q71 0 103 13t51 37q10 13 17 6q2 -2 2 -5q0 -8 -7 -16q-16 -20 -52 -30
t-105 -10q-40 0 -74 3.5zM303 824q-7 7 -7 17t7 17t17 7t17 -7t7 -17t-7 -17t-17 -7t-17 7z" />
    <glyph glyph-name="edotaccent" unicode="&#x117;" horiz-adv-x="625" 
d="M193.5 17q-64.5 33 -104 94.5t-39.5 143.5q0 79 37 138.5t97 91t129 31.5q58 0 107.5 -22.5t78.5 -61t29 -86.5h-458q-15 -40 -15 -91q0 -82 39 -142t102.5 -92t135.5 -32q61 0 105 20.5t69.5 46.5t49.5 59q7 10 13.5 17.5t10.5 7.5q5 0 5 -6q0 -13 -32 -50.5t-89 -68.5
t-132 -31q-74 0 -138.5 33zM522 351q0 42 -27.5 79t-75.5 59t-106 22q-80 0 -146.5 -42.5t-95.5 -117.5h451zM298 624q-7 7 -7 17t7 17t17 7t17 -7t7 -17t-7 -17t-17 -7t-17 7z" />
    <glyph glyph-name="Eogonek" unicode="&#x118;" horiz-adv-x="635" 
d="M358 -151.5q-30 20.5 -30 53.5q0 25 17 43t50 25q-50 2 -125 13q-65 8 -113 12.5t-111 4.5q-7 0 -17 -2t-15 -2q-14 0 -14 8q0 4 4 6t9 2q29 0 37 12t8 52v269q0 27 20 32q-8 1 -14 9t-6 23v56q0 115 -3 229q0 8 8 8q5 0 16 -1t26 -1h187q117 0 209 2h47q19 0 19 -9
t-15 -9l-39 2q-101 9 -221 9h-229v-285q0 -31 29 -31h78q95 0 247 5l59 1q11 0 15 -2t4 -6t-4 -6t-15 -2l-59 1q-122 4 -247 4h-78q-29 0 -29 -31v-270q0 -31 -6.5 -46.5t-24.5 -21.5q69 0 127 -5t128 -14q10 -1 56 -6.5t84 -5.5q71 0 103 13t51 37q10 13 17 6q2 -2 2 -5
q0 -8 -7 -16q-16 -20 -52 -30t-105 -10q-52 0 -77.5 -18.5t-25.5 -48.5t25.5 -48.5t77.5 -18.5q29 0 49 6.5t37 16.5q3 1 10 4.5t12 3.5q9 0 9 -7q0 -6 -13 -13.5t-36.5 -12.5t-52.5 -5q-63 0 -93 20.5z" />
    <glyph glyph-name="eogonek" unicode="&#x119;" horiz-adv-x="625" 
d="M300 -151.5q-30 20.5 -30 53.5q0 55 84 83q-7 -1 -22 -1q-74 0 -138.5 33t-104 94.5t-39.5 143.5q0 79 37 138.5t97 91t129 31.5q58 0 107.5 -22.5t78.5 -61t29 -86.5h-458q-15 -40 -15 -91q0 -82 39 -142t102.5 -92t135.5 -32q61 0 105 20.5t69.5 46.5t49.5 59
q7 10 13.5 17.5t10.5 7.5q5 0 5 -6q0 -11 -26 -43.5t-72.5 -63t-108.5 -40.5q-54 -14 -78.5 -35t-24.5 -50q0 -30 25.5 -48.5t77.5 -18.5q29 0 49 6.5t37 16.5q3 1 10 4.5t12 3.5q9 0 9 -7q0 -6 -13 -13.5t-36.5 -12.5t-52.5 -5q-63 0 -93 20.5zM522 351q0 42 -27.5 79
t-75.5 59t-106 22q-80 0 -146.5 -42.5t-95.5 -117.5h451z" />
    <glyph glyph-name="Ecaron" unicode="&#x11a;" horiz-adv-x="635" 
d="M362 -27.5q-34 3.5 -89 10.5q-67 8 -115.5 12.5t-111.5 4.5q-7 0 -17 -2t-15 -2q-14 0 -14 8q0 4 4 6t9 2q29 0 37 12t8 52v269q0 27 20 32q-8 1 -14 9t-6 23v56q0 115 -3 229q0 8 8 8q5 0 16 -1t26 -1h187q117 0 209 2h47q19 0 19 -9t-15 -9l-39 2q-101 9 -221 9h-229
v-285q0 -31 29 -31h78q95 0 247 5l59 1q11 0 15 -2t4 -6t-4 -6t-15 -2l-59 1q-122 4 -247 4h-78q-29 0 -29 -31v-270q0 -31 -6.5 -46.5t-24.5 -21.5q69 0 127 -5t128 -14q10 -1 56 -6.5t84 -5.5q71 0 103 13t51 37q10 13 17 6q2 -2 2 -5q0 -8 -7 -16q-16 -20 -52 -30
t-105 -10q-40 0 -74 3.5zM229 838.5q-30 26.5 -45 40.5l-29 26l5 5l157 -146q76 67 119 113l24 24q4 4 7.5 6.5t7.5 2.5t7 -3t3 -7t-4 -8q-14 -13 -31 -24q-6 -5 -38 -30t-95 -80q-58 54 -88 80.5z" />
    <glyph glyph-name="ecaron" unicode="&#x11b;" horiz-adv-x="625" 
d="M193.5 17q-64.5 33 -104 94.5t-39.5 143.5q0 79 37 138.5t97 91t129 31.5q58 0 107.5 -22.5t78.5 -61t29 -86.5h-458q-15 -40 -15 -91q0 -82 39 -142t102.5 -92t135.5 -32q61 0 105 20.5t69.5 46.5t49.5 59q7 10 13.5 17.5t10.5 7.5q5 0 5 -6q0 -13 -32 -50.5t-89 -68.5
t-132 -31q-74 0 -138.5 33zM522 351q0 42 -27.5 79t-75.5 59t-106 22q-80 0 -146.5 -42.5t-95.5 -117.5h451zM224 638.5q-30 26.5 -45 40.5l-29 26l5 5l157 -146q76 67 119 113l24 24q4 4 7.5 6.5t7.5 2.5t7 -3t3 -7t-4 -8q-14 -13 -31 -24q-6 -5 -38 -30t-95 -80
q-58 54 -88 80.5z" />
    <glyph glyph-name="Gbreve" unicode="&#x11e;" horiz-adv-x="835" 
d="M243 27.5q-85 43.5 -136.5 127t-51.5 196.5q0 112 53.5 195t141.5 126.5t189 43.5q65 0 121.5 -18t97.5 -46t61 -58q1 -1 1 -3q0 -4 -4 -5.5t-7 3.5q-35 48 -106.5 85t-164.5 37q-99 0 -185.5 -43t-139.5 -124.5t-53 -192.5q0 -112 50.5 -194t134.5 -125t182 -43
q110 0 184.5 49.5t110 121t35.5 139.5q0 16 6 16q4 0 5.5 -5.5t1.5 -20.5q0 -17 -1 -29l-1 -100q0 -49 5 -109q2 -30 2 -37q0 -19 -9 -19t-9 19q0 7 2 37q4 48 4 109q0 52 -4 98q-10 -70 -51.5 -133t-113 -102t-166.5 -39q-100 0 -185 43.5zM366.5 790.5
q-28.5 14.5 -42.5 37.5t-14 48q0 13 3 20.5t6 7.5q4 0 4 -8q0 -51 27 -83t84 -32q53 0 82 26.5t29 66.5q0 18 -5 31h5q5 -13 5 -31q0 -42 -30 -70t-86 -28q-39 0 -67.5 14.5z" />
    <glyph glyph-name="gbreve" unicode="&#x11f;" horiz-adv-x="600" 
d="M116 -174q-19 8 -19 19q0 4 3.5 5.5t8.5 -1.5q41 -24 76 -33.5t74 -9.5q84 0 149.5 30.5t101.5 79.5t36 102q0 85 -76 85q-41 0 -82 -20.5t-99 -61.5q-59 -40 -96.5 -59t-76.5 -19q-36 0 -58.5 21t-22.5 54q0 40 35 76t84.5 60t92.5 33q-87 8 -132 54.5t-45 110.5
q0 70 53 117t156 47q73 0 121.5 -21.5t63.5 -61.5q0 32 21.5 52t62.5 20q5 0 8.5 -2t3.5 -5q0 -8 -10 -8q-39 0 -60 -12t-21 -43q0 -10 3.5 -19t3.5 -11q0 -8 -7 -8q-8 0 -8 12q0 46 -49 74t-133 28q-101 0 -152.5 -45t-51.5 -114t51.5 -115t151.5 -46q60 0 103.5 17.5
t66 46.5t22.5 63q0 10 -5 23v1q0 3 3.5 3.5t4.5 -3.5q2 -10 2 -24q0 -35 -23.5 -65.5t-68 -48.5t-105.5 -18q-37 0 -94.5 -23.5t-100.5 -62t-43 -82.5q0 -31 21.5 -50.5t55.5 -19.5q37 0 73.5 19t93.5 58q60 41 102 62t86 21q79 0 79 -90q0 -55 -38 -106.5t-106 -83.5
t-153 -32q-75 0 -138 30zM214.5 590.5q-28.5 14.5 -42.5 37.5t-14 48q0 13 3 20.5t6 7.5q4 0 4 -8q0 -51 27 -83t84 -32q53 0 82 26.5t29 66.5q0 18 -5 31h5q5 -13 5 -31q0 -42 -30 -70t-86 -28q-39 0 -67.5 14.5z" />
    <glyph glyph-name="Gdotaccent" unicode="&#x120;" horiz-adv-x="835" 
d="M243 27.5q-85 43.5 -136.5 127t-51.5 196.5q0 112 53.5 195t141.5 126.5t189 43.5q65 0 121.5 -18t97.5 -46t61 -58q1 -1 1 -3q0 -4 -4 -5.5t-7 3.5q-35 48 -106.5 85t-164.5 37q-99 0 -185.5 -43t-139.5 -124.5t-53 -192.5q0 -112 50.5 -194t134.5 -125t182 -43
q110 0 184.5 49.5t110 121t35.5 139.5q0 16 6 16q4 0 5.5 -5.5t1.5 -20.5q0 -17 -1 -29l-1 -100q0 -49 5 -109q2 -30 2 -37q0 -19 -9 -19t-9 19q0 7 2 37q4 48 4 109q0 52 -4 98q-10 -70 -51.5 -133t-113 -102t-166.5 -39q-100 0 -185 43.5zM413 824q-7 7 -7 17t7 17t17 7
t17 -7t7 -17t-7 -17t-17 -7t-17 7z" />
    <glyph glyph-name="gdotaccent" unicode="&#x121;" horiz-adv-x="600" 
d="M116 -174q-19 8 -19 19q0 4 3.5 5.5t8.5 -1.5q41 -24 76 -33.5t74 -9.5q84 0 149.5 30.5t101.5 79.5t36 102q0 85 -76 85q-41 0 -82 -20.5t-99 -61.5q-59 -40 -96.5 -59t-76.5 -19q-36 0 -58.5 21t-22.5 54q0 40 35 76t84.5 60t92.5 33q-87 8 -132 54.5t-45 110.5
q0 70 53 117t156 47q73 0 121.5 -21.5t63.5 -61.5q0 32 21.5 52t62.5 20q5 0 8.5 -2t3.5 -5q0 -8 -10 -8q-39 0 -60 -12t-21 -43q0 -10 3.5 -19t3.5 -11q0 -8 -7 -8q-8 0 -8 12q0 46 -49 74t-133 28q-101 0 -152.5 -45t-51.5 -114t51.5 -115t151.5 -46q60 0 103.5 17.5
t66 46.5t22.5 63q0 10 -5 23v1q0 3 3.5 3.5t4.5 -3.5q2 -10 2 -24q0 -35 -23.5 -65.5t-68 -48.5t-105.5 -18q-37 0 -94.5 -23.5t-100.5 -62t-43 -82.5q0 -31 21.5 -50.5t55.5 -19.5q37 0 73.5 19t93.5 58q60 41 102 62t86 21q79 0 79 -90q0 -55 -38 -106.5t-106 -83.5
t-153 -32q-75 0 -138 30zM261 624q-7 7 -7 17t7 17t17 7t17 -7t7 -17t-7 -17t-17 -7t-17 7z" />
    <glyph glyph-name="uni0122" unicode="&#x122;" horiz-adv-x="835" 
d="M243 27.5q-85 43.5 -136.5 127t-51.5 196.5q0 112 53.5 195t141.5 126.5t189 43.5q65 0 121.5 -18t97.5 -46t61 -58q1 -1 1 -3q0 -4 -4 -5.5t-7 3.5q-35 48 -106.5 85t-164.5 37q-99 0 -185.5 -43t-139.5 -124.5t-53 -192.5q0 -112 50.5 -194t134.5 -125t182 -43
q110 0 184.5 49.5t110 121t35.5 139.5q0 16 6 16q4 0 5.5 -5.5t1.5 -20.5q0 -17 -1 -29l-1 -100q0 -49 5 -109q2 -30 2 -37q0 -19 -9 -19t-9 19q0 7 2 37q4 48 4 109q0 52 -4 98q-10 -70 -51.5 -133t-113 -102t-166.5 -39q-100 0 -185 43.5zM375 -203q0 4 6 4q36 0 57 9
t21 43q0 38 -24 96v1q0 4 4 5.5t5 -2.5q21 -51 21 -87q0 -46 -25 -61t-53 -15q-12 0 -12 7z" />
    <glyph glyph-name="uni0123" unicode="&#x123;" horiz-adv-x="600" 
d="M116 -174q-19 8 -19 19q0 4 3.5 5.5t8.5 -1.5q41 -24 76 -33.5t74 -9.5q84 0 149.5 30.5t101.5 79.5t36 102q0 85 -76 85q-41 0 -82 -20.5t-99 -61.5q-59 -40 -96.5 -59t-76.5 -19q-36 0 -58.5 21t-22.5 54q0 40 35 76t84.5 60t92.5 33q-87 8 -132 54.5t-45 110.5
q0 63 43.5 108t129.5 54q-10 37 -10 77q0 93 88 93q12 0 12 -7q0 -4 -6 -4q-26 0 -44 -4t-31.5 -22t-13.5 -54q0 -35 15 -78q8 1 26 1q73 0 121.5 -21.5t63.5 -61.5q0 32 21.5 52t62.5 20q5 0 8.5 -2t3.5 -5q0 -8 -10 -8q-39 0 -60 -12t-21 -43q0 -10 3.5 -19t3.5 -11
q0 -8 -7 -8q-8 0 -8 12q0 46 -49 74t-133 28l-25 -1q8 -21 17 -41v-2q0 -4 -4.5 -5.5t-5.5 2.5q-10 24 -17 45q-84 -8 -126.5 -51.5t-42.5 -105.5q0 -69 51.5 -115t151.5 -46q60 0 103.5 17.5t66 46.5t22.5 63q0 10 -5 23v1q0 3 3.5 3.5t4.5 -3.5q2 -10 2 -24
q0 -35 -23.5 -65.5t-68 -48.5t-105.5 -18q-37 0 -94.5 -23.5t-100.5 -62t-43 -82.5q0 -31 21.5 -50.5t55.5 -19.5q37 0 73.5 19t93.5 58q60 41 102 62t86 21q79 0 79 -90q0 -55 -38 -106.5t-106 -83.5t-153 -32q-75 0 -138 30z" />
    <glyph glyph-name="Hbar" unicode="&#x126;" horiz-adv-x="670" 
d="M587 14l2 47q5 115 5 209v83h-518v-83q0 -94 5 -209l2 -47q0 -19 -9 -19t-9 19l1 47q5 115 5 209v131h-31v5h31v31q0 93 -5 203l-1 46q0 19 9 19t9 -19l-2 -46q-5 -110 -5 -203v-31h518v31q0 93 -5 203l-2 46q0 19 9 19t9 -19l-1 -46q-5 -110 -5 -203v-31h31v-5h-31v-131
q0 -94 5 -209l1 -47q0 -19 -9 -19t-9 19zM594 358v43h-518v-43h518z" />
    <glyph glyph-name="hbar" unicode="&#x127;" horiz-adv-x="625" 
d="M305 613q-108 3 -135 3h-87q-2 -74 -2 -131v-167q15 95 75.5 146.5t159.5 51.5q114 0 173.5 -68.5t59.5 -192.5v-40q0 -47 2 -94.5t2 -64.5l2 -44q0 -7 -2.5 -12t-6.5 -5q-8 0 -8 17l2 44q0 17 2 64.5t2 94.5v38q0 123 -58 190.5t-170 67.5q-113 0 -174 -68t-61 -190v-8
q0 -56 2 -112t2 -75l2 -46q0 -7 -2.5 -12t-6.5 -5q-8 0 -8 17l2 47q0 19 2 74.5t2 111.5v240q0 57 -2 131h-9q-11 0 -33 -2l-26 -1q-6 0 -6 6q0 2 1.5 3.5t4.5 1.5l26 -1q22 -2 33 -2h8l-3 97q0 17 8 17q4 0 6.5 -5t2.5 -12l-3 -97h86q63 0 135 4l51 2q11 0 15 -2t4 -6
t-4 -6t-15 -2z" />
    <glyph glyph-name="Itilde" unicode="&#x128;" horiz-adv-x="285" 
d="M35 4q0 8 19 8q5 0 14.5 -2.5t23.5 -2.5q30 0 39 15t9 54v551q0 31 6 46.5t22 20.5h-27q-37 0 -57.5 -2.5t-27.5 -2.5q-21 0 -21 7t21 7q7 0 27.5 -1.5t57.5 -1.5h14q39 0 54.5 2t21.5 2q19 0 19 -8t-19 -8q-5 0 -14.5 2.5t-23.5 2.5q-30 0 -39 -15t-9 -54v-551
q0 -31 -6 -46.5t-22 -20.5h27q37 0 57.5 2.5t27.5 2.5q21 0 21 -7t-21 -7q-7 0 -27.5 1.5t-57.5 1.5h-14q-39 0 -54.5 -2t-21.5 -2q-19 0 -19 8zM186.5 804q-19.5 9 -45.5 27q-24 17 -41.5 25.5t-40.5 8.5q-32 0 -50 -12t-34 -31q-12 -15 -18 -15q-7 0 -7 7q0 10 13.5 23.5
t37 23t53.5 9.5q25 0 44.5 -9t45.5 -27q24 -17 41.5 -25.5t40.5 -8.5q32 0 50 12t34 31q12 15 18 15q7 0 7 -7q0 -8 -13.5 -22t-37.5 -24t-53 -10q-25 0 -44.5 9z" />
    <glyph glyph-name="itilde" unicode="&#x129;" horiz-adv-x="155" 
d="M69 12l1 26q5 65 5 137v150q0 73 -5 138l-1 25q0 17 8 17q9 0 9 -17l-1 -25q-5 -65 -5 -138v-150q0 -72 5 -137l1 -26q0 -17 -9 -17q-8 0 -8 17zM120.5 604q-19.5 9 -45.5 27q-24 17 -41.5 25.5t-40.5 8.5q-32 0 -50 -12t-34 -31q-12 -15 -18 -15q-7 0 -7 7
q0 10 13.5 23.5t37 23t53.5 9.5q25 0 44.5 -9t45.5 -27q24 -17 41.5 -25.5t40.5 -8.5q32 0 50 12t34 31q12 15 18 15q7 0 7 -7q0 -8 -13.5 -22t-37.5 -24t-53 -10q-25 0 -44.5 9z" />
    <glyph glyph-name="Imacron" unicode="&#x12a;" horiz-adv-x="285" 
d="M35 4q0 8 19 8q5 0 14.5 -2.5t23.5 -2.5q30 0 39 15t9 54v551q0 31 6 46.5t22 20.5h-27q-37 0 -57.5 -2.5t-27.5 -2.5q-21 0 -21 7t21 7q7 0 27.5 -1.5t57.5 -1.5h14q39 0 54.5 2t21.5 2q19 0 19 -8t-19 -8q-5 0 -14.5 2.5t-23.5 2.5q-30 0 -39 -15t-9 -54v-551
q0 -31 -6 -46.5t-22 -20.5h27q37 0 57.5 2.5t27.5 2.5q21 0 21 -7t-21 -7q-7 0 -27.5 1.5t-57.5 1.5h-14q-39 0 -54.5 -2t-21.5 -2q-19 0 -19 8zM-15 835h315v-5h-315v5z" />
    <glyph glyph-name="imacron" unicode="&#x12b;" horiz-adv-x="155" 
d="M69 12l1 26q5 65 5 137v150q0 73 -5 138l-1 25q0 17 8 17q9 0 9 -17l-1 -25q-5 -65 -5 -138v-150q0 -72 5 -137l1 -26q0 -17 -9 -17q-8 0 -8 17zM-81 635h315v-5h-315v5z" />
    <glyph glyph-name="Iogonek" unicode="&#x12e;" horiz-adv-x="285" 
d="M35 4q0 8 19 8q5 0 14.5 -2.5t23.5 -2.5q30 0 39 15t9 54v551q0 31 6 46.5t22 20.5h-27q-37 0 -57.5 -2.5t-27.5 -2.5q-21 0 -21 7t21 7q7 0 27.5 -1.5t57.5 -1.5h14q39 0 54.5 2t21.5 2q19 0 19 -8t-19 -8q-5 0 -14.5 2.5t-23.5 2.5q-30 0 -39 -15t-9 -54v-551
q0 -31 -6 -46.5t-22 -20.5h27q37 0 57.5 2.5t27.5 2.5q21 0 21 -7t-21 -7q-7 0 -25 1.5t-47 1.5q-73 -1 -108 -26.5t-35 -61.5q0 -31 26.5 -54t78.5 -23q28 0 46.5 6t37.5 16q16 9 22 9q9 0 9 -7q0 -6 -13 -13.5t-36 -12.5t-51 -5q-63 0 -94 24.5t-31 59.5q0 30 24 54t71 34
q-20 -1 -32 -2.5t-18 -1.5q-19 0 -19 8z" />
    <glyph glyph-name="iogonek" unicode="&#x12f;" horiz-adv-x="145" 
d="M-54 -148.5q-26 23.5 -26 57.5q0 39 37 64.5t114 26.5q-2 6 -2 12l1 26q5 65 5 137v150q0 73 -5 138l-1 25q0 17 8 17q9 0 9 -17l-1 -25q-5 -65 -5 -138v-150q0 -72 5 -137l1 -26q0 -17 -9 -17q-78 0 -115 -24t-37 -62q0 -30 21.5 -52t65.5 -22q26 0 41.5 6t32.5 16
q14 9 20 9q9 0 9 -7q0 -10 -26 -20.5t-63 -10.5q-54 0 -80 23.5zM56 658q7 7 17 7t17 -7t7 -17t-7 -17t-17 -7t-17 7t-7 17t7 17z" />
    <glyph glyph-name="Idotaccent" unicode="&#x130;" horiz-adv-x="285" 
d="M35 4q0 8 19 8q5 0 14.5 -2.5t23.5 -2.5q30 0 39 15t9 54v551q0 31 6 46.5t22 20.5h-27q-37 0 -57.5 -2.5t-27.5 -2.5q-21 0 -21 7t21 7q7 0 27.5 -1.5t57.5 -1.5h14q39 0 54.5 2t21.5 2q19 0 19 -8t-19 -8q-5 0 -14.5 2.5t-23.5 2.5q-30 0 -39 -15t-9 -54v-551
q0 -31 -6 -46.5t-22 -20.5h27q37 0 57.5 2.5t27.5 2.5q21 0 21 -7t-21 -7q-7 0 -27.5 1.5t-57.5 1.5h-14q-39 0 -54.5 -2t-21.5 -2q-19 0 -19 8zM126 824q-7 7 -7 17t7 17t17 7t17 -7t7 -17t-7 -17t-17 -7t-17 7z" />
    <glyph glyph-name="dotlessi" unicode="&#x131;" horiz-adv-x="155" 
d="M69 12l1 26q5 65 5 137v150q0 73 -5 138l-1 25q0 17 8 17q9 0 9 -17l-1 -25q-5 -65 -5 -138v-150q0 -72 5 -137l1 -26q0 -17 -9 -17q-8 0 -8 17z" />
    <glyph glyph-name="IJ" unicode="&#x132;" horiz-adv-x="700" 
d="M320 -2q0 6 13 6l23 -1q21 -3 47 -3q63 0 96 25.5t44.5 73t11.5 124.5v404q0 31 6 46.5t22 20.5h-388q-31 0 -40.5 -15t-9.5 -55v-551q0 -31 -6 -46.5t-22 -20.5h27q37 0 57.5 2.5t27.5 2.5q21 0 21 -7t-21 -7q-7 0 -27.5 1.5t-57.5 1.5h-14q-39 0 -54.5 -2t-21.5 -2
q-19 0 -19 8t19 8q5 0 14.5 -2.5t23.5 -2.5q30 0 39 15t9 54v551q0 31 6 46.5t22 20.5h-27q-37 0 -57.5 -2.5t-27.5 -2.5q-21 0 -21 7t21 7q7 0 27.5 -1.5t57.5 -1.5h429q39 0 54.5 2t21.5 2q19 0 19 -8t-19 -8q-5 0 -14.5 2.5t-23.5 2.5q-30 0 -39 -15t-9 -54v-402
q0 -80 -13.5 -129.5t-54 -77.5t-118.5 -28q-54 0 -54 11z" />
    <glyph glyph-name="ij" unicode="&#x133;" horiz-adv-x="346" 
d="M73.5 708q-3.5 4 -3.5 9t3.5 9t9.5 4t9.5 -4t3.5 -9t-3.5 -9t-9.5 -4t-9.5 4zM76 38q5 65 5 137v150q0 73 -5 138l-1 25q0 17 8 17q9 0 9 -17l-1 -25q-5 -65 -5 -138v-150q0 -72 5 -137l1 -26q0 -17 -9 -17q-8 0 -8 17zM253.5 708q-3.5 4 -3.5 9t3.5 9t9.5 4t9.5 -4
t3.5 -9t-3.5 -9t-9.5 -4t-9.5 4zM61 -186q6 0 22 -2q33 -3 42 -3q56 0 85.5 21t40 63.5t10.5 117.5v314q0 73 -5 138l-1 25q0 17 8 17q9 0 9 -17l-1 -25q-5 -65 -5 -138v-315q0 -78 -12.5 -123t-49.5 -68.5t-109 -23.5q-44 0 -44 12q0 7 10 7z" />
    <glyph glyph-name="uni0136" unicode="&#x136;" horiz-adv-x="735" 
d="M35 4q0 8 19 8q5 0 14.5 -2.5t23.5 -2.5q30 0 39 15t9 54v551q0 31 6 46.5t22 20.5h-27q-37 0 -57.5 -2.5t-27.5 -2.5q-21 0 -21 7t21 7q7 0 27.5 -1.5t57.5 -1.5h14q39 0 54.5 2t21.5 2q19 0 19 -8t-19 -8q-5 0 -14.5 2.5t-23.5 2.5q-30 0 -39 -15t-9 -54v-551
q0 -25 -4 -40l440 550q54 67 78.5 94.5t33.5 27.5q7 0 7 -7q0 -4 -20 -21q-55 -47 -95 -97l-196 -244l237 -257q33 -36 64 -60q15 -12 15 -17q0 -7 -7 -7q-4 0 -9 5t-10 11t-8 9q-29 34 -48 55l-237 257l-251 -312q-5 -9 -18 -14h27q37 0 57.5 2.5t27.5 2.5q21 0 21 -7
t-21 -7q-7 0 -27.5 1.5t-57.5 1.5h-14q-39 0 -54.5 -2t-21.5 -2q-19 0 -19 8zM315 -203q0 4 6 4q36 0 57 9t21 43q0 38 -24 96v1q0 4 4 5.5t5 -2.5q21 -51 21 -87q0 -46 -25 -61t-53 -15q-12 0 -12 7z" />
    <glyph glyph-name="uni0137" unicode="&#x137;" horiz-adv-x="610" 
d="M87 5h27q41 0 106 5l35 2q17 0 17 -7q0 -8 -17 -8q-20 0 -35 1q-52 2 -106 2h-14q-32 0 -50 -2t-25 -2q-15 0 -15 8t15 8q5 0 17 -3t23 -3q27 0 36 16t9 54v409q0 56 -2 111.5t-2 74.5l-2 47q0 17 8 17q4 0 6.5 -5t2.5 -12l-2 -46q0 -19 -2 -75t-2 -112v-410
q0 -30 -5 -44l323 352q18 20 71 82q14 18 24.5 29t15.5 11q7 0 7 -7t-30 -34q-51 -48 -84 -84l-102 -111l136 -149q42 -47 87 -87q12 -11 19.5 -19t7.5 -12q0 -7 -7 -7q-5 0 -14.5 10t-22.5 27q-51 60 -74 85l-136 148l-231 -252q-8 -6 -13 -8zM238 -203q0 4 6 4q36 0 57 9
t21 43q0 38 -24 96v1q0 4 4 5.5t5 -2.5q21 -51 21 -87q0 -46 -25 -61t-53 -15q-12 0 -12 7z" />
    <glyph glyph-name="Lacute" unicode="&#x139;" horiz-adv-x="700" 
d="M348 -18q-78 9 -131 13.5t-129 4.5q-16 0 -27 -2t-18 -2q-18 0 -18 8t18 8q5 0 15.5 -2.5t21.5 -2.5q32 0 41 14.5t9 54.5v361q0 93 -5 203l-1 46q0 19 9 19t9 -19l-2 -46q-5 -110 -5 -203v-364q0 -31 -6.5 -46.5t-24.5 -21.5q68 0 126 -5t128 -14q10 -1 56 -6.5t84 -5.5
q67 0 98 13t50 37q10 13 17 6q2 -2 2 -5q0 -8 -7 -16q-16 -20 -51 -30t-100 -10q-61 0 -159 13zM28 776l190 130q5 4 10 4q8 0 8 -7q0 -6 -9 -12l-198 -117z" />
    <glyph glyph-name="lacute" unicode="&#x13a;" horiz-adv-x="275" 
d="M150.5 10.5q-15.5 16.5 -15.5 59.5v600q0 35 -14 47.5t-54 12.5q-15 0 -30.5 -1.5t-23.5 -1.5t-8 6t13 9t33 3q50 0 69.5 -17t19.5 -58v-609q0 -32 14 -42.5t44 -10.5t53 5l6 1q8 0 8 -6t-15 -10t-39 -4q-45 0 -60.5 16.5zM33 806l190 130q5 4 10 4q8 0 8 -7q0 -6 -9 -12
l-198 -117z" />
    <glyph glyph-name="uni013B" unicode="&#x13b;" horiz-adv-x="700" 
d="M348 -18q-78 9 -131 13.5t-129 4.5q-16 0 -27 -2t-18 -2q-18 0 -18 8t18 8q5 0 15.5 -2.5t21.5 -2.5q32 0 41 14.5t9 54.5v361q0 93 -5 203l-1 46q0 19 9 19t9 -19l-2 -46q-5 -110 -5 -203v-364q0 -31 -6.5 -46.5t-24.5 -21.5q68 0 126 -5t128 -14q10 -1 56 -6.5t84 -5.5
q67 0 98 13t50 37q10 13 17 6q2 -2 2 -5q0 -8 -7 -16q-16 -20 -51 -30t-100 -10q-61 0 -159 13zM252 -203q0 4 6 4q36 0 57 9t21 43q0 38 -24 96v1q0 4 4 5.5t5 -2.5q21 -51 21 -87q0 -46 -25 -61t-53 -15q-12 0 -12 7z" />
    <glyph glyph-name="uni013C" unicode="&#x13c;" horiz-adv-x="275" 
d="M150.5 10.5q-15.5 16.5 -15.5 59.5v600q0 35 -14 47.5t-54 12.5q-15 0 -30.5 -1.5t-23.5 -1.5t-8 6t13 9t33 3q50 0 69.5 -17t19.5 -58v-609q0 -32 14 -42.5t44 -10.5t53 5l6 1q8 0 8 -6t-15 -10t-39 -4q-45 0 -60.5 16.5zM131 -203q0 4 6 4q36 0 57 9t21 43q0 38 -24 96
v1q0 4 4 5.5t5 -2.5q21 -51 21 -87q0 -46 -25 -61t-53 -15q-12 0 -12 7z" />
    <glyph glyph-name="Lcaron" unicode="&#x13d;" horiz-adv-x="700" 
d="M348 -18q-78 9 -131 13.5t-129 4.5q-16 0 -27 -2t-18 -2q-18 0 -18 8t18 8q5 0 15.5 -2.5t21.5 -2.5q32 0 41 14.5t9 54.5v361q0 93 -5 203l-1 46q0 19 9 19t9 -19l-2 -46q-5 -110 -5 -203v-364q0 -31 -6.5 -46.5t-24.5 -21.5q68 0 126 -5t128 -14q10 -1 56 -6.5t84 -5.5
q67 0 98 13t50 37q10 13 17 6q2 -2 2 -5q0 -8 -7 -16q-16 -20 -51 -30t-100 -10q-61 0 -159 13zM240 430q0 86 -4 234q-1 13 -1 29q0 12 8 12t8 -12q0 -16 -1 -29q-4 -148 -4 -234q0 -4 -3 -4t-3 4z" />
    <glyph glyph-name="lcaron" unicode="&#x13e;" horiz-adv-x="275" 
d="M150.5 10.5q-15.5 16.5 -15.5 59.5v600q0 35 -14 47.5t-54 12.5q-15 0 -30.5 -1.5t-23.5 -1.5t-8 6t13 9t33 3q50 0 69.5 -17t19.5 -58v-609q0 -32 14 -42.5t44 -10.5t53 5l6 1q8 0 8 -6t-15 -10t-39 -4q-45 0 -60.5 16.5zM198 460q0 86 -4 234q-1 13 -1 29q0 12 8 12
t8 -12q0 -16 -1 -29q-4 -148 -4 -234q0 -4 -3 -4t-3 4z" />
    <glyph glyph-name="Lslash" unicode="&#x141;" horiz-adv-x="700" 
d="M375 276q-44 4 -130 4h-110v-207q0 -31 -6.5 -46.5t-24.5 -21.5q68 0 126 -5t128 -14q10 -1 56 -6.5t84 -5.5q67 0 98 13t50 37q10 13 17 6q2 -2 2 -5q0 -8 -7 -16q-16 -20 -51 -30t-100 -10q-61 0 -159 13q-78 9 -131 13.5t-129 4.5q-16 0 -27 -2t-18 -2q-18 0 -18 8
t18 8q5 0 15.5 -2.5t21.5 -2.5q32 0 41 14.5t9 54.5v204h-40q-19 0 -39 -2l-20 -1q-6 0 -6 6q0 2 1.5 3.5t4.5 1.5l20 -1q20 -2 39 -2h40v152q0 93 -5 203l-1 46q0 19 9 19t9 -19l-2 -46q-5 -110 -5 -203v-152h110q59 0 91 2t39 2q22 2 28 2q10 0 13.5 -1.5t3.5 -6.5
t-3.5 -6.5t-13.5 -1.5z" />
    <glyph glyph-name="lslash" unicode="&#x142;" horiz-adv-x="275" 
d="M227 276q-32 4 -87 4v-219q0 -32 14 -42.5t44 -10.5t53 5l6 1q8 0 8 -6t-15 -10t-39 -4q-45 0 -60.5 16.5t-15.5 59.5v210h-60q-19 0 -39 -2l-20 -1q-6 0 -6 6q0 2 1.5 3.5t4.5 1.5l20 -1q20 -2 39 -2h60v385q0 35 -14 47.5t-54 12.5q-15 0 -30.5 -1.5t-23.5 -1.5t-8 6
t13 9t33 3q50 0 69.5 -17t19.5 -58v-385q37 0 59 2t28 2q16 2 21 2q10 0 13.5 -1.5t3.5 -6.5t-3.5 -6.5t-13.5 -1.5z" />
    <glyph glyph-name="Nacute" unicode="&#x143;" horiz-adv-x="710" 
d="M65 14q0 5 0.5 18.5t0.5 40.5q5 168 5 272l-1 276q-1 38 -1 79q0 5 4 5t8 -6l553 -694v350q0 105 -5 272l-2 59q0 19 9 19t9 -19q0 -5 -0.5 -18.5t-0.5 -40.5q-5 -167 -5 -272l1 -276q1 -38 1 -79q0 -5 -4 -5q-3 0 -8 6l-553 694v-350q0 -104 5 -272l2 -59q0 -19 -9 -19
t-9 19zM250 776l190 130q5 4 10 4q8 0 8 -7q0 -6 -9 -12l-198 -117z" />
    <glyph glyph-name="nacute" unicode="&#x144;" horiz-adv-x="650" 
d="M563 12l2 44q0 17 2 64.5t2 94.5v38q0 123 -58 190.5t-170 67.5q-113 0 -174 -68t-61 -190v-38q0 -48 2 -97t2 -66l2 -40q0 -7 -2.5 -12t-6.5 -5q-8 0 -8 17l2 40q0 17 2 66t2 97v151q0 68 -12.5 96t-41.5 28q-12 0 -12 7q0 8 12 8q23 0 41 -28t18 -106v-53
q15 95 75.5 146.5t159.5 51.5q114 0 173.5 -68.5t59.5 -192.5v-40q0 -47 2 -94.5t2 -64.5l2 -44q0 -7 -2.5 -12t-6.5 -5q-8 0 -8 17zM233 576l190 130q5 4 10 4q8 0 8 -7q0 -6 -9 -12l-198 -117z" />
    <glyph glyph-name="uni0145" unicode="&#x145;" horiz-adv-x="710" 
d="M65 14q0 5 0.5 18.5t0.5 40.5q5 168 5 272l-1 276q-1 38 -1 79q0 5 4 5t8 -6l553 -694v350q0 105 -5 272l-2 59q0 19 9 19t9 -19q0 -5 -0.5 -18.5t-0.5 -40.5q-5 -167 -5 -272l1 -276q1 -38 1 -79q0 -5 -4 -5q-3 0 -8 6l-553 694v-350q0 -104 5 -272l2 -59q0 -19 -9 -19
t-9 19zM300 -203q0 4 6 4q36 0 57 9t21 43q0 38 -24 96v1q0 4 4 5.5t5 -2.5q21 -51 21 -87q0 -46 -25 -61t-53 -15q-12 0 -12 7z" />
    <glyph glyph-name="uni0146" unicode="&#x146;" horiz-adv-x="650" 
d="M563 12l2 44q0 17 2 64.5t2 94.5v38q0 123 -58 190.5t-170 67.5q-113 0 -174 -68t-61 -190v-38q0 -48 2 -97t2 -66l2 -40q0 -7 -2.5 -12t-6.5 -5q-8 0 -8 17l2 40q0 17 2 66t2 97v151q0 68 -12.5 96t-41.5 28q-12 0 -12 7q0 8 12 8q23 0 41 -28t18 -106v-53
q15 95 75.5 146.5t159.5 51.5q114 0 173.5 -68.5t59.5 -192.5v-40q0 -47 2 -94.5t2 -64.5l2 -44q0 -7 -2.5 -12t-6.5 -5q-8 0 -8 17zM283 -203q0 4 6 4q36 0 57 9t21 43q0 38 -24 96v1q0 4 4 5.5t5 -2.5q21 -51 21 -87q0 -46 -25 -61t-53 -15q-12 0 -12 7z" />
    <glyph glyph-name="Ncaron" unicode="&#x147;" horiz-adv-x="710" 
d="M65 14q0 5 0.5 18.5t0.5 40.5q5 168 5 272l-1 276q-1 38 -1 79q0 5 4 5t8 -6l553 -694v350q0 105 -5 272l-2 59q0 19 9 19t9 -19q0 -5 -0.5 -18.5t-0.5 -40.5q-5 -167 -5 -272l1 -276q1 -38 1 -79q0 -5 -4 -5q-3 0 -8 6l-553 694v-350q0 -104 5 -272l2 -59q0 -19 -9 -19
t-9 19zM264 838.5q-30 26.5 -45 40.5l-29 26l5 5l157 -146q76 67 119 113l24 24q4 4 7.5 6.5t7.5 2.5t7 -3t3 -7t-4 -8q-14 -13 -31 -24q-6 -5 -38 -30t-95 -80q-58 54 -88 80.5z" />
    <glyph glyph-name="ncaron" unicode="&#x148;" horiz-adv-x="650" 
d="M563 12l2 44q0 17 2 64.5t2 94.5v38q0 123 -58 190.5t-170 67.5q-113 0 -174 -68t-61 -190v-38q0 -48 2 -97t2 -66l2 -40q0 -7 -2.5 -12t-6.5 -5q-8 0 -8 17l2 40q0 17 2 66t2 97v151q0 68 -12.5 96t-41.5 28q-12 0 -12 7q0 8 12 8q23 0 41 -28t18 -106v-53
q15 95 75.5 146.5t159.5 51.5q114 0 173.5 -68.5t59.5 -192.5v-40q0 -47 2 -94.5t2 -64.5l2 -44q0 -7 -2.5 -12t-6.5 -5q-8 0 -8 17zM247 638.5q-30 26.5 -45 40.5l-29 26l5 5l157 -146q76 67 119 113l24 24q4 4 7.5 6.5t7.5 2.5t7 -3t3 -7t-4 -8q-14 -13 -31 -24
q-6 -5 -38 -30t-95 -80q-58 54 -88 80.5z" />
    <glyph glyph-name="Eng" unicode="&#x14a;" horiz-adv-x="710" 
d="M399 -189q0 6 13 6l23 -1q21 -3 47 -3q84 0 116 45t35 140l-557 697v-350q0 -104 5 -272l2 -59q0 -19 -9 -19t-9 19q0 5 0.5 18.5t0.5 40.5q5 168 5 272l-1 276q-1 38 -1 79q0 5 4 5t8 -6l553 -693v30v319q0 105 -5 272l-2 59q0 19 9 19t9 -19q0 -5 -0.5 -18.5
t-0.5 -40.5q-5 -167 -5 -272v-320q0 -80 -13.5 -129.5t-54 -77.5t-118.5 -28q-54 0 -54 11z" />
    <glyph glyph-name="eng" unicode="&#x14b;" horiz-adv-x="644" 
d="M359 -193q0 7 10 7q6 0 22 -2q33 -3 42 -3q56 0 85.5 21t40 63.5t10.5 117.5v242q0 123 -58 190.5t-170 67.5q-113 0 -174 -68t-61 -190v-38q0 -48 2 -97t2 -66l2 -40q0 -7 -2.5 -12t-6.5 -5q-8 0 -8 17l2 40q0 17 2 66t2 97v151q0 68 -12.5 96t-41.5 28q-12 0 -12 7
q0 8 12 8q23 0 41 -28t18 -106v-53q15 95 75.5 146.5t159.5 51.5q114 0 173.5 -68.5t59.5 -192.5v-245q0 -78 -12.5 -123t-49.5 -68.5t-109 -23.5q-44 0 -44 12z" />
    <glyph glyph-name="Omacron" unicode="&#x14c;" horiz-adv-x="860" 
d="M245 30q-86 46 -138 129.5t-52 191.5q0 107 52 190t138 129t185 46t185 -46t138 -129t52 -190q0 -108 -52 -191.5t-138 -129.5t-185 -46t-185 46zM111.5 161.5q51.5 -82.5 136.5 -127.5t182 -45t182 45t136.5 127.5t51.5 189.5q0 106 -51.5 188t-136.5 127t-182 45
t-182 -45t-136.5 -127t-51.5 -188q0 -107 51.5 -189.5zM272 835h315v-5h-315v5z" />
    <glyph glyph-name="omacron" unicode="&#x14d;" 
d="M189 16q-62 32 -100.5 92.5t-38.5 141.5t38.5 141.5t100.5 92.5t131 32t131 -32t100.5 -92.5t38.5 -141.5t-38.5 -141.5t-100.5 -92.5t-131 -32t-131 32zM92.5 111q37.5 -59 98.5 -90.5t129 -31.5t129 31.5t98.5 90.5t37.5 139t-37.5 139t-98.5 90.5t-129 31.5
t-129 -31.5t-98.5 -90.5t-37.5 -139t37.5 -139zM162 635h315v-5h-315v5z" />
    <glyph glyph-name="Ohungarumlaut" unicode="&#x150;" horiz-adv-x="860" 
d="M245 30q-86 46 -138 129.5t-52 191.5q0 107 52 190t138 129t185 46t185 -46t138 -129t52 -190q0 -108 -52 -191.5t-138 -129.5t-185 -46t-185 46zM111.5 161.5q51.5 -82.5 136.5 -127.5t182 -45t182 45t136.5 127.5t51.5 189.5q0 106 -51.5 188t-136.5 127t-182 45
t-182 -45t-136.5 -127t-51.5 -188q0 -107 51.5 -189.5zM310 776l190 130q5 4 10 4q8 0 8 -7q0 -6 -9 -12l-198 -117zM442 776l190 130q5 4 10 4q8 0 8 -7q0 -6 -9 -12l-198 -117z" />
    <glyph glyph-name="ohungarumlaut" unicode="&#x151;" 
d="M189 16q-62 32 -100.5 92.5t-38.5 141.5t38.5 141.5t100.5 92.5t131 32t131 -32t100.5 -92.5t38.5 -141.5t-38.5 -141.5t-100.5 -92.5t-131 -32t-131 32zM92.5 111q37.5 -59 98.5 -90.5t129 -31.5t129 31.5t98.5 90.5t37.5 139t-37.5 139t-98.5 90.5t-129 31.5
t-129 -31.5t-98.5 -90.5t-37.5 -139t37.5 -139zM200 576l190 130q5 4 10 4q8 0 8 -7q0 -6 -9 -12l-198 -117zM332 576l190 130q5 4 10 4q8 0 8 -7q0 -6 -9 -12l-198 -117z" />
    <glyph glyph-name="OE" unicode="&#x152;" horiz-adv-x="1300" 
d="M245 30q-86 46 -138 129.5t-52 191.5q0 107 52 190t138 129t185 46q86 0 163 -34.5t129 -97.5l-2 110q0 8 8 8q5 0 16 -1t26 -1h187q117 0 209 2h47q19 0 19 -9t-15 -9l-39 2q-101 9 -221 9h-229v-118q67 -84 76 -198h31q95 0 247 5l59 1q11 0 15 -2t4 -6t-4 -6t-15 -2
l-59 1q-122 4 -247 4h-78q-29 0 -29 -31v-270q0 -31 -6.5 -46.5t-24.5 -21.5q69 0 127 -5t128 -14q10 -1 56 -6.5t84 -5.5q71 0 103 13t51 37q10 13 17 6q2 -2 2 -5q0 -8 -7 -16q-16 -20 -52 -30t-105 -10q-40 0 -74 3.5t-89 10.5q-67 8 -115.5 12.5t-111.5 4.5q-7 0 -17 -2
t-15 -2q-14 0 -14 8q0 4 4 6t9 2q29 0 37 12t8 52v41q-52 -63 -129 -98t-164 -35q-99 0 -185 46zM111.5 161.5q51.5 -82.5 136.5 -127.5t182 -45q87 0 164.5 35.5t128.5 100.5v220q0 27 20 32q-8 1 -14 9t-6 23v56l-1 111q-51 64 -128.5 99.5t-163.5 35.5q-97 0 -182 -45
t-136.5 -127t-51.5 -188q0 -107 51.5 -189.5zM757 379h42q-7 107 -71 190v-159q0 -31 29 -31z" />
    <glyph glyph-name="oe" unicode="&#x153;" horiz-adv-x="1065" 
d="M189 16q-62 32 -100.5 93t-38.5 142t38.5 141t100.5 92t131 32q64 0 122 -27.5t96 -77.5q37 50 94 77.5t121 27.5q58 0 107.5 -22.5t78.5 -61t29 -86.5h-394q16 -45 16 -95q0 -88 -46 -153q38 -52 99 -80.5t129 -28.5q61 0 105 20.5t69.5 46.5t49.5 59q7 10 13.5 17.5
t10.5 7.5q5 0 5 -6q0 -13 -32 -50.5t-89 -68.5t-132 -31q-69 0 -130.5 29t-100.5 81q-38 -52 -97 -81t-124 -29q-69 0 -131 32zM92.5 111.5q37.5 -59.5 98.5 -91t129 -31.5q64 0 122.5 28.5t95.5 80.5q-48 67 -48 157q0 86 45 152q-37 50 -94 77t-121 27q-68 0 -129 -31.5
t-98.5 -90.5t-37.5 -138q0 -80 37.5 -139.5zM541 102q44 65 44 149q0 50 -16 95h-59q-15 -40 -15 -91q0 -88 46 -153zM962 351q0 42 -27.5 79t-75.5 59t-106 22q-80 0 -146.5 -42.5t-95.5 -117.5h451z" />
    <glyph glyph-name="Racute" unicode="&#x154;" horiz-adv-x="670" 
d="M65 14q0 20 1 39q5 120 5 262q0 108 -1 215t-2 164q0 8 8 8q5 0 16 -1t26 -1h203q119 0 189 -48t70 -147q0 -100 -70.5 -150t-188.5 -50h-1q14 -4 24.5 -11.5t23.5 -20.5l156 -167q38 -41 79 -77q10 -8 16 -14.5t6 -10.5q0 -9 -9 -9q-5 0 -12 7.5t-17 20.5q-32 42 -67 79
l-155 168q-20 21 -41 28t-59 7h-109q-21 0 -21 10q0 8 14 8q8 0 20 -3q32 -5 60.5 -7.5t91.5 -2.5q116 0 185 49.5t69 145.5t-68.5 143t-184.5 47h-246v-380q0 -118 6 -262l1 -39q0 -19 -9 -19t-9 19zM233 776l190 130q5 4 10 4q8 0 8 -7q0 -6 -9 -12l-198 -117z" />
    <glyph glyph-name="racute" unicode="&#x155;" horiz-adv-x="400" 
d="M88.5 462q-12.5 28 -41.5 28q-12 0 -12 7q0 8 12 8q23 0 41 -28t18 -106v-27q11 82 58 125.5t154 43.5q52 0 52 -11q0 -6 -11 -6q-9 0 -28 1.5t-41 1.5q-81 0 -121 -32.5t-51.5 -85.5t-11.5 -138v-28q0 -48 2 -97t2 -66l2 -40q0 -7 -2.5 -12t-6.5 -5q-8 0 -8 17l2 40
q0 17 2 66t2 97v151q0 68 -12.5 96zM110 576l190 130q5 4 10 4q8 0 8 -7q0 -6 -9 -12l-198 -117z" />
    <glyph glyph-name="uni0156" unicode="&#x156;" horiz-adv-x="670" 
d="M65 14q0 20 1 39q5 120 5 262q0 108 -1 215t-2 164q0 8 8 8q5 0 16 -1t26 -1h203q119 0 189 -48t70 -147q0 -100 -70.5 -150t-188.5 -50h-1q14 -4 24.5 -11.5t23.5 -20.5l156 -167q38 -41 79 -77q10 -8 16 -14.5t6 -10.5q0 -9 -9 -9q-5 0 -12 7.5t-17 20.5q-32 42 -67 79
l-155 168q-20 21 -41 28t-59 7h-109q-21 0 -21 10q0 8 14 8q8 0 20 -3q32 -5 60.5 -7.5t91.5 -2.5q116 0 185 49.5t69 145.5t-68.5 143t-184.5 47h-246v-380q0 -118 6 -262l1 -39q0 -19 -9 -19t-9 19zM283 -203q0 4 6 4q36 0 57 9t21 43q0 38 -24 96v1q0 4 4 5.5t5 -2.5
q21 -51 21 -87q0 -46 -25 -61t-53 -15q-12 0 -12 7z" />
    <glyph glyph-name="uni0157" unicode="&#x157;" horiz-adv-x="400" 
d="M88.5 462q-12.5 28 -41.5 28q-12 0 -12 7q0 8 12 8q23 0 41 -28t18 -106v-27q11 82 58 125.5t154 43.5q52 0 52 -11q0 -6 -11 -6q-9 0 -28 1.5t-41 1.5q-81 0 -121 -32.5t-51.5 -85.5t-11.5 -138v-28q0 -48 2 -97t2 -66l2 -40q0 -7 -2.5 -12t-6.5 -5q-8 0 -8 17l2 40
q0 17 2 66t2 97v151q0 68 -12.5 96zM48 -203q0 4 6 4q36 0 57 9t21 43q0 38 -24 96v1q0 4 4 5.5t5 -2.5q21 -51 21 -87q0 -46 -25 -61t-53 -15q-12 0 -12 7z" />
    <glyph glyph-name="Rcaron" unicode="&#x158;" horiz-adv-x="670" 
d="M65 14q0 20 1 39q5 120 5 262q0 108 -1 215t-2 164q0 8 8 8q5 0 16 -1t26 -1h203q119 0 189 -48t70 -147q0 -100 -70.5 -150t-188.5 -50h-1q14 -4 24.5 -11.5t23.5 -20.5l156 -167q38 -41 79 -77q10 -8 16 -14.5t6 -10.5q0 -9 -9 -9q-5 0 -12 7.5t-17 20.5q-32 42 -67 79
l-155 168q-20 21 -41 28t-59 7h-109q-21 0 -21 10q0 8 14 8q8 0 20 -3q32 -5 60.5 -7.5t91.5 -2.5q116 0 185 49.5t69 145.5t-68.5 143t-184.5 47h-246v-380q0 -118 6 -262l1 -39q0 -19 -9 -19t-9 19zM247 838.5q-30 26.5 -45 40.5l-29 26l5 5l157 -146q76 67 119 113l24 24
q4 4 7.5 6.5t7.5 2.5t7 -3t3 -7t-4 -8q-14 -13 -31 -24q-6 -5 -38 -30t-95 -80q-58 54 -88 80.5z" />
    <glyph glyph-name="rcaron" unicode="&#x159;" horiz-adv-x="400" 
d="M88.5 462q-12.5 28 -41.5 28q-12 0 -12 7q0 8 12 8q23 0 41 -28t18 -106v-27q11 82 58 125.5t154 43.5q52 0 52 -11q0 -6 -11 -6q-9 0 -28 1.5t-41 1.5q-81 0 -121 -32.5t-51.5 -85.5t-11.5 -138v-28q0 -48 2 -97t2 -66l2 -40q0 -7 -2.5 -12t-6.5 -5q-8 0 -8 17l2 40
q0 17 2 66t2 97v151q0 68 -12.5 96zM124 638.5q-30 26.5 -45 40.5l-29 26l5 5l157 -146q76 67 119 113l24 24q4 4 7.5 6.5t7.5 2.5t7 -3t3 -7t-4 -8q-14 -13 -31 -24q-6 -5 -38 -30t-95 -80q-58 54 -88 80.5z" />
    <glyph glyph-name="Sacute" unicode="&#x15a;" horiz-adv-x="710" 
d="M177.5 9.5q-67.5 25.5 -97.5 58t-30 51.5q0 9 6 9t16 -18q20 -31 45 -55.5t82.5 -45t150.5 -20.5q125 0 212.5 43t87.5 129q0 56 -39.5 94.5t-97 62.5t-153.5 53q-95 30 -149.5 52t-92 58t-37.5 88q0 147 310 147q86 0 148 -11t62 -25q0 -6 -10 -6q-11 0 -31 6
q-36 9 -81 15t-120 6q-120 0 -196.5 -27t-76.5 -104q0 -50 37 -85t91 -57t146 -51q97 -30 155.5 -54.5t99 -64t40.5 -97.5q0 -89 -88 -133t-218 -44q-104 0 -171.5 25.5zM248 776l190 130q5 4 10 4q8 0 8 -7q0 -6 -9 -12l-198 -117z" />
    <glyph glyph-name="sacute" unicode="&#x15b;" horiz-adv-x="555" 
d="M143.5 2q-56.5 18 -86.5 39q-7 6 -7 11q0 8 8 8q3 0 10 -5q3 -2 24.5 -20t70 -32t111.5 -14q100 0 163 32t63 99q0 47 -30.5 75t-74.5 42t-119 29q-69 14 -111 27t-70 37.5t-28 65.5q0 54 54.5 85.5t172.5 31.5q61 0 113 -6t52 -16q0 -5 -7 -5q-8 0 -26 3q-85 11 -164 11
h-27q-78 0 -120.5 -28t-42.5 -76q0 -39 27.5 -63t68 -36t109.5 -26q75 -15 120 -29.5t76.5 -44t31.5 -77.5q0 -69 -64 -102.5t-169 -33.5q-72 0 -128.5 18zM170 576l190 130q5 4 10 4q8 0 8 -7q0 -6 -9 -12l-198 -117z" />
    <glyph glyph-name="Scedilla" unicode="&#x15e;" horiz-adv-x="710" 
d="M274 -205.5q-27 5.5 -41.5 13t-14.5 13.5t8 6q9 0 23 -8q24 -11 45.5 -17t54.5 -6q51 0 72.5 16t21.5 39q0 28 -37.5 45t-130.5 17l70 71q-103 0 -169 26t-96 58t-30 51q0 9 6 9t16 -18q20 -31 45 -55.5t82.5 -45t150.5 -20.5q125 0 212.5 43t87.5 129q0 56 -39.5 94.5
t-97 62.5t-153.5 53q-95 30 -149.5 52t-92 58t-37.5 88q0 147 310 147q86 0 148 -11t62 -25q0 -6 -10 -6q-11 0 -31 6q-36 9 -81 15t-120 6q-120 0 -196.5 -27t-76.5 -104q0 -50 37 -85t91 -57t146 -51q97 -30 155.5 -54.5t99 -64t40.5 -97.5q0 -88 -88 -132.5t-216 -44.5
l-67 -67q164 0 164 -66q0 -25 -26 -43.5t-87 -18.5q-34 0 -61 5.5z" />
    <glyph glyph-name="scedilla" unicode="&#x15f;" horiz-adv-x="555" 
d="M143.5 2q-56.5 18 -86.5 39q-7 6 -7 11q0 8 8 8q3 0 10 -5q3 -2 24.5 -20t70 -32t111.5 -14q100 0 163 32t63 99q0 47 -30.5 75t-74.5 42t-119 29q-69 14 -111 27t-70 37.5t-28 65.5q0 54 54.5 85.5t172.5 31.5q61 0 113 -6t52 -16q0 -5 -7 -5q-8 0 -26 3q-85 11 -164 11
h-27q-78 0 -120.5 -28t-42.5 -76q0 -39 27.5 -63t68 -36t109.5 -26q75 -15 120 -29.5t76.5 -44t31.5 -77.5q0 -69 -64 -102.5t-169 -33.5q-72 0 -128.5 18zM199 -210.5q-27 5.5 -41.5 13t-14.5 13.5t8 6q9 0 23 -8q24 -11 45.5 -17t54.5 -6q51 0 72.5 16t21.5 39
q0 28 -37.5 45t-130.5 17l75 76h6l-72 -72q164 0 164 -66q0 -25 -26 -43.5t-87 -18.5q-34 0 -61 5.5z" />
    <glyph glyph-name="Scaron" unicode="&#x160;" horiz-adv-x="710" 
d="M177.5 9.5q-67.5 25.5 -97.5 58t-30 51.5q0 9 6 9t16 -18q20 -31 45 -55.5t82.5 -45t150.5 -20.5q125 0 212.5 43t87.5 129q0 56 -39.5 94.5t-97 62.5t-153.5 53q-95 30 -149.5 52t-92 58t-37.5 88q0 147 310 147q86 0 148 -11t62 -25q0 -6 -10 -6q-11 0 -31 6
q-36 9 -81 15t-120 6q-120 0 -196.5 -27t-76.5 -104q0 -50 37 -85t91 -57t146 -51q97 -30 155.5 -54.5t99 -64t40.5 -97.5q0 -89 -88 -133t-218 -44q-104 0 -171.5 25.5zM262 838.5q-30 26.5 -45 40.5l-29 26l5 5l157 -146q76 67 119 113l24 24q4 4 7.5 6.5t7.5 2.5t7 -3
t3 -7t-4 -8q-14 -13 -31 -24q-6 -5 -38 -30t-95 -80q-58 54 -88 80.5z" />
    <glyph glyph-name="scaron" unicode="&#x161;" horiz-adv-x="555" 
d="M143.5 2q-56.5 18 -86.5 39q-7 6 -7 11q0 8 8 8q3 0 10 -5q3 -2 24.5 -20t70 -32t111.5 -14q100 0 163 32t63 99q0 47 -30.5 75t-74.5 42t-119 29q-69 14 -111 27t-70 37.5t-28 65.5q0 54 54.5 85.5t172.5 31.5q61 0 113 -6t52 -16q0 -5 -7 -5q-8 0 -26 3q-85 11 -164 11
h-27q-78 0 -120.5 -28t-42.5 -76q0 -39 27.5 -63t68 -36t109.5 -26q75 -15 120 -29.5t76.5 -44t31.5 -77.5q0 -69 -64 -102.5t-169 -33.5q-72 0 -128.5 18zM184 638.5q-30 26.5 -45 40.5l-29 26l5 5l157 -146q76 67 119 113l24 24q4 4 7.5 6.5t7.5 2.5t7 -3t3 -7t-4 -8
q-14 -13 -31 -24q-6 -5 -38 -30t-95 -80q-58 54 -88 80.5z" />
    <glyph glyph-name="uni0162" unicode="&#x162;" horiz-adv-x="695" 
d="M177 4q0 8 19 8q6 0 27.5 -2.5t70.5 -2.5q32 0 41.5 15t9.5 54v619h-30q-92 0 -215 -8l-46 -2q-19 0 -19 8q0 9 19 9h46q92 -2 215 -2h65q123 0 215 2h46q19 0 19 -9q0 -8 -19 -8l-46 2q-123 8 -215 8h-30v-622q0 -31 -6 -46.5t-22 -20.5h82q37 0 57.5 2.5t27.5 2.5
q21 0 21 -7t-21 -7q-7 0 -27.5 1.5t-57.5 1.5h-53l-72 -72q164 0 164 -66q0 -25 -26 -43.5t-87 -18.5q-34 0 -61 5.5t-41.5 13t-14.5 13.5t8 6q9 0 23 -8q24 -11 45.5 -17t54.5 -6q51 0 72.5 16t21.5 39q0 28 -37.5 45t-130.5 17l75 76h-10q-83 0 -108.5 -2t-30.5 -2
q-19 0 -19 8z" />
    <glyph glyph-name="uni0163" unicode="&#x163;" horiz-adv-x="380" 
d="M217 -3l-69 -69q164 0 164 -66q0 -25 -26 -43.5t-87 -18.5q-34 0 -61 5.5t-41.5 13t-14.5 13.5t8 6q9 0 23 -8q24 -11 45.5 -17t54.5 -6q51 0 72.5 16t21.5 39q0 28 -37.5 45t-130.5 17l73 73q-37 6 -55 22.5t-22.5 41t-4.5 66.5v297q0 39 -9 54.5t-39 15.5
q-10 0 -22.5 -2.5t-18.5 -2.5q-16 0 -16 8t16 8q7 0 22 -2.5t41 -2.5h45q-11 5 -15 14.5t-4 25.5q0 39 -2 76.5t-2 50.5l-2 36q0 17 8 17q9 0 9 -17l-2 -36q0 -13 -2 -50.5t-2 -76.5q0 -21 7.5 -30.5t31.5 -9.5q78 0 105.5 2.5t33.5 2.5q18 0 18 -8t-18 -8q-6 0 -37 3
t-142 3h-29q18 -5 24 -21.5t6 -48.5v-297q0 -49 7 -74.5t28.5 -37t65.5 -11.5t64.5 8.5t25.5 8.5q9 0 9 -7q0 -9 -25 -14.5t-59 -5.5q-14 0 -34 2z" />
    <glyph glyph-name="Tcaron" unicode="&#x164;" horiz-adv-x="695" 
d="M177 4q0 8 19 8q6 0 27.5 -2.5t70.5 -2.5q32 0 41.5 15t9.5 54v619h-30q-92 0 -215 -8l-46 -2q-19 0 -19 8q0 9 19 9h46q92 -2 215 -2h65q123 0 215 2h46q19 0 19 -9q0 -8 -19 -8l-46 2q-123 8 -215 8h-30v-622q0 -31 -6 -46.5t-22 -20.5h82q37 0 57.5 2.5t27.5 2.5
q21 0 21 -7t-21 -7q-7 0 -27.5 1.5t-57.5 1.5h-69q-83 0 -108.5 -2t-30.5 -2q-19 0 -19 8zM257 838.5q-30 26.5 -45 40.5l-29 26l5 5l157 -146q76 67 119 113l24 24q4 4 7.5 6.5t7.5 2.5t7 -3t3 -7t-4 -8q-14 -13 -31 -24q-6 -5 -38 -30t-95 -80q-58 54 -88 80.5z" />
    <glyph glyph-name="tcaron" unicode="&#x165;" horiz-adv-x="380" 
d="M170 10.5q-26 15.5 -33 41.5t-7 75v297q0 39 -9 54.5t-39 15.5q-10 0 -22.5 -2.5t-18.5 -2.5q-16 0 -16 8t16 8q7 0 22 -2.5t41 -2.5h45q-11 5 -15 14.5t-4 25.5q0 39 -2 76.5t-2 50.5l-2 36q0 17 8 17q9 0 9 -17l-2 -36q0 -13 -2 -50.5t-2 -76.5q0 -21 7.5 -30.5
t31.5 -9.5q78 0 105.5 2.5t33.5 2.5q18 0 18 -8t-18 -8q-6 0 -37 3t-142 3h-29q18 -5 24 -21.5t6 -48.5v-297q0 -49 7 -74.5t28.5 -37t65.5 -11.5t64.5 8.5t25.5 8.5q9 0 9 -7q0 -9 -25 -14.5t-59 -5.5q-55 0 -81 15.5zM205 563q0 86 -4 234q-1 13 -1 29q0 12 8 12t8 -12
q0 -16 -1 -29q-4 -148 -4 -234q0 -4 -3 -4t-3 4z" />
    <glyph glyph-name="Tbar" unicode="&#x166;" horiz-adv-x="695" 
d="M63 591h282v104h-30q-92 0 -215 -8l-46 -2q-19 0 -19 8q0 9 19 9h46q92 -2 215 -2h65q123 0 215 2h46q19 0 19 -9q0 -8 -19 -8l-46 2q-123 8 -215 8h-30v-104h283v-5h-283v-513q0 -31 -6 -46.5t-22 -20.5h82q37 0 57.5 2.5t27.5 2.5q21 0 21 -7t-21 -7q-7 0 -27.5 1.5
t-57.5 1.5h-69q-83 0 -108.5 -2t-30.5 -2q-19 0 -19 8t19 8q6 0 27.5 -2.5t70.5 -2.5q32 0 41.5 15t9.5 54v510h-282v5z" />
    <glyph glyph-name="tbar" unicode="&#x167;" horiz-adv-x="380" 
d="M30 432h100q-1 34 -10 48t-38 14q-10 0 -22.5 -2.5t-18.5 -2.5q-16 0 -16 8t16 8q7 0 22 -2.5t41 -2.5h45q-11 5 -15 14.5t-4 25.5q0 39 -2 76.5t-2 50.5l-2 36q0 17 8 17q9 0 9 -17l-2 -36q0 -13 -2 -50.5t-2 -76.5q0 -21 7.5 -30.5t31.5 -9.5q78 0 105.5 2.5t33.5 2.5
q18 0 18 -8t-18 -8q-6 0 -37 3t-142 3h-29q17 -5 23 -19.5t7 -43.5h189v-5h-189v-2v-297q0 -49 7 -74.5t28.5 -37t65.5 -11.5t64.5 8.5t25.5 8.5q9 0 9 -7q0 -9 -25 -14.5t-59 -5.5q-55 0 -81 15.5t-33 41.5t-7 75v297v3h-100v5z" />
    <glyph glyph-name="Utilde" unicode="&#x168;" horiz-adv-x="770" 
d="M153.5 60q-82.5 76 -82.5 221v156q0 93 -5 203l-1 46q0 19 9 19t9 -19l-2 -46q-5 -110 -5 -203v-156q0 -143 81 -217.5t228 -74.5t228 74.5t81 217.5v156q0 93 -5 203l-2 46q0 19 9 19t9 -19l-1 -46q-5 -110 -5 -203v-156q0 -145 -82.5 -221t-231.5 -76t-231.5 76z
M428.5 804q-19.5 9 -45.5 27q-24 17 -41.5 25.5t-40.5 8.5q-32 0 -50 -12t-34 -31q-12 -15 -18 -15q-7 0 -7 7q0 10 13.5 23.5t37 23t53.5 9.5q25 0 44.5 -9t45.5 -27q24 -17 41.5 -25.5t40.5 -8.5q32 0 50 12t34 31q12 15 18 15q7 0 7 -7q0 -8 -13.5 -22t-37.5 -24t-53 -10
q-25 0 -44.5 9z" />
    <glyph glyph-name="utilde" unicode="&#x169;" 
d="M128 47q-57 62 -57 183v56q0 47 -2 94.5t-2 64.5l-2 44q0 7 2.5 12t6.5 5q8 0 8 -17l-2 -44q0 -17 -2 -64.5t-2 -94.5v-54q0 -242 221 -242q119 0 180.5 67.5t61.5 190.5v38q0 48 -2 97t-2 66l-2 40q0 7 2.5 12t6.5 5q8 0 8 -17l-2 -40q0 -17 -2 -66t-2 -97v-151
q0 -68 12.5 -96t41.5 -28q12 0 12 -7q0 -8 -12 -8q-23 0 -41 28t-18 106v53q-15 -95 -77 -146.5t-165 -51.5q-112 0 -169 62zM363.5 604q-19.5 9 -45.5 27q-24 17 -41.5 25.5t-40.5 8.5q-32 0 -50 -12t-34 -31q-12 -15 -18 -15q-7 0 -7 7q0 10 13.5 23.5t37 23t53.5 9.5
q25 0 44.5 -9t45.5 -27q24 -17 41.5 -25.5t40.5 -8.5q32 0 50 12t34 31q12 15 18 15q7 0 7 -7q0 -8 -13.5 -22t-37.5 -24t-53 -10q-25 0 -44.5 9z" />
    <glyph glyph-name="Umacron" unicode="&#x16a;" horiz-adv-x="770" 
d="M153.5 60q-82.5 76 -82.5 221v156q0 93 -5 203l-1 46q0 19 9 19t9 -19l-2 -46q-5 -110 -5 -203v-156q0 -143 81 -217.5t228 -74.5t228 74.5t81 217.5v156q0 93 -5 203l-2 46q0 19 9 19t9 -19l-1 -46q-5 -110 -5 -203v-156q0 -145 -82.5 -221t-231.5 -76t-231.5 76z
M227 835h315v-5h-315v5z" />
    <glyph glyph-name="umacron" unicode="&#x16b;" 
d="M128 47q-57 62 -57 183v56q0 47 -2 94.5t-2 64.5l-2 44q0 7 2.5 12t6.5 5q8 0 8 -17l-2 -44q0 -17 -2 -64.5t-2 -94.5v-54q0 -242 221 -242q119 0 180.5 67.5t61.5 190.5v38q0 48 -2 97t-2 66l-2 40q0 7 2.5 12t6.5 5q8 0 8 -17l-2 -40q0 -17 -2 -66t-2 -97v-151
q0 -68 12.5 -96t41.5 -28q12 0 12 -7q0 -8 -12 -8q-23 0 -41 28t-18 106v53q-15 -95 -77 -146.5t-165 -51.5q-112 0 -169 62zM162 635h315v-5h-315v5z" />
    <glyph glyph-name="ubreve" unicode="&#x16d;" 
d="M128 47q-57 62 -57 183v56q0 47 -2 94.5t-2 64.5l-2 44q0 7 2.5 12t6.5 5q8 0 8 -17l-2 -44q0 -17 -2 -64.5t-2 -94.5v-54q0 -242 221 -242q119 0 180.5 67.5t61.5 190.5v38q0 48 -2 97t-2 66l-2 40q0 7 2.5 12t6.5 5q8 0 8 -17l-2 -40q0 -17 -2 -66t-2 -97v-151
q0 -68 12.5 -96t41.5 -28q12 0 12 -7q0 -8 -12 -8q-23 0 -41 28t-18 106v53q-15 -95 -77 -146.5t-165 -51.5q-112 0 -169 62zM256.5 590.5q-28.5 14.5 -42.5 37.5t-14 48q0 13 3 20.5t6 7.5q4 0 4 -8q0 -51 27 -83t84 -32q53 0 82 26.5t29 66.5q0 18 -5 31h5q5 -13 5 -31
q0 -42 -30 -70t-86 -28q-39 0 -67.5 14.5z" />
    <glyph glyph-name="Uring" unicode="&#x16e;" horiz-adv-x="770" 
d="M153.5 60q-82.5 76 -82.5 221v156q0 93 -5 203l-1 46q0 19 9 19t9 -19l-2 -46q-5 -110 -5 -203v-156q0 -143 81 -217.5t228 -74.5t228 74.5t81 217.5v156q0 93 -5 203l-2 46q0 19 9 19t9 -19l-1 -46q-5 -110 -5 -203v-156q0 -145 -82.5 -221t-231.5 -76t-231.5 76z
M351 807q-14 14 -14 34t14 34t34 14t34 -14t14 -34t-14 -34t-34 -14t-34 14zM354 810.5q12 -12.5 31 -12.5t31 12.5t12 30.5t-12 30.5t-31 12.5t-31 -12.5t-12 -30.5t12 -30.5z" />
    <glyph glyph-name="uring" unicode="&#x16f;" 
d="M128 47q-57 62 -57 183v56q0 47 -2 94.5t-2 64.5l-2 44q0 7 2.5 12t6.5 5q8 0 8 -17l-2 -44q0 -17 -2 -64.5t-2 -94.5v-54q0 -242 221 -242q119 0 180.5 67.5t61.5 190.5v38q0 48 -2 97t-2 66l-2 40q0 7 2.5 12t6.5 5q8 0 8 -17l-2 -40q0 -17 -2 -66t-2 -97v-151
q0 -68 12.5 -96t41.5 -28q12 0 12 -7q0 -8 -12 -8q-23 0 -41 28t-18 106v53q-15 -95 -77 -146.5t-165 -51.5q-112 0 -169 62zM286 607q-14 14 -14 34t14 34t34 14t34 -14t14 -34t-14 -34t-34 -14t-34 14zM289 610.5q12 -12.5 31 -12.5t31 12.5t12 30.5t-12 30.5t-31 12.5
t-31 -12.5t-12 -30.5t12 -30.5z" />
    <glyph glyph-name="Uhungarumlaut" unicode="&#x170;" horiz-adv-x="770" 
d="M153.5 60q-82.5 76 -82.5 221v156q0 93 -5 203l-1 46q0 19 9 19t9 -19l-2 -46q-5 -110 -5 -203v-156q0 -143 81 -217.5t228 -74.5t228 74.5t81 217.5v156q0 93 -5 203l-2 46q0 19 9 19t9 -19l-1 -46q-5 -110 -5 -203v-156q0 -145 -82.5 -221t-231.5 -76t-231.5 76z
M265 776l190 130q5 4 10 4q8 0 8 -7q0 -6 -9 -12l-198 -117zM397 776l190 130q5 4 10 4q8 0 8 -7q0 -6 -9 -12l-198 -117z" />
    <glyph glyph-name="uhungarumlaut" unicode="&#x171;" 
d="M128 47q-57 62 -57 183v56q0 47 -2 94.5t-2 64.5l-2 44q0 7 2.5 12t6.5 5q8 0 8 -17l-2 -44q0 -17 -2 -64.5t-2 -94.5v-54q0 -242 221 -242q119 0 180.5 67.5t61.5 190.5v38q0 48 -2 97t-2 66l-2 40q0 7 2.5 12t6.5 5q8 0 8 -17l-2 -40q0 -17 -2 -66t-2 -97v-151
q0 -68 12.5 -96t41.5 -28q12 0 12 -7q0 -8 -12 -8q-23 0 -41 28t-18 106v53q-15 -95 -77 -146.5t-165 -51.5q-112 0 -169 62zM200 576l190 130q5 4 10 4q8 0 8 -7q0 -6 -9 -12l-198 -117zM332 576l190 130q5 4 10 4q8 0 8 -7q0 -6 -9 -12l-198 -117z" />
    <glyph glyph-name="Uogonek" unicode="&#x172;" horiz-adv-x="770" 
d="M370 -151.5q-30 20.5 -30 53.5q0 55 85 83q-13 -1 -40 -1q-149 0 -231.5 76t-82.5 221v156q0 93 -5 203l-1 46q0 19 9 19t9 -19l-2 -46q-5 -110 -5 -203v-156q0 -143 81 -217.5t228 -74.5t228 74.5t81 217.5v156q0 93 -5 203l-2 46q0 19 9 19t9 -19l-1 -46
q-5 -110 -5 -203v-156q0 -129 -66 -204t-187 -89q-101 -28 -101 -86q0 -30 25.5 -48.5t77.5 -18.5q29 0 49 6.5t37 16.5q3 1 10 4.5t12 3.5q9 0 9 -7q0 -6 -13 -13.5t-36.5 -12.5t-52.5 -5q-63 0 -93 20.5z" />
    <glyph glyph-name="uogonek" unicode="&#x173;" 
d="M128 47q-57 62 -57 183v56q0 47 -2 94.5t-2 64.5l-2 44q0 7 2.5 12t6.5 5q8 0 8 -17l-2 -44q0 -17 -2 -64.5t-2 -94.5v-54q0 -242 221 -242q119 0 180.5 67.5t61.5 190.5v38q0 48 -2 97t-2 66l-2 40q0 7 2.5 12t6.5 5q8 0 8 -17l-2 -40q0 -17 -2 -66t-2 -97v-151
q0 -68 12.5 -96t41.5 -28q12 0 12 -7q0 -8 -12 -8h-66q-75 0 -112 -25.5t-37 -62.5q0 -31 26.5 -54t78.5 -23q28 0 46.5 6t37.5 16q16 9 22 9q9 0 9 -7q0 -6 -13 -13.5t-36 -12.5t-51 -5q-63 0 -94 24.5t-31 59.5q0 39 38.5 66t115.5 27h47q-40 22 -40 129v53
q-15 -95 -77 -146.5t-165 -51.5q-112 0 -169 62z" />
    <glyph glyph-name="Wcircumflex" unicode="&#x174;" horiz-adv-x="1185" 
d="M47 684q-2 4 -2 8q0 9 10 9q8 0 13 -12q1 -1 26 -54q69 -150 149 -307l168 -333l185 305q7 12 12.5 21t9.5 16q-156 307 -180 347q-4 8 -4 11q0 6 6 9q7 4 37 8t71 4q85 0 146 -24t61 -88q0 -28 -25 -80t-106 -188l4 -8l168 -333q165 272 228 378t86.5 155t23.5 76
q0 55 -51.5 75t-133.5 20q-53 0 -104 -7q-24 -3 -26 -1t-2 4q0 4 6 7q8 5 37 9.5t75 4.5q84 0 144.5 -24t60.5 -88q0 -28 -23.5 -77t-86 -154t-234.5 -387h-1l-172 340l-3 5q-67 -113 -209 -345h-1l-172 340q-107 212 -191 358zM474 632q18 -35 41 -81l106 -209
q79 132 103.5 183t24.5 79q0 55 -52 75t-138 20q-73 0 -114 -9q11 -23 29 -58zM431 766q-3 3 -3 7t4 8q14 13 31 24q6 5 38 30t95 80q58 -54 88 -80.5t45 -40.5l29 -26l-5 -5l-157 146q-76 -67 -119 -113l-24 -24q-4 -4 -7.5 -6.5t-7.5 -2.5t-7 3z" />
    <glyph glyph-name="wcircumflex" unicode="&#x175;" horiz-adv-x="916" 
d="M90 396q-30 53 -36 63l-16 28q-3 5 -3 10q0 8 8 8q6 0 11 -12q0 -1 17 -36q43 -94 85 -176l146 -286q126 183 173 257l-14 28q-44 86 -76.5 142.5t-35.5 62.5q-2 4 -2 7q0 5 6 8q5 3 36.5 7t62.5 4q53 0 85.5 -16.5t32.5 -59.5q0 -24 -22 -68.5t-67 -115.5l132 -256
q146 212 204.5 307.5t58.5 133.5q0 37 -34.5 49t-95.5 12q-25 0 -47.5 -2.5t-31.5 -2.5q-8 0 -10 3q-3 5 3 8q4 3 24.5 5.5t47.5 2.5q149 0 149 -76q0 -40 -59 -136t-209 -313h-1l-134 261q-51 -79 -133 -197q-6 -10 -43 -64h-1l-149 293q-32 64 -62 117zM465 282l13 -25
q45 71 66 113.5t21 65.5q0 36 -27.5 48.5t-81.5 12.5q-38 0 -64 -4t-36 -7q80 -148 109 -204zM296 566q-3 3 -3 7t4 8q14 13 31 24q6 5 38 30t95 80q58 -54 88 -80.5t45 -40.5l29 -26l-5 -5l-157 146q-76 -67 -119 -113l-24 -24q-4 -4 -7.5 -6.5t-7.5 -2.5t-7 3z" />
    <glyph glyph-name="Ycircumflex" unicode="&#x176;" horiz-adv-x="790" 
d="M378.5 -192q-60.5 24 -60.5 88q0 40 69 149l-146 281q-101 197 -194 358q-2 4 -2 8q0 9 10 9q8 0 13 -12q59 -130 178 -361l144 -278q33 53 82 121.5t60 84.5q103 145 155 227.5t52 120.5q0 55 -51.5 75t-133.5 20q-53 0 -104 -7q-24 -3 -26 -1t-2 4q0 4 6 7q8 5 37 9.5
t75 4.5q84 0 144.5 -24t60.5 -88q0 -38 -52.5 -121.5t-157.5 -231.5q-106 -149 -158.5 -232.5t-52.5 -122.5q0 -55 50.5 -74.5t130.5 -19.5q38 0 104 6q27 5 31 1q2 -2 1 -5t-4 -5q-11 -5 -40 -10t-74 -5q-84 0 -144.5 24zM243 766q-3 3 -3 7t4 8q14 13 31 24q6 5 38 30
t95 80q58 -54 88 -80.5t45 -40.5l29 -26l-5 -5l-157 146q-76 -67 -119 -113l-24 -24q-4 -4 -7.5 -6.5t-7.5 -2.5t-7 3z" />
    <glyph glyph-name="ycircumflex" unicode="&#x177;" horiz-adv-x="605" 
d="M266 -190q-45 19 -45 67q0 22 15.5 50t45.5 70l-137 283q-35 73 -80 156q-24 43 -28 53q-2 3 -2 9q0 7 8 7q6 0 11 -12l13 -31q43 -100 82 -180l136 -281l40 55q135 184 187.5 264t52.5 116q0 37 -34.5 49t-95.5 12q-25 0 -47.5 -2.5t-31.5 -2.5q-8 0 -10 3q-3 5 3 8
q4 3 24.5 5.5t47.5 2.5q64 0 106.5 -15.5t42.5 -60.5q0 -36 -53.5 -117.5t-184.5 -258.5l-43 -59q-31 -42 -47 -71.5t-16 -52.5q0 -71 130 -71q35 0 61 5t28 3t1 -5t-4 -4q-6 -4 -26 -8.5t-49 -4.5q-56 0 -101 19zM141 566q-3 3 -3 7t4 8q14 13 31 24q6 5 38 30t95 80
q58 -54 88 -80.5t45 -40.5l29 -26l-5 -5l-157 146q-76 -67 -119 -113l-24 -24q-4 -4 -7.5 -6.5t-7.5 -2.5t-7 3z" />
    <glyph glyph-name="Ydieresis" unicode="&#x178;" horiz-adv-x="790" 
d="M378.5 -192q-60.5 24 -60.5 88q0 40 69 149l-146 281q-101 197 -194 358q-2 4 -2 8q0 9 10 9q8 0 13 -12q59 -130 178 -361l144 -278q33 53 82 121.5t60 84.5q103 145 155 227.5t52 120.5q0 55 -51.5 75t-133.5 20q-53 0 -104 -7q-24 -3 -26 -1t-2 4q0 4 6 7q8 5 37 9.5
t75 4.5q84 0 144.5 -24t60.5 -88q0 -38 -52.5 -121.5t-157.5 -231.5q-106 -149 -158.5 -232.5t-52.5 -122.5q0 -55 50.5 -74.5t130.5 -19.5q38 0 104 6q27 5 31 1q2 -2 1 -5t-4 -5q-11 -5 -40 -10t-74 -5q-84 0 -144.5 24zM317 824q-7 7 -7 17t7 17t17 7t17 -7t7 -17t-7 -17
t-17 -7t-17 7zM459 824q-7 7 -7 17t7 17t17 7t17 -7t7 -17t-7 -17t-17 -7t-17 7z" />
    <glyph glyph-name="Zacute" unicode="&#x179;" horiz-adv-x="745" 
d="M109.5 30.5q23.5 18.5 42.5 44.5l409 548q16 21 36.5 40t38.5 26q-45 6 -98 6h-206q-118 0 -185 -5t-76 -6h-4q-15 0 -15 9t19 9h46q92 -2 215 -2h206q59 0 84 3t34 3q11 0 16.5 -2t5.5 -8q0 -9 -25 -9q-19 0 -42 -19t-43 -45l-410 -548q-16 -22 -36 -40t-39 -25
q38 -5 97 -5h416q50 0 73 15.5t23 44.5q0 15 -6 34.5t-19 50.5q-3 8 -3 13q0 9 8 9t14 -16q10 -25 14.5 -42.5t4.5 -34.5q0 -36 -23.5 -57.5t-77.5 -21.5h-424q-58 0 -82.5 -2.5t-32.5 -2.5q-12 0 -18.5 2t-6.5 7q0 8 25 8q21 0 44.5 18.5zM265 776l190 130q5 4 10 4
q8 0 8 -7q0 -6 -9 -12l-198 -117z" />
    <glyph glyph-name="zacute" unicode="&#x17a;" horiz-adv-x="580" 
d="M91.5 23q17.5 13 32.5 31l311 392q12 14 27 26.5t29 18.5q-24 4 -72 4h-263q-42 0 -61 -2.5t-26 -2.5q-19 0 -19 7t19 7q7 0 26 -2t61 -2h263q45 0 63 2t24 2q19 0 19 -7t-19 -7q-15 0 -32.5 -13t-32.5 -31l-311 -392q-28 -34 -53 -46q36 -3 69 -3h323q31 0 44 9t13 27
q0 19 -17 65q-2 6 -2 10q0 6 4 7h2q8 0 12 -12q15 -32 15 -57t-16.5 -39.5t-53.5 -14.5h-324q-45 0 -63 -2t-24 -2q-19 0 -19 7t19 7q15 0 32.5 13zM185 576l190 130q5 4 10 4q8 0 8 -7q0 -6 -9 -12l-198 -117z" />
    <glyph glyph-name="Zdotaccent" unicode="&#x17b;" horiz-adv-x="745" 
d="M109.5 30.5q23.5 18.5 42.5 44.5l409 548q16 21 36.5 40t38.5 26q-45 6 -98 6h-206q-118 0 -185 -5t-76 -6h-4q-15 0 -15 9t19 9h46q92 -2 215 -2h206q59 0 84 3t34 3q11 0 16.5 -2t5.5 -8q0 -9 -25 -9q-19 0 -42 -19t-43 -45l-410 -548q-16 -22 -36 -40t-39 -25
q38 -5 97 -5h416q50 0 73 15.5t23 44.5q0 15 -6 34.5t-19 50.5q-3 8 -3 13q0 9 8 9t14 -16q10 -25 14.5 -42.5t4.5 -34.5q0 -36 -23.5 -57.5t-77.5 -21.5h-424q-58 0 -82.5 -2.5t-32.5 -2.5q-12 0 -18.5 2t-6.5 7q0 8 25 8q21 0 44.5 18.5zM353 824q-7 7 -7 17t7 17t17 7
t17 -7t7 -17t-7 -17t-17 -7t-17 7z" />
    <glyph glyph-name="zdotaccent" unicode="&#x17c;" horiz-adv-x="580" 
d="M91.5 23q17.5 13 32.5 31l311 392q12 14 27 26.5t29 18.5q-24 4 -72 4h-263q-42 0 -61 -2.5t-26 -2.5q-19 0 -19 7t19 7q7 0 26 -2t61 -2h263q45 0 63 2t24 2q19 0 19 -7t-19 -7q-15 0 -32.5 -13t-32.5 -31l-311 -392q-28 -34 -53 -46q36 -3 69 -3h323q31 0 44 9t13 27
q0 19 -17 65q-2 6 -2 10q0 6 4 7h2q8 0 12 -12q15 -32 15 -57t-16.5 -39.5t-53.5 -14.5h-324q-45 0 -63 -2t-24 -2q-19 0 -19 7t19 7q15 0 32.5 13zM273 624q-7 7 -7 17t7 17t17 7t17 -7t7 -17t-7 -17t-17 -7t-17 7z" />
    <glyph glyph-name="Zcaron" unicode="&#x17d;" horiz-adv-x="745" 
d="M109.5 30.5q23.5 18.5 42.5 44.5l409 548q16 21 36.5 40t38.5 26q-45 6 -98 6h-206q-118 0 -185 -5t-76 -6h-4q-15 0 -15 9t19 9h46q92 -2 215 -2h206q59 0 84 3t34 3q11 0 16.5 -2t5.5 -8q0 -9 -25 -9q-19 0 -42 -19t-43 -45l-410 -548q-16 -22 -36 -40t-39 -25
q38 -5 97 -5h416q50 0 73 15.5t23 44.5q0 15 -6 34.5t-19 50.5q-3 8 -3 13q0 9 8 9t14 -16q10 -25 14.5 -42.5t4.5 -34.5q0 -36 -23.5 -57.5t-77.5 -21.5h-424q-58 0 -82.5 -2.5t-32.5 -2.5q-12 0 -18.5 2t-6.5 7q0 8 25 8q21 0 44.5 18.5zM279 838.5q-30 26.5 -45 40.5
l-29 26l5 5l157 -146q76 67 119 113l24 24q4 4 7.5 6.5t7.5 2.5t7 -3t3 -7t-4 -8q-14 -13 -31 -24q-6 -5 -38 -30t-95 -80q-58 54 -88 80.5z" />
    <glyph glyph-name="zcaron" unicode="&#x17e;" horiz-adv-x="580" 
d="M91.5 23q17.5 13 32.5 31l311 392q12 14 27 26.5t29 18.5q-24 4 -72 4h-263q-42 0 -61 -2.5t-26 -2.5q-19 0 -19 7t19 7q7 0 26 -2t61 -2h263q45 0 63 2t24 2q19 0 19 -7t-19 -7q-15 0 -32.5 -13t-32.5 -31l-311 -392q-28 -34 -53 -46q36 -3 69 -3h323q31 0 44 9t13 27
q0 19 -17 65q-2 6 -2 10q0 6 4 7h2q8 0 12 -12q15 -32 15 -57t-16.5 -39.5t-53.5 -14.5h-324q-45 0 -63 -2t-24 -2q-19 0 -19 7t19 7q15 0 32.5 13zM199 638.5q-30 26.5 -45 40.5l-29 26l5 5l157 -146q76 67 119 113l24 24q4 4 7.5 6.5t7.5 2.5t7 -3t3 -7t-4 -8
q-14 -13 -31 -24q-6 -5 -38 -30t-95 -80q-58 54 -88 80.5z" />
    <glyph glyph-name="longs" unicode="&#x17f;" horiz-adv-x="332" 
d="M72.5 0q-2.5 5 -2.5 12l2 48q5 115 5 195v287q0 77 10.5 118t46.5 62.5t110 21.5q53 0 53 -10q0 -6 -11 -6q-12 0 -20 1l-51 1q-59 0 -87.5 -19.5t-37 -59t-8.5 -113.5v-283q0 -57 2 -115.5t2 -79.5l2 -48q0 -7 -2.5 -12t-6.5 -5t-6.5 5z" />
    <glyph glyph-name="florin" unicode="&#x192;" horiz-adv-x="495" 
d="M359 497q-60 2 -114 2v-507q0 -76 -10.5 -115t-46 -58t-110.5 -19q-53 0 -53 10q0 6 11 6q12 0 20 -1l51 -1q60 0 88 17.5t36.5 54t8.5 110.5v503q-37 1 -130 1q-4 0 -4 2.5t4 2.5q93 0 130 1v36q0 77 10.5 118t46.5 62.5t110 21.5q53 0 53 -10q0 -6 -11 -6q-12 0 -20 1
l-51 1q-59 0 -87.5 -19.5t-37 -59t-8.5 -113.5v-32l121 3l71 1q14 0 18.5 -1.5t4.5 -5.5t-4.5 -5.5t-18.5 -1.5z" />
    <glyph glyph-name="Ohorn" unicode="&#x1a0;" horiz-adv-x="860" 
d="M245 30q-86 46 -138 129.5t-52 191.5q0 107 52 190t138 129t185 46q73 0 142 -26h126q41 0 61 13t25 31t5 44q0 30 -6 50l-1 5q0 7 7 7t10 -14t3 -32q0 -53 -22 -81t-82 -28h-114q99 -42 160 -129.5t61 -204.5q0 -108 -52 -191.5t-138 -129.5t-185 -46t-185 46z
M111.5 161.5q51.5 -82.5 136.5 -127.5t182 -45t182 45t136.5 127.5t51.5 189.5q0 106 -51.5 188t-136.5 127t-182 45t-182 -45t-136.5 -127t-51.5 -188q0 -107 51.5 -189.5z" />
    <glyph glyph-name="ohorn" unicode="&#x1a1;" 
d="M189 16q-62 32 -100.5 92.5t-38.5 141.5t38.5 141.5t100.5 92.5t131 32q59 0 117 -25h43q41 0 61 13t25 31t5 44q0 30 -6 50l-1 5q0 7 7 7t10 -14t3 -32q0 -53 -22 -81t-82 -28h-33q65 -32 104 -93t39 -143q0 -81 -38.5 -141.5t-100.5 -92.5t-131 -32t-131 32zM92.5 111
q37.5 -59 98.5 -90.5t129 -31.5t129 31.5t98.5 90.5t37.5 139t-37.5 139t-98.5 90.5t-129 31.5t-129 -31.5t-98.5 -90.5t-37.5 -139t37.5 -139z" />
    <glyph glyph-name="Uhorn" unicode="&#x1af;" horiz-adv-x="770" 
d="M153.5 60q-82.5 76 -82.5 221v156q0 93 -5 203l-1 46q0 19 9 19t9 -19l-2 -46q-5 -110 -5 -203v-156q0 -143 81 -217.5t228 -74.5t228 74.5t81 217.5v156q0 93 -5 203l-2 46q0 19 9 19h1q7 0 24 -1.5t34 -1.5q30 0 39 19.5t9 57.5q0 29 -6 49l-1 5q0 7 7 7t10 -14t3 -32
q0 -50 -17.5 -75.5t-58.5 -25.5l-35 1v-8l-1 -46q-5 -110 -5 -203v-156q0 -145 -82.5 -221t-231.5 -76t-231.5 76z" />
    <glyph glyph-name="uhorn" unicode="&#x1b0;" 
d="M128 47q-57 62 -57 183v56q0 47 -2 94.5t-2 64.5l-2 44q0 7 2.5 12t6.5 5q8 0 8 -17l-2 -44q0 -17 -2 -64.5t-2 -94.5v-54q0 -242 221 -242q119 0 180.5 67.5t61.5 190.5v38q0 48 -2 97t-2 66l-2 40q0 7 2.5 12t6.5 5q51 -3 59 -3q30 0 39 19.5t9 57.5q0 29 -6 49l-1 5
q0 7 7 7t10 -14t3 -32q0 -50 -17.5 -75.5t-58.5 -25.5l-36 1v-6l-2 -40q0 -17 -2 -66t-2 -97v-151q0 -68 12.5 -96t41.5 -28q12 0 12 -7q0 -8 -12 -8q-23 0 -41 28t-18 106v53q-15 -95 -77 -146.5t-165 -51.5q-112 0 -169 62z" />
    <glyph glyph-name="uni01CD" unicode="&#x1cd;" horiz-adv-x="820" 
d="M108.5 10q-25.5 18 -42 49t-16.5 66q0 36 19 66.5t57.5 49t92.5 18.5q78 0 202.5 -53t345.5 -204q-41 84 -198 373l-180 332l-92 -160q-73 -125 -114 -212q-4 -9 -7.5 -13t-8.5 -4q-9 0 -9 9q0 5 2 8l26 42q57 87 106 172l96 167h2l184 -340q78 -144 180 -321
q20 -34 22 -38q4 -8 4 -13q0 -9 -10 -9q-5 0 -12 5q-216 149 -338.5 201.5t-200.5 52.5q-79 0 -121.5 -37t-42.5 -92q0 -45 24.5 -69.5t61.5 -39.5q4 -2 12.5 -5.5t12 -6t3.5 -5.5q0 -7 -12 -7q-23 0 -48.5 18zM299 838.5q-30 26.5 -45 40.5l-29 26l5 5l157 -146
q76 67 119 113l24 24q4 4 7.5 6.5t7.5 2.5t7 -3t3 -7t-4 -8q-14 -13 -31 -24q-6 -5 -38 -30t-95 -80q-58 54 -88 80.5z" />
    <glyph glyph-name="uni01CE" unicode="&#x1ce;" horiz-adv-x="665" 
d="M99 13.5q-49 29.5 -49 93.5q0 48 34 79t122 46l117 20q72 13 112 30t56.5 42.5t16.5 65.5q0 65 -39 87.5t-110 22.5h-48q-88 0 -166 -10l-25 -2q-7 0 -7 5q0 10 51 15t121 5q86 0 134.5 -10.5t71 -37t22.5 -75.5q0 -43 -18 -69.5t-58.5 -43.5t-114.5 -30l-116 -20
q-86 -15 -118.5 -44t-32.5 -76q0 -118 180 -118q71 0 133.5 18.5t100.5 53t38 79.5q0 18 8 18q9 0 6 -15q-6 -30 -6 -57q0 -79 63 -79q18 0 48 6l6 1q8 0 8 -6t-12.5 -10t-29.5 -4q-37 0 -56.5 14t-26 37t-9.5 61q-21 -57 -98.5 -89.5t-172.5 -32.5q-87 0 -136 29.5z
M233 638.5q-30 26.5 -45 40.5l-29 26l5 5l157 -146q76 67 119 113l24 24q4 4 7.5 6.5t7.5 2.5t7 -3t3 -7t-4 -8q-14 -13 -31 -24q-6 -5 -38 -30t-95 -80q-58 54 -88 80.5z" />
    <glyph glyph-name="uni01E4" unicode="&#x1e4;" horiz-adv-x="835" 
d="M416 119q-4 2 -4 6t4 6t15 2l60 -1q93 -4 211 -5q27 40 41 85.5t14 86.5q0 16 6 16q4 0 5.5 -5.5t1.5 -20.5q0 -17 -1 -29l-1 -100v-33h12q11 0 33 2l26 1q3 0 4.5 -1.5t1.5 -3.5q0 -6 -6 -6l-26 1q-22 2 -33 2h-11q2 -51 4 -73q2 -26 2 -35q0 -19 -9 -19t-9 19q0 8 2 40
l4 68h-26h-32q-43 -63 -114 -100.5t-163 -37.5q-100 0 -185 43.5t-136.5 127t-51.5 196.5q0 112 53.5 195t141.5 126.5t189 43.5q65 0 121.5 -18t97.5 -46t61 -58q1 -1 1 -3q0 -4 -4 -5.5t-7 3.5q-35 48 -106.5 85t-164.5 37q-99 0 -185.5 -43t-139.5 -124.5t-53 -192.5
q0 -112 50.5 -194t134.5 -125t182 -43q94 0 161.5 36.5t110.5 96.5q-153 -2 -206 -4l-62 -1q-11 0 -15 2zM737 127h26v33q0 52 -4 98q-9 -69 -50 -131h28z" />
    <glyph glyph-name="uni01E5" unicode="&#x1e5;" horiz-adv-x="600" 
d="M270 -71q-4 2 -4 6t4 6t15 2l38 -1q85 -5 179 -5h22q22 41 22 81q0 85 -76 85q-41 0 -82 -20.5t-99 -61.5q-59 -40 -96.5 -59t-76.5 -19q-36 0 -58.5 21t-22.5 54q0 40 35 76t84.5 60t92.5 33q-87 8 -132 54.5t-45 110.5q0 70 53 117t156 47q73 0 121.5 -21.5t63.5 -61.5
q0 32 21.5 52t62.5 20q5 0 8.5 -2t3.5 -5q0 -8 -10 -8q-39 0 -60 -12t-21 -43q0 -10 3.5 -19t3.5 -11q0 -8 -7 -8q-8 0 -8 12q0 46 -49 74t-133 28q-101 0 -152.5 -45t-51.5 -114t51.5 -115t151.5 -46q60 0 103.5 17.5t66 46.5t22.5 63q0 10 -5 23v1q0 3 3.5 3.5t4.5 -3.5
q2 -10 2 -24q0 -35 -23.5 -65.5t-68 -48.5t-105.5 -18q-37 0 -94.5 -23.5t-100.5 -62t-43 -82.5q0 -31 21.5 -50.5t55.5 -19.5q37 0 73.5 19t93.5 58q60 41 102 62t86 21q79 0 79 -90q0 -40 -22 -81h16q11 0 22.5 1.5t21.5 1.5q6 0 6 -6q0 -2 -1.5 -3.5t-4.5 -1.5
q-10 0 -21.5 1.5t-22.5 1.5h-18q-35 -60 -107.5 -98t-165.5 -38q-75 0 -138 30q-19 8 -19 19q0 4 3.5 5.5t8.5 -1.5q41 -24 76 -33.5t74 -9.5q91 0 160 35t102 91h-19q-111 0 -179 -4l-38 -1q-11 0 -15 2z" />
    <glyph glyph-name="Gcaron" unicode="&#x1e6;" horiz-adv-x="835" 
d="M243 27.5q-85 43.5 -136.5 127t-51.5 196.5q0 112 53.5 195t141.5 126.5t189 43.5q65 0 121.5 -18t97.5 -46t61 -58q1 -1 1 -3q0 -4 -4 -5.5t-7 3.5q-35 48 -106.5 85t-164.5 37q-99 0 -185.5 -43t-139.5 -124.5t-53 -192.5q0 -112 50.5 -194t134.5 -125t182 -43
q110 0 184.5 49.5t110 121t35.5 139.5q0 16 6 16q4 0 5.5 -5.5t1.5 -20.5q0 -17 -1 -29l-1 -100q0 -49 5 -109q2 -30 2 -37q0 -19 -9 -19t-9 19q0 7 2 37q4 48 4 109q0 52 -4 98q-10 -70 -51.5 -133t-113 -102t-166.5 -39q-100 0 -185 43.5zM339 838.5q-30 26.5 -45 40.5
l-29 26l5 5l157 -146q76 67 119 113l24 24q4 4 7.5 6.5t7.5 2.5t7 -3t3 -7t-4 -8q-14 -13 -31 -24q-6 -5 -38 -30t-95 -80q-58 54 -88 80.5z" />
    <glyph glyph-name="gcaron" unicode="&#x1e7;" horiz-adv-x="600" 
d="M116 -174q-19 8 -19 19q0 4 3.5 5.5t8.5 -1.5q41 -24 76 -33.5t74 -9.5q84 0 149.5 30.5t101.5 79.5t36 102q0 85 -76 85q-41 0 -82 -20.5t-99 -61.5q-59 -40 -96.5 -59t-76.5 -19q-36 0 -58.5 21t-22.5 54q0 40 35 76t84.5 60t92.5 33q-87 8 -132 54.5t-45 110.5
q0 70 53 117t156 47q73 0 121.5 -21.5t63.5 -61.5q0 32 21.5 52t62.5 20q5 0 8.5 -2t3.5 -5q0 -8 -10 -8q-39 0 -60 -12t-21 -43q0 -10 3.5 -19t3.5 -11q0 -8 -7 -8q-8 0 -8 12q0 46 -49 74t-133 28q-101 0 -152.5 -45t-51.5 -114t51.5 -115t151.5 -46q60 0 103.5 17.5
t66 46.5t22.5 63q0 10 -5 23v1q0 3 3.5 3.5t4.5 -3.5q2 -10 2 -24q0 -35 -23.5 -65.5t-68 -48.5t-105.5 -18q-37 0 -94.5 -23.5t-100.5 -62t-43 -82.5q0 -31 21.5 -50.5t55.5 -19.5q37 0 73.5 19t93.5 58q60 41 102 62t86 21q79 0 79 -90q0 -55 -38 -106.5t-106 -83.5
t-153 -32q-75 0 -138 30zM187 638.5q-30 26.5 -45 40.5l-29 26l5 5l157 -146q76 67 119 113l24 24q4 4 7.5 6.5t7.5 2.5t7 -3t3 -7t-4 -8q-14 -13 -31 -24q-6 -5 -38 -30t-95 -80q-58 54 -88 80.5z" />
    <glyph glyph-name="uni01E8" unicode="&#x1e8;" horiz-adv-x="735" 
d="M35 4q0 8 19 8q5 0 14.5 -2.5t23.5 -2.5q30 0 39 15t9 54v551q0 31 6 46.5t22 20.5h-27q-37 0 -57.5 -2.5t-27.5 -2.5q-21 0 -21 7t21 7q7 0 27.5 -1.5t57.5 -1.5h14q39 0 54.5 2t21.5 2q19 0 19 -8t-19 -8q-5 0 -14.5 2.5t-23.5 2.5q-30 0 -39 -15t-9 -54v-551
q0 -25 -4 -40l440 550q54 67 78.5 94.5t33.5 27.5q7 0 7 -7q0 -4 -20 -21q-55 -47 -95 -97l-196 -244l237 -257q33 -36 64 -60q15 -12 15 -17q0 -7 -7 -7q-4 0 -9 5t-10 11t-8 9q-29 34 -48 55l-237 257l-251 -312q-5 -9 -18 -14h27q37 0 57.5 2.5t27.5 2.5q21 0 21 -7
t-21 -7q-7 0 -27.5 1.5t-57.5 1.5h-14q-39 0 -54.5 -2t-21.5 -2q-19 0 -19 8zM279 838.5q-30 26.5 -45 40.5l-29 26l5 5l157 -146q76 67 119 113l24 24q4 4 7.5 6.5t7.5 2.5t7 -3t3 -7t-4 -8q-14 -13 -31 -24q-6 -5 -38 -30t-95 -80q-58 54 -88 80.5z" />
    <glyph glyph-name="uni0218" unicode="&#x218;" horiz-adv-x="710" 
d="M177.5 9.5q-67.5 25.5 -97.5 58t-30 51.5q0 9 6 9t16 -18q20 -31 45 -55.5t82.5 -45t150.5 -20.5q125 0 212.5 43t87.5 129q0 56 -39.5 94.5t-97 62.5t-153.5 53q-95 30 -149.5 52t-92 58t-37.5 88q0 147 310 147q86 0 148 -11t62 -25q0 -6 -10 -6q-11 0 -31 6
q-36 9 -81 15t-120 6q-120 0 -196.5 -27t-76.5 -104q0 -50 37 -85t91 -57t146 -51q97 -30 155.5 -54.5t99 -64t40.5 -97.5q0 -89 -88 -133t-218 -44q-104 0 -171.5 25.5zM295 -214q0 4 6 4q36 0 57 9t21 43q0 38 -24 96v1q0 4 4 5.5t5 -2.5q21 -51 21 -87q0 -46 -25 -61
t-53 -15q-12 0 -12 7z" />
    <glyph glyph-name="uni0219" unicode="&#x219;" horiz-adv-x="555" 
d="M143.5 2q-56.5 18 -86.5 39q-7 6 -7 11q0 8 8 8q3 0 10 -5q3 -2 24.5 -20t70 -32t111.5 -14q100 0 163 32t63 99q0 47 -30.5 75t-74.5 42t-119 29q-69 14 -111 27t-70 37.5t-28 65.5q0 54 54.5 85.5t172.5 31.5q61 0 113 -6t52 -16q0 -5 -7 -5q-8 0 -26 3q-85 11 -164 11
h-27q-78 0 -120.5 -28t-42.5 -76q0 -39 27.5 -63t68 -36t109.5 -26q75 -15 120 -29.5t76.5 -44t31.5 -77.5q0 -69 -64 -102.5t-169 -33.5q-72 0 -128.5 18zM220 -219q0 4 6 4q36 0 57 9t21 43q0 38 -24 96v1q0 4 4 5.5t5 -2.5q21 -51 21 -87q0 -46 -25 -61t-53 -15
q-12 0 -12 7z" />
    <glyph glyph-name="uni021A" unicode="&#x21a;" horiz-adv-x="695" 
d="M177 4q0 8 19 8q6 0 27.5 -2.5t70.5 -2.5q32 0 41.5 15t9.5 54v619h-30q-92 0 -215 -8l-46 -2q-19 0 -19 8q0 9 19 9h46q92 -2 215 -2h65q123 0 215 2h46q19 0 19 -9q0 -8 -19 -8l-46 2q-123 8 -215 8h-30v-622q0 -31 -6 -46.5t-22 -20.5h82q37 0 57.5 2.5t27.5 2.5
q21 0 21 -7t-21 -7q-7 0 -27.5 1.5t-57.5 1.5h-69q-83 0 -108.5 -2t-30.5 -2q-19 0 -19 8zM290 -203q0 4 6 4q36 0 57 9t21 43q0 38 -24 96v1q0 4 4 5.5t5 -2.5q21 -51 21 -87q0 -46 -25 -61t-53 -15q-12 0 -12 7z" />
    <glyph glyph-name="uni021B" unicode="&#x21b;" horiz-adv-x="380" 
d="M170 10.5q-26 15.5 -33 41.5t-7 75v297q0 39 -9 54.5t-39 15.5q-10 0 -22.5 -2.5t-18.5 -2.5q-16 0 -16 8t16 8q7 0 22 -2.5t41 -2.5h45q-11 5 -15 14.5t-4 25.5q0 39 -2 76.5t-2 50.5l-2 36q0 17 8 17q9 0 9 -17l-2 -36q0 -13 -2 -50.5t-2 -76.5q0 -21 7.5 -30.5
t31.5 -9.5q78 0 105.5 2.5t33.5 2.5q18 0 18 -8t-18 -8q-6 0 -37 3t-142 3h-29q18 -5 24 -21.5t6 -48.5v-297q0 -49 7 -74.5t28.5 -37t65.5 -11.5t64.5 8.5t25.5 8.5q9 0 9 -7q0 -9 -25 -14.5t-59 -5.5q-55 0 -81 15.5zM159 -203q0 4 6 4q36 0 57 9t21 43q0 38 -24 96v1
q0 4 4 5.5t5 -2.5q21 -51 21 -87q0 -46 -25 -61t-53 -15q-12 0 -12 7z" />
    <glyph glyph-name="uni0237" unicode="&#x237;" horiz-adv-x="166" 
d="M-125 -193q0 7 10 7q6 0 22 -2q33 -3 42 -3q56 0 85.5 21t40 63.5t10.5 117.5v314q0 73 -5 138l-1 25q0 17 8 17q9 0 9 -17l-1 -25q-5 -65 -5 -138v-315q0 -78 -12.5 -123t-49.5 -68.5t-109 -23.5q-44 0 -44 12z" />
    <glyph glyph-name="uni0259" unicode="&#x259;" horiz-adv-x="613" 
d="M168 6.5q-54 22.5 -86 61.5t-32 86h492q16 45 16 93q0 81 -39 141t-102.5 91.5t-135.5 31.5q-54 0 -93.5 -16.5t-62.5 -37t-46 -48.5q-7 -9 -13.5 -15.5t-10.5 -6.5q-5 0 -5 6q0 12 30 42.5t82 55.5t119 25q74 0 138.5 -32.5t104 -94t39.5 -142.5q0 -80 -38.5 -140
t-102 -91.5t-137.5 -31.5q-63 0 -117 22.5zM86.5 70q30.5 -37 83 -59t115.5 -22q86 0 156 42.5t99 117.5h-484q0 -42 30.5 -79z" />
    <glyph glyph-name="circumflex" unicode="&#x2c6;" horiz-adv-x="370" 
d="M23 566q-3 3 -3 7t4 8q14 13 31 24q6 5 38 30t95 80q58 -54 88 -80.5t45 -40.5l29 -26l-5 -5l-157 146q-76 -67 -119 -113l-24 -24q-4 -4 -7.5 -6.5t-7.5 -2.5t-7 3z" />
    <glyph glyph-name="caron" unicode="&#x2c7;" horiz-adv-x="370" 
d="M94 638.5q-30 26.5 -45 40.5l-29 26l5 5l157 -146q76 67 119 113l24 24q4 4 7.5 6.5t7.5 2.5t7 -3t3 -7t-4 -8q-14 -13 -31 -24q-6 -5 -38 -30t-95 -80q-58 54 -88 80.5z" />
    <glyph glyph-name="breve" unicode="&#x2d8;" horiz-adv-x="280" 
d="M76.5 590.5q-28.5 14.5 -42.5 37.5t-14 48q0 13 3 20.5t6 7.5q4 0 4 -8q0 -51 27 -83t84 -32q53 0 82 26.5t29 66.5q0 18 -5 31h5q5 -13 5 -31q0 -42 -30 -70t-86 -28q-39 0 -67.5 14.5z" />
    <glyph glyph-name="dotaccent" unicode="&#x2d9;" horiz-adv-x="68" 
d="M17 624q-7 7 -7 17t7 17t17 7t17 -7t7 -17t-7 -17t-17 -7t-17 7z" />
    <glyph glyph-name="ring" unicode="&#x2da;" horiz-adv-x="116" 
d="M24 607q-14 14 -14 34t14 34t34 14t34 -14t14 -34t-14 -34t-34 -14t-34 14zM27 610.5q12 -12.5 31 -12.5t31 12.5t12 30.5t-12 30.5t-31 12.5t-31 -12.5t-12 -30.5t12 -30.5z" />
    <glyph glyph-name="ogonek" unicode="&#x2db;" horiz-adv-x="265" 
d="M51 -147.5q-31 24.5 -31 59.5q0 39 38.5 66t115.5 27h66v-5h-66q-75 0 -112 -25.5t-37 -62.5q0 -31 26.5 -54t78.5 -23q28 0 46.5 6t37.5 16q16 9 22 9q9 0 9 -7q0 -6 -13 -13.5t-36 -12.5t-51 -5q-63 0 -94 24.5z" />
    <glyph glyph-name="tilde" unicode="&#x2dc;" horiz-adv-x="405" 
d="M246.5 604q-19.5 9 -45.5 27q-24 17 -41.5 25.5t-40.5 8.5q-32 0 -50 -12t-34 -31q-12 -15 -18 -15q-7 0 -7 7q0 10 13.5 23.5t37 23t53.5 9.5q25 0 44.5 -9t45.5 -27q24 -17 41.5 -25.5t40.5 -8.5q32 0 50 12t34 31q12 15 18 15q7 0 7 -7q0 -8 -13.5 -22t-37.5 -24
t-53 -10q-25 0 -44.5 9z" />
    <glyph glyph-name="hungarumlaut" unicode="&#x2dd;" horiz-adv-x="380" 
d="M20 576l190 130q5 4 10 4q8 0 8 -7q0 -6 -9 -12l-198 -117zM152 576l190 130q5 4 10 4q8 0 8 -7q0 -6 -9 -12l-198 -117z" />
    <glyph glyph-name="gravecomb" unicode="&#x300;" horiz-adv-x="0" 
d="M20 703q0 7 8 7q5 0 10 -4l190 -130l-1 -2l-198 117q-9 6 -9 12z" />
    <glyph glyph-name="acutecomb" unicode="&#x301;" horiz-adv-x="0" 
d="M20 576l190 130q5 4 10 4q8 0 8 -7q0 -6 -9 -12l-198 -117z" />
    <glyph glyph-name="uni0302" unicode="&#x302;" horiz-adv-x="0" 
d="M23 566q-3 3 -3 7t4 8q14 13 31 24q6 5 38 30t95 80q58 -54 88 -80.5t45 -40.5l29 -26l-5 -5l-157 146q-76 -67 -119 -113l-24 -24q-4 -4 -7.5 -6.5t-7.5 -2.5t-7 3z" />
    <glyph glyph-name="tildecomb" unicode="&#x303;" horiz-adv-x="0" 
d="M246.5 604q-19.5 9 -45.5 27q-24 17 -41.5 25.5t-40.5 8.5q-32 0 -50 -12t-34 -31q-12 -15 -18 -15q-7 0 -7 7q0 10 13.5 23.5t37 23t53.5 9.5q25 0 44.5 -9t45.5 -27q24 -17 41.5 -25.5t40.5 -8.5q32 0 50 12t34 31q12 15 18 15q7 0 7 -7q0 -8 -13.5 -22t-37.5 -24
t-53 -10q-25 0 -44.5 9z" />
    <glyph glyph-name="uni0304" unicode="&#x304;" horiz-adv-x="0" 
d="M20 635h315v-5h-315v5z" />
    <glyph glyph-name="uni0306" unicode="&#x306;" horiz-adv-x="0" 
d="M76.5 590.5q-28.5 14.5 -42.5 37.5t-14 48q0 13 3 20.5t6 7.5q4 0 4 -8q0 -51 27 -83t84 -32q53 0 82 26.5t29 66.5q0 18 -5 31h5q5 -13 5 -31q0 -42 -30 -70t-86 -28q-39 0 -67.5 14.5z" />
    <glyph glyph-name="uni0307" unicode="&#x307;" horiz-adv-x="0" 
d="M17 624q-7 7 -7 17t7 17t17 7t17 -7t7 -17t-7 -17t-17 -7t-17 7z" />
    <glyph glyph-name="uni0308" unicode="&#x308;" horiz-adv-x="0" 
d="M27 624q-7 7 -7 17t7 17t17 7t17 -7t7 -17t-7 -17t-17 -7t-17 7zM169 624q-7 7 -7 17t7 17t17 7t17 -7t7 -17t-7 -17t-17 -7t-17 7z" />
    <glyph glyph-name="hookabovecomb" unicode="&#x309;" horiz-adv-x="0" 
d="M83 568q-7 3 -7 6q0 4 8 4q47 0 74 15.5t27 46.5q0 29 -23 47t-59 18q-35 0 -56 -16.5t-21 -46.5q0 -4 -3 -4t-3 4q0 32 24 50t59 18q37 0 62 -19t25 -52q0 -35 -26 -54.5t-61 -19.5q-13 0 -20 3z" />
    <glyph glyph-name="uni030A" unicode="&#x30a;" horiz-adv-x="0" 
d="M24 607q-14 14 -14 34t14 34t34 14t34 -14t14 -34t-14 -34t-34 -14t-34 14zM27 610.5q12 -12.5 31 -12.5t31 12.5t12 30.5t-12 30.5t-31 12.5t-31 -12.5t-12 -30.5t12 -30.5z" />
    <glyph glyph-name="uni030B" unicode="&#x30b;" horiz-adv-x="0" 
d="M20 576l190 130q5 4 10 4q8 0 8 -7q0 -6 -9 -12l-198 -117zM152 576l190 130q5 4 10 4q8 0 8 -7q0 -6 -9 -12l-198 -117z" />
    <glyph glyph-name="uni030C" unicode="&#x30c;" horiz-adv-x="0" 
d="M94 638.5q-30 26.5 -45 40.5l-29 26l5 5l157 -146q76 67 119 113l24 24q4 4 7.5 6.5t7.5 2.5t7 -3t3 -7t-4 -8q-14 -13 -31 -24q-6 -5 -38 -30t-95 -80q-58 54 -88 80.5z" />
    <glyph glyph-name="uni0312" unicode="&#x312;" horiz-adv-x="0" 
d="M150 697q0 -4 -6 -4q-26 0 -44 -4t-31.5 -22t-13.5 -54q0 -32 9.5 -62t23.5 -62v-2q0 -4 -4.5 -5.5t-5.5 2.5q-12 29 -20 58.5t-8 68.5q0 93 88 93q12 0 12 -7z" />
    <glyph glyph-name="uni031B" unicode="&#x31b;" horiz-adv-x="0" 
d="M20 510v10q51 -3 59 -3q30 0 39 19.5t9 57.5q0 29 -6 49l-1 5q0 7 7 7t10 -14t3 -32q0 -50 -17.5 -75.5t-58.5 -25.5q-20 0 -44 2z" />
    <glyph glyph-name="dotbelowcomb" unicode="&#x323;" horiz-adv-x="0" 
d="M57 -140q-7 7 -7 17t7 17t17 7t17 -7t7 -17t-7 -17t-17 -7t-17 7z" />
    <glyph glyph-name="uni0326" unicode="&#x326;" horiz-adv-x="0" 
d="M20 -203q0 4 6 4q36 0 57 9t21 43q0 38 -24 96v1q0 4 4 5.5t5 -2.5q21 -51 21 -87q0 -46 -25 -61t-53 -15q-12 0 -12 7z" />
    <glyph glyph-name="uni0327" unicode="&#x327;" horiz-adv-x="0" 
d="M76 -194.5q-27 5.5 -41.5 13t-14.5 13.5t8 6q9 0 23 -8q24 -11 45.5 -17t54.5 -6q51 0 72.5 16t21.5 39q0 28 -37.5 45t-130.5 17l75 76h6l-72 -72q164 0 164 -66q0 -25 -26 -43.5t-87 -18.5q-34 0 -61 5.5z" />
    <glyph glyph-name="uni0328" unicode="&#x328;" horiz-adv-x="0" 
d="M51 -147.5q-31 24.5 -31 59.5q0 39 38.5 66t115.5 27h66v-5h-66q-75 0 -112 -25.5t-37 -62.5q0 -31 26.5 -54t78.5 -23q28 0 46.5 6t37.5 16q16 9 22 9q9 0 9 -7q0 -6 -13 -13.5t-36 -12.5t-51 -5q-63 0 -94 24.5z" />
    <glyph glyph-name="uni03BC" unicode="&#x3bc;" horiz-adv-x="645" 
d="M70 -188l1 26q5 65 5 137v311q0 47 -2 94.5t-2 64.5l-2 44q0 7 2.5 12t6.5 5q8 0 8 -17l-2 -44q0 -17 -2 -64.5t-2 -94.5v-54q0 -242 221 -242q119 0 180.5 67.5t61.5 190.5v38q0 48 -2 97t-2 66l-2 40q0 7 2.5 12t6.5 5q8 0 8 -17l-2 -40q0 -17 -2 -66t-2 -97v-151
q0 -68 12.5 -96t41.5 -28q12 0 12 -7q0 -8 -12 -8q-23 0 -41 28t-18 106v53q-15 -95 -77 -146.5t-165 -51.5q-192 0 -221 180v-190q0 -72 5 -137l1 -26q0 -17 -9 -17q-8 0 -8 17z" />
    <glyph glyph-name="uni0E3F" unicode="&#xe3f;" horiz-adv-x="490" 
d="M107.5 110q-48.5 13 -73.5 31q-4 3 -4 7q0 7 7 7q4 0 28 -14.5t62.5 -26.5t94.5 -12h4q1 20 1 73v231q-17 0 -26.5 -0.5t-15.5 -0.5q-15 0 -15 8q0 3 4 5.5t10 2.5q8 0 18 -1t25 -2v57q0 48 -2 118l-1 32h-184v-183q0 -91 4 -163l1 -37q0 -15 -8 -15q-7 0 -7 15l1 37
q4 72 4 163q0 93 -3 183q0 7 7 7q3 0 12 -1t22 -1h151l-2 40l-2 49q0 16 9 16t9 -16q0 -18 -1 -31l-2 -58h10q73 0 115.5 -27t42.5 -80q0 -54 -46 -82t-125 -28v-3q88 0 145.5 -40t57.5 -116q0 -74 -55 -113.5t-147 -43.5l3 -59l2 -27q0 -16 -9 -16q-8 0 -8 16l2 27l3 59
h-11q-59 0 -107.5 13zM233 102q89 2 143 40.5t54 111.5t-54.5 112t-143.5 40v-231q0 -53 1 -73zM243 418q73 0 114 27t41 78q0 50 -40.5 76t-111.5 26h-11q-3 -61 -3 -150v-57h11z" />
    <glyph glyph-name="uni1E20" unicode="&#x1e20;" horiz-adv-x="835" 
d="M243 27.5q-85 43.5 -136.5 127t-51.5 196.5q0 112 53.5 195t141.5 126.5t189 43.5q65 0 121.5 -18t97.5 -46t61 -58q1 -1 1 -3q0 -4 -4 -5.5t-7 3.5q-35 48 -106.5 85t-164.5 37q-99 0 -185.5 -43t-139.5 -124.5t-53 -192.5q0 -112 50.5 -194t134.5 -125t182 -43
q110 0 184.5 49.5t110 121t35.5 139.5q0 16 6 16q4 0 5.5 -5.5t1.5 -20.5q0 -17 -1 -29l-1 -100q0 -49 5 -109q2 -30 2 -37q0 -19 -9 -19t-9 19q0 7 2 37q4 48 4 109q0 52 -4 98q-10 -70 -51.5 -133t-113 -102t-166.5 -39q-100 0 -185 43.5zM272 835h315v-5h-315v5z" />
    <glyph glyph-name="uni1E21" unicode="&#x1e21;" horiz-adv-x="600" 
d="M116 -174q-19 8 -19 19q0 4 3.5 5.5t8.5 -1.5q41 -24 76 -33.5t74 -9.5q84 0 149.5 30.5t101.5 79.5t36 102q0 85 -76 85q-41 0 -82 -20.5t-99 -61.5q-59 -40 -96.5 -59t-76.5 -19q-36 0 -58.5 21t-22.5 54q0 40 35 76t84.5 60t92.5 33q-87 8 -132 54.5t-45 110.5
q0 70 53 117t156 47q73 0 121.5 -21.5t63.5 -61.5q0 32 21.5 52t62.5 20q5 0 8.5 -2t3.5 -5q0 -8 -10 -8q-39 0 -60 -12t-21 -43q0 -10 3.5 -19t3.5 -11q0 -8 -7 -8q-8 0 -8 12q0 46 -49 74t-133 28q-101 0 -152.5 -45t-51.5 -114t51.5 -115t151.5 -46q60 0 103.5 17.5
t66 46.5t22.5 63q0 10 -5 23v1q0 3 3.5 3.5t4.5 -3.5q2 -10 2 -24q0 -35 -23.5 -65.5t-68 -48.5t-105.5 -18q-37 0 -94.5 -23.5t-100.5 -62t-43 -82.5q0 -31 21.5 -50.5t55.5 -19.5q37 0 73.5 19t93.5 58q60 41 102 62t86 21q79 0 79 -90q0 -55 -38 -106.5t-106 -83.5
t-153 -32q-75 0 -138 30zM120 635h315v-5h-315v5z" />
    <glyph glyph-name="Wgrave" unicode="&#x1e80;" horiz-adv-x="1185" 
d="M47 684q-2 4 -2 8q0 9 10 9q8 0 13 -12q1 -1 26 -54q69 -150 149 -307l168 -333l185 305q7 12 12.5 21t9.5 16q-156 307 -180 347q-4 8 -4 11q0 6 6 9q7 4 37 8t71 4q85 0 146 -24t61 -88q0 -28 -25 -80t-106 -188l4 -8l168 -333q165 272 228 378t86.5 155t23.5 76
q0 55 -51.5 75t-133.5 20q-53 0 -104 -7q-24 -3 -26 -1t-2 4q0 4 6 7q8 5 37 9.5t75 4.5q84 0 144.5 -24t60.5 -88q0 -28 -23.5 -77t-86 -154t-234.5 -387h-1l-172 340l-3 5q-67 -113 -209 -345h-1l-172 340q-107 212 -191 358zM474 632q18 -35 41 -81l106 -209
q79 132 103.5 183t24.5 79q0 55 -52 75t-138 20q-73 0 -114 -9q11 -23 29 -58zM488 903q0 7 8 7q5 0 10 -4l190 -130l-1 -2l-198 117q-9 6 -9 12z" />
    <glyph glyph-name="wgrave" unicode="&#x1e81;" horiz-adv-x="916" 
d="M90 396q-30 53 -36 63l-16 28q-3 5 -3 10q0 8 8 8q6 0 11 -12q0 -1 17 -36q43 -94 85 -176l146 -286q126 183 173 257l-14 28q-44 86 -76.5 142.5t-35.5 62.5q-2 4 -2 7q0 5 6 8q5 3 36.5 7t62.5 4q53 0 85.5 -16.5t32.5 -59.5q0 -24 -22 -68.5t-67 -115.5l132 -256
q146 212 204.5 307.5t58.5 133.5q0 37 -34.5 49t-95.5 12q-25 0 -47.5 -2.5t-31.5 -2.5q-8 0 -10 3q-3 5 3 8q4 3 24.5 5.5t47.5 2.5q149 0 149 -76q0 -40 -59 -136t-209 -313h-1l-134 261q-51 -79 -133 -197q-6 -10 -43 -64h-1l-149 293q-32 64 -62 117zM465 282l13 -25
q45 71 66 113.5t21 65.5q0 36 -27.5 48.5t-81.5 12.5q-38 0 -64 -4t-36 -7q80 -148 109 -204zM353 703q0 7 8 7q5 0 10 -4l190 -130l-1 -2l-198 117q-9 6 -9 12z" />
    <glyph glyph-name="Wacute" unicode="&#x1e82;" horiz-adv-x="1185" 
d="M47 684q-2 4 -2 8q0 9 10 9q8 0 13 -12q1 -1 26 -54q69 -150 149 -307l168 -333l185 305q7 12 12.5 21t9.5 16q-156 307 -180 347q-4 8 -4 11q0 6 6 9q7 4 37 8t71 4q85 0 146 -24t61 -88q0 -28 -25 -80t-106 -188l4 -8l168 -333q165 272 228 378t86.5 155t23.5 76
q0 55 -51.5 75t-133.5 20q-53 0 -104 -7q-24 -3 -26 -1t-2 4q0 4 6 7q8 5 37 9.5t75 4.5q84 0 144.5 -24t60.5 -88q0 -28 -23.5 -77t-86 -154t-234.5 -387h-1l-172 340l-3 5q-67 -113 -209 -345h-1l-172 340q-107 212 -191 358zM474 632q18 -35 41 -81l106 -209
q79 132 103.5 183t24.5 79q0 55 -52 75t-138 20q-73 0 -114 -9q11 -23 29 -58zM488 776l190 130q5 4 10 4q8 0 8 -7q0 -6 -9 -12l-198 -117z" />
    <glyph glyph-name="wacute" unicode="&#x1e83;" horiz-adv-x="916" 
d="M90 396q-30 53 -36 63l-16 28q-3 5 -3 10q0 8 8 8q6 0 11 -12q0 -1 17 -36q43 -94 85 -176l146 -286q126 183 173 257l-14 28q-44 86 -76.5 142.5t-35.5 62.5q-2 4 -2 7q0 5 6 8q5 3 36.5 7t62.5 4q53 0 85.5 -16.5t32.5 -59.5q0 -24 -22 -68.5t-67 -115.5l132 -256
q146 212 204.5 307.5t58.5 133.5q0 37 -34.5 49t-95.5 12q-25 0 -47.5 -2.5t-31.5 -2.5q-8 0 -10 3q-3 5 3 8q4 3 24.5 5.5t47.5 2.5q149 0 149 -76q0 -40 -59 -136t-209 -313h-1l-134 261q-51 -79 -133 -197q-6 -10 -43 -64h-1l-149 293q-32 64 -62 117zM465 282l13 -25
q45 71 66 113.5t21 65.5q0 36 -27.5 48.5t-81.5 12.5q-38 0 -64 -4t-36 -7q80 -148 109 -204zM353 576l190 130q5 4 10 4q8 0 8 -7q0 -6 -9 -12l-198 -117z" />
    <glyph glyph-name="Wdieresis" unicode="&#x1e84;" horiz-adv-x="1185" 
d="M47 684q-2 4 -2 8q0 9 10 9q8 0 13 -12q1 -1 26 -54q69 -150 149 -307l168 -333l185 305q7 12 12.5 21t9.5 16q-156 307 -180 347q-4 8 -4 11q0 6 6 9q7 4 37 8t71 4q85 0 146 -24t61 -88q0 -28 -25 -80t-106 -188l4 -8l168 -333q165 272 228 378t86.5 155t23.5 76
q0 55 -51.5 75t-133.5 20q-53 0 -104 -7q-24 -3 -26 -1t-2 4q0 4 6 7q8 5 37 9.5t75 4.5q84 0 144.5 -24t60.5 -88q0 -28 -23.5 -77t-86 -154t-234.5 -387h-1l-172 340l-3 5q-67 -113 -209 -345h-1l-172 340q-107 212 -191 358zM474 632q18 -35 41 -81l106 -209
q79 132 103.5 183t24.5 79q0 55 -52 75t-138 20q-73 0 -114 -9q11 -23 29 -58zM505 824q-7 7 -7 17t7 17t17 7t17 -7t7 -17t-7 -17t-17 -7t-17 7zM647 824q-7 7 -7 17t7 17t17 7t17 -7t7 -17t-7 -17t-17 -7t-17 7z" />
    <glyph glyph-name="wdieresis" unicode="&#x1e85;" horiz-adv-x="916" 
d="M90 396q-30 53 -36 63l-16 28q-3 5 -3 10q0 8 8 8q6 0 11 -12q0 -1 17 -36q43 -94 85 -176l146 -286q126 183 173 257l-14 28q-44 86 -76.5 142.5t-35.5 62.5q-2 4 -2 7q0 5 6 8q5 3 36.5 7t62.5 4q53 0 85.5 -16.5t32.5 -59.5q0 -24 -22 -68.5t-67 -115.5l132 -256
q146 212 204.5 307.5t58.5 133.5q0 37 -34.5 49t-95.5 12q-25 0 -47.5 -2.5t-31.5 -2.5q-8 0 -10 3q-3 5 3 8q4 3 24.5 5.5t47.5 2.5q149 0 149 -76q0 -40 -59 -136t-209 -313h-1l-134 261q-51 -79 -133 -197q-6 -10 -43 -64h-1l-149 293q-32 64 -62 117zM465 282l13 -25
q45 71 66 113.5t21 65.5q0 36 -27.5 48.5t-81.5 12.5q-38 0 -64 -4t-36 -7q80 -148 109 -204zM370 624q-7 7 -7 17t7 17t17 7t17 -7t7 -17t-7 -17t-17 -7t-17 7zM512 624q-7 7 -7 17t7 17t17 7t17 -7t7 -17t-7 -17t-17 -7t-17 7z" />
    <glyph glyph-name="uni1E9E" unicode="&#x1e9e;" horiz-adv-x="685" 
d="M196 2.5q-62 18.5 -104.5 45.5t-59.5 54q-2 2 -2 7q0 10 9 10q6 0 12 -9q17 -27 56.5 -55t98 -47t126.5 -19q74 0 141 22.5t109.5 69.5t42.5 115q0 92 -79.5 140.5t-217.5 48.5q-22 0 -33 -0.5t-19 -0.5q-18 0 -18 8q0 5 5 10l295 293h-492v-227q0 -93 5 -203l2 -46
q0 -19 -9 -19t-9 19l1 46q5 110 5 203q0 114 -3 225q0 9 8 9q5 0 16 -1t26 -1h462l-299 -298q0 -6 17.5 -9t44.5 -3q134 0 215.5 -49.5t81.5 -144.5q0 -69 -43 -117t-111.5 -71.5t-146.5 -23.5q-71 0 -133 18.5z" />
    <glyph glyph-name="uni1EA0" unicode="&#x1ea0;" horiz-adv-x="820" 
d="M108.5 10q-25.5 18 -42 49t-16.5 66q0 36 19 66.5t57.5 49t92.5 18.5q78 0 202.5 -53t345.5 -204q-41 84 -198 373l-180 332l-92 -160q-73 -125 -114 -212q-4 -9 -7.5 -13t-8.5 -4q-9 0 -9 9q0 5 2 8l26 42q57 87 106 172l96 167h2l184 -340q78 -144 180 -321
q20 -34 22 -38q4 -8 4 -13q0 -9 -10 -9q-5 0 -12 5q-216 149 -338.5 201.5t-200.5 52.5q-79 0 -121.5 -37t-42.5 -92q0 -45 24.5 -69.5t61.5 -39.5q4 -2 12.5 -5.5t12 -6t3.5 -5.5q0 -7 -12 -7q-23 0 -48.5 18zM373 -140q-7 7 -7 17t7 17t17 7t17 -7t7 -17t-7 -17t-17 -7
t-17 7z" />
    <glyph glyph-name="uni1EA1" unicode="&#x1ea1;" horiz-adv-x="665" 
d="M99 13.5q-49 29.5 -49 93.5q0 48 34 79t122 46l117 20q72 13 112 30t56.5 42.5t16.5 65.5q0 65 -39 87.5t-110 22.5h-48q-88 0 -166 -10l-25 -2q-7 0 -7 5q0 10 51 15t121 5q86 0 134.5 -10.5t71 -37t22.5 -75.5q0 -43 -18 -69.5t-58.5 -43.5t-114.5 -30l-116 -20
q-86 -15 -118.5 -44t-32.5 -76q0 -118 180 -118q71 0 133.5 18.5t100.5 53t38 79.5q0 18 8 18q9 0 6 -15q-6 -30 -6 -57q0 -79 63 -79q18 0 48 6l6 1q8 0 8 -6t-12.5 -10t-29.5 -4q-37 0 -56.5 14t-26 37t-9.5 61q-21 -57 -98.5 -89.5t-172.5 -32.5q-87 0 -136 29.5z
M318 -140q-7 7 -7 17t7 17t17 7t17 -7t7 -17t-7 -17t-17 -7t-17 7z" />
    <glyph glyph-name="uni1EA2" unicode="&#x1ea2;" horiz-adv-x="820" 
d="M108.5 10q-25.5 18 -42 49t-16.5 66q0 36 19 66.5t57.5 49t92.5 18.5q78 0 202.5 -53t345.5 -204q-41 84 -198 373l-180 332l-92 -160q-73 -125 -114 -212q-4 -9 -7.5 -13t-8.5 -4q-9 0 -9 9q0 5 2 8l26 42q57 87 106 172l96 167h2l184 -340q78 -144 180 -321
q20 -34 22 -38q4 -8 4 -13q0 -9 -10 -9q-5 0 -12 5q-216 149 -338.5 201.5t-200.5 52.5q-79 0 -121.5 -37t-42.5 -92q0 -45 24.5 -69.5t61.5 -39.5q4 -2 12.5 -5.5t12 -6t3.5 -5.5q0 -7 -12 -7q-23 0 -48.5 18zM368 768q-7 3 -7 6q0 4 8 4q47 0 74 15.5t27 46.5q0 29 -23 47
t-59 18q-35 0 -56 -16.5t-21 -46.5q0 -4 -3 -4t-3 4q0 32 24 50t59 18q37 0 62 -19t25 -52q0 -35 -26 -54.5t-61 -19.5q-13 0 -20 3z" />
    <glyph glyph-name="uni1EA3" unicode="&#x1ea3;" horiz-adv-x="665" 
d="M99 13.5q-49 29.5 -49 93.5q0 48 34 79t122 46l117 20q72 13 112 30t56.5 42.5t16.5 65.5q0 65 -39 87.5t-110 22.5h-48q-88 0 -166 -10l-25 -2q-7 0 -7 5q0 10 51 15t121 5q86 0 134.5 -10.5t71 -37t22.5 -75.5q0 -43 -18 -69.5t-58.5 -43.5t-114.5 -30l-116 -20
q-86 -15 -118.5 -44t-32.5 -76q0 -118 180 -118q71 0 133.5 18.5t100.5 53t38 79.5q0 18 8 18q9 0 6 -15q-6 -30 -6 -57q0 -79 63 -79q18 0 48 6l6 1q8 0 8 -6t-12.5 -10t-29.5 -4q-37 0 -56.5 14t-26 37t-9.5 61q-21 -57 -98.5 -89.5t-172.5 -32.5q-87 0 -136 29.5z
M302 568q-7 3 -7 6q0 4 8 4q47 0 74 15.5t27 46.5q0 29 -23 47t-59 18q-35 0 -56 -16.5t-21 -46.5q0 -4 -3 -4t-3 4q0 32 24 50t59 18q37 0 62 -19t25 -52q0 -35 -26 -54.5t-61 -19.5q-13 0 -20 3z" />
    <glyph glyph-name="uni1EA4" unicode="&#x1ea4;" horiz-adv-x="820" 
d="M108.5 10q-25.5 18 -42 49t-16.5 66q0 36 19 66.5t57.5 49t92.5 18.5q78 0 202.5 -53t345.5 -204q-41 84 -198 373l-180 332l-92 -160q-73 -125 -114 -212q-4 -9 -7.5 -13t-8.5 -4q-9 0 -9 9q0 5 2 8l26 42q57 87 106 172l96 167h2l184 -340q78 -144 180 -321
q20 -34 22 -38q4 -8 4 -13q0 -9 -10 -9q-5 0 -12 5q-216 149 -338.5 201.5t-200.5 52.5q-79 0 -121.5 -37t-42.5 -92q0 -45 24.5 -69.5t61.5 -39.5q4 -2 12.5 -5.5t12 -6t3.5 -5.5q0 -7 -12 -7q-23 0 -48.5 18zM225 766q-3 3 -3 7t4 8q14 13 31 24q6 5 38 30t95 80
q58 -54 88 -80.5t45 -40.5l29 -26l-5 -5l-157 146q-76 -67 -119 -113l-24 -24q-4 -4 -7.5 -6.5t-7.5 -2.5t-7 3zM469 874l190 130q5 4 10 4q8 0 8 -7q0 -6 -9 -12l-198 -117z" />
    <glyph glyph-name="uni1EA5" unicode="&#x1ea5;" horiz-adv-x="665" 
d="M99 13.5q-49 29.5 -49 93.5q0 48 34 79t122 46l117 20q72 13 112 30t56.5 42.5t16.5 65.5q0 65 -39 87.5t-110 22.5h-48q-88 0 -166 -10l-25 -2q-7 0 -7 5q0 10 51 15t121 5q86 0 134.5 -10.5t71 -37t22.5 -75.5q0 -43 -18 -69.5t-58.5 -43.5t-114.5 -30l-116 -20
q-86 -15 -118.5 -44t-32.5 -76q0 -118 180 -118q71 0 133.5 18.5t100.5 53t38 79.5q0 18 8 18q9 0 6 -15q-6 -30 -6 -57q0 -79 63 -79q18 0 48 6l6 1q8 0 8 -6t-12.5 -10t-29.5 -4q-37 0 -56.5 14t-26 37t-9.5 61q-21 -57 -98.5 -89.5t-172.5 -32.5q-87 0 -136 29.5z
M159 566q-3 3 -3 7t4 8q14 13 31 24q6 5 38 30t95 80q58 -54 88 -80.5t45 -40.5l29 -26l-5 -5l-157 146q-76 -67 -119 -113l-24 -24q-4 -4 -7.5 -6.5t-7.5 -2.5t-7 3zM403 674l190 130q5 4 10 4q8 0 8 -7q0 -6 -9 -12l-198 -117z" />
    <glyph glyph-name="uni1EA6" unicode="&#x1ea6;" horiz-adv-x="820" 
d="M108.5 10q-25.5 18 -42 49t-16.5 66q0 36 19 66.5t57.5 49t92.5 18.5q78 0 202.5 -53t345.5 -204q-41 84 -198 373l-180 332l-92 -160q-73 -125 -114 -212q-4 -9 -7.5 -13t-8.5 -4q-9 0 -9 9q0 5 2 8l26 42q57 87 106 172l96 167h2l184 -340q78 -144 180 -321
q20 -34 22 -38q4 -8 4 -13q0 -9 -10 -9q-5 0 -12 5q-216 149 -338.5 201.5t-200.5 52.5q-79 0 -121.5 -37t-42.5 -92q0 -45 24.5 -69.5t61.5 -39.5q4 -2 12.5 -5.5t12 -6t3.5 -5.5q0 -7 -12 -7q-23 0 -48.5 18zM225 766q-3 3 -3 7t4 8q14 13 31 24q6 5 38 30t95 80
q58 -54 88 -80.5t45 -40.5l29 -26l-5 -5l-157 146q-76 -67 -119 -113l-24 -24q-4 -4 -7.5 -6.5t-7.5 -2.5t-7 3zM372 1015q0 7 7 7q5 0 11 -6l167 -158l-1 -2l-177 147q-7 6 -7 12z" />
    <glyph glyph-name="uni1EA7" unicode="&#x1ea7;" horiz-adv-x="665" 
d="M99 13.5q-49 29.5 -49 93.5q0 48 34 79t122 46l117 20q72 13 112 30t56.5 42.5t16.5 65.5q0 65 -39 87.5t-110 22.5h-48q-88 0 -166 -10l-25 -2q-7 0 -7 5q0 10 51 15t121 5q86 0 134.5 -10.5t71 -37t22.5 -75.5q0 -43 -18 -69.5t-58.5 -43.5t-114.5 -30l-116 -20
q-86 -15 -118.5 -44t-32.5 -76q0 -118 180 -118q71 0 133.5 18.5t100.5 53t38 79.5q0 18 8 18q9 0 6 -15q-6 -30 -6 -57q0 -79 63 -79q18 0 48 6l6 1q8 0 8 -6t-12.5 -10t-29.5 -4q-37 0 -56.5 14t-26 37t-9.5 61q-21 -57 -98.5 -89.5t-172.5 -32.5q-87 0 -136 29.5z
M159 566q-3 3 -3 7t4 8q14 13 31 24q6 5 38 30t95 80q58 -54 88 -80.5t45 -40.5l29 -26l-5 -5l-157 146q-76 -67 -119 -113l-24 -24q-4 -4 -7.5 -6.5t-7.5 -2.5t-7 3zM306 815q0 7 7 7q5 0 11 -6l167 -158l-1 -2l-177 147q-7 6 -7 12z" />
    <glyph glyph-name="uni1EA8" unicode="&#x1ea8;" horiz-adv-x="820" 
d="M108.5 10q-25.5 18 -42 49t-16.5 66q0 36 19 66.5t57.5 49t92.5 18.5q78 0 202.5 -53t345.5 -204q-41 84 -198 373l-180 332l-92 -160q-73 -125 -114 -212q-4 -9 -7.5 -13t-8.5 -4q-9 0 -9 9q0 5 2 8l26 42q57 87 106 172l96 167h2l184 -340q78 -144 180 -321
q20 -34 22 -38q4 -8 4 -13q0 -9 -10 -9q-5 0 -12 5q-216 149 -338.5 201.5t-200.5 52.5q-79 0 -121.5 -37t-42.5 -92q0 -45 24.5 -69.5t61.5 -39.5q4 -2 12.5 -5.5t12 -6t3.5 -5.5q0 -7 -12 -7q-23 0 -48.5 18zM230 766q-3 3 -3 7t4 8q14 13 31 24q6 5 38 30t95 80
q58 -54 88 -80.5t45 -40.5l29 -26l-5 -5l-157 146q-76 -67 -119 -113l-24 -24q-4 -4 -7.5 -6.5t-7.5 -2.5t-7 3zM505 892q-7 3 -7 6q0 4 8 4q47 0 74 15.5t27 46.5q0 29 -23 47t-59 18q-35 0 -56 -16.5t-21 -46.5q0 -4 -3 -4t-3 4q0 32 24 50t59 18q37 0 62 -19t25 -52
q0 -35 -26 -54.5t-61 -19.5q-13 0 -20 3z" />
    <glyph glyph-name="uni1EA9" unicode="&#x1ea9;" horiz-adv-x="665" 
d="M99 13.5q-49 29.5 -49 93.5q0 48 34 79t122 46l117 20q72 13 112 30t56.5 42.5t16.5 65.5q0 65 -39 87.5t-110 22.5h-48q-88 0 -166 -10l-25 -2q-7 0 -7 5q0 10 51 15t121 5q86 0 134.5 -10.5t71 -37t22.5 -75.5q0 -43 -18 -69.5t-58.5 -43.5t-114.5 -30l-116 -20
q-86 -15 -118.5 -44t-32.5 -76q0 -118 180 -118q71 0 133.5 18.5t100.5 53t38 79.5q0 18 8 18q9 0 6 -15q-6 -30 -6 -57q0 -79 63 -79q18 0 48 6l6 1q8 0 8 -6t-12.5 -10t-29.5 -4q-37 0 -56.5 14t-26 37t-9.5 61q-21 -57 -98.5 -89.5t-172.5 -32.5q-87 0 -136 29.5z
M164 566q-3 3 -3 7t4 8q14 13 31 24q6 5 38 30t95 80q58 -54 88 -80.5t45 -40.5l29 -26l-5 -5l-157 146q-76 -67 -119 -113l-24 -24q-4 -4 -7.5 -6.5t-7.5 -2.5t-7 3zM439 692q-7 3 -7 6q0 4 8 4q47 0 74 15.5t27 46.5q0 29 -23 47t-59 18q-35 0 -56 -16.5t-21 -46.5
q0 -4 -3 -4t-3 4q0 32 24 50t59 18q37 0 62 -19t25 -52q0 -35 -26 -54.5t-61 -19.5q-13 0 -20 3z" />
    <glyph glyph-name="uni1EAA" unicode="&#x1eaa;" horiz-adv-x="820" 
d="M108.5 10q-25.5 18 -42 49t-16.5 66q0 36 19 66.5t57.5 49t92.5 18.5q78 0 202.5 -53t345.5 -204q-41 84 -198 373l-180 332l-92 -160q-73 -125 -114 -212q-4 -9 -7.5 -13t-8.5 -4q-9 0 -9 9q0 5 2 8l26 42q57 87 106 172l96 167h2l184 -340q78 -144 180 -321
q20 -34 22 -38q4 -8 4 -13q0 -9 -10 -9q-5 0 -12 5q-216 149 -338.5 201.5t-200.5 52.5q-79 0 -121.5 -37t-42.5 -92q0 -45 24.5 -69.5t61.5 -39.5q4 -2 12.5 -5.5t12 -6t3.5 -5.5q0 -7 -12 -7q-23 0 -48.5 18zM419.5 958.5q-12.5 6.5 -30.5 20.5q-16 13 -27.5 19t-26.5 6
q-23 0 -34.5 -9t-18.5 -22t-11 -13q-5 0 -5 5q0 14 16.5 29.5t47.5 15.5q18 0 30.5 -6.5t30.5 -20.5q16 -13 27.5 -19t26.5 -6q23 0 34.5 9t18.5 22t11 13q5 0 5 -5q0 -8 -7 -18.5t-21.5 -18.5t-35.5 -8q-18 0 -30.5 6.5zM259 805q6 5 38 30t95 80q58 -54 88 -80.5t45 -40.5
l29 -26l-5 -5l-157 146q-76 -67 -119 -113l-24 -24q-4 -4 -7.5 -6.5t-7.5 -2.5t-7 3t-3 7t4 8q14 13 31 24z" />
    <glyph glyph-name="uni1EAB" unicode="&#x1eab;" horiz-adv-x="665" 
d="M99 13.5q-49 29.5 -49 93.5q0 48 34 79t122 46l117 20q72 13 112 30t56.5 42.5t16.5 65.5q0 65 -39 87.5t-110 22.5h-48q-88 0 -166 -10l-25 -2q-7 0 -7 5q0 10 51 15t121 5q86 0 134.5 -10.5t71 -37t22.5 -75.5q0 -43 -18 -69.5t-58.5 -43.5t-114.5 -30l-116 -20
q-86 -15 -118.5 -44t-32.5 -76q0 -118 180 -118q71 0 133.5 18.5t100.5 53t38 79.5q0 18 8 18q9 0 6 -15q-6 -30 -6 -57q0 -79 63 -79q18 0 48 6l6 1q8 0 8 -6t-12.5 -10t-29.5 -4q-37 0 -56.5 14t-26 37t-9.5 61q-21 -57 -98.5 -89.5t-172.5 -32.5q-87 0 -136 29.5z
M353.5 758.5q-12.5 6.5 -30.5 20.5q-16 13 -27.5 19t-26.5 6q-23 0 -34.5 -9t-18.5 -22t-11 -13q-5 0 -5 5q0 14 16.5 29.5t47.5 15.5q18 0 30.5 -6.5t30.5 -20.5q16 -13 27.5 -19t26.5 -6q23 0 34.5 9t18.5 22t11 13q5 0 5 -5q0 -8 -7 -18.5t-21.5 -18.5t-35.5 -8
q-18 0 -30.5 6.5zM193 605q6 5 38 30t95 80q58 -54 88 -80.5t45 -40.5l29 -26l-5 -5l-157 146q-76 -67 -119 -113l-24 -24q-4 -4 -7.5 -6.5t-7.5 -2.5t-7 3t-3 7t4 8q14 13 31 24z" />
    <glyph glyph-name="uni1EAC" unicode="&#x1eac;" horiz-adv-x="820" 
d="M108.5 10q-25.5 18 -42 49t-16.5 66q0 36 19 66.5t57.5 49t92.5 18.5q78 0 202.5 -53t345.5 -204q-41 84 -198 373l-180 332l-92 -160q-73 -125 -114 -212q-4 -9 -7.5 -13t-8.5 -4q-9 0 -9 9q0 5 2 8l26 42q57 87 106 172l96 167h2l184 -340q78 -144 180 -321
q20 -34 22 -38q4 -8 4 -13q0 -9 -10 -9q-5 0 -12 5q-216 149 -338.5 201.5t-200.5 52.5q-79 0 -121.5 -37t-42.5 -92q0 -45 24.5 -69.5t61.5 -39.5q4 -2 12.5 -5.5t12 -6t3.5 -5.5q0 -7 -12 -7q-23 0 -48.5 18zM373 -140q-7 7 -7 17t7 17t17 7t17 -7t7 -17t-7 -17t-17 -7
t-17 7zM228 766q-3 3 -3 7t4 8q14 13 31 24q6 5 38 30t95 80q58 -54 88 -80.5t45 -40.5l29 -26l-5 -5l-157 146q-76 -67 -119 -113l-24 -24q-4 -4 -7.5 -6.5t-7.5 -2.5t-7 3z" />
    <glyph glyph-name="uni1EAD" unicode="&#x1ead;" horiz-adv-x="665" 
d="M99 13.5q-49 29.5 -49 93.5q0 48 34 79t122 46l117 20q72 13 112 30t56.5 42.5t16.5 65.5q0 65 -39 87.5t-110 22.5h-48q-88 0 -166 -10l-25 -2q-7 0 -7 5q0 10 51 15t121 5q86 0 134.5 -10.5t71 -37t22.5 -75.5q0 -43 -18 -69.5t-58.5 -43.5t-114.5 -30l-116 -20
q-86 -15 -118.5 -44t-32.5 -76q0 -118 180 -118q71 0 133.5 18.5t100.5 53t38 79.5q0 18 8 18q9 0 6 -15q-6 -30 -6 -57q0 -79 63 -79q18 0 48 6l6 1q8 0 8 -6t-12.5 -10t-29.5 -4q-37 0 -56.5 14t-26 37t-9.5 61q-21 -57 -98.5 -89.5t-172.5 -32.5q-87 0 -136 29.5z
M318 -140q-7 7 -7 17t7 17t17 7t17 -7t7 -17t-7 -17t-17 -7t-17 7zM162 566q-3 3 -3 7t4 8q14 13 31 24q6 5 38 30t95 80q58 -54 88 -80.5t45 -40.5l29 -26l-5 -5l-157 146q-76 -67 -119 -113l-24 -24q-4 -4 -7.5 -6.5t-7.5 -2.5t-7 3z" />
    <glyph glyph-name="uni1EAE" unicode="&#x1eae;" horiz-adv-x="820" 
d="M108.5 10q-25.5 18 -42 49t-16.5 66q0 36 19 66.5t57.5 49t92.5 18.5q78 0 202.5 -53t345.5 -204q-41 84 -198 373l-180 332l-92 -160q-73 -125 -114 -212q-4 -9 -7.5 -13t-8.5 -4q-9 0 -9 9q0 5 2 8l26 42q57 87 106 172l96 167h2l184 -340q78 -144 180 -321
q20 -34 22 -38q4 -8 4 -13q0 -9 -10 -9q-5 0 -12 5q-216 149 -338.5 201.5t-200.5 52.5q-79 0 -121.5 -37t-42.5 -92q0 -45 24.5 -69.5t61.5 -39.5q4 -2 12.5 -5.5t12 -6t3.5 -5.5q0 -7 -12 -7q-23 0 -48.5 18zM326.5 790.5q-28.5 14.5 -42.5 37.5t-14 48q0 13 3 20.5t6 7.5
q4 0 4 -8q0 -51 27 -83t84 -32q53 0 82 26.5t29 66.5q0 18 -5 31h5q5 -13 5 -31q0 -42 -30 -70t-86 -28q-39 0 -67.5 14.5zM322 875l190 130q5 4 10 4q8 0 8 -7q0 -6 -9 -12l-198 -117z" />
    <glyph glyph-name="uni1EAF" unicode="&#x1eaf;" horiz-adv-x="665" 
d="M99 13.5q-49 29.5 -49 93.5q0 48 34 79t122 46l117 20q72 13 112 30t56.5 42.5t16.5 65.5q0 65 -39 87.5t-110 22.5h-48q-88 0 -166 -10l-25 -2q-7 0 -7 5q0 10 51 15t121 5q86 0 134.5 -10.5t71 -37t22.5 -75.5q0 -43 -18 -69.5t-58.5 -43.5t-114.5 -30l-116 -20
q-86 -15 -118.5 -44t-32.5 -76q0 -118 180 -118q71 0 133.5 18.5t100.5 53t38 79.5q0 18 8 18q9 0 6 -15q-6 -30 -6 -57q0 -79 63 -79q18 0 48 6l6 1q8 0 8 -6t-12.5 -10t-29.5 -4q-37 0 -56.5 14t-26 37t-9.5 61q-21 -57 -98.5 -89.5t-172.5 -32.5q-87 0 -136 29.5z
M260.5 590.5q-28.5 14.5 -42.5 37.5t-14 48q0 13 3 20.5t6 7.5q4 0 4 -8q0 -51 27 -83t84 -32q53 0 82 26.5t29 66.5q0 18 -5 31h5q5 -13 5 -31q0 -42 -30 -70t-86 -28q-39 0 -67.5 14.5zM256 675l190 130q5 4 10 4q8 0 8 -7q0 -6 -9 -12l-198 -117z" />
    <glyph glyph-name="uni1EB0" unicode="&#x1eb0;" horiz-adv-x="820" 
d="M108.5 10q-25.5 18 -42 49t-16.5 66q0 36 19 66.5t57.5 49t92.5 18.5q78 0 202.5 -53t345.5 -204q-41 84 -198 373l-180 332l-92 -160q-73 -125 -114 -212q-4 -9 -7.5 -13t-8.5 -4q-9 0 -9 9q0 5 2 8l26 42q57 87 106 172l96 167h2l184 -340q78 -144 180 -321
q20 -34 22 -38q4 -8 4 -13q0 -9 -10 -9q-5 0 -12 5q-216 149 -338.5 201.5t-200.5 52.5q-79 0 -121.5 -37t-42.5 -92q0 -45 24.5 -69.5t61.5 -39.5q4 -2 12.5 -5.5t12 -6t3.5 -5.5q0 -7 -12 -7q-23 0 -48.5 18zM326.5 790.5q-28.5 14.5 -42.5 37.5t-14 48q0 13 3 20.5t6 7.5
q4 0 4 -8q0 -51 27 -83t84 -32q53 0 82 26.5t29 66.5q0 18 -5 31h5q5 -13 5 -31q0 -42 -30 -70t-86 -28q-39 0 -67.5 14.5zM280 1002q0 7 8 7q5 0 10 -4l190 -130l-1 -2l-198 117q-9 6 -9 12z" />
    <glyph glyph-name="uni1EB1" unicode="&#x1eb1;" horiz-adv-x="665" 
d="M99 13.5q-49 29.5 -49 93.5q0 48 34 79t122 46l117 20q72 13 112 30t56.5 42.5t16.5 65.5q0 65 -39 87.5t-110 22.5h-48q-88 0 -166 -10l-25 -2q-7 0 -7 5q0 10 51 15t121 5q86 0 134.5 -10.5t71 -37t22.5 -75.5q0 -43 -18 -69.5t-58.5 -43.5t-114.5 -30l-116 -20
q-86 -15 -118.5 -44t-32.5 -76q0 -118 180 -118q71 0 133.5 18.5t100.5 53t38 79.5q0 18 8 18q9 0 6 -15q-6 -30 -6 -57q0 -79 63 -79q18 0 48 6l6 1q8 0 8 -6t-12.5 -10t-29.5 -4q-37 0 -56.5 14t-26 37t-9.5 61q-21 -57 -98.5 -89.5t-172.5 -32.5q-87 0 -136 29.5z
M260.5 590.5q-28.5 14.5 -42.5 37.5t-14 48q0 13 3 20.5t6 7.5q4 0 4 -8q0 -51 27 -83t84 -32q53 0 82 26.5t29 66.5q0 18 -5 31h5q5 -13 5 -31q0 -42 -30 -70t-86 -28q-39 0 -67.5 14.5zM214 802q0 7 8 7q5 0 10 -4l190 -130l-1 -2l-198 117q-9 6 -9 12z" />
    <glyph glyph-name="uni1EB2" unicode="&#x1eb2;" horiz-adv-x="820" 
d="M108.5 10q-25.5 18 -42 49t-16.5 66q0 36 19 66.5t57.5 49t92.5 18.5q78 0 202.5 -53t345.5 -204q-41 84 -198 373l-180 332l-92 -160q-73 -125 -114 -212q-4 -9 -7.5 -13t-8.5 -4q-9 0 -9 9q0 5 2 8l26 42q57 87 106 172l96 167h2l184 -340q78 -144 180 -321
q20 -34 22 -38q4 -8 4 -13q0 -9 -10 -9q-5 0 -12 5q-216 149 -338.5 201.5t-200.5 52.5q-79 0 -121.5 -37t-42.5 -92q0 -45 24.5 -69.5t61.5 -39.5q4 -2 12.5 -5.5t12 -6t3.5 -5.5q0 -7 -12 -7q-23 0 -48.5 18zM326.5 790.5q-28.5 14.5 -42.5 37.5t-14 48q0 13 3 20.5t6 7.5
q4 0 4 -8q0 -51 27 -83t84 -32q53 0 82 26.5t29 66.5q0 18 -5 31h5q5 -13 5 -31q0 -42 -30 -70t-86 -28q-39 0 -67.5 14.5zM363 882q-7 3 -7 6q0 4 8 4q47 0 74 15.5t27 46.5q0 29 -23 47t-59 18q-35 0 -56 -16.5t-21 -46.5q0 -4 -3 -4t-3 4q0 32 24 50t59 18q37 0 62 -19
t25 -52q0 -35 -26 -54.5t-61 -19.5q-13 0 -20 3z" />
    <glyph glyph-name="uni1EB3" unicode="&#x1eb3;" horiz-adv-x="665" 
d="M99 13.5q-49 29.5 -49 93.5q0 48 34 79t122 46l117 20q72 13 112 30t56.5 42.5t16.5 65.5q0 65 -39 87.5t-110 22.5h-48q-88 0 -166 -10l-25 -2q-7 0 -7 5q0 10 51 15t121 5q86 0 134.5 -10.5t71 -37t22.5 -75.5q0 -43 -18 -69.5t-58.5 -43.5t-114.5 -30l-116 -20
q-86 -15 -118.5 -44t-32.5 -76q0 -118 180 -118q71 0 133.5 18.5t100.5 53t38 79.5q0 18 8 18q9 0 6 -15q-6 -30 -6 -57q0 -79 63 -79q18 0 48 6l6 1q8 0 8 -6t-12.5 -10t-29.5 -4q-37 0 -56.5 14t-26 37t-9.5 61q-21 -57 -98.5 -89.5t-172.5 -32.5q-87 0 -136 29.5z
M260.5 590.5q-28.5 14.5 -42.5 37.5t-14 48q0 13 3 20.5t6 7.5q4 0 4 -8q0 -51 27 -83t84 -32q53 0 82 26.5t29 66.5q0 18 -5 31h5q5 -13 5 -31q0 -42 -30 -70t-86 -28q-39 0 -67.5 14.5zM297 682q-7 3 -7 6q0 4 8 4q47 0 74 15.5t27 46.5q0 29 -23 47t-59 18
q-35 0 -56 -16.5t-21 -46.5q0 -4 -3 -4t-3 4q0 32 24 50t59 18q37 0 62 -19t25 -52q0 -35 -26 -54.5t-61 -19.5q-13 0 -20 3z" />
    <glyph glyph-name="uni1EB4" unicode="&#x1eb4;" horiz-adv-x="820" 
d="M108.5 10q-25.5 18 -42 49t-16.5 66q0 36 19 66.5t57.5 49t92.5 18.5q78 0 202.5 -53t345.5 -204q-41 84 -198 373l-180 332l-92 -160q-73 -125 -114 -212q-4 -9 -7.5 -13t-8.5 -4q-9 0 -9 9q0 5 2 8l26 42q57 87 106 172l96 167h2l184 -340q78 -144 180 -321
q20 -34 22 -38q4 -8 4 -13q0 -9 -10 -9q-5 0 -12 5q-216 149 -338.5 201.5t-200.5 52.5q-79 0 -121.5 -37t-42.5 -92q0 -45 24.5 -69.5t61.5 -39.5q4 -2 12.5 -5.5t12 -6t3.5 -5.5q0 -7 -12 -7q-23 0 -48.5 18zM419.5 958.5q-12.5 6.5 -30.5 20.5q-16 13 -27.5 19t-26.5 6
q-23 0 -34.5 -9t-18.5 -22t-11 -13q-5 0 -5 5q0 14 16.5 29.5t47.5 15.5q18 0 30.5 -6.5t30.5 -20.5q16 -13 27.5 -19t26.5 -6q23 0 34.5 9t18.5 22t11 13q5 0 5 -5q0 -8 -7 -18.5t-21.5 -18.5t-35.5 -8q-18 0 -30.5 6.5zM273 896.5q3 7.5 6 7.5q4 0 4 -8q0 -51 27 -83
t84 -32q53 0 82 26.5t29 66.5q0 18 -5 31h5q5 -13 5 -31q0 -42 -30 -70t-86 -28q-39 0 -67.5 14.5t-42.5 37.5t-14 48q0 13 3 20.5z" />
    <glyph glyph-name="uni1EB5" unicode="&#x1eb5;" horiz-adv-x="665" 
d="M99 13.5q-49 29.5 -49 93.5q0 48 34 79t122 46l117 20q72 13 112 30t56.5 42.5t16.5 65.5q0 65 -39 87.5t-110 22.5h-48q-88 0 -166 -10l-25 -2q-7 0 -7 5q0 10 51 15t121 5q86 0 134.5 -10.5t71 -37t22.5 -75.5q0 -43 -18 -69.5t-58.5 -43.5t-114.5 -30l-116 -20
q-86 -15 -118.5 -44t-32.5 -76q0 -118 180 -118q71 0 133.5 18.5t100.5 53t38 79.5q0 18 8 18q9 0 6 -15q-6 -30 -6 -57q0 -79 63 -79q18 0 48 6l6 1q8 0 8 -6t-12.5 -10t-29.5 -4q-37 0 -56.5 14t-26 37t-9.5 61q-21 -57 -98.5 -89.5t-172.5 -32.5q-87 0 -136 29.5z
M353.5 758.5q-12.5 6.5 -30.5 20.5q-16 13 -27.5 19t-26.5 6q-23 0 -34.5 -9t-18.5 -22t-11 -13q-5 0 -5 5q0 14 16.5 29.5t47.5 15.5q18 0 30.5 -6.5t30.5 -20.5q16 -13 27.5 -19t26.5 -6q23 0 34.5 9t18.5 22t11 13q5 0 5 -5q0 -8 -7 -18.5t-21.5 -18.5t-35.5 -8
q-18 0 -30.5 6.5zM207 696.5q3 7.5 6 7.5q4 0 4 -8q0 -51 27 -83t84 -32q53 0 82 26.5t29 66.5q0 18 -5 31h5q5 -13 5 -31q0 -42 -30 -70t-86 -28q-39 0 -67.5 14.5t-42.5 37.5t-14 48q0 13 3 20.5z" />
    <glyph glyph-name="uni1EB6" unicode="&#x1eb6;" horiz-adv-x="820" 
d="M108.5 10q-25.5 18 -42 49t-16.5 66q0 36 19 66.5t57.5 49t92.5 18.5q78 0 202.5 -53t345.5 -204q-41 84 -198 373l-180 332l-92 -160q-73 -125 -114 -212q-4 -9 -7.5 -13t-8.5 -4q-9 0 -9 9q0 5 2 8l26 42q57 87 106 172l96 167h2l184 -340q78 -144 180 -321
q20 -34 22 -38q4 -8 4 -13q0 -9 -10 -9q-5 0 -12 5q-216 149 -338.5 201.5t-200.5 52.5q-79 0 -121.5 -37t-42.5 -92q0 -45 24.5 -69.5t61.5 -39.5q4 -2 12.5 -5.5t12 -6t3.5 -5.5q0 -7 -12 -7q-23 0 -48.5 18zM373 -140q-7 7 -7 17t7 17t17 7t17 -7t7 -17t-7 -17t-17 -7
t-17 7zM326.5 790.5q-28.5 14.5 -42.5 37.5t-14 48q0 13 3 20.5t6 7.5q4 0 4 -8q0 -51 27 -83t84 -32q53 0 82 26.5t29 66.5q0 18 -5 31h5q5 -13 5 -31q0 -42 -30 -70t-86 -28q-39 0 -67.5 14.5z" />
    <glyph glyph-name="uni1EB7" unicode="&#x1eb7;" horiz-adv-x="665" 
d="M99 13.5q-49 29.5 -49 93.5q0 48 34 79t122 46l117 20q72 13 112 30t56.5 42.5t16.5 65.5q0 65 -39 87.5t-110 22.5h-48q-88 0 -166 -10l-25 -2q-7 0 -7 5q0 10 51 15t121 5q86 0 134.5 -10.5t71 -37t22.5 -75.5q0 -43 -18 -69.5t-58.5 -43.5t-114.5 -30l-116 -20
q-86 -15 -118.5 -44t-32.5 -76q0 -118 180 -118q71 0 133.5 18.5t100.5 53t38 79.5q0 18 8 18q9 0 6 -15q-6 -30 -6 -57q0 -79 63 -79q18 0 48 6l6 1q8 0 8 -6t-12.5 -10t-29.5 -4q-37 0 -56.5 14t-26 37t-9.5 61q-21 -57 -98.5 -89.5t-172.5 -32.5q-87 0 -136 29.5z
M318 -140q-7 7 -7 17t7 17t17 7t17 -7t7 -17t-7 -17t-17 -7t-17 7zM260.5 590.5q-28.5 14.5 -42.5 37.5t-14 48q0 13 3 20.5t6 7.5q4 0 4 -8q0 -51 27 -83t84 -32q53 0 82 26.5t29 66.5q0 18 -5 31h5q5 -13 5 -31q0 -42 -30 -70t-86 -28q-39 0 -67.5 14.5z" />
    <glyph glyph-name="uni1EB8" unicode="&#x1eb8;" horiz-adv-x="635" 
d="M362 -27.5q-34 3.5 -89 10.5q-67 8 -115.5 12.5t-111.5 4.5q-7 0 -17 -2t-15 -2q-14 0 -14 8q0 4 4 6t9 2q29 0 37 12t8 52v269q0 27 20 32q-8 1 -14 9t-6 23v56q0 115 -3 229q0 8 8 8q5 0 16 -1t26 -1h187q117 0 209 2h47q19 0 19 -9t-15 -9l-39 2q-101 9 -221 9h-229
v-285q0 -31 29 -31h78q95 0 247 5l59 1q11 0 15 -2t4 -6t-4 -6t-15 -2l-59 1q-122 4 -247 4h-78q-29 0 -29 -31v-270q0 -31 -6.5 -46.5t-24.5 -21.5q69 0 127 -5t128 -14q10 -1 56 -6.5t84 -5.5q71 0 103 13t51 37q10 13 17 6q2 -2 2 -5q0 -8 -7 -16q-16 -20 -52 -30
t-105 -10q-40 0 -74 3.5zM303 -140q-7 7 -7 17t7 17t17 7t17 -7t7 -17t-7 -17t-17 -7t-17 7z" />
    <glyph glyph-name="uni1EB9" unicode="&#x1eb9;" horiz-adv-x="625" 
d="M193.5 17q-64.5 33 -104 94.5t-39.5 143.5q0 79 37 138.5t97 91t129 31.5q58 0 107.5 -22.5t78.5 -61t29 -86.5h-458q-15 -40 -15 -91q0 -82 39 -142t102.5 -92t135.5 -32q61 0 105 20.5t69.5 46.5t49.5 59q7 10 13.5 17.5t10.5 7.5q5 0 5 -6q0 -13 -32 -50.5t-89 -68.5
t-132 -31q-74 0 -138.5 33zM522 351q0 42 -27.5 79t-75.5 59t-106 22q-80 0 -146.5 -42.5t-95.5 -117.5h451zM315 -156q-7 7 -7 17t7 17t17 7t17 -7t7 -17t-7 -17t-17 -7t-17 7z" />
    <glyph glyph-name="uni1EBA" unicode="&#x1eba;" horiz-adv-x="635" 
d="M362 -27.5q-34 3.5 -89 10.5q-67 8 -115.5 12.5t-111.5 4.5q-7 0 -17 -2t-15 -2q-14 0 -14 8q0 4 4 6t9 2q29 0 37 12t8 52v269q0 27 20 32q-8 1 -14 9t-6 23v56q0 115 -3 229q0 8 8 8q5 0 16 -1t26 -1h187q117 0 209 2h47q19 0 19 -9t-15 -9l-39 2q-101 9 -221 9h-229
v-285q0 -31 29 -31h78q95 0 247 5l59 1q11 0 15 -2t4 -6t-4 -6t-15 -2l-59 1q-122 4 -247 4h-78q-29 0 -29 -31v-270q0 -31 -6.5 -46.5t-24.5 -21.5q69 0 127 -5t128 -14q10 -1 56 -6.5t84 -5.5q71 0 103 13t51 37q10 13 17 6q2 -2 2 -5q0 -8 -7 -16q-16 -20 -52 -30
t-105 -10q-40 0 -74 3.5zM298 768q-7 3 -7 6q0 4 8 4q47 0 74 15.5t27 46.5q0 29 -23 47t-59 18q-35 0 -56 -16.5t-21 -46.5q0 -4 -3 -4t-3 4q0 32 24 50t59 18q37 0 62 -19t25 -52q0 -35 -26 -54.5t-61 -19.5q-13 0 -20 3z" />
    <glyph glyph-name="uni1EBB" unicode="&#x1ebb;" horiz-adv-x="625" 
d="M193.5 17q-64.5 33 -104 94.5t-39.5 143.5q0 79 37 138.5t97 91t129 31.5q58 0 107.5 -22.5t78.5 -61t29 -86.5h-458q-15 -40 -15 -91q0 -82 39 -142t102.5 -92t135.5 -32q61 0 105 20.5t69.5 46.5t49.5 59q7 10 13.5 17.5t10.5 7.5q5 0 5 -6q0 -13 -32 -50.5t-89 -68.5
t-132 -31q-74 0 -138.5 33zM522 351q0 42 -27.5 79t-75.5 59t-106 22q-80 0 -146.5 -42.5t-95.5 -117.5h451zM293 568q-7 3 -7 6q0 4 8 4q47 0 74 15.5t27 46.5q0 29 -23 47t-59 18q-35 0 -56 -16.5t-21 -46.5q0 -4 -3 -4t-3 4q0 32 24 50t59 18q37 0 62 -19t25 -52
q0 -35 -26 -54.5t-61 -19.5q-13 0 -20 3z" />
    </font>
</defs>
</svg>
