<?xml version="1.0" standalone="no"?>
<!DOCTYPE svg PUBLIC "-//W3C//DTD SVG 1.1//EN" "http://www.w3.org/Graphics/SVG/1.1/DTD/svg11.dtd" >
<svg xmlns="http://www.w3.org/2000/svg" xmlns:xlink="http://www.w3.org/1999/xlink" version="1.1">
<metadata>
Created by FontForge 20170731 at Tue May 17 21:46:15 2022
 By Aleksey,,,
Copyright 2022 Connary Fagen, Inc.
</metadata>
<defs>
<font id="CerulyaCF-Bold" horiz-adv-x="640" >
  <font-face 
    font-family="Cerulya CF"
    font-weight="400"
    font-stretch="normal"
    units-per-em="1000"
    panose-1="0 0 0 0 0 0 0 0 0 0"
    ascent="800"
    descent="-200"
    x-height="504"
    cap-height="704"
    bbox="-490.667 -284 1521 1034"
    underline-thickness="50"
    underline-position="-175"
    unicode-range="U+0020-FB02"
  />
<missing-glyph horiz-adv-x="465" 
d="M381 -200h-295v930h295v-930zM310 -136v31h-95l65 44h30v30h-155v-30h65l-65 -44v-31h155zM310 -9v105h-155v-105h155zM310 152v105h-93v-52h31v21h31v-44h-93v75h-31v-105h155zM310 277v93h-31v-61h-124v-32h155zM248 330v65h62v31h-155v-31h62v-34h-62v-31h93zM310 451
v32h-62v65h-93v-97h155zM310 572v31h-62v34h62v31h-154v-31h61v-34h-62v-31h155zM186 65h93v-44h-93v44zM186 516h31v-33h-31v33z" />
    <glyph glyph-name="fi" unicode="fi" horiz-adv-x="546" 
d="M25 5q0 5 4 7.5t11 2.5q5 0 18.5 -3t26.5 -3q27 0 36 14.5t9 52.5v421h-101q-4 0 -4 4t4 4h101v37q0 77 10.5 118t46.5 62.5t110 21.5q53 0 53 -11q0 -8 -11 -8q-12 0 -20 1l-51 1q-58 0 -85.5 -19.5t-36 -57.5t-8.5 -112v-32q140 2 188 2q102 2 125 2q14 0 18.5 -5
t4.5 -19l-1 -29q-5 -65 -5 -132v-150q0 -49 2 -84t2 -46q2 -26 2 -33t-3 -12t-7 -5q-10 0 -10 17q0 7 2 33q0 11 2 46t2 84v150l-1 158q0 10 -12 10q-89 0 -233 3l-76 1v-422q0 -30 -6.5 -45.5t-21.5 -21.5h84q41 0 106 5l35 2q7 0 12 -2.5t5 -6.5q0 -9 -17 -9q-20 0 -35 1
q-52 2 -106 2h-74q-38 0 -55.5 -2t-24.5 -2q-15 0 -15 9zM452 725.5q4 4.5 11 4.5t11 -4.5t4 -10.5t-4 -10.5t-11 -4.5t-11 4.5t-4 10.5t4 10.5z" />
    <glyph glyph-name="fl" unicode="fl" horiz-adv-x="675" 
d="M553 12q-19 18 -19 58v610q0 21 -3.5 30.5t-15 13t-37.5 3.5h-120q-82 0 -128 -15.5t-69 -62t-23 -140.5v-3q68 1 109 3l52 1q23 0 23 -9q0 -4 -5 -6t-18 -2q-39 0 -59 1q-37 2 -102 3v-422q0 -30 -6.5 -45.5t-21.5 -21.5h134q41 0 106 5l35 2q7 0 12 -2.5t5 -6.5
q0 -9 -17 -9q-20 0 -35 1q-52 2 -106 2h-124q-38 0 -55.5 -2t-24.5 -2q-15 0 -15 9q0 5 4 7.5t11 2.5q5 0 18.5 -3t26.5 -3q27 0 36 14.5t9 52.5v421h-101q-4 0 -4 4t4 4h101v7q0 97 25.5 147t80 68t152.5 18h82q41 0 56.5 -14.5t15.5 -50.5v-619q0 -30 13 -40t44 -10
q27 0 52 5l5 1q9 0 9 -8q0 -7 -13 -11t-36 -4q-44 0 -63 18z" />
    <glyph glyph-name="f_f_i" unicode="ffi" horiz-adv-x="875" 
d="M354 5q0 5 4 7.5t11 2.5q5 0 18.5 -3t26.5 -3q27 0 36 14.5t9 52.5v421h-101h-220v-422q0 -30 -6.5 -45.5t-21.5 -21.5h44q41 0 106 5l35 2q7 0 12 -2.5t5 -6.5q0 -9 -17 -9q-20 0 -35 1q-52 2 -106 2h-34q-38 0 -55.5 -2t-24.5 -2q-15 0 -15 9q0 5 4 7.5t11 2.5
q5 0 18.5 -3t26.5 -3q27 0 36 14.5t9 52.5v421h-101q-4 0 -4 4t4 4h101v37q0 77 11.5 118t51.5 62.5t124 21.5h306h3q53 0 53 -11q0 -8 -11 -8q-12 0 -20 1l-51 1q-58 0 -85.5 -19.5t-36 -57.5t-8.5 -112v-32q140 2 188 2q102 2 125 2q14 0 18.5 -5t4.5 -19l-1 -29
q-5 -65 -5 -132v-150q0 -49 2 -84t2 -46q2 -26 2 -33t-3 -12t-7 -5q-10 0 -10 17q0 7 2 33q0 11 2 46t2 84v150l-1 158q0 10 -12 10q-89 0 -233 3l-76 1v-422q0 -30 -6.5 -45.5t-21.5 -21.5h84q41 0 106 5l35 2q7 0 12 -2.5t5 -6.5q0 -9 -17 -9q-20 0 -35 1q-52 2 -106 2
h-74q-38 0 -55.5 -2t-24.5 -2q-15 0 -15 9zM358 505h101v37q0 81 12.5 123.5t52.5 61.5h-236q-68 0 -100 -19.5t-41 -57.5t-9 -112v-33h220zM781 725.5q4 4.5 11 4.5t11 -4.5t4 -10.5t-4 -10.5t-11 -4.5t-11 4.5t-4 10.5t4 10.5z" />
    <glyph glyph-name="f_f_l" unicode="ffl" horiz-adv-x="990" 
d="M25 5q0 5 4 7.5t11 2.5q5 0 18.5 -3t26.5 -3q27 0 36 14.5t9 52.5v421h-101q-4 0 -4 4t4 4h101v7q0 97 25.5 146.5t79.5 67.5t152 18h269q15 1 47 1h82q41 0 56.5 -14.5t15.5 -50.5v-619q0 -30 13 -40t44 -10q27 0 52 5l5 1q9 0 9 -8q0 -7 -13 -11t-36 -4q-44 0 -63 18
t-19 58v610q0 21 -3.5 30.5t-15 13t-37.5 3.5h-120q-82 0 -128 -15.5t-69 -62t-23 -140.5v-3q68 1 109 3l52 1q23 0 23 -9q0 -4 -5 -6t-18 -2q-39 0 -59 1q-37 2 -102 3v-422q0 -30 -6.5 -45.5t-21.5 -21.5h134q41 0 106 5l35 2q7 0 12 -2.5t5 -6.5q0 -9 -17 -9q-20 0 -35 1
q-52 2 -106 2h-124q-38 0 -55.5 -2t-24.5 -2q-15 0 -15 9q0 5 4 7.5t11 2.5q5 0 18.5 -3t26.5 -3q27 0 36 14.5t9 52.5v421h-101h-206v-422q0 -30 -6.5 -45.5t-21.5 -21.5h44q41 0 106 5l35 2q7 0 12 -2.5t5 -6.5q0 -9 -17 -9q-20 0 -35 1q-52 2 -106 2h-34q-38 0 -55.5 -2
t-24.5 -2q-15 0 -15 9zM344 505h101v7q0 96 25 145.5t81 69.5h-193q-82 0 -128 -15.5t-69 -62.5t-23 -141v-3h206z" />
    <glyph glyph-name=".notdef" horiz-adv-x="465" 
d="M381 -200h-295v930h295v-930zM310 -136v31h-95l65 44h30v30h-155v-30h65l-65 -44v-31h155zM310 -9v105h-155v-105h155zM310 152v105h-93v-52h31v21h31v-44h-93v75h-31v-105h155zM310 277v93h-31v-61h-124v-32h155zM248 330v65h62v31h-155v-31h62v-34h-62v-31h93zM310 451
v32h-62v65h-93v-97h155zM310 572v31h-62v34h62v31h-154v-31h61v-34h-62v-31h155zM186 65h93v-44h-93v44zM186 516h31v-33h-31v33z" />
    <glyph glyph-name=".null" horiz-adv-x="0" 
 />
    <glyph glyph-name="nonmarkingreturn" horiz-adv-x="333" 
 />
    <glyph glyph-name="space" unicode=" " horiz-adv-x="215" 
 />
    <glyph glyph-name="exclam" unicode="!" horiz-adv-x="220" 
d="M101 623l-2 66q0 7 3 11.5t8 4.5t8 -4.5t3 -11.5l-2 -66q-5 -182 -5 -298v-124q0 -3 -4 -3t-4 3v124q0 116 -5 298zM67 87q17 17 43 17t43 -17t17 -43t-17 -43t-43 -17t-43 17t-17 43t17 43zM73 7q15 -15 37 -15q23 0 37.5 15t14.5 37q0 23 -14.5 37.5t-37.5 14.5
q-22 0 -37 -14.5t-15 -37.5q0 -22 15 -37z" />
    <glyph glyph-name="quotedbl" unicode="&#x22;" horiz-adv-x="205" 
d="M137 461q0 82 -4 230q-1 14 -1 30q0 14 9 14t9 -14q0 -16 -1 -30q-4 -148 -4 -230q0 -5 -4 -5t-4 5zM60 461q0 82 -4 230q-1 14 -1 30q0 14 9 14t9 -14q0 -16 -1 -30q-4 -148 -4 -230q0 -5 -4 -5t-4 5z" />
    <glyph glyph-name="numbersign" unicode="#" horiz-adv-x="600" 
d="M330.5 -2.5q-1.5 2.5 -0.5 6.5l6 40q18 120 36 230l5 29q-22 1 -71 1h-26h-72l-5 -30q-22 -143 -28 -187l-7 -44q-1 -9 -7 -9q-3 0 -4.5 2.5t-0.5 6.5l38 231l5 30l-125 -2q-9 0 -9 6q0 18 37.5 31t105.5 24l9 56l-95 -2q-17 -1 -36 -1q-10 0 -10 6q0 7 11 7l131 -3
l11 67q15 94 28 198l3 28q2 14 12 14t8 -13q-7 -37 -10 -52q-26 -142 -32 -175l-11 -67h64h26h79l11 67q15 94 28 198l3 28q2 14 12 14t8 -13q-7 -37 -10 -52q-26 -142 -32 -175l-11 -67l121 2q9 0 9 -6q0 -10 -33.5 -17.5t-102.5 -16.5l-12 -76l84 3l43 2q10 0 10 -9
t-12 -9q-18 0 -34 1l-92 3l-5 -29q-12 -80 -19.5 -133t-11.5 -80q-3 -18 -4.5 -32.5t-3.5 -24.5q-1 -9 -7 -9q-3 0 -4.5 2.5zM200 311l8 50q-65 -11 -100.5 -23t-35.5 -27h128zM280 311h26q50 0 72 1l12 75l-97 -13l-76 -12l-8 -51h71zM293 376l68 9q9 2 29 4l5 30h-104h-65
l-8 -54zM523 419h-119l-4 -28q123 16 123 28z" />
    <glyph glyph-name="dollar" unicode="$" horiz-adv-x="560" 
d="M270 12l1 27q2 16 4 60h-3q-73 0 -129 17.5t-86 39.5q-7 6 -7 12q0 10 10 10q5 0 12 -5q4 -3 25 -21t68 -31.5t111 -13.5q1 19 1 68v204q-71 15 -112 27.5t-69.5 37.5t-28.5 66q0 110 206 117l-2 41l-2 50q0 7 3 12t8 5t8 -5t3 -12l-2 -51l-2 -39h17q57 0 106 -6t49 -18
q0 -7 -8 -7q-7 0 -25 3q-86 9 -139 10q-3 -58 -3 -135v-90q71 -14 115.5 -29t75 -44t30.5 -77q0 -68 -59.5 -101t-159.5 -35q2 -44 4 -60l1 -27q0 -7 -3 -12t-8 -5q-10 0 -10 17zM102 448.5q27 -23.5 67 -35.5t108 -26v88q0 78 -3 135h-12h-32q-75 0 -115 -27t-40 -73
q0 -38 27 -61.5zM285 107q95 2 153.5 33t58.5 95q0 45 -29 72.5t-72.5 42t-111.5 28.5v-203q0 -49 1 -68z" />
    <glyph glyph-name="percent" unicode="%" horiz-adv-x="840" 
d="M139.5 -11q-2.5 5 1.5 9l33 42q136 172 194 251q43 59 119 159q96 128 143 193q35 48 59 65h-484q-39 0 -71.5 -18.5t-51.5 -50.5t-19 -72q0 -39 19 -71.5t51.5 -51t71.5 -18.5q40 0 72 18.5t50 50.5t18 71q0 18 -18 42q-3 5 -3 7q0 5 4 8t9 3q10 0 14 -20t4 -39
q0 -41 -20 -75.5t-54.5 -54t-75.5 -19.5t-75.5 19.5t-54.5 54t-20 75.5t20 75.5t54.5 54t75.5 19.5h478q7 0 17 2t15 2q14 0 14 -9q0 -4 -4 -6.5t-9 -2.5q-20 0 -37.5 -16t-37.5 -43q-61 -84 -165 -221q-20 -26 -44.5 -58.5t-56.5 -75.5q-28 -37 -157 -214q-35 -49 -62 -85
q-4 -5 -9 -5t-7.5 5zM505 208.5q20 34.5 54.5 54t75.5 19.5t75.5 -19.5t54.5 -54t20 -75.5t-20 -75.5t-54.5 -54t-75.5 -19.5t-75.5 19.5t-54.5 54t-20 75.5t20 75.5zM512 61.5q19 -32.5 51.5 -51t71.5 -18.5t71.5 18.5t51.5 51t19 71.5t-19 71.5t-51.5 51t-71.5 18.5
t-71.5 -18.5t-51.5 -51t-19 -71.5t19 -71.5z" />
    <glyph glyph-name="ampersand" unicode="&#x26;" horiz-adv-x="895" 
d="M408 -4q0 8 13 8q5 0 15 -2t21 -2q31 0 40.5 15t9.5 53v181q-21 -18 -39 -40.5t-48 -62.5q-39 -53 -67.5 -85t-65.5 -54.5t-82 -22.5q-41 0 -75 19t-54.5 53t-20.5 77q0 65 45 107t120 50q-41 10 -66.5 41t-25.5 73q0 47 33 79.5t96 32.5q31 0 58.5 -9.5t44 -22
t16.5 -21.5q0 -6 -7 -6q-5 0 -12 6t-8 7q-20 17 -39.5 27.5t-52.5 10.5q-59 0 -90 -30t-31 -74q0 -47 33 -78t82 -31h298q66 0 108 4l25 1q7 0 12 -2.5t5 -6.5t-5 -6.5t-12 -2.5l-32 2q-48 3 -53 3q-42 0 -82 -32v-190q0 -29 -6 -44.5t-21 -20.5h21q76 0 150.5 41t123.5 120
t49 186q0 116 -54 197.5t-138.5 122.5t-176.5 41q-64 0 -106.5 -15.5t-79.5 -38.5q-21 -13 -28 -13q-8 0 -8 7q0 11 31 27.5t81.5 28.5t107.5 12q95 0 182 -42t142 -125.5t55 -201.5q0 -108 -50 -189t-127 -123.5t-154 -42.5h-44q-16 0 -26.5 -2t-17.5 -2q-13 0 -13 8z
M82.5 59q19.5 -32 52 -49.5t70.5 -17.5q43 0 79.5 21.5t64 52.5t65.5 83q43 59 75 92.5t70 45.5h-308q-85 0 -136.5 -42.5t-51.5 -111.5q0 -42 19.5 -74z" />
    <glyph glyph-name="quotesingle" unicode="'" horiz-adv-x="128" 
d="M60 461q0 82 -4 230q-1 14 -1 30q0 14 9 14t9 -14q0 -16 -1 -30q-4 -148 -4 -230q0 -5 -4 -5t-4 5z" />
    <glyph glyph-name="parenleft" unicode="(" horiz-adv-x="425" 
d="M213 -12.5q-72 51.5 -115 146t-43 217.5t43 217.5t115 146t156 51.5q6 0 6 -6t-6 -6q-81 0 -151 -50t-112.5 -142t-42.5 -211t42.5 -211t112.5 -142t151 -50q6 0 6 -6t-6 -6q-84 0 -156 51.5z" />
    <glyph glyph-name="parenright" unicode=")" horiz-adv-x="425" 
d="M212 714.5q72 -51.5 115 -146t43 -217.5t-43 -217.5t-115 -146t-156 -51.5q-6 0 -6 6t6 6q81 0 151 50t112.5 142t42.5 211t-42.5 211t-112.5 142t-151 50q-6 0 -6 6t6 6q84 0 156 -51.5z" />
    <glyph glyph-name="asterisk" unicode="*" horiz-adv-x="390" 
d="M100 428q-4 0 -7.5 3.5t-3.5 7.5q0 5 5 10q3 2 23 20t54 54q2 2 5 -0.5t1 -5.5q-32 -35 -48.5 -57.5t-19.5 -26.5q-5 -5 -9 -5zM50 593q0 3 3 6t7 3q3 0 25 -10q40 -20 75 -33q3 -1 2 -5t-4 -3q-41 15 -67.5 22.5t-32.5 9.5q-8 3 -8 10zM195 705q10 0 10 -13q0 -8 -3 -37
t-3 -70q0 -3 -4 -3t-4 3q0 41 -3 70t-3 37q0 13 10 13zM214 522.5q3 2.5 5 0.5q34 -36 54 -54t23 -20q5 -4 5 -10q0 -4 -3.5 -7.5t-7.5 -3.5q-6 0 -9 5q-3 4 -19.5 26.5t-48.5 57.5q-2 3 1 5.5zM295 586q25 12 31 15l4 1q4 0 6.5 -3t2.5 -7q0 -6 -7 -9q-6 -2 -32.5 -9.5
t-67.5 -22.5q-3 -1 -4 3t2 5q40 15 65 27z" />
    <glyph glyph-name="plus" unicode="+" horiz-adv-x="561" 
d="M35 276h242v242h8v-242h241v-8h-241v-240h-8v240h-242v8z" />
    <glyph glyph-name="comma" unicode="," horiz-adv-x="195" 
d="M45 -86q0 5 6 5q26 0 43.5 4t30.5 20.5t13 52.5q0 51 -32 123v2q0 4 4.5 5.5t6.5 -1.5q12 -29 20 -58.5t8 -68.5q0 -93 -88 -93q-12 0 -12 9z" />
    <glyph glyph-name="hyphen" unicode="-" horiz-adv-x="660" 
d="M35 276h590v-8h-590v8z" />
    <glyph glyph-name="period" unicode="." horiz-adv-x="220" 
d="M67 1q-17 17 -17 43t17 43t43 17t43 -17t17 -43t-17 -43t-43 -17t-43 17zM73 7q15 -15 37 -15q23 0 37.5 15t14.5 37q0 23 -14.5 37.5t-37.5 14.5q-22 0 -37 -14.5t-15 -37.5q0 -22 15 -37z" />
    <glyph glyph-name="slash" unicode="/" horiz-adv-x="283" 
d="M60 -145q1 9 8 40q20 102 37 204l64 411q9 54 26 188l7 56q1 7 4.5 11.5t8.5 4.5q10 0 8 -16q-1 -11 -8 -41q-23 -108 -38 -203l-64 -411q-15 -95 -25 -189q-6 -50 -7 -55q-1 -7 -4.5 -11.5t-8.5 -4.5q-10 0 -8 16z" />
    <glyph glyph-name="zero" unicode="0" horiz-adv-x="860" 
d="M245 30q-86 46 -138 129.5t-52 191.5q0 107 52 190t138 129t185 46t185 -46t138 -129t52 -190q0 -108 -52 -191.5t-138 -129.5t-185 -46t-185 46zM114 163q51 -82 135.5 -126.5t180.5 -44.5t180.5 44.5t135.5 126.5t51 188q0 105 -51 186.5t-135.5 126t-180.5 44.5
t-180.5 -44.5t-135.5 -126t-51 -186.5q0 -106 51 -188z" />
    <glyph glyph-name="one" unicode="1" horiz-adv-x="385" 
d="M50 5q0 10 19 10q6 0 28 -2.5t75 -2.5q30 0 38.5 13.5t8.5 52.5v618q-71 -49 -128 -101q-4 -3 -11 -9t-11 -8t-7 -2q-8 0 -8 8q0 6 7 11.5t25 16.5q47 31 61 42q75 57 80 57q6 0 6 -7q0 -6 -3 -28.5t-3 -69.5v-531q0 -30 -5.5 -45t-19.5 -19h40q39 0 59.5 2.5t27.5 2.5
q21 0 21 -9q0 -8 -21 -8q-7 0 -27.5 1.5t-59.5 1.5h-32q-84 0 -110 -2t-31 -2q-19 0 -19 9z" />
    <glyph glyph-name="two" unicode="2" horiz-adv-x="680" 
d="M564 -2q-92 2 -209 2h-305q0 81 42.5 138t103.5 93.5t161 81.5q85 38 134 66t82 67.5t33 92.5q0 52 -33 90.5t-92 58.5t-134 20q-72 0 -119.5 -17t-72 -37.5t-45.5 -47.5q-15 -20 -22 -20t-7 7q0 15 30.5 45t90.5 54t146 24q77 0 137 -21t94.5 -61t34.5 -95
q0 -56 -34 -97.5t-85 -70t-136 -67.5q-97 -45 -156 -79.5t-100.5 -88t-42.5 -128.5h295q101 0 165 5t71 5l21 2h3q15 0 15 -10q0 -12 -19 -12h-47z" />
    <glyph glyph-name="three" unicode="3" horiz-adv-x="700" 
d="M212.5 1.5q-60.5 17.5 -102.5 45t-58 55.5q-2 4 -2 6q0 4 3 7.5t7 3.5q8 0 13 -9q18 -29 55 -55.5t93 -44.5t125 -18q75 0 141.5 22.5t108 69.5t41.5 115q0 86 -67 135.5t-177 49.5l-48 -1q-19 0 -19 11t18 11q9 0 28.5 -2t45.5 -2q51 0 90 19t60.5 52t21.5 73
q0 44 -26.5 81t-81.5 59.5t-136 22.5q-73 0 -120.5 -17t-72 -38t-44.5 -47q-6 -8 -11.5 -14t-9.5 -6q-7 0 -7 7q0 16 29.5 45.5t89.5 53.5t146 24q83 0 140 -23.5t84.5 -62t27.5 -84.5q0 -41 -21.5 -75.5t-65 -56t-107.5 -21.5q-1 0 -1.5 -1.5t0.5 -1.5q106 0 174 -50.5
t68 -140.5q0 -71 -42.5 -119.5t-111 -72t-147.5 -23.5q-71 0 -131.5 17.5z" />
    <glyph glyph-name="four" unicode="4" horiz-adv-x="690" 
d="M599 195q-54 3 -79 3h-10v-125q0 -30 -5.5 -45t-19.5 -19h52q39 0 59.5 2.5t27.5 2.5q21 0 21 -9q0 -8 -21 -8q-7 0 -27.5 1.5t-59.5 1.5h-44q-83 0 -108.5 -2t-30.5 -2q-19 0 -19 9q0 10 19 10q6 0 28 -2.5t73 -2.5q30 0 38.5 13.5t8.5 52.5v122h-477l220 324
q28 41 66 104q17 29 24 39t14 10q9 0 9 -9q0 -5 -7.5 -15.5t-18.5 -24.5q-48 -61 -81 -109l-211 -311h462v289q0 52 -2 105.5t-2 72.5l-2 45q0 17 10 17q4 0 7 -5t3 -12l-2 -45q0 -19 -2 -72.5t-2 -105.5v-289h10q34 0 79 5q22 2 27 2q19 0 19 -10t-19 -10q-5 0 -27 2z" />
    <glyph glyph-name="five" unicode="5" horiz-adv-x="700" 
d="M212.5 1.5q-60.5 17.5 -102.5 45t-58 55.5q-2 4 -2 6q0 4 3 7.5t7 3.5q8 0 13 -9q28 -46 99 -82t174 -36q75 0 141.5 22.5t108 69.5t41.5 115q0 87 -66.5 135.5t-177.5 48.5h-217q-22 0 -39 -1t-24 -1q-8 0 -6 9q7 38 19 152q10 93 12 151q0 9 9 9q13 0 21 -1l62 -1h80
q117 0 209 2h47q19 0 19 -11q0 -10 -15 -10l-40 2q-101 9 -220 9h-161l-31 -301h285q106 0 174 -51t68 -141q0 -71 -42.5 -119.5t-111 -72t-147.5 -23.5q-71 0 -131.5 17.5z" />
    <glyph glyph-name="six" unicode="6" horiz-adv-x="730" 
d="M211.5 27.5q-74.5 43.5 -115.5 127t-41 200.5q0 103 34 184t108 129t189 48q87 0 148.5 -23.5t93 -54t31.5 -46.5q0 -8 -9 -8q-4 0 -10 6t-13 14q-23 27 -48 48.5t-73.5 38.5t-119.5 17q-166 0 -244.5 -99t-78.5 -254q0 -115 40.5 -197t113 -124t168.5 -42q73 0 138.5 25
t107 76.5t41.5 126.5q0 73 -39.5 121.5t-104 71.5t-141.5 23q-64 0 -120.5 -16t-93.5 -47q-8 -7 -16 -15.5t-11 -11.5q-5 -6 -10 -10.5t-9 -4.5q-3 0 -5.5 2t-2.5 6q0 11 28 34q42 35 105.5 53t134.5 18q81 0 147.5 -24t106 -74.5t39.5 -125.5q0 -78 -42 -131t-109.5 -79
t-143.5 -26q-99 0 -173.5 43.5z" />
    <glyph glyph-name="seven" unicode="7" horiz-adv-x="620" 
d="M156.5 0q-3.5 5 0.5 12l35 52q81 120 135 206l265 422h-77q-270 0 -430 -10l-21 -1q-19 0 -19 10q0 11 19 11h98l357 -2l60 1q9 1 21 1q5 0 5 -3t-4 -9q-53 -80 -143 -225l-123 -195q-66 -104 -132 -223l-20 -35q-6 -10 -9.5 -13.5t-8.5 -3.5t-8.5 5z" />
    <glyph glyph-name="eight" unicode="8" horiz-adv-x="730" 
d="M146 27q-91 43 -91 142q0 60 37 99t91 56.5t107 17.5q12 0 18 -1.5t6 -7.5q0 -8 -16 -8q-92 0 -163.5 -36t-71.5 -120q0 -95 89 -136t213 -41q126 0 214 42t88 132q0 63 -40.5 101.5t-99.5 58.5t-157 42q-94 21 -149.5 39.5t-93 52.5t-37.5 90q0 84 79 125t191 41
q116 0 197 -41t81 -125q0 -47 -28 -88t-81 -66t-124 -25l-21 1q94 -21 153 -42t98.5 -60.5t39.5 -103.5q0 -94 -90 -138t-220 -44q-128 0 -219 43zM149.5 451.5q51.5 -34.5 148.5 -59.5q53 -13 107 -13q69 0 120 24t78 63t27 84q0 80 -79 119t-191 39q-108 0 -185 -39.5
t-77 -118.5q0 -64 51.5 -98.5z" />
    <glyph glyph-name="nine" unicode="9" horiz-adv-x="730" 
d="M518.5 672.5q74.5 -43.5 115.5 -127t41 -200.5q0 -103 -34 -184t-108 -129t-189 -48q-87 0 -148.5 23.5t-93 54t-31.5 46.5q0 8 9 8q4 0 10 -6t13 -14q23 -27 48 -48.5t73.5 -38.5t119.5 -17q166 0 244.5 99t78.5 254q0 115 -40.5 197t-113 124t-168.5 42
q-73 0 -138.5 -25t-107 -76.5t-41.5 -126.5q0 -73 39.5 -121.5t104 -71.5t141.5 -23q64 0 120.5 16t93.5 47q8 7 16 15.5t11 11.5q5 6 10 10.5t9 4.5q3 0 5.5 -2t2.5 -6q0 -11 -28 -34q-42 -35 -105.5 -53t-134.5 -18q-81 0 -147.5 24t-106 74.5t-39.5 125.5q0 78 42 131
t109.5 79t143.5 26q99 0 173.5 -43.5z" />
    <glyph glyph-name="colon" unicode=":" horiz-adv-x="220" 
d="M67 397q-17 17 -17 43t17 43t43 17t43 -17t17 -43t-17 -43t-43 -17t-43 17zM73 403q15 -15 37 -15q23 0 37.5 15t14.5 37q0 23 -14.5 37.5t-37.5 14.5q-22 0 -37 -14.5t-15 -37.5q0 -22 15 -37zM67 1q-17 17 -17 43t17 43t43 17t43 -17t17 -43t-17 -43t-43 -17t-43 17z
M73 7q15 -15 37 -15q23 0 37.5 15t14.5 37q0 23 -14.5 37.5t-37.5 14.5q-22 0 -37 -14.5t-15 -37.5q0 -22 15 -37z" />
    <glyph glyph-name="semicolon" unicode=";" horiz-adv-x="220" 
d="M67 397q-17 17 -17 43t17 43t43 17t43 -17t17 -43t-17 -43t-43 -17t-43 17zM73 403q15 -15 37 -15q23 0 37.5 15t14.5 37q0 23 -14.5 37.5t-37.5 14.5q-22 0 -37 -14.5t-15 -37.5q0 -22 15 -37zM50 -86q0 5 6 5q26 0 43.5 4t30.5 20.5t13 52.5q0 51 -32 123v2
q0 4 4.5 5.5t6.5 -1.5q12 -29 20 -58.5t8 -68.5q0 -93 -88 -93q-12 0 -12 9z" />
    <glyph glyph-name="less" unicode="&#x3c;" horiz-adv-x="660" 
d="M35 280q259 99 529 205l54 21l7 -11q-44 -16 -74 -28q-90 -33 -500 -187q347 -132 526 -194l32 -11q16 -5 16 -15q0 -6 -5.5 -9t-12.5 0q-160 70 -572 229z" />
    <glyph glyph-name="equal" unicode="=" horiz-adv-x="660" 
d="M35 216h590v-8h-590v8zM35 336h590v-8h-590v8z" />
    <glyph glyph-name="greater" unicode="&#x3e;" horiz-adv-x="660" 
d="M109 93q90 33 500 187q-347 132 -526 194l-32 11q-16 5 -16 15q0 6 5.5 9t12.5 0q160 -70 572 -229q-259 -99 -529 -205l-54 -21l-7 11q44 16 74 28z" />
    <glyph glyph-name="question" unicode="?" horiz-adv-x="450" 
d="M194.5 206.5q-24.5 8.5 -46 32t-21.5 63.5q0 36 18.5 62t45 43.5t70.5 40.5q42 21 67 37t42 39.5t17 55.5q0 36 -24.5 65t-69 45.5t-101.5 16.5q-33 0 -57 -5t-51 -13q-15 -6 -23 -6q-11 0 -11 8q0 12 42 18.5t90 6.5q103 0 158 -38t55 -98q0 -33 -17.5 -57.5t-43 -41
t-68.5 -38.5q-44 -23 -69.5 -40t-43.5 -42t-18 -59q0 -41 21 -57t55 -25q15 -4 21.5 -7t6.5 -9t-9 -6q-11 0 -35.5 8.5zM148 87q17 17 43 17t43 -17t17 -43t-17 -43t-43 -17t-43 17t-17 43t17 43zM154 7q15 -15 37 -15q23 0 37.5 15t14.5 37q0 23 -14.5 37.5t-37.5 14.5
q-22 0 -37 -14.5t-15 -37.5q0 -22 15 -37z" />
    <glyph glyph-name="at" unicode="@" horiz-adv-x="860" 
d="M242.5 29q-85.5 45 -136.5 128.5t-51 193.5q0 109 51 192t137 128t187 45q103 0 188.5 -45.5t136 -131t50.5 -201.5q0 -81 -24 -136t-71 -55q-77 0 -77 165q-16 -75 -68.5 -122.5t-140.5 -47.5q-64 0 -110 27t-70 74t-24 106q0 60 25 106.5t71 72.5t107 26q83 0 143 -52
q3 -3 3 -7t-3 -7t-7 -3q-2 0 -7 3q-36 30 -64 44t-67 14q-57 0 -101 -25t-68 -69.5t-24 -102.5q0 -56 23 -101.5t67 -71.5t106 -26q69 0 116 30.5t69.5 79.5t22.5 104q0 36 -5 88q-2 28 -2 36q0 17 10 17t10 -17q0 -6 -2 -34q-4 -46 -4 -108q0 -90 14.5 -140.5t56.5 -50.5
t64.5 52t22.5 131q0 114 -49.5 198t-133.5 128t-184 44q-98 0 -182 -43.5t-134.5 -125t-50.5 -188.5q0 -108 50.5 -189.5t134.5 -125.5t181 -44q111 0 184 61q5 3 7 3q6 0 8.5 -5.5t-1.5 -8.5q-33 -27 -84.5 -42.5t-113.5 -15.5q-101 0 -186.5 45z" />
    <glyph glyph-name="A" unicode="A" horiz-adv-x="820" 
d="M108.5 10q-25.5 18 -42 49t-16.5 66q0 36 19 67t57.5 49.5t92.5 18.5q76 0 200 -52.5t344 -200.5q-23 48 -196 368l-178 328l-90 -156q-62 -106 -112 -212q-7 -17 -18 -17q-7 0 -9.5 5.5t0.5 11.5l26 42q69 110 105 172l97 167h2l185 -340q84 -156 180 -321l21 -37
q4 -8 4 -14q0 -9 -10 -9q-6 0 -13 5q-219 148 -341 200t-197 52q-77 0 -119 -37t-42 -90q0 -43 24.5 -67t60.5 -39q4 -2 12.5 -5.5t12 -6t3.5 -5.5q0 -10 -14 -10q-23 0 -48.5 18z" />
    <glyph glyph-name="B" unicode="B" horiz-adv-x="695" 
d="M198.5 2.5q-62.5 18.5 -105.5 47t-59 57.5q-4 6 -4 11q0 10 10 10q6 0 13 -10q17 -30 57 -59t99 -48t129 -19q75 0 142 22.5t109.5 68.5t42.5 113q0 91 -79.5 139t-218.5 48l-48 -1q-19 0 -19 11t18 11q9 0 28.5 -2t45.5 -2q104 0 158.5 38.5t54.5 109.5q0 69 -51 106.5
t-140 37.5h-302v-217q0 -94 5 -209l2 -47q0 -19 -10 -19q-11 0 -11 19l1 47q5 115 5 209q0 107 -3 218q0 9 8 9q5 0 16 -1t26 -1h262q93 0 146.5 -39t53.5 -113q0 -79 -61 -117.5t-175 -38.5v-3q134 0 215 -49t81 -144q0 -69 -43 -117t-113 -71.5t-149 -23.5
q-74 0 -136.5 18.5z" />
    <glyph glyph-name="C" unicode="C" horiz-adv-x="835" 
d="M251 28q-88 44 -142 127t-54 196q0 112 53.5 194.5t141.5 126.5t189 44q65 0 121.5 -18t97.5 -46t61 -58q1 -1 1 -3q0 -5 -4.5 -7t-8.5 4q-35 48 -105.5 84t-163.5 36q-98 0 -184 -42.5t-138.5 -123.5t-52.5 -191q0 -111 53 -192.5t139 -124t183 -42.5q85 0 147.5 28.5
t98 64.5t68.5 81q12 17 19 25t12 8q7 0 7 -8q0 -17 -44.5 -69t-123 -95t-183.5 -43q-100 0 -188 44z" />
    <glyph glyph-name="D" unicode="D" horiz-adv-x="725" 
d="M188 3.5q-58 19.5 -97.5 47.5t-56.5 56q-4 6 -4 11q0 10 10 10q6 0 13 -10q30 -48 99 -87t168 -39q97 0 174.5 42.5t122.5 123t45 188.5q0 96 -37 174t-114.5 125t-192.5 47h-239v-217q0 -94 5 -209l2 -47q0 -19 -10 -19q-11 0 -11 19l1 47q5 115 5 209q0 107 -3 218
q0 9 8 9q5 0 16 -1t26 -1h200q118 0 197 -47.5t117 -128t38 -178.5q0 -110 -45.5 -192t-126 -126t-182.5 -44q-70 0 -128 19.5z" />
    <glyph glyph-name="E" unicode="E" horiz-adv-x="635" 
d="M362 -27.5q-34 3.5 -89 10.5q-67 8 -115.5 12.5t-111.5 4.5q-7 0 -17 -2t-15 -2q-14 0 -14 9q0 10 13 10q29 0 37 11.5t8 49.5v269q0 27 20 32q-8 1 -14 9t-6 23v56q0 115 -3 229q0 8 8 8q5 0 16 -1t26 -1h187q117 0 209 2h47q19 0 19 -11q0 -10 -15 -10l-40 2
q-101 9 -220 9h-226v-282q0 -15 7 -22.5t19 -7.5h78q95 0 247 5l59 1q11 0 15 -2t4 -7q0 -10 -19 -10l-59 1q-122 4 -247 4h-78q-26 0 -26 -29v-270q0 -29 -7.5 -45t-26.5 -20q67 0 125 -5t128 -14q10 -1 57 -6.5t85 -5.5q67 0 100 13.5t53 36.5q7 8 12 8q8 0 8 -9t-7 -17
q-35 -40 -157 -40q-40 0 -74 3.5z" />
    <glyph glyph-name="F" unicode="F" horiz-adv-x="625" 
d="M65 14l1 47q5 115 5 209v75q0 27 20 32q-8 1 -14 9t-6 23v56q0 115 -3 229q0 8 8 8q5 0 16 -1t26 -1h187q117 0 209 2h47q19 0 19 -11q0 -10 -15 -10l-40 2q-101 9 -220 9h-226v-282q0 -30 26 -30h78q95 0 247 5l59 1q11 0 15 -2t4 -7q0 -10 -19 -10l-59 1q-122 4 -247 4
h-78q-26 0 -26 -29v-73q0 -94 5 -209l2 -47q0 -19 -10 -19q-11 0 -11 19z" />
    <glyph glyph-name="G" unicode="G" horiz-adv-x="835" 
d="M242 27.5q-85 43.5 -136 127t-51 196.5q0 112 53.5 194.5t141.5 126.5t189 44q65 0 121.5 -18t97.5 -46t61 -58q1 -1 1 -3q0 -5 -4.5 -7t-8.5 4q-35 48 -105.5 84t-163.5 36q-98 0 -184 -42.5t-138.5 -123.5t-52.5 -191q0 -111 50 -192.5t133 -124t180 -42.5
q110 0 184 48.5t109.5 120t35.5 138.5q0 16 8 16q9 0 9 -26l-1 -29q-3 -66 -3 -100q0 -49 5 -109q2 -30 2 -37q0 -19 -11 -19q-10 0 -10 19q0 7 2 37q4 48 4 109q0 42 -2 84q-14 -69 -56 -128t-112.5 -95.5t-162.5 -36.5q-100 0 -185 43.5z" />
    <glyph glyph-name="H" unicode="H" horiz-adv-x="670" 
d="M584 14l2 47q5 115 5 209v83h-512v-83q0 -94 5 -209l2 -47q0 -19 -11 -19q-10 0 -10 19l1 47q5 115 5 209v167q0 93 -5 203l-1 46q0 19 10 19q11 0 11 -19l-2 -46q-5 -110 -5 -203v-76h512v76q0 93 -5 203l-2 46q0 19 11 19q10 0 10 -19l-1 -46q-5 -110 -5 -203v-167
q0 -94 5 -209l1 -47q0 -19 -10 -19q-11 0 -11 19z" />
    <glyph glyph-name="I" unicode="I" horiz-adv-x="285" 
d="M35 5q0 10 19 10q5 0 14.5 -2.5t23.5 -2.5q30 0 38.5 13.5t8.5 52.5v551q0 30 5.5 45t19.5 19h-23q-37 0 -57.5 -2.5t-27.5 -2.5q-21 0 -21 9q0 8 21 8q7 0 27.5 -1.5t57.5 -1.5h14q39 0 54.5 2t21.5 2q19 0 19 -9q0 -10 -19 -10q-5 0 -14.5 2.5t-23.5 2.5
q-29 0 -37.5 -13.5t-8.5 -52.5v-551q0 -30 -5.5 -45t-19.5 -19h22q37 0 57.5 2.5t27.5 2.5q21 0 21 -9q0 -8 -21 -8q-7 0 -27.5 1.5t-57.5 1.5h-14q-39 0 -54.5 -2t-21.5 -2q-19 0 -19 9z" />
    <glyph glyph-name="J" unicode="J" horiz-adv-x="425" 
d="M45 -1q0 8 13 8l23 -1q21 -3 47 -3q63 0 95.5 25.5t44 72t11.5 122.5v404q0 30 5.5 45t19.5 19h-23q-129 0 -159.5 -2.5t-35.5 -2.5q-21 0 -21 9q0 8 21 8q5 0 35.5 -1.5t159.5 -1.5h14q39 0 54.5 2t21.5 2q19 0 19 -9q0 -10 -19 -10q-5 0 -14.5 2.5t-23.5 2.5
q-29 0 -37.5 -13.5t-8.5 -52.5v-402q0 -79 -14 -129t-55 -78t-119 -28q-54 0 -54 12z" />
    <glyph glyph-name="K" unicode="K" horiz-adv-x="735" 
d="M122 9h22q37 0 57.5 2.5t27.5 2.5q21 0 21 -9q0 -8 -21 -8q-7 0 -27.5 1.5t-57.5 1.5h-14q-39 0 -54.5 -2t-21.5 -2q-19 0 -19 9q0 10 19 10q5 0 14.5 -2.5t23.5 -2.5q30 0 38.5 13.5t8.5 52.5v551q0 30 5.5 45t19.5 19h-23q-37 0 -57.5 -2.5t-27.5 -2.5q-21 0 -21 9
q0 8 21 8q7 0 27.5 -1.5t57.5 -1.5h14q39 0 54.5 2t21.5 2q19 0 19 -9q0 -10 -19 -10q-5 0 -14.5 2.5t-23.5 2.5q-29 0 -37.5 -13.5t-8.5 -52.5v-551q0 -20 -3 -34l436 546q55 68 78.5 94t34.5 26q7 0 7 -7q0 -4 -10.5 -13.5t-14.5 -13.5q-54 -46 -89 -91l-196 -244
l237 -256q22 -25 39.5 -40t21.5 -19q17 -13 17 -19q0 -7 -7 -7q-5 0 -11 5.5t-18 21.5l-47 53l-236 255l-249 -311q-5 -7 -15 -10z" />
    <glyph glyph-name="L" unicode="L" horiz-adv-x="705" 
d="M348 -18q-78 9 -131 13.5t-129 4.5q-16 0 -27 -2t-18 -2q-18 0 -18 9q0 10 18 10q5 0 15.5 -2.5t20.5 -2.5q30 0 40.5 15.5t10.5 50.5v361q0 93 -5 203l-1 46q0 19 11 19q10 0 10 -19l-2 -46q-5 -110 -5 -203v-364q0 -29 -7.5 -44.5t-24.5 -20.5q66 0 123 -5t127 -14
q38 -5 76 -8.5t66 -3.5q67 0 99.5 13.5t52.5 36.5q7 8 12 8q8 0 8 -9t-7 -17q-35 -40 -156 -40q-61 0 -159 13z" />
    <glyph glyph-name="M" unicode="M" horiz-adv-x="920" 
d="M65 14q0 5 0.5 18.5t0.5 40.5q5 168 5 272q0 107 -1 205t-2 149q0 6 6 6q4 0 8 -8l375 -684q3 -6 6 0l375 684q4 8 8 8q6 0 6 -6q-1 -51 -2 -149t-1 -205q0 -104 5 -272q0 -27 0.5 -40.5t0.5 -18.5q0 -19 -10 -19q-11 0 -11 19l2 59q5 168 5 272v340l-374 -681
q-3 -4 -7 -4t-7 4l-374 681v-340q0 -104 5 -272l2 -59q0 -19 -11 -19q-10 0 -10 19z" />
    <glyph glyph-name="N" unicode="N" horiz-adv-x="710" 
d="M65 14q0 5 0.5 18.5t0.5 40.5q5 168 5 272l-1 276q-1 38 -1 79q0 5 4 5t8 -6l550 -685v341q0 105 -5 272l-2 59q0 19 11 19q10 0 10 -19q0 -5 -0.5 -18.5t-0.5 -40.5q-5 -167 -5 -272l1 -276q1 -38 1 -79q0 -5 -4 -5q-3 0 -8 6l-550 685v-341q0 -104 5 -272l2 -59
q0 -19 -11 -19q-10 0 -10 19z" />
    <glyph glyph-name="O" unicode="O" horiz-adv-x="860" 
d="M245 30q-86 46 -138 129.5t-52 191.5q0 107 52 190t138 129t185 46t185 -46t138 -129t52 -190q0 -108 -52 -191.5t-138 -129.5t-185 -46t-185 46zM114 163q51 -82 135.5 -126.5t180.5 -44.5t180.5 44.5t135.5 126.5t51 188q0 105 -51 186.5t-135.5 126t-180.5 44.5
t-180.5 -44.5t-135.5 -126t-51 -186.5q0 -106 51 -188z" />
    <glyph glyph-name="P" unicode="P" horiz-adv-x="635" 
d="M65 14q0 20 1 39q5 120 5 262q0 108 -1 215t-2 164q0 8 8 8q5 0 16 -1t26 -1h203q119 0 189 -48t70 -147q0 -100 -70.5 -150t-188.5 -50h-162q-24 0 -24 12q0 10 16 10q6 0 38 -7t132 -7q114 0 182.5 49t68.5 143q0 95 -67.5 141t-182.5 46h-243v-377q0 -118 6 -262
l1 -39q0 -19 -11 -19q-10 0 -10 19z" />
    <glyph glyph-name="Q" unicode="Q" horiz-adv-x="850" 
d="M846 -176.5q-52 24.5 -97 59.5t-112 95l-47 42q-77 -34 -166 -34q-68 0 -111 21t-43 66q0 34 25 54t68 20q54 0 107 -30t121 -87q94 43 150 126.5t56 194.5q0 104 -51 185.5t-135 126.5t-181 45t-181.5 -45t-135 -126.5t-50.5 -185.5q0 -94 31 -148t76 -94l14.5 -14.5
t6.5 -10.5q0 -7 -7 -7q-14 0 -46 34.5t-57.5 96.5t-25.5 143q0 106 51.5 189.5t138 129.5t185.5 46t185.5 -46t138 -129.5t51.5 -189.5q0 -112 -56.5 -197.5t-150.5 -129.5l34 -29q67 -58 114 -92.5t102.5 -59t114.5 -24.5q12 0 12 -9q0 -5 -6 -8t-17 -3q-54 0 -106 24.5z
M320 12q42 -18 103 -18q85 0 160 32q-63 54 -115 83.5t-104 29.5q-38 0 -62 -17.5t-24 -48.5q0 -43 42 -61z" />
    <glyph glyph-name="R" unicode="R" horiz-adv-x="670" 
d="M65 14q0 20 1 39q5 120 5 262q0 108 -1 215t-2 164q0 8 8 8q5 0 16 -1t26 -1h203q119 0 189 -48t70 -147q0 -100 -70 -150t-187 -50q24 -7 47 -31l156 -167q36 -39 76 -74q11 -10 17 -16.5t6 -11.5q0 -10 -9 -10q-6 0 -12 6t-21 24q-33 43 -64 76l-155 169
q-20 21 -40.5 28t-58.5 7h-106q-24 0 -24 12q0 10 16 10q6 0 38 -7t132 -7q114 0 182.5 49t68.5 143q0 95 -67.5 141t-182.5 46h-243v-377q0 -118 6 -262l1 -39q0 -19 -11 -19q-10 0 -10 19z" />
    <glyph glyph-name="S" unicode="S" horiz-adv-x="710" 
d="M177 10q-67 26 -97 59t-30 53q0 10 8 10t20 -22q20 -31 45 -55t80.5 -43.5t146.5 -19.5q124 0 210.5 42.5t86.5 126.5q0 55 -39.5 93.5t-96 62t-152.5 53.5q-94 29 -148.5 52t-92 59t-37.5 88q0 147 310 147q85 0 147.5 -11.5t62.5 -25.5q0 -7 -10 -7q-12 0 -33 6
q-44 9 -86.5 14.5t-112.5 5.5q-120 0 -195 -25.5t-75 -102.5q0 -50 36.5 -84.5t90.5 -57t145 -50.5q98 -31 156 -55t98 -64t40 -98q0 -89 -88 -133t-218 -44q-105 0 -172 26z" />
    <glyph glyph-name="T" unicode="T" horiz-adv-x="695" 
d="M177 5q0 10 19 10q6 0 28 -2.5t73 -2.5q30 0 38.5 13.5t8.5 52.5v616h-29q-92 0 -215 -8l-46 -2q-19 0 -19 10t19 10h46q92 -2 215 -2h65q123 0 215 2h46q19 0 19 -10t-19 -10l-46 2q-123 8 -215 8h-28v-619q0 -30 -5.5 -45t-19.5 -19h75q39 0 59.5 2.5t27.5 2.5
q21 0 21 -9q0 -8 -21 -8q-7 0 -27.5 1.5t-59.5 1.5h-67q-83 0 -108.5 -2t-30.5 -2q-19 0 -19 9z" />
    <glyph glyph-name="U" unicode="U" horiz-adv-x="770" 
d="M153.5 60q-82.5 76 -82.5 221v156q0 93 -5 203l-1 46q0 19 10 19q11 0 11 -19l-2 -46q-5 -110 -5 -203v-156q0 -142 80 -215.5t226 -73.5t226 73.5t80 215.5v156q0 93 -5 203l-2 46q0 19 11 19q10 0 10 -19l-1 -46q-5 -110 -5 -203v-156q0 -145 -82.5 -221t-231.5 -76
t-231.5 76z" />
    <glyph glyph-name="V" unicode="V" horiz-adv-x="815" 
d="M48 681q-3 5 -3 10q0 10 12 10q8 0 13 -12l21 -44q71 -150 158 -317l172 -329l62 102q137 224 188.5 310.5t70.5 127t19 65.5q0 53 -50.5 72.5t-131.5 19.5q-48 0 -97 -7l-25 -2q-6 0 -8 2t-2 5q0 5 6 8q9 5 37.5 9.5t74.5 4.5q84 0 144.5 -24t60.5 -88q0 -27 -22 -73.5
t-83.5 -148t-231.5 -376.5l-12 -20h-1l-179 340q-104 198 -193 355z" />
    <glyph glyph-name="W" unicode="W" horiz-adv-x="1185" 
d="M48 681q-3 5 -3 10q0 10 12 10q8 0 13 -12l26 -55q73 -159 148 -306l167 -329l204 339q-150 293 -180 344q-3 6 -3 11q0 7 8 11q7 4 37.5 8t72.5 4q84 0 144.5 -24t60.5 -88q0 -28 -25 -80t-106 -187l5 -9l167 -329q17 28 55 92q137 227 189 315t71.5 130.5t19.5 67.5
q0 53 -50.5 72.5t-131.5 19.5q-48 0 -97 -7l-25 -2q-6 0 -8 2t-2 5q0 5 6 8q9 5 37.5 9.5t74.5 4.5q84 0 144.5 -24t60.5 -88q0 -28 -23.5 -77t-86 -154t-234.5 -387h-1l-174 340l-2 3q-8 -14 -177 -293l-31 -50h-1l-174 340q-119 234 -188 355zM620 346q78 132 102 181.5
t24 76.5q0 92 -182 92q-78 0 -116 -9q45 -92 172 -341z" />
    <glyph glyph-name="X" unicode="X" horiz-adv-x="645" 
d="M429 439q90 103 126 149.5t36 68.5t-27 30.5t-73 8.5q-40 0 -87 -7l-24 -2q-6 0 -8 2t-2 5q0 5 6 8q9 5 35.5 9.5t65.5 4.5q123 0 123 -57q0 -22 -31.5 -63.5t-110.5 -132.5l-63 -73l-55 -64l15 -20q100 -131 229 -294q3 -3 3 -8q0 -9 -10 -9q-8 0 -15 11
q-116 170 -213 297l-13 18l-273 -320h-13l281 325l-48 64q-100 131 -229 294q-3 3 -3 8q0 9 10 9q8 0 15 -11q116 -170 213 -297l47 -62l52 61z" />
    <glyph glyph-name="Y" unicode="Y" horiz-adv-x="790" 
d="M377 -192q-62 24 -62 88q0 41 71 152l-145 278q-92 178 -193 355q-3 5 -3 10q0 4 3 7t9 3q8 0 13 -12l21 -44q10 -20 53 -108.5t105 -208.5l142 -272q35 54 135 196q104 145 157 229.5t53 122.5q0 55 -49.5 73.5t-132.5 18.5q-48 0 -97 -7l-25 -2q-6 0 -8 2t-2 5q0 5 6 8
q9 5 37.5 9.5t74.5 4.5q84 0 144.5 -24t60.5 -88q0 -38 -52.5 -121.5t-157.5 -231.5q-106 -149 -158.5 -232.5t-52.5 -122.5q0 -54 50 -72.5t128 -18.5q57 0 108 7q12 1 20 1.5t10 -1.5t2 -5q0 -6 -9 -10q-10 -4 -37 -8.5t-72 -4.5q-85 0 -147 24z" />
    <glyph glyph-name="Z" unicode="Z" horiz-adv-x="745" 
d="M109.5 33q23.5 18 41.5 42l409 549q14 19 33.5 36.5t36.5 26.5q-37 5 -92 5h-206q-119 0 -186 -5t-75 -6h-3q-16 0 -16 12q0 9 19 9h46q92 -2 215 -2h206q59 0 84 3t34 3q11 0 16.5 -2t5.5 -8q0 -12 -25 -12q-19 0 -42.5 -18.5t-41.5 -42.5l-410 -549q-15 -20 -34 -37
t-36 -24q38 -5 91 -5h416q49 0 70.5 14t21.5 42q0 15 -6 35.5t-18 51.5q-2 4 -2 12q0 10 8 10q10 0 16 -17q10 -25 14.5 -42.5t4.5 -34.5q0 -36 -23.5 -57.5t-77.5 -21.5h-424q-58 0 -82.5 -2.5t-32.5 -2.5q-12 0 -18.5 2t-6.5 8q0 10 25 10q21 0 44.5 18z" />
    <glyph glyph-name="bracketleft" unicode="[" horiz-adv-x="255" 
d="M65 -55q3 111 3 228v358q0 117 -3 228q0 9 8 9q5 0 16 -1t26 -1l46 1q13 1 40 1q19 0 19 -7t-19 -7q-14 0 -40 2t-46 2h-39v-812h39q20 0 46 2t40 2q19 0 19 -7t-19 -7q-27 0 -40 1l-46 1q-15 0 -26 -1t-16 -1q-8 0 -8 9z" />
    <glyph glyph-name="backslash" unicode="\" horiz-adv-x="283" 
d="M206.5 -156.5q-3.5 4.5 -4.5 11.5q-1 5 -7 55q-10 94 -25 189l-64 411q-15 95 -38 203q-7 30 -8 41v4q0 12 8 12q5 0 8.5 -4.5t4.5 -11.5l7 -56q18 -134 26 -188l64 -411q17 -102 37 -204q7 -31 8 -40v-4q0 -12 -8 -12q-5 0 -8.5 4.5z" />
    <glyph glyph-name="bracketright" unicode="]" horiz-adv-x="255" 
d="M190 759q-3 -111 -3 -228v-358q0 -117 3 -228q0 -9 -8 -9q-5 0 -16 1t-26 1l-46 -1q-13 -1 -40 -1q-19 0 -19 7t19 7q14 0 40 -2t46 -2h39v812h-39q-20 0 -46 -2t-40 -2q-19 0 -19 7t19 7q27 0 40 -1l46 -1q15 0 26 1t16 1q8 0 8 -9z" />
    <glyph glyph-name="asciicircum" unicode="^" horiz-adv-x="445" 
d="M351 513l-123 193q-99 -150 -140 -226q-3 -6 -11 -20q-7 -11 -16 -11q-4 0 -7.5 3.5t-3.5 7.5t3 8q2 4 6.5 9.5t10.5 14.5q50 63 158 224q64 -96 156 -232l21 -30l-12 -7q-17 25 -42 66z" />
    <glyph glyph-name="underscore" unicode="_" horiz-adv-x="660" 
d="M35 0h590v-8h-590v8z" />
    <glyph glyph-name="grave" unicode="`" horiz-adv-x="248" 
d="M20 702q0 4 3 7t7 3q6 0 11 -4l187 -131l-2 -3l-197 116q-9 5 -9 12z" />
    <glyph glyph-name="a" unicode="a" horiz-adv-x="665" 
d="M99 14q-49 30 -49 93q0 48 35 80t121 47l117 20q71 12 110.5 29t55.5 42t16 63q0 62 -37 84.5t-103 22.5h-54q-76 0 -166 -9l-24 -2q-8 0 -8 7q0 22 172 22q86 0 134.5 -10.5t71 -37t22.5 -75.5q0 -43 -18 -70.5t-59 -44.5t-113 -29l-117 -20q-82 -14 -115 -44t-33 -75
q0 -60 47 -87.5t130 -27.5q70 0 132 18t100 51.5t38 77.5q0 19 9 19q4 0 6.5 -3.5t1.5 -11.5q-4 -20 -4 -56t13.5 -56t46.5 -20q23 0 48 5l5 1q9 0 9 -8q0 -7 -11.5 -11t-29.5 -4q-38 0 -57 14.5t-25.5 36.5t-10.5 60q-20 -57 -98 -89t-173 -32q-87 0 -136 30z" />
    <glyph glyph-name="b" unicode="b" horiz-adv-x="645" 
d="M235 -1.5q-50 14.5 -81 39.5q-3 2 -3 6q0 5 5 8.5t10 -1.5q34 -28 79 -43.5t93 -15.5q72 0 128.5 33t88.5 92t32 133q0 72 -30.5 131t-87 93t-132.5 34q-78 0 -135 -36t-87 -98t-31 -137q0 -76 5 -181l1 -44q0 -7 -3 -12t-7 -5q-10 0 -10 17l2 47q0 19 2 74.5t2 111.5
v240q0 56 -2 111.5t-2 74.5l-2 47q0 17 10 17q4 0 7 -5t3 -12l-2 -46q0 -19 -2 -75t-2 -112v-175q20 92 86 149t167 57q78 0 136.5 -35t90 -95.5t31.5 -135.5q0 -76 -32.5 -137t-92 -95t-135.5 -34q-50 0 -100 14.5z" />
    <glyph glyph-name="c" unicode="c" horiz-adv-x="630" 
d="M193 16q-64 32 -103.5 92.5t-39.5 142.5q0 81 39.5 141.5t104 92t137.5 31.5q68 0 123.5 -26.5t78.5 -61.5q1 -1 1 -4q0 -5 -3.5 -6t-7.5 3q-25 35 -76 61t-117 26q-71 0 -133.5 -30.5t-100.5 -88.5t-38 -138t38.5 -139t100.5 -89.5t131 -30.5q62 0 106.5 20.5t70 46
t49.5 58.5q7 10 13.5 17.5t10.5 7.5q7 0 7 -8q0 -13 -32 -50.5t-90 -68.5t-134 -31q-72 0 -136 32z" />
    <glyph glyph-name="d" unicode="d" horiz-adv-x="645" 
d="M171.5 19q-58.5 35 -90 95.5t-31.5 135.5q0 76 32.5 137t92 95t135.5 34q50 0 100 -14.5t81 -39.5q3 -1 3 -6t-5 -8.5t-10 1.5q-34 28 -79 43.5t-93 15.5q-72 0 -128.5 -33t-88.5 -92t-32 -133q0 -72 30.5 -131t87 -93t132.5 -34q78 0 135.5 36.5t87.5 98.5t30 138v220
q0 56 -2 111.5t-2 74.5l-2 47q0 17 10 17q4 0 7 -5t3 -12l-2 -46q0 -19 -2 -75t-2 -112v-240q0 -56 2 -112t2 -75l2 -46q0 -7 -3 -12t-7 -5q-10 0 -10 17l2 52q4 136 4 124q-21 -91 -87 -147.5t-166 -56.5q-78 0 -136.5 35z" />
    <glyph glyph-name="e" unicode="e" horiz-adv-x="625" 
d="M193.5 17q-64.5 33 -104 94.5t-39.5 143.5q0 79 37 138.5t97 91t129 31.5q58 0 107.5 -22.5t78.5 -61t29 -86.5h-455q-15 -40 -15 -91q0 -81 38.5 -140.5t101.5 -91t134 -31.5q60 0 103.5 20t68.5 45.5t49 58.5q18 26 25 26t7 -8q0 -13 -32 -50.5t-89 -68.5t-132 -31
q-74 0 -138.5 33zM519 353q0 40 -27.5 76t-74.5 57.5t-104 21.5q-79 0 -144 -41t-93 -114h443z" />
    <glyph glyph-name="f" unicode="f" horiz-adv-x="385" 
d="M25 5q0 5 4 7.5t11 2.5q5 0 18.5 -3t26.5 -3q27 0 36 14.5t9 52.5v420q-25 1 -101 1q-4 0 -4 4t4 4l101 1v36q0 77 10.5 118t46.5 62.5t110 21.5q53 0 53 -11q0 -8 -11 -8q-12 0 -20 1l-51 1q-58 0 -85.5 -19.5t-36 -57.5t-8.5 -112v-32q49 1 79 3l52 1q23 0 23 -9
q0 -4 -5 -6t-18 -2q-37 0 -54 1q-1 0 -77 2v-421q0 -30 -6.5 -45.5t-21.5 -21.5h24q41 0 106 5l35 2q7 0 12 -2.5t5 -6.5q0 -9 -17 -9q-20 0 -35 1q-52 2 -106 2h-14q-38 0 -55.5 -2t-24.5 -2q-15 0 -15 9z" />
    <glyph glyph-name="g" unicode="g" horiz-adv-x="600" 
d="M116 -174q-19 9 -19 21q0 5 4 6.5t9 -1.5q40 -23 76.5 -32.5t76.5 -9.5q83 0 146.5 30t98.5 78t35 100q0 84 -73 84q-41 0 -80 -19.5t-101 -61.5q-59 -40 -96.5 -59t-76.5 -19q-36 0 -58.5 21t-22.5 54q0 40 32.5 75t80 60t90.5 35q-83 10 -125.5 55.5t-42.5 108.5
q0 70 53 117t156 47q74 0 121.5 -21t62.5 -61q0 33 21.5 52t62.5 19q6 0 9.5 -2.5t3.5 -6.5t-3 -6.5t-8 -2.5q-37 0 -57.5 -10.5t-20.5 -38.5q0 -11 3.5 -20t3.5 -13q0 -8 -9 -8q-10 0 -10 12q0 44 -48.5 71.5t-131.5 27.5q-99 0 -150 -44.5t-51 -111.5t50.5 -112.5
t149.5 -45.5q59 0 101.5 17t65 45.5t22.5 61.5q0 10 -5 23v1q0 4 5 4.5t6 -4.5q2 -10 2 -24q0 -35 -23.5 -65.5t-68 -48.5t-105.5 -18q-37 0 -93.5 -23.5t-99 -62t-42.5 -82.5q0 -29 21 -48t53 -19q37 0 74.5 19t91.5 57q62 41 103.5 62t85.5 21q79 0 79 -92q0 -56 -38 -107
t-105.5 -83t-152.5 -32q-76 0 -139 30z" />
    <glyph glyph-name="h" unicode="h" horiz-adv-x="625" 
d="M535 12l2 45q0 18 2 65t2 93v38q0 122 -57 188.5t-168 66.5q-112 0 -172 -67t-60 -188v-8q0 -56 2 -112t2 -75l2 -46q0 -7 -3 -12t-7 -5q-10 0 -10 17l2 47q0 19 2 74.5t2 111.5v240q0 56 -2 111.5t-2 74.5l-2 47q0 17 10 17q4 0 7 -5t3 -12l-2 -46q0 -19 -2 -75t-2 -112
v-151q19 87 78.5 134.5t153.5 47.5q114 0 173.5 -69t59.5 -192v-40q0 -46 2 -93t2 -65l2 -45q0 -7 -3 -12t-7 -5q-10 0 -10 17z" />
    <glyph glyph-name="i" unicode="i" horiz-adv-x="166" 
d="M72 704.5q-4 4.5 -4 10.5t4 10.5t11 4.5t11 -4.5t4 -10.5t-4 -10.5t-11 -4.5t-11 4.5zM76 45q0 11 2 46t2 84v150q0 49 -2 84t-2 46q-2 26 -2 33q0 17 10 17q4 0 7 -5t3 -12t-2 -33q0 -11 -2 -46t-2 -84v-150q0 -49 2 -84t2 -46q2 -26 2 -33t-3 -12t-7 -5q-10 0 -10 17
q0 7 2 33z" />
    <glyph glyph-name="j" unicode="j" horiz-adv-x="180" 
d="M86 704.5q-4 4.5 -4 10.5t4 10.5t11 4.5t11 -4.5t4 -10.5t-4 -10.5t-11 -4.5t-11 4.5zM-104 -184q9 0 25.5 -2t32.5 -2q58 0 88 20.5t40.5 62t10.5 116.5v314q0 49 -2 84t-2 46q-2 26 -2 33q0 17 10 17q4 0 7 -5t3 -12t-2 -33q0 -11 -2 -46t-2 -84v-315q0 -78 -12.5 -123
t-50 -68.5t-110.5 -23.5q-43 0 -43 12q0 9 11 9z" />
    <glyph glyph-name="k" unicode="k" horiz-adv-x="610" 
d="M90 8h24q41 0 106 5l35 2q7 0 12 -2.5t5 -6.5q0 -9 -17 -9q-20 0 -35 1q-52 2 -106 2h-14q-32 0 -49.5 -2t-25.5 -2q-15 0 -15 10q0 4 4.5 6.5t10.5 2.5t18 -3t22 -3q27 0 36 14.5t9 52.5v409q0 56 -2 111.5t-2 74.5l-2 47q0 17 10 17q4 0 7 -5t3 -12l-2 -46
q0 -19 -2 -75t-2 -112v-410q0 -25 -4 -38l318 347q30 33 71 84q17 21 24.5 29t13.5 8q8 0 8 -8q0 -5 -9 -15t-24 -24q-7 -7 -30 -29t-48 -50l-100 -109l136 -149q38 -41 80 -81q14 -13 22.5 -22.5t8.5 -14.5q0 -8 -8 -8q-6 0 -13.5 8t-24.5 29q-41 51 -71 84l-135 149
l-230 -249q-8 -6 -13 -8z" />
    <glyph glyph-name="l" unicode="l" horiz-adv-x="275" 
d="M153 12q-19 18 -19 58v600q0 34 -13.5 45t-52.5 11q-15 0 -31 -1.5t-24 -1.5t-8 7t13 11t36 4q47 0 67.5 -17.5t20.5 -57.5v-609q0 -30 13 -40t44 -10q27 0 52 5l5 1q9 0 9 -8q0 -7 -13 -11t-36 -4q-44 0 -63 18z" />
    <glyph glyph-name="m" unicode="m" horiz-adv-x="1025" 
d="M935 12l2 40q0 17 2 66t2 97v38q0 123 -50.5 189t-153.5 66t-155.5 -66.5t-52.5 -188.5v-38q0 -48 2 -97t2 -66l2 -40q0 -17 -10 -17t-10 17l2 40q0 17 2 66t2 97v38q0 123 -50.5 189t-153.5 66t-155.5 -66.5t-52.5 -188.5v-38q0 -48 2 -97t2 -66l2 -40q0 -17 -10 -17
t-10 17l2 40q0 17 2 66t2 97v151q0 67 -12.5 94t-41.5 27q-12 0 -12 9t12 9q24 0 43 -28t19 -106v-31q17 85 69.5 130.5t138.5 45.5q91 0 143.5 -51.5t64.5 -146.5q13 95 66.5 146.5t145.5 51.5q106 0 159 -68.5t53 -192.5v-40q0 -48 2 -97t2 -66l2 -40q0 -17 -10 -17
t-10 17z" />
    <glyph glyph-name="n" unicode="n" horiz-adv-x="650" 
d="M560 12l2 45q0 18 2 65t2 93v38q0 122 -57 188.5t-168 66.5q-112 0 -172 -67t-60 -188v-38q0 -48 2 -97t2 -66l2 -40q0 -17 -10 -17t-10 17l2 40q0 17 2 66t2 97v151q0 67 -12.5 94t-41.5 27q-12 0 -12 9t12 9q24 0 43 -28t19 -106v-37q19 87 78.5 134.5t153.5 47.5
q114 0 173.5 -69t59.5 -192v-40q0 -46 2 -93t2 -65l2 -45q0 -7 -3 -12t-7 -5q-10 0 -10 17z" />
    <glyph glyph-name="o" unicode="o" 
d="M189 16q-62 32 -100.5 92.5t-38.5 141.5t38.5 141.5t100.5 92.5t131 32t131 -32t100.5 -92.5t38.5 -141.5t-38.5 -141.5t-100.5 -92.5t-131 -32t-131 32zM95 112.5q37 -58.5 97.5 -89.5t127.5 -31t127.5 31t97.5 89.5t37 137.5t-37 137.5t-97.5 89.5t-127.5 31
t-127.5 -31t-97.5 -89.5t-37 -137.5t37 -137.5z" />
    <glyph glyph-name="p" unicode="p" horiz-adv-x="670" 
d="M260 -1.5q-50 14.5 -81 39.5q-3 2 -3 6q0 5 5 8.5t10 -1.5q34 -28 79 -43.5t93 -15.5q72 0 128.5 33t88.5 92t32 133q0 72 -30.5 131t-87 93t-132.5 34q-78 0 -135.5 -36.5t-87.5 -98.5t-30 -138v-360q0 -29 -6 -45t-19 -22h36q41 0 106 5l35 2q7 0 12 -2.5t5 -6.5
q0 -9 -17 -9q-20 0 -35 1q-52 2 -106 2h-14q-38 0 -53.5 -2t-22.5 -2q-15 0 -15 9t15 9q5 0 14.5 -2.5t16.5 -2.5q23 0 31.5 15t8.5 52v449q0 49 -2 84t-2 46q-2 26 -2 33q0 17 10 17q4 0 7 -5t3 -12t-2 -33q0 -11 -2 -46t-2 -84v-15q20 92 86 149t167 57q78 0 136.5 -35
t90 -95.5t31.5 -135.5q0 -76 -32.5 -137t-92 -95t-135.5 -34q-50 0 -100 14.5z" />
    <glyph glyph-name="q" unicode="q" horiz-adv-x="650" 
d="M174.5 18q-59.5 34 -92 95t-32.5 137q0 75 31.5 135.5t90 95.5t136.5 35q101 0 167 -57t86 -149v15q0 49 -2 84t-2 46q-2 26 -2 33q0 17 10 17q4 0 7 -5t3 -12t-2 -33q0 -11 -2 -46t-2 -84v-405q0 -61 -16 -86.5t-47 -27.5h46q19 0 41 5q24 4 35 4q7 0 12 -2.5t5 -6.5
q0 -9 -17 -9l-35 1q-26 2 -41 2h-4q-42 0 -64 -2t-29 -2q-15 0 -15 9q0 4 4 7t11 3q12 0 22.5 -1.5t19.5 -1.5q29 0 46.5 21t17.5 88v314q0 76 -30 138t-87.5 98.5t-135.5 36.5q-76 0 -132.5 -34t-87 -93t-30.5 -131q0 -74 32 -133t88.5 -92t128.5 -33q48 0 93 15.5t79 43.5
q3 3 6 3q6 0 8.5 -6.5t-2.5 -9.5q-31 -25 -81 -39.5t-100 -14.5q-76 0 -135.5 34z" />
    <glyph glyph-name="r" unicode="r" horiz-adv-x="400" 
d="M88.5 460q-12.5 27 -41.5 27q-12 0 -12 9t12 9q24 0 43 -28t19 -106v-17q14 75 62.5 117t148.5 42q50 0 50 -12q0 -8 -11 -8q-9 0 -27.5 1.5t-39.5 1.5q-79 0 -119 -34t-52 -87t-12 -132v-28q0 -48 2 -97t2 -66l2 -40q0 -17 -10 -17t-10 17l2 40q0 17 2 66t2 97v151
q0 67 -12.5 94z" />
    <glyph glyph-name="s" unicode="s" horiz-adv-x="555" 
d="M143 1.5q-56 17.5 -86 39.5q-7 6 -7 12q0 10 10 10q5 0 12 -5q4 -3 25 -21t68 -31.5t110 -13.5q99 0 160.5 31t61.5 97q0 46 -30.5 74t-74 41.5t-116.5 28.5q-71 15 -112 27.5t-69 37.5t-28 66q0 118 237 118q57 0 106 -6t49 -18q0 -7 -8 -7l-25 2q-82 11 -164 11h-32
q-75 0 -115 -27t-40 -73q0 -38 27 -61.5t67 -35.5t108 -26q75 -16 120 -30t76.5 -43.5t31.5 -78.5q0 -70 -64 -103t-169 -33q-73 0 -129 17.5z" />
    <glyph glyph-name="t" unicode="t" horiz-adv-x="380" 
d="M170 10.5q-26 15.5 -33 41.5t-7 75v296q0 39 -9 53.5t-39 14.5q-10 0 -22 -2t-18 -2q-17 0 -17 9t17 9q7 0 21.5 -2.5t40.5 -2.5h43q-10 6 -13.5 17t-3.5 26q0 37 -1.5 73.5t-2.5 50.5l-2 36q0 17 10 17t10 -17l-2 -36q-1 -14 -2.5 -50.5t-1.5 -73.5q0 -22 7.5 -32.5
t35.5 -10.5q72 0 98 2.5t33 2.5q19 0 19 -9t-19 -9q-6 0 -36.5 2.5t-141.5 2.5h-23q17 -6 22 -21t5 -47v-296q0 -48 7 -73t28 -36t63 -11q43 0 64 8.5t26 8.5q9 0 9 -8q0 -11 -24.5 -16.5t-59.5 -5.5q-55 0 -81 15.5z" />
    <glyph glyph-name="u" unicode="u" 
d="M128 47q-57 62 -57 183v56q0 46 -2 93t-2 65l-2 45q0 7 3 12t7 5q10 0 10 -17l-2 -45q0 -18 -2 -65t-2 -93v-54q0 -239 217 -239q117 0 178.5 67t61.5 188v38q0 48 -2 97t-2 66l-2 40q0 17 10 17t10 -17l-2 -40q0 -17 -2 -66t-2 -97v-151q0 -67 12.5 -94t41.5 -27
q12 0 12 -9t-12 -9q-24 0 -43 28t-19 106v37q-19 -87 -80 -134.5t-160 -47.5q-111 0 -168 62z" />
    <glyph glyph-name="v" unicode="v" horiz-adv-x="605" 
d="M90 396q-30 53 -36 63l-16 28q-3 5 -3 9q0 9 10 9q8 0 13 -12q4 -7 8 -17t9 -20q46 -101 84 -175l143 -281q4 6 9 13t11 16q139 204 189.5 287t50.5 120q0 36 -33 47t-94 11q-15 0 -57 -3l-21 -1q-9 0 -12 3q-1 1 -1 3q0 5 5 7q18 8 72 8q64 0 106.5 -15.5t42.5 -60.5
q0 -40 -59 -136.5t-209 -312.5h-1l-149 293q-32 64 -62 117z" />
    <glyph glyph-name="w" unicode="w" horiz-adv-x="916" 
d="M90 396q-30 53 -36 63l-16 28q-3 5 -3 9q0 9 10 9q8 0 13 -12q4 -7 8 -17t9 -20q46 -101 84 -175l143 -281q120 175 172 256l-13 24q-44 86 -76.5 142.5t-35.5 62.5q-2 4 -2 7q0 5 6 8q5 3 34.5 7t61.5 4q121 0 121 -76q0 -24 -21 -67.5t-66 -114.5l130 -253
q150 219 205 308.5t55 127.5q0 36 -33 47t-94 11q-15 0 -57 -3l-21 -1q-9 0 -12 3q-1 1 -1 3q0 5 5 7q18 8 72 8q64 0 106.5 -15.5t42.5 -60.5q0 -40 -60 -137.5t-208 -311.5h-1l-134 260q-48 -73 -176 -260h-1l-149 293q-32 64 -62 117zM468 282l10 -20q43 70 63.5 111
t20.5 63q0 35 -28.5 46.5t-83.5 11.5t-71.5 -5t-18.5 -6q39 -68 108 -201z" />
    <glyph glyph-name="x" unicode="x" horiz-adv-x="530" 
d="M367 338q60 63 84 91.5t24 43.5q0 16 -18.5 21t-56.5 5q-15 0 -63 -3l-23 -1q-10 0 -13 3q-1 1 -1 3q0 5 5 7q18 8 78 8q102 0 102 -41q0 -16 -26 -47t-85 -92l-52 -55l-43 -45l14 -16q116 -135 184 -209q3 -4 3 -8q0 -8 -8 -8q-7 0 -14 9q-11 14 -22 29
q-104 129 -150 184l-12 13l-216 -230q-4 -4 -7.5 -5t-5 1t0.5 4l224 236l-38 44q-116 135 -184 209q-3 5 -3 8q0 8 8 8q7 0 14 -9q11 -14 22 -29q104 -129 150 -184l36 -42l39 41z" />
    <glyph glyph-name="y" unicode="y" horiz-adv-x="605" 
d="M265.5 -190q-45.5 19 -45.5 67q0 23 16 52t45 69l-136 282q-29 60 -83 161q-22 41 -25 47l-2 8q0 9 9 9q7 0 12 -12l12 -28q44 -100 83 -181l135 -279q5 7 11.5 15.5t14.5 19.5q143 196 196.5 278t53.5 118t-33 47t-94 11q-15 0 -57 -3l-21 -1q-9 0 -12 3q-1 1 -1 3
q0 5 5 7q18 8 72 8q64 0 106.5 -15.5t42.5 -60.5q0 -37 -54 -118.5t-192 -269.5l-34 -47q-62 -84 -62 -124q0 -68 128 -68q33 0 59.5 5t29.5 2q1 -1 1 -4q0 -4 -4 -7q-7 -4 -26.5 -8.5t-48.5 -4.5q-56 0 -101.5 19z" />
    <glyph glyph-name="z" unicode="z" horiz-adv-x="580" 
d="M91.5 25q17.5 12 31.5 29l311 392q24 29 51 43q-36 3 -66 3h-263q-40 0 -59.5 -3t-27.5 -3q-19 0 -19 9t19 9q8 0 27.5 -2t59.5 -2h263q45 0 63 2t24 2q10 0 14.5 -1.5t4.5 -6.5q0 -9 -19 -9q-15 0 -32 -11.5t-31 -29.5l-311 -392q-24 -29 -51 -43q18 -3 65 -3h323
q29 0 41.5 7.5t12.5 24.5q0 19 -18 65q-1 3 -1 7q0 9 5 11h3q9 0 13 -12q15 -32 15 -57t-16.5 -39.5t-53.5 -14.5h-324q-45 0 -63 -2t-24 -2q-9 0 -14 1.5t-5 6.5q0 9 19 9q15 0 32.5 12z" />
    <glyph glyph-name="braceleft" unicode="{" horiz-adv-x="280" 
d="M186 -63l-46 1q-28 0 -39 11t-11 36q0 26 1 48q2 74 2 140v71q0 45 -17.5 70t-50.5 37v2q33 12 50.5 37t17.5 70v71q0 66 -2 140q-1 22 -1 48q0 25 11 36t39 11l46 1q13 1 40 1q19 0 19 -7q0 -4 -4 -5.5t-15 -1.5q-14 0 -40 2t-46 2q-23 0 -31 -7.5t-8 -30.5v-261
q0 -44 -17 -70t-44 -37q27 -11 44 -37t17 -70v-261q0 -23 8 -30.5t31 -7.5q20 0 46 2t40 2q11 0 15 -1.5t4 -5.5q0 -7 -19 -7q-27 0 -40 1z" />
    <glyph glyph-name="bar" unicode="|" horiz-adv-x="180" 
d="M83 -156q-3 5 -3 12l2 48q5 115 5 195v411q0 80 -5 195l-2 48q0 7 3 12t7 5t7 -5t3 -12l-2 -48q0 -21 -2 -79.5t-2 -115.5v-411q0 -57 2 -115.5t2 -79.5l2 -48q0 -7 -3 -12t-7 -5t-7 5z" />
    <glyph glyph-name="braceright" unicode="}" horiz-adv-x="300" 
d="M94 767l46 -1q28 0 39 -11t11 -36q0 -26 -1 -48q-2 -74 -2 -140v-71q0 -45 17.5 -70t50.5 -37v-2q-33 -12 -50.5 -37t-17.5 -70v-71q0 -66 2 -140q1 -22 1 -48q0 -25 -11 -36t-39 -11l-46 -1q-13 -1 -40 -1q-19 0 -19 7q0 4 4 5.5t15 1.5q14 0 40 -2t46 -2q23 0 31 7.5
t8 30.5v261q0 44 17 70t44 37q-27 11 -44 37t-17 70v261q0 23 -8 30.5t-31 7.5q-20 0 -46 -2t-40 -2q-11 0 -15 1.5t-4 5.5q0 7 19 7q27 0 40 -1z" />
    <glyph glyph-name="asciitilde" unicode="~" horiz-adv-x="595" 
d="M358 238q-28 11 -64 33q-33 20 -58.5 30.5t-58.5 10.5q-41 0 -66 -15.5t-46 -40.5q-6 -7 -12 -12.5t-11 -5.5q-7 0 -7 8q0 11 17 29t48 31.5t71 13.5q39 0 67 -11t64 -33q33 -21 58 -31t58 -10q43 0 67 15.5t46 40.5q2 2 7 7.5t8.5 8t6.5 2.5q7 0 7 -8q0 -12 -16.5 -29.5
t-47.5 -31t-72 -13.5q-38 0 -66 11z" />
    <glyph glyph-name="uni00A0" unicode="&#xa0;" horiz-adv-x="215" 
 />
    <glyph glyph-name="exclamdown" unicode="&#xa1;" horiz-adv-x="220" 
d="M119 -123l2 -66q0 -7 -3 -11.5t-8 -4.5t-8 4.5t-3 11.5l2 66q5 183 5 298v124q0 3 4 3t4 -3v-124q0 -115 5 -298zM67 499q17 17 43 17t43 -17t17 -43t-17 -43t-43 -17t-43 17t-17 43t17 43zM73 419q15 -15 37 -15q23 0 37.5 15t14.5 37q0 23 -14.5 37.5t-37.5 14.5
q-22 0 -37 -14.5t-15 -37.5q0 -22 15 -37z" />
    <glyph glyph-name="cent" unicode="&#xa2;" horiz-adv-x="630" 
d="M218 103q0 7 12 41l14 42q-85 25 -139.5 91.5t-54.5 163.5q0 81 39.5 141.5t104 92t137.5 31.5q19 0 51 -4l15 72q4 14 12 14q7 0 7 -10q0 -6 -1 -9l-8 -25l-15 -44q49 -10 86 -33t55 -49q1 -1 1 -4q0 -5 -3.5 -6t-7.5 3q-19 26 -53.5 48.5t-79.5 32.5q-5 -15 -23 -79
l-93 -347l-19 -75q36 -9 73 -9q62 0 106.5 20.5t70 46t49.5 58.5q7 10 13.5 17.5t10.5 7.5q7 0 7 -8q0 -13 -32 -50.5t-90 -68.5t-134 -31q-38 0 -76 9l-16 -77q-2 -6 -5 -10t-7 -4q-7 0 -7 11zM111 281.5q53 -64.5 135 -88.5l21 74l93 348q9 32 20 79q-32 4 -50 4
q-71 0 -133.5 -30.5t-100.5 -88.5t-38 -138q0 -95 53 -159.5z" />
    <glyph glyph-name="sterling" unicode="&#xa3;" horiz-adv-x="665" 
d="M375 -27.5q-32 3.5 -83 10.5q-53 8 -95 12t-96 4q-13 0 -24.5 -1.5t-20.5 -1.5q-14 0 -14 9q0 8 13 8q39 0 64 8.5t39.5 35t14.5 76.5q0 44 -10 85.5t-28 92.5h-10q-30 0 -49 -3t-26 -3t-11 3t-4 7q0 9 15 9q7 0 26 -3t49 -3h8q-7 18 -8 23q-22 57 -33 97.5t-11 81.5
q0 196 283 196q69 0 136 -8t67 -23q0 -9 -12 -9q-11 0 -49 9q-6 1 -36 7.5t-63.5 10t-64.5 3.5q-119 0 -186 -47t-67 -138q0 -39 10.5 -78t33.5 -103l8 -22h89q58 0 196 6l49 2q15 0 15 -11t-15 -11l-49 2q-115 5 -196 5h-86q17 -49 27 -92t10 -86q0 -126 -102 -126
q69 0 122 -5t114 -14q81 -11 120 -11q60 0 94.5 13t61.5 32q5 4 10 4q4 0 8 -6q1 -1 1 -4q0 -8 -12 -16q-49 -31 -153 -31q-38 0 -70 3.5z" />
    <glyph glyph-name="currency" unicode="&#xa4;" horiz-adv-x="396" 
d="M150.5 460.5q-22.5 9.5 -38.5 26.5q-21 -24 -32 -38.5t-14 -18.5q-5 -5 -9 -5q-7 0 -7 7q0 6 5 10q42 37 53 48q-30 33 -30 80t30 80q-11 11 -53 48q-5 4 -5 9q0 3 2 5.5t6 2.5q3 0 8 -5q3 -4 14 -18.5t32 -38.5q16 17 38.5 26.5t47.5 9.5t47.5 -9.5t38.5 -26.5
q21 24 32 38.5t14 18.5q5 5 9 5q7 0 7 -7q0 -6 -5 -10q-42 -37 -53 -48q30 -33 30 -80t-30 -80q11 -11 53 -48q5 -4 5 -9q0 -3 -2 -5.5t-6 -2.5q-3 0 -8 5q-3 4 -14 18.5t-32 38.5q-16 -17 -38.5 -26.5t-47.5 -9.5t-47.5 9.5zM118.5 491.5q32.5 -32.5 79.5 -32.5t79.5 32.5
t32.5 78.5t-32.5 78.5t-79.5 32.5t-79.5 -32.5t-32.5 -78.5t32.5 -78.5z" />
    <glyph glyph-name="yen" unicode="&#xa5;" horiz-adv-x="790" 
d="M116 204.5q-5 3.5 -5 7.5t5 6.5t12 2.5q4 0 20 -3t43 -3h108l-58 111q-92 178 -193 355q-3 5 -3 10q0 4 3 7t9 3q8 0 13 -12l21 -44q10 -20 53 -108.5t105 -208.5l59 -113h103q62 0 90 1l22 31q107 150 160 234t53 123q0 55 -49.5 73.5t-132.5 18.5q-48 0 -97 -7l-25 -2
q-6 0 -8 2t-2 5q0 5 6 8q9 5 37.5 9.5t74.5 4.5q84 0 144.5 -24t60.5 -88q0 -39 -53 -123t-160 -234l-22 -31l70 3q53 3 74 3q7 0 12 -3t5 -7t-5 -7.5t-12 -3.5l-53 2l-98 3l-42 -60q-5 0 114 4l49 2q7 0 12 -3t5 -7t-5 -7.5t-12 -3.5l-43 1q-36 2 -127 4
q-62 -91 -96 -150.5t-34 -89.5q0 -54 50 -72.5t128 -18.5q57 0 108 7q12 1 20 1.5t10 -1.5t2 -5q0 -6 -9 -10q-10 -4 -37 -8.5t-72 -4.5q-85 0 -147 24t-62 88q0 41 71 152l-47 89h-168q-35 0 -52 -3t-21 -3q-7 0 -12 3.5t-5 7.5t5 6.5t12 2.5q4 0 21 -3t52 -3h164l-32 62
h-112q-27 0 -43 -3t-20 -3q-7 0 -12 3.5zM344 145h37l70 1q28 40 43 60q-26 1 -83 1h-99zM391 56q27 42 54 80q-20 1 -64 1h-33z" />
    <glyph glyph-name="brokenbar" unicode="&#xa6;" horiz-adv-x="180" 
d="M83 334q-3 5 -3 12q0 6 2 36q5 75 5 157v21q0 82 -5 157q-2 30 -2 36q0 7 3 12t7 5t7 -5t3 -12q0 -6 -2 -36q0 -11 -2 -53t-2 -104v-21q0 -62 2 -104t2 -53q2 -30 2 -36q0 -7 -3 -12t-7 -5t-7 5zM82 -108q5 75 5 157v21q0 82 -5 157q-2 30 -2 36q0 7 3 12t7 5t6.5 -5
t2.5 -12l-1 -36q-4 -60 -4 -157v-21q0 -62 2 -104t2 -53q2 -30 2 -36q0 -7 -3 -12t-7 -5t-7 5t-3 12q0 6 2 36z" />
    <glyph glyph-name="section" unicode="&#xa7;" horiz-adv-x="560" 
d="M137.5 -3.5q-58.5 12.5 -82.5 30.5q-5 4 -5 10q0 5 3 8t7 3q3 0 26 -15t70 -28t119 -13q101 0 161.5 28.5t60.5 95.5q0 46 -30.5 74t-75 42.5t-117.5 30.5q-70 15 -111.5 28.5t-70 38.5t-28.5 66q0 36 22.5 61.5t62.5 39.5q-41 16 -63 40t-22 59q0 61 60.5 90.5
t149.5 29.5q62 0 117 -13t80 -31q4 -3 4 -8q0 -4 -3 -7t-8 -3q-3 0 -25 15t-62.5 27t-101.5 12q-86 0 -144.5 -27.5t-58.5 -84.5q0 -39 27.5 -63t68 -37t109.5 -28q76 -17 120.5 -32t76 -43.5t31.5 -76.5q0 -67 -62 -100q62 -37 62 -100q0 -132 -233 -132q-76 0 -134.5 12.5
zM99.5 333q27.5 -24 68 -37t109.5 -28q55 -11 92 -22t66 -26q62 31 62 96q0 46 -30.5 74t-75 42.5t-118.5 30.5q-83 19 -115 30q-40 -14 -63 -38t-23 -59q0 -39 27.5 -63z" />
    <glyph glyph-name="dieresis" unicode="&#xa8;" horiz-adv-x="230" 
d="M27 624q-7 7 -7 17t7 17t17 7t17 -7t7 -17t-7 -17t-17 -7t-17 7zM169 624q-7 7 -7 17t7 17t17 7t17 -7t7 -17t-7 -17t-17 -7t-17 7z" />
    <glyph glyph-name="copyright" unicode="&#xa9;" horiz-adv-x="860" 
d="M245 30q-86 46 -138 129.5t-52 191.5q0 107 52 190t138 129t185 46t185 -46t138 -129t52 -190q0 -108 -52 -191.5t-138 -129.5t-185 -46t-185 46zM114 163q51 -82 135.5 -126.5t180.5 -44.5t180.5 44.5t135.5 126.5t51 188q0 105 -51 186.5t-135.5 126t-180.5 44.5
t-180.5 -44.5t-135.5 -126t-51 -186.5q0 -106 51 -188zM234 470q32 51 85 78.5t113 27.5q64 0 115 -28.5t73 -64.5q1 -1 1 -3q0 -4 -4 -5t-7 3q-25 36 -71 63t-108 27q-58 0 -108.5 -26t-81.5 -75.5t-31 -115.5q0 -67 31 -116.5t82 -76t109 -26.5q54 0 91.5 20t58.5 45
t40 58q2 3 7 11.5t8.5 12t6.5 3.5q8 0 8 -8q0 -13 -27 -50.5t-76 -68.5t-116 -31q-60 0 -113.5 27.5t-85.5 79.5t-32 120t32 119z" />
    <glyph glyph-name="ordfeminine" unicode="&#xaa;" horiz-adv-x="405" 
d="M78 435q-28 17 -28 52q0 59 87 73l66 11q57 10 77.5 26t20.5 48t-20 44t-55 12h-30q-44 0 -70.5 -3t-32.5 -3q-7 0 -7 5q0 15 95 15q70 0 99 -15t29 -55q0 -36 -23.5 -54t-82.5 -28l-66 -11q-44 -7 -61.5 -23t-17.5 -42q0 -32 25.5 -46.5t70.5 -14.5q60 0 104 21.5
t44 57.5q0 11 7 11q6 0 6 -6q0 -7 -1 -14.5t-1 -20.5q0 -39 32 -39q6 0 27 3q8 1 8 -5q0 -10 -23 -10q-30 0 -39.5 15t-12.5 47q-11 -32 -55 -50t-96 -18q-48 0 -76 17z" />
    <glyph glyph-name="guillemotleft" unicode="&#xab;" horiz-adv-x="425" 
d="M254 56q-65 73 -204 221q139 148 204 221q7 9 14 9q5 0 6.5 -5t-2.5 -9q-6 -7 -32 -31q-97 -94 -182 -185q85 -91 182 -185q26 -24 32 -31q3 -3 3 -7q0 -7 -7 -7t-14 9zM354 56q-65 73 -204 221q139 148 204 221q7 9 14 9q5 0 6.5 -5t-2.5 -9q-6 -7 -32 -31
q-97 -94 -182 -185q85 -91 182 -185q26 -24 32 -31q3 -3 3 -7q0 -7 -7 -7t-14 9z" />
    <glyph glyph-name="logicalnot" unicode="&#xac;" horiz-adv-x="660" 
d="M617 268h-582v8h590v-112h-8v104z" />
    <glyph glyph-name="registered" unicode="&#xae;" horiz-adv-x="860" 
d="M245 30q-86 46 -138 129.5t-52 191.5q0 107 52 190t138 129t185 46t185 -46t138 -129t52 -190q0 -108 -52 -191.5t-138 -129.5t-185 -46t-185 46zM114 163q51 -82 135.5 -126.5t180.5 -44.5t180.5 44.5t135.5 126.5t51 188q0 105 -51 186.5t-135.5 126t-180.5 44.5
t-180.5 -44.5t-135.5 -126t-51 -186.5q0 -106 51 -188zM280 200q4 68 4 131q0 118 -3 217q0 9 8 9q5 0 16 -1t26 -1h110q80 0 124 -32t44 -90q0 -59 -44 -91t-125 -32q13 -4 23.5 -11t22.5 -20l28 -30q27 -29 69 -68q12 -11 19.5 -18.5t7.5 -13.5q0 -9 -10 -9q-6 0 -12 6
t-20 25q-21 28 -61 73l-28 31q-33 35 -79 35h-40q-17 0 -17 11q0 4 3.5 6.5t10.5 2.5q6 0 11.5 -1t9.5 -2q26 -8 61 -8q79 0 120.5 29.5t41.5 84.5q0 54 -42 84t-119 30h-148v-216q0 -46 5 -131l2 -42q0 -18 -11 -18q-10 0 -10 18z" />
    <glyph glyph-name="macron" unicode="&#xaf;" horiz-adv-x="355" 
d="M20 636h315v-8h-315v8z" />
    <glyph glyph-name="degree" unicode="&#xb0;" horiz-adv-x="400" 
d="M124.5 437.5q-34.5 19.5 -54.5 54t-20 75.5t20 75.5t54.5 54t75.5 19.5t75.5 -19.5t54.5 -54t20 -75.5t-20 -75.5t-54.5 -54t-75.5 -19.5t-75.5 19.5zM77 495.5q19 -32.5 51.5 -51t71.5 -18.5t71.5 18.5t51.5 51t19 71.5t-19 71.5t-51.5 51t-71.5 18.5t-71.5 -18.5
t-51.5 -51t-19 -71.5t19 -71.5z" />
    <glyph glyph-name="plusminus" unicode="&#xb1;" horiz-adv-x="660" 
d="M35 316h292v202h8v-202h290v-8h-290v-200h-8v200h-292v8zM35 26h590v-8h-590v8z" />
    <glyph glyph-name="acute" unicode="&#xb4;" horiz-adv-x="248" 
d="M20 577l187 131q5 4 11 4q4 0 7 -2.5t3 -6.5q0 -7 -9 -13l-197 -116z" />
    <glyph glyph-name="uni00B5" unicode="&#xb5;" horiz-adv-x="643" 
d="M68 -188q0 7 2 33q0 11 2 46t2 84v311q0 46 -2 93t-2 65l-2 45q0 7 3 12t7 5q10 0 10 -17l-2 -45q0 -18 -2 -65t-2 -93v-54q0 -239 217 -239q117 0 178.5 67t61.5 188v38q0 48 -2 97t-2 66l-2 40q0 17 10 17t10 -17l-2 -40q0 -17 -2 -66t-2 -97v-151q0 -67 12.5 -94
t41.5 -27q12 0 12 -9t-12 -9q-24 0 -43 28t-19 106v37q-19 -87 -80 -134.5t-160 -47.5q-90 0 -145 41.5t-72 123.5v-175q0 -49 2 -84t2 -46q2 -26 2 -33t-3 -12t-7 -5q-10 0 -10 17z" />
    <glyph glyph-name="paragraph" unicode="&#xb6;" horiz-adv-x="560" 
d="M390 13l2 47q5 128 5 210v35h-112q-103 0 -166.5 50.5t-63.5 149.5t63 147t167 48h73q15 0 26 1t16 1q8 0 8 -9q-3 -90 -3 -378q44 2 73 9v106q0 83 -5 210l-2 47q0 18 11 18q10 0 10 -18l-1 -47q-5 -127 -5 -210v-160q0 -82 5 -210l1 -47q0 -18 -10 -18q-11 0 -11 18
l2 47q5 128 5 210v35h-73v-35q0 -82 5 -210l1 -47q0 -18 -10 -18q-11 0 -11 18zM124.5 362q61.5 -49 160.5 -49q60 0 112 2v377h-113q-99 0 -160 -46.5t-61 -140.5t61.5 -143z" />
    <glyph glyph-name="periodcentered" unicode="&#xb7;" horiz-adv-x="270" 
d="M92 238q-17 17 -17 43t17 43t43 17t43 -17t17 -43t-17 -43t-43 -17t-43 17zM98 244q15 -15 37 -15q23 0 37.5 15t14.5 37q0 23 -14.5 37.5t-37.5 14.5q-22 0 -37 -14.5t-15 -37.5q0 -22 15 -37z" />
    <glyph glyph-name="cedilla" unicode="&#xb8;" horiz-adv-x="270" 
d="M53 -189q-33 11 -33 23q0 7 9 7q8 0 22 -8q21 -10 44 -16.5t56 -6.5q50 0 70.5 15t20.5 37q0 28 -36.5 45t-129.5 17l75 76h9l-69 -69q159 0 159 -69q0 -25 -26 -43.5t-87 -18.5q-51 0 -84 11z" />
    <glyph glyph-name="ordmasculine" unicode="&#xba;" horiz-adv-x="398" 
d="M123.5 437.5q-34.5 19.5 -54 54t-19.5 75.5t19.5 75t54 53.5t75.5 19.5t75.5 -19.5t54 -53.5t19.5 -75t-19.5 -75.5t-54 -54t-75.5 -19.5t-75.5 19.5zM76.5 495.5q18.5 -32.5 51 -51t71.5 -18.5t71.5 18.5t51 51t18.5 71.5t-18.5 71t-51 50.5t-71.5 18.5t-71.5 -18.5
t-51 -50.5t-18.5 -71t18.5 -71.5z" />
    <glyph glyph-name="guillemotright" unicode="&#xbb;" horiz-adv-x="425" 
d="M150.5 52q-1.5 5 2.5 9q6 7 32 31q97 94 182 185q-85 91 -182 185q-26 24 -32 31q-3 3 -3 7q0 7 7 7t14 -9q65 -73 204 -221q-139 -148 -204 -221q-7 -9 -14 -9q-5 0 -6.5 5zM50.5 52q-1.5 5 2.5 9q6 7 32 31q97 94 182 185q-85 91 -182 185q-26 24 -32 31q-3 3 -3 7
q0 7 7 7t14 -9q65 -73 204 -221q-139 -148 -204 -221q-7 -9 -14 -9q-5 0 -6.5 5z" />
    <glyph glyph-name="questiondown" unicode="&#xbf;" horiz-adv-x="455" 
d="M255.5 293.5q24.5 -8.5 46 -32t21.5 -63.5q0 -36 -18.5 -62t-45 -43.5t-70.5 -40.5q-42 -21 -67 -37t-42 -39.5t-17 -55.5q0 -36 24.5 -65t69 -45.5t101.5 -16.5q33 0 57 5t51 13q15 6 23 6q11 0 11 -8q0 -12 -42 -18.5t-90 -6.5q-103 0 -158 38t-55 98q0 33 17.5 57.5
t43 41t68.5 38.5q44 23 69.5 40t43.5 42t18 59q0 41 -21 57t-55 25q-15 4 -21.5 7t-6.5 9t9 6q11 0 35.5 -8.5zM216 499q17 17 43 17t43 -17t17 -43t-17 -43t-43 -17t-43 17t-17 43t17 43zM222 419q15 -15 37 -15q23 0 37.5 15t14.5 37q0 23 -14.5 37.5t-37.5 14.5
q-22 0 -37 -14.5t-15 -37.5q0 -22 15 -37z" />
    <glyph glyph-name="Agrave" unicode="&#xc0;" horiz-adv-x="820" 
d="M108.5 10q-25.5 18 -42 49t-16.5 66q0 36 19 67t57.5 49.5t92.5 18.5q76 0 200 -52.5t344 -200.5q-23 48 -196 368l-178 328l-90 -156q-62 -106 -112 -212q-7 -17 -18 -17q-7 0 -9.5 5.5t0.5 11.5l26 42q69 110 105 172l97 167h2l185 -340q84 -156 180 -321l21 -37
q4 -8 4 -14q0 -9 -10 -9q-6 0 -13 5q-219 148 -341 200t-197 52q-77 0 -119 -37t-42 -90q0 -43 24.5 -67t60.5 -39q4 -2 12.5 -5.5t12 -6t3.5 -5.5q0 -10 -14 -10q-23 0 -48.5 18zM285 902q0 4 3 7t7 3q6 0 11 -4l187 -131l-2 -3l-197 116q-9 5 -9 12z" />
    <glyph glyph-name="Aacute" unicode="&#xc1;" horiz-adv-x="820" 
d="M108.5 10q-25.5 18 -42 49t-16.5 66q0 36 19 67t57.5 49.5t92.5 18.5q76 0 200 -52.5t344 -200.5q-23 48 -196 368l-178 328l-90 -156q-62 -106 -112 -212q-7 -17 -18 -17q-7 0 -9.5 5.5t0.5 11.5l26 42q69 110 105 172l97 167h2l185 -340q84 -156 180 -321l21 -37
q4 -8 4 -14q0 -9 -10 -9q-6 0 -13 5q-219 148 -341 200t-197 52q-77 0 -119 -37t-42 -90q0 -43 24.5 -67t60.5 -39q4 -2 12.5 -5.5t12 -6t3.5 -5.5q0 -10 -14 -10q-23 0 -48.5 18zM285 777l187 131q5 4 11 4q4 0 7 -2.5t3 -6.5q0 -7 -9 -13l-197 -116z" />
    <glyph glyph-name="Acircumflex" unicode="&#xc2;" horiz-adv-x="820" 
d="M108.5 10q-25.5 18 -42 49t-16.5 66q0 36 19 67t57.5 49.5t92.5 18.5q76 0 200 -52.5t344 -200.5q-23 48 -196 368l-178 328l-90 -156q-62 -106 -112 -212q-7 -17 -18 -17q-7 0 -9.5 5.5t0.5 11.5l26 42q69 110 105 172l97 167h2l185 -340q84 -156 180 -321l21 -37
q4 -8 4 -14q0 -9 -10 -9q-6 0 -13 5q-219 148 -341 200t-197 52q-77 0 -119 -37t-42 -90q0 -43 24.5 -67t60.5 -39q4 -2 12.5 -5.5t12 -6t3.5 -5.5q0 -10 -14 -10q-23 0 -48.5 18zM228.5 766.5q-3.5 3.5 -3.5 7.5q0 5 5 10l31 24q57 42 132 107q58 -54 88 -80.5t45 -40.5
l29 -26l-7 -7l-47 44l-108 101q-68 -59 -115 -109l-26 -25q-9 -9 -16 -9q-4 0 -7.5 3.5z" />
    <glyph glyph-name="Atilde" unicode="&#xc3;" horiz-adv-x="820" 
d="M108.5 10q-25.5 18 -42 49t-16.5 66q0 36 19 67t57.5 49.5t92.5 18.5q76 0 200 -52.5t344 -200.5q-23 48 -196 368l-178 328l-90 -156q-62 -106 -112 -212q-7 -17 -18 -17q-7 0 -9.5 5.5t0.5 11.5l26 42q69 110 105 172l97 167h2l185 -340q84 -156 180 -321l21 -37
q4 -8 4 -14q0 -9 -10 -9q-6 0 -13 5q-219 148 -341 200t-197 52q-77 0 -119 -37t-42 -90q0 -43 24.5 -67t60.5 -39q4 -2 12.5 -5.5t12 -6t3.5 -5.5q0 -10 -14 -10q-23 0 -48.5 18zM432.5 804q-19.5 9 -43.5 26q-26 17 -42.5 24.5t-39.5 7.5q-31 0 -49.5 -11t-32.5 -29l-8 -8
t-13 -7q-7 0 -7 7q0 10 13.5 23.5t37 23t53.5 9.5q26 0 45.5 -9t43.5 -26q26 -17 43 -24.5t39 -7.5q31 0 49.5 11t32.5 29l8 8t13 7q7 0 7 -7q0 -8 -13.5 -22t-37.5 -24t-53 -10q-26 0 -45.5 9z" />
    <glyph glyph-name="Adieresis" unicode="&#xc4;" horiz-adv-x="820" 
d="M108.5 10q-25.5 18 -42 49t-16.5 66q0 36 19 67t57.5 49.5t92.5 18.5q76 0 200 -52.5t344 -200.5q-23 48 -196 368l-178 328l-90 -156q-62 -106 -112 -212q-7 -17 -18 -17q-7 0 -9.5 5.5t0.5 11.5l26 42q69 110 105 172l97 167h2l185 -340q84 -156 180 -321l21 -37
q4 -8 4 -14q0 -9 -10 -9q-6 0 -13 5q-219 148 -341 200t-197 52q-77 0 -119 -37t-42 -90q0 -43 24.5 -67t60.5 -39q4 -2 12.5 -5.5t12 -6t3.5 -5.5q0 -10 -14 -10q-23 0 -48.5 18zM302 824q-7 7 -7 17t7 17t17 7t17 -7t7 -17t-7 -17t-17 -7t-17 7zM444 824q-7 7 -7 17t7 17
t17 7t17 -7t7 -17t-7 -17t-17 -7t-17 7z" />
    <glyph glyph-name="Aring" unicode="&#xc5;" horiz-adv-x="820" 
d="M108.5 10q-25.5 18 -42 49t-16.5 66q0 36 19 67t57.5 49.5t92.5 18.5q76 0 200 -52.5t344 -200.5q-23 48 -196 368l-178 328l-90 -156q-62 -106 -112 -212q-7 -17 -18 -17q-7 0 -9.5 5.5t0.5 11.5l26 42q69 110 105 172l97 167h2l185 -340q84 -156 180 -321l21 -37
q4 -8 4 -14q0 -9 -10 -9q-6 0 -13 5q-219 148 -341 200t-197 52q-77 0 -119 -37t-42 -90q0 -43 24.5 -67t60.5 -39q4 -2 12.5 -5.5t12 -6t3.5 -5.5q0 -10 -14 -10q-23 0 -48.5 18zM356 807q-14 14 -14 34t14 34t34 14t34 -14t14 -34t-14 -34t-34 -14t-34 14zM361.5 812.5
q11.5 -11.5 28.5 -11.5t28.5 11.5t11.5 28.5t-11.5 28.5t-28.5 11.5t-28.5 -11.5t-11.5 -28.5t11.5 -28.5z" />
    <glyph glyph-name="AE" unicode="&#xc6;" horiz-adv-x="1284" 
d="M785 -9.5q-98 26.5 -162 63t-141 93.5q-55 -56 -88.5 -85.5t-76 -49.5t-92.5 -20t-90 18.5t-62.5 50.5t-22.5 70q0 36 21 67t61 50t96 19q49 0 91 -14t76.5 -36t86.5 -60q39 39 71 67.5t69 53.5l-53 97l-180 328l-90 -156q-62 -106 -112 -212q-7 -17 -18 -17
q-7 0 -9.5 5.5t0.5 11.5l26 42q69 110 105 172l97 167h2l187 -340l52 -93q39 26 79 44v138q0 117 -3 228q0 9 8 9q5 0 16 -1t26 -1h187q117 0 205 2h46q19 0 19 -11q0 -10 -15 -10l-40 2q-99 9 -215 9h-226v-361q113 49 258 49q107 0 167 -10q10 -2 14 -4t4 -6q0 -9 -9 -9
q-6 0 -10 1q-86 20 -166 20q-143 0 -258 -50v-194l75 -131q90 -23 205 -23q97 0 146.5 14t84.5 34q6 3 10 3q7 0 11 -6q1 -1 1 -3q0 -9 -13 -16q-26 -15 -81 -25.5t-139 -10.5q-133 0 -231 26.5zM78 67.5q20 -30.5 58 -49t89 -18.5q49 0 90.5 19.5t74 48t87.5 83.5
q-50 38 -84 59t-74.5 35t-88.5 14q-55 0 -94 -18t-58.5 -47t-19.5 -63q0 -33 20 -63.5zM623.5 61.5q59.5 -34.5 140.5 -57.5q-50 102 -139 267q-36 -24 -67.5 -52t-70.5 -67q77 -56 136.5 -90.5zM708 142v176q-39 -17 -76 -42z" />
    <glyph glyph-name="Ccedilla" unicode="&#xc7;" horiz-adv-x="835" 
d="M251 28q-88 44 -142 127t-54 196q0 112 53.5 194.5t141.5 126.5t189 44q65 0 121.5 -18t97.5 -46t61 -58q1 -1 1 -3q0 -5 -4.5 -7t-8.5 4q-35 48 -105.5 84t-163.5 36q-98 0 -184 -42.5t-138.5 -123.5t-52.5 -191q0 -111 53 -192.5t139 -124t183 -42.5q85 0 147.5 28.5
t98 64.5t68.5 81q12 17 19 25t12 8q7 0 7 -8q0 -17 -44.5 -69t-123 -95t-183.5 -43q-100 0 -188 44zM340 -205q-33 11 -33 23q0 7 9 7q8 0 22 -8q21 -10 44 -16.5t56 -6.5q50 0 70.5 15t20.5 37q0 28 -36.5 45t-129.5 17l75 76h9l-69 -69q159 0 159 -69q0 -25 -26 -43.5
t-87 -18.5q-51 0 -84 11z" />
    <glyph glyph-name="Egrave" unicode="&#xc8;" horiz-adv-x="635" 
d="M362 -27.5q-34 3.5 -89 10.5q-67 8 -115.5 12.5t-111.5 4.5q-7 0 -17 -2t-15 -2q-14 0 -14 9q0 10 13 10q29 0 37 11.5t8 49.5v269q0 27 20 32q-8 1 -14 9t-6 23v56q0 115 -3 229q0 8 8 8q5 0 16 -1t26 -1h187q117 0 209 2h47q19 0 19 -11q0 -10 -15 -10l-40 2
q-101 9 -220 9h-226v-282q0 -15 7 -22.5t19 -7.5h78q95 0 247 5l59 1q11 0 15 -2t4 -7q0 -10 -19 -10l-59 1q-122 4 -247 4h-78q-26 0 -26 -29v-270q0 -29 -7.5 -45t-26.5 -20q67 0 125 -5t128 -14q10 -1 57 -6.5t85 -5.5q67 0 100 13.5t53 36.5q7 8 12 8q8 0 8 -9t-7 -17
q-35 -40 -157 -40q-40 0 -74 3.5zM215 902q0 4 3 7t7 3q6 0 11 -4l187 -131l-2 -3l-197 116q-9 5 -9 12z" />
    <glyph glyph-name="Eacute" unicode="&#xc9;" horiz-adv-x="635" 
d="M362 -27.5q-34 3.5 -89 10.5q-67 8 -115.5 12.5t-111.5 4.5q-7 0 -17 -2t-15 -2q-14 0 -14 9q0 10 13 10q29 0 37 11.5t8 49.5v269q0 27 20 32q-8 1 -14 9t-6 23v56q0 115 -3 229q0 8 8 8q5 0 16 -1t26 -1h187q117 0 209 2h47q19 0 19 -11q0 -10 -15 -10l-40 2
q-101 9 -220 9h-226v-282q0 -15 7 -22.5t19 -7.5h78q95 0 247 5l59 1q11 0 15 -2t4 -7q0 -10 -19 -10l-59 1q-122 4 -247 4h-78q-26 0 -26 -29v-270q0 -29 -7.5 -45t-26.5 -20q67 0 125 -5t128 -14q10 -1 57 -6.5t85 -5.5q67 0 100 13.5t53 36.5q7 8 12 8q8 0 8 -9t-7 -17
q-35 -40 -157 -40q-40 0 -74 3.5zM215 777l187 131q5 4 11 4q4 0 7 -2.5t3 -6.5q0 -7 -9 -13l-197 -116z" />
    <glyph glyph-name="Ecircumflex" unicode="&#xca;" horiz-adv-x="635" 
d="M362 -27.5q-34 3.5 -89 10.5q-67 8 -115.5 12.5t-111.5 4.5q-7 0 -17 -2t-15 -2q-14 0 -14 9q0 10 13 10q29 0 37 11.5t8 49.5v269q0 27 20 32q-8 1 -14 9t-6 23v56q0 115 -3 229q0 8 8 8q5 0 16 -1t26 -1h187q117 0 209 2h47q19 0 19 -11q0 -10 -15 -10l-40 2
q-101 9 -220 9h-226v-282q0 -15 7 -22.5t19 -7.5h78q95 0 247 5l59 1q11 0 15 -2t4 -7q0 -10 -19 -10l-59 1q-122 4 -247 4h-78q-26 0 -26 -29v-270q0 -29 -7.5 -45t-26.5 -20q67 0 125 -5t128 -14q10 -1 57 -6.5t85 -5.5q67 0 100 13.5t53 36.5q7 8 12 8q8 0 8 -9t-7 -17
q-35 -40 -157 -40q-40 0 -74 3.5zM158.5 766.5q-3.5 3.5 -3.5 7.5q0 5 5 10l31 24q57 42 132 107q58 -54 88 -80.5t45 -40.5l29 -26l-7 -7l-47 44l-108 101q-68 -59 -115 -109l-26 -25q-9 -9 -16 -9q-4 0 -7.5 3.5z" />
    <glyph glyph-name="Edieresis" unicode="&#xcb;" horiz-adv-x="635" 
d="M362 -27.5q-34 3.5 -89 10.5q-67 8 -115.5 12.5t-111.5 4.5q-7 0 -17 -2t-15 -2q-14 0 -14 9q0 10 13 10q29 0 37 11.5t8 49.5v269q0 27 20 32q-8 1 -14 9t-6 23v56q0 115 -3 229q0 8 8 8q5 0 16 -1t26 -1h187q117 0 209 2h47q19 0 19 -11q0 -10 -15 -10l-40 2
q-101 9 -220 9h-226v-282q0 -15 7 -22.5t19 -7.5h78q95 0 247 5l59 1q11 0 15 -2t4 -7q0 -10 -19 -10l-59 1q-122 4 -247 4h-78q-26 0 -26 -29v-270q0 -29 -7.5 -45t-26.5 -20q67 0 125 -5t128 -14q10 -1 57 -6.5t85 -5.5q67 0 100 13.5t53 36.5q7 8 12 8q8 0 8 -9t-7 -17
q-35 -40 -157 -40q-40 0 -74 3.5zM232 824q-7 7 -7 17t7 17t17 7t17 -7t7 -17t-7 -17t-17 -7t-17 7zM374 824q-7 7 -7 17t7 17t17 7t17 -7t7 -17t-7 -17t-17 -7t-17 7z" />
    <glyph glyph-name="Igrave" unicode="&#xcc;" horiz-adv-x="285" 
d="M35 5q0 10 19 10q5 0 14.5 -2.5t23.5 -2.5q30 0 38.5 13.5t8.5 52.5v551q0 30 5.5 45t19.5 19h-23q-37 0 -57.5 -2.5t-27.5 -2.5q-21 0 -21 9q0 8 21 8q7 0 27.5 -1.5t57.5 -1.5h14q39 0 54.5 2t21.5 2q19 0 19 -9q0 -10 -19 -10q-5 0 -14.5 2.5t-23.5 2.5
q-29 0 -37.5 -13.5t-8.5 -52.5v-551q0 -30 -5.5 -45t-19.5 -19h22q37 0 57.5 2.5t27.5 2.5q21 0 21 -9q0 -8 -21 -8q-7 0 -27.5 1.5t-57.5 1.5h-14q-39 0 -54.5 -2t-21.5 -2q-19 0 -19 9zM38 902q0 4 3 7t7 3q6 0 11 -4l187 -131l-2 -3l-197 116q-9 5 -9 12z" />
    <glyph glyph-name="Iacute" unicode="&#xcd;" horiz-adv-x="285" 
d="M35 5q0 10 19 10q5 0 14.5 -2.5t23.5 -2.5q30 0 38.5 13.5t8.5 52.5v551q0 30 5.5 45t19.5 19h-23q-37 0 -57.5 -2.5t-27.5 -2.5q-21 0 -21 9q0 8 21 8q7 0 27.5 -1.5t57.5 -1.5h14q39 0 54.5 2t21.5 2q19 0 19 -9q0 -10 -19 -10q-5 0 -14.5 2.5t-23.5 2.5
q-29 0 -37.5 -13.5t-8.5 -52.5v-551q0 -30 -5.5 -45t-19.5 -19h22q37 0 57.5 2.5t27.5 2.5q21 0 21 -9q0 -8 -21 -8q-7 0 -27.5 1.5t-57.5 1.5h-14q-39 0 -54.5 -2t-21.5 -2q-19 0 -19 9zM38 777l187 131q5 4 11 4q4 0 7 -2.5t3 -6.5q0 -7 -9 -13l-197 -116z" />
    <glyph glyph-name="Icircumflex" unicode="&#xce;" horiz-adv-x="285" 
d="M35 5q0 10 19 10q5 0 14.5 -2.5t23.5 -2.5q30 0 38.5 13.5t8.5 52.5v551q0 30 5.5 45t19.5 19h-23q-37 0 -57.5 -2.5t-27.5 -2.5q-21 0 -21 9q0 8 21 8q7 0 27.5 -1.5t57.5 -1.5h14q39 0 54.5 2t21.5 2q19 0 19 -9q0 -10 -19 -10q-5 0 -14.5 2.5t-23.5 2.5
q-29 0 -37.5 -13.5t-8.5 -52.5v-551q0 -30 -5.5 -45t-19.5 -19h22q37 0 57.5 2.5t27.5 2.5q21 0 21 -9q0 -8 -21 -8q-7 0 -27.5 1.5t-57.5 1.5h-14q-39 0 -54.5 -2t-21.5 -2q-19 0 -19 9zM-18.5 766.5q-3.5 3.5 -3.5 7.5q0 5 5 10l31 24q57 42 132 107q58 -54 88 -80.5
t45 -40.5l29 -26l-7 -7l-47 44l-108 101q-68 -59 -115 -109l-26 -25q-9 -9 -16 -9q-4 0 -7.5 3.5z" />
    <glyph glyph-name="Idieresis" unicode="&#xcf;" horiz-adv-x="285" 
d="M35 5q0 10 19 10q5 0 14.5 -2.5t23.5 -2.5q30 0 38.5 13.5t8.5 52.5v551q0 30 5.5 45t19.5 19h-23q-37 0 -57.5 -2.5t-27.5 -2.5q-21 0 -21 9q0 8 21 8q7 0 27.5 -1.5t57.5 -1.5h14q39 0 54.5 2t21.5 2q19 0 19 -9q0 -10 -19 -10q-5 0 -14.5 2.5t-23.5 2.5
q-29 0 -37.5 -13.5t-8.5 -52.5v-551q0 -30 -5.5 -45t-19.5 -19h22q37 0 57.5 2.5t27.5 2.5q21 0 21 -9q0 -8 -21 -8q-7 0 -27.5 1.5t-57.5 1.5h-14q-39 0 -54.5 -2t-21.5 -2q-19 0 -19 9zM55 824q-7 7 -7 17t7 17t17 7t17 -7t7 -17t-7 -17t-17 -7t-17 7zM197 824q-7 7 -7 17
t7 17t17 7t17 -7t7 -17t-7 -17t-17 -7t-17 7z" />
    <glyph glyph-name="Eth" unicode="&#xd0;" horiz-adv-x="725" 
d="M417 276q-122 4 -247 4h-86l2 -61q0 -19 -10 -19q-11 0 -11 19l2 61h-2q-11 0 -33 -2l-26 -1q-3 0 -4.5 2.5t-1.5 4.5q0 7 6 7l26 -1q22 -2 33 -2h2q4 90 4 187q0 107 -3 218q0 9 8 9q5 0 16 -1t26 -1h200q118 0 197 -47.5t117 -128t38 -178.5q0 -110 -45.5 -192
t-126 -126t-182.5 -44q-70 0 -128 19.5t-97.5 47.5t-56.5 56q-4 6 -4 11q0 10 10 10q6 0 13 -10q30 -48 99 -87t168 -39q97 0 174.5 42.5t122.5 123t45 188.5q0 96 -37 174t-114.5 125t-192.5 47h-239v-217q0 -97 4 -187h87q95 0 247 5l59 1q19 0 19 -10q0 -9 -19 -9z" />
    <glyph glyph-name="Ntilde" unicode="&#xd1;" horiz-adv-x="710" 
d="M65 14q0 5 0.5 18.5t0.5 40.5q5 168 5 272l-1 276q-1 38 -1 79q0 5 4 5t8 -6l550 -685v341q0 105 -5 272l-2 59q0 19 11 19q10 0 10 -19q0 -5 -0.5 -18.5t-0.5 -40.5q-5 -167 -5 -272l1 -276q1 -38 1 -79q0 -5 -4 -5q-3 0 -8 6l-550 685v-341q0 -104 5 -272l2 -59
q0 -19 -11 -19q-10 0 -10 19zM397.5 804q-19.5 9 -43.5 26q-26 17 -42.5 24.5t-39.5 7.5q-31 0 -49.5 -11t-32.5 -29l-8 -8t-13 -7q-7 0 -7 7q0 10 13.5 23.5t37 23t53.5 9.5q26 0 45.5 -9t43.5 -26q26 -17 43 -24.5t39 -7.5q31 0 49.5 11t32.5 29l8 8t13 7q7 0 7 -7
q0 -8 -13.5 -22t-37.5 -24t-53 -10q-26 0 -45.5 9z" />
    <glyph glyph-name="Ograve" unicode="&#xd2;" horiz-adv-x="860" 
d="M245 30q-86 46 -138 129.5t-52 191.5q0 107 52 190t138 129t185 46t185 -46t138 -129t52 -190q0 -108 -52 -191.5t-138 -129.5t-185 -46t-185 46zM114 163q51 -82 135.5 -126.5t180.5 -44.5t180.5 44.5t135.5 126.5t51 188q0 105 -51 186.5t-135.5 126t-180.5 44.5
t-180.5 -44.5t-135.5 -126t-51 -186.5q0 -106 51 -188zM325 902q0 4 3 7t7 3q6 0 11 -4l187 -131l-2 -3l-197 116q-9 5 -9 12z" />
    <glyph glyph-name="Oacute" unicode="&#xd3;" horiz-adv-x="860" 
d="M245 30q-86 46 -138 129.5t-52 191.5q0 107 52 190t138 129t185 46t185 -46t138 -129t52 -190q0 -108 -52 -191.5t-138 -129.5t-185 -46t-185 46zM114 163q51 -82 135.5 -126.5t180.5 -44.5t180.5 44.5t135.5 126.5t51 188q0 105 -51 186.5t-135.5 126t-180.5 44.5
t-180.5 -44.5t-135.5 -126t-51 -186.5q0 -106 51 -188zM325 777l187 131q5 4 11 4q4 0 7 -2.5t3 -6.5q0 -7 -9 -13l-197 -116z" />
    <glyph glyph-name="Ocircumflex" unicode="&#xd4;" horiz-adv-x="860" 
d="M245 30q-86 46 -138 129.5t-52 191.5q0 107 52 190t138 129t185 46t185 -46t138 -129t52 -190q0 -108 -52 -191.5t-138 -129.5t-185 -46t-185 46zM114 163q51 -82 135.5 -126.5t180.5 -44.5t180.5 44.5t135.5 126.5t51 188q0 105 -51 186.5t-135.5 126t-180.5 44.5
t-180.5 -44.5t-135.5 -126t-51 -186.5q0 -106 51 -188zM268.5 766.5q-3.5 3.5 -3.5 7.5q0 5 5 10l31 24q57 42 132 107q58 -54 88 -80.5t45 -40.5l29 -26l-7 -7l-47 44l-108 101q-68 -59 -115 -109l-26 -25q-9 -9 -16 -9q-4 0 -7.5 3.5z" />
    <glyph glyph-name="Otilde" unicode="&#xd5;" horiz-adv-x="860" 
d="M245 30q-86 46 -138 129.5t-52 191.5q0 107 52 190t138 129t185 46t185 -46t138 -129t52 -190q0 -108 -52 -191.5t-138 -129.5t-185 -46t-185 46zM114 163q51 -82 135.5 -126.5t180.5 -44.5t180.5 44.5t135.5 126.5t51 188q0 105 -51 186.5t-135.5 126t-180.5 44.5
t-180.5 -44.5t-135.5 -126t-51 -186.5q0 -106 51 -188zM472.5 804q-19.5 9 -43.5 26q-26 17 -42.5 24.5t-39.5 7.5q-31 0 -49.5 -11t-32.5 -29l-8 -8t-13 -7q-7 0 -7 7q0 10 13.5 23.5t37 23t53.5 9.5q26 0 45.5 -9t43.5 -26q26 -17 43 -24.5t39 -7.5q31 0 49.5 11t32.5 29
l8 8t13 7q7 0 7 -7q0 -8 -13.5 -22t-37.5 -24t-53 -10q-26 0 -45.5 9z" />
    <glyph glyph-name="Odieresis" unicode="&#xd6;" horiz-adv-x="860" 
d="M245 30q-86 46 -138 129.5t-52 191.5q0 107 52 190t138 129t185 46t185 -46t138 -129t52 -190q0 -108 -52 -191.5t-138 -129.5t-185 -46t-185 46zM114 163q51 -82 135.5 -126.5t180.5 -44.5t180.5 44.5t135.5 126.5t51 188q0 105 -51 186.5t-135.5 126t-180.5 44.5
t-180.5 -44.5t-135.5 -126t-51 -186.5q0 -106 51 -188zM342 824q-7 7 -7 17t7 17t17 7t17 -7t7 -17t-7 -17t-17 -7t-17 7zM484 824q-7 7 -7 17t7 17t17 7t17 -7t7 -17t-7 -17t-17 -7t-17 7z" />
    <glyph glyph-name="multiply" unicode="&#xd7;" horiz-adv-x="510" 
d="M35 53l214 220l-214 220l6 6l214 -220l214 220l6 -6l-214 -220l214 -220l-6 -6l-214 220l-214 -220z" />
    <glyph glyph-name="Oslash" unicode="&#xd8;" horiz-adv-x="860" 
d="M344 -68l12 59q-84 16 -152.5 64.5t-108.5 125t-40 170.5q0 107 52 190t138 129t185 46q34 0 59 -4l9 48q4 16 11 16q4 0 6 -4.5t0 -11.5l-11 -51q84 -16 152.5 -64.5t108.5 -124t40 -169.5q0 -108 -52 -191.5t-138 -129.5t-185 -46q-34 0 -66 6l-11 -58q-2 -8 -6 -8
q-5 0 -3 8zM102.5 184q39.5 -75 106.5 -122.5t148 -62.5q35 175 55 285l25 132q19 101 39 220l12 68q-25 4 -58 4q-96 0 -180.5 -44.5t-135.5 -126t-51 -186.5q0 -92 39.5 -167zM430 -8q96 0 180.5 44.5t135.5 126.5t51 188q0 92 -39.5 166t-106.5 121.5t-148 62.5
q-33 -148 -59 -285l-25 -132l-54 -287q35 -5 65 -5z" />
    <glyph glyph-name="Ugrave" unicode="&#xd9;" horiz-adv-x="770" 
d="M153.5 60q-82.5 76 -82.5 221v156q0 93 -5 203l-1 46q0 19 10 19q11 0 11 -19l-2 -46q-5 -110 -5 -203v-156q0 -142 80 -215.5t226 -73.5t226 73.5t80 215.5v156q0 93 -5 203l-2 46q0 19 11 19q10 0 10 -19l-1 -46q-5 -110 -5 -203v-156q0 -145 -82.5 -221t-231.5 -76
t-231.5 76zM280 902q0 4 3 7t7 3q6 0 11 -4l187 -131l-2 -3l-197 116q-9 5 -9 12z" />
    <glyph glyph-name="Uacute" unicode="&#xda;" horiz-adv-x="770" 
d="M153.5 60q-82.5 76 -82.5 221v156q0 93 -5 203l-1 46q0 19 10 19q11 0 11 -19l-2 -46q-5 -110 -5 -203v-156q0 -142 80 -215.5t226 -73.5t226 73.5t80 215.5v156q0 93 -5 203l-2 46q0 19 11 19q10 0 10 -19l-1 -46q-5 -110 -5 -203v-156q0 -145 -82.5 -221t-231.5 -76
t-231.5 76zM280 777l187 131q5 4 11 4q4 0 7 -2.5t3 -6.5q0 -7 -9 -13l-197 -116z" />
    <glyph glyph-name="Ucircumflex" unicode="&#xdb;" horiz-adv-x="770" 
d="M153.5 60q-82.5 76 -82.5 221v156q0 93 -5 203l-1 46q0 19 10 19q11 0 11 -19l-2 -46q-5 -110 -5 -203v-156q0 -142 80 -215.5t226 -73.5t226 73.5t80 215.5v156q0 93 -5 203l-2 46q0 19 11 19q10 0 10 -19l-1 -46q-5 -110 -5 -203v-156q0 -145 -82.5 -221t-231.5 -76
t-231.5 76zM223.5 766.5q-3.5 3.5 -3.5 7.5q0 5 5 10l31 24q57 42 132 107q58 -54 88 -80.5t45 -40.5l29 -26l-7 -7l-47 44l-108 101q-68 -59 -115 -109l-26 -25q-9 -9 -16 -9q-4 0 -7.5 3.5z" />
    <glyph glyph-name="Udieresis" unicode="&#xdc;" horiz-adv-x="770" 
d="M153.5 60q-82.5 76 -82.5 221v156q0 93 -5 203l-1 46q0 19 10 19q11 0 11 -19l-2 -46q-5 -110 -5 -203v-156q0 -142 80 -215.5t226 -73.5t226 73.5t80 215.5v156q0 93 -5 203l-2 46q0 19 11 19q10 0 10 -19l-1 -46q-5 -110 -5 -203v-156q0 -145 -82.5 -221t-231.5 -76
t-231.5 76zM297 824q-7 7 -7 17t7 17t17 7t17 -7t7 -17t-7 -17t-17 -7t-17 7zM439 824q-7 7 -7 17t7 17t17 7t17 -7t7 -17t-7 -17t-17 -7t-17 7z" />
    <glyph glyph-name="Yacute" unicode="&#xdd;" horiz-adv-x="790" 
d="M377 -192q-62 24 -62 88q0 41 71 152l-145 278q-92 178 -193 355q-3 5 -3 10q0 4 3 7t9 3q8 0 13 -12l21 -44q10 -20 53 -108.5t105 -208.5l142 -272q35 54 135 196q104 145 157 229.5t53 122.5q0 55 -49.5 73.5t-132.5 18.5q-48 0 -97 -7l-25 -2q-6 0 -8 2t-2 5q0 5 6 8
q9 5 37.5 9.5t74.5 4.5q84 0 144.5 -24t60.5 -88q0 -38 -52.5 -121.5t-157.5 -231.5q-106 -149 -158.5 -232.5t-52.5 -122.5q0 -54 50 -72.5t128 -18.5q57 0 108 7q12 1 20 1.5t10 -1.5t2 -5q0 -6 -9 -10q-10 -4 -37 -8.5t-72 -4.5q-85 0 -147 24zM300 777l187 131q5 4 11 4
q4 0 7 -2.5t3 -6.5q0 -7 -9 -13l-197 -116z" />
    <glyph glyph-name="Thorn" unicode="&#xde;" horiz-adv-x="635" 
d="M193 154.5q-4 1.5 -4 5.5q0 9 15 9q7 0 31 -4t85 -4q114 0 183 48.5t69 143.5q0 94 -68 140.5t-183 46.5h-174v-467q0 -30 -5.5 -45t-19.5 -19h22q37 0 57.5 2.5t27.5 2.5q21 0 21 -9q0 -8 -21 -8q-7 0 -27.5 1.5t-57.5 1.5h-14q-39 0 -54.5 -2t-21.5 -2q-19 0 -19 9
q0 10 19 10q5 0 14.5 -2.5t23.5 -2.5q30 0 38.5 13.5t8.5 52.5v551q0 30 5.5 45t19.5 19h-23q-37 0 -57.5 -2.5t-27.5 -2.5q-21 0 -21 9q0 8 21 8q7 0 27.5 -1.5t57.5 -1.5h14q39 0 54.5 2t21.5 2q19 0 19 -9q0 -10 -19 -10q-5 0 -14.5 2.5t-23.5 2.5q-29 0 -37.5 -13.5
t-8.5 -52.5v-76h173q119 0 189.5 -48t70.5 -147q0 -100 -71 -150t-189 -50h-113q-10 0 -14 1.5z" />
    <glyph glyph-name="germandbls" unicode="&#xdf;" horiz-adv-x="630" 
d="M163.5 -183q-61.5 33 -90.5 74q-3 4 -3 8t2 7t6 3q7 0 14 -9q30 -42 86 -75t137 -33q65 0 122.5 22.5t93.5 68.5t36 111q0 94 -76 141.5t-212 47.5q-22 0 -33 -0.5t-19 -0.5q-21 0 -21 10q0 5 5 10l279 290h-406v-317q0 -49 2 -84t2 -46q2 -26 2 -33t-3 -12t-7 -5
q-10 0 -10 17q0 7 2 33q0 11 2 46t2 84v367q0 77 10.5 118t46.5 62.5t110 21.5q53 0 53 -11q0 -8 -11 -8q-12 0 -20 1l-51 1q-58 0 -85.5 -19.5t-36 -57.5t-8.5 -112v-38h426l-288 -298q0 -5 18 -8t44 -3q134 0 212.5 -49t78.5 -148q0 -68 -36.5 -115.5t-96.5 -71
t-130 -23.5q-87 0 -148.5 33z" />
    <glyph glyph-name="agrave" unicode="&#xe0;" horiz-adv-x="665" 
d="M99 14q-49 30 -49 93q0 48 35 80t121 47l117 20q71 12 110.5 29t55.5 42t16 63q0 62 -37 84.5t-103 22.5h-54q-76 0 -166 -9l-24 -2q-8 0 -8 7q0 22 172 22q86 0 134.5 -10.5t71 -37t22.5 -75.5q0 -43 -18 -70.5t-59 -44.5t-113 -29l-117 -20q-82 -14 -115 -44t-33 -75
q0 -60 47 -87.5t130 -27.5q70 0 132 18t100 51.5t38 77.5q0 19 9 19q4 0 6.5 -3.5t1.5 -11.5q-4 -20 -4 -56t13.5 -56t46.5 -20q23 0 48 5l5 1q9 0 9 -8q0 -7 -11.5 -11t-29.5 -4q-38 0 -57 14.5t-25.5 36.5t-10.5 60q-20 -57 -98 -89t-173 -32q-87 0 -136 30zM219 702
q0 4 3 7t7 3q6 0 11 -4l187 -131l-2 -3l-197 116q-9 5 -9 12z" />
    <glyph glyph-name="aacute" unicode="&#xe1;" horiz-adv-x="665" 
d="M99 14q-49 30 -49 93q0 48 35 80t121 47l117 20q71 12 110.5 29t55.5 42t16 63q0 62 -37 84.5t-103 22.5h-54q-76 0 -166 -9l-24 -2q-8 0 -8 7q0 22 172 22q86 0 134.5 -10.5t71 -37t22.5 -75.5q0 -43 -18 -70.5t-59 -44.5t-113 -29l-117 -20q-82 -14 -115 -44t-33 -75
q0 -60 47 -87.5t130 -27.5q70 0 132 18t100 51.5t38 77.5q0 19 9 19q4 0 6.5 -3.5t1.5 -11.5q-4 -20 -4 -56t13.5 -56t46.5 -20q23 0 48 5l5 1q9 0 9 -8q0 -7 -11.5 -11t-29.5 -4q-38 0 -57 14.5t-25.5 36.5t-10.5 60q-20 -57 -98 -89t-173 -32q-87 0 -136 30zM219 577
l187 131q5 4 11 4q4 0 7 -2.5t3 -6.5q0 -7 -9 -13l-197 -116z" />
    <glyph glyph-name="acircumflex" unicode="&#xe2;" horiz-adv-x="665" 
d="M99 14q-49 30 -49 93q0 48 35 80t121 47l117 20q71 12 110.5 29t55.5 42t16 63q0 62 -37 84.5t-103 22.5h-54q-76 0 -166 -9l-24 -2q-8 0 -8 7q0 22 172 22q86 0 134.5 -10.5t71 -37t22.5 -75.5q0 -43 -18 -70.5t-59 -44.5t-113 -29l-117 -20q-82 -14 -115 -44t-33 -75
q0 -60 47 -87.5t130 -27.5q70 0 132 18t100 51.5t38 77.5q0 19 9 19q4 0 6.5 -3.5t1.5 -11.5q-4 -20 -4 -56t13.5 -56t46.5 -20q23 0 48 5l5 1q9 0 9 -8q0 -7 -11.5 -11t-29.5 -4q-38 0 -57 14.5t-25.5 36.5t-10.5 60q-20 -57 -98 -89t-173 -32q-87 0 -136 30zM162.5 566.5
q-3.5 3.5 -3.5 7.5q0 5 5 10l31 24q57 42 132 107q58 -54 88 -80.5t45 -40.5l29 -26l-7 -7l-47 44l-108 101q-68 -59 -115 -109l-26 -25q-9 -9 -16 -9q-4 0 -7.5 3.5z" />
    <glyph glyph-name="atilde" unicode="&#xe3;" horiz-adv-x="665" 
d="M99 14q-49 30 -49 93q0 48 35 80t121 47l117 20q71 12 110.5 29t55.5 42t16 63q0 62 -37 84.5t-103 22.5h-54q-76 0 -166 -9l-24 -2q-8 0 -8 7q0 22 172 22q86 0 134.5 -10.5t71 -37t22.5 -75.5q0 -43 -18 -70.5t-59 -44.5t-113 -29l-117 -20q-82 -14 -115 -44t-33 -75
q0 -60 47 -87.5t130 -27.5q70 0 132 18t100 51.5t38 77.5q0 19 9 19q4 0 6.5 -3.5t1.5 -11.5q-4 -20 -4 -56t13.5 -56t46.5 -20q23 0 48 5l5 1q9 0 9 -8q0 -7 -11.5 -11t-29.5 -4q-38 0 -57 14.5t-25.5 36.5t-10.5 60q-20 -57 -98 -89t-173 -32q-87 0 -136 30zM366.5 604
q-19.5 9 -43.5 26q-26 17 -42.5 24.5t-39.5 7.5q-31 0 -49.5 -11t-32.5 -29l-8 -8t-13 -7q-7 0 -7 7q0 10 13.5 23.5t37 23t53.5 9.5q26 0 45.5 -9t43.5 -26q26 -17 43 -24.5t39 -7.5q31 0 49.5 11t32.5 29l8 8t13 7q7 0 7 -7q0 -8 -13.5 -22t-37.5 -24t-53 -10
q-26 0 -45.5 9z" />
    <glyph glyph-name="adieresis" unicode="&#xe4;" horiz-adv-x="665" 
d="M99 14q-49 30 -49 93q0 48 35 80t121 47l117 20q71 12 110.5 29t55.5 42t16 63q0 62 -37 84.5t-103 22.5h-54q-76 0 -166 -9l-24 -2q-8 0 -8 7q0 22 172 22q86 0 134.5 -10.5t71 -37t22.5 -75.5q0 -43 -18 -70.5t-59 -44.5t-113 -29l-117 -20q-82 -14 -115 -44t-33 -75
q0 -60 47 -87.5t130 -27.5q70 0 132 18t100 51.5t38 77.5q0 19 9 19q4 0 6.5 -3.5t1.5 -11.5q-4 -20 -4 -56t13.5 -56t46.5 -20q23 0 48 5l5 1q9 0 9 -8q0 -7 -11.5 -11t-29.5 -4q-38 0 -57 14.5t-25.5 36.5t-10.5 60q-20 -57 -98 -89t-173 -32q-87 0 -136 30zM236 624
q-7 7 -7 17t7 17t17 7t17 -7t7 -17t-7 -17t-17 -7t-17 7zM378 624q-7 7 -7 17t7 17t17 7t17 -7t7 -17t-7 -17t-17 -7t-17 7z" />
    <glyph glyph-name="aring" unicode="&#xe5;" horiz-adv-x="665" 
d="M99 14q-49 30 -49 93q0 48 35 80t121 47l117 20q71 12 110.5 29t55.5 42t16 63q0 62 -37 84.5t-103 22.5h-54q-76 0 -166 -9l-24 -2q-8 0 -8 7q0 22 172 22q86 0 134.5 -10.5t71 -37t22.5 -75.5q0 -43 -18 -70.5t-59 -44.5t-113 -29l-117 -20q-82 -14 -115 -44t-33 -75
q0 -60 47 -87.5t130 -27.5q70 0 132 18t100 51.5t38 77.5q0 19 9 19q4 0 6.5 -3.5t1.5 -11.5q-4 -20 -4 -56t13.5 -56t46.5 -20q23 0 48 5l5 1q9 0 9 -8q0 -7 -11.5 -11t-29.5 -4q-38 0 -57 14.5t-25.5 36.5t-10.5 60q-20 -57 -98 -89t-173 -32q-87 0 -136 30zM290 607
q-14 14 -14 34t14 34t34 14t34 -14t14 -34t-14 -34t-34 -14t-34 14zM295.5 612.5q11.5 -11.5 28.5 -11.5t28.5 11.5t11.5 28.5t-11.5 28.5t-28.5 11.5t-28.5 -11.5t-11.5 -28.5t11.5 -28.5z" />
    <glyph glyph-name="ae" unicode="&#xe6;" horiz-adv-x="1135" 
d="M110 14.5q-60 30.5 -60 97.5q0 45 34.5 75t121.5 45l117 20q67 12 102.5 28t50 41.5t14.5 67.5q0 64 -36 85t-102 21h-41q-73 0 -166 -9l-25 -2q-7 0 -7 7q0 12 50.5 17t121.5 5q77 0 123 -11t68 -38t22 -75q0 -45 -16 -72t-54 -44t-106 -29l-116 -20
q-83 -14 -115.5 -41.5t-32.5 -70.5q0 -64 57.5 -92t145.5 -28q164 0 347 94q-62 73 -62 176q0 76 33 133.5t90 89t127 31.5q47 0 84 -14t57.5 -36t20.5 -47q0 -39 -45 -98.5t-122.5 -123.5t-171.5 -113q40 -44 96 -68t120 -24q61 0 105 20.5t69 45.5t49 58q18 26 25 26t7 -8
q0 -13 -32 -50.5t-90 -68.5t-134 -31q-65 0 -123 25t-98 71q-187 -96 -352 -96q-91 0 -151 30.5zM614 89q93 49 170 112t121.5 122t44.5 96q0 22 -19 42.5t-54.5 33.5t-80.5 13q-68 0 -123 -30t-87 -86t-32 -130q0 -100 60 -173z" />
    <glyph glyph-name="ccedilla" unicode="&#xe7;" horiz-adv-x="630" 
d="M193 16q-64 32 -103.5 92.5t-39.5 142.5q0 81 39.5 141.5t104 92t137.5 31.5q68 0 123.5 -26.5t78.5 -61.5q1 -1 1 -4q0 -5 -3.5 -6t-7.5 3q-25 35 -76 61t-117 26q-71 0 -133.5 -30.5t-100.5 -88.5t-38 -138t38.5 -139t100.5 -89.5t131 -30.5q62 0 106.5 20.5t70 46
t49.5 58.5q7 10 13.5 17.5t10.5 7.5q7 0 7 -8q0 -13 -32 -50.5t-90 -68.5t-134 -31q-72 0 -136 32zM230 -205q-33 11 -33 23q0 7 9 7q8 0 22 -8q21 -10 44 -16.5t56 -6.5q50 0 70.5 15t20.5 37q0 28 -36.5 45t-129.5 17l75 76h9l-69 -69q159 0 159 -69q0 -25 -26 -43.5
t-87 -18.5q-51 0 -84 11z" />
    <glyph glyph-name="egrave" unicode="&#xe8;" horiz-adv-x="625" 
d="M193.5 17q-64.5 33 -104 94.5t-39.5 143.5q0 79 37 138.5t97 91t129 31.5q58 0 107.5 -22.5t78.5 -61t29 -86.5h-455q-15 -40 -15 -91q0 -81 38.5 -140.5t101.5 -91t134 -31.5q60 0 103.5 20t68.5 45.5t49 58.5q18 26 25 26t7 -8q0 -13 -32 -50.5t-89 -68.5t-132 -31
q-74 0 -138.5 33zM519 353q0 40 -27.5 76t-74.5 57.5t-104 21.5q-79 0 -144 -41t-93 -114h443zM210 702q0 4 3 7t7 3q6 0 11 -4l187 -131l-2 -3l-197 116q-9 5 -9 12z" />
    <glyph glyph-name="eacute" unicode="&#xe9;" horiz-adv-x="625" 
d="M193.5 17q-64.5 33 -104 94.5t-39.5 143.5q0 79 37 138.5t97 91t129 31.5q58 0 107.5 -22.5t78.5 -61t29 -86.5h-455q-15 -40 -15 -91q0 -81 38.5 -140.5t101.5 -91t134 -31.5q60 0 103.5 20t68.5 45.5t49 58.5q18 26 25 26t7 -8q0 -13 -32 -50.5t-89 -68.5t-132 -31
q-74 0 -138.5 33zM519 353q0 40 -27.5 76t-74.5 57.5t-104 21.5q-79 0 -144 -41t-93 -114h443zM210 577l187 131q5 4 11 4q4 0 7 -2.5t3 -6.5q0 -7 -9 -13l-197 -116z" />
    <glyph glyph-name="ecircumflex" unicode="&#xea;" horiz-adv-x="625" 
d="M193.5 17q-64.5 33 -104 94.5t-39.5 143.5q0 79 37 138.5t97 91t129 31.5q58 0 107.5 -22.5t78.5 -61t29 -86.5h-455q-15 -40 -15 -91q0 -81 38.5 -140.5t101.5 -91t134 -31.5q60 0 103.5 20t68.5 45.5t49 58.5q18 26 25 26t7 -8q0 -13 -32 -50.5t-89 -68.5t-132 -31
q-74 0 -138.5 33zM519 353q0 40 -27.5 76t-74.5 57.5t-104 21.5q-79 0 -144 -41t-93 -114h443zM153.5 566.5q-3.5 3.5 -3.5 7.5q0 5 5 10l31 24q57 42 132 107q58 -54 88 -80.5t45 -40.5l29 -26l-7 -7l-47 44l-108 101q-68 -59 -115 -109l-26 -25q-9 -9 -16 -9
q-4 0 -7.5 3.5z" />
    <glyph glyph-name="edieresis" unicode="&#xeb;" horiz-adv-x="625" 
d="M193.5 17q-64.5 33 -104 94.5t-39.5 143.5q0 79 37 138.5t97 91t129 31.5q58 0 107.5 -22.5t78.5 -61t29 -86.5h-455q-15 -40 -15 -91q0 -81 38.5 -140.5t101.5 -91t134 -31.5q60 0 103.5 20t68.5 45.5t49 58.5q18 26 25 26t7 -8q0 -13 -32 -50.5t-89 -68.5t-132 -31
q-74 0 -138.5 33zM519 353q0 40 -27.5 76t-74.5 57.5t-104 21.5q-79 0 -144 -41t-93 -114h443zM227 624q-7 7 -7 17t7 17t17 7t17 -7t7 -17t-7 -17t-17 -7t-17 7zM369 624q-7 7 -7 17t7 17t17 7t17 -7t7 -17t-7 -17t-17 -7t-17 7z" />
    <glyph glyph-name="igrave" unicode="&#xec;" horiz-adv-x="150" 
d="M65 12q0 7 2 33q0 11 2 46t2 84v150q0 49 -2 84t-2 46q-2 26 -2 33q0 17 10 17q4 0 7 -5t3 -12t-2 -33q0 -11 -2 -46t-2 -84v-150q0 -49 2 -84t2 -46q2 -26 2 -33t-3 -12t-7 -5q-10 0 -10 17zM-30 702q0 4 3 7t7 3q6 0 11 -4l187 -131l-2 -3l-197 116q-9 5 -9 12z" />
    <glyph glyph-name="iacute" unicode="&#xed;" horiz-adv-x="150" 
d="M65 12q0 7 2 33q0 11 2 46t2 84v150q0 49 -2 84t-2 46q-2 26 -2 33q0 17 10 17q4 0 7 -5t3 -12t-2 -33q0 -11 -2 -46t-2 -84v-150q0 -49 2 -84t2 -46q2 -26 2 -33t-3 -12t-7 -5q-10 0 -10 17zM-30 577l187 131q5 4 11 4q4 0 7 -2.5t3 -6.5q0 -7 -9 -13l-197 -116z" />
    <glyph glyph-name="icircumflex" unicode="&#xee;" horiz-adv-x="150" 
d="M65 12q0 7 2 33q0 11 2 46t2 84v150q0 49 -2 84t-2 46q-2 26 -2 33q0 17 10 17q4 0 7 -5t3 -12t-2 -33q0 -11 -2 -46t-2 -84v-150q0 -49 2 -84t2 -46q2 -26 2 -33t-3 -12t-7 -5q-10 0 -10 17zM-86.5 566.5q-3.5 3.5 -3.5 7.5q0 5 5 10l31 24q57 42 132 107
q58 -54 88 -80.5t45 -40.5l29 -26l-7 -7l-47 44l-108 101q-68 -59 -115 -109l-26 -25q-9 -9 -16 -9q-4 0 -7.5 3.5z" />
    <glyph glyph-name="idieresis" unicode="&#xef;" horiz-adv-x="150" 
d="M65 12q0 7 2 33q0 11 2 46t2 84v150q0 49 -2 84t-2 46q-2 26 -2 33q0 17 10 17q4 0 7 -5t3 -12t-2 -33q0 -11 -2 -46t-2 -84v-150q0 -49 2 -84t2 -46q2 -26 2 -33t-3 -12t-7 -5q-10 0 -10 17zM-13 624q-7 7 -7 17t7 17t17 7t17 -7t7 -17t-7 -17t-17 -7t-17 7zM129 624
q-7 7 -7 17t7 17t17 7t17 -7t7 -17t-7 -17t-17 -7t-17 7z" />
    <glyph glyph-name="eth" unicode="&#xf0;" horiz-adv-x="645" 
d="M171.5 19q-58.5 35 -90 95.5t-31.5 135.5q0 76 32.5 137t92 95t135.5 34q50 0 100 -14.5t81 -39.5q2 -1 2 -5q0 -6 -4 -9.5t-10 1.5q-34 28 -79 43.5t-93 15.5q-72 0 -128.5 -33t-88.5 -92t-32 -133q0 -72 30.5 -131t87 -93t132.5 -34q79 0 136 36t87 98.5t30 138.5v220
q0 81 -13 130h-78q-27 0 -135 -3l-51 -2q-11 0 -15 2t-4 7q0 10 19 10l51 -2q72 -4 135 -4h76q-18 55 -60.5 79t-120.5 24q-26 0 -26 10t15 10q86 0 133.5 -29.5t66.5 -93.5h21q11 0 33 2l26 1q6 0 6 -7q0 -2 -1.5 -4.5t-4.5 -2.5l-26 1q-22 2 -33 2h-19q13 -52 13 -130
v-240q0 -56 2 -112t2 -75l2 -46q0 -7 -3 -12t-7 -5q-10 0 -10 17l2 52q4 136 4 124q-21 -91 -87 -147.5t-166 -56.5q-78 0 -136.5 35z" />
    <glyph glyph-name="ntilde" unicode="&#xf1;" horiz-adv-x="650" 
d="M560 12l2 45q0 18 2 65t2 93v38q0 122 -57 188.5t-168 66.5q-112 0 -172 -67t-60 -188v-38q0 -48 2 -97t2 -66l2 -40q0 -17 -10 -17t-10 17l2 40q0 17 2 66t2 97v151q0 67 -12.5 94t-41.5 27q-12 0 -12 9t12 9q24 0 43 -28t19 -106v-37q19 87 78.5 134.5t153.5 47.5
q114 0 173.5 -69t59.5 -192v-40q0 -46 2 -93t2 -65l2 -45q0 -7 -3 -12t-7 -5q-10 0 -10 17zM380.5 604q-19.5 9 -43.5 26q-26 17 -42.5 24.5t-39.5 7.5q-31 0 -49.5 -11t-32.5 -29l-8 -8t-13 -7q-7 0 -7 7q0 10 13.5 23.5t37 23t53.5 9.5q26 0 45.5 -9t43.5 -26
q26 -17 43 -24.5t39 -7.5q31 0 49.5 11t32.5 29l8 8t13 7q7 0 7 -7q0 -8 -13.5 -22t-37.5 -24t-53 -10q-26 0 -45.5 9z" />
    <glyph glyph-name="ograve" unicode="&#xf2;" 
d="M189 16q-62 32 -100.5 92.5t-38.5 141.5t38.5 141.5t100.5 92.5t131 32t131 -32t100.5 -92.5t38.5 -141.5t-38.5 -141.5t-100.5 -92.5t-131 -32t-131 32zM95 112.5q37 -58.5 97.5 -89.5t127.5 -31t127.5 31t97.5 89.5t37 137.5t-37 137.5t-97.5 89.5t-127.5 31
t-127.5 -31t-97.5 -89.5t-37 -137.5t37 -137.5zM215 702q0 4 3 7t7 3q6 0 11 -4l187 -131l-2 -3l-197 116q-9 5 -9 12z" />
    <glyph glyph-name="oacute" unicode="&#xf3;" 
d="M189 16q-62 32 -100.5 92.5t-38.5 141.5t38.5 141.5t100.5 92.5t131 32t131 -32t100.5 -92.5t38.5 -141.5t-38.5 -141.5t-100.5 -92.5t-131 -32t-131 32zM95 112.5q37 -58.5 97.5 -89.5t127.5 -31t127.5 31t97.5 89.5t37 137.5t-37 137.5t-97.5 89.5t-127.5 31
t-127.5 -31t-97.5 -89.5t-37 -137.5t37 -137.5zM215 577l187 131q5 4 11 4q4 0 7 -2.5t3 -6.5q0 -7 -9 -13l-197 -116z" />
    <glyph glyph-name="ocircumflex" unicode="&#xf4;" 
d="M189 16q-62 32 -100.5 92.5t-38.5 141.5t38.5 141.5t100.5 92.5t131 32t131 -32t100.5 -92.5t38.5 -141.5t-38.5 -141.5t-100.5 -92.5t-131 -32t-131 32zM95 112.5q37 -58.5 97.5 -89.5t127.5 -31t127.5 31t97.5 89.5t37 137.5t-37 137.5t-97.5 89.5t-127.5 31
t-127.5 -31t-97.5 -89.5t-37 -137.5t37 -137.5zM158.5 566.5q-3.5 3.5 -3.5 7.5q0 5 5 10l31 24q57 42 132 107q58 -54 88 -80.5t45 -40.5l29 -26l-7 -7l-47 44l-108 101q-68 -59 -115 -109l-26 -25q-9 -9 -16 -9q-4 0 -7.5 3.5z" />
    <glyph glyph-name="otilde" unicode="&#xf5;" 
d="M189 16q-62 32 -100.5 92.5t-38.5 141.5t38.5 141.5t100.5 92.5t131 32t131 -32t100.5 -92.5t38.5 -141.5t-38.5 -141.5t-100.5 -92.5t-131 -32t-131 32zM95 112.5q37 -58.5 97.5 -89.5t127.5 -31t127.5 31t97.5 89.5t37 137.5t-37 137.5t-97.5 89.5t-127.5 31
t-127.5 -31t-97.5 -89.5t-37 -137.5t37 -137.5zM362.5 604q-19.5 9 -43.5 26q-26 17 -42.5 24.5t-39.5 7.5q-31 0 -49.5 -11t-32.5 -29l-8 -8t-13 -7q-7 0 -7 7q0 10 13.5 23.5t37 23t53.5 9.5q26 0 45.5 -9t43.5 -26q26 -17 43 -24.5t39 -7.5q31 0 49.5 11t32.5 29l8 8
t13 7q7 0 7 -7q0 -8 -13.5 -22t-37.5 -24t-53 -10q-26 0 -45.5 9z" />
    <glyph glyph-name="odieresis" unicode="&#xf6;" 
d="M189 16q-62 32 -100.5 92.5t-38.5 141.5t38.5 141.5t100.5 92.5t131 32t131 -32t100.5 -92.5t38.5 -141.5t-38.5 -141.5t-100.5 -92.5t-131 -32t-131 32zM95 112.5q37 -58.5 97.5 -89.5t127.5 -31t127.5 31t97.5 89.5t37 137.5t-37 137.5t-97.5 89.5t-127.5 31
t-127.5 -31t-97.5 -89.5t-37 -137.5t37 -137.5zM232 624q-7 7 -7 17t7 17t17 7t17 -7t7 -17t-7 -17t-17 -7t-17 7zM374 624q-7 7 -7 17t7 17t17 7t17 -7t7 -17t-7 -17t-17 -7t-17 7z" />
    <glyph glyph-name="divide" unicode="&#xf7;" horiz-adv-x="660" 
d="M310 443q-8 8 -8 20t8 19.5t20 7.5t20 -7.5t8 -19.5t-8 -20t-20 -8t-20 8zM35 276h590v-8h-590v8zM310 102.5q8 7.5 20 7.5t20 -7.5t8 -19.5t-8 -20t-20 -8t-20 8t-8 20t8 19.5z" />
    <glyph glyph-name="oslash" unicode="&#xf8;" 
d="M251 -68l13 58q-59 12 -107.5 46.5t-77.5 89t-29 124.5q0 81 38.5 141.5t100.5 92.5t131 32q26 0 47 -4l7 39q1 6 3.5 11t6.5 5q9 0 5 -16l-9 -41q58 -13 105.5 -47.5t76 -89t28.5 -123.5q0 -81 -38.5 -141.5t-100.5 -92.5t-131 -32q-28 0 -49 4l-11 -56q-2 -8 -6 -8
q-5 0 -3 8zM86 129q28 -53 75 -86.5t104 -45.5q19 83 51 246l49 261q-20 4 -45 4q-67 0 -127.5 -31t-97.5 -89.5t-37 -137.5q0 -68 28 -121zM320 -8q67 0 127.5 31t97.5 89.5t37 137.5q0 67 -27.5 119.5t-73.5 86.5t-102 46q-39 -170 -56 -259l-50 -247q20 -4 47 -4z" />
    <glyph glyph-name="ugrave" unicode="&#xf9;" 
d="M128 47q-57 62 -57 183v56q0 46 -2 93t-2 65l-2 45q0 7 3 12t7 5q10 0 10 -17l-2 -45q0 -18 -2 -65t-2 -93v-54q0 -239 217 -239q117 0 178.5 67t61.5 188v38q0 48 -2 97t-2 66l-2 40q0 17 10 17t10 -17l-2 -40q0 -17 -2 -66t-2 -97v-151q0 -67 12.5 -94t41.5 -27
q12 0 12 -9t-12 -9q-24 0 -43 28t-19 106v37q-19 -87 -80 -134.5t-160 -47.5q-111 0 -168 62zM215 702q0 4 3 7t7 3q6 0 11 -4l187 -131l-2 -3l-197 116q-9 5 -9 12z" />
    <glyph glyph-name="uacute" unicode="&#xfa;" 
d="M128 47q-57 62 -57 183v56q0 46 -2 93t-2 65l-2 45q0 7 3 12t7 5q10 0 10 -17l-2 -45q0 -18 -2 -65t-2 -93v-54q0 -239 217 -239q117 0 178.5 67t61.5 188v38q0 48 -2 97t-2 66l-2 40q0 17 10 17t10 -17l-2 -40q0 -17 -2 -66t-2 -97v-151q0 -67 12.5 -94t41.5 -27
q12 0 12 -9t-12 -9q-24 0 -43 28t-19 106v37q-19 -87 -80 -134.5t-160 -47.5q-111 0 -168 62zM215 577l187 131q5 4 11 4q4 0 7 -2.5t3 -6.5q0 -7 -9 -13l-197 -116z" />
    <glyph glyph-name="ucircumflex" unicode="&#xfb;" 
d="M128 47q-57 62 -57 183v56q0 46 -2 93t-2 65l-2 45q0 7 3 12t7 5q10 0 10 -17l-2 -45q0 -18 -2 -65t-2 -93v-54q0 -239 217 -239q117 0 178.5 67t61.5 188v38q0 48 -2 97t-2 66l-2 40q0 17 10 17t10 -17l-2 -40q0 -17 -2 -66t-2 -97v-151q0 -67 12.5 -94t41.5 -27
q12 0 12 -9t-12 -9q-24 0 -43 28t-19 106v37q-19 -87 -80 -134.5t-160 -47.5q-111 0 -168 62zM158.5 566.5q-3.5 3.5 -3.5 7.5q0 5 5 10l31 24q57 42 132 107q58 -54 88 -80.5t45 -40.5l29 -26l-7 -7l-47 44l-108 101q-68 -59 -115 -109l-26 -25q-9 -9 -16 -9q-4 0 -7.5 3.5
z" />
    <glyph glyph-name="udieresis" unicode="&#xfc;" 
d="M128 47q-57 62 -57 183v56q0 46 -2 93t-2 65l-2 45q0 7 3 12t7 5q10 0 10 -17l-2 -45q0 -18 -2 -65t-2 -93v-54q0 -239 217 -239q117 0 178.5 67t61.5 188v38q0 48 -2 97t-2 66l-2 40q0 17 10 17t10 -17l-2 -40q0 -17 -2 -66t-2 -97v-151q0 -67 12.5 -94t41.5 -27
q12 0 12 -9t-12 -9q-24 0 -43 28t-19 106v37q-19 -87 -80 -134.5t-160 -47.5q-111 0 -168 62zM232 624q-7 7 -7 17t7 17t17 7t17 -7t7 -17t-7 -17t-17 -7t-17 7zM374 624q-7 7 -7 17t7 17t17 7t17 -7t7 -17t-7 -17t-17 -7t-17 7z" />
    <glyph glyph-name="yacute" unicode="&#xfd;" horiz-adv-x="605" 
d="M265.5 -190q-45.5 19 -45.5 67q0 23 16 52t45 69l-136 282q-29 60 -83 161q-22 41 -25 47l-2 8q0 9 9 9q7 0 12 -12l12 -28q44 -100 83 -181l135 -279q5 7 11.5 15.5t14.5 19.5q143 196 196.5 278t53.5 118t-33 47t-94 11q-15 0 -57 -3l-21 -1q-9 0 -12 3q-1 1 -1 3
q0 5 5 7q18 8 72 8q64 0 106.5 -15.5t42.5 -60.5q0 -37 -54 -118.5t-192 -269.5l-34 -47q-62 -84 -62 -124q0 -68 128 -68q33 0 59.5 5t29.5 2q1 -1 1 -4q0 -4 -4 -7q-7 -4 -26.5 -8.5t-48.5 -4.5q-56 0 -101.5 19zM198 577l187 131q5 4 11 4q4 0 7 -2.5t3 -6.5q0 -7 -9 -13
l-197 -116z" />
    <glyph glyph-name="thorn" unicode="&#xfe;" horiz-adv-x="690" 
d="M15 -195q0 4 4 7t11 3q4 0 18 -3t28 -3q27 0 36 14.5t9 52.5v609q0 56 -2 111.5t-2 74.5l-2 47q0 17 10 17q4 0 7 -5t3 -12l-2 -46q0 -19 -2 -75t-2 -112v-175q20 92 86 149t167 57q78 0 136.5 -35t90 -95.5t31.5 -135.5q0 -76 -32.5 -137t-92 -95t-135.5 -34
q-50 0 -100 14.5t-81 39.5q-3 2 -3 6q0 5 5 8.5t10 -1.5q34 -28 79 -43.5t93 -15.5q72 0 128.5 33t88.5 92t32 133q0 72 -30.5 131t-87 93t-132.5 34q-78 0 -135.5 -36.5t-87.5 -98.5t-30 -138v-360q0 -30 -6.5 -45.5t-21.5 -21.5h24q41 0 106 5l35 2q7 0 12 -2.5t5 -6.5
q0 -9 -17 -9q-20 0 -35 1q-52 2 -106 2h-14q-38 0 -56 -2t-25 -2q-15 0 -15 9z" />
    <glyph glyph-name="ydieresis" unicode="&#xff;" horiz-adv-x="605" 
d="M265.5 -190q-45.5 19 -45.5 67q0 23 16 52t45 69l-136 282q-29 60 -83 161q-22 41 -25 47l-2 8q0 9 9 9q7 0 12 -12l12 -28q44 -100 83 -181l135 -279q5 7 11.5 15.5t14.5 19.5q143 196 196.5 278t53.5 118t-33 47t-94 11q-15 0 -57 -3l-21 -1q-9 0 -12 3q-1 1 -1 3
q0 5 5 7q18 8 72 8q64 0 106.5 -15.5t42.5 -60.5q0 -37 -54 -118.5t-192 -269.5l-34 -47q-62 -84 -62 -124q0 -68 128 -68q33 0 59.5 5t29.5 2q1 -1 1 -4q0 -4 -4 -7q-7 -4 -26.5 -8.5t-48.5 -4.5q-56 0 -101.5 19zM215 624q-7 7 -7 17t7 17t17 7t17 -7t7 -17t-7 -17t-17 -7
t-17 7zM357 624q-7 7 -7 17t7 17t17 7t17 -7t7 -17t-7 -17t-17 -7t-17 7z" />
    <glyph glyph-name="Amacron" unicode="&#x100;" horiz-adv-x="820" 
d="M108.5 10q-25.5 18 -42 49t-16.5 66q0 36 19 67t57.5 49.5t92.5 18.5q76 0 200 -52.5t344 -200.5q-23 48 -196 368l-178 328l-90 -156q-62 -106 -112 -212q-7 -17 -18 -17q-7 0 -9.5 5.5t0.5 11.5l26 42q69 110 105 172l97 167h2l185 -340q84 -156 180 -321l21 -37
q4 -8 4 -14q0 -9 -10 -9q-6 0 -13 5q-219 148 -341 200t-197 52q-77 0 -119 -37t-42 -90q0 -43 24.5 -67t60.5 -39q4 -2 12.5 -5.5t12 -6t3.5 -5.5q0 -10 -14 -10q-23 0 -48.5 18zM232 836h315v-8h-315v8z" />
    <glyph glyph-name="amacron" unicode="&#x101;" horiz-adv-x="665" 
d="M99 14q-49 30 -49 93q0 48 35 80t121 47l117 20q71 12 110.5 29t55.5 42t16 63q0 62 -37 84.5t-103 22.5h-54q-76 0 -166 -9l-24 -2q-8 0 -8 7q0 22 172 22q86 0 134.5 -10.5t71 -37t22.5 -75.5q0 -43 -18 -70.5t-59 -44.5t-113 -29l-117 -20q-82 -14 -115 -44t-33 -75
q0 -60 47 -87.5t130 -27.5q70 0 132 18t100 51.5t38 77.5q0 19 9 19q4 0 6.5 -3.5t1.5 -11.5q-4 -20 -4 -56t13.5 -56t46.5 -20q23 0 48 5l5 1q9 0 9 -8q0 -7 -11.5 -11t-29.5 -4q-38 0 -57 14.5t-25.5 36.5t-10.5 60q-20 -57 -98 -89t-173 -32q-87 0 -136 30zM166 636h315
v-8h-315v8z" />
    <glyph glyph-name="Abreve" unicode="&#x102;" horiz-adv-x="820" 
d="M108.5 10q-25.5 18 -42 49t-16.5 66q0 36 19 67t57.5 49.5t92.5 18.5q76 0 200 -52.5t344 -200.5q-23 48 -196 368l-178 328l-90 -156q-62 -106 -112 -212q-7 -17 -18 -17q-7 0 -9.5 5.5t0.5 11.5l26 42q69 110 105 172l97 167h2l185 -340q84 -156 180 -321l21 -37
q4 -8 4 -14q0 -9 -10 -9q-6 0 -13 5q-219 148 -341 200t-197 52q-77 0 -119 -37t-42 -90q0 -43 24.5 -67t60.5 -39q4 -2 12.5 -5.5t12 -6t3.5 -5.5q0 -10 -14 -10q-23 0 -48.5 18zM326.5 790.5q-28.5 14.5 -42.5 37.5t-14 48q0 13 3.5 20.5t7.5 7.5q5 0 5 -8q0 -50 26.5 -81
t81.5 -31q52 0 80 25.5t28 64.5q0 18 -5 31h8q5 -13 5 -31q0 -42 -30 -70t-86 -28q-39 0 -67.5 14.5z" />
    <glyph glyph-name="abreve" unicode="&#x103;" horiz-adv-x="665" 
d="M99 14q-49 30 -49 93q0 48 35 80t121 47l117 20q71 12 110.5 29t55.5 42t16 63q0 62 -37 84.5t-103 22.5h-54q-76 0 -166 -9l-24 -2q-8 0 -8 7q0 22 172 22q86 0 134.5 -10.5t71 -37t22.5 -75.5q0 -43 -18 -70.5t-59 -44.5t-113 -29l-117 -20q-82 -14 -115 -44t-33 -75
q0 -60 47 -87.5t130 -27.5q70 0 132 18t100 51.5t38 77.5q0 19 9 19q4 0 6.5 -3.5t1.5 -11.5q-4 -20 -4 -56t13.5 -56t46.5 -20q23 0 48 5l5 1q9 0 9 -8q0 -7 -11.5 -11t-29.5 -4q-38 0 -57 14.5t-25.5 36.5t-10.5 60q-20 -57 -98 -89t-173 -32q-87 0 -136 30zM260.5 590.5
q-28.5 14.5 -42.5 37.5t-14 48q0 13 3.5 20.5t7.5 7.5q5 0 5 -8q0 -50 26.5 -81t81.5 -31q52 0 80 25.5t28 64.5q0 18 -5 31h8q5 -13 5 -31q0 -42 -30 -70t-86 -28q-39 0 -67.5 14.5z" />
    <glyph glyph-name="Aogonek" unicode="&#x104;" horiz-adv-x="820" 
d="M108.5 10q-25.5 18 -42 49t-16.5 66q0 36 19 67t57.5 49.5t92.5 18.5q76 0 200 -52.5t344 -200.5q-23 48 -196 368l-178 328l-90 -156q-62 -106 -112 -212q-7 -17 -18 -17q-7 0 -9.5 5.5t0.5 11.5l26 42q69 110 105 172l97 167h2l185 -340q84 -156 180 -321l21 -37
q4 -8 4 -14q0 -9 -10 -9h-66q-74 0 -110 -25.5t-36 -62.5q0 -30 25.5 -52t76.5 -22q26 0 43 6t37 16q16 9 24 9q11 0 11 -9q0 -11 -28.5 -21.5t-71.5 -10.5q-63 0 -94 24.5t-31 59.5q0 40 38.5 68t115.5 28h49q-218 146 -339 197.5t-195 51.5q-77 0 -119 -37t-42 -90
q0 -43 24.5 -67t60.5 -39q4 -2 12.5 -5.5t12 -6t3.5 -5.5q0 -10 -14 -10q-23 0 -48.5 18z" />
    <glyph glyph-name="aogonek" unicode="&#x105;" horiz-adv-x="665" 
d="M99 14q-49 30 -49 93q0 48 35 80t121 47l117 20q71 12 110.5 29t55.5 42t16 63q0 62 -37 84.5t-103 22.5h-54q-76 0 -166 -9l-24 -2q-8 0 -8 7q0 22 172 22q86 0 134.5 -10.5t71 -37t22.5 -75.5q0 -43 -18 -70.5t-59 -44.5t-113 -29l-117 -20q-82 -14 -115 -44t-33 -75
q0 -60 47 -87.5t130 -27.5q70 0 132 18t100 51.5t38 77.5q0 19 9 19q4 0 6.5 -3.5t1.5 -11.5q-4 -20 -4 -56t13.5 -56t46.5 -20q23 0 48 5l5 1q9 0 9 -8q0 -7 -11.5 -11t-29.5 -4h-66q-74 0 -110 -25.5t-36 -62.5q0 -30 25.5 -52t76.5 -22q26 0 43 6t37 16q16 9 24 9
q11 0 11 -9q0 -11 -28.5 -21.5t-71.5 -10.5q-63 0 -94 24.5t-31 59.5q0 40 38.5 68t115.5 28h20q-25 11 -33.5 34.5t-13.5 68.5q-20 -57 -98 -89t-173 -32q-87 0 -136 30z" />
    <glyph glyph-name="Cacute" unicode="&#x106;" horiz-adv-x="835" 
d="M251 28q-88 44 -142 127t-54 196q0 112 53.5 194.5t141.5 126.5t189 44q65 0 121.5 -18t97.5 -46t61 -58q1 -1 1 -3q0 -5 -4.5 -7t-8.5 4q-35 48 -105.5 84t-163.5 36q-98 0 -184 -42.5t-138.5 -123.5t-52.5 -191q0 -111 53 -192.5t139 -124t183 -42.5q85 0 147.5 28.5
t98 64.5t68.5 81q12 17 19 25t12 8q7 0 7 -8q0 -17 -44.5 -69t-123 -95t-183.5 -43q-100 0 -188 44zM333 777l187 131q5 4 11 4q4 0 7 -2.5t3 -6.5q0 -7 -9 -13l-197 -116z" />
    <glyph glyph-name="cacute" unicode="&#x107;" horiz-adv-x="630" 
d="M193 16q-64 32 -103.5 92.5t-39.5 142.5q0 81 39.5 141.5t104 92t137.5 31.5q68 0 123.5 -26.5t78.5 -61.5q1 -1 1 -4q0 -5 -3.5 -6t-7.5 3q-25 35 -76 61t-117 26q-71 0 -133.5 -30.5t-100.5 -88.5t-38 -138t38.5 -139t100.5 -89.5t131 -30.5q62 0 106.5 20.5t70 46
t49.5 58.5q7 10 13.5 17.5t10.5 7.5q7 0 7 -8q0 -13 -32 -50.5t-90 -68.5t-134 -31q-72 0 -136 32zM210 577l187 131q5 4 11 4q4 0 7 -2.5t3 -6.5q0 -7 -9 -13l-197 -116z" />
    <glyph glyph-name="Cdotaccent" unicode="&#x10a;" horiz-adv-x="835" 
d="M251 28q-88 44 -142 127t-54 196q0 112 53.5 194.5t141.5 126.5t189 44q65 0 121.5 -18t97.5 -46t61 -58q1 -1 1 -3q0 -5 -4.5 -7t-8.5 4q-35 48 -105.5 84t-163.5 36q-98 0 -184 -42.5t-138.5 -123.5t-52.5 -191q0 -111 53 -192.5t139 -124t183 -42.5q85 0 147.5 28.5
t98 64.5t68.5 81q12 17 19 25t12 8q7 0 7 -8q0 -17 -44.5 -69t-123 -95t-183.5 -43q-100 0 -188 44zM421 824q-7 7 -7 17t7 17t17 7t17 -7t7 -17t-7 -17t-17 -7t-17 7z" />
    <glyph glyph-name="cdotaccent" unicode="&#x10b;" horiz-adv-x="630" 
d="M193 16q-64 32 -103.5 92.5t-39.5 142.5q0 81 39.5 141.5t104 92t137.5 31.5q68 0 123.5 -26.5t78.5 -61.5q1 -1 1 -4q0 -5 -3.5 -6t-7.5 3q-25 35 -76 61t-117 26q-71 0 -133.5 -30.5t-100.5 -88.5t-38 -138t38.5 -139t100.5 -89.5t131 -30.5q62 0 106.5 20.5t70 46
t49.5 58.5q7 10 13.5 17.5t10.5 7.5q7 0 7 -8q0 -13 -32 -50.5t-90 -68.5t-134 -31q-72 0 -136 32zM298 624q-7 7 -7 17t7 17t17 7t17 -7t7 -17t-7 -17t-17 -7t-17 7z" />
    <glyph glyph-name="Ccaron" unicode="&#x10c;" horiz-adv-x="835" 
d="M251 28q-88 44 -142 127t-54 196q0 112 53.5 194.5t141.5 126.5t189 44q65 0 121.5 -18t97.5 -46t61 -58q1 -1 1 -3q0 -5 -4.5 -7t-8.5 4q-35 48 -105.5 84t-163.5 36q-98 0 -184 -42.5t-138.5 -123.5t-52.5 -191q0 -111 53 -192.5t139 -124t183 -42.5q85 0 147.5 28.5
t98 64.5t68.5 81q12 17 19 25t12 8q7 0 7 -8q0 -17 -44.5 -69t-123 -95t-183.5 -43q-100 0 -188 44zM347 838.5q-30 26.5 -45 40.5l-29 26l7 7l47 -44l108 -101q68 59 115 109l26 25q9 9 16 9q5 0 8 -3t3 -8t-5 -10l-31 -24q-57 -42 -132 -107q-58 54 -88 80.5z" />
    <glyph glyph-name="ccaron" unicode="&#x10d;" horiz-adv-x="630" 
d="M193 16q-64 32 -103.5 92.5t-39.5 142.5q0 81 39.5 141.5t104 92t137.5 31.5q68 0 123.5 -26.5t78.5 -61.5q1 -1 1 -4q0 -5 -3.5 -6t-7.5 3q-25 35 -76 61t-117 26q-71 0 -133.5 -30.5t-100.5 -88.5t-38 -138t38.5 -139t100.5 -89.5t131 -30.5q62 0 106.5 20.5t70 46
t49.5 58.5q7 10 13.5 17.5t10.5 7.5q7 0 7 -8q0 -13 -32 -50.5t-90 -68.5t-134 -31q-72 0 -136 32zM224 638.5q-30 26.5 -45 40.5l-29 26l7 7l47 -44l108 -101q68 59 115 109l26 25q9 9 16 9q5 0 8 -3t3 -8t-5 -10l-31 -24q-57 -42 -132 -107q-58 54 -88 80.5z" />
    <glyph glyph-name="Dcaron" unicode="&#x10e;" horiz-adv-x="725" 
d="M188 3.5q-58 19.5 -97.5 47.5t-56.5 56q-4 6 -4 11q0 10 10 10q6 0 13 -10q30 -48 99 -87t168 -39q97 0 174.5 42.5t122.5 123t45 188.5q0 96 -37 174t-114.5 125t-192.5 47h-239v-217q0 -94 5 -209l2 -47q0 -19 -10 -19q-11 0 -11 19l1 47q5 115 5 209q0 107 -3 218
q0 9 8 9q5 0 16 -1t26 -1h200q118 0 197 -47.5t117 -128t38 -178.5q0 -110 -45.5 -192t-126 -126t-182.5 -44q-70 0 -128 19.5zM238 838.5q-30 26.5 -45 40.5l-29 26l7 7l47 -44l108 -101q68 59 115 109l26 25q9 9 16 9q5 0 8 -3t3 -8t-5 -10l-31 -24q-57 -42 -132 -107
q-58 54 -88 80.5z" />
    <glyph glyph-name="dcaron" unicode="&#x10f;" horiz-adv-x="645" 
d="M171.5 19q-58.5 35 -90 95.5t-31.5 135.5q0 76 32.5 137t92 95t135.5 34q50 0 100 -14.5t81 -39.5q3 -1 3 -6t-5 -8.5t-10 1.5q-34 28 -79 43.5t-93 15.5q-72 0 -128.5 -33t-88.5 -92t-32 -133q0 -72 30.5 -131t87 -93t132.5 -34q78 0 135.5 36.5t87.5 98.5t30 138v220
q0 56 -2 111.5t-2 74.5l-2 47q0 17 10 17q4 0 7 -5t3 -12l-2 -46q0 -19 -2 -75t-2 -112v-240q0 -56 2 -112t2 -75l2 -46q0 -7 -3 -12t-7 -5q-10 0 -10 17l2 52q4 136 4 124q-21 -91 -87 -147.5t-166 -56.5q-78 0 -136.5 35zM627 461q0 82 -4 230q-1 14 -1 30q0 14 9 14
t9 -14q0 -16 -1 -30q-4 -148 -4 -230q0 -5 -4 -5t-4 5z" />
    <glyph glyph-name="Dcroat" unicode="&#x110;" horiz-adv-x="725" 
d="M417 276q-122 4 -247 4h-86l2 -61q0 -19 -10 -19q-11 0 -11 19l2 61h-2q-11 0 -33 -2l-26 -1q-3 0 -4.5 2.5t-1.5 4.5q0 7 6 7l26 -1q22 -2 33 -2h2q4 90 4 187q0 107 -3 218q0 9 8 9q5 0 16 -1t26 -1h200q118 0 197 -47.5t117 -128t38 -178.5q0 -110 -45.5 -192
t-126 -126t-182.5 -44q-70 0 -128 19.5t-97.5 47.5t-56.5 56q-4 6 -4 11q0 10 10 10q6 0 13 -10q30 -48 99 -87t168 -39q97 0 174.5 42.5t122.5 123t45 188.5q0 96 -37 174t-114.5 125t-192.5 47h-239v-217q0 -97 4 -187h87q95 0 247 5l59 1q19 0 19 -10q0 -9 -19 -9z" />
    <glyph glyph-name="dcroat" unicode="&#x111;" horiz-adv-x="645" 
d="M269 612q-4 2 -4 7q0 10 19 10l51 -2q72 -4 135 -4h88l-3 95q0 17 10 17q4 0 7 -5t3 -12l-3 -95h3q11 0 33 2l26 1q6 0 6 -7q0 -2 -1.5 -4.5t-4.5 -2.5l-26 1q-22 2 -33 2h-4q-2 -74 -2 -130v-240q0 -56 2 -112t2 -75l2 -46q0 -7 -3 -12t-7 -5q-10 0 -10 17l2 52
q4 136 4 124q-21 -91 -87 -147.5t-166 -56.5q-78 0 -136.5 35t-90 95.5t-31.5 135.5q0 76 32.5 137t92 95t135.5 34q50 0 100 -14.5t81 -39.5q3 -1 3 -6t-5 -8.5t-10 1.5q-34 28 -79 43.5t-93 15.5q-72 0 -128.5 -33t-88.5 -92t-32 -133q0 -72 30.5 -131t87 -93t132.5 -34
q78 0 135.5 36.5t87.5 98.5t30 138v220q0 56 -2 130h-89q-27 0 -135 -3l-51 -2q-11 0 -15 2z" />
    <glyph glyph-name="Emacron" unicode="&#x112;" horiz-adv-x="635" 
d="M362 -27.5q-34 3.5 -89 10.5q-67 8 -115.5 12.5t-111.5 4.5q-7 0 -17 -2t-15 -2q-14 0 -14 9q0 10 13 10q29 0 37 11.5t8 49.5v269q0 27 20 32q-8 1 -14 9t-6 23v56q0 115 -3 229q0 8 8 8q5 0 16 -1t26 -1h187q117 0 209 2h47q19 0 19 -11q0 -10 -15 -10l-40 2
q-101 9 -220 9h-226v-282q0 -15 7 -22.5t19 -7.5h78q95 0 247 5l59 1q11 0 15 -2t4 -7q0 -10 -19 -10l-59 1q-122 4 -247 4h-78q-26 0 -26 -29v-270q0 -29 -7.5 -45t-26.5 -20q67 0 125 -5t128 -14q10 -1 57 -6.5t85 -5.5q67 0 100 13.5t53 36.5q7 8 12 8q8 0 8 -9t-7 -17
q-35 -40 -157 -40q-40 0 -74 3.5zM162 836h315v-8h-315v8z" />
    <glyph glyph-name="emacron" unicode="&#x113;" horiz-adv-x="625" 
d="M193.5 17q-64.5 33 -104 94.5t-39.5 143.5q0 79 37 138.5t97 91t129 31.5q58 0 107.5 -22.5t78.5 -61t29 -86.5h-455q-15 -40 -15 -91q0 -81 38.5 -140.5t101.5 -91t134 -31.5q60 0 103.5 20t68.5 45.5t49 58.5q18 26 25 26t7 -8q0 -13 -32 -50.5t-89 -68.5t-132 -31
q-74 0 -138.5 33zM519 353q0 40 -27.5 76t-74.5 57.5t-104 21.5q-79 0 -144 -41t-93 -114h443zM157 636h315v-8h-315v8z" />
    <glyph glyph-name="Edotaccent" unicode="&#x116;" horiz-adv-x="635" 
d="M362 -27.5q-34 3.5 -89 10.5q-67 8 -115.5 12.5t-111.5 4.5q-7 0 -17 -2t-15 -2q-14 0 -14 9q0 10 13 10q29 0 37 11.5t8 49.5v269q0 27 20 32q-8 1 -14 9t-6 23v56q0 115 -3 229q0 8 8 8q5 0 16 -1t26 -1h187q117 0 209 2h47q19 0 19 -11q0 -10 -15 -10l-40 2
q-101 9 -220 9h-226v-282q0 -15 7 -22.5t19 -7.5h78q95 0 247 5l59 1q11 0 15 -2t4 -7q0 -10 -19 -10l-59 1q-122 4 -247 4h-78q-26 0 -26 -29v-270q0 -29 -7.5 -45t-26.5 -20q67 0 125 -5t128 -14q10 -1 57 -6.5t85 -5.5q67 0 100 13.5t53 36.5q7 8 12 8q8 0 8 -9t-7 -17
q-35 -40 -157 -40q-40 0 -74 3.5zM303 824q-7 7 -7 17t7 17t17 7t17 -7t7 -17t-7 -17t-17 -7t-17 7z" />
    <glyph glyph-name="edotaccent" unicode="&#x117;" horiz-adv-x="625" 
d="M193.5 17q-64.5 33 -104 94.5t-39.5 143.5q0 79 37 138.5t97 91t129 31.5q58 0 107.5 -22.5t78.5 -61t29 -86.5h-455q-15 -40 -15 -91q0 -81 38.5 -140.5t101.5 -91t134 -31.5q60 0 103.5 20t68.5 45.5t49 58.5q18 26 25 26t7 -8q0 -13 -32 -50.5t-89 -68.5t-132 -31
q-74 0 -138.5 33zM519 353q0 40 -27.5 76t-74.5 57.5t-104 21.5q-79 0 -144 -41t-93 -114h443zM298 624q-7 7 -7 17t7 17t17 7t17 -7t7 -17t-7 -17t-17 -7t-17 7z" />
    <glyph glyph-name="Eogonek" unicode="&#x118;" horiz-adv-x="635" 
d="M358 -151.5q-30 20.5 -30 53.5q0 24 14.5 42t43.5 27q-37 2 -114 12q-65 8 -113.5 12.5t-112.5 4.5q-7 0 -17 -2t-15 -2q-14 0 -14 9q0 10 13 10q29 0 37 11.5t8 49.5v269q0 27 20 32q-8 1 -14 9t-6 23v56q0 115 -3 229q0 8 8 8q5 0 16 -1t26 -1h187q117 0 209 2h47
q19 0 19 -11q0 -10 -15 -10l-40 2q-101 9 -220 9h-226v-282q0 -15 7 -22.5t19 -7.5h78q95 0 247 5l59 1q11 0 15 -2t4 -7q0 -10 -19 -10l-59 1q-122 4 -247 4h-78q-26 0 -26 -29v-270q0 -29 -7.5 -45t-26.5 -20q67 0 125 -5t128 -14q10 -1 57 -6.5t85 -5.5q67 0 100 13.5
t53 36.5q7 8 12 8q8 0 8 -9t-7 -17q-35 -40 -157 -40q-50 0 -75 -18.5t-25 -48.5q0 -28 25 -46t76 -18q28 0 46 6t36 16q16 9 23 9q11 0 11 -9q0 -11 -29 -21.5t-73 -10.5q-63 0 -93 20.5z" />
    <glyph glyph-name="eogonek" unicode="&#x119;" horiz-adv-x="625" 
d="M300 -151.5q-30 20.5 -30 53.5q0 55 77 82h-15q-74 0 -138.5 33t-104 94.5t-39.5 143.5q0 79 37 138.5t97 91t129 31.5q58 0 107.5 -22.5t78.5 -61t29 -86.5h-455q-15 -40 -15 -91q0 -81 38.5 -140.5t101.5 -91t134 -31.5q60 0 103.5 20t68.5 45.5t49 58.5q18 26 25 26
t7 -8q0 -11 -26 -43.5t-72.5 -63t-108.5 -40.5q-52 -14 -76 -35t-24 -50q0 -28 25 -46t76 -18q28 0 46 6t36 16q16 9 23 9q11 0 11 -9q0 -11 -29 -21.5t-73 -10.5q-63 0 -93 20.5zM519 353q0 40 -27.5 76t-74.5 57.5t-104 21.5q-79 0 -144 -41t-93 -114h443z" />
    <glyph glyph-name="Ecaron" unicode="&#x11a;" horiz-adv-x="635" 
d="M362 -27.5q-34 3.5 -89 10.5q-67 8 -115.5 12.5t-111.5 4.5q-7 0 -17 -2t-15 -2q-14 0 -14 9q0 10 13 10q29 0 37 11.5t8 49.5v269q0 27 20 32q-8 1 -14 9t-6 23v56q0 115 -3 229q0 8 8 8q5 0 16 -1t26 -1h187q117 0 209 2h47q19 0 19 -11q0 -10 -15 -10l-40 2
q-101 9 -220 9h-226v-282q0 -15 7 -22.5t19 -7.5h78q95 0 247 5l59 1q11 0 15 -2t4 -7q0 -10 -19 -10l-59 1q-122 4 -247 4h-78q-26 0 -26 -29v-270q0 -29 -7.5 -45t-26.5 -20q67 0 125 -5t128 -14q10 -1 57 -6.5t85 -5.5q67 0 100 13.5t53 36.5q7 8 12 8q8 0 8 -9t-7 -17
q-35 -40 -157 -40q-40 0 -74 3.5zM229 838.5q-30 26.5 -45 40.5l-29 26l7 7l47 -44l108 -101q68 59 115 109l26 25q9 9 16 9q5 0 8 -3t3 -8t-5 -10l-31 -24q-57 -42 -132 -107q-58 54 -88 80.5z" />
    <glyph glyph-name="ecaron" unicode="&#x11b;" horiz-adv-x="625" 
d="M193.5 17q-64.5 33 -104 94.5t-39.5 143.5q0 79 37 138.5t97 91t129 31.5q58 0 107.5 -22.5t78.5 -61t29 -86.5h-455q-15 -40 -15 -91q0 -81 38.5 -140.5t101.5 -91t134 -31.5q60 0 103.5 20t68.5 45.5t49 58.5q18 26 25 26t7 -8q0 -13 -32 -50.5t-89 -68.5t-132 -31
q-74 0 -138.5 33zM519 353q0 40 -27.5 76t-74.5 57.5t-104 21.5q-79 0 -144 -41t-93 -114h443zM224 638.5q-30 26.5 -45 40.5l-29 26l7 7l47 -44l108 -101q68 59 115 109l26 25q9 9 16 9q5 0 8 -3t3 -8t-5 -10l-31 -24q-57 -42 -132 -107q-58 54 -88 80.5z" />
    <glyph glyph-name="Gbreve" unicode="&#x11e;" horiz-adv-x="835" 
d="M242 27.5q-85 43.5 -136 127t-51 196.5q0 112 53.5 194.5t141.5 126.5t189 44q65 0 121.5 -18t97.5 -46t61 -58q1 -1 1 -3q0 -5 -4.5 -7t-8.5 4q-35 48 -105.5 84t-163.5 36q-98 0 -184 -42.5t-138.5 -123.5t-52.5 -191q0 -111 50 -192.5t133 -124t180 -42.5
q110 0 184 48.5t109.5 120t35.5 138.5q0 16 8 16q9 0 9 -26l-1 -29q-3 -66 -3 -100q0 -49 5 -109q2 -30 2 -37q0 -19 -11 -19q-10 0 -10 19q0 7 2 37q4 48 4 109q0 42 -2 84q-14 -69 -56 -128t-112.5 -95.5t-162.5 -36.5q-100 0 -185 43.5zM366.5 790.5
q-28.5 14.5 -42.5 37.5t-14 48q0 13 3.5 20.5t7.5 7.5q5 0 5 -8q0 -50 26.5 -81t81.5 -31q52 0 80 25.5t28 64.5q0 18 -5 31h8q5 -13 5 -31q0 -42 -30 -70t-86 -28q-39 0 -67.5 14.5z" />
    <glyph glyph-name="gbreve" unicode="&#x11f;" horiz-adv-x="600" 
d="M116 -174q-19 9 -19 21q0 5 4 6.5t9 -1.5q40 -23 76.5 -32.5t76.5 -9.5q83 0 146.5 30t98.5 78t35 100q0 84 -73 84q-41 0 -80 -19.5t-101 -61.5q-59 -40 -96.5 -59t-76.5 -19q-36 0 -58.5 21t-22.5 54q0 40 32.5 75t80 60t90.5 35q-83 10 -125.5 55.5t-42.5 108.5
q0 70 53 117t156 47q74 0 121.5 -21t62.5 -61q0 33 21.5 52t62.5 19q6 0 9.5 -2.5t3.5 -6.5t-3 -6.5t-8 -2.5q-37 0 -57.5 -10.5t-20.5 -38.5q0 -11 3.5 -20t3.5 -13q0 -8 -9 -8q-10 0 -10 12q0 44 -48.5 71.5t-131.5 27.5q-99 0 -150 -44.5t-51 -111.5t50.5 -112.5
t149.5 -45.5q59 0 101.5 17t65 45.5t22.5 61.5q0 10 -5 23v1q0 4 5 4.5t6 -4.5q2 -10 2 -24q0 -35 -23.5 -65.5t-68 -48.5t-105.5 -18q-37 0 -93.5 -23.5t-99 -62t-42.5 -82.5q0 -29 21 -48t53 -19q37 0 74.5 19t91.5 57q62 41 103.5 62t85.5 21q79 0 79 -92q0 -56 -38 -107
t-105.5 -83t-152.5 -32q-76 0 -139 30zM214.5 590.5q-28.5 14.5 -42.5 37.5t-14 48q0 13 3.5 20.5t7.5 7.5q5 0 5 -8q0 -50 26.5 -81t81.5 -31q52 0 80 25.5t28 64.5q0 18 -5 31h8q5 -13 5 -31q0 -42 -30 -70t-86 -28q-39 0 -67.5 14.5z" />
    <glyph glyph-name="Gdotaccent" unicode="&#x120;" horiz-adv-x="835" 
d="M242 27.5q-85 43.5 -136 127t-51 196.5q0 112 53.5 194.5t141.5 126.5t189 44q65 0 121.5 -18t97.5 -46t61 -58q1 -1 1 -3q0 -5 -4.5 -7t-8.5 4q-35 48 -105.5 84t-163.5 36q-98 0 -184 -42.5t-138.5 -123.5t-52.5 -191q0 -111 50 -192.5t133 -124t180 -42.5
q110 0 184 48.5t109.5 120t35.5 138.5q0 16 8 16q9 0 9 -26l-1 -29q-3 -66 -3 -100q0 -49 5 -109q2 -30 2 -37q0 -19 -11 -19q-10 0 -10 19q0 7 2 37q4 48 4 109q0 42 -2 84q-14 -69 -56 -128t-112.5 -95.5t-162.5 -36.5q-100 0 -185 43.5zM413 824q-7 7 -7 17t7 17t17 7
t17 -7t7 -17t-7 -17t-17 -7t-17 7z" />
    <glyph glyph-name="gdotaccent" unicode="&#x121;" horiz-adv-x="600" 
d="M116 -174q-19 9 -19 21q0 5 4 6.5t9 -1.5q40 -23 76.5 -32.5t76.5 -9.5q83 0 146.5 30t98.5 78t35 100q0 84 -73 84q-41 0 -80 -19.5t-101 -61.5q-59 -40 -96.5 -59t-76.5 -19q-36 0 -58.5 21t-22.5 54q0 40 32.5 75t80 60t90.5 35q-83 10 -125.5 55.5t-42.5 108.5
q0 70 53 117t156 47q74 0 121.5 -21t62.5 -61q0 33 21.5 52t62.5 19q6 0 9.5 -2.5t3.5 -6.5t-3 -6.5t-8 -2.5q-37 0 -57.5 -10.5t-20.5 -38.5q0 -11 3.5 -20t3.5 -13q0 -8 -9 -8q-10 0 -10 12q0 44 -48.5 71.5t-131.5 27.5q-99 0 -150 -44.5t-51 -111.5t50.5 -112.5
t149.5 -45.5q59 0 101.5 17t65 45.5t22.5 61.5q0 10 -5 23v1q0 4 5 4.5t6 -4.5q2 -10 2 -24q0 -35 -23.5 -65.5t-68 -48.5t-105.5 -18q-37 0 -93.5 -23.5t-99 -62t-42.5 -82.5q0 -29 21 -48t53 -19q37 0 74.5 19t91.5 57q62 41 103.5 62t85.5 21q79 0 79 -92q0 -56 -38 -107
t-105.5 -83t-152.5 -32q-76 0 -139 30zM261 624q-7 7 -7 17t7 17t17 7t17 -7t7 -17t-7 -17t-17 -7t-17 7z" />
    <glyph glyph-name="uni0122" unicode="&#x122;" horiz-adv-x="835" 
d="M242 27.5q-85 43.5 -136 127t-51 196.5q0 112 53.5 194.5t141.5 126.5t189 44q65 0 121.5 -18t97.5 -46t61 -58q1 -1 1 -3q0 -5 -4.5 -7t-8.5 4q-35 48 -105.5 84t-163.5 36q-98 0 -184 -42.5t-138.5 -123.5t-52.5 -191q0 -111 50 -192.5t133 -124t180 -42.5
q110 0 184 48.5t109.5 120t35.5 138.5q0 16 8 16q9 0 9 -26l-1 -29q-3 -66 -3 -100q0 -49 5 -109q2 -30 2 -37q0 -19 -11 -19q-10 0 -10 19q0 7 2 37q4 48 4 109q0 42 -2 84q-14 -69 -56 -128t-112.5 -95.5t-162.5 -36.5q-100 0 -185 43.5zM375 -203q0 4 6 4q35 0 56.5 9.5
t21.5 43.5q0 37 -24 95v1q0 4 4 5.5t5 -2.5q21 -51 21 -87q0 -46 -25 -61t-53 -15q-12 0 -12 7z" />
    <glyph glyph-name="uni0123" unicode="&#x123;" horiz-adv-x="600" 
d="M116 -174q-19 9 -19 21q0 5 4 6.5t9 -1.5q40 -23 76.5 -32.5t76.5 -9.5q83 0 146.5 30t98.5 78t35 100q0 84 -73 84q-41 0 -80 -19.5t-101 -61.5q-59 -40 -96.5 -59t-76.5 -19q-36 0 -58.5 21t-22.5 54q0 40 32.5 75t80 60t90.5 35q-83 10 -125.5 55.5t-42.5 108.5
t43.5 108t129.5 54q-10 37 -10 77q0 93 88 93q12 0 12 -9q0 -5 -6 -5q-26 0 -43.5 -4t-30.5 -20.5t-13 -52.5q0 -38 14 -78q8 1 25 1q74 0 121.5 -21t62.5 -61q0 33 21.5 52t62.5 19q6 0 9.5 -2.5t3.5 -6.5t-3 -6.5t-8 -2.5q-37 0 -57.5 -10.5t-20.5 -38.5q0 -11 3.5 -20
t3.5 -13q0 -8 -9 -8q-10 0 -10 12q0 44 -48.5 71.5t-131.5 27.5l-22 -1q-2 5 15 -37v-2q0 -4 -4.5 -5.5t-6.5 1.5q-10 23 -16 42q-83 -8 -125 -51t-42 -103q0 -67 50.5 -112.5t149.5 -45.5q59 0 101.5 17t65 45.5t22.5 61.5q0 10 -5 23v1q0 4 5 4.5t6 -4.5q2 -10 2 -24
q0 -35 -23.5 -65.5t-68 -48.5t-105.5 -18q-37 0 -93.5 -23.5t-99 -62t-42.5 -82.5q0 -29 21 -48t53 -19q37 0 74.5 19t91.5 57q62 41 103.5 62t85.5 21q79 0 79 -92q0 -56 -38 -107t-105.5 -83t-152.5 -32q-76 0 -139 30z" />
    <glyph glyph-name="Hbar" unicode="&#x126;" horiz-adv-x="670" 
d="M584 14l2 47q5 115 5 209v83h-512v-83q0 -94 5 -209l2 -47q0 -19 -11 -19q-10 0 -10 19l1 47q5 115 5 209v134h-31v8h31v25q0 93 -5 203l-1 46q0 19 10 19q11 0 11 -19l-2 -46q-5 -110 -5 -203v-25h512v25q0 93 -5 203l-2 46q0 19 11 19q10 0 10 -19l-1 -46
q-5 -110 -5 -203v-25h31v-8h-31v-134q0 -94 5 -209l1 -47q0 -19 -10 -19q-11 0 -11 19zM591 361v43h-512v-43h512z" />
    <glyph glyph-name="hbar" unicode="&#x127;" horiz-adv-x="625" 
d="M305 612q-108 3 -135 3h-84q-2 -74 -2 -130v-151q19 87 78.5 134.5t153.5 47.5q114 0 173.5 -69t59.5 -192v-40q0 -46 2 -93t2 -65l2 -45q0 -7 -3 -12t-7 -5q-10 0 -10 17l2 45q0 18 2 65t2 93v38q0 122 -57 188.5t-168 66.5q-112 0 -172 -67t-60 -188v-8q0 -56 2 -112
t2 -75l2 -46q0 -7 -3 -12t-7 -5q-10 0 -10 17l2 47q0 19 2 74.5t2 111.5v240q0 56 -2 130h-9q-11 0 -33 -2l-26 -1q-3 0 -4.5 2.5t-1.5 4.5q0 7 6 7l26 -1q22 -2 33 -2h8l-3 95q0 17 10 17q4 0 7 -5t3 -12l-3 -95h83q63 0 135 4l51 2q19 0 19 -10q0 -5 -4 -7t-15 -2z" />
    <glyph glyph-name="Itilde" unicode="&#x128;" horiz-adv-x="285" 
d="M35 5q0 10 19 10q5 0 14.5 -2.5t23.5 -2.5q30 0 38.5 13.5t8.5 52.5v551q0 30 5.5 45t19.5 19h-23q-37 0 -57.5 -2.5t-27.5 -2.5q-21 0 -21 9q0 8 21 8q7 0 27.5 -1.5t57.5 -1.5h14q39 0 54.5 2t21.5 2q19 0 19 -9q0 -10 -19 -10q-5 0 -14.5 2.5t-23.5 2.5
q-29 0 -37.5 -13.5t-8.5 -52.5v-551q0 -30 -5.5 -45t-19.5 -19h22q37 0 57.5 2.5t27.5 2.5q21 0 21 -9q0 -8 -21 -8q-7 0 -27.5 1.5t-57.5 1.5h-14q-39 0 -54.5 -2t-21.5 -2q-19 0 -19 9zM185.5 804q-19.5 9 -43.5 26q-26 17 -42.5 24.5t-39.5 7.5q-31 0 -49.5 -11
t-32.5 -29l-8 -8t-13 -7q-7 0 -7 7q0 10 13.5 23.5t37 23t53.5 9.5q26 0 45.5 -9t43.5 -26q26 -17 43 -24.5t39 -7.5q31 0 49.5 11t32.5 29l8 8t13 7q7 0 7 -7q0 -8 -13.5 -22t-37.5 -24t-53 -10q-26 0 -45.5 9z" />
    <glyph glyph-name="itilde" unicode="&#x129;" horiz-adv-x="150" 
d="M65 12q0 7 2 33q0 11 2 46t2 84v150q0 49 -2 84t-2 46q-2 26 -2 33q0 17 10 17q4 0 7 -5t3 -12t-2 -33q0 -11 -2 -46t-2 -84v-150q0 -49 2 -84t2 -46q2 -26 2 -33t-3 -12t-7 -5q-10 0 -10 17zM117.5 604q-19.5 9 -43.5 26q-26 17 -42.5 24.5t-39.5 7.5q-31 0 -49.5 -11
t-32.5 -29l-8 -8t-13 -7q-7 0 -7 7q0 10 13.5 23.5t37 23t53.5 9.5q26 0 45.5 -9t43.5 -26q26 -17 43 -24.5t39 -7.5q31 0 49.5 11t32.5 29l8 8t13 7q7 0 7 -7q0 -8 -13.5 -22t-37.5 -24t-53 -10q-26 0 -45.5 9z" />
    <glyph glyph-name="Imacron" unicode="&#x12a;" horiz-adv-x="285" 
d="M35 5q0 10 19 10q5 0 14.5 -2.5t23.5 -2.5q30 0 38.5 13.5t8.5 52.5v551q0 30 5.5 45t19.5 19h-23q-37 0 -57.5 -2.5t-27.5 -2.5q-21 0 -21 9q0 8 21 8q7 0 27.5 -1.5t57.5 -1.5h14q39 0 54.5 2t21.5 2q19 0 19 -9q0 -10 -19 -10q-5 0 -14.5 2.5t-23.5 2.5
q-29 0 -37.5 -13.5t-8.5 -52.5v-551q0 -30 -5.5 -45t-19.5 -19h22q37 0 57.5 2.5t27.5 2.5q21 0 21 -9q0 -8 -21 -8q-7 0 -27.5 1.5t-57.5 1.5h-14q-39 0 -54.5 -2t-21.5 -2q-19 0 -19 9zM-15 836h315v-8h-315v8z" />
    <glyph glyph-name="imacron" unicode="&#x12b;" horiz-adv-x="150" 
d="M65 12q0 7 2 33q0 11 2 46t2 84v150q0 49 -2 84t-2 46q-2 26 -2 33q0 17 10 17q4 0 7 -5t3 -12t-2 -33q0 -11 -2 -46t-2 -84v-150q0 -49 2 -84t2 -46q2 -26 2 -33t-3 -12t-7 -5q-10 0 -10 17zM-83 636h315v-8h-315v8z" />
    <glyph glyph-name="Iogonek" unicode="&#x12e;" horiz-adv-x="285" 
d="M35 5q0 10 19 10q5 0 14.5 -2.5t23.5 -2.5q30 0 38.5 13.5t8.5 52.5v551q0 30 5.5 45t19.5 19h-23q-37 0 -57.5 -2.5t-27.5 -2.5q-21 0 -21 9q0 8 21 8q7 0 27.5 -1.5t57.5 -1.5h14q39 0 54.5 2t21.5 2q19 0 19 -9q0 -10 -19 -10q-5 0 -14.5 2.5t-23.5 2.5
q-29 0 -37.5 -13.5t-8.5 -52.5v-551q0 -30 -5.5 -45t-19.5 -19h22q37 0 57.5 2.5t27.5 2.5q21 0 21 -9q0 -8 -21 -8q-7 0 -25 1.5t-47 1.5q-71 -1 -105.5 -26.5t-34.5 -61.5q0 -30 25.5 -52t76.5 -22q26 0 43 6t37 16q16 9 24 9q11 0 11 -9q0 -11 -28.5 -21.5t-71.5 -10.5
q-63 0 -94 24.5t-31 59.5q0 29 20 52.5t61 34.5q-14 -1 -22 -2t-14 -1q-19 0 -19 9z" />
    <glyph glyph-name="iogonek" unicode="&#x12f;" horiz-adv-x="145" 
d="M-54 -148.5q-26 23.5 -26 57.5q0 40 36.5 66.5t109.5 27.5q-1 3 -1 9q0 7 2 33q0 11 2 46t2 84v150q0 49 -2 84t-2 46q-2 26 -2 33q0 17 10 17q4 0 7 -5t3 -12t-2 -33q0 -11 -2 -46t-2 -84v-150q0 -49 2 -84t2 -46q2 -26 2 -33t-3 -12t-7 -5q-75 0 -111 -24t-36 -62
q0 -30 20.5 -50.5t63.5 -20.5q22 0 37.5 5.5t31.5 15.5q13 10 23 10q11 0 11 -9q0 -11 -25.5 -21.5t-63.5 -10.5q-54 0 -80 23.5zM56 658q7 7 17 7t17 -7t7 -17t-7 -17t-17 -7t-17 7t-7 17t7 17z" />
    <glyph glyph-name="Idotaccent" unicode="&#x130;" horiz-adv-x="285" 
d="M35 5q0 10 19 10q5 0 14.5 -2.5t23.5 -2.5q30 0 38.5 13.5t8.5 52.5v551q0 30 5.5 45t19.5 19h-23q-37 0 -57.5 -2.5t-27.5 -2.5q-21 0 -21 9q0 8 21 8q7 0 27.5 -1.5t57.5 -1.5h14q39 0 54.5 2t21.5 2q19 0 19 -9q0 -10 -19 -10q-5 0 -14.5 2.5t-23.5 2.5
q-29 0 -37.5 -13.5t-8.5 -52.5v-551q0 -30 -5.5 -45t-19.5 -19h22q37 0 57.5 2.5t27.5 2.5q21 0 21 -9q0 -8 -21 -8q-7 0 -27.5 1.5t-57.5 1.5h-14q-39 0 -54.5 -2t-21.5 -2q-19 0 -19 9zM126 824q-7 7 -7 17t7 17t17 7t17 -7t7 -17t-7 -17t-17 -7t-17 7z" />
    <glyph glyph-name="dotlessi" unicode="&#x131;" horiz-adv-x="150" 
d="M65 12q0 7 2 33q0 11 2 46t2 84v150q0 49 -2 84t-2 46q-2 26 -2 33q0 17 10 17q4 0 7 -5t3 -12t-2 -33q0 -11 -2 -46t-2 -84v-150q0 -49 2 -84t2 -46q2 -26 2 -33t-3 -12t-7 -5q-10 0 -10 17z" />
    <glyph glyph-name="IJ" unicode="&#x132;" horiz-adv-x="700" 
d="M320 -1q0 8 13 8l23 -1q21 -3 47 -3q63 0 95.5 25.5t44 72t11.5 122.5v404q0 30 5.5 45t19.5 19h-383q-30 0 -39.5 -14.5t-9.5 -52.5v-551q0 -30 -5.5 -45t-19.5 -19h22q37 0 57.5 2.5t27.5 2.5q21 0 21 -9q0 -8 -21 -8q-7 0 -27.5 1.5t-57.5 1.5h-14q-39 0 -54.5 -2
t-21.5 -2q-19 0 -19 9q0 10 19 10q5 0 14.5 -2.5t23.5 -2.5q30 0 38.5 13.5t8.5 52.5v551q0 30 5.5 45t19.5 19h-23q-37 0 -57.5 -2.5t-27.5 -2.5q-21 0 -21 9q0 8 21 8q7 0 27.5 -1.5t57.5 -1.5h429q39 0 54.5 2t21.5 2q19 0 19 -9q0 -10 -19 -10q-5 0 -14.5 2.5t-23.5 2.5
q-29 0 -37.5 -13.5t-8.5 -52.5v-402q0 -79 -14 -129t-55 -78t-119 -28q-54 0 -54 12z" />
    <glyph glyph-name="ij" unicode="&#x133;" horiz-adv-x="346" 
d="M72 704.5q-4 4.5 -4 10.5t4 10.5t11 4.5t11 -4.5t4 -10.5t-4 -10.5t-11 -4.5t-11 4.5zM76 45q0 11 2 46t2 84v150q0 49 -2 84t-2 46q-2 26 -2 33q0 17 10 17q4 0 7 -5t3 -12t-2 -33q0 -11 -2 -46t-2 -84v-150q0 -49 2 -84t2 -46q2 -26 2 -33t-3 -12t-7 -5q-10 0 -10 17
q0 7 2 33zM252 704.5q-4 4.5 -4 10.5t4 10.5t11 4.5t11 -4.5t4 -10.5t-4 -10.5t-11 -4.5t-11 4.5zM62 -184q9 0 25.5 -2t32.5 -2q58 0 88 20.5t40.5 62t10.5 116.5v314q0 49 -2 84t-2 46q-2 26 -2 33q0 17 10 17q4 0 7 -5t3 -12t-2 -33q0 -11 -2 -46t-2 -84v-315
q0 -78 -12.5 -123t-50 -68.5t-110.5 -23.5q-43 0 -43 12q0 9 11 9z" />
    <glyph glyph-name="uni0136" unicode="&#x136;" horiz-adv-x="735" 
d="M122 9h22q37 0 57.5 2.5t27.5 2.5q21 0 21 -9q0 -8 -21 -8q-7 0 -27.5 1.5t-57.5 1.5h-14q-39 0 -54.5 -2t-21.5 -2q-19 0 -19 9q0 10 19 10q5 0 14.5 -2.5t23.5 -2.5q30 0 38.5 13.5t8.5 52.5v551q0 30 5.5 45t19.5 19h-23q-37 0 -57.5 -2.5t-27.5 -2.5q-21 0 -21 9
q0 8 21 8q7 0 27.5 -1.5t57.5 -1.5h14q39 0 54.5 2t21.5 2q19 0 19 -9q0 -10 -19 -10q-5 0 -14.5 2.5t-23.5 2.5q-29 0 -37.5 -13.5t-8.5 -52.5v-551q0 -20 -3 -34l436 546q55 68 78.5 94t34.5 26q7 0 7 -7q0 -4 -10.5 -13.5t-14.5 -13.5q-54 -46 -89 -91l-196 -244
l237 -256q22 -25 39.5 -40t21.5 -19q17 -13 17 -19q0 -7 -7 -7q-5 0 -11 5.5t-18 21.5l-47 53l-236 255l-249 -311q-5 -7 -15 -10zM315 -203q0 4 6 4q35 0 56.5 9.5t21.5 43.5q0 37 -24 95v1q0 4 4 5.5t5 -2.5q21 -51 21 -87q0 -46 -25 -61t-53 -15q-12 0 -12 7z" />
    <glyph glyph-name="uni0137" unicode="&#x137;" horiz-adv-x="610" 
d="M90 8h24q41 0 106 5l35 2q7 0 12 -2.5t5 -6.5q0 -9 -17 -9q-20 0 -35 1q-52 2 -106 2h-14q-32 0 -49.5 -2t-25.5 -2q-15 0 -15 10q0 4 4.5 6.5t10.5 2.5t18 -3t22 -3q27 0 36 14.5t9 52.5v409q0 56 -2 111.5t-2 74.5l-2 47q0 17 10 17q4 0 7 -5t3 -12l-2 -46
q0 -19 -2 -75t-2 -112v-410q0 -25 -4 -38l318 347q30 33 71 84q17 21 24.5 29t13.5 8q8 0 8 -8q0 -5 -9 -15t-24 -24q-7 -7 -30 -29t-48 -50l-100 -109l136 -149q38 -41 80 -81q14 -13 22.5 -22.5t8.5 -14.5q0 -8 -8 -8q-6 0 -13.5 8t-24.5 29q-41 51 -71 84l-135 149
l-230 -249q-8 -6 -13 -8zM238 -203q0 4 6 4q35 0 56.5 9.5t21.5 43.5q0 37 -24 95v1q0 4 4 5.5t5 -2.5q21 -51 21 -87q0 -46 -25 -61t-53 -15q-12 0 -12 7z" />
    <glyph glyph-name="Lacute" unicode="&#x139;" horiz-adv-x="705" 
d="M348 -18q-78 9 -131 13.5t-129 4.5q-16 0 -27 -2t-18 -2q-18 0 -18 9q0 10 18 10q5 0 15.5 -2.5t20.5 -2.5q30 0 40.5 15.5t10.5 50.5v361q0 93 -5 203l-1 46q0 19 11 19q10 0 10 -19l-2 -46q-5 -110 -5 -203v-364q0 -29 -7.5 -44.5t-24.5 -20.5q66 0 123 -5t127 -14
q38 -5 76 -8.5t66 -3.5q67 0 99.5 13.5t52.5 36.5q7 8 12 8q8 0 8 -9t-7 -17q-35 -40 -156 -40q-61 0 -159 13zM28 777l187 131q5 4 11 4q4 0 7 -2.5t3 -6.5q0 -7 -9 -13l-197 -116z" />
    <glyph glyph-name="lacute" unicode="&#x13a;" horiz-adv-x="275" 
d="M153 12q-19 18 -19 58v600q0 34 -13.5 45t-52.5 11q-15 0 -31 -1.5t-24 -1.5t-8 7t13 11t36 4q47 0 67.5 -17.5t20.5 -57.5v-609q0 -30 13 -40t44 -10q27 0 52 5l5 1q9 0 9 -8q0 -7 -13 -11t-36 -4q-44 0 -63 18zM33 807l187 131q5 4 11 4q4 0 7 -2.5t3 -6.5q0 -7 -9 -13
l-197 -116z" />
    <glyph glyph-name="uni013B" unicode="&#x13b;" horiz-adv-x="705" 
d="M348 -18q-78 9 -131 13.5t-129 4.5q-16 0 -27 -2t-18 -2q-18 0 -18 9q0 10 18 10q5 0 15.5 -2.5t20.5 -2.5q30 0 40.5 15.5t10.5 50.5v361q0 93 -5 203l-1 46q0 19 11 19q10 0 10 -19l-2 -46q-5 -110 -5 -203v-364q0 -29 -7.5 -44.5t-24.5 -20.5q66 0 123 -5t127 -14
q38 -5 76 -8.5t66 -3.5q67 0 99.5 13.5t52.5 36.5q7 8 12 8q8 0 8 -9t-7 -17q-35 -40 -156 -40q-61 0 -159 13zM262 -203q0 4 6 4q35 0 56.5 9.5t21.5 43.5q0 37 -24 95v1q0 4 4 5.5t5 -2.5q21 -51 21 -87q0 -46 -25 -61t-53 -15q-12 0 -12 7z" />
    <glyph glyph-name="uni013C" unicode="&#x13c;" horiz-adv-x="275" 
d="M153 12q-19 18 -19 58v600q0 34 -13.5 45t-52.5 11q-15 0 -31 -1.5t-24 -1.5t-8 7t13 11t36 4q47 0 67.5 -17.5t20.5 -57.5v-609q0 -30 13 -40t44 -10q27 0 52 5l5 1q9 0 9 -8q0 -7 -13 -11t-36 -4q-44 0 -63 18zM131 -203q0 4 6 4q35 0 56.5 9.5t21.5 43.5q0 37 -24 95
v1q0 4 4 5.5t5 -2.5q21 -51 21 -87q0 -46 -25 -61t-53 -15q-12 0 -12 7z" />
    <glyph glyph-name="Lcaron" unicode="&#x13d;" horiz-adv-x="705" 
d="M348 -18q-78 9 -131 13.5t-129 4.5q-16 0 -27 -2t-18 -2q-18 0 -18 9q0 10 18 10q5 0 15.5 -2.5t20.5 -2.5q30 0 40.5 15.5t10.5 50.5v361q0 93 -5 203l-1 46q0 19 11 19q10 0 10 -19l-2 -46q-5 -110 -5 -203v-364q0 -29 -7.5 -44.5t-24.5 -20.5q66 0 123 -5t127 -14
q38 -5 76 -8.5t66 -3.5q67 0 99.5 13.5t52.5 36.5q7 8 12 8q8 0 8 -9t-7 -17q-35 -40 -156 -40q-61 0 -159 13zM240 431q0 82 -4 230q-1 14 -1 30q0 14 9 14t9 -14q0 -16 -1 -30q-4 -148 -4 -230q0 -5 -4 -5t-4 5z" />
    <glyph glyph-name="lcaron" unicode="&#x13e;" horiz-adv-x="275" 
d="M153 12q-19 18 -19 58v600q0 34 -13.5 45t-52.5 11q-15 0 -31 -1.5t-24 -1.5t-8 7t13 11t36 4q47 0 67.5 -17.5t20.5 -57.5v-609q0 -30 13 -40t44 -10q27 0 52 5l5 1q9 0 9 -8q0 -7 -13 -11t-36 -4q-44 0 -63 18zM199 461q0 82 -4 230q-1 14 -1 30q0 14 9 14t9 -14
q0 -16 -1 -30q-4 -148 -4 -230q0 -5 -4 -5t-4 5z" />
    <glyph glyph-name="Lslash" unicode="&#x141;" horiz-adv-x="705" 
d="M364 276q-81 3 -117 3h-109v-206q0 -29 -7.5 -44.5t-24.5 -20.5q66 0 123 -5t127 -14q38 -5 76 -8.5t66 -3.5q67 0 99.5 13.5t52.5 36.5q7 8 12 8q8 0 8 -9t-7 -17q-35 -40 -156 -40q-61 0 -159 13q-78 9 -131 13.5t-129 4.5q-16 0 -27 -2t-18 -2q-18 0 -18 9q0 10 18 10
q5 0 15.5 -2.5t20.5 -2.5q30 0 40.5 15.5t10.5 50.5v203h-40q-19 0 -39 -2l-20 -1q-3 0 -4.5 2.5t-1.5 4.5q0 7 6 7l20 -1q20 -2 39 -2h40v150q0 93 -5 203l-1 46q0 19 11 19q10 0 10 -19l-2 -46q-5 -110 -5 -203v-150h109q63 0 117 4q30 2 37 2q11 0 15 -2t4 -7
q0 -10 -19 -10q-7 0 -37 2z" />
    <glyph glyph-name="lslash" unicode="&#x142;" horiz-adv-x="275" 
d="M218 276q-54 3 -76 3v-218q0 -30 13 -40t44 -10q27 0 52 5l5 1q9 0 9 -8q0 -7 -13 -11t-36 -4q-44 0 -63 18t-19 58v209h-59q-19 0 -39 -2l-20 -1q-3 0 -4.5 2.5t-1.5 4.5q0 7 6 7l20 -1q20 -2 39 -2h59v383q0 34 -13.5 45t-52.5 11q-15 0 -31 -1.5t-24 -1.5t-8 7t13 11
t36 4q47 0 67.5 -17.5t20.5 -57.5v-383q40 0 76 4q22 2 28 2q11 0 15 -2t4 -7q0 -10 -19 -10q-6 0 -28 2z" />
    <glyph glyph-name="Nacute" unicode="&#x143;" horiz-adv-x="710" 
d="M65 14q0 5 0.5 18.5t0.5 40.5q5 168 5 272l-1 276q-1 38 -1 79q0 5 4 5t8 -6l550 -685v341q0 105 -5 272l-2 59q0 19 11 19q10 0 10 -19q0 -5 -0.5 -18.5t-0.5 -40.5q-5 -167 -5 -272l1 -276q1 -38 1 -79q0 -5 -4 -5q-3 0 -8 6l-550 685v-341q0 -104 5 -272l2 -59
q0 -19 -11 -19q-10 0 -10 19zM250 777l187 131q5 4 11 4q4 0 7 -2.5t3 -6.5q0 -7 -9 -13l-197 -116z" />
    <glyph glyph-name="nacute" unicode="&#x144;" horiz-adv-x="650" 
d="M560 12l2 45q0 18 2 65t2 93v38q0 122 -57 188.5t-168 66.5q-112 0 -172 -67t-60 -188v-38q0 -48 2 -97t2 -66l2 -40q0 -17 -10 -17t-10 17l2 40q0 17 2 66t2 97v151q0 67 -12.5 94t-41.5 27q-12 0 -12 9t12 9q24 0 43 -28t19 -106v-37q19 87 78.5 134.5t153.5 47.5
q114 0 173.5 -69t59.5 -192v-40q0 -46 2 -93t2 -65l2 -45q0 -7 -3 -12t-7 -5q-10 0 -10 17zM233 577l187 131q5 4 11 4q4 0 7 -2.5t3 -6.5q0 -7 -9 -13l-197 -116z" />
    <glyph glyph-name="uni0145" unicode="&#x145;" horiz-adv-x="710" 
d="M65 14q0 5 0.5 18.5t0.5 40.5q5 168 5 272l-1 276q-1 38 -1 79q0 5 4 5t8 -6l550 -685v341q0 105 -5 272l-2 59q0 19 11 19q10 0 10 -19q0 -5 -0.5 -18.5t-0.5 -40.5q-5 -167 -5 -272l1 -276q1 -38 1 -79q0 -5 -4 -5q-3 0 -8 6l-550 685v-341q0 -104 5 -272l2 -59
q0 -19 -11 -19q-10 0 -10 19zM300 -203q0 4 6 4q35 0 56.5 9.5t21.5 43.5q0 37 -24 95v1q0 4 4 5.5t5 -2.5q21 -51 21 -87q0 -46 -25 -61t-53 -15q-12 0 -12 7z" />
    <glyph glyph-name="uni0146" unicode="&#x146;" horiz-adv-x="650" 
d="M560 12l2 45q0 18 2 65t2 93v38q0 122 -57 188.5t-168 66.5q-112 0 -172 -67t-60 -188v-38q0 -48 2 -97t2 -66l2 -40q0 -17 -10 -17t-10 17l2 40q0 17 2 66t2 97v151q0 67 -12.5 94t-41.5 27q-12 0 -12 9t12 9q24 0 43 -28t19 -106v-37q19 87 78.5 134.5t153.5 47.5
q114 0 173.5 -69t59.5 -192v-40q0 -46 2 -93t2 -65l2 -45q0 -7 -3 -12t-7 -5q-10 0 -10 17zM283 -203q0 4 6 4q35 0 56.5 9.5t21.5 43.5q0 37 -24 95v1q0 4 4 5.5t5 -2.5q21 -51 21 -87q0 -46 -25 -61t-53 -15q-12 0 -12 7z" />
    <glyph glyph-name="Ncaron" unicode="&#x147;" horiz-adv-x="710" 
d="M65 14q0 5 0.5 18.5t0.5 40.5q5 168 5 272l-1 276q-1 38 -1 79q0 5 4 5t8 -6l550 -685v341q0 105 -5 272l-2 59q0 19 11 19q10 0 10 -19q0 -5 -0.5 -18.5t-0.5 -40.5q-5 -167 -5 -272l1 -276q1 -38 1 -79q0 -5 -4 -5q-3 0 -8 6l-550 685v-341q0 -104 5 -272l2 -59
q0 -19 -11 -19q-10 0 -10 19zM264 838.5q-30 26.5 -45 40.5l-29 26l7 7l47 -44l108 -101q68 59 115 109l26 25q9 9 16 9q5 0 8 -3t3 -8t-5 -10l-31 -24q-57 -42 -132 -107q-58 54 -88 80.5z" />
    <glyph glyph-name="ncaron" unicode="&#x148;" horiz-adv-x="650" 
d="M560 12l2 45q0 18 2 65t2 93v38q0 122 -57 188.5t-168 66.5q-112 0 -172 -67t-60 -188v-38q0 -48 2 -97t2 -66l2 -40q0 -17 -10 -17t-10 17l2 40q0 17 2 66t2 97v151q0 67 -12.5 94t-41.5 27q-12 0 -12 9t12 9q24 0 43 -28t19 -106v-37q19 87 78.5 134.5t153.5 47.5
q114 0 173.5 -69t59.5 -192v-40q0 -46 2 -93t2 -65l2 -45q0 -7 -3 -12t-7 -5q-10 0 -10 17zM247 638.5q-30 26.5 -45 40.5l-29 26l7 7l47 -44l108 -101q68 59 115 109l26 25q9 9 16 9q5 0 8 -3t3 -8t-5 -10l-31 -24q-57 -42 -132 -107q-58 54 -88 80.5z" />
    <glyph glyph-name="Eng" unicode="&#x14a;" horiz-adv-x="710" 
d="M397 -188q0 8 13 8l23 -1q21 -3 47 -3q57 0 89 21t45.5 61t15.5 102l-551 686v-341q0 -104 5 -272l2 -59q0 -19 -11 -19q-10 0 -10 19q0 5 0.5 18.5t0.5 40.5q5 168 5 272l-1 276q-1 38 -1 79q0 5 4 5t8 -6l550 -686v23v319q0 105 -5 272l-2 59q0 19 11 19q10 0 10 -19
q0 -5 -0.5 -18.5t-0.5 -40.5q-5 -167 -5 -272v-320q0 -79 -14 -129t-55 -78t-119 -28q-54 0 -54 12z" />
    <glyph glyph-name="eng" unicode="&#x14b;" horiz-adv-x="644" 
d="M358 -193q0 9 11 9q9 0 25.5 -2t32.5 -2q58 0 88 20.5t40.5 62t10.5 116.5v242q0 122 -57 188.5t-168 66.5q-112 0 -172 -67t-60 -188v-38q0 -48 2 -97t2 -66l2 -40q0 -17 -10 -17t-10 17l2 40q0 17 2 66t2 97v151q0 67 -12.5 94t-41.5 27q-12 0 -12 9t12 9q24 0 43 -28
t19 -106v-37q19 87 78.5 134.5t153.5 47.5q114 0 173.5 -69t59.5 -192v-245q0 -78 -12.5 -123t-50 -68.5t-110.5 -23.5q-43 0 -43 12z" />
    <glyph glyph-name="Omacron" unicode="&#x14c;" horiz-adv-x="860" 
d="M245 30q-86 46 -138 129.5t-52 191.5q0 107 52 190t138 129t185 46t185 -46t138 -129t52 -190q0 -108 -52 -191.5t-138 -129.5t-185 -46t-185 46zM114 163q51 -82 135.5 -126.5t180.5 -44.5t180.5 44.5t135.5 126.5t51 188q0 105 -51 186.5t-135.5 126t-180.5 44.5
t-180.5 -44.5t-135.5 -126t-51 -186.5q0 -106 51 -188zM272 836h315v-8h-315v8z" />
    <glyph glyph-name="omacron" unicode="&#x14d;" 
d="M189 16q-62 32 -100.5 92.5t-38.5 141.5t38.5 141.5t100.5 92.5t131 32t131 -32t100.5 -92.5t38.5 -141.5t-38.5 -141.5t-100.5 -92.5t-131 -32t-131 32zM95 112.5q37 -58.5 97.5 -89.5t127.5 -31t127.5 31t97.5 89.5t37 137.5t-37 137.5t-97.5 89.5t-127.5 31
t-127.5 -31t-97.5 -89.5t-37 -137.5t37 -137.5zM162 636h315v-8h-315v8z" />
    <glyph glyph-name="Ohungarumlaut" unicode="&#x150;" horiz-adv-x="860" 
d="M245 30q-86 46 -138 129.5t-52 191.5q0 107 52 190t138 129t185 46t185 -46t138 -129t52 -190q0 -108 -52 -191.5t-138 -129.5t-185 -46t-185 46zM114 163q51 -82 135.5 -126.5t180.5 -44.5t180.5 44.5t135.5 126.5t51 188q0 105 -51 186.5t-135.5 126t-180.5 44.5
t-180.5 -44.5t-135.5 -126t-51 -186.5q0 -106 51 -188zM310 777l187 131q5 4 11 4q4 0 7 -2.5t3 -6.5q0 -7 -9 -13l-197 -116zM442 777l187 131q5 4 11 4q4 0 7 -2.5t3 -6.5q0 -7 -9 -13l-197 -116z" />
    <glyph glyph-name="ohungarumlaut" unicode="&#x151;" 
d="M189 16q-62 32 -100.5 92.5t-38.5 141.5t38.5 141.5t100.5 92.5t131 32t131 -32t100.5 -92.5t38.5 -141.5t-38.5 -141.5t-100.5 -92.5t-131 -32t-131 32zM95 112.5q37 -58.5 97.5 -89.5t127.5 -31t127.5 31t97.5 89.5t37 137.5t-37 137.5t-97.5 89.5t-127.5 31
t-127.5 -31t-97.5 -89.5t-37 -137.5t37 -137.5zM200 577l187 131q5 4 11 4q4 0 7 -2.5t3 -6.5q0 -7 -9 -13l-197 -116zM332 577l187 131q5 4 11 4q4 0 7 -2.5t3 -6.5q0 -7 -9 -13l-197 -116z" />
    <glyph glyph-name="OE" unicode="&#x152;" horiz-adv-x="1300" 
d="M245 30q-86 46 -138 129.5t-52 191.5q0 107 52 190t138 129t185 46q86 0 163 -34.5t129 -97.5l-2 110q0 8 8 8q5 0 16 -1t26 -1h187q117 0 209 2h47q19 0 19 -11q0 -10 -15 -10l-40 2q-101 9 -220 9h-226v-119q64 -83 73 -193h31q95 0 247 5l59 1q11 0 15 -2t4 -7
q0 -10 -19 -10l-59 1q-122 4 -247 4h-78q-26 0 -26 -29v-270q0 -29 -7.5 -45t-26.5 -20q67 0 125 -5t128 -14q10 -1 57 -6.5t85 -5.5q67 0 100 13.5t53 36.5q7 8 12 8q8 0 8 -9t-7 -17q-35 -40 -157 -40q-40 0 -74 3.5t-89 10.5q-67 8 -115.5 12.5t-111.5 4.5q-7 0 -17 -2
t-15 -2q-14 0 -14 9q0 10 13 10q29 0 37 11.5t8 49.5v41q-52 -63 -129 -98t-164 -35q-99 0 -185 46zM114 163q51 -82 135.5 -126.5t180.5 -44.5q87 0 164.5 35.5t128.5 100.5v217q0 27 20 32q-8 1 -14 9t-6 23v56l-1 106q-51 65 -128.5 101t-163.5 36q-96 0 -180.5 -44.5
t-135.5 -126t-51 -186.5q0 -106 51 -188zM738 387.5q7 -7.5 19 -7.5h39q-7 100 -65 179v-149q0 -15 7 -22.5z" />
    <glyph glyph-name="oe" unicode="&#x153;" horiz-adv-x="1065" 
d="M189 16q-62 32 -100.5 93t-38.5 142t38.5 141t100.5 92t131 32q64 0 122 -27.5t96 -77.5q37 50 94 77.5t121 27.5q58 0 107.5 -22.5t78.5 -61t29 -86.5h-394q16 -45 16 -95q0 -84 -44 -151q38 -52 98.5 -80t127.5 -28q60 0 103.5 20t68.5 45.5t49 58.5q18 26 25 26t7 -8
q0 -13 -32 -50.5t-89 -68.5t-132 -31q-69 0 -130.5 29t-100.5 81q-38 -52 -97 -81t-124 -29q-69 0 -131 32zM95 113q37 -59 97.5 -90t127.5 -31q64 0 122 28.5t94 79.5q-46 67 -46 155q0 86 44 149q-38 50 -94.5 77t-119.5 27q-67 0 -127.5 -31t-97.5 -89.5t-37 -136.5
q0 -79 37 -138zM541 107q41 62 41 144q0 58 -16 95h-53q-15 -40 -15 -91q0 -84 43 -148zM959 353q0 40 -27.5 76t-74.5 57.5t-104 21.5q-79 0 -144 -41t-93 -114h443z" />
    <glyph glyph-name="Racute" unicode="&#x154;" horiz-adv-x="670" 
d="M65 14q0 20 1 39q5 120 5 262q0 108 -1 215t-2 164q0 8 8 8q5 0 16 -1t26 -1h203q119 0 189 -48t70 -147q0 -100 -70 -150t-187 -50q24 -7 47 -31l156 -167q36 -39 76 -74q11 -10 17 -16.5t6 -11.5q0 -10 -9 -10q-6 0 -12 6t-21 24q-33 43 -64 76l-155 169
q-20 21 -40.5 28t-58.5 7h-106q-24 0 -24 12q0 10 16 10q6 0 38 -7t132 -7q114 0 182.5 49t68.5 143q0 95 -67.5 141t-182.5 46h-243v-377q0 -118 6 -262l1 -39q0 -19 -11 -19q-10 0 -10 19zM233 777l187 131q5 4 11 4q4 0 7 -2.5t3 -6.5q0 -7 -9 -13l-197 -116z" />
    <glyph glyph-name="racute" unicode="&#x155;" horiz-adv-x="400" 
d="M88.5 460q-12.5 27 -41.5 27q-12 0 -12 9t12 9q24 0 43 -28t19 -106v-17q14 75 62.5 117t148.5 42q50 0 50 -12q0 -8 -11 -8q-9 0 -27.5 1.5t-39.5 1.5q-79 0 -119 -34t-52 -87t-12 -132v-28q0 -48 2 -97t2 -66l2 -40q0 -17 -10 -17t-10 17l2 40q0 17 2 66t2 97v151
q0 67 -12.5 94zM110 577l187 131q5 4 11 4q4 0 7 -2.5t3 -6.5q0 -7 -9 -13l-197 -116z" />
    <glyph glyph-name="uni0156" unicode="&#x156;" horiz-adv-x="670" 
d="M65 14q0 20 1 39q5 120 5 262q0 108 -1 215t-2 164q0 8 8 8q5 0 16 -1t26 -1h203q119 0 189 -48t70 -147q0 -100 -70 -150t-187 -50q24 -7 47 -31l156 -167q36 -39 76 -74q11 -10 17 -16.5t6 -11.5q0 -10 -9 -10q-6 0 -12 6t-21 24q-33 43 -64 76l-155 169
q-20 21 -40.5 28t-58.5 7h-106q-24 0 -24 12q0 10 16 10q6 0 38 -7t132 -7q114 0 182.5 49t68.5 143q0 95 -67.5 141t-182.5 46h-243v-377q0 -118 6 -262l1 -39q0 -19 -11 -19q-10 0 -10 19zM283 -203q0 4 6 4q35 0 56.5 9.5t21.5 43.5q0 37 -24 95v1q0 4 4 5.5t5 -2.5
q21 -51 21 -87q0 -46 -25 -61t-53 -15q-12 0 -12 7z" />
    <glyph glyph-name="uni0157" unicode="&#x157;" horiz-adv-x="400" 
d="M88.5 460q-12.5 27 -41.5 27q-12 0 -12 9t12 9q24 0 43 -28t19 -106v-17q14 75 62.5 117t148.5 42q50 0 50 -12q0 -8 -11 -8q-9 0 -27.5 1.5t-39.5 1.5q-79 0 -119 -34t-52 -87t-12 -132v-28q0 -48 2 -97t2 -66l2 -40q0 -17 -10 -17t-10 17l2 40q0 17 2 66t2 97v151
q0 67 -12.5 94zM48 -203q0 4 6 4q35 0 56.5 9.5t21.5 43.5q0 37 -24 95v1q0 4 4 5.5t5 -2.5q21 -51 21 -87q0 -46 -25 -61t-53 -15q-12 0 -12 7z" />
    <glyph glyph-name="Rcaron" unicode="&#x158;" horiz-adv-x="670" 
d="M65 14q0 20 1 39q5 120 5 262q0 108 -1 215t-2 164q0 8 8 8q5 0 16 -1t26 -1h203q119 0 189 -48t70 -147q0 -100 -70 -150t-187 -50q24 -7 47 -31l156 -167q36 -39 76 -74q11 -10 17 -16.5t6 -11.5q0 -10 -9 -10q-6 0 -12 6t-21 24q-33 43 -64 76l-155 169
q-20 21 -40.5 28t-58.5 7h-106q-24 0 -24 12q0 10 16 10q6 0 38 -7t132 -7q114 0 182.5 49t68.5 143q0 95 -67.5 141t-182.5 46h-243v-377q0 -118 6 -262l1 -39q0 -19 -11 -19q-10 0 -10 19zM247 838.5q-30 26.5 -45 40.5l-29 26l7 7l47 -44l108 -101q68 59 115 109l26 25
q9 9 16 9q5 0 8 -3t3 -8t-5 -10l-31 -24q-57 -42 -132 -107q-58 54 -88 80.5z" />
    <glyph glyph-name="rcaron" unicode="&#x159;" horiz-adv-x="400" 
d="M88.5 460q-12.5 27 -41.5 27q-12 0 -12 9t12 9q24 0 43 -28t19 -106v-17q14 75 62.5 117t148.5 42q50 0 50 -12q0 -8 -11 -8q-9 0 -27.5 1.5t-39.5 1.5q-79 0 -119 -34t-52 -87t-12 -132v-28q0 -48 2 -97t2 -66l2 -40q0 -17 -10 -17t-10 17l2 40q0 17 2 66t2 97v151
q0 67 -12.5 94zM124 638.5q-30 26.5 -45 40.5l-29 26l7 7l47 -44l108 -101q68 59 115 109l26 25q9 9 16 9q5 0 8 -3t3 -8t-5 -10l-31 -24q-57 -42 -132 -107q-58 54 -88 80.5z" />
    <glyph glyph-name="Sacute" unicode="&#x15a;" horiz-adv-x="710" 
d="M177 10q-67 26 -97 59t-30 53q0 10 8 10t20 -22q20 -31 45 -55t80.5 -43.5t146.5 -19.5q124 0 210.5 42.5t86.5 126.5q0 55 -39.5 93.5t-96 62t-152.5 53.5q-94 29 -148.5 52t-92 59t-37.5 88q0 147 310 147q85 0 147.5 -11.5t62.5 -25.5q0 -7 -10 -7q-12 0 -33 6
q-44 9 -86.5 14.5t-112.5 5.5q-120 0 -195 -25.5t-75 -102.5q0 -50 36.5 -84.5t90.5 -57t145 -50.5q98 -31 156 -55t98 -64t40 -98q0 -89 -88 -133t-218 -44q-105 0 -172 26zM248 777l187 131q5 4 11 4q4 0 7 -2.5t3 -6.5q0 -7 -9 -13l-197 -116z" />
    <glyph glyph-name="sacute" unicode="&#x15b;" horiz-adv-x="555" 
d="M143 1.5q-56 17.5 -86 39.5q-7 6 -7 12q0 10 10 10q5 0 12 -5q4 -3 25 -21t68 -31.5t110 -13.5q99 0 160.5 31t61.5 97q0 46 -30.5 74t-74 41.5t-116.5 28.5q-71 15 -112 27.5t-69 37.5t-28 66q0 118 237 118q57 0 106 -6t49 -18q0 -7 -8 -7l-25 2q-82 11 -164 11h-32
q-75 0 -115 -27t-40 -73q0 -38 27 -61.5t67 -35.5t108 -26q75 -16 120 -30t76.5 -43.5t31.5 -78.5q0 -70 -64 -103t-169 -33q-73 0 -129 17.5zM170 577l187 131q5 4 11 4q4 0 7 -2.5t3 -6.5q0 -7 -9 -13l-197 -116z" />
    <glyph glyph-name="Scedilla" unicode="&#x15e;" horiz-adv-x="710" 
d="M251 -200q-33 11 -33 23q0 7 9 7q8 0 22 -8q21 -10 44 -16.5t56 -6.5q50 0 70.5 15t20.5 37q0 28 -36.5 45t-129.5 17l70 71q-103 1 -169 27t-95.5 58.5t-29.5 52.5q0 10 8 10t20 -22q20 -31 45 -55t80.5 -43.5t146.5 -19.5q124 0 210.5 42.5t86.5 126.5q0 55 -39.5 93.5
t-96 62t-152.5 53.5q-94 29 -148.5 52t-92 59t-37.5 88q0 147 310 147q85 0 147.5 -11.5t62.5 -25.5q0 -7 -10 -7q-12 0 -33 6q-44 9 -86.5 14.5t-112.5 5.5q-120 0 -195 -25.5t-75 -102.5q0 -50 36.5 -84.5t90.5 -57t145 -50.5q98 -31 156 -55t98 -64t40 -98
q0 -88 -86.5 -132t-215.5 -45l-64 -64q159 0 159 -69q0 -25 -26 -43.5t-87 -18.5q-51 0 -84 11z" />
    <glyph glyph-name="scedilla" unicode="&#x15f;" horiz-adv-x="555" 
d="M143 1.5q-56 17.5 -86 39.5q-7 6 -7 12q0 10 10 10q5 0 12 -5q4 -3 25 -21t68 -31.5t110 -13.5q99 0 160.5 31t61.5 97q0 46 -30.5 74t-74 41.5t-116.5 28.5q-71 15 -112 27.5t-69 37.5t-28 66q0 118 237 118q57 0 106 -6t49 -18q0 -7 -8 -7l-25 2q-82 11 -164 11h-32
q-75 0 -115 -27t-40 -73q0 -38 27 -61.5t67 -35.5t108 -26q75 -16 120 -30t76.5 -43.5t31.5 -78.5q0 -70 -64 -103t-169 -33q-73 0 -129 17.5zM176 -205q-33 11 -33 23q0 7 9 7q8 0 22 -8q21 -10 44 -16.5t56 -6.5q50 0 70.5 15t20.5 37q0 28 -36.5 45t-129.5 17l75 76h9
l-69 -69q159 0 159 -69q0 -25 -26 -43.5t-87 -18.5q-51 0 -84 11z" />
    <glyph glyph-name="Scaron" unicode="&#x160;" horiz-adv-x="710" 
d="M177 10q-67 26 -97 59t-30 53q0 10 8 10t20 -22q20 -31 45 -55t80.5 -43.5t146.5 -19.5q124 0 210.5 42.5t86.5 126.5q0 55 -39.5 93.5t-96 62t-152.5 53.5q-94 29 -148.5 52t-92 59t-37.5 88q0 147 310 147q85 0 147.5 -11.5t62.5 -25.5q0 -7 -10 -7q-12 0 -33 6
q-44 9 -86.5 14.5t-112.5 5.5q-120 0 -195 -25.5t-75 -102.5q0 -50 36.5 -84.5t90.5 -57t145 -50.5q98 -31 156 -55t98 -64t40 -98q0 -89 -88 -133t-218 -44q-105 0 -172 26zM262 838.5q-30 26.5 -45 40.5l-29 26l7 7l47 -44l108 -101q68 59 115 109l26 25q9 9 16 9
q5 0 8 -3t3 -8t-5 -10l-31 -24q-57 -42 -132 -107q-58 54 -88 80.5z" />
    <glyph glyph-name="scaron" unicode="&#x161;" horiz-adv-x="555" 
d="M143 1.5q-56 17.5 -86 39.5q-7 6 -7 12q0 10 10 10q5 0 12 -5q4 -3 25 -21t68 -31.5t110 -13.5q99 0 160.5 31t61.5 97q0 46 -30.5 74t-74 41.5t-116.5 28.5q-71 15 -112 27.5t-69 37.5t-28 66q0 118 237 118q57 0 106 -6t49 -18q0 -7 -8 -7l-25 2q-82 11 -164 11h-32
q-75 0 -115 -27t-40 -73q0 -38 27 -61.5t67 -35.5t108 -26q75 -16 120 -30t76.5 -43.5t31.5 -78.5q0 -70 -64 -103t-169 -33q-73 0 -129 17.5zM184 638.5q-30 26.5 -45 40.5l-29 26l7 7l47 -44l108 -101q68 59 115 109l26 25q9 9 16 9q5 0 8 -3t3 -8t-5 -10l-31 -24
q-57 -42 -132 -107q-58 54 -88 80.5z" />
    <glyph glyph-name="uni0162" unicode="&#x162;" horiz-adv-x="695" 
d="M177 5q0 10 19 10q6 0 28 -2.5t73 -2.5q30 0 38.5 13.5t8.5 52.5v616h-29q-92 0 -215 -8l-46 -2q-19 0 -19 10t19 10h46q92 -2 215 -2h65q123 0 215 2h46q19 0 19 -10t-19 -10l-46 2q-123 8 -215 8h-28v-619q0 -30 -5.5 -45t-19.5 -19h75q39 0 59.5 2.5t27.5 2.5
q21 0 21 -9q0 -8 -21 -8q-7 0 -27.5 1.5t-59.5 1.5h-49l-69 -69q159 0 159 -69q0 -25 -26 -43.5t-87 -18.5q-51 0 -84 11t-33 23q0 7 9 7q8 0 22 -8q21 -10 44 -16.5t56 -6.5q50 0 70.5 15t20.5 37q0 28 -36.5 45t-129.5 17l75 76h-9q-83 0 -108.5 -2t-30.5 -2q-19 0 -19 9z
" />
    <glyph glyph-name="uni0163" unicode="&#x163;" horiz-adv-x="380" 
d="M220 -3l-66 -66q159 0 159 -69q0 -25 -26 -43.5t-87 -18.5q-51 0 -84 11t-33 23q0 7 9 7q8 0 22 -8q21 -10 44 -16.5t56 -6.5q50 0 70.5 15t20.5 37q0 28 -36.5 45t-129.5 17l73 73q-37 6 -55 22.5t-22.5 41t-4.5 66.5v296q0 39 -9 53.5t-39 14.5q-10 0 -22 -2t-18 -2
q-17 0 -17 9t17 9q7 0 21.5 -2.5t40.5 -2.5h43q-10 6 -13.5 17t-3.5 26q0 37 -1.5 73.5t-2.5 50.5l-2 36q0 17 10 17t10 -17l-2 -36q-1 -14 -2.5 -50.5t-1.5 -73.5q0 -22 7.5 -32.5t35.5 -10.5q72 0 98 2.5t33 2.5q19 0 19 -9t-19 -9q-6 0 -36.5 2.5t-141.5 2.5h-23
q17 -6 22 -21t5 -47v-296q0 -48 7 -73t28 -36t63 -11q43 0 64 8.5t26 8.5q9 0 9 -8q0 -11 -24.5 -16.5t-59.5 -5.5q-13 0 -31 2z" />
    <glyph glyph-name="Tcaron" unicode="&#x164;" horiz-adv-x="695" 
d="M177 5q0 10 19 10q6 0 28 -2.5t73 -2.5q30 0 38.5 13.5t8.5 52.5v616h-29q-92 0 -215 -8l-46 -2q-19 0 -19 10t19 10h46q92 -2 215 -2h65q123 0 215 2h46q19 0 19 -10t-19 -10l-46 2q-123 8 -215 8h-28v-619q0 -30 -5.5 -45t-19.5 -19h75q39 0 59.5 2.5t27.5 2.5
q21 0 21 -9q0 -8 -21 -8q-7 0 -27.5 1.5t-59.5 1.5h-67q-83 0 -108.5 -2t-30.5 -2q-19 0 -19 9zM257 838.5q-30 26.5 -45 40.5l-29 26l7 7l47 -44l108 -101q68 59 115 109l26 25q9 9 16 9q5 0 8 -3t3 -8t-5 -10l-31 -24q-57 -42 -132 -107q-58 54 -88 80.5z" />
    <glyph glyph-name="tcaron" unicode="&#x165;" horiz-adv-x="380" 
d="M170 10.5q-26 15.5 -33 41.5t-7 75v296q0 39 -9 53.5t-39 14.5q-10 0 -22 -2t-18 -2q-17 0 -17 9t17 9q7 0 21.5 -2.5t40.5 -2.5h43q-10 6 -13.5 17t-3.5 26q0 37 -1.5 73.5t-2.5 50.5l-2 36q0 17 10 17t10 -17l-2 -36q-1 -14 -2.5 -50.5t-1.5 -73.5q0 -22 7.5 -32.5
t35.5 -10.5q72 0 98 2.5t33 2.5q19 0 19 -9t-19 -9q-6 0 -36.5 2.5t-141.5 2.5h-23q17 -6 22 -21t5 -47v-296q0 -48 7 -73t28 -36t63 -11q43 0 64 8.5t26 8.5q9 0 9 -8q0 -11 -24.5 -16.5t-59.5 -5.5q-55 0 -81 15.5zM205 564q0 82 -4 230q-1 14 -1 30q0 14 9 14t9 -14
q0 -16 -1 -30q-4 -148 -4 -230q0 -5 -4 -5t-4 5z" />
    <glyph glyph-name="Tbar" unicode="&#x166;" horiz-adv-x="695" 
d="M63 591h281v101h-29q-92 0 -215 -8l-46 -2q-19 0 -19 10t19 10h46q92 -2 215 -2h65q123 0 215 2h46q19 0 19 -10t-19 -10l-46 2q-123 8 -215 8h-28v-101h281v-8h-281v-510q0 -30 -5.5 -45t-19.5 -19h75q39 0 59.5 2.5t27.5 2.5q21 0 21 -9q0 -8 -21 -8q-7 0 -27.5 1.5
t-59.5 1.5h-67q-83 0 -108.5 -2t-30.5 -2q-19 0 -19 9q0 10 19 10q6 0 28 -2.5t73 -2.5q30 0 38.5 13.5t8.5 52.5v507h-281v8z" />
    <glyph glyph-name="tbar" unicode="&#x167;" horiz-adv-x="380" 
d="M30 432h100q-1 33 -10.5 46t-37.5 13q-10 0 -22 -2t-18 -2q-17 0 -17 9t17 9q7 0 21.5 -2.5t40.5 -2.5h43q-10 6 -13.5 17t-3.5 26q0 37 -1.5 73.5t-2.5 50.5l-2 36q0 17 10 17t10 -17l-2 -36q-1 -14 -2.5 -50.5t-1.5 -73.5q0 -22 7.5 -32.5t35.5 -10.5q72 0 98 2.5
t33 2.5q19 0 19 -9t-19 -9q-6 0 -36.5 2.5t-141.5 2.5h-23q16 -6 21 -19t6 -41h186v-8h-186v-296q0 -48 7 -73t28 -36t63 -11q43 0 64 8.5t26 8.5q9 0 9 -8q0 -11 -24.5 -16.5t-59.5 -5.5q-55 0 -81 15.5t-33 41.5t-7 75v296v1h-100v8z" />
    <glyph glyph-name="Utilde" unicode="&#x168;" horiz-adv-x="770" 
d="M153.5 60q-82.5 76 -82.5 221v156q0 93 -5 203l-1 46q0 19 10 19q11 0 11 -19l-2 -46q-5 -110 -5 -203v-156q0 -142 80 -215.5t226 -73.5t226 73.5t80 215.5v156q0 93 -5 203l-2 46q0 19 11 19q10 0 10 -19l-1 -46q-5 -110 -5 -203v-156q0 -145 -82.5 -221t-231.5 -76
t-231.5 76zM427.5 804q-19.5 9 -43.5 26q-26 17 -42.5 24.5t-39.5 7.5q-31 0 -49.5 -11t-32.5 -29l-8 -8t-13 -7q-7 0 -7 7q0 10 13.5 23.5t37 23t53.5 9.5q26 0 45.5 -9t43.5 -26q26 -17 43 -24.5t39 -7.5q31 0 49.5 11t32.5 29l8 8t13 7q7 0 7 -7q0 -8 -13.5 -22
t-37.5 -24t-53 -10q-26 0 -45.5 9z" />
    <glyph glyph-name="utilde" unicode="&#x169;" 
d="M128 47q-57 62 -57 183v56q0 46 -2 93t-2 65l-2 45q0 7 3 12t7 5q10 0 10 -17l-2 -45q0 -18 -2 -65t-2 -93v-54q0 -239 217 -239q117 0 178.5 67t61.5 188v38q0 48 -2 97t-2 66l-2 40q0 17 10 17t10 -17l-2 -40q0 -17 -2 -66t-2 -97v-151q0 -67 12.5 -94t41.5 -27
q12 0 12 -9t-12 -9q-24 0 -43 28t-19 106v37q-19 -87 -80 -134.5t-160 -47.5q-111 0 -168 62zM362.5 604q-19.5 9 -43.5 26q-26 17 -42.5 24.5t-39.5 7.5q-31 0 -49.5 -11t-32.5 -29l-8 -8t-13 -7q-7 0 -7 7q0 10 13.5 23.5t37 23t53.5 9.5q26 0 45.5 -9t43.5 -26
q26 -17 43 -24.5t39 -7.5q31 0 49.5 11t32.5 29l8 8t13 7q7 0 7 -7q0 -8 -13.5 -22t-37.5 -24t-53 -10q-26 0 -45.5 9z" />
    <glyph glyph-name="Umacron" unicode="&#x16a;" horiz-adv-x="770" 
d="M153.5 60q-82.5 76 -82.5 221v156q0 93 -5 203l-1 46q0 19 10 19q11 0 11 -19l-2 -46q-5 -110 -5 -203v-156q0 -142 80 -215.5t226 -73.5t226 73.5t80 215.5v156q0 93 -5 203l-2 46q0 19 11 19q10 0 10 -19l-1 -46q-5 -110 -5 -203v-156q0 -145 -82.5 -221t-231.5 -76
t-231.5 76zM227 836h315v-8h-315v8z" />
    <glyph glyph-name="umacron" unicode="&#x16b;" 
d="M128 47q-57 62 -57 183v56q0 46 -2 93t-2 65l-2 45q0 7 3 12t7 5q10 0 10 -17l-2 -45q0 -18 -2 -65t-2 -93v-54q0 -239 217 -239q117 0 178.5 67t61.5 188v38q0 48 -2 97t-2 66l-2 40q0 17 10 17t10 -17l-2 -40q0 -17 -2 -66t-2 -97v-151q0 -67 12.5 -94t41.5 -27
q12 0 12 -9t-12 -9q-24 0 -43 28t-19 106v37q-19 -87 -80 -134.5t-160 -47.5q-111 0 -168 62zM162 636h315v-8h-315v8z" />
    <glyph glyph-name="ubreve" unicode="&#x16d;" 
d="M128 47q-57 62 -57 183v56q0 46 -2 93t-2 65l-2 45q0 7 3 12t7 5q10 0 10 -17l-2 -45q0 -18 -2 -65t-2 -93v-54q0 -239 217 -239q117 0 178.5 67t61.5 188v38q0 48 -2 97t-2 66l-2 40q0 17 10 17t10 -17l-2 -40q0 -17 -2 -66t-2 -97v-151q0 -67 12.5 -94t41.5 -27
q12 0 12 -9t-12 -9q-24 0 -43 28t-19 106v37q-19 -87 -80 -134.5t-160 -47.5q-111 0 -168 62zM256.5 590.5q-28.5 14.5 -42.5 37.5t-14 48q0 13 3.5 20.5t7.5 7.5q5 0 5 -8q0 -50 26.5 -81t81.5 -31q52 0 80 25.5t28 64.5q0 18 -5 31h8q5 -13 5 -31q0 -42 -30 -70t-86 -28
q-39 0 -67.5 14.5z" />
    <glyph glyph-name="Uring" unicode="&#x16e;" horiz-adv-x="770" 
d="M153.5 60q-82.5 76 -82.5 221v156q0 93 -5 203l-1 46q0 19 10 19q11 0 11 -19l-2 -46q-5 -110 -5 -203v-156q0 -142 80 -215.5t226 -73.5t226 73.5t80 215.5v156q0 93 -5 203l-2 46q0 19 11 19q10 0 10 -19l-1 -46q-5 -110 -5 -203v-156q0 -145 -82.5 -221t-231.5 -76
t-231.5 76zM351 807q-14 14 -14 34t14 34t34 14t34 -14t14 -34t-14 -34t-34 -14t-34 14zM356.5 812.5q11.5 -11.5 28.5 -11.5t28.5 11.5t11.5 28.5t-11.5 28.5t-28.5 11.5t-28.5 -11.5t-11.5 -28.5t11.5 -28.5z" />
    <glyph glyph-name="uring" unicode="&#x16f;" 
d="M128 47q-57 62 -57 183v56q0 46 -2 93t-2 65l-2 45q0 7 3 12t7 5q10 0 10 -17l-2 -45q0 -18 -2 -65t-2 -93v-54q0 -239 217 -239q117 0 178.5 67t61.5 188v38q0 48 -2 97t-2 66l-2 40q0 17 10 17t10 -17l-2 -40q0 -17 -2 -66t-2 -97v-151q0 -67 12.5 -94t41.5 -27
q12 0 12 -9t-12 -9q-24 0 -43 28t-19 106v37q-19 -87 -80 -134.5t-160 -47.5q-111 0 -168 62zM286 607q-14 14 -14 34t14 34t34 14t34 -14t14 -34t-14 -34t-34 -14t-34 14zM291.5 612.5q11.5 -11.5 28.5 -11.5t28.5 11.5t11.5 28.5t-11.5 28.5t-28.5 11.5t-28.5 -11.5
t-11.5 -28.5t11.5 -28.5z" />
    <glyph glyph-name="Uhungarumlaut" unicode="&#x170;" horiz-adv-x="770" 
d="M153.5 60q-82.5 76 -82.5 221v156q0 93 -5 203l-1 46q0 19 10 19q11 0 11 -19l-2 -46q-5 -110 -5 -203v-156q0 -142 80 -215.5t226 -73.5t226 73.5t80 215.5v156q0 93 -5 203l-2 46q0 19 11 19q10 0 10 -19l-1 -46q-5 -110 -5 -203v-156q0 -145 -82.5 -221t-231.5 -76
t-231.5 76zM265 777l187 131q5 4 11 4q4 0 7 -2.5t3 -6.5q0 -7 -9 -13l-197 -116zM397 777l187 131q5 4 11 4q4 0 7 -2.5t3 -6.5q0 -7 -9 -13l-197 -116z" />
    <glyph glyph-name="uhungarumlaut" unicode="&#x171;" 
d="M128 47q-57 62 -57 183v56q0 46 -2 93t-2 65l-2 45q0 7 3 12t7 5q10 0 10 -17l-2 -45q0 -18 -2 -65t-2 -93v-54q0 -239 217 -239q117 0 178.5 67t61.5 188v38q0 48 -2 97t-2 66l-2 40q0 17 10 17t10 -17l-2 -40q0 -17 -2 -66t-2 -97v-151q0 -67 12.5 -94t41.5 -27
q12 0 12 -9t-12 -9q-24 0 -43 28t-19 106v37q-19 -87 -80 -134.5t-160 -47.5q-111 0 -168 62zM200 577l187 131q5 4 11 4q4 0 7 -2.5t3 -6.5q0 -7 -9 -13l-197 -116zM332 577l187 131q5 4 11 4q4 0 7 -2.5t3 -6.5q0 -7 -9 -13l-197 -116z" />
    <glyph glyph-name="Uogonek" unicode="&#x172;" horiz-adv-x="770" 
d="M370 -151.5q-30 20.5 -30 53.5q0 55 76 83q-10 -1 -31 -1q-149 0 -231.5 76t-82.5 221v156q0 93 -5 203l-1 46q0 19 10 19q11 0 11 -19l-2 -46q-5 -110 -5 -203v-156q0 -142 80 -215.5t226 -73.5t226 73.5t80 215.5v156q0 93 -5 203l-2 46q0 19 11 19q10 0 10 -19l-1 -46
q-5 -110 -5 -203v-156q0 -130 -66.5 -205t-188.5 -89q-96 -27 -96 -85q0 -28 25 -46t76 -18q28 0 46 6t36 16q16 9 23 9q11 0 11 -9q0 -11 -29 -21.5t-73 -10.5q-63 0 -93 20.5z" />
    <glyph glyph-name="uogonek" unicode="&#x173;" 
d="M128 47q-57 62 -57 183v56q0 46 -2 93t-2 65l-2 45q0 7 3 12t7 5q10 0 10 -17l-2 -45q0 -18 -2 -65t-2 -93v-54q0 -239 217 -239q117 0 178.5 67t61.5 188v38q0 48 -2 97t-2 66l-2 40q0 17 10 17t10 -17l-2 -40q0 -17 -2 -66t-2 -97v-151q0 -67 12.5 -94t41.5 -27
q12 0 12 -9t-12 -9h-66q-74 0 -110 -25.5t-36 -62.5q0 -30 25.5 -52t76.5 -22q26 0 43 6t37 16q16 9 24 9q11 0 11 -9q0 -11 -28.5 -21.5t-71.5 -10.5q-63 0 -94 24.5t-31 59.5q0 40 38.5 68t115.5 28h41q-37 25 -37 126v37q-19 -87 -80 -134.5t-160 -47.5q-111 0 -168 62z
" />
    <glyph glyph-name="Wcircumflex" unicode="&#x174;" horiz-adv-x="1185" 
d="M48 681q-3 5 -3 10q0 10 12 10q8 0 13 -12l26 -55q73 -159 148 -306l167 -329l204 339q-150 293 -180 344q-3 6 -3 11q0 7 8 11q7 4 37.5 8t72.5 4q84 0 144.5 -24t60.5 -88q0 -28 -25 -80t-106 -187l5 -9l167 -329q17 28 55 92q137 227 189 315t71.5 130.5t19.5 67.5
q0 53 -50.5 72.5t-131.5 19.5q-48 0 -97 -7l-25 -2q-6 0 -8 2t-2 5q0 5 6 8q9 5 37.5 9.5t74.5 4.5q84 0 144.5 -24t60.5 -88q0 -28 -23.5 -77t-86 -154t-234.5 -387h-1l-174 340l-2 3q-8 -14 -177 -293l-31 -50h-1l-174 340q-119 234 -188 355zM620 346q78 132 102 181.5
t24 76.5q0 92 -182 92q-78 0 -116 -9q45 -92 172 -341zM431.5 766.5q-3.5 3.5 -3.5 7.5q0 5 5 10l31 24q57 42 132 107q58 -54 88 -80.5t45 -40.5l29 -26l-7 -7l-47 44l-108 101q-68 -59 -115 -109l-26 -25q-9 -9 -16 -9q-4 0 -7.5 3.5z" />
    <glyph glyph-name="wcircumflex" unicode="&#x175;" horiz-adv-x="916" 
d="M90 396q-30 53 -36 63l-16 28q-3 5 -3 9q0 9 10 9q8 0 13 -12q4 -7 8 -17t9 -20q46 -101 84 -175l143 -281q120 175 172 256l-13 24q-44 86 -76.5 142.5t-35.5 62.5q-2 4 -2 7q0 5 6 8q5 3 34.5 7t61.5 4q121 0 121 -76q0 -24 -21 -67.5t-66 -114.5l130 -253
q150 219 205 308.5t55 127.5q0 36 -33 47t-94 11q-15 0 -57 -3l-21 -1q-9 0 -12 3q-1 1 -1 3q0 5 5 7q18 8 72 8q64 0 106.5 -15.5t42.5 -60.5q0 -40 -60 -137.5t-208 -311.5h-1l-134 260q-48 -73 -176 -260h-1l-149 293q-32 64 -62 117zM468 282l10 -20q43 70 63.5 111
t20.5 63q0 35 -28.5 46.5t-83.5 11.5t-71.5 -5t-18.5 -6q39 -68 108 -201zM296.5 566.5q-3.5 3.5 -3.5 7.5q0 5 5 10l31 24q57 42 132 107q58 -54 88 -80.5t45 -40.5l29 -26l-7 -7l-47 44l-108 101q-68 -59 -115 -109l-26 -25q-9 -9 -16 -9q-4 0 -7.5 3.5z" />
    <glyph glyph-name="Ycircumflex" unicode="&#x176;" horiz-adv-x="790" 
d="M377 -192q-62 24 -62 88q0 41 71 152l-145 278q-92 178 -193 355q-3 5 -3 10q0 4 3 7t9 3q8 0 13 -12l21 -44q10 -20 53 -108.5t105 -208.5l142 -272q35 54 135 196q104 145 157 229.5t53 122.5q0 55 -49.5 73.5t-132.5 18.5q-48 0 -97 -7l-25 -2q-6 0 -8 2t-2 5q0 5 6 8
q9 5 37.5 9.5t74.5 4.5q84 0 144.5 -24t60.5 -88q0 -38 -52.5 -121.5t-157.5 -231.5q-106 -149 -158.5 -232.5t-52.5 -122.5q0 -54 50 -72.5t128 -18.5q57 0 108 7q12 1 20 1.5t10 -1.5t2 -5q0 -6 -9 -10q-10 -4 -37 -8.5t-72 -4.5q-85 0 -147 24zM243.5 766.5
q-3.5 3.5 -3.5 7.5q0 5 5 10l31 24q57 42 132 107q58 -54 88 -80.5t45 -40.5l29 -26l-7 -7l-47 44l-108 101q-68 -59 -115 -109l-26 -25q-9 -9 -16 -9q-4 0 -7.5 3.5z" />
    <glyph glyph-name="ycircumflex" unicode="&#x177;" horiz-adv-x="605" 
d="M265.5 -190q-45.5 19 -45.5 67q0 23 16 52t45 69l-136 282q-29 60 -83 161q-22 41 -25 47l-2 8q0 9 9 9q7 0 12 -12l12 -28q44 -100 83 -181l135 -279q5 7 11.5 15.5t14.5 19.5q143 196 196.5 278t53.5 118t-33 47t-94 11q-15 0 -57 -3l-21 -1q-9 0 -12 3q-1 1 -1 3
q0 5 5 7q18 8 72 8q64 0 106.5 -15.5t42.5 -60.5q0 -37 -54 -118.5t-192 -269.5l-34 -47q-62 -84 -62 -124q0 -68 128 -68q33 0 59.5 5t29.5 2q1 -1 1 -4q0 -4 -4 -7q-7 -4 -26.5 -8.5t-48.5 -4.5q-56 0 -101.5 19zM141.5 566.5q-3.5 3.5 -3.5 7.5q0 5 5 10l31 24
q57 42 132 107q58 -54 88 -80.5t45 -40.5l29 -26l-7 -7l-47 44l-108 101q-68 -59 -115 -109l-26 -25q-9 -9 -16 -9q-4 0 -7.5 3.5z" />
    <glyph glyph-name="Ydieresis" unicode="&#x178;" horiz-adv-x="790" 
d="M377 -192q-62 24 -62 88q0 41 71 152l-145 278q-92 178 -193 355q-3 5 -3 10q0 4 3 7t9 3q8 0 13 -12l21 -44q10 -20 53 -108.5t105 -208.5l142 -272q35 54 135 196q104 145 157 229.5t53 122.5q0 55 -49.5 73.5t-132.5 18.5q-48 0 -97 -7l-25 -2q-6 0 -8 2t-2 5q0 5 6 8
q9 5 37.5 9.5t74.5 4.5q84 0 144.5 -24t60.5 -88q0 -38 -52.5 -121.5t-157.5 -231.5q-106 -149 -158.5 -232.5t-52.5 -122.5q0 -54 50 -72.5t128 -18.5q57 0 108 7q12 1 20 1.5t10 -1.5t2 -5q0 -6 -9 -10q-10 -4 -37 -8.5t-72 -4.5q-85 0 -147 24zM317 824q-7 7 -7 17t7 17
t17 7t17 -7t7 -17t-7 -17t-17 -7t-17 7zM459 824q-7 7 -7 17t7 17t17 7t17 -7t7 -17t-7 -17t-17 -7t-17 7z" />
    <glyph glyph-name="Zacute" unicode="&#x179;" horiz-adv-x="745" 
d="M109.5 33q23.5 18 41.5 42l409 549q14 19 33.5 36.5t36.5 26.5q-37 5 -92 5h-206q-119 0 -186 -5t-75 -6h-3q-16 0 -16 12q0 9 19 9h46q92 -2 215 -2h206q59 0 84 3t34 3q11 0 16.5 -2t5.5 -8q0 -12 -25 -12q-19 0 -42.5 -18.5t-41.5 -42.5l-410 -549q-15 -20 -34 -37
t-36 -24q38 -5 91 -5h416q49 0 70.5 14t21.5 42q0 15 -6 35.5t-18 51.5q-2 4 -2 12q0 10 8 10q10 0 16 -17q10 -25 14.5 -42.5t4.5 -34.5q0 -36 -23.5 -57.5t-77.5 -21.5h-424q-58 0 -82.5 -2.5t-32.5 -2.5q-12 0 -18.5 2t-6.5 8q0 10 25 10q21 0 44.5 18zM265 777l187 131
q5 4 11 4q4 0 7 -2.5t3 -6.5q0 -7 -9 -13l-197 -116z" />
    <glyph glyph-name="zacute" unicode="&#x17a;" horiz-adv-x="580" 
d="M91.5 25q17.5 12 31.5 29l311 392q24 29 51 43q-36 3 -66 3h-263q-40 0 -59.5 -3t-27.5 -3q-19 0 -19 9t19 9q8 0 27.5 -2t59.5 -2h263q45 0 63 2t24 2q10 0 14.5 -1.5t4.5 -6.5q0 -9 -19 -9q-15 0 -32 -11.5t-31 -29.5l-311 -392q-24 -29 -51 -43q18 -3 65 -3h323
q29 0 41.5 7.5t12.5 24.5q0 19 -18 65q-1 3 -1 7q0 9 5 11h3q9 0 13 -12q15 -32 15 -57t-16.5 -39.5t-53.5 -14.5h-324q-45 0 -63 -2t-24 -2q-9 0 -14 1.5t-5 6.5q0 9 19 9q15 0 32.5 12zM185 577l187 131q5 4 11 4q4 0 7 -2.5t3 -6.5q0 -7 -9 -13l-197 -116z" />
    <glyph glyph-name="Zdotaccent" unicode="&#x17b;" horiz-adv-x="745" 
d="M109.5 33q23.5 18 41.5 42l409 549q14 19 33.5 36.5t36.5 26.5q-37 5 -92 5h-206q-119 0 -186 -5t-75 -6h-3q-16 0 -16 12q0 9 19 9h46q92 -2 215 -2h206q59 0 84 3t34 3q11 0 16.5 -2t5.5 -8q0 -12 -25 -12q-19 0 -42.5 -18.5t-41.5 -42.5l-410 -549q-15 -20 -34 -37
t-36 -24q38 -5 91 -5h416q49 0 70.5 14t21.5 42q0 15 -6 35.5t-18 51.5q-2 4 -2 12q0 10 8 10q10 0 16 -17q10 -25 14.5 -42.5t4.5 -34.5q0 -36 -23.5 -57.5t-77.5 -21.5h-424q-58 0 -82.5 -2.5t-32.5 -2.5q-12 0 -18.5 2t-6.5 8q0 10 25 10q21 0 44.5 18zM353 824
q-7 7 -7 17t7 17t17 7t17 -7t7 -17t-7 -17t-17 -7t-17 7z" />
    <glyph glyph-name="zdotaccent" unicode="&#x17c;" horiz-adv-x="580" 
d="M91.5 25q17.5 12 31.5 29l311 392q24 29 51 43q-36 3 -66 3h-263q-40 0 -59.5 -3t-27.5 -3q-19 0 -19 9t19 9q8 0 27.5 -2t59.5 -2h263q45 0 63 2t24 2q10 0 14.5 -1.5t4.5 -6.5q0 -9 -19 -9q-15 0 -32 -11.5t-31 -29.5l-311 -392q-24 -29 -51 -43q18 -3 65 -3h323
q29 0 41.5 7.5t12.5 24.5q0 19 -18 65q-1 3 -1 7q0 9 5 11h3q9 0 13 -12q15 -32 15 -57t-16.5 -39.5t-53.5 -14.5h-324q-45 0 -63 -2t-24 -2q-9 0 -14 1.5t-5 6.5q0 9 19 9q15 0 32.5 12zM273 624q-7 7 -7 17t7 17t17 7t17 -7t7 -17t-7 -17t-17 -7t-17 7z" />
    <glyph glyph-name="Zcaron" unicode="&#x17d;" horiz-adv-x="745" 
d="M109.5 33q23.5 18 41.5 42l409 549q14 19 33.5 36.5t36.5 26.5q-37 5 -92 5h-206q-119 0 -186 -5t-75 -6h-3q-16 0 -16 12q0 9 19 9h46q92 -2 215 -2h206q59 0 84 3t34 3q11 0 16.5 -2t5.5 -8q0 -12 -25 -12q-19 0 -42.5 -18.5t-41.5 -42.5l-410 -549q-15 -20 -34 -37
t-36 -24q38 -5 91 -5h416q49 0 70.5 14t21.5 42q0 15 -6 35.5t-18 51.5q-2 4 -2 12q0 10 8 10q10 0 16 -17q10 -25 14.5 -42.5t4.5 -34.5q0 -36 -23.5 -57.5t-77.5 -21.5h-424q-58 0 -82.5 -2.5t-32.5 -2.5q-12 0 -18.5 2t-6.5 8q0 10 25 10q21 0 44.5 18zM279 838.5
q-30 26.5 -45 40.5l-29 26l7 7l47 -44l108 -101q68 59 115 109l26 25q9 9 16 9q5 0 8 -3t3 -8t-5 -10l-31 -24q-57 -42 -132 -107q-58 54 -88 80.5z" />
    <glyph glyph-name="zcaron" unicode="&#x17e;" horiz-adv-x="580" 
d="M91.5 25q17.5 12 31.5 29l311 392q24 29 51 43q-36 3 -66 3h-263q-40 0 -59.5 -3t-27.5 -3q-19 0 -19 9t19 9q8 0 27.5 -2t59.5 -2h263q45 0 63 2t24 2q10 0 14.5 -1.5t4.5 -6.5q0 -9 -19 -9q-15 0 -32 -11.5t-31 -29.5l-311 -392q-24 -29 -51 -43q18 -3 65 -3h323
q29 0 41.5 7.5t12.5 24.5q0 19 -18 65q-1 3 -1 7q0 9 5 11h3q9 0 13 -12q15 -32 15 -57t-16.5 -39.5t-53.5 -14.5h-324q-45 0 -63 -2t-24 -2q-9 0 -14 1.5t-5 6.5q0 9 19 9q15 0 32.5 12zM199 638.5q-30 26.5 -45 40.5l-29 26l7 7l47 -44l108 -101q68 59 115 109l26 25
q9 9 16 9q5 0 8 -3t3 -8t-5 -10l-31 -24q-57 -42 -132 -107q-58 54 -88 80.5z" />
    <glyph glyph-name="longs" unicode="&#x17f;" horiz-adv-x="331" 
d="M70 12q0 7 2 33q0 11 2 46t2 84v367q0 77 10.5 118t46.5 62.5t110 21.5q53 0 53 -11q0 -8 -11 -8q-12 0 -20 1l-51 1q-58 0 -85.5 -19.5t-36 -57.5t-8.5 -112v-363q0 -49 2 -84t2 -46q2 -26 2 -33t-3 -12t-7 -5q-10 0 -10 17z" />
    <glyph glyph-name="florin" unicode="&#x192;" horiz-adv-x="495" 
d="M360 494q-60 2 -112 2v-504q0 -76 -10.5 -115t-47 -58t-112.5 -19q-53 0 -53 11q0 8 11 8q9 0 26 -1t48 -1q59 0 86.5 17t35.5 53t8 109v500q-37 1 -130 1q-4 0 -4 4t4 4q93 0 130 1v36q0 77 10.5 118t46.5 62.5t110 21.5q53 0 53 -11q0 -8 -11 -8q-12 0 -20 1l-51 1
q-58 0 -85.5 -19.5t-36 -57.5t-8.5 -112v-32l86 2q86 2 103 2q23 0 23 -9q0 -4 -5 -6t-18 -2z" />
    <glyph glyph-name="Ohorn" unicode="&#x1a0;" horiz-adv-x="860" 
d="M245 30q-86 46 -138 129.5t-52 191.5q0 107 52 190t138 129t185 46q77 0 144 -27h122q40 0 60 11.5t25.5 30t5.5 48.5q0 20 -3.5 33.5t-3.5 15.5l-1 4q0 8 8 8t11.5 -13.5t3.5 -32.5q0 -54 -22.5 -83.5t-83.5 -29.5h-103q96 -43 154 -129.5t58 -200.5q0 -108 -52 -191.5
t-138 -129.5t-185 -46t-185 46zM114 163q51 -82 135.5 -126.5t180.5 -44.5t180.5 44.5t135.5 126.5t51 188q0 105 -51 186.5t-135.5 126t-180.5 44.5t-180.5 -44.5t-135.5 -126t-51 -186.5q0 -106 51 -188z" />
    <glyph glyph-name="ohorn" unicode="&#x1a1;" 
d="M189 16q-62 32 -100.5 92.5t-38.5 141.5t38.5 141.5t100.5 92.5t131 32q62 0 119 -26h39q40 0 60 11.5t25.5 30t5.5 48.5q0 20 -3.5 33.5t-3.5 15.5l-1 4q0 8 8 8t11.5 -13.5t3.5 -32.5q0 -54 -22.5 -83.5t-83.5 -29.5h-23q61 -33 98 -93t37 -139q0 -81 -38.5 -141.5
t-100.5 -92.5t-131 -32t-131 32zM95 112.5q37 -58.5 97.5 -89.5t127.5 -31t127.5 31t97.5 89.5t37 137.5t-37 137.5t-97.5 89.5t-127.5 31t-127.5 -31t-97.5 -89.5t-37 -137.5t37 -137.5z" />
    <glyph glyph-name="Uhorn" unicode="&#x1af;" horiz-adv-x="770" 
d="M153.5 60q-82.5 76 -82.5 221v156q0 93 -5 203l-1 46q0 19 10 19q11 0 11 -19l-2 -46q-5 -110 -5 -203v-156q0 -142 80 -215.5t226 -73.5t226 73.5t80 215.5v156q0 93 -5 203l-2 46q0 19 11 19h1q48 -3 58 -3q30 0 38 17t8 60q0 20 -3.5 33.5t-3.5 15.5l-1 4q0 8 8 8
t11.5 -13.5t3.5 -32.5q0 -51 -17.5 -77.5t-58.5 -26.5l-34 1v-5l-1 -46q-5 -110 -5 -203v-156q0 -145 -82.5 -221t-231.5 -76t-231.5 76z" />
    <glyph glyph-name="uhorn" unicode="&#x1b0;" 
d="M128 47q-57 62 -57 183v56q0 46 -2 93t-2 65l-2 45q0 7 3 12t7 5q10 0 10 -17l-2 -45q0 -18 -2 -65t-2 -93v-54q0 -239 217 -239q117 0 178.5 67t61.5 188v38q0 48 -2 97t-2 66l-2 40q0 17 10 17h1q48 -3 58 -3q30 0 38 17t8 60q0 20 -3.5 33.5t-3.5 15.5l-1 4q0 8 8 8
t11.5 -13.5t3.5 -32.5q0 -51 -17.5 -77.5t-58.5 -26.5l-34 1v-3l-2 -40q0 -17 -2 -66t-2 -97v-151q0 -67 12.5 -94t41.5 -27q12 0 12 -9t-12 -9q-24 0 -43 28t-19 106v37q-19 -87 -80 -134.5t-160 -47.5q-111 0 -168 62z" />
    <glyph glyph-name="uni01CD" unicode="&#x1cd;" horiz-adv-x="820" 
d="M108.5 10q-25.5 18 -42 49t-16.5 66q0 36 19 67t57.5 49.5t92.5 18.5q76 0 200 -52.5t344 -200.5q-23 48 -196 368l-178 328l-90 -156q-62 -106 -112 -212q-7 -17 -18 -17q-7 0 -9.5 5.5t0.5 11.5l26 42q69 110 105 172l97 167h2l185 -340q84 -156 180 -321l21 -37
q4 -8 4 -14q0 -9 -10 -9q-6 0 -13 5q-219 148 -341 200t-197 52q-77 0 -119 -37t-42 -90q0 -43 24.5 -67t60.5 -39q4 -2 12.5 -5.5t12 -6t3.5 -5.5q0 -10 -14 -10q-23 0 -48.5 18zM299 838.5q-30 26.5 -45 40.5l-29 26l7 7l47 -44l108 -101q68 59 115 109l26 25q9 9 16 9
q5 0 8 -3t3 -8t-5 -10l-31 -24q-57 -42 -132 -107q-58 54 -88 80.5z" />
    <glyph glyph-name="uni01CE" unicode="&#x1ce;" horiz-adv-x="665" 
d="M99 14q-49 30 -49 93q0 48 35 80t121 47l117 20q71 12 110.5 29t55.5 42t16 63q0 62 -37 84.5t-103 22.5h-54q-76 0 -166 -9l-24 -2q-8 0 -8 7q0 22 172 22q86 0 134.5 -10.5t71 -37t22.5 -75.5q0 -43 -18 -70.5t-59 -44.5t-113 -29l-117 -20q-82 -14 -115 -44t-33 -75
q0 -60 47 -87.5t130 -27.5q70 0 132 18t100 51.5t38 77.5q0 19 9 19q4 0 6.5 -3.5t1.5 -11.5q-4 -20 -4 -56t13.5 -56t46.5 -20q23 0 48 5l5 1q9 0 9 -8q0 -7 -11.5 -11t-29.5 -4q-38 0 -57 14.5t-25.5 36.5t-10.5 60q-20 -57 -98 -89t-173 -32q-87 0 -136 30zM233 638.5
q-30 26.5 -45 40.5l-29 26l7 7l47 -44l108 -101q68 59 115 109l26 25q9 9 16 9q5 0 8 -3t3 -8t-5 -10l-31 -24q-57 -42 -132 -107q-58 54 -88 80.5z" />
    <glyph glyph-name="uni01E4" unicode="&#x1e4;" horiz-adv-x="835" 
d="M410 124q0 10 19 10l60 -1q93 -4 211 -5q27 40 41 85t14 86q0 16 8 16q9 0 9 -26l-1 -29q-3 -66 -3 -100v-32h12q11 0 33 2l26 1q6 0 6 -7q0 -2 -1.5 -4.5t-4.5 -2.5l-26 1q-22 2 -33 2h-11q2 -50 4 -71q2 -28 2 -35q0 -19 -11 -19q-10 0 -10 19q0 9 2 39q4 69 4 67h-25
h-30q-45 -62 -115.5 -99t-162.5 -37q-100 0 -185 43.5t-136 127t-51 196.5q0 112 53.5 194.5t141.5 126.5t189 44q65 0 121.5 -18t97.5 -46t61 -58q1 -1 1 -3q0 -5 -4.5 -7t-8.5 4q-35 48 -105.5 84t-163.5 36q-98 0 -184 -42.5t-138.5 -123.5t-52.5 -191q0 -111 50 -192.5
t133 -124t180 -42.5q92 0 159.5 35t109.5 93q-153 -2 -204 -4l-62 -1q-19 0 -19 9zM735 128h25v32q0 42 -2 84q-13 -63 -48 -116h25z" />
    <glyph glyph-name="uni01E5" unicode="&#x1e5;" horiz-adv-x="600" 
d="M266 -66q0 10 19 10l37 -1q85 -5 178 -5h21q22 39 22 80q0 84 -73 84q-41 0 -80 -19.5t-101 -61.5q-59 -40 -96.5 -59t-76.5 -19q-36 0 -58.5 21t-22.5 54q0 40 32.5 75t80 60t90.5 35q-83 10 -125.5 55.5t-42.5 108.5q0 70 53 117t156 47q74 0 121.5 -21t62.5 -61
q0 33 21.5 52t62.5 19q6 0 9.5 -2.5t3.5 -6.5t-3 -6.5t-8 -2.5q-37 0 -57.5 -10.5t-20.5 -38.5q0 -11 3.5 -20t3.5 -13q0 -8 -9 -8q-10 0 -10 12q0 44 -48.5 71.5t-131.5 27.5q-99 0 -150 -44.5t-51 -111.5t50.5 -112.5t149.5 -45.5q59 0 101.5 17t65 45.5t22.5 61.5
q0 10 -5 23v1q0 4 5 4.5t6 -4.5q2 -10 2 -24q0 -35 -23.5 -65.5t-68 -48.5t-105.5 -18q-37 0 -93.5 -23.5t-99 -62t-42.5 -82.5q0 -29 21 -48t53 -19q37 0 74.5 19t91.5 57q62 41 103.5 62t85.5 21q79 0 79 -92q0 -41 -21 -80h15q11 0 22.5 1.5t21.5 1.5q3 0 4.5 -2.5
t1.5 -4.5q0 -7 -6 -7q-10 0 -21.5 1.5t-22.5 1.5h-19q-35 -59 -107 -96.5t-164 -37.5q-76 0 -139 30q-19 9 -19 21q0 5 4 6.5t9 -1.5q40 -23 76.5 -32.5t76.5 -9.5q88 0 154.5 33.5t99.5 86.5h-17q-110 0 -178 -4l-37 -1q-19 0 -19 9z" />
    <glyph glyph-name="Gcaron" unicode="&#x1e6;" horiz-adv-x="835" 
d="M242 27.5q-85 43.5 -136 127t-51 196.5q0 112 53.5 194.5t141.5 126.5t189 44q65 0 121.5 -18t97.5 -46t61 -58q1 -1 1 -3q0 -5 -4.5 -7t-8.5 4q-35 48 -105.5 84t-163.5 36q-98 0 -184 -42.5t-138.5 -123.5t-52.5 -191q0 -111 50 -192.5t133 -124t180 -42.5
q110 0 184 48.5t109.5 120t35.5 138.5q0 16 8 16q9 0 9 -26l-1 -29q-3 -66 -3 -100q0 -49 5 -109q2 -30 2 -37q0 -19 -11 -19q-10 0 -10 19q0 7 2 37q4 48 4 109q0 42 -2 84q-14 -69 -56 -128t-112.5 -95.5t-162.5 -36.5q-100 0 -185 43.5zM339 838.5q-30 26.5 -45 40.5
l-29 26l7 7l47 -44l108 -101q68 59 115 109l26 25q9 9 16 9q5 0 8 -3t3 -8t-5 -10l-31 -24q-57 -42 -132 -107q-58 54 -88 80.5z" />
    <glyph glyph-name="gcaron" unicode="&#x1e7;" horiz-adv-x="600" 
d="M116 -174q-19 9 -19 21q0 5 4 6.5t9 -1.5q40 -23 76.5 -32.5t76.5 -9.5q83 0 146.5 30t98.5 78t35 100q0 84 -73 84q-41 0 -80 -19.5t-101 -61.5q-59 -40 -96.5 -59t-76.5 -19q-36 0 -58.5 21t-22.5 54q0 40 32.5 75t80 60t90.5 35q-83 10 -125.5 55.5t-42.5 108.5
q0 70 53 117t156 47q74 0 121.5 -21t62.5 -61q0 33 21.5 52t62.5 19q6 0 9.5 -2.5t3.5 -6.5t-3 -6.5t-8 -2.5q-37 0 -57.5 -10.5t-20.5 -38.5q0 -11 3.5 -20t3.5 -13q0 -8 -9 -8q-10 0 -10 12q0 44 -48.5 71.5t-131.5 27.5q-99 0 -150 -44.5t-51 -111.5t50.5 -112.5
t149.5 -45.5q59 0 101.5 17t65 45.5t22.5 61.5q0 10 -5 23v1q0 4 5 4.5t6 -4.5q2 -10 2 -24q0 -35 -23.5 -65.5t-68 -48.5t-105.5 -18q-37 0 -93.5 -23.5t-99 -62t-42.5 -82.5q0 -29 21 -48t53 -19q37 0 74.5 19t91.5 57q62 41 103.5 62t85.5 21q79 0 79 -92q0 -56 -38 -107
t-105.5 -83t-152.5 -32q-76 0 -139 30zM187 638.5q-30 26.5 -45 40.5l-29 26l7 7l47 -44l108 -101q68 59 115 109l26 25q9 9 16 9q5 0 8 -3t3 -8t-5 -10l-31 -24q-57 -42 -132 -107q-58 54 -88 80.5z" />
    <glyph glyph-name="uni01E8" unicode="&#x1e8;" horiz-adv-x="735" 
d="M122 9h22q37 0 57.5 2.5t27.5 2.5q21 0 21 -9q0 -8 -21 -8q-7 0 -27.5 1.5t-57.5 1.5h-14q-39 0 -54.5 -2t-21.5 -2q-19 0 -19 9q0 10 19 10q5 0 14.5 -2.5t23.5 -2.5q30 0 38.5 13.5t8.5 52.5v551q0 30 5.5 45t19.5 19h-23q-37 0 -57.5 -2.5t-27.5 -2.5q-21 0 -21 9
q0 8 21 8q7 0 27.5 -1.5t57.5 -1.5h14q39 0 54.5 2t21.5 2q19 0 19 -9q0 -10 -19 -10q-5 0 -14.5 2.5t-23.5 2.5q-29 0 -37.5 -13.5t-8.5 -52.5v-551q0 -20 -3 -34l436 546q55 68 78.5 94t34.5 26q7 0 7 -7q0 -4 -10.5 -13.5t-14.5 -13.5q-54 -46 -89 -91l-196 -244
l237 -256q22 -25 39.5 -40t21.5 -19q17 -13 17 -19q0 -7 -7 -7q-5 0 -11 5.5t-18 21.5l-47 53l-236 255l-249 -311q-5 -7 -15 -10zM279 838.5q-30 26.5 -45 40.5l-29 26l7 7l47 -44l108 -101q68 59 115 109l26 25q9 9 16 9q5 0 8 -3t3 -8t-5 -10l-31 -24q-57 -42 -132 -107
q-58 54 -88 80.5z" />
    <glyph glyph-name="uni0218" unicode="&#x218;" horiz-adv-x="710" 
d="M177 10q-67 26 -97 59t-30 53q0 10 8 10t20 -22q20 -31 45 -55t80.5 -43.5t146.5 -19.5q124 0 210.5 42.5t86.5 126.5q0 55 -39.5 93.5t-96 62t-152.5 53.5q-94 29 -148.5 52t-92 59t-37.5 88q0 147 310 147q85 0 147.5 -11.5t62.5 -25.5q0 -7 -10 -7q-12 0 -33 6
q-44 9 -86.5 14.5t-112.5 5.5q-120 0 -195 -25.5t-75 -102.5q0 -50 36.5 -84.5t90.5 -57t145 -50.5q98 -31 156 -55t98 -64t40 -98q0 -89 -88 -133t-218 -44q-105 0 -172 26zM295 -214q0 4 6 4q35 0 56.5 9.5t21.5 43.5q0 37 -24 95v1q0 4 4 5.5t5 -2.5q21 -51 21 -87
q0 -46 -25 -61t-53 -15q-12 0 -12 7z" />
    <glyph glyph-name="uni0219" unicode="&#x219;" horiz-adv-x="555" 
d="M143 1.5q-56 17.5 -86 39.5q-7 6 -7 12q0 10 10 10q5 0 12 -5q4 -3 25 -21t68 -31.5t110 -13.5q99 0 160.5 31t61.5 97q0 46 -30.5 74t-74 41.5t-116.5 28.5q-71 15 -112 27.5t-69 37.5t-28 66q0 118 237 118q57 0 106 -6t49 -18q0 -7 -8 -7l-25 2q-82 11 -164 11h-32
q-75 0 -115 -27t-40 -73q0 -38 27 -61.5t67 -35.5t108 -26q75 -16 120 -30t76.5 -43.5t31.5 -78.5q0 -70 -64 -103t-169 -33q-73 0 -129 17.5zM220 -219q0 4 6 4q35 0 56.5 9.5t21.5 43.5q0 37 -24 95v1q0 4 4 5.5t5 -2.5q21 -51 21 -87q0 -46 -25 -61t-53 -15q-12 0 -12 7z
" />
    <glyph glyph-name="uni021A" unicode="&#x21a;" horiz-adv-x="695" 
d="M177 5q0 10 19 10q6 0 28 -2.5t73 -2.5q30 0 38.5 13.5t8.5 52.5v616h-29q-92 0 -215 -8l-46 -2q-19 0 -19 10t19 10h46q92 -2 215 -2h65q123 0 215 2h46q19 0 19 -10t-19 -10l-46 2q-123 8 -215 8h-28v-619q0 -30 -5.5 -45t-19.5 -19h75q39 0 59.5 2.5t27.5 2.5
q21 0 21 -9q0 -8 -21 -8q-7 0 -27.5 1.5t-59.5 1.5h-67q-83 0 -108.5 -2t-30.5 -2q-19 0 -19 9zM290 -203q0 4 6 4q35 0 56.5 9.5t21.5 43.5q0 37 -24 95v1q0 4 4 5.5t5 -2.5q21 -51 21 -87q0 -46 -25 -61t-53 -15q-12 0 -12 7z" />
    <glyph glyph-name="uni021B" unicode="&#x21b;" horiz-adv-x="380" 
d="M170 10.5q-26 15.5 -33 41.5t-7 75v296q0 39 -9 53.5t-39 14.5q-10 0 -22 -2t-18 -2q-17 0 -17 9t17 9q7 0 21.5 -2.5t40.5 -2.5h43q-10 6 -13.5 17t-3.5 26q0 37 -1.5 73.5t-2.5 50.5l-2 36q0 17 10 17t10 -17l-2 -36q-1 -14 -2.5 -50.5t-1.5 -73.5q0 -22 7.5 -32.5
t35.5 -10.5q72 0 98 2.5t33 2.5q19 0 19 -9t-19 -9q-6 0 -36.5 2.5t-141.5 2.5h-23q17 -6 22 -21t5 -47v-296q0 -48 7 -73t28 -36t63 -11q43 0 64 8.5t26 8.5q9 0 9 -8q0 -11 -24.5 -16.5t-59.5 -5.5q-55 0 -81 15.5zM160 -203q0 4 6 4q35 0 56.5 9.5t21.5 43.5q0 37 -24 95
v1q0 4 4 5.5t5 -2.5q21 -51 21 -87q0 -46 -25 -61t-53 -15q-12 0 -12 7z" />
    <glyph glyph-name="uni0237" unicode="&#x237;" horiz-adv-x="165" 
d="M-125 -193q0 9 11 9q9 0 25.5 -2t32.5 -2q58 0 88 20.5t40.5 62t10.5 116.5v314q0 49 -2 84t-2 46q-2 26 -2 33q0 17 10 17q4 0 7 -5t3 -12t-2 -33q0 -11 -2 -46t-2 -84v-315q0 -78 -12.5 -123t-50 -68.5t-110.5 -23.5q-43 0 -43 12z" />
    <glyph glyph-name="uni0259" unicode="&#x259;" horiz-adv-x="613" 
d="M168 6.5q-54 22.5 -86 61.5t-32 86h489q16 45 16 94q0 80 -38 139t-100.5 90t-135.5 31q-76 0 -119.5 -27.5t-77.5 -67.5q-19 -22 -25 -22q-7 0 -7 8q0 12 29 41t80.5 52.5t119.5 23.5q75 0 140 -32.5t103.5 -93.5t38.5 -142t-38.5 -141t-102 -91.5t-137.5 -31.5
q-63 0 -117 22.5zM89 71q30 -36 82 -57.5t114 -21.5q84 0 152.5 41t98.5 114h-477q0 -40 30 -76z" />
    <glyph glyph-name="circumflex" unicode="&#x2c6;" horiz-adv-x="370" 
d="M23.5 566.5q-3.5 3.5 -3.5 7.5q0 5 5 10l31 24q57 42 132 107q58 -54 88 -80.5t45 -40.5l29 -26l-7 -7l-47 44l-108 101q-68 -59 -115 -109l-26 -25q-9 -9 -16 -9q-4 0 -7.5 3.5z" />
    <glyph glyph-name="caron" unicode="&#x2c7;" horiz-adv-x="370" 
d="M94 638.5q-30 26.5 -45 40.5l-29 26l7 7l47 -44l108 -101q68 59 115 109l26 25q9 9 16 9q5 0 8 -3t3 -8t-5 -10l-31 -24q-57 -42 -132 -107q-58 54 -88 80.5z" />
    <glyph glyph-name="breve" unicode="&#x2d8;" horiz-adv-x="280" 
d="M76.5 590.5q-28.5 14.5 -42.5 37.5t-14 48q0 13 3.5 20.5t7.5 7.5q5 0 5 -8q0 -50 26.5 -81t81.5 -31q52 0 80 25.5t28 64.5q0 18 -5 31h8q5 -13 5 -31q0 -42 -30 -70t-86 -28q-39 0 -67.5 14.5z" />
    <glyph glyph-name="dotaccent" unicode="&#x2d9;" horiz-adv-x="68" 
d="M17 624q-7 7 -7 17t7 17t17 7t17 -7t7 -17t-7 -17t-17 -7t-17 7z" />
    <glyph glyph-name="ring" unicode="&#x2da;" horiz-adv-x="116" 
d="M24 607q-14 14 -14 34t14 34t34 14t34 -14t14 -34t-14 -34t-34 -14t-34 14zM29.5 612.5q11.5 -11.5 28.5 -11.5t28.5 11.5t11.5 28.5t-11.5 28.5t-28.5 11.5t-28.5 -11.5t-11.5 -28.5t11.5 -28.5z" />
    <glyph glyph-name="ogonek" unicode="&#x2db;" horiz-adv-x="265" 
d="M51 -147.5q-31 24.5 -31 59.5q0 40 38.5 68t115.5 28h66v-8h-66q-74 0 -110 -25.5t-36 -62.5q0 -30 25.5 -52t76.5 -22q26 0 43 6t37 16q16 9 24 9q11 0 11 -9q0 -11 -28.5 -21.5t-71.5 -10.5q-63 0 -94 24.5z" />
    <glyph glyph-name="tilde" unicode="&#x2dc;" horiz-adv-x="405" 
d="M245.5 604q-19.5 9 -43.5 26q-26 17 -42.5 24.5t-39.5 7.5q-31 0 -49.5 -11t-32.5 -29l-8 -8t-13 -7q-7 0 -7 7q0 10 13.5 23.5t37 23t53.5 9.5q26 0 45.5 -9t43.5 -26q26 -17 43 -24.5t39 -7.5q31 0 49.5 11t32.5 29l8 8t13 7q7 0 7 -7q0 -8 -13.5 -22t-37.5 -24
t-53 -10q-26 0 -45.5 9z" />
    <glyph glyph-name="hungarumlaut" unicode="&#x2dd;" horiz-adv-x="380" 
d="M20 577l187 131q5 4 11 4q4 0 7 -2.5t3 -6.5q0 -7 -9 -13l-197 -116zM152 577l187 131q5 4 11 4q4 0 7 -2.5t3 -6.5q0 -7 -9 -13l-197 -116z" />
    <glyph glyph-name="gravecomb" unicode="&#x300;" horiz-adv-x="0" 
d="M20 702q0 4 3 7t7 3q6 0 11 -4l187 -131l-2 -3l-197 116q-9 5 -9 12z" />
    <glyph glyph-name="acutecomb" unicode="&#x301;" horiz-adv-x="0" 
d="M20 577l187 131q5 4 11 4q4 0 7 -2.5t3 -6.5q0 -7 -9 -13l-197 -116z" />
    <glyph glyph-name="uni0302" unicode="&#x302;" horiz-adv-x="0" 
d="M23.5 566.5q-3.5 3.5 -3.5 7.5q0 5 5 10l31 24q57 42 132 107q58 -54 88 -80.5t45 -40.5l29 -26l-7 -7l-47 44l-108 101q-68 -59 -115 -109l-26 -25q-9 -9 -16 -9q-4 0 -7.5 3.5z" />
    <glyph glyph-name="tildecomb" unicode="&#x303;" horiz-adv-x="0" 
d="M245.5 604q-19.5 9 -43.5 26q-26 17 -42.5 24.5t-39.5 7.5q-31 0 -49.5 -11t-32.5 -29l-8 -8t-13 -7q-7 0 -7 7q0 10 13.5 23.5t37 23t53.5 9.5q26 0 45.5 -9t43.5 -26q26 -17 43 -24.5t39 -7.5q31 0 49.5 11t32.5 29l8 8t13 7q7 0 7 -7q0 -8 -13.5 -22t-37.5 -24
t-53 -10q-26 0 -45.5 9z" />
    <glyph glyph-name="uni0304" unicode="&#x304;" horiz-adv-x="0" 
d="M20 636h315v-8h-315v8z" />
    <glyph glyph-name="uni0306" unicode="&#x306;" horiz-adv-x="0" 
d="M76.5 590.5q-28.5 14.5 -42.5 37.5t-14 48q0 13 3.5 20.5t7.5 7.5q5 0 5 -8q0 -50 26.5 -81t81.5 -31q52 0 80 25.5t28 64.5q0 18 -5 31h8q5 -13 5 -31q0 -42 -30 -70t-86 -28q-39 0 -67.5 14.5z" />
    <glyph glyph-name="uni0307" unicode="&#x307;" horiz-adv-x="0" 
d="M17 624q-7 7 -7 17t7 17t17 7t17 -7t7 -17t-7 -17t-17 -7t-17 7z" />
    <glyph glyph-name="uni0308" unicode="&#x308;" horiz-adv-x="0" 
d="M27 624q-7 7 -7 17t7 17t17 7t17 -7t7 -17t-7 -17t-17 -7t-17 7zM169 624q-7 7 -7 17t7 17t17 7t17 -7t7 -17t-7 -17t-17 -7t-17 7z" />
    <glyph glyph-name="hookabovecomb" unicode="&#x309;" horiz-adv-x="0" 
d="M83.5 568.5q-7.5 3.5 -7.5 7.5q0 5 8 5q45 0 71.5 14.5t26.5 44.5q0 28 -22 45t-57 17q-33 0 -53.5 -15.5t-20.5 -44.5q0 -4 -4.5 -4t-4.5 4q0 32 24 50t59 18q37 0 62 -19t25 -52q0 -35 -26 -54.5t-61 -19.5q-12 0 -19.5 3.5z" />
    <glyph glyph-name="uni030A" unicode="&#x30a;" horiz-adv-x="0" 
d="M24 607q-14 14 -14 34t14 34t34 14t34 -14t14 -34t-14 -34t-34 -14t-34 14zM29.5 612.5q11.5 -11.5 28.5 -11.5t28.5 11.5t11.5 28.5t-11.5 28.5t-28.5 11.5t-28.5 -11.5t-11.5 -28.5t11.5 -28.5z" />
    <glyph glyph-name="uni030B" unicode="&#x30b;" horiz-adv-x="0" 
d="M20 577l187 131q5 4 11 4q4 0 7 -2.5t3 -6.5q0 -7 -9 -13l-197 -116zM152 577l187 131q5 4 11 4q4 0 7 -2.5t3 -6.5q0 -7 -9 -13l-197 -116z" />
    <glyph glyph-name="uni030C" unicode="&#x30c;" horiz-adv-x="0" 
d="M94 638.5q-30 26.5 -45 40.5l-29 26l7 7l47 -44l108 -101q68 59 115 109l26 25q9 9 16 9q5 0 8 -3t3 -8t-5 -10l-31 -24q-57 -42 -132 -107q-58 54 -88 80.5z" />
    <glyph glyph-name="uni0312" unicode="&#x312;" horiz-adv-x="0" 
d="M150 695q0 -5 -6 -5q-26 0 -43.5 -4t-30.5 -20.5t-13 -52.5q0 -51 32 -123v-2q0 -4 -4.5 -5.5t-6.5 1.5q-12 29 -20 58.5t-8 68.5q0 93 88 93q12 0 12 -9z" />
    <glyph glyph-name="uni031B" unicode="&#x31b;" horiz-adv-x="0" 
d="M20 507v13q48 -3 59 -3q30 0 38 17t8 60q0 20 -3.5 33.5t-3.5 15.5l-1 4q0 8 8 8t11.5 -13.5t3.5 -32.5q0 -51 -17.5 -77.5t-58.5 -26.5q-20 0 -44 2z" />
    <glyph glyph-name="dotbelowcomb" unicode="&#x323;" horiz-adv-x="0" 
d="M57 -140q-7 7 -7 17t7 17t17 7t17 -7t7 -17t-7 -17t-17 -7t-17 7z" />
    <glyph glyph-name="uni0326" unicode="&#x326;" horiz-adv-x="0" 
d="M20 -203q0 4 6 4q35 0 56.5 9.5t21.5 43.5q0 37 -24 95v1q0 4 4 5.5t5 -2.5q21 -51 21 -87q0 -46 -25 -61t-53 -15q-12 0 -12 7z" />
    <glyph glyph-name="uni0327" unicode="&#x327;" horiz-adv-x="0" 
d="M53 -189q-33 11 -33 23q0 7 9 7q8 0 22 -8q21 -10 44 -16.5t56 -6.5q50 0 70.5 15t20.5 37q0 28 -36.5 45t-129.5 17l75 76h9l-69 -69q159 0 159 -69q0 -25 -26 -43.5t-87 -18.5q-51 0 -84 11z" />
    <glyph glyph-name="uni0328" unicode="&#x328;" horiz-adv-x="0" 
d="M51 -147.5q-31 24.5 -31 59.5q0 40 38.5 68t115.5 28h66v-8h-66q-74 0 -110 -25.5t-36 -62.5q0 -30 25.5 -52t76.5 -22q26 0 43 6t37 16q16 9 24 9q11 0 11 -9q0 -11 -28.5 -21.5t-71.5 -10.5q-63 0 -94 24.5z" />
    <glyph glyph-name="uni03BC" unicode="&#x3bc;" horiz-adv-x="643" 
d="M68 -188q0 7 2 33q0 11 2 46t2 84v311q0 46 -2 93t-2 65l-2 45q0 7 3 12t7 5q10 0 10 -17l-2 -45q0 -18 -2 -65t-2 -93v-54q0 -239 217 -239q117 0 178.5 67t61.5 188v38q0 48 -2 97t-2 66l-2 40q0 17 10 17t10 -17l-2 -40q0 -17 -2 -66t-2 -97v-151q0 -67 12.5 -94
t41.5 -27q12 0 12 -9t-12 -9q-24 0 -43 28t-19 106v37q-19 -87 -80 -134.5t-160 -47.5q-90 0 -145 41.5t-72 123.5v-175q0 -49 2 -84t2 -46q2 -26 2 -33t-3 -12t-7 -5q-10 0 -10 17z" />
    <glyph glyph-name="uni0E3F" unicode="&#xe3f;" horiz-adv-x="490" 
d="M107.5 110q-48.5 13 -73.5 31q-4 3 -4 8q0 3 2 6t6 3t28 -14.5t62.5 -26.5t93.5 -12h2q1 20 1 70v229q-16 0 -25 -0.5t-15 -0.5q-15 0 -15 10q0 4 4 7t10 3q8 0 17.5 -1t23.5 -2v55q0 46 -2 114l-1 33h-179v-180q0 -91 4 -163l1 -37q0 -15 -9 -15t-9 15l1 37q4 72 4 163
q0 93 -3 183q0 7 7 7q3 0 12 -1t22 -1h149l-2 40l-2 49q0 16 11 16q10 0 10 -16q0 -18 -1 -31l-2 -58h9q73 0 115.5 -27t42.5 -80q0 -54 -46 -82t-124 -28v-3q88 0 145 -40t57 -116q0 -74 -54.5 -113.5t-146.5 -43.5l3 -59l2 -27q0 -16 -10 -16t-10 16l2 27l3 59h-9
q-59 0 -107.5 13zM234 105q87 2 140 39.5t53 109.5t-53.5 110.5t-140.5 39.5v-229q0 -50 1 -70zM243 420q71 0 111.5 26.5t40.5 76.5q0 49 -39.5 74t-109.5 25h-10q-3 -61 -3 -147v-55h10z" />
    <glyph glyph-name="uni1E20" unicode="&#x1e20;" horiz-adv-x="835" 
d="M242 27.5q-85 43.5 -136 127t-51 196.5q0 112 53.5 194.5t141.5 126.5t189 44q65 0 121.5 -18t97.5 -46t61 -58q1 -1 1 -3q0 -5 -4.5 -7t-8.5 4q-35 48 -105.5 84t-163.5 36q-98 0 -184 -42.5t-138.5 -123.5t-52.5 -191q0 -111 50 -192.5t133 -124t180 -42.5
q110 0 184 48.5t109.5 120t35.5 138.5q0 16 8 16q9 0 9 -26l-1 -29q-3 -66 -3 -100q0 -49 5 -109q2 -30 2 -37q0 -19 -11 -19q-10 0 -10 19q0 7 2 37q4 48 4 109q0 42 -2 84q-14 -69 -56 -128t-112.5 -95.5t-162.5 -36.5q-100 0 -185 43.5zM272 836h315v-8h-315v8z" />
    <glyph glyph-name="uni1E21" unicode="&#x1e21;" horiz-adv-x="600" 
d="M116 -174q-19 9 -19 21q0 5 4 6.5t9 -1.5q40 -23 76.5 -32.5t76.5 -9.5q83 0 146.5 30t98.5 78t35 100q0 84 -73 84q-41 0 -80 -19.5t-101 -61.5q-59 -40 -96.5 -59t-76.5 -19q-36 0 -58.5 21t-22.5 54q0 40 32.5 75t80 60t90.5 35q-83 10 -125.5 55.5t-42.5 108.5
q0 70 53 117t156 47q74 0 121.5 -21t62.5 -61q0 33 21.5 52t62.5 19q6 0 9.5 -2.5t3.5 -6.5t-3 -6.5t-8 -2.5q-37 0 -57.5 -10.5t-20.5 -38.5q0 -11 3.5 -20t3.5 -13q0 -8 -9 -8q-10 0 -10 12q0 44 -48.5 71.5t-131.5 27.5q-99 0 -150 -44.5t-51 -111.5t50.5 -112.5
t149.5 -45.5q59 0 101.5 17t65 45.5t22.5 61.5q0 10 -5 23v1q0 4 5 4.5t6 -4.5q2 -10 2 -24q0 -35 -23.5 -65.5t-68 -48.5t-105.5 -18q-37 0 -93.5 -23.5t-99 -62t-42.5 -82.5q0 -29 21 -48t53 -19q37 0 74.5 19t91.5 57q62 41 103.5 62t85.5 21q79 0 79 -92q0 -56 -38 -107
t-105.5 -83t-152.5 -32q-76 0 -139 30zM120 636h315v-8h-315v8z" />
    <glyph glyph-name="Wgrave" unicode="&#x1e80;" horiz-adv-x="1185" 
d="M48 681q-3 5 -3 10q0 10 12 10q8 0 13 -12l26 -55q73 -159 148 -306l167 -329l204 339q-150 293 -180 344q-3 6 -3 11q0 7 8 11q7 4 37.5 8t72.5 4q84 0 144.5 -24t60.5 -88q0 -28 -25 -80t-106 -187l5 -9l167 -329q17 28 55 92q137 227 189 315t71.5 130.5t19.5 67.5
q0 53 -50.5 72.5t-131.5 19.5q-48 0 -97 -7l-25 -2q-6 0 -8 2t-2 5q0 5 6 8q9 5 37.5 9.5t74.5 4.5q84 0 144.5 -24t60.5 -88q0 -28 -23.5 -77t-86 -154t-234.5 -387h-1l-174 340l-2 3q-8 -14 -177 -293l-31 -50h-1l-174 340q-119 234 -188 355zM620 346q78 132 102 181.5
t24 76.5q0 92 -182 92q-78 0 -116 -9q45 -92 172 -341zM488 902q0 4 3 7t7 3q6 0 11 -4l187 -131l-2 -3l-197 116q-9 5 -9 12z" />
    <glyph glyph-name="wgrave" unicode="&#x1e81;" horiz-adv-x="916" 
d="M90 396q-30 53 -36 63l-16 28q-3 5 -3 9q0 9 10 9q8 0 13 -12q4 -7 8 -17t9 -20q46 -101 84 -175l143 -281q120 175 172 256l-13 24q-44 86 -76.5 142.5t-35.5 62.5q-2 4 -2 7q0 5 6 8q5 3 34.5 7t61.5 4q121 0 121 -76q0 -24 -21 -67.5t-66 -114.5l130 -253
q150 219 205 308.5t55 127.5q0 36 -33 47t-94 11q-15 0 -57 -3l-21 -1q-9 0 -12 3q-1 1 -1 3q0 5 5 7q18 8 72 8q64 0 106.5 -15.5t42.5 -60.5q0 -40 -60 -137.5t-208 -311.5h-1l-134 260q-48 -73 -176 -260h-1l-149 293q-32 64 -62 117zM468 282l10 -20q43 70 63.5 111
t20.5 63q0 35 -28.5 46.5t-83.5 11.5t-71.5 -5t-18.5 -6q39 -68 108 -201zM353 702q0 4 3 7t7 3q6 0 11 -4l187 -131l-2 -3l-197 116q-9 5 -9 12z" />
    <glyph glyph-name="Wacute" unicode="&#x1e82;" horiz-adv-x="1185" 
d="M48 681q-3 5 -3 10q0 10 12 10q8 0 13 -12l26 -55q73 -159 148 -306l167 -329l204 339q-150 293 -180 344q-3 6 -3 11q0 7 8 11q7 4 37.5 8t72.5 4q84 0 144.5 -24t60.5 -88q0 -28 -25 -80t-106 -187l5 -9l167 -329q17 28 55 92q137 227 189 315t71.5 130.5t19.5 67.5
q0 53 -50.5 72.5t-131.5 19.5q-48 0 -97 -7l-25 -2q-6 0 -8 2t-2 5q0 5 6 8q9 5 37.5 9.5t74.5 4.5q84 0 144.5 -24t60.5 -88q0 -28 -23.5 -77t-86 -154t-234.5 -387h-1l-174 340l-2 3q-8 -14 -177 -293l-31 -50h-1l-174 340q-119 234 -188 355zM620 346q78 132 102 181.5
t24 76.5q0 92 -182 92q-78 0 -116 -9q45 -92 172 -341zM488 777l187 131q5 4 11 4q4 0 7 -2.5t3 -6.5q0 -7 -9 -13l-197 -116z" />
    <glyph glyph-name="wacute" unicode="&#x1e83;" horiz-adv-x="916" 
d="M90 396q-30 53 -36 63l-16 28q-3 5 -3 9q0 9 10 9q8 0 13 -12q4 -7 8 -17t9 -20q46 -101 84 -175l143 -281q120 175 172 256l-13 24q-44 86 -76.5 142.5t-35.5 62.5q-2 4 -2 7q0 5 6 8q5 3 34.5 7t61.5 4q121 0 121 -76q0 -24 -21 -67.5t-66 -114.5l130 -253
q150 219 205 308.5t55 127.5q0 36 -33 47t-94 11q-15 0 -57 -3l-21 -1q-9 0 -12 3q-1 1 -1 3q0 5 5 7q18 8 72 8q64 0 106.5 -15.5t42.5 -60.5q0 -40 -60 -137.5t-208 -311.5h-1l-134 260q-48 -73 -176 -260h-1l-149 293q-32 64 -62 117zM468 282l10 -20q43 70 63.5 111
t20.5 63q0 35 -28.5 46.5t-83.5 11.5t-71.5 -5t-18.5 -6q39 -68 108 -201zM353 577l187 131q5 4 11 4q4 0 7 -2.5t3 -6.5q0 -7 -9 -13l-197 -116z" />
    <glyph glyph-name="Wdieresis" unicode="&#x1e84;" horiz-adv-x="1185" 
d="M48 681q-3 5 -3 10q0 10 12 10q8 0 13 -12l26 -55q73 -159 148 -306l167 -329l204 339q-150 293 -180 344q-3 6 -3 11q0 7 8 11q7 4 37.5 8t72.5 4q84 0 144.5 -24t60.5 -88q0 -28 -25 -80t-106 -187l5 -9l167 -329q17 28 55 92q137 227 189 315t71.5 130.5t19.5 67.5
q0 53 -50.5 72.5t-131.5 19.5q-48 0 -97 -7l-25 -2q-6 0 -8 2t-2 5q0 5 6 8q9 5 37.5 9.5t74.5 4.5q84 0 144.5 -24t60.5 -88q0 -28 -23.5 -77t-86 -154t-234.5 -387h-1l-174 340l-2 3q-8 -14 -177 -293l-31 -50h-1l-174 340q-119 234 -188 355zM620 346q78 132 102 181.5
t24 76.5q0 92 -182 92q-78 0 -116 -9q45 -92 172 -341zM505 824q-7 7 -7 17t7 17t17 7t17 -7t7 -17t-7 -17t-17 -7t-17 7zM647 824q-7 7 -7 17t7 17t17 7t17 -7t7 -17t-7 -17t-17 -7t-17 7z" />
    <glyph glyph-name="wdieresis" unicode="&#x1e85;" horiz-adv-x="916" 
d="M90 396q-30 53 -36 63l-16 28q-3 5 -3 9q0 9 10 9q8 0 13 -12q4 -7 8 -17t9 -20q46 -101 84 -175l143 -281q120 175 172 256l-13 24q-44 86 -76.5 142.5t-35.5 62.5q-2 4 -2 7q0 5 6 8q5 3 34.5 7t61.5 4q121 0 121 -76q0 -24 -21 -67.5t-66 -114.5l130 -253
q150 219 205 308.5t55 127.5q0 36 -33 47t-94 11q-15 0 -57 -3l-21 -1q-9 0 -12 3q-1 1 -1 3q0 5 5 7q18 8 72 8q64 0 106.5 -15.5t42.5 -60.5q0 -40 -60 -137.5t-208 -311.5h-1l-134 260q-48 -73 -176 -260h-1l-149 293q-32 64 -62 117zM468 282l10 -20q43 70 63.5 111
t20.5 63q0 35 -28.5 46.5t-83.5 11.5t-71.5 -5t-18.5 -6q39 -68 108 -201zM370 624q-7 7 -7 17t7 17t17 7t17 -7t7 -17t-7 -17t-17 -7t-17 7zM512 624q-7 7 -7 17t7 17t17 7t17 -7t7 -17t-7 -17t-17 -7t-17 7z" />
    <glyph glyph-name="uni1E9E" unicode="&#x1e9e;" horiz-adv-x="685" 
d="M196 2q-62 18 -104 45.5t-59 54.5q-3 5 -3 8q0 5 3 8t7 3q7 0 14 -10q16 -26 55.5 -54t97 -46.5t125.5 -18.5q73 0 139.5 22.5t108.5 68.5t42 113q0 92 -78.5 139t-215.5 47q-22 0 -33 -0.5t-19 -0.5q-9 0 -15 3.5t-6 7.5q0 5 5 10l291 290h-482v-224q0 -93 5 -203l2 -46
q0 -19 -11 -19q-10 0 -10 19l1 46q5 110 5 203q0 114 -3 225q0 9 8 9q5 0 16 -1t26 -1h462l-299 -298q0 -6 17.5 -9t44.5 -3q134 0 215.5 -49.5t81.5 -144.5q0 -69 -43 -117t-111.5 -71.5t-146.5 -23.5q-71 0 -133 18z" />
    <glyph glyph-name="uni1EA0" unicode="&#x1ea0;" horiz-adv-x="820" 
d="M108.5 10q-25.5 18 -42 49t-16.5 66q0 36 19 67t57.5 49.5t92.5 18.5q76 0 200 -52.5t344 -200.5q-23 48 -196 368l-178 328l-90 -156q-62 -106 -112 -212q-7 -17 -18 -17q-7 0 -9.5 5.5t0.5 11.5l26 42q69 110 105 172l97 167h2l185 -340q84 -156 180 -321l21 -37
q4 -8 4 -14q0 -9 -10 -9q-6 0 -13 5q-219 148 -341 200t-197 52q-77 0 -119 -37t-42 -90q0 -43 24.5 -67t60.5 -39q4 -2 12.5 -5.5t12 -6t3.5 -5.5q0 -10 -14 -10q-23 0 -48.5 18zM373 -140q-7 7 -7 17t7 17t17 7t17 -7t7 -17t-7 -17t-17 -7t-17 7z" />
    <glyph glyph-name="uni1EA1" unicode="&#x1ea1;" horiz-adv-x="665" 
d="M99 14q-49 30 -49 93q0 48 35 80t121 47l117 20q71 12 110.5 29t55.5 42t16 63q0 62 -37 84.5t-103 22.5h-54q-76 0 -166 -9l-24 -2q-8 0 -8 7q0 22 172 22q86 0 134.5 -10.5t71 -37t22.5 -75.5q0 -43 -18 -70.5t-59 -44.5t-113 -29l-117 -20q-82 -14 -115 -44t-33 -75
q0 -60 47 -87.5t130 -27.5q70 0 132 18t100 51.5t38 77.5q0 19 9 19q4 0 6.5 -3.5t1.5 -11.5q-4 -20 -4 -56t13.5 -56t46.5 -20q23 0 48 5l5 1q9 0 9 -8q0 -7 -11.5 -11t-29.5 -4q-38 0 -57 14.5t-25.5 36.5t-10.5 60q-20 -57 -98 -89t-173 -32q-87 0 -136 30zM318 -140
q-7 7 -7 17t7 17t17 7t17 -7t7 -17t-7 -17t-17 -7t-17 7z" />
    <glyph glyph-name="uni1EA2" unicode="&#x1ea2;" horiz-adv-x="820" 
d="M108.5 10q-25.5 18 -42 49t-16.5 66q0 36 19 67t57.5 49.5t92.5 18.5q76 0 200 -52.5t344 -200.5q-23 48 -196 368l-178 328l-90 -156q-62 -106 -112 -212q-7 -17 -18 -17q-7 0 -9.5 5.5t0.5 11.5l26 42q69 110 105 172l97 167h2l185 -340q84 -156 180 -321l21 -37
q4 -8 4 -14q0 -9 -10 -9q-6 0 -13 5q-219 148 -341 200t-197 52q-77 0 -119 -37t-42 -90q0 -43 24.5 -67t60.5 -39q4 -2 12.5 -5.5t12 -6t3.5 -5.5q0 -10 -14 -10q-23 0 -48.5 18zM368.5 768.5q-7.5 3.5 -7.5 7.5q0 5 8 5q45 0 71.5 14.5t26.5 44.5q0 28 -22 45t-57 17
q-33 0 -53.5 -15.5t-20.5 -44.5q0 -4 -4.5 -4t-4.5 4q0 32 24 50t59 18q37 0 62 -19t25 -52q0 -35 -26 -54.5t-61 -19.5q-12 0 -19.5 3.5z" />
    <glyph glyph-name="uni1EA3" unicode="&#x1ea3;" horiz-adv-x="665" 
d="M99 14q-49 30 -49 93q0 48 35 80t121 47l117 20q71 12 110.5 29t55.5 42t16 63q0 62 -37 84.5t-103 22.5h-54q-76 0 -166 -9l-24 -2q-8 0 -8 7q0 22 172 22q86 0 134.5 -10.5t71 -37t22.5 -75.5q0 -43 -18 -70.5t-59 -44.5t-113 -29l-117 -20q-82 -14 -115 -44t-33 -75
q0 -60 47 -87.5t130 -27.5q70 0 132 18t100 51.5t38 77.5q0 19 9 19q4 0 6.5 -3.5t1.5 -11.5q-4 -20 -4 -56t13.5 -56t46.5 -20q23 0 48 5l5 1q9 0 9 -8q0 -7 -11.5 -11t-29.5 -4q-38 0 -57 14.5t-25.5 36.5t-10.5 60q-20 -57 -98 -89t-173 -32q-87 0 -136 30zM302.5 568.5
q-7.5 3.5 -7.5 7.5q0 5 8 5q45 0 71.5 14.5t26.5 44.5q0 28 -22 45t-57 17q-33 0 -53.5 -15.5t-20.5 -44.5q0 -4 -4.5 -4t-4.5 4q0 32 24 50t59 18q37 0 62 -19t25 -52q0 -35 -26 -54.5t-61 -19.5q-12 0 -19.5 3.5z" />
    <glyph glyph-name="uni1EA4" unicode="&#x1ea4;" horiz-adv-x="820" 
d="M108.5 10q-25.5 18 -42 49t-16.5 66q0 36 19 67t57.5 49.5t92.5 18.5q76 0 200 -52.5t344 -200.5q-23 48 -196 368l-178 328l-90 -156q-62 -106 -112 -212q-7 -17 -18 -17q-7 0 -9.5 5.5t0.5 11.5l26 42q69 110 105 172l97 167h2l185 -340q84 -156 180 -321l21 -37
q4 -8 4 -14q0 -9 -10 -9q-6 0 -13 5q-219 148 -341 200t-197 52q-77 0 -119 -37t-42 -90q0 -43 24.5 -67t60.5 -39q4 -2 12.5 -5.5t12 -6t3.5 -5.5q0 -10 -14 -10q-23 0 -48.5 18zM225.5 766.5q-3.5 3.5 -3.5 7.5q0 5 5 10l31 24q57 42 132 107q58 -54 88 -80.5t45 -40.5
l29 -26l-7 -7l-47 44l-108 101q-68 -59 -115 -109l-26 -25q-9 -9 -16 -9q-4 0 -7.5 3.5zM469 875l187 131q5 4 11 4q4 0 7 -2.5t3 -6.5q0 -7 -9 -13l-197 -116z" />
    <glyph glyph-name="uni1EA5" unicode="&#x1ea5;" horiz-adv-x="665" 
d="M99 14q-49 30 -49 93q0 48 35 80t121 47l117 20q71 12 110.5 29t55.5 42t16 63q0 62 -37 84.5t-103 22.5h-54q-76 0 -166 -9l-24 -2q-8 0 -8 7q0 22 172 22q86 0 134.5 -10.5t71 -37t22.5 -75.5q0 -43 -18 -70.5t-59 -44.5t-113 -29l-117 -20q-82 -14 -115 -44t-33 -75
q0 -60 47 -87.5t130 -27.5q70 0 132 18t100 51.5t38 77.5q0 19 9 19q4 0 6.5 -3.5t1.5 -11.5q-4 -20 -4 -56t13.5 -56t46.5 -20q23 0 48 5l5 1q9 0 9 -8q0 -7 -11.5 -11t-29.5 -4q-38 0 -57 14.5t-25.5 36.5t-10.5 60q-20 -57 -98 -89t-173 -32q-87 0 -136 30zM159.5 566.5
q-3.5 3.5 -3.5 7.5q0 5 5 10l31 24q57 42 132 107q58 -54 88 -80.5t45 -40.5l29 -26l-7 -7l-47 44l-108 101q-68 -59 -115 -109l-26 -25q-9 -9 -16 -9q-4 0 -7.5 3.5zM403 675l187 131q5 4 11 4q4 0 7 -2.5t3 -6.5q0 -7 -9 -13l-197 -116z" />
    <glyph glyph-name="uni1EA6" unicode="&#x1ea6;" horiz-adv-x="820" 
d="M108.5 10q-25.5 18 -42 49t-16.5 66q0 36 19 67t57.5 49.5t92.5 18.5q76 0 200 -52.5t344 -200.5q-23 48 -196 368l-178 328l-90 -156q-62 -106 -112 -212q-7 -17 -18 -17q-7 0 -9.5 5.5t0.5 11.5l26 42q69 110 105 172l97 167h2l185 -340q84 -156 180 -321l21 -37
q4 -8 4 -14q0 -9 -10 -9q-6 0 -13 5q-219 148 -341 200t-197 52q-77 0 -119 -37t-42 -90q0 -43 24.5 -67t60.5 -39q4 -2 12.5 -5.5t12 -6t3.5 -5.5q0 -10 -14 -10q-23 0 -48.5 18zM225.5 766.5q-3.5 3.5 -3.5 7.5q0 5 5 10l31 24q57 42 132 107q58 -54 88 -80.5t45 -40.5
l29 -26l-7 -7l-47 44l-108 101q-68 -59 -115 -109l-26 -25q-9 -9 -16 -9q-4 0 -7.5 3.5zM371 1015q0 4 3 6.5t7 2.5q6 0 12 -6l164 -159l-2 -2l-176 145q-8 6 -8 13z" />
    <glyph glyph-name="uni1EA7" unicode="&#x1ea7;" horiz-adv-x="665" 
d="M99 14q-49 30 -49 93q0 48 35 80t121 47l117 20q71 12 110.5 29t55.5 42t16 63q0 62 -37 84.5t-103 22.5h-54q-76 0 -166 -9l-24 -2q-8 0 -8 7q0 22 172 22q86 0 134.5 -10.5t71 -37t22.5 -75.5q0 -43 -18 -70.5t-59 -44.5t-113 -29l-117 -20q-82 -14 -115 -44t-33 -75
q0 -60 47 -87.5t130 -27.5q70 0 132 18t100 51.5t38 77.5q0 19 9 19q4 0 6.5 -3.5t1.5 -11.5q-4 -20 -4 -56t13.5 -56t46.5 -20q23 0 48 5l5 1q9 0 9 -8q0 -7 -11.5 -11t-29.5 -4q-38 0 -57 14.5t-25.5 36.5t-10.5 60q-20 -57 -98 -89t-173 -32q-87 0 -136 30zM159.5 566.5
q-3.5 3.5 -3.5 7.5q0 5 5 10l31 24q57 42 132 107q58 -54 88 -80.5t45 -40.5l29 -26l-7 -7l-47 44l-108 101q-68 -59 -115 -109l-26 -25q-9 -9 -16 -9q-4 0 -7.5 3.5zM305 815q0 4 3 6.5t7 2.5q6 0 12 -6l164 -159l-2 -2l-176 145q-8 6 -8 13z" />
    <glyph glyph-name="uni1EA8" unicode="&#x1ea8;" horiz-adv-x="820" 
d="M108.5 10q-25.5 18 -42 49t-16.5 66q0 36 19 67t57.5 49.5t92.5 18.5q76 0 200 -52.5t344 -200.5q-23 48 -196 368l-178 328l-90 -156q-62 -106 -112 -212q-7 -17 -18 -17q-7 0 -9.5 5.5t0.5 11.5l26 42q69 110 105 172l97 167h2l185 -340q84 -156 180 -321l21 -37
q4 -8 4 -14q0 -9 -10 -9q-6 0 -13 5q-219 148 -341 200t-197 52q-77 0 -119 -37t-42 -90q0 -43 24.5 -67t60.5 -39q4 -2 12.5 -5.5t12 -6t3.5 -5.5q0 -10 -14 -10q-23 0 -48.5 18zM230.5 766.5q-3.5 3.5 -3.5 7.5q0 5 5 10l31 24q57 42 132 107q58 -54 88 -80.5t45 -40.5
l29 -26l-7 -7l-47 44l-108 101q-68 -59 -115 -109l-26 -25q-9 -9 -16 -9q-4 0 -7.5 3.5zM505.5 892.5q-7.5 3.5 -7.5 7.5q0 5 8 5q45 0 71.5 14.5t26.5 44.5q0 28 -22 45t-57 17q-33 0 -53.5 -15.5t-20.5 -44.5q0 -4 -4.5 -4t-4.5 4q0 32 24 50t59 18q37 0 62 -19t25 -52
q0 -35 -26 -54.5t-61 -19.5q-12 0 -19.5 3.5z" />
    <glyph glyph-name="uni1EA9" unicode="&#x1ea9;" horiz-adv-x="665" 
d="M99 14q-49 30 -49 93q0 48 35 80t121 47l117 20q71 12 110.5 29t55.5 42t16 63q0 62 -37 84.5t-103 22.5h-54q-76 0 -166 -9l-24 -2q-8 0 -8 7q0 22 172 22q86 0 134.5 -10.5t71 -37t22.5 -75.5q0 -43 -18 -70.5t-59 -44.5t-113 -29l-117 -20q-82 -14 -115 -44t-33 -75
q0 -60 47 -87.5t130 -27.5q70 0 132 18t100 51.5t38 77.5q0 19 9 19q4 0 6.5 -3.5t1.5 -11.5q-4 -20 -4 -56t13.5 -56t46.5 -20q23 0 48 5l5 1q9 0 9 -8q0 -7 -11.5 -11t-29.5 -4q-38 0 -57 14.5t-25.5 36.5t-10.5 60q-20 -57 -98 -89t-173 -32q-87 0 -136 30zM164.5 566.5
q-3.5 3.5 -3.5 7.5q0 5 5 10l31 24q57 42 132 107q58 -54 88 -80.5t45 -40.5l29 -26l-7 -7l-47 44l-108 101q-68 -59 -115 -109l-26 -25q-9 -9 -16 -9q-4 0 -7.5 3.5zM439.5 692.5q-7.5 3.5 -7.5 7.5q0 5 8 5q45 0 71.5 14.5t26.5 44.5q0 28 -22 45t-57 17
q-33 0 -53.5 -15.5t-20.5 -44.5q0 -4 -4.5 -4t-4.5 4q0 32 24 50t59 18q37 0 62 -19t25 -52q0 -35 -26 -54.5t-61 -19.5q-12 0 -19.5 3.5z" />
    <glyph glyph-name="uni1EAA" unicode="&#x1eaa;" horiz-adv-x="820" 
d="M108.5 10q-25.5 18 -42 49t-16.5 66q0 36 19 67t57.5 49.5t92.5 18.5q76 0 200 -52.5t344 -200.5q-23 48 -196 368l-178 328l-90 -156q-62 -106 -112 -212q-7 -17 -18 -17q-7 0 -9.5 5.5t0.5 11.5l26 42q69 110 105 172l97 167h2l185 -340q84 -156 180 -321l21 -37
q4 -8 4 -14q0 -9 -10 -9q-6 0 -13 5q-219 148 -341 200t-197 52q-77 0 -119 -37t-42 -90q0 -43 24.5 -67t60.5 -39q4 -2 12.5 -5.5t12 -6t3.5 -5.5q0 -10 -14 -10q-23 0 -48.5 18zM419.5 958q-12.5 6 -30.5 19q-17 12 -28 18t-26 6q-22 0 -33 -8.5t-19 -20.5t-12 -12
q-5 0 -5 5q0 8 7 18.5t21.5 18.5t35.5 8q18 0 30.5 -6t30.5 -19q17 -12 28 -18t26 -6q22 0 33 8.5t19 20.5t12 12q5 0 5 -5q0 -8 -7 -18.5t-21.5 -18.5t-35.5 -8q-18 0 -30.5 6zM260 808q57 42 132 107q58 -54 88 -80.5t45 -40.5l29 -26l-7 -7l-47 44l-108 101
q-68 -59 -115 -109l-26 -25q-9 -9 -16 -9q-4 0 -7.5 3.5t-3.5 7.5q0 5 5 10z" />
    <glyph glyph-name="uni1EAB" unicode="&#x1eab;" horiz-adv-x="665" 
d="M99 14q-49 30 -49 93q0 48 35 80t121 47l117 20q71 12 110.5 29t55.5 42t16 63q0 62 -37 84.5t-103 22.5h-54q-76 0 -166 -9l-24 -2q-8 0 -8 7q0 22 172 22q86 0 134.5 -10.5t71 -37t22.5 -75.5q0 -43 -18 -70.5t-59 -44.5t-113 -29l-117 -20q-82 -14 -115 -44t-33 -75
q0 -60 47 -87.5t130 -27.5q70 0 132 18t100 51.5t38 77.5q0 19 9 19q4 0 6.5 -3.5t1.5 -11.5q-4 -20 -4 -56t13.5 -56t46.5 -20q23 0 48 5l5 1q9 0 9 -8q0 -7 -11.5 -11t-29.5 -4q-38 0 -57 14.5t-25.5 36.5t-10.5 60q-20 -57 -98 -89t-173 -32q-87 0 -136 30zM353.5 758
q-12.5 6 -30.5 19q-17 12 -28 18t-26 6q-22 0 -33 -8.5t-19 -20.5t-12 -12q-5 0 -5 5q0 8 7 18.5t21.5 18.5t35.5 8q18 0 30.5 -6t30.5 -19q17 -12 28 -18t26 -6q22 0 33 8.5t19 20.5t12 12q5 0 5 -5q0 -8 -7 -18.5t-21.5 -18.5t-35.5 -8q-18 0 -30.5 6zM194 608
q57 42 132 107q58 -54 88 -80.5t45 -40.5l29 -26l-7 -7l-47 44l-108 101q-68 -59 -115 -109l-26 -25q-9 -9 -16 -9q-4 0 -7.5 3.5t-3.5 7.5q0 5 5 10z" />
    <glyph glyph-name="uni1EAC" unicode="&#x1eac;" horiz-adv-x="820" 
d="M108.5 10q-25.5 18 -42 49t-16.5 66q0 36 19 67t57.5 49.5t92.5 18.5q76 0 200 -52.5t344 -200.5q-23 48 -196 368l-178 328l-90 -156q-62 -106 -112 -212q-7 -17 -18 -17q-7 0 -9.5 5.5t0.5 11.5l26 42q69 110 105 172l97 167h2l185 -340q84 -156 180 -321l21 -37
q4 -8 4 -14q0 -9 -10 -9q-6 0 -13 5q-219 148 -341 200t-197 52q-77 0 -119 -37t-42 -90q0 -43 24.5 -67t60.5 -39q4 -2 12.5 -5.5t12 -6t3.5 -5.5q0 -10 -14 -10q-23 0 -48.5 18zM373 -140q-7 7 -7 17t7 17t17 7t17 -7t7 -17t-7 -17t-17 -7t-17 7zM228.5 766.5
q-3.5 3.5 -3.5 7.5q0 5 5 10l31 24q57 42 132 107q58 -54 88 -80.5t45 -40.5l29 -26l-7 -7l-47 44l-108 101q-68 -59 -115 -109l-26 -25q-9 -9 -16 -9q-4 0 -7.5 3.5z" />
    <glyph glyph-name="uni1EAD" unicode="&#x1ead;" horiz-adv-x="665" 
d="M99 14q-49 30 -49 93q0 48 35 80t121 47l117 20q71 12 110.5 29t55.5 42t16 63q0 62 -37 84.5t-103 22.5h-54q-76 0 -166 -9l-24 -2q-8 0 -8 7q0 22 172 22q86 0 134.5 -10.5t71 -37t22.5 -75.5q0 -43 -18 -70.5t-59 -44.5t-113 -29l-117 -20q-82 -14 -115 -44t-33 -75
q0 -60 47 -87.5t130 -27.5q70 0 132 18t100 51.5t38 77.5q0 19 9 19q4 0 6.5 -3.5t1.5 -11.5q-4 -20 -4 -56t13.5 -56t46.5 -20q23 0 48 5l5 1q9 0 9 -8q0 -7 -11.5 -11t-29.5 -4q-38 0 -57 14.5t-25.5 36.5t-10.5 60q-20 -57 -98 -89t-173 -32q-87 0 -136 30zM318 -140
q-7 7 -7 17t7 17t17 7t17 -7t7 -17t-7 -17t-17 -7t-17 7zM162.5 566.5q-3.5 3.5 -3.5 7.5q0 5 5 10l31 24q57 42 132 107q58 -54 88 -80.5t45 -40.5l29 -26l-7 -7l-47 44l-108 101q-68 -59 -115 -109l-26 -25q-9 -9 -16 -9q-4 0 -7.5 3.5z" />
    <glyph glyph-name="uni1EAE" unicode="&#x1eae;" horiz-adv-x="820" 
d="M108.5 10q-25.5 18 -42 49t-16.5 66q0 36 19 67t57.5 49.5t92.5 18.5q76 0 200 -52.5t344 -200.5q-23 48 -196 368l-178 328l-90 -156q-62 -106 -112 -212q-7 -17 -18 -17q-7 0 -9.5 5.5t0.5 11.5l26 42q69 110 105 172l97 167h2l185 -340q84 -156 180 -321l21 -37
q4 -8 4 -14q0 -9 -10 -9q-6 0 -13 5q-219 148 -341 200t-197 52q-77 0 -119 -37t-42 -90q0 -43 24.5 -67t60.5 -39q4 -2 12.5 -5.5t12 -6t3.5 -5.5q0 -10 -14 -10q-23 0 -48.5 18zM326.5 790.5q-28.5 14.5 -42.5 37.5t-14 48q0 13 3.5 20.5t7.5 7.5q5 0 5 -8q0 -50 26.5 -81
t81.5 -31q52 0 80 25.5t28 64.5q0 18 -5 31h8q5 -13 5 -31q0 -42 -30 -70t-86 -28q-39 0 -67.5 14.5zM322 876l187 131q5 4 11 4q4 0 7 -2.5t3 -6.5q0 -7 -9 -13l-197 -116z" />
    <glyph glyph-name="uni1EAF" unicode="&#x1eaf;" horiz-adv-x="665" 
d="M99 14q-49 30 -49 93q0 48 35 80t121 47l117 20q71 12 110.5 29t55.5 42t16 63q0 62 -37 84.5t-103 22.5h-54q-76 0 -166 -9l-24 -2q-8 0 -8 7q0 22 172 22q86 0 134.5 -10.5t71 -37t22.5 -75.5q0 -43 -18 -70.5t-59 -44.5t-113 -29l-117 -20q-82 -14 -115 -44t-33 -75
q0 -60 47 -87.5t130 -27.5q70 0 132 18t100 51.5t38 77.5q0 19 9 19q4 0 6.5 -3.5t1.5 -11.5q-4 -20 -4 -56t13.5 -56t46.5 -20q23 0 48 5l5 1q9 0 9 -8q0 -7 -11.5 -11t-29.5 -4q-38 0 -57 14.5t-25.5 36.5t-10.5 60q-20 -57 -98 -89t-173 -32q-87 0 -136 30zM260.5 590.5
q-28.5 14.5 -42.5 37.5t-14 48q0 13 3.5 20.5t7.5 7.5q5 0 5 -8q0 -50 26.5 -81t81.5 -31q52 0 80 25.5t28 64.5q0 18 -5 31h8q5 -13 5 -31q0 -42 -30 -70t-86 -28q-39 0 -67.5 14.5zM256 676l187 131q5 4 11 4q4 0 7 -2.5t3 -6.5q0 -7 -9 -13l-197 -116z" />
    <glyph glyph-name="uni1EB0" unicode="&#x1eb0;" horiz-adv-x="820" 
d="M108.5 10q-25.5 18 -42 49t-16.5 66q0 36 19 67t57.5 49.5t92.5 18.5q76 0 200 -52.5t344 -200.5q-23 48 -196 368l-178 328l-90 -156q-62 -106 -112 -212q-7 -17 -18 -17q-7 0 -9.5 5.5t0.5 11.5l26 42q69 110 105 172l97 167h2l185 -340q84 -156 180 -321l21 -37
q4 -8 4 -14q0 -9 -10 -9q-6 0 -13 5q-219 148 -341 200t-197 52q-77 0 -119 -37t-42 -90q0 -43 24.5 -67t60.5 -39q4 -2 12.5 -5.5t12 -6t3.5 -5.5q0 -10 -14 -10q-23 0 -48.5 18zM326.5 790.5q-28.5 14.5 -42.5 37.5t-14 48q0 13 3.5 20.5t7.5 7.5q5 0 5 -8q0 -50 26.5 -81
t81.5 -31q52 0 80 25.5t28 64.5q0 18 -5 31h8q5 -13 5 -31q0 -42 -30 -70t-86 -28q-39 0 -67.5 14.5zM280 1001q0 4 3 7t7 3q6 0 11 -4l187 -131l-2 -3l-197 116q-9 5 -9 12z" />
    <glyph glyph-name="uni1EB1" unicode="&#x1eb1;" horiz-adv-x="665" 
d="M99 14q-49 30 -49 93q0 48 35 80t121 47l117 20q71 12 110.5 29t55.5 42t16 63q0 62 -37 84.5t-103 22.5h-54q-76 0 -166 -9l-24 -2q-8 0 -8 7q0 22 172 22q86 0 134.5 -10.5t71 -37t22.5 -75.5q0 -43 -18 -70.5t-59 -44.5t-113 -29l-117 -20q-82 -14 -115 -44t-33 -75
q0 -60 47 -87.5t130 -27.5q70 0 132 18t100 51.5t38 77.5q0 19 9 19q4 0 6.5 -3.5t1.5 -11.5q-4 -20 -4 -56t13.5 -56t46.5 -20q23 0 48 5l5 1q9 0 9 -8q0 -7 -11.5 -11t-29.5 -4q-38 0 -57 14.5t-25.5 36.5t-10.5 60q-20 -57 -98 -89t-173 -32q-87 0 -136 30zM260.5 590.5
q-28.5 14.5 -42.5 37.5t-14 48q0 13 3.5 20.5t7.5 7.5q5 0 5 -8q0 -50 26.5 -81t81.5 -31q52 0 80 25.5t28 64.5q0 18 -5 31h8q5 -13 5 -31q0 -42 -30 -70t-86 -28q-39 0 -67.5 14.5zM214 801q0 4 3 7t7 3q6 0 11 -4l187 -131l-2 -3l-197 116q-9 5 -9 12z" />
    <glyph glyph-name="uni1EB2" unicode="&#x1eb2;" horiz-adv-x="820" 
d="M108.5 10q-25.5 18 -42 49t-16.5 66q0 36 19 67t57.5 49.5t92.5 18.5q76 0 200 -52.5t344 -200.5q-23 48 -196 368l-178 328l-90 -156q-62 -106 -112 -212q-7 -17 -18 -17q-7 0 -9.5 5.5t0.5 11.5l26 42q69 110 105 172l97 167h2l185 -340q84 -156 180 -321l21 -37
q4 -8 4 -14q0 -9 -10 -9q-6 0 -13 5q-219 148 -341 200t-197 52q-77 0 -119 -37t-42 -90q0 -43 24.5 -67t60.5 -39q4 -2 12.5 -5.5t12 -6t3.5 -5.5q0 -10 -14 -10q-23 0 -48.5 18zM326.5 790.5q-28.5 14.5 -42.5 37.5t-14 48q0 13 3.5 20.5t7.5 7.5q5 0 5 -8q0 -50 26.5 -81
t81.5 -31q52 0 80 25.5t28 64.5q0 18 -5 31h8q5 -13 5 -31q0 -42 -30 -70t-86 -28q-39 0 -67.5 14.5zM363.5 882.5q-7.5 3.5 -7.5 7.5q0 5 8 5q45 0 71.5 14.5t26.5 44.5q0 28 -22 45t-57 17q-33 0 -53.5 -15.5t-20.5 -44.5q0 -4 -4.5 -4t-4.5 4q0 32 24 50t59 18
q37 0 62 -19t25 -52q0 -35 -26 -54.5t-61 -19.5q-12 0 -19.5 3.5z" />
    <glyph glyph-name="uni1EB3" unicode="&#x1eb3;" horiz-adv-x="665" 
d="M99 14q-49 30 -49 93q0 48 35 80t121 47l117 20q71 12 110.5 29t55.5 42t16 63q0 62 -37 84.5t-103 22.5h-54q-76 0 -166 -9l-24 -2q-8 0 -8 7q0 22 172 22q86 0 134.5 -10.5t71 -37t22.5 -75.5q0 -43 -18 -70.5t-59 -44.5t-113 -29l-117 -20q-82 -14 -115 -44t-33 -75
q0 -60 47 -87.5t130 -27.5q70 0 132 18t100 51.5t38 77.5q0 19 9 19q4 0 6.5 -3.5t1.5 -11.5q-4 -20 -4 -56t13.5 -56t46.5 -20q23 0 48 5l5 1q9 0 9 -8q0 -7 -11.5 -11t-29.5 -4q-38 0 -57 14.5t-25.5 36.5t-10.5 60q-20 -57 -98 -89t-173 -32q-87 0 -136 30zM260.5 590.5
q-28.5 14.5 -42.5 37.5t-14 48q0 13 3.5 20.5t7.5 7.5q5 0 5 -8q0 -50 26.5 -81t81.5 -31q52 0 80 25.5t28 64.5q0 18 -5 31h8q5 -13 5 -31q0 -42 -30 -70t-86 -28q-39 0 -67.5 14.5zM297.5 682.5q-7.5 3.5 -7.5 7.5q0 5 8 5q45 0 71.5 14.5t26.5 44.5q0 28 -22 45t-57 17
q-33 0 -53.5 -15.5t-20.5 -44.5q0 -4 -4.5 -4t-4.5 4q0 32 24 50t59 18q37 0 62 -19t25 -52q0 -35 -26 -54.5t-61 -19.5q-12 0 -19.5 3.5z" />
    <glyph glyph-name="uni1EB4" unicode="&#x1eb4;" horiz-adv-x="820" 
d="M108.5 10q-25.5 18 -42 49t-16.5 66q0 36 19 67t57.5 49.5t92.5 18.5q76 0 200 -52.5t344 -200.5q-23 48 -196 368l-178 328l-90 -156q-62 -106 -112 -212q-7 -17 -18 -17q-7 0 -9.5 5.5t0.5 11.5l26 42q69 110 105 172l97 167h2l185 -340q84 -156 180 -321l21 -37
q4 -8 4 -14q0 -9 -10 -9q-6 0 -13 5q-219 148 -341 200t-197 52q-77 0 -119 -37t-42 -90q0 -43 24.5 -67t60.5 -39q4 -2 12.5 -5.5t12 -6t3.5 -5.5q0 -10 -14 -10q-23 0 -48.5 18zM419.5 958q-12.5 6 -30.5 19q-17 12 -28 18t-26 6q-22 0 -33 -8.5t-19 -20.5t-12 -12
q-5 0 -5 5q0 8 7 18.5t21.5 18.5t35.5 8q18 0 30.5 -6t30.5 -19q17 -12 28 -18t26 -6q22 0 33 8.5t19 20.5t12 12q5 0 5 -5q0 -8 -7 -18.5t-21.5 -18.5t-35.5 -8q-18 0 -30.5 6zM273.5 896.5q3.5 7.5 7.5 7.5q5 0 5 -8q0 -50 26.5 -81t81.5 -31q52 0 80 25.5t28 64.5
q0 18 -5 31h8q5 -13 5 -31q0 -42 -30 -70t-86 -28q-39 0 -67.5 14.5t-42.5 37.5t-14 48q0 13 3.5 20.5z" />
    <glyph glyph-name="uni1EB5" unicode="&#x1eb5;" horiz-adv-x="665" 
d="M99 14q-49 30 -49 93q0 48 35 80t121 47l117 20q71 12 110.5 29t55.5 42t16 63q0 62 -37 84.5t-103 22.5h-54q-76 0 -166 -9l-24 -2q-8 0 -8 7q0 22 172 22q86 0 134.5 -10.5t71 -37t22.5 -75.5q0 -43 -18 -70.5t-59 -44.5t-113 -29l-117 -20q-82 -14 -115 -44t-33 -75
q0 -60 47 -87.5t130 -27.5q70 0 132 18t100 51.5t38 77.5q0 19 9 19q4 0 6.5 -3.5t1.5 -11.5q-4 -20 -4 -56t13.5 -56t46.5 -20q23 0 48 5l5 1q9 0 9 -8q0 -7 -11.5 -11t-29.5 -4q-38 0 -57 14.5t-25.5 36.5t-10.5 60q-20 -57 -98 -89t-173 -32q-87 0 -136 30zM353.5 758
q-12.5 6 -30.5 19q-17 12 -28 18t-26 6q-22 0 -33 -8.5t-19 -20.5t-12 -12q-5 0 -5 5q0 8 7 18.5t21.5 18.5t35.5 8q18 0 30.5 -6t30.5 -19q17 -12 28 -18t26 -6q22 0 33 8.5t19 20.5t12 12q5 0 5 -5q0 -8 -7 -18.5t-21.5 -18.5t-35.5 -8q-18 0 -30.5 6zM207.5 696.5
q3.5 7.5 7.5 7.5q5 0 5 -8q0 -50 26.5 -81t81.5 -31q52 0 80 25.5t28 64.5q0 18 -5 31h8q5 -13 5 -31q0 -42 -30 -70t-86 -28q-39 0 -67.5 14.5t-42.5 37.5t-14 48q0 13 3.5 20.5z" />
    <glyph glyph-name="uni1EB6" unicode="&#x1eb6;" horiz-adv-x="820" 
d="M108.5 10q-25.5 18 -42 49t-16.5 66q0 36 19 67t57.5 49.5t92.5 18.5q76 0 200 -52.5t344 -200.5q-23 48 -196 368l-178 328l-90 -156q-62 -106 -112 -212q-7 -17 -18 -17q-7 0 -9.5 5.5t0.5 11.5l26 42q69 110 105 172l97 167h2l185 -340q84 -156 180 -321l21 -37
q4 -8 4 -14q0 -9 -10 -9q-6 0 -13 5q-219 148 -341 200t-197 52q-77 0 -119 -37t-42 -90q0 -43 24.5 -67t60.5 -39q4 -2 12.5 -5.5t12 -6t3.5 -5.5q0 -10 -14 -10q-23 0 -48.5 18zM373 -140q-7 7 -7 17t7 17t17 7t17 -7t7 -17t-7 -17t-17 -7t-17 7zM326.5 790.5
q-28.5 14.5 -42.5 37.5t-14 48q0 13 3.5 20.5t7.5 7.5q5 0 5 -8q0 -50 26.5 -81t81.5 -31q52 0 80 25.5t28 64.5q0 18 -5 31h8q5 -13 5 -31q0 -42 -30 -70t-86 -28q-39 0 -67.5 14.5z" />
    <glyph glyph-name="uni1EB7" unicode="&#x1eb7;" horiz-adv-x="665" 
d="M99 14q-49 30 -49 93q0 48 35 80t121 47l117 20q71 12 110.5 29t55.5 42t16 63q0 62 -37 84.5t-103 22.5h-54q-76 0 -166 -9l-24 -2q-8 0 -8 7q0 22 172 22q86 0 134.5 -10.5t71 -37t22.5 -75.5q0 -43 -18 -70.5t-59 -44.5t-113 -29l-117 -20q-82 -14 -115 -44t-33 -75
q0 -60 47 -87.5t130 -27.5q70 0 132 18t100 51.5t38 77.5q0 19 9 19q4 0 6.5 -3.5t1.5 -11.5q-4 -20 -4 -56t13.5 -56t46.5 -20q23 0 48 5l5 1q9 0 9 -8q0 -7 -11.5 -11t-29.5 -4q-38 0 -57 14.5t-25.5 36.5t-10.5 60q-20 -57 -98 -89t-173 -32q-87 0 -136 30zM318 -140
q-7 7 -7 17t7 17t17 7t17 -7t7 -17t-7 -17t-17 -7t-17 7zM260.5 590.5q-28.5 14.5 -42.5 37.5t-14 48q0 13 3.5 20.5t7.5 7.5q5 0 5 -8q0 -50 26.5 -81t81.5 -31q52 0 80 25.5t28 64.5q0 18 -5 31h8q5 -13 5 -31q0 -42 -30 -70t-86 -28q-39 0 -67.5 14.5z" />
    <glyph glyph-name="uni1EB8" unicode="&#x1eb8;" horiz-adv-x="635" 
d="M362 -27.5q-34 3.5 -89 10.5q-67 8 -115.5 12.5t-111.5 4.5q-7 0 -17 -2t-15 -2q-14 0 -14 9q0 10 13 10q29 0 37 11.5t8 49.5v269q0 27 20 32q-8 1 -14 9t-6 23v56q0 115 -3 229q0 8 8 8q5 0 16 -1t26 -1h187q117 0 209 2h47q19 0 19 -11q0 -10 -15 -10l-40 2
q-101 9 -220 9h-226v-282q0 -15 7 -22.5t19 -7.5h78q95 0 247 5l59 1q11 0 15 -2t4 -7q0 -10 -19 -10l-59 1q-122 4 -247 4h-78q-26 0 -26 -29v-270q0 -29 -7.5 -45t-26.5 -20q67 0 125 -5t128 -14q10 -1 57 -6.5t85 -5.5q67 0 100 13.5t53 36.5q7 8 12 8q8 0 8 -9t-7 -17
q-35 -40 -157 -40q-40 0 -74 3.5zM303 -140q-7 7 -7 17t7 17t17 7t17 -7t7 -17t-7 -17t-17 -7t-17 7z" />
    </font>
</defs>
</svg>
