<?xml version="1.0" standalone="no"?>
<!DOCTYPE svg PUBLIC "-//W3C//DTD SVG 1.1//EN" "http://www.w3.org/Graphics/SVG/1.1/DTD/svg11.dtd" >
<svg xmlns="http://www.w3.org/2000/svg" xmlns:xlink="http://www.w3.org/1999/xlink" version="1.1">
<metadata>
Created by FontForge 20170731 at Tue Jul  5 20:14:03 2022
 By Aleksey,,,
Copyright (c) Parity Technologies. All rights reserved.
</metadata>
<defs>
<font id="Unbounded-Light" horiz-adv-x="0" >
  <font-face 
    font-family="Unbounded Light"
    font-weight="300"
    font-stretch="normal"
    units-per-em="2000"
    panose-1="2 11 2 5 4 1 2 2 1 3"
    ascent="1610"
    descent="-390"
    x-height="1120"
    cap-height="1500"
    bbox="-1528 -524 3216 2246"
    underline-thickness="50"
    underline-position="-150"
    unicode-range="U+0020-FB02"
  />
<missing-glyph horiz-adv-x="1620" 
d="M1426 1500v-1500h-1232v1500h1232zM306 1400v-1300h1008v1300h-1008z" />
    <glyph glyph-name="fi" unicode="fi" horiz-adv-x="1436" 
d="M386 1060h572v-98h-572v-962h-108v962h-252v98h252v64q0 197 102 318.5t322 121.5q75 0 134.5 -14t117.5 -40v-106q-55 33 -113.5 47.5t-132.5 14.5q-163 0 -242.5 -73t-79.5 -241v-92zM1293 1477.5q29 -28.5 29 -69.5t-29 -69.5t-71 -28.5t-71 28.5t-29 69.5t29 69.5
t71 28.5t71 -28.5zM1168 0v1120l54 -8l54 8v-1120h-108z" />
    <glyph glyph-name="fl" unicode="fl" horiz-adv-x="1436" 
d="M386 1060h572v-98h-572v-962h-108v962h-252v98h252v64q0 197 102 318.5t322 121.5q75 0 134.5 -14t117.5 -40v-106q-55 33 -113.5 47.5t-132.5 14.5q-163 0 -242.5 -73t-79.5 -241v-92zM1168 0v1540h108v-1540h-108z" />
    <glyph glyph-name="f_f" unicode="ff" horiz-adv-x="1784" 
d="M1774 1060v-98h-572v-962h-108v962h-708v-962h-108v962h-252v98h252v64q0 197 102 318.5t322 121.5q75 0 134.5 -14t117.5 -40v-106q-55 33 -113.5 47.5t-132.5 14.5q-163 0 -242.5 -73t-79.5 -241v-92h708v64q0 197 102 318.5t322 121.5q75 0 134.5 -14t117.5 -40v-106
q-55 33 -113.5 47.5t-132.5 14.5q-163 0 -242.5 -73t-79.5 -241v-92h572z" />
    <glyph glyph-name="f_f_i" unicode="ffi" horiz-adv-x="2222" 
d="M1774 1060v-98h-572v-962h-108v962h-708v-962h-108v962h-252v98h252v64q0 197 102 318.5t322 121.5q75 0 134.5 -14t117.5 -40v-106q-55 33 -113.5 47.5t-132.5 14.5q-163 0 -242.5 -73t-79.5 -241v-92h708v64q0 197 102 318.5t322 121.5q75 0 134.5 -14t117.5 -40v-106
q-55 33 -113.5 47.5t-132.5 14.5q-163 0 -242.5 -73t-79.5 -241v-92h572zM1954 0v1120l54 -8l54 8v-1120h-108zM1937 1338.5q-29 28.5 -29 69.5t29 69.5t71 28.5t71 -28.5t29 -69.5t-29 -69.5t-71 -28.5t-71 28.5z" />
    <glyph glyph-name="f_f_l" unicode="ffl" horiz-adv-x="2212" 
d="M1774 1060v-98h-572v-962h-108v962h-708v-962h-108v962h-252v98h252v64q0 197 102 318.5t322 121.5q75 0 134.5 -14t117.5 -40v-106q-55 33 -113.5 47.5t-132.5 14.5q-163 0 -242.5 -73t-79.5 -241v-92h708v64q0 197 102 318.5t322 121.5q75 0 134.5 -14t117.5 -40v-106
q-55 33 -113.5 47.5t-132.5 14.5q-163 0 -242.5 -73t-79.5 -241v-92h572zM1944 0v1540h108v-1540h-108z" />
    <glyph glyph-name="f_t.liga" unicode="ft" horiz-adv-x="1846" 
d="M1794 76q-49 -38 -143 -68t-187 -30q-198 0 -286 102t-88 274v608h-704v-962h-108v962h-252v98h252v64q0 197 102 318.5t322 121.5q75 0 134.5 -14t117.5 -40v-106q-55 33 -113.5 47.5t-132.5 14.5q-163 0 -242.5 -73t-79.5 -241v-92h704l40 286h68v-286h572v-98h-572
v-590q0 -159 71 -227.5t219 -68.5q90 0 162 25.5t140 78.5z" />
    <glyph glyph-name="t_t.liga" unicode="tt" horiz-adv-x="1868" 
d="M1682 102q72 24 142 74v-112q-50 -36 -141 -62t-185 -26q-198 0 -287 102.5t-89 273.5v670h-756v-652q0 -159 71 -225.5t219 -66.5q91 0 163.5 24t140.5 74v-112q-48 -35 -141 -61.5t-187 -26.5q-195 0 -284.5 102.5t-89.5 273.5v670h-252v60l252 30l40 294h68v-286h756
l40 286h68v-286h572v-98h-572v-652q0 -108 32 -172t95.5 -92t162.5 -28q90 0 162 24z" />
    <glyph glyph-name=".notdef" horiz-adv-x="1620" 
d="M1426 1500v-1500h-1232v1500h1232zM306 1400v-1300h1008v1300h-1008z" />
    <glyph glyph-name=".null" 
 />
    <glyph glyph-name="nonmarkingreturn" horiz-adv-x="666" 
 />
    <glyph glyph-name="space" unicode=" " horiz-adv-x="572" 
 />
    <glyph glyph-name="exclam" unicode="!" horiz-adv-x="472" 
d="M198 380l-16 1120h108l-16 -1120h-76zM168 16q-28 28 -28 68q0 41 28 68.5t68 27.5q41 0 68.5 -27.5t27.5 -68.5q0 -40 -27.5 -68t-68.5 -28q-40 0 -68 28z" />
    <glyph glyph-name="quotedbl" unicode="&#x22;" horiz-adv-x="686" 
d="M228 1094h-80l-12 406h104zM538 1094h-80l-12 406h104z" />
    <glyph glyph-name="numbersign" unicode="#" horiz-adv-x="1598" 
d="M1492 1014v-94h-302l-40 -344h294v-94h-305l-57 -482h-100l57 482h-540l-57 -482h-100l57 482h-291v94h302l40 344h-294v94h305l57 486h100l-57 -486h540l57 486h100l-57 -486h291zM510 576h540l40 344h-540z" />
    <glyph glyph-name="dollar" unicode="$" horiz-adv-x="1454" 
d="M1290.5 181q-69.5 -93 -202 -147.5t-316.5 -57.5v-140h-100v143q-172 13 -303 80.5t-206 177t-83 247.5h112q12 -112 72.5 -198.5t164.5 -139.5t243 -65v638l-56 7q-494 63 -494 384q0 110 66.5 202t191 148.5t292.5 62.5v141h100v-142q165 -9 288.5 -69.5t192.5 -161.5
t75 -229h-110q-11 99 -64.5 176.5t-150 125t-231.5 56.5v-608l48 -6q195 -25 314 -79t172.5 -137t53.5 -200q0 -116 -69.5 -209zM672 825v596q-144 -5 -242.5 -46.5t-147 -110t-48.5 -154.5q0 -77 39 -132.5t129 -93t242 -56.5zM772 78q153 2 260.5 43.5t161.5 111.5t54 157
q0 86 -41 147t-141 103.5t-274 63.5l-20 3v-629z" />
    <glyph glyph-name="percent" unicode="%" horiz-adv-x="2256" 
d="M274.5 710.5q-101.5 54.5 -158 151.5t-56.5 222q0 126 56.5 223t157.5 151t232 54q130 0 230.5 -54t157 -151.5t56.5 -222.5t-56.5 -222.5t-157 -151.5t-230.5 -54t-231.5 54.5zM672 0l810 1500h108l-810 -1500h-108zM686.5 789.5q77.5 41.5 119.5 117.5t42 177
t-42 177.5t-119.5 118.5t-180.5 42q-104 0 -182 -42t-120 -118.5t-42 -177.5t42 -177t120 -117.5t182 -41.5q103 0 180.5 41.5zM1524.5 40.5q-101.5 54.5 -158 151.5t-56.5 222q0 126 56.5 223t157.5 151t232 54q130 0 230.5 -54t157 -151.5t56.5 -222.5t-56.5 -222.5
t-157 -151.5t-230.5 -54t-231.5 54.5zM1936.5 119.5q77.5 41.5 119.5 117.5t42 177t-42 177.5t-119.5 118.5t-180.5 42q-104 0 -182 -42t-120 -118.5t-42 -177.5t42 -177t120 -117.5t182 -41.5q103 0 180.5 41.5z" />
    <glyph glyph-name="ampersand" unicode="&#x26;" horiz-adv-x="1628" 
d="M1624 0h-160l-302 251q-110 -135 -245.5 -205t-310.5 -70q-159 0 -276.5 58t-179.5 154.5t-62 211.5q0 149 96.5 258.5t281.5 170.5q-111 94 -155.5 174t-44.5 165q0 106 62 187t172 125t250 44q153 0 266.5 -51t177 -142.5t72.5 -212.5h-112q-18 142 -124 224t-286 82
q-105 0 -187.5 -29t-129.5 -86.5t-47 -140.5q0 -134 180 -284l585 -486l257 362h128l-306 -428zM871.5 137.5q117.5 59.5 213.5 177.5l-556 462q-158 -58 -241.5 -153.5t-83.5 -217.5q0 -88 46.5 -163t136 -120t213.5 -45q154 0 271.5 59.5z" />
    <glyph glyph-name="quotesingle" unicode="'" horiz-adv-x="380" 
d="M150 1092l-14 408h108l-14 -408h-80z" />
    <glyph glyph-name="parenleft" unicode="(" horiz-adv-x="546" 
d="M482 1500q-137 -206 -202.5 -412.5t-65.5 -429.5q0 -220 65.5 -426.5t202.5 -415.5h-104q-140 211 -208 417.5t-68 424.5t68 424.5t208 417.5h104z" />
    <glyph glyph-name="parenright" unicode=")" horiz-adv-x="546" 
d="M168 1500q140 -211 208 -417.5t68 -424.5t-68 -424.5t-208 -417.5h-104q137 209 202.5 415.5t65.5 426.5q0 223 -65.5 429.5t-202.5 412.5h104z" />
    <glyph glyph-name="asterisk" unicode="*" horiz-adv-x="1020" 
d="M468 1162l-6 362h96l-6 -362l342 126l30 -90l-348 -114l236 -296l-78 -56l-224 304l-224 -304l-78 56l236 296l-348 114l30 90z" />
    <glyph glyph-name="plus" unicode="+" horiz-adv-x="1240" 
d="M670 758h510v-100h-510v-510h-100v510h-510v100h510v510h100v-510z" />
    <glyph glyph-name="comma" unicode="," horiz-adv-x="404" 
d="M275 150q27 -30 27 -74q0 -34 -10.5 -67t-39.5 -89l-90 -174h-86l111 248q-34 6 -55.5 32t-21.5 60q0 39 28 66.5t68 27.5q42 0 69 -30z" />
    <glyph glyph-name="hyphen" unicode="-" horiz-adv-x="636" 
d="M114 656v104h408v-104h-408z" />
    <glyph glyph-name="period" unicode="." horiz-adv-x="440" 
d="M152 16q-28 28 -28 68q0 41 28 68.5t68 27.5q41 0 68.5 -27.5t27.5 -68.5q0 -40 -27.5 -68t-68.5 -28q-40 0 -68 28z" />
    <glyph glyph-name="slash" unicode="/" horiz-adv-x="758" 
d="M50 -54l560 1608h98l-560 -1608h-98z" />
    <glyph glyph-name="zero" unicode="0" horiz-adv-x="1720" 
d="M461 72q-168 96 -256.5 271t-88.5 407t88.5 407t256.5 271t399 96t399 -96t256.5 -271t88.5 -407q0 -233 -88.5 -408t-256 -270.5t-399.5 -95.5q-231 0 -399 96zM1197 156q141 80 216 231.5t75 362.5t-75 362.5t-216 231.5t-337 80t-337 -80t-216 -231.5t-75 -362.5
t75 -362.5t216 -231.5t337 -80t337 80z" />
    <glyph glyph-name="one" unicode="1" horiz-adv-x="832" 
d="M2 1398l540 102h88v-1500h-112v1394l-516 -92v96z" />
    <glyph glyph-name="two" unicode="2" horiz-adv-x="1488" 
d="M281 100h1123v-100h-1308v94l632 414q194 127 301.5 216t157 169.5t49.5 172.5q0 108 -60 189t-169 125t-251 44q-166 0 -284.5 -53t-183.5 -146.5t-76 -216.5h-112q12 152 98 269t230.5 182t327.5 65q175 0 310.5 -57.5t210.5 -161.5t75 -239q0 -108 -50 -199
t-164.5 -189t-321.5 -232z" />
    <glyph glyph-name="three" unicode="3" horiz-adv-x="1536" 
d="M1248.5 711.5q81.5 -49.5 124.5 -122t43 -161.5q0 -135 -75.5 -237t-220.5 -158.5t-346 -56.5q-200 0 -351 60.5t-237 170t-98 255.5h112q15 -122 86.5 -208.5t195 -132t292.5 -45.5q165 0 283 41t180.5 120.5t62.5 192.5q0 145 -113 222.5t-349 77.5h-286v98h286
q140 0 235.5 37.5t143 103t47.5 149.5q0 99 -59 167.5t-165 103.5t-248 35q-153 0 -269 -43.5t-187 -124.5t-90 -194h-112q16 134 100.5 238.5t228.5 164t333 59.5q179 0 311 -49t202.5 -138.5t70.5 -208.5q0 -125 -85.5 -217.5t-239.5 -129.5q112 -20 193.5 -69.5z" />
    <glyph glyph-name="four" unicode="4" horiz-adv-x="1478" 
d="M1132 454h310v-100h-310v-354h-112v354h-974v86l944 1060h142v-1046zM1020 1381l-825 -927h825v927z" />
    <glyph glyph-name="five" unicode="5" horiz-adv-x="1478" 
d="M1120.5 921q134.5 -67 203 -182t68.5 -257q0 -148 -80 -263t-225 -179t-333 -64q-192 0 -335 58t-229 159.5t-114 232.5h112q25 -107 99 -185.5t193 -121.5t274 -43t273.5 50.5t183.5 142.5t65 213t-60 213t-169 142.5t-253 50.5q-126 0 -236 -37.5t-192 -98.5t-134 -132
h-78l100 880h1016v-100h-926l-71 -616q92 92 228.5 148t292.5 56q192 0 326.5 -67z" />
    <glyph glyph-name="six" unicode="6" horiz-adv-x="1582" 
d="M1200.5 901q130.5 -57 204 -165t73.5 -256q0 -149 -80.5 -263.5t-225.5 -177.5t-332 -63q-221 0 -385 97.5t-251.5 272.5t-87.5 404q0 230 85.5 405t248.5 272t388 97q157 0 284 -48t208.5 -134.5t105.5 -199.5h-112q-45 130 -170.5 206t-315.5 76q-196 0 -332.5 -82.5
t-206 -234.5t-69.5 -357q0 -69 9 -134q122 162 289 252t372 90q170 0 300.5 -57zM1116 125.5q118 49.5 182 141t64 213.5q0 117 -58.5 202.5t-163 130.5t-240.5 45q-200 0 -357 -91.5t-283 -259.5q56 -204 204.5 -317.5t375.5 -113.5q158 0 276 49.5z" />
    <glyph glyph-name="seven" unicode="7" horiz-adv-x="1292" 
d="M-6 1400v100h1244v-96l-846 -1404h-122l840 1400h-1116z" />
    <glyph glyph-name="eight" unicode="8" horiz-adv-x="1624" 
d="M1408 654.5q106 -97.5 106 -246.5q0 -134 -83.5 -231.5t-241.5 -149t-377 -51.5t-377 51.5t-241.5 149t-83.5 231.5q0 150 105.5 247.5t303.5 130.5q-164 40 -252.5 129.5t-88.5 218.5q0 121 76 209t218.5 134.5t339.5 46.5t339.5 -46.5t218.5 -134.5t76 -209
q0 -129 -88.5 -219t-253.5 -130q198 -33 304 -130.5zM355 969q65 -69 182.5 -105t274.5 -36t274.5 36t182.5 105t65 165q0 90 -62.5 156t-180 101t-279.5 35t-279.5 -35t-180 -101t-62.5 -156q0 -96 65 -165zM1128.5 114q132.5 40 203 115.5t70.5 178.5q0 161 -150 241.5
t-440 80.5q-288 0 -439 -82.5t-151 -239.5q0 -103 70.5 -178.5t203 -115.5t316.5 -40t316.5 40z" />
    <glyph glyph-name="nine" unicode="9" horiz-adv-x="1582" 
d="M1127 1426.5q164 -97.5 251.5 -272.5t87.5 -404q0 -230 -85.5 -405t-248.5 -272t-388 -97q-157 0 -284 48t-208.5 134.5t-105.5 199.5h112q45 -130 170.5 -206t315.5 -76q196 0 332.5 82.5t206 234.5t69.5 357q0 70 -9 134q-122 -162 -289 -252t-372 -90
q-170 0 -300.5 57t-204 165t-73.5 256q0 149 80.5 263.5t225.5 177.5t332 63q221 0 385 -97.5zM1039 733.5q157 91.5 283 259.5q-56 204 -204.5 317.5t-375.5 113.5q-158 0 -276 -49.5t-182 -141t-64 -213.5q0 -117 58.5 -202.5t163 -130.5t240.5 -45q200 0 357 91.5z" />
    <glyph glyph-name="colon" unicode=":" horiz-adv-x="480" 
d="M172 828q-28 28 -28 68q0 41 28 68.5t68 27.5q41 0 68.5 -27.5t27.5 -68.5q0 -40 -27.5 -68t-68.5 -28q-40 0 -68 28zM172 16q-28 28 -28 68q0 41 28 68.5t68 27.5q41 0 68.5 -27.5t27.5 -68.5q0 -40 -27.5 -68t-68.5 -28q-40 0 -68 28z" />
    <glyph glyph-name="semicolon" unicode=";" horiz-adv-x="532" 
d="M206 828q-28 28 -28 68q0 41 28 68.5t68 27.5q41 0 68.5 -27.5t27.5 -68.5q0 -40 -27.5 -68t-68.5 -28q-40 0 -68 28zM343 150q27 -30 27 -74q0 -34 -10.5 -67t-39.5 -89l-90 -174h-86l111 248q-34 6 -55.5 32t-21.5 60q0 39 28 66.5t68 27.5q42 0 69 -30z" />
    <glyph glyph-name="less" unicode="&#x3c;" horiz-adv-x="1240" 
d="M58 766l1120 426v-106l-996 -372l996 -370v-108l-1120 426v104z" />
    <glyph glyph-name="equal" unicode="=" horiz-adv-x="1240" 
d="M60 888v100h1120v-100h-1120zM60 428v100h1120v-100h-1120z" />
    <glyph glyph-name="greater" unicode="&#x3e;" horiz-adv-x="1240" 
d="M62 1086v106l1120 -426v-104l-1120 -426v108l996 370z" />
    <glyph glyph-name="question" unicode="?" horiz-adv-x="1202" 
d="M546.5 582.5q20.5 46.5 60.5 84t107 79.5l150 94q78 49 125 114.5t47 137.5q0 102 -52 177.5t-148.5 116t-227.5 40.5q-130 0 -229.5 -43t-158.5 -123.5t-70 -189.5h-110q13 140 85 242.5t195 157t288 54.5q166 0 286.5 -51.5t185 -148t64.5 -228.5q0 -92 -59.5 -181
t-164.5 -153l-154 -94q-76 -48 -111 -88.5t-35 -103.5v-96h-86q-8 43 -8 94q0 62 20.5 108.5zM506 16q-28 28 -28 68q0 41 28 68.5t68 27.5q41 0 68.5 -27.5t27.5 -68.5q0 -40 -27.5 -68t-68.5 -28q-40 0 -68 28z" />
    <glyph glyph-name="at" unicode="@" horiz-adv-x="1970" 
d="M1356 1056h104l-54 -392l62 -322q95 10 167 65.5t111.5 148.5t39.5 212q0 190 -95.5 335t-268.5 225t-398 80q-245 0 -432.5 -96t-291.5 -271.5t-104 -404.5q0 -215 103 -379t289.5 -254.5t429.5 -90.5q166 0 331.5 40.5t284.5 113.5v-102q-130 -67 -296 -105.5
t-324 -38.5q-272 0 -481.5 102t-325 287t-115.5 427q0 256 117 452t328.5 304t486.5 108q255 0 450.5 -91t303.5 -256.5t108 -382.5q0 -150 -58 -263.5t-163.5 -175t-244.5 -61.5h-44l-52 242q-64 -123 -166 -191.5t-226 -68.5q-114 0 -204.5 52t-142 146t-51.5 214
q0 118 51 211.5t141.5 146t205.5 52.5q124 0 224 -66.5t163 -182.5zM1171 430.5q100 86.5 159 233.5q-59 146 -159 232t-227 86q-86 0 -155 -40.5t-108 -112.5t-39 -165t39 -166t108 -113.5t155 -40.5q127 0 227 86.5z" />
    <glyph glyph-name="A" unicode="A" horiz-adv-x="1684" 
d="M1656 0h-126l-200 400h-975l-201 -400h-126l758 1500h112zM843 1374l-438 -874h875z" />
    <glyph glyph-name="B" unicode="B" horiz-adv-x="1624" 
d="M1366.5 707.5q83.5 -55.5 122.5 -135t39 -174.5q0 -119 -57.5 -208.5t-169 -139.5t-267.5 -50h-892l120 770l-120 730h860q137 0 232.5 -43.5t144.5 -125t49 -193.5q0 -74 -28.5 -143.5t-89.5 -125.5t-155 -87q128 -19 211.5 -74.5zM1275.5 1274q-36.5 59 -109 92.5
t-174.5 33.5h-724l96 -580h598q102 0 181 36.5t124 108t45 173.5q0 77 -36.5 136zM1046 100q174 0 270 76.5t96 221.5q0 157 -116 239.5t-340 82.5h-592l-96 -620h778z" />
    <glyph glyph-name="C" unicode="C" horiz-adv-x="1784" 
d="M1694 560q-20 -172 -123 -304.5t-271.5 -206t-377.5 -73.5q-241 0 -426.5 97.5t-287.5 273.5t-102 403t102 403t287.5 273.5t426.5 97.5q209 0 377.5 -73.5t271.5 -206t123 -304.5h-116q-24 145 -112 253.5t-229 167.5t-319 59q-209 0 -366.5 -82.5t-243.5 -234.5
t-86 -353t86 -353t243.5 -234.5t366.5 -82.5q178 0 319 59t229 167.5t112 253.5h116z" />
    <glyph glyph-name="D" unicode="D" horiz-adv-x="1730" 
d="M800 1500q242 0 430 -95t292 -265t104 -390t-104 -390t-292 -265t-430 -95h-606v1500h606zM800 98q208 0 369 82.5t251 230.5t90 339t-90 339t-251 230.5t-369 82.5h-494v-1304h494z" />
    <glyph glyph-name="E" unicode="E" horiz-adv-x="1472" 
d="M368 700l-101 -600h1093v-100h-1220l126 750l-126 750h1210v-100h-1083l101 -600h942v-100h-942z" />
    <glyph glyph-name="F" unicode="F" horiz-adv-x="1416" 
d="M1342 1500v-100h-1036v-600h1006v-100h-1006v-700h-112v1500h1148z" />
    <glyph glyph-name="G" unicode="G" horiz-adv-x="1840" 
d="M1016 704h692v-704h-96l-4 383q-53 -122 -152.5 -214t-236 -142.5t-297.5 -50.5q-239 0 -425 98t-289.5 274t-103.5 402q0 227 103.5 402.5t290.5 273.5t428 98q206 0 373.5 -73.5t269.5 -202.5t119 -290h-116q-25 138 -110.5 242.5t-224 162t-317.5 57.5
q-210 0 -368.5 -83t-245 -234.5t-86.5 -352.5t86.5 -353t245.5 -234.5t370 -82.5q187 0 333.5 67t235.5 186t109 271h-584v100z" />
    <glyph glyph-name="H" unicode="H" horiz-adv-x="1760" 
d="M1454 800v700h112v-1500h-112v700h-1148v-700h-112v1500h112v-700h1148z" />
    <glyph glyph-name="I" unicode="I" horiz-adv-x="500" 
d="M194 0v1500h112v-1500h-112z" />
    <glyph glyph-name="J" unicode="J" horiz-adv-x="1500" 
d="M64 698h110v-82q0 -257 128 -396.5t392 -139.5t391 138t127 398v884h112v-884q0 -220 -78.5 -362.5t-219.5 -210t-332 -67.5t-332 67.5t-219.5 210t-78.5 362.5v82z" />
    <glyph glyph-name="K" unicode="K" horiz-adv-x="1592" 
d="M1006 853l568 -853h-132l-514 761l-640 -761h-94v1500h112v-1317l1112 1317h132z" />
    <glyph glyph-name="L" unicode="L" horiz-adv-x="1420" 
d="M306 1500v-1400h1088v-100h-1200v1500h112z" />
    <glyph glyph-name="M" unicode="M" horiz-adv-x="2228" 
d="M1115 108l755 1392h164v-1500h-108v1373l-754 -1373h-116l-754 1373v-1373h-108v1500h164z" />
    <glyph glyph-name="N" unicode="N" horiz-adv-x="1798" 
d="M1496 121v1379h108v-1500h-146l-1156 1379v-1379h-108v1500h146z" />
    <glyph glyph-name="O" unicode="O" horiz-adv-x="1860" 
d="M500 74q-188 98 -292 273.5t-104 402.5t104 402.5t292 273.5t430 98t430 -98t292 -273.5t104 -402.5t-104 -402.5t-292 -273.5t-430 -98t-430 98zM1304.5 162.5q160.5 82.5 248 234.5t87.5 353t-87.5 353t-248 234.5t-374.5 82.5t-374.5 -82.5t-248 -234.5t-87.5 -353
t87.5 -353t248 -234.5t374.5 -82.5t374.5 82.5z" />
    <glyph glyph-name="P" unicode="P" horiz-adv-x="1482" 
d="M938 1500q143 0 254 -53t172.5 -148.5t61.5 -218.5t-61.5 -218.5t-172.5 -148.5t-254 -53h-632v-660h-112v1500h744zM940 760q111 0 195 39.5t129.5 112t45.5 168.5t-45.5 168.5t-129.5 112t-195 39.5h-634v-640h634z" />
    <glyph glyph-name="Q" unicode="Q" horiz-adv-x="1860" 
d="M1667 374.5q-89 -166.5 -250 -268.5l249 -238h-144l-197 189q-176 -81 -395 -81q-242 0 -430 98t-292 273.5t-104 402.5t104 402.5t292 273.5t430 98t430 -98t292 -273.5t104 -402.5q0 -209 -89 -375.5zM1243 135l-399 381h144l350 -335q145 86 223.5 232t78.5 337
q0 201 -87.5 353t-248 234.5t-374.5 82.5t-374.5 -82.5t-248 -234.5t-87.5 -353t87.5 -353t248 -234.5t374.5 -82.5q172 0 313 55z" />
    <glyph glyph-name="R" unicode="R" horiz-adv-x="1530" 
d="M1298 0l-619 660h-373v-660h-112v1500h744q143 0 254 -53t172.5 -148.5t61.5 -218.5t-61.5 -218.5t-172.5 -148.5t-254 -53h-107l619 -660h-152zM306 1400v-640h642q110 0 193 39.5t128 112t45 168.5t-45 168.5t-128 112t-193 39.5h-642z" />
    <glyph glyph-name="S" unicode="S" horiz-adv-x="1536" 
d="M198 484q15 -122 92.5 -214t205.5 -142t290 -50q164 0 287 41t190 117.5t67 181.5q0 78 -42.5 131.5t-136.5 87.5t-251 51l-254 28q-269 29 -390.5 124.5t-121.5 255.5q0 129 77 226t216.5 149.5t320.5 52.5q185 0 331 -58.5t231.5 -163t93.5 -240.5h-112
q-13 108 -84.5 189.5t-190.5 126t-271 44.5q-151 0 -264 -39t-174.5 -112.5t-61.5 -174.5q0 -81 42.5 -135.5t134 -88t243.5 -50.5l242 -28q194 -22 310.5 -66.5t170 -118.5t53.5 -187q0 -138 -81.5 -238.5t-230 -154t-346.5 -53.5q-195 0 -350 64t-246.5 179.5
t-101.5 264.5h112z" />
    <glyph glyph-name="T" unicode="T" horiz-adv-x="1500" 
d="M26 1500h1448v-100h-668v-1400h-112v1400h-668v100z" />
    <glyph glyph-name="U" unicode="U" horiz-adv-x="1688" 
d="M286 616q0 -161 69 -282.5t195 -187.5t294 -66t294 66t195 187.5t69 282.5v884h112v-884q0 -188 -84.5 -333.5t-236.5 -226t-349 -80.5t-349 80.5t-236.5 226t-84.5 333.5v884h112v-884z" />
    <glyph glyph-name="V" unicode="V" horiz-adv-x="1676" 
d="M839 107l681 1393h126l-750 -1500h-116l-750 1500h124z" />
    <glyph glyph-name="W" unicode="W" horiz-adv-x="2572" 
d="M1894 114l512 1386h116l-562 -1500h-134l-540 1371l-540 -1371h-134l-562 1500h116l513 -1388l541 1388h132z" />
    <glyph glyph-name="X" unicode="X" horiz-adv-x="1432" 
d="M789 784l643 -784h-140l-575 706l-577 -706h-140l646 784l-588 716h134l525 -638l523 638h134z" />
    <glyph glyph-name="Y" unicode="Y" horiz-adv-x="1640" 
d="M1452 1500h134l-710 -877v-623h-112v623l-714 877h134l637 -783z" />
    <glyph glyph-name="Z" unicode="Z" horiz-adv-x="1462" 
d="M1388 1400l-1177 -1300h1183v-100h-1328v100l1179 1300h-1169v100h1312v-100z" />
    <glyph glyph-name="bracketleft" unicode="[" horiz-adv-x="652" 
d="M608 1500v-92h-322v-1500h322v-92h-426v1684h426z" />
    <glyph glyph-name="backslash" unicode="\" horiz-adv-x="758" 
d="M50 1554h98l560 -1608h-98z" />
    <glyph glyph-name="bracketright" unicode="]" horiz-adv-x="652" 
d="M44 1408v92h426v-1684h-426v92h322v1500h-322z" />
    <glyph glyph-name="asciicircum" unicode="^" horiz-adv-x="1240" 
d="M664 1500l456 -750h-124l-376 611l-378 -611h-124l456 750h90z" />
    <glyph glyph-name="underscore" unicode="_" horiz-adv-x="964" 
d="M-8 -144v84h980v-84h-980z" />
    <glyph glyph-name="grave" unicode="`" horiz-adv-x="516" 
d="M80 1564h122l234 -310h-118z" />
    <glyph glyph-name="a" unicode="a" horiz-adv-x="1492" 
d="M1354 1120l-46 -560l46 -560h-108l-28 337q-94 -170 -239.5 -265.5t-320.5 -95.5q-163 0 -292 74t-202.5 207t-73.5 303t73.5 303t202.5 207t292 74q175 0 320.5 -95.5t239.5 -265.5l28 337h108zM1000 207.5q150 129.5 240 352.5q-90 223 -240 352.5t-342 129.5
q-131 0 -235 -61t-162.5 -170.5t-58.5 -250.5t58.5 -250.5t162.5 -170.5t235 -61q192 0 342 129.5z" />
    <glyph glyph-name="b" unicode="b" horiz-adv-x="1502" 
d="M1136 1070q129 -74 202.5 -207t73.5 -303t-73.5 -303t-202.5 -207t-292 -74q-183 0 -333.5 104t-242.5 287v-367h-108v1540h108v-787q92 183 242.5 287t333.5 104q163 0 292 -74zM1079 139q104 61 162.5 170.5t58.5 250.5t-58.5 250.5t-162.5 170.5t-235 61
q-192 0 -342 -129.5t-240 -352.5q90 -223 240 -352.5t342 -129.5q131 0 235 61z" />
    <glyph glyph-name="c" unicode="c" horiz-adv-x="1378" 
d="M1302 410q-24 -128 -107.5 -226.5t-212 -153t-280.5 -54.5q-179 0 -318 74t-216.5 206.5t-77.5 303.5t77.5 303.5t216.5 206.5t318 74q152 0 280.5 -54.5t212 -153t107.5 -226.5h-116q-23 100 -90.5 175t-169 116t-224.5 41q-151 0 -264 -59.5t-174.5 -168.5t-61.5 -254
t61.5 -254t174.5 -168.5t264 -59.5q124 0 226 41t169 116t89 175h116z" />
    <glyph glyph-name="d" unicode="d" horiz-adv-x="1492" 
d="M1394 1540l-86 -980l46 -560h-108l-28 337q-94 -170 -239.5 -265.5t-320.5 -95.5q-163 0 -292 74t-202.5 207t-73.5 303t73.5 303t202.5 207t292 74q177 0 323.5 -97.5t240.5 -269.5l66 763h106zM1000 207.5q150 129.5 240 352.5q-90 223 -240 352.5t-342 129.5
q-131 0 -235 -61t-162.5 -170.5t-58.5 -250.5t58.5 -250.5t162.5 -170.5t235 -61q192 0 342 129.5z" />
    <glyph glyph-name="e" unicode="e" horiz-adv-x="1364" 
d="M202 544q4 -140 70.5 -245.5t185 -163t274.5 -57.5q143 0 273.5 50t242.5 140v-102q-103 -88 -243 -139t-273 -51q-188 0 -334 74t-227 206.5t-81 303.5t76.5 304t214 206.5t315.5 73.5q172 0 305 -75.5t207 -212t74 -312.5h-1080zM456.5 993q-104.5 -49 -169 -140
t-80.5 -213h958q-17 122 -79.5 213t-162.5 140t-227 49q-135 0 -239.5 -49z" />
    <glyph glyph-name="f" unicode="f" horiz-adv-x="968" 
d="M472 1386q-86 -80 -86 -252v-74h572v-98h-572v-962h-108v962h-252v98h252v46q0 205 104 331.5t330 126.5q78 0 140 -14t122 -40v-106q-58 33 -118 47.5t-132 14.5q-166 0 -252 -80z" />
    <glyph glyph-name="g" unicode="g" horiz-adv-x="1490" 
d="M1228 1120h108v-822q0 -217 -83.5 -363.5t-227 -217.5t-327.5 -71q-144 0 -265.5 41t-228.5 129v106q211 -174 488 -174q172 0 292.5 64t182 181t61.5 275v155q-49 -96 -138.5 -180t-208.5 -135.5t-251 -51.5q-150 0 -272.5 68.5t-194 192.5t-71.5 283t71.5 283
t194 192.5t272.5 68.5q132 0 251 -51.5t208.5 -135.5t138.5 -180v343zM968 263.5q145 105.5 266 336.5q-120 230 -265.5 336t-320.5 106q-140 0 -240 -57t-152 -157t-52 -228t52 -228t152 -157t240 -57q175 0 320 105.5z" />
    <glyph glyph-name="h" unicode="h" horiz-adv-x="1378" 
d="M1011 1082q109 -62 166 -181.5t57 -288.5v-612h-108v590q0 225 -102 340.5t-300 115.5q-135 0 -238.5 -62t-160.5 -173.5t-57 -256.5v-554h-108v1540h108v-698q64 142 190 222t290 80q154 0 263 -62z" />
    <glyph glyph-name="i" unicode="i" horiz-adv-x="428" 
d="M160 0v1120l54 -8l54 8v-1120h-108zM143 1338.5q-29 28.5 -29 69.5t29 69.5t71 28.5t71 -28.5t29 -69.5t-29 -69.5t-71 -28.5t-71 28.5z" />
    <glyph glyph-name="j" unicode="j" horiz-adv-x="428" 
d="M160 -330v1450l54 -8l54 8v-1450h-108zM143 1338.5q-29 28.5 -29 69.5t29 69.5t71 28.5t71 -28.5t29 -69.5t-29 -69.5t-71 -28.5t-71 28.5z" />
    <glyph glyph-name="k" unicode="k" horiz-adv-x="1254" 
d="M799 638l445 -638h-136l-382 551l-464 -551h-102v1540h108v-1378l804 958h132z" />
    <glyph glyph-name="l" unicode="l" horiz-adv-x="428" 
d="M160 0v1540h108v-1540h-108z" />
    <glyph glyph-name="m" unicode="m" horiz-adv-x="2198" 
d="M1849 1082q100 -62 152.5 -181.5t52.5 -288.5v-612h-108v590q0 225 -91.5 340.5t-270.5 115.5q-124 0 -219 -62t-147 -173.5t-52 -256.5v-554h-108v590q0 225 -91.5 340.5t-270.5 115.5q-124 0 -219 -62t-147 -173.5t-52 -256.5v-554h-108v778l-60 342h108l49 -295
q58 150 176.5 234.5t276.5 84.5q170 0 279 -88.5t147 -255.5q55 161 176.5 252.5t285.5 91.5q141 0 241 -62z" />
    <glyph glyph-name="n" unicode="n" horiz-adv-x="1390" 
d="M1023 1082q109 -62 166 -181.5t57 -288.5v-612h-108v590q0 225 -102 340.5t-300 115.5q-136 0 -240 -62t-161 -173.5t-57 -256.5v-554h-108v778l-60 342h108l50 -301q62 152 191 238.5t301 86.5q154 0 263 -62z" />
    <glyph glyph-name="o" unicode="o" horiz-adv-x="1472" 
d="M399 49.5q-147 73.5 -229 206.5t-82 304t82 304t229 206.5t337 73.5t337 -73.5t229 -206.5t82 -304t-82 -304t-229 -206.5t-337 -73.5t-337 73.5zM1018.5 137.5q121.5 59.5 187.5 168.5t66 254t-66 254t-187.5 168.5t-282.5 59.5t-282.5 -59.5t-187.5 -168.5t-66 -254
t66 -254t187.5 -168.5t282.5 -59.5t282.5 59.5z" />
    <glyph glyph-name="p" unicode="p" horiz-adv-x="1506" 
d="M1140 1070q129 -74 202.5 -207t73.5 -303t-73.5 -303t-202.5 -207t-292 -74q-185 0 -336.5 106.5t-243.5 292.5v-705h-108v1450h108v-375q92 186 243.5 292.5t336.5 106.5q163 0 292 -74zM1083 139q104 61 162.5 170.5t58.5 250.5t-58.5 250.5t-162.5 170.5t-235 61
q-192 0 -342 -129.5t-240 -352.5q90 -223 240 -352.5t342 -129.5q131 0 235 61z" />
    <glyph glyph-name="q" unicode="q" horiz-adv-x="1506" 
d="M1238 1120h108v-1450h-108v705q-92 -186 -243.5 -292.5t-336.5 -106.5q-163 0 -292 74t-202.5 207t-73.5 303t73.5 303t202.5 207t292 74q185 0 336.5 -106.5t243.5 -292.5v375zM1000 207.5q150 129.5 240 352.5q-90 223 -240 352.5t-342 129.5q-131 0 -235 -61
t-162.5 -170.5t-58.5 -250.5t58.5 -250.5t162.5 -170.5t235 -61q192 0 342 129.5z" />
    <glyph glyph-name="r" unicode="r" horiz-adv-x="924" 
d="M825.5 1137.5q47.5 -6.5 76.5 -17.5v-106q-31 12 -81 19t-99 7q-130 0 -230.5 -61.5t-157 -172t-56.5 -252.5v-554h-108v782l-60 338h108l49 -294q34 97 101 169t160 110.5t204 38.5q46 0 93.5 -6.5z" />
    <glyph glyph-name="s" unicode="s" horiz-adv-x="1272" 
d="M1119 138q-67 -77 -188 -119.5t-277 -42.5q-163 0 -292.5 51t-204.5 142.5t-81 210.5h110q11 -90 74 -159.5t165.5 -108t228.5 -38.5q124 0 219 30.5t148 85t53 124.5q0 60 -32 96.5t-105.5 59.5t-206.5 38l-212 24q-215 24 -310.5 94t-95.5 196q0 99 62 172t173.5 111.5
t258.5 38.5q158 0 284 -47.5t199.5 -133t80.5 -195.5h-110q-10 81 -70.5 144.5t-161.5 98.5t-226 35q-182 0 -280 -56.5t-98 -161.5q0 -57 29.5 -95t95.5 -62t177 -37l210 -24q170 -19 267.5 -53.5t140 -92.5t42.5 -150q0 -99 -67 -176z" />
    <glyph glyph-name="t" unicode="t" horiz-adv-x="1004" 
d="M6 1022v60l252 30l40 294h68v-286h572v-98h-572v-652q0 -158 71 -225t219 -67q90 0 162 24t142 74v-112q-47 -34 -139.5 -61t-184.5 -27q-199 0 -288.5 102t-89.5 274v670h-252z" />
    <glyph glyph-name="u" unicode="u" horiz-adv-x="1368" 
d="M1258 0h-108l-52 308q-60 -156 -186 -244t-292 -88q-151 0 -258 62t-162.5 181.5t-55.5 288.5v612h108v-590q0 -225 100 -340.5t292 -115.5q132 0 233.5 62t157 173.5t55.5 256.5v554h108v-778z" />
    <glyph glyph-name="v" unicode="v" horiz-adv-x="1320" 
d="M662 98l510 1022h116l-570 -1120h-116l-570 1120h120z" />
    <glyph glyph-name="w" unicode="w" horiz-adv-x="2106" 
d="M1524 115l426 1005h116l-484 -1120h-112l-416 999l-418 -999h-112l-484 1120h116l426 -1005l410 1005h122z" />
    <glyph glyph-name="x" unicode="x" horiz-adv-x="1156" 
d="M649 584l501 -584h-130l-445 509l-443 -509h-126l501 581l-469 539h140l403 -465l405 465h132z" />
    <glyph glyph-name="y" unicode="y" horiz-adv-x="1344" 
d="M1198 1120h116l-644 -1258q-57 -110 -138 -163t-194 -53q-71 0 -127.5 17.5t-118.5 58.5v94q58 -37 114 -53.5t128 -16.5q87 0 148.5 40t103.5 124l64 126h-66l-550 1084h120l520 -1036z" />
    <glyph glyph-name="z" unicode="z" horiz-adv-x="1192" 
d="M1122 1030l-919 -936h923v-94h-1062v90l919 936h-911v94h1050v-90z" />
    <glyph glyph-name="braceleft" unicode="{" horiz-adv-x="688" 
d="M484 1408q-86 0 -131.5 -39.5t-45.5 -111.5q0 -31 9 -69l76 -310q8 -37 8 -63q0 -58 -28 -97t-76 -60q48 -21 76 -60t28 -97q0 -26 -8 -63l-76 -310q-9 -37 -9 -69q0 -72 45.5 -111.5t131.5 -39.5h154v-92h-160q-83 0 -145 28t-95.5 80t-33.5 124q0 42 12 90l80 310
q6 26 6 47q0 58 -38.5 88.5t-97.5 30.5h-96v88h96q59 0 97.5 30.5t38.5 88.5q0 22 -6 47l-80 310q-12 48 -12 90q0 72 33.5 124t95.5 80t145 28h160v-92h-154z" />
    <glyph glyph-name="bar" unicode="|" horiz-adv-x="502" 
d="M194 -196v1696h114v-1696h-114z" />
    <glyph glyph-name="braceright" unicode="}" horiz-adv-x="688" 
d="M50 1408v92h160q83 0 145 -28t95.5 -80t33.5 -124q0 -42 -12 -90l-80 -310q-6 -25 -6 -47q0 -58 38.5 -88.5t97.5 -30.5h96v-88h-96q-59 0 -97.5 -30.5t-38.5 -88.5q0 -21 6 -47l80 -310q12 -48 12 -90q0 -72 -33.5 -124t-95.5 -80t-145 -28h-160v92h154q86 0 131.5 39.5
t45.5 111.5q0 32 -9 69l-76 310q-8 37 -8 63q0 58 28 97t76 60q-48 21 -76 60t-28 97q0 26 8 63l76 310q9 38 9 69q0 72 -45.5 111.5t-131.5 39.5h-154z" />
    <glyph glyph-name="asciitilde" unicode="~" horiz-adv-x="1240" 
d="M60 728q156 60 322 60q55 0 108.5 -7.5t129.5 -22.5q79 -15 131 -22.5t107 -7.5q166 0 322 60v-100q-156 -60 -322 -60q-55 0 -107 7.5t-131 22.5q-76 15 -129.5 22.5t-108.5 7.5q-166 0 -322 -60v100z" />
    <glyph glyph-name="uni00A0" unicode="&#xa0;" horiz-adv-x="572" 
 />
    <glyph glyph-name="exclamdown" unicode="&#xa1;" horiz-adv-x="444" 
d="M290.5 1174.5q27.5 -27.5 27.5 -68.5q0 -40 -27.5 -68t-68.5 -28q-40 0 -68 28t-28 68q0 41 28 68.5t68 27.5q41 0 68.5 -27.5zM260 810l16 -1120h-108l16 1120h76z" />
    <glyph glyph-name="cent" unicode="&#xa2;" horiz-adv-x="1442" 
d="M772 79q114 5 207.5 47t155.5 115t83 169h116q-23 -123 -101 -219t-197.5 -152t-263.5 -62v-141h-100v143q-161 13 -283.5 90t-190.5 204t-68 287t68 287t190.5 204t283.5 90v143h100v-141q144 -6 263.5 -62t197.5 -152t101 -219h-116q-21 95 -82.5 168t-155.5 115.5
t-208 47.5v-962zM294.5 322.5q52.5 -103.5 150 -166t227.5 -75.5v958q-130 -13 -227.5 -75.5t-150 -166t-52.5 -237.5t52.5 -237.5z" />
    <glyph glyph-name="sterling" unicode="&#xa3;" horiz-adv-x="1456" 
d="M1376 98v-98h-1292v86q143 36 240.5 89t145.5 116.5t48 130.5q0 45 -15 84t-37.5 72.5t-62.5 83.5h-313v96h241q-46 68 -72.5 145.5t-26.5 176.5q0 130 70.5 231t197.5 157t290 56q159 0 285.5 -51t200 -142.5t80.5 -210.5h-120q-16 91 -76 159.5t-155 105.5t-213 37
q-135 0 -236.5 -42t-156.5 -119.5t-55 -180.5q0 -95 32.5 -169.5t91.5 -152.5h690v-96h-617q43 -59 66 -111t23 -111q0 -105 -69 -191t-204 -151h1019z" />
    <glyph glyph-name="currency" unicode="&#xa4;" horiz-adv-x="1328" 
d="M1121.5 597.5q-22.5 -65.5 -66.5 -118.5l147 -125l-66 -72l-150 132q-128 -92 -322 -92t-322 92l-150 -132l-66 72l147 125q-44 53 -66.5 118.5t-22.5 140.5t22.5 140.5t66.5 118.5l-147 125l66 72l150 -132q128 92 322 92t322 -92l150 132l66 -72l-147 -125
q44 -53 66.5 -118.5t22.5 -140.5t-22.5 -140.5zM331.5 573.5q43.5 -71.5 128.5 -111.5t204 -40t204 40t128.5 111.5t43.5 164.5t-43.5 164.5t-128.5 111.5t-204 40t-204 -40t-128.5 -111.5t-43.5 -164.5t43.5 -164.5z" />
    <glyph glyph-name="yen" unicode="&#xa5;" horiz-adv-x="1514" 
d="M1320 1500h132l-561 -770h463v-100h-536l-4 -6v-152h540v-100h-540v-372h-112v372h-540v100h540v152l-4 6h-536v100h462l-564 770h132l566 -771z" />
    <glyph glyph-name="brokenbar" unicode="&#xa6;" horiz-adv-x="502" 
d="M308 1500v-616h-114v616h114zM194 -196v616h114v-616h-114z" />
    <glyph glyph-name="section" unicode="&#xa7;" horiz-adv-x="1534" 
d="M1371.5 350.5q-42.5 -57.5 -123.5 -98.5q38 -37 56 -82.5t18 -105.5q0 -99 -64.5 -176.5t-188 -121.5t-295.5 -44q-181 0 -313.5 57.5t-204 152t-78.5 204.5h112q11 -87 68.5 -157.5t162.5 -112.5t253 -42q146 0 244 31.5t145 84.5t47 118q0 57 -29.5 96.5t-94.5 71.5
t-184 70l-410 128q-135 42 -215 87.5t-117.5 104.5t-37.5 142q0 80 42.5 137.5t123.5 98.5q-38 37 -56 82.5t-18 105.5q0 99 64.5 176.5t188 121.5t295.5 44q181 0 313.5 -57.5t204 -152t78.5 -204.5h-112q-11 87 -68.5 157.5t-162.5 112.5t-253 42q-146 0 -244 -31.5
t-145 -84.5t-47 -118q0 -57 29.5 -96.5t94.5 -71.5t184 -70l410 -128q135 -42 215 -87.5t117.5 -104.5t37.5 -142q0 -80 -42.5 -137.5zM1271.5 378q30.5 43 30.5 100q0 58 -30.5 99.5t-96 75.5t-177.5 69l-410 128q-153 48 -230 93q-63 -32 -93.5 -75t-30.5 -100
q0 -58 30.5 -99.5t96 -75.5t177.5 -69l410 -128q153 -48 230 -93q63 32 93.5 75z" />
    <glyph glyph-name="dieresis" unicode="&#xa8;" horiz-adv-x="924" 
d="M93 1338.5q-29 28.5 -29 69.5t29 69.5t71 28.5t71 -28.5t29 -69.5t-29 -69.5t-71 -28.5t-71 28.5zM689 1338.5q-29 28.5 -29 69.5t29 69.5t71 28.5t71 -28.5t29 -69.5t-29 -69.5t-71 -28.5t-71 28.5z" />
    <glyph glyph-name="copyright" unicode="&#xa9;" horiz-adv-x="1858" 
d="M529.5 76q-182.5 100 -289 277t-106.5 397q0 221 106.5 398t288.5 276.5t401 99.5q218 0 399.5 -99.5t288 -276.5t106.5 -398q0 -220 -106.5 -397t-288.5 -277t-399 -100q-218 0 -400.5 100zM1278 158.5q158 86.5 250 241t92 350.5t-92 350.5t-250 241t-348 86.5
q-191 0 -349.5 -86.5t-250.5 -241t-92 -350.5t92 -350.5t250.5 -241t349.5 -86.5q190 0 348 86.5zM1418 640q-12 -111 -75.5 -197t-169 -133.5t-237.5 -47.5q-149 0 -264 61.5t-178.5 172t-63.5 254.5t63.5 255t178.5 173t264 62q130 0 235.5 -47.5t170 -133.5t76.5 -197
h-112q-14 84 -64 147t-129 97t-179 34q-118 0 -206 -48t-136 -136.5t-48 -205.5t48 -205.5t136 -136.5t206 -48q100 0 179.5 34t129 97.5t63.5 148.5h112z" />
    <glyph glyph-name="ordfeminine" unicode="&#xaa;" horiz-adv-x="1216" 
d="M1068 1494l-38 -440l38 -440h-100l-22 259q-71 -131 -180 -205t-240 -74q-124 0 -222.5 58.5t-154 163t-55.5 238.5q0 135 55.5 239.5t154 162.5t222.5 58q132 0 240.5 -72.5t180.5 -203.5l21 256h100zM785.5 789.5q111.5 97.5 178.5 264.5q-67 168 -178 265t-254 97
q-97 0 -173 -45.5t-118.5 -127.5t-42.5 -189q0 -106 43 -188.5t119 -128t172 -45.5q142 0 253.5 97.5z" />
    <glyph glyph-name="guillemotleft" unicode="&#xab;" horiz-adv-x="1062" 
d="M442 1062h120l-306 -428l306 -428h-120l-308 428zM798 1062h120l-306 -428l306 -428h-120l-308 428z" />
    <glyph glyph-name="logicalnot" unicode="&#xac;" horiz-adv-x="1240" 
d="M54 868v100h1120v-520h-96v420h-1024z" />
    <glyph glyph-name="uni00AD" unicode="&#xad;" horiz-adv-x="636" 
d="M114 656v104h408v-104h-408z" />
    <glyph glyph-name="registered" unicode="&#xae;" horiz-adv-x="1452" 
d="M1032 1445.5q136 -76.5 213 -210.5t77 -301t-77 -301t-213 -210.5t-306 -76.5t-306 76.5t-213 210.5t-77 301t77 301t213 210.5t306 76.5t306 -76.5zM982 495.5q114 65.5 179 180.5t65 258t-65 258t-179 180.5t-256 65.5t-256 -65.5t-179 -180.5t-65 -258t65 -258
t179 -180.5t256 -65.5t256 65.5zM997 974.5q-29 -46.5 -81.5 -73t-121.5 -27.5l234 -292h-120l-225 292h-119v-292h-94v706h318q70 0 124 -26.5t84 -74t30 -107.5q0 -59 -29 -105.5zM564 1210v-260h218q67 0 107.5 35.5t40.5 94.5q0 60 -40 95t-108 35h-218z" />
    <glyph glyph-name="macron" unicode="&#xaf;" horiz-adv-x="934" 
d="M854 1362h-774v96h774v-96z" />
    <glyph glyph-name="degree" unicode="&#xb0;" horiz-adv-x="788" 
d="M260.5 1082.5q-57.5 28.5 -89 81t-31.5 120.5t31.5 120.5t89 81t133.5 28.5t133.5 -28.5t89 -81t31.5 -120.5t-31.5 -120.5t-89 -81t-133.5 -28.5t-133.5 28.5zM516.5 1176.5q43.5 38.5 43.5 107.5t-43.5 107.5t-122.5 38.5t-122.5 -38.5t-43.5 -107.5t43.5 -107.5
t122.5 -38.5t122.5 38.5z" />
    <glyph glyph-name="plusminus" unicode="&#xb1;" horiz-adv-x="1240" 
d="M670 1248v-380h510v-100h-510v-380h-100v380h-510v100h510v380h100zM1180 158h-1120v100h1120v-100z" />
    <glyph glyph-name="uni00B2" unicode="&#xb2;" horiz-adv-x="1068" 
d="M303 904h649v-86h-828v78l320 186q116 67 194.5 125t125 121.5t46.5 131.5q0 85 -73 136.5t-209 51.5q-84 0 -150.5 -23t-106.5 -65.5t-47 -99.5h-102q7 80 60.5 142.5t143.5 97t202 34.5q124 0 211 -35t131 -96t44 -139q0 -70 -29 -131t-113 -134t-244 -165z" />
    <glyph glyph-name="uni00B3" unicode="&#xb3;" horiz-adv-x="1062" 
d="M908 1205.5q54 -57.5 54 -135.5t-48 -139t-143 -96t-231 -35q-132 0 -234.5 42.5t-161 117t-64.5 168.5h100q15 -117 108.5 -179.5t251.5 -62.5q151 0 234.5 47.5t83.5 148.5q0 72 -58.5 114t-199.5 42h-198v80h198q126 0 181 47t55 115q0 78 -69 122t-209 44
q-149 0 -240 -60t-108 -166h-100q11 95 71 166t157.5 108.5t219.5 37.5q121 0 207 -32.5t129.5 -87.5t43.5 -122q0 -75 -51 -129t-149 -76q116 -22 170 -79.5z" />
    <glyph glyph-name="acute" unicode="&#xb4;" horiz-adv-x="516" 
d="M80 1254l234 310h122l-238 -310h-118z" />
    <glyph glyph-name="paragraph" unicode="&#xb6;" horiz-adv-x="1460" 
d="M99.5 1314.5q49.5 87.5 137.5 136.5t201 49h480v-1500h-112v728h-368q-114 0 -202 49t-137 136.5t-49 200.5t49.5 200.5zM1152 0v1500h112v-1500h-112z" />
    <glyph glyph-name="periodcentered" unicode="&#xb7;" horiz-adv-x="480" 
d="M172 672q-28 28 -28 68q0 41 28 68.5t68 27.5q41 0 68.5 -27.5t27.5 -68.5q0 -40 -27.5 -68t-68.5 -28q-40 0 -68 28z" />
    <glyph glyph-name="cedilla" unicode="&#xb8;" horiz-adv-x="720" 
d="M583 -136.5q57 -42.5 57 -113.5q0 -52 -32.5 -91t-92 -61t-137.5 -22q-107 0 -189 44t-109 116h104q24 -37 73.5 -56.5t120.5 -19.5q79 0 118.5 24.5t39.5 65.5q0 37 -35.5 57.5t-98.5 20.5q-84 0 -140 -30h-98l132 210h96l-80 -122q44 20 122 20q92 0 149 -42.5z" />
    <glyph glyph-name="uni00B9" unicode="&#xb9;" horiz-adv-x="878" 
d="M540 1718v-814h274v-86h-688v86h316v719l-308 -75v94l324 76h82z" />
    <glyph glyph-name="ordmasculine" unicode="&#xba;" horiz-adv-x="1176" 
d="M328 652q-113 58 -175.5 162.5t-62.5 239.5t63 239.5t175.5 162.5t257.5 58q146 0 259 -58t176 -162.5t63 -239.5t-62.5 -239.5t-176 -162.5t-259.5 -58q-145 0 -258 58zM794 736q89 44 137.5 125.5t48.5 192.5q0 112 -48.5 194t-137.5 126t-208 44q-118 0 -207 -44
t-137 -126t-48 -194q0 -111 48 -192.5t137 -125.5t207 -44q119 0 208 44z" />
    <glyph glyph-name="guillemotright" unicode="&#xbb;" horiz-adv-x="1062" 
d="M144 1062h120l308 -428l-308 -428h-120l306 428zM500 1062h120l308 -428l-308 -428h-120l306 428z" />
    <glyph glyph-name="onequarter" unicode="&#xbc;" horiz-adv-x="2016" 
d="M508 686h274v-86h-688v86h316v719l-308 -75v94l324 76h82v-814zM604 0l810 1500h108l-810 -1500h-108zM1796 318h180v-84h-180v-234h-96v234h-574v62l556 604h114v-582zM1700 789l-434 -471h434v471z" />
    <glyph glyph-name="onehalf" unicode="&#xbd;" horiz-adv-x="2190" 
d="M524 686h274v-86h-688v86h316v719l-308 -75v94l324 76h82v-814zM592 0l810 1500h108l-810 -1500h-108zM1447 86h649v-86h-828v78l320 186q116 67 194.5 125t125 121.5t46.5 131.5q0 85 -73 136.5t-209 51.5q-84 0 -150.5 -23t-106.5 -65.5t-47 -99.5h-102
q7 80 60.5 142.5t143.5 97t202 34.5q124 0 211 -35t131 -96t44 -139q0 -70 -29 -131t-113 -134t-244 -165z" />
    <glyph glyph-name="threequarters" unicode="&#xbe;" horiz-adv-x="2148" 
d="M920 715q-48 -61 -143 -96t-231 -35q-132 0 -234.5 42.5t-161 117t-64.5 168.5h100q15 -117 108.5 -179.5t251.5 -62.5q151 0 234.5 47.5t83.5 148.5q0 72 -58.5 114t-199.5 42h-198v80h198q126 0 181 47t55 115q0 78 -69 122t-209 44q-149 0 -240 -60t-108 -166h-100
q11 95 71 166t157.5 108.5t219.5 37.5q121 0 207 -32.5t129.5 -87.5t43.5 -122q0 -75 -51 -129t-149 -76q116 -22 170 -79.5t54 -135.5t-48 -139zM740 0l810 1500h108l-810 -1500h-108zM1924 318h180v-84h-180v-234h-96v234h-574v62l556 604h114v-582zM1828 789l-434 -471
h434v471z" />
    <glyph glyph-name="questiondown" unicode="&#xbf;" horiz-adv-x="1192" 
d="M690.5 1174.5q27.5 -27.5 27.5 -68.5q0 -40 -27.5 -68t-68.5 -28q-40 0 -68 28t-28 68q0 41 28 68.5t68 27.5q41 0 68.5 -27.5zM649.5 607.5q-20.5 -46.5 -60.5 -84t-107 -79.5l-150 -94q-78 -49 -125 -114.5t-47 -137.5q0 -102 52 -177.5t148.5 -116t227.5 -40.5
q130 0 229.5 43t158.5 123.5t70 189.5h110q-13 -140 -85 -242.5t-195 -157t-288 -54.5q-166 0 -286.5 51.5t-185 148t-64.5 228.5q0 92 59.5 181t164.5 153l154 94q76 48 111 88.5t35 103.5v96h86q8 -43 8 -94q0 -62 -20.5 -108.5z" />
    <glyph glyph-name="Agrave" unicode="&#xc0;" horiz-adv-x="1684" 
d="M1656 0h-126l-200 400h-975l-201 -400h-126l758 1500h112zM843 1374l-438 -874h875zM494 1904h148l290 -270h-130z" />
    <glyph glyph-name="Aacute" unicode="&#xc1;" horiz-adv-x="1684" 
d="M1656 0h-126l-200 400h-975l-201 -400h-126l758 1500h112zM843 1374l-438 -874h875zM726 1634l290 270h148l-308 -270h-130z" />
    <glyph glyph-name="Acircumflex" unicode="&#xc2;" horiz-adv-x="1684" 
d="M1656 0h-126l-200 400h-975l-201 -400h-126l758 1500h112zM843 1374l-438 -874h875zM910 1904l286 -270h-120l-234 193l-234 -193h-120l286 270h136z" />
    <glyph glyph-name="Atilde" unicode="&#xc3;" horiz-adv-x="1684" 
d="M1656 0h-126l-200 400h-975l-201 -400h-126l758 1500h112zM843 1374l-438 -874h875zM438 1650q8 105 64.5 168.5t145.5 63.5q50 0 100 -19t124 -57q61 -31 97 -45.5t67 -14.5q48 0 78.5 35.5t39.5 100.5h92q-8 -105 -64.5 -168.5t-145.5 -63.5q-50 0 -100 19t-124 57
q-61 31 -97 45.5t-67 14.5q-48 0 -78.5 -35.5t-39.5 -100.5h-92z" />
    <glyph glyph-name="Adieresis" unicode="&#xc4;" horiz-adv-x="1684" 
d="M1656 0h-126l-200 400h-975l-201 -400h-126l758 1500h112zM843 1374l-438 -874h875zM471 1718.5q-29 28.5 -29 69.5t29 69.5t71 28.5t71 -28.5t29 -69.5t-29 -69.5t-71 -28.5t-71 28.5zM1071 1718.5q-29 28.5 -29 69.5t29 69.5t71 28.5t71 -28.5t29 -69.5t-29 -69.5
t-71 -28.5t-71 28.5z" />
    <glyph glyph-name="Aring" unicode="&#xc5;" horiz-adv-x="1684" 
d="M1656 0h-126l-200 400h-975l-201 -400h-126l758 1500h112zM843 1374l-438 -874h875zM708.5 1637.5q-57.5 23.5 -89 66.5t-31.5 100t31.5 100t89 66.5t133.5 23.5t133.5 -23.5t89 -66.5t31.5 -100t-31.5 -100t-89 -66.5t-133.5 -23.5t-133.5 23.5zM965 1725.5
q43 27.5 43 78.5t-43 78.5t-123 27.5t-123 -27.5t-43 -78.5t43 -78.5t123 -27.5t123 27.5z" />
    <glyph glyph-name="AE" unicode="&#xc6;" horiz-adv-x="2482" 
d="M1282 700l284 -600h888v-100h-960l-190 400h-956l-190 -400h-126l716 1500h1554v-100h-1354l286 -600h1028v-100h-980zM826 1406l-430 -906h860z" />
    <glyph glyph-name="Ccedilla" unicode="&#xc7;" horiz-adv-x="1782" 
d="M1235 139q141 59 229 167.5t112 253.5h116q-19 -168 -118.5 -299t-261.5 -205.5t-365 -79.5l-58 -89q45 19 119 19q94 0 151 -42.5t57 -113.5q0 -52 -32.5 -91t-92.5 -61t-139 -22q-108 0 -191.5 44t-110.5 116h106q56 -74 196 -74q78 0 117 24t39 64q0 36 -35 56t-97 20
q-80 0 -140 -28h-98l113 180q-223 14 -392 115t-262 271t-93 386q0 227 102 403t287.5 273.5t426.5 97.5q209 0 377.5 -73.5t271.5 -206t123 -304.5h-116q-24 145 -112 253.5t-229 167.5t-319 59q-209 0 -366.5 -82.5t-243.5 -234.5t-86 -353t86 -353t243.5 -234.5
t366.5 -82.5q178 0 319 59z" />
    <glyph glyph-name="Egrave" unicode="&#xc8;" horiz-adv-x="1472" 
d="M368 700l-101 -600h1093v-100h-1220l126 750l-126 750h1210v-100h-1083l101 -600h942v-100h-942zM400 1904h148l290 -270h-130z" />
    <glyph glyph-name="Eacute" unicode="&#xc9;" horiz-adv-x="1472" 
d="M368 700l-101 -600h1093v-100h-1220l126 750l-126 750h1210v-100h-1083l101 -600h942v-100h-942zM632 1634l290 270h148l-308 -270h-130z" />
    <glyph glyph-name="Ecircumflex" unicode="&#xca;" horiz-adv-x="1472" 
d="M368 700l-101 -600h1093v-100h-1220l126 750l-126 750h1210v-100h-1083l101 -600h942v-100h-942zM816 1904l286 -270h-120l-234 193l-234 -193h-120l286 270h136z" />
    <glyph glyph-name="Edieresis" unicode="&#xcb;" horiz-adv-x="1472" 
d="M368 700l-101 -600h1093v-100h-1220l126 750l-126 750h1210v-100h-1083l101 -600h942v-100h-942zM377 1718.5q-29 28.5 -29 69.5t29 69.5t71 28.5t71 -28.5t29 -69.5t-29 -69.5t-71 -28.5t-71 28.5zM977 1718.5q-29 28.5 -29 69.5t29 69.5t71 28.5t71 -28.5t29 -69.5
t-29 -69.5t-71 -28.5t-71 28.5z" />
    <glyph glyph-name="Igrave" unicode="&#xcc;" horiz-adv-x="500" 
d="M194 0v1500h112v-1500h-112zM-98 1904h148l290 -270h-130z" />
    <glyph glyph-name="Iacute" unicode="&#xcd;" horiz-adv-x="500" 
d="M194 0v1500h112v-1500h-112zM134 1634l290 270h148l-308 -270h-130z" />
    <glyph glyph-name="Icircumflex" unicode="&#xce;" horiz-adv-x="500" 
d="M182 1904h136l230 -270h-120l-178 187l-178 -187h-120zM306 0h-112v1500h112v-1500z" />
    <glyph glyph-name="Idieresis" unicode="&#xcf;" horiz-adv-x="500" 
d="M13 1718.5q-29 28.5 -29 69.5t29 69.5t71 28.5t71 -28.5t29 -69.5t-29 -69.5t-71 -28.5t-71 28.5zM345 1718.5q-29 28.5 -29 69.5t29 69.5t71 28.5t71 -28.5t29 -69.5t-29 -69.5t-71 -28.5t-71 28.5zM194 0v1500h112v-1500h-112z" />
    <glyph glyph-name="Eth" unicode="&#xd0;" horiz-adv-x="1804" 
d="M874 1500q242 0 430 -95t292 -265t104 -390t-104 -390t-292 -265t-430 -95h-606v702h-228v100h228v698h606zM874 98q208 0 369 82.5t251 230.5t90 339t-90 339t-251 230.5t-369 82.5h-494v-600h490v-100h-490v-604h494z" />
    <glyph glyph-name="Ntilde" unicode="&#xd1;" horiz-adv-x="1798" 
d="M1496 121v1379h108v-1500h-146l-1156 1379v-1379h-108v1500h146zM520 1650q8 105 64.5 168.5t145.5 63.5q50 0 100 -19t124 -57q61 -31 97 -45.5t67 -14.5q48 0 78.5 35.5t39.5 100.5h92q-8 -105 -64.5 -168.5t-145.5 -63.5q-50 0 -100 19t-124 57q-61 31 -97 45.5
t-67 14.5q-48 0 -78.5 -35.5t-39.5 -100.5h-92z" />
    <glyph glyph-name="Ograve" unicode="&#xd2;" horiz-adv-x="1860" 
d="M500 74q-188 98 -292 273.5t-104 402.5t104 402.5t292 273.5t430 98t430 -98t292 -273.5t104 -402.5t-104 -402.5t-292 -273.5t-430 -98t-430 98zM1304.5 162.5q160.5 82.5 248 234.5t87.5 353t-87.5 353t-248 234.5t-374.5 82.5t-374.5 -82.5t-248 -234.5t-87.5 -353
t87.5 -353t248 -234.5t374.5 -82.5t374.5 82.5zM582 1904h148l290 -270h-130z" />
    <glyph glyph-name="Oacute" unicode="&#xd3;" horiz-adv-x="1860" 
d="M500 74q-188 98 -292 273.5t-104 402.5t104 402.5t292 273.5t430 98t430 -98t292 -273.5t104 -402.5t-104 -402.5t-292 -273.5t-430 -98t-430 98zM1304.5 162.5q160.5 82.5 248 234.5t87.5 353t-87.5 353t-248 234.5t-374.5 82.5t-374.5 -82.5t-248 -234.5t-87.5 -353
t87.5 -353t248 -234.5t374.5 -82.5t374.5 82.5zM814 1634l290 270h148l-308 -270h-130z" />
    <glyph glyph-name="Ocircumflex" unicode="&#xd4;" horiz-adv-x="1860" 
d="M500 74q-188 98 -292 273.5t-104 402.5t104 402.5t292 273.5t430 98t430 -98t292 -273.5t104 -402.5t-104 -402.5t-292 -273.5t-430 -98t-430 98zM1304.5 162.5q160.5 82.5 248 234.5t87.5 353t-87.5 353t-248 234.5t-374.5 82.5t-374.5 -82.5t-248 -234.5t-87.5 -353
t87.5 -353t248 -234.5t374.5 -82.5t374.5 82.5zM998 1904l286 -270h-120l-234 193l-234 -193h-120l286 270h136z" />
    <glyph glyph-name="Otilde" unicode="&#xd5;" horiz-adv-x="1860" 
d="M500 74q-188 98 -292 273.5t-104 402.5t104 402.5t292 273.5t430 98t430 -98t292 -273.5t104 -402.5t-104 -402.5t-292 -273.5t-430 -98t-430 98zM1304.5 162.5q160.5 82.5 248 234.5t87.5 353t-87.5 353t-248 234.5t-374.5 82.5t-374.5 -82.5t-248 -234.5t-87.5 -353
t87.5 -353t248 -234.5t374.5 -82.5t374.5 82.5zM526 1650q8 105 64.5 168.5t145.5 63.5q50 0 100 -19t124 -57q61 -31 97 -45.5t67 -14.5q48 0 78.5 35.5t39.5 100.5h92q-8 -105 -64.5 -168.5t-145.5 -63.5q-50 0 -100 19t-124 57q-61 31 -97 45.5t-67 14.5
q-48 0 -78.5 -35.5t-39.5 -100.5h-92z" />
    <glyph glyph-name="Odieresis" unicode="&#xd6;" horiz-adv-x="1860" 
d="M500 74q-188 98 -292 273.5t-104 402.5t104 402.5t292 273.5t430 98t430 -98t292 -273.5t104 -402.5t-104 -402.5t-292 -273.5t-430 -98t-430 98zM1304.5 162.5q160.5 82.5 248 234.5t87.5 353t-87.5 353t-248 234.5t-374.5 82.5t-374.5 -82.5t-248 -234.5t-87.5 -353
t87.5 -353t248 -234.5t374.5 -82.5t374.5 82.5zM559 1718.5q-29 28.5 -29 69.5t29 69.5t71 28.5t71 -28.5t29 -69.5t-29 -69.5t-71 -28.5t-71 28.5zM1159 1718.5q-29 28.5 -29 69.5t29 69.5t71 28.5t71 -28.5t29 -69.5t-29 -69.5t-71 -28.5t-71 28.5z" />
    <glyph glyph-name="multiply" unicode="&#xd7;" horiz-adv-x="1240" 
d="M982 1126l70 -71l-360 -360l360 -361l-70 -71l-361 361l-361 -361l-70 71l361 361l-361 360l70 71l361 -361z" />
    <glyph glyph-name="Oslash" unicode="&#xd8;" horiz-adv-x="1860" 
d="M1523 1313q112 -104 172.5 -248t60.5 -315q0 -227 -104 -402.5t-292 -273.5t-430 -98q-150 0 -280.5 38.5t-234.5 110.5l-135 -145h-136l193 207q-112 104 -172.5 248t-60.5 315q0 227 104 402.5t292 273.5t430 98q150 0 280.5 -38.5t234.5 -110.5l135 145h136z
M269 476.5q49 -123.5 141 -211.5l962 1032q-88 60 -199.5 91.5t-242.5 31.5q-214 0 -374.5 -82.5t-248 -234.5t-87.5 -353q0 -150 49 -273.5zM1304.5 162.5q160.5 82.5 248 234.5t87.5 353q0 150 -49 273.5t-141 211.5l-962 -1032q88 -60 199.5 -91.5t242.5 -31.5
q214 0 374.5 82.5z" />
    <glyph glyph-name="Ugrave" unicode="&#xd9;" horiz-adv-x="1688" 
d="M286 616q0 -161 69 -282.5t195 -187.5t294 -66t294 66t195 187.5t69 282.5v884h112v-884q0 -188 -84.5 -333.5t-236.5 -226t-349 -80.5t-349 80.5t-236.5 226t-84.5 333.5v884h112v-884zM496 1904h148l290 -270h-130z" />
    <glyph glyph-name="Uacute" unicode="&#xda;" horiz-adv-x="1688" 
d="M286 616q0 -161 69 -282.5t195 -187.5t294 -66t294 66t195 187.5t69 282.5v884h112v-884q0 -188 -84.5 -333.5t-236.5 -226t-349 -80.5t-349 80.5t-236.5 226t-84.5 333.5v884h112v-884zM728 1634l290 270h148l-308 -270h-130z" />
    <glyph glyph-name="Ucircumflex" unicode="&#xdb;" horiz-adv-x="1688" 
d="M286 616q0 -161 69 -282.5t195 -187.5t294 -66t294 66t195 187.5t69 282.5v884h112v-884q0 -188 -84.5 -333.5t-236.5 -226t-349 -80.5t-349 80.5t-236.5 226t-84.5 333.5v884h112v-884zM912 1904l286 -270h-120l-234 193l-234 -193h-120l286 270h136z" />
    <glyph glyph-name="Udieresis" unicode="&#xdc;" horiz-adv-x="1688" 
d="M286 616q0 -161 69 -282.5t195 -187.5t294 -66t294 66t195 187.5t69 282.5v884h112v-884q0 -188 -84.5 -333.5t-236.5 -226t-349 -80.5t-349 80.5t-236.5 226t-84.5 333.5v884h112v-884zM473 1718.5q-29 28.5 -29 69.5t29 69.5t71 28.5t71 -28.5t29 -69.5t-29 -69.5
t-71 -28.5t-71 28.5zM1073 1718.5q-29 28.5 -29 69.5t29 69.5t71 28.5t71 -28.5t29 -69.5t-29 -69.5t-71 -28.5t-71 28.5z" />
    <glyph glyph-name="Yacute" unicode="&#xdd;" horiz-adv-x="1640" 
d="M1452 1500h134l-710 -877v-623h-112v623l-714 877h134l637 -783zM702 1634l290 270h148l-308 -270h-130z" />
    <glyph glyph-name="Thorn" unicode="&#xde;" horiz-adv-x="1512" 
d="M938 1180q143 0 254 -53t172.5 -148.5t61.5 -218.5t-61.5 -218.5t-172.5 -148.5t-254 -53h-632v-340h-112v1500h112v-320h632zM940 440q111 0 195 39.5t129.5 112t45.5 168.5t-45.5 168.5t-129.5 112t-195 39.5h-634v-640h634z" />
    <glyph glyph-name="germandbls" unicode="&#xdf;" horiz-adv-x="1526" 
d="M1316 705q128 -108 128 -291q0 -125 -59.5 -224t-179 -156.5t-293.5 -57.5q-105 0 -216 22t-220 66v106q214 -92 426 -92q215 0 322.5 90t107.5 244q0 166 -143 264t-445 98h-112v96h94q127 0 218.5 37.5t139.5 104.5t48 154q0 90 -50 157t-141.5 103t-210.5 36
q-140 0 -244.5 -50.5t-161 -143.5t-56.5 -216v-1052h-108v1046q0 155 69 272.5t198 181.5t303 64q150 0 266.5 -47.5t181 -134.5t64.5 -202q0 -126 -76.5 -216t-216.5 -132q239 -19 367 -127z" />
    <glyph glyph-name="agrave" unicode="&#xe0;" horiz-adv-x="1492" 
d="M1354 1120l-46 -560l46 -560h-108l-28 337q-94 -170 -239.5 -265.5t-320.5 -95.5q-163 0 -292 74t-202.5 207t-73.5 303t73.5 303t202.5 207t292 74q175 0 320.5 -95.5t239.5 -265.5l28 337h108zM1000 207.5q150 129.5 240 352.5q-90 223 -240 352.5t-342 129.5
q-131 0 -235 -61t-162.5 -170.5t-58.5 -250.5t58.5 -250.5t162.5 -170.5t235 -61q192 0 342 129.5zM454 1564h122l234 -310h-118z" />
    <glyph glyph-name="aacute" unicode="&#xe1;" horiz-adv-x="1492" 
d="M1354 1120l-46 -560l46 -560h-108l-28 337q-94 -170 -239.5 -265.5t-320.5 -95.5q-163 0 -292 74t-202.5 207t-73.5 303t73.5 303t202.5 207t292 74q175 0 320.5 -95.5t239.5 -265.5l28 337h108zM1000 207.5q150 129.5 240 352.5q-90 223 -240 352.5t-342 129.5
q-131 0 -235 -61t-162.5 -170.5t-58.5 -250.5t58.5 -250.5t162.5 -170.5t235 -61q192 0 342 129.5zM630 1254l234 310h122l-238 -310h-118z" />
    <glyph glyph-name="acircumflex" unicode="&#xe2;" horiz-adv-x="1492" 
d="M1354 1120l-46 -560l46 -560h-108l-28 337q-94 -170 -239.5 -265.5t-320.5 -95.5q-163 0 -292 74t-202.5 207t-73.5 303t73.5 303t202.5 207t292 74q175 0 320.5 -95.5t239.5 -265.5l28 337h108zM1000 207.5q150 129.5 240 352.5q-90 223 -240 352.5t-342 129.5
q-131 0 -235 -61t-162.5 -170.5t-58.5 -250.5t58.5 -250.5t162.5 -170.5t235 -61q192 0 342 129.5zM788 1564l286 -310h-120l-234 230l-234 -230h-120l286 310h136z" />
    <glyph glyph-name="atilde" unicode="&#xe3;" horiz-adv-x="1492" 
d="M1354 1120l-46 -560l46 -560h-108l-28 337q-94 -170 -239.5 -265.5t-320.5 -95.5q-163 0 -292 74t-202.5 207t-73.5 303t73.5 303t202.5 207t292 74q175 0 320.5 -95.5t239.5 -265.5l28 337h108zM1000 207.5q150 129.5 240 352.5q-90 223 -240 352.5t-342 129.5
q-131 0 -235 -61t-162.5 -170.5t-58.5 -250.5t58.5 -250.5t162.5 -170.5t235 -61q192 0 342 129.5zM336 1310q8 105 64.5 168.5t145.5 63.5q45 0 89.5 -19t111.5 -57q53 -30 86 -45t61 -15q48 0 78.5 35.5t39.5 100.5h92q-8 -105 -64.5 -168.5t-145.5 -63.5q-45 0 -89.5 19
t-111.5 57q-53 30 -86 45t-61 15q-48 0 -78.5 -35.5t-39.5 -100.5h-92z" />
    <glyph glyph-name="adieresis" unicode="&#xe4;" horiz-adv-x="1492" 
d="M1354 1120l-46 -560l46 -560h-108l-28 337q-94 -170 -239.5 -265.5t-320.5 -95.5q-163 0 -292 74t-202.5 207t-73.5 303t73.5 303t202.5 207t292 74q175 0 320.5 -95.5t239.5 -265.5l28 337h108zM1000 207.5q150 129.5 240 352.5q-90 223 -240 352.5t-342 129.5
q-131 0 -235 -61t-162.5 -170.5t-58.5 -250.5t58.5 -250.5t162.5 -170.5t235 -61q192 0 342 129.5zM351 1338.5q-29 28.5 -29 69.5t29 69.5t71 28.5t71 -28.5t29 -69.5t-29 -69.5t-71 -28.5t-71 28.5zM947 1338.5q-29 28.5 -29 69.5t29 69.5t71 28.5t71 -28.5t29 -69.5
t-29 -69.5t-71 -28.5t-71 28.5z" />
    <glyph glyph-name="aring" unicode="&#xe5;" horiz-adv-x="1492" 
d="M1354 1120l-46 -560l46 -560h-108l-28 337q-94 -170 -239.5 -265.5t-320.5 -95.5q-163 0 -292 74t-202.5 207t-73.5 303t73.5 303t202.5 207t292 74q175 0 320.5 -95.5t239.5 -265.5l28 337h108zM1000 207.5q150 129.5 240 352.5q-90 223 -240 352.5t-342 129.5
q-131 0 -235 -61t-162.5 -170.5t-58.5 -250.5t58.5 -250.5t162.5 -170.5t235 -61q192 0 342 129.5zM586.5 1260q-57.5 26 -89 74t-31.5 110t31.5 110t89 74t133.5 26t133.5 -26t89 -74t31.5 -110t-31.5 -110t-89 -74t-133.5 -26t-133.5 26zM842.5 1351q43.5 33 43.5 93
t-43.5 93t-122.5 33t-122.5 -33t-43.5 -93t43.5 -93t122.5 -33t122.5 33z" />
    <glyph glyph-name="ae" unicode="&#xe6;" horiz-adv-x="2484" 
d="M1337 520q9 -133 76.5 -233t181.5 -154.5t261 -54.5q145 0 275 52t235 138v-102q-87 -76 -222 -133t-288 -57q-186 0 -328.5 81t-215.5 224l-4 -281h-90l-6 326q-95 -165 -238 -257.5t-316 -92.5q-163 0 -292 74t-202.5 207t-73.5 303t73.5 303t202.5 207t292 74
q173 0 316 -92.5t238 -257.5l6 326h90l4 -272q71 141 207 218.5t303 77.5q178 0 308.5 -81t200 -223t69.5 -320h-1063zM1000 207.5q150 129.5 240 352.5q-90 223 -240 352.5t-342 129.5q-131 0 -235 -61t-162.5 -170.5t-58.5 -250.5t58.5 -250.5t162.5 -170.5t235 -61
q192 0 342 129.5zM1583.5 989.5q-105.5 -52.5 -169.5 -148.5t-75 -225h944q-16 130 -76 226t-158.5 148t-226.5 52q-133 0 -238.5 -52.5z" />
    <glyph glyph-name="ccedilla" unicode="&#xe7;" horiz-adv-x="1378" 
d="M928 119q102 41 169 116t89 175h116q-23 -123 -101.5 -219t-199.5 -152t-266 -62l-59 -91q44 20 122 20q92 0 149 -42.5t57 -113.5q0 -52 -32.5 -91t-92 -61t-137.5 -22q-107 0 -189 44t-109 116h104q24 -37 73.5 -56.5t120.5 -19.5q79 0 118.5 24.5t39.5 65.5
q0 37 -35.5 57.5t-98.5 20.5q-84 0 -140 -30h-98l113 180q-163 12 -288 88.5t-194 204.5t-69 289q0 171 77.5 303.5t216.5 206.5t318 74q152 0 280.5 -54.5t212 -153t107.5 -226.5h-116q-23 100 -90.5 175t-169 116t-224.5 41q-151 0 -264 -59.5t-174.5 -168.5t-61.5 -254
t61.5 -254t174.5 -168.5t264 -59.5q124 0 226 41z" />
    <glyph glyph-name="egrave" unicode="&#xe8;" horiz-adv-x="1364" 
d="M202 544q4 -140 70.5 -245.5t185 -163t274.5 -57.5q143 0 273.5 50t242.5 140v-102q-103 -88 -243 -139t-273 -51q-188 0 -334 74t-227 206.5t-81 303.5t76.5 304t214 206.5t315.5 73.5q172 0 305 -75.5t207 -212t74 -312.5h-1080zM456.5 993q-104.5 -49 -169 -140
t-80.5 -213h958q-17 122 -79.5 213t-162.5 140t-227 49q-135 0 -239.5 -49zM420 1564h122l234 -310h-118z" />
    <glyph glyph-name="eacute" unicode="&#xe9;" horiz-adv-x="1364" 
d="M202 544q4 -140 70.5 -245.5t185 -163t274.5 -57.5q143 0 273.5 50t242.5 140v-102q-103 -88 -243 -139t-273 -51q-188 0 -334 74t-227 206.5t-81 303.5t76.5 304t214 206.5t315.5 73.5q172 0 305 -75.5t207 -212t74 -312.5h-1080zM456.5 993q-104.5 -49 -169 -140
t-80.5 -213h958q-17 122 -79.5 213t-162.5 140t-227 49q-135 0 -239.5 -49zM596 1254l234 310h122l-238 -310h-118z" />
    <glyph glyph-name="ecircumflex" unicode="&#xea;" horiz-adv-x="1364" 
d="M202 544q4 -140 70.5 -245.5t185 -163t274.5 -57.5q143 0 273.5 50t242.5 140v-102q-103 -88 -243 -139t-273 -51q-188 0 -334 74t-227 206.5t-81 303.5t76.5 304t214 206.5t315.5 73.5q172 0 305 -75.5t207 -212t74 -312.5h-1080zM456.5 993q-104.5 -49 -169 -140
t-80.5 -213h958q-17 122 -79.5 213t-162.5 140t-227 49q-135 0 -239.5 -49zM754 1564l286 -310h-120l-234 230l-234 -230h-120l286 310h136z" />
    <glyph glyph-name="edieresis" unicode="&#xeb;" horiz-adv-x="1364" 
d="M202 544q4 -140 70.5 -245.5t185 -163t274.5 -57.5q143 0 273.5 50t242.5 140v-102q-103 -88 -243 -139t-273 -51q-188 0 -334 74t-227 206.5t-81 303.5t76.5 304t214 206.5t315.5 73.5q172 0 305 -75.5t207 -212t74 -312.5h-1080zM456.5 993q-104.5 -49 -169 -140
t-80.5 -213h958q-17 122 -79.5 213t-162.5 140t-227 49q-135 0 -239.5 -49zM317 1338.5q-29 28.5 -29 69.5t29 69.5t71 28.5t71 -28.5t29 -69.5t-29 -69.5t-71 -28.5t-71 28.5zM913 1338.5q-29 28.5 -29 69.5t29 69.5t71 28.5t71 -28.5t29 -69.5t-29 -69.5t-71 -28.5
t-71 28.5z" />
    <glyph glyph-name="igrave" unicode="&#xec;" horiz-adv-x="428" 
d="M160 0v1120l54 -8l54 8v-1120h-108zM-52 1564h122l234 -310h-118z" />
    <glyph glyph-name="iacute" unicode="&#xed;" horiz-adv-x="428" 
d="M160 0v1120l54 -8l54 8v-1120h-108zM124 1254l234 310h122l-238 -310h-118z" />
    <glyph glyph-name="icircumflex" unicode="&#xee;" horiz-adv-x="428" 
d="M146 1564h136l230 -310h-120l-178 224l-178 -224h-120zM160 0v1120l54 -8l54 8v-1120h-108z" />
    <glyph glyph-name="idieresis" unicode="&#xef;" horiz-adv-x="428" 
d="M-23 1338.5q-29 28.5 -29 69.5t29 69.5t71 28.5t71 -28.5t29 -69.5t-29 -69.5t-71 -28.5t-71 28.5zM309 1338.5q-29 28.5 -29 69.5t29 69.5t71 28.5t71 -28.5t29 -69.5t-29 -69.5t-71 -28.5t-71 28.5zM160 0v1120l54 -8l54 8v-1120h-108z" />
    <glyph glyph-name="eth" unicode="&#xf0;" horiz-adv-x="1484" 
d="M1067 1266q325 -349 325 -706q0 -159 -70 -291.5t-214 -212.5t-356 -80q-199 0 -349 66t-231.5 184.5t-81.5 271.5q0 154 82 273.5t229 186t337 66.5q156 0 287.5 -52t238.5 -171q-54 123 -128.5 231.5t-176.5 212.5l-441 -87v92l362 71q-108 100 -276 223l122 20
q157 -116 265 -221l339 67v-92zM1020.5 130q121.5 52 187.5 147.5t66 222.5q0 124 -66.5 220t-188 149t-281.5 53q-161 0 -282.5 -52t-187.5 -147.5t-66 -222.5t66 -222.5t187.5 -147.5t282.5 -52t282.5 52z" />
    <glyph glyph-name="ntilde" unicode="&#xf1;" horiz-adv-x="1390" 
d="M1023 1082q109 -62 166 -181.5t57 -288.5v-612h-108v590q0 225 -102 340.5t-300 115.5q-136 0 -240 -62t-161 -173.5t-57 -256.5v-554h-108v778l-60 342h108l50 -301q62 152 191 238.5t301 86.5q154 0 263 -62zM324 1310q8 105 64.5 168.5t145.5 63.5q45 0 89.5 -19
t111.5 -57q53 -30 86 -45t61 -15q48 0 78.5 35.5t39.5 100.5h92q-8 -105 -64.5 -168.5t-145.5 -63.5q-45 0 -89.5 19t-111.5 57q-53 30 -86 45t-61 15q-48 0 -78.5 -35.5t-39.5 -100.5h-92z" />
    <glyph glyph-name="ograve" unicode="&#xf2;" horiz-adv-x="1472" 
d="M399 49.5q-147 73.5 -229 206.5t-82 304t82 304t229 206.5t337 73.5t337 -73.5t229 -206.5t82 -304t-82 -304t-229 -206.5t-337 -73.5t-337 73.5zM1018.5 137.5q121.5 59.5 187.5 168.5t66 254t-66 254t-187.5 168.5t-282.5 59.5t-282.5 -59.5t-187.5 -168.5t-66 -254
t66 -254t187.5 -168.5t282.5 -59.5t282.5 59.5zM470 1564h122l234 -310h-118z" />
    <glyph glyph-name="oacute" unicode="&#xf3;" horiz-adv-x="1472" 
d="M399 49.5q-147 73.5 -229 206.5t-82 304t82 304t229 206.5t337 73.5t337 -73.5t229 -206.5t82 -304t-82 -304t-229 -206.5t-337 -73.5t-337 73.5zM1018.5 137.5q121.5 59.5 187.5 168.5t66 254t-66 254t-187.5 168.5t-282.5 59.5t-282.5 -59.5t-187.5 -168.5t-66 -254
t66 -254t187.5 -168.5t282.5 -59.5t282.5 59.5zM646 1254l234 310h122l-238 -310h-118z" />
    <glyph glyph-name="ocircumflex" unicode="&#xf4;" horiz-adv-x="1472" 
d="M399 49.5q-147 73.5 -229 206.5t-82 304t82 304t229 206.5t337 73.5t337 -73.5t229 -206.5t82 -304t-82 -304t-229 -206.5t-337 -73.5t-337 73.5zM1018.5 137.5q121.5 59.5 187.5 168.5t66 254t-66 254t-187.5 168.5t-282.5 59.5t-282.5 -59.5t-187.5 -168.5t-66 -254
t66 -254t187.5 -168.5t282.5 -59.5t282.5 59.5zM804 1564l286 -310h-120l-234 230l-234 -230h-120l286 310h136z" />
    <glyph glyph-name="otilde" unicode="&#xf5;" horiz-adv-x="1472" 
d="M399 49.5q-147 73.5 -229 206.5t-82 304t82 304t229 206.5t337 73.5t337 -73.5t229 -206.5t82 -304t-82 -304t-229 -206.5t-337 -73.5t-337 73.5zM1018.5 137.5q121.5 59.5 187.5 168.5t66 254t-66 254t-187.5 168.5t-282.5 59.5t-282.5 -59.5t-187.5 -168.5t-66 -254
t66 -254t187.5 -168.5t282.5 -59.5t282.5 59.5zM352 1310q8 105 64.5 168.5t145.5 63.5q45 0 89.5 -19t111.5 -57q53 -30 86 -45t61 -15q48 0 78.5 35.5t39.5 100.5h92q-8 -105 -64.5 -168.5t-145.5 -63.5q-45 0 -89.5 19t-111.5 57q-53 30 -86 45t-61 15q-48 0 -78.5 -35.5
t-39.5 -100.5h-92z" />
    <glyph glyph-name="odieresis" unicode="&#xf6;" horiz-adv-x="1472" 
d="M399 49.5q-147 73.5 -229 206.5t-82 304t82 304t229 206.5t337 73.5t337 -73.5t229 -206.5t82 -304t-82 -304t-229 -206.5t-337 -73.5t-337 73.5zM1018.5 137.5q121.5 59.5 187.5 168.5t66 254t-66 254t-187.5 168.5t-282.5 59.5t-282.5 -59.5t-187.5 -168.5t-66 -254
t66 -254t187.5 -168.5t282.5 -59.5t282.5 59.5zM367 1338.5q-29 28.5 -29 69.5t29 69.5t71 28.5t71 -28.5t29 -69.5t-29 -69.5t-71 -28.5t-71 28.5zM963 1338.5q-29 28.5 -29 69.5t29 69.5t71 28.5t71 -28.5t29 -69.5t-29 -69.5t-71 -28.5t-71 28.5z" />
    <glyph glyph-name="divide" unicode="&#xf7;" horiz-adv-x="1240" 
d="M520 994q-32 32 -32 80t32 80t80 32t80 -32t32 -80t-32 -80t-80 -32t-80 32zM60 658v100h1120v-100h-1120zM520 262q-32 32 -32 80t32 80t80 32t80 -32t32 -80t-32 -80t-80 -32t-80 32z" />
    <glyph glyph-name="oslash" unicode="&#xf8;" horiz-adv-x="1472" 
d="M1193 992q92 -79 141.5 -189t49.5 -243q0 -171 -82 -304t-229 -206.5t-337 -73.5q-109 0 -204.5 24.5t-173.5 71.5l-120 -132h-130l171 188q-92 79 -141.5 189t-49.5 243q0 171 82 304t229 206.5t337 73.5q109 0 204.5 -24.5t173.5 -71.5l120 132h130zM238.5 360
q38.5 -90 111.5 -154l693 764q-131 72 -307 72q-161 0 -282.5 -59.5t-187.5 -168.5t-66 -254q0 -110 38.5 -200zM1018.5 137.5q121.5 59.5 187.5 168.5t66 254q0 110 -38.5 200t-111.5 154l-693 -764q131 -72 307 -72q161 0 282.5 59.5z" />
    <glyph glyph-name="ugrave" unicode="&#xf9;" horiz-adv-x="1368" 
d="M1258 0h-108l-52 308q-60 -156 -186 -244t-292 -88q-151 0 -258 62t-162.5 181.5t-55.5 288.5v612h108v-590q0 -225 100 -340.5t292 -115.5q132 0 233.5 62t157 173.5t55.5 256.5v554h108v-778zM406 1564h122l234 -310h-118z" />
    <glyph glyph-name="uacute" unicode="&#xfa;" horiz-adv-x="1368" 
d="M1258 0h-108l-52 308q-60 -156 -186 -244t-292 -88q-151 0 -258 62t-162.5 181.5t-55.5 288.5v612h108v-590q0 -225 100 -340.5t292 -115.5q132 0 233.5 62t157 173.5t55.5 256.5v554h108v-778zM582 1254l234 310h122l-238 -310h-118z" />
    <glyph glyph-name="ucircumflex" unicode="&#xfb;" horiz-adv-x="1368" 
d="M1258 0h-108l-52 308q-60 -156 -186 -244t-292 -88q-151 0 -258 62t-162.5 181.5t-55.5 288.5v612h108v-590q0 -225 100 -340.5t292 -115.5q132 0 233.5 62t157 173.5t55.5 256.5v554h108v-778zM740 1564l286 -310h-120l-234 230l-234 -230h-120l286 310h136z" />
    <glyph glyph-name="udieresis" unicode="&#xfc;" horiz-adv-x="1368" 
d="M1258 0h-108l-52 308q-60 -156 -186 -244t-292 -88q-151 0 -258 62t-162.5 181.5t-55.5 288.5v612h108v-590q0 -225 100 -340.5t292 -115.5q132 0 233.5 62t157 173.5t55.5 256.5v554h108v-778zM303 1338.5q-29 28.5 -29 69.5t29 69.5t71 28.5t71 -28.5t29 -69.5
t-29 -69.5t-71 -28.5t-71 28.5zM899 1338.5q-29 28.5 -29 69.5t29 69.5t71 28.5t71 -28.5t29 -69.5t-29 -69.5t-71 -28.5t-71 28.5z" />
    <glyph glyph-name="yacute" unicode="&#xfd;" horiz-adv-x="1344" 
d="M1198 1120h116l-644 -1258q-57 -110 -138 -163t-194 -53q-71 0 -127.5 17.5t-118.5 58.5v94q58 -37 114 -53.5t128 -16.5q87 0 148.5 40t103.5 124l64 126h-66l-550 1084h120l520 -1036zM584 1254l234 310h122l-238 -310h-118z" />
    <glyph glyph-name="thorn" unicode="&#xfe;" horiz-adv-x="1506" 
d="M1140 1070q129 -74 202.5 -207t73.5 -303t-73.5 -303t-202.5 -207t-292 -74q-185 0 -336.5 106.5t-243.5 292.5v-705h-108v1870h108v-795q92 186 243.5 292.5t336.5 106.5q163 0 292 -74zM1083 139q104 61 162.5 170.5t58.5 250.5t-58.5 250.5t-162.5 170.5t-235 61
q-192 0 -342 -129.5t-240 -352.5q90 -223 240 -352.5t342 -129.5q131 0 235 61z" />
    <glyph glyph-name="ydieresis" unicode="&#xff;" horiz-adv-x="1344" 
d="M1198 1120h116l-644 -1258q-57 -110 -138 -163t-194 -53q-71 0 -127.5 17.5t-118.5 58.5v94q58 -37 114 -53.5t128 -16.5q87 0 148.5 40t103.5 124l64 126h-66l-550 1084h120l520 -1036zM305 1338.5q-29 28.5 -29 69.5t29 69.5t71 28.5t71 -28.5t29 -69.5t-29 -69.5
t-71 -28.5t-71 28.5zM901 1338.5q-29 28.5 -29 69.5t29 69.5t71 28.5t71 -28.5t29 -69.5t-29 -69.5t-71 -28.5t-71 28.5z" />
    <glyph glyph-name="Amacron" unicode="&#x100;" horiz-adv-x="1684" 
d="M1656 0h-126l-200 400h-975l-201 -400h-126l758 1500h112zM843 1374l-438 -874h875zM1228 1702h-774v96h774v-96z" />
    <glyph glyph-name="amacron" unicode="&#x101;" horiz-adv-x="1492" 
d="M1354 1120l-46 -560l46 -560h-108l-28 337q-94 -170 -239.5 -265.5t-320.5 -95.5q-163 0 -292 74t-202.5 207t-73.5 303t73.5 303t202.5 207t292 74q175 0 320.5 -95.5t239.5 -265.5l28 337h108zM1000 207.5q150 129.5 240 352.5q-90 223 -240 352.5t-342 129.5
q-131 0 -235 -61t-162.5 -170.5t-58.5 -250.5t58.5 -250.5t162.5 -170.5t235 -61q192 0 342 129.5zM1106 1362h-774v96h774v-96z" />
    <glyph glyph-name="Abreve" unicode="&#x102;" horiz-adv-x="1684" 
d="M1656 0h-126l-200 400h-975l-201 -400h-126l758 1500h112zM843 1374l-438 -874h875zM592 1904q20 -90 82.5 -138t167.5 -48t167.5 48t82.5 138h102q-24 -130 -118 -203t-234 -73t-234 73t-118 203h102z" />
    <glyph glyph-name="abreve" unicode="&#x103;" horiz-adv-x="1492" 
d="M1354 1120l-46 -560l46 -560h-108l-28 337q-94 -170 -239.5 -265.5t-320.5 -95.5q-163 0 -292 74t-202.5 207t-73.5 303t73.5 303t202.5 207t292 74q175 0 320.5 -95.5t239.5 -265.5l28 337h108zM1000 207.5q150 129.5 240 352.5q-90 223 -240 352.5t-342 129.5
q-131 0 -235 -61t-162.5 -170.5t-58.5 -250.5t58.5 -250.5t162.5 -170.5t235 -61q192 0 342 129.5zM470 1560q19 -103 85 -160.5t165 -57.5t165 57.5t85 160.5h102q-17 -146 -109.5 -227t-242.5 -81t-242.5 81t-109.5 227h102z" />
    <glyph glyph-name="Aogonek" unicode="&#x104;" horiz-adv-x="1684" 
d="M1401 -251.5q43 -20.5 127 -20.5q74 0 128 12v-84q-26 -8 -66.5 -13t-79.5 -5q-116 0 -186 41t-70 111q0 69 63 126t202 105l-189 379h-975l-201 -400h-126l758 1500h112l758 -1500q-139 -45 -218.5 -90.5t-79.5 -99.5q0 -41 43 -61.5zM843 1374l-438 -874h875z" />
    <glyph glyph-name="aogonek" unicode="&#x105;" horiz-adv-x="1492" 
d="M1354 0q-139 -45 -218.5 -90.5t-79.5 -99.5q0 -41 43 -61.5t127 -20.5q74 0 128 12v-84q-26 -8 -66.5 -13t-79.5 -5q-116 0 -186 41t-70 111q0 72 69 131.5t223 108.5l-26 307q-94 -170 -239.5 -265.5t-320.5 -95.5q-163 0 -292 74t-202.5 207t-73.5 303t73.5 303
t202.5 207t292 74q175 0 320.5 -95.5t239.5 -265.5l28 337h108l-46 -560zM1000 207.5q150 129.5 240 352.5q-90 223 -240 352.5t-342 129.5q-131 0 -235 -61t-162.5 -170.5t-58.5 -250.5t58.5 -250.5t162.5 -170.5t235 -61q192 0 342 129.5z" />
    <glyph glyph-name="Cacute" unicode="&#x106;" horiz-adv-x="1784" 
d="M1694 560q-20 -172 -123 -304.5t-271.5 -206t-377.5 -73.5q-241 0 -426.5 97.5t-287.5 273.5t-102 403t102 403t287.5 273.5t426.5 97.5q209 0 377.5 -73.5t271.5 -206t123 -304.5h-116q-24 145 -112 253.5t-229 167.5t-319 59q-209 0 -366.5 -82.5t-243.5 -234.5
t-86 -353t86 -353t243.5 -234.5t366.5 -82.5q178 0 319 59t229 167.5t112 253.5h116zM784 1634l290 270h148l-308 -270h-130z" />
    <glyph glyph-name="cacute" unicode="&#x107;" horiz-adv-x="1378" 
d="M1302 410q-24 -128 -107.5 -226.5t-212 -153t-280.5 -54.5q-179 0 -318 74t-216.5 206.5t-77.5 303.5t77.5 303.5t216.5 206.5t318 74q152 0 280.5 -54.5t212 -153t107.5 -226.5h-116q-23 100 -90.5 175t-169 116t-224.5 41q-151 0 -264 -59.5t-174.5 -168.5t-61.5 -254
t61.5 -254t174.5 -168.5t264 -59.5q124 0 226 41t169 116t89 175h116zM614 1254l234 310h122l-238 -310h-118z" />
    <glyph glyph-name="Ccircumflex" unicode="&#x108;" horiz-adv-x="1784" 
d="M1694 560q-20 -172 -123 -304.5t-271.5 -206t-377.5 -73.5q-241 0 -426.5 97.5t-287.5 273.5t-102 403t102 403t287.5 273.5t426.5 97.5q209 0 377.5 -73.5t271.5 -206t123 -304.5h-116q-24 145 -112 253.5t-229 167.5t-319 59q-209 0 -366.5 -82.5t-243.5 -234.5
t-86 -353t86 -353t243.5 -234.5t366.5 -82.5q178 0 319 59t229 167.5t112 253.5h116zM968 1904l286 -270h-120l-234 193l-234 -193h-120l286 270h136z" />
    <glyph glyph-name="ccircumflex" unicode="&#x109;" horiz-adv-x="1378" 
d="M1302 410q-24 -128 -107.5 -226.5t-212 -153t-280.5 -54.5q-179 0 -318 74t-216.5 206.5t-77.5 303.5t77.5 303.5t216.5 206.5t318 74q152 0 280.5 -54.5t212 -153t107.5 -226.5h-116q-23 100 -90.5 175t-169 116t-224.5 41q-151 0 -264 -59.5t-174.5 -168.5t-61.5 -254
t61.5 -254t174.5 -168.5t264 -59.5q124 0 226 41t169 116t89 175h116zM772 1564l286 -310h-120l-234 230l-234 -230h-120l286 310h136z" />
    <glyph glyph-name="Cdotaccent" unicode="&#x10a;" horiz-adv-x="1784" 
d="M1694 560q-20 -172 -123 -304.5t-271.5 -206t-377.5 -73.5q-241 0 -426.5 97.5t-287.5 273.5t-102 403t102 403t287.5 273.5t426.5 97.5q209 0 377.5 -73.5t271.5 -206t123 -304.5h-116q-24 145 -112 253.5t-229 167.5t-319 59q-209 0 -366.5 -82.5t-243.5 -234.5
t-86 -353t86 -353t243.5 -234.5t366.5 -82.5q178 0 319 59t229 167.5t112 253.5h116zM829 1718.5q-29 28.5 -29 69.5t29 69.5t71 28.5t71 -28.5t29 -69.5t-29 -69.5t-71 -28.5t-71 28.5z" />
    <glyph glyph-name="cdotaccent" unicode="&#x10b;" horiz-adv-x="1378" 
d="M1302 410q-24 -128 -107.5 -226.5t-212 -153t-280.5 -54.5q-179 0 -318 74t-216.5 206.5t-77.5 303.5t77.5 303.5t216.5 206.5t318 74q152 0 280.5 -54.5t212 -153t107.5 -226.5h-116q-23 100 -90.5 175t-169 116t-224.5 41q-151 0 -264 -59.5t-174.5 -168.5t-61.5 -254
t61.5 -254t174.5 -168.5t264 -59.5q124 0 226 41t169 116t89 175h116zM633 1338.5q-29 28.5 -29 69.5t29 69.5t71 28.5t71 -28.5t29 -69.5t-29 -69.5t-71 -28.5t-71 28.5z" />
    <glyph glyph-name="Ccaron" unicode="&#x10c;" horiz-adv-x="1784" 
d="M1694 560q-20 -172 -123 -304.5t-271.5 -206t-377.5 -73.5q-241 0 -426.5 97.5t-287.5 273.5t-102 403t102 403t287.5 273.5t426.5 97.5q209 0 377.5 -73.5t271.5 -206t123 -304.5h-116q-24 145 -112 253.5t-229 167.5t-319 59q-209 0 -366.5 -82.5t-243.5 -234.5
t-86 -353t86 -353t243.5 -234.5t366.5 -82.5q178 0 319 59t229 167.5t112 253.5h116zM900 1711l234 193h120l-286 -270h-136l-286 270h120z" />
    <glyph glyph-name="ccaron" unicode="&#x10d;" horiz-adv-x="1378" 
d="M1302 410q-24 -128 -107.5 -226.5t-212 -153t-280.5 -54.5q-179 0 -318 74t-216.5 206.5t-77.5 303.5t77.5 303.5t216.5 206.5t318 74q152 0 280.5 -54.5t212 -153t107.5 -226.5h-116q-23 100 -90.5 175t-169 116t-224.5 41q-151 0 -264 -59.5t-174.5 -168.5t-61.5 -254
t61.5 -254t174.5 -168.5t264 -59.5q124 0 226 41t169 116t89 175h116zM704 1334l234 230h120l-286 -310h-136l-286 310h120z" />
    <glyph glyph-name="Dcaron" unicode="&#x10e;" horiz-adv-x="1730" 
d="M800 1500q242 0 430 -95t292 -265t104 -390t-104 -390t-292 -265t-430 -95h-606v1500h606zM800 98q208 0 369 82.5t251 230.5t90 339t-90 339t-251 230.5t-369 82.5h-494v-1304h494zM810 1711l234 193h120l-286 -270h-136l-286 270h120z" />
    <glyph glyph-name="dcaron" unicode="&#x10f;" horiz-adv-x="1492" 
d="M1394 1540l-86 -980l46 -560h-108l-28 337q-94 -170 -239.5 -265.5t-320.5 -95.5q-163 0 -292 74t-202.5 207t-73.5 303t73.5 303t202.5 207t292 74q177 0 323.5 -97.5t240.5 -269.5l66 763h106zM1000 207.5q150 129.5 240 352.5q-90 223 -240 352.5t-342 129.5
q-131 0 -235 -61t-162.5 -170.5t-58.5 -250.5t58.5 -250.5t162.5 -170.5t235 -61q192 0 342 129.5zM1466 1262l42 338h112l-56 -338h-98z" />
    <glyph glyph-name="Dcroat" unicode="&#x110;" horiz-adv-x="1804" 
d="M874 1500q242 0 430 -95t292 -265t104 -390t-104 -390t-292 -265t-430 -95h-606v702h-228v100h228v698h606zM874 98q208 0 369 82.5t251 230.5t90 339t-90 339t-251 230.5t-369 82.5h-494v-600h490v-100h-490v-604h494z" />
    <glyph glyph-name="dcroat" unicode="&#x111;" horiz-adv-x="1502" 
d="M1518 1368v-92h-176v-1276h-108v367q-92 -183 -242.5 -287t-333.5 -104q-163 0 -292 74t-202.5 207t-73.5 303t73.5 303t202.5 207t292 74q183 0 333.5 -104t242.5 -287v523h-674v92h674v172h108v-172h176zM1000 207.5q150 129.5 240 352.5q-90 223 -240 352.5
t-342 129.5q-131 0 -235 -61t-162.5 -170.5t-58.5 -250.5t58.5 -250.5t162.5 -170.5t235 -61q192 0 342 129.5z" />
    <glyph glyph-name="Emacron" unicode="&#x112;" horiz-adv-x="1472" 
d="M368 700l-101 -600h1093v-100h-1220l126 750l-126 750h1210v-100h-1083l101 -600h942v-100h-942zM1134 1702h-774v96h774v-96z" />
    <glyph glyph-name="emacron" unicode="&#x113;" horiz-adv-x="1364" 
d="M202 544q4 -140 70.5 -245.5t185 -163t274.5 -57.5q143 0 273.5 50t242.5 140v-102q-103 -88 -243 -139t-273 -51q-188 0 -334 74t-227 206.5t-81 303.5t76.5 304t214 206.5t315.5 73.5q172 0 305 -75.5t207 -212t74 -312.5h-1080zM456.5 993q-104.5 -49 -169 -140
t-80.5 -213h958q-17 122 -79.5 213t-162.5 140t-227 49q-135 0 -239.5 -49zM1072 1362h-774v96h774v-96z" />
    <glyph glyph-name="Ebreve" unicode="&#x114;" horiz-adv-x="1472" 
d="M368 700l-101 -600h1093v-100h-1220l126 750l-126 750h1210v-100h-1083l101 -600h942v-100h-942zM498 1904q20 -90 82.5 -138t167.5 -48t167.5 48t82.5 138h102q-24 -130 -118 -203t-234 -73t-234 73t-118 203h102z" />
    <glyph glyph-name="ebreve" unicode="&#x115;" horiz-adv-x="1364" 
d="M202 544q4 -140 70.5 -245.5t185 -163t274.5 -57.5q143 0 273.5 50t242.5 140v-102q-103 -88 -243 -139t-273 -51q-188 0 -334 74t-227 206.5t-81 303.5t76.5 304t214 206.5t315.5 73.5q172 0 305 -75.5t207 -212t74 -312.5h-1080zM456.5 993q-104.5 -49 -169 -140
t-80.5 -213h958q-17 122 -79.5 213t-162.5 140t-227 49q-135 0 -239.5 -49zM436 1560q19 -103 85 -160.5t165 -57.5t165 57.5t85 160.5h102q-17 -146 -109.5 -227t-242.5 -81t-242.5 81t-109.5 227h102z" />
    <glyph glyph-name="Edotaccent" unicode="&#x116;" horiz-adv-x="1472" 
d="M368 700l-101 -600h1093v-100h-1220l126 750l-126 750h1210v-100h-1083l101 -600h942v-100h-942zM677 1718.5q-29 28.5 -29 69.5t29 69.5t71 28.5t71 -28.5t29 -69.5t-29 -69.5t-71 -28.5t-71 28.5z" />
    <glyph glyph-name="edotaccent" unicode="&#x117;" horiz-adv-x="1364" 
d="M202 544q4 -140 70.5 -245.5t185 -163t274.5 -57.5q143 0 273.5 50t242.5 140v-102q-103 -88 -243 -139t-273 -51q-188 0 -334 74t-227 206.5t-81 303.5t76.5 304t214 206.5t315.5 73.5q172 0 305 -75.5t207 -212t74 -312.5h-1080zM456.5 993q-104.5 -49 -169 -140
t-80.5 -213h958q-17 122 -79.5 213t-162.5 140t-227 49q-135 0 -239.5 -49zM615 1338.5q-29 28.5 -29 69.5t29 69.5t71 28.5t71 -28.5t29 -69.5t-29 -69.5t-71 -28.5t-71 28.5z" />
    <glyph glyph-name="Eogonek" unicode="&#x118;" horiz-adv-x="1472" 
d="M1360 0q-139 -45 -218.5 -90.5t-79.5 -99.5q0 -41 43 -61.5t127 -20.5q74 0 128 12v-84q-26 -8 -66.5 -13t-79.5 -5q-116 0 -186 41t-70 111q0 61 50 113.5t159 96.5h-1027l126 750l-126 750h1210v-100h-1083l101 -600h942v-100h-942l-101 -600h1093v-100z" />
    <glyph glyph-name="eogonek" unicode="&#x119;" horiz-adv-x="1364" 
d="M884.5 -315.5q-68.5 46.5 -68.5 125.5q0 98 120 194q-106 -28 -204 -28q-188 0 -334 74t-227 206.5t-81 303.5t76.5 304t214 206.5t315.5 73.5q172 0 305 -75.5t207 -212t74 -312.5h-1080q4 -140 70.5 -245.5t185.5 -163t274 -57.5q143 0 273.5 50t242.5 140v-102
q-26 -21 -122 -86q-100 -68 -153 -128t-53 -122q0 -50 42 -76t124 -26q74 0 128 12v-84q-26 -8 -66.5 -13t-79.5 -5q-115 0 -183.5 46.5zM1164 640q-17 122 -79.5 213t-162 140t-226.5 49q-135 0 -239.5 -49t-168.5 -140t-80 -213h956z" />
    <glyph glyph-name="Ecaron" unicode="&#x11a;" horiz-adv-x="1472" 
d="M368 700l-101 -600h1093v-100h-1220l126 750l-126 750h1210v-100h-1083l101 -600h942v-100h-942zM748 1711l234 193h120l-286 -270h-136l-286 270h120z" />
    <glyph glyph-name="ecaron" unicode="&#x11b;" horiz-adv-x="1364" 
d="M202 544q4 -140 70.5 -245.5t185 -163t274.5 -57.5q143 0 273.5 50t242.5 140v-102q-103 -88 -243 -139t-273 -51q-188 0 -334 74t-227 206.5t-81 303.5t76.5 304t214 206.5t315.5 73.5q172 0 305 -75.5t207 -212t74 -312.5h-1080zM456.5 993q-104.5 -49 -169 -140
t-80.5 -213h958q-17 122 -79.5 213t-162.5 140t-227 49q-135 0 -239.5 -49zM686 1334l234 230h120l-286 -310h-136l-286 310h120z" />
    <glyph glyph-name="Gcircumflex" unicode="&#x11c;" horiz-adv-x="1840" 
d="M1016 704h692v-704h-96l-4 383q-53 -122 -152.5 -214t-236 -142.5t-297.5 -50.5q-239 0 -425 98t-289.5 274t-103.5 402q0 227 103.5 402.5t290.5 273.5t428 98q206 0 373.5 -73.5t269.5 -202.5t119 -290h-116q-25 138 -110.5 242.5t-224 162t-317.5 57.5
q-210 0 -368.5 -83t-245 -234.5t-86.5 -352.5t86.5 -353t245.5 -234.5t370 -82.5q187 0 333.5 67t235.5 186t109 271h-584v100zM984 1904l286 -270h-120l-234 193l-234 -193h-120l286 270h136z" />
    <glyph glyph-name="gcircumflex" unicode="&#x11d;" horiz-adv-x="1490" 
d="M1228 1120h108v-822q0 -217 -83.5 -363.5t-227 -217.5t-327.5 -71q-144 0 -265.5 41t-228.5 129v106q211 -174 488 -174q172 0 292.5 64t182 181t61.5 275v155q-49 -96 -138.5 -180t-208.5 -135.5t-251 -51.5q-150 0 -272.5 68.5t-194 192.5t-71.5 283t71.5 283
t194 192.5t272.5 68.5q132 0 251 -51.5t208.5 -135.5t138.5 -180v343zM968 263.5q145 105.5 266 336.5q-120 230 -265.5 336t-320.5 106q-140 0 -240 -57t-152 -157t-52 -228t52 -228t152 -157t240 -57q175 0 320 105.5zM798 1564l286 -310h-120l-234 230l-234 -230h-120
l286 310h136z" />
    <glyph glyph-name="Gbreve" unicode="&#x11e;" horiz-adv-x="1840" 
d="M1016 704h692v-704h-96l-4 383q-53 -122 -152.5 -214t-236 -142.5t-297.5 -50.5q-239 0 -425 98t-289.5 274t-103.5 402q0 227 103.5 402.5t290.5 273.5t428 98q206 0 373.5 -73.5t269.5 -202.5t119 -290h-116q-25 138 -110.5 242.5t-224 162t-317.5 57.5
q-210 0 -368.5 -83t-245 -234.5t-86.5 -352.5t86.5 -353t245.5 -234.5t370 -82.5q187 0 333.5 67t235.5 186t109 271h-584v100zM666 1904q20 -90 82.5 -138t167.5 -48t167.5 48t82.5 138h102q-24 -130 -118 -203t-234 -73t-234 73t-118 203h102z" />
    <glyph glyph-name="gbreve" unicode="&#x11f;" horiz-adv-x="1490" 
d="M1228 1120h108v-822q0 -217 -83.5 -363.5t-227 -217.5t-327.5 -71q-144 0 -265.5 41t-228.5 129v106q211 -174 488 -174q172 0 292.5 64t182 181t61.5 275v155q-49 -96 -138.5 -180t-208.5 -135.5t-251 -51.5q-150 0 -272.5 68.5t-194 192.5t-71.5 283t71.5 283
t194 192.5t272.5 68.5q132 0 251 -51.5t208.5 -135.5t138.5 -180v343zM968 263.5q145 105.5 266 336.5q-120 230 -265.5 336t-320.5 106q-140 0 -240 -57t-152 -157t-52 -228t52 -228t152 -157t240 -57q175 0 320 105.5zM480 1560q19 -103 85 -160.5t165 -57.5t165 57.5
t85 160.5h102q-17 -146 -109.5 -227t-242.5 -81t-242.5 81t-109.5 227h102z" />
    <glyph glyph-name="Gdotaccent" unicode="&#x120;" horiz-adv-x="1840" 
d="M1016 704h692v-704h-96l-4 383q-53 -122 -152.5 -214t-236 -142.5t-297.5 -50.5q-239 0 -425 98t-289.5 274t-103.5 402q0 227 103.5 402.5t290.5 273.5t428 98q206 0 373.5 -73.5t269.5 -202.5t119 -290h-116q-25 138 -110.5 242.5t-224 162t-317.5 57.5
q-210 0 -368.5 -83t-245 -234.5t-86.5 -352.5t86.5 -353t245.5 -234.5t370 -82.5q187 0 333.5 67t235.5 186t109 271h-584v100zM845 1718.5q-29 28.5 -29 69.5t29 69.5t71 28.5t71 -28.5t29 -69.5t-29 -69.5t-71 -28.5t-71 28.5z" />
    <glyph glyph-name="gdotaccent" unicode="&#x121;" horiz-adv-x="1490" 
d="M1228 1120h108v-822q0 -217 -83.5 -363.5t-227 -217.5t-327.5 -71q-144 0 -265.5 41t-228.5 129v106q211 -174 488 -174q172 0 292.5 64t182 181t61.5 275v155q-49 -96 -138.5 -180t-208.5 -135.5t-251 -51.5q-150 0 -272.5 68.5t-194 192.5t-71.5 283t71.5 283
t194 192.5t272.5 68.5q132 0 251 -51.5t208.5 -135.5t138.5 -180v343zM968 263.5q145 105.5 266 336.5q-120 230 -265.5 336t-320.5 106q-140 0 -240 -57t-152 -157t-52 -228t52 -228t152 -157t240 -57q175 0 320 105.5zM659 1338.5q-29 28.5 -29 69.5t29 69.5t71 28.5
t71 -28.5t29 -69.5t-29 -69.5t-71 -28.5t-71 28.5z" />
    <glyph glyph-name="uni0122" unicode="&#x122;" horiz-adv-x="1840" 
d="M1016 704h692v-704h-96l-4 383q-53 -122 -152.5 -214t-236 -142.5t-297.5 -50.5q-239 0 -425 98t-289.5 274t-103.5 402q0 227 103.5 402.5t290.5 273.5t428 98q206 0 373.5 -73.5t269.5 -202.5t119 -290h-116q-25 138 -110.5 242.5t-224 162t-317.5 57.5
q-210 0 -368.5 -83t-245 -234.5t-86.5 -352.5t86.5 -353t245.5 -234.5t370 -82.5q187 0 333.5 67t235.5 186t109 271h-584v100zM988 -128q24 -28 24 -68q0 -28 -12 -57.5t-44 -90.5l-46 -88h-84l70 156q-32 6 -52 30t-20 54q0 39 25 65.5t67 26.5q48 0 72 -28z" />
    <glyph glyph-name="uni0123" unicode="&#x123;" horiz-adv-x="1490" 
d="M1228 1120h108v-822q0 -217 -83.5 -363.5t-227 -217.5t-327.5 -71q-144 0 -265.5 41t-228.5 129v106q211 -174 488 -174q172 0 292.5 64t182 181t61.5 275v155q-49 -96 -138.5 -180t-208.5 -135.5t-251 -51.5q-150 0 -272.5 68.5t-194 192.5t-71.5 283t71.5 283
t194 192.5t272.5 68.5q132 0 251 -51.5t208.5 -135.5t138.5 -180v343zM968 263.5q145 105.5 266 336.5q-120 230 -265.5 336t-320.5 106q-140 0 -240 -57t-152 -157t-52 -228t52 -228t152 -157t240 -57q175 0 320 105.5zM752 1428q32 -6 52 -30t20 -54q0 -39 -25 -65.5
t-67 -26.5q-48 0 -72 28t-24 68q0 28 12 57.5t44 90.5l46 88h84z" />
    <glyph glyph-name="Hcircumflex" unicode="&#x124;" horiz-adv-x="1760" 
d="M1454 800v700h112v-1500h-112v700h-1148v-700h-112v1500h112v-700h1148zM948 1904l286 -270h-120l-234 193l-234 -193h-120l286 270h136z" />
    <glyph glyph-name="hcircumflex" unicode="&#x125;" horiz-adv-x="1378" 
d="M1011 1082q109 -62 166 -181.5t57 -288.5v-612h-108v590q0 225 -102 340.5t-300 115.5q-135 0 -238.5 -62t-160.5 -173.5t-57 -256.5v-554h-108v1540h108v-698q64 142 190 222t290 80q154 0 263 -62zM796 1984l286 -310h-120l-234 230l-234 -230h-120l286 310h136z" />
    <glyph glyph-name="Hbar" unicode="&#x126;" horiz-adv-x="1796" 
d="M1584 1262h168v-100h-168v-1162h-112v696h-1148v-696h-112v1162h-168v100h168v238h112v-238h1148v238h112v-238zM324 796h1148v366h-1148v-366z" />
    <glyph glyph-name="hbar" unicode="&#x127;" horiz-adv-x="1378" 
d="M1011 1082q109 -62 166 -181.5t57 -288.5v-612h-108v590q0 225 -102 340.5t-300 115.5q-135 0 -238.5 -62t-160.5 -173.5t-57 -256.5v-554h-108v1276h-176v92h176v172h108v-172h674v-92h-674v-445q64 147 190 230t290 83q154 0 263 -62z" />
    <glyph glyph-name="Itilde" unicode="&#x128;" horiz-adv-x="500" 
d="M-46 1656q8 105 53.5 168.5t116.5 63.5q43 0 75.5 -20t73.5 -58q35 -31 55.5 -44.5t43.5 -13.5q31 0 53 35.5t31 100.5h90q-8 -105 -53.5 -168.5t-116.5 -63.5q-43 0 -75.5 20t-73.5 58q-35 31 -55.5 44.5t-43.5 13.5q-31 0 -53 -35.5t-31 -100.5h-90zM194 0v1500h112
v-1500h-112z" />
    <glyph glyph-name="itilde" unicode="&#x129;" horiz-adv-x="428" 
d="M-92 1310q8 105 53.5 168.5t116.5 63.5q43 0 75.5 -20t73.5 -58q35 -31 55.5 -44.5t43.5 -13.5q31 0 53 35.5t31 100.5h90q-8 -105 -53.5 -168.5t-116.5 -63.5q-43 0 -75.5 20t-73.5 58q-35 31 -55.5 44.5t-43.5 13.5q-31 0 -53 -35.5t-31 -100.5h-90zM160 0v1120l54 -8
l54 8v-1120h-108z" />
    <glyph glyph-name="Imacron" unicode="&#x12a;" horiz-adv-x="500" 
d="M546 1702h-592v98h592v-98zM194 0v1500h112v-1500h-112z" />
    <glyph glyph-name="imacron" unicode="&#x12b;" horiz-adv-x="428" 
d="M510 1362h-592v96h592v-96zM160 0v1120l54 -8l54 8v-1120h-108z" />
    <glyph glyph-name="Ibreve" unicode="&#x12c;" horiz-adv-x="500" 
d="M40 1904q18 -91 71 -138.5t139 -47.5t139 47.5t71 138.5h92q-17 -131 -96 -203.5t-206 -72.5t-206 72.5t-96 203.5h92zM194 0v1500h112v-1500h-112z" />
    <glyph glyph-name="ibreve" unicode="&#x12d;" horiz-adv-x="428" 
d="M14 1560q17 -106 67.5 -162t132.5 -56t132.5 56t67.5 162h92q-17 -146 -93 -227t-199 -81t-199 81t-93 227h92zM160 0v1120l54 -8l54 8v-1120h-108z" />
    <glyph glyph-name="Iogonek" unicode="&#x12e;" horiz-adv-x="500" 
d="M336.5 -269q36.5 3 57.5 9v-84q-21 -8 -59.5 -13t-74.5 -5q-99 0 -158.5 44t-59.5 118q0 59 39 108.5t113 96.5v1495h112v-1500q-58 -36 -91.5 -61.5t-55 -56t-21.5 -66.5q0 -88 134 -88q28 0 64.5 3z" />
    <glyph glyph-name="iogonek" unicode="&#x12f;" horiz-adv-x="430" 
d="M145 1338.5q-29 28.5 -29 69.5t29 69.5t71 28.5t71 -28.5t29 -69.5t-29 -69.5t-71 -28.5t-71 28.5zM330 -260v-84q-26 -8 -66.5 -13t-79.5 -5q-91 0 -148.5 41t-57.5 111q0 45 18.5 80.5t57.5 70t108 79.5v1100l54 -8l54 8v-1120q-90 -51 -139 -94t-49 -96q0 -82 120 -82
q74 0 128 12z" />
    <glyph glyph-name="Idotaccent" unicode="&#x130;" horiz-adv-x="500" 
d="M194 0v1500h112v-1500h-112zM179 1718.5q-29 28.5 -29 69.5t29 69.5t71 28.5t71 -28.5t29 -69.5t-29 -69.5t-71 -28.5t-71 28.5z" />
    <glyph glyph-name="dotlessi" unicode="&#x131;" horiz-adv-x="428" 
d="M160 0v1120l54 -8l54 8v-1120h-108z" />
    <glyph glyph-name="IJ" unicode="&#x132;" horiz-adv-x="1586" 
d="M146 800v700h112v-700h-112zM146 658h112v-82q0 -241 128 -371.5t392 -130.5t391 129.5t127 372.5v924h112v-924q0 -206 -78.5 -340t-219.5 -197t-332 -63q-293 0 -462.5 147.5t-169.5 452.5v82z" />
    <glyph glyph-name="ij" unicode="&#x133;" horiz-adv-x="856" 
d="M143 1338.5q-29 28.5 -29 69.5t29 69.5t71 28.5t71 -28.5t29 -69.5t-29 -69.5t-71 -28.5t-71 28.5zM571 1338.5q-29 28.5 -29 69.5t29 69.5t71 28.5t71 -28.5t29 -69.5t-29 -69.5t-71 -28.5t-71 28.5zM160 0v1120l54 -8l54 8v-1120h-108zM588 -330v1450l54 -8l54 8v-1450
h-108z" />
    <glyph glyph-name="Jcircumflex" unicode="&#x134;" horiz-adv-x="1500" 
d="M1200 1904h136l230 -270h-120l-178 187l-178 -187h-120zM1212 1500h112v-884q0 -220 -78.5 -362.5t-219.5 -210t-332 -67.5t-332 67.5t-219.5 210t-78.5 362.5v82h110v-82q0 -257 128 -396.5t392 -139.5t391 138t127 398v884z" />
    <glyph glyph-name="jcircumflex" unicode="&#x135;" horiz-adv-x="428" 
d="M148 1564h136l230 -310h-120l-178 224l-178 -224h-120zM160 -330v1450l54 -8l54 8v-1450h-108z" />
    <glyph glyph-name="uni0136" unicode="&#x136;" horiz-adv-x="1592" 
d="M1006 853l568 -853h-132l-514 761l-640 -761h-94v1500h112v-1317l1112 1317h132zM918 -128q24 -28 24 -68q0 -28 -12 -57.5t-44 -90.5l-46 -88h-84l70 156q-32 6 -52 30t-20 54q0 39 25 65.5t67 26.5q48 0 72 -28z" />
    <glyph glyph-name="uni0137" unicode="&#x137;" horiz-adv-x="1254" 
d="M799 638l445 -638h-136l-382 551l-464 -551h-102v1540h108v-1378l804 958h132zM756 -128q24 -28 24 -68q0 -28 -12 -57.5t-44 -90.5l-46 -88h-84l70 156q-32 6 -52 30t-20 54q0 39 25 65.5t67 26.5q48 0 72 -28z" />
    <glyph glyph-name="kgreenlandic" unicode="&#x138;" horiz-adv-x="1254" 
d="M799 638l445 -638h-136l-382 551l-464 -551h-102v1120h108v-958l804 958h132z" />
    <glyph glyph-name="Lacute" unicode="&#x139;" horiz-adv-x="1420" 
d="M306 1500v-1400h1088v-100h-1200v1500h112zM134 1634l290 270h148l-308 -270h-130z" />
    <glyph glyph-name="lacute" unicode="&#x13a;" horiz-adv-x="428" 
d="M160 0v1540h108v-1540h-108zM124 1674l234 310h122l-238 -310h-118z" />
    <glyph glyph-name="uni013B" unicode="&#x13b;" horiz-adv-x="1420" 
d="M306 1500v-1400h1088v-100h-1200v1500h112zM888 -128q24 -28 24 -68q0 -28 -12 -57.5t-44 -90.5l-46 -88h-84l70 156q-32 6 -52 30t-20 54q0 39 25 65.5t67 26.5q48 0 72 -28z" />
    <glyph glyph-name="uni013C" unicode="&#x13c;" horiz-adv-x="428" 
d="M160 0v1540h108v-1540h-108zM288 -128q24 -28 24 -68q0 -28 -12 -57.5t-44 -90.5l-46 -88h-84l70 156q-32 6 -52 30t-20 54q0 39 25 65.5t67 26.5q48 0 72 -28z" />
    <glyph glyph-name="Lcaron" unicode="&#x13d;" horiz-adv-x="1422" 
d="M306 1500v-1400h1088v-100h-1200v1500h112zM756 1088l50 412h116l-68 -412h-98z" />
    <glyph glyph-name="lcaron" unicode="&#x13e;" horiz-adv-x="428" 
d="M160 0v1540h108v-1540h-108zM360 1262l42 338h112l-56 -338h-98z" />
    <glyph glyph-name="Ldot" unicode="&#x13f;" horiz-adv-x="1426" 
d="M306 1500v-1400h1088v-100h-1200v1500h112zM857 759.5q-33 33.5 -33 82.5q0 50 33 83t83 33q49 0 82.5 -33t33.5 -83q0 -49 -33.5 -82.5t-82.5 -33.5q-50 0 -83 33.5z" />
    <glyph glyph-name="ldot" unicode="&#x140;" horiz-adv-x="560" 
d="M160 0v1540h108v-1540h-108zM426 732q-28 28 -28 68q0 41 28 68.5t68 27.5q41 0 68.5 -27.5t27.5 -68.5q0 -40 -27.5 -68t-68.5 -28q-40 0 -68 28z" />
    <glyph glyph-name="Lslash" unicode="&#x141;" horiz-adv-x="1518" 
d="M404 747v-647h1088v-100h-1200v716l-228 -62v104l228 62v680h112v-649l576 157v-104z" />
    <glyph glyph-name="lslash" unicode="&#x142;" horiz-adv-x="622" 
d="M370 914l206 74v-104l-206 -74v-810h-108v772l-206 -74v104l206 74v664h108v-626z" />
    <glyph glyph-name="Nacute" unicode="&#x143;" horiz-adv-x="1798" 
d="M1496 121v1379h108v-1500h-146l-1156 1379v-1379h-108v1500h146zM808 1634l290 270h148l-308 -270h-130z" />
    <glyph glyph-name="nacute" unicode="&#x144;" horiz-adv-x="1390" 
d="M1023 1082q109 -62 166 -181.5t57 -288.5v-612h-108v590q0 225 -102 340.5t-300 115.5q-136 0 -240 -62t-161 -173.5t-57 -256.5v-554h-108v778l-60 342h108l50 -301q62 152 191 238.5t301 86.5q154 0 263 -62zM618 1254l234 310h122l-238 -310h-118z" />
    <glyph glyph-name="uni0145" unicode="&#x145;" horiz-adv-x="1798" 
d="M1496 121v1379h108v-1500h-146l-1156 1379v-1379h-108v1500h146zM974 -128q24 -28 24 -68q0 -28 -12 -57.5t-44 -90.5l-46 -88h-84l70 156q-32 6 -52 30t-20 54q0 39 25 65.5t67 26.5q48 0 72 -28z" />
    <glyph glyph-name="uni0146" unicode="&#x146;" horiz-adv-x="1390" 
d="M1023 1082q109 -62 166 -181.5t57 -288.5v-612h-108v590q0 225 -102 340.5t-300 115.5q-136 0 -240 -62t-161 -173.5t-57 -256.5v-554h-108v778l-60 342h108l50 -301q62 152 191 238.5t301 86.5q154 0 263 -62zM782 -128q24 -28 24 -68q0 -28 -12 -57.5t-44 -90.5
l-46 -88h-84l70 156q-32 6 -52 30t-20 54q0 39 25 65.5t67 26.5q48 0 72 -28z" />
    <glyph glyph-name="Ncaron" unicode="&#x147;" horiz-adv-x="1798" 
d="M1496 121v1379h108v-1500h-146l-1156 1379v-1379h-108v1500h146zM924 1711l234 193h120l-286 -270h-136l-286 270h120z" />
    <glyph glyph-name="ncaron" unicode="&#x148;" horiz-adv-x="1390" 
d="M1023 1082q109 -62 166 -181.5t57 -288.5v-612h-108v590q0 225 -102 340.5t-300 115.5q-136 0 -240 -62t-161 -173.5t-57 -256.5v-554h-108v778l-60 342h108l50 -301q62 152 191 238.5t301 86.5q154 0 263 -62zM708 1334l234 230h120l-286 -310h-136l-286 310h120z" />
    <glyph glyph-name="napostrophe" unicode="&#x149;" horiz-adv-x="1590" 
d="M165.5 1483.5q26.5 -28.5 26.5 -71.5q0 -32 -10 -65t-38 -87l-88 -168h-84l107 238q-33 7 -54 32t-21 58q0 39 27.5 65.5t66.5 26.5q41 0 67.5 -28.5zM1223 1082q109 -62 166 -181.5t57 -288.5v-612h-108v590q0 225 -102 340.5t-300 115.5q-136 0 -240 -62t-161 -173.5
t-57 -256.5v-554h-108v778l-60 342h108l50 -301q62 152 191 238.5t301 86.5q154 0 263 -62z" />
    <glyph glyph-name="Eng" unicode="&#x14a;" horiz-adv-x="1688" 
d="M1236.5 1455q133.5 -69 203.5 -202t70 -321v-932q0 -161 -92 -257.5t-296 -96.5q-98 0 -184 23.5t-134 54.5v104q69 -40 151 -60t167 -20q98 0 158 28.5t89 93t29 174.5v866q0 251 -130.5 380.5t-381.5 129.5q-174 0 -305.5 -63.5t-203 -178.5t-71.5 -264v-914h-112v1500
h112v-301q80 153 239 239t371 86q187 0 320.5 -69z" />
    <glyph glyph-name="eng" unicode="&#x14b;" horiz-adv-x="1390" 
d="M1023 1082q109 -62 166 -181.5t57 -288.5v-610q0 -162 -81 -259t-263 -97q-86 0 -161.5 23.5t-116.5 54.5v104q121 -80 278 -80q81 0 132.5 26t77.5 85.5t26 160.5v570q0 225 -102 340.5t-300 115.5q-136 0 -240 -62t-161 -173.5t-57 -256.5v-554h-108v778l-60 342h108
l50 -301q62 152 191 238.5t301 86.5q154 0 263 -62z" />
    <glyph glyph-name="Omacron" unicode="&#x14c;" horiz-adv-x="1860" 
d="M500 74q-188 98 -292 273.5t-104 402.5t104 402.5t292 273.5t430 98t430 -98t292 -273.5t104 -402.5t-104 -402.5t-292 -273.5t-430 -98t-430 98zM1304.5 162.5q160.5 82.5 248 234.5t87.5 353t-87.5 353t-248 234.5t-374.5 82.5t-374.5 -82.5t-248 -234.5t-87.5 -353
t87.5 -353t248 -234.5t374.5 -82.5t374.5 82.5zM1316 1702h-774v96h774v-96z" />
    <glyph glyph-name="omacron" unicode="&#x14d;" horiz-adv-x="1472" 
d="M399 49.5q-147 73.5 -229 206.5t-82 304t82 304t229 206.5t337 73.5t337 -73.5t229 -206.5t82 -304t-82 -304t-229 -206.5t-337 -73.5t-337 73.5zM1018.5 137.5q121.5 59.5 187.5 168.5t66 254t-66 254t-187.5 168.5t-282.5 59.5t-282.5 -59.5t-187.5 -168.5t-66 -254
t66 -254t187.5 -168.5t282.5 -59.5t282.5 59.5zM1122 1362h-774v96h774v-96z" />
    <glyph glyph-name="Obreve" unicode="&#x14e;" horiz-adv-x="1860" 
d="M500 74q-188 98 -292 273.5t-104 402.5t104 402.5t292 273.5t430 98t430 -98t292 -273.5t104 -402.5t-104 -402.5t-292 -273.5t-430 -98t-430 98zM1304.5 162.5q160.5 82.5 248 234.5t87.5 353t-87.5 353t-248 234.5t-374.5 82.5t-374.5 -82.5t-248 -234.5t-87.5 -353
t87.5 -353t248 -234.5t374.5 -82.5t374.5 82.5zM680 1904q20 -90 82.5 -138t167.5 -48t167.5 48t82.5 138h102q-24 -130 -118 -203t-234 -73t-234 73t-118 203h102z" />
    <glyph glyph-name="obreve" unicode="&#x14f;" horiz-adv-x="1472" 
d="M399 49.5q-147 73.5 -229 206.5t-82 304t82 304t229 206.5t337 73.5t337 -73.5t229 -206.5t82 -304t-82 -304t-229 -206.5t-337 -73.5t-337 73.5zM1018.5 137.5q121.5 59.5 187.5 168.5t66 254t-66 254t-187.5 168.5t-282.5 59.5t-282.5 -59.5t-187.5 -168.5t-66 -254
t66 -254t187.5 -168.5t282.5 -59.5t282.5 59.5zM486 1560q19 -103 85 -160.5t165 -57.5t165 57.5t85 160.5h102q-17 -146 -109.5 -227t-242.5 -81t-242.5 81t-109.5 227h102z" />
    <glyph glyph-name="Ohungarumlaut" unicode="&#x150;" horiz-adv-x="1860" 
d="M500 74q-188 98 -292 273.5t-104 402.5t104 402.5t292 273.5t430 98t430 -98t292 -273.5t104 -402.5t-104 -402.5t-292 -273.5t-430 -98t-430 98zM1304.5 162.5q160.5 82.5 248 234.5t87.5 353t-87.5 353t-248 234.5t-374.5 82.5t-374.5 -82.5t-248 -234.5t-87.5 -353
t87.5 -353t248 -234.5t374.5 -82.5t374.5 82.5zM686 1634l236 270h130l-242 -270h-124zM1036 1634l236 270h130l-242 -270h-124z" />
    <glyph glyph-name="ohungarumlaut" unicode="&#x151;" horiz-adv-x="1472" 
d="M399 49.5q-147 73.5 -229 206.5t-82 304t82 304t229 206.5t337 73.5t337 -73.5t229 -206.5t82 -304t-82 -304t-229 -206.5t-337 -73.5t-337 73.5zM1018.5 137.5q121.5 59.5 187.5 168.5t66 254t-66 254t-187.5 168.5t-282.5 59.5t-282.5 -59.5t-187.5 -168.5t-66 -254
t66 -254t187.5 -168.5t282.5 -59.5t282.5 59.5zM518 1254l210 310h122l-214 -310h-118zM828 1254l210 310h122l-214 -310h-118z" />
    <glyph glyph-name="OE" unicode="&#x152;" horiz-adv-x="2706" 
d="M930 0q-242 0 -430 95t-292 265t-104 390q0 221 99.5 391t282 264.5t424.5 94.5h1676v-100h-1056v-600h1016v-100h-1016v-602h1066v-98h-1666zM1418 98v1304h-488q-208 0 -369 -82.5t-251 -230.5t-90 -339t90 -339t251 -230.5t369 -82.5h488z" />
    <glyph glyph-name="oe" unicode="&#x153;" horiz-adv-x="2470" 
d="M1348 544q3 -140 67.5 -245.5t178.5 -163t264 -57.5q135 0 256 49t240 141v-102q-109 -89 -239.5 -139.5t-256.5 -50.5q-198 0 -347.5 87t-219.5 239q-72 -152 -222.5 -239t-350.5 -87q-184 0 -326.5 73.5t-222 206.5t-79.5 304t79.5 304t222 206.5t326.5 73.5
q199 0 349 -86t222 -236q68 150 207.5 236t325.5 86q166 0 294.5 -75.5t200 -212t71.5 -312.5h-1040zM990 137.5q117 59.5 180.5 168.5t63.5 254t-63.5 254t-180.5 168.5t-272 59.5t-272 -59.5t-180.5 -168.5t-63.5 -254t63.5 -254t180.5 -168.5t272 -59.5t272 59.5z
M1592.5 993q-100.5 -49 -162.5 -140t-77 -213h918q-17 122 -77 213t-155.5 140t-216.5 49q-129 0 -229.5 -49z" />
    <glyph glyph-name="Racute" unicode="&#x154;" horiz-adv-x="1530" 
d="M1298 0l-619 660h-373v-660h-112v1500h744q143 0 254 -53t172.5 -148.5t61.5 -218.5t-61.5 -218.5t-172.5 -148.5t-254 -53h-107l619 -660h-152zM306 1400v-640h642q110 0 193 39.5t128 112t45 168.5t-45 168.5t-128 112t-193 39.5h-642zM640 1634l290 270h148l-308 -270
h-130z" />
    <glyph glyph-name="racute" unicode="&#x155;" horiz-adv-x="924" 
d="M825.5 1137.5q47.5 -6.5 76.5 -17.5v-106q-31 12 -81 19t-99 7q-130 0 -230.5 -61.5t-157 -172t-56.5 -252.5v-554h-108v782l-60 338h108l49 -294q34 97 101 169t160 110.5t204 38.5q46 0 93.5 -6.5zM424 1254l234 310h122l-238 -310h-118z" />
    <glyph glyph-name="uni0156" unicode="&#x156;" horiz-adv-x="1530" 
d="M1298 0l-619 660h-373v-660h-112v1500h744q143 0 254 -53t172.5 -148.5t61.5 -218.5t-61.5 -218.5t-172.5 -148.5t-254 -53h-107l619 -660h-152zM306 1400v-640h642q110 0 193 39.5t128 112t45 168.5t-45 168.5t-128 112t-193 39.5h-642zM862 -128q24 -28 24 -68
q0 -28 -12 -57.5t-44 -90.5l-46 -88h-84l70 156q-32 6 -52 30t-20 54q0 39 25 65.5t67 26.5q48 0 72 -28z" />
    <glyph glyph-name="uni0157" unicode="&#x157;" horiz-adv-x="924" 
d="M825.5 1137.5q47.5 -6.5 76.5 -17.5v-106q-31 12 -81 19t-99 7q-130 0 -230.5 -61.5t-157 -172t-56.5 -252.5v-554h-108v782l-60 338h108l49 -294q34 97 101 169t160 110.5t204 38.5q46 0 93.5 -6.5zM298 -128q24 -28 24 -68q0 -28 -12 -57.5t-44 -90.5l-46 -88h-84
l70 156q-32 6 -52 30t-20 54q0 39 25 65.5t67 26.5q48 0 72 -28z" />
    <glyph glyph-name="Rcaron" unicode="&#x158;" horiz-adv-x="1530" 
d="M1298 0l-619 660h-373v-660h-112v1500h744q143 0 254 -53t172.5 -148.5t61.5 -218.5t-61.5 -218.5t-172.5 -148.5t-254 -53h-107l619 -660h-152zM306 1400v-640h642q110 0 193 39.5t128 112t45 168.5t-45 168.5t-128 112t-193 39.5h-642zM756 1711l234 193h120l-286 -270
h-136l-286 270h120z" />
    <glyph glyph-name="rcaron" unicode="&#x159;" horiz-adv-x="924" 
d="M825.5 1137.5q47.5 -6.5 76.5 -17.5v-106q-31 12 -81 19t-99 7q-130 0 -230.5 -61.5t-157 -172t-56.5 -252.5v-554h-108v782l-60 338h108l49 -294q34 97 101 169t160 110.5t204 38.5q46 0 93.5 -6.5zM514 1334l234 230h120l-286 -310h-136l-286 310h120z" />
    <glyph glyph-name="Sacute" unicode="&#x15a;" horiz-adv-x="1536" 
d="M198 484q15 -122 92.5 -214t205.5 -142t290 -50q164 0 287 41t190 117.5t67 181.5q0 78 -42.5 131.5t-136.5 87.5t-251 51l-254 28q-269 29 -390.5 124.5t-121.5 255.5q0 129 77 226t216.5 149.5t320.5 52.5q185 0 331 -58.5t231.5 -163t93.5 -240.5h-112
q-13 108 -84.5 189.5t-190.5 126t-271 44.5q-151 0 -264 -39t-174.5 -112.5t-61.5 -174.5q0 -81 42.5 -135.5t134 -88t243.5 -50.5l242 -28q194 -22 310.5 -66.5t170 -118.5t53.5 -187q0 -138 -81.5 -238.5t-230 -154t-346.5 -53.5q-195 0 -350 64t-246.5 179.5
t-101.5 264.5h112zM650 1634l290 270h148l-308 -270h-130z" />
    <glyph glyph-name="sacute" unicode="&#x15b;" horiz-adv-x="1272" 
d="M1119 138q-67 -77 -188 -119.5t-277 -42.5q-163 0 -292.5 51t-204.5 142.5t-81 210.5h110q11 -90 74 -159.5t165.5 -108t228.5 -38.5q124 0 219 30.5t148 85t53 124.5q0 60 -32 96.5t-105.5 59.5t-206.5 38l-212 24q-215 24 -310.5 94t-95.5 196q0 99 62 172t173.5 111.5
t258.5 38.5q158 0 284 -47.5t199.5 -133t80.5 -195.5h-110q-10 81 -70.5 144.5t-161.5 98.5t-226 35q-182 0 -280 -56.5t-98 -161.5q0 -57 29.5 -95t95.5 -62t177 -37l210 -24q170 -19 267.5 -53.5t140 -92.5t42.5 -150q0 -99 -67 -176zM546 1254l234 310h122l-238 -310
h-118z" />
    <glyph glyph-name="Scircumflex" unicode="&#x15c;" horiz-adv-x="1536" 
d="M198 484q15 -122 92.5 -214t205.5 -142t290 -50q164 0 287 41t190 117.5t67 181.5q0 78 -42.5 131.5t-136.5 87.5t-251 51l-254 28q-269 29 -390.5 124.5t-121.5 255.5q0 129 77 226t216.5 149.5t320.5 52.5q185 0 331 -58.5t231.5 -163t93.5 -240.5h-112
q-13 108 -84.5 189.5t-190.5 126t-271 44.5q-151 0 -264 -39t-174.5 -112.5t-61.5 -174.5q0 -81 42.5 -135.5t134 -88t243.5 -50.5l242 -28q194 -22 310.5 -66.5t170 -118.5t53.5 -187q0 -138 -81.5 -238.5t-230 -154t-346.5 -53.5q-195 0 -350 64t-246.5 179.5
t-101.5 264.5h112zM834 1904l286 -270h-120l-234 193l-234 -193h-120l286 270h136z" />
    <glyph glyph-name="scircumflex" unicode="&#x15d;" horiz-adv-x="1272" 
d="M1119 138q-67 -77 -188 -119.5t-277 -42.5q-163 0 -292.5 51t-204.5 142.5t-81 210.5h110q11 -90 74 -159.5t165.5 -108t228.5 -38.5q124 0 219 30.5t148 85t53 124.5q0 60 -32 96.5t-105.5 59.5t-206.5 38l-212 24q-215 24 -310.5 94t-95.5 196q0 99 62 172t173.5 111.5
t258.5 38.5q158 0 284 -47.5t199.5 -133t80.5 -195.5h-110q-10 81 -70.5 144.5t-161.5 98.5t-226 35q-182 0 -280 -56.5t-98 -161.5q0 -57 29.5 -95t95.5 -62t177 -37l210 -24q170 -19 267.5 -53.5t140 -92.5t42.5 -150q0 -99 -67 -176zM704 1564l286 -310h-120l-234 230
l-234 -230h-120l286 310h136z" />
    <glyph glyph-name="Scedilla" unicode="&#x15e;" horiz-adv-x="1536" 
d="M1362.5 186q-79.5 -100 -224.5 -154t-339 -56l-58 -89q45 19 119 19q94 0 151 -42.5t57 -113.5q0 -52 -32.5 -91t-92.5 -61t-139 -22q-108 0 -191.5 44t-110.5 116h106q56 -74 196 -74q78 0 117 24t39 64q0 36 -35 56t-97 20q-80 0 -140 -28h-98l114 181
q-175 13 -311.5 79.5t-217 176.5t-89.5 249h112q15 -122 92.5 -214t205.5 -142t290 -50q164 0 287 41t190 117.5t67 181.5q0 78 -42.5 131.5t-136.5 87.5t-251 51l-254 28q-269 29 -390.5 124.5t-121.5 255.5q0 129 77 226t216.5 149.5t320.5 52.5q185 0 331 -58.5
t231.5 -163t93.5 -240.5h-112q-13 108 -84.5 189.5t-190.5 126t-271 44.5q-151 0 -264 -39t-174.5 -112.5t-61.5 -174.5q0 -81 42.5 -135.5t134 -88t243.5 -50.5l242 -28q194 -22 310.5 -66.5t170 -118.5t53.5 -187q0 -136 -79.5 -236z" />
    <glyph glyph-name="scedilla" unicode="&#x15f;" horiz-adv-x="1272" 
d="M1120.5 140q-65.5 -76 -184 -119.5t-271.5 -44.5l-59 -90q44 20 122 20q92 0 149 -42.5t57 -113.5q0 -52 -32.5 -91t-92 -61t-137.5 -22q-107 0 -189 44t-109 116h104q24 -37 73.5 -56.5t120.5 -19.5q79 0 118.5 24.5t39.5 65.5q0 37 -35.5 57.5t-98.5 20.5
q-84 0 -140 -30h-98l114 181q-142 12 -252.5 65.5t-174.5 140t-69 195.5h110q11 -90 74 -159.5t165.5 -108t228.5 -38.5q124 0 219 30.5t148 85t53 124.5q0 60 -32 96.5t-105.5 59.5t-206.5 38l-212 24q-215 24 -310.5 94t-95.5 196q0 99 62 172t173.5 111.5t258.5 38.5
q158 0 284 -47.5t199.5 -133t80.5 -195.5h-110q-10 81 -70.5 144.5t-161.5 98.5t-226 35q-182 0 -280 -56.5t-98 -161.5q0 -57 29.5 -95t95.5 -62t177 -37l210 -24q170 -19 267.5 -53.5t140 -92.5t42.5 -150q0 -98 -65.5 -174z" />
    <glyph glyph-name="Scaron" unicode="&#x160;" horiz-adv-x="1536" 
d="M198 484q15 -122 92.5 -214t205.5 -142t290 -50q164 0 287 41t190 117.5t67 181.5q0 78 -42.5 131.5t-136.5 87.5t-251 51l-254 28q-269 29 -390.5 124.5t-121.5 255.5q0 129 77 226t216.5 149.5t320.5 52.5q185 0 331 -58.5t231.5 -163t93.5 -240.5h-112
q-13 108 -84.5 189.5t-190.5 126t-271 44.5q-151 0 -264 -39t-174.5 -112.5t-61.5 -174.5q0 -81 42.5 -135.5t134 -88t243.5 -50.5l242 -28q194 -22 310.5 -66.5t170 -118.5t53.5 -187q0 -138 -81.5 -238.5t-230 -154t-346.5 -53.5q-195 0 -350 64t-246.5 179.5
t-101.5 264.5h112zM766 1711l234 193h120l-286 -270h-136l-286 270h120z" />
    <glyph glyph-name="scaron" unicode="&#x161;" horiz-adv-x="1272" 
d="M1119 138q-67 -77 -188 -119.5t-277 -42.5q-163 0 -292.5 51t-204.5 142.5t-81 210.5h110q11 -90 74 -159.5t165.5 -108t228.5 -38.5q124 0 219 30.5t148 85t53 124.5q0 60 -32 96.5t-105.5 59.5t-206.5 38l-212 24q-215 24 -310.5 94t-95.5 196q0 99 62 172t173.5 111.5
t258.5 38.5q158 0 284 -47.5t199.5 -133t80.5 -195.5h-110q-10 81 -70.5 144.5t-161.5 98.5t-226 35q-182 0 -280 -56.5t-98 -161.5q0 -57 29.5 -95t95.5 -62t177 -37l210 -24q170 -19 267.5 -53.5t140 -92.5t42.5 -150q0 -99 -67 -176zM636 1334l234 230h120l-286 -310
h-136l-286 310h120z" />
    <glyph glyph-name="uni0162" unicode="&#x162;" horiz-adv-x="1500" 
d="M806 0h-7l-74 -113q45 19 119 19q94 0 151 -42.5t57 -113.5q0 -52 -32.5 -91t-92.5 -61t-139 -22q-108 0 -191.5 44t-110.5 116h106q56 -74 196 -74q78 0 117 24t39 64q0 36 -35 56t-97 20q-80 0 -140 -28h-98l127 202h-7v1400h-668v100h1448v-100h-668v-1400z" />
    <glyph glyph-name="uni0163" unicode="&#x163;" horiz-adv-x="1004" 
d="M635 -24l-59 -90q44 20 122 20q92 0 149 -42.5t57 -113.5q0 -52 -32.5 -91t-92 -61t-137.5 -22q-107 0 -189 44t-109 116h104q24 -37 73.5 -56.5t120.5 -19.5q79 0 118.5 24.5t39.5 65.5q0 37 -35.5 57.5t-98.5 20.5q-84 0 -140 -30h-98l116 185q-150 23 -218 121.5
t-68 247.5v670h-252v60l252 30l40 294h68v-286h572v-98h-572v-652q0 -158 71 -225t219 -67q90 0 162 24t142 74v-112q-47 -34 -139.5 -61t-184.5 -27h-1z" />
    <glyph glyph-name="Tcaron" unicode="&#x164;" horiz-adv-x="1500" 
d="M26 1500h1448v-100h-668v-1400h-112v1400h-668v100zM750 1711l234 193h120l-286 -270h-136l-286 270h120z" />
    <glyph glyph-name="tcaron" unicode="&#x165;" horiz-adv-x="1004" 
d="M6 1022v60l252 30l40 294h68v-286h572v-98h-572v-652q0 -158 71 -225t219 -67q90 0 162 24t142 74v-112q-47 -34 -139.5 -61t-184.5 -27q-199 0 -288.5 102t-89.5 274v670h-252zM520 1262l42 338h112l-56 -338h-98z" />
    <glyph glyph-name="Tbar" unicode="&#x166;" horiz-adv-x="1536" 
d="M1492 1500v-100h-668v-618h452v-100h-452v-682h-112v682h-452v100h452v618h-668v100h1448z" />
    <glyph glyph-name="tbar" unicode="&#x167;" horiz-adv-x="1032" 
d="M840 102q72 24 142 74v-112q-47 -34 -139.5 -61t-184.5 -27q-199 0 -288.5 102t-89.5 274v210h-228v92h228v368h-252v60l252 30l40 294h68v-286h572v-98h-572v-368h468v-92h-468v-192q0 -158 71 -225t219 -67q90 0 162 24z" />
    <glyph glyph-name="Utilde" unicode="&#x168;" horiz-adv-x="1688" 
d="M286 616q0 -161 69 -282.5t195 -187.5t294 -66t294 66t195 187.5t69 282.5v884h112v-884q0 -188 -84.5 -333.5t-236.5 -226t-349 -80.5t-349 80.5t-236.5 226t-84.5 333.5v884h112v-884zM440 1650q8 105 64.5 168.5t145.5 63.5q50 0 100 -19t124 -57q61 -31 97 -45.5
t67 -14.5q48 0 78.5 35.5t39.5 100.5h92q-8 -105 -64.5 -168.5t-145.5 -63.5q-50 0 -100 19t-124 57q-61 31 -97 45.5t-67 14.5q-48 0 -78.5 -35.5t-39.5 -100.5h-92z" />
    <glyph glyph-name="utilde" unicode="&#x169;" horiz-adv-x="1368" 
d="M1258 0h-108l-52 308q-60 -156 -186 -244t-292 -88q-151 0 -258 62t-162.5 181.5t-55.5 288.5v612h108v-590q0 -225 100 -340.5t292 -115.5q132 0 233.5 62t157 173.5t55.5 256.5v554h108v-778zM288 1310q8 105 64.5 168.5t145.5 63.5q45 0 89.5 -19t111.5 -57
q53 -30 86 -45t61 -15q48 0 78.5 35.5t39.5 100.5h92q-8 -105 -64.5 -168.5t-145.5 -63.5q-45 0 -89.5 19t-111.5 57q-53 30 -86 45t-61 15q-48 0 -78.5 -35.5t-39.5 -100.5h-92z" />
    <glyph glyph-name="Umacron" unicode="&#x16a;" horiz-adv-x="1688" 
d="M286 616q0 -161 69 -282.5t195 -187.5t294 -66t294 66t195 187.5t69 282.5v884h112v-884q0 -188 -84.5 -333.5t-236.5 -226t-349 -80.5t-349 80.5t-236.5 226t-84.5 333.5v884h112v-884zM1230 1702h-774v96h774v-96z" />
    <glyph glyph-name="umacron" unicode="&#x16b;" horiz-adv-x="1368" 
d="M1258 0h-108l-52 308q-60 -156 -186 -244t-292 -88q-151 0 -258 62t-162.5 181.5t-55.5 288.5v612h108v-590q0 -225 100 -340.5t292 -115.5q132 0 233.5 62t157 173.5t55.5 256.5v554h108v-778zM1058 1362h-774v96h774v-96z" />
    <glyph glyph-name="Ubreve" unicode="&#x16c;" horiz-adv-x="1688" 
d="M286 616q0 -161 69 -282.5t195 -187.5t294 -66t294 66t195 187.5t69 282.5v884h112v-884q0 -188 -84.5 -333.5t-236.5 -226t-349 -80.5t-349 80.5t-236.5 226t-84.5 333.5v884h112v-884zM594 1904q20 -90 82.5 -138t167.5 -48t167.5 48t82.5 138h102q-24 -130 -118 -203
t-234 -73t-234 73t-118 203h102z" />
    <glyph glyph-name="ubreve" unicode="&#x16d;" horiz-adv-x="1368" 
d="M1258 0h-108l-52 308q-60 -156 -186 -244t-292 -88q-151 0 -258 62t-162.5 181.5t-55.5 288.5v612h108v-590q0 -225 100 -340.5t292 -115.5q132 0 233.5 62t157 173.5t55.5 256.5v554h108v-778zM422 1560q19 -103 85 -160.5t165 -57.5t165 57.5t85 160.5h102
q-17 -146 -109.5 -227t-242.5 -81t-242.5 81t-109.5 227h102z" />
    <glyph glyph-name="Uring" unicode="&#x16e;" horiz-adv-x="1688" 
d="M286 616q0 -161 69 -282.5t195 -187.5t294 -66t294 66t195 187.5t69 282.5v884h112v-884q0 -188 -84.5 -333.5t-236.5 -226t-349 -80.5t-349 80.5t-236.5 226t-84.5 333.5v884h112v-884zM710.5 1637.5q-57.5 23.5 -89 66.5t-31.5 100t31.5 100t89 66.5t133.5 23.5
t133.5 -23.5t89 -66.5t31.5 -100t-31.5 -100t-89 -66.5t-133.5 -23.5t-133.5 23.5zM967 1725.5q43 27.5 43 78.5t-43 78.5t-123 27.5t-123 -27.5t-43 -78.5t43 -78.5t123 -27.5t123 27.5z" />
    <glyph glyph-name="uring" unicode="&#x16f;" horiz-adv-x="1368" 
d="M1258 0h-108l-52 308q-60 -156 -186 -244t-292 -88q-151 0 -258 62t-162.5 181.5t-55.5 288.5v612h108v-590q0 -225 100 -340.5t292 -115.5q132 0 233.5 62t157 173.5t55.5 256.5v554h108v-778zM538.5 1260q-57.5 26 -89 74t-31.5 110t31.5 110t89 74t133.5 26t133.5 -26
t89 -74t31.5 -110t-31.5 -110t-89 -74t-133.5 -26t-133.5 26zM794.5 1351q43.5 33 43.5 93t-43.5 93t-122.5 33t-122.5 -33t-43.5 -93t43.5 -93t122.5 -33t122.5 33z" />
    <glyph glyph-name="Uhungarumlaut" unicode="&#x170;" horiz-adv-x="1688" 
d="M286 616q0 -161 69 -282.5t195 -187.5t294 -66t294 66t195 187.5t69 282.5v884h112v-884q0 -188 -84.5 -333.5t-236.5 -226t-349 -80.5t-349 80.5t-236.5 226t-84.5 333.5v884h112v-884zM560 1634l236 270h130l-242 -270h-124zM910 1634l236 270h130l-242 -270h-124z" />
    <glyph glyph-name="uhungarumlaut" unicode="&#x171;" horiz-adv-x="1368" 
d="M1258 0h-108l-52 308q-60 -156 -186 -244t-292 -88q-151 0 -258 62t-162.5 181.5t-55.5 288.5v612h108v-590q0 -225 100 -340.5t292 -115.5q132 0 233.5 62t157 173.5t55.5 256.5v554h108v-778zM454 1254l210 310h122l-214 -310h-118zM764 1254l210 310h122l-214 -310
h-118z" />
    <glyph glyph-name="Uogonek" unicode="&#x172;" horiz-adv-x="1688" 
d="M1402 1500h112v-880q0 -156 -55 -279t-155.5 -206t-235.5 -125q-148 -45 -224 -94t-76 -106q0 -41 43 -61.5t127 -20.5q74 0 128 12v-84q-26 -8 -66.5 -13t-79.5 -5q-116 0 -186 41t-70 111q0 111 159 190q-191 5 -338 86.5t-229 225t-82 328.5v880h112v-880
q0 -163 69 -286t195 -189.5t294 -66.5t294 66.5t195 189.5t69 286v880z" />
    <glyph glyph-name="uogonek" unicode="&#x173;" horiz-adv-x="1368" 
d="M1003 -251.5q43 -20.5 127 -20.5q74 0 128 12v-84q-26 -8 -66.5 -13t-79.5 -5q-116 0 -186 41t-70 111q0 72 68 131t221 108l-47 279q-60 -156 -186 -244t-292 -88q-151 0 -258 62t-162.5 181.5t-55.5 288.5v612h108v-590q0 -225 100 -340.5t292 -115.5q132 0 233.5 62
t157 173.5t55.5 256.5v554h108v-778l60 -342q-139 -45 -218.5 -90.5t-79.5 -99.5q0 -41 43 -61.5z" />
    <glyph glyph-name="Wcircumflex" unicode="&#x174;" horiz-adv-x="2572" 
d="M1894 114l512 1386h116l-562 -1500h-134l-540 1371l-540 -1371h-134l-562 1500h116l513 -1388l541 1388h132zM1354 1904l286 -270h-120l-234 193l-234 -193h-120l286 270h136z" />
    <glyph glyph-name="wcircumflex" unicode="&#x175;" horiz-adv-x="2106" 
d="M1524 115l426 1005h116l-484 -1120h-112l-416 999l-418 -999h-112l-484 1120h116l426 -1005l410 1005h122zM1122 1564l286 -310h-120l-234 230l-234 -230h-120l286 310h136z" />
    <glyph glyph-name="Ycircumflex" unicode="&#x176;" horiz-adv-x="1640" 
d="M1452 1500h134l-710 -877v-623h-112v623l-714 877h134l637 -783zM886 1904l286 -270h-120l-234 193l-234 -193h-120l286 270h136z" />
    <glyph glyph-name="ycircumflex" unicode="&#x177;" horiz-adv-x="1344" 
d="M1198 1120h116l-644 -1258q-57 -110 -138 -163t-194 -53q-71 0 -127.5 17.5t-118.5 58.5v94q58 -37 114 -53.5t128 -16.5q87 0 148.5 40t103.5 124l64 126h-66l-550 1084h120l520 -1036zM742 1564l286 -310h-120l-234 230l-234 -230h-120l286 310h136z" />
    <glyph glyph-name="Ydieresis" unicode="&#x178;" horiz-adv-x="1640" 
d="M1452 1500h134l-710 -877v-623h-112v623l-714 877h134l637 -783zM447 1718.5q-29 28.5 -29 69.5t29 69.5t71 28.5t71 -28.5t29 -69.5t-29 -69.5t-71 -28.5t-71 28.5zM1047 1718.5q-29 28.5 -29 69.5t29 69.5t71 28.5t71 -28.5t29 -69.5t-29 -69.5t-71 -28.5t-71 28.5z
" />
    <glyph glyph-name="Zacute" unicode="&#x179;" horiz-adv-x="1462" 
d="M1388 1400l-1177 -1300h1183v-100h-1328v100l1179 1300h-1169v100h1312v-100zM616 1634l290 270h148l-308 -270h-130z" />
    <glyph glyph-name="zacute" unicode="&#x17a;" horiz-adv-x="1192" 
d="M1122 1030l-919 -936h923v-94h-1062v90l919 936h-911v94h1050v-90zM506 1254l234 310h122l-238 -310h-118z" />
    <glyph glyph-name="Zdotaccent" unicode="&#x17b;" horiz-adv-x="1462" 
d="M1388 1400l-1177 -1300h1183v-100h-1328v100l1179 1300h-1169v100h1312v-100zM661 1718.5q-29 28.5 -29 69.5t29 69.5t71 28.5t71 -28.5t29 -69.5t-29 -69.5t-71 -28.5t-71 28.5z" />
    <glyph glyph-name="zdotaccent" unicode="&#x17c;" horiz-adv-x="1192" 
d="M1122 1030l-919 -936h923v-94h-1062v90l919 936h-911v94h1050v-90zM525 1338.5q-29 28.5 -29 69.5t29 69.5t71 28.5t71 -28.5t29 -69.5t-29 -69.5t-71 -28.5t-71 28.5z" />
    <glyph glyph-name="Zcaron" unicode="&#x17d;" horiz-adv-x="1462" 
d="M1388 1400l-1177 -1300h1183v-100h-1328v100l1179 1300h-1169v100h1312v-100zM732 1711l234 193h120l-286 -270h-136l-286 270h120z" />
    <glyph glyph-name="zcaron" unicode="&#x17e;" horiz-adv-x="1192" 
d="M1122 1030l-919 -936h923v-94h-1062v90l919 936h-911v94h1050v-90zM596 1334l234 230h120l-286 -310h-136l-286 310h120z" />
    <glyph glyph-name="longs" unicode="&#x17f;" horiz-adv-x="428" 
d="M354 1386q-86 -80 -86 -252v-1134h-108v1106q0 205 104 331.5t330 126.5q78 0 140 -14t122 -40v-106q-58 33 -118 47.5t-132 14.5q-166 0 -252 -80z" />
    <glyph glyph-name="uni0180" unicode="&#x180;" horiz-adv-x="1502" 
d="M1136 1070q129 -74 202.5 -207t73.5 -303t-73.5 -303t-202.5 -207t-292 -74q-183 0 -333.5 104t-242.5 287v-367h-108v1276h-176v92h176v172h108v-172h674v-92h-674v-523q92 183 242.5 287t333.5 104q163 0 292 -74zM1079 139q104 61 162.5 170.5t58.5 250.5t-58.5 250.5
t-162.5 170.5t-235 61q-192 0 -342 -129.5t-240 -352.5q90 -223 240 -352.5t342 -129.5q131 0 235 61z" />
    <glyph glyph-name="uni0181" unicode="&#x181;" horiz-adv-x="1916" 
d="M1658.5 707.5q83.5 -55.5 122.5 -135t39 -174.5q0 -119 -57.5 -208.5t-169 -139.5t-267.5 -50h-892l120 770l-104 630h-84q-97 0 -148.5 -42t-51.5 -138q0 -62 16 -122t48 -140h-110q-28 60 -48 129.5t-20 132.5q0 137 77.5 208.5t210.5 71.5h954q137 0 232.5 -43.5
t144.5 -125t49 -193.5q0 -74 -28.5 -143.5t-89.5 -125.5t-155 -87q128 -19 211.5 -74.5zM1567.5 1274q-36.5 59 -109 92.5t-174.5 33.5h-724l96 -580h598q102 0 181 36.5t124 108t45 173.5q0 77 -36.5 136zM1338 100q174 0 270 76.5t96 221.5q0 157 -116 239.5t-340 82.5
h-592l-96 -620h778z" />
    <glyph glyph-name="uni0186" unicode="&#x186;" horiz-adv-x="1784" 
d="M206 560q24 -145 112 -253.5t229 -167.5t319 -59q209 0 366.5 82.5t243.5 234.5t86 353t-86 353t-243.5 234.5t-366.5 82.5q-178 0 -319 -59t-229 -167.5t-112 -253.5h-116q20 172 123 304.5t271.5 206t377.5 73.5q241 0 426.5 -97.5t287.5 -273.5t102 -403t-102 -403
t-287.5 -273.5t-426.5 -97.5q-209 0 -377.5 73.5t-271.5 206t-123 304.5h116z" />
    <glyph glyph-name="uni0187" unicode="&#x187;" horiz-adv-x="1792" 
d="M1825.5 1778q51.5 -16 96.5 -44v-110q-105 66 -204 66q-100 0 -154 -53t-54 -137q0 -67 26 -136t94 -206q23 -48 40.5 -105t23.5 -113h-116q-24 145 -112 253.5t-229 167.5t-319 59q-209 0 -366.5 -82.5t-243.5 -234.5t-86 -353t86 -353t243.5 -234.5t366.5 -82.5
q178 0 319 59t229 167.5t112 253.5h116q-20 -172 -123 -304.5t-271.5 -206t-377.5 -73.5q-241 0 -426.5 97.5t-287.5 273.5t-102 403t102 403t287.5 273.5t426.5 97.5q155 0 287 -41.5t226 -115.5q-37 76 -37 157q0 80 40 141t110.5 95t159.5 34q66 0 117.5 -16z" />
    <glyph glyph-name="uni0188" unicode="&#x188;" horiz-adv-x="1388" 
d="M1537 1429.5q56 -14.5 113 -39.5v-112q-66 33 -120.5 48.5t-113.5 15.5q-113 0 -166.5 -51t-53.5 -145q0 -46 11 -92.5t38 -139.5q21 -67 39 -132l20 -72h-116q-23 100 -90.5 175t-169 116t-224.5 41q-151 0 -264 -59.5t-174.5 -168.5t-61.5 -254t61.5 -254t174.5 -168.5
t264 -59.5q124 0 226 41t169 116t89 175h116q-24 -128 -107.5 -226.5t-212 -153t-280.5 -54.5q-179 0 -318 74t-216.5 206.5t-77.5 303.5t77.5 303.5t216.5 206.5t318 74q122 0 228.5 -37t188.5 -108q-33 76 -33 153q0 142 88 217t236 75q69 0 125 -14.5z" />
    <glyph glyph-name="uni0189" unicode="&#x189;" horiz-adv-x="1804" 
d="M874 1500q242 0 430 -95t292 -265t104 -390t-104 -390t-292 -265t-430 -95h-606v702h-228v100h228v698h606zM874 98q208 0 369 82.5t251 230.5t90 339t-90 339t-251 230.5t-369 82.5h-494v-600h490v-100h-490v-604h494z" />
    <glyph glyph-name="uni018A" unicode="&#x18a;" horiz-adv-x="2046" 
d="M1116 1500q242 0 430 -95t292 -265t104 -390t-104 -390t-292 -265t-430 -95h-606v1402h-146q-96 0 -148 -43t-52 -139q0 -62 16 -122t48 -140h-110q-28 60 -48 129.5t-20 132.5q0 137 77.5 208.5t210.5 71.5h778zM1116 98q208 0 369 82.5t251 230.5t90 339t-90 339
t-251 230.5t-369 82.5h-494v-1304h494z" />
    <glyph glyph-name="uni018E" unicode="&#x18e;" horiz-adv-x="1472" 
d="M122 1500h1210l-126 -750l126 -750h-1220v100h1093l-101 600h-942v100h942l101 600h-1083v100z" />
    <glyph glyph-name="uni018F" unicode="&#x18f;" horiz-adv-x="1778" 
d="M1288 1425.5q182 -98.5 283 -276t101 -405.5q0 -225 -100.5 -399.5t-281 -271.5t-412.5 -97q-227 0 -403.5 100t-274.5 276.5t-98 397.5h1454q-1 202 -85 353.5t-237.5 234t-357.5 82.5q-181 0 -320 -60.5t-222.5 -168t-103.5 -247.5h-116q22 165 124 297.5t267 207.5
t367 75q234 0 416 -98.5zM1210.5 149.5q145.5 69.5 233.5 198.5t107 302h-1327q22 -169 108 -298t226 -200.5t320 -71.5q187 0 332.5 69.5z" />
    <glyph glyph-name="uni0190" unicode="&#x190;" horiz-adv-x="1512" 
d="M1440 462q-12 -146 -98 -255.5t-237 -170t-351 -60.5q-201 0 -346 56.5t-220.5 158.5t-75.5 237q0 89 43 161.5t124.5 122t193.5 69.5q-154 37 -239.5 129.5t-85.5 217.5q0 119 70.5 208.5t202.5 138.5t311 49q189 0 333 -59.5t228.5 -164t100.5 -238.5h-112
q-19 113 -90 194t-187 124.5t-269 43.5q-142 0 -248 -35t-165 -103.5t-59 -167.5q0 -84 47.5 -149.5t143 -103t235.5 -37.5h286v-98h-286q-236 0 -349 -77.5t-113 -222.5q0 -113 62.5 -192.5t180.5 -120.5t283 -41q169 0 292.5 45.5t195 132t86.5 208.5h112z" />
    <glyph glyph-name="uni0191" unicode="&#x191;" horiz-adv-x="1416" 
d="M1342 1400h-1036v-600h1006v-100h-1006v-684q0 -112 -41 -195t-120 -129t-191 -46q-60 0 -118 17t-100 43v110q43 -27 98.5 -46.5t109.5 -19.5q125 0 187.5 71.5t62.5 220.5v1458h1148v-100z" />
    <glyph glyph-name="florin" unicode="&#x192;" horiz-adv-x="968" 
d="M472 1386q-86 -80 -86 -252v-74h572v-98h-572v-858q0 -205 -104 -331.5t-330 -126.5q-78 0 -140 14t-122 40v106q58 -33 118 -47.5t132 -14.5q166 0 252 80t86 252v886h-252v98h252v46q0 205 104 331.5t330 126.5q78 0 140 -14t122 -40v-106q-58 33 -118 47.5t-132 14.5
q-166 0 -252 -80z" />
    <glyph glyph-name="uni0193" unicode="&#x193;" horiz-adv-x="1838" 
d="M1823.5 1778q51.5 -16 96.5 -44v-110q-105 66 -204 66q-100 0 -154 -53t-54 -137q0 -67 26 -136t94 -206q52 -108 60 -200h-116q-25 138 -110.5 242.5t-224 162t-317.5 57.5q-210 0 -368.5 -83t-245 -234.5t-86.5 -352.5t86.5 -353t245.5 -234.5t370 -82.5
q187 0 333.5 67t235.5 186t109 271h-584v100h692v-704h-96l-4 383q-53 -122 -152.5 -214t-236 -142.5t-297.5 -50.5q-239 0 -425 98t-289.5 274t-103.5 402q0 227 103.5 402.5t290.5 273.5t428 98q162 0 287 -39.5t221 -117.5q-38 78 -38 157q0 80 40 141t110.5 95t159.5 34
q66 0 117.5 -16z" />
    <glyph glyph-name="uni0194" unicode="&#x194;" horiz-adv-x="1680" 
d="M1522 1500h126l-739 -944l445 -556h-1018l435 554l-739 946h140l667 -863zM550 100h589l-298 371z" />
    <glyph glyph-name="uni0196" unicode="&#x196;" horiz-adv-x="598" 
d="M186 1500h112v-1244q0 -90 35 -133t113 -43q50 0 110 24v-106q-62 -22 -130 -22q-123 0 -181.5 72t-58.5 206v1246z" />
    <glyph glyph-name="uni0197" unicode="&#x197;" horiz-adv-x="576" 
d="M344 810h204v-100h-204v-710h-112v710h-204v100h204v690h112v-690z" />
    <glyph glyph-name="uni0198" unicode="&#x198;" horiz-adv-x="1596" 
d="M1574 0h-132l-571 786l-583 -786h-94v1500h112v-1309l898 1211q43 59 94 90.5t130 31.5q60 0 128 -28v-108q-41 17 -68 24.5t-60 7.5q-47 0 -82 -21.5t-66 -62.5l-335 -451z" />
    <glyph glyph-name="uni0199" unicode="&#x199;" horiz-adv-x="1256" 
d="M1244 0h-136l-382 551l-464 -551h-102v1116q0 216 112 332t324 116q144 0 284 -64v-112q-76 38 -142 56t-142 18q-171 0 -249.5 -95t-78.5 -275v-930l804 958h132l-405 -482z" />
    <glyph glyph-name="uni019A" unicode="&#x19a;" horiz-adv-x="564" 
d="M336 850h208v-92h-208v-758h-108v758h-208v92h208v690h108v-690z" />
    <glyph glyph-name="uni019B" unicode="&#x19b;" horiz-adv-x="1270" 
d="M1238 0h-116l-494 1000l-518 -1000h-116l550 1054h57l-68 138l-325 -116l-32 94l313 111l-9 19q-41 83 -93.5 123.5t-134.5 40.5q-60 0 -114.5 -17.5t-111.5 -52.5v94q61 40 115 58t115 18q107 0 181.5 -54t128.5 -162l17 -33l357 127l32 -94l-345 -123z" />
    <glyph glyph-name="uni019C" unicode="&#x19c;" horiz-adv-x="2272" 
d="M2130 0h-112l-49 295q-58 -150 -176.5 -234.5t-276.5 -84.5q-170 0 -279 88.5t-147 255.5q-55 -161 -176.5 -252.5t-285.5 -91.5q-141 0 -241 62t-152.5 181.5t-52.5 288.5v992h112v-970q0 -222 91.5 -336t268.5 -114q123 0 217.5 61.5t146.5 171.5t52 253v934h112v-970
q0 -222 91.5 -336t268.5 -114q123 0 217.5 61.5t146.5 171.5t52 253v934h112v-1158z" />
    <glyph glyph-name="uni019D" unicode="&#x19d;" horiz-adv-x="1798" 
d="M1496 1500h108v-1500h-146l-1156 1379v-1363q0 -112 -40 -195.5t-118 -129t-190 -45.5q-60 0 -118 17t-100 43v110q43 -27 98.5 -46.5t109.5 -19.5q125 0 187.5 71.5t62.5 220.5v1458h146l1156 -1379v1379z" />
    <glyph glyph-name="uni019E" unicode="&#x19e;" horiz-adv-x="1388" 
d="M1021 1082q109 -62 166 -181.5t57 -288.5v-942h-108v920q0 225 -102 340.5t-300 115.5q-136 0 -240 -62t-161 -173.5t-57 -256.5v-554h-108v778l-60 342h108l50 -301q62 152 191 238.5t301 86.5q154 0 263 -62z" />
    <glyph glyph-name="uni019F" unicode="&#x19f;" horiz-adv-x="1860" 
d="M1360 1426q188 -98 292 -273.5t104 -402.5t-104 -402.5t-292 -273.5t-430 -98t-430 98t-292 273.5t-104 402.5t104 402.5t292 273.5t430 98t430 -98zM568.5 1344q-156.5 -76 -246.5 -216t-101 -328h1418q-11 188 -101 328t-246.5 216t-361.5 76t-361.5 -76zM1291.5 156
q156.5 76 246.5 216t101 328h-1418q11 -188 101 -328t246.5 -216t361.5 -76t361.5 76z" />
    <glyph glyph-name="Ohorn" unicode="&#x1a0;" horiz-adv-x="1850" 
d="M500 74q-188 98 -292 273.5t-104 402.5t104 402.5t292 273.5t430 98q115 0 232 -26q106 -24 198 -24q121 0 178.5 40t57.5 112q0 33 -11.5 71.5t-30.5 64.5h106q18 -32 29 -72t11 -78q0 -95 -71 -153t-209 -67q159 -102 247.5 -268t88.5 -374q0 -227 -104 -402.5
t-292 -273.5t-430 -98t-430 98zM1304.5 162.5q160.5 82.5 248 234.5t87.5 353t-87.5 353t-248 234.5t-374.5 82.5t-374.5 -82.5t-248 -234.5t-87.5 -353t87.5 -353t248 -234.5t374.5 -82.5t374.5 82.5z" />
    <glyph glyph-name="ohorn" unicode="&#x1a1;" horiz-adv-x="1468" 
d="M399 49.5q-147 73.5 -229 206.5t-82 304t82 304t229 206.5t337 73.5q51 0 89 -4.5t67.5 -10t39.5 -7.5q76 -12 132 -12q103 0 150.5 33t47.5 103q0 30 -11.5 70t-30.5 66h112q38 -66 38 -140q0 -92 -59 -149.5t-167 -64.5q114 -78 177 -198.5t63 -269.5q0 -171 -82 -304
t-229 -206.5t-337 -73.5t-337 73.5zM1018.5 137.5q121.5 59.5 187.5 168.5t66 254t-66 254t-187.5 168.5t-282.5 59.5t-282.5 -59.5t-187.5 -168.5t-66 -254t66 -254t187.5 -168.5t282.5 -59.5t282.5 59.5z" />
    <glyph glyph-name="uni01A4" unicode="&#x1a4;" horiz-adv-x="1796" 
d="M1252 1500q143 0 254 -53t172.5 -148.5t61.5 -218.5t-61.5 -218.5t-172.5 -148.5t-254 -53h-632v-660h-112v1402h-144q-96 0 -148 -43t-52 -139q0 -62 16 -122t48 -140h-110q-28 60 -48 129.5t-20 132.5q0 137 77.5 208.5t210.5 71.5h914zM1254 760q111 0 195 39.5
t129.5 112t45.5 168.5t-45.5 168.5t-129.5 112t-195 39.5h-634v-640h634z" />
    <glyph glyph-name="uni01A5" unicode="&#x1a5;" horiz-adv-x="1504" 
d="M1138 1070q129 -74 202.5 -207t73.5 -303t-73.5 -303t-202.5 -207t-292 -74q-185 0 -336.5 106.5t-243.5 292.5v-705h-108v1446q0 216 112 332t324 116q144 0 284 -64v-112q-76 38 -142 56t-142 18q-171 0 -249.5 -95t-78.5 -275v-347q92 186 243.5 292.5t336.5 106.5
q163 0 292 -74zM1081 139q104 61 162.5 170.5t58.5 250.5t-58.5 250.5t-162.5 170.5t-235 61q-192 0 -342 -129.5t-240 -352.5q90 -223 240 -352.5t342 -129.5q131 0 235 61z" />
    <glyph glyph-name="uni01A9" unicode="&#x1a9;" horiz-adv-x="1366" 
d="M840 700l-630 -600h1096v-100h-1246v100l684 650l-668 650v100h1210v-100h-1062l616 -602v-98z" />
    <glyph glyph-name="uni01AA" unicode="&#x1aa;" horiz-adv-x="864" 
d="M1061 -232.5q57 19.5 99 46.5v-108q-42 -26 -101 -43t-117 -17q-111 0 -188.5 45.5t-117.5 128.5t-40 194v1057q-56 -77 -136.5 -121t-173.5 -44q-97 0 -175 44.5t-122.5 121t-44.5 166.5q0 89 45 163.5t130.5 118.5t200.5 44q123 0 210 -55t130.5 -147.5t43.5 -205.5
v-1124q0 -145 61 -214.5t185 -69.5q54 0 111 19.5zM476.5 1060q75.5 58 118.5 155q-6 69 -40 125t-94 89t-141 33q-129 0 -196.5 -63t-67.5 -165q0 -68 31 -121t87.5 -82t129.5 -29q97 0 172.5 58z" />
    <glyph glyph-name="uni01AC" unicode="&#x1ac;" horiz-adv-x="1618" 
d="M1592 1500v-100h-668v-1400h-112v1400h-444q-97 0 -148.5 -42t-51.5 -138q0 -62 16 -122t48 -140h-110q-28 60 -48 129.5t-20 132.5q0 137 77.5 208.5t210.5 71.5h1250z" />
    <glyph glyph-name="uni01AD" unicode="&#x1ad;" horiz-adv-x="1004" 
d="M451 1374q-79 -88 -85 -254h572v-98h-572v-652q0 -158 71 -225t219 -67q90 0 162 24t142 74v-112q-47 -34 -139.5 -61t-184.5 -27q-199 0 -288.5 102t-89.5 274v670h-252v60l252 30q2 221 113.5 336.5t322.5 115.5q144 0 284 -64v-112q-76 38 -142 56t-142 18
q-164 0 -243 -88z" />
    <glyph glyph-name="uni01AE" unicode="&#x1ae;" horiz-adv-x="1500" 
d="M1474 1400h-668v-1366q0 -145 61 -214.5t185 -69.5q54 0 109.5 19.5t98.5 46.5v-110q-42 -26 -100 -43t-118 -17q-112 0 -190 45.5t-118 129t-40 195.5v1384h-668v100h1448v-100z" />
    <glyph glyph-name="Uhorn" unicode="&#x1af;" horiz-adv-x="1712" 
d="M1729.5 1515q-30.5 -47 -86.5 -74t-129 -29v-796q0 -188 -84.5 -333.5t-236.5 -226t-349 -80.5t-349 80.5t-236.5 226t-84.5 333.5v884h112v-884q0 -161 69 -282.5t195 -187.5t294 -66t294 66t195 187.5t69 282.5v884h86h6q74 0 116 33t42 93q0 30 -11.5 70t-30.5 66h112
q18 -32 28 -68t10 -70q0 -62 -30.5 -109z" />
    <glyph glyph-name="uhorn" unicode="&#x1b0;" horiz-adv-x="1418" 
d="M1413.5 1135q-30.5 -47 -86.5 -74t-129 -29v-690l60 -342h-108l-52 308q-60 -156 -186 -244t-292 -88q-151 0 -258 62t-162.5 181.5t-55.5 288.5v612h108v-590q0 -225 100 -340.5t292 -115.5q132 0 233.5 62t157 173.5t55.5 256.5v554h82h6q74 0 116 33t42 93
q0 30 -11.5 70t-30.5 66h112q18 -32 28 -68t10 -70q0 -62 -30.5 -109z" />
    <glyph glyph-name="uni01B1" unicode="&#x1b1;" horiz-adv-x="1816" 
d="M1724 1500v-100h-455q193 -112 302 -291.5t109 -396.5q0 -208 -91 -375.5t-265.5 -264t-415.5 -96.5t-415.5 96.5t-265.5 264t-91 375.5q0 218 109 397.5t304 290.5h-457v100h620v-100q-235 -121 -347.5 -288t-112.5 -390q0 -196 78 -340t225.5 -222t352.5 -78t352.5 78
t225.5 222t78 340q0 223 -112.5 390t-347.5 288v100h620z" />
    <glyph glyph-name="uni01B2" unicode="&#x1b2;" horiz-adv-x="1684" 
d="M178 1500h112v-922q0 -138 46 -250t148 -180t262 -68q188 0 351 111t262 323t99 500q0 198 -91 302t-251 104q-69 0 -133.5 -18t-118.5 -48v102q46 28 118 48t144 20q217 0 332.5 -128.5t115.5 -381.5q0 -303 -105.5 -539t-294 -367.5t-428.5 -131.5q-197 0 -324 79
t-185.5 215t-58.5 312v918z" />
    <glyph glyph-name="uni01B3" unicode="&#x1b3;" horiz-adv-x="1656" 
d="M1602 1498v-108q-67 30 -120 30q-41 0 -69.5 -18.5t-54.5 -57.5l-488 -721v-623h-112v623l-714 877h134l638 -784l470 696q36 54 82 83t114 29q61 0 120 -26z" />
    <glyph glyph-name="uni01B4" unicode="&#x1b4;" horiz-adv-x="1504" 
d="M1389 1137q26 -7 51 -21v-102q-24 13 -47.5 21.5t-52.5 8.5q-54 0 -91 -32t-75 -110l-506 -1040q-54 -109 -136 -162.5t-196 -53.5q-71 0 -127.5 17.5t-118.5 58.5v94q58 -37 114 -53.5t128 -16.5q85 0 148 39.5t104 124.5l61 126h-63l-550 1084h120l518 -1033l428 879
q47 95 100.5 136.5t131.5 41.5q33 0 59 -7z" />
    <glyph glyph-name="uni01B5" unicode="&#x1b5;" horiz-adv-x="1486" 
d="M775 710l-552 -610h1183v-100h-1328v100l553 610h-423v100h514l535 590h-1169v100h1312v-100l-534 -590h420v-100h-511z" />
    <glyph glyph-name="uni01B6" unicode="&#x1b6;" horiz-adv-x="1212" 
d="M633 524l-422 -430h923v-94h-1062v90l426 434h-366v92h457l402 410h-911v94h1050v-90l-407 -414h355v-92h-445z" />
    <glyph glyph-name="uni01B7" unicode="&#x1b7;" horiz-adv-x="1478" 
d="M782 878q205 0 340.5 -54.5t199.5 -151t64 -224.5q0 -139 -78 -246t-223.5 -166.5t-340.5 -59.5q-200 0 -351 60.5t-237 170t-98 255.5h112q15 -122 86.5 -208.5t195 -132t292.5 -45.5q165 0 283 43t180.5 127t62.5 204q0 162 -123 251t-403 89h-168v98l607 512h-1061
v100h1210v-100l-622 -522h72z" />
    <glyph glyph-name="uni01B8" unicode="&#x1b8;" horiz-adv-x="1478" 
d="M1420 462q-12 -146 -98 -255.5t-237 -170t-351 -60.5q-195 0 -340.5 59.5t-223.5 166.5t-78 246q0 128 64 224.5t199.5 151t340.5 54.5h72l-622 522v100h1210v-100h-1061l607 -512v-98h-168q-280 0 -403 -89t-123 -251q0 -120 62.5 -204t180.5 -127t283 -43
q169 0 292.5 45.5t195 132t86.5 208.5h112z" />
    <glyph glyph-name="uni01B9" unicode="&#x1b9;" horiz-adv-x="1300" 
d="M1270 118q-12 -136 -90.5 -242.5t-214.5 -167t-315 -60.5q-184 0 -316 60.5t-200 164.5t-68 233q0 123 60 214.5t184.5 142.5t311.5 51h53l-557 516v90h1072v-94h-934l550 -506v-86h-156q-246 0 -359 -89t-113 -245q0 -167 122.5 -258.5t349.5 -91.5q144 0 253.5 44.5
t175 127.5t81.5 196h110z" />
    <glyph glyph-name="uni01C0" unicode="&#x1c0;" horiz-adv-x="428" 
d="M160 -210v1750h108v-1750h-108z" />
    <glyph glyph-name="uni01C1" unicode="&#x1c1;" horiz-adv-x="824" 
d="M160 -210v1750h108v-1750h-108zM556 -210v1750h108v-1750h-108z" />
    <glyph glyph-name="uni01C2" unicode="&#x1c2;" horiz-adv-x="600" 
d="M530 920v-92h-176v-326h176v-92h-176v-620h-108v620h-176v92h176v326h-176v92h176v620h108v-620h176z" />
    <glyph glyph-name="uni01C3" unicode="&#x1c3;" horiz-adv-x="380" 
d="M152 380l-16 1120h108l-16 -1120h-76zM122 16q-28 28 -28 68q0 41 28 68.5t68 27.5q41 0 68.5 -27.5t27.5 -68.5q0 -40 -27.5 -68t-68.5 -28q-40 0 -68 28z" />
    <glyph glyph-name="uni01C4" unicode="&#x1c4;" horiz-adv-x="3086" 
d="M2710 1904l-286 -270h-136l-286 270h120l234 -193l234 193h120zM800 1500q242 0 430 -95t292 -265t104 -390t-104 -390t-292 -265t-430 -95h-606v1500h606zM3012 1400l-1177 -1300h1183v-100h-1328v100l1179 1300h-1169v100h1312v-100zM800 98q208 0 369 82.5t251 230.5
t90 339t-90 339t-251 230.5t-369 82.5h-494v-1304h494z" />
    <glyph glyph-name="uni01C5" unicode="&#x1c5;" horiz-adv-x="2928" 
d="M2686 1564l-286 -310h-136l-286 310h120l234 -230l234 230h120zM800 1500q242 0 430 -95t292 -265t104 -390t-104 -390t-292 -265t-430 -95h-606v1500h606zM800 98q208 0 369 82.5t251 230.5t90 339t-90 339t-251 230.5t-369 82.5h-494v-1304h494zM2858 1030l-919 -936
h923v-94h-1062v90l919 936h-911v94h1050v-90z" />
    <glyph glyph-name="uni01C6" unicode="&#x1c6;" horiz-adv-x="2682" 
d="M1394 1540l-86 -980l46 -560h-108l-28 337q-94 -170 -239.5 -265.5t-320.5 -95.5q-163 0 -292 74t-202.5 207t-73.5 303t73.5 303t202.5 207t292 74q177 0 323.5 -97.5t240.5 -269.5l66 763h106zM1000 207.5q150 129.5 240 352.5q-90 223 -240 352.5t-342 129.5
q-131 0 -235 -61t-162.5 -170.5t-58.5 -250.5t58.5 -250.5t162.5 -170.5t235 -61q192 0 342 129.5zM2612 1030l-919 -936h923v-94h-1062v90l919 936h-911v94h1050v-90zM2086 1334l234 230h120l-286 -310h-136l-286 310h120z" />
    <glyph glyph-name="uni01C7" unicode="&#x1c7;" horiz-adv-x="2890" 
d="M306 1500v-1400h1088v-100h-1200v1500h112zM1454 698h110v-82q0 -257 128 -396.5t392 -139.5t391 138t127 398v884h112v-884q0 -220 -78.5 -362.5t-219.5 -210t-332 -67.5t-332 67.5t-219.5 210t-78.5 362.5v82z" />
    <glyph glyph-name="uni01C8" unicode="&#x1c8;" horiz-adv-x="1842" 
d="M1699 1477.5q29 -28.5 29 -69.5t-29 -69.5t-71 -28.5t-71 28.5t-29 69.5t29 69.5t71 28.5t71 -28.5zM194 1500h112v-1400h1088v-100h-1200v1500zM1574 -330v1450l54 -8l54 8v-1450h-108z" />
    <glyph glyph-name="uni01C9" unicode="&#x1c9;" horiz-adv-x="824" 
d="M160 0v1540h108v-1540h-108zM539 1338.5q-29 28.5 -29 69.5t29 69.5t71 28.5t71 -28.5t29 -69.5t-29 -69.5t-71 -28.5t-71 28.5zM556 -330v1450l54 -8l54 8v-1450h-108z" />
    <glyph glyph-name="uni01CA" unicode="&#x1ca;" horiz-adv-x="3292" 
d="M1496 121v1379h108v-1500h-146l-1156 1379v-1379h-108v1500h146zM1856 698h110v-82q0 -257 128 -396.5t392 -139.5t391 138t127 398v884h112v-884q0 -220 -78.5 -362.5t-219.5 -210t-332 -67.5t-332 67.5t-219.5 210t-78.5 362.5v82z" />
    <glyph glyph-name="uni01CB" unicode="&#x1cb;" horiz-adv-x="2194" 
d="M1496 121v1379h108v-1500h-146l-1156 1379v-1379h-108v1500h146zM1926 -330v1450l54 -8l54 8v-1450h-108zM1909 1338.5q-29 28.5 -29 69.5t29 69.5t71 28.5t71 -28.5t29 -69.5t-29 -69.5t-71 -28.5t-71 28.5z" />
    <glyph glyph-name="uni01CC" unicode="&#x1cc;" horiz-adv-x="1780" 
d="M1023 1082q109 -62 166 -181.5t57 -288.5v-612h-108v590q0 225 -102 340.5t-300 115.5q-136 0 -240 -62t-161 -173.5t-57 -256.5v-554h-108v778l-60 342h108l50 -301q62 152 191 238.5t301 86.5q154 0 263 -62zM1512 -330v1450l54 -8l54 8v-1450h-108zM1495 1338.5
q-29 28.5 -29 69.5t29 69.5t71 28.5t71 -28.5t29 -69.5t-29 -69.5t-71 -28.5t-71 28.5z" />
    <glyph glyph-name="uni01CD" unicode="&#x1cd;" horiz-adv-x="1684" 
d="M1656 0h-126l-200 400h-975l-201 -400h-126l758 1500h112zM843 1374l-438 -874h875zM842 1711l234 193h120l-286 -270h-136l-286 270h120z" />
    <glyph glyph-name="uni01CE" unicode="&#x1ce;" horiz-adv-x="1492" 
d="M1354 1120l-46 -560l46 -560h-108l-28 337q-94 -170 -239.5 -265.5t-320.5 -95.5q-163 0 -292 74t-202.5 207t-73.5 303t73.5 303t202.5 207t292 74q175 0 320.5 -95.5t239.5 -265.5l28 337h108zM1000 207.5q150 129.5 240 352.5q-90 223 -240 352.5t-342 129.5
q-131 0 -235 -61t-162.5 -170.5t-58.5 -250.5t58.5 -250.5t162.5 -170.5t235 -61q192 0 342 129.5zM720 1334l234 230h120l-286 -310h-136l-286 310h120z" />
    <glyph glyph-name="uni01CF" unicode="&#x1cf;" horiz-adv-x="500" 
d="M194 0v1500h112v-1500h-112zM250 1711l234 193h120l-286 -270h-136l-286 270h120z" />
    <glyph glyph-name="uni01D0" unicode="&#x1d0;" horiz-adv-x="428" 
d="M160 0v1120l54 -8l54 8v-1120h-108zM214 1334l234 230h120l-286 -310h-136l-286 310h120z" />
    <glyph glyph-name="uni01D1" unicode="&#x1d1;" horiz-adv-x="1860" 
d="M500 74q-188 98 -292 273.5t-104 402.5t104 402.5t292 273.5t430 98t430 -98t292 -273.5t104 -402.5t-104 -402.5t-292 -273.5t-430 -98t-430 98zM1304.5 162.5q160.5 82.5 248 234.5t87.5 353t-87.5 353t-248 234.5t-374.5 82.5t-374.5 -82.5t-248 -234.5t-87.5 -353
t87.5 -353t248 -234.5t374.5 -82.5t374.5 82.5zM930 1711l234 193h120l-286 -270h-136l-286 270h120z" />
    <glyph glyph-name="uni01D2" unicode="&#x1d2;" horiz-adv-x="1472" 
d="M399 49.5q-147 73.5 -229 206.5t-82 304t82 304t229 206.5t337 73.5t337 -73.5t229 -206.5t82 -304t-82 -304t-229 -206.5t-337 -73.5t-337 73.5zM1018.5 137.5q121.5 59.5 187.5 168.5t66 254t-66 254t-187.5 168.5t-282.5 59.5t-282.5 -59.5t-187.5 -168.5t-66 -254
t66 -254t187.5 -168.5t282.5 -59.5t282.5 59.5zM736 1334l234 230h120l-286 -310h-136l-286 310h120z" />
    <glyph glyph-name="uni01D3" unicode="&#x1d3;" horiz-adv-x="1688" 
d="M286 616q0 -161 69 -282.5t195 -187.5t294 -66t294 66t195 187.5t69 282.5v884h112v-884q0 -188 -84.5 -333.5t-236.5 -226t-349 -80.5t-349 80.5t-236.5 226t-84.5 333.5v884h112v-884zM844 1711l234 193h120l-286 -270h-136l-286 270h120z" />
    <glyph glyph-name="uni01D4" unicode="&#x1d4;" horiz-adv-x="1366" 
d="M1258 0h-108l-52 308q-60 -156 -186 -244t-292 -88q-151 0 -258 62t-162.5 181.5t-55.5 288.5v612h108v-590q0 -225 100 -340.5t292 -115.5q132 0 233.5 62t157 173.5t55.5 256.5v554h108v-778zM672 1334l234 230h120l-286 -310h-136l-286 310h120z" />
    <glyph glyph-name="uni01D5" unicode="&#x1d5;" horiz-adv-x="1688" 
d="M286 616q0 -161 69 -282.5t195 -187.5t294 -66t294 66t195 187.5t69 282.5v884h112v-884q0 -188 -84.5 -333.5t-236.5 -226t-349 -80.5t-349 80.5t-236.5 226t-84.5 333.5v884h112v-884zM473 1718.5q-29 28.5 -29 69.5t29 69.5t71 28.5t71 -28.5t29 -69.5t-29 -69.5
t-71 -28.5t-71 28.5zM1073 1718.5q-29 28.5 -29 69.5t29 69.5t71 28.5t71 -28.5t29 -69.5t-29 -69.5t-71 -28.5t-71 28.5zM1230 2024h-774v96h774v-96z" />
    <glyph glyph-name="uni01D6" unicode="&#x1d6;" horiz-adv-x="1366" 
d="M1258 0h-108l-52 308q-60 -156 -186 -244t-292 -88q-151 0 -258 62t-162.5 181.5t-55.5 288.5v612h108v-590q0 -225 100 -340.5t292 -115.5q132 0 233.5 62t157 173.5t55.5 256.5v554h108v-778zM1058 1684h-774v96h774v-96zM303 1338.5q-29 28.5 -29 69.5t29 69.5
t71 28.5t71 -28.5t29 -69.5t-29 -69.5t-71 -28.5t-71 28.5zM899 1338.5q-29 28.5 -29 69.5t29 69.5t71 28.5t71 -28.5t29 -69.5t-29 -69.5t-71 -28.5t-71 28.5z" />
    <glyph glyph-name="uni01D7" unicode="&#x1d7;" horiz-adv-x="1688" 
d="M286 616q0 -161 69 -282.5t195 -187.5t294 -66t294 66t195 187.5t69 282.5v884h112v-884q0 -188 -84.5 -333.5t-236.5 -226t-349 -80.5t-349 80.5t-236.5 226t-84.5 333.5v884h112v-884zM473 1718.5q-29 28.5 -29 69.5t29 69.5t71 28.5t71 -28.5t29 -69.5t-29 -69.5
t-71 -28.5t-71 28.5zM1073 1718.5q-29 28.5 -29 69.5t29 69.5t71 28.5t71 -28.5t29 -69.5t-29 -69.5t-71 -28.5t-71 28.5zM728 1976l290 270h148l-308 -270h-130z" />
    <glyph glyph-name="uni01D8" unicode="&#x1d8;" horiz-adv-x="1366" 
d="M1258 0h-108l-52 308q-60 -156 -186 -244t-292 -88q-151 0 -258 62t-162.5 181.5t-55.5 288.5v612h108v-590q0 -225 100 -340.5t292 -115.5q132 0 233.5 62t157 173.5t55.5 256.5v554h108v-778zM556 1596l290 270h148l-308 -270h-130zM303 1338.5q-29 28.5 -29 69.5
t29 69.5t71 28.5t71 -28.5t29 -69.5t-29 -69.5t-71 -28.5t-71 28.5zM899 1338.5q-29 28.5 -29 69.5t29 69.5t71 28.5t71 -28.5t29 -69.5t-29 -69.5t-71 -28.5t-71 28.5z" />
    <glyph glyph-name="uni01D9" unicode="&#x1d9;" horiz-adv-x="1688" 
d="M286 616q0 -161 69 -282.5t195 -187.5t294 -66t294 66t195 187.5t69 282.5v884h112v-884q0 -188 -84.5 -333.5t-236.5 -226t-349 -80.5t-349 80.5t-236.5 226t-84.5 333.5v884h112v-884zM473 1718.5q-29 28.5 -29 69.5t29 69.5t71 28.5t71 -28.5t29 -69.5t-29 -69.5
t-71 -28.5t-71 28.5zM1073 1718.5q-29 28.5 -29 69.5t29 69.5t71 28.5t71 -28.5t29 -69.5t-29 -69.5t-71 -28.5t-71 28.5zM844 2053l234 193h120l-286 -270h-136l-286 270h120z" />
    <glyph glyph-name="uni01DA" unicode="&#x1da;" horiz-adv-x="1366" 
d="M1258 0h-108l-52 308q-60 -156 -186 -244t-292 -88q-151 0 -258 62t-162.5 181.5t-55.5 288.5v612h108v-590q0 -225 100 -340.5t292 -115.5q132 0 233.5 62t157 173.5t55.5 256.5v554h108v-778zM672 1673l234 193h120l-286 -270h-136l-286 270h120zM445 1477.5
q29 -28.5 29 -69.5t-29 -69.5t-71 -28.5t-71 28.5t-29 69.5t29 69.5t71 28.5t71 -28.5zM1041 1477.5q29 -28.5 29 -69.5t-29 -69.5t-71 -28.5t-71 28.5t-29 69.5t29 69.5t71 28.5t71 -28.5z" />
    <glyph glyph-name="uni01DB" unicode="&#x1db;" horiz-adv-x="1688" 
d="M286 616q0 -161 69 -282.5t195 -187.5t294 -66t294 66t195 187.5t69 282.5v884h112v-884q0 -188 -84.5 -333.5t-236.5 -226t-349 -80.5t-349 80.5t-236.5 226t-84.5 333.5v884h112v-884zM473 1718.5q-29 28.5 -29 69.5t29 69.5t71 28.5t71 -28.5t29 -69.5t-29 -69.5
t-71 -28.5t-71 28.5zM1073 1718.5q-29 28.5 -29 69.5t29 69.5t71 28.5t71 -28.5t29 -69.5t-29 -69.5t-71 -28.5t-71 28.5zM496 2246h148l290 -270h-130z" />
    <glyph glyph-name="uni01DC" unicode="&#x1dc;" horiz-adv-x="1366" 
d="M1258 0h-108l-52 308q-60 -156 -186 -244t-292 -88q-151 0 -258 62t-162.5 181.5t-55.5 288.5v612h108v-590q0 -225 100 -340.5t292 -115.5q132 0 233.5 62t157 173.5t55.5 256.5v554h108v-778zM324 1866h148l290 -270h-130zM303 1338.5q-29 28.5 -29 69.5t29 69.5
t71 28.5t71 -28.5t29 -69.5t-29 -69.5t-71 -28.5t-71 28.5zM899 1338.5q-29 28.5 -29 69.5t29 69.5t71 28.5t71 -28.5t29 -69.5t-29 -69.5t-71 -28.5t-71 28.5z" />
    <glyph glyph-name="uni01DD" unicode="&#x1dd;" horiz-adv-x="1364" 
d="M966 1070q146 -74 227 -206.5t81 -303.5t-76.5 -304t-214 -206.5t-315.5 -73.5q-172 0 -305 75.5t-207 212t-74 312.5h1080q-4 140 -70.5 245.5t-185 163t-274.5 57.5q-143 0 -273.5 -50t-242.5 -140v102q103 88 243 139t273 51q188 0 334 -74zM907.5 127
q104.5 49 169 140t80.5 213h-958q17 -122 79.5 -213t162.5 -140t227 -49q135 0 239.5 49z" />
    <glyph glyph-name="uni01DE" unicode="&#x1de;" horiz-adv-x="1684" 
d="M1656 0h-126l-200 400h-975l-201 -400h-126l758 1500h112zM843 1374l-438 -874h875zM471 1718.5q-29 28.5 -29 69.5t29 69.5t71 28.5t71 -28.5t29 -69.5t-29 -69.5t-71 -28.5t-71 28.5zM1071 1718.5q-29 28.5 -29 69.5t29 69.5t71 28.5t71 -28.5t29 -69.5t-29 -69.5
t-71 -28.5t-71 28.5zM1228 2024h-774v96h774v-96z" />
    <glyph glyph-name="uni01DF" unicode="&#x1df;" horiz-adv-x="1492" 
d="M1354 1120l-46 -560l46 -560h-108l-28 337q-94 -170 -239.5 -265.5t-320.5 -95.5q-163 0 -292 74t-202.5 207t-73.5 303t73.5 303t202.5 207t292 74q175 0 320.5 -95.5t239.5 -265.5l28 337h108zM1000 207.5q150 129.5 240 352.5q-90 223 -240 352.5t-342 129.5
q-131 0 -235 -61t-162.5 -170.5t-58.5 -250.5t58.5 -250.5t162.5 -170.5t235 -61q192 0 342 129.5zM1106 1684h-774v96h774v-96zM351 1338.5q-29 28.5 -29 69.5t29 69.5t71 28.5t71 -28.5t29 -69.5t-29 -69.5t-71 -28.5t-71 28.5zM947 1338.5q-29 28.5 -29 69.5t29 69.5
t71 28.5t71 -28.5t29 -69.5t-29 -69.5t-71 -28.5t-71 28.5z" />
    <glyph glyph-name="uni01E0" unicode="&#x1e0;" horiz-adv-x="1684" 
d="M1656 0h-126l-200 400h-975l-201 -400h-126l758 1500h112zM843 1374l-438 -874h875zM771 1718.5q-29 28.5 -29 69.5t29 69.5t71 28.5t71 -28.5t29 -69.5t-29 -69.5t-71 -28.5t-71 28.5zM1228 2024h-774v96h774v-96z" />
    <glyph glyph-name="uni01E1" unicode="&#x1e1;" horiz-adv-x="1492" 
d="M1354 1120l-46 -560l46 -560h-108l-28 337q-94 -170 -239.5 -265.5t-320.5 -95.5q-163 0 -292 74t-202.5 207t-73.5 303t73.5 303t202.5 207t292 74q175 0 320.5 -95.5t239.5 -265.5l28 337h108zM1000 207.5q150 129.5 240 352.5q-90 223 -240 352.5t-342 129.5
q-131 0 -235 -61t-162.5 -170.5t-58.5 -250.5t58.5 -250.5t162.5 -170.5t235 -61q192 0 342 129.5zM1106 1684h-774v96h774v-96zM649 1338.5q-29 28.5 -29 69.5t29 69.5t71 28.5t71 -28.5t29 -69.5t-29 -69.5t-71 -28.5t-71 28.5z" />
    <glyph glyph-name="uni01E2" unicode="&#x1e2;" horiz-adv-x="2482" 
d="M1282 700l284 -600h888v-100h-960l-190 400h-956l-190 -400h-126l716 1500h1554v-100h-1354l286 -600h1028v-100h-980zM826 1406l-430 -906h860zM1874 1702h-774v96h774v-96z" />
    <glyph glyph-name="uni01E3" unicode="&#x1e3;" horiz-adv-x="2484" 
d="M1337 520q9 -133 76.5 -233t181.5 -154.5t261 -54.5q145 0 275 52t235 138v-102q-87 -76 -222 -133t-288 -57q-186 0 -328.5 81t-215.5 224l-4 -281h-90l-6 326q-95 -165 -238 -257.5t-316 -92.5q-163 0 -292 74t-202.5 207t-73.5 303t73.5 303t202.5 207t292 74
q173 0 316 -92.5t238 -257.5l6 326h90l4 -272q71 141 207 218.5t303 77.5q178 0 308.5 -81t200 -223t69.5 -320h-1063zM1000 207.5q150 129.5 240 352.5q-90 223 -240 352.5t-342 129.5q-131 0 -235 -61t-162.5 -170.5t-58.5 -250.5t58.5 -250.5t162.5 -170.5t235 -61
q192 0 342 129.5zM1583.5 989.5q-105.5 -52.5 -169.5 -148.5t-75 -225h944q-16 130 -76 226t-158.5 148t-226.5 52q-133 0 -238.5 -52.5zM1650 1362h-774v96h774v-96z" />
    <glyph glyph-name="uni01E4" unicode="&#x1e4;" horiz-adv-x="1904" 
d="M1912 506v-100h-204v-404h-96l-3 316q-81 -165 -257 -253.5t-426 -88.5q-247 0 -433 97.5t-287.5 273t-101.5 403.5q0 227 103.5 402.5t290.5 273.5t428 98q206 0 373.5 -73.5t269.5 -202.5t119 -290h-116q-25 138 -110.5 242.5t-224 162t-317.5 57.5q-210 0 -368.5 -83
t-245 -234.5t-86.5 -352.5q0 -199 87.5 -351t250.5 -235.5t382 -83.5q240 0 402.5 82.5t226.5 243.5h-673v100h701q9 53 9 110v32h-590v100h692v-242h204z" />
    <glyph glyph-name="uni01E5" unicode="&#x1e5;" horiz-adv-x="1490" 
d="M1512 -24v-92h-291q-84 -119 -219.5 -178.5t-303.5 -59.5q-144 0 -265.5 41t-228.5 129v106q211 -174 488 -174q126 0 225 35t168 101h-493v92h565q71 121 71 292v155q-49 -96 -138.5 -180t-208.5 -135.5t-251 -51.5q-150 0 -272.5 68.5t-194 192.5t-71.5 283t71.5 283
t194 192.5t272.5 68.5q132 0 251 -51.5t208.5 -135.5t138.5 -180v343h108v-822q0 -186 -62 -322h238zM968 263.5q145 105.5 266 336.5q-120 230 -265.5 336t-320.5 106q-140 0 -240 -57t-152 -157t-52 -228t52 -228t152 -157t240 -57q175 0 320 105.5z" />
    <glyph glyph-name="Gcaron" unicode="&#x1e6;" horiz-adv-x="1840" 
d="M1016 704h692v-704h-96l-4 383q-53 -122 -152.5 -214t-236 -142.5t-297.5 -50.5q-239 0 -425 98t-289.5 274t-103.5 402q0 227 103.5 402.5t290.5 273.5t428 98q206 0 373.5 -73.5t269.5 -202.5t119 -290h-116q-25 138 -110.5 242.5t-224 162t-317.5 57.5
q-210 0 -368.5 -83t-245 -234.5t-86.5 -352.5t86.5 -353t245.5 -234.5t370 -82.5q187 0 333.5 67t235.5 186t109 271h-584v100zM916 1711l234 193h120l-286 -270h-136l-286 270h120z" />
    <glyph glyph-name="gcaron" unicode="&#x1e7;" horiz-adv-x="1490" 
d="M1228 1120h108v-822q0 -217 -83.5 -363.5t-227 -217.5t-327.5 -71q-144 0 -265.5 41t-228.5 129v106q211 -174 488 -174q172 0 292.5 64t182 181t61.5 275v155q-49 -96 -138.5 -180t-208.5 -135.5t-251 -51.5q-150 0 -272.5 68.5t-194 192.5t-71.5 283t71.5 283
t194 192.5t272.5 68.5q132 0 251 -51.5t208.5 -135.5t138.5 -180v343zM968 263.5q145 105.5 266 336.5q-120 230 -265.5 336t-320.5 106q-140 0 -240 -57t-152 -157t-52 -228t52 -228t152 -157t240 -57q175 0 320 105.5zM730 1334l234 230h120l-286 -310h-136l-286 310h120z
" />
    <glyph glyph-name="uni01E8" unicode="&#x1e8;" horiz-adv-x="1592" 
d="M1006 853l568 -853h-132l-514 761l-640 -761h-94v1500h112v-1317l1112 1317h132zM844 1711l234 193h120l-286 -270h-136l-286 270h120z" />
    <glyph glyph-name="uni01E9" unicode="&#x1e9;" horiz-adv-x="1256" 
d="M799 638l445 -638h-136l-382 551l-464 -551h-102v1540h108v-1378l804 958h132zM702 1751l234 193h120l-286 -270h-136l-286 270h120z" />
    <glyph glyph-name="uni01EA" unicode="&#x1ea;" horiz-adv-x="1860" 
d="M1360 1426q188 -98 292 -273.5t104 -402.5q0 -192 -74 -344.5t-211 -256t-323 -151.5q-138 -36 -218 -84.5t-80 -103.5q0 -41 43 -61.5t127 -20.5q74 0 128 12v-84q-26 -8 -66.5 -13t-79.5 -5q-116 0 -186 41t-70 111q0 108 157 186q-235 6 -416.5 105t-282 273
t-100.5 396q0 227 104 402.5t292 273.5t430 98t430 -98zM1304.5 162.5q160.5 82.5 248 234.5t87.5 353t-87.5 353t-248 234.5t-374.5 82.5t-374.5 -82.5t-248 -234.5t-87.5 -353t87.5 -353t248 -234.5t374.5 -82.5t374.5 82.5z" />
    <glyph glyph-name="uni01EB" unicode="&#x1eb;" horiz-adv-x="1472" 
d="M672 -190q0 -41 43 -61.5t127 -20.5q74 0 128 12v-84q-26 -8 -66.5 -13t-79.5 -5q-116 0 -186 41t-70 111q0 55 39.5 101t126.5 85q-190 1 -336.5 75t-228 206t-81.5 303t82 304t229 206.5t337 73.5t337 -73.5t229 -206.5t82 -304q0 -142 -54 -253.5t-148.5 -186
t-217.5 -112.5q-292 -92 -292 -198zM266 306q66 -109 187.5 -168.5t282.5 -59.5t282.5 59.5t187.5 168.5t66 254t-66 254t-187.5 168.5t-282.5 59.5t-282.5 -59.5t-187.5 -168.5t-66 -254t66 -254z" />
    <glyph glyph-name="uni01EC" unicode="&#x1ec;" horiz-adv-x="1860" 
d="M1360 1426q188 -98 292 -273.5t104 -402.5q0 -192 -74 -344.5t-211 -256t-323 -151.5q-138 -36 -218 -84.5t-80 -103.5q0 -41 43 -61.5t127 -20.5q74 0 128 12v-84q-26 -8 -66.5 -13t-79.5 -5q-116 0 -186 41t-70 111q0 108 157 186q-235 6 -416.5 105t-282 273
t-100.5 396q0 227 104 402.5t292 273.5t430 98t430 -98zM1304.5 162.5q160.5 82.5 248 234.5t87.5 353t-87.5 353t-248 234.5t-374.5 82.5t-374.5 -82.5t-248 -234.5t-87.5 -353t87.5 -353t248 -234.5t374.5 -82.5t374.5 82.5zM1316 1702h-774v96h774v-96z" />
    <glyph glyph-name="uni01ED" unicode="&#x1ed;" horiz-adv-x="1472" 
d="M672 -190q0 -41 43 -61.5t127 -20.5q74 0 128 12v-84q-26 -8 -66.5 -13t-79.5 -5q-116 0 -186 41t-70 111q0 55 39.5 101t126.5 85q-190 1 -336.5 75t-228 206t-81.5 303t82 304t229 206.5t337 73.5t337 -73.5t229 -206.5t82 -304q0 -142 -54 -253.5t-148.5 -186
t-217.5 -112.5q-292 -92 -292 -198zM266 306q66 -109 187.5 -168.5t282.5 -59.5t282.5 59.5t187.5 168.5t66 254t-66 254t-187.5 168.5t-282.5 59.5t-282.5 -59.5t-187.5 -168.5t-66 -254t66 -254zM1122 1362h-774v96h774v-96z" />
    <glyph glyph-name="uni01EE" unicode="&#x1ee;" horiz-adv-x="1478" 
d="M782 878q205 0 340.5 -54.5t199.5 -151t64 -224.5q0 -139 -78 -246t-223.5 -166.5t-340.5 -59.5q-200 0 -351 60.5t-237 170t-98 255.5h112q15 -122 86.5 -208.5t195 -132t292.5 -45.5q165 0 283 43t180.5 127t62.5 204q0 162 -123 251t-403 89h-168v98l607 512h-1061
v100h1210v-100l-622 -522h72zM728 1711l234 193h120l-286 -270h-136l-286 270h120z" />
    <glyph glyph-name="uni01EF" unicode="&#x1ef;" horiz-adv-x="1300" 
d="M678 514q187 0 311.5 -51t184.5 -142.5t60 -214.5q0 -129 -68 -233t-200 -164.5t-316 -60.5q-179 0 -315 60.5t-214.5 167t-90.5 242.5h110q16 -113 81.5 -196t175 -127.5t253.5 -44.5q227 0 349.5 91.5t122.5 258.5q0 156 -113 245t-359 89h-156v86l550 506h-934v94
h1072v-90l-557 -516h53zM644 1334l234 230h120l-286 -310h-136l-286 310h120z" />
    <glyph glyph-name="uni01F0" unicode="&#x1f0;" horiz-adv-x="428" 
d="M160 -330v1450l54 -8l54 8v-1450h-108zM214 1334l234 230h120l-286 -310h-136l-286 310h120z" />
    <glyph glyph-name="uni01F1" unicode="&#x1f1;" horiz-adv-x="3086" 
d="M800 1500q242 0 430 -95t292 -265t104 -390t-104 -390t-292 -265t-430 -95h-606v1500h606zM800 98q208 0 369 82.5t251 230.5t90 339t-90 339t-251 230.5t-369 82.5h-494v-1304h494zM3012 1400l-1177 -1300h1183v-100h-1328v100l1179 1300h-1169v100h1312v-100z" />
    <glyph glyph-name="uni01F2" unicode="&#x1f2;" horiz-adv-x="2928" 
d="M800 1500q242 0 430 -95t292 -265t104 -390t-104 -390t-292 -265t-430 -95h-606v1500h606zM800 98q208 0 369 82.5t251 230.5t90 339t-90 339t-251 230.5t-369 82.5h-494v-1304h494zM2858 1030l-919 -936h923v-94h-1062v90l919 936h-911v94h1050v-90z" />
    <glyph glyph-name="uni01F3" unicode="&#x1f3;" horiz-adv-x="2682" 
d="M1394 1540l-86 -980l46 -560h-108l-28 337q-94 -170 -239.5 -265.5t-320.5 -95.5q-163 0 -292 74t-202.5 207t-73.5 303t73.5 303t202.5 207t292 74q177 0 323.5 -97.5t240.5 -269.5l66 763h106zM1000 207.5q150 129.5 240 352.5q-90 223 -240 352.5t-342 129.5
q-131 0 -235 -61t-162.5 -170.5t-58.5 -250.5t58.5 -250.5t162.5 -170.5t235 -61q192 0 342 129.5zM2612 1030l-919 -936h923v-94h-1062v90l919 936h-911v94h1050v-90z" />
    <glyph glyph-name="uni01F4" unicode="&#x1f4;" horiz-adv-x="1840" 
d="M1016 704h692v-704h-96l-4 383q-53 -122 -152.5 -214t-236 -142.5t-297.5 -50.5q-239 0 -425 98t-289.5 274t-103.5 402q0 227 103.5 402.5t290.5 273.5t428 98q206 0 373.5 -73.5t269.5 -202.5t119 -290h-116q-25 138 -110.5 242.5t-224 162t-317.5 57.5
q-210 0 -368.5 -83t-245 -234.5t-86.5 -352.5t86.5 -353t245.5 -234.5t370 -82.5q187 0 333.5 67t235.5 186t109 271h-584v100zM800 1634l290 270h148l-308 -270h-130z" />
    <glyph glyph-name="uni01F5" unicode="&#x1f5;" horiz-adv-x="1490" 
d="M1228 1120h108v-822q0 -217 -83.5 -363.5t-227 -217.5t-327.5 -71q-144 0 -265.5 41t-228.5 129v106q211 -174 488 -174q172 0 292.5 64t182 181t61.5 275v155q-49 -96 -138.5 -180t-208.5 -135.5t-251 -51.5q-150 0 -272.5 68.5t-194 192.5t-71.5 283t71.5 283
t194 192.5t272.5 68.5q132 0 251 -51.5t208.5 -135.5t138.5 -180v343zM968 263.5q145 105.5 266 336.5q-120 230 -265.5 336t-320.5 106q-140 0 -240 -57t-152 -157t-52 -228t52 -228t152 -157t240 -57q175 0 320 105.5zM640 1254l234 310h122l-238 -310h-118z" />
    <glyph glyph-name="uni01F8" unicode="&#x1f8;" horiz-adv-x="1798" 
d="M1496 121v1379h108v-1500h-146l-1156 1379v-1379h-108v1500h146zM576 1904h148l290 -270h-130z" />
    <glyph glyph-name="uni01F9" unicode="&#x1f9;" horiz-adv-x="1390" 
d="M1023 1082q109 -62 166 -181.5t57 -288.5v-612h-108v590q0 225 -102 340.5t-300 115.5q-136 0 -240 -62t-161 -173.5t-57 -256.5v-554h-108v778l-60 342h108l50 -301q62 152 191 238.5t301 86.5q154 0 263 -62zM442 1564h122l234 -310h-118z" />
    <glyph glyph-name="Aringacute" unicode="&#x1fa;" horiz-adv-x="1684" 
d="M708.5 1637.5q-57.5 23.5 -89 66.5t-31.5 100q0 76 55.5 126t150.5 61l134 251h130l-160 -252q92 -12 145 -62t53 -124q0 -57 -31.5 -100t-89 -66.5t-133.5 -23.5t-133.5 23.5zM719 1882.5q-43 -27.5 -43 -78.5t43 -78.5t123 -27.5t123 27.5t43 78.5t-43 78.5t-123 27.5
t-123 -27.5zM1656 0h-126l-200 400h-975l-201 -400h-126l758 1500h112zM843 1374l-438 -874h875z" />
    <glyph glyph-name="aringacute" unicode="&#x1fb;" horiz-adv-x="1492" 
d="M586.5 1260q-57.5 26 -89 74t-31.5 110q0 85 56.5 140.5t152.5 66.5l131 247h130l-158 -248q91 -14 143.5 -69t52.5 -137q0 -62 -31.5 -110t-89 -74t-133.5 -26t-133.5 26zM597.5 1537q-43.5 -33 -43.5 -93t43.5 -93t122.5 -33t122.5 33t43.5 93t-43.5 93t-122.5 33
t-122.5 -33zM1354 1120l-46 -560l46 -560h-108l-28 337q-94 -170 -239.5 -265.5t-320.5 -95.5q-163 0 -292 74t-202.5 207t-73.5 303t73.5 303t202.5 207t292 74q175 0 320.5 -95.5t239.5 -265.5l28 337h108zM1000 207.5q150 129.5 240 352.5q-90 223 -240 352.5t-342 129.5
q-131 0 -235 -61t-162.5 -170.5t-58.5 -250.5t58.5 -250.5t162.5 -170.5t235 -61q192 0 342 129.5z" />
    <glyph glyph-name="AEacute" unicode="&#x1fc;" horiz-adv-x="2482" 
d="M1282 700l284 -600h888v-100h-960l-190 400h-956l-190 -400h-126l716 1500h1554v-100h-1354l286 -600h1028v-100h-980zM826 1406l-430 -906h860zM1372 1634l290 270h148l-308 -270h-130z" />
    <glyph glyph-name="aeacute" unicode="&#x1fd;" horiz-adv-x="2484" 
d="M1337 520q9 -133 76.5 -233t181.5 -154.5t261 -54.5q145 0 275 52t235 138v-102q-87 -76 -222 -133t-288 -57q-186 0 -328.5 81t-215.5 224l-4 -281h-90l-6 326q-95 -165 -238 -257.5t-316 -92.5q-163 0 -292 74t-202.5 207t-73.5 303t73.5 303t202.5 207t292 74
q173 0 316 -92.5t238 -257.5l6 326h90l4 -272q71 141 207 218.5t303 77.5q178 0 308.5 -81t200 -223t69.5 -320h-1063zM1000 207.5q150 129.5 240 352.5q-90 223 -240 352.5t-342 129.5q-131 0 -235 -61t-162.5 -170.5t-58.5 -250.5t58.5 -250.5t162.5 -170.5t235 -61
q192 0 342 129.5zM1583.5 989.5q-105.5 -52.5 -169.5 -148.5t-75 -225h944q-16 130 -76 226t-158.5 148t-226.5 52q-133 0 -238.5 -52.5zM1174 1254l234 310h122l-238 -310h-118z" />
    <glyph glyph-name="Oslashacute" unicode="&#x1fe;" horiz-adv-x="1860" 
d="M1523 1313q112 -104 172.5 -248t60.5 -315q0 -227 -104 -402.5t-292 -273.5t-430 -98q-150 0 -280.5 38.5t-234.5 110.5l-135 -145h-136l193 207q-112 104 -172.5 248t-60.5 315q0 227 104 402.5t292 273.5t430 98q150 0 280.5 -38.5t234.5 -110.5l135 145h136z
M269 476.5q49 -123.5 141 -211.5l962 1032q-88 60 -199.5 91.5t-242.5 31.5q-214 0 -374.5 -82.5t-248 -234.5t-87.5 -353q0 -150 49 -273.5zM1304.5 162.5q160.5 82.5 248 234.5t87.5 353q0 150 -49 273.5t-141 211.5l-962 -1032q88 -60 199.5 -91.5t242.5 -31.5
q214 0 374.5 82.5zM814 1634l290 270h148l-308 -270h-130z" />
    <glyph glyph-name="oslashacute" unicode="&#x1ff;" horiz-adv-x="1472" 
d="M1193 992q92 -79 141.5 -189t49.5 -243q0 -171 -82 -304t-229 -206.5t-337 -73.5q-109 0 -204.5 24.5t-173.5 71.5l-120 -132h-130l171 188q-92 79 -141.5 189t-49.5 243q0 171 82 304t229 206.5t337 73.5q109 0 204.5 -24.5t173.5 -71.5l120 132h130zM238.5 360
q38.5 -90 111.5 -154l693 764q-131 72 -307 72q-161 0 -282.5 -59.5t-187.5 -168.5t-66 -254q0 -110 38.5 -200zM1018.5 137.5q121.5 59.5 187.5 168.5t66 254q0 110 -38.5 200t-111.5 154l-693 -764q131 -72 307 -72q161 0 282.5 59.5zM646 1254l234 310h122l-238 -310
h-118z" />
    <glyph glyph-name="uni0200" unicode="&#x200;" horiz-adv-x="1684" 
d="M1656 0h-126l-200 400h-975l-201 -400h-126l758 1500h112zM843 1374l-438 -874h875zM390 1904h130l236 -270h-124zM740 1904h130l236 -270h-124z" />
    <glyph glyph-name="uni0201" unicode="&#x201;" horiz-adv-x="1492" 
d="M1354 1120l-46 -560l46 -560h-108l-28 337q-94 -170 -239.5 -265.5t-320.5 -95.5q-163 0 -292 74t-202.5 207t-73.5 303t73.5 303t202.5 207t292 74q175 0 320.5 -95.5t239.5 -265.5l28 337h108zM1000 207.5q150 129.5 240 352.5q-90 223 -240 352.5t-342 129.5
q-131 0 -235 -61t-162.5 -170.5t-58.5 -250.5t58.5 -250.5t162.5 -170.5t235 -61q192 0 342 129.5zM296 1564h122l210 -310h-118zM606 1564h122l210 -310h-118z" />
    <glyph glyph-name="uni0202" unicode="&#x202;" horiz-adv-x="1684" 
d="M1656 0h-126l-200 400h-975l-201 -400h-126l758 1500h112zM843 1374l-438 -874h875zM1092 1632q-20 90 -82.5 138t-167.5 48t-167.5 -48t-82.5 -138h-102q24 130 118 203t234 73t234 -73t118 -203h-102z" />
    <glyph glyph-name="uni0203" unicode="&#x203;" horiz-adv-x="1492" 
d="M1354 1120l-46 -560l46 -560h-108l-28 337q-94 -170 -239.5 -265.5t-320.5 -95.5q-163 0 -292 74t-202.5 207t-73.5 303t73.5 303t202.5 207t292 74q175 0 320.5 -95.5t239.5 -265.5l28 337h108zM1000 207.5q150 129.5 240 352.5q-90 223 -240 352.5t-342 129.5
q-131 0 -235 -61t-162.5 -170.5t-58.5 -250.5t58.5 -250.5t162.5 -170.5t235 -61q192 0 342 129.5zM970 1254q-19 103 -85 160.5t-165 57.5t-165 -57.5t-85 -160.5h-102q17 146 109.5 227t242.5 81t242.5 -81t109.5 -227h-102z" />
    <glyph glyph-name="uni0204" unicode="&#x204;" horiz-adv-x="1472" 
d="M368 700l-101 -600h1093v-100h-1220l126 750l-126 750h1210v-100h-1083l101 -600h942v-100h-942zM296 1904h130l236 -270h-124zM646 1904h130l236 -270h-124z" />
    <glyph glyph-name="uni0205" unicode="&#x205;" horiz-adv-x="1364" 
d="M202 544q4 -140 70.5 -245.5t185 -163t274.5 -57.5q143 0 273.5 50t242.5 140v-102q-103 -88 -243 -139t-273 -51q-188 0 -334 74t-227 206.5t-81 303.5t76.5 304t214 206.5t315.5 73.5q172 0 305 -75.5t207 -212t74 -312.5h-1080zM456.5 993q-104.5 -49 -169 -140
t-80.5 -213h958q-17 122 -79.5 213t-162.5 140t-227 49q-135 0 -239.5 -49zM262 1564h122l210 -310h-118zM572 1564h122l210 -310h-118z" />
    <glyph glyph-name="uni0206" unicode="&#x206;" horiz-adv-x="1472" 
d="M368 700l-101 -600h1093v-100h-1220l126 750l-126 750h1210v-100h-1083l101 -600h942v-100h-942zM998 1632q-20 90 -82.5 138t-167.5 48t-167.5 -48t-82.5 -138h-102q24 130 118 203t234 73t234 -73t118 -203h-102z" />
    <glyph glyph-name="uni0207" unicode="&#x207;" horiz-adv-x="1364" 
d="M202 544q4 -140 70.5 -245.5t185 -163t274.5 -57.5q143 0 273.5 50t242.5 140v-102q-103 -88 -243 -139t-273 -51q-188 0 -334 74t-227 206.5t-81 303.5t76.5 304t214 206.5t315.5 73.5q172 0 305 -75.5t207 -212t74 -312.5h-1080zM456.5 993q-104.5 -49 -169 -140
t-80.5 -213h958q-17 122 -79.5 213t-162.5 140t-227 49q-135 0 -239.5 -49zM936 1254q-19 103 -85 160.5t-165 57.5t-165 -57.5t-85 -160.5h-102q17 146 109.5 227t242.5 81t242.5 -81t109.5 -227h-102z" />
    <glyph glyph-name="uni0208" unicode="&#x208;" horiz-adv-x="500" 
d="M-120 1904h122l166 -270h-118zM178 1904h122l166 -270h-118zM194 0v1500h112v-1500h-112z" />
    <glyph glyph-name="uni0209" unicode="&#x209;" horiz-adv-x="428" 
d="M-116 1564h122l166 -310h-118zM102 1564h122l166 -310h-118zM160 0v1120l54 -8l54 8v-1120h-108z" />
    <glyph glyph-name="uni020A" unicode="&#x20a;" horiz-adv-x="500" 
d="M194 0v1500h112v-1500h-112zM500 1632q-20 90 -82.5 138t-167.5 48t-167.5 -48t-82.5 -138h-102q24 130 118 203t234 73t234 -73t118 -203h-102z" />
    <glyph glyph-name="uni020B" unicode="&#x20b;" horiz-adv-x="428" 
d="M414 1256q-17 106 -67.5 162t-132.5 56t-132.5 -56t-67.5 -162h-92q17 146 93 227t199 81t199 -81t93 -227h-92zM160 0v1120l54 -8l54 8v-1120h-108z" />
    <glyph glyph-name="uni020C" unicode="&#x20c;" horiz-adv-x="1860" 
d="M500 74q-188 98 -292 273.5t-104 402.5t104 402.5t292 273.5t430 98t430 -98t292 -273.5t104 -402.5t-104 -402.5t-292 -273.5t-430 -98t-430 98zM1304.5 162.5q160.5 82.5 248 234.5t87.5 353t-87.5 353t-248 234.5t-374.5 82.5t-374.5 -82.5t-248 -234.5t-87.5 -353
t87.5 -353t248 -234.5t374.5 -82.5t374.5 82.5zM478 1904h130l236 -270h-124zM828 1904h130l236 -270h-124z" />
    <glyph glyph-name="uni020D" unicode="&#x20d;" horiz-adv-x="1472" 
d="M399 49.5q-147 73.5 -229 206.5t-82 304t82 304t229 206.5t337 73.5t337 -73.5t229 -206.5t82 -304t-82 -304t-229 -206.5t-337 -73.5t-337 73.5zM1018.5 137.5q121.5 59.5 187.5 168.5t66 254t-66 254t-187.5 168.5t-282.5 59.5t-282.5 -59.5t-187.5 -168.5t-66 -254
t66 -254t187.5 -168.5t282.5 -59.5t282.5 59.5zM312 1564h122l210 -310h-118zM622 1564h122l210 -310h-118z" />
    <glyph glyph-name="uni020E" unicode="&#x20e;" horiz-adv-x="1860" 
d="M500 74q-188 98 -292 273.5t-104 402.5t104 402.5t292 273.5t430 98t430 -98t292 -273.5t104 -402.5t-104 -402.5t-292 -273.5t-430 -98t-430 98zM1304.5 162.5q160.5 82.5 248 234.5t87.5 353t-87.5 353t-248 234.5t-374.5 82.5t-374.5 -82.5t-248 -234.5t-87.5 -353
t87.5 -353t248 -234.5t374.5 -82.5t374.5 82.5zM1180 1632q-20 90 -82.5 138t-167.5 48t-167.5 -48t-82.5 -138h-102q24 130 118 203t234 73t234 -73t118 -203h-102z" />
    <glyph glyph-name="uni020F" unicode="&#x20f;" horiz-adv-x="1472" 
d="M399 49.5q-147 73.5 -229 206.5t-82 304t82 304t229 206.5t337 73.5t337 -73.5t229 -206.5t82 -304t-82 -304t-229 -206.5t-337 -73.5t-337 73.5zM1018.5 137.5q121.5 59.5 187.5 168.5t66 254t-66 254t-187.5 168.5t-282.5 59.5t-282.5 -59.5t-187.5 -168.5t-66 -254
t66 -254t187.5 -168.5t282.5 -59.5t282.5 59.5zM986 1254q-19 103 -85 160.5t-165 57.5t-165 -57.5t-85 -160.5h-102q17 146 109.5 227t242.5 81t242.5 -81t109.5 -227h-102z" />
    <glyph glyph-name="uni0210" unicode="&#x210;" horiz-adv-x="1530" 
d="M1298 0l-619 660h-373v-660h-112v1500h744q143 0 254 -53t172.5 -148.5t61.5 -218.5t-61.5 -218.5t-172.5 -148.5t-254 -53h-107l619 -660h-152zM306 1400v-640h642q110 0 193 39.5t128 112t45 168.5t-45 168.5t-128 112t-193 39.5h-642zM304 1904h130l236 -270h-124z
M654 1904h130l236 -270h-124z" />
    <glyph glyph-name="uni0211" unicode="&#x211;" horiz-adv-x="924" 
d="M825.5 1137.5q47.5 -6.5 76.5 -17.5v-106q-31 12 -81 19t-99 7q-130 0 -230.5 -61.5t-157 -172t-56.5 -252.5v-554h-108v782l-60 338h108l49 -294q34 97 101 169t160 110.5t204 38.5q46 0 93.5 -6.5zM90 1564h122l210 -310h-118zM400 1564h122l210 -310h-118z" />
    <glyph glyph-name="uni0212" unicode="&#x212;" horiz-adv-x="1530" 
d="M1298 0l-619 660h-373v-660h-112v1500h744q143 0 254 -53t172.5 -148.5t61.5 -218.5t-61.5 -218.5t-172.5 -148.5t-254 -53h-107l619 -660h-152zM306 1400v-640h642q110 0 193 39.5t128 112t45 168.5t-45 168.5t-128 112t-193 39.5h-642zM1006 1632q-20 90 -82.5 138
t-167.5 48t-167.5 -48t-82.5 -138h-102q24 130 118 203t234 73t234 -73t118 -203h-102z" />
    <glyph glyph-name="uni0213" unicode="&#x213;" horiz-adv-x="924" 
d="M825.5 1137.5q47.5 -6.5 76.5 -17.5v-106q-31 12 -81 19t-99 7q-130 0 -230.5 -61.5t-157 -172t-56.5 -252.5v-554h-108v782l-60 338h108l49 -294q34 97 101 169t160 110.5t204 38.5q46 0 93.5 -6.5zM764 1254q-19 103 -85 160.5t-165 57.5t-165 -57.5t-85 -160.5h-102
q17 146 109.5 227t242.5 81t242.5 -81t109.5 -227h-102z" />
    <glyph glyph-name="uni0214" unicode="&#x214;" horiz-adv-x="1688" 
d="M286 616q0 -161 69 -282.5t195 -187.5t294 -66t294 66t195 187.5t69 282.5v884h112v-884q0 -188 -84.5 -333.5t-236.5 -226t-349 -80.5t-349 80.5t-236.5 226t-84.5 333.5v884h112v-884zM392 1904h130l236 -270h-124zM742 1904h130l236 -270h-124z" />
    <glyph glyph-name="uni0215" unicode="&#x215;" horiz-adv-x="1368" 
d="M1258 0h-108l-52 308q-60 -156 -186 -244t-292 -88q-151 0 -258 62t-162.5 181.5t-55.5 288.5v612h108v-590q0 -225 100 -340.5t292 -115.5q132 0 233.5 62t157 173.5t55.5 256.5v554h108v-778zM248 1564h122l210 -310h-118zM558 1564h122l210 -310h-118z" />
    <glyph glyph-name="uni0216" unicode="&#x216;" horiz-adv-x="1688" 
d="M286 616q0 -161 69 -282.5t195 -187.5t294 -66t294 66t195 187.5t69 282.5v884h112v-884q0 -188 -84.5 -333.5t-236.5 -226t-349 -80.5t-349 80.5t-236.5 226t-84.5 333.5v884h112v-884zM1094 1632q-20 90 -82.5 138t-167.5 48t-167.5 -48t-82.5 -138h-102
q24 130 118 203t234 73t234 -73t118 -203h-102z" />
    <glyph glyph-name="uni0217" unicode="&#x217;" horiz-adv-x="1368" 
d="M1258 0h-108l-52 308q-60 -156 -186 -244t-292 -88q-151 0 -258 62t-162.5 181.5t-55.5 288.5v612h108v-590q0 -225 100 -340.5t292 -115.5q132 0 233.5 62t157 173.5t55.5 256.5v554h108v-778zM922 1254q-19 103 -85 160.5t-165 57.5t-165 -57.5t-85 -160.5h-102
q17 146 109.5 227t242.5 81t242.5 -81t109.5 -227h-102z" />
    <glyph glyph-name="uni0218" unicode="&#x218;" horiz-adv-x="1536" 
d="M198 484q15 -122 92.5 -214t205.5 -142t290 -50q164 0 287 41t190 117.5t67 181.5q0 78 -42.5 131.5t-136.5 87.5t-251 51l-254 28q-269 29 -390.5 124.5t-121.5 255.5q0 129 77 226t216.5 149.5t320.5 52.5q185 0 331 -58.5t231.5 -163t93.5 -240.5h-112
q-13 108 -84.5 189.5t-190.5 126t-271 44.5q-151 0 -264 -39t-174.5 -112.5t-61.5 -174.5q0 -81 42.5 -135.5t134 -88t243.5 -50.5l242 -28q194 -22 310.5 -66.5t170 -118.5t53.5 -187q0 -138 -81.5 -238.5t-230 -154t-346.5 -53.5q-195 0 -350 64t-246.5 179.5
t-101.5 264.5h112zM840 -128q24 -28 24 -68q0 -28 -12 -57.5t-44 -90.5l-46 -88h-84l70 156q-32 6 -52 30t-20 54q0 39 25 65.5t67 26.5q48 0 72 -28z" />
    <glyph glyph-name="uni0219" unicode="&#x219;" horiz-adv-x="1272" 
d="M1119 138q-67 -77 -188 -119.5t-277 -42.5q-163 0 -292.5 51t-204.5 142.5t-81 210.5h110q11 -90 74 -159.5t165.5 -108t228.5 -38.5q124 0 219 30.5t148 85t53 124.5q0 60 -32 96.5t-105.5 59.5t-206.5 38l-212 24q-215 24 -310.5 94t-95.5 196q0 99 62 172t173.5 111.5
t258.5 38.5q158 0 284 -47.5t199.5 -133t80.5 -195.5h-110q-10 81 -70.5 144.5t-161.5 98.5t-226 35q-182 0 -280 -56.5t-98 -161.5q0 -57 29.5 -95t95.5 -62t177 -37l210 -24q170 -19 267.5 -53.5t140 -92.5t42.5 -150q0 -99 -67 -176zM708 -128q24 -28 24 -68
q0 -28 -12 -57.5t-44 -90.5l-46 -88h-84l70 156q-32 6 -52 30t-20 54q0 39 25 65.5t67 26.5q48 0 72 -28z" />
    <glyph glyph-name="uni021A" unicode="&#x21a;" horiz-adv-x="1500" 
d="M26 1500h1448v-100h-668v-1400h-112v1400h-668v100zM824 -128q24 -28 24 -68q0 -28 -12 -57.5t-44 -90.5l-46 -88h-84l70 156q-32 6 -52 30t-20 54q0 39 25 65.5t67 26.5q48 0 72 -28z" />
    <glyph glyph-name="uni021B" unicode="&#x21b;" horiz-adv-x="1004" 
d="M6 1022v60l252 30l40 294h68v-286h572v-98h-572v-652q0 -158 71 -225t219 -67q90 0 162 24t142 74v-112q-47 -34 -139.5 -61t-184.5 -27q-199 0 -288.5 102t-89.5 274v670h-252zM678 -128q24 -28 24 -68q0 -28 -12 -57.5t-44 -90.5l-46 -88h-84l70 156q-32 6 -52 30
t-20 54q0 39 25 65.5t67 26.5q48 0 72 -28z" />
    <glyph glyph-name="uni021C" unicode="&#x21c;" horiz-adv-x="1478" 
d="M782 878q205 0 340.5 -54.5t199.5 -151t64 -224.5q0 -139 -78 -246t-223.5 -166.5t-340.5 -59.5q-200 0 -351 60.5t-237 170t-98 255.5h112q15 -122 86.5 -208.5t195 -132t292.5 -45.5q165 0 283 43t180.5 127t62.5 204q0 162 -123 251t-403 89h-168v98l607 512h-1061
v100h1210v-100l-622 -522h72z" />
    <glyph glyph-name="uni021D" unicode="&#x21d;" horiz-adv-x="1300" 
d="M678 514q187 0 311.5 -51t184.5 -142.5t60 -214.5q0 -129 -68 -233t-200 -164.5t-316 -60.5q-179 0 -315 60.5t-214.5 167t-90.5 242.5h110q16 -113 81.5 -196t175 -127.5t253.5 -44.5q227 0 349.5 91.5t122.5 258.5q0 156 -113 245t-359 89h-156v86l550 506h-934v94
h1072v-90l-557 -516h53z" />
    <glyph glyph-name="uni021E" unicode="&#x21e;" horiz-adv-x="1760" 
d="M1454 800v700h112v-1500h-112v700h-1148v-700h-112v1500h112v-700h1148zM880 1711l234 193h120l-286 -270h-136l-286 270h120z" />
    <glyph glyph-name="uni021F" unicode="&#x21f;" horiz-adv-x="1378" 
d="M1011 1082q109 -62 166 -181.5t57 -288.5v-612h-108v590q0 225 -102 340.5t-300 115.5q-135 0 -238.5 -62t-160.5 -173.5t-57 -256.5v-554h-108v1540h108v-698q64 142 190 222t290 80q154 0 263 -62zM728 1751l234 193h120l-286 -270h-136l-286 270h120z" />
    <glyph glyph-name="uni0220" unicode="&#x220;" horiz-adv-x="1668" 
d="M1220.5 1454.5q131.5 -69.5 200.5 -202t69 -320.5v-1262h-112v1240q0 251 -127.5 380.5t-374.5 129.5q-171 0 -300 -61t-199.5 -171.5t-70.5 -253.5v-934h-112v1500h112v-300q76 152 233 238t367 86q183 0 314.5 -69.5z" />
    <glyph glyph-name="uni0226" unicode="&#x226;" horiz-adv-x="1684" 
d="M1656 0h-126l-200 400h-975l-201 -400h-126l758 1500h112zM843 1374l-438 -874h875zM771 1718.5q-29 28.5 -29 69.5t29 69.5t71 28.5t71 -28.5t29 -69.5t-29 -69.5t-71 -28.5t-71 28.5z" />
    <glyph glyph-name="uni0227" unicode="&#x227;" horiz-adv-x="1492" 
d="M1354 1120l-46 -560l46 -560h-108l-28 337q-94 -170 -239.5 -265.5t-320.5 -95.5q-163 0 -292 74t-202.5 207t-73.5 303t73.5 303t202.5 207t292 74q175 0 320.5 -95.5t239.5 -265.5l28 337h108zM1000 207.5q150 129.5 240 352.5q-90 223 -240 352.5t-342 129.5
q-131 0 -235 -61t-162.5 -170.5t-58.5 -250.5t58.5 -250.5t162.5 -170.5t235 -61q192 0 342 129.5zM649 1338.5q-29 28.5 -29 69.5t29 69.5t71 28.5t71 -28.5t29 -69.5t-29 -69.5t-71 -28.5t-71 28.5z" />
    <glyph glyph-name="uni0228" unicode="&#x228;" horiz-adv-x="1472" 
d="M1360 0h-529l-74 -113q45 19 119 19q94 0 151 -42.5t57 -113.5q0 -52 -32.5 -91t-92.5 -61t-139 -22q-108 0 -191.5 44t-110.5 116h106q56 -74 196 -74q78 0 117 24t39 64q0 36 -35 56t-97 20q-80 0 -140 -28h-98l127 202h-593l126 750l-126 750h1210v-100h-1083
l101 -600h942v-100h-942l-101 -600h1093v-100z" />
    <glyph glyph-name="uni0229" unicode="&#x229;" horiz-adv-x="1364" 
d="M202 544q4 -140 70.5 -245.5t185 -163t274.5 -57.5q143 0 273.5 50t242.5 140v-102q-101 -86 -238.5 -137t-268.5 -53l-59 -90q44 20 122 20q92 0 149 -42.5t57 -113.5q0 -52 -32.5 -91t-92 -61t-137.5 -22q-107 0 -189 44t-109 116h104q24 -37 73.5 -56.5t120.5 -19.5
q79 0 118.5 24.5t39.5 65.5q0 37 -35.5 57.5t-98.5 20.5q-84 0 -140 -30h-98l114 182q-166 16 -292.5 93t-196 203t-69.5 284q0 171 76.5 304t214 206.5t315.5 73.5q172 0 305 -75.5t207 -212t74 -312.5h-1080zM456.5 993q-104.5 -49 -169 -140t-80.5 -213h958
q-17 122 -79.5 213t-162.5 140t-227 49q-135 0 -239.5 -49z" />
    <glyph glyph-name="uni022A" unicode="&#x22a;" horiz-adv-x="1860" 
d="M500 74q-188 98 -292 273.5t-104 402.5t104 402.5t292 273.5t430 98t430 -98t292 -273.5t104 -402.5t-104 -402.5t-292 -273.5t-430 -98t-430 98zM1304.5 162.5q160.5 82.5 248 234.5t87.5 353t-87.5 353t-248 234.5t-374.5 82.5t-374.5 -82.5t-248 -234.5t-87.5 -353
t87.5 -353t248 -234.5t374.5 -82.5t374.5 82.5zM559 1718.5q-29 28.5 -29 69.5t29 69.5t71 28.5t71 -28.5t29 -69.5t-29 -69.5t-71 -28.5t-71 28.5zM1159 1718.5q-29 28.5 -29 69.5t29 69.5t71 28.5t71 -28.5t29 -69.5t-29 -69.5t-71 -28.5t-71 28.5zM1316 2024h-774v96h774
v-96z" />
    <glyph glyph-name="uni022B" unicode="&#x22b;" horiz-adv-x="1472" 
d="M399 49.5q-147 73.5 -229 206.5t-82 304t82 304t229 206.5t337 73.5t337 -73.5t229 -206.5t82 -304t-82 -304t-229 -206.5t-337 -73.5t-337 73.5zM1018.5 137.5q121.5 59.5 187.5 168.5t66 254t-66 254t-187.5 168.5t-282.5 59.5t-282.5 -59.5t-187.5 -168.5t-66 -254
t66 -254t187.5 -168.5t282.5 -59.5t282.5 59.5zM1122 1684h-774v96h774v-96zM367 1338.5q-29 28.5 -29 69.5t29 69.5t71 28.5t71 -28.5t29 -69.5t-29 -69.5t-71 -28.5t-71 28.5zM963 1338.5q-29 28.5 -29 69.5t29 69.5t71 28.5t71 -28.5t29 -69.5t-29 -69.5t-71 -28.5
t-71 28.5z" />
    <glyph glyph-name="uni022C" unicode="&#x22c;" horiz-adv-x="1860" 
d="M500 74q-188 98 -292 273.5t-104 402.5t104 402.5t292 273.5t430 98t430 -98t292 -273.5t104 -402.5t-104 -402.5t-292 -273.5t-430 -98t-430 98zM1304.5 162.5q160.5 82.5 248 234.5t87.5 353t-87.5 353t-248 234.5t-374.5 82.5t-374.5 -82.5t-248 -234.5t-87.5 -353
t87.5 -353t248 -234.5t374.5 -82.5t374.5 82.5zM526 1650q8 105 64.5 168.5t145.5 63.5q50 0 100 -19t124 -57q61 -31 97 -45.5t67 -14.5q48 0 78.5 35.5t39.5 100.5h92q-8 -105 -64.5 -168.5t-145.5 -63.5q-50 0 -100 19t-124 57q-61 31 -97 45.5t-67 14.5
q-48 0 -78.5 -35.5t-39.5 -100.5h-92zM1316 2002h-774v96h774v-96z" />
    <glyph glyph-name="uni022D" unicode="&#x22d;" horiz-adv-x="1472" 
d="M399 49.5q-147 73.5 -229 206.5t-82 304t82 304t229 206.5t337 73.5t337 -73.5t229 -206.5t82 -304t-82 -304t-229 -206.5t-337 -73.5t-337 73.5zM1018.5 137.5q121.5 59.5 187.5 168.5t66 254t-66 254t-187.5 168.5t-282.5 59.5t-282.5 -59.5t-187.5 -168.5t-66 -254
t66 -254t187.5 -168.5t282.5 -59.5t282.5 59.5zM352 1310q8 105 64.5 168.5t145.5 63.5q45 0 89.5 -19t111.5 -57q53 -30 86 -45t61 -15q48 0 78.5 35.5t39.5 100.5h92q-8 -105 -64.5 -168.5t-145.5 -63.5q-45 0 -89.5 19t-111.5 57q-53 30 -86 45t-61 15q-48 0 -78.5 -35.5
t-39.5 -100.5h-92zM1122 1714h-774v96h774v-96z" />
    <glyph glyph-name="uni022E" unicode="&#x22e;" horiz-adv-x="1860" 
d="M500 74q-188 98 -292 273.5t-104 402.5t104 402.5t292 273.5t430 98t430 -98t292 -273.5t104 -402.5t-104 -402.5t-292 -273.5t-430 -98t-430 98zM1304.5 162.5q160.5 82.5 248 234.5t87.5 353t-87.5 353t-248 234.5t-374.5 82.5t-374.5 -82.5t-248 -234.5t-87.5 -353
t87.5 -353t248 -234.5t374.5 -82.5t374.5 82.5zM859 1718.5q-29 28.5 -29 69.5t29 69.5t71 28.5t71 -28.5t29 -69.5t-29 -69.5t-71 -28.5t-71 28.5z" />
    <glyph glyph-name="uni022F" unicode="&#x22f;" horiz-adv-x="1472" 
d="M399 49.5q-147 73.5 -229 206.5t-82 304t82 304t229 206.5t337 73.5t337 -73.5t229 -206.5t82 -304t-82 -304t-229 -206.5t-337 -73.5t-337 73.5zM1018.5 137.5q121.5 59.5 187.5 168.5t66 254t-66 254t-187.5 168.5t-282.5 59.5t-282.5 -59.5t-187.5 -168.5t-66 -254
t66 -254t187.5 -168.5t282.5 -59.5t282.5 59.5zM665 1338.5q-29 28.5 -29 69.5t29 69.5t71 28.5t71 -28.5t29 -69.5t-29 -69.5t-71 -28.5t-71 28.5z" />
    <glyph glyph-name="uni0230" unicode="&#x230;" horiz-adv-x="1860" 
d="M500 74q-188 98 -292 273.5t-104 402.5t104 402.5t292 273.5t430 98t430 -98t292 -273.5t104 -402.5t-104 -402.5t-292 -273.5t-430 -98t-430 98zM1304.5 162.5q160.5 82.5 248 234.5t87.5 353t-87.5 353t-248 234.5t-374.5 82.5t-374.5 -82.5t-248 -234.5t-87.5 -353
t87.5 -353t248 -234.5t374.5 -82.5t374.5 82.5zM859 1718.5q-29 28.5 -29 69.5t29 69.5t71 28.5t71 -28.5t29 -69.5t-29 -69.5t-71 -28.5t-71 28.5zM1316 2024h-774v96h774v-96z" />
    <glyph glyph-name="uni0231" unicode="&#x231;" horiz-adv-x="1472" 
d="M399 49.5q-147 73.5 -229 206.5t-82 304t82 304t229 206.5t337 73.5t337 -73.5t229 -206.5t82 -304t-82 -304t-229 -206.5t-337 -73.5t-337 73.5zM1018.5 137.5q121.5 59.5 187.5 168.5t66 254t-66 254t-187.5 168.5t-282.5 59.5t-282.5 -59.5t-187.5 -168.5t-66 -254
t66 -254t187.5 -168.5t282.5 -59.5t282.5 59.5zM1122 1684h-774v96h774v-96zM665 1338.5q-29 28.5 -29 69.5t29 69.5t71 28.5t71 -28.5t29 -69.5t-29 -69.5t-71 -28.5t-71 28.5z" />
    <glyph glyph-name="uni0232" unicode="&#x232;" horiz-adv-x="1640" 
d="M1452 1500h134l-710 -877v-623h-112v623l-714 877h134l637 -783zM1204 1702h-774v96h774v-96z" />
    <glyph glyph-name="uni0233" unicode="&#x233;" horiz-adv-x="1344" 
d="M1198 1120h116l-644 -1258q-57 -110 -138 -163t-194 -53q-71 0 -127.5 17.5t-118.5 58.5v94q58 -37 114 -53.5t128 -16.5q87 0 148.5 40t103.5 124l64 126h-66l-550 1084h120l520 -1036zM1060 1362h-774v96h774v-96z" />
    <glyph glyph-name="uni0237" unicode="&#x237;" horiz-adv-x="428" 
d="M160 -330v1450l54 -8l54 8v-1450h-108z" />
    <glyph glyph-name="uni0238" unicode="&#x238;" horiz-adv-x="2576" 
d="M2210 1070q129 -74 202.5 -207t73.5 -303t-73.5 -303t-202.5 -207t-292 -74q-183 0 -333.5 104t-242.5 287v-367h-108v367q-92 -183 -242.5 -287t-333.5 -104q-163 0 -292 74t-202.5 207t-73.5 303t73.5 303t202.5 207t292 74q183 0 333.5 -104t242.5 -287v787h108v-787
q92 183 242.5 287t333.5 104q163 0 292 -74zM1000 207.5q150 129.5 240 352.5q-90 223 -240 352.5t-342 129.5q-131 0 -235 -61t-162.5 -170.5t-58.5 -250.5t58.5 -250.5t162.5 -170.5t235 -61q192 0 342 129.5zM2153 139q104 61 162.5 170.5t58.5 250.5t-58.5 250.5
t-162.5 170.5t-235 61q-192 0 -342 -129.5t-240 -352.5q90 -223 240 -352.5t342 -129.5q131 0 235 61z" />
    <glyph glyph-name="uni0239" unicode="&#x239;" horiz-adv-x="2576" 
d="M2210 1070q129 -74 202.5 -207t73.5 -303t-73.5 -303t-202.5 -207t-292 -74q-183 0 -333.5 104t-242.5 287v-697h-108v697q-92 -183 -242.5 -287t-333.5 -104q-163 0 -292 74t-202.5 207t-73.5 303t73.5 303t202.5 207t292 74q183 0 333.5 -104t242.5 -287v367h108v-367
q92 183 242.5 287t333.5 104q163 0 292 -74zM1000 207.5q150 129.5 240 352.5q-90 223 -240 352.5t-342 129.5q-131 0 -235 -61t-162.5 -170.5t-58.5 -250.5t58.5 -250.5t162.5 -170.5t235 -61q192 0 342 129.5zM2153 139q104 61 162.5 170.5t58.5 250.5t-58.5 250.5
t-162.5 170.5t-235 61q-192 0 -342 -129.5t-240 -352.5q90 -223 240 -352.5t342 -129.5q131 0 235 61z" />
    <glyph glyph-name="uni023A" unicode="&#x23a;" horiz-adv-x="1684" 
d="M1656 0h-126l-200 400h-516l-282 -644h-104l282 644h-355l-201 -400h-126l758 1500h112l157 -311l243 555h104l-291 -665zM843 1374l-438 -874h349l245 561zM1055 951l-197 -451h422z" />
    <glyph glyph-name="uni023B" unicode="&#x23b;" horiz-adv-x="1782" 
d="M1235 139q141 59 229 167.5t112 253.5h116q-20 -172 -123 -304.5t-271.5 -206t-377.5 -73.5q-145 0 -270 36l-112 -256h-104l126 287q-141 58 -243.5 161t-157.5 242t-55 304q0 227 102 403t287.5 273.5t426.5 97.5q142 0 272 -36l112 256h104l-126 -287
q174 -71 282 -206t128 -311h-116q-24 145 -111 252.5t-225 166.5l-548 -1251q107 -28 224 -28q178 0 319 59zM320.5 373q100.5 -159 280.5 -235l548 1252q-106 30 -233 30q-209 0 -366.5 -82.5t-243.5 -234.5t-86 -353q0 -218 100.5 -377z" />
    <glyph glyph-name="uni023C" unicode="&#x23c;" horiz-adv-x="1378" 
d="M928 119q102 41 169 116t89 175h116q-24 -128 -107.5 -226.5t-212 -153t-280.5 -54.5q-98 0 -187 23l-101 -239h-100l113 269q-157 68 -247 207t-90 324q0 171 77.5 303.5t216.5 206.5t318 74q93 0 184 -22l100 238h100l-112 -267q130 -53 216.5 -153t111.5 -230h-116
q-22 98 -88 172.5t-164 115.5l-379 -903q70 -17 147 -17q124 0 226 41zM271.5 292.5q69.5 -113.5 195.5 -168.5l379 902q-65 16 -144 16q-151 0 -264 -59.5t-174.5 -168.5t-61.5 -254q0 -154 69.5 -267.5z" />
    <glyph glyph-name="uni023D" unicode="&#x23d;" horiz-adv-x="1458" 
d="M344 750v-650h1088v-100h-1200v750h-204v100h204v650h112v-650h600v-100h-600z" />
    <glyph glyph-name="uni023E" unicode="&#x23e;" horiz-adv-x="1484" 
d="M1474 1500v-100h-195l-473 -1011v-389h-112v149l-184 -393h-106l290 620v1024h-668v100h1194l114 244h106l-114 -244h148zM806 1400v-785l367 785h-367z" />
    <glyph glyph-name="uni0241" unicode="&#x241;" horiz-adv-x="1320" 
d="M1008 1474.5q132 -49.5 203 -139t71 -207.5q0 -88 -32 -153.5t-87.5 -116.5t-146.5 -112l-152 -102q-97 -64 -135.5 -145.5t-38.5 -214.5v-284h-112v284q0 107 21.5 185t70 140t130.5 117l132 88q91 60 139.5 103.5t71.5 90.5t23 110q0 99 -59 167.5t-165 103.5t-248 35
q-153 0 -269 -43.5t-187 -124.5t-90 -194h-112q16 134 100.5 238.5t228.5 164t333 59.5q178 0 310 -49.5z" />
    <glyph glyph-name="uni0242" unicode="&#x242;" horiz-adv-x="1178" 
d="M526 142q0 59 12.5 100t41 74.5t80.5 71.5l174 128q73 54 111.5 94.5t53.5 78.5t15 87q0 79 -48.5 139.5t-141 93.5t-222.5 33q-143 0 -237.5 -40t-150 -117.5t-84.5 -196.5h-108q42 220 183 338t401 118q151 0 269 -43t184.5 -125t66.5 -194q0 -80 -23.5 -137
t-71 -104.5t-133.5 -108.5l-146 -104q-47 -34 -72 -63t-35.5 -64t-10.5 -87v-114h-108v142z" />
    <glyph glyph-name="uni0243" unicode="&#x243;" horiz-adv-x="1672" 
d="M1414.5 707.5q83.5 -55.5 122.5 -135t39 -174.5q0 -119 -57.5 -208.5t-169 -139.5t-267.5 -50h-892l56 360h-228v100h244l48 310l-120 730h860q137 0 232.5 -43.5t144.5 -125t49 -193.5q0 -74 -28.5 -143.5t-89.5 -125.5t-155 -87q128 -19 211.5 -74.5zM1323.5 1274
q-36.5 59 -109 92.5t-174.5 33.5h-724l96 -580h598q102 0 181 36.5t124 108t45 173.5q0 77 -36.5 136zM1094 100q174 0 270 76.5t96 221.5q0 157 -116 239.5t-340 82.5h-592l-40 -260h498v-100h-514l-40 -260h778z" />
    <glyph glyph-name="uni0244" unicode="&#x244;" horiz-adv-x="1776" 
d="M1754 850v-100h-196v-134q0 -188 -84.5 -333.5t-236.5 -226t-349 -80.5t-349 80.5t-236.5 226t-84.5 333.5v134h-196v100h196v650h112v-650h1116v650h112v-650h196zM1446 750h-1116v-134q0 -161 69 -282.5t195 -187.5t294 -66t294 66t195 187.5t69 282.5v134z" />
    <glyph glyph-name="uni0245" unicode="&#x245;" horiz-adv-x="1672" 
d="M894 1500l750 -1500h-126l-681 1393l-685 -1393h-124l750 1500h116z" />
    <glyph glyph-name="uni0246" unicode="&#x246;" horiz-adv-x="1472" 
d="M550 100h810v-100h-852l-102 -244h-104l102 244h-264l126 750l-126 750h890l102 244h104l-102 -244h216v-100h-258l-250 -600h468v-100h-510zM368 800h370l250 600h-721zM368 700l-101 -600h179l250 600h-328z" />
    <glyph glyph-name="uni0247" unicode="&#x247;" horiz-adv-x="1362" 
d="M555 99q80 -21 175 -21q143 0 273.5 50t242.5 140v-102q-103 -88 -243 -139t-273 -51q-112 0 -215 28l-103 -244h-100l116 275q-159 69 -249.5 206.5t-90.5 318.5q0 171 76.5 304t214 206.5t315.5 73.5q99 0 188 -26l102 242h100l-116 -275q146 -71 229 -212.5t83 -328.5
h-539zM454.5 993q-104.5 -49 -169 -140t-80.5 -213h477l160 383q-71 19 -148 19q-135 0 -239.5 -49zM1163 640q-17 120 -78 210t-157 139l-146 -349h381zM200 544q4 -144 74 -251.5t193 -162.5l174 414h-441z" />
    <glyph glyph-name="uni0248" unicode="&#x248;" horiz-adv-x="1554" 
d="M1528 930v-100h-204v-214q0 -220 -78.5 -362.5t-219.5 -210t-332 -67.5t-332 67.5t-219.5 210t-78.5 362.5v82h110v-82q0 -257 128 -396.5t392 -139.5t391 138t127 398v214h-522v100h522v570h112v-570h204z" />
    <glyph glyph-name="uni0249" unicode="&#x249;" horiz-adv-x="516" 
d="M312 688h176v-92h-176v-926h-108v926h-176v92h176v432l54 -8l54 8v-432zM187 1338.5q-29 28.5 -29 69.5t29 69.5t71 28.5t71 -28.5t29 -69.5t-29 -69.5t-71 -28.5t-71 28.5z" />
    <glyph glyph-name="uni024A" unicode="&#x24a;" horiz-adv-x="1896" 
d="M2057.5 -230.5q55.5 19.5 98.5 46.5v-110q-42 -26 -100 -43t-118 -17q-112 0 -190 45.5t-118 129t-40 195.5v507q-117 -259 -308 -403t-440 -144q-216 0 -383 98t-260 274t-93 402t93 402t260 274t383 98q249 0 440 -143t308 -401v520h112v-1466q0 -145 61 -214.5
t185 -69.5q54 0 109.5 19.5zM1287.5 258q186.5 178 306.5 494q-120 314 -305.5 491t-438.5 177q-184 0 -326.5 -84.5t-222 -236t-79.5 -347.5q0 -197 79 -349.5t221 -237.5t326 -85q253 0 439.5 178z" />
    <glyph glyph-name="uni024B" unicode="&#x24b;" horiz-adv-x="1506" 
d="M1703 -232.5q57 19.5 99 46.5v-108q-42 -26 -101 -43t-117 -17q-111 0 -188.5 45.5t-117.5 128.5t-40 194v361q-92 -186 -243.5 -292.5t-336.5 -106.5q-163 0 -292 74t-202.5 207t-73.5 303t73.5 303t202.5 207t292 74q185 0 336.5 -106.5t243.5 -292.5v375h108v-1088
q0 -145 61 -214.5t185 -69.5q54 0 111 19.5zM1000 207.5q150 129.5 240 352.5q-90 223 -240 352.5t-342 129.5q-131 0 -235 -61t-162.5 -170.5t-58.5 -250.5t58.5 -250.5t162.5 -170.5t235 -61q192 0 342 129.5z" />
    <glyph glyph-name="uni024C" unicode="&#x24c;" horiz-adv-x="1568" 
d="M1488 0h-152l-619 660h-373v-660h-112v660h-204v100h204v740h744q143 0 254 -53t172.5 -148.5t61.5 -218.5t-61.5 -218.5t-172.5 -148.5t-254 -53h-107zM344 760h642q110 0 193 39.5t128 112t45 168.5t-45 168.5t-128 112t-193 39.5h-642v-640z" />
    <glyph glyph-name="uni024D" unicode="&#x24d;" horiz-adv-x="960" 
d="M861.5 1137.5q47.5 -6.5 76.5 -17.5v-106q-31 12 -81 19t-99 7q-130 0 -230.5 -61.5t-157 -172t-56.5 -252.5v-28h290v-92h-290v-434h-108v434h-176v92h176v256l-60 338h108l49 -294q34 97 101 169t160 110.5t204 38.5q46 0 93.5 -6.5z" />
    <glyph glyph-name="uni024E" unicode="&#x24e;" horiz-adv-x="1768" 
d="M1700 1208v-100h-369l-393 -485v-623h-112v623l-395 485h-367v100h286l-238 292h134l237 -292h796l235 292h134l-236 -292h288zM565 1108l318 -391l315 391h-633z" />
    <glyph glyph-name="uni024F" unicode="&#x24f;" horiz-adv-x="1414" 
d="M1374 756v-92h-263l-411 -802q-57 -110 -138 -163t-194 -53q-71 0 -127.5 17.5t-118.5 58.5v94q58 -37 114 -53.5t128 -16.5q87 0 148.5 40t103.5 124l64 126h-66l-319 628h-253v92h207l-185 364h120l183 -364h677l184 364h116l-186 -364h216zM413 664l291 -580l293 580
h-584z" />
    <glyph glyph-name="uni0250" unicode="&#x250;" horiz-adv-x="1320" 
d="M558 444q-104 34 -182.5 89.5t-123.5 119.5v-187q0 -120 54.5 -208.5t159.5 -136t254 -47.5q248 0 432 134v-100q-95 -68 -203.5 -100t-236.5 -32q-163 0 -291 56t-202.5 170.5t-74.5 283.5v634h108v-221q45 64 124 120t182.5 90.5t217.5 34.5q133 0 241.5 -46.5
t171.5 -130t63 -191.5q0 -106 -64 -189.5t-173 -130t-239 -46.5q-114 0 -218 34zM476.5 984q-126.5 -66 -230.5 -208q105 -143 233 -207.5t277 -64.5q120 0 207 35t132 96.5t45 140.5q0 80 -45 142.5t-132 97t-207 34.5q-153 0 -279.5 -66z" />
    <glyph glyph-name="uni0251" unicode="&#x251;" horiz-adv-x="1492" 
d="M1354 1120l-46 -560l46 -560h-108l-28 337q-94 -170 -239.5 -265.5t-320.5 -95.5q-163 0 -292 74t-202.5 207t-73.5 303t73.5 303t202.5 207t292 74q175 0 320.5 -95.5t239.5 -265.5l28 337h108zM1000 207.5q150 129.5 240 352.5q-90 223 -240 352.5t-342 129.5
q-131 0 -235 -61t-162.5 -170.5t-58.5 -250.5t58.5 -250.5t162.5 -170.5t235 -61q192 0 342 129.5z" />
    <glyph glyph-name="uni0252" unicode="&#x252;" horiz-adv-x="1492" 
d="M1126 1070q129 -74 202.5 -207t73.5 -303t-73.5 -303t-202.5 -207t-292 -74q-175 0 -320.5 95.5t-239.5 265.5l-28 -337h-108l46 560l-46 560h108l28 -337q94 170 239.5 265.5t320.5 95.5q163 0 292 -74zM1069 139q104 61 162.5 170.5t58.5 250.5t-58.5 250.5
t-162.5 170.5t-235 61q-192 0 -342 -129.5t-240 -352.5q90 -223 240 -352.5t342 -129.5q131 0 235 61z" />
    <glyph glyph-name="uni0253" unicode="&#x253;" horiz-adv-x="1502" 
d="M1136 1070q129 -74 202.5 -207t73.5 -303t-73.5 -303t-202.5 -207t-292 -74q-183 0 -333.5 104t-242.5 287v-367h-108v1116q0 216 112 332t324 116q144 0 284 -64v-112q-76 38 -142 56t-142 18q-171 0 -249.5 -95t-78.5 -275v-339q92 183 242.5 287t333.5 104
q163 0 292 -74zM1079 139q104 61 162.5 170.5t58.5 250.5t-58.5 250.5t-162.5 170.5t-235 61q-192 0 -342 -129.5t-240 -352.5q90 -223 240 -352.5t342 -129.5q131 0 235 61z" />
    <glyph glyph-name="uni0254" unicode="&#x254;" horiz-adv-x="1378" 
d="M76 710q24 128 107.5 226.5t212 153t280.5 54.5q179 0 318 -74t216.5 -206.5t77.5 -303.5t-77.5 -303.5t-216.5 -206.5t-318 -74q-152 0 -280.5 54.5t-212 153t-107.5 226.5h116q23 -100 90.5 -175t169 -116t224.5 -41q151 0 264 59.5t174.5 168.5t61.5 254t-61.5 254
t-174.5 168.5t-264 59.5q-124 0 -226 -41t-169 -116t-89 -175h-116z" />
    <glyph glyph-name="uni0256" unicode="&#x256;" horiz-adv-x="1490" 
d="M1711.5 -230.5q55.5 19.5 98.5 46.5v-110q-42 -26 -100 -43t-118 -17q-164 0 -249 97.5t-99 272.5l-26 320q-94 -169 -239.5 -264.5t-320.5 -95.5q-163 0 -292 74t-202.5 207t-73.5 303t73.5 303t202.5 207t292 74q177 0 323.5 -97.5t240.5 -269.5l66 763h106l-86 -980
l44 -536q8 -98 36 -158t80 -88t134 -28q54 0 109.5 19.5zM1000 207.5q150 129.5 240 352.5q-90 223 -240 352.5t-342 129.5q-131 0 -235 -61t-162.5 -170.5t-58.5 -250.5t58.5 -250.5t162.5 -170.5t235 -61q192 0 342 129.5z" />
    <glyph glyph-name="uni0257" unicode="&#x257;" horiz-adv-x="1500" 
d="M1642.5 1552q47.5 -12 97.5 -38v-106q-87 56 -188 56q-100 0 -155 -64.5t-55 -199.5v-1200h-108v367q-92 -183 -242.5 -287t-333.5 -104q-163 0 -292 74t-202.5 207t-73.5 303t73.5 303t202.5 207t292 74q183 0 333.5 -104t242.5 -287v475q0 163 81.5 249.5t224.5 86.5
q55 0 102.5 -12zM1000 207.5q150 129.5 240 352.5q-90 223 -240 352.5t-342 129.5q-131 0 -235 -61t-162.5 -170.5t-58.5 -250.5t58.5 -250.5t162.5 -170.5t235 -61q192 0 342 129.5z" />
    <glyph glyph-name="uni0259" unicode="&#x259;" horiz-adv-x="1362" 
d="M973.5 1070q141.5 -74 220 -206.5t78.5 -303.5t-76.5 -304t-214 -206.5t-315.5 -73.5q-172 0 -305 78t-207 219t-74 323h1079q-8 135 -76 236t-184.5 155.5t-268.5 54.5q-137 0 -263 -44.5t-235 -125.5v102q104 79 244.5 124.5t273.5 45.5q182 0 323.5 -74zM910.5 129.5
q106.5 51.5 170.5 147t76 223.5h-960q17 -128 79.5 -223.5t162.5 -147t227 -51.5q138 0 244.5 51.5z" />
    <glyph glyph-name="uni025B" unicode="&#x25b;" horiz-adv-x="1316" 
d="M1254 342q-8 -103 -80 -186t-204.5 -131.5t-315.5 -48.5q-176 0 -303 45t-193 124.5t-66 180.5q0 96 71.5 167t217.5 96q-129 30 -191 98t-62 157q0 85 59 153.5t175 107.5t280 39q165 0 290 -46.5t197.5 -125.5t86.5 -176h-114q-17 70 -73 125.5t-154 88t-233 32.5
q-200 0 -301 -54t-101 -150q0 -53 34.5 -98t115.5 -73.5t212 -28.5h248v-96h-248q-208 0 -303 -59.5t-95 -156.5q0 -71 50 -127t151.5 -88.5t248.5 -32.5q219 0 342.5 71t143.5 193h114z" />
    <glyph glyph-name="uni025F" unicode="&#x25f;" horiz-adv-x="516" 
d="M312 688h176v-92h-176v-926h-108v926h-176v92h176v432l54 -8l54 8v-432z" />
    <glyph glyph-name="uni0260" unicode="&#x260;" horiz-adv-x="1490" 
d="M1948 1500v-112q-76 38 -142 56t-142 18q-171 0 -249.5 -95t-78.5 -275v-794q0 -217 -83.5 -363.5t-227 -217.5t-327.5 -71q-144 0 -265.5 41t-228.5 129v106q211 -174 488 -174q172 0 292.5 64t182 181t61.5 275v155q-49 -96 -138.5 -180t-208.5 -135.5t-251 -51.5
q-150 0 -272.5 68.5t-194 192.5t-71.5 283t71.5 283t194 192.5t272.5 68.5q132 0 251 -51.5t208.5 -135.5t138.5 -180v343q0 214 112.5 329t323.5 115q144 0 284 -64zM968 263.5q145 105.5 266 336.5q-120 230 -265.5 336t-320.5 106q-140 0 -240 -57t-152 -157t-52 -228
t52 -228t152 -157t240 -57q175 0 320 105.5z" />
    <glyph glyph-name="uni0261" unicode="&#x261;" horiz-adv-x="1490" 
d="M1228 1120h108v-822q0 -217 -83.5 -363.5t-227 -217.5t-327.5 -71q-144 0 -265.5 41t-228.5 129v106q211 -174 488 -174q172 0 292.5 64t182 181t61.5 275v155q-49 -96 -138.5 -180t-208.5 -135.5t-251 -51.5q-150 0 -272.5 68.5t-194 192.5t-71.5 283t71.5 283
t194 192.5t272.5 68.5q132 0 251 -51.5t208.5 -135.5t138.5 -180v343zM968 263.5q145 105.5 266 336.5q-120 230 -265.5 336t-320.5 106q-140 0 -240 -57t-152 -157t-52 -228t52 -228t152 -157t240 -57q175 0 320 105.5z" />
    <glyph glyph-name="uni0263" unicode="&#x263;" horiz-adv-x="1368" 
d="M1324 1120l-574 -884q89 -127 126.5 -185t53.5 -99.5t16 -87.5q0 -63 -33 -113t-92 -77.5t-135 -27.5t-135 27.5t-92 77.5t-33 113q0 46 15.5 87t53.5 99t129 185l-580 885h120l524 -806l520 806h116zM796 -225q42 35 42 101q0 30 -13.5 62.5t-43 79t-95.5 141.5
q-66 -95 -95.5 -141.5t-43 -79t-13.5 -62.5q0 -66 42 -101t110 -35t110 35z" />
    <glyph glyph-name="uni0264" unicode="&#x264;" horiz-adv-x="1368" 
d="M1324 1120l-574 -884q89 -127 126.5 -185t53.5 -99.5t16 -87.5q0 -63 -33 -113t-92 -77.5t-135 -27.5t-135 27.5t-92 77.5t-33 113q0 46 15.5 87t53.5 99t129 185l-580 885h120l524 -806l520 806h116zM796 -225q42 35 42 101q0 30 -13.5 62.5t-43 79t-95.5 141.5
q-66 -95 -95.5 -141.5t-43 -79t-13.5 -62.5q0 -66 42 -101t110 -35t110 35z" />
    <glyph glyph-name="uni0265" unicode="&#x265;" horiz-adv-x="1358" 
d="M1090 1120h108v-1450h-108v606q-64 -141 -187 -220.5t-283 -79.5q-151 0 -258 62t-162.5 181.5t-55.5 288.5v612h108v-590q0 -225 99.5 -340.5t292.5 -115.5q132 0 233.5 62t157 173.5t55.5 256.5v554z" />
    <glyph glyph-name="uni0266" unicode="&#x266;" horiz-adv-x="1378" 
d="M1011 1082q109 -62 166 -181.5t57 -288.5v-612h-108v590q0 225 -102 340.5t-300 115.5q-135 0 -238.5 -62t-160.5 -173.5t-57 -256.5v-554h-108v1116q0 216 112 332t324 116q144 0 284 -64v-112q-76 38 -142 56t-142 18q-171 0 -249.5 -95t-78.5 -275v-250
q64 142 190 222t290 80q154 0 263 -62z" />
    <glyph glyph-name="uni0267" unicode="&#x267;" horiz-adv-x="1378" 
d="M1011 1082q109 -62 166 -181.5t57 -288.5v-598q0 -111 -40 -194t-117.5 -128.5t-188.5 -45.5q-58 0 -117 17t-101 43v108q42 -27 99 -46.5t111 -19.5q124 0 185 69.5t61 214.5v558q0 225 -102 340.5t-300 115.5q-135 0 -238.5 -62t-160.5 -173.5t-57 -256.5v-554h-108
v1116q0 216 112 332t324 116q144 0 284 -64v-112q-76 38 -142 56t-142 18q-171 0 -249.5 -95t-78.5 -275v-250q64 142 190 222t290 80q154 0 263 -62z" />
    <glyph glyph-name="uni0268" unicode="&#x268;" horiz-adv-x="516" 
d="M187 1338.5q-29 28.5 -29 69.5t29 69.5t71 28.5t71 -28.5t29 -69.5t-29 -69.5t-71 -28.5t-71 28.5zM312 688h176v-92h-176v-596h-108v596h-176v92h176v432l54 -8l54 8v-432z" />
    <glyph glyph-name="uni0269" unicode="&#x269;" horiz-adv-x="780" 
d="M260 350q0 -101 26 -160.5t77.5 -85.5t132.5 -26q157 0 278 80v-104q-41 -31 -116.5 -54.5t-161.5 -23.5q-182 0 -263 97t-81 259v788h108v-770z" />
    <glyph glyph-name="uni026A" unicode="&#x26a;" horiz-adv-x="996" 
d="M926 1120v-92h-376v-936h376v-92h-856v92h372v936h-372v92h856z" />
    <glyph glyph-name="uni026C" unicode="&#x26c;" horiz-adv-x="896" 
d="M872 802q-80 -62 -176.5 -111.5t-191.5 -73.5v-617h-108v597q-47 -5 -80 -5q-135 0 -209.5 58t-74.5 160q0 55 26 98t74 67.5t114 24.5q89 0 150 -46v586h108v-825q83 23 171 72t197 127v-112zM396 689v128q-22 43 -59 65t-85 22q-57 0 -86.5 -26.5t-29.5 -69.5
q0 -56 46.5 -89t149.5 -33q31 0 64 3z" />
    <glyph glyph-name="uni026F" unicode="&#x26f;" horiz-adv-x="2196" 
d="M2088 0h-108l-49 295q-58 -150 -176.5 -234.5t-276.5 -84.5q-170 0 -279 88.5t-147 255.5q-55 -161 -176.5 -252.5t-285.5 -91.5q-141 0 -241 62t-152.5 181.5t-52.5 288.5v612h108v-590q0 -225 91.5 -340.5t270.5 -115.5q124 0 219 62t147 173.5t52 256.5v554h108v-590
q0 -225 91.5 -340.5t270.5 -115.5q124 0 219 62t147 173.5t52 256.5v554h108v-778z" />
    <glyph glyph-name="uni0271" unicode="&#x271;" horiz-adv-x="2196" 
d="M1847 1082q100 -62 152.5 -181.5t52.5 -288.5v-598q0 -111 -40 -194t-117.5 -128.5t-188.5 -45.5q-58 0 -117 17t-101 43v108q42 -27 99 -46.5t111 -19.5q124 0 185 69.5t61 214.5v558q0 225 -91.5 340.5t-270.5 115.5q-124 0 -219 -62t-147 -173.5t-52 -256.5v-554h-108
v590q0 225 -91.5 340.5t-270.5 115.5q-124 0 -219 -62t-147 -173.5t-52 -256.5v-554h-108v778l-60 342h108l49 -295q58 150 176.5 234.5t276.5 84.5q171 0 281 -90.5t147 -261.5q55 165 176 258.5t284 93.5q141 0 241 -62z" />
    <glyph glyph-name="uni0272" unicode="&#x272;" horiz-adv-x="1388" 
d="M1021 1082q109 -62 166 -181.5t57 -288.5v-612h-108v590q0 225 -102 340.5t-300 115.5q-136 0 -240 -62t-161 -173.5t-57 -256.5v-562q0 -164 -81 -255t-225 -91q-55 0 -102.5 12t-97.5 38v106q87 -56 188 -56q100 0 155 64.5t55 199.5v768l-60 342h108l50 -301
q62 152 191 238.5t301 86.5q154 0 263 -62z" />
    <glyph glyph-name="uni0275" unicode="&#x275;" horiz-adv-x="1472" 
d="M1073 1070.5q147 -73.5 229 -206.5t82 -304t-82 -304t-229 -206.5t-337 -73.5t-337 73.5t-229 206.5t-82 304t82 304t229 206.5t337 73.5t337 -73.5zM467.5 989q-116.5 -53 -185.5 -150.5t-80 -228.5h1068q-11 131 -80 228.5t-185.5 150.5t-268.5 53t-268.5 -53z
M1004.5 131q116.5 53 185.5 150.5t80 228.5h-1068q11 -131 80 -228.5t185.5 -150.5t268.5 -53t268.5 53z" />
    <glyph glyph-name="uni0278" unicode="&#x278;" horiz-adv-x="1564" 
d="M1395.5 258q-80.5 -132 -226 -206.5t-333.5 -75.5v-306h-108v306q-188 1 -333.5 75.5t-226 206.5t-80.5 302t80.5 302t226 206.5t333.5 75.5v396h108v-396q188 -1 333.5 -75.5t226 -206.5t80.5 -302t-80.5 -302zM265 307.5q65 -108.5 184.5 -168.5t278.5 -61v964
q-159 -1 -278.5 -61t-184.5 -168.5t-65 -252.5t65 -252.5zM836 78q159 1 278.5 61t184.5 168.5t65 252.5t-65 252.5t-184.5 168.5t-278.5 61v-964z" />
    <glyph glyph-name="uni027D" unicode="&#x27d;" horiz-adv-x="922" 
d="M276 32q0 -145 61 -214.5t185 -69.5q54 0 111 19.5t99 46.5v-108q-42 -26 -101 -43t-117 -17q-111 0 -188.5 45.5t-117.5 128.5t-40 194v768l-60 338h108l50 -302q35 100 102 173.5t159.5 113t202.5 39.5q46 0 93.5 -6.5t76.5 -17.5v-106q-31 12 -81 19t-99 7
q-130 0 -230.5 -61.5t-157 -172t-56.5 -252.5v-522z" />
    <glyph glyph-name="uni027E" unicode="&#x27e;" horiz-adv-x="722" 
d="M615 1127q59 -17 101 -43v-108q-42 27 -99 46.5t-111 19.5q-124 0 -185 -69.5t-61 -214.5v-758h-108v776q0 111 40 194t117.5 128.5t188.5 45.5q58 0 117 -17z" />
    <glyph glyph-name="uni0283" unicode="&#x283;" horiz-adv-x="428" 
d="M734 1550q62 -14 122 -40v-106q-58 33 -118 47.5t-132 14.5q-166 0 -252 -80t-86 -252v-1030q0 -205 -104 -331.5t-330 -126.5q-78 0 -140 14t-122 40v106q58 -33 118 -47.5t132 -14.5q166 0 252 80t86 252v1030q0 205 104 331.5t330 126.5q78 0 140 -14z" />
    <glyph glyph-name="uni0284" unicode="&#x284;" horiz-adv-x="534" 
d="M782 1550q62 -14 122 -40v-106q-58 33 -118 47.5t-132 14.5q-166 0 -252 -80t-86 -252v-842h196v-92h-196v-530h-108v530h-176v92h176v814q0 205 104 331.5t330 126.5q78 0 140 -14z" />
    <glyph glyph-name="uni0288" unicode="&#x288;" horiz-adv-x="884" 
d="M370 32q0 -145 61 -214.5t185 -69.5q54 0 111 19.5t99 46.5v-108q-42 -26 -101 -43t-117 -17q-111 0 -188.5 45.5t-117.5 128.5t-40 194v1008h-252v60l252 30l40 294h68v-286h572v-98h-572v-990z" />
    <glyph glyph-name="uni0289" unicode="&#x289;" horiz-adv-x="1446" 
d="M1418 596h-176v-254l60 -342h-108l-52 308q-60 -156 -186 -244t-292 -88q-151 0 -258 62t-162.5 181.5t-55.5 288.5v88h-176v92h176v432h108v-432h838v432h108v-432h176v-92zM1134 596h-838v-66q0 -225 100 -340.5t292 -115.5q132 0 233.5 62t157 173.5t55.5 256.5v30z
" />
    <glyph glyph-name="uni028A" unicode="&#x28a;" horiz-adv-x="1456" 
d="M1372 1120v-94h-324q138 -85 215 -217t77 -285q0 -155 -71 -279.5t-209.5 -196.5t-331.5 -72t-331.5 72t-209.5 196.5t-71 279.5q0 153 77 285t215 217h-324v94h496v-76q-179 -85 -266.5 -218.5t-87.5 -289.5q0 -136 58 -239.5t170.5 -161t273.5 -57.5q160 0 273 58
t171 161.5t58 238.5q0 156 -87.5 289.5t-266.5 218.5v76h496z" />
    <glyph glyph-name="uni028B" unicode="&#x28b;" horiz-adv-x="1358" 
d="M1185.5 360.5q-80.5 -173.5 -231 -279t-348.5 -105.5q-151 0 -254 59.5t-154.5 168t-51.5 256.5v660h108v-660q0 -115 39 -201.5t118 -134.5t195 -48q157 0 282 87.5t195.5 234.5t70.5 320q0 324 -242 324q-54 0 -111 -19.5t-99 -46.5v108q42 26 101 43t117 17
q170 0 258 -110.5t88 -303.5q0 -196 -80.5 -369.5z" />
    <glyph glyph-name="uni028C" unicode="&#x28c;" horiz-adv-x="1320" 
d="M718 1120l570 -1120h-120l-510 1022l-510 -1022h-116l570 1120h116z" />
    <glyph glyph-name="uni028E" unicode="&#x28e;" horiz-adv-x="1344" 
d="M1312 0h-120l-520 1036l-524 -1036h-116l644 1258q57 110 138 163t194 53q71 0 127.5 -17.5t118.5 -58.5v-94q-58 37 -114 53.5t-128 16.5q-87 0 -148.5 -40t-103.5 -124l-64 -126h66z" />
    <glyph glyph-name="uni0292" unicode="&#x292;" horiz-adv-x="1300" 
d="M678 514q187 0 311.5 -51t184.5 -142.5t60 -214.5q0 -129 -68 -233t-200 -164.5t-316 -60.5q-179 0 -315 60.5t-214.5 167t-90.5 242.5h110q16 -113 81.5 -196t175 -127.5t253.5 -44.5q227 0 349.5 91.5t122.5 258.5q0 156 -113 245t-359 89h-156v86l550 506h-934v94
h1072v-90l-557 -516h53z" />
    <glyph glyph-name="uni0294" unicode="&#x294;" horiz-adv-x="1158" 
d="M524 554q0 56 11 94t38.5 69.5t78.5 68.5l196 144q93 69 128.5 123t35.5 121q0 86 -44.5 150.5t-137 101t-230.5 36.5q-143 0 -237.5 -40t-150 -117.5t-84.5 -196.5h-108q42 220 183 338t401 118q159 0 276.5 -45.5t180.5 -131.5t63 -205q0 -99 -55 -181t-179 -171
l-146 -104q-45 -32 -68.5 -58.5t-33.5 -59t-10 -82.5v-526h-108v554z" />
    <glyph glyph-name="uni0295" unicode="&#x295;" horiz-adv-x="1144" 
d="M634 0h-108v526q0 50 -10 82.5t-33.5 59t-68.5 58.5l-146 104q-124 89 -179 171t-55 181q0 119 63 205t180.5 131.5t276.5 45.5q260 0 401 -118t183 -338h-108q-29 119 -84.5 196.5t-150 117.5t-237.5 40q-138 0 -230.5 -36.5t-137 -101t-44.5 -150.5q0 -67 35.5 -121
t128.5 -123l196 -144q51 -37 78.5 -68.5t38.5 -69.5t11 -94v-554z" />
    <glyph glyph-name="uni0298" unicode="&#x298;" horiz-adv-x="1808" 
d="M484.5 76.5q-183.5 100.5 -285 281t-101.5 412.5t101.5 412.5t285 281t419.5 100.5t419.5 -100.5t285 -281t101.5 -412.5t-101.5 -412.5t-285 -281t-419.5 -100.5t-419.5 100.5zM1270 163.5q157 85.5 242.5 242t85.5 364.5t-85.5 364.5t-242.5 242t-366 85.5t-366 -85.5
t-242.5 -242t-85.5 -364.5t85.5 -364.5t242.5 -242t366 -85.5t366 85.5zM836 702q-28 28 -28 68q0 41 28 68.5t68 27.5q41 0 68.5 -27.5t27.5 -68.5q0 -40 -27.5 -68t-68.5 -28q-40 0 -68 28z" />
    <glyph glyph-name="uni029D" unicode="&#x29d;" horiz-adv-x="996" 
d="M649 1338.5q-29 28.5 -29 69.5t29 69.5t71 28.5t71 -28.5t29 -69.5t-29 -69.5t-71 -28.5t-71 28.5zM776 120q69 -63 146 -160v-120q-81 100 -150 166q-12 -104 -63.5 -185t-140.5 -128t-210 -47q-119 0 -205.5 41.5t-131.5 111.5t-45 153q0 97 51.5 171t140.5 114.5
t198 40.5q168 0 302 -79v921l54 -8l54 8v-1000zM668 93q-65 46 -134.5 68.5t-149.5 22.5q-96 0 -163.5 -29t-102 -79.5t-34.5 -115.5q0 -60 33 -109.5t95.5 -79t145.5 -29.5q95 0 164.5 38.5t107.5 111t38 172.5v29z" />
    <glyph glyph-name="uni02A7" unicode="&#x2a7;" horiz-adv-x="1446" 
d="M1752 1550q62 -14 122 -40v-106q-58 33 -118 47.5t-132 14.5q-166 0 -252 -80t-86 -252v-1030q0 -205 -104 -331.5t-330 -126.5q-78 0 -140 14t-122 40v106q58 -33 118 -47.5t132 -14.5q166 0 252 80t86 252v946h-812v-650q0 -158 71 -225t219 -67q90 0 162 24t142 74
v-112q-47 -34 -139.5 -61t-184.5 -27q-199 0 -288.5 102t-89.5 274v668h-252v60l252 30l40 294h68v-286h812q3 199 107.5 321.5t326.5 122.5q78 0 140 -14z" />
    <glyph glyph-name="uni02B0" unicode="&#x2b0;" horiz-adv-x="1116" 
d="M877.5 1365q96.5 -111 96.5 -315v-490h-100v472q0 175 -75 265.5t-221 90.5q-100 0 -176 -48.5t-118 -135.5t-42 -200v-444h-100v1232h100v-559q50 114 145 178.5t217 64.5q177 0 273.5 -111z" />
    <glyph glyph-name="uni02B1" unicode="&#x2b1;" horiz-adv-x="1116" 
d="M877.5 1365q96.5 -111 96.5 -315v-490h-100v472q0 175 -75 265.5t-221 90.5q-100 0 -176 -48.5t-118 -135.5t-42 -200v-444h-100v892q0 173 86 266.5t254 93.5q109 0 218 -50v-100q-54 29 -105.5 43.5t-108.5 14.5q-128 0 -186 -74t-58 -214v-199q50 114 145 178.5
t217 64.5q177 0 273.5 -111z" />
    <glyph glyph-name="uni02B2" unicode="&#x2b2;" horiz-adv-x="404" 
d="M142.5 1630q-24.5 24 -24.5 58q0 35 24 59.5t60 24.5t60 -24.5t24 -59.5t-24 -58.5t-60 -23.5q-35 0 -59.5 24zM152 296v1162l50 -8l50 8v-1162h-100z" />
    <glyph glyph-name="uni02B3" unicode="&#x2b3;" horiz-adv-x="646" 
d="M651.5 1471.5q35.5 -4.5 58.5 -13.5v-96q-25 10 -64 15t-74 5q-96 0 -171 -48t-117 -135t-42 -199v-440h-100v624l-46 274h100l39 -245q39 122 131 192.5t218 70.5q32 0 67.5 -4.5z" />
    <glyph glyph-name="uni02B7" unicode="&#x2b7;" horiz-adv-x="1384" 
d="M1040 667l304 791h106l-354 -898h-104l-299 787l-301 -787h-104l-354 898h106l304 -791l294 791h108z" />
    <glyph glyph-name="uni02B8" unicode="&#x2b8;" horiz-adv-x="860" 
d="M894 1458h106l-482 -1002q-45 -91 -109.5 -134.5t-152.5 -43.5q-59 0 -104.5 15t-93.5 47v84q47 -30 92 -44t98 -14q130 0 192 132l43 90h-55l-414 870h110l383 -818z" />
    <glyph glyph-name="uni02B9" unicode="&#x2b9;" horiz-adv-x="432" 
d="M176 1092l-14 408h108l-14 -408h-80z" />
    <glyph glyph-name="uni02BB" unicode="&#x2bb;" horiz-adv-x="396" 
d="M216 1424q32 -6 52 -30t20 -54q0 -39 -25 -65.5t-67 -26.5q-48 0 -72 28t-24 68q0 28 12 57.5t44 90.5l46 88h84z" />
    <glyph glyph-name="uni02BC" unicode="&#x2bc;" horiz-adv-x="430" 
d="M313.5 1483.5q26.5 -28.5 26.5 -71.5q0 -32 -10 -65t-38 -87l-88 -168h-84l107 238q-33 7 -54 32t-21 58q0 39 27.5 65.5t66.5 26.5q41 0 67.5 -28.5z" />
    <glyph glyph-name="uni02BE" unicode="&#x2be;" horiz-adv-x="440" 
d="M106 1514q78 0 137 -29.5t91 -83t32 -123.5t-32 -123.5t-91 -83t-137 -29.5v88q79 0 122.5 38.5t43.5 109.5t-43.5 109.5t-122.5 38.5v88z" />
    <glyph glyph-name="uni02BF" unicode="&#x2bf;" horiz-adv-x="440" 
d="M334 1426q-79 0 -122.5 -38.5t-43.5 -109.5t43.5 -109.5t122.5 -38.5v-88q-78 0 -137 29.5t-91 83t-32 123.5t32 123.5t91 83t137 29.5v-88z" />
    <glyph glyph-name="uni02C0" unicode="&#x2c0;" horiz-adv-x="402" 
d="M142 1000q0 66 20.5 106.5t77.5 83.5l148 114q70 54 96 96.5t26 95.5q0 103 -75.5 163.5t-226.5 60.5q-155 0 -236 -68t-112 -208h-100q65 368 452 368q123 0 214 -37t139.5 -107t48.5 -166q0 -79 -40.5 -145t-135.5 -137l-114 -84q-49 -37 -65.5 -68t-16.5 -90v-418
h-100v440z" />
    <glyph glyph-name="uni02C1" unicode="&#x2c1;" horiz-adv-x="402" 
d="M260 560h-100v418q0 57 -17 89.5t-65 68.5l-114 84q-93 68 -134.5 135.5t-41.5 146.5q0 96 48.5 166t139.5 107t214 37q387 0 452 -368h-100q-31 140 -112 208t-236 68q-151 0 -226.5 -60.5t-75.5 -163.5q0 -53 26 -95.5t96 -96.5l148 -114q57 -43 77.5 -83.5
t20.5 -106.5v-440z" />
    <glyph glyph-name="circumflex" unicode="&#x2c6;" horiz-adv-x="868" 
d="M502 1564l286 -310h-120l-234 230l-234 -230h-120l286 310h136z" />
    <glyph glyph-name="caron" unicode="&#x2c7;" horiz-adv-x="868" 
d="M434 1334l234 230h120l-286 -310h-136l-286 310h120z" />
    <glyph glyph-name="uni02C8" unicode="&#x2c8;" horiz-adv-x="428" 
d="M164 1092v408h100v-408h-100z" />
    <glyph glyph-name="uni02C9" unicode="&#x2c9;" horiz-adv-x="934" 
d="M854 1362h-774v96h774v-96z" />
    <glyph glyph-name="breve" unicode="&#x2d8;" horiz-adv-x="864" 
d="M182 1560q19 -103 85 -160.5t165 -57.5t165 57.5t85 160.5h102q-17 -146 -109.5 -227t-242.5 -81t-242.5 81t-109.5 227h102z" />
    <glyph glyph-name="dotaccent" unicode="&#x2d9;" horiz-adv-x="424" 
d="M141 1338.5q-29 28.5 -29 69.5t29 69.5t71 28.5t71 -28.5t29 -69.5t-29 -69.5t-71 -28.5t-71 28.5z" />
    <glyph glyph-name="ring" unicode="&#x2da;" horiz-adv-x="668" 
d="M200.5 1260q-57.5 26 -89 74t-31.5 110t31.5 110t89 74t133.5 26t133.5 -26t89 -74t31.5 -110t-31.5 -110t-89 -74t-133.5 -26t-133.5 26zM456.5 1351q43.5 33 43.5 93t-43.5 93t-122.5 33t-122.5 -33t-43.5 -93t43.5 -93t122.5 -33t122.5 33z" />
    <glyph glyph-name="ogonek" unicode="&#x2db;" horiz-adv-x="562" 
d="M438 26v-26h44q-139 -45 -218.5 -90.5t-79.5 -99.5q0 -41 43 -61.5t127 -20.5q74 0 128 12v-84q-26 -8 -66.5 -13t-79.5 -5q-116 0 -186 41t-70 111q0 72 69 131.5t223 108.5z" />
    <glyph glyph-name="tilde" unicode="&#x2dc;" horiz-adv-x="928" 
d="M80 1310q8 105 64.5 168.5t145.5 63.5q45 0 89.5 -19t111.5 -57q53 -30 86 -45t61 -15q48 0 78.5 35.5t39.5 100.5h92q-8 -105 -64.5 -168.5t-145.5 -63.5q-45 0 -89.5 19t-111.5 57q-53 30 -86 45t-61 15q-48 0 -78.5 -35.5t-39.5 -100.5h-92z" />
    <glyph glyph-name="hungarumlaut" unicode="&#x2dd;" horiz-adv-x="802" 
d="M80 1254l210 310h122l-214 -310h-118zM390 1254l210 310h122l-214 -310h-118z" />
    <glyph glyph-name="uni02E1" unicode="&#x2e1;" horiz-adv-x="384" 
d="M142 560v1232h100v-1232h-100z" />
    <glyph glyph-name="uni02E2" unicode="&#x2e2;" horiz-adv-x="992" 
d="M851 671.5q-51 -62.5 -144 -97t-215 -34.5q-127 0 -227.5 40t-159 113.5t-63.5 170.5h102q8 -69 54.5 -122.5t123 -83.5t170.5 -30q92 0 162 23t108 64.5t38 96.5q0 49 -25 78t-78.5 45.5t-148.5 28.5l-162 18q-171 19 -243.5 77.5t-72.5 156.5q0 81 47.5 139.5
t134.5 89.5t202 31q122 0 219 -38.5t154 -107t63 -156.5h-102q-7 61 -50 110t-117 77.5t-171 28.5q-132 0 -205 -43.5t-73 -124.5q0 -65 49.5 -101t160.5 -49l178 -20q126 -14 200 -41.5t108 -74.5t34 -122q0 -80 -51 -142.5z" />
    <glyph glyph-name="uni02E3" unicode="&#x2e3;" horiz-adv-x="986" 
d="M557 1027l381 -467h-118l-329 400l-327 -400h-116l380 466l-356 432h126l297 -366l299 366h120z" />
    <glyph glyph-name="gravecomb" unicode="&#x300;" 
d="M-436 1564h122l234 -310h-118z" />
    <glyph glyph-name="acutecomb" unicode="&#x301;" 
d="M-436 1254l234 310h122l-238 -310h-118z" />
    <glyph glyph-name="uni0302" unicode="&#x302;" 
d="M-366 1564l286 -310h-120l-234 230l-234 -230h-120l286 310h136z" />
    <glyph glyph-name="tildecomb" unicode="&#x303;" 
d="M-848 1310q8 105 64.5 168.5t145.5 63.5q45 0 89.5 -19t111.5 -57q53 -30 86 -45t61 -15q48 0 78.5 35.5t39.5 100.5h92q-8 -105 -64.5 -168.5t-145.5 -63.5q-45 0 -89.5 19t-111.5 57q-53 30 -86 45t-61 15q-48 0 -78.5 -35.5t-39.5 -100.5h-92z" />
    <glyph glyph-name="uni0304" unicode="&#x304;" 
d="M-80 1362h-774v96h774v-96z" />
    <glyph glyph-name="uni0306" unicode="&#x306;" 
d="M-682 1560q19 -103 85 -160.5t165 -57.5t165 57.5t85 160.5h102q-17 -146 -109.5 -227t-242.5 -81t-242.5 81t-109.5 227h102z" />
    <glyph glyph-name="uni0307" unicode="&#x307;" 
d="M-283 1338.5q-29 28.5 -29 69.5t29 69.5t71 28.5t71 -28.5t29 -69.5t-29 -69.5t-71 -28.5t-71 28.5z" />
    <glyph glyph-name="uni0308" unicode="&#x308;" 
d="M-831 1338.5q-29 28.5 -29 69.5t29 69.5t71 28.5t71 -28.5t29 -69.5t-29 -69.5t-71 -28.5t-71 28.5zM-235 1338.5q-29 28.5 -29 69.5t29 69.5t71 28.5t71 -28.5t29 -69.5t-29 -69.5t-71 -28.5t-71 28.5z" />
    <glyph glyph-name="hookabovecomb" unicode="&#x309;" 
d="M-334 1298q72 18 112 54t40 82q0 42 -37 65t-103 23q-40 0 -73.5 -4.5t-74.5 -13.5v92q72 18 154 18q111 0 173.5 -47.5t62.5 -132.5q0 -78 -54.5 -130t-159.5 -78z" />
    <glyph glyph-name="uni030A" unicode="&#x30a;" 
d="M-467.5 1260q-57.5 26 -89 74t-31.5 110t31.5 110t89 74t133.5 26t133.5 -26t89 -74t31.5 -110t-31.5 -110t-89 -74t-133.5 -26t-133.5 26zM-211.5 1351q43.5 33 43.5 93t-43.5 93t-122.5 33t-122.5 -33t-43.5 -93t43.5 -93t122.5 -33t122.5 33z" />
    <glyph glyph-name="uni030B" unicode="&#x30b;" 
d="M-722 1254l210 310h122l-214 -310h-118zM-412 1254l210 310h122l-214 -310h-118z" />
    <glyph glyph-name="uni030C" unicode="&#x30c;" 
d="M-434 1334l234 230h120l-286 -310h-136l-286 310h120z" />
    <glyph glyph-name="uni030D" unicode="&#x30d;" 
d="M-190 1254v350h100v-350h-100z" />
    <glyph glyph-name="uni030F" unicode="&#x30f;" 
d="M-722 1564h122l210 -310h-118zM-412 1564h122l210 -310h-118z" />
    <glyph glyph-name="uni0311" unicode="&#x311;" 
d="M-182 1254q-19 103 -85 160.5t-165 57.5t-165 -57.5t-85 -160.5h-102q17 146 109.5 227t242.5 81t242.5 -81t109.5 -227h-102z" />
    </font>
</defs>
</svg>
