<?xml version="1.0" standalone="no"?>
<!DOCTYPE svg PUBLIC "-//W3C//DTD SVG 1.1//EN" "http://www.w3.org/Graphics/SVG/1.1/DTD/svg11.dtd" >
<svg xmlns="http://www.w3.org/2000/svg" xmlns:xlink="http://www.w3.org/1999/xlink" version="1.1">
<metadata>
Created by FontForge 20170731 at Tue Jul  5 20:14:03 2022
 By Aleksey,,,
Copyright (c) Parity Technologies. All rights reserved.
</metadata>
<defs>
<font id="Unbounded-Medium" horiz-adv-x="0" >
  <font-face 
    font-family="Unbounded Medium"
    font-weight="500"
    font-stretch="normal"
    units-per-em="2000"
    panose-1="2 11 6 5 4 1 2 2 1 3"
    ascent="1610"
    descent="-390"
    x-height="1137"
    cap-height="1500"
    bbox="-1749 -606 3576 2399"
    underline-thickness="50"
    underline-position="-150"
    unicode-range="U+0020-FB02"
  />
<missing-glyph horiz-adv-x="1697" 
d="M1544 1500v-1500h-1390v1500h1390zM483 1207v-914h731v914h-731z" />
    <glyph glyph-name="fi" unicode="fi" horiz-adv-x="1718" 
d="M1277.5 1315.5q-56.5 47.5 -56.5 125.5t56.5 125.5t147.5 47.5q92 0 148 -47.5t56 -125.5t-56 -125.5t-148 -47.5q-91 0 -147.5 47.5zM276 1071q0 236 137 367.5t405 131.5q74 0 136 -12t126 -36v-252q-101 47 -223 47q-129 0 -188 -49.5t-59 -162.5v-54h459v-251h-459
v-800h-334v800h-237v251h237v20zM1258 0v1150l167 -32l167 32v-1150h-334z" />
    <glyph glyph-name="fl" unicode="fl" horiz-adv-x="1718" 
d="M276 1071q0 236 137 367.5t405 131.5q74 0 136 -12t126 -36v-252q-101 47 -223 47q-129 0 -188 -49.5t-59 -162.5v-54h459v-251h-459v-800h-334v800h-237v251h237v20zM1258 0v1540h334v-1540h-334z" />
    <glyph glyph-name="f_f" unicode="ff" horiz-adv-x="2038" 
d="M1613 1267.5q-59 -49.5 -59 -162.5v-54h459v-251h-459v-800h-334v800h-610v-800h-334v800h-237v251h237v20q0 236 137 367.5t405 131.5q74 0 136 -12t126 -36v-252q-101 47 -223 47q-129 0 -188 -49.5t-59 -162.5v-54h610v20q0 236 137 367.5t405 131.5q74 0 136 -12
t126 -36v-252q-101 47 -223 47q-129 0 -188 -49.5z" />
    <glyph glyph-name="f_f_i" unicode="ffi" horiz-adv-x="2617" 
d="M1613 1267.5q-59 -49.5 -59 -162.5v-54h459v-251h-459v-800h-334v800h-610v-800h-334v800h-237v251h237v20q0 236 137 367.5t405 131.5q74 0 136 -12t126 -36v-252q-101 47 -223 47q-129 0 -188 -49.5t-59 -162.5v-54h610v20q0 236 137 367.5t405 131.5q74 0 136 -12
t126 -36v-252q-101 47 -223 47q-129 0 -188 -49.5zM2157 0v1150l168 -32l167 32v-1150h-335zM2176.5 1315.5q-56.5 47.5 -56.5 125.5t56.5 125.5t147.5 47.5q92 0 148.5 -47.5t56.5 -125.5t-56.5 -125.5t-148.5 -47.5q-91 0 -147.5 47.5z" />
    <glyph glyph-name="f_f_l" unicode="ffl" horiz-adv-x="2624" 
d="M1613 1267.5q-59 -49.5 -59 -162.5v-54h459v-251h-459v-800h-334v800h-610v-800h-334v800h-237v251h237v20q0 236 137 367.5t405 131.5q74 0 136 -12t126 -36v-252q-101 47 -223 47q-129 0 -188 -49.5t-59 -162.5v-54h610v20q0 236 137 367.5t405 131.5q74 0 136 -12
t126 -36v-252q-101 47 -223 47q-129 0 -188 -49.5zM2163 0v1540h335v-1540h-335z" />
    <glyph glyph-name="f_t.liga" unicode="ft" horiz-adv-x="2110" 
d="M2052 44q-65 -29 -161.5 -50t-193.5 -21q-256 0 -380 120.5t-124 334.5v392h-582v-820h-335v820h-237v257h237q2 233 139 363t404 130q74 0 135.5 -12t125.5 -36v-229q-102 36 -223 36q-129 0 -187.5 -46.5t-58.5 -151.5v-54h587l138 335h191v-323h503v-257h-503v-353
q0 -90 24 -142.5t77.5 -76t146.5 -23.5q81 0 148 17.5t127 50.5z" />
    <glyph glyph-name="t_t.liga" unicode="tt" horiz-adv-x="2166" 
d="M1986.5 249q65.5 16 126.5 47v-260q-63 -28 -159 -47t-194 -19q-257 0 -380.5 120t-123.5 335v461h-674v-408q0 -93 24 -145.5t77 -76t145 -23.5q83 0 150 16t127 47v-260q-65 -27 -160.5 -46.5t-192.5 -19.5q-257 0 -380.5 120t-123.5 335v461h-237v148l237 78l142 327
h192v-302h681l135 302h192v-302h503v-251h-503v-408q0 -93 24 -145.5t77.5 -76t146.5 -23.5q83 0 148.5 16z" />
    <glyph glyph-name=".notdef" horiz-adv-x="1697" 
d="M1544 1500v-1500h-1390v1500h1390zM483 1207v-914h731v914h-731z" />
    <glyph glyph-name=".null" 
 />
    <glyph glyph-name="nonmarkingreturn" horiz-adv-x="666" 
 />
    <glyph glyph-name="space" unicode=" " horiz-adv-x="513" 
 />
    <glyph glyph-name="exclam" unicode="!" horiz-adv-x="603" 
d="M183 493l-55 1007h347l-55 -1007h-237zM200.5 5q-44.5 23 -69 64.5t-24.5 94.5t24.5 95t69 65t101.5 23t101 -23t68.5 -65t24.5 -95t-24.5 -94.5t-68.5 -64.5t-101 -23t-101.5 23z" />
    <glyph glyph-name="quotedbl" unicode="&#x22;" horiz-adv-x="928" 
d="M342 895h-193l-63 605h319zM778 895h-194l-62 605h318z" />
    <glyph glyph-name="numbersign" unicode="#" horiz-adv-x="1684" 
d="M1595 1112v-233h-266l-30 -261h248v-233h-276l-45 -385h-270l45 385h-405l-45 -385h-270l45 385h-238v233h266l30 261h-248v233h275l46 388h270l-46 -388h405l46 388h270l-46 -388h239zM624 618h405l30 261h-405z" />
    <glyph glyph-name="dollar" unicode="$" horiz-adv-x="1577" 
d="M1427 222.5q-71 -104.5 -203.5 -169t-312.5 -79.5v-138h-252v143q-173 21 -303.5 90.5t-203.5 177.5t-77 243h333q10 -92 75.5 -156t175.5 -90v381h-5q-282 26 -419.5 138t-137.5 305q0 128 68 226.5t194.5 158t299.5 73.5v138h252v-143q161 -20 282.5 -85t191 -165.5
t76.5 -225.5h-331q-9 76 -64.5 132t-154.5 80v-361l19 -2q204 -18 329 -72t182 -144t57 -220q0 -131 -71 -235.5zM481.5 976.5q52.5 -40.5 177.5 -57.5v348q-112 -16 -171 -64.5t-59 -121.5q0 -64 52.5 -104.5zM911 232q123 14 188 64.5t65 126.5q0 72 -57 115.5t-196 62.5
v-369z" />
    <glyph glyph-name="percent" unicode="%" horiz-adv-x="2505" 
d="M293.5 685.5q-115.5 55.5 -179.5 156.5t-64 232t64 232t179.5 156.5t265.5 55.5t265.5 -55.5t179.5 -156.5t64 -232t-64 -232t-179.5 -156.5t-265.5 -55.5t-265.5 55.5zM721 0l814 1500h253l-816 -1500h-251zM738 895.5q65 64.5 65 178.5q0 113 -65 178.5t-179 65.5
q-113 0 -178 -65.5t-65 -178.5q0 -114 65 -178.5t178 -64.5q114 0 179 64.5zM1681.5 26.5q-115.5 55.5 -179.5 156.5t-64 233q0 131 64 231.5t179.5 156t265.5 55.5t265.5 -55.5t179.5 -156t64 -231.5q0 -132 -64 -233t-179.5 -156.5t-265.5 -55.5t-265.5 55.5zM2126 237.5
q65 64.5 65 178.5q0 113 -65.5 178.5t-178.5 65.5t-178 -65.5t-65 -178.5q0 -114 65 -178.5t178 -64.5q114 0 179 64.5z" />
    <glyph glyph-name="ampersand" unicode="&#x26;" horiz-adv-x="1818" 
d="M1838 0h-424l-212 180q-117 -109 -248 -159.5t-306 -50.5q-178 0 -309.5 57.5t-201.5 157.5t-70 225q0 145 94.5 252t286.5 159q-95 83 -144.5 163t-49.5 166q0 113 68.5 199t198.5 133.5t310 47.5q184 0 319.5 -57.5t210 -158.5t82.5 -229h-333q-12 93 -81 149t-187 56
q-108 0 -170.5 -43t-62.5 -118q0 -82 106 -170l483 -412l199 264h351l-361 -426zM874.5 252.5q80.5 28.5 145.5 82.5l-420 356q-96 -38 -147.5 -99.5t-51.5 -138.5q0 -63 35.5 -115.5t102 -83t154.5 -30.5q101 0 181.5 28.5z" />
    <glyph glyph-name="quotesingle" unicode="'" horiz-adv-x="504" 
d="M150 895l-64 605h332l-64 -605h-204z" />
    <glyph glyph-name="parenleft" unicode="(" horiz-adv-x="721" 
d="M676 1500q-129 -223 -191 -433t-62 -423q0 -209 62 -419t191 -436h-265q-168 207 -250.5 417t-82.5 438t82.5 438.5t250.5 417.5h265z" />
    <glyph glyph-name="parenright" unicode=")" horiz-adv-x="721" 
d="M310 1500q168 -207 250.5 -417t82.5 -439q0 -228 -82.5 -438t-250.5 -417h-265q129 226 191 435.5t62 419.5q0 214 -62 424t-191 432h265z" />
    <glyph glyph-name="asterisk" unicode="*" horiz-adv-x="1055" 
d="M436 1219l-14 314h212l-12 -314l294 113l65 -202l-302 -88l200 -248l-171 -124l-180 262l-181 -262l-171 124l201 248l-301 88l64 202z" />
    <glyph glyph-name="plus" unicode="+" horiz-adv-x="1240" 
d="M744 832h436v-248h-436v-436h-248v436h-436v248h436v436h248v-436z" />
    <glyph glyph-name="comma" unicode="," horiz-adv-x="563" 
d="M380 347.5q45 -26.5 71 -72.5t26 -101q0 -53 -24.5 -112.5t-84.5 -153.5l-121 -194h-171l134 285q-57 21 -92 70.5t-35 111.5q0 53 26 97.5t71.5 70t99.5 25.5q55 0 100 -26.5z" />
    <glyph glyph-name="hyphen" unicode="-" horiz-adv-x="722" 
d="M113 567v268h496v-268h-496z" />
    <glyph glyph-name="period" unicode="." horiz-adv-x="558" 
d="M179 8q-45 26 -71 71t-26 100q0 54 26 99.5t71 71.5t100 26t100 -26t71 -71.5t26 -99.5q0 -55 -26 -100t-71 -71t-100 -26t-100 26z" />
    <glyph glyph-name="slash" unicode="/" horiz-adv-x="880" 
d="M30 -54l560 1608h261l-560 -1608h-261z" />
    <glyph glyph-name="zero" unicode="0" horiz-adv-x="1818" 
d="M477 67q-185 97 -285 273.5t-100 409.5t100 409.5t285 273.5t433 97q247 0 431.5 -97t284.5 -273.5t100 -409.5t-100 -409.5t-284.5 -273.5t-431.5 -97q-248 0 -433 97zM1166 306.5q107 59.5 163.5 172.5t56.5 271t-56.5 271t-163.5 172.5t-256 59.5q-151 0 -258.5 -59
t-164 -172t-56.5 -272t56.5 -272t164 -172t258.5 -59q149 0 256 59.5z" />
    <glyph glyph-name="one" unicode="1" horiz-adv-x="991" 
d="M23 1388l555 112h251v-1500h-337v1205l-469 -82v265z" />
    <glyph glyph-name="two" unicode="2" horiz-adv-x="1624" 
d="M629 274h910v-274h-1440v240l641 375q165 98 252.5 163t125.5 122t38 124q0 70 -38.5 124t-115 84.5t-186.5 30.5q-191 0 -289 -80.5t-112 -210.5h-339q12 168 111 294.5t265.5 195t375.5 68.5q197 0 348.5 -61.5t235 -172t83.5 -254.5q0 -113 -57.5 -209t-182.5 -191.5
t-338 -209.5z" />
    <glyph glyph-name="three" unicode="3" horiz-adv-x="1643" 
d="M1454.5 658.5q92.5 -87.5 92.5 -224.5q0 -136 -85.5 -241t-249 -164t-390.5 -59q-224 0 -392.5 63.5t-263.5 180t-102 272.5h339q17 -122 121.5 -185.5t297.5 -63.5q186 0 283 58t97 164q0 63 -33.5 104t-110 62t-206.5 21h-265v238h265q165 0 242 49t77 137
q0 93 -84.5 143t-252.5 50q-172 0 -271 -61t-119 -175h-340q12 142 103 256.5t255.5 180.5t389.5 66q199 0 349 -51.5t231.5 -145.5t81.5 -217q0 -121 -81.5 -210.5t-241.5 -128.5q171 -31 263.5 -118.5z" />
    <glyph glyph-name="four" unicode="4" horiz-adv-x="1664" 
d="M1346 557h257v-259h-257v-298h-337v298h-962v241l869 961h430v-943zM1009 1224l-602 -667h602v667z" />
    <glyph glyph-name="five" unicode="5" horiz-adv-x="1582" 
d="M1217 932q139 -64 213 -177.5t74 -258.5q0 -153 -86 -272.5t-246 -186.5t-375 -67q-210 0 -371 62.5t-254 171.5t-109 246h339q23 -99 126.5 -156t268.5 -57q112 0 195 31.5t127.5 90.5t44.5 138q0 78 -39.5 136t-118 90t-191.5 32q-135 0 -235 -42.5t-165 -107.5h-289
l124 895h1135v-261h-903l-57 -393q84 69 200.5 109.5t262.5 40.5q190 0 329 -64z" />
    <glyph glyph-name="six" unicode="6" horiz-adv-x="1682" 
d="M1313 912.5q135 -60.5 208 -170t73 -254.5q0 -152 -83.5 -269.5t-240.5 -183t-370 -65.5q-261 0 -442.5 98t-273 274t-90.5 407q-1 230 90 406.5t269 275.5t430 99q182 0 328 -56t236.5 -153.5t112.5 -220.5h-322q-32 78 -115.5 124t-231.5 46q-241 0 -357.5 -131
t-116.5 -377v-31q108 114 255 178t326 64q180 0 315 -60.5zM1094 263q79 32 119 87.5t40 126.5q0 107 -84.5 171t-247.5 64q-131 0 -249.5 -53.5t-213.5 -151.5q52 -136 164.5 -206t280.5 -70q112 0 191 32z" />
    <glyph glyph-name="seven" unicode="7" horiz-adv-x="1457" 
d="M22 1226v274h1379v-272l-758 -1228h-378l770 1226h-1013z" />
    <glyph glyph-name="eight" unicode="8" horiz-adv-x="1746" 
d="M1559 654.5q96 -93.5 96 -240.5q0 -142 -90.5 -241.5t-265.5 -151t-426 -51.5t-426 51.5t-265.5 151t-90.5 241.5q0 148 96 241.5t276 125.5q-155 38 -237.5 122t-82.5 208q0 132 84.5 226t248.5 143.5t397 49.5t397 -49.5t248.5 -143.5t84.5 -226q0 -125 -82.5 -209
t-238.5 -121q181 -33 277 -126.5zM583.5 1217q-101.5 -49 -101.5 -138q0 -94 100.5 -141.5t290.5 -47.5q191 0 291.5 47.5t100.5 141.5q0 89 -102 138t-290 49t-289.5 -49zM1200 286q112 52 112 153q0 103 -111 153.5t-328 50.5q-216 0 -327.5 -51t-111.5 -153
q0 -101 112 -153t327 -52t327 52z" />
    <glyph glyph-name="nine" unicode="9" horiz-adv-x="1682" 
d="M1224.5 1432q181.5 -98 273 -274t90.5 -407q1 -230 -90 -406.5t-269 -275.5t-430 -99q-182 0 -328 56t-236.5 153.5t-112.5 220.5h321q33 -78 116.5 -124t230.5 -46q242 0 358.5 131t116.5 377v31q-108 -114 -255 -178t-327 -64t-314.5 60.5t-208 170t-73.5 254.5
q1 152 84.5 269.5t240.5 183t370 65.5q261 0 442.5 -98zM1010.5 841.5q118.5 53.5 213.5 151.5q-52 136 -164.5 206t-280.5 70q-112 0 -191.5 -32t-119.5 -87.5t-40 -126.5q0 -70 37 -123t111.5 -82.5t184.5 -29.5q131 0 249.5 53.5z" />
    <glyph glyph-name="colon" unicode=":" horiz-adv-x="622" 
d="M210.5 714.5q-44.5 24.5 -70 68t-25.5 97.5t25.5 97.5t70 68t100.5 24.5t100.5 -24.5t70 -68t25.5 -97.5t-25.5 -97.5t-70 -68t-100.5 -24.5t-100.5 24.5zM210.5 6.5q-44.5 24.5 -70 67.5t-25.5 97t25.5 97.5t70 68t100.5 24.5t100.5 -24.5t70 -68t25.5 -97.5t-25.5 -97
t-70 -67.5t-100.5 -24.5t-100.5 24.5z" />
    <glyph glyph-name="semicolon" unicode=";" horiz-adv-x="631" 
d="M215.5 714.5q-44.5 24.5 -69.5 68t-25 97.5t25 97.5t69.5 68t100.5 24.5t100.5 -24.5t70 -68t25.5 -97.5t-25.5 -97.5t-70 -68t-100.5 -24.5t-100.5 24.5zM419 323.5q44 -23.5 68.5 -65.5t24.5 -96q0 -49 -24 -108.5t-84 -148.5l-121 -191h-169l131 280
q-57 19 -89.5 64.5t-32.5 107.5q0 53 24.5 94t69 64t101.5 23t101 -23.5z" />
    <glyph glyph-name="less" unicode="&#x3c;" horiz-adv-x="1240" 
d="M57 846l1120 406v-261l-802 -280l802 -280v-261l-1120 405v271z" />
    <glyph glyph-name="equal" unicode="=" horiz-adv-x="1240" 
d="M60 830v248h1120v-248h-1120zM60 338v248h1120v-248h-1120z" />
    <glyph glyph-name="greater" unicode="&#x3e;" horiz-adv-x="1240" 
d="M63 991v261l1120 -406v-271l-1120 -405v261l802 280z" />
    <glyph glyph-name="question" unicode="?" horiz-adv-x="1358" 
d="M550 708q51 68 163 124l154 76q57 29 88.5 68.5t31.5 85.5q0 94 -79 148.5t-220 54.5q-143 0 -231 -64t-102 -176h-321q11 158 93 271.5t225 173.5t336 60q194 0 333.5 -54t213.5 -155.5t74 -243.5q0 -106 -60.5 -192.5t-177.5 -143.5l-166 -83q-55 -28 -81 -59.5
t-26 -78.5v-48h-289q-10 34 -10 76q0 92 51 160zM547.5 5q-44.5 23 -69 64.5t-24.5 94.5t24.5 95t69 65t101.5 23t101 -23t68.5 -65t24.5 -95t-24.5 -94.5t-68.5 -64.5t-101 -23t-101.5 23z" />
    <glyph glyph-name="at" unicode="@" horiz-adv-x="2062" 
d="M1584 1059l-58 -401l48 -244q103 30 161 123.5t58 230.5q0 166 -89 291t-252.5 193t-379.5 68q-236 0 -414.5 -84t-275.5 -239t-97 -361q0 -192 96 -336t272.5 -222t410.5 -78q170 0 348 38.5t291 101.5v-193q-120 -58 -298 -92.5t-349 -34.5q-295 0 -518 101t-345 285
t-122 427q0 259 124 455.5t350.5 304t526.5 107.5q277 0 486.5 -90.5t324 -256t114.5 -383.5q0 -154 -67.5 -269.5t-191 -179t-288.5 -63.5h-154l-45 196q-52 -106 -138.5 -163t-202.5 -57t-206 53t-140 149.5t-50 221.5t49.5 221t139.5 149.5t207 53.5q114 0 199 -54
t137 -152l30 183h308zM1153 517q70 55 100 141q-29 86 -99 141t-153 55q-54 0 -96.5 -24.5t-66.5 -69t-24 -102.5t24 -102.5t66.5 -69t96.5 -24.5q82 0 152 55z" />
    <glyph glyph-name="A" unicode="A" horiz-adv-x="1856" 
d="M1848 0h-362l-142 316h-832l-142 -316h-362l701 1500h438zM928 1239l-291 -647h583z" />
    <glyph glyph-name="B" unicode="B" horiz-adv-x="1730" 
d="M1574 654.5q84 -97.5 84 -238.5q0 -123 -57 -216.5t-169 -146.5t-273 -53h-1054l117 770l-117 730h1016q138 0 236 -44t149.5 -126t51.5 -195q0 -110 -57 -202.5t-177 -144.5q166 -36 250 -133.5zM1163 1204q-51 45 -143 45h-550l57 -357h479q92 0 150 52t58 142
q0 73 -51 118zM1088 251q107 0 166.5 50.5t59.5 142.5q0 95 -69 149.5t-198 54.5h-519l-60 -397h620z" />
    <glyph glyph-name="C" unicode="C" horiz-adv-x="1846" 
d="M1778 611q-22 -190 -133 -335.5t-293 -225.5t-412 -80q-255 0 -449.5 97.5t-301.5 274.5t-107 408t107 408t301.5 274.5t449.5 97.5q230 0 412 -80t293 -225.5t133 -335.5h-341q-21 106 -86.5 183.5t-170.5 119t-241 41.5q-157 0 -272.5 -59t-178 -168t-62.5 -256
t62.5 -256t178 -168t272.5 -59q206 0 336.5 90t161.5 254h341z" />
    <glyph glyph-name="D" unicode="D" horiz-adv-x="1822" 
d="M867 1500q259 0 457 -93.5t307.5 -263.5t109.5 -393t-109.5 -393t-307.5 -263.5t-457 -93.5h-713v1500h713zM892 300q152 0 266.5 55.5t177 157.5t62.5 237t-62.5 237t-177 157.5t-266.5 55.5h-400v-900h400z" />
    <glyph glyph-name="E" unicode="E" horiz-adv-x="1560" 
d="M528 620l-54 -338h982v-282h-1351l117 750l-117 750h1341v-282h-972l54 -338h866v-260h-866z" />
    <glyph glyph-name="F" unicode="F" horiz-adv-x="1511" 
d="M1437 1500v-291h-944v-344h909v-291h-909v-574h-339v1500h1283z" />
    <glyph glyph-name="G" unicode="G" horiz-adv-x="1910" 
d="M1015 757h777v-757h-245l-17 235q-97 -125 -250.5 -195t-356.5 -70q-238 0 -429 93.5t-301 270.5t-110 416q0 240 111 416.5t305.5 270t441.5 93.5q233 0 411.5 -74.5t287 -206.5t137.5 -303h-343q-21 90 -87.5 157t-170.5 102.5t-235 35.5q-158 0 -274.5 -57
t-179 -167.5t-62.5 -266.5q0 -158 66 -270t188.5 -170.5t289.5 -58.5q187 0 322 68.5t194 191.5h-470v246z" />
    <glyph glyph-name="H" unicode="H" horiz-adv-x="1848" 
d="M1354 909v591h340v-1500h-340v609h-861v-609h-339v1500h339v-591h861z" />
    <glyph glyph-name="I" unicode="I" horiz-adv-x="647" 
d="M154 0v1500h339v-1500h-339z" />
    <glyph glyph-name="J" unicode="J" horiz-adv-x="1585" 
d="M43 728h333v-58q0 -199 87.5 -301t278.5 -102q188 0 278 97.5t90 281.5v854h339v-870q0 -209 -88 -357.5t-247.5 -225.5t-371.5 -77q-210 0 -367.5 79t-244 231t-86.5 366z" />
    <glyph glyph-name="K" unicode="K" horiz-adv-x="1702" 
d="M1167 866l540 -866h-386l-370 602l-492 -602h-305v1500h338v-1038l832 1038h362z" />
    <glyph glyph-name="L" unicode="L" horiz-adv-x="1502" 
d="M493 1500v-1200h974v-300h-1313v1500h339z" />
    <glyph glyph-name="M" unicode="M" horiz-adv-x="2413" 
d="M1208 325l529 1175h522v-1500h-323v1196l-554 -1196h-351l-554 1191v-1191h-323v1500h522z" />
    <glyph glyph-name="N" unicode="N" horiz-adv-x="1909" 
d="M1426 383v1117h329v-1500h-429l-843 1137v-1137h-329v1500h440z" />
    <glyph glyph-name="O" unicode="O" horiz-adv-x="1913" 
d="M499 67.5q-199 97.5 -308.5 274.5t-109.5 408t109.5 408t308.5 274.5t457 97.5q259 0 457.5 -97.5t308.5 -274.5t110 -408t-110 -408t-308.5 -274.5t-457.5 -97.5q-258 0 -457 97.5zM1238.5 331q120.5 58 185 165.5t64.5 253.5t-64.5 253.5t-185 165.5t-282.5 58
t-282 -58t-185 -165.5t-65 -253.5t65 -253.5t185 -165.5t282 -58t282.5 58z" />
    <glyph glyph-name="P" unicode="P" horiz-adv-x="1593" 
d="M972 1500q176 0 306.5 -62t200.5 -174.5t70 -259.5t-70 -259t-201 -174t-306 -62h-479v-509h-339v1500h818zM954 789q118 0 184.5 57t66.5 158t-66.5 158.5t-184.5 57.5h-461v-431h461z" />
    <glyph glyph-name="Q" unicode="Q" horiz-adv-x="1913" 
d="M1759.5 411.5q-72.5 -152.5 -206.5 -257.5l247 -262h-417l-112 121q-147 -43 -315 -43q-258 0 -457 97.5t-308.5 274.5t-109.5 408t109.5 408t308.5 274.5t457 97.5q259 0 457.5 -97.5t308.5 -274.5t110 -408q0 -186 -72.5 -338.5zM1025 276l-293 315h409l190 -201
q76 62 116.5 153.5t40.5 206.5q0 146 -64.5 253.5t-185 165.5t-282.5 58t-282 -58t-185 -165.5t-65 -253.5t65 -253.5t185 -165.5t282 -58q36 0 69 3z" />
    <glyph glyph-name="R" unicode="R" horiz-adv-x="1661" 
d="M1206 0l-452 570h-261v-570h-339v1500h854q163 0 288 -58.5t194 -164.5t69 -244q0 -118 -52 -213t-147.5 -157t-223.5 -83l468 -580h-398zM493 1232v-398h474q116 0 182.5 53t66.5 146t-66.5 146t-182.5 53h-474z" />
    <glyph glyph-name="S" unicode="S" horiz-adv-x="1646" 
d="M419 490q10 -77 65.5 -133.5t149 -87.5t215.5 -31q117 0 203.5 23t133 67t46.5 104q0 50 -25.5 82t-86 52.5t-166.5 32.5l-302 34q-194 21 -316.5 75t-180 142t-57.5 214q0 144 86.5 249t245.5 161t371 56q207 0 370.5 -61t258.5 -171t104 -254h-344q-9 66 -59 115
t-136.5 76t-200.5 27q-108 0 -188 -22t-123 -63.5t-43 -99.5q0 -46 24.5 -76t81 -50t153.5 -32l313 -38q209 -24 331 -72.5t176 -129.5t54 -209q0 -150 -91 -263t-256.5 -175t-382.5 -62q-222 0 -394 65t-270.5 183t-104.5 272h345z" />
    <glyph glyph-name="T" unicode="T" horiz-adv-x="1602" 
d="M35 1500h1532v-300h-596v-1200h-340v1200h-596v300z" />
    <glyph glyph-name="U" unicode="U" horiz-adv-x="1740" 
d="M473 657q0 -118 46.5 -204.5t136 -133t214.5 -46.5q126 0 215 46.5t135 132.5t46 205v843h340v-858q0 -199 -92 -351.5t-259 -236.5t-385 -84t-385 84t-259 236.5t-92 351.5v858h339v-843z" />
    <glyph glyph-name="V" unicode="V" horiz-adv-x="1820" 
d="M915 314l537 1186h360l-711 -1500h-382l-711 1500h364z" />
    <glyph glyph-name="W" unicode="W" horiz-adv-x="2676" 
d="M1932 314l363 1186h357l-482 -1500h-435l-397 1120l-397 -1120h-434l-483 1500h359l363 -1189l412 1189h362z" />
    <glyph glyph-name="X" unicode="X" horiz-adv-x="1663" 
d="M1044 781l636 -781h-418l-433 552l-435 -552h-411l640 781l-593 719h423l386 -490l381 490h414z" />
    <glyph glyph-name="Y" unicode="Y" horiz-adv-x="1794" 
d="M1392 1500h379l-703 -888v-612h-340v608l-706 892h379l496 -626z" />
    <glyph glyph-name="Z" unicode="Z" horiz-adv-x="1583" 
d="M1494 1251l-958 -978h964v-273h-1418v251l959 977h-952v273h1405v-250z" />
    <glyph glyph-name="bracketleft" unicode="[" horiz-adv-x="814" 
d="M752 1500v-250h-295v-1211h295v-250h-607v1711h607z" />
    <glyph glyph-name="backslash" unicode="\" horiz-adv-x="880" 
d="M30 1554h261l560 -1608h-261z" />
    <glyph glyph-name="bracketright" unicode="]" horiz-adv-x="814" 
d="M62 1250v250h607v-1711h-607v250h295v1211h-295z" />
    <glyph glyph-name="asciicircum" unicode="^" horiz-adv-x="1240" 
d="M741 1500l431 -750h-281l-270 478l-272 -478h-280l430 750h242z" />
    <glyph glyph-name="underscore" unicode="_" horiz-adv-x="964" 
d="M-53 -287v227h1070v-227h-1070z" />
    <glyph glyph-name="grave" unicode="`" horiz-adv-x="692" 
d="M58 1615h329l247 -361h-314z" />
    <glyph glyph-name="a" unicode="a" horiz-adv-x="1613" 
d="M1515 1137l-66 -568l66 -569h-346l-30 256q-85 -136 -214.5 -211t-287.5 -75q-165 0 -294 75t-200.5 211t-71.5 312q0 177 71.5 313.5t200 211.5t294.5 75q158 0 287.5 -74.5t215.5 -210.5l29 254h346zM906 273q84 43 147.5 119.5t99.5 175.5q-36 99 -99.5 176
t-147.5 120.5t-177 43.5q-92 0 -164.5 -43.5t-113.5 -121t-41 -175.5t41 -175t113.5 -120t164.5 -43q93 0 177 43z" />
    <glyph glyph-name="b" unicode="b" horiz-adv-x="1598" 
d="M1255.5 1093q128.5 -75 200 -211.5t71.5 -313.5q0 -176 -71.5 -312t-200 -211t-293.5 -75q-158 0 -287 74.5t-215 210.5v-255h-335v1540h335v-654q86 135 215 208.5t287 73.5q165 0 293.5 -75zM1034 273q73 43 114 120t41 175t-41 175.5t-114 121t-165 43.5
q-93 0 -176.5 -43.5t-147.5 -120.5t-100 -176q36 -99 100 -175.5t147.5 -119.5t176.5 -43q92 0 165 43z" />
    <glyph glyph-name="c" unicode="c" horiz-adv-x="1486" 
d="M1431 464q-18 -146 -110.5 -258t-240.5 -174t-327 -62q-201 0 -357 75.5t-242.5 211t-86.5 311.5t86.5 312t242.5 212t357 76q179 0 327 -62t240.5 -175t110.5 -259h-334q-25 114 -117.5 178t-226.5 64q-106 0 -184.5 -41t-121 -119t-42.5 -186q0 -107 42.5 -185
t121 -119t184.5 -41q88 0 160.5 29.5t120 84.5t63.5 127h334z" />
    <glyph glyph-name="d" unicode="d" horiz-adv-x="1616" 
d="M1564 1540l-110 -948l65 -592h-344l-30 265q-86 -140 -217 -217.5t-291 -77.5q-165 0 -294 75t-200.5 211t-71.5 312q0 177 71.5 313.5t200 211.5t294.5 75q160 0 291 -76t216 -215l74 663h346zM906 273q84 43 147.5 119.5t99.5 175.5q-36 99 -99.5 176t-147.5 120.5
t-177 43.5q-92 0 -164.5 -43.5t-113.5 -121t-41 -175.5t41 -175t113.5 -120t164.5 -43q93 0 177 43z" />
    <glyph glyph-name="e" unicode="e" horiz-adv-x="1444" 
d="M425 464q38 -116 148 -179t279 -63q129 0 259 37t233 104v-224q-113 -80 -262.5 -124.5t-312.5 -44.5q-202 0 -362 75.5t-250 212t-90 314.5q0 175 86 310.5t239 210.5t346 75q194 0 338 -86.5t221.5 -246t77.5 -371.5h-950zM527.5 858.5q-85.5 -63.5 -112.5 -172.5h635
q-29 113 -109.5 174.5t-200.5 61.5q-127 0 -212.5 -63.5z" />
    <glyph glyph-name="f" unicode="f" horiz-adv-x="1127" 
d="M672 1262.5q-62 -54.5 -62 -176.5v-35h492v-251h-492v-800h-334v800h-237v251h237v13q0 158 62 271.5t187 174t309 60.5q82 0 149.5 -12t143.5 -36v-252q-116 47 -253 47q-140 0 -202 -54.5z" />
    <glyph glyph-name="g" unicode="g" horiz-adv-x="1592" 
d="M1138 1137h334v-834q0 -210 -93.5 -359.5t-262.5 -226.5t-392 -77q-153 0 -285 39.5t-260 122.5v262q228 -174 524 -174q213 0 324 98.5t111 294.5v62q-89 -107 -222 -174t-295 -67q-157 0 -283.5 66.5t-198.5 187.5t-72 278t72 278t198.5 187.5t283.5 66.5
q162 0 294.5 -69.5t222.5 -180.5v219zM1150 636q-154 298 -420 298q-101 0 -174.5 -37t-112.5 -104.5t-39 -156.5t38.5 -156t112 -104t175.5 -37q266 0 420 297z" />
    <glyph glyph-name="h" unicode="h" horiz-adv-x="1515" 
d="M1169 1103.5q115 -64.5 175.5 -185t60.5 -285.5v-633h-335v582q0 152 -74.5 232t-214.5 80q-97 0 -169.5 -42.5t-112 -120t-39.5 -180.5v-551h-335v1540h335v-606q75 114 187 174t247 60q160 0 275 -64.5z" />
    <glyph glyph-name="i" unicode="i" horiz-adv-x="585" 
d="M125 0v1150l168 -32l167 32v-1150h-335zM144.5 1315.5q-56.5 47.5 -56.5 125.5t56.5 125.5t147.5 47.5q92 0 148.5 -47.5t56.5 -125.5t-56.5 -125.5t-148.5 -47.5q-91 0 -147.5 47.5z" />
    <glyph glyph-name="j" unicode="j" horiz-adv-x="585" 
d="M125 -330v1480l168 -32l167 32v-1480h-335zM144.5 1315.5q-56.5 47.5 -56.5 125.5t56.5 125.5t147.5 47.5q92 0 148.5 -47.5t56.5 -125.5t-56.5 -125.5t-148.5 -47.5q-91 0 -147.5 47.5z" />
    <glyph glyph-name="k" unicode="k" horiz-adv-x="1428" 
d="M1010 675l429 -675h-383l-259 428l-368 -428h-304v1540h335v-1116l582 713h365z" />
    <glyph glyph-name="l" unicode="l" horiz-adv-x="585" 
d="M125 0v1540h335v-1540h-335z" />
    <glyph glyph-name="m" unicode="m" horiz-adv-x="2363" 
d="M2030 1103.5q109 -64.5 166 -185t57 -285.5v-633h-334v582q0 152 -66.5 232t-193.5 80q-90 0 -156 -42.5t-102 -120t-36 -180.5v-551h-334v582q0 152 -66.5 232t-193.5 80q-90 0 -156 -42.5t-102 -120t-36 -180.5v-551h-334v755l-72 382h335l41 -250q69 136 182.5 208.5
t253.5 72.5q166 0 279.5 -77t164.5 -219q68 143 183 219.5t259 76.5q152 0 261 -64.5z" />
    <glyph glyph-name="n" unicode="n" horiz-adv-x="1532" 
d="M1187.5 1103.5q114.5 -64.5 174.5 -185t60 -285.5v-633h-334v582q0 152 -74.5 232t-214.5 80q-98 0 -170.5 -42.5t-112 -120t-39.5 -180.5v-551h-334v755l-72 382h335l42 -255q71 138 192.5 212t271.5 74q161 0 275.5 -64.5z" />
    <glyph glyph-name="o" unicode="o" horiz-adv-x="1556" 
d="M406.5 45q-161.5 75 -250.5 210.5t-89 312.5q0 178 89 314t250.5 211t371.5 75t371.5 -75t250.5 -211t89 -314q0 -177 -89 -312.5t-250.5 -210.5t-371.5 -75t-371.5 75zM976.5 265q83.5 42 128.5 119.5t45 183.5t-45 184t-129 120t-198 42q-115 0 -199 -42t-129 -120
t-45 -184t45 -183.5t129 -119.5t199 -42t198.5 42z" />
    <glyph glyph-name="p" unicode="p" horiz-adv-x="1601" 
d="M1258.5 1093q128.5 -75 200 -211.5t71.5 -313.5q0 -176 -71.5 -312t-200 -211t-293.5 -75q-160 0 -290 76t-215 214v-590h-335v1467h335v-256q86 137 216 212t289 75q165 0 293.5 -75zM1037 273q73 43 114 120t41 175t-41 175.5t-114 121t-165 43.5q-93 0 -176.5 -43.5
t-147.5 -120.5t-100 -176q36 -99 100 -175.5t147.5 -119.5t176.5 -43q92 0 165 43z" />
    <glyph glyph-name="q" unicode="q" horiz-adv-x="1601" 
d="M1142 1137h334v-1467h-334v590q-86 -138 -216 -214t-289 -76q-165 0 -294 75t-200.5 211t-71.5 312q0 177 71.5 313.5t200 211.5t294.5 75q159 0 289 -75t216 -213v257zM906 273q84 43 147.5 119.5t99.5 175.5q-36 99 -99.5 176t-147.5 120.5t-177 43.5
q-92 0 -164.5 -43.5t-113.5 -121t-41 -175.5t41 -175t113.5 -120t164.5 -43q93 0 177 43z" />
    <glyph glyph-name="r" unicode="r" horiz-adv-x="1059" 
d="M1032 1150v-288q-99 23 -202 23q-102 0 -182 -43t-125.5 -131.5t-45.5 -219.5v-491h-334v764l-72 373h338l51 -307q55 158 160 248t263 90q75 0 149 -18z" />
    <glyph glyph-name="s" unicode="s" horiz-adv-x="1439" 
d="M1301 148q-72 -87 -212 -132.5t-340 -45.5q-206 0 -361 51.5t-241 144.5t-92 217h339q19 -84 115 -132t250 -48q287 0 287 127q0 32 -22.5 52t-73.5 32.5t-141 20.5l-212 18q-274 21 -392 110.5t-118 234.5q0 120 75.5 203t212.5 125t320 42q182 0 327 -49.5
t231.5 -138.5t97.5 -204h-339q-15 70 -97 117.5t-237 47.5q-125 0 -193 -30.5t-68 -86.5q0 -42 43.5 -66.5t152.5 -33.5l276 -23q180 -15 286.5 -59t152 -114.5t45.5 -169.5q0 -123 -72 -210z" />
    <glyph glyph-name="t" unicode="t" horiz-adv-x="1158" 
d="M11 886v148l237 78l142 327h192v-302h503v-251h-503v-413q0 -90 24 -142t77 -75t145 -23q84 0 150.5 16t126.5 48v-261q-62 -27 -158 -46.5t-193 -19.5q-258 0 -382 120t-124 335v461h-237z" />
    <glyph glyph-name="u" unicode="u" horiz-adv-x="1509" 
d="M1436 0h-334l-41 253q-71 -136 -189 -209.5t-264 -73.5q-156 0 -268 64.5t-171 185t-59 285.5v632h334v-583q0 -151 71.5 -230.5t205.5 -79.5q96 0 166 41.5t107.5 119t37.5 182.5v550h334v-756z" />
    <glyph glyph-name="v" unicode="v" horiz-adv-x="1483" 
d="M747 293l370 844h357l-543 -1137h-379l-543 1137h369z" />
    <glyph glyph-name="w" unicode="w" horiz-adv-x="2239" 
d="M1589 329l302 808h334l-442 -1137h-341l-320 828l-326 -828h-341l-441 1137h338l301 -806l308 806h325z" />
    <glyph glyph-name="x" unicode="x" horiz-adv-x="1365" 
d="M892 584l493 -584h-381l-326 387l-323 -387h-373l486 581l-455 556h376l298 -358l298 358h368z" />
    <glyph glyph-name="y" unicode="y" horiz-adv-x="1492" 
d="M1129 1137h355l-567 -1188q-76 -162 -197 -235.5t-271 -73.5q-111 0 -201 27t-172 83v241q87 -55 162 -78.5t166 -23.5q87 0 149.5 38.5t101.5 128.5l7 15h-141l-503 1066h368l369 -853z" />
    <glyph glyph-name="z" unicode="z" horiz-adv-x="1344" 
d="M1263 901l-765 -654h769v-247h-1192v236l767 655h-760v246h1181v-236z" />
    <glyph glyph-name="braceleft" unicode="{" horiz-adv-x="881" 
d="M615 1261q-49 0 -75 -23.5t-26 -65.5q0 -22 6 -46l57 -207q14 -46 14 -90q0 -75 -44 -122.5t-122 -62.5q78 -15 122 -62.5t44 -121.5q0 -44 -14 -90l-57 -207q-6 -24 -6 -46q0 -42 26 -65.5t75 -23.5h202v-239h-344q-85 0 -148 31.5t-97 87t-34 127.5q0 51 18 106l82 257
q7 21 7 42q0 43 -29.5 67t-78.5 24h-128v227h128q49 0 78.5 24t29.5 67q0 21 -7 42l-82 257q-18 56 -18 106q0 72 34 127.5t97 87t148 31.5h344v-239h-202z" />
    <glyph glyph-name="bar" unicode="|" horiz-adv-x="597" 
d="M154 -196v1696h289v-1696h-289z" />
    <glyph glyph-name="braceright" unicode="}" horiz-adv-x="881" 
d="M64 1261v239h344q85 0 148 -31.5t97 -87t34 -127.5q0 -50 -18 -106l-82 -257q-7 -21 -7 -42q0 -43 29.5 -67t78.5 -24h128v-227h-128q-49 0 -78.5 -24t-29.5 -67q0 -21 7 -42l82 -257q18 -55 18 -106q0 -72 -34 -127.5t-97 -87t-148 -31.5h-344v239h202q49 0 75 23.5
t26 65.5q0 22 -6 46l-57 207q-14 46 -14 90q0 74 44 121.5t122 62.5q-78 15 -122 62.5t-44 122.5q0 44 14 90l57 207q6 24 6 46q0 42 -26 65.5t-75 23.5h-202z" />
    <glyph glyph-name="asciitilde" unicode="~" horiz-adv-x="1240" 
d="M60 791q154 71 330 71q58 0 109.5 -8.5t120.5 -24.5q76 -17 124.5 -25t105.5 -8q175 0 330 70v-241q-154 -71 -330 -71q-57 0 -105.5 8t-124.5 25q-69 16 -120.5 24.5t-109.5 8.5q-175 0 -330 -70v241z" />
    <glyph glyph-name="uni00A0" unicode="&#xa0;" horiz-adv-x="513" 
 />
    <glyph glyph-name="exclamdown" unicode="&#xa1;" horiz-adv-x="583" 
d="M393.5 1185q44.5 -23 69 -64.5t24.5 -94.5t-24.5 -95t-69 -65t-101.5 -23t-101 23t-68.5 64.5t-24.5 95.5q0 53 24.5 94.5t68.5 64.5t101 23t101.5 -23zM411 697l55 -1007h-347l55 1007h237z" />
    <glyph glyph-name="cent" unicode="&#xa2;" horiz-adv-x="1546" 
d="M877 219q100 21 167.5 83.5t88.5 155.5h312q-17 -128 -93 -232t-198.5 -169.5t-276.5 -81.5v-145h-205v146q-168 20 -295 99.5t-197 206t-70 284.5q0 159 70 286t197 207t295 100v146h205v-145q152 -16 274.5 -80.5t199.5 -168t94 -234.5h-312q-20 93 -87 156t-169 84
v-698zM488.5 340.5q66.5 -89.5 183.5 -118.5v691q-117 -29 -183.5 -119t-66.5 -228q0 -136 66.5 -225.5z" />
    <glyph glyph-name="sterling" unicode="&#xa3;" horiz-adv-x="1593" 
d="M1523 248v-248h-1424v274q398 71 398 249q0 40 -17 77h-384v229h206q-40 57 -62.5 120.5t-22.5 142.5q0 130 79.5 229t223 154t330.5 55q185 0 330 -57.5t230 -163t93 -242.5h-336q-17 95 -99.5 149.5t-208.5 54.5q-92 0 -160 -25t-104.5 -72.5t-36.5 -111.5
q0 -67 30.5 -119.5t87.5 -113.5h602v-229h-453q3 -18 3 -38q0 -98 -65 -179t-182 -135h942z" />
    <glyph glyph-name="currency" unicode="&#xa4;" horiz-adv-x="1423" 
d="M1190 479l143 -125l-116 -120l-156 127q-140 -84 -351 -84q-212 0 -350 84l-155 -127l-117 120l143 125q-77 109 -77 259t77 259l-143 125l117 120l155 -127q138 84 350 84q211 0 351 -84l156 127l116 -132l-142 -116q76 -108 76 -256q0 -150 -77 -259zM925 570.5
q71 58.5 71 167.5t-71 167.5t-215 58.5q-143 0 -214 -58.5t-71 -167.5t71 -167.5t214 -58.5q144 0 215 58.5z" />
    <glyph glyph-name="yen" unicode="&#xa5;" horiz-adv-x="1704" 
d="M1277 1500h376l-498 -695h378v-208h-511v-116h511v-208h-511v-273h-338v273h-508v208h508v116h-508v208h372l-498 695h377l425 -612z" />
    <glyph glyph-name="brokenbar" unicode="&#xa6;" horiz-adv-x="597" 
d="M443 1500v-666h-289v666h289zM154 -196v666h289v-666h-289z" />
    <glyph glyph-name="section" unicode="&#xa7;" horiz-adv-x="1705" 
d="M1412 310q55 -41 82 -96.5t27 -132.5q0 -104 -72.5 -187.5t-219 -132.5t-358.5 -49q-219 0 -375 58t-238 153.5t-90 206.5h335q7 -56 49.5 -102t124 -73t198.5 -27q101 0 169 19t100 51.5t32 73.5q0 36 -19.5 61t-62 45t-118.5 43l-449 119q-148 39 -241.5 87.5
t-139.5 113.5t-46 152q0 82 47.5 143t144.5 96q-56 42 -82.5 97t-26.5 132q0 104 72.5 187.5t219 132.5t358.5 49q220 0 376 -58t238 -153t90 -206h-336q-7 56 -50 102t-124 73t-198 27q-101 0 -169 -19t-100 -51.5t-32 -73.5q0 -36 19.5 -61.5t62 -45.5t118.5 -42l449 -120
q157 -42 250 -89.5t135 -110.5t42 -152q0 -168 -192 -240zM1091 440q108 -30 165 -51q54 41 54 104q0 45 -24 77t-74 56t-134 48l-464 128q-93 26 -165 51q-54 -41 -54 -104q0 -45 24 -76.5t73.5 -55.5t133.5 -49z" />
    <glyph glyph-name="dieresis" unicode="&#xa8;" horiz-adv-x="1134" 
d="M128.5 1313q-52.5 45 -52.5 122q0 74 53 119t139 45t139 -45t53 -119q0 -77 -52.5 -122t-139.5 -45t-139.5 45zM727.5 1313q-52.5 45 -52.5 122q0 74 53 119t139 45t138 -45t52 -119q0 -77 -52 -122t-138 -45q-87 0 -139.5 45z" />
    <glyph glyph-name="copyright" unicode="&#xa9;" horiz-adv-x="1816" 
d="M506.5 71q-182.5 101 -289 279t-106.5 400q0 223 107 401t289.5 278.5t400.5 100.5q219 0 401.5 -100.5t289 -278.5t106.5 -401q0 -222 -106.5 -400t-289 -279t-401.5 -101t-401.5 101zM1232 195q147 81 232.5 226t85.5 329t-85.5 329t-232.5 226t-324 81t-324 -81
t-232.5 -226t-85.5 -329t85.5 -329t232.5 -226t324 -81t324 81zM1411 677q-13 -120 -79.5 -210.5t-175 -140.5t-245.5 -50q-151 0 -266 60t-178 168.5t-63 250.5q0 141 63 250t178 169t266 60q136 0 244.5 -50t175.5 -141.5t80 -210.5h-243q-17 92 -85 143t-174 51
q-81 0 -140 -33t-90.5 -94.5t-31.5 -143.5q0 -83 31.5 -144.5t90.5 -95t140 -33.5q108 0 175 51t84 144h243z" />
    <glyph glyph-name="ordfeminine" unicode="&#xaa;" horiz-adv-x="1327" 
d="M1211 1491l-53 -440l53 -442h-299l-22 187q-66 -101 -163 -156.5t-216 -55.5q-127 0 -226 58.5t-154 164t-55 242.5q0 139 55 245.5t153.5 164.5t226.5 58q120 0 217 -55t162 -155l22 184h299zM779 877q84 66 123 172q-39 108 -122.5 174.5t-185.5 66.5q-66 0 -117 -30.5
t-79.5 -85.5t-28.5 -125q0 -69 29 -123t80 -84.5t116 -30.5q101 0 185 66z" />
    <glyph glyph-name="guillemotleft" unicode="&#xab;" horiz-adv-x="1351" 
d="M385 1089h343l-305 -466l305 -467h-343l-298 466zM920 1089h343l-305 -466l305 -467h-343l-298 466z" />
    <glyph glyph-name="logicalnot" unicode="&#xac;" horiz-adv-x="1240" 
d="M51 788v248h1120v-654h-245v406h-875z" />
    <glyph glyph-name="uni00AD" unicode="&#xad;" horiz-adv-x="722" 
d="M113 567v268h496v-268h-496z" />
    <glyph glyph-name="registered" unicode="&#xae;" horiz-adv-x="1554" 
d="M1117.5 1449.5q151.5 -80.5 237.5 -222t86 -317.5q0 -177 -86 -318.5t-237.5 -222t-340.5 -80.5t-340.5 80.5t-237.5 222t-86 318.5q0 176 86 317.5t237.5 222t340.5 80.5t340.5 -80.5zM1049.5 478.5q119.5 63.5 186.5 176.5t67 255q0 141 -67 253t-186.5 175.5
t-272.5 63.5q-152 0 -272 -63.5t-187 -175.5t-67 -253q0 -142 67 -255t187 -176.5t272 -63.5q153 0 272.5 63.5zM1056 908q-45 -56 -123 -78l185 -270h-203l-159 257h-106v-257h-173v706h361q77 0 137 -28.5t93 -79.5t33 -117q0 -77 -45 -133zM650 1132v-183h174
q47 0 74 24.5t27 67.5t-27 67t-74 24h-174z" />
    <glyph glyph-name="macron" unicode="&#xaf;" horiz-adv-x="1021" 
d="M981 1318h-919v208h919v-208z" />
    <glyph glyph-name="degree" unicode="&#xb0;" horiz-adv-x="882" 
d="M260.5 969q-79.5 37 -123.5 103.5t-44 152.5t44 152t123.5 103t181.5 37q101 0 180 -37t123 -103.5t44 -151.5q0 -86 -44 -152.5t-123 -103.5t-180 -37q-102 0 -181.5 37zM556.5 1116q39.5 38 39.5 109t-39.5 109.5t-114.5 38.5q-76 0 -116 -38.5t-40 -109.5t40 -109
t116 -38q75 0 114.5 38z" />
    <glyph glyph-name="plusminus" unicode="&#xb1;" horiz-adv-x="1240" 
d="M744 1260v-296h436v-237h-436v-295h-248v295h-436v237h436v296h248zM1180 84h-1120v236h1120v-236z" />
    <glyph glyph-name="uni00B2" unicode="&#xb2;" horiz-adv-x="1087" 
d="M533 1018h454v-200h-889v155l353 195q93 51 149 89.5t86 77.5t30 83q0 53 -44.5 84t-127.5 31q-86 0 -137.5 -34t-60.5 -89h-255q8 91 67 165.5t163.5 118t241.5 43.5q130 0 223 -37.5t141 -104t48 -153.5q0 -77 -35.5 -137.5t-102.5 -111.5t-177 -109z" />
    <glyph glyph-name="uni00B3" unicode="&#xb3;" horiz-adv-x="1124" 
d="M1001.5 1210q48.5 -51 48.5 -127q0 -83 -52 -147t-158.5 -100.5t-264.5 -36.5q-157 0 -273.5 44.5t-180.5 123.5t-68 181h254q10 -77 73.5 -111.5t177.5 -34.5q112 0 164.5 22t52.5 76q0 44 -37.5 66t-131.5 22h-156v163h156q81 0 116.5 26t35.5 66q0 43 -43 66.5
t-143 23.5q-111 0 -170.5 -35t-67.5 -100h-254q9 102 71 178.5t173.5 118.5t263.5 42q140 0 239 -32.5t150 -91t51 -137.5q0 -73 -47 -122.5t-140 -71.5q112 -21 160.5 -72z" />
    <glyph glyph-name="acute" unicode="&#xb4;" horiz-adv-x="692" 
d="M58 1254l248 361h328l-262 -361h-314z" />
    <glyph glyph-name="paragraph" unicode="&#xb6;" horiz-adv-x="1589" 
d="M102 1295q56 97 155.5 151t226.5 54h543v-1500h-249v648h-294q-127 0 -226.5 54.5t-155.5 151.5t-56 221q0 123 56 220zM1180 0v1500h249v-1500h-249z" />
    <glyph glyph-name="periodcentered" unicode="&#xb7;" horiz-adv-x="583" 
d="M191 566q-45 26 -71 71t-26 100q0 54 26 99.5t71 71.5t100 26t100 -26t71 -71.5t26 -99.5q0 -55 -26 -100t-71 -71t-100 -26t-100 26z" />
    <glyph glyph-name="cedilla" unicode="&#xb8;" horiz-adv-x="832" 
d="M710 -134q67 -50 67 -140q0 -61 -40 -109t-117 -76t-184 -28q-97 0 -176 26.5t-131.5 73.5t-73.5 109h215q44 -63 166 -63q64 0 98 19.5t34 54.5q0 31 -28.5 50.5t-86.5 19.5q-64 0 -112 -25h-179l157 246h178l-77 -118q47 10 94 10q129 0 196 -50z" />
    <glyph glyph-name="uni00B9" unicode="&#xb9;" horiz-adv-x="905" 
d="M623 1719v-701h228v-200h-747v200h277v479l-266 -46v203l318 65h190z" />
    <glyph glyph-name="ordmasculine" unicode="&#xba;" horiz-adv-x="1255" 
d="M336.5 642.5q-126.5 58.5 -196.5 164t-70 243.5t70 244t196.5 164.5t290.5 58.5q165 0 291.5 -58t196.5 -164t70 -245q0 -137 -70 -243t-197 -164.5t-291 -58.5t-290.5 58.5zM820.5 870.5q70.5 65.5 70.5 179.5q0 116 -70.5 181t-193.5 65t-193 -65t-70 -181
q0 -115 70.5 -180t192.5 -65q123 0 193.5 65.5z" />
    <glyph glyph-name="guillemotright" unicode="&#xbb;" horiz-adv-x="1351" 
d="M87 1089h343l299 -467l-299 -466h-343l305 467zM622 1089h344l298 -467l-298 -466h-344l306 467z" />
    <glyph glyph-name="onequarter" unicode="&#xbc;" horiz-adv-x="2214" 
d="M600 799h228v-200h-747v200h276v479l-266 -46v204l318 64h191v-701zM607 0l815 1500h253l-816 -1500h-252zM2040 350h139v-184h-139v-166h-239v166h-558v166l491 569h306v-551zM1801 671l-274 -321h274v321z" />
    <glyph glyph-name="onehalf" unicode="&#xbd;" horiz-adv-x="2313" 
d="M601 799h228v-200h-748v200h277v479l-266 -46v204l318 64h191v-701zM597 0l814 1500h253l-816 -1500h-251zM1781 200h454v-200h-889v155l353 195q93 51 149 89.5t86 77.5t30 83q0 53 -44.5 84t-127.5 31q-86 0 -137.5 -34t-60.5 -89h-255q8 91 67 165.5t163 118t242 43.5
q130 0 223 -37.5t141 -104t48 -153.5q0 -77 -35.5 -137.5t-102.5 -111.5t-177 -109z" />
    <glyph glyph-name="threequarters" unicode="&#xbe;" horiz-adv-x="2404" 
d="M1018 718q-52 -64 -159 -100.5t-265 -36.5q-157 0 -273.5 44.5t-180.5 123.5t-68 181h254q10 -77 73.5 -111.5t177.5 -34.5q112 0 164.5 21.5t52.5 75.5q0 44 -37.5 66.5t-131.5 22.5h-156v163h156q81 0 117 26t36 66q0 43 -43 66.5t-144 23.5q-111 0 -170.5 -35
t-67.5 -100h-254q9 102 71 178.5t173.5 118.5t263.5 42q141 0 240 -32.5t149.5 -91.5t50.5 -137q0 -73 -47 -122.5t-139 -71.5q209 -40 209 -199q0 -83 -52 -147zM782 0l814 1500h253l-816 -1500h-251zM2221 350h139v-184h-139v-166h-239v166h-558v166l491 569h306v-551z
M1982 671l-274 -321h274v321z" />
    <glyph glyph-name="questiondown" unicode="&#xbf;" horiz-adv-x="1351" 
d="M806.5 1185q44.5 -23 69 -64.5t24.5 -94.5t-24.5 -95t-69 -65t-100.5 -23q-57 0 -101.5 23t-69 65t-24.5 95t24.5 94.5t69 64.5t101.5 23q56 0 100.5 -23zM804 482q-51 -68 -163 -124l-153 -76q-57 -29 -89 -68.5t-32 -85.5q0 -94 79 -148.5t221 -54.5q143 0 230.5 64
t101.5 176h322q-12 -158 -93.5 -271.5t-225 -173.5t-336.5 -60t-333 54t-214 155.5t-74 243.5q0 105 60.5 192t177.5 144l166 83q56 28 81.5 59.5t25.5 78.5v48h289q10 -34 10 -76q0 -92 -51 -160z" />
    <glyph glyph-name="Agrave" unicode="&#xc0;" horiz-adv-x="1856" 
d="M1848 0h-362l-142 316h-832l-142 -316h-362l701 1500h438zM928 1239l-291 -647h583zM438 1937h386l293 -320h-342z" />
    <glyph glyph-name="Aacute" unicode="&#xc1;" horiz-adv-x="1856" 
d="M1848 0h-362l-142 316h-832l-142 -316h-362l701 1500h438zM928 1239l-291 -647h583zM713 1617l293 320h386l-337 -320h-342z" />
    <glyph glyph-name="Acircumflex" unicode="&#xc2;" horiz-adv-x="1856" 
d="M1848 0h-362l-142 316h-832l-142 -316h-362l701 1500h438zM928 1239l-291 -647h583zM1108 1937l300 -320h-286l-194 150l-195 -150h-285l299 320h361z" />
    <glyph glyph-name="Atilde" unicode="&#xc3;" horiz-adv-x="1856" 
d="M1848 0h-362l-142 316h-832l-142 -316h-362l701 1500h438zM928 1239l-291 -647h583zM418 1629q18 149 97 232t220 83q53 0 104 -15.5t120 -43.5q53 -22 86.5 -32.5t62.5 -10.5q44 0 71.5 24.5t34.5 69.5h223q-19 -150 -97.5 -233t-218.5 -83q-54 0 -106 15.5t-119 44.5
q-59 23 -90 33t-59 10q-44 0 -71.5 -24.5t-34.5 -69.5h-223z" />
    <glyph glyph-name="Adieresis" unicode="&#xc4;" horiz-adv-x="1856" 
d="M1848 0h-362l-142 316h-832l-142 -316h-362l701 1500h438zM928 1239l-291 -647h583zM486.5 1675.5q-52.5 45.5 -52.5 122.5q0 75 52.5 119t139.5 44t139.5 -44t52.5 -119q0 -77 -52.5 -122.5t-139.5 -45.5t-139.5 45.5zM1091.5 1675.5q-52.5 45.5 -52.5 122.5
q0 75 52.5 119t139.5 44t139.5 -44t52.5 -119q0 -77 -52.5 -122.5t-139.5 -45.5t-139.5 45.5z" />
    <glyph glyph-name="Aring" unicode="&#xc5;" horiz-adv-x="1856" 
d="M1848 0h-362l-142 316h-832l-142 -316h-362l701 1500h438zM928 1239l-291 -647h583zM733.5 1616q-81.5 30 -124 86.5t-42.5 134.5q0 119 95 186t266 67t266.5 -67t95.5 -186q0 -78 -43 -134.5t-124.5 -86.5t-194.5 -30t-194.5 30zM1055.5 1765q42.5 25 42.5 72
q0 99 -170 99q-169 0 -169 -99q0 -47 42 -72t127 -25t127.5 25z" />
    <glyph glyph-name="AE" unicode="&#xc6;" horiz-adv-x="2507" 
d="M1501 620l140 -338h793v-282h-1030l-126 316h-770l-132 -316h-362l650 1500h1710v-282h-1112l138 -338h921v-260h-820zM901 1260l-278 -668h545z" />
    <glyph glyph-name="Ccedilla" unicode="&#xc7;" horiz-adv-x="1846" 
d="M1275.5 357q130.5 90 161.5 254h341q-21 -182 -123.5 -323t-271 -223.5t-382.5 -93.5l-38 -63q50 10 100 10q127 0 198 -50.5t71 -138.5q0 -64 -41.5 -112.5t-121.5 -76t-192 -27.5q-151 0 -254.5 55.5t-132.5 152.5h227q40 -59 160 -59q66 0 100.5 20.5t34.5 52.5
q0 30 -29.5 47.5t-83.5 17.5q-72 0 -122 -20h-176l126 195q-224 21 -392.5 123.5t-260.5 270.5t-92 381q0 231 107 408t301.5 274.5t449.5 97.5q230 0 412 -80t293 -225.5t133 -335.5h-341q-21 106 -86.5 183.5t-170.5 119t-241 41.5q-157 0 -272.5 -59t-178 -168
t-62.5 -256t62.5 -256t178 -168t272.5 -59q206 0 336.5 90z" />
    <glyph glyph-name="Egrave" unicode="&#xc8;" horiz-adv-x="1560" 
d="M528 620l-54 -338h982v-282h-1351l117 750l-117 750h1341v-282h-972l54 -338h866v-260h-866zM297 1937h386l293 -320h-342z" />
    <glyph glyph-name="Eacute" unicode="&#xc9;" horiz-adv-x="1560" 
d="M528 620l-54 -338h982v-282h-1351l117 750l-117 750h1341v-282h-972l54 -338h866v-260h-866zM572 1617l293 320h386l-337 -320h-342z" />
    <glyph glyph-name="Ecircumflex" unicode="&#xca;" horiz-adv-x="1560" 
d="M528 620l-54 -338h982v-282h-1351l117 750l-117 750h1341v-282h-972l54 -338h866v-260h-866zM967 1937l300 -320h-286l-194 150l-195 -150h-285l299 320h361z" />
    <glyph glyph-name="Edieresis" unicode="&#xcb;" horiz-adv-x="1560" 
d="M528 620l-54 -338h982v-282h-1351l117 750l-117 750h1341v-282h-972l54 -338h866v-260h-866zM344.5 1675.5q-52.5 45.5 -52.5 122.5q0 75 52.5 119t139.5 44t139.5 -44t52.5 -119q0 -77 -52.5 -122.5t-139.5 -45.5t-139.5 45.5zM949.5 1675.5q-52.5 45.5 -52.5 122.5
q0 75 52.5 119t139.5 44t139.5 -44t52.5 -119q0 -77 -52.5 -122.5t-139.5 -45.5t-139.5 45.5z" />
    <glyph glyph-name="Igrave" unicode="&#xcc;" horiz-adv-x="647" 
d="M154 0v1500h339v-1500h-339zM-167 1937h386l293 -320h-342z" />
    <glyph glyph-name="Iacute" unicode="&#xcd;" horiz-adv-x="647" 
d="M154 0v1500h339v-1500h-339zM108 1617l293 320h386l-337 -320h-342z" />
    <glyph glyph-name="Icircumflex" unicode="&#xce;" horiz-adv-x="647" 
d="M474 1617l-151 160l-151 -160h-245l222 320h349l222 -320h-246zM493 0h-339v1500h339v-1500z" />
    <glyph glyph-name="Idieresis" unicode="&#xcf;" horiz-adv-x="647" 
d="M-3.5 1674.5q-43.5 44.5 -43.5 121.5t43.5 121t119.5 44q75 0 118.5 -44t43.5 -121t-43.5 -121.5t-118.5 -44.5q-76 0 -119.5 44.5zM413.5 1674.5q-43.5 44.5 -43.5 121.5t43 121t118 44q76 0 119.5 -44t43.5 -121t-43.5 -121.5t-119.5 -44.5q-74 0 -117.5 44.5zM154 0
v1500h339v-1500h-339z" />
    <glyph glyph-name="Eth" unicode="&#xd0;" horiz-adv-x="1880" 
d="M925 1500q259 0 457 -93.5t307.5 -263.5t109.5 -393t-109.5 -393t-307.5 -263.5t-457 -93.5h-713v633h-159v238h159v629h713zM950 300q152 0 266.5 55.5t177 157.5t62.5 237t-62.5 237t-177 157.5t-266.5 55.5h-400v-329h377v-238h-377v-333h400z" />
    <glyph glyph-name="Ntilde" unicode="&#xd1;" horiz-adv-x="1909" 
d="M1426 383v1117h329v-1500h-429l-843 1137v-1137h-329v1500h440zM470 1629q18 149 97 232t220 83q53 0 104 -15.5t120 -43.5q53 -22 86.5 -32.5t62.5 -10.5q44 0 71.5 24.5t34.5 69.5h223q-19 -150 -97.5 -233t-218.5 -83q-54 0 -106 15.5t-119 44.5q-59 23 -90 33t-59 10
q-44 0 -71.5 -24.5t-34.5 -69.5h-223z" />
    <glyph glyph-name="Ograve" unicode="&#xd2;" horiz-adv-x="1913" 
d="M499 67.5q-199 97.5 -308.5 274.5t-109.5 408t109.5 408t308.5 274.5t457 97.5q259 0 457.5 -97.5t308.5 -274.5t110 -408t-110 -408t-308.5 -274.5t-457.5 -97.5q-258 0 -457 97.5zM1238.5 331q120.5 58 185 165.5t64.5 253.5t-64.5 253.5t-185 165.5t-282.5 58
t-282 -58t-185 -165.5t-65 -253.5t65 -253.5t185 -165.5t282 -58t282.5 58zM466 1937h386l293 -320h-342z" />
    <glyph glyph-name="Oacute" unicode="&#xd3;" horiz-adv-x="1913" 
d="M499 67.5q-199 97.5 -308.5 274.5t-109.5 408t109.5 408t308.5 274.5t457 97.5q259 0 457.5 -97.5t308.5 -274.5t110 -408t-110 -408t-308.5 -274.5t-457.5 -97.5q-258 0 -457 97.5zM1238.5 331q120.5 58 185 165.5t64.5 253.5t-64.5 253.5t-185 165.5t-282.5 58
t-282 -58t-185 -165.5t-65 -253.5t65 -253.5t185 -165.5t282 -58t282.5 58zM741 1617l293 320h386l-337 -320h-342z" />
    <glyph glyph-name="Ocircumflex" unicode="&#xd4;" horiz-adv-x="1913" 
d="M499 67.5q-199 97.5 -308.5 274.5t-109.5 408t109.5 408t308.5 274.5t457 97.5q259 0 457.5 -97.5t308.5 -274.5t110 -408t-110 -408t-308.5 -274.5t-457.5 -97.5q-258 0 -457 97.5zM1238.5 331q120.5 58 185 165.5t64.5 253.5t-64.5 253.5t-185 165.5t-282.5 58
t-282 -58t-185 -165.5t-65 -253.5t65 -253.5t185 -165.5t282 -58t282.5 58zM1136 1937l300 -320h-286l-194 150l-195 -150h-285l299 320h361z" />
    <glyph glyph-name="Otilde" unicode="&#xd5;" horiz-adv-x="1913" 
d="M499 67.5q-199 97.5 -308.5 274.5t-109.5 408t109.5 408t308.5 274.5t457 97.5q259 0 457.5 -97.5t308.5 -274.5t110 -408t-110 -408t-308.5 -274.5t-457.5 -97.5q-258 0 -457 97.5zM1238.5 331q120.5 58 185 165.5t64.5 253.5t-64.5 253.5t-185 165.5t-282.5 58
t-282 -58t-185 -165.5t-65 -253.5t65 -253.5t185 -165.5t282 -58t282.5 58zM446 1629q18 149 97 232t220 83q53 0 104 -15.5t120 -43.5q53 -22 86.5 -32.5t62.5 -10.5q44 0 71.5 24.5t34.5 69.5h223q-19 -150 -97.5 -233t-218.5 -83q-54 0 -106 15.5t-119 44.5
q-59 23 -90 33t-59 10q-44 0 -71.5 -24.5t-34.5 -69.5h-223z" />
    <glyph glyph-name="Odieresis" unicode="&#xd6;" horiz-adv-x="1913" 
d="M499 67.5q-199 97.5 -308.5 274.5t-109.5 408t109.5 408t308.5 274.5t457 97.5q259 0 457.5 -97.5t308.5 -274.5t110 -408t-110 -408t-308.5 -274.5t-457.5 -97.5q-258 0 -457 97.5zM1238.5 331q120.5 58 185 165.5t64.5 253.5t-64.5 253.5t-185 165.5t-282.5 58
t-282 -58t-185 -165.5t-65 -253.5t65 -253.5t185 -165.5t282 -58t282.5 58zM513.5 1675.5q-52.5 45.5 -52.5 122.5q0 75 52.5 119t139.5 44t139.5 -44t52.5 -119q0 -77 -52.5 -122.5t-139.5 -45.5t-139.5 45.5zM1118.5 1675.5q-52.5 45.5 -52.5 122.5q0 75 52.5 119
t139.5 44t139.5 -44t52.5 -119q0 -77 -52.5 -122.5t-139.5 -45.5t-139.5 45.5z" />
    <glyph glyph-name="multiply" unicode="&#xd7;" horiz-adv-x="1240" 
d="M929 1178l176 -175l-308 -308l308 -309l-176 -175l-308 308l-308 -308l-176 175l309 309l-309 308l176 175l308 -308z" />
    <glyph glyph-name="Oslash" unicode="&#xd8;" horiz-adv-x="1911" 
d="M1595 1305q113 -104 174.5 -245.5t61.5 -309.5q0 -231 -110 -408t-308.5 -274.5t-457.5 -97.5q-244 0 -437 88l-78 -90h-319l193 224q-112 103 -172.5 245.5t-60.5 312.5q0 231 109.5 408t307.5 274.5t457 97.5q243 0 437 -91l80 93h319zM445 575q27 -80 79 -141l662 767
q-105 37 -231 37q-163 0 -284.5 -59.5t-187 -169.5t-65.5 -259q0 -95 27 -175zM1240.5 321.5q121.5 59.5 187 169.5t65.5 259q0 95 -27 174.5t-78 140.5l-663 -767q106 -36 230 -36q164 0 285.5 59.5z" />
    <glyph glyph-name="Ugrave" unicode="&#xd9;" horiz-adv-x="1740" 
d="M473 657q0 -118 46.5 -204.5t136 -133t214.5 -46.5q126 0 215 46.5t135 132.5t46 205v843h340v-858q0 -199 -92 -351.5t-259 -236.5t-385 -84t-385 84t-259 236.5t-92 351.5v858h339v-843zM379 1937h386l293 -320h-342z" />
    <glyph glyph-name="Uacute" unicode="&#xda;" horiz-adv-x="1740" 
d="M473 657q0 -118 46.5 -204.5t136 -133t214.5 -46.5q126 0 215 46.5t135 132.5t46 205v843h340v-858q0 -199 -92 -351.5t-259 -236.5t-385 -84t-385 84t-259 236.5t-92 351.5v858h339v-843zM654 1617l293 320h386l-337 -320h-342z" />
    <glyph glyph-name="Ucircumflex" unicode="&#xdb;" horiz-adv-x="1740" 
d="M473 657q0 -118 46.5 -204.5t136 -133t214.5 -46.5q126 0 215 46.5t135 132.5t46 205v843h340v-858q0 -199 -92 -351.5t-259 -236.5t-385 -84t-385 84t-259 236.5t-92 351.5v858h339v-843zM1049 1937l300 -320h-286l-194 150l-195 -150h-285l299 320h361z" />
    <glyph glyph-name="Udieresis" unicode="&#xdc;" horiz-adv-x="1740" 
d="M473 657q0 -118 46.5 -204.5t136 -133t214.5 -46.5q126 0 215 46.5t135 132.5t46 205v843h340v-858q0 -199 -92 -351.5t-259 -236.5t-385 -84t-385 84t-259 236.5t-92 351.5v858h339v-843zM427.5 1675.5q-52.5 45.5 -52.5 122.5q0 75 52.5 119t139.5 44t139.5 -44
t52.5 -119q0 -77 -52.5 -122.5t-139.5 -45.5t-139.5 45.5zM1032.5 1675.5q-52.5 45.5 -52.5 122.5q0 75 52.5 119t139.5 44t139.5 -44t52.5 -119q0 -77 -52.5 -122.5t-139.5 -45.5t-139.5 45.5z" />
    <glyph glyph-name="Yacute" unicode="&#xdd;" horiz-adv-x="1794" 
d="M1392 1500h379l-703 -888v-612h-340v608l-706 892h379l496 -626zM682 1617l293 320h386l-337 -320h-342z" />
    <glyph glyph-name="Thorn" unicode="&#xde;" horiz-adv-x="1623" 
d="M972 1255q176 0 306.5 -61.5t200.5 -173.5t70 -261q0 -148 -70 -260t-200.5 -173.5t-306.5 -61.5h-479v-264h-339v1500h339v-245h479zM953 542q118 0 185 58t67 159t-67 159.5t-185 58.5h-460v-435h460z" />
    <glyph glyph-name="germandbls" unicode="&#xdf;" horiz-adv-x="1728" 
d="M1544 707q123 -106 123 -279q0 -136 -71.5 -239.5t-208 -161t-325.5 -57.5q-126 0 -236.5 19t-232.5 60v262q127 -49 225 -70t192 -21q160 0 239.5 58t79.5 163q0 109 -95.5 171t-315.5 62h-142v236h89q129 0 199.5 52.5t70.5 140.5q0 65 -38 113.5t-108.5 74
t-165.5 25.5q-113 0 -195 -39t-125.5 -112t-43.5 -172v-993h-334v963q0 182 87 319.5t249 212.5t380 75q202 0 341 -51t208.5 -140.5t69.5 -205.5q0 -120 -72.5 -206.5t-210.5 -129.5q244 -24 367 -130z" />
    <glyph glyph-name="agrave" unicode="&#xe0;" horiz-adv-x="1613" 
d="M1515 1137l-66 -568l66 -569h-346l-30 256q-85 -136 -214.5 -211t-287.5 -75q-165 0 -294 75t-200.5 211t-71.5 312q0 177 71.5 313.5t200 211.5t294.5 75q158 0 287.5 -74.5t215.5 -210.5l29 254h346zM906 273q84 43 147.5 119.5t99.5 175.5q-36 99 -99.5 176
t-147.5 120.5t-177 43.5q-92 0 -164.5 -43.5t-113.5 -121t-41 -175.5t41 -175t113.5 -120t164.5 -43q93 0 177 43zM399 1615h329l247 -361h-314z" />
    <glyph glyph-name="aacute" unicode="&#xe1;" horiz-adv-x="1613" 
d="M1515 1137l-66 -568l66 -569h-346l-30 256q-85 -136 -214.5 -211t-287.5 -75q-165 0 -294 75t-200.5 211t-71.5 312q0 177 71.5 313.5t200 211.5t294.5 75q158 0 287.5 -74.5t215.5 -210.5l29 254h346zM906 273q84 43 147.5 119.5t99.5 175.5q-36 99 -99.5 176
t-147.5 120.5t-177 43.5q-92 0 -164.5 -43.5t-113.5 -121t-41 -175.5t41 -175t113.5 -120t164.5 -43q93 0 177 43zM609 1254l248 361h328l-262 -361h-314z" />
    <glyph glyph-name="acircumflex" unicode="&#xe2;" horiz-adv-x="1613" 
d="M1515 1137l-66 -568l66 -569h-346l-30 256q-85 -136 -214.5 -211t-287.5 -75q-165 0 -294 75t-200.5 211t-71.5 312q0 177 71.5 313.5t200 211.5t294.5 75q158 0 287.5 -74.5t215.5 -210.5l29 254h346zM906 273q84 43 147.5 119.5t99.5 175.5q-36 99 -99.5 176
t-147.5 120.5t-177 43.5q-92 0 -164.5 -43.5t-113.5 -121t-41 -175.5t41 -175t113.5 -120t164.5 -43q93 0 177 43zM972 1615l286 -361h-272l-188 192l-187 -192h-274l286 361h349z" />
    <glyph glyph-name="atilde" unicode="&#xe3;" horiz-adv-x="1613" 
d="M1515 1137l-66 -568l66 -569h-346l-30 256q-85 -136 -214.5 -211t-287.5 -75q-165 0 -294 75t-200.5 211t-71.5 312q0 177 71.5 313.5t200 211.5t294.5 75q158 0 287.5 -74.5t215.5 -210.5l29 254h346zM906 273q84 43 147.5 119.5t99.5 175.5q-36 99 -99.5 176
t-147.5 120.5t-177 43.5q-92 0 -164.5 -43.5t-113.5 -121t-41 -175.5t41 -175t113.5 -120t164.5 -43q93 0 177 43zM320 1274q9 163 79.5 254t199.5 91q53 0 104 -17t115 -48q49 -23 80.5 -34t57.5 -11q42 0 70.5 28.5t36.5 79.5h212q-9 -160 -78.5 -252.5t-200.5 -92.5
q-53 0 -101 16.5t-119 48.5q-48 23 -78.5 34t-56.5 11q-43 0 -72 -28.5t-37 -79.5h-212z" />
    <glyph glyph-name="adieresis" unicode="&#xe4;" horiz-adv-x="1613" 
d="M1515 1137l-66 -568l66 -569h-346l-30 256q-85 -136 -214.5 -211t-287.5 -75q-165 0 -294 75t-200.5 211t-71.5 312q0 177 71.5 313.5t200 211.5t294.5 75q158 0 287.5 -74.5t215.5 -210.5l29 254h346zM906 273q84 43 147.5 119.5t99.5 175.5q-36 99 -99.5 176
t-147.5 120.5t-177 43.5q-92 0 -164.5 -43.5t-113.5 -121t-41 -175.5t41 -175t113.5 -120t164.5 -43q93 0 177 43zM359.5 1313q-52.5 45 -52.5 122q0 74 53 119t139 45t139 -45t53 -119q0 -77 -52.5 -122t-139.5 -45t-139.5 45zM958.5 1313q-52.5 45 -52.5 122q0 74 53 119
t139 45t138 -45t52 -119q0 -77 -52 -122t-138 -45q-87 0 -139.5 45z" />
    <glyph glyph-name="aring" unicode="&#xe5;" horiz-adv-x="1613" 
d="M1515 1137l-66 -568l66 -569h-346l-30 256q-85 -136 -214.5 -211t-287.5 -75q-165 0 -294 75t-200.5 211t-71.5 312q0 177 71.5 313.5t200 211.5t294.5 75q158 0 287.5 -74.5t215.5 -210.5l29 254h346zM906 273q84 43 147.5 119.5t99.5 175.5q-36 99 -99.5 176
t-147.5 120.5t-177 43.5q-92 0 -164.5 -43.5t-113.5 -121t-41 -175.5t41 -175t113.5 -120t164.5 -43q93 0 177 43zM611.5 1265.5q-78.5 31.5 -120.5 90.5t-42 139t42 139t120.5 90.5t186.5 31.5q107 0 185.5 -31.5t120 -90.5t41.5 -139t-41.5 -139t-120 -90.5t-185.5 -31.5
q-108 0 -186.5 31.5zM911.5 1410q40.5 30 40.5 85t-40.5 85.5t-113.5 30.5t-114 -30.5t-41 -85.5t40.5 -85t114.5 -30q73 0 113.5 30z" />
    <glyph glyph-name="ae" unicode="&#xe6;" horiz-adv-x="2516" 
d="M2174.5 1080.5q136.5 -87.5 206 -242.5t63.5 -355h-941q33 -125 144.5 -193t295.5 -68q125 0 244.5 33t225.5 99v-218q-111 -80 -235 -123t-273 -43q-162 0 -293 53t-218 149l-8 -172h-245l-15 236q-86 -127 -211.5 -196.5t-277.5 -69.5q-165 0 -294 75t-200.5 211
t-71.5 312q0 177 71.5 313.5t200 211.5t294.5 75q152 0 277.5 -69t212.5 -195l14 233h245l7 -154q80 89 196 137t260 48q189 0 325.5 -87.5zM1607.5 864.5q-86.5 -66.5 -110.5 -184.5h648q-28 120 -110 185.5t-215 65.5q-126 0 -212.5 -66.5zM906 273q84 43 147.5 119.5
t99.5 175.5q-36 99 -99.5 176t-147.5 120.5t-177 43.5q-92 0 -164.5 -43.5t-113.5 -121t-41 -175.5t41 -175t113.5 -120t164.5 -43q93 0 177 43z" />
    <glyph glyph-name="ccedilla" unicode="&#xe7;" horiz-adv-x="1486" 
d="M913.5 252.5q72.5 29.5 120 84.5t63.5 127h334q-17 -136 -99 -243t-213.5 -171.5t-294.5 -76.5l-44 -67q48 10 95 10q129 0 196 -50t67 -140q0 -61 -40 -109t-117 -76t-184 -28q-97 0 -176 26.5t-131.5 73.5t-73.5 109h214q44 -63 167 -63q64 0 98 19.5t34 54.5
q0 31 -28.5 50.5t-86.5 19.5q-64 0 -112 -25h-180l127 198q-174 19 -305.5 98t-204 206.5t-72.5 287.5q0 176 86.5 312t242.5 212t357 76q179 0 327 -62t240.5 -175t110.5 -259h-334q-25 114 -117.5 178t-226.5 64q-106 0 -184.5 -41t-121 -119t-42.5 -186q0 -107 42.5 -185
t121 -119t184.5 -41q88 0 160.5 29.5z" />
    <glyph glyph-name="egrave" unicode="&#xe8;" horiz-adv-x="1444" 
d="M425 464q38 -116 148 -179t279 -63q129 0 259 37t233 104v-224q-113 -80 -262.5 -124.5t-312.5 -44.5q-202 0 -362 75.5t-250 212t-90 314.5q0 175 86 310.5t239 210.5t346 75q194 0 338 -86.5t221.5 -246t77.5 -371.5h-950zM527.5 858.5q-85.5 -63.5 -112.5 -172.5h635
q-29 113 -109.5 174.5t-200.5 61.5q-127 0 -212.5 -63.5zM335 1615h329l247 -361h-314z" />
    <glyph glyph-name="eacute" unicode="&#xe9;" horiz-adv-x="1444" 
d="M425 464q38 -116 148 -179t279 -63q129 0 259 37t233 104v-224q-113 -80 -262.5 -124.5t-312.5 -44.5q-202 0 -362 75.5t-250 212t-90 314.5q0 175 86 310.5t239 210.5t346 75q194 0 338 -86.5t221.5 -246t77.5 -371.5h-950zM527.5 858.5q-85.5 -63.5 -112.5 -172.5h635
q-29 113 -109.5 174.5t-200.5 61.5q-127 0 -212.5 -63.5zM546 1254l248 361h328l-262 -361h-314z" />
    <glyph glyph-name="ecircumflex" unicode="&#xea;" horiz-adv-x="1444" 
d="M425 464q38 -116 148 -179t279 -63q129 0 259 37t233 104v-224q-113 -80 -262.5 -124.5t-312.5 -44.5q-202 0 -362 75.5t-250 212t-90 314.5q0 175 86 310.5t239 210.5t346 75q194 0 338 -86.5t221.5 -246t77.5 -371.5h-950zM527.5 858.5q-85.5 -63.5 -112.5 -172.5h635
q-29 113 -109.5 174.5t-200.5 61.5q-127 0 -212.5 -63.5zM909 1615l286 -361h-272l-188 192l-187 -192h-274l286 361h349z" />
    <glyph glyph-name="edieresis" unicode="&#xeb;" horiz-adv-x="1444" 
d="M425 464q38 -116 148 -179t279 -63q129 0 259 37t233 104v-224q-113 -80 -262.5 -124.5t-312.5 -44.5q-202 0 -362 75.5t-250 212t-90 314.5q0 175 86 310.5t239 210.5t346 75q194 0 338 -86.5t221.5 -246t77.5 -371.5h-950zM527.5 858.5q-85.5 -63.5 -112.5 -172.5h635
q-29 113 -109.5 174.5t-200.5 61.5q-127 0 -212.5 -63.5zM295.5 1313q-52.5 45 -52.5 122q0 74 53 119t139 45t139 -45t53 -119q0 -77 -52.5 -122t-139.5 -45t-139.5 45zM894.5 1313q-52.5 45 -52.5 122q0 74 53 119t139 45t138 -45t52 -119q0 -77 -52 -122t-138 -45
q-87 0 -139.5 45z" />
    <glyph glyph-name="igrave" unicode="&#xec;" horiz-adv-x="585" 
d="M125 0v1150l168 -32l167 32v-1150h-335zM-107 1615h329l247 -361h-314z" />
    <glyph glyph-name="iacute" unicode="&#xed;" horiz-adv-x="585" 
d="M125 0v1150l168 -32l167 32v-1150h-335zM104 1254l248 361h328l-262 -361h-314z" />
    <glyph glyph-name="icircumflex" unicode="&#xee;" horiz-adv-x="585" 
d="M424 1254l-133 196l-132 -196h-234l191 361h350l193 -361h-235zM125 0v1150l168 -32l167 32v-1150h-335z" />
    <glyph glyph-name="idieresis" unicode="&#xef;" horiz-adv-x="585" 
d="M-8 1314q-42 46 -42 127q0 80 42.5 126.5t115.5 46.5t115 -46.5t42 -126.5q0 -81 -42 -127t-115 -46q-74 0 -116 46zM377 1314q-43 46 -43 127q0 80 43 126.5t116 46.5q72 0 114.5 -46.5t42.5 -126.5q0 -81 -42.5 -127t-114.5 -46q-73 0 -116 46zM125 0v1150l168 -32
l167 32v-1150h-335z" />
    <glyph glyph-name="eth" unicode="&#xf0;" horiz-adv-x="1553" 
d="M1217 1246q134 -159 198.5 -321.5t64.5 -335.5q0 -179 -82.5 -319.5t-240 -220t-374.5 -79.5q-214 0 -377 68t-252 191t-89 284q0 154 83.5 273t233.5 184.5t343 65.5q225 0 377 -103q-73 130 -184 255l-405 -78v181l253 49q-110 96 -235 180l333 50q119 -89 206 -172
l330 64v-181zM975.5 257.5q84.5 34.5 129.5 99t45 151.5q0 86 -45.5 150.5t-130 99.5t-198.5 35q-115 0 -199 -34.5t-129 -98.5t-45 -152q0 -87 45 -151.5t129.5 -99t198.5 -34.5q115 0 199.5 34.5z" />
    <glyph glyph-name="ntilde" unicode="&#xf1;" horiz-adv-x="1532" 
d="M1187.5 1103.5q114.5 -64.5 174.5 -185t60 -285.5v-633h-334v582q0 152 -74.5 232t-214.5 80q-98 0 -170.5 -42.5t-112 -120t-39.5 -180.5v-551h-334v755l-72 382h335l42 -255q71 138 192.5 212t271.5 74q161 0 275.5 -64.5zM305 1274q9 163 79.5 254t199.5 91
q53 0 104 -17t115 -48q49 -23 80.5 -34t57.5 -11q42 0 70.5 28.5t36.5 79.5h212q-9 -160 -78.5 -252.5t-200.5 -92.5q-53 0 -101 16.5t-119 48.5q-48 23 -78.5 34t-56.5 11q-43 0 -72 -28.5t-37 -79.5h-212z" />
    <glyph glyph-name="ograve" unicode="&#xf2;" horiz-adv-x="1556" 
d="M406.5 45q-161.5 75 -250.5 210.5t-89 312.5q0 178 89 314t250.5 211t371.5 75t371.5 -75t250.5 -211t89 -314q0 -177 -89 -312.5t-250.5 -210.5t-371.5 -75t-371.5 75zM976.5 265q83.5 42 128.5 119.5t45 183.5t-45 184t-129 120t-198 42q-115 0 -199 -42t-129 -120
t-45 -184t45 -183.5t129 -119.5t199 -42t198.5 42zM379 1615h329l247 -361h-314z" />
    <glyph glyph-name="oacute" unicode="&#xf3;" horiz-adv-x="1556" 
d="M406.5 45q-161.5 75 -250.5 210.5t-89 312.5q0 178 89 314t250.5 211t371.5 75t371.5 -75t250.5 -211t89 -314q0 -177 -89 -312.5t-250.5 -210.5t-371.5 -75t-371.5 75zM976.5 265q83.5 42 128.5 119.5t45 183.5t-45 184t-129 120t-198 42q-115 0 -199 -42t-129 -120
t-45 -184t45 -183.5t129 -119.5t199 -42t198.5 42zM589 1254l248 361h328l-262 -361h-314z" />
    <glyph glyph-name="ocircumflex" unicode="&#xf4;" horiz-adv-x="1556" 
d="M406.5 45q-161.5 75 -250.5 210.5t-89 312.5q0 178 89 314t250.5 211t371.5 75t371.5 -75t250.5 -211t89 -314q0 -177 -89 -312.5t-250.5 -210.5t-371.5 -75t-371.5 75zM976.5 265q83.5 42 128.5 119.5t45 183.5t-45 184t-129 120t-198 42q-115 0 -199 -42t-129 -120
t-45 -184t45 -183.5t129 -119.5t199 -42t198.5 42zM952 1615l286 -361h-272l-188 192l-187 -192h-274l286 361h349z" />
    <glyph glyph-name="otilde" unicode="&#xf5;" horiz-adv-x="1556" 
d="M406.5 45q-161.5 75 -250.5 210.5t-89 312.5q0 178 89 314t250.5 211t371.5 75t371.5 -75t250.5 -211t89 -314q0 -177 -89 -312.5t-250.5 -210.5t-371.5 -75t-371.5 75zM976.5 265q83.5 42 128.5 119.5t45 183.5t-45 184t-129 120t-198 42q-115 0 -199 -42t-129 -120
t-45 -184t45 -183.5t129 -119.5t199 -42t198.5 42zM300 1274q9 163 79.5 254t199.5 91q53 0 104 -17t115 -48q49 -23 80.5 -34t57.5 -11q42 0 70.5 28.5t36.5 79.5h212q-9 -160 -78.5 -252.5t-200.5 -92.5q-53 0 -101 16.5t-119 48.5q-48 23 -78.5 34t-56.5 11
q-43 0 -72 -28.5t-37 -79.5h-212z" />
    <glyph glyph-name="odieresis" unicode="&#xf6;" horiz-adv-x="1556" 
d="M406.5 45q-161.5 75 -250.5 210.5t-89 312.5q0 178 89 314t250.5 211t371.5 75t371.5 -75t250.5 -211t89 -314q0 -177 -89 -312.5t-250.5 -210.5t-371.5 -75t-371.5 75zM976.5 265q83.5 42 128.5 119.5t45 183.5t-45 184t-129 120t-198 42q-115 0 -199 -42t-129 -120
t-45 -184t45 -183.5t129 -119.5t199 -42t198.5 42zM339.5 1313q-52.5 45 -52.5 122q0 74 53 119t139 45t139 -45t53 -119q0 -77 -52.5 -122t-139.5 -45t-139.5 45zM938.5 1313q-52.5 45 -52.5 122q0 74 53 119t139 45t138 -45t52 -119q0 -77 -52 -122t-138 -45
q-87 0 -139.5 45z" />
    <glyph glyph-name="divide" unicode="&#xf7;" horiz-adv-x="1240" 
d="M482.5 1000.5q-45.5 44.5 -45.5 114.5q0 69 45.5 113t117.5 44t117.5 -44t45.5 -113q0 -70 -45.5 -114.5t-117.5 -44.5t-117.5 44.5zM60 584v248h1120v-248h-1120zM482.5 188.5q-45.5 44.5 -45.5 114.5q0 69 45.5 113t117.5 44t117.5 -44t45.5 -113q0 -70 -45.5 -114.5
t-117.5 -44.5t-117.5 44.5z" />
    <glyph glyph-name="oslash" unicode="&#xf8;" horiz-adv-x="1556" 
d="M1299 997q92 -80 141 -189t49 -240q0 -177 -89 -312.5t-250.5 -210.5t-371.5 -75q-175 0 -317 52l-68 -79h-306l170 198q-92 79 -141 188t-49 239q0 178 89 314t250.5 211t371.5 75q175 0 317 -52l68 79h306zM444 358l480 559q-68 20 -146 20q-119 0 -207.5 -45
t-135.5 -128t-47 -196q0 -121 56 -210zM985.5 245q87.5 45 134.5 128t47 195q0 125 -56 211l-480 -559q68 -20 147 -20q120 0 207.5 45z" />
    <glyph glyph-name="ugrave" unicode="&#xf9;" horiz-adv-x="1509" 
d="M1436 0h-334l-41 253q-71 -136 -189 -209.5t-264 -73.5q-156 0 -268 64.5t-171 185t-59 285.5v632h334v-583q0 -151 71.5 -230.5t205.5 -79.5q96 0 166 41.5t107.5 119t37.5 182.5v550h334v-756zM349 1615h329l247 -361h-314z" />
    <glyph glyph-name="uacute" unicode="&#xfa;" horiz-adv-x="1509" 
d="M1436 0h-334l-41 253q-71 -136 -189 -209.5t-264 -73.5q-156 0 -268 64.5t-171 185t-59 285.5v632h334v-583q0 -151 71.5 -230.5t205.5 -79.5q96 0 166 41.5t107.5 119t37.5 182.5v550h334v-756zM559 1254l248 361h328l-262 -361h-314z" />
    <glyph glyph-name="ucircumflex" unicode="&#xfb;" horiz-adv-x="1509" 
d="M1436 0h-334l-41 253q-71 -136 -189 -209.5t-264 -73.5q-156 0 -268 64.5t-171 185t-59 285.5v632h334v-583q0 -151 71.5 -230.5t205.5 -79.5q96 0 166 41.5t107.5 119t37.5 182.5v550h334v-756zM922 1615l286 -361h-272l-188 192l-187 -192h-274l286 361h349z" />
    <glyph glyph-name="udieresis" unicode="&#xfc;" horiz-adv-x="1509" 
d="M1436 0h-334l-41 253q-71 -136 -189 -209.5t-264 -73.5q-156 0 -268 64.5t-171 185t-59 285.5v632h334v-583q0 -151 71.5 -230.5t205.5 -79.5q96 0 166 41.5t107.5 119t37.5 182.5v550h334v-756zM309.5 1313q-52.5 45 -52.5 122q0 74 53 119t139 45t139 -45t53 -119
q0 -77 -52.5 -122t-139.5 -45t-139.5 45zM908.5 1313q-52.5 45 -52.5 122q0 74 53 119t139 45t138 -45t52 -119q0 -77 -52 -122t-138 -45q-87 0 -139.5 45z" />
    <glyph glyph-name="yacute" unicode="&#xfd;" horiz-adv-x="1492" 
d="M1129 1137h355l-567 -1188q-76 -162 -197 -235.5t-271 -73.5q-111 0 -201 27t-172 83v241q87 -55 162 -78.5t166 -23.5q87 0 149.5 38.5t101.5 128.5l7 15h-141l-503 1066h368l369 -853zM575 1254l248 361h328l-262 -361h-314z" />
    <glyph glyph-name="thorn" unicode="&#xfe;" horiz-adv-x="1601" 
d="M1258.5 1093q128.5 -75 200 -211.5t71.5 -313.5q0 -176 -71.5 -312t-200 -211t-293.5 -75q-160 0 -290 76t-215 214v-590h-335v1870h335v-659q86 137 216 212t289 75q165 0 293.5 -75zM1037 273q73 43 114 120t41 175t-41 175.5t-114 121t-165 43.5q-93 0 -176.5 -43.5
t-147.5 -120.5t-100 -176q36 -99 100 -175.5t147.5 -119.5t176.5 -43q92 0 165 43z" />
    <glyph glyph-name="ydieresis" unicode="&#xff;" horiz-adv-x="1492" 
d="M1129 1137h355l-567 -1188q-76 -162 -197 -235.5t-271 -73.5q-111 0 -201 27t-172 83v241q87 -55 162 -78.5t166 -23.5q87 0 149.5 38.5t101.5 128.5l7 15h-141l-503 1066h368l369 -853zM324.5 1313q-52.5 45 -52.5 122q0 74 53 119t139 45t139 -45t53 -119
q0 -77 -52.5 -122t-139.5 -45t-139.5 45zM923.5 1313q-52.5 45 -52.5 122q0 74 53 119t139 45t138 -45t52 -119q0 -77 -52 -122t-138 -45q-87 0 -139.5 45z" />
    <glyph glyph-name="Amacron" unicode="&#x100;" horiz-adv-x="1856" 
d="M1848 0h-362l-142 316h-832l-142 -316h-362l701 1500h438zM928 1239l-291 -647h583zM1388 1666h-919v209h919v-209z" />
    <glyph glyph-name="amacron" unicode="&#x101;" horiz-adv-x="1613" 
d="M1515 1137l-66 -568l66 -569h-346l-30 256q-85 -136 -214.5 -211t-287.5 -75q-165 0 -294 75t-200.5 211t-71.5 312q0 177 71.5 313.5t200 211.5t294.5 75q158 0 287.5 -74.5t215.5 -210.5l29 254h346zM906 273q84 43 147.5 119.5t99.5 175.5q-36 99 -99.5 176
t-147.5 120.5t-177 43.5q-92 0 -164.5 -43.5t-113.5 -121t-41 -175.5t41 -175t113.5 -120t164.5 -43q93 0 177 43zM1257 1318h-919v208h919v-208z" />
    <glyph glyph-name="Abreve" unicode="&#x102;" horiz-adv-x="1856" 
d="M1848 0h-362l-142 316h-832l-142 -316h-362l701 1500h438zM928 1239l-291 -647h583zM718 1943q55 -130 210 -130q78 0 131 33.5t80 96.5h259q-43 -166 -166 -252.5t-304 -86.5t-304.5 86.5t-164.5 252.5h259z" />
    <glyph glyph-name="abreve" unicode="&#x103;" horiz-adv-x="1613" 
d="M1515 1137l-66 -568l66 -569h-346l-30 256q-85 -136 -214.5 -211t-287.5 -75q-165 0 -294 75t-200.5 211t-71.5 312q0 177 71.5 313.5t200 211.5t294.5 75q158 0 287.5 -74.5t215.5 -210.5l29 254h346zM906 273q84 43 147.5 119.5t99.5 175.5q-36 99 -99.5 176
t-147.5 120.5t-177 43.5q-92 0 -164.5 -43.5t-113.5 -121t-41 -175.5t41 -175t113.5 -120t164.5 -43q93 0 177 43zM597 1613q16 -77 69 -120t132 -43q78 0 131.5 43t70.5 120h251q-26 -176 -143.5 -273.5t-309.5 -97.5q-191 0 -309 97.5t-144 273.5h252z" />
    <glyph glyph-name="Aogonek" unicode="&#x104;" horiz-adv-x="1856" 
d="M1637.5 -190q31.5 -15 91.5 -15q64 0 119 13v-191q-28 -10 -85.5 -18t-114.5 -8q-87 0 -153 23.5t-102.5 67t-36.5 101.5q0 136 209 217h-79l-142 316h-832l-142 -316h-362l701 1500h438l701 -1500q-114 -33 -178 -70t-64 -77q0 -28 31.5 -43zM928 1239l-291 -647h583z
" />
    <glyph glyph-name="aogonek" unicode="&#x105;" horiz-adv-x="1613" 
d="M1515 0q-114 -33 -178 -70t-64 -77q0 -29 31 -43.5t91 -14.5q65 0 120 13v-191q-29 -10 -86.5 -18t-113.5 -8q-87 0 -153 23.5t-102.5 67t-36.5 101.5q0 136 208 217h-62l-30 256q-85 -136 -214.5 -211t-287.5 -75q-165 0 -294 75t-200.5 211t-71.5 312q0 177 71.5 313.5
t200 211.5t294.5 75q158 0 287.5 -74.5t215.5 -210.5l29 254h346l-66 -568zM906 273q84 43 147.5 119.5t99.5 175.5q-36 99 -99.5 176t-147.5 120.5t-177 43.5q-92 0 -164.5 -43.5t-113.5 -121t-41 -175.5t41 -175t113.5 -120t164.5 -43q93 0 177 43z" />
    <glyph glyph-name="Cacute" unicode="&#x106;" horiz-adv-x="1846" 
d="M1778 611q-22 -190 -133 -335.5t-293 -225.5t-412 -80q-255 0 -449.5 97.5t-301.5 274.5t-107 408t107 408t301.5 274.5t449.5 97.5q230 0 412 -80t293 -225.5t133 -335.5h-341q-21 106 -86.5 183.5t-170.5 119t-241 41.5q-157 0 -272.5 -59t-178 -168t-62.5 -256
t62.5 -256t178 -168t272.5 -59q206 0 336.5 90t161.5 254h341zM715 1617l293 320h386l-337 -320h-342z" />
    <glyph glyph-name="cacute" unicode="&#x107;" horiz-adv-x="1486" 
d="M1431 464q-18 -146 -110.5 -258t-240.5 -174t-327 -62q-201 0 -357 75.5t-242.5 211t-86.5 311.5t86.5 312t242.5 212t357 76q179 0 327 -62t240.5 -175t110.5 -259h-334q-25 114 -117.5 178t-226.5 64q-106 0 -184.5 -41t-121 -119t-42.5 -186q0 -107 42.5 -185
t121 -119t184.5 -41q88 0 160.5 29.5t120 84.5t63.5 127h334zM568 1254l248 361h328l-262 -361h-314z" />
    <glyph glyph-name="Ccircumflex" unicode="&#x108;" horiz-adv-x="1846" 
d="M1778 611q-22 -190 -133 -335.5t-293 -225.5t-412 -80q-255 0 -449.5 97.5t-301.5 274.5t-107 408t107 408t301.5 274.5t449.5 97.5q230 0 412 -80t293 -225.5t133 -335.5h-341q-21 106 -86.5 183.5t-170.5 119t-241 41.5q-157 0 -272.5 -59t-178 -168t-62.5 -256
t62.5 -256t178 -168t272.5 -59q206 0 336.5 90t161.5 254h341zM1110 1937l300 -320h-286l-194 150l-195 -150h-285l299 320h361z" />
    <glyph glyph-name="ccircumflex" unicode="&#x109;" horiz-adv-x="1486" 
d="M1431 464q-18 -146 -110.5 -258t-240.5 -174t-327 -62q-201 0 -357 75.5t-242.5 211t-86.5 311.5t86.5 312t242.5 212t357 76q179 0 327 -62t240.5 -175t110.5 -259h-334q-25 114 -117.5 178t-226.5 64q-106 0 -184.5 -41t-121 -119t-42.5 -186q0 -107 42.5 -185
t121 -119t184.5 -41q88 0 160.5 29.5t120 84.5t63.5 127h334zM931 1615l286 -361h-272l-188 192l-187 -192h-274l286 361h349z" />
    <glyph glyph-name="Cdotaccent" unicode="&#x10a;" horiz-adv-x="1846" 
d="M1778 611q-22 -190 -133 -335.5t-293 -225.5t-412 -80q-255 0 -449.5 97.5t-301.5 274.5t-107 408t107 408t301.5 274.5t449.5 97.5q230 0 412 -80t293 -225.5t133 -335.5h-341q-21 106 -86.5 183.5t-170.5 119t-241 41.5q-157 0 -272.5 -59t-178 -168t-62.5 -256
t62.5 -256t178 -168t272.5 -59q206 0 336.5 90t161.5 254h341zM823.5 1651.5q-46.5 21.5 -72 61t-25.5 90.5q0 52 25.5 91.5t72 61.5t106.5 22t106.5 -22t72.5 -61.5t26 -91.5q0 -51 -25.5 -90.5t-72.5 -61t-107 -21.5t-106.5 21.5z" />
    <glyph glyph-name="cdotaccent" unicode="&#x10b;" horiz-adv-x="1486" 
d="M1431 464q-18 -146 -110.5 -258t-240.5 -174t-327 -62q-201 0 -357 75.5t-242.5 211t-86.5 311.5t86.5 312t242.5 212t357 76q179 0 327 -62t240.5 -175t110.5 -259h-334q-25 114 -117.5 178t-226.5 64q-106 0 -184.5 -41t-121 -119t-42.5 -186q0 -107 42.5 -185
t121 -119t184.5 -41q88 0 160.5 29.5t120 84.5t63.5 127h334zM607.5 1315.5q-56.5 47.5 -56.5 125.5t56.5 125.5t147.5 47.5q92 0 148.5 -47.5t56.5 -125.5t-56.5 -125.5t-148.5 -47.5q-91 0 -147.5 47.5z" />
    <glyph glyph-name="Ccaron" unicode="&#x10c;" horiz-adv-x="1846" 
d="M1778 611q-22 -190 -133 -335.5t-293 -225.5t-412 -80q-255 0 -449.5 97.5t-301.5 274.5t-107 408t107 408t301.5 274.5t449.5 97.5q230 0 412 -80t293 -225.5t133 -335.5h-341q-21 106 -86.5 183.5t-170.5 119t-241 41.5q-157 0 -272.5 -59t-178 -168t-62.5 -256
t62.5 -256t178 -168t272.5 -59q206 0 336.5 90t161.5 254h341zM931 1787l194 150h285l-298 -321h-362l-300 321h286z" />
    <glyph glyph-name="ccaron" unicode="&#x10d;" horiz-adv-x="1486" 
d="M1431 464q-18 -146 -110.5 -258t-240.5 -174t-327 -62q-201 0 -357 75.5t-242.5 211t-86.5 311.5t86.5 312t242.5 212t357 76q179 0 327 -62t240.5 -175t110.5 -259h-334q-25 114 -117.5 178t-226.5 64q-106 0 -184.5 -41t-121 -119t-42.5 -186q0 -107 42.5 -185
t121 -119t184.5 -41q88 0 160.5 29.5t120 84.5t63.5 127h334zM756 1422l188 193h273l-286 -361h-349l-286 361h272z" />
    <glyph glyph-name="Dcaron" unicode="&#x10e;" horiz-adv-x="1822" 
d="M867 1500q259 0 457 -93.5t307.5 -263.5t109.5 -393t-109.5 -393t-307.5 -263.5t-457 -93.5h-713v1500h713zM892 300q152 0 266.5 55.5t177 157.5t62.5 237t-62.5 237t-177 157.5t-266.5 55.5h-400v-900h400zM856 1787l194 150h285l-298 -321h-362l-300 321h286z" />
    <glyph glyph-name="dcaron" unicode="&#x10f;" horiz-adv-x="1649" 
d="M1564 1540l-110 -948l65 -592h-344l-30 265q-86 -140 -217 -217.5t-291 -77.5q-165 0 -294 75t-200.5 211t-71.5 312q0 177 71.5 313.5t200 211.5t294.5 75q160 0 291 -76t216 -215l74 663h346zM906 273q84 43 147.5 119.5t99.5 175.5q-36 99 -99.5 176t-147.5 120.5
t-177 43.5q-92 0 -164.5 -43.5t-113.5 -121t-41 -175.5t41 -175t113.5 -120t164.5 -43q93 0 177 43zM1631 1262l48 395h296l-109 -395h-235z" />
    <glyph glyph-name="Dcroat" unicode="&#x110;" horiz-adv-x="1880" 
d="M925 1500q259 0 457 -93.5t307.5 -263.5t109.5 -393t-109.5 -393t-307.5 -263.5t-457 -93.5h-713v633h-159v238h159v629h713zM950 300q152 0 266.5 55.5t177 157.5t62.5 237t-62.5 237t-177 157.5t-266.5 55.5h-400v-329h377v-238h-377v-333h400z" />
    <glyph glyph-name="dcroat" unicode="&#x111;" horiz-adv-x="1599" 
d="M1626 1416v-205h-151v-1211h-335v245q-85 -131 -214.5 -203t-288.5 -72q-165 0 -293.5 72t-200.5 203t-72 300q0 171 72 302t200.5 203.5t293.5 72.5q158 0 287.5 -71.5t215.5 -202.5v362h-570v205h570v124h335v-124h151zM906.5 270q83.5 40 147.5 111.5t99 163.5
q-35 93 -99 165.5t-147.5 112.5t-175.5 40q-93 0 -166 -40.5t-114 -113t-41 -164.5q0 -91 41 -163t114 -112t166 -40q92 0 175.5 40z" />
    <glyph glyph-name="Emacron" unicode="&#x112;" horiz-adv-x="1560" 
d="M528 620l-54 -338h982v-282h-1351l117 750l-117 750h1341v-282h-972l54 -338h866v-260h-866zM1247 1666h-919v209h919v-209z" />
    <glyph glyph-name="emacron" unicode="&#x113;" horiz-adv-x="1444" 
d="M425 464q38 -116 148 -179t279 -63q129 0 259 37t233 104v-224q-113 -80 -262.5 -124.5t-312.5 -44.5q-202 0 -362 75.5t-250 212t-90 314.5q0 175 86 310.5t239 210.5t346 75q194 0 338 -86.5t221.5 -246t77.5 -371.5h-950zM527.5 858.5q-85.5 -63.5 -112.5 -172.5h635
q-29 113 -109.5 174.5t-200.5 61.5q-127 0 -212.5 -63.5zM1193 1318h-919v208h919v-208z" />
    <glyph glyph-name="Ebreve" unicode="&#x114;" horiz-adv-x="1560" 
d="M528 620l-54 -338h982v-282h-1351l117 750l-117 750h1341v-282h-972l54 -338h866v-260h-866zM576 1943q55 -130 210 -130q78 0 131 33.5t80 96.5h259q-43 -166 -166 -252.5t-304 -86.5t-304.5 86.5t-164.5 252.5h259z" />
    <glyph glyph-name="ebreve" unicode="&#x115;" horiz-adv-x="1444" 
d="M425 464q38 -116 148 -179t279 -63q129 0 259 37t233 104v-224q-113 -80 -262.5 -124.5t-312.5 -44.5q-202 0 -362 75.5t-250 212t-90 314.5q0 175 86 310.5t239 210.5t346 75q194 0 338 -86.5t221.5 -246t77.5 -371.5h-950zM527.5 858.5q-85.5 -63.5 -112.5 -172.5h635
q-29 113 -109.5 174.5t-200.5 61.5q-127 0 -212.5 -63.5zM533 1613q16 -77 69 -120t132 -43q78 0 131.5 43t70.5 120h251q-26 -176 -143.5 -273.5t-309.5 -97.5q-191 0 -309 97.5t-144 273.5h252z" />
    <glyph glyph-name="Edotaccent" unicode="&#x116;" horiz-adv-x="1560" 
d="M528 620l-54 -338h982v-282h-1351l117 750l-117 750h1341v-282h-972l54 -338h866v-260h-866zM680.5 1651.5q-46.5 21.5 -72 61t-25.5 90.5q0 52 25.5 91.5t72 61.5t106.5 22t106.5 -22t72.5 -61.5t26 -91.5q0 -51 -25.5 -90.5t-72.5 -61t-107 -21.5t-106.5 21.5z" />
    <glyph glyph-name="edotaccent" unicode="&#x117;" horiz-adv-x="1444" 
d="M425 464q38 -116 148 -179t279 -63q129 0 259 37t233 104v-224q-113 -80 -262.5 -124.5t-312.5 -44.5q-202 0 -362 75.5t-250 212t-90 314.5q0 175 86 310.5t239 210.5t346 75q194 0 338 -86.5t221.5 -246t77.5 -371.5h-950zM527.5 858.5q-85.5 -63.5 -112.5 -172.5h635
q-29 113 -109.5 174.5t-200.5 61.5q-127 0 -212.5 -63.5zM586.5 1315.5q-56.5 47.5 -56.5 125.5t56.5 125.5t147.5 47.5q92 0 148.5 -47.5t56.5 -125.5t-56.5 -125.5t-148.5 -47.5q-91 0 -147.5 47.5z" />
    <glyph glyph-name="Eogonek" unicode="&#x118;" horiz-adv-x="1560" 
d="M1456 0q-114 -33 -178 -70t-64 -77q0 -28 31.5 -43t91.5 -15q64 0 119 13v-191q-28 -10 -85.5 -18t-114.5 -8q-87 0 -153 23.5t-102.5 67t-36.5 101.5q0 136 209 217h-1068l117 750l-117 750h1341v-282h-972l54 -338h866v-260h-866l-54 -338h982v-282z" />
    <glyph glyph-name="eogonek" unicode="&#x119;" horiz-adv-x="1445" 
d="M953 -386q-70 23 -108.5 65.5t-38.5 98.5q0 62 40.5 114.5t129.5 99.5q-100 -22 -207 -22q-202 0 -362 75.5t-250 212t-90 314.5q0 175 86 310.5t239 210.5t346 75q194 0 338 -86t221.5 -244t77.5 -369h-947q36 -119 146 -183t276 -64q140 0 265 36.5t229 104.5v-224
q-18 -14 -78 -50l-22 -14q-88 -52 -132.5 -104t-44.5 -98q0 -40 32 -59t98 -19q62 0 119 13v-191q-28 -10 -86 -18t-114 -8q-93 0 -163 23zM1049 685q-26 110 -108 173.5t-198 63.5q-129 0 -215 -63.5t-111 -173.5h632z" />
    <glyph glyph-name="Ecaron" unicode="&#x11a;" horiz-adv-x="1560" 
d="M528 620l-54 -338h982v-282h-1351l117 750l-117 750h1341v-282h-972l54 -338h866v-260h-866zM788 1787l194 150h285l-298 -321h-362l-300 321h286z" />
    <glyph glyph-name="ecaron" unicode="&#x11b;" horiz-adv-x="1444" 
d="M425 464q38 -116 148 -179t279 -63q129 0 259 37t233 104v-224q-113 -80 -262.5 -124.5t-312.5 -44.5q-202 0 -362 75.5t-250 212t-90 314.5q0 175 86 310.5t239 210.5t346 75q194 0 338 -86.5t221.5 -246t77.5 -371.5h-950zM527.5 858.5q-85.5 -63.5 -112.5 -172.5h635
q-29 113 -109.5 174.5t-200.5 61.5q-127 0 -212.5 -63.5zM734 1422l188 193h273l-286 -361h-349l-286 361h272z" />
    <glyph glyph-name="Gcircumflex" unicode="&#x11c;" horiz-adv-x="1910" 
d="M1015 757h777v-757h-245l-17 235q-97 -125 -250.5 -195t-356.5 -70q-238 0 -429 93.5t-301 270.5t-110 416q0 240 111 416.5t305.5 270t441.5 93.5q233 0 411.5 -74.5t287 -206.5t137.5 -303h-343q-21 90 -87.5 157t-170.5 102.5t-235 35.5q-158 0 -274.5 -57
t-179 -167.5t-62.5 -266.5q0 -158 66 -270t188.5 -170.5t289.5 -58.5q187 0 322 68.5t194 191.5h-470v246zM1121 1937l300 -320h-286l-194 150l-195 -150h-285l299 320h361z" />
    <glyph glyph-name="gcircumflex" unicode="&#x11d;" horiz-adv-x="1592" 
d="M1138 1137h334v-834q0 -210 -93.5 -359.5t-262.5 -226.5t-392 -77q-153 0 -285 39.5t-260 122.5v262q228 -174 524 -174q213 0 324 98.5t111 294.5v62q-89 -107 -222 -174t-295 -67q-157 0 -283.5 66.5t-198.5 187.5t-72 278t72 278t198.5 187.5t283.5 66.5
q162 0 294.5 -69.5t222.5 -180.5v219zM1150 636q-154 298 -420 298q-101 0 -174.5 -37t-112.5 -104.5t-39 -156.5t38.5 -156t112 -104t175.5 -37q266 0 420 297zM968 1615l286 -361h-272l-188 192l-187 -192h-274l286 361h349z" />
    <glyph glyph-name="Gbreve" unicode="&#x11e;" horiz-adv-x="1910" 
d="M1015 757h777v-757h-245l-17 235q-97 -125 -250.5 -195t-356.5 -70q-238 0 -429 93.5t-301 270.5t-110 416q0 240 111 416.5t305.5 270t441.5 93.5q233 0 411.5 -74.5t287 -206.5t137.5 -303h-343q-21 90 -87.5 157t-170.5 102.5t-235 35.5q-158 0 -274.5 -57
t-179 -167.5t-62.5 -266.5q0 -158 66 -270t188.5 -170.5t289.5 -58.5q187 0 322 68.5t194 191.5h-470v246zM730 1943q55 -130 210 -130q78 0 131 33.5t80 96.5h259q-43 -166 -166 -252.5t-304 -86.5t-304.5 86.5t-164.5 252.5h259z" />
    <glyph glyph-name="gbreve" unicode="&#x11f;" horiz-adv-x="1592" 
d="M1138 1137h334v-834q0 -210 -93.5 -359.5t-262.5 -226.5t-392 -77q-153 0 -285 39.5t-260 122.5v262q228 -174 524 -174q213 0 324 98.5t111 294.5v62q-89 -107 -222 -174t-295 -67q-157 0 -283.5 66.5t-198.5 187.5t-72 278t72 278t198.5 187.5t283.5 66.5
q162 0 294.5 -69.5t222.5 -180.5v219zM1150 636q-154 298 -420 298q-101 0 -174.5 -37t-112.5 -104.5t-39 -156.5t38.5 -156t112 -104t175.5 -37q266 0 420 297zM592 1613q16 -77 69 -120t132 -43q78 0 131.5 43t70.5 120h251q-26 -176 -143.5 -273.5t-309.5 -97.5
q-191 0 -309 97.5t-144 273.5h252z" />
    <glyph glyph-name="Gdotaccent" unicode="&#x120;" horiz-adv-x="1910" 
d="M1015 757h777v-757h-245l-17 235q-97 -125 -250.5 -195t-356.5 -70q-238 0 -429 93.5t-301 270.5t-110 416q0 240 111 416.5t305.5 270t441.5 93.5q233 0 411.5 -74.5t287 -206.5t137.5 -303h-343q-21 90 -87.5 157t-170.5 102.5t-235 35.5q-158 0 -274.5 -57
t-179 -167.5t-62.5 -266.5q0 -158 66 -270t188.5 -170.5t289.5 -58.5q187 0 322 68.5t194 191.5h-470v246zM834.5 1651.5q-46.5 21.5 -72 61t-25.5 90.5q0 52 25.5 91.5t72 61.5t106.5 22t106.5 -22t72.5 -61.5t26 -91.5q0 -51 -25.5 -90.5t-72.5 -61t-107 -21.5
t-106.5 21.5z" />
    <glyph glyph-name="gdotaccent" unicode="&#x121;" horiz-adv-x="1592" 
d="M1138 1137h334v-834q0 -210 -93.5 -359.5t-262.5 -226.5t-392 -77q-153 0 -285 39.5t-260 122.5v262q228 -174 524 -174q213 0 324 98.5t111 294.5v62q-89 -107 -222 -174t-295 -67q-157 0 -283.5 66.5t-198.5 187.5t-72 278t72 278t198.5 187.5t283.5 66.5
q162 0 294.5 -69.5t222.5 -180.5v219zM1150 636q-154 298 -420 298q-101 0 -174.5 -37t-112.5 -104.5t-39 -156.5t38.5 -156t112 -104t175.5 -37q266 0 420 297zM644.5 1315.5q-56.5 47.5 -56.5 125.5t56.5 125.5t147.5 47.5q92 0 148.5 -47.5t56.5 -125.5t-56.5 -125.5
t-148.5 -47.5q-91 0 -147.5 47.5z" />
    <glyph glyph-name="uni0122" unicode="&#x122;" horiz-adv-x="1910" 
d="M1015 757h777v-757h-245l-17 235q-97 -125 -250.5 -195t-356.5 -70q-238 0 -429 93.5t-301 270.5t-110 416q0 240 111 416.5t305.5 270t441.5 93.5q233 0 411.5 -74.5t287 -206.5t137.5 -303h-343q-21 90 -87.5 157t-170.5 102.5t-235 35.5q-158 0 -274.5 -57
t-179 -167.5t-62.5 -266.5q0 -158 66 -270t188.5 -170.5t289.5 -58.5q187 0 322 68.5t194 191.5h-470v246zM1090 -133q51 -42 51 -111q0 -46 -20.5 -85t-83.5 -122l-93 -121h-168l113 190q-57 14 -90 51t-33 91q0 68 50.5 108.5t136.5 40.5t137 -42z" />
    <glyph glyph-name="uni0123" unicode="&#x123;" horiz-adv-x="1592" 
d="M1138 1137h334v-834q0 -210 -93.5 -359.5t-262.5 -226.5t-392 -77q-153 0 -285 39.5t-260 122.5v262q228 -174 524 -174q213 0 324 98.5t111 294.5v62q-89 -107 -222 -174t-295 -67q-157 0 -283.5 66.5t-198.5 187.5t-72 278t72 278t198.5 187.5t283.5 66.5
q162 0 294.5 -69.5t222.5 -180.5v219zM1150 636q-154 298 -420 298q-101 0 -174.5 -37t-112.5 -104.5t-39 -156.5t38.5 -156t112 -104t175.5 -37q266 0 420 297zM865 1533q58 -14 90.5 -51t32.5 -90q0 -68 -51 -109t-136 -41t-136.5 42.5t-51.5 110.5q0 33 9.5 60t30 58
t64.5 89l93 121h167z" />
    <glyph glyph-name="Hcircumflex" unicode="&#x124;" horiz-adv-x="1848" 
d="M1354 909v591h340v-1500h-340v609h-861v-609h-339v1500h339v-591h861zM1103 1937l300 -320h-286l-194 150l-195 -150h-285l299 320h361z" />
    <glyph glyph-name="hcircumflex" unicode="&#x125;" horiz-adv-x="1515" 
d="M1169 1103.5q115 -64.5 175.5 -185t60.5 -285.5v-633h-335v582q0 152 -74.5 232t-214.5 80q-97 0 -169.5 -42.5t-112 -120t-39.5 -180.5v-551h-335v1540h335v-606q75 114 187 174t247 60q160 0 275 -64.5zM965 2018l286 -361h-272l-188 192l-187 -192h-274l286 361h349z
" />
    <glyph glyph-name="Hbar" unicode="&#x126;" horiz-adv-x="1913" 
d="M1728 1335h140v-237h-140v-1098h-340v582h-863v-582h-339v1098h-141v237h141v165h339v-165h863v165h340v-165zM525 869h863v229h-863v-229z" />
    <glyph glyph-name="hbar" unicode="&#x127;" horiz-adv-x="1515" 
d="M1169 1058.5q115 -64.5 175.5 -185t60.5 -285.5v-588h-335v537q0 151 -74.5 231.5t-214.5 80.5q-97 0 -169.5 -42.5t-112 -120t-39.5 -180.5v-506h-335v1211h-151v205h151v124h335v-124h576v-205h-576v-322q75 114 187 174t247 60q160 0 275 -64.5z" />
    <glyph glyph-name="Itilde" unicode="&#x128;" horiz-adv-x="647" 
d="M-54 1626q8 145 68 227t167 82q47 0 82.5 -16.5t78.5 -47.5q33 -23 54.5 -34t44.5 -11q33 0 54.5 27.5t30.5 78.5h174q-8 -144 -68 -226t-166 -82q-47 0 -82 16.5t-80 47.5q-31 23 -52.5 34t-44.5 11q-34 0 -55.5 -27.5t-29.5 -79.5h-176zM154 0v1500h339v-1500h-339z
" />
    <glyph glyph-name="itilde" unicode="&#x129;" horiz-adv-x="585" 
d="M-82 1278q8 156 68.5 244.5t166.5 88.5q47 0 82.5 -16.5t78.5 -47.5q33 -23 54.5 -34t44.5 -11q33 0 54.5 27.5t30.5 78.5h174q-8 -156 -68 -243.5t-166 -87.5q-47 0 -81.5 16t-80.5 47q-32 23 -53 33.5t-44 10.5q-34 0 -55.5 -27.5t-29.5 -78.5h-176zM125 0v1150
l168 -32l167 32v-1150h-335z" />
    <glyph glyph-name="Imacron" unicode="&#x12a;" horiz-adv-x="647" 
d="M679 1665h-711v210h711v-210zM154 0v1500h339v-1500h-339z" />
    <glyph glyph-name="imacron" unicode="&#x12b;" horiz-adv-x="585" 
d="M620 1318h-655v208h655v-208zM125 0v1150l168 -32l167 32v-1150h-335z" />
    <glyph glyph-name="Ibreve" unicode="&#x12c;" horiz-adv-x="647" 
d="M173 1937q12 -68 49.5 -104.5t100.5 -36.5q64 0 101.5 36.5t49.5 104.5h236q-11 -102 -61 -177t-133.5 -115.5t-192.5 -40.5t-192.5 40.5t-133.5 115.5t-61 177h237zM154 0v1500h339v-1500h-339z" />
    <glyph glyph-name="ibreve" unicode="&#x12d;" horiz-adv-x="585" 
d="M149 1613q11 -74 48.5 -115t95.5 -41q57 0 94 41t48 115h226q-10 -113 -58 -196.5t-127.5 -129t-182.5 -45.5q-104 0 -184 45.5t-128 129t-58 196.5h226zM125 0v1150l168 -32l167 32v-1150h-335z" />
    <glyph glyph-name="Iogonek" unicode="&#x12e;" horiz-adv-x="647" 
d="M483.5 -201.5q32.5 3.5 56.5 9.5v-191q-28 -10 -85 -18t-111 -8q-87 0 -152.5 23t-101.5 65.5t-36 99.5q0 135 205 221h-105v1500h339v-1500q-88 -36 -133.5 -71t-45.5 -76q0 -58 110 -58q27 0 59.5 3.5z" />
    <glyph glyph-name="iogonek" unicode="&#x12f;" horiz-adv-x="585" 
d="M144.5 1315.5q-56.5 47.5 -56.5 125.5t56.5 125.5t148.5 47.5q91 0 147.5 -47.5t56.5 -125.5t-56.5 -125.5t-147.5 -47.5q-92 0 -148.5 47.5zM300.5 -190q26.5 -15 76.5 -15q65 0 120 13v-191q-29 -10 -86.5 -18t-113.5 -8q-84 0 -148.5 23t-100 65t-35.5 97q0 71 52 124
t163 100h-103v1150l168 -32l167 32v-1150q-88 -36 -137 -72t-49 -75q0 -28 26.5 -43z" />
    <glyph glyph-name="Idotaccent" unicode="&#x130;" horiz-adv-x="647" 
d="M154 0v1500h339v-1500h-339zM216.5 1651.5q-46.5 21.5 -72 61t-25.5 90.5q0 52 25.5 91.5t72 61.5t106.5 22t106.5 -22t72.5 -61.5t26 -91.5q0 -51 -25.5 -90.5t-72.5 -61t-107 -21.5t-106.5 21.5z" />
    <glyph glyph-name="dotlessi" unicode="&#x131;" horiz-adv-x="585" 
d="M125 0v1150l168 -32l167 32v-1150h-335z" />
    <glyph glyph-name="IJ" unicode="&#x132;" horiz-adv-x="1665" 
d="M118 821v679h340v-679h-340zM121 688h334v-58q0 -182 88 -275.5t279 -93.5q188 0 278 89t90 256v894h340v-910q0 -196 -88.5 -336t-248 -212t-371.5 -72q-211 0 -367.5 74t-243 217t-89.5 345z" />
    <glyph glyph-name="ij" unicode="&#x133;" horiz-adv-x="1170" 
d="M144.5 1315.5q-56.5 47.5 -56.5 125.5t56.5 125.5t148.5 47.5q91 0 147.5 -47.5t56.5 -125.5t-56.5 -125.5t-147.5 -47.5q-92 0 -148.5 47.5zM730 1315.5q-56 47.5 -56 125.5t56 125.5t148 47.5q91 0 147.5 -47.5t56.5 -125.5t-56.5 -125.5t-147.5 -47.5q-92 0 -148 47.5
zM125 0v1150l168 -32l167 32v-1150h-335zM711 -330v1480l167 -32l167 32v-1480h-334z" />
    <glyph glyph-name="Jcircumflex" unicode="&#x134;" horiz-adv-x="1585" 
d="M1431 1617l-151 160l-151 -160h-246l222 320h349l222 -320h-245zM1110 1500h339v-870q0 -209 -88 -357.5t-247.5 -225.5t-371.5 -77q-210 0 -367.5 79t-244 231t-86.5 366l-1 82h333v-58q0 -199 87.5 -301t278.5 -102q188 0 278 97.5t90 281.5v854z" />
    <glyph glyph-name="jcircumflex" unicode="&#x135;" horiz-adv-x="585" 
d="M441 1254l-132 196l-133 -196h-234l192 361h349l193 -361h-235zM125 -330v1480l168 -32l167 32v-1480h-335z" />
    <glyph glyph-name="uni0136" unicode="&#x136;" horiz-adv-x="1702" 
d="M1167 866l540 -866h-386l-370 602l-492 -602h-305v1500h338v-1038l832 1038h362zM1029 -133q51 -42 51 -111q0 -46 -20.5 -85t-83.5 -122l-93 -121h-168l113 190q-57 14 -90 51t-33 91q0 68 50.5 108.5t136.5 40.5t137 -42z" />
    <glyph glyph-name="uni0137" unicode="&#x137;" horiz-adv-x="1428" 
d="M1010 675l429 -675h-383l-259 428l-368 -428h-304v1540h335v-1116l582 713h365zM899 -133q51 -42 51 -111q0 -46 -20.5 -85t-83.5 -122l-93 -121h-168l113 190q-57 14 -90 51t-33 91q0 68 50.5 108.5t136.5 40.5t137 -42z" />
    <glyph glyph-name="kgreenlandic" unicode="&#x138;" horiz-adv-x="1428" 
d="M1010 676l428 -676h-383l-258 428l-368 -428h-304v1137h334v-711l583 711h364z" />
    <glyph glyph-name="Lacute" unicode="&#x139;" horiz-adv-x="1502" 
d="M493 1500v-1200h974v-300h-1313v1500h339zM108 1617l293 320h386l-337 -320h-342z" />
    <glyph glyph-name="lacute" unicode="&#x13a;" horiz-adv-x="585" 
d="M125 0v1540h335v-1540h-335zM104 1657l248 361h328l-262 -361h-314z" />
    <glyph glyph-name="uni013B" unicode="&#x13b;" horiz-adv-x="1502" 
d="M493 1500v-1200h974v-300h-1313v1500h339zM981 -133q51 -42 51 -111q0 -46 -20.5 -85t-83.5 -122l-93 -121h-168l113 190q-57 14 -90 51t-33 91q0 68 50.5 108.5t136.5 40.5t137 -42z" />
    <glyph glyph-name="uni013C" unicode="&#x13c;" horiz-adv-x="585" 
d="M125 0v1540h335v-1540h-335zM429 -133q51 -42 51 -111q0 -46 -20.5 -85t-83.5 -122l-93 -121h-168l113 190q-57 14 -90 51t-33 91q0 68 50.5 108.5t136.5 40.5t137 -42z" />
    <glyph glyph-name="Lcaron" unicode="&#x13d;" horiz-adv-x="1503" 
d="M493 1500v-1200h974v-300h-1313v1500h339zM757 1037l56 463h296l-117 -463h-235z" />
    <glyph glyph-name="lcaron" unicode="&#x13e;" horiz-adv-x="617" 
d="M125 0v1540h335v-1540h-335zM546 1262l48 395h296l-109 -395h-235z" />
    <glyph glyph-name="Ldot" unicode="&#x13f;" horiz-adv-x="1504" 
d="M493 1500v-1200h974v-300h-1313v1500h339zM971 732q-47 27 -74 74t-27 104t27 104.5t74 74.5t104 27t104 -27t74 -74.5t27 -104.5t-27 -104t-74 -74t-104 -27t-104 27z" />
    <glyph glyph-name="ldot" unicode="&#x140;" horiz-adv-x="930" 
d="M125 0v1540h335v-1540h-335zM658 617q-45 26 -71 71.5t-26 99.5q0 55 26 100t71 71t100 26t100 -26t71 -71t26 -100q0 -54 -26 -99.5t-71 -71.5t-100 -26t-100 26z" />
    <glyph glyph-name="Lslash" unicode="&#x141;" horiz-adv-x="1580" 
d="M570 748v-448h974v-300h-1313v658l-159 -42v239l159 42v603h339v-513l486 128v-238z" />
    <glyph glyph-name="lslash" unicode="&#x142;" horiz-adv-x="797" 
d="M566 1009l172 53v-232l-172 -53v-777h-335v675l-171 -52v232l171 52v633h335v-531z" />
    <glyph glyph-name="Nacute" unicode="&#x143;" horiz-adv-x="1909" 
d="M1426 383v1117h329v-1500h-429l-843 1137v-1137h-329v1500h440zM765 1617l293 320h386l-337 -320h-342z" />
    <glyph glyph-name="nacute" unicode="&#x144;" horiz-adv-x="1532" 
d="M1187.5 1103.5q114.5 -64.5 174.5 -185t60 -285.5v-633h-334v582q0 152 -74.5 232t-214.5 80q-98 0 -170.5 -42.5t-112 -120t-39.5 -180.5v-551h-334v755l-72 382h335l42 -255q71 138 192.5 212t271.5 74q161 0 275.5 -64.5zM594 1254l248 361h328l-262 -361h-314z" />
    <glyph glyph-name="uni0145" unicode="&#x145;" horiz-adv-x="1909" 
d="M1426 383v1117h329v-1500h-429l-843 1137v-1137h-329v1500h440zM1092 -133q51 -42 51 -111q0 -46 -20.5 -85t-83.5 -122l-93 -121h-168l113 190q-57 14 -90 51t-33 91q0 68 50.5 108.5t136.5 40.5t137 -42z" />
    <glyph glyph-name="uni0146" unicode="&#x146;" horiz-adv-x="1532" 
d="M1187.5 1103.5q114.5 -64.5 174.5 -185t60 -285.5v-633h-334v582q0 152 -74.5 232t-214.5 80q-98 0 -170.5 -42.5t-112 -120t-39.5 -180.5v-551h-334v755l-72 382h335l42 -255q71 138 192.5 212t271.5 74q161 0 275.5 -64.5zM919 -133q51 -42 51 -111q0 -46 -20.5 -85
t-83.5 -122l-93 -121h-168l113 190q-57 14 -90 51t-33 91q0 68 50.5 108.5t136.5 40.5t137 -42z" />
    <glyph glyph-name="Ncaron" unicode="&#x147;" horiz-adv-x="1909" 
d="M1426 383v1117h329v-1500h-429l-843 1137v-1137h-329v1500h440zM981 1787l194 150h285l-298 -321h-362l-300 321h286z" />
    <glyph glyph-name="ncaron" unicode="&#x148;" horiz-adv-x="1532" 
d="M1187.5 1103.5q114.5 -64.5 174.5 -185t60 -285.5v-633h-334v582q0 152 -74.5 232t-214.5 80q-98 0 -170.5 -42.5t-112 -120t-39.5 -180.5v-551h-334v755l-72 382h335l42 -255q71 138 192.5 212t271.5 74q161 0 275.5 -64.5zM782 1422l188 193h273l-286 -361h-349
l-286 361h272z" />
    <glyph glyph-name="napostrophe" unicode="&#x149;" horiz-adv-x="1899" 
d="M286.5 1492.5q44.5 -25.5 70.5 -70t26 -99.5q0 -53 -24 -111.5t-83 -150.5l-118 -186h-168l129 275q-56 20 -90.5 69t-34.5 109q0 52 26 95.5t70.5 69t98.5 25.5q53 0 97.5 -25.5zM1553.5 1103.5q114.5 -64.5 174.5 -185t60 -285.5v-633h-334v582q0 152 -74.5 232
t-214.5 80q-98 0 -170.5 -42.5t-112 -120t-39.5 -180.5v-551h-334v755l-72 382h335l42 -255q71 138 192.5 212t271.5 74q161 0 275.5 -64.5z" />
    <glyph glyph-name="Eng" unicode="&#x14a;" horiz-adv-x="1823" 
d="M1394.5 1459q140.5 -71 215 -203t74.5 -312v-860q0 -209 -127.5 -326.5t-386.5 -117.5q-97 0 -187.5 17.5t-151.5 43.5v261q60 -28 134 -43t153 -15q121 0 174 49.5t53 163.5v748q0 177 -103.5 269.5t-302.5 92.5q-138 0 -238.5 -47.5t-154 -135.5t-53.5 -207v-837h-339
v1500h339v-255q91 144 236.5 214.5t331.5 70.5q193 0 333.5 -71z" />
    <glyph glyph-name="eng" unicode="&#x14b;" horiz-adv-x="1532" 
d="M1187.5 1103.5q114.5 -64.5 174.5 -185t60 -285.5v-542q0 -133 -51.5 -235t-151.5 -159t-242 -57q-79 0 -156 19.5t-131 51.5v251q55 -31 107 -46.5t113 -15.5q66 0 104.5 19t56 61.5t17.5 116.5v485q0 152 -74.5 232t-214.5 80q-98 0 -170.5 -42.5t-112 -120
t-39.5 -180.5v-551h-334v755l-72 382h335l42 -255q71 138 192.5 212t271.5 74q161 0 275.5 -64.5z" />
    <glyph glyph-name="Omacron" unicode="&#x14c;" horiz-adv-x="1913" 
d="M499 67.5q-199 97.5 -308.5 274.5t-109.5 408t109.5 408t308.5 274.5t457 97.5q259 0 457.5 -97.5t308.5 -274.5t110 -408t-110 -408t-308.5 -274.5t-457.5 -97.5q-258 0 -457 97.5zM1238.5 331q120.5 58 185 165.5t64.5 253.5t-64.5 253.5t-185 165.5t-282.5 58
t-282 -58t-185 -165.5t-65 -253.5t65 -253.5t185 -165.5t282 -58t282.5 58zM1416 1666h-919v209h919v-209z" />
    <glyph glyph-name="omacron" unicode="&#x14d;" horiz-adv-x="1556" 
d="M406.5 45q-161.5 75 -250.5 210.5t-89 312.5q0 178 89 314t250.5 211t371.5 75t371.5 -75t250.5 -211t89 -314q0 -177 -89 -312.5t-250.5 -210.5t-371.5 -75t-371.5 75zM976.5 265q83.5 42 128.5 119.5t45 183.5t-45 184t-129 120t-198 42q-115 0 -199 -42t-129 -120
t-45 -184t45 -183.5t129 -119.5t199 -42t198.5 42zM1237 1318h-919v208h919v-208z" />
    <glyph glyph-name="Obreve" unicode="&#x14e;" horiz-adv-x="1913" 
d="M499 67.5q-199 97.5 -308.5 274.5t-109.5 408t109.5 408t308.5 274.5t457 97.5q259 0 457.5 -97.5t308.5 -274.5t110 -408t-110 -408t-308.5 -274.5t-457.5 -97.5q-258 0 -457 97.5zM1238.5 331q120.5 58 185 165.5t64.5 253.5t-64.5 253.5t-185 165.5t-282.5 58
t-282 -58t-185 -165.5t-65 -253.5t65 -253.5t185 -165.5t282 -58t282.5 58zM745 1943q55 -130 210 -130q78 0 131 33.5t80 96.5h259q-43 -166 -166 -252.5t-304 -86.5t-304.5 86.5t-164.5 252.5h259z" />
    <glyph glyph-name="obreve" unicode="&#x14f;" horiz-adv-x="1556" 
d="M406.5 45q-161.5 75 -250.5 210.5t-89 312.5q0 178 89 314t250.5 211t371.5 75t371.5 -75t250.5 -211t89 -314q0 -177 -89 -312.5t-250.5 -210.5t-371.5 -75t-371.5 75zM976.5 265q83.5 42 128.5 119.5t45 183.5t-45 184t-129 120t-198 42q-115 0 -199 -42t-129 -120
t-45 -184t45 -183.5t129 -119.5t199 -42t198.5 42zM577 1613q16 -77 69 -120t132 -43q78 0 131.5 43t70.5 120h251q-26 -176 -143.5 -273.5t-309.5 -97.5q-191 0 -309 97.5t-144 273.5h252z" />
    <glyph glyph-name="Ohungarumlaut" unicode="&#x150;" horiz-adv-x="1913" 
d="M499 67.5q-199 97.5 -308.5 274.5t-109.5 408t109.5 408t308.5 274.5t457 97.5q259 0 457.5 -97.5t308.5 -274.5t110 -408t-110 -408t-308.5 -274.5t-457.5 -97.5q-258 0 -457 97.5zM1238.5 331q120.5 58 185 165.5t64.5 253.5t-64.5 253.5t-185 165.5t-282.5 58
t-282 -58t-185 -165.5t-65 -253.5t65 -253.5t185 -165.5t282 -58t282.5 58zM572 1617l245 320h326l-271 -320h-300zM1055 1617l243 320h329l-272 -320h-300z" />
    <glyph glyph-name="ohungarumlaut" unicode="&#x151;" horiz-adv-x="1556" 
d="M406.5 45q-161.5 75 -250.5 210.5t-89 312.5q0 178 89 314t250.5 211t371.5 75t371.5 -75t250.5 -211t89 -314q0 -177 -89 -312.5t-250.5 -210.5t-371.5 -75t-371.5 75zM976.5 265q83.5 42 128.5 119.5t45 183.5t-45 184t-129 120t-198 42q-115 0 -199 -42t-129 -120
t-45 -184t45 -183.5t129 -119.5t199 -42t198.5 42zM405 1254l222 361h301l-236 -361h-287zM860 1254l220 361h302l-237 -361h-285z" />
    <glyph glyph-name="OE" unicode="&#x152;" horiz-adv-x="2680" 
d="M955 0q-259 0 -457 93.5t-307.5 263.5t-109.5 393t107.5 393t303.5 263.5t455 93.5h1620v-282h-930v-336h876v-261h-876v-339h940v-282h-1622zM1306 300v900h-373q-153 0 -268 -55.5t-178 -157.5t-63 -237t63 -237t178 -157.5t268 -55.5h373z" />
    <glyph glyph-name="oe" unicode="&#x153;" horiz-adv-x="2485" 
d="M1478 483q35 -125 145 -193t272 -68q133 0 259 36.5t231 104.5v-218q-107 -80 -260 -127.5t-307 -47.5q-172 0 -306.5 57t-217.5 164q-86 -107 -223.5 -164t-315.5 -57q-201 0 -357 75t-243.5 211t-87.5 312q0 177 87.5 313.5t243.5 211.5t357 75q179 0 317.5 -58.5
t224.5 -167.5q83 107 212 166.5t286 59.5q187 0 327.5 -85.5t217 -240.5t76.5 -359h-938zM1585.5 864.5q-88.5 -66.5 -112.5 -184.5h640q-28 119 -109 185t-205 66q-125 0 -213.5 -66.5zM963.5 265q82.5 42 126.5 119.5t44 183.5t-44 184t-126.5 120t-194.5 42t-194 -42
t-126 -120t-44 -184t44 -183.5t126 -119.5t194 -42t194.5 42z" />
    <glyph glyph-name="Racute" unicode="&#x154;" horiz-adv-x="1661" 
d="M1206 0l-452 570h-261v-570h-339v1500h854q163 0 288 -58.5t194 -164.5t69 -244q0 -118 -52 -213t-147.5 -157t-223.5 -83l468 -580h-398zM493 1232v-398h474q116 0 182.5 53t66.5 146t-66.5 146t-182.5 53h-474zM598 1617l293 320h386l-337 -320h-342z" />
    <glyph glyph-name="racute" unicode="&#x155;" horiz-adv-x="1059" 
d="M1032 1150v-288q-99 23 -202 23q-102 0 -182 -43t-125.5 -131.5t-45.5 -219.5v-491h-334v764l-72 373h338l51 -307q55 158 160 248t263 90q75 0 149 -18zM388 1254l248 361h328l-262 -361h-314z" />
    <glyph glyph-name="uni0156" unicode="&#x156;" horiz-adv-x="1661" 
d="M1206 0l-452 570h-261v-570h-339v1500h854q163 0 288 -58.5t194 -164.5t69 -244q0 -118 -52 -213t-147.5 -157t-223.5 -83l468 -580h-398zM493 1232v-398h474q116 0 182.5 53t66.5 146t-66.5 146t-182.5 53h-474zM979 -133q51 -42 51 -111q0 -46 -20.5 -85t-83.5 -122
l-93 -121h-168l113 190q-57 14 -90 51t-33 91q0 68 50.5 108.5t136.5 40.5t137 -42z" />
    <glyph glyph-name="uni0157" unicode="&#x157;" horiz-adv-x="1059" 
d="M1032 1150v-288q-99 23 -202 23q-102 0 -182 -43t-125.5 -131.5t-45.5 -219.5v-491h-334v764l-72 373h338l51 -307q55 158 160 248t263 90q75 0 149 -18zM445 -133q51 -42 51 -111q0 -46 -20.5 -85t-83.5 -122l-93 -121h-168l113 190q-57 14 -90 51t-33 91
q0 68 50.5 108.5t136.5 40.5t137 -42z" />
    <glyph glyph-name="Rcaron" unicode="&#x158;" horiz-adv-x="1661" 
d="M1206 0l-452 570h-261v-570h-339v1500h854q163 0 288 -58.5t194 -164.5t69 -244q0 -118 -52 -213t-147.5 -157t-223.5 -83l468 -580h-398zM493 1232v-398h474q116 0 182.5 53t66.5 146t-66.5 146t-182.5 53h-474zM814 1787l194 150h285l-298 -321h-362l-300 321h286z" />
    <glyph glyph-name="rcaron" unicode="&#x159;" horiz-adv-x="1059" 
d="M1032 1150v-288q-99 23 -202 23q-102 0 -182 -43t-125.5 -131.5t-45.5 -219.5v-491h-334v764l-72 373h338l51 -307q55 158 160 248t263 90q75 0 149 -18zM576 1422l188 193h273l-286 -361h-349l-286 361h272z" />
    <glyph glyph-name="Sacute" unicode="&#x15a;" horiz-adv-x="1646" 
d="M419 490q10 -77 65.5 -133.5t149 -87.5t215.5 -31q117 0 203.5 23t133 67t46.5 104q0 50 -25.5 82t-86 52.5t-166.5 32.5l-302 34q-194 21 -316.5 75t-180 142t-57.5 214q0 144 86.5 249t245.5 161t371 56q207 0 370.5 -61t258.5 -171t104 -254h-344q-9 66 -59 115
t-136.5 76t-200.5 27q-108 0 -188 -22t-123 -63.5t-43 -99.5q0 -46 24.5 -76t81 -50t153.5 -32l313 -38q209 -24 331 -72.5t176 -129.5t54 -209q0 -150 -91 -263t-256.5 -175t-382.5 -62q-222 0 -394 65t-270.5 183t-104.5 272h345zM607 1617l293 320h386l-337 -320h-342z
" />
    <glyph glyph-name="sacute" unicode="&#x15b;" horiz-adv-x="1439" 
d="M1301 148q-72 -87 -212 -132.5t-340 -45.5q-206 0 -361 51.5t-241 144.5t-92 217h339q19 -84 115 -132t250 -48q287 0 287 127q0 32 -22.5 52t-73.5 32.5t-141 20.5l-212 18q-274 21 -392 110.5t-118 234.5q0 120 75.5 203t212.5 125t320 42q182 0 327 -49.5
t231.5 -138.5t97.5 -204h-339q-15 70 -97 117.5t-237 47.5q-125 0 -193 -30.5t-68 -86.5q0 -42 43.5 -66.5t152.5 -33.5l276 -23q180 -15 286.5 -59t152 -114.5t45.5 -169.5q0 -123 -72 -210zM530 1254l248 361h328l-262 -361h-314z" />
    <glyph glyph-name="Scircumflex" unicode="&#x15c;" horiz-adv-x="1646" 
d="M419 490q10 -77 65.5 -133.5t149 -87.5t215.5 -31q117 0 203.5 23t133 67t46.5 104q0 50 -25.5 82t-86 52.5t-166.5 32.5l-302 34q-194 21 -316.5 75t-180 142t-57.5 214q0 144 86.5 249t245.5 161t371 56q207 0 370.5 -61t258.5 -171t104 -254h-344q-9 66 -59 115
t-136.5 76t-200.5 27q-108 0 -188 -22t-123 -63.5t-43 -99.5q0 -46 24.5 -76t81 -50t153.5 -32l313 -38q209 -24 331 -72.5t176 -129.5t54 -209q0 -150 -91 -263t-256.5 -175t-382.5 -62q-222 0 -394 65t-270.5 183t-104.5 272h345zM1002 1937l300 -320h-286l-194 150
l-195 -150h-285l299 320h361z" />
    <glyph glyph-name="scircumflex" unicode="&#x15d;" horiz-adv-x="1439" 
d="M1301 148q-72 -87 -212 -132.5t-340 -45.5q-206 0 -361 51.5t-241 144.5t-92 217h339q19 -84 115 -132t250 -48q287 0 287 127q0 32 -22.5 52t-73.5 32.5t-141 20.5l-212 18q-274 21 -392 110.5t-118 234.5q0 120 75.5 203t212.5 125t320 42q182 0 327 -49.5
t231.5 -138.5t97.5 -204h-339q-15 70 -97 117.5t-237 47.5q-125 0 -193 -30.5t-68 -86.5q0 -42 43.5 -66.5t152.5 -33.5l276 -23q180 -15 286.5 -59t152 -114.5t45.5 -169.5q0 -123 -72 -210zM893 1615l286 -361h-272l-188 192l-187 -192h-274l286 361h349z" />
    <glyph glyph-name="Scedilla" unicode="&#x15e;" horiz-adv-x="1646" 
d="M1488 214q-85 -111 -241 -174t-362 -69l-37 -63q52 10 101 10q127 0 198 -50.5t71 -138.5q0 -64 -41.5 -112.5t-121.5 -76t-192 -27.5q-151 0 -254.5 55.5t-132.5 152.5h227q18 -28 58 -43.5t102 -15.5q66 0 100.5 20.5t34.5 52.5q0 30 -29.5 47.5t-84.5 17.5
q-70 0 -122 -20h-175l126 196q-187 18 -329.5 87t-223 178.5t-86.5 248.5h345q10 -77 65.5 -133.5t149 -87.5t215.5 -31q117 0 203.5 23t133 67t46.5 104q0 50 -25.5 82t-86 52.5t-166.5 32.5l-302 34q-194 21 -316.5 75t-180 142t-57.5 214q0 144 86.5 249t245.5 161
t371 56q207 0 370.5 -61t258.5 -171t104 -254h-344q-9 66 -59 115t-136.5 76t-200.5 27q-108 0 -188 -22t-123 -63.5t-43 -99.5q0 -46 24.5 -76t81 -50t153.5 -32l313 -38q209 -24 331 -72.5t176 -129.5t54 -209q0 -145 -85 -256z" />
    <glyph glyph-name="scedilla" unicode="&#x15f;" horiz-adv-x="1439" 
d="M1307 156q-66 -85 -194 -132t-312 -53l-43 -65q48 10 96 10q128 0 195 -50.5t67 -139.5q0 -61 -39.5 -109t-116.5 -76t-184 -28q-97 0 -176 26.5t-131.5 73.5t-73.5 109h214q44 -63 167 -63q64 0 98 19.5t34 54.5q0 31 -28.5 50.5t-86.5 19.5q-64 0 -112 -25h-180
l126 197q-172 14 -299 68.5t-197.5 141.5t-75.5 198h339q19 -84 115 -132t250 -48q287 0 287 127q0 32 -22.5 52t-73.5 32.5t-141 20.5l-212 18q-274 21 -392 110.5t-118 234.5q0 120 75.5 203t212.5 125t320 42q182 0 327 -49.5t231.5 -138.5t97.5 -204h-339
q-15 70 -97 117.5t-237 47.5q-125 0 -193 -30.5t-68 -86.5q0 -42 43.5 -66.5t152.5 -33.5l276 -23q180 -15 286.5 -59t152 -114.5t45.5 -169.5q0 -117 -66 -202z" />
    <glyph glyph-name="Scaron" unicode="&#x160;" horiz-adv-x="1646" 
d="M419 490q10 -77 65.5 -133.5t149 -87.5t215.5 -31q117 0 203.5 23t133 67t46.5 104q0 50 -25.5 82t-86 52.5t-166.5 32.5l-302 34q-194 21 -316.5 75t-180 142t-57.5 214q0 144 86.5 249t245.5 161t371 56q207 0 370.5 -61t258.5 -171t104 -254h-344q-9 66 -59 115
t-136.5 76t-200.5 27q-108 0 -188 -22t-123 -63.5t-43 -99.5q0 -46 24.5 -76t81 -50t153.5 -32l313 -38q209 -24 331 -72.5t176 -129.5t54 -209q0 -150 -91 -263t-256.5 -175t-382.5 -62q-222 0 -394 65t-270.5 183t-104.5 272h345zM823 1787l194 150h285l-298 -321h-362
l-300 321h286z" />
    <glyph glyph-name="scaron" unicode="&#x161;" horiz-adv-x="1439" 
d="M1301 148q-72 -87 -212 -132.5t-340 -45.5q-206 0 -361 51.5t-241 144.5t-92 217h339q19 -84 115 -132t250 -48q287 0 287 127q0 32 -22.5 52t-73.5 32.5t-141 20.5l-212 18q-274 21 -392 110.5t-118 234.5q0 120 75.5 203t212.5 125t320 42q182 0 327 -49.5
t231.5 -138.5t97.5 -204h-339q-15 70 -97 117.5t-237 47.5q-125 0 -193 -30.5t-68 -86.5q0 -42 43.5 -66.5t152.5 -33.5l276 -23q180 -15 286.5 -59t152 -114.5t45.5 -169.5q0 -123 -72 -210zM718 1422l188 193h273l-286 -361h-349l-286 361h272z" />
    <glyph glyph-name="uni0162" unicode="&#x162;" horiz-adv-x="1602" 
d="M971 0h-90l-54 -92q50 10 100 10q127 0 198 -50.5t71 -138.5q0 -64 -41.5 -112.5t-121.5 -76t-192 -27.5q-151 0 -254 55.5t-133 152.5h228q39 -59 159 -59q66 0 101 20.5t35 52.5q0 30 -29.5 47.5t-84.5 17.5q-72 0 -122 -20h-175l141 220h-76v1200h-596v300h1532v-300
h-596v-1200z" />
    <glyph glyph-name="uni0163" unicode="&#x163;" horiz-adv-x="1158" 
d="M715 -29l-43 -65q48 10 96 10q128 0 195 -50.5t67 -139.5q0 -61 -39.5 -109t-116.5 -76t-184 -28q-97 0 -176 26.5t-131.5 73.5t-73.5 109h214q44 -63 167 -63q64 0 98 19.5t34 54.5q0 31 -28.5 50.5t-86.5 19.5q-64 0 -112 -25h-180l139 216q-155 42 -230.5 153
t-75.5 278v461h-237v148l237 78l142 327h192v-302h503v-251h-503v-413q0 -90 24 -142t77 -75t145 -23q84 0 150.5 16t126.5 48v-261q-62 -27 -158 -46.5t-193 -19.5q-26 0 -39 1z" />
    <glyph glyph-name="Tcaron" unicode="&#x164;" horiz-adv-x="1602" 
d="M35 1500h1532v-300h-596v-1200h-340v1200h-596v300zM801 1787l194 150h285l-298 -321h-362l-300 321h286z" />
    <glyph glyph-name="tcaron" unicode="&#x165;" horiz-adv-x="1158" 
d="M11 886v148l237 78l142 327h192v-302h503v-251h-503v-413q0 -90 24 -142t77 -75t145 -23q84 0 150.5 16t126.5 48v-261q-62 -27 -158 -46.5t-193 -19.5q-258 0 -382 120t-124 335v461h-237zM711 1289l48 395h296l-109 -395h-235z" />
    <glyph glyph-name="Tbar" unicode="&#x166;" horiz-adv-x="1630" 
d="M1581 1500v-300h-596v-400h398v-240h-398v-560h-340v560h-398v240h398v400h-596v300h1532z" />
    <glyph glyph-name="tbar" unicode="&#x167;" horiz-adv-x="1181" 
d="M995.5 249q66.5 16 127.5 48v-261q-63 -27 -159.5 -46.5t-192.5 -19.5q-257 0 -381.5 120t-124.5 335v42h-209v226h209v193h-237v148l237 78l142 327h193v-302h503v-251h-503v-193h381v-226h-381q1 -87 25 -138t77 -73.5t144 -22.5q83 0 149.5 16z" />
    <glyph glyph-name="Utilde" unicode="&#x168;" horiz-adv-x="1740" 
d="M473 657q0 -118 46.5 -204.5t136 -133t214.5 -46.5q126 0 215 46.5t135 132.5t46 205v843h340v-858q0 -199 -92 -351.5t-259 -236.5t-385 -84t-385 84t-259 236.5t-92 351.5v858h339v-843zM359 1629q18 149 97 232t220 83q53 0 104 -15.5t120 -43.5q53 -22 86.5 -32.5
t62.5 -10.5q44 0 71.5 24.5t34.5 69.5h223q-19 -150 -97.5 -233t-218.5 -83q-54 0 -106 15.5t-119 44.5q-59 23 -90 33t-59 10q-44 0 -71.5 -24.5t-34.5 -69.5h-223z" />
    <glyph glyph-name="utilde" unicode="&#x169;" horiz-adv-x="1509" 
d="M1436 0h-334l-41 253q-71 -136 -189 -209.5t-264 -73.5q-156 0 -268 64.5t-171 185t-59 285.5v632h334v-583q0 -151 71.5 -230.5t205.5 -79.5q96 0 166 41.5t107.5 119t37.5 182.5v550h334v-756zM270 1274q9 163 79.5 254t199.5 91q53 0 104 -17t115 -48q49 -23 80.5 -34
t57.5 -11q42 0 70.5 28.5t36.5 79.5h212q-9 -160 -78.5 -252.5t-200.5 -92.5q-53 0 -101 16.5t-119 48.5q-48 23 -78.5 34t-56.5 11q-43 0 -72 -28.5t-37 -79.5h-212z" />
    <glyph glyph-name="Umacron" unicode="&#x16a;" horiz-adv-x="1740" 
d="M473 657q0 -118 46.5 -204.5t136 -133t214.5 -46.5q126 0 215 46.5t135 132.5t46 205v843h340v-858q0 -199 -92 -351.5t-259 -236.5t-385 -84t-385 84t-259 236.5t-92 351.5v858h339v-843zM1329 1666h-919v209h919v-209z" />
    <glyph glyph-name="umacron" unicode="&#x16b;" horiz-adv-x="1509" 
d="M1436 0h-334l-41 253q-71 -136 -189 -209.5t-264 -73.5q-156 0 -268 64.5t-171 185t-59 285.5v632h334v-583q0 -151 71.5 -230.5t205.5 -79.5q96 0 166 41.5t107.5 119t37.5 182.5v550h334v-756zM1207 1318h-919v208h919v-208z" />
    <glyph glyph-name="Ubreve" unicode="&#x16c;" horiz-adv-x="1740" 
d="M473 657q0 -118 46.5 -204.5t136 -133t214.5 -46.5q126 0 215 46.5t135 132.5t46 205v843h340v-858q0 -199 -92 -351.5t-259 -236.5t-385 -84t-385 84t-259 236.5t-92 351.5v858h339v-843zM659 1943q55 -130 210 -130q78 0 131 33.5t80 96.5h259q-43 -166 -166 -252.5
t-304 -86.5t-304.5 86.5t-164.5 252.5h259z" />
    <glyph glyph-name="ubreve" unicode="&#x16d;" horiz-adv-x="1509" 
d="M1436 0h-334l-41 253q-71 -136 -189 -209.5t-264 -73.5q-156 0 -268 64.5t-171 185t-59 285.5v632h334v-583q0 -151 71.5 -230.5t205.5 -79.5q96 0 166 41.5t107.5 119t37.5 182.5v550h334v-756zM547 1613q16 -77 69 -120t132 -43q78 0 131.5 43t70.5 120h251
q-26 -176 -143.5 -273.5t-309.5 -97.5q-191 0 -309 97.5t-144 273.5h252z" />
    <glyph glyph-name="Uring" unicode="&#x16e;" horiz-adv-x="1740" 
d="M473 657q0 -118 46.5 -204.5t136 -133t214.5 -46.5q126 0 215 46.5t135 132.5t46 205v843h340v-858q0 -199 -92 -351.5t-259 -236.5t-385 -84t-385 84t-259 236.5t-92 351.5v858h339v-843zM674.5 1616q-81.5 30 -124 86.5t-42.5 134.5q0 119 95 186t266 67t266.5 -67
t95.5 -186q0 -78 -43 -134.5t-124.5 -86.5t-194.5 -30t-194.5 30zM996.5 1765q42.5 25 42.5 72q0 99 -170 99q-169 0 -169 -99q0 -47 42 -72t127 -25t127.5 25z" />
    <glyph glyph-name="uring" unicode="&#x16f;" horiz-adv-x="1509" 
d="M1436 0h-334l-41 253q-71 -136 -189 -209.5t-264 -73.5q-156 0 -268 64.5t-171 185t-59 285.5v632h334v-583q0 -151 71.5 -230.5t205.5 -79.5q96 0 166 41.5t107.5 119t37.5 182.5v550h334v-756zM561.5 1265.5q-78.5 31.5 -120.5 90.5t-42 139t42 139t120.5 90.5
t186.5 31.5q107 0 185.5 -31.5t120 -90.5t41.5 -139t-41.5 -139t-120 -90.5t-185.5 -31.5q-108 0 -186.5 31.5zM861.5 1410q40.5 30 40.5 85t-40.5 85.5t-113.5 30.5t-114 -30.5t-41 -85.5t40.5 -85t114.5 -30q73 0 113.5 30z" />
    <glyph glyph-name="Uhungarumlaut" unicode="&#x170;" horiz-adv-x="1740" 
d="M473 657q0 -118 46.5 -204.5t136 -133t214.5 -46.5q126 0 215 46.5t135 132.5t46 205v843h340v-858q0 -199 -92 -351.5t-259 -236.5t-385 -84t-385 84t-259 236.5t-92 351.5v858h339v-843zM429 1617l245 320h326l-271 -320h-300zM912 1617l243 320h329l-272 -320h-300z
" />
    <glyph glyph-name="uhungarumlaut" unicode="&#x171;" horiz-adv-x="1509" 
d="M1436 0h-334l-41 253q-71 -136 -189 -209.5t-264 -73.5q-156 0 -268 64.5t-171 185t-59 285.5v632h334v-583q0 -151 71.5 -230.5t205.5 -79.5q96 0 166 41.5t107.5 119t37.5 182.5v550h334v-756zM375 1254l222 361h301l-236 -361h-287zM830 1254l220 361h302l-237 -361
h-285z" />
    <glyph glyph-name="Uogonek" unicode="&#x172;" horiz-adv-x="1740" 
d="M1266 1500h340v-857q0 -161 -58.5 -290t-166.5 -217.5t-255 -131.5q-243 -72 -243 -148q0 -30 36.5 -45.5t107.5 -15.5q63 0 121 13v-191q-30 -10 -87.5 -18t-114.5 -8q-90 0 -159 23.5t-107 66t-38 99.5q0 60 41 107.5t125 85.5q-200 11 -353 98t-237 234.5t-84 337.5
v857h339v-841q0 -118 46.5 -205t136 -133.5t214.5 -46.5q126 0 215 46.5t135 133t46 205.5v841z" />
    <glyph glyph-name="uogonek" unicode="&#x173;" horiz-adv-x="1509" 
d="M1225.5 -190q31.5 -15 91.5 -15q64 0 119 13v-191q-28 -10 -85.5 -18t-114.5 -8q-87 0 -153 23.5t-102.5 67t-36.5 101.5q0 136 209 217h-51l-41 253q-71 -136 -189 -209.5t-264 -73.5q-156 0 -268 64.5t-171 185t-59 285.5v632h334v-583q0 -151 71.5 -230.5t205.5 -79.5
q96 0 166 41.5t107.5 119t37.5 182.5v550h334v-756l70 -381q-114 -33 -178 -70t-64 -77q0 -28 31.5 -43z" />
    <glyph glyph-name="Wcircumflex" unicode="&#x174;" horiz-adv-x="2676" 
d="M1932 314l363 1186h357l-482 -1500h-435l-397 1120l-397 -1120h-434l-483 1500h359l363 -1189l412 1189h362zM1518 1937l300 -320h-286l-194 150l-195 -150h-285l299 320h361z" />
    <glyph glyph-name="wcircumflex" unicode="&#x175;" horiz-adv-x="2239" 
d="M1589 329l302 808h334l-442 -1137h-341l-320 828l-326 -828h-341l-441 1137h338l301 -806l308 806h325zM1301 1615l286 -361h-272l-188 192l-187 -192h-274l286 361h349z" />
    <glyph glyph-name="Ycircumflex" unicode="&#x176;" horiz-adv-x="1794" 
d="M1392 1500h379l-703 -888v-612h-340v608l-706 892h379l496 -626zM1077 1937l300 -320h-286l-194 150l-195 -150h-285l299 320h361z" />
    <glyph glyph-name="ycircumflex" unicode="&#x177;" horiz-adv-x="1492" 
d="M1129 1137h355l-567 -1188q-76 -162 -197 -235.5t-271 -73.5q-111 0 -201 27t-172 83v241q87 -55 162 -78.5t166 -23.5q87 0 149.5 38.5t101.5 128.5l7 15h-141l-503 1066h368l369 -853zM938 1615l286 -361h-272l-188 192l-187 -192h-274l286 361h349z" />
    <glyph glyph-name="Ydieresis" unicode="&#x178;" horiz-adv-x="1794" 
d="M1392 1500h379l-703 -888v-612h-340v608l-706 892h379l496 -626zM454.5 1675.5q-52.5 45.5 -52.5 122.5q0 75 52.5 119t139.5 44t139.5 -44t52.5 -119q0 -77 -52.5 -122.5t-139.5 -45.5t-139.5 45.5zM1059.5 1675.5q-52.5 45.5 -52.5 122.5q0 75 52.5 119t139.5 44
t139.5 -44t52.5 -119q0 -77 -52.5 -122.5t-139.5 -45.5t-139.5 45.5z" />
    <glyph glyph-name="Zacute" unicode="&#x179;" horiz-adv-x="1583" 
d="M1494 1251l-958 -978h964v-273h-1418v251l959 977h-952v273h1405v-250zM577 1617l293 320h386l-337 -320h-342z" />
    <glyph glyph-name="zacute" unicode="&#x17a;" horiz-adv-x="1344" 
d="M1263 901l-765 -654h769v-247h-1192v236l767 655h-760v246h1181v-236zM484 1254l248 361h328l-262 -361h-314z" />
    <glyph glyph-name="Zdotaccent" unicode="&#x17b;" horiz-adv-x="1583" 
d="M1494 1251l-958 -978h964v-273h-1418v251l959 977h-952v273h1405v-250zM685.5 1651.5q-46.5 21.5 -72 61t-25.5 90.5q0 52 25.5 91.5t72 61.5t106.5 22t106.5 -22t72.5 -61.5t26 -91.5q0 -51 -25.5 -90.5t-72.5 -61t-107 -21.5t-106.5 21.5z" />
    <glyph glyph-name="zdotaccent" unicode="&#x17c;" horiz-adv-x="1344" 
d="M1263 901l-765 -654h769v-247h-1192v236l767 655h-760v246h1181v-236zM524.5 1315.5q-56.5 47.5 -56.5 125.5t56.5 125.5t147.5 47.5q92 0 148.5 -47.5t56.5 -125.5t-56.5 -125.5t-148.5 -47.5q-91 0 -147.5 47.5z" />
    <glyph glyph-name="Zcaron" unicode="&#x17d;" horiz-adv-x="1583" 
d="M1494 1251l-958 -978h964v-273h-1418v251l959 977h-952v273h1405v-250zM793 1787l194 150h285l-298 -321h-362l-300 321h286z" />
    <glyph glyph-name="zcaron" unicode="&#x17e;" horiz-adv-x="1344" 
d="M1263 901l-765 -654h769v-247h-1192v236l767 655h-760v246h1181v-236zM672 1422l188 193h273l-286 -361h-349l-286 361h272z" />
    <glyph glyph-name="longs" unicode="&#x17f;" horiz-adv-x="586" 
d="M521 1262.5q-61 -54.5 -61 -176.5v-1086h-335v1064q0 240 141 373t416 133q81 0 149 -12t145 -36v-252q-117 47 -253 47q-141 0 -202 -54.5z" />
    <glyph glyph-name="uni0180" unicode="&#x180;" horiz-adv-x="1600" 
d="M1256.5 1050.5q128.5 -72.5 200.5 -203.5t72 -302q0 -169 -72 -300t-200.5 -203t-293.5 -72q-159 0 -288.5 72t-214.5 203v-245h-335v1211h-151v205h151v124h335v-124h570v-205h-570v-362q86 131 215.5 202.5t287.5 71.5q165 0 293.5 -72.5zM1035 270q73 40 114 112
t41 163q0 92 -41 164.5t-114 113t-166 40.5q-92 0 -175.5 -40t-147.5 -112.5t-99 -165.5q35 -92 99 -163.5t147.5 -111.5t175.5 -40q93 0 166 40z" />
    <glyph glyph-name="uni0181" unicode="&#x181;" horiz-adv-x="2116" 
d="M1959.5 654.5q83.5 -97.5 83.5 -238.5q0 -123 -57 -216.5t-169 -146.5t-273 -53h-1053l117 770l-77 477h-44q-77 0 -116.5 -38t-39.5 -120q0 -58 12.5 -113.5t33.5 -113.5h-260q-34 73 -55 146.5t-21 151.5q0 161 96 250.5t273 89.5h1096q138 0 236 -44t149.5 -126
t51.5 -195q0 -110 -57 -202.5t-176 -144.5q166 -36 249.5 -133.5zM1548.5 1204q-51.5 45 -143.5 45h-550l58 -357h478q93 0 151 52t58 142q0 73 -51.5 118zM1474 251q106 0 166 50.5t60 142.5q0 95 -69 149.5t-199 54.5h-518l-61 -397h621z" />
    <glyph glyph-name="uni0186" unicode="&#x186;" horiz-adv-x="1846" 
d="M410 611q31 -164 161 -254t337 -90q157 0 272.5 58.5t177.5 168t62 256.5t-62 256.5t-177.5 168t-272.5 58.5q-137 0 -242 -41.5t-170.5 -119t-85.5 -183.5h-342q22 190 133 335.5t293 225.5t412 80q255 0 449.5 -97.5t301.5 -274.5t107 -408t-107 -408t-301.5 -274.5
t-449.5 -97.5q-230 0 -412 80t-293 225.5t-133 335.5h342z" />
    <glyph glyph-name="uni0187" unicode="&#x187;" horiz-adv-x="1901" 
d="M2009 1761v-257q-48 16 -89 24.5t-85 8.5q-95 0 -141.5 -42t-46.5 -116q0 -42 15.5 -97t47.5 -136q2 -4 4 -10.5t5 -14.5q23 -69 38 -123.5t22 -108.5h-340q-21 106 -87 183.5t-171.5 119t-241.5 41.5q-157 0 -272.5 -58.5t-178 -167.5t-62.5 -256t62.5 -256.5
t178 -168.5t272.5 -59q206 0 337.5 90t162.5 254h340q-22 -190 -133 -335.5t-293 -225.5t-412 -80q-255 0 -449.5 97.5t-301.5 274.5t-107 408q0 230 107 407.5t299.5 275t439.5 97.5q278 0 456 -124q-12 51 -12 92q0 88 42.5 157t129 109t212.5 40q133 0 252 -43z" />
    <glyph glyph-name="uni0188" unicode="&#x188;" horiz-adv-x="1546" 
d="M1603 1458q61 -16 124 -44v-244q-61 26 -106 37.5t-93 11.5q-96 0 -139.5 -41.5t-43.5 -126.5q0 -49 11 -96.5t39 -143.5q3 -10 7 -23t9 -30l24 -86h-334q-25 114 -118 178t-226 64q-106 0 -184.5 -41t-121 -119t-42.5 -186q0 -107 42.5 -185t121 -119t184.5 -41
q88 0 160 29.5t120 84t64 127.5h334q-18 -146 -110.5 -258t-241 -174t-329.5 -62q-200 0 -355.5 75.5t-242 212.5t-86.5 314q0 173 82.5 308.5t230.5 211.5t338 76q212 0 360 -102q-3 26 -3 53q0 174 102.5 264.5t284.5 90.5q77 0 138 -16z" />
    <glyph glyph-name="uni0189" unicode="&#x189;" horiz-adv-x="1880" 
d="M925 1500q259 0 457 -93.5t307.5 -263.5t109.5 -393t-109.5 -393t-307.5 -263.5t-457 -93.5h-713v633h-159v238h159v629h713zM950 300q152 0 266.5 55.5t177 157.5t62.5 237t-62.5 237t-177 157.5t-266.5 55.5h-400v-329h377v-238h-377v-333h400z" />
    <glyph glyph-name="uni018A" unicode="&#x18a;" horiz-adv-x="2255" 
d="M1300 1500q259 0 457 -93.5t307.5 -263.5t109.5 -393t-109.5 -393t-307.5 -263.5t-457 -93.5h-713v1214h-92q-80 0 -120 -35t-40 -115q0 -94 42 -202h-260q-34 74 -55 145.5t-21 150.5q0 164 98 253t291 89h870zM1325 300q152 0 266.5 55.5t177 157.5t62.5 237t-62.5 237
t-177 157.5t-266.5 55.5h-400v-900h400z" />
    <glyph glyph-name="uni018E" unicode="&#x18e;" horiz-adv-x="1560" 
d="M113 1500h1341l-117 -750l117 -750h-1351v282h982l-53 338h-866v260h866l53 338h-972v282z" />
    <glyph glyph-name="uni018F" unicode="&#x18f;" horiz-adv-x="1845" 
d="M1370 1428q192 -103 292 -281t100 -400q0 -230 -106.5 -406.5t-298 -273.5t-440.5 -97q-263 0 -452.5 111t-288 306.5t-98.5 446.5h1334q-17 129 -82 221t-171 140.5t-244 48.5q-194 0 -315.5 -80t-164.5 -214h-342q33 171 142.5 302.5t284 205t394.5 73.5
q264 0 456 -103zM1233.5 341.5q127.5 89.5 167.5 253.5h-960q25 -104 88.5 -181.5t162 -119.5t224.5 -42q190 0 317.5 89.5z" />
    <glyph glyph-name="uni0190" unicode="&#x190;" horiz-adv-x="1621" 
d="M1571 486q-7 -156 -102 -272.5t-263.5 -180t-392.5 -63.5q-227 0 -390.5 59t-249 164t-85.5 241q0 137 92.5 224.5t263.5 118.5q-160 39 -241.5 128.5t-81.5 210.5q0 123 81.5 217t231.5 145.5t349 51.5q225 0 389.5 -66t255.5 -180.5t102 -256.5h-339q-20 114 -119 175
t-271 61q-168 0 -253 -50.5t-85 -142.5q0 -88 77 -137t243 -49h264v-238h-264q-130 0 -207 -21t-110.5 -62t-33.5 -104q0 -106 97.5 -164t283.5 -58q193 0 297.5 63.5t120.5 185.5h340z" />
    <glyph glyph-name="uni0191" unicode="&#x191;" horiz-adv-x="1511" 
d="M1437 1209h-944v-344h909v-291h-909v-465q0 -227 -119 -348t-349 -121q-71 0 -139.5 10.5t-123.5 31.5v258q95 -33 183 -33q106 0 157.5 57.5t51.5 172.5v1363h1283v-291z" />
    <glyph glyph-name="florin" unicode="&#x192;" horiz-adv-x="1162" 
d="M706 1262.5q-62 -54.5 -62 -176.5v-35h492v-264h-492v-641q0 -240 -137.5 -373t-407.5 -133q-77 0 -139 12t-132 36v252q107 -47 230 -47q134 0 193 54.5t59 176.5v663h-237v264h237v13q0 158 62 271.5t187 174t309 60.5q82 0 149.5 -12t143.5 -36v-252q-116 47 -253 47
q-140 0 -202 -54.5z" />
    <glyph glyph-name="uni0193" unicode="&#x193;" horiz-adv-x="1943" 
d="M2016 1761v-257q-48 16 -89 24.5t-85 8.5q-95 0 -141.5 -42t-46.5 -116q0 -41 15.5 -95t47.5 -138l13 -37q37 -109 48 -163h-343q-21 90 -87.5 156.5t-170.5 102.5t-234 36q-158 0 -274 -57t-178.5 -167.5t-62.5 -266.5q0 -158 66 -270.5t188.5 -170.5t289.5 -58
q195 0 332.5 73.5t192.5 205.5h-479v227h776v-757h-244l-18 235q-97 -125 -250.5 -195t-356.5 -70q-238 0 -429 93.5t-301 270.5t-110 416q0 241 112 418t304.5 269.5t429.5 92.5q147 0 260.5 -32t202.5 -98q-14 50 -14 98q0 88 42.5 157t129 109t212.5 40q133 0 252 -43z
" />
    <glyph glyph-name="uni0194" unicode="&#x194;" horiz-adv-x="1797" 
d="M1438 1500h362l-706 -910l470 -590h-1327l463 586l-704 914h372l531 -687zM745 198h310l-156 196z" />
    <glyph glyph-name="uni0196" unicode="&#x196;" horiz-adv-x="805" 
d="M146 1500h339v-1082q0 -96 34 -138.5t116 -42.5q61 0 129 21v-257q-100 -31 -219 -31q-204 0 -301.5 108.5t-97.5 320.5v1101z" />
    <glyph glyph-name="uni0197" unicode="&#x197;" horiz-adv-x="770" 
d="M555 892h176v-239h-176v-653h-340v653h-177v239h177v608h340v-608z" />
    <glyph glyph-name="uni0198" unicode="&#x198;" horiz-adv-x="1739" 
d="M1709 0h-390l-385 612l-475 -612h-305v1500h338v-1026l656 871q46 61 92 100.5t108.5 62t145.5 22.5q103 0 205 -31v-257q-50 12 -84 17t-68 5q-66 0 -107 -26.5t-82 -78.5l-216 -278z" />
    <glyph glyph-name="uni0199" unicode="&#x199;" horiz-adv-x="1430" 
d="M1439 0h-383l-259 428l-368 -428h-304v1081q0 248 129.5 368.5t414.5 120.5q89 0 172.5 -14t149.5 -38v-253q-57 24 -125.5 37.5t-139.5 13.5q-142 0 -204 -63t-62 -200v-630l588 714h359l-397 -462z" />
    <glyph glyph-name="uni019A" unicode="&#x19a;" horiz-adv-x="820" 
d="M578 907h181v-205h-181v-702h-334v702h-182v205h182v633h334v-633z" />
    <glyph glyph-name="uni019B" unicode="&#x19b;" horiz-adv-x="1429" 
d="M1422 0h-361l-352 785l-371 -785h-360l499 974h148l-52 114l-323 -107l-57 179l289 96q-31 34 -69.5 51t-90.5 17q-84 0 -161 -26.5t-155 -76.5v232q85 61 168.5 89t191.5 28q121 0 221.5 -55.5t174.5 -164.5l340 113l58 -180l-308 -102z" />
    <glyph glyph-name="uni019C" unicode="&#x19c;" horiz-adv-x="2422" 
d="M2326 0h-340l-41 253q-69 -137 -182 -210t-254 -73q-163 0 -276 76t-165 216q-68 -141 -182.5 -216.5t-258.5 -75.5q-152 0 -261 64.5t-166.5 185t-57.5 285.5v995h339v-940q0 -145 66.5 -222t190.5 -77q88 0 153.5 41t101 116t35.5 175v907h340v-940q0 -145 66 -222
t190 -77q89 0 154.5 41t101 116t35.5 175v907h339v-1119z" />
    <glyph glyph-name="uni019D" unicode="&#x19d;" horiz-adv-x="1909" 
d="M1426 1500h329v-1500h-429l-843 1138v-1018q0 -235 -119 -357.5t-356 -122.5q-132 0 -246 36v258q93 -26 175 -26q113 0 165 57t52 175v1360h440l832 -1119v1119z" />
    <glyph glyph-name="uni019E" unicode="&#x19e;" horiz-adv-x="1531" 
d="M1186 1103.5q115 -64.5 175 -185t60 -285.5v-963h-335v912q0 152 -74 232t-214 80q-98 0 -170.5 -42.5t-112 -120t-39.5 -180.5v-551h-334v755l-72 382h334l42 -255q72 138 193.5 212t270.5 74q161 0 276 -64.5z" />
    <glyph glyph-name="uni019F" unicode="&#x19f;" horiz-adv-x="1913" 
d="M1413.5 1432.5q198.5 -97.5 308.5 -274.5t110 -408t-110 -408t-308.5 -274.5t-457.5 -97.5q-258 0 -457 97.5t-308.5 274.5t-109.5 408t109.5 408t308.5 274.5t457 97.5q259 0 457.5 -97.5zM709.5 1195.5q-108.5 -42.5 -179.5 -122t-97 -190.5h1046q-26 111 -96.5 190.5
t-179.5 122t-247 42.5t-246.5 -42.5zM1203 304.5q109 42.5 179.5 122t96.5 190.5h-1046q26 -111 97 -190.5t179.5 -122t246.5 -42.5t247 42.5z" />
    <glyph glyph-name="Ohorn" unicode="&#x1a0;" horiz-adv-x="1915" 
d="M498 67.5q-198 97.5 -307.5 274.5t-109.5 408t109.5 408t307.5 274.5t457 97.5q135 0 256 -26q101 -24 179 -24q99 0 145.5 37t46.5 97q0 34 -13.5 72t-39.5 75h271q28 -46 43.5 -96t15.5 -97q0 -101 -70.5 -169.5t-203.5 -90.5q117 -101 180.5 -243.5t63.5 -314.5
q0 -230 -109.5 -407.5t-308 -275t-456.5 -97.5q-259 0 -457 97.5zM1237 331q120 58 184.5 165.5t64.5 253.5t-64.5 253.5t-184.5 165.5t-282 58t-282 -58t-184.5 -165.5t-64.5 -253.5t64.5 -253.5t184.5 -165.5t282 -58t282 58z" />
    <glyph glyph-name="ohorn" unicode="&#x1a1;" horiz-adv-x="1583" 
d="M406.5 45q-161.5 75 -250.5 210.5t-89 312.5q0 178 89 314t250.5 211t371.5 75q73 0 120.5 -7t123.5 -22q55 -12 113 -12q81 0 123 32t42 93q0 35 -12.5 75.5t-32.5 69.5h259q50 -87 50 -187q0 -99 -62 -164.5t-174 -86.5q78 -73 119.5 -172.5t41.5 -218.5
q0 -177 -89 -312.5t-250.5 -210.5t-371.5 -75t-371.5 75zM976.5 265q83.5 42 128.5 119.5t45 183.5t-45 184t-129 120t-198 42q-115 0 -199 -42t-129 -120t-45 -184t45 -183.5t129 -119.5t199 -42t198.5 42z" />
    <glyph glyph-name="uni01A4" unicode="&#x1a4;" horiz-adv-x="2025" 
d="M1403 1500q176 0 306.5 -62t201 -174.5t70.5 -259.5t-70.5 -259t-201 -174t-306.5 -62h-478v-509h-340v1214h-90q-80 0 -120 -35t-40 -115q0 -94 42 -202h-260q-34 74 -55 145.5t-21 150.5q0 164 98 253t291 89h973zM1386 789q118 0 184.5 57t66.5 158t-66.5 158.5
t-184.5 57.5h-461v-431h461z" />
    <glyph glyph-name="uni01A5" unicode="&#x1a5;" horiz-adv-x="1599" 
d="M1256.5 1070q128.5 -74 200 -207.5t71.5 -306.5t-71.5 -306t-200 -206.5t-293.5 -73.5q-160 0 -290 74.5t-215 209.5v-584h-335v1411q0 248 129.5 368.5t414.5 120.5q89 0 172.5 -14t149.5 -38v-253q-57 24 -125.5 37.5t-139.5 13.5q-142 0 -204 -63t-62 -200v-190
q86 134 216 207.5t289 73.5q165 0 293.5 -74zM1035 271.5q73 41.5 114 115.5t41 169t-41 169.5t-114 116.5t-165 42q-93 0 -176.5 -41.5t-147.5 -116t-100 -170.5q36 -96 100 -170t147.5 -115t176.5 -41q92 0 165 41.5z" />
    <glyph glyph-name="uni01A9" unicode="&#x1a9;" horiz-adv-x="1534" 
d="M991 635l-439 -359h911v-276h-1386v251l611 501l-593 498v250h1342v-276h-871l425 -357v-232z" />
    <glyph glyph-name="uni01AA" unicode="&#x1aa;" horiz-adv-x="1113" 
d="M1313 -63v-255q-54 -21 -123 -31.5t-140 -10.5q-228 0 -340.5 120t-112.5 347v731q-91 -58 -208 -58q-119 0 -214.5 51t-149.5 142t-54 204t54 202t159.5 140t253.5 51q156 0 267 -57t168.5 -164.5t57.5 -256.5v-956q0 -118 46.5 -175t151.5 -57q89 0 184 33z
M514.5 1014.5q46.5 23.5 82.5 68.5v47q0 88 -49 141.5t-140 53.5q-85 0 -129.5 -43.5t-44.5 -117.5q0 -78 48.5 -125.5t130.5 -47.5q55 0 101.5 23.5z" />
    <glyph glyph-name="uni01AC" unicode="&#x1ac;" horiz-adv-x="1768" 
d="M1733 1500v-300h-596v-1200h-340v1200h-297q-167 0 -167 -150q0 -46 11 -91t31 -97h-259q-34 74 -55 145.5t-21 150.5q0 164 98 253t291 89h1304z" />
    <glyph glyph-name="uni01AD" unicode="&#x1ad;" horiz-adv-x="1160" 
d="M664 1269.5q-63 -46.5 -77 -144.5h498v-251h-503v-402q0 -90 24 -141.5t77 -74.5t145 -23q83 0 150 16t127 47v-260q-62 -27 -158 -46.5t-193 -19.5q-258 0 -382 120t-124 335v449h-237v148l237 80q5 237 134.5 352.5t409.5 115.5q89 0 172.5 -14t149.5 -38v-253
q-57 24 -125.5 37.5t-140.5 13.5q-121 0 -184 -46.5z" />
    <glyph glyph-name="uni01AE" unicode="&#x1ae;" horiz-adv-x="1604" 
d="M1567 1200h-596v-1063q0 -117 46 -173.5t150 -56.5q89 0 184 33v-258q-56 -21 -124 -31.5t-138 -10.5q-229 0 -343.5 120.5t-114.5 348.5v1091h-596v300h1532v-300z" />
    <glyph glyph-name="Uhorn" unicode="&#x1af;" horiz-adv-x="1852" 
d="M1906 1438.5q-41 -57.5 -117.5 -90.5t-182.5 -37v-669q0 -199 -92 -351.5t-259 -236.5t-385 -84t-385 84t-259 236.5t-92 351.5v858h339v-843q0 -118 46.5 -204.5t136 -133t214.5 -46.5q126 0 215 46.5t135 132.5t46 205v843h278h6q61 0 97 31t36 83q0 33 -14 71.5
t-40 75.5h259q59 -93 59 -188q0 -77 -41 -134.5z" />
    <glyph glyph-name="uhorn" unicode="&#x1b0;" horiz-adv-x="1634" 
d="M1665 1074.5q-41 -57.5 -117.5 -90.5t-181.5 -37v-566l70 -381h-334l-41 253q-71 -136 -189 -209.5t-264 -73.5q-156 0 -268 64.5t-171 185t-59 285.5v632h334v-583q0 -151 71.5 -230.5t205.5 -79.5q96 0 166 41.5t107.5 119t37.5 182.5v550h298q52 5 82 35.5t30 77.5
q0 33 -13.5 71.5t-39.5 75.5h258q59 -93 59 -188q0 -77 -41 -134.5z" />
    <glyph glyph-name="uni01B1" unicode="&#x1b1;" horiz-adv-x="1928" 
d="M1843 1500v-261h-320q135 -103 206 -243.5t71 -307.5q0 -205 -95.5 -368t-284 -256.5t-456.5 -93.5t-456 93.5t-283.5 256.5t-95.5 368q0 168 71 308t205 243h-319v261h710v-238q-162 -82 -248 -208t-86 -291q0 -149 60 -259.5t173 -170t269 -59.5t269.5 59.5t173.5 170
t60 259.5q0 165 -86 291t-248 208v238h710z" />
    <glyph glyph-name="uni01B2" unicode="&#x1b2;" horiz-adv-x="1749" 
d="M137 1500h338v-853q0 -178 82 -277.5t245 -99.5q141 0 259.5 88t188 245.5t69.5 355.5q0 142 -67.5 220t-191.5 78q-109 0 -210 -48v268q53 23 131 38t164 15q253 0 385.5 -142.5t132.5 -426.5q0 -272 -111 -498.5t-313 -359.5t-465 -133q-203 0 -346.5 82.5t-217 232
t-73.5 348.5v867z" />
    <glyph glyph-name="uni01B3" unicode="&#x1b3;" horiz-adv-x="1805" 
d="M1752 1499v-256q-67 20 -124 20q-55 0 -87.5 -21t-70.5 -72l-409 -556v-614h-340v608l-705 892h377l499 -631l325 443q61 84 111 130.5t105 67t131 20.5q95 0 188 -31z" />
    <glyph glyph-name="uni01B4" unicode="&#x1b4;" horiz-adv-x="1583" 
d="M1485 1156q51 -12 88 -30v-230q-65 31 -118 31q-60 0 -96.5 -31t-67.5 -101l-375 -846q-71 -162 -194 -235.5t-274 -73.5q-112 0 -201.5 27t-172.5 83v242q86 -55 161.5 -79t166.5 -24q88 0 150 38.5t102 128.5l7 15h-142l-502 1066h368l369 -854l263 599
q45 103 93.5 164.5t113.5 91.5t158 30q52 0 103 -12z" />
    <glyph glyph-name="uni01B5" unicode="&#x1b5;" horiz-adv-x="1597" 
d="M903 640l-360 -367h964v-273h-1418v251l382 389h-275v240h510l342 348h-952v273h1405v-250l-363 -371h269v-240h-504z" />
    <glyph glyph-name="uni01B6" unicode="&#x1b6;" horiz-adv-x="1356" 
d="M768 473l-264 -226h769v-247h-1192v236l277 237h-227v205h468l249 213h-760v246h1181v-236l-261 -223h222v-205h-462z" />
    <glyph glyph-name="uni01B7" unicode="&#x1b7;" horiz-adv-x="1602" 
d="M936 885q293 -7 438.5 -119t145.5 -308q0 -143 -84 -253.5t-246.5 -172.5t-392.5 -62q-224 0 -393 63.5t-264 180t-103 272.5h340q36 -249 420 -249q185 0 282 61t97 176q0 104 -85.5 159t-280.5 55h-226v232l439 311h-896v269h1321v-250z" />
    <glyph glyph-name="uni01B8" unicode="&#x1b8;" horiz-adv-x="1602" 
d="M1565 486q-8 -156 -103 -272.5t-264 -180t-393 -63.5q-230 0 -392.5 62t-246.5 172.5t-84 253.5q0 196 145.5 308t438.5 119l-512 365v250h1321v-269h-896l439 -311v-232h-226q-195 0 -280.5 -55t-85.5 -159q0 -115 97 -176t282 -61q384 0 420 249h340z" />
    <glyph glyph-name="uni01B9" unicode="&#x1b9;" horiz-adv-x="1451" 
d="M1433 148q-8 -147 -92.5 -262t-239 -180.5t-362.5 -65.5q-218 0 -372.5 60.5t-233.5 167t-79 244.5q0 122 61.5 219t189 155.5t319.5 63.5l-489 346v241h1198v-246h-807l448 -324v-213h-221q-188 0 -274 -61t-86 -166q0 -74 40.5 -128t118.5 -83t187 -29t190 32.5
t127.5 91.5t58.5 137h318z" />
    <glyph glyph-name="uni01C0" unicode="&#x1c0;" horiz-adv-x="565" 
d="M125 -210v1750h314v-1750h-314z" />
    <glyph glyph-name="uni01C1" unicode="&#x1c1;" horiz-adv-x="1128" 
d="M125 -210v1750h314v-1750h-314zM688 -210v1750h314v-1750h-314z" />
    <glyph glyph-name="uni01C2" unicode="&#x1c2;" horiz-adv-x="827" 
d="M732 1003v-205h-161v-266h161v-205h-161v-537h-314v537h-162v205h162v266h-162v205h162v537h314v-537h161z" />
    <glyph glyph-name="uni01C3" unicode="&#x1c3;" horiz-adv-x="534" 
d="M149 493l-55 1007h347l-55 -1007h-237zM166.5 5q-44.5 23 -69 64.5t-24.5 94.5t24.5 95t69 65t101.5 23t101 -23t68.5 -65t24.5 -95t-24.5 -94.5t-68.5 -64.5t-101 -23t-101.5 23z" />
    <glyph glyph-name="uni01C4" unicode="&#x1c4;" horiz-adv-x="3329" 
d="M3018 1937l-299 -321h-362l-300 321h287l194 -150l194 150h286zM3240 1251l-958 -978h964v-273h-1418v251l959 977h-952v273h1405v-250zM867 1500q259 0 457 -93.5t307.5 -263.5t109.5 -393t-109.5 -393t-307.5 -263.5t-457 -93.5h-713v1500h713zM892 300
q152 0 266.5 55.5t177 157.5t62.5 237t-62.5 237t-177 157.5t-266.5 55.5h-400v-900h400z" />
    <glyph glyph-name="uni01C5" unicode="&#x1c5;" horiz-adv-x="3156" 
d="M2945 1615l-286 -361h-349l-286 361h272l188 -192l187 192h274zM868 1500q258 0 456.5 -93.5t308 -263.5t109.5 -393t-109.5 -393t-308 -263.5t-456.5 -93.5h-714v1500h714zM892 300q152 0 266.5 55.5t177 157.5t62.5 237t-62.5 237t-177 157.5t-266.5 55.5h-399v-900
h399zM3075 901l-765 -654h769v-247h-1192v236l767 655h-760v246h1181v-236z" />
    <glyph glyph-name="uni01C6" unicode="&#x1c6;" horiz-adv-x="2943" 
d="M1564 1540l-110 -948l65 -592h-344l-30 265q-86 -140 -217 -217.5t-291 -77.5q-165 0 -294 75t-200.5 211t-71.5 312q0 177 71.5 313.5t200 211.5t294.5 75q160 0 291 -76t216 -215l74 663h346zM906 273q84 43 147.5 119.5t99.5 175.5q-36 99 -99.5 176t-147.5 120.5
t-177 43.5q-92 0 -164.5 -43.5t-113.5 -121t-41 -175.5t41 -175t113.5 -120t164.5 -43q93 0 177 43zM2862 901l-765 -654h769v-247h-1192v236l767 655h-760v246h1181v-236zM2271 1422l188 193h273l-286 -361h-349l-286 361h272z" />
    <glyph glyph-name="uni01C7" unicode="&#x1c7;" horiz-adv-x="3087" 
d="M493 1500v-1200h974v-300h-1313v1500h339zM1545 728h333v-58q0 -199 87.5 -301t278.5 -102q188 0 278 97.5t90 281.5v854h339v-870q0 -209 -88 -357.5t-247.5 -225.5t-371.5 -77q-210 0 -367.5 79t-244 231t-86.5 366z" />
    <glyph glyph-name="uni01C8" unicode="&#x1c8;" horiz-adv-x="2072" 
d="M1632 1315.5q-56 47.5 -56 125.5t56 125.5t148 47.5q91 0 147.5 -47.5t56.5 -125.5t-56.5 -125.5t-147.5 -47.5q-92 0 -148 47.5zM154 1500h340v-1200h973v-300h-1313v1500zM1613 -330v1480l167 -32l167 32v-1480h-334z" />
    <glyph glyph-name="uni01C9" unicode="&#x1c9;" horiz-adv-x="1148" 
d="M708 1315.5q-56 47.5 -56 125.5t56 125.5t148 47.5q91 0 147.5 -47.5t56.5 -125.5t-56.5 -125.5t-147.5 -47.5q-92 0 -148 47.5zM125 0v1540h335v-1540h-335zM689 -330v1480l167 -32l167 32v-1480h-334z" />
    <glyph glyph-name="uni01CA" unicode="&#x1ca;" horiz-adv-x="3495" 
d="M1426 383v1117h329v-1500h-429l-843 1137v-1137h-329v1500h440zM1953 728h333v-58q0 -199 87.5 -301t278.5 -102q188 0 278 97.5t90 281.5v854h339v-870q0 -209 -88 -357.5t-247.5 -225.5t-371.5 -77q-210 0 -367.5 79t-244 231t-86.5 366z" />
    <glyph glyph-name="uni01CB" unicode="&#x1cb;" horiz-adv-x="2477" 
d="M1427 383v1117h329v-1500h-429l-843 1137v-1137h-329v1500h440zM2017 -330v1480l168 -32l167 32v-1480h-335zM2036.5 1315.5q-56.5 47.5 -56.5 125.5t56.5 125.5t147.5 47.5q92 0 148.5 -47.5t56.5 -125.5t-56.5 -125.5t-148.5 -47.5q-91 0 -147.5 47.5z" />
    <glyph glyph-name="uni01CC" unicode="&#x1cc;" horiz-adv-x="2091" 
d="M1187.5 1103.5q114.5 -64.5 174.5 -185t60 -285.5v-633h-334v582q0 152 -74.5 232t-214.5 80q-98 0 -170.5 -42.5t-112 -120t-39.5 -180.5v-551h-334v755l-72 382h335l42 -255q71 138 192.5 212t271.5 74q161 0 275.5 -64.5zM1631 -330v1480l168 -32l167 32v-1480h-335z
M1650.5 1315.5q-56.5 47.5 -56.5 125.5t56.5 125.5t147.5 47.5q92 0 148.5 -47.5t56.5 -125.5t-56.5 -125.5t-148.5 -47.5q-91 0 -147.5 47.5z" />
    <glyph glyph-name="uni01CD" unicode="&#x1cd;" horiz-adv-x="1856" 
d="M1848 0h-362l-142 316h-832l-142 -316h-362l701 1500h438zM928 1239l-291 -647h583zM929 1787l194 150h285l-298 -321h-362l-300 321h286z" />
    <glyph glyph-name="uni01CE" unicode="&#x1ce;" horiz-adv-x="1613" 
d="M1515 1137l-66 -568l66 -569h-346l-30 256q-85 -136 -214.5 -211t-287.5 -75q-165 0 -294 75t-200.5 211t-71.5 312q0 177 71.5 313.5t200 211.5t294.5 75q158 0 287.5 -74.5t215.5 -210.5l29 254h346zM906 273q84 43 147.5 119.5t99.5 175.5q-36 99 -99.5 176
t-147.5 120.5t-177 43.5q-92 0 -164.5 -43.5t-113.5 -121t-41 -175.5t41 -175t113.5 -120t164.5 -43q93 0 177 43zM797 1422l188 193h273l-286 -361h-349l-286 361h272z" />
    <glyph glyph-name="uni01CF" unicode="&#x1cf;" horiz-adv-x="647" 
d="M154 0v1500h339v-1500h-339zM324 1787l194 150h285l-298 -321h-362l-300 321h286z" />
    <glyph glyph-name="uni01D0" unicode="&#x1d0;" horiz-adv-x="585" 
d="M125 0v1150l168 -32l167 32v-1150h-335zM292 1422l188 193h273l-286 -361h-349l-286 361h272z" />
    <glyph glyph-name="uni01D1" unicode="&#x1d1;" horiz-adv-x="1913" 
d="M499 67.5q-199 97.5 -308.5 274.5t-109.5 408t109.5 408t308.5 274.5t457 97.5q259 0 457.5 -97.5t308.5 -274.5t110 -408t-110 -408t-308.5 -274.5t-457.5 -97.5q-258 0 -457 97.5zM1238.5 331q120.5 58 185 165.5t64.5 253.5t-64.5 253.5t-185 165.5t-282.5 58
t-282 -58t-185 -165.5t-65 -253.5t65 -253.5t185 -165.5t282 -58t282.5 58zM957 1787l194 150h285l-298 -321h-362l-300 321h286z" />
    <glyph glyph-name="uni01D2" unicode="&#x1d2;" horiz-adv-x="1556" 
d="M406.5 45q-161.5 75 -250.5 210.5t-89 312.5q0 178 89 314t250.5 211t371.5 75t371.5 -75t250.5 -211t89 -314q0 -177 -89 -312.5t-250.5 -210.5t-371.5 -75t-371.5 75zM976.5 265q83.5 42 128.5 119.5t45 183.5t-45 184t-129 120t-198 42q-115 0 -199 -42t-129 -120
t-45 -184t45 -183.5t129 -119.5t199 -42t198.5 42zM777 1422l188 193h273l-286 -361h-349l-286 361h272z" />
    <glyph glyph-name="uni01D3" unicode="&#x1d3;" horiz-adv-x="1740" 
d="M473 657q0 -118 46.5 -204.5t136 -133t214.5 -46.5q126 0 215 46.5t135 132.5t46 205v843h340v-858q0 -199 -92 -351.5t-259 -236.5t-385 -84t-385 84t-259 236.5t-92 351.5v858h339v-843zM870 1787l194 150h285l-298 -321h-362l-300 321h286z" />
    <glyph glyph-name="uni01D4" unicode="&#x1d4;" horiz-adv-x="1508" 
d="M1436 0h-334l-41 253q-71 -136 -189 -209.5t-264 -73.5q-156 0 -268 64.5t-171 185t-59 285.5v632h334v-583q0 -151 71.5 -230.5t205.5 -79.5q96 0 166 41.5t107.5 119t37.5 182.5v550h334v-756zM747 1422l188 193h273l-286 -361h-349l-286 361h272z" />
    <glyph glyph-name="uni01D5" unicode="&#x1d5;" horiz-adv-x="1740" 
d="M473 657q0 -118 46.5 -204.5t136 -133t214.5 -46.5q126 0 215 46.5t135 132.5t46 205v843h340v-858q0 -199 -92 -351.5t-259 -236.5t-385 -84t-385 84t-259 236.5t-92 351.5v858h339v-843zM428.5 1675.5q-52.5 45.5 -52.5 122.5q0 75 52.5 119t139.5 44t139.5 -44
t52.5 -119q0 -77 -52.5 -122.5t-139.5 -45.5t-139.5 45.5zM1033.5 1675.5q-52.5 45.5 -52.5 122.5q0 75 52.5 119t139.5 44t139.5 -44t52.5 -119q0 -77 -52.5 -122.5t-139.5 -45.5t-139.5 45.5zM1331 2067h-919v209h919v-209z" />
    <glyph glyph-name="uni01D6" unicode="&#x1d6;" horiz-adv-x="1508" 
d="M1436 0h-334l-41 253q-71 -136 -189 -209.5t-264 -73.5q-156 0 -268 64.5t-171 185t-59 285.5v632h334v-583q0 -151 71.5 -230.5t205.5 -79.5q96 0 166 41.5t107.5 119t37.5 182.5v550h334v-756zM1207 1699h-919v209h919v-209zM309.5 1313q-52.5 45 -52.5 122
q0 74 53 119t139 45t139 -45t53 -119q0 -77 -52.5 -122t-139.5 -45t-139.5 45zM908.5 1313q-52.5 45 -52.5 122q0 74 53 119t139 45t138 -45t52 -119q0 -77 -52 -122t-138 -45q-87 0 -139.5 45z" />
    <glyph glyph-name="uni01D7" unicode="&#x1d7;" horiz-adv-x="1740" 
d="M473 657q0 -118 46.5 -204.5t136 -133t214.5 -46.5q126 0 215 46.5t135 132.5t46 205v843h340v-858q0 -199 -92 -351.5t-259 -236.5t-385 -84t-385 84t-259 236.5t-92 351.5v858h339v-843zM427.5 1675.5q-52.5 45.5 -52.5 122.5q0 75 52.5 119t139.5 44t139.5 -44
t52.5 -119q0 -77 -52.5 -122.5t-139.5 -45.5t-139.5 45.5zM1032.5 1675.5q-52.5 45.5 -52.5 122.5q0 75 52.5 119t139.5 44t139.5 -44t52.5 -119q0 -77 -52.5 -122.5t-139.5 -45.5t-139.5 45.5zM655 2038l293 320h386l-337 -320h-342z" />
    <glyph glyph-name="uni01D8" unicode="&#x1d8;" horiz-adv-x="1508" 
d="M1436 0h-334l-41 253q-71 -136 -189 -209.5t-264 -73.5q-156 0 -268 64.5t-171 185t-59 285.5v632h334v-583q0 -151 71.5 -230.5t205.5 -79.5q96 0 166 41.5t107.5 119t37.5 182.5v550h334v-756zM533 1687l294 320h386l-338 -320h-342zM309.5 1313q-52.5 45 -52.5 122
q0 74 53 119t139 45t139 -45t53 -119q0 -77 -52.5 -122t-139.5 -45t-139.5 45zM908.5 1313q-52.5 45 -52.5 122q0 74 53 119t139 45t138 -45t52 -119q0 -77 -52 -122t-138 -45q-87 0 -139.5 45z" />
    <glyph glyph-name="uni01D9" unicode="&#x1d9;" horiz-adv-x="1740" 
d="M473 657q0 -118 46.5 -204.5t136 -133t214.5 -46.5q126 0 215 46.5t135 132.5t46 205v843h340v-858q0 -199 -92 -351.5t-259 -236.5t-385 -84t-385 84t-259 236.5t-92 351.5v858h339v-843zM427.5 1675.5q-52.5 45.5 -52.5 122.5q0 75 52.5 119t139.5 44t139.5 -44
t52.5 -119q0 -77 -52.5 -122.5t-139.5 -45.5t-139.5 45.5zM1032.5 1675.5q-52.5 45.5 -52.5 122.5q0 75 52.5 119t139.5 44t139.5 -44t52.5 -119q0 -77 -52.5 -122.5t-139.5 -45.5t-139.5 45.5zM871 2208l194 150h285l-298 -321h-362l-300 321h286z" />
    <glyph glyph-name="uni01DA" unicode="&#x1da;" horiz-adv-x="1508" 
d="M1436 0h-334l-41 253q-71 -136 -189 -209.5t-264 -73.5q-156 0 -268 64.5t-171 185t-59 285.5v632h334v-583q0 -151 71.5 -230.5t205.5 -79.5q96 0 166 41.5t107.5 119t37.5 182.5v550h334v-756zM1228 2007l-299 -321h-361l-301 321h287l195 -150l194 150h285zM588 1554
q53 -45 53 -119q0 -77 -52.5 -122t-139.5 -45t-139.5 45t-52.5 122q0 74 53 119t139 45t139 -45zM1186 1554q52 -45 52 -119q0 -77 -52 -122t-138 -45q-87 0 -139.5 45t-52.5 122q0 74 53 119t139 45t138 -45z" />
    <glyph glyph-name="uni01DB" unicode="&#x1db;" horiz-adv-x="1740" 
d="M473 657q0 -118 46.5 -204.5t136 -133t214.5 -46.5q126 0 215 46.5t135 132.5t46 205v843h340v-858q0 -199 -92 -351.5t-259 -236.5t-385 -84t-385 84t-259 236.5t-92 351.5v858h339v-843zM427.5 1675.5q-52.5 45.5 -52.5 122.5q0 75 52.5 119t139.5 44t139.5 -44
t52.5 -119q0 -77 -52.5 -122.5t-139.5 -45.5t-139.5 45.5zM1032.5 1675.5q-52.5 45.5 -52.5 122.5q0 75 52.5 119t139.5 44t139.5 -44t52.5 -119q0 -77 -52.5 -122.5t-139.5 -45.5t-139.5 45.5zM380 2358h386l293 -320h-342z" />
    <glyph glyph-name="uni01DC" unicode="&#x1dc;" horiz-adv-x="1508" 
d="M1436 0h-334l-41 253q-71 -136 -189 -209.5t-264 -73.5q-156 0 -268 64.5t-171 185t-59 285.5v632h334v-583q0 -151 71.5 -230.5t205.5 -79.5q96 0 166 41.5t107.5 119t37.5 182.5v550h334v-756zM258 2007h386l293 -320h-342zM309.5 1313q-52.5 45 -52.5 122q0 74 53 119
t139 45t139 -45t53 -119q0 -77 -52.5 -122t-139.5 -45t-139.5 45zM908.5 1313q-52.5 45 -52.5 122q0 74 53 119t139 45t138 -45t52 -119q0 -77 -52 -122t-138 -45q-87 0 -139.5 45z" />
    <glyph glyph-name="uni01DD" unicode="&#x1dd;" horiz-adv-x="1445" 
d="M1038 1092.5q160 -75.5 250 -212.5t90 -314q0 -175 -86.5 -310.5t-239.5 -210.5t-346 -75q-194 0 -337.5 86.5t-221 245.5t-77.5 371h949q-38 117 -148 180t-278 63q-129 0 -259 -37.5t-233 -104.5v224q113 80 262.5 125t312.5 45q202 0 362 -75.5zM916.5 279
q86.5 63 112.5 172h-634q28 -113 108 -174t201 -61q126 0 212.5 63z" />
    <glyph glyph-name="uni01DE" unicode="&#x1de;" horiz-adv-x="1856" 
d="M1848 0h-362l-142 316h-832l-142 -316h-362l701 1500h438zM928 1239l-291 -647h583zM487.5 1675.5q-52.5 45.5 -52.5 122.5q0 75 52.5 119t139.5 44t139.5 -44t52.5 -119q0 -77 -52.5 -122.5t-139.5 -45.5t-139.5 45.5zM1092.5 1675.5q-52.5 45.5 -52.5 122.5
q0 75 52.5 119t139.5 44t139.5 -44t52.5 -119q0 -77 -52.5 -122.5t-139.5 -45.5t-139.5 45.5zM1390 2067h-919v209h919v-209z" />
    <glyph glyph-name="uni01DF" unicode="&#x1df;" horiz-adv-x="1613" 
d="M1515 1137l-66 -568l66 -569h-346l-30 256q-85 -136 -214.5 -211t-287.5 -75q-165 0 -294 75t-200.5 211t-71.5 312q0 177 71.5 313.5t200 211.5t294.5 75q158 0 287.5 -74.5t215.5 -210.5l29 254h346zM906 273q84 43 147.5 119.5t99.5 175.5q-36 99 -99.5 176
t-147.5 120.5t-177 43.5q-92 0 -164.5 -43.5t-113.5 -121t-41 -175.5t41 -175t113.5 -120t164.5 -43q93 0 177 43zM1257 1699h-919v209h919v-209zM359.5 1313q-52.5 45 -52.5 122q0 74 53 119t139 45t139 -45t53 -119q0 -77 -52.5 -122t-139.5 -45t-139.5 45zM958.5 1313
q-52.5 45 -52.5 122q0 74 53 119t139 45t138 -45t52 -119q0 -77 -52 -122t-138 -45q-87 0 -139.5 45z" />
    <glyph glyph-name="uni01E0" unicode="&#x1e0;" horiz-adv-x="1856" 
d="M1848 0h-362l-142 316h-832l-142 -316h-362l701 1500h438zM928 1239l-291 -647h583zM822.5 1651.5q-46.5 21.5 -72 61t-25.5 90.5q0 52 25.5 91.5t72 61.5t106.5 22t106.5 -22t72.5 -61.5t26 -91.5q0 -51 -25.5 -90.5t-72.5 -61t-107 -21.5t-106.5 21.5zM1388 2067h-919
v209h919v-209z" />
    <glyph glyph-name="uni01E1" unicode="&#x1e1;" horiz-adv-x="1613" 
d="M1515 1137l-66 -568l66 -569h-346l-30 256q-85 -136 -214.5 -211t-287.5 -75q-165 0 -294 75t-200.5 211t-71.5 312q0 177 71.5 313.5t200 211.5t294.5 75q158 0 287.5 -74.5t215.5 -210.5l29 254h346zM906 273q84 43 147.5 119.5t99.5 175.5q-36 99 -99.5 176
t-147.5 120.5t-177 43.5q-92 0 -164.5 -43.5t-113.5 -121t-41 -175.5t41 -175t113.5 -120t164.5 -43q93 0 177 43zM1257 1699h-919v209h919v-209zM649.5 1315.5q-56.5 47.5 -56.5 125.5t56.5 125.5t148.5 47.5q91 0 147.5 -47.5t56.5 -125.5t-56.5 -125.5t-147.5 -47.5
q-92 0 -148.5 47.5z" />
    <glyph glyph-name="uni01E2" unicode="&#x1e2;" horiz-adv-x="2507" 
d="M1501 620l140 -338h793v-282h-1030l-126 316h-770l-132 -316h-362l650 1500h1710v-282h-1112l138 -338h921v-260h-820zM901 1260l-278 -668h545zM1941 1666h-919v209h919v-209z" />
    <glyph glyph-name="uni01E3" unicode="&#x1e3;" horiz-adv-x="2516" 
d="M2174.5 1080.5q136.5 -87.5 206 -242.5t63.5 -355h-941q33 -125 144.5 -193t295.5 -68q125 0 244.5 33t225.5 99v-218q-111 -80 -235 -123t-273 -43q-162 0 -293 53t-218 149l-8 -172h-245l-15 236q-86 -127 -211.5 -196.5t-277.5 -69.5q-165 0 -294 75t-200.5 211
t-71.5 312q0 177 71.5 313.5t200 211.5t294.5 75q152 0 277.5 -69t212.5 -195l14 233h245l7 -154q80 89 196 137t260 48q189 0 325.5 -87.5zM1607.5 864.5q-86.5 -66.5 -110.5 -184.5h648q-28 120 -110 185.5t-215 65.5q-126 0 -212.5 -66.5zM906 273q84 43 147.5 119.5
t99.5 175.5q-36 99 -99.5 176t-147.5 120.5t-177 43.5q-92 0 -164.5 -43.5t-113.5 -121t-41 -175.5t41 -175t113.5 -120t164.5 -43q93 0 177 43zM1721 1318h-919v208h919v-208z" />
    <glyph glyph-name="uni01E4" unicode="&#x1e4;" horiz-adv-x="1970" 
d="M1968 547v-188h-176v-357h-221l-13 255q-93 -138 -251.5 -212.5t-376.5 -74.5q-248 0 -440 95.5t-299.5 272.5t-107.5 412q0 240 111 416.5t305.5 270t441.5 93.5q228 0 400 -69.5t279.5 -193t147.5 -285.5h-357q-20 74 -82.5 133.5t-160.5 94t-219 34.5q-160 0 -278 -58
t-182 -169t-64 -267q0 -150 61.5 -263.5t182.5 -176.5t294 -63q139 0 245.5 28.5t177.5 83.5h-439v188h561q7 33 8 63h-477v218h753v-281h176z" />
    <glyph glyph-name="uni01E5" unicode="&#x1e5;" horiz-adv-x="1664" 
d="M1635 123v-182h-255q-91 -147 -261 -224t-395 -77q-153 0 -285 39.5t-260 122.5v248q228 -175 524 -175q176 0 283 66h-424v182h558q18 60 18 136v127q-90 -101 -222.5 -164.5t-294.5 -63.5q-157 0 -283.5 63.5t-198.5 178t-72 263.5t72 263.5t198.5 178t283.5 63.5
q161 0 293.5 -66t223.5 -171v206h334v-846q0 -90 -18 -168h181zM1150 663q-154 271 -420 271q-101 0 -174.5 -33.5t-112.5 -95t-39 -142.5t38.5 -142t112 -94.5t175.5 -33.5q266 0 420 270z" />
    <glyph glyph-name="Gcaron" unicode="&#x1e6;" horiz-adv-x="1910" 
d="M1015 757h777v-757h-245l-17 235q-97 -125 -250.5 -195t-356.5 -70q-238 0 -429 93.5t-301 270.5t-110 416q0 240 111 416.5t305.5 270t441.5 93.5q233 0 411.5 -74.5t287 -206.5t137.5 -303h-343q-21 90 -87.5 157t-170.5 102.5t-235 35.5q-158 0 -274.5 -57
t-179 -167.5t-62.5 -266.5q0 -158 66 -270t188.5 -170.5t289.5 -58.5q187 0 322 68.5t194 191.5h-470v246zM942 1787l194 150h285l-298 -321h-362l-300 321h286z" />
    <glyph glyph-name="gcaron" unicode="&#x1e7;" horiz-adv-x="1592" 
d="M1138 1137h334v-834q0 -210 -93.5 -359.5t-262.5 -226.5t-392 -77q-153 0 -285 39.5t-260 122.5v262q228 -174 524 -174q213 0 324 98.5t111 294.5v62q-89 -107 -222 -174t-295 -67q-157 0 -283.5 66.5t-198.5 187.5t-72 278t72 278t198.5 187.5t283.5 66.5
q162 0 294.5 -69.5t222.5 -180.5v219zM1150 636q-154 298 -420 298q-101 0 -174.5 -37t-112.5 -104.5t-39 -156.5t38.5 -156t112 -104t175.5 -37q266 0 420 297zM793 1422l188 193h273l-286 -361h-349l-286 361h272z" />
    <glyph glyph-name="uni01E8" unicode="&#x1e8;" horiz-adv-x="1702" 
d="M1167 866l540 -866h-386l-370 602l-492 -602h-305v1500h338v-1038l832 1038h362zM903 1787l194 150h285l-298 -321h-362l-300 321h286z" />
    <glyph glyph-name="uni01E9" unicode="&#x1e9;" horiz-adv-x="1430" 
d="M1010 675l429 -675h-383l-259 428l-368 -428h-304v1540h335v-1116l582 713h365zM760 1827l194 150h285l-298 -321h-362l-300 321h286z" />
    <glyph glyph-name="uni01EA" unicode="&#x1ea;" horiz-adv-x="1913" 
d="M1042.5 -67q-60.5 -38 -60.5 -79q0 -59 122 -59q65 0 120 13v-191q-29 -10 -86.5 -18t-113.5 -8q-87 0 -153 23.5t-102.5 66.5t-36.5 99q0 58 40 105.5t123 85.5q-242 12 -426.5 112.5t-286 273t-101.5 393.5q0 231 109.5 408t308.5 274.5t457 97.5q259 0 457.5 -97.5
t308.5 -274.5t110 -408q0 -188 -75 -342t-212 -258.5t-322 -149.5q-120 -29 -180.5 -67zM489 496.5q65 -107.5 185 -165.5t282 -58t282.5 58t185 165.5t64.5 253.5t-64.5 253.5t-185 165.5t-282.5 58t-282 -58t-185 -165.5t-65 -253.5t65 -253.5z" />
    <glyph glyph-name="uni01EB" unicode="&#x1eb;" horiz-adv-x="1556" 
d="M795 -146q0 -29 34.5 -44t99.5 -15q63 0 121 13v-191q-30 -10 -87.5 -18t-114.5 -8q-90 0 -159 22t-106.5 62.5t-37.5 93.5q0 120 173 203q-195 11 -342 88t-228 208t-81 300q0 178 89 314t250.5 211t371.5 75t371.5 -75t250.5 -211t89 -314q0 -215 -127 -360.5
t-347 -209.5q-220 -70 -220 -144zM450 384.5q45 -77.5 129 -119.5t199 -42t198.5 42t128.5 119.5t45 183.5t-45 184t-129 120t-198 42q-115 0 -199 -42t-129 -120t-45 -184t45 -183.5z" />
    <glyph glyph-name="uni01EC" unicode="&#x1ec;" horiz-adv-x="1913" 
d="M1042.5 -67q-60.5 -38 -60.5 -79q0 -59 122 -59q65 0 120 13v-191q-29 -10 -86.5 -18t-113.5 -8q-87 0 -153 23.5t-102.5 66.5t-36.5 99q0 58 40 105.5t123 85.5q-242 12 -426.5 112.5t-286 273t-101.5 393.5q0 231 109.5 408t308.5 274.5t457 97.5q259 0 457.5 -97.5
t308.5 -274.5t110 -408q0 -188 -75 -342t-212 -258.5t-322 -149.5q-120 -29 -180.5 -67zM489 496.5q65 -107.5 185 -165.5t282 -58t282.5 58t185 165.5t64.5 253.5t-64.5 253.5t-185 165.5t-282.5 58t-282 -58t-185 -165.5t-65 -253.5t65 -253.5zM1416 1666h-919v209h919
v-209z" />
    <glyph glyph-name="uni01ED" unicode="&#x1ed;" horiz-adv-x="1556" 
d="M795 -146q0 -29 34.5 -44t99.5 -15q63 0 121 13v-191q-30 -10 -87.5 -18t-114.5 -8q-90 0 -159 22t-106.5 62.5t-37.5 93.5q0 120 173 203q-195 11 -342 88t-228 208t-81 300q0 178 89 314t250.5 211t371.5 75t371.5 -75t250.5 -211t89 -314q0 -215 -127 -360.5
t-347 -209.5q-220 -70 -220 -144zM450 384.5q45 -77.5 129 -119.5t199 -42t198.5 42t128.5 119.5t45 183.5t-45 184t-129 120t-198 42q-115 0 -199 -42t-129 -120t-45 -184t45 -183.5zM1237 1318h-919v208h919v-208z" />
    <glyph glyph-name="uni01EE" unicode="&#x1ee;" horiz-adv-x="1602" 
d="M936 885q293 -7 438.5 -119t145.5 -308q0 -143 -84 -253.5t-246.5 -172.5t-392.5 -62q-224 0 -393 63.5t-264 180t-103 272.5h340q36 -249 420 -249q185 0 282 61t97 176q0 104 -85.5 159t-280.5 55h-226v232l439 311h-896v269h1321v-250zM768 1787l194 150h285
l-298 -321h-362l-300 321h286z" />
    <glyph glyph-name="uni01EF" unicode="&#x1ef;" horiz-adv-x="1450" 
d="M826 550q192 -5 319.5 -63.5t189 -155.5t61.5 -219q0 -138 -79 -244.5t-233.5 -167t-372.5 -60.5q-208 0 -362.5 65.5t-239 180.5t-92.5 262h318q12 -78 58.5 -137t127.5 -91.5t190 -32.5t187 29t118.5 83t40.5 128q0 105 -86 166t-274 61h-221v213l448 324h-807v246
h1198v-241zM726 1422l188 193h273l-286 -361h-349l-286 361h272z" />
    <glyph glyph-name="uni01F0" unicode="&#x1f0;" horiz-adv-x="585" 
d="M125 -330v1480l168 -32l167 32v-1480h-335zM292 1422l188 193h273l-286 -361h-349l-286 361h272z" />
    <glyph glyph-name="uni01F1" unicode="&#x1f1;" horiz-adv-x="3329" 
d="M867 1500q259 0 457 -93.5t307.5 -263.5t109.5 -393t-109.5 -393t-307.5 -263.5t-457 -93.5h-713v1500h713zM892 300q152 0 266.5 55.5t177 157.5t62.5 237t-62.5 237t-177 157.5t-266.5 55.5h-400v-900h400zM3240 1251l-958 -978h964v-273h-1418v251l959 977h-952v273
h1405v-250z" />
    <glyph glyph-name="uni01F2" unicode="&#x1f2;" horiz-adv-x="3156" 
d="M868 1500q259 0 457 -93.5t307.5 -263.5t109.5 -393t-109.5 -393t-307.5 -263.5t-457 -93.5h-713v1500h713zM893 300q152 0 266.5 55.5t177 157.5t62.5 237t-62.5 237t-177 157.5t-266.5 55.5h-400v-900h400zM3075 901l-765 -654h769v-247h-1192v236l767 655h-760v246
h1181v-236z" />
    <glyph glyph-name="uni01F3" unicode="&#x1f3;" horiz-adv-x="2943" 
d="M1564 1540l-110 -948l65 -592h-344l-30 265q-86 -140 -217 -217.5t-291 -77.5q-165 0 -294 75t-200.5 211t-71.5 312q0 177 71.5 313.5t200 211.5t294.5 75q160 0 291 -76t216 -215l74 663h346zM906 273q84 43 147.5 119.5t99.5 175.5q-36 99 -99.5 176t-147.5 120.5
t-177 43.5q-92 0 -164.5 -43.5t-113.5 -121t-41 -175.5t41 -175t113.5 -120t164.5 -43q93 0 177 43zM2862 901l-765 -654h769v-247h-1192v236l767 655h-760v246h1181v-236z" />
    <glyph glyph-name="uni01F4" unicode="&#x1f4;" horiz-adv-x="1910" 
d="M1015 757h777v-757h-245l-17 235q-97 -125 -250.5 -195t-356.5 -70q-238 0 -429 93.5t-301 270.5t-110 416q0 240 111 416.5t305.5 270t441.5 93.5q233 0 411.5 -74.5t287 -206.5t137.5 -303h-343q-21 90 -87.5 157t-170.5 102.5t-235 35.5q-158 0 -274.5 -57
t-179 -167.5t-62.5 -266.5q0 -158 66 -270t188.5 -170.5t289.5 -58.5q187 0 322 68.5t194 191.5h-470v246zM726 1617l293 320h386l-337 -320h-342z" />
    <glyph glyph-name="uni01F5" unicode="&#x1f5;" horiz-adv-x="1592" 
d="M1138 1137h334v-834q0 -210 -93.5 -359.5t-262.5 -226.5t-392 -77q-153 0 -285 39.5t-260 122.5v262q228 -174 524 -174q213 0 324 98.5t111 294.5v62q-89 -107 -222 -174t-295 -67q-157 0 -283.5 66.5t-198.5 187.5t-72 278t72 278t198.5 187.5t283.5 66.5
q162 0 294.5 -69.5t222.5 -180.5v219zM1150 636q-154 298 -420 298q-101 0 -174.5 -37t-112.5 -104.5t-39 -156.5t38.5 -156t112 -104t175.5 -37q266 0 420 297zM605 1254l248 361h328l-262 -361h-314z" />
    <glyph glyph-name="uni01F8" unicode="&#x1f8;" horiz-adv-x="1909" 
d="M1426 383v1117h329v-1500h-429l-843 1137v-1137h-329v1500h440zM490 1937h386l293 -320h-342z" />
    <glyph glyph-name="uni01F9" unicode="&#x1f9;" horiz-adv-x="1531" 
d="M1186.5 1103.5q114.5 -64.5 174.5 -185t60 -285.5v-633h-334v582q0 152 -74.5 232t-214.5 80q-98 0 -170.5 -42.5t-112 -120t-39.5 -180.5v-551h-334v755l-72 382h335l42 -255q71 138 192.5 212t271.5 74q161 0 275.5 -64.5zM382 1615h329l247 -361h-314z" />
    <glyph glyph-name="Aringacute" unicode="&#x1fa;" horiz-adv-x="1856" 
d="M734.5 1616q-81.5 30 -124.5 86.5t-43 134.5q0 96 62 158t177 84l131 320h309l-186 -321q111 -23 170.5 -85.5t59.5 -155.5q0 -78 -42.5 -134.5t-124 -86.5t-194.5 -30t-194.5 30zM760 1837q0 -47 42 -72t127 -25t127 25t42 72q0 99 -169 99t-169 -99zM1848 0h-362
l-142 316h-832l-142 -316h-362l701 1500h438zM928 1239l-291 -647h583z" />
    <glyph glyph-name="aringacute" unicode="&#x1fb;" horiz-adv-x="1613" 
d="M611.5 1265.5q-78.5 31.5 -120.5 90.5t-42 139q0 95 58.5 159.5t165.5 88.5l133 325h309l-188 -326q104 -25 161 -89t57 -158q0 -80 -41.5 -139t-120 -90.5t-185.5 -31.5q-108 0 -186.5 31.5zM684 1580.5q-41 -30.5 -41 -85.5t40.5 -85t114.5 -30q73 0 113.5 30t40.5 85
t-40.5 85.5t-113.5 30.5t-114 -30.5zM1515 1137l-66 -568l66 -569h-346l-30 256q-85 -136 -214.5 -211t-287.5 -75q-165 0 -294 75t-200.5 211t-71.5 312q0 177 71.5 313.5t200 211.5t294.5 75q158 0 287.5 -74.5t215.5 -210.5l29 254h346zM906 273q84 43 147.5 119.5
t99.5 175.5q-36 99 -99.5 176t-147.5 120.5t-177 43.5q-92 0 -164.5 -43.5t-113.5 -121t-41 -175.5t41 -175t113.5 -120t164.5 -43q93 0 177 43z" />
    <glyph glyph-name="AEacute" unicode="&#x1fc;" horiz-adv-x="2507" 
d="M1501 620l140 -338h793v-282h-1030l-126 316h-770l-132 -316h-362l650 1500h1710v-282h-1112l138 -338h921v-260h-820zM901 1260l-278 -668h545zM1266 1617l293 320h386l-337 -320h-342z" />
    <glyph glyph-name="aeacute" unicode="&#x1fd;" horiz-adv-x="2516" 
d="M2174.5 1080.5q136.5 -87.5 206 -242.5t63.5 -355h-941q33 -125 144.5 -193t295.5 -68q125 0 244.5 33t225.5 99v-218q-111 -80 -235 -123t-273 -43q-162 0 -293 53t-218 149l-8 -172h-245l-15 236q-86 -127 -211.5 -196.5t-277.5 -69.5q-165 0 -294 75t-200.5 211
t-71.5 312q0 177 71.5 313.5t200 211.5t294.5 75q152 0 277.5 -69t212.5 -195l14 233h245l7 -154q80 89 196 137t260 48q189 0 325.5 -87.5zM1607.5 864.5q-86.5 -66.5 -110.5 -184.5h648q-28 120 -110 185.5t-215 65.5q-126 0 -212.5 -66.5zM906 273q84 43 147.5 119.5
t99.5 175.5q-36 99 -99.5 176t-147.5 120.5t-177 43.5q-92 0 -164.5 -43.5t-113.5 -121t-41 -175.5t41 -175t113.5 -120t164.5 -43q93 0 177 43zM1074 1254l248 361h328l-262 -361h-314z" />
    <glyph glyph-name="Oslashacute" unicode="&#x1fe;" horiz-adv-x="1911" 
d="M1595 1305q113 -104 174.5 -245.5t61.5 -309.5q0 -231 -110 -408t-308.5 -274.5t-457.5 -97.5q-244 0 -437 88l-78 -90h-319l193 224q-112 103 -172.5 245.5t-60.5 312.5q0 231 109.5 408t307.5 274.5t457 97.5q243 0 437 -91l80 93h319zM445 575q27 -80 79 -141l662 767
q-105 37 -231 37q-163 0 -284.5 -59.5t-187 -169.5t-65.5 -259q0 -95 27 -175zM1240.5 321.5q121.5 59.5 187 169.5t65.5 259q0 95 -27 174.5t-78 140.5l-663 -767q106 -36 230 -36q164 0 285.5 59.5zM739 1617l293 320h386l-337 -320h-342z" />
    <glyph glyph-name="oslashacute" unicode="&#x1ff;" horiz-adv-x="1556" 
d="M1299 997q92 -80 141 -189t49 -240q0 -177 -89 -312.5t-250.5 -210.5t-371.5 -75q-175 0 -317 52l-68 -79h-306l170 198q-92 79 -141 188t-49 239q0 178 89 314t250.5 211t371.5 75q175 0 317 -52l68 79h306zM444 358l480 559q-68 20 -146 20q-119 0 -207.5 -45
t-135.5 -128t-47 -196q0 -121 56 -210zM985.5 245q87.5 45 134.5 128t47 195q0 125 -56 211l-480 -559q68 -20 147 -20q120 0 207.5 45zM589 1254l248 361h328l-262 -361h-314z" />
    <glyph glyph-name="uni0200" unicode="&#x200;" horiz-adv-x="1856" 
d="M1848 0h-362l-142 316h-832l-142 -316h-362l701 1500h438zM928 1239l-291 -647h583zM263 1937h328l243 -320h-299zM746 1937h327l245 -320h-300z" />
    <glyph glyph-name="uni0201" unicode="&#x201;" horiz-adv-x="1613" 
d="M1515 1137l-66 -568l66 -569h-346l-30 256q-85 -136 -214.5 -211t-287.5 -75q-165 0 -294 75t-200.5 211t-71.5 312q0 177 71.5 313.5t200 211.5t294.5 75q158 0 287.5 -74.5t215.5 -210.5l29 254h346zM906 273q84 43 147.5 119.5t99.5 175.5q-36 99 -99.5 176
t-147.5 120.5t-177 43.5q-92 0 -164.5 -43.5t-113.5 -121t-41 -175.5t41 -175t113.5 -120t164.5 -43q93 0 177 43zM189 1615h303l220 -361h-285zM644 1615h301l222 -361h-287z" />
    <glyph glyph-name="uni0202" unicode="&#x202;" horiz-adv-x="1856" 
d="M1848 0h-362l-142 316h-832l-142 -316h-362l701 1500h438zM928 1239l-291 -647h583zM1138 1610q-55 130 -209 130q-156 0 -211 -130h-260q43 167 166.5 253.5t304.5 86.5t304 -87t165 -253h-260z" />
    <glyph glyph-name="uni0203" unicode="&#x203;" horiz-adv-x="1613" 
d="M1515 1137l-66 -568l66 -569h-346l-30 256q-85 -136 -214.5 -211t-287.5 -75q-165 0 -294 75t-200.5 211t-71.5 312q0 177 71.5 313.5t200 211.5t294.5 75q158 0 287.5 -74.5t215.5 -210.5l29 254h346zM906 273q84 43 147.5 119.5t99.5 175.5q-36 99 -99.5 176
t-147.5 120.5t-177 43.5q-92 0 -164.5 -43.5t-113.5 -121t-41 -175.5t41 -175t113.5 -120t164.5 -43q93 0 177 43zM998 1254q-16 77 -68.5 120t-131.5 43t-132 -43t-70 -120h-251q26 176 143.5 273.5t309.5 97.5q191 0 308.5 -97.5t144.5 -273.5h-253z" />
    <glyph glyph-name="uni0204" unicode="&#x204;" horiz-adv-x="1560" 
d="M528 620l-54 -338h982v-282h-1351l117 750l-117 750h1341v-282h-972l54 -338h866v-260h-866zM121 1937h328l243 -320h-299zM604 1937h327l245 -320h-300z" />
    <glyph glyph-name="uni0205" unicode="&#x205;" horiz-adv-x="1444" 
d="M425 464q38 -116 148 -179t279 -63q129 0 259 37t233 104v-224q-113 -80 -262.5 -124.5t-312.5 -44.5q-202 0 -362 75.5t-250 212t-90 314.5q0 175 86 310.5t239 210.5t346 75q194 0 338 -86.5t221.5 -246t77.5 -371.5h-950zM527.5 858.5q-85.5 -63.5 -112.5 -172.5h635
q-29 113 -109.5 174.5t-200.5 61.5q-127 0 -212.5 -63.5zM125 1615h303l220 -361h-285zM580 1615h301l222 -361h-287z" />
    <glyph glyph-name="uni0206" unicode="&#x206;" horiz-adv-x="1560" 
d="M528 620l-54 -338h982v-282h-1351l117 750l-117 750h1341v-282h-972l54 -338h866v-260h-866zM996 1610q-55 130 -209 130q-156 0 -211 -130h-260q43 167 166.5 253.5t304.5 86.5t304 -87t165 -253h-260z" />
    <glyph glyph-name="uni0207" unicode="&#x207;" horiz-adv-x="1444" 
d="M425 464q38 -116 148 -179t279 -63q129 0 259 37t233 104v-224q-113 -80 -262.5 -124.5t-312.5 -44.5q-202 0 -362 75.5t-250 212t-90 314.5q0 175 86 310.5t239 210.5t346 75q194 0 338 -86.5t221.5 -246t77.5 -371.5h-950zM527.5 858.5q-85.5 -63.5 -112.5 -172.5h635
q-29 113 -109.5 174.5t-200.5 61.5q-127 0 -212.5 -63.5zM934 1254q-16 77 -68.5 120t-131.5 43t-132 -43t-70 -120h-251q26 176 143.5 273.5t309.5 97.5q191 0 308.5 -97.5t144.5 -273.5h-253z" />
    <glyph glyph-name="uni0208" unicode="&#x208;" horiz-adv-x="647" 
d="M-163 1937h277l181 -320h-261zM240 1937h277l183 -320h-263zM154 0v1500h339v-1500h-339z" />
    <glyph glyph-name="uni0209" unicode="&#x209;" horiz-adv-x="585" 
d="M-123 1615h244l181 -361h-226zM214 1615h243l182 -361h-228zM125 0v1150l168 -32l167 32v-1150h-335z" />
    <glyph glyph-name="uni020A" unicode="&#x20a;" horiz-adv-x="647" 
d="M154 0v1500h339v-1500h-339zM533 1610q-55 130 -209 130q-156 0 -211 -130h-260q43 167 166.5 253.5t304.5 86.5t304 -87t165 -253h-260z" />
    <glyph glyph-name="uni020B" unicode="&#x20b;" horiz-adv-x="585" 
d="M435 1254q-11 74 -48.5 115.5t-95.5 41.5q-57 0 -94 -41.5t-48 -115.5h-226q10 113 58 196.5t127.5 129t182.5 45.5q104 0 184 -45.5t128 -129t58 -196.5h-226zM125 0v1150l168 -32l167 32v-1150h-335z" />
    <glyph glyph-name="uni020C" unicode="&#x20c;" horiz-adv-x="1913" 
d="M499 67.5q-199 97.5 -308.5 274.5t-109.5 408t109.5 408t308.5 274.5t457 97.5q259 0 457.5 -97.5t308.5 -274.5t110 -408t-110 -408t-308.5 -274.5t-457.5 -97.5q-258 0 -457 97.5zM1238.5 331q120.5 58 185 165.5t64.5 253.5t-64.5 253.5t-185 165.5t-282.5 58
t-282 -58t-185 -165.5t-65 -253.5t65 -253.5t185 -165.5t282 -58t282.5 58zM291 1937h328l243 -320h-299zM774 1937h327l245 -320h-300z" />
    <glyph glyph-name="uni020D" unicode="&#x20d;" horiz-adv-x="1556" 
d="M406.5 45q-161.5 75 -250.5 210.5t-89 312.5q0 178 89 314t250.5 211t371.5 75t371.5 -75t250.5 -211t89 -314q0 -177 -89 -312.5t-250.5 -210.5t-371.5 -75t-371.5 75zM976.5 265q83.5 42 128.5 119.5t45 183.5t-45 184t-129 120t-198 42q-115 0 -199 -42t-129 -120
t-45 -184t45 -183.5t129 -119.5t199 -42t198.5 42zM169 1615h303l220 -361h-285zM624 1615h301l222 -361h-287z" />
    <glyph glyph-name="uni020E" unicode="&#x20e;" horiz-adv-x="1913" 
d="M499 67.5q-199 97.5 -308.5 274.5t-109.5 408t109.5 408t308.5 274.5t457 97.5q259 0 457.5 -97.5t308.5 -274.5t110 -408t-110 -408t-308.5 -274.5t-457.5 -97.5q-258 0 -457 97.5zM1238.5 331q120.5 58 185 165.5t64.5 253.5t-64.5 253.5t-185 165.5t-282.5 58
t-282 -58t-185 -165.5t-65 -253.5t65 -253.5t185 -165.5t282 -58t282.5 58zM1166 1610q-55 130 -209 130q-156 0 -211 -130h-260q43 167 166.5 253.5t304.5 86.5t304 -87t165 -253h-260z" />
    <glyph glyph-name="uni020F" unicode="&#x20f;" horiz-adv-x="1556" 
d="M406.5 45q-161.5 75 -250.5 210.5t-89 312.5q0 178 89 314t250.5 211t371.5 75t371.5 -75t250.5 -211t89 -314q0 -177 -89 -312.5t-250.5 -210.5t-371.5 -75t-371.5 75zM976.5 265q83.5 42 128.5 119.5t45 183.5t-45 184t-129 120t-198 42q-115 0 -199 -42t-129 -120
t-45 -184t45 -183.5t129 -119.5t199 -42t198.5 42zM978 1254q-16 77 -68.5 120t-131.5 43t-132 -43t-70 -120h-251q26 176 143.5 273.5t309.5 97.5q191 0 308.5 -97.5t144.5 -273.5h-253z" />
    <glyph glyph-name="uni0210" unicode="&#x210;" horiz-adv-x="1661" 
d="M1206 0l-452 570h-261v-570h-339v1500h854q163 0 288 -58.5t194 -164.5t69 -244q0 -118 -52 -213t-147.5 -157t-223.5 -83l468 -580h-398zM493 1232v-398h474q116 0 182.5 53t66.5 146t-66.5 146t-182.5 53h-474zM148 1937h328l243 -320h-299zM631 1937h327l245 -320
h-300z" />
    <glyph glyph-name="uni0211" unicode="&#x211;" horiz-adv-x="1059" 
d="M1032 1150v-288q-99 23 -202 23q-102 0 -182 -43t-125.5 -131.5t-45.5 -219.5v-491h-334v764l-72 373h338l51 -307q55 158 160 248t263 90q75 0 149 -18zM-32 1615h303l220 -361h-285zM423 1615h301l222 -361h-287z" />
    <glyph glyph-name="uni0212" unicode="&#x212;" horiz-adv-x="1661" 
d="M1206 0l-452 570h-261v-570h-339v1500h854q163 0 288 -58.5t194 -164.5t69 -244q0 -118 -52 -213t-147.5 -157t-223.5 -83l468 -580h-398zM493 1232v-398h474q116 0 182.5 53t66.5 146t-66.5 146t-182.5 53h-474zM1023 1610q-55 130 -209 130q-156 0 -211 -130h-260
q43 167 166.5 253.5t304.5 86.5t304 -87t165 -253h-260z" />
    <glyph glyph-name="uni0213" unicode="&#x213;" horiz-adv-x="1059" 
d="M1032 1150v-288q-99 23 -202 23q-102 0 -182 -43t-125.5 -131.5t-45.5 -219.5v-491h-334v764l-72 373h338l51 -307q55 158 160 248t263 90q75 0 149 -18zM776 1254q-16 77 -68.5 120t-131.5 43t-132 -43t-70 -120h-251q26 176 143.5 273.5t309.5 97.5q191 0 308.5 -97.5
t144.5 -273.5h-253z" />
    <glyph glyph-name="uni0214" unicode="&#x214;" horiz-adv-x="1740" 
d="M473 657q0 -118 46.5 -204.5t136 -133t214.5 -46.5q126 0 215 46.5t135 132.5t46 205v843h340v-858q0 -199 -92 -351.5t-259 -236.5t-385 -84t-385 84t-259 236.5t-92 351.5v858h339v-843zM204 1937h328l243 -320h-299zM687 1937h327l245 -320h-300z" />
    <glyph glyph-name="uni0215" unicode="&#x215;" horiz-adv-x="1509" 
d="M1436 0h-334l-41 253q-71 -136 -189 -209.5t-264 -73.5q-156 0 -268 64.5t-171 185t-59 285.5v632h334v-583q0 -151 71.5 -230.5t205.5 -79.5q96 0 166 41.5t107.5 119t37.5 182.5v550h334v-756zM139 1615h303l220 -361h-285zM594 1615h301l222 -361h-287z" />
    <glyph glyph-name="uni0216" unicode="&#x216;" horiz-adv-x="1740" 
d="M473 657q0 -118 46.5 -204.5t136 -133t214.5 -46.5q126 0 215 46.5t135 132.5t46 205v843h340v-858q0 -199 -92 -351.5t-259 -236.5t-385 -84t-385 84t-259 236.5t-92 351.5v858h339v-843zM1079 1610q-55 130 -209 130q-156 0 -211 -130h-260q43 167 166.5 253.5
t304.5 86.5t304 -87t165 -253h-260z" />
    <glyph glyph-name="uni0217" unicode="&#x217;" horiz-adv-x="1509" 
d="M1436 0h-334l-41 253q-71 -136 -189 -209.5t-264 -73.5q-156 0 -268 64.5t-171 185t-59 285.5v632h334v-583q0 -151 71.5 -230.5t205.5 -79.5q96 0 166 41.5t107.5 119t37.5 182.5v550h334v-756zM948 1254q-16 77 -68.5 120t-131.5 43t-132 -43t-70 -120h-251
q26 176 143.5 273.5t309.5 97.5q191 0 308.5 -97.5t144.5 -273.5h-253z" />
    <glyph glyph-name="uni0218" unicode="&#x218;" horiz-adv-x="1646" 
d="M419 490q10 -77 65.5 -133.5t149 -87.5t215.5 -31q117 0 203.5 23t133 67t46.5 104q0 50 -25.5 82t-86 52.5t-166.5 32.5l-302 34q-194 21 -316.5 75t-180 142t-57.5 214q0 144 86.5 249t245.5 161t371 56q207 0 370.5 -61t258.5 -171t104 -254h-344q-9 66 -59 115
t-136.5 76t-200.5 27q-108 0 -188 -22t-123 -63.5t-43 -99.5q0 -46 24.5 -76t81 -50t153.5 -32l313 -38q209 -24 331 -72.5t176 -129.5t54 -209q0 -150 -91 -263t-256.5 -175t-382.5 -62q-222 0 -394 65t-270.5 183t-104.5 272h345zM959 -133q51 -42 51 -111
q0 -46 -20.5 -85t-83.5 -122l-93 -121h-168l113 190q-57 14 -90 51t-33 91q0 68 50.5 108.5t136.5 40.5t137 -42z" />
    <glyph glyph-name="uni0219" unicode="&#x219;" horiz-adv-x="1439" 
d="M1301 148q-72 -87 -212 -132.5t-340 -45.5q-206 0 -361 51.5t-241 144.5t-92 217h339q19 -84 115 -132t250 -48q287 0 287 127q0 32 -22.5 52t-73.5 32.5t-141 20.5l-212 18q-274 21 -392 110.5t-118 234.5q0 120 75.5 203t212.5 125t320 42q182 0 327 -49.5
t231.5 -138.5t97.5 -204h-339q-15 70 -97 117.5t-237 47.5q-125 0 -193 -30.5t-68 -86.5q0 -42 43.5 -66.5t152.5 -33.5l276 -23q180 -15 286.5 -59t152 -114.5t45.5 -169.5q0 -123 -72 -210zM869 -133q51 -42 51 -111q0 -46 -20.5 -85t-83.5 -122l-93 -121h-168l113 190
q-57 14 -90 51t-33 91q0 68 50.5 108.5t136.5 40.5t137 -42z" />
    <glyph glyph-name="uni021A" unicode="&#x21a;" horiz-adv-x="1602" 
d="M35 1500h1532v-300h-596v-1200h-340v1200h-596v300zM938 -133q51 -42 51 -111q0 -46 -20.5 -85t-83.5 -122l-93 -121h-168l113 190q-57 14 -90 51t-33 91q0 68 50.5 108.5t136.5 40.5t137 -42z" />
    <glyph glyph-name="uni021B" unicode="&#x21b;" horiz-adv-x="1158" 
d="M11 886v148l237 78l142 327h192v-302h503v-251h-503v-413q0 -90 24 -142t77 -75t145 -23q84 0 150.5 16t126.5 48v-261q-62 -27 -158 -46.5t-193 -19.5q-258 0 -382 120t-124 335v461h-237zM783 -133q51 -42 51 -111q0 -46 -20.5 -85t-83.5 -122l-93 -121h-168l113 190
q-57 14 -90 51t-33 91q0 68 50.5 108.5t136.5 40.5t137 -42z" />
    <glyph glyph-name="uni021C" unicode="&#x21c;" horiz-adv-x="1602" 
d="M936 885q293 -7 438.5 -119t145.5 -308q0 -143 -84 -253.5t-246.5 -172.5t-392.5 -62q-224 0 -393 63.5t-264 180t-103 272.5h340q36 -249 420 -249q185 0 282 61t97 176q0 104 -85.5 159t-280.5 55h-226v232l439 311h-896v269h1321v-250z" />
    <glyph glyph-name="uni021D" unicode="&#x21d;" horiz-adv-x="1450" 
d="M826 550q192 -5 319.5 -63.5t189 -155.5t61.5 -219q0 -138 -79 -244.5t-233.5 -167t-372.5 -60.5q-208 0 -362.5 65.5t-239 180.5t-92.5 262h318q12 -78 58.5 -137t127.5 -91.5t190 -32.5t187 29t118.5 83t40.5 128q0 105 -86 166t-274 61h-221v213l448 324h-807v246
h1198v-241z" />
    <glyph glyph-name="uni021E" unicode="&#x21e;" horiz-adv-x="1848" 
d="M1354 909v591h340v-1500h-340v609h-861v-609h-339v1500h339v-591h861zM924 1787l194 150h285l-298 -321h-362l-300 321h286z" />
    <glyph glyph-name="uni021F" unicode="&#x21f;" horiz-adv-x="1515" 
d="M1169 1103.5q115 -64.5 175.5 -185t60.5 -285.5v-633h-335v582q0 152 -74.5 232t-214.5 80q-97 0 -169.5 -42.5t-112 -120t-39.5 -180.5v-551h-335v1540h335v-606q75 114 187 174t247 60q160 0 275 -64.5zM791 1827l194 150h285l-298 -321h-362l-300 321h286z" />
    <glyph glyph-name="uni0220" unicode="&#x220;" horiz-adv-x="1763" 
d="M1347.5 1458.5q133.5 -71.5 204.5 -206t71 -317.5v-1265h-339v1187q0 180 -96.5 274.5t-279.5 94.5q-128 0 -221.5 -46t-143.5 -131t-50 -198v-851h-339v1500h339v-248q85 141 221.5 209.5t315.5 68.5q184 0 317.5 -71.5z" />
    <glyph glyph-name="uni0226" unicode="&#x226;" horiz-adv-x="1856" 
d="M1848 0h-362l-142 316h-832l-142 -316h-362l701 1500h438zM928 1239l-291 -647h583zM821.5 1651.5q-46.5 21.5 -72 61t-25.5 90.5q0 52 25.5 91.5t72 61.5t106.5 22t106.5 -22t72.5 -61.5t26 -91.5q0 -51 -25.5 -90.5t-72.5 -61t-107 -21.5t-106.5 21.5z" />
    <glyph glyph-name="uni0227" unicode="&#x227;" horiz-adv-x="1613" 
d="M1515 1137l-66 -568l66 -569h-346l-30 256q-85 -136 -214.5 -211t-287.5 -75q-165 0 -294 75t-200.5 211t-71.5 312q0 177 71.5 313.5t200 211.5t294.5 75q158 0 287.5 -74.5t215.5 -210.5l29 254h346zM906 273q84 43 147.5 119.5t99.5 175.5q-36 99 -99.5 176
t-147.5 120.5t-177 43.5q-92 0 -164.5 -43.5t-113.5 -121t-41 -175.5t41 -175t113.5 -120t164.5 -43q93 0 177 43zM649.5 1315.5q-56.5 47.5 -56.5 125.5t56.5 125.5t147.5 47.5q92 0 148.5 -47.5t56.5 -125.5t-56.5 -125.5t-148.5 -47.5q-91 0 -147.5 47.5z" />
    <glyph glyph-name="uni0228" unicode="&#x228;" horiz-adv-x="1560" 
d="M1456 0h-553l-54 -92q50 10 100 10q127 0 198.5 -50.5t71.5 -138.5q0 -63 -41.5 -112t-121.5 -76.5t-192 -27.5q-152 0 -255 55.5t-132 152.5h227q18 -28 58 -43.5t102 -15.5q66 0 100.5 20.5t34.5 52.5q0 30 -29.5 47.5t-84.5 17.5q-70 0 -122 -20h-175l141 220h-624
l117 750l-117 750h1341v-282h-972l54 -338h866v-260h-866l-54 -338h982v-282z" />
    <glyph glyph-name="uni0229" unicode="&#x229;" horiz-adv-x="1444" 
d="M425 464q38 -116 148 -179t279 -63q129 0 259 37t233 104v-224q-105 -75 -242.5 -118.5t-288.5 -49.5l-42 -65q47 10 95 10q128 0 195 -50.5t67 -139.5q0 -61 -40 -109t-117 -76t-184 -28q-96 0 -175 26.5t-132 73.5t-73 109h214q44 -63 166 -63q65 0 99 19.5t34 54.5
q0 31 -28.5 50.5t-86.5 19.5q-63 0 -113 -25h-179l129 200q-170 22 -300 102t-202.5 207t-72.5 285q0 175 86 310.5t239 210.5t346 75q194 0 338 -86.5t221.5 -246t77.5 -371.5h-950zM527.5 858.5q-85.5 -63.5 -112.5 -172.5h635q-29 113 -109.5 174.5t-200.5 61.5
q-127 0 -212.5 -63.5z" />
    <glyph glyph-name="uni022A" unicode="&#x22a;" horiz-adv-x="1913" 
d="M499 67.5q-199 97.5 -308.5 274.5t-109.5 408t109.5 408t308.5 274.5t457 97.5q259 0 457.5 -97.5t308.5 -274.5t110 -408t-110 -408t-308.5 -274.5t-457.5 -97.5q-258 0 -457 97.5zM1238.5 331q120.5 58 185 165.5t64.5 253.5t-64.5 253.5t-185 165.5t-282.5 58
t-282 -58t-185 -165.5t-65 -253.5t65 -253.5t185 -165.5t282 -58t282.5 58zM515.5 1675.5q-52.5 45.5 -52.5 122.5q0 75 52.5 119t139.5 44t139.5 -44t52.5 -119q0 -77 -52.5 -122.5t-139.5 -45.5t-139.5 45.5zM1120.5 1675.5q-52.5 45.5 -52.5 122.5q0 75 52.5 119
t139.5 44t139.5 -44t52.5 -119q0 -77 -52.5 -122.5t-139.5 -45.5t-139.5 45.5zM1418 2067h-919v209h919v-209z" />
    <glyph glyph-name="uni022B" unicode="&#x22b;" horiz-adv-x="1556" 
d="M406.5 45q-161.5 75 -250.5 210.5t-89 312.5q0 178 89 314t250.5 211t371.5 75t371.5 -75t250.5 -211t89 -314q0 -177 -89 -312.5t-250.5 -210.5t-371.5 -75t-371.5 75zM976.5 265q83.5 42 128.5 119.5t45 183.5t-45 184t-129 120t-198 42q-115 0 -199 -42t-129 -120
t-45 -184t45 -183.5t129 -119.5t199 -42t198.5 42zM1237 1699h-919v209h919v-209zM339.5 1313q-52.5 45 -52.5 122q0 74 53 119t139 45t139 -45t53 -119q0 -77 -52.5 -122t-139.5 -45t-139.5 45zM938.5 1313q-52.5 45 -52.5 122q0 74 53 119t139 45t138 -45t52 -119
q0 -77 -52 -122t-138 -45q-87 0 -139.5 45z" />
    <glyph glyph-name="uni022C" unicode="&#x22c;" horiz-adv-x="1913" 
d="M499 67.5q-199 97.5 -308.5 274.5t-109.5 408t109.5 408t308.5 274.5t457 97.5q259 0 457.5 -97.5t308.5 -274.5t110 -408t-110 -408t-308.5 -274.5t-457.5 -97.5q-258 0 -457 97.5zM1238.5 331q120.5 58 185 165.5t64.5 253.5t-64.5 253.5t-185 165.5t-282.5 58
t-282 -58t-185 -165.5t-65 -253.5t65 -253.5t185 -165.5t282 -58t282.5 58zM446 1629q18 149 97 232t220 83q53 0 104 -15.5t120 -43.5q53 -22 86.5 -32.5t62.5 -10.5q44 0 71.5 24.5t34.5 69.5h223q-19 -150 -97.5 -233t-218.5 -83q-54 0 -106 15.5t-119 44.5
q-59 23 -90 33t-59 10q-44 0 -71.5 -24.5t-34.5 -69.5h-223zM1416 2053h-919v209h919v-209z" />
    <glyph glyph-name="uni022D" unicode="&#x22d;" horiz-adv-x="1556" 
d="M406.5 45q-161.5 75 -250.5 210.5t-89 312.5q0 178 89 314t250.5 211t371.5 75t371.5 -75t250.5 -211t89 -314q0 -177 -89 -312.5t-250.5 -210.5t-371.5 -75t-371.5 75zM976.5 265q83.5 42 128.5 119.5t45 183.5t-45 184t-129 120t-198 42q-115 0 -199 -42t-129 -120
t-45 -184t45 -183.5t129 -119.5t199 -42t198.5 42zM300 1274q9 163 79.5 254t199.5 91q53 0 104 -17t115 -48q49 -23 80.5 -34t57.5 -11q42 0 70.5 28.5t36.5 79.5h212q-9 -160 -78.5 -252.5t-200.5 -92.5q-53 0 -101 16.5t-119 48.5q-48 23 -78.5 34t-56.5 11
q-43 0 -72 -28.5t-37 -79.5h-212zM1237 1754h-919v208h919v-208z" />
    <glyph glyph-name="uni022E" unicode="&#x22e;" horiz-adv-x="1913" 
d="M499 67.5q-199 97.5 -308.5 274.5t-109.5 408t109.5 408t308.5 274.5t457 97.5q259 0 457.5 -97.5t308.5 -274.5t110 -408t-110 -408t-308.5 -274.5t-457.5 -97.5q-258 0 -457 97.5zM1238.5 331q120.5 58 185 165.5t64.5 253.5t-64.5 253.5t-185 165.5t-282.5 58
t-282 -58t-185 -165.5t-65 -253.5t65 -253.5t185 -165.5t282 -58t282.5 58zM849.5 1651.5q-46.5 21.5 -72 61t-25.5 90.5q0 52 25.5 91.5t72 61.5t106.5 22t106.5 -22t72.5 -61.5t26 -91.5q0 -51 -25.5 -90.5t-72.5 -61t-107 -21.5t-106.5 21.5z" />
    <glyph glyph-name="uni022F" unicode="&#x22f;" horiz-adv-x="1556" 
d="M406.5 45q-161.5 75 -250.5 210.5t-89 312.5q0 178 89 314t250.5 211t371.5 75t371.5 -75t250.5 -211t89 -314q0 -177 -89 -312.5t-250.5 -210.5t-371.5 -75t-371.5 75zM976.5 265q83.5 42 128.5 119.5t45 183.5t-45 184t-129 120t-198 42q-115 0 -199 -42t-129 -120
t-45 -184t45 -183.5t129 -119.5t199 -42t198.5 42zM629.5 1315.5q-56.5 47.5 -56.5 125.5t56.5 125.5t147.5 47.5q92 0 148.5 -47.5t56.5 -125.5t-56.5 -125.5t-148.5 -47.5q-91 0 -147.5 47.5z" />
    <glyph glyph-name="uni0230" unicode="&#x230;" horiz-adv-x="1913" 
d="M499 67.5q-199 97.5 -308.5 274.5t-109.5 408t109.5 408t308.5 274.5t457 97.5q259 0 457.5 -97.5t308.5 -274.5t110 -408t-110 -408t-308.5 -274.5t-457.5 -97.5q-258 0 -457 97.5zM1238.5 331q120.5 58 185 165.5t64.5 253.5t-64.5 253.5t-185 165.5t-282.5 58
t-282 -58t-185 -165.5t-65 -253.5t65 -253.5t185 -165.5t282 -58t282.5 58zM850.5 1651.5q-46.5 21.5 -72 61t-25.5 90.5q0 52 25.5 91.5t72 61.5t106.5 22t106.5 -22t72.5 -61.5t26 -91.5q0 -51 -25.5 -90.5t-72.5 -61t-107 -21.5t-106.5 21.5zM1416 2067h-919v209h919
v-209z" />
    <glyph glyph-name="uni0231" unicode="&#x231;" horiz-adv-x="1556" 
d="M406.5 45q-161.5 75 -250.5 210.5t-89 312.5q0 178 89 314t250.5 211t371.5 75t371.5 -75t250.5 -211t89 -314q0 -177 -89 -312.5t-250.5 -210.5t-371.5 -75t-371.5 75zM976.5 265q83.5 42 128.5 119.5t45 183.5t-45 184t-129 120t-198 42q-115 0 -199 -42t-129 -120
t-45 -184t45 -183.5t129 -119.5t199 -42t198.5 42zM1237 1699h-919v209h919v-209zM629.5 1315.5q-56.5 47.5 -56.5 125.5t56.5 125.5t148.5 47.5q91 0 147.5 -47.5t56.5 -125.5t-56.5 -125.5t-147.5 -47.5q-92 0 -148.5 47.5z" />
    <glyph glyph-name="uni0232" unicode="&#x232;" horiz-adv-x="1794" 
d="M1392 1500h379l-703 -888v-612h-340v608l-706 892h379l496 -626zM1357 1666h-919v209h919v-209z" />
    <glyph glyph-name="uni0233" unicode="&#x233;" horiz-adv-x="1492" 
d="M1129 1137h355l-567 -1188q-76 -162 -197 -235.5t-271 -73.5q-111 0 -201 27t-172 83v241q87 -55 162 -78.5t166 -23.5q87 0 149.5 38.5t101.5 128.5l7 15h-141l-503 1066h368l369 -853zM1222 1318h-919v208h919v-208z" />
    <glyph glyph-name="uni0237" unicode="&#x237;" horiz-adv-x="585" 
d="M125 -330v1480l168 -32l167 32v-1480h-335z" />
    <glyph glyph-name="uni0238" unicode="&#x238;" horiz-adv-x="2611" 
d="M2268.5 1093q128.5 -75 200 -211.5t71.5 -313.5q0 -176 -71.5 -312t-200 -211t-293.5 -75q-159 0 -288.5 76t-214.5 213v-259h-332v261q-85 -139 -214.5 -215t-289.5 -76q-165 0 -293 75t-200 211t-72 312q0 177 72 313.5t200 211.5t293 75q159 0 289 -75.5t215 -212.5
v660h332v-659q85 137 214.5 212t288.5 75q165 0 293.5 -75zM905.5 273q83.5 43 147 119.5t99.5 175.5q-36 99 -99.5 176t-147 120.5t-175.5 43.5q-93 0 -165.5 -43.5t-113.5 -121t-41 -175.5t40.5 -175t113.5 -120t166 -43q92 0 175.5 43zM2047.5 273q72.5 43 113 120
t40.5 175t-40.5 175.5t-113 121t-164.5 43.5q-93 0 -176.5 -43.5t-147.5 -120.5t-100 -176q36 -99 100 -175.5t147.5 -119.5t176.5 -43q92 0 164.5 43z" />
    <glyph glyph-name="uni0239" unicode="&#x239;" horiz-adv-x="2611" 
d="M2268.5 1093q128.5 -75 200 -211.5t71.5 -313.5q0 -176 -71.5 -312t-200 -211t-293.5 -75q-159 0 -288.5 76t-214.5 213v-589h-332v591q-85 -139 -214.5 -215t-289.5 -76q-165 0 -293 75t-200 211t-72 312q0 177 72 313.5t200 211.5t293 75q159 0 289 -75.5t215 -212.5
v257h332v-256q85 137 214.5 212t288.5 75q165 0 293.5 -75zM905.5 273q83.5 43 147 119.5t99.5 175.5q-36 99 -99.5 176t-147 120.5t-175.5 43.5q-93 0 -165.5 -43.5t-113.5 -121t-41 -175.5t40.5 -175t113.5 -120t166 -43q92 0 175.5 43zM2047.5 273q72.5 43 113 120
t40.5 175t-40.5 175.5t-113 121t-164.5 43.5q-93 0 -176.5 -43.5t-147.5 -120.5t-100 -176q36 -99 100 -175.5t147.5 -119.5t176.5 -43q92 0 164.5 43z" />
    <glyph glyph-name="uni023A" unicode="&#x23a;" horiz-adv-x="1859" 
d="M1850 0h-363l-142 316h-427l-225 -560h-232l225 560h-172l-142 -316h-363l702 1500h437l7 -15l104 259h232l-211 -526zM930 1239l-292 -647h159l199 498zM1119 817l-90 -225h192z" />
    <glyph glyph-name="uni023B" unicode="&#x23b;" horiz-adv-x="1847" 
d="M1275.5 357q130.5 90 161.5 254h342q-22 -190 -133 -335.5t-293 -225.5t-412 -80q-92 0 -182 14l-92 -228h-272l121 300q-204 94 -318.5 274.5t-114.5 419.5q0 231 107 408t301.5 274.5t449.5 97.5q80 0 162 -11l90 225h272l-117 -292q183 -79 296 -225t135 -338h-342
q-18 92 -70 163t-134 115l-360 -897q33 -3 66 -3q206 0 336.5 90zM479.5 510.5q53.5 -103.5 152.5 -165.5l355 887q-15 1 -48 1q-157 0 -272.5 -59t-178 -168t-62.5 -256q0 -136 53.5 -239.5z" />
    <glyph glyph-name="uni023C" unicode="&#x23c;" horiz-adv-x="1487" 
d="M915 252.5q72 29.5 120 84t64 127.5h334q-18 -146 -110.5 -258t-240.5 -174t-327 -62q-47 0 -100 5l-73 -215h-226l89 265q-116 45 -201 124t-130.5 186t-45.5 233q0 176 87 312t243 212t357 76q39 0 75 -3l72 212h226l-86 -256q164 -57 268 -174.5t123 -274.5h-334
q-14 64 -51 113.5t-93 80.5l-217 -643h17q88 0 160 29.5zM440 402.5q33 -71.5 94 -115.5l212 627q-103 -2 -179.5 -43.5t-118 -119t-41.5 -183.5q0 -94 33 -165.5z" />
    <glyph glyph-name="uni023D" unicode="&#x23d;" horiz-adv-x="1566" 
d="M556 714v-414h974v-300h-1314v714h-176v239h176v547h340v-547h501v-239h-501z" />
    <glyph glyph-name="uni023E" unicode="&#x23e;" horiz-adv-x="1630" 
d="M1567 1490v-290h-155l-441 -822v-378h-202l-131 -244h-281l274 511v933h-596v300h1256l131 244h281zM971 1200v-298l160 298h-160z" />
    <glyph glyph-name="uni0241" unicode="&#x241;" horiz-adv-x="1462" 
d="M1129.5 1472.5q149.5 -57.5 225 -160.5t75.5 -238q0 -84 -23.5 -147.5t-75.5 -121t-146 -127.5l-128 -94q-71 -53 -108 -99t-51.5 -103t-14.5 -145v-237h-340v289q0 111 23.5 191t73.5 142t134 124l135 100q77 57 112 88t50 61.5t15 73.5q0 94 -87 144t-249 50
q-173 0 -272 -62.5t-119 -179.5h-338q11 144 101.5 259.5t254.5 182.5t388 67q215 0 364.5 -57.5z" />
    <glyph glyph-name="uni0242" unicode="&#x242;" horiz-adv-x="1351" 
d="M485 121q0 103 34.5 172.5t117.5 127.5l180 125q57 39 87 67.5t42.5 56t12.5 65.5q0 81 -72 130t-210 49q-156 0 -236 -62.5t-107 -190.5h-329q28 241 197.5 374t479.5 133q180 0 319 -50.5t217.5 -146.5t78.5 -227q0 -85 -23 -147t-68.5 -111.5t-122.5 -103.5l-160 -113
q-60 -41 -82 -82.5t-22 -110.5v-76h-334v121z" />
    <glyph glyph-name="uni0243" unicode="&#x243;" horiz-adv-x="1837" 
d="M1681 654.5q84 -97.5 84 -238.5q0 -123 -57 -216.5t-169.5 -146.5t-273.5 -53h-1053l52 339h-218v213h250l33 218l-117 730h1016q138 0 236 -44t149.5 -126t51.5 -195q0 -110 -57 -202.5t-177 -144.5q166 -36 250 -133.5zM1268 1208q-52 47 -144 47h-549l60 -369h475
q60 0 108 24t75 69t27 107q0 75 -52 122zM1192 245q108 0 168 52t60 147q0 98 -69.5 154t-199.5 56h-515l-15 -102h427v-213h-460l-14 -94h618z" />
    <glyph glyph-name="uni0244" unicode="&#x244;" horiz-adv-x="1911" 
d="M1869 965v-240h-177v-83q0 -199 -92 -351.5t-259 -236.5t-385 -84t-385 84t-259.5 236.5t-92.5 351.5v83h-176v240h176v535h340v-535h793v535h340v-535h177zM1352 725h-793v-68q0 -118 46.5 -204.5t136 -133t214.5 -46.5q126 0 215 46.5t135 132.5t46 205v68z" />
    <glyph glyph-name="uni0245" unicode="&#x245;" horiz-adv-x="1801" 
d="M1092 1500l699 -1500h-349l-538 1185l-539 -1185h-356l700 1500h383z" />
    <glyph glyph-name="uni0246" unicode="&#x246;" horiz-adv-x="1560" 
d="M882 282h574v-282h-667l-81 -244h-271l81 244h-413l117 750l-117 750h909l81 244h272l-81 -244h160v-282h-253l-112 -338h313v-260h-400zM528 880h281l112 338h-447zM528 620l-54 -338h137l112 338h-195z" />
    <glyph glyph-name="uni0247" unicode="&#x247;" horiz-adv-x="1444" 
d="M742 230q54 -8 110 -8q129 0 259 37t233 104v-224q-113 -80 -262.5 -124.5t-312.5 -44.5q-57 0 -113 6l-73 -216h-226l90 268q-176 70 -278 212.5t-102 331.5q0 175 86 310.5t239 210.5t346 75q42 0 92 -5l72 214h227l-93 -274q162 -80 250.5 -245.5t88.5 -393.5h-554z
M527.5 858.5q-85.5 -63.5 -112.5 -172.5h254l80 236h-9q-127 0 -212.5 -63.5zM1050 686q-25 104 -98 166l-56 -166h154zM425 464q34 -100 116 -158l53 158h-169z" />
    <glyph glyph-name="uni0248" unicode="&#x248;" horiz-adv-x="1672" 
d="M1628 1002v-239h-179v-133q0 -209 -88 -357.5t-247.5 -225.5t-371.5 -77q-210 0 -367.5 79t-244 231t-86.5 366l-1 82h333v-58q0 -199 87.5 -301t278.5 -102q188 0 278 97.5t90 281.5v117h-366v239h366v498h339v-498h179z" />
    <glyph glyph-name="uni0249" unicode="&#x249;" horiz-adv-x="719" 
d="M527 783h151v-205h-151v-908h-335v908h-151v205h151v367l168 -32l167 32v-367zM211.5 1315.5q-56.5 47.5 -56.5 125.5t56.5 125.5t147.5 47.5q92 0 148.5 -47.5t56.5 -125.5t-56.5 -125.5t-148.5 -47.5q-91 0 -147.5 47.5z" />
    <glyph glyph-name="uni024A" unicode="&#x24a;" horiz-adv-x="1935" 
d="M2161 -60v-252q-55 -24 -123.5 -36t-139.5 -12q-228 0 -340.5 120t-112.5 349v238q-105 -181 -266 -279t-363 -98q-216 0 -382 97.5t-257.5 275t-91.5 407.5t91.5 407.5t257.5 275t382 97.5q201 0 362 -96.5t267 -274.5v341h336v-1363q0 -117 46.5 -173.5t150.5 -56.5
q88 0 183 33zM1135 330q110 61 193.5 170t131.5 251q-48 141 -131.5 249.5t-193.5 169.5t-236 61q-138 0 -244.5 -61.5t-166 -170.5t-59.5 -248t59 -248.5t166 -171.5t245 -62q126 0 236 61z" />
    <glyph glyph-name="uni024B" unicode="&#x24b;" horiz-adv-x="1601" 
d="M1857 -63v-255q-54 -21 -122.5 -31.5t-140.5 -10.5q-227 0 -339.5 120t-112.5 347v153q-86 -138 -216 -214t-289 -76q-165 0 -294 75t-200.5 211t-71.5 312q0 177 71.5 313.5t200 211.5t294.5 75q159 0 289 -75t216 -213v257h334v-1001q0 -118 46.5 -175t151.5 -57
q90 0 183 33zM906 273q84 43 147.5 119.5t99.5 175.5q-36 99 -99.5 176t-147.5 120.5t-177 43.5q-92 0 -164.5 -43.5t-113.5 -121t-41 -175.5t41 -175t113.5 -120t164.5 -43q93 0 177 43z" />
    <glyph glyph-name="uni024C" unicode="&#x24c;" horiz-adv-x="1738" 
d="M1282 0l-451 570h-261v-570h-340v575h-190v239h190v686h855q163 0 288 -58.5t194 -164.5t69 -244q0 -118 -52 -213t-147.5 -157t-223.5 -83l468 -580h-399zM1226 1179q-66 53 -182 53h-474v-398h474q116 0 182 53t66 146t-66 146z" />
    <glyph glyph-name="uni024D" unicode="&#x24d;" horiz-adv-x="1099" 
d="M1072 1150v-288q-99 23 -202 23q-96 0 -172 -38t-123.5 -116t-55.5 -193h254v-206h-256v-332h-334v332h-150v206h150v226l-72 373h338l51 -307q55 158 160 248t263 90q75 0 149 -18z" />
    <glyph glyph-name="uni024E" unicode="&#x24e;" horiz-adv-x="1902" 
d="M1860 1323v-240h-365l-373 -471v-612h-340v608l-376 475h-364v240h174l-140 177h379l140 -177h711l140 177h379l-140 -177h175zM785 1083l166 -209l165 209h-331z" />
    <glyph glyph-name="uni024F" unicode="&#x24f;" horiz-adv-x="1579" 
d="M1553 849v-200h-264l-334 -700q-77 -162 -198 -235.5t-270 -73.5q-112 0 -201.5 27t-172.5 83v241q86 -55 162 -78.5t167 -23.5q87 0 149.5 38.5t101.5 128.5l7 15h-141l-273 578h-254v200h160l-136 288h368l124 -288h493l126 288h355l-137 -288h168zM635 649l158 -366
l160 366h-318z" />
    <glyph glyph-name="uni0250" unicode="&#x250;" horiz-adv-x="1438" 
d="M628.5 462q-115.5 46 -195.5 119v-82q0 -131 97 -201t291 -70q121 0 240.5 28.5t221.5 85.5v-249q-124 -64 -256 -93.5t-282 -29.5q-195 0 -338 59.5t-220 175t-77 280.5v652h316v-148q80 79 197.5 129t259.5 50q143 0 257 -45.5t178.5 -130.5t64.5 -200
q0 -114 -65.5 -199t-179 -131t-255.5 -46q-139 0 -254.5 46zM424 792q134 -167 361 -167q79 0 139 20.5t93 58.5t33 88q0 78 -72.5 123t-192.5 45q-229 0 -361 -168z" />
    <glyph glyph-name="uni0251" unicode="&#x251;" horiz-adv-x="1613" 
d="M1515 1137l-66 -568l66 -569h-346l-30 256q-85 -136 -214.5 -211t-287.5 -75q-165 0 -294 75t-200.5 211t-71.5 312q0 177 71.5 313.5t200 211.5t294.5 75q158 0 287.5 -74.5t215.5 -210.5l29 254h346zM906 273q84 43 147.5 119.5t99.5 175.5q-36 99 -99.5 176
t-147.5 120.5t-177 43.5q-92 0 -164.5 -43.5t-113.5 -121t-41 -175.5t41 -175t113.5 -120t164.5 -43q93 0 177 43z" />
    <glyph glyph-name="uni0252" unicode="&#x252;" horiz-adv-x="1612" 
d="M1270.5 1093q128.5 -75 200 -211.5t71.5 -313.5q0 -176 -71.5 -312t-200.5 -211t-294 -75q-158 0 -287.5 75t-214.5 211l-30 -256h-346l66 569l-66 568h346l29 -254q86 136 215.5 210.5t287.5 74.5q166 0 294.5 -75zM1048.5 273q72.5 43 113.5 120t41 175t-41 175.5
t-113.5 121t-164.5 43.5q-93 0 -177 -43.5t-147.5 -120.5t-99.5 -176q36 -99 99.5 -175.5t147.5 -119.5t177 -43q92 0 164.5 43z" />
    <glyph glyph-name="uni0253" unicode="&#x253;" horiz-adv-x="1600" 
d="M1257.5 1050.5q128.5 -72.5 200 -203.5t71.5 -302q0 -169 -71.5 -300t-200.5 -203t-294 -72q-158 0 -287.5 72.5t-215.5 203.5v-246h-335v1081q0 248 129.5 368.5t414.5 120.5q89 0 172.5 -14t149.5 -38v-253q-57 24 -125.5 37.5t-139.5 13.5q-142 0 -204 -64t-62 -202
v-201q86 131 215.5 202.5t287.5 71.5q166 0 294.5 -72.5zM1035.5 270q72.5 40 113.5 112t41 163q0 92 -41 164.5t-113.5 113t-164.5 40.5q-93 0 -177 -40t-147.5 -112t-99.5 -166q36 -93 99.5 -164t147.5 -111t177 -40q92 0 164.5 40z" />
    <glyph glyph-name="uni0254" unicode="&#x254;" horiz-adv-x="1486" 
d="M55 673q18 146 110.5 258.5t240 174.5t326.5 62q201 0 357 -75.5t243 -211.5t87 -312t-87 -312t-243 -211.5t-357 -75.5q-179 0 -326.5 62t-240 174.5t-110.5 258.5h334q24 -114 117 -178t226 -64q106 0 184.5 41.5t121.5 119.5t43 185t-43 185t-121.5 119t-184.5 41
q-88 0 -160 -29.5t-119.5 -84.5t-63.5 -127h-334z" />
    <glyph glyph-name="uni0256" unicode="&#x256;" horiz-adv-x="1676" 
d="M1896 -53v-260q-54 -21 -125 -34t-138 -13q-222 0 -330.5 92t-129.5 279l-28 253q-86 -140 -217 -217t-291 -77q-165 0 -294 75t-200.5 211t-71.5 312q0 177 71.5 313.5t200 211.5t294.5 75q160 0 291 -76t216 -215l74 663h346l-110 -948l48 -442q10 -87 32 -137.5
t64 -73.5t113 -23q92 0 185 31zM906 273q84 43 147.5 119.5t99.5 175.5q-36 99 -99.5 176t-147.5 120.5t-177 43.5q-92 0 -164.5 -43.5t-113.5 -121t-41 -175.5t41 -175t113.5 -120t164.5 -43q93 0 177 43z" />
    <glyph glyph-name="uni0257" unicode="&#x257;" horiz-adv-x="1597" 
d="M1696.5 1557.5q63.5 -12.5 111.5 -33.5v-245q-36 17 -80 27.5t-84 10.5q-88 0 -129.5 -44t-41.5 -137v-1136h-334v255q-86 -136 -215.5 -210.5t-286.5 -74.5q-165 0 -294 75t-200.5 211t-71.5 312q0 177 71.5 313.5t200 211.5t294.5 75q158 0 287 -74t215 -209v250
q0 435 422 435q72 0 135.5 -12.5zM906 273q84 43 147.5 119.5t99.5 175.5q-36 99 -99.5 176t-147.5 120.5t-177 43.5q-92 0 -164.5 -43.5t-113.5 -121t-41 -175.5t41 -175t113.5 -120t164.5 -43q93 0 177 43z" />
    <glyph glyph-name="uni0259" unicode="&#x259;" horiz-adv-x="1443" 
d="M1037 1092.5q160 -75.5 250 -212.5t90 -314q0 -175 -86.5 -310.5t-239.5 -210.5t-346 -75q-194 0 -337.5 88t-221 249.5t-77.5 377.5h945q-42 111 -150 171t-270 60q-127 0 -256.5 -34.5t-233.5 -93.5v218q113 75 264.5 118.5t306.5 43.5q202 0 362 -75.5zM919 274.5
q87 67.5 111 183.5h-645q28 -120 110.5 -185.5t207.5 -65.5q129 0 216 67.5z" />
    <glyph glyph-name="uni025B" unicode="&#x25b;" horiz-adv-x="1433" 
d="M1395 371q-8 -112 -86 -203t-228 -144.5t-364 -53.5q-213 0 -358.5 47.5t-217.5 128t-72 179.5q0 105 73.5 171.5t235.5 92.5q-147 31 -211.5 99.5t-64.5 158.5q0 93 67.5 165.5t205 114t340.5 41.5q195 0 336.5 -52.5t218 -141.5t85.5 -199h-325q-19 68 -95.5 111.5
t-215.5 43.5q-143 0 -211 -35t-68 -90q0 -58 58.5 -90.5t195.5 -32.5h234v-202h-233q-107 0 -170 -13.5t-89.5 -40.5t-26.5 -70q0 -70 77 -109.5t240 -39.5q165 0 245.5 41.5t93.5 122.5h330z" />
    <glyph glyph-name="uni025F" unicode="&#x25f;" horiz-adv-x="719" 
d="M527 783h151v-205h-151v-908h-335v908h-151v205h151v367l168 -32l167 32v-367z" />
    <glyph glyph-name="uni0260" unicode="&#x260;" horiz-adv-x="1593" 
d="M2004 1518v-243q-133 53 -266 53q-138 0 -202 -68.5t-64 -206.5v-750q0 -210 -93.5 -359.5t-262.5 -226.5t-392 -77q-154 0 -285.5 40.5t-259.5 125.5v256q228 -175 524 -175q213 0 324 99.5t111 296.5v62q-89 -107 -222 -174t-295 -67q-157 0 -283.5 66.5t-198.5 187.5
t-72 278t72 278t198.5 187.5t283.5 66.5q162 0 294.5 -69.5t222.5 -180.5v146q0 258 134.5 382t409.5 124q160 0 322 -52zM967 411.5q105 72.5 183 224.5q-155 298 -420 298q-101 0 -174.5 -37t-112.5 -104.5t-39 -156.5t38.5 -156t112 -104t175.5 -37q132 0 237 72.5z" />
    <glyph glyph-name="uni0261" unicode="&#x261;" horiz-adv-x="1592" 
d="M1138 1137h334v-834q0 -210 -93.5 -359.5t-262.5 -226.5t-392 -77q-153 0 -285 39.5t-260 122.5v262q228 -174 524 -174q213 0 324 98.5t111 294.5v62q-89 -107 -222 -174t-295 -67q-157 0 -283.5 66.5t-198.5 187.5t-72 278t72 278t198.5 187.5t283.5 66.5
q162 0 294.5 -69.5t222.5 -180.5v219zM1150 636q-154 298 -420 298q-101 0 -174.5 -37t-112.5 -104.5t-39 -156.5t38.5 -156t112 -104t175.5 -37q266 0 420 297z" />
    <glyph glyph-name="uni0263" unicode="&#x263;" horiz-adv-x="1520" 
d="M1498 1137l-538 -887q94 -125 131.5 -196.5t37.5 -142.5q0 -82 -44.5 -143t-128 -94.5t-196.5 -33.5t-196.5 33t-128 94.5t-44.5 143.5q0 71 37.5 142.5t131.5 197.5l-538 886h364l378 -666l382 666h352zM831.5 -128q26.5 22 26.5 58q0 31 -22.5 73t-75.5 116
q-53 -74 -76 -115.5t-23 -73.5q0 -36 27 -58t72 -22t71.5 22z" />
    <glyph glyph-name="uni0264" unicode="&#x264;" horiz-adv-x="1520" 
d="M1498 1137l-538 -887q94 -125 131.5 -196.5t37.5 -142.5q0 -82 -44.5 -143t-128 -94.5t-196.5 -33.5t-196.5 33t-128 94.5t-44.5 143.5q0 71 37.5 142.5t131.5 197.5l-538 886h364l378 -666l382 666h352zM831.5 -128q26.5 22 26.5 58q0 31 -22.5 73t-75.5 116
q-53 -74 -76 -115.5t-23 -73.5q0 -36 27 -58t72 -22t71.5 22z" />
    <glyph glyph-name="uni0265" unicode="&#x265;" horiz-adv-x="1495" 
d="M1035 1137h334v-1467h-334v532q-73 -113 -183 -172.5t-242 -59.5q-157 0 -269.5 64.5t-171.5 185t-59 285.5v632h334v-583q0 -151 71.5 -230.5t207.5 -79.5q95 0 165.5 42t108.5 119.5t38 181.5v550z" />
    <glyph glyph-name="uni0266" unicode="&#x266;" horiz-adv-x="1515" 
d="M1169 1076.5q115 -64.5 175.5 -185t60.5 -285.5v-606h-335v555q0 153 -74 232.5t-215 79.5q-97 0 -169.5 -42t-112 -119.5t-39.5 -181.5v-524h-335v1081q0 248 129.5 368.5t414.5 120.5q89 0 172.5 -14t149.5 -38v-253q-57 24 -125.5 37.5t-139.5 13.5q-142 0 -204 -63
t-62 -200v-146q75 114 187 174t247 60q160 0 275 -64.5z" />
    <glyph glyph-name="uni0267" unicode="&#x267;" horiz-adv-x="1514" 
d="M1169 1076.5q115 -64.5 175.5 -185t60.5 -285.5v-499q0 -227 -112.5 -347t-340.5 -120q-71 0 -140 10.5t-123 31.5v255q95 -33 183 -33q105 0 151.5 57t46.5 175v419q0 153 -74 232.5t-215 79.5q-97 0 -169.5 -42t-112 -119.5t-39.5 -181.5v-524h-335v1081
q0 248 129.5 368.5t414.5 120.5q89 0 172.5 -14t149.5 -38v-253q-57 24 -125.5 37.5t-139.5 13.5q-142 0 -204 -63t-62 -200v-146q75 114 187 174t247 60q160 0 275 -64.5z" />
    <glyph glyph-name="uni0268" unicode="&#x268;" horiz-adv-x="718" 
d="M211 1315.5q-56 47.5 -56 125.5t56 125.5t148 47.5t148 -47.5t56 -125.5t-56 -125.5t-148 -47.5t-148 47.5zM526 783h151v-205h-151v-578h-334v578h-151v205h151v367l167 -32l167 32v-367z" />
    <glyph glyph-name="uni0269" unicode="&#x269;" horiz-adv-x="868" 
d="M450 407q0 -95 44 -136t135 -41q62 0 113.5 15.5t105.5 46.5v-267q-55 -24 -125 -39.5t-145 -15.5q-153 0 -257 51t-155 142.5t-51 214.5v759h335v-730z" />
    <glyph glyph-name="uni026A" unicode="&#x26a;" horiz-adv-x="1202" 
d="M1131 1137v-205h-363v-727h363v-205h-1060v205h363v727h-363v205h1060z" />
    <glyph glyph-name="uni026C" unicode="&#x26c;" horiz-adv-x="1172" 
d="M1142 785q-170 -104 -331 -158v-627h-334v557q-38 -3 -75 -3q-119 0 -204.5 34.5t-131 100t-45.5 156.5q0 78 34.5 140t101 97t159.5 35q90 0 161 -34v457h334v-705q152 57 331 173v-223zM477 748v142q-46 55 -126 55q-53 0 -82 -25.5t-29 -67.5q0 -48 41 -78t131 -30
q36 0 65 4z" />
    <glyph glyph-name="uni026F" unicode="&#x26f;" horiz-adv-x="2362" 
d="M2292 0h-334l-42 250q-68 -136 -181.5 -208t-254.5 -72q-166 0 -279.5 76.5t-164.5 218.5q-67 -142 -182.5 -218.5t-259.5 -76.5q-152 0 -261 64.5t-166 185t-57 285.5v632h334v-581q0 -153 67 -232.5t194 -79.5q89 0 155.5 42t102 119.5t35.5 181.5v550h334v-581
q0 -153 67 -232.5t194 -79.5q89 0 155.5 42t102 119.5t35.5 181.5v550h334v-754z" />
    <glyph glyph-name="uni0271" unicode="&#x271;" horiz-adv-x="2362" 
d="M2029 1103.5q109 -64.5 166 -185t57 -285.5v-526q0 -227 -112.5 -347t-340.5 -120q-71 0 -140 10.5t-123 31.5v255q95 -33 184 -33q105 0 151.5 57t46.5 175v446q0 152 -67 232t-194 80q-89 0 -155.5 -42.5t-102 -120t-35.5 -180.5v-551h-334v582q0 152 -67 232t-194 80
q-89 0 -155.5 -42.5t-102 -120t-35.5 -180.5v-551h-334v755l-72 382h334l42 -249q68 135 181.5 207.5t254.5 72.5q166 0 279.5 -77t164.5 -219q68 143 183 219.5t259 76.5q152 0 261 -64.5z" />
    <glyph glyph-name="uni0272" unicode="&#x272;" horiz-adv-x="1531" 
d="M1186 1103.5q115 -64.5 175 -185t60 -285.5v-633h-335v582q0 152 -74 232t-214 80q-98 0 -170.5 -42.5t-112 -120t-39.5 -180.5v-476q0 -435 -423 -435q-142 0 -246 49v233q36 -18 79 -28.5t85 -10.5q88 0 129.5 44.5t41.5 137.5v690l-72 382h334l42 -255
q72 138 193.5 212t270.5 74q161 0 276 -64.5z" />
    <glyph glyph-name="uni0275" unicode="&#x275;" horiz-adv-x="1556" 
d="M1149.5 1093q161.5 -75 250.5 -211t89 -314q0 -177 -89 -312.5t-250.5 -210.5t-371.5 -75t-371.5 75t-250.5 210.5t-89 312.5q0 178 89 314t250.5 211t371.5 75t371.5 -75zM545.5 852.5q-93.5 -61.5 -125.5 -171.5h715q-32 110 -125 171.5t-232 61.5t-232.5 -61.5z
M1009.5 283.5q92.5 60.5 124.5 169.5h-713q32 -109 125 -169.5t232 -60.5t231.5 60.5z" />
    <glyph glyph-name="uni0278" unicode="&#x278;" horiz-adv-x="1852" 
d="M1698.5 259.5q-86.5 -134.5 -244 -210.5t-362.5 -79v-300h-333v300q-205 3 -362 79t-243.5 210.5t-86.5 308.5q0 175 86.5 310t243 211t362.5 79v372h333v-372q206 -3 363 -79t243.5 -211t86.5 -310q0 -174 -86.5 -308.5zM447.5 388q42.5 -77 122.5 -120t189 -46v693
q-109 -3 -189 -46.5t-122.5 -120.5t-42.5 -180t42.5 -180zM1092 222q110 3 190 46t122.5 120t42.5 180t-42.5 180t-122.5 120.5t-190 46.5v-693z" />
    <glyph glyph-name="uni027D" unicode="&#x27d;" horiz-adv-x="1058" 
d="M476 136q0 -118 46.5 -175t151.5 -57q90 0 183 33v-255q-54 -21 -122.5 -31.5t-140.5 -10.5q-227 0 -339.5 120t-112.5 347v657l-72 373h338l51 -306q54 158 158.5 247.5t263.5 89.5q77 0 149 -18v-288q-99 23 -201 23q-103 0 -182.5 -43t-125 -131.5t-45.5 -219.5v-355z
" />
    <glyph glyph-name="uni027E" unicode="&#x27e;" horiz-adv-x="848" 
d="M708 1157.5q69 -10.5 123 -31.5v-255q-95 33 -184 33q-105 0 -151.5 -57t-46.5 -175v-672h-334v701q0 227 112.5 347t340.5 120q71 0 140 -10.5z" />
    <glyph glyph-name="uni0283" unicode="&#x283;" horiz-adv-x="664" 
d="M909.5 1558q68.5 -12 144.5 -36v-244q-112 45 -244 45q-140 0 -206 -58t-66 -185v-934q0 -240 -137.5 -373t-407.5 -133q-77 0 -139 12t-132 36v252q106 -47 230 -47q134 0 192.5 54.5t58.5 176.5v940q0 158 62.5 271.5t187 174t307.5 60.5q81 0 149.5 -12z" />
    <glyph glyph-name="uni0284" unicode="&#x284;" horiz-adv-x="818" 
d="M900.5 1558q67.5 -12 145.5 -36v-252q-117 47 -253 47q-141 0 -202 -54.5t-61 -176.5v-681h171v-205h-171v-530h-335v530h-151v205h151v659q0 240 141 373t416 133q81 0 148.5 -12z" />
    <glyph glyph-name="uni0288" unicode="&#x288;" horiz-adv-x="1071" 
d="M593 133q0 -118 46.5 -175t151.5 -57q84 0 183 33v-252q-54 -21 -122.5 -31.5t-140.5 -10.5q-227 0 -339.5 120t-112.5 347v779h-238v148l238 78l142 327h192v-302h503v-251h-503v-753z" />
    <glyph glyph-name="uni0289" unicode="&#x289;" horiz-adv-x="1674" 
d="M1635 578h-178v-197l72 -381h-335l-41 252q-71 -136 -189 -209t-264 -73q-156 0 -268 64.5t-170.5 185t-58.5 285.5v73h-156v205h156v354h334v-354h586v354h334v-354h178v-205zM977 284.5q69 40.5 107 115.5t39 178h-586v-24q0 -151 71 -230.5t205 -79.5q95 0 164 40.5z
" />
    <glyph glyph-name="uni028A" unicode="&#x28a;" horiz-adv-x="1594" 
d="M1521 1137v-227h-256q111 -74 166.5 -176.5t55.5 -223.5q0 -161 -85.5 -283.5t-241.5 -189.5t-362 -67q-207 0 -363.5 67t-242.5 189.5t-86 283.5q0 121 55.5 223t166.5 177h-255v227h602v-173q-121 -60 -183.5 -162.5t-62.5 -227.5q0 -103 44 -182.5t127.5 -124
t197.5 -44.5q112 0 195 44.5t127.5 124t44.5 182.5q0 126 -62 228t-184 162v173h602z" />
    <glyph glyph-name="uni028B" unicode="&#x28b;" horiz-adv-x="1521" 
d="M1356.5 341q-95.5 -171 -266.5 -271t-388 -100q-304 0 -448.5 150.5t-144.5 421.5v595h333v-593q0 -146 67.5 -226t207.5 -80q116 0 206.5 56t141 154t50.5 219q0 118 -52.5 183t-160.5 65q-44 0 -87 -12t-78 -30v246q53 21 120.5 35t142.5 14q220 0 336 -117.5
t116 -335.5q0 -203 -95.5 -374z" />
    <glyph glyph-name="uni028C" unicode="&#x28c;" horiz-adv-x="1483" 
d="M931 1137l543 -1137h-368l-367 851l-373 -851h-357l543 1137h379z" />
    <glyph glyph-name="uni028E" unicode="&#x28e;" horiz-adv-x="1489" 
d="M1476 0h-368l-369 854l-374 -854h-355l568 1189q76 162 197 235.5t271 73.5q111 0 200.5 -27.5t172.5 -83.5v-241q-87 55 -162.5 79t-165.5 24q-88 0 -150 -38.5t-102 -129.5l-7 -15h142z" />
    <glyph glyph-name="uni0292" unicode="&#x292;" horiz-adv-x="1450" 
d="M826 550q192 -5 319.5 -63.5t189 -155.5t61.5 -219q0 -138 -79 -244.5t-233.5 -167t-372.5 -60.5q-208 0 -362.5 65.5t-239 180.5t-92.5 262h318q12 -78 58.5 -137t127.5 -91.5t190 -32.5t187 29t118.5 83t40.5 128q0 105 -86 166t-274 61h-221v213l448 324h-807v246
h1198v-241z" />
    <glyph glyph-name="uni0294" unicode="&#x294;" horiz-adv-x="1314" 
d="M481 510q0 105 35.5 172t114.5 121l189 132q53 37 81 64t41 55.5t13 67.5q0 92 -69.5 142t-212.5 50q-156 0 -236 -61.5t-107 -188.5h-329q28 240 197.5 373t479.5 133q189 0 327.5 -51.5t213 -150t74.5 -236.5q0 -110 -50 -198t-167 -170l-175 -122q-50 -34 -68 -73
t-18 -105v-464h-334v510z" />
    <glyph glyph-name="uni0295" unicode="&#x295;" horiz-adv-x="1307" 
d="M833 0h-334v464q0 66 -18 105t-68 73l-175 122q-117 82 -167 170t-50 198q0 138 74.5 236.5t213 150t327.5 51.5q310 0 479.5 -133t197.5 -373h-329q-26 127 -106 188.5t-237 61.5q-143 0 -212 -49.5t-69 -142.5q0 -39 12.5 -67.5t40.5 -55.5t81 -64l190 -132
q79 -54 114 -121t35 -172v-510z" />
    <glyph glyph-name="uni0298" unicode="&#x298;" horiz-adv-x="1868" 
d="M485 70q-195 100 -302.5 282t-107.5 418t107.5 418t302.5 282t449 100t449.5 -100t303 -281.5t107.5 -418.5t-107.5 -418.5t-303 -281.5t-449.5 -100t-449 100zM1210.5 289.5q117.5 66.5 181 190t63.5 290.5t-63.5 290.5t-181 190t-276.5 66.5t-276.5 -66.5t-181 -190
t-63.5 -290.5t63.5 -290.5t181 -190t276.5 -66.5t276.5 66.5zM846 619q-40 23 -63 63t-23 88t23 88t63 63t88 23q49 0 88.5 -23t62.5 -63t23 -88t-23 -88t-62.5 -63t-88.5 -23q-48 0 -88 23z" />
    <glyph glyph-name="uni029D" unicode="&#x29d;" horiz-adv-x="1155" 
d="M626 1315.5q-56 47.5 -56 125.5t56 125.5t148 47.5q91 0 147.5 -47.5t56.5 -125.5t-56.5 -125.5t-147.5 -47.5q-92 0 -148 47.5zM941 239q85 -54 151 -115v-250q-67 71 -160 137q-20 -114 -85 -197.5t-168 -128.5t-236 -45q-139 0 -241.5 48.5t-157.5 134.5t-55 198
q0 114 53.5 201t151 135t226.5 48q93 0 187 -23v762l167 -33l167 33v-905zM607 174q-95 28 -169 28q-101 0 -155 -45.5t-54 -122.5q0 -68 47.5 -112t132.5 -44q94 0 146 55t52 149v92z" />
    <glyph glyph-name="uni02A7" unicode="&#x2a7;" horiz-adv-x="1687" 
d="M1933 1558q68 -12 145 -36v-244q-113 45 -244 45q-140 0 -206.5 -58t-66.5 -185v-934q0 -240 -137.5 -373t-409.5 -133q-73 0 -136.5 10.5t-132.5 31.5v230q88 -36 193 -36q152 3 220.5 65t68.5 199v745h-643v-398q0 -90 22.5 -142t72.5 -75t135 -23q68 0 125.5 16
t113.5 48v-254q-63 -31 -143 -51.5t-170 -20.5q-249 0 -369.5 120.5t-120.5 334.5v445h-237v149l237 78l143 327h191v-302h647q21 207 160.5 320t392.5 113q81 0 149 -12z" />
    <glyph glyph-name="uni02B0" unicode="&#x2b0;" horiz-adv-x="1233" 
d="M938.5 1422.5q89.5 -50.5 137 -144.5t47.5 -222v-496h-285v453q0 111 -54.5 169.5t-156.5 58.5q-71 0 -123.5 -31t-81 -88t-28.5 -133v-429h-284v1202h284v-466q58 86 143.5 131.5t187.5 45.5q124 0 213.5 -50.5z" />
    <glyph glyph-name="uni02B1" unicode="&#x2b1;" horiz-adv-x="1233" 
d="M939 1394q90 -51 137 -145.5t47 -222.5v-466h-285v425q0 110 -54.5 168.5t-156.5 58.5q-71 0 -123.5 -31t-81 -88t-28.5 -133v-400h-284v835q0 199 103.5 295t329.5 96q67 0 133 -11t121 -29v-210q-96 37 -203 37q-105 0 -152.5 -46.5t-47.5 -148.5v-110
q58 86 143.5 131.5t187.5 45.5q124 0 214 -51z" />
    <glyph glyph-name="uni02B2" unicode="&#x2b2;" horiz-adv-x="524" 
d="M139 1583q-47 39 -47 104t47 104t123 39t122.5 -39t46.5 -104t-46.5 -104t-122.5 -39t-123 39zM120 302v1153l142 -28l142 28v-1153h-284z" />
    <glyph glyph-name="uni02B3" unicode="&#x2b3;" horiz-adv-x="757" 
d="M816 1460v-244q-81 18 -158 18q-118 0 -191 -74t-73 -224v-376h-284v594l-56 295h288l39 -238q42 123 121.5 192.5t201.5 69.5q59 0 112 -13z" />
    <glyph glyph-name="uni02B7" unicode="&#x2b7;" horiz-adv-x="1555" 
d="M1130 845l210 604h284l-326 -889h-291l-228 622l-230 -622h-291l-326 889h286l209 -601l216 601h273z" />
    <glyph glyph-name="uni02B8" unicode="&#x2b8;" horiz-adv-x="1026" 
d="M867 1449h301l-431 -918q-62 -132 -160.5 -191.5t-218.5 -59.5q-90 0 -162.5 22t-140.5 69v201q71 -45 131.5 -63.5t131.5 -18.5q70 0 117 31t77 100l3 6h-121l-383 822h313l268 -641z" />
    <glyph glyph-name="uni02B9" unicode="&#x2b9;" horiz-adv-x="572" 
d="M184 895l-64 605h332l-64 -605h-204z" />
    <glyph glyph-name="uni02BB" unicode="&#x2bb;" horiz-adv-x="499" 
d="M309 1528q58 -14 90.5 -51t32.5 -90q0 -68 -51 -108.5t-136 -40.5q-86 0 -137 42t-51 110q0 37 10 65.5t30 57.5t64 86l93 119h168z" />
    <glyph glyph-name="uni02BC" unicode="&#x2bc;" horiz-adv-x="554" 
d="M399.5 1492.5q44.5 -25.5 70.5 -70t26 -99.5q0 -53 -24 -111.5t-83 -150.5l-118 -186h-168l129 275q-56 20 -90.5 69t-34.5 109q0 52 26 95.5t70.5 69t98.5 25.5q53 0 97.5 -25.5z" />
    <glyph glyph-name="uni02BE" unicode="&#x2be;" horiz-adv-x="485" 
d="M86 1517q103 0 182.5 -37.5t124 -106t44.5 -157.5q0 -88 -44.5 -156t-124 -105.5t-182.5 -37.5v168q78 0 119 34t41 97q0 65 -40.5 98.5t-119.5 33.5v169z" />
    <glyph glyph-name="uni02BF" unicode="&#x2bf;" horiz-adv-x="485" 
d="M399 1348q-79 0 -119.5 -33.5t-40.5 -98.5q0 -63 41 -97t119 -34v-168q-103 0 -182.5 37.5t-124 105.5t-44.5 156q0 89 44.5 157.5t124 106t182.5 37.5v-169z" />
    <glyph glyph-name="uni02C0" unicode="&#x2c0;" horiz-adv-x="604" 
d="M107 953q0 86 28 139.5t90 96.5l147 102q57 39 78.5 68t21.5 70q0 69 -50 106t-153 37q-113 0 -172.5 -46t-78.5 -141h-279q19 188 153 294.5t381 106.5q150 0 259.5 -41t168 -119t58.5 -188q0 -87 -38.5 -157t-126.5 -132l-138 -97q-37 -26 -50.5 -56.5t-13.5 -79.5
v-356h-285v393z" />
    <glyph glyph-name="uni02C1" unicode="&#x2c1;" horiz-adv-x="602" 
d="M496 560h-284v356q0 50 -13.5 80t-50.5 56l-138 97q-89 63 -127.5 132t-38.5 157q0 110 59 188t168.5 119t259.5 41q242 0 377.5 -104.5t156.5 -296.5h-280q-19 94 -77.5 140.5t-172.5 46.5q-103 0 -152.5 -37t-49.5 -106q0 -42 20.5 -70.5t78.5 -67.5l147 -102
q62 -43 89.5 -97.5t27.5 -138.5v-393z" />
    <glyph glyph-name="circumflex" unicode="&#x2c6;" horiz-adv-x="1035" 
d="M692 1615l286 -361h-272l-188 192l-187 -192h-274l286 361h349z" />
    <glyph glyph-name="caron" unicode="&#x2c7;" horiz-adv-x="1035" 
d="M517 1422l188 193h273l-286 -361h-349l-286 361h272z" />
    <glyph glyph-name="uni02C8" unicode="&#x2c8;" horiz-adv-x="504" 
d="M109 895v605h286v-605h-286z" />
    <glyph glyph-name="uni02C9" unicode="&#x2c9;" horiz-adv-x="1021" 
d="M981 1318h-919v208h919v-208z" />
    <glyph glyph-name="breve" unicode="&#x2d8;" horiz-adv-x="1020" 
d="M309 1613q16 -77 69 -120t132 -43q78 0 131.5 43t70.5 120h251q-26 -176 -143.5 -273.5t-309.5 -97.5q-191 0 -309 97.5t-144 273.5h252z" />
    <glyph glyph-name="dotaccent" unicode="&#x2d9;" horiz-adv-x="585" 
d="M144.5 1315.5q-56.5 47.5 -56.5 125.5t56.5 125.5t147.5 47.5q92 0 148.5 -47.5t56.5 -125.5t-56.5 -125.5t-148.5 -47.5q-91 0 -147.5 47.5z" />
    <glyph glyph-name="ring" unicode="&#x2da;" horiz-adv-x="812" 
d="M220.5 1265.5q-78.5 31.5 -120.5 90.5t-42 139t42 139t120.5 90.5t186.5 31.5q107 0 185.5 -31.5t120 -90.5t41.5 -139t-41.5 -139t-120 -90.5t-185.5 -31.5q-108 0 -186.5 31.5zM520.5 1410q40.5 30 40.5 85t-40.5 85.5t-113.5 30.5t-114 -30.5t-41 -85.5t40.5 -85
t114.5 -30q73 0 113.5 30z" />
    <glyph glyph-name="ogonek" unicode="&#x2db;" horiz-adv-x="623" 
d="M520 25v-25h44q-114 -33 -178 -70t-64 -77q0 -28 31.5 -43t91.5 -15q64 0 119 13v-191q-28 -10 -85.5 -18t-114.5 -8q-87 0 -153 23.5t-102.5 67t-36.5 101.5q0 84 79.5 147t243.5 107z" />
    <glyph glyph-name="tilde" unicode="&#x2dc;" horiz-adv-x="1051" 
d="M48 1274q9 163 79.5 254t199.5 91q53 0 104 -17t115 -48q49 -23 80.5 -34t57.5 -11q42 0 70.5 28.5t36.5 79.5h212q-9 -160 -78.5 -252.5t-200.5 -92.5q-53 0 -101 16.5t-119 48.5q-48 23 -78.5 34t-56.5 11q-43 0 -72 -28.5t-37 -79.5h-212z" />
    <glyph glyph-name="hungarumlaut" unicode="&#x2dd;" horiz-adv-x="1094" 
d="M59 1254l222 361h301l-236 -361h-287zM514 1254l220 361h302l-237 -361h-285z" />
    <glyph glyph-name="uni02E1" unicode="&#x2e1;" horiz-adv-x="504" 
d="M110 560v1202h284v-1202h-284z" />
    <glyph glyph-name="uni02E2" unicode="&#x2e2;" horiz-adv-x="1175" 
d="M1045.5 676.5q-58.5 -69.5 -170 -105.5t-268.5 -36q-162 0 -284 40.5t-190 114t-73 171.5h289q14 -63 84.5 -98.5t183.5 -35.5q208 0 208 95q0 36 -39 54t-135 25l-161 13q-214 17 -309.5 84t-95.5 182q0 95 59.5 161t168 99t254.5 33q144 0 258 -39t182.5 -108.5
t77.5 -160.5h-287q-13 54 -73 89t-171 35q-90 0 -140 -23.5t-50 -66.5q0 -31 32 -50t110 -25l210 -17q207 -16 297.5 -80t90.5 -183q0 -98 -58.5 -167.5z" />
    <glyph glyph-name="uni02E3" unicode="&#x2e3;" horiz-adv-x="1158" 
d="M756 1015l380 -455h-323l-238 288l-235 -288h-318l373 452l-349 437h318l218 -268l218 268h312z" />
    <glyph glyph-name="gravecomb" unicode="&#x300;" 
d="M-634 1615h329l247 -361h-314z" />
    <glyph glyph-name="acutecomb" unicode="&#x301;" 
d="M-634 1254l248 361h328l-262 -361h-314z" />
    <glyph glyph-name="uni0302" unicode="&#x302;" 
d="M-343 1615l286 -361h-272l-188 192l-187 -192h-274l286 361h349z" />
    <glyph glyph-name="tildecomb" unicode="&#x303;" 
d="M-1003 1274q9 163 79.5 254t199.5 91q53 0 104 -17t115 -48q49 -23 80.5 -34t57.5 -11q42 0 70.5 28.5t36.5 79.5h212q-9 -160 -78.5 -252.5t-200.5 -92.5q-53 0 -101 16.5t-119 48.5q-48 23 -78.5 34t-56.5 11q-43 0 -72 -28.5t-37 -79.5h-212z" />
    <glyph glyph-name="uni0304" unicode="&#x304;" 
d="M-63 1318h-919v208h919v-208z" />
    <glyph glyph-name="uni0306" unicode="&#x306;" 
d="M-711 1613q16 -77 69 -120t132 -43q78 0 131.5 43t70.5 120h251q-26 -176 -143.5 -273.5t-309.5 -97.5q-191 0 -309 97.5t-144 273.5h252z" />
    <glyph glyph-name="uni0307" unicode="&#x307;" 
d="M-440.5 1315.5q-56.5 47.5 -56.5 125.5t56.5 125.5t147.5 47.5q92 0 148.5 -47.5t56.5 -125.5t-56.5 -125.5t-148.5 -47.5q-91 0 -147.5 47.5z" />
    <glyph glyph-name="uni0308" unicode="&#x308;" 
d="M-1005.5 1313q-52.5 45 -52.5 122q0 74 53 119t139 45t139 -45t53 -119q0 -77 -52.5 -122t-139.5 -45t-139.5 45zM-406.5 1313q-52.5 45 -52.5 122q0 74 53 119t139 45t138 -45t52 -119q0 -77 -52 -122t-138 -45q-87 0 -139.5 45z" />
    <glyph glyph-name="hookabovecomb" unicode="&#x309;" 
d="M-455 1327q62 19 94.5 46.5t32.5 61.5q0 32 -31.5 49t-90.5 17q-66 0 -136 -15v187q43 11 99.5 19t116.5 8q147 0 230 -54.5t83 -149.5q0 -97 -80.5 -164t-252.5 -106z" />
    </font>
</defs>
</svg>
