<?xml version="1.0" standalone="no"?>
<!DOCTYPE svg PUBLIC "-//W3C//DTD SVG 1.1//EN" "http://www.w3.org/Graphics/SVG/1.1/DTD/svg11.dtd" >
<svg xmlns="http://www.w3.org/2000/svg" xmlns:xlink="http://www.w3.org/1999/xlink" version="1.1">
<metadata>
Created by FontForge 20170731 at Tue Jul  5 20:14:03 2022
 By Aleksey,,,
Copyright (c) Parity Technologies. All rights reserved.
</metadata>
<defs>
<font id="Unbounded-Bold" horiz-adv-x="0" >
  <font-face 
    font-family="Unbounded"
    font-weight="700"
    font-stretch="normal"
    units-per-em="2000"
    panose-1="2 11 8 5 4 1 2 2 1 3"
    ascent="1610"
    descent="-390"
    x-height="1143"
    cap-height="1500"
    bbox="-1822 -639 3694 2453"
    underline-thickness="50"
    underline-position="-150"
    unicode-range="U+0020-FB02"
  />
<missing-glyph horiz-adv-x="1721" 
d="M1582 1500v-1500h-1443v1500h1443zM540 1144v-788h641v788h-641z" />
    <glyph glyph-name="fi" unicode="fi" horiz-adv-x="1810" 
d="M1367 1277.5q-54 24.5 -83.5 69.5t-29.5 105t29.5 104.5t83.5 69t125 24.5t125.5 -24.5t84 -69t29.5 -104.5t-29.5 -105t-83.5 -69.5t-126 -24.5q-71 0 -125 24.5zM276 1053q0 251 148.5 385.5t432.5 134.5q73 0 136 -11.5t129 -35.5v-300q-104 43 -217 43
q-117 0 -168.5 -42.5t-51.5 -136.5v-42h420v-302h-420v-746h-409v746h-232v302h232v5zM1288 0v1160l204 -40l205 40v-1160h-409z" />
    <glyph glyph-name="fl" unicode="fl" horiz-adv-x="1810" 
d="M276 1053q0 251 148.5 385.5t432.5 134.5q73 0 136 -11.5t129 -35.5v-300q-104 43 -217 43q-117 0 -168.5 -42.5t-51.5 -136.5v-42h420v-302h-420v-746h-409v746h-232v302h232v5zM1288 0v1540h409v-1540h-409z" />
    <glyph glyph-name="f_f" unicode="ff" horiz-adv-x="2120" 
d="M1722.5 1226.5q-51.5 -42.5 -51.5 -136.5v-42h420v-302h-420v-746h-409v746h-577v-746h-409v746h-232v302h232v5q0 251 148.5 385.5t432.5 134.5q73 0 136 -11.5t129 -35.5v-300q-104 43 -217 43q-117 0 -168.5 -42.5t-51.5 -136.5v-42h577v5q0 251 148.5 385.5
t432.5 134.5q73 0 136 -11.5t129 -35.5v-300q-104 43 -217 43q-117 0 -168.5 -42.5z" />
    <glyph glyph-name="f_f_i" unicode="ffi" horiz-adv-x="2748" 
d="M1722.5 1226.5q-51.5 -42.5 -51.5 -136.5v-42h420v-302h-420v-746h-409v746h-577v-746h-409v746h-232v302h232v5q0 251 148.5 385.5t432.5 134.5q73 0 136 -11.5t129 -35.5v-300q-104 43 -217 43q-117 0 -168.5 -42.5t-51.5 -136.5v-42h577v5q0 251 148.5 385.5
t432.5 134.5q73 0 136 -11.5t129 -35.5v-300q-104 43 -217 43q-117 0 -168.5 -42.5zM2226 0v1160l204 -40l205 40v-1160h-409zM2305 1277.5q-54 24.5 -84 69.5t-30 105t30 104.5t84 69t125 24.5t125 -24.5t83.5 -69t29.5 -104.5t-29.5 -105t-83.5 -69.5t-125 -24.5
t-125 24.5z" />
    <glyph glyph-name="f_f_l" unicode="ffl" horiz-adv-x="2759" 
d="M1722.5 1226.5q-51.5 -42.5 -51.5 -136.5v-42h420v-302h-420v-746h-409v746h-577v-746h-409v746h-232v302h232v5q0 251 148.5 385.5t432.5 134.5q73 0 136 -11.5t129 -35.5v-300q-104 43 -217 43q-117 0 -168.5 -42.5t-51.5 -136.5v-42h577v5q0 251 148.5 385.5
t432.5 134.5q73 0 136 -11.5t129 -35.5v-300q-104 43 -217 43q-117 0 -168.5 -42.5zM2238 0v1540h409v-1540h-409z" />
    <glyph glyph-name="f_t.liga" unicode="ft" horiz-adv-x="2200" 
d="M2139 34q-69 -26 -166.5 -44t-196.5 -18q-276 0 -411.5 126t-135.5 354v317h-541v-769h-409v769h-233v314h234q8 236 156 363t424 127q73 0 135.5 -11.5t129.5 -35.5v-269q-102 27 -217 27q-118 0 -169 -37.5t-51 -122.5v-41h549l169 351h232v-336h480v-314h-480v-269
q0 -85 21 -133t71.5 -69.5t140.5 -21.5q151 0 267 55z" />
    <glyph glyph-name="t_t.liga" unicode="tt" horiz-adv-x="2262" 
d="M2209 332v-305q-69 -26 -165.5 -43t-196.5 -17q-276 0 -411.5 126.5t-135.5 354.5v393h-648v-327q0 -89 21.5 -139t71.5 -72.5t140 -22.5q80 0 144.5 13.5t123.5 38.5v-305q-69 -25 -166 -42.5t-196 -17.5q-276 0 -411.5 126.5t-135.5 354.5v393h-233v178l233 93l176 338
h232v-307h661l163 307h232v-307h481v-302h-481v-327q0 -89 21.5 -139t72 -72.5t140.5 -22.5q148 0 267 52z" />
    <glyph glyph-name=".notdef" horiz-adv-x="1721" 
d="M1582 1500v-1500h-1443v1500h1443zM540 1144v-788h641v788h-641z" />
    <glyph glyph-name=".null" 
 />
    <glyph glyph-name="nonmarkingreturn" horiz-adv-x="666" 
 />
    <glyph glyph-name="space" unicode=" " horiz-adv-x="495" 
 />
    <glyph glyph-name="exclam" unicode="!" horiz-adv-x="646" 
d="M178 530l-68 970h426l-68 -970h-290zM204.5 5.5q-51.5 26.5 -80 75t-28.5 110.5t28.5 110t80 74.5t118.5 26.5t118.5 -26.5t80 -74.5t28.5 -110t-28.5 -110.5t-80 -75t-118.5 -26.5t-118.5 26.5z" />
    <glyph glyph-name="quotedbl" unicode="&#x22;" horiz-adv-x="1012" 
d="M382 829h-230l-80 671h390zM859 829h-230l-80 671h390z" />
    <glyph glyph-name="numbersign" unicode="#" horiz-adv-x="1714" 
d="M1631 1145v-279h-255l-28 -233h235v-279h-267l-42 -354h-326l42 354h-360l-42 -354h-325l42 354h-223v279h255l28 233h-235v279h267l42 355h325l-42 -355h360l42 355h326l-42 -355h223zM662 633h360l28 233h-360z" />
    <glyph glyph-name="dollar" unicode="$" horiz-adv-x="1624" 
d="M1478 241.5q-68 -106.5 -194.5 -175t-298.5 -90.5v-140h-352v146q-167 26 -291 96.5t-193 176.5t-73 237h407q12 -101 105.5 -159t250.5 -58q146 0 223.5 43t77.5 120q0 67 -56 105t-192 50l-223 19q-578 47 -578 442q0 131 65.5 230t187 160t289.5 81v139h352v-147
q153 -26 268 -92.5t181 -165t74 -220.5h-405q-10 84 -91 135t-230 51q-137 0 -211.5 -41t-74.5 -116q0 -61 51 -97t177 -47l245 -20q208 -17 335 -69t184.5 -139.5t57.5 -215.5q0 -132 -68 -238.5z" />
    <glyph glyph-name="percent" unicode="%" horiz-adv-x="2588" 
d="M300 677.5q-120 56.5 -186.5 158.5t-66.5 235t66.5 234.5t186.5 158t277 56.5q156 0 276.5 -56.5t187 -158t66.5 -234.5t-66.5 -235t-187 -158.5t-276.5 -56.5q-157 0 -277 56.5zM736 0l817 1500h299l-817 -1500h-299zM732 914.5q56 56.5 56 156.5t-56 157t-155 57
t-154.5 -57t-55.5 -157t55.5 -156.5t154.5 -56.5t155 56.5zM1733.5 22.5q-120.5 56.5 -187 158.5t-66.5 235t66.5 234.5t187 158t276.5 56.5t276.5 -56.5t187 -158t66.5 -234.5t-66.5 -235t-187 -158.5t-276.5 -56.5t-276.5 56.5zM2165 259.5q56 56.5 56 156.5t-56 157
t-155 57t-154.5 -57t-55.5 -157t55.5 -156.5t154.5 -56.5t155 56.5z" />
    <glyph glyph-name="ampersand" unicode="&#x26;" horiz-adv-x="1881" 
d="M1908 0h-509l-185 158q-117 -101 -246.5 -146t-305.5 -45q-184 0 -320.5 58t-209 159.5t-72.5 228.5q0 143 94 249.5t287 157.5q-90 79 -140 158.5t-50 165.5q0 115 70.5 203t207.5 137t329 49q194 0 336.5 -60t221 -164t86.5 -236h-407q-9 78 -65.5 125t-155.5 47
q-90 0 -140 -35t-50 -94q0 -32 19.5 -64.5t62.5 -68.5l451 -388l179 234h424l-378 -428zM993 347l-369 316q-76 -32 -116.5 -82t-40.5 -113q0 -55 32 -100t90.5 -70.5t133.5 -25.5q157 0 270 75z" />
    <glyph glyph-name="quotesingle" unicode="'" horiz-adv-x="550" 
d="M153 829l-81 671h406l-80 -671h-245z" />
    <glyph glyph-name="parenleft" unicode="(" horiz-adv-x="781" 
d="M740 1500q-126 -228 -187 -439.5t-61 -420.5q0 -206 61 -416.5t187 -443.5h-317q-178 206 -265.5 417.5t-87.5 442.5t87.5 442.5t265.5 417.5h317z" />
    <glyph glyph-name="parenright" unicode=")" horiz-adv-x="781" 
d="M358 1500q178 -206 265 -417t87 -443t-87 -443t-265 -417h-318q127 233 188 443.5t61 416.5q0 209 -61 420.5t-188 439.5h318z" />
    <glyph glyph-name="asterisk" unicode="*" horiz-adv-x="1073" 
d="M427 1238l-15 298h250l-14 -298l277 109l77 -239l-287 -80l189 -231l-202 -148l-165 250l-166 -250l-203 148l190 231l-286 80l76 239z" />
    <glyph glyph-name="plus" unicode="+" horiz-adv-x="1240" 
d="M768 856h412v-296h-412v-412h-296v412h-412v296h412v412h296v-412z" />
    <glyph glyph-name="comma" unicode="," horiz-adv-x="605" 
d="M417.5 407.5q52.5 -30.5 83 -83.5t30.5 -117q0 -60 -29.5 -128.5t-100.5 -174.5l-130 -200h-198l141 298q-65 26 -104 82.5t-39 127.5q0 62 30.5 114t83.5 82t116 30q64 0 116.5 -30.5z" />
    <glyph glyph-name="hyphen" unicode="-" horiz-adv-x="742" 
d="M108 537v323h525v-323h-525z" />
    <glyph glyph-name="period" unicode="." horiz-adv-x="600" 
d="M183.5 9.5q-52.5 30.5 -83 83t-30.5 116.5t30.5 116.5t83 83t116.5 30.5t116.5 -30.5t83 -83t30.5 -116.5t-30.5 -116.5t-83 -83t-116.5 -30.5t-116.5 30.5z" />
    <glyph glyph-name="slash" unicode="/" horiz-adv-x="919" 
d="M27 -54l560 1608h305l-560 -1608h-305z" />
    <glyph glyph-name="zero" unicode="0" horiz-adv-x="1850" 
d="M481.5 64.5q-190.5 97.5 -294.5 275t-104 410.5t104 410.5t294.5 275t443.5 97.5t443.5 -97.5t294 -275t103.5 -410.5t-103.5 -410.5t-294 -275t-443.5 -97.5t-443.5 97.5zM1155.5 356.5q96.5 52.5 147 152.5t50.5 241t-50.5 241t-147 152.5t-230.5 52.5t-230.5 -52.5
t-147 -152.5t-50.5 -241t50.5 -241t147 -152.5t230.5 -52.5t230.5 52.5z" />
    <glyph glyph-name="one" unicode="1" horiz-adv-x="1039" 
d="M28 1385l559 115h305v-1500h-410v1144l-454 -80v321z" />
    <glyph glyph-name="two" unicode="2" horiz-adv-x="1669" 
d="M741 328h843v-328h-1485v288l644 363q156 88 237 145.5t115 106.5t34 107q0 93 -76 148.5t-216 55.5q-170 0 -257.5 -70.5t-98.5 -183.5h-414q12 174 116 303.5t278 199.5t391 70q204 0 361 -63t243.5 -176.5t86.5 -259.5q0 -115 -62 -213.5t-193.5 -193t-347.5 -199.5z
" />
    <glyph glyph-name="three" unicode="3" horiz-adv-x="1678" 
d="M1498.5 660q91.5 -85 91.5 -223t-88.5 -244.5t-258.5 -166t-405 -59.5q-232 0 -406.5 64.5t-272.5 184t-104 279.5h414q30 -209 369 -209q160 0 245.5 47.5t85.5 134.5q0 52 -28.5 85t-97 50t-187.5 17h-257v279h257q151 0 218 40t67 115q0 77 -74.5 118.5t-218.5 41.5
q-153 0 -238 -51t-102 -148h-413q10 145 102.5 263t264.5 186.5t408 68.5q206 0 362 -52.5t241 -147.5t85 -220q0 -120 -80 -209t-243 -129q172 -30 263.5 -115z" />
    <glyph glyph-name="four" unicode="4" horiz-adv-x="1721" 
d="M1416 587h240v-307h-240v-280h-410v280h-958v292l844 928h524v-913zM1006 1179l-536 -592h536v592z" />
    <glyph glyph-name="five" unicode="5" horiz-adv-x="1614" 
d="M1247.5 936q140.5 -63 216.5 -175t76 -256q0 -158 -87.5 -280t-252.5 -190t-390 -68q-216 0 -382.5 64.5t-262 176t-107.5 250.5h413q18 -79 107.5 -125.5t231.5 -46.5q98 0 169.5 26.5t109 76t37.5 117.5q0 65 -35 114.5t-104 77t-166 27.5q-115 0 -202 -36t-144 -90
h-358l130 901h1175v-308h-897l-50 -327q80 63 191 98.5t252 35.5q189 0 329.5 -63z" />
    <glyph glyph-name="six" unicode="6" horiz-adv-x="1714" 
d="M1350 916.5q136 -61.5 209.5 -171.5t73.5 -254q-1 -153 -86 -271.5t-248 -185.5t-389 -67q-269 0 -454.5 98.5t-278 275t-91.5 408.5q-1 231 91.5 408t275.5 276.5t445 99.5q190 0 342.5 -58.5t245.5 -160.5t114 -229h-383q-30 67 -105.5 106t-202.5 39
q-219 0 -327 -118.5t-108 -345.5v-13q103 107 243 166t314 59q183 0 319 -61.5zM1080 299.5q68 26.5 102.5 72.5t34.5 105q0 91 -74.5 143.5t-214.5 52.5q-113 0 -216 -43t-191 -126q50 -115 150 -173t245 -58q96 0 164 26.5z" />
    <glyph glyph-name="seven" unicode="7" horiz-adv-x="1505" 
d="M26 1172v328h1424v-330l-729 -1170h-474l751 1172h-972z" />
    <glyph glyph-name="eight" unicode="8" horiz-adv-x="1785" 
d="M1607.5 654.5q92.5 -92.5 92.5 -237.5t-92.5 -245.5t-273 -152.5t-442.5 -52q-261 0 -441.5 52t-273 152.5t-92.5 245.5q0 146 92 238.5t266 124.5q-151 36 -231.5 118.5t-80.5 205.5q0 135 87.5 231t258 147t415.5 51t415.5 -51t258.5 -147t88 -231q0 -123 -81 -205.5
t-233 -119.5q175 -32 267.5 -124.5zM634 1175.5q-90 -40.5 -90 -114.5q0 -77 89 -116.5t259 -39.5t259.5 39.5t89.5 116.5q0 75 -90 115t-259 40q-168 0 -258 -40.5zM1181.5 327q98.5 43 98.5 125q0 167 -388 167t-388 -167q0 -82 99 -125t289 -43q191 0 289.5 43z" />
    <glyph glyph-name="nine" unicode="9" horiz-adv-x="1714" 
d="M1257.5 1434.5q185.5 -98.5 278 -275t91.5 -408.5q1 -231 -91.5 -408t-275.5 -276.5t-444 -99.5q-190 0 -342.5 58.5t-246 160.5t-114.5 229h384q30 -67 105.5 -106t202.5 -39q219 0 327 118.5t108 345.5v13q-103 -107 -243 -166t-314 -59q-183 0 -319 61.5t-209.5 171.5
t-73.5 254q1 153 86 271.5t248 185.5t388 67q269 0 454.5 -98.5zM1000.5 870q103.5 43 192.5 126q-50 114 -150.5 172.5t-245.5 58.5q-96 0 -163.5 -26.5t-102 -72.5t-34.5 -105q0 -91 74 -143.5t214 -52.5q112 0 215.5 43z" />
    <glyph glyph-name="colon" unicode=":" horiz-adv-x="655" 
d="M210 687.5q-52 27.5 -81 76.5t-29 112q0 62 29 111t81 76.5t118 27.5t117.5 -27.5t80.5 -76.5t29 -111q0 -63 -29 -112t-80.5 -76.5t-117.5 -27.5t-118 27.5zM210 6.5q-52 27.5 -81 76.5t-29 112t29 112t81 76t118 27t117.5 -27t80.5 -76t29 -112t-29 -112t-80.5 -76.5
t-117.5 -27.5t-118 27.5z" />
    <glyph glyph-name="semicolon" unicode=";" horiz-adv-x="661" 
d="M213 687.5q-52 27.5 -81 76.5t-29 112q0 62 29 111t81 76.5t118 27.5t117.5 -27.5t80.5 -76.5t29 -111q0 -63 -29 -112t-80.5 -76.5t-117.5 -27.5t-118 27.5zM450 375.5q51 -26.5 79.5 -75t28.5 -111.5q0 -53 -28.5 -120.5t-98.5 -168.5l-130 -196h-197l137 291
q-63 22 -99.5 74t-36.5 123q0 62 28.5 109.5t80 74t118.5 26.5t118 -26.5z" />
    <glyph glyph-name="less" unicode="&#x3c;" horiz-adv-x="1240" 
d="M57 873l1120 399v-312l-738 -250l738 -250v-312l-1120 398v327z" />
    <glyph glyph-name="equal" unicode="=" horiz-adv-x="1240" 
d="M60 812v296h1120v-296h-1120zM60 308v296h1120v-296h-1120z" />
    <glyph glyph-name="greater" unicode="&#x3e;" horiz-adv-x="1240" 
d="M63 960v312l1120 -399v-327l-1120 -398v312l738 250z" />
    <glyph glyph-name="question" unicode="?" horiz-adv-x="1409" 
d="M543 736q53 70 170 123l154 71q103 48 103 123q0 77 -66.5 120t-189.5 43q-126 0 -202 -54.5t-90 -151.5h-391q11 164 96.5 281.5t235.5 179.5t352 62t348 -55t223 -158.5t77 -248.5q0 -110 -61 -195.5t-182 -141.5l-170 -79q-48 -23 -71 -51t-23 -69v-33h-356
q-10 33 -10 70q0 94 53 164zM554.5 5.5q-51.5 26.5 -80 75t-28.5 110.5t28.5 110t80 74.5t118.5 26.5t118.5 -26.5t80 -74.5t28.5 -110t-28.5 -110.5t-80 -75t-118.5 -26.5t-118.5 26.5z" />
    <glyph glyph-name="at" unicode="@" horiz-adv-x="2092" 
d="M1623 1059l-59 -403l46 -227q93 33 144.5 122t51.5 217q0 162 -88.5 282.5t-251 186t-379.5 65.5q-237 0 -414 -81.5t-273 -232t-96 -352.5q0 -187 95 -327t270 -215.5t410 -75.5q171 0 353 38t295 98v-213q-118 -54 -300.5 -87.5t-355.5 -33.5q-302 0 -530 100.5
t-352 285t-124 427.5q0 259 126 455.5t357.5 304t538.5 107.5q284 0 498.5 -90t331.5 -255.5t117 -384.5q0 -155 -70.5 -272t-200.5 -180.5t-304 -63.5h-191l-42 178q-48 -98 -130 -151t-195 -53q-116 0 -206 53.5t-139.5 150.5t-49.5 224t49.5 224.5t139 151t206.5 53.5
q110 0 190.5 -49.5t129.5 -140.5l27 164h375zM1106 521.5q43 20.5 75 56t45 78.5q-13 44 -45 79.5t-75 56t-87 20.5q-66 0 -107 -43t-41 -113t41 -112.5t107 -42.5q44 0 87 20.5z" />
    <glyph glyph-name="A" unicode="A" horiz-adv-x="1914" 
d="M1912 0h-442l-125 289h-775l-125 -289h-443l683 1500h545zM957 1184l-243 -562h487z" />
    <glyph glyph-name="B" unicode="B" horiz-adv-x="1766" 
d="M1621 656.5q81 -95.5 81 -234.5q0 -124 -57 -219t-169.5 -149t-274.5 -54h-1107l116 770l-116 730h1068q138 0 237 -44t151 -126t52 -195q0 -110 -54.5 -201t-168.5 -144q161 -38 242 -133.5zM1137.5 1171.5q-43.5 38.5 -120.5 38.5h-482l49 -298h425q76 0 124 43.5
t48 115.5q0 62 -43.5 100.5zM1091 290q89 0 139.5 44t50.5 122q0 79 -56 125.5t-160 46.5h-480l-52 -338h558z" />
    <glyph glyph-name="C" unicode="C" horiz-adv-x="1868" 
d="M1806 628q-22 -197 -136 -346.5t-301 -232t-423 -82.5q-259 0 -457 98t-306.5 275.5t-108.5 409.5t108.5 409.5t306.5 275.5t457 98q236 0 423 -82.5t301 -232t136 -346.5h-417q-30 142 -145 222t-299 80q-139 0 -240.5 -51.5t-156 -147t-54.5 -225.5t54.5 -225.5
t156 -147t240.5 -51.5q186 0 300.5 77.5t143.5 224.5h417z" />
    <glyph glyph-name="D" unicode="D" horiz-adv-x="1852" 
d="M888 1500q265 0 466.5 -93t312.5 -263t111 -394t-111 -394t-312.5 -263t-466.5 -93h-749v1500h749zM919 369q134 0 233.5 46.5t153 132.5t53.5 202t-53.5 202t-153 132.5t-233.5 46.5h-367v-762h367z" />
    <glyph glyph-name="E" unicode="E" horiz-adv-x="1587" 
d="M581 599l-42 -263h950v-336h-1395l114 750l-114 750h1385v-336h-940l42 -263h840v-302h-840z" />
    <glyph glyph-name="F" unicode="F" horiz-adv-x="1541" 
d="M1467 1500v-351h-913v-263h876v-351h-876v-535h-415v1500h1328z" />
    <glyph glyph-name="G" unicode="G" horiz-adv-x="1928" 
d="M1024 776h795v-776h-293l-20 201q-97 -110 -243.5 -172t-339.5 -62q-237 0 -430 92.5t-305 269.5t-112 421q0 245 113 421.5t310.5 269t446.5 92.5q241 0 423.5 -75t293 -208t143.5 -307h-418q-20 75 -80.5 130t-153 84.5t-207.5 29.5q-141 0 -243 -49.5t-157 -147.5
t-55 -240q0 -144 59.5 -244t170 -151t262.5 -51q154 0 270.5 46.5t179.5 133.5h-410v292z" />
    <glyph glyph-name="H" unicode="H" horiz-adv-x="1875" 
d="M1321 945v555h415v-1500h-415v579h-767v-579h-415v1500h415v-555h767z" />
    <glyph glyph-name="I" unicode="I" horiz-adv-x="694" 
d="M139 0v1500h415v-1500h-415z" />
    <glyph glyph-name="J" unicode="J" horiz-adv-x="1612" 
d="M36 738h406v-50q0 -182 74.5 -272t240.5 -90q319 0 319 329v845h415v-866q0 -205 -91.5 -356t-257.5 -231t-385 -80q-216 0 -378.5 83t-251.5 238t-89 367z" />
    <glyph glyph-name="K" unicode="K" horiz-adv-x="1740" 
d="M1219 869l531 -869h-471l-322 546l-443 -546h-375v1500h413v-944l739 944h439z" />
    <glyph glyph-name="L" unicode="L" horiz-adv-x="1528" 
d="M554 1500v-1131h936v-369h-1351v1500h415z" />
    <glyph glyph-name="M" unicode="M" horiz-adv-x="2472" 
d="M1237 403l455 1097h640v-1500h-394v1138l-493 -1138h-419l-492 1133v-1133h-395v1500h641z" />
    <glyph glyph-name="N" unicode="N" horiz-adv-x="1944" 
d="M1402 470v1030h402v-1500h-522l-740 1053v-1053h-403v1500h537z" />
    <glyph glyph-name="O" unicode="O" horiz-adv-x="1930" 
d="M499 65q-202 98 -313.5 275.5t-111.5 409.5t111.5 409.5t313.5 275.5t466 98t466 -98t313.5 -275.5t111.5 -409.5t-111.5 -409.5t-313.5 -275.5t-466 -98t-466 98zM1215.5 388q106.5 50 164 143t57.5 219t-57.5 219t-164 143t-250.5 50t-250.5 -50t-164 -143t-57.5 -219
t57.5 -219t164 -143t250.5 -50t250.5 50z" />
    <glyph glyph-name="P" unicode="P" horiz-adv-x="1628" 
d="M981 1500q187 0 324 -64t210 -181t73 -272t-73 -272t-210 -181t-324 -64h-427v-466h-415v1500h842zM957 798q100 0 156 49t56 136t-56 136t-156 49h-403v-370h403z" />
    <glyph glyph-name="Q" unicode="Q" horiz-adv-x="1931" 
d="M1789 423.5q-67 -147.5 -191 -251.5l256 -284h-507l-99 112q-130 -33 -283 -33q-264 0 -466 98t-313.5 275.5t-111.5 409.5t111.5 409.5t313.5 275.5t466 98t466 -98t313.5 -275.5t111.5 -409.5q0 -179 -67 -326.5zM548 534q55 -92 157.5 -142.5t241.5 -53.5l-241 272
h495l129 -143q52 53 79.5 124.5t27.5 158.5q0 126 -57.5 219t-164 143t-250.5 50t-250.5 -50t-164 -143t-57.5 -219q0 -124 55 -216z" />
    <glyph glyph-name="R" unicode="R" horiz-adv-x="1700" 
d="M1173 0l-402 540h-217v-540h-415v1500h891q170 0 299.5 -60t201 -169.5t71.5 -252.5q0 -113 -46 -205.5t-131.5 -156.5t-201.5 -93l431 -563h-481zM554 1192v-348h419q98 0 154 46t56 128t-55.5 128t-154.5 46h-419z" />
    <glyph glyph-name="S" unicode="S" horiz-adv-x="1686" 
d="M494 492q14 -95 114 -149.5t264 -54.5q154 0 240.5 40t86.5 114q0 40 -22 66.5t-74.5 43.5t-145.5 26l-278 26q-307 28 -448.5 138.5t-141.5 307.5q0 153 90 261.5t254.5 165t386.5 56.5q214 0 383 -62t267.5 -174t108.5 -259h-422q-11 81 -101.5 127.5t-243.5 46.5
q-142 0 -222.5 -38t-80.5 -108q0 -55 50 -85.5t175 -43.5l299 -29q213 -20 341 -69t186 -134t58 -215q0 -156 -94 -274.5t-265 -183.5t-395 -65q-231 0 -409 65.5t-278 184.5t-105 275h422z" />
    <glyph glyph-name="T" unicode="T" horiz-adv-x="1635" 
d="M38 1500h1559v-369h-572v-1131h-415v1131h-572v369z" />
    <glyph glyph-name="U" unicode="U" horiz-adv-x="1756" 
d="M534 670q0 -156 89 -244t255 -88q167 0 255 87.5t88 244.5v830h415v-850q0 -203 -94.5 -358t-266.5 -240t-397 -85t-397 85t-267 240t-95 358v850h415v-830z" />
    <glyph glyph-name="V" unicode="V" horiz-adv-x="1870" 
d="M940 386l491 1114h437l-698 -1500h-470l-698 1500h445z" />
    <glyph glyph-name="W" unicode="W" horiz-adv-x="2721" 
d="M1948 388l314 1112h438l-456 -1500h-533l-350 1031l-351 -1031h-533l-456 1500h440l313 -1111l368 1111h438z" />
    <glyph glyph-name="X" unicode="X" horiz-adv-x="1741" 
d="M1129 779l633 -779h-510l-384 498l-387 -498h-503l639 779l-596 721h519l337 -435l333 435h510z" />
    <glyph glyph-name="Y" unicode="Y" horiz-adv-x="1845" 
d="M1372 1500h459l-700 -892v-608h-415v603l-703 897h459l450 -574z" />
    <glyph glyph-name="Z" unicode="Z" horiz-adv-x="1616" 
d="M1526 1202l-891 -876h897v-326h-1448v300l891 876h-885v325h1436v-299z" />
    <glyph glyph-name="bracketleft" unicode="[" horiz-adv-x="866" 
d="M798 1500v-302h-286v-1116h286v-302h-666v1720h666z" />
    <glyph glyph-name="backslash" unicode="\" horiz-adv-x="919" 
d="M27 1554h305l560 -1608h-305z" />
    <glyph glyph-name="bracketright" unicode="]" horiz-adv-x="866" 
d="M68 1198v302h667v-1720h-667v302h286v1116h-286z" />
    <glyph glyph-name="asciicircum" unicode="^" horiz-adv-x="1240" 
d="M766 1500l422 -750h-332l-235 433l-237 -433h-332l422 750h292z" />
    <glyph glyph-name="underscore" unicode="_" horiz-adv-x="964" 
d="M-68 -334v274h1100v-274h-1100z" />
    <glyph glyph-name="grave" unicode="`" horiz-adv-x="749" 
d="M50 1632h397l251 -378h-378z" />
    <glyph glyph-name="a" unicode="a" horiz-adv-x="1652" 
d="M1568 1143l-72 -571l72 -572h-424l-30 231q-83 -126 -207 -195t-277 -69q-166 0 -294.5 75.5t-199.5 213t-71 315.5q0 179 71 316.5t199.5 213t294.5 75.5q152 0 277 -68t208 -193l29 228h424zM908.5 317.5q74.5 37.5 131 103.5t84.5 150q-28 84 -84.5 150.5t-131 104
t-155.5 37.5q-80 0 -142.5 -37.5t-97.5 -104t-35 -150.5t35 -150t97.5 -103.5t142.5 -37.5q81 0 155.5 37.5z" />
    <glyph glyph-name="b" unicode="b" horiz-adv-x="1628" 
d="M1294 1100.5q128 -75.5 199 -213t71 -316.5q0 -178 -71 -315.5t-199 -213t-294 -75.5q-150 0 -272 66t-206 188v-221h-409v1540h409v-614q83 120 206 185t272 65q166 0 294 -75.5zM1019 317.5q63 37.5 98 103.5t35 150t-35 150.5t-98 104t-143 37.5q-81 0 -155.5 -37.5
t-131 -104t-84.5 -150.5q28 -84 84.5 -150t131 -103.5t155.5 -37.5q80 0 143 37.5z" />
    <glyph glyph-name="c" unicode="c" horiz-adv-x="1524" 
d="M1474 482q-17 -152 -112 -269t-249 -181.5t-342 -64.5q-209 0 -370.5 76t-251 213.5t-89.5 314.5t89.5 314.5t251 214t370.5 76.5q188 0 342 -64.5t249 -182t112 -269.5h-406q-21 101 -101 156.5t-196 55.5q-91 0 -158.5 -35t-104 -103t-36.5 -163q0 -143 80.5 -221.5
t218.5 -78.5q115 0 195.5 57.5t101.5 153.5h406z" />
    <glyph glyph-name="d" unicode="d" horiz-adv-x="1656" 
d="M1620 1540l-118 -938l72 -602h-423l-29 242q-83 -131 -209.5 -203t-282.5 -72q-166 0 -294.5 75.5t-199.5 213t-71 315.5q0 179 71 316.5t199.5 213t294.5 75.5q154 0 280.5 -70t209.5 -198l76 632h424zM908.5 317.5q74.5 37.5 131 103.5t84.5 150q-28 84 -84.5 150.5
t-131 104t-155.5 37.5q-80 0 -142.5 -37.5t-97.5 -104t-35 -150.5t35 -150t97.5 -103.5t142.5 -37.5q81 0 155.5 37.5z" />
    <glyph glyph-name="e" unicode="e" horiz-adv-x="1468" 
d="M503 455q42 -91 142 -139.5t252 -48.5q126 0 251 33t228 94v-260q-120 -81 -271 -124t-324 -43q-207 0 -371 76.5t-257 214.5t-93 317q0 176 89.5 313t247.5 212.5t356 75.5q201 0 348 -88.5t225.5 -251t78.5 -381.5h-902zM584.5 837.5q-72.5 -50.5 -99.5 -136.5h540
q-28 90 -95.5 138.5t-167.5 48.5q-105 0 -177.5 -50.5z" />
    <glyph glyph-name="f" unicode="f" horiz-adv-x="1178" 
d="M782 1248q-52 -21 -74.5 -64t-22.5 -113v-23h465v-302h-465v-746h-409v746h-232v302h232v1q0 252 153 388t445 136q83 0 152 -11.5t152 -35.5v-300q-123 43 -254 43q-90 0 -142 -21z" />
    <glyph glyph-name="g" unicode="g" horiz-adv-x="1626" 
d="M1110 1143h408v-839q0 -207 -97 -357.5t-274 -230t-413 -79.5q-156 0 -290.5 40t-270.5 123v309q119 -89 255 -132t281 -43q198 0 299.5 86t101.5 268v40q-88 -94 -213 -151t-277 -57q-160 0 -287 66t-199.5 186t-72.5 276t72.5 276t199.5 186t287 66q151 0 276 -60.5
t214 -158.5v186zM1123 648q-127 250 -365 250q-87 0 -151.5 -30.5t-99.5 -87t-35 -132.5q0 -115 75.5 -182t210.5 -67q239 0 365 249z" />
    <glyph glyph-name="h" unicode="h" horiz-adv-x="1557" 
d="M1219 1110.5q117 -65.5 178.5 -186.5t61.5 -285v-639h-409v579q0 128 -65 196t-186 68q-85 0 -147.5 -35.5t-96 -102t-33.5 -155.5v-550h-409v1540h409v-578q75 105 183 159.5t235 54.5q162 0 279 -65.5z" />
    <glyph glyph-name="i" unicode="i" horiz-adv-x="634" 
d="M113 0v1160l204 -40l205 40v-1160h-409zM192 1277.5q-54 24.5 -84 69.5t-30 105t30 104.5t84 69t125 24.5t125 -24.5t83.5 -69t29.5 -104.5t-29.5 -105t-83.5 -69.5t-125 -24.5t-125 24.5z" />
    <glyph glyph-name="j" unicode="j" horiz-adv-x="634" 
d="M113 -330v1490l204 -40l205 40v-1490h-409zM192 1277.5q-54 24.5 -84 69.5t-30 105t30 104.5t84 69t125 24.5t125 -24.5t83.5 -69t29.5 -104.5t-29.5 -105t-83.5 -69.5t-125 -24.5t-125 24.5z" />
    <glyph glyph-name="k" unicode="k" horiz-adv-x="1486" 
d="M1076 688l426 -688h-461l-226 388l-337 -388h-365v1540h409v-1038l520 641h430z" />
    <glyph glyph-name="l" unicode="l" horiz-adv-x="634" 
d="M113 0v1540h409v-1540h-409z" />
    <glyph glyph-name="m" unicode="m" horiz-adv-x="2417" 
d="M2090 1110.5q112 -65.5 170.5 -186.5t58.5 -285v-639h-409v579q0 128 -58.5 196t-168.5 68q-78 0 -134.5 -35.5t-87 -101.5t-30.5 -156v-550h-409v579q0 128 -58.5 196t-168.5 68q-78 0 -134.5 -35.5t-87 -101.5t-30.5 -156v-550h-409v748l-75 395h409l38 -233
q71 130 183 198t248 68q164 0 279 -73.5t170 -208.5q70 137 183.5 209.5t253.5 72.5q155 0 267 -65.5z" />
    <glyph glyph-name="n" unicode="n" horiz-adv-x="1578" 
d="M1241 1110.5q117 -65.5 178 -186.5t61 -285v-639h-408v579q0 128 -65 196t-187 68q-85 0 -147.5 -35.5t-96 -102t-33.5 -155.5v-550h-409v748l-75 395h409l39 -238q74 132 192.5 201.5t262.5 69.5q162 0 279 -65.5z" />
    <glyph glyph-name="o" unicode="o" horiz-adv-x="1583" 
d="M409 42.5q-166 75.5 -257.5 212.5t-91.5 316t91.5 316.5t257.5 213t383 75.5t383 -75.5t257.5 -213t91.5 -316.5t-91.5 -316t-257.5 -212.5t-383 -75.5t-383 75.5zM963 307q72 36 110 103.5t38 160.5t-38.5 161t-110 104t-170.5 36t-171 -36t-110.5 -104t-38.5 -161
t38.5 -160.5t110.5 -103.5t171 -36t171 36z" />
    <glyph glyph-name="p" unicode="p" horiz-adv-x="1630" 
d="M1295.5 1100.5q128.5 -75.5 199.5 -213t71 -316.5q0 -178 -71 -315.5t-199.5 -213t-294.5 -75.5q-150 0 -273 67t-206 189v-553h-409v1473h409v-219q84 121 206.5 186.5t272.5 65.5q166 0 294.5 -75.5zM1020.5 317.5q62.5 37.5 97.5 103.5t35 150t-35 150.5t-97.5 104
t-142.5 37.5q-81 0 -155.5 -37.5t-131 -104t-85.5 -150.5q29 -84 85.5 -150t131 -103.5t155.5 -37.5q80 0 142.5 37.5z" />
    <glyph glyph-name="q" unicode="q" horiz-adv-x="1631" 
d="M1109 1143h409v-1473h-409v553q-83 -122 -206 -189t-273 -67q-166 0 -294.5 75.5t-199.5 213t-71 315.5q0 179 71 316.5t199.5 213t294.5 75.5q150 0 272.5 -65.5t206.5 -186.5v219zM908.5 317.5q74.5 37.5 131 103.5t84.5 150q-28 84 -84.5 150.5t-131 104t-155.5 37.5
q-80 0 -142.5 -37.5t-97.5 -104t-35 -150.5t35 -150t97.5 -103.5t142.5 -37.5q81 0 155.5 37.5z" />
    <glyph glyph-name="r" unicode="r" horiz-adv-x="1107" 
d="M1077 1160v-349q-112 23 -208 23q-146 0 -236 -88t-90 -276v-470h-409v758l-75 385h416l50 -301q116 334 411 334q66 0 141 -16z" />
    <glyph glyph-name="s" unicode="s" horiz-adv-x="1496" 
d="M1356.5 151q-79.5 -91 -228.5 -137.5t-356 -46.5q-212 0 -373.5 52t-252.5 146.5t-97 218.5h415q20 -70 103.5 -108t221.5 -38q123 0 185.5 24t62.5 71q0 27 -20.5 43.5t-66 27t-124.5 16.5l-202 15q-293 22 -418 111t-125 244q0 126 79.5 212.5t224.5 130t340 43.5
q190 0 341.5 -50t242 -140t103.5 -207h-415q-16 60 -88 99t-203 39q-109 0 -166.5 -23.5t-57.5 -66.5q0 -37 36 -56t131 -26l265 -20q194 -14 309 -58t164 -116.5t49 -177.5q0 -131 -79.5 -222z" />
    <glyph glyph-name="t" unicode="t" horiz-adv-x="1206" 
d="M11 841v178l233 93l176 338h232v-307h481v-302h-481v-338q0 -84 21.5 -132t71.5 -69t140 -21q80 0 144.5 13.5t123.5 38.5v-306q-68 -25 -165 -42.5t-196 -17.5q-277 0 -412.5 126.5t-135.5 354.5v393h-233z" />
    <glyph glyph-name="u" unicode="u" horiz-adv-x="1554" 
d="M1494 0h-408l-39 236q-73 -131 -188 -199.5t-255 -68.5q-158 0 -272 65.5t-174 186.5t-60 284v639h409v-580q0 -127 61.5 -194.5t176.5 -67.5q127 0 196.5 76.5t69.5 215.5v550h409v-749z" />
    <glyph glyph-name="v" unicode="v" horiz-adv-x="1538" 
d="M775 362l325 781h436l-534 -1143h-465l-534 1143h450z" />
    <glyph glyph-name="w" unicode="w" horiz-adv-x="2281" 
d="M1606 406l261 737h409l-427 -1143h-417l-290 769l-294 -769h-417l-426 1143h410l261 -735l272 735h389z" />
    <glyph glyph-name="x" unicode="x" horiz-adv-x="1437" 
d="M973 585l490 -585h-463l-286 346l-282 -346h-456l480 580l-449 563h453l263 -321l262 321h447z" />
    <glyph glyph-name="y" unicode="y" horiz-adv-x="1554" 
d="M1118 1143h435l-549 -1165q-84 -179 -219 -260t-297 -81q-125 0 -223.5 30.5t-191.5 97.5v283q95 -60 177 -86t180 -26q89 0 150 38t100 130l1 3h-179l-486 1036h451l322 -780z" />
    <glyph glyph-name="z" unicode="z" horiz-adv-x="1388" 
d="M1306 859l-717 -565h721v-294h-1234v284l718 565h-712v294h1224v-284z" />
    <glyph glyph-name="braceleft" unicode="{" horiz-adv-x="944" 
d="M657 1213q-37 0 -57 -18.5t-20 -51.5q0 -17 6 -38l51 -173q16 -52 16 -98q0 -80 -49 -130t-137 -64q88 -14 137 -64t49 -130q0 -46 -16 -98l-51 -173q-6 -21 -6 -38q0 -33 20 -51.5t57 -18.5h217v-287h-404q-85 0 -149 32.5t-98 89.5t-34 129q0 53 20 111l82 240
q7 21 7 41q0 38 -26 59.5t-72 21.5h-138v272h138q46 0 72 21.5t26 59.5q0 20 -7 41l-82 240q-20 58 -20 111q0 72 34 129t98 89.5t149 32.5h404v-287h-217z" />
    <glyph glyph-name="bar" unicode="|" horiz-adv-x="626" 
d="M139 -196v1696h347v-1696h-347z" />
    <glyph glyph-name="braceright" unicode="}" horiz-adv-x="944" 
d="M70 1213v287h404q85 0 149 -32.5t98 -89.5t34 -129q0 -53 -20 -111l-82 -240q-7 -21 -7 -41q0 -38 26 -59.5t72 -21.5h138v-272h-138q-46 0 -72 -21.5t-26 -59.5q0 -20 7 -41l82 -240q20 -58 20 -111q0 -72 -34 -129t-98 -89.5t-149 -32.5h-404v287h217q37 0 57 18.5
t20 51.5q0 17 -6 38l-51 173q-16 52 -16 98q0 80 49 130t137 64q-88 14 -137 64t-49 130q0 46 16 98l51 173q6 21 6 38q0 33 -20 51.5t-57 18.5h-217z" />
    <glyph glyph-name="asciitilde" unicode="~" horiz-adv-x="1240" 
d="M60 809q153 75 333 75q59 0 109 -8.5t118 -25.5q71 -17 119.5 -25.5t107.5 -8.5q179 0 333 74v-283q-153 -75 -333 -75q-59 0 -107.5 8.5t-119.5 25.5q-68 17 -118 25.5t-109 8.5q-179 0 -333 -74v283z" />
    <glyph glyph-name="uni00A0" unicode="&#xa0;" horiz-adv-x="495" 
 />
    <glyph glyph-name="exclamdown" unicode="&#xa1;" horiz-adv-x="628" 
d="M432.5 1184.5q51.5 -26.5 80 -75t28.5 -110.5t-28.5 -110t-80 -74.5t-118.5 -26.5t-118 26.5t-79.5 74.5t-28.5 110t28.5 110.5t79.5 75t118 26.5t118.5 -26.5zM459 660l69 -970h-427l69 970h289z" />
    <glyph glyph-name="cent" unicode="&#xa2;" horiz-adv-x="1578" 
d="M901 266q78 22 131 76t71 132h378q-16 -132 -93 -239t-202.5 -175t-284.5 -86v-146h-225v147q-171 21 -301 101t-201.5 207.5t-71.5 285.5q0 159 71 286.5t201 208t302 101.5v147h225v-146q157 -17 283 -84t203.5 -174.5t93.5 -242.5h-378q-16 79 -68.5 133t-133.5 76
v-608zM531 375.5q52 -77.5 145 -107.5v603q-93 -31 -145 -108.5t-52 -193.5t52 -193.5z" />
    <glyph glyph-name="sterling" unicode="&#xa3;" horiz-adv-x="1632" 
d="M1566 292v-292h-1468v337q194 29 290 81.5t96 137.5q0 9 -2 23h-389v273h193q-38 53 -59 111.5t-21 131.5q0 130 82.5 229t232 154t344.5 55q193 0 344 -60.5t239.5 -170.5t96.5 -253h-408q-15 85 -84 133t-177 48q-118 0 -185 -46t-67 -128q0 -59 29.5 -104t87.5 -100
h570v-273h-424q-7 -89 -72.5 -163.5t-172.5 -123.5h924z" />
    <glyph glyph-name="currency" unicode="&#xa4;" horiz-adv-x="1458" 
d="M1236 480l142 -126l-132 -135l-158 125q-147 -82 -360 -82q-214 0 -359 82l-158 -125l-132 135l141 125q-74 110 -74 259t74 259l-141 125l132 135l158 -125q145 82 359 82q213 0 360 -82l158 125l132 -150l-140 -114q72 -108 72 -255q0 -149 -74 -258zM922 591.5
q62 49.5 62 146.5t-62 146.5t-194 49.5t-193.5 -49.5t-61.5 -146.5t61.5 -146.5t193.5 -49.5t194 49.5z" />
    <glyph glyph-name="yen" unicode="&#xa5;" horiz-adv-x="1755" 
d="M1258 1500h456l-478 -671h350v-235h-500v-101h500v-235h-500v-258h-414v258h-498v235h498v101h-498v235h344l-477 671h457l380 -559z" />
    <glyph glyph-name="brokenbar" unicode="&#xa6;" horiz-adv-x="626" 
d="M486 1500v-682h-347v682h347zM139 -196v682h347v-682h-347z" />
    <glyph glyph-name="section" unicode="&#xa7;" horiz-adv-x="1764" 
d="M1619.5 425q-48.5 -62 -148.5 -99q59 -43 88 -100.5t29 -138.5q0 -106 -75 -191.5t-229 -136t-380 -50.5q-232 0 -395.5 58.5t-249 153.5t-94.5 207h410q6 -46 43.5 -84t111 -60.5t180.5 -22.5q128 0 192.5 32.5t64.5 82.5q0 43 -37 68t-128 52l-462 117
q-229 58 -337.5 142.5t-108.5 216.5q0 82 49 144.5t149 99.5q-60 43 -89 100.5t-29 138.5q0 106 75.5 191.5t229.5 136t379 50.5q232 0 396 -58.5t249.5 -154t93.5 -207.5h-409q-6 47 -44 84.5t-111 60t-180 22.5q-129 0 -193 -32t-64 -83q0 -42 37 -67.5t128 -51.5
l461 -117q164 -41 261 -90t141 -113.5t44 -155.5q0 -83 -48.5 -145zM1139 455q77 -20 137 -40q37 36 37 84q0 41 -22 69t-66 49t-119 42l-483 128q-80 21 -136 39q-38 -34 -38 -83q0 -60 48 -94.5t159 -65.5z" />
    <glyph glyph-name="dieresis" unicode="&#xa8;" horiz-adv-x="1203" 
d="M134.5 1304q-60.5 51 -60.5 140q0 85 60.5 135t161.5 50q102 0 162 -50t60 -135q0 -89 -60 -140t-162 -51q-101 0 -161.5 51zM746 1304q-60 51 -60 140q0 85 60 135t162 50q100 0 160.5 -50t60.5 -135q0 -89 -60 -140t-161 -51q-102 0 -162 51z" />
    <glyph glyph-name="copyright" unicode="&#xa9;" horiz-adv-x="1804" 
d="M500 68.5q-183 101.5 -289.5 280.5t-106.5 401q0 223 107 402t290 280t401 101q219 0 402 -101t289.5 -280t106.5 -402q0 -222 -106.5 -401t-289.5 -280.5t-402 -101.5t-402 101.5zM1223.5 198.5q145.5 80.5 230 225t84.5 326.5t-84.5 326.5t-230 225t-321.5 80.5
t-321.5 -80.5t-230 -225t-84.5 -326.5t84.5 -326.5t230 -225t321.5 -80.5t321.5 80.5zM1410 689q-14 -123 -81 -215.5t-177 -143.5t-248 -51q-151 0 -266.5 59.5t-178.5 167.5t-63 249t63 249t178.5 167.5t266.5 59.5q138 0 248 -51t177 -143.5t81 -214.5h-286
q-16 80 -73 123t-148 43q-104 0 -162 -62.5t-58 -170.5t58.5 -171t161.5 -63q93 0 149.5 43t71.5 125h286z" />
    <glyph glyph-name="ordfeminine" unicode="&#xaa;" horiz-adv-x="1366" 
d="M1262 1491l-59 -441l59 -442h-362l-22 168q-63 -93 -157.5 -144t-209.5 -51q-129 0 -228.5 58.5t-154.5 164.5t-55 244q0 140 55 246t154.5 164.5t228.5 58.5q116 0 210 -50t157 -142l22 166h362zM731 873.5q54 25.5 94.5 71t60.5 103.5q-20 59 -60.5 105t-95 72
t-112.5 26q-56 0 -100 -26t-68 -72t-24 -105q0 -57 24.5 -103t68 -71.5t99.5 -25.5q59 0 113 25.5z" />
    <glyph glyph-name="guillemotleft" unicode="&#xab;" horiz-adv-x="1464" 
d="M374 1098h417l-305 -479l305 -479h-417l-294 479zM969 1098h417l-305 -479l305 -479h-417l-294 479z" />
    <glyph glyph-name="logicalnot" unicode="&#xac;" horiz-adv-x="1240" 
d="M51 762v296h1120v-697h-295v401h-825z" />
    <glyph glyph-name="uni00AD" unicode="&#xad;" horiz-adv-x="742" 
d="M108 537v323h525v-323h-525z" />
    <glyph glyph-name="registered" unicode="&#xae;" horiz-adv-x="1584" 
d="M1143.5 1451q156.5 -82 245.5 -226.5t89 -323.5q0 -180 -89 -324t-245.5 -225.5t-351.5 -81.5t-351.5 81.5t-245.5 225.5t-89 324q0 179 89 323.5t245.5 226.5t351.5 82t351.5 -82zM1072.5 472q121.5 63 188 174.5t66.5 254.5t-66.5 254.5t-188 174.5t-280.5 63
q-158 0 -279.5 -63t-188.5 -175t-67 -254t67 -254t188.5 -175t279.5 -63q159 0 280.5 63zM1084 899.5q-40 -54.5 -111 -80.5l172 -267h-230l-139 247h-99v-247h-199v706h375q80 0 141.5 -29t95.5 -81t34 -120q0 -74 -40 -128.5zM677 1105v-156h159q41 0 63.5 21t22.5 58
t-22.5 57t-63.5 20h-159z" />
    <glyph glyph-name="macron" unicode="&#xaf;" horiz-adv-x="1050" 
d="M1035 1303h-975v245h975v-245z" />
    <glyph glyph-name="degree" unicode="&#xb0;" horiz-adv-x="938" 
d="M272.5 932.5q-86.5 39.5 -134.5 111t-48 162.5t48 162t134.5 110.5t196.5 39.5t196.5 -39.5t134.5 -110.5t48 -162t-48 -162.5t-134.5 -111t-196.5 -39.5t-196.5 39.5zM581.5 1095.5q38.5 37.5 38.5 110.5q0 72 -38.5 110t-112.5 38q-73 0 -112 -38t-39 -110
q0 -73 38.5 -110.5t112.5 -37.5t112.5 37.5z" />
    <glyph glyph-name="plusminus" unicode="&#xb1;" horiz-adv-x="1240" 
d="M768 1263v-267h412v-281h-412v-268h-296v268h-412v281h412v267h296zM1180 60h-1120v281h1120v-281z" />
    <glyph glyph-name="uni00B2" unicode="&#xb2;" horiz-adv-x="1092" 
d="M581 1048h417v-230h-909v179l363 197q88 47 137 79.5t74 63.5t25 66q0 43 -36.5 68.5t-103.5 25.5q-74 0 -116.5 -28.5t-52.5 -74.5h-299q8 95 69 173.5t170 124.5t255 46q127 0 222 -37.5t146 -105t51 -155.5q0 -76 -34.5 -134.5t-100 -107t-168.5 -98.5z" />
    <glyph glyph-name="uni00B3" unicode="&#xb3;" horiz-adv-x="1139" 
d="M1028 1211q47 -49 47 -124q0 -84 -53 -149t-163 -102t-275 -37q-164 0 -285 45t-186.5 125.5t-68.5 185.5h296q9 -67 65.5 -96.5t156.5 -29.5q99 0 143 17.5t44 59.5q0 36 -31.5 52.5t-111.5 16.5h-142v184h142q69 0 99 21t30 54q0 73 -161 73q-100 0 -151 -30.5
t-57 -85.5h-296q8 104 70.5 182.5t178 122t276.5 43.5q146 0 249 -33t156 -92.5t53 -138.5q0 -147 -180 -194q108 -21 155 -70z" />
    <glyph glyph-name="acute" unicode="&#xb4;" horiz-adv-x="749" 
d="M50 1254l252 378h396l-269 -378h-379z" />
    <glyph glyph-name="paragraph" unicode="&#xb6;" horiz-adv-x="1631" 
d="M103.5 1288.5q57.5 99.5 161 155.5t235.5 56h564v-1500h-295v622h-269q-132 0 -235.5 56t-161 156t-57.5 228q0 127 57.5 226.5zM1189 0v1500h295v-1500h-295z" />
    <glyph glyph-name="periodcentered" unicode="&#xb7;" horiz-adv-x="618" 
d="M192.5 534.5q-52.5 30.5 -83 83t-30.5 116.5t30.5 116.5t83 83t116.5 30.5t116.5 -30.5t83 -83t30.5 -116.5t-30.5 -116.5t-83 -83t-116.5 -30.5t-116.5 30.5z" />
    <glyph glyph-name="cedilla" unicode="&#xb8;" horiz-adv-x="860" 
d="M741.5 -133.5q70.5 -51.5 70.5 -143.5q0 -64 -42 -114t-124 -79t-198 -29q-103 0 -186 27t-138 76t-75 115h242q38 -57 157 -57q64 0 97 19t33 51q0 30 -27.5 48t-84.5 18q-58 0 -104 -22h-203l166 257h201l-82 -124q43 9 92 9q135 0 205.5 -51.5z" />
    <glyph glyph-name="uni00B9" unicode="&#xb9;" horiz-adv-x="911" 
d="M646 1719v-671h216v-230h-766v230h270v415l-259 -39v234l317 61h222z" />
    <glyph glyph-name="ordmasculine" unicode="&#xba;" horiz-adv-x="1290" 
d="M343 639.5q-131 58.5 -203 164.5t-72 244q0 139 72 245.5t203 165t302 58.5t301.5 -58t202.5 -164.5t72 -246.5q0 -138 -72 -244t-203 -164.5t-301 -58.5q-171 0 -302 58.5zM809 895.5q59 55.5 59 152.5q0 99 -59 154.5t-164 55.5q-106 0 -165 -55t-59 -155
q0 -98 59 -153t165 -55q105 0 164 55.5z" />
    <glyph glyph-name="guillemotright" unicode="&#xbb;" horiz-adv-x="1464" 
d="M78 1098h416l295 -479l-295 -479h-416l305 479zM673 1098h416l295 -479l-295 -479h-416l305 479z" />
    <glyph glyph-name="onequarter" unicode="&#xbc;" horiz-adv-x="2277" 
d="M626 829h216v-230h-767v230h270v414l-259 -38v234l317 61h223v-671zM607 0l817 1500h299l-817 -1500h-299zM2115 359h130v-213h-130v-146h-278v146h-558v198l470 557h366v-542zM1837 642l-234 -283h234v283z" />
    <glyph glyph-name="onehalf" unicode="&#xbd;" horiz-adv-x="2355" 
d="M625 829h216v-230h-766v230h269v414l-258 -38v234l316 61h223v-671zM600 0l817 1500h299l-817 -1500h-299zM1867 230h416v-230h-909v179l364 197q87 47 136.5 79.5t74 63.5t24.5 66q0 43 -36.5 68.5t-102.5 25.5q-74 0 -117 -28.5t-53 -74.5h-298q8 95 69 173.5
t169.5 124.5t254.5 46q128 0 222.5 -37.5t145.5 -105t51 -155.5q0 -76 -34.5 -135t-99.5 -107t-168 -98z" />
    <glyph glyph-name="threequarters" unicode="&#xbe;" horiz-adv-x="2484" 
d="M1044 719q-53 -65 -163 -102t-275 -37q-164 0 -285 45t-186.5 125.5t-68.5 185.5h296q9 -67 65.5 -96.5t156.5 -29.5q99 0 143.5 17.5t44.5 59.5q0 36 -31.5 52t-112.5 16h-141v184h141q69 0 99 21t30 54q0 35 -37 54.5t-123 19.5q-99 0 -150.5 -31t-57.5 -86h-296
q8 104 70.5 182.5t178 122t276.5 43.5q146 0 249 -32.5t156 -92.5t53 -139q0 -72 -45.5 -121t-135.5 -72q109 -21 155.5 -70t46.5 -124q0 -84 -53 -149zM791 0l817 1500h300l-818 -1500h-299zM2311 359h130v-213h-130v-146h-278v146h-558v198l470 557h366v-542zM2033 642
l-234 -283h234v283z" />
    <glyph glyph-name="questiondown" unicode="&#xbf;" horiz-adv-x="1402" 
d="M849.5 1184.5q51.5 -26.5 80 -75t28.5 -110.5t-28.5 -110t-80 -74.5t-117.5 -26.5q-67 0 -118.5 26.5t-80 74.5t-28.5 110t28.5 110.5t80 75t118.5 26.5q66 0 117.5 -26.5zM862 454q-53 -70 -170 -123l-154 -71q-104 -48 -104 -123q0 -77 67 -120t190 -43q126 0 202 54.5
t89 151.5h392q-11 -164 -96.5 -281.5t-235.5 -179.5t-352 -62t-348 55t-223 158.5t-77 248.5q0 110 61 195.5t181 141.5l171 79q48 23 70.5 51t22.5 69v33h357q10 -32 10 -70q0 -94 -53 -164z" />
    <glyph glyph-name="Agrave" unicode="&#xc0;" horiz-adv-x="1914" 
d="M1912 0h-442l-125 289h-775l-125 -289h-443l683 1500h545zM957 1184l-243 -562h487zM424 1949h464l295 -338h-412z" />
    <glyph glyph-name="Aacute" unicode="&#xc1;" horiz-adv-x="1914" 
d="M1912 0h-442l-125 289h-775l-125 -289h-443l683 1500h545zM957 1184l-243 -562h487zM709 1611l295 338h464l-347 -338h-412z" />
    <glyph glyph-name="Acircumflex" unicode="&#xc2;" horiz-adv-x="1914" 
d="M1912 0h-442l-125 289h-775l-125 -289h-443l683 1500h545zM957 1184l-243 -562h487zM1172 1949l305 -338h-335l-185 138l-185 -138h-334l303 338h431z" />
    <glyph glyph-name="Atilde" unicode="&#xc3;" horiz-adv-x="1914" 
d="M1912 0h-442l-125 289h-775l-125 -289h-443l683 1500h545zM957 1184l-243 -562h487zM413 1622q21 164 107 253.5t244 89.5q54 0 103 -14t122 -42q54 -21 85 -30.5t59 -9.5q42 0 69.5 22t34.5 63h265q-23 -164 -109 -253.5t-243 -89.5q-55 0 -107 14.5t-118 41.5
q-57 21 -86.5 30t-56.5 9q-43 0 -70.5 -21.5t-34.5 -62.5h-264z" />
    <glyph glyph-name="Adieresis" unicode="&#xc4;" horiz-adv-x="1914" 
d="M1912 0h-442l-125 289h-775l-125 -289h-443l683 1500h545zM957 1184l-243 -562h487zM485.5 1661q-60.5 51 -60.5 140q0 86 60.5 135.5t161.5 49.5t161.5 -49.5t60.5 -135.5q0 -89 -60.5 -140t-161.5 -51t-161.5 51zM1105.5 1661q-60.5 51 -60.5 140q0 86 60.5 135.5
t161.5 49.5t161.5 -49.5t60.5 -135.5q0 -89 -60.5 -140t-161.5 -51t-161.5 51z" />
    <glyph glyph-name="Aring" unicode="&#xc5;" horiz-adv-x="1914" 
d="M1912 0h-442l-125 289h-775l-125 -289h-443l683 1500h545zM957 1184l-243 -562h487zM664 1648.5q-104 71.5 -104 200.5q0 130 104 201.5t293 71.5t293 -71.5t104 -201.5q0 -129 -104 -200.5t-293 -71.5t-293 71.5zM1127 1849q0 96 -170 96q-171 0 -171 -96q0 -95 171 -95
q170 0 170 95z" />
    <glyph glyph-name="AE" unicode="&#xc6;" horiz-adv-x="2518" 
d="M1567 599l104 -263h766v-336h-1063l-108 289h-701l-114 -289h-443l628 1500h1762v-336h-1043l103 -263h882v-302h-773zM926 1204l-230 -582h446z" />
    <glyph glyph-name="Ccedilla" unicode="&#xc7;" horiz-adv-x="1868" 
d="M1245.5 403.5q114.5 77.5 143.5 224.5h417q-21 -187 -125 -331.5t-275 -230t-389 -97.5l-33 -57q45 9 96 9q137 0 212.5 -52.5t75.5 -145.5q0 -66 -44 -117.5t-130.5 -80.5t-209.5 -29q-164 0 -273.5 59t-140.5 163h265q14 -24 51.5 -38.5t97.5 -14.5q64 0 97.5 18.5
t33.5 48.5q0 28 -28 45t-82 17q-69 0 -116 -18h-200l128 198q-224 23 -392 126t-259.5 270.5t-91.5 379.5q0 232 108.5 409.5t306.5 275.5t457 98q236 0 423 -82.5t301 -232t136 -346.5h-417q-30 142 -145 222t-299 80q-139 0 -240.5 -51.5t-156 -147t-54.5 -225.5
t54.5 -225.5t156 -147t240.5 -51.5q186 0 300.5 77.5z" />
    <glyph glyph-name="Egrave" unicode="&#xc8;" horiz-adv-x="1587" 
d="M581 599l-42 -263h950v-336h-1395l114 750l-114 750h1385v-336h-940l42 -263h840v-302h-840zM267 1949h464l295 -338h-412z" />
    <glyph glyph-name="Eacute" unicode="&#xc9;" horiz-adv-x="1587" 
d="M581 599l-42 -263h950v-336h-1395l114 750l-114 750h1385v-336h-940l42 -263h840v-302h-840zM552 1611l295 338h464l-347 -338h-412z" />
    <glyph glyph-name="Ecircumflex" unicode="&#xca;" horiz-adv-x="1587" 
d="M581 599l-42 -263h950v-336h-1395l114 750l-114 750h1385v-336h-940l42 -263h840v-302h-840zM1015 1949l305 -338h-335l-185 138l-185 -138h-334l303 338h431z" />
    <glyph glyph-name="Edieresis" unicode="&#xcb;" horiz-adv-x="1587" 
d="M581 599l-42 -263h950v-336h-1395l114 750l-114 750h1385v-336h-940l42 -263h840v-302h-840zM328.5 1661q-60.5 51 -60.5 140q0 86 60.5 135.5t161.5 49.5t161.5 -49.5t60.5 -135.5q0 -89 -60.5 -140t-161.5 -51t-161.5 51zM948.5 1661q-60.5 51 -60.5 140
q0 86 60.5 135.5t161.5 49.5t161.5 -49.5t60.5 -135.5q0 -89 -60.5 -140t-161.5 -51t-161.5 51z" />
    <glyph glyph-name="Igrave" unicode="&#xcc;" horiz-adv-x="694" 
d="M139 0v1500h415v-1500h-415zM-186 1949h464l295 -338h-412z" />
    <glyph glyph-name="Iacute" unicode="&#xcd;" horiz-adv-x="694" 
d="M139 0v1500h415v-1500h-415zM99 1611l295 338h464l-347 -338h-412z" />
    <glyph glyph-name="Icircumflex" unicode="&#xce;" horiz-adv-x="694" 
d="M489 1611l-142 152l-142 -152h-287l219 338h419l220 -338h-287zM554 0h-415v1500h415v-1500z" />
    <glyph glyph-name="Idieresis" unicode="&#xcf;" horiz-adv-x="694" 
d="M-9.5 1660q-48.5 50 -48.5 139q0 88 48.5 137.5t134.5 49.5t134.5 -49.5t48.5 -137.5q0 -89 -48.5 -139t-134.5 -50t-134.5 50zM434 1660q-48 50 -48 139q0 88 48 137.5t134 49.5t134.5 -49.5t48.5 -137.5q0 -89 -48.5 -139t-134.5 -50t-134 50zM139 0v1500h415v-1500
h-415z" />
    <glyph glyph-name="Eth" unicode="&#xd0;" horiz-adv-x="1902" 
d="M938 1500q265 0 467 -93t313 -263t111 -394t-111 -394t-313 -263t-467 -93h-748v615h-136v274h136v611h748zM970 369q133 0 232.5 46.5t153.5 132.5t54 202t-54 202t-153.5 132.5t-232.5 46.5h-368v-242h340v-274h-340v-246h368z" />
    <glyph glyph-name="Ntilde" unicode="&#xd1;" horiz-adv-x="1944" 
d="M1402 470v1030h402v-1500h-522l-740 1053v-1053h-403v1500h537zM454 1622q21 164 107 253.5t244 89.5q54 0 103 -14t122 -42q54 -21 85 -30.5t59 -9.5q42 0 69.5 22t34.5 63h265q-23 -164 -109 -253.5t-243 -89.5q-55 0 -107 14.5t-118 41.5q-57 21 -86.5 30t-56.5 9
q-43 0 -70.5 -21.5t-34.5 -62.5h-264z" />
    <glyph glyph-name="Ograve" unicode="&#xd2;" horiz-adv-x="1930" 
d="M499 65q-202 98 -313.5 275.5t-111.5 409.5t111.5 409.5t313.5 275.5t466 98t466 -98t313.5 -275.5t111.5 -409.5t-111.5 -409.5t-313.5 -275.5t-466 -98t-466 98zM1215.5 388q106.5 50 164 143t57.5 219t-57.5 219t-164 143t-250.5 50t-250.5 -50t-164 -143t-57.5 -219
t57.5 -219t164 -143t250.5 -50t250.5 50zM432 1949h464l295 -338h-412z" />
    <glyph glyph-name="Oacute" unicode="&#xd3;" horiz-adv-x="1930" 
d="M499 65q-202 98 -313.5 275.5t-111.5 409.5t111.5 409.5t313.5 275.5t466 98t466 -98t313.5 -275.5t111.5 -409.5t-111.5 -409.5t-313.5 -275.5t-466 -98t-466 98zM1215.5 388q106.5 50 164 143t57.5 219t-57.5 219t-164 143t-250.5 50t-250.5 -50t-164 -143t-57.5 -219
t57.5 -219t164 -143t250.5 -50t250.5 50zM717 1611l295 338h464l-347 -338h-412z" />
    <glyph glyph-name="Ocircumflex" unicode="&#xd4;" horiz-adv-x="1930" 
d="M499 65q-202 98 -313.5 275.5t-111.5 409.5t111.5 409.5t313.5 275.5t466 98t466 -98t313.5 -275.5t111.5 -409.5t-111.5 -409.5t-313.5 -275.5t-466 -98t-466 98zM1215.5 388q106.5 50 164 143t57.5 219t-57.5 219t-164 143t-250.5 50t-250.5 -50t-164 -143t-57.5 -219
t57.5 -219t164 -143t250.5 -50t250.5 50zM1180 1949l305 -338h-335l-185 138l-185 -138h-334l303 338h431z" />
    <glyph glyph-name="Otilde" unicode="&#xd5;" horiz-adv-x="1930" 
d="M499 65q-202 98 -313.5 275.5t-111.5 409.5t111.5 409.5t313.5 275.5t466 98t466 -98t313.5 -275.5t111.5 -409.5t-111.5 -409.5t-313.5 -275.5t-466 -98t-466 98zM1215.5 388q106.5 50 164 143t57.5 219t-57.5 219t-164 143t-250.5 50t-250.5 -50t-164 -143t-57.5 -219
t57.5 -219t164 -143t250.5 -50t250.5 50zM420 1622q21 164 107 253.5t244 89.5q54 0 103 -14t122 -42q54 -21 85 -30.5t59 -9.5q42 0 69.5 22t34.5 63h265q-23 -164 -109 -253.5t-243 -89.5q-55 0 -107 14.5t-118 41.5q-57 21 -86.5 30t-56.5 9q-43 0 -70.5 -21.5
t-34.5 -62.5h-264z" />
    <glyph glyph-name="Odieresis" unicode="&#xd6;" horiz-adv-x="1930" 
d="M499 65q-202 98 -313.5 275.5t-111.5 409.5t111.5 409.5t313.5 275.5t466 98t466 -98t313.5 -275.5t111.5 -409.5t-111.5 -409.5t-313.5 -275.5t-466 -98t-466 98zM1215.5 388q106.5 50 164 143t57.5 219t-57.5 219t-164 143t-250.5 50t-250.5 -50t-164 -143t-57.5 -219
t57.5 -219t164 -143t250.5 -50t250.5 50zM492.5 1661q-60.5 51 -60.5 140q0 86 60.5 135.5t161.5 49.5t161.5 -49.5t60.5 -135.5q0 -89 -60.5 -140t-161.5 -51t-161.5 51zM1112.5 1661q-60.5 51 -60.5 140q0 86 60.5 135.5t161.5 49.5t161.5 -49.5t60.5 -135.5
q0 -89 -60.5 -140t-161.5 -51t-161.5 51z" />
    <glyph glyph-name="multiply" unicode="&#xd7;" horiz-adv-x="1240" 
d="M912 1195l210 -209l-291 -291l291 -292l-210 -209l-291 291l-291 -291l-210 209l292 292l-292 291l210 209l291 -291z" />
    <glyph glyph-name="Oslash" unicode="&#xd8;" horiz-adv-x="1929" 
d="M1620 1305q113 -103 174 -244.5t61 -310.5q0 -232 -111.5 -409.5t-313.5 -275.5t-466 -98q-230 0 -414 75l-65 -77h-371l193 228q-113 104 -173 245.5t-60 311.5q0 232 111 409.5t313 275.5t466 98q226 0 414 -76l66 78h371zM559 490l571 674q-77 20 -166 20
q-148 0 -257 -52.5t-167.5 -150.5t-58.5 -231q0 -154 78 -260zM1221 368.5q109 52.5 168 150.5t59 231q0 154 -78 260l-571 -674q77 -20 165 -20q148 0 257 52.5z" />
    <glyph glyph-name="Ugrave" unicode="&#xd9;" horiz-adv-x="1756" 
d="M534 670q0 -156 89 -244t255 -88q167 0 255 87.5t88 244.5v830h415v-850q0 -203 -94.5 -358t-266.5 -240t-397 -85t-397 85t-267 240t-95 358v850h415v-830zM344 1949h464l295 -338h-412z" />
    <glyph glyph-name="Uacute" unicode="&#xda;" horiz-adv-x="1756" 
d="M534 670q0 -156 89 -244t255 -88q167 0 255 87.5t88 244.5v830h415v-850q0 -203 -94.5 -358t-266.5 -240t-397 -85t-397 85t-267 240t-95 358v850h415v-830zM629 1611l295 338h464l-347 -338h-412z" />
    <glyph glyph-name="Ucircumflex" unicode="&#xdb;" horiz-adv-x="1756" 
d="M534 670q0 -156 89 -244t255 -88q167 0 255 87.5t88 244.5v830h415v-850q0 -203 -94.5 -358t-266.5 -240t-397 -85t-397 85t-267 240t-95 358v850h415v-830zM1092 1949l305 -338h-335l-185 138l-185 -138h-334l303 338h431z" />
    <glyph glyph-name="Udieresis" unicode="&#xdc;" horiz-adv-x="1756" 
d="M534 670q0 -156 89 -244t255 -88q167 0 255 87.5t88 244.5v830h415v-850q0 -203 -94.5 -358t-266.5 -240t-397 -85t-397 85t-267 240t-95 358v850h415v-830zM405.5 1661q-60.5 51 -60.5 140q0 86 60.5 135.5t161.5 49.5t161.5 -49.5t60.5 -135.5q0 -89 -60.5 -140
t-161.5 -51t-161.5 51zM1025.5 1661q-60.5 51 -60.5 140q0 86 60.5 135.5t161.5 49.5t161.5 -49.5t60.5 -135.5q0 -89 -60.5 -140t-161.5 -51t-161.5 51z" />
    <glyph glyph-name="Yacute" unicode="&#xdd;" horiz-adv-x="1845" 
d="M1372 1500h459l-700 -892v-608h-415v603l-703 897h459l450 -574zM674 1611l295 338h464l-347 -338h-412z" />
    <glyph glyph-name="Thorn" unicode="&#xde;" horiz-adv-x="1659" 
d="M981 1276q187 0 324 -63.5t210 -180.5t73 -273t-73 -273t-210 -180.5t-324 -63.5h-427v-242h-415v1500h415v-224h427zM956 569q100 0 156.5 50t56.5 140q0 89 -56.5 139t-156.5 50h-402v-379h402z" />
    <glyph glyph-name="germandbls" unicode="&#xdf;" horiz-adv-x="1792" 
d="M1609 708.5q130 -106.5 130 -276.5q0 -140 -75.5 -245t-218 -162.5t-335.5 -57.5q-131 0 -241.5 18.5t-238.5 58.5v310q133 -49 227.5 -69.5t186.5 -20.5q141 0 211.5 49t70.5 137q0 194 -342 194h-163v276h85q108 0 168 43.5t60 118.5q0 87 -75 136.5t-206 49.5
q-104 0 -179 -35.5t-114.5 -101.5t-39.5 -157v-974h-408v936q0 191 93 335.5t266 223t406 78.5q204 0 351.5 -50t224.5 -139t77 -206q0 -119 -78.5 -206.5t-223.5 -131.5q251 -25 381 -131.5z" />
    <glyph glyph-name="agrave" unicode="&#xe0;" horiz-adv-x="1652" 
d="M1568 1143l-72 -571l72 -572h-424l-30 231q-83 -126 -207 -195t-277 -69q-166 0 -294.5 75.5t-199.5 213t-71 315.5q0 179 71 316.5t199.5 213t294.5 75.5q152 0 277 -68t208 -193l29 228h424zM908.5 317.5q74.5 37.5 131 103.5t84.5 150q-28 84 -84.5 150.5t-131 104
t-155.5 37.5q-80 0 -142.5 -37.5t-97.5 -104t-35 -150.5t35 -150t97.5 -103.5t142.5 -37.5q81 0 155.5 37.5zM376 1632h397l251 -378h-378z" />
    <glyph glyph-name="aacute" unicode="&#xe1;" horiz-adv-x="1652" 
d="M1568 1143l-72 -571l72 -572h-424l-30 231q-83 -126 -207 -195t-277 -69q-166 0 -294.5 75.5t-199.5 213t-71 315.5q0 179 71 316.5t199.5 213t294.5 75.5q152 0 277 -68t208 -193l29 228h424zM908.5 317.5q74.5 37.5 131 103.5t84.5 150q-28 84 -84.5 150.5t-131 104
t-155.5 37.5q-80 0 -142.5 -37.5t-97.5 -104t-35 -150.5t35 -150t97.5 -103.5t142.5 -37.5q81 0 155.5 37.5zM598 1254l252 378h396l-269 -378h-379z" />
    <glyph glyph-name="acircumflex" unicode="&#xe2;" horiz-adv-x="1652" 
d="M1568 1143l-72 -571l72 -572h-424l-30 231q-83 -126 -207 -195t-277 -69q-166 0 -294.5 75.5t-199.5 213t-71 315.5q0 179 71 316.5t199.5 213t294.5 75.5q152 0 277 -68t208 -193l29 228h424zM908.5 317.5q74.5 37.5 131 103.5t84.5 150q-28 84 -84.5 150.5t-131 104
t-155.5 37.5q-80 0 -142.5 -37.5t-97.5 -104t-35 -150.5t35 -150t97.5 -103.5t142.5 -37.5q81 0 155.5 37.5zM1034 1632l286 -378h-323l-172 180l-173 -180h-323l286 378h419z" />
    <glyph glyph-name="atilde" unicode="&#xe3;" horiz-adv-x="1652" 
d="M1568 1143l-72 -571l72 -572h-424l-30 231q-83 -126 -207 -195t-277 -69q-166 0 -294.5 75.5t-199.5 213t-71 315.5q0 179 71 316.5t199.5 213t294.5 75.5q152 0 277 -68t208 -193l29 228h424zM908.5 317.5q74.5 37.5 131 103.5t84.5 150q-28 84 -84.5 150.5t-131 104
t-155.5 37.5q-80 0 -142.5 -37.5t-97.5 -104t-35 -150.5t35 -150t97.5 -103.5t142.5 -37.5q81 0 155.5 37.5zM323 1265q9 177 83 275t212 98q54 0 105 -16t120 -46q51 -22 80 -32t54 -10q42 0 69.5 27t35.5 74h241q-9 -176 -82 -274t-213 -98q-55 0 -106 16t-119 46
q-51 22 -79.5 32t-53.5 10q-42 0 -70.5 -27t-35.5 -75h-241z" />
    <glyph glyph-name="adieresis" unicode="&#xe4;" horiz-adv-x="1652" 
d="M1568 1143l-72 -571l72 -572h-424l-30 231q-83 -126 -207 -195t-277 -69q-166 0 -294.5 75.5t-199.5 213t-71 315.5q0 179 71 316.5t199.5 213t294.5 75.5q152 0 277 -68t208 -193l29 228h424zM908.5 317.5q74.5 37.5 131 103.5t84.5 150q-28 84 -84.5 150.5t-131 104
t-155.5 37.5q-80 0 -142.5 -37.5t-97.5 -104t-35 -150.5t35 -150t97.5 -103.5t142.5 -37.5q81 0 155.5 37.5zM356.5 1304q-60.5 51 -60.5 140q0 85 60.5 135t161.5 50q102 0 162 -50t60 -135q0 -89 -60 -140t-162 -51q-101 0 -161.5 51zM968 1304q-60 51 -60 140
q0 85 60 135t162 50q100 0 160.5 -50t60.5 -135q0 -89 -60 -140t-161 -51q-102 0 -162 51z" />
    <glyph glyph-name="aring" unicode="&#xe5;" horiz-adv-x="1652" 
d="M1568 1143l-72 -571l72 -572h-424l-30 231q-83 -126 -207 -195t-277 -69q-166 0 -294.5 75.5t-199.5 213t-71 315.5q0 179 71 316.5t199.5 213t294.5 75.5q152 0 277 -68t208 -193l29 228h424zM908.5 317.5q74.5 37.5 131 103.5t84.5 150q-28 84 -84.5 150.5t-131 104
t-155.5 37.5q-80 0 -142.5 -37.5t-97.5 -104t-35 -150.5t35 -150t97.5 -103.5t142.5 -37.5q81 0 155.5 37.5zM620.5 1267.5q-85.5 33.5 -131 96t-45.5 148.5q0 85 45.5 147.5t131 96t203.5 33.5q117 0 202 -33.5t130.5 -96t45.5 -147.5q0 -86 -45.5 -148.5t-130.5 -96
t-202 -33.5q-118 0 -203.5 33.5zM935 1429q39 29 39 83q0 53 -39.5 82.5t-110.5 29.5q-72 0 -111.5 -29.5t-39.5 -82.5q0 -54 39.5 -83t111.5 -29t111 29z" />
    <glyph glyph-name="ae" unicode="&#xe6;" horiz-adv-x="2526" 
d="M2179 1094.5q137 -81.5 209 -231t72 -347.5l-1 -39h-900q38 -102 143.5 -156t275.5 -54q122 0 237.5 27.5t212.5 81.5v-248q-114 -79 -233 -120t-271 -41q-157 0 -285 45.5t-218 129.5l-8 -142h-297l-16 210q-84 -116 -204 -179.5t-266 -63.5q-166 0 -294.5 75.5
t-199.5 213t-71 315.5q0 179 71 316.5t199.5 213t294.5 75.5q145 0 266 -62.5t204 -177.5l16 207h297l7 -122q81 75 191 115t243 40q188 0 325 -81.5zM1643 844.5q-75 -56.5 -97 -155.5h560q-27 103 -97.5 157.5t-182.5 54.5q-108 0 -183 -56.5zM908.5 317.5
q74.5 37.5 131 103.5t84.5 150q-28 84 -84.5 150.5t-131 104t-155.5 37.5q-80 0 -142.5 -37.5t-97.5 -104t-35 -150.5t35 -150t97.5 -103.5t142.5 -37.5q81 0 155.5 37.5z" />
    <glyph glyph-name="ccedilla" unicode="&#xe7;" horiz-adv-x="1524" 
d="M966.5 328.5q80.5 57.5 101.5 153.5h406q-16 -141 -99.5 -252t-219.5 -179t-305 -81l-40 -61q42 9 92 9q134 0 204.5 -51.5t70.5 -143.5q0 -64 -42 -114t-124 -79t-197 -29q-156 0 -262 59t-138 159h243q38 -57 157 -57q63 0 96.5 19t33.5 51q0 30 -28 48t-84 18
q-60 0 -104 -22h-203l127 198q-177 21 -311 101.5t-207.5 208t-73.5 287.5q0 177 89.5 314.5t251 214t370.5 76.5q188 0 342 -64.5t249 -182t112 -269.5h-406q-21 101 -101 156.5t-196 55.5q-91 0 -158.5 -35t-104 -103t-36.5 -163q0 -143 80.5 -221.5t218.5 -78.5
q115 0 195.5 57.5z" />
    <glyph glyph-name="egrave" unicode="&#xe8;" horiz-adv-x="1468" 
d="M503 455q42 -91 142 -139.5t252 -48.5q126 0 251 33t228 94v-260q-120 -81 -271 -124t-324 -43q-207 0 -371 76.5t-257 214.5t-93 317q0 176 89.5 313t247.5 212.5t356 75.5q201 0 348 -88.5t225.5 -251t78.5 -381.5h-902zM584.5 837.5q-72.5 -50.5 -99.5 -136.5h540
q-28 90 -95.5 138.5t-167.5 48.5q-105 0 -177.5 -50.5zM303 1632h397l251 -378h-378z" />
    <glyph glyph-name="eacute" unicode="&#xe9;" horiz-adv-x="1468" 
d="M503 455q42 -91 142 -139.5t252 -48.5q126 0 251 33t228 94v-260q-120 -81 -271 -124t-324 -43q-207 0 -371 76.5t-257 214.5t-93 317q0 176 89.5 313t247.5 212.5t356 75.5q201 0 348 -88.5t225.5 -251t78.5 -381.5h-902zM584.5 837.5q-72.5 -50.5 -99.5 -136.5h540
q-28 90 -95.5 138.5t-167.5 48.5q-105 0 -177.5 -50.5zM525 1254l252 378h396l-269 -378h-379z" />
    <glyph glyph-name="ecircumflex" unicode="&#xea;" horiz-adv-x="1468" 
d="M503 455q42 -91 142 -139.5t252 -48.5q126 0 251 33t228 94v-260q-120 -81 -271 -124t-324 -43q-207 0 -371 76.5t-257 214.5t-93 317q0 176 89.5 313t247.5 212.5t356 75.5q201 0 348 -88.5t225.5 -251t78.5 -381.5h-902zM584.5 837.5q-72.5 -50.5 -99.5 -136.5h540
q-28 90 -95.5 138.5t-167.5 48.5q-105 0 -177.5 -50.5zM961 1632l286 -378h-323l-172 180l-173 -180h-323l286 378h419z" />
    <glyph glyph-name="edieresis" unicode="&#xeb;" horiz-adv-x="1468" 
d="M503 455q42 -91 142 -139.5t252 -48.5q126 0 251 33t228 94v-260q-120 -81 -271 -124t-324 -43q-207 0 -371 76.5t-257 214.5t-93 317q0 176 89.5 313t247.5 212.5t356 75.5q201 0 348 -88.5t225.5 -251t78.5 -381.5h-902zM584.5 837.5q-72.5 -50.5 -99.5 -136.5h540
q-28 90 -95.5 138.5t-167.5 48.5q-105 0 -177.5 -50.5zM283.5 1304q-60.5 51 -60.5 140q0 85 60.5 135t161.5 50q102 0 162 -50t60 -135q0 -89 -60 -140t-162 -51q-101 0 -161.5 51zM895 1304q-60 51 -60 140q0 85 60 135t162 50q100 0 160.5 -50t60.5 -135q0 -89 -60 -140
t-161 -51q-102 0 -162 51z" />
    <glyph glyph-name="igrave" unicode="&#xec;" horiz-adv-x="634" 
d="M113 0v1160l204 -40l205 40v-1160h-409zM-130 1632h397l251 -378h-378z" />
    <glyph glyph-name="iacute" unicode="&#xed;" horiz-adv-x="634" 
d="M113 0v1160l204 -40l205 40v-1160h-409zM91 1254l252 378h396l-269 -378h-379z" />
    <glyph glyph-name="icircumflex" unicode="&#xee;" horiz-adv-x="634" 
d="M439 1254l-123 185l-122 -185h-272l185 378h419l186 -378h-273zM113 0v1160l204 -40l205 40v-1160h-409z" />
    <glyph glyph-name="idieresis" unicode="&#xef;" horiz-adv-x="634" 
d="M-12.5 1305.5q-46.5 52.5 -46.5 146.5q0 93 46.5 145.5t129.5 52.5t130 -52.5t47 -145.5q0 -94 -47 -146.5t-130 -52.5t-129.5 52.5zM396 1305.5q-47 52.5 -47 146.5q0 93 47 145.5t130 52.5t129.5 -52.5t46.5 -145.5q0 -94 -46.5 -146.5t-129.5 -52.5t-130 52.5zM113 0
v1160l204 -40l205 40v-1160h-409z" />
    <glyph glyph-name="eth" unicode="&#xf0;" horiz-adv-x="1577" 
d="M1261 1246q128 -154 188.5 -311t60.5 -323q0 -192 -86.5 -338t-248 -226.5t-381.5 -80.5q-219 0 -386 69t-258.5 194t-91.5 288q0 154 84 272.5t235 183.5t345 65q210 0 354 -85q-71 117 -168 224l-401 -77v202l227 44q-104 86 -224 164l400 62q97 -73 188 -156l320 61
v-202zM961 300q72 29 110.5 83t38.5 128t-38.5 128t-110.5 83t-171 29q-150 0 -235 -63.5t-85 -176.5q0 -74 38.5 -128t110.5 -83t171 -29t171 29z" />
    <glyph glyph-name="ntilde" unicode="&#xf1;" horiz-adv-x="1578" 
d="M1241 1110.5q117 -65.5 178 -186.5t61 -285v-639h-408v579q0 128 -65 196t-187 68q-85 0 -147.5 -35.5t-96 -102t-33.5 -155.5v-550h-409v748l-75 395h409l39 -238q74 132 192.5 201.5t262.5 69.5q162 0 279 -65.5zM307 1265q9 177 83 275t212 98q54 0 105 -16t120 -46
q51 -22 80 -32t54 -10q42 0 69.5 27t35.5 74h241q-9 -176 -82 -274t-213 -98q-55 0 -106 16t-119 46q-51 22 -79.5 32t-53.5 10q-42 0 -70.5 -27t-35.5 -75h-241z" />
    <glyph glyph-name="ograve" unicode="&#xf2;" horiz-adv-x="1583" 
d="M409 42.5q-166 75.5 -257.5 212.5t-91.5 316t91.5 316.5t257.5 213t383 75.5t383 -75.5t257.5 -213t91.5 -316.5t-91.5 -316t-257.5 -212.5t-383 -75.5t-383 75.5zM963 307q72 36 110 103.5t38 160.5t-38.5 161t-110 104t-170.5 36t-171 -36t-110.5 -104t-38.5 -161
t38.5 -160.5t110.5 -103.5t171 -36t171 36zM344 1632h397l251 -378h-378z" />
    <glyph glyph-name="oacute" unicode="&#xf3;" horiz-adv-x="1583" 
d="M409 42.5q-166 75.5 -257.5 212.5t-91.5 316t91.5 316.5t257.5 213t383 75.5t383 -75.5t257.5 -213t91.5 -316.5t-91.5 -316t-257.5 -212.5t-383 -75.5t-383 75.5zM963 307q72 36 110 103.5t38 160.5t-38.5 161t-110 104t-170.5 36t-171 -36t-110.5 -104t-38.5 -161
t38.5 -160.5t110.5 -103.5t171 -36t171 36zM566 1254l252 378h396l-269 -378h-379z" />
    <glyph glyph-name="ocircumflex" unicode="&#xf4;" horiz-adv-x="1583" 
d="M409 42.5q-166 75.5 -257.5 212.5t-91.5 316t91.5 316.5t257.5 213t383 75.5t383 -75.5t257.5 -213t91.5 -316.5t-91.5 -316t-257.5 -212.5t-383 -75.5t-383 75.5zM963 307q72 36 110 103.5t38 160.5t-38.5 161t-110 104t-170.5 36t-171 -36t-110.5 -104t-38.5 -161
t38.5 -160.5t110.5 -103.5t171 -36t171 36zM1002 1632l286 -378h-323l-172 180l-173 -180h-323l286 378h419z" />
    <glyph glyph-name="otilde" unicode="&#xf5;" horiz-adv-x="1583" 
d="M409 42.5q-166 75.5 -257.5 212.5t-91.5 316t91.5 316.5t257.5 213t383 75.5t383 -75.5t257.5 -213t91.5 -316.5t-91.5 -316t-257.5 -212.5t-383 -75.5t-383 75.5zM963 307q72 36 110 103.5t38 160.5t-38.5 161t-110 104t-170.5 36t-171 -36t-110.5 -104t-38.5 -161
t38.5 -160.5t110.5 -103.5t171 -36t171 36zM291 1265q9 177 83 275t212 98q54 0 105 -16t120 -46q51 -22 80 -32t54 -10q42 0 69.5 27t35.5 74h241q-9 -176 -82 -274t-213 -98q-55 0 -106 16t-119 46q-51 22 -79.5 32t-53.5 10q-42 0 -70.5 -27t-35.5 -75h-241z" />
    <glyph glyph-name="odieresis" unicode="&#xf6;" horiz-adv-x="1583" 
d="M409 42.5q-166 75.5 -257.5 212.5t-91.5 316t91.5 316.5t257.5 213t383 75.5t383 -75.5t257.5 -213t91.5 -316.5t-91.5 -316t-257.5 -212.5t-383 -75.5t-383 75.5zM963 307q72 36 110 103.5t38 160.5t-38.5 161t-110 104t-170.5 36t-171 -36t-110.5 -104t-38.5 -161
t38.5 -160.5t110.5 -103.5t171 -36t171 36zM324.5 1304q-60.5 51 -60.5 140q0 85 60.5 135t161.5 50q102 0 162 -50t60 -135q0 -89 -60 -140t-162 -51q-101 0 -161.5 51zM936 1304q-60 51 -60 140q0 85 60 135t162 50q100 0 160.5 -50t60.5 -135q0 -89 -60 -140t-161 -51
q-102 0 -162 51z" />
    <glyph glyph-name="divide" unicode="&#xf7;" horiz-adv-x="1240" 
d="M506.5 975q-41.5 22 -64.5 62t-23 90t23 89.5t64.5 61.5t93.5 22t93.5 -22t64.5 -61.5t23 -89.5t-23 -90t-64.5 -62t-93.5 -22t-93.5 22zM60 560v296h1120v-296h-1120zM506.5 138q-41.5 22 -64.5 62t-23 90t23 89.5t64.5 61.5t93.5 22t93.5 -22t64.5 -61.5t23 -89.5
t-23 -90t-64.5 -62t-93.5 -22t-93.5 22z" />
    <glyph glyph-name="oslash" unicode="&#xf8;" horiz-adv-x="1583" 
d="M1334 999q92 -80 141 -189t49 -239q0 -179 -91.5 -316t-257.5 -212.5t-383 -75.5q-159 0 -293 41l-55 -65h-364l169 201q-91 80 -140 188.5t-49 238.5q0 179 91.5 316.5t257.5 213t383 75.5q160 0 292 -41l55 65h365zM480 418l401 476q-45 8 -89 8q-106 0 -182.5 -40
t-117.5 -114.5t-41 -176.5q0 -86 29 -153zM974.5 280q76.5 40 117 114.5t40.5 176.5q0 86 -29 153l-401 -476q45 -8 90 -8q106 0 182.5 40z" />
    <glyph glyph-name="ugrave" unicode="&#xf9;" horiz-adv-x="1554" 
d="M1494 0h-408l-39 236q-73 -131 -188 -199.5t-255 -68.5q-158 0 -272 65.5t-174 186.5t-60 284v639h409v-580q0 -127 61.5 -194.5t176.5 -67.5q127 0 196.5 76.5t69.5 215.5v550h409v-749zM326 1632h397l251 -378h-378z" />
    <glyph glyph-name="uacute" unicode="&#xfa;" horiz-adv-x="1554" 
d="M1494 0h-408l-39 236q-73 -131 -188 -199.5t-255 -68.5q-158 0 -272 65.5t-174 186.5t-60 284v639h409v-580q0 -127 61.5 -194.5t176.5 -67.5q127 0 196.5 76.5t69.5 215.5v550h409v-749zM548 1254l252 378h396l-269 -378h-379z" />
    <glyph glyph-name="ucircumflex" unicode="&#xfb;" horiz-adv-x="1554" 
d="M1494 0h-408l-39 236q-73 -131 -188 -199.5t-255 -68.5q-158 0 -272 65.5t-174 186.5t-60 284v639h409v-580q0 -127 61.5 -194.5t176.5 -67.5q127 0 196.5 76.5t69.5 215.5v550h409v-749zM984 1632l286 -378h-323l-172 180l-173 -180h-323l286 378h419z" />
    <glyph glyph-name="udieresis" unicode="&#xfc;" horiz-adv-x="1554" 
d="M1494 0h-408l-39 236q-73 -131 -188 -199.5t-255 -68.5q-158 0 -272 65.5t-174 186.5t-60 284v639h409v-580q0 -127 61.5 -194.5t176.5 -67.5q127 0 196.5 76.5t69.5 215.5v550h409v-749zM306.5 1304q-60.5 51 -60.5 140q0 85 60.5 135t161.5 50q102 0 162 -50t60 -135
q0 -89 -60 -140t-162 -51q-101 0 -161.5 51zM918 1304q-60 51 -60 140q0 85 60 135t162 50q100 0 160.5 -50t60.5 -135q0 -89 -60 -140t-161 -51q-102 0 -162 51z" />
    <glyph glyph-name="yacute" unicode="&#xfd;" horiz-adv-x="1554" 
d="M1118 1143h435l-549 -1165q-84 -179 -219 -260t-297 -81q-125 0 -223.5 30.5t-191.5 97.5v283q95 -60 177 -86t180 -26q89 0 150 38t100 130l1 3h-179l-486 1036h451l322 -780zM569 1254l252 378h396l-269 -378h-379z" />
    <glyph glyph-name="thorn" unicode="&#xfe;" horiz-adv-x="1630" 
d="M1295.5 1100.5q128.5 -75.5 199.5 -213t71 -316.5q0 -178 -71 -315.5t-199.5 -213t-294.5 -75.5q-150 0 -273 67t-206 189v-553h-409v1870h409v-616q84 121 206.5 186.5t272.5 65.5q166 0 294.5 -75.5zM1020.5 317.5q62.5 37.5 97.5 103.5t35 150t-35 150.5t-97.5 104
t-142.5 37.5q-81 0 -155.5 -37.5t-131 -104t-85.5 -150.5q29 -84 85.5 -150t131 -103.5t155.5 -37.5q80 0 142.5 37.5z" />
    <glyph glyph-name="ydieresis" unicode="&#xff;" horiz-adv-x="1554" 
d="M1118 1143h435l-549 -1165q-84 -179 -219 -260t-297 -81q-125 0 -223.5 30.5t-191.5 97.5v283q95 -60 177 -86t180 -26q89 0 150 38t100 130l1 3h-179l-486 1036h451l322 -780zM327.5 1304q-60.5 51 -60.5 140q0 85 60.5 135t161.5 50q102 0 162 -50t60 -135
q0 -89 -60 -140t-162 -51q-101 0 -161.5 51zM939 1304q-60 51 -60 140q0 85 60 135t162 50q100 0 160.5 -50t60.5 -135q0 -89 -60 -140t-161 -51q-102 0 -162 51z" />
    <glyph glyph-name="Amacron" unicode="&#x100;" horiz-adv-x="1914" 
d="M1912 0h-442l-125 289h-775l-125 -289h-443l683 1500h545zM957 1184l-243 -562h487zM1444 1652h-974v246h974v-246z" />
    <glyph glyph-name="amacron" unicode="&#x101;" horiz-adv-x="1652" 
d="M1568 1143l-72 -571l72 -572h-424l-30 231q-83 -126 -207 -195t-277 -69q-166 0 -294.5 75.5t-199.5 213t-71 315.5q0 179 71 316.5t199.5 213t294.5 75.5q152 0 277 -68t208 -193l29 228h424zM908.5 317.5q74.5 37.5 131 103.5t84.5 150q-28 84 -84.5 150.5t-131 104
t-155.5 37.5q-80 0 -142.5 -37.5t-97.5 -104t-35 -150.5t35 -150t97.5 -103.5t142.5 -37.5q81 0 155.5 37.5zM1311 1303h-975v245h975v-245z" />
    <glyph glyph-name="Abreve" unicode="&#x102;" horiz-adv-x="1914" 
d="M1912 0h-442l-125 289h-775l-125 -289h-443l683 1500h545zM957 1184l-243 -562h487zM760 1956q59 -112 197 -112t197 112h311q-48 -178 -181 -269.5t-327 -91.5q-195 0 -328 91.5t-180 269.5h311z" />
    <glyph glyph-name="abreve" unicode="&#x103;" horiz-adv-x="1652" 
d="M1568 1143l-72 -571l72 -572h-424l-30 231q-83 -126 -207 -195t-277 -69q-166 0 -294.5 75.5t-199.5 213t-71 315.5q0 179 71 316.5t199.5 213t294.5 75.5q152 0 277 -68t208 -193l29 228h424zM908.5 317.5q74.5 37.5 131 103.5t84.5 150q-28 84 -84.5 150.5t-131 104
t-155.5 37.5q-80 0 -142.5 -37.5t-97.5 -104t-35 -150.5t35 -150t97.5 -103.5t142.5 -37.5q81 0 155.5 37.5zM639 1631q14 -68 63 -106.5t122 -38.5t121.5 38.5t63.5 106.5h301q-30 -185 -155.5 -288.5t-330.5 -103.5t-330.5 103.5t-155.5 288.5h301z" />
    <glyph glyph-name="Aogonek" unicode="&#x104;" horiz-adv-x="1914" 
d="M1703.5 -179q31.5 -14 91.5 -14q62 0 117 13v-215q-29 -11 -92 -20t-126 -9q-93 0 -164.5 24t-110.5 68t-39 102q0 145 222 230h-132l-125 289h-775l-125 -289h-443l683 1500h545l682 -1500q-113 -31 -176.5 -66.5t-63.5 -71.5q0 -27 31.5 -41zM957 1184l-243 -562h487z
" />
    <glyph glyph-name="aogonek" unicode="&#x105;" horiz-adv-x="1652" 
d="M1568 0q-114 -31 -177.5 -66.5t-63.5 -71.5q0 -27 31.5 -41t91.5 -14q63 0 118 13v-215q-30 -11 -93 -20t-125 -9q-94 0 -165.5 24t-110.5 68t-39 102q0 145 223 230h-114l-30 231q-83 -126 -207 -195t-277 -69q-166 0 -294.5 75.5t-199.5 213t-71 315.5q0 179 71 316.5
t199.5 213t294.5 75.5q152 0 277 -68t208 -193l29 228h424l-72 -571zM908.5 317.5q74.5 37.5 131 103.5t84.5 150q-28 84 -84.5 150.5t-131 104t-155.5 37.5q-80 0 -142.5 -37.5t-97.5 -104t-35 -150.5t35 -150t97.5 -103.5t142.5 -37.5q81 0 155.5 37.5z" />
    <glyph glyph-name="Cacute" unicode="&#x106;" horiz-adv-x="1868" 
d="M1806 628q-22 -197 -136 -346.5t-301 -232t-423 -82.5q-259 0 -457 98t-306.5 275.5t-108.5 409.5t108.5 409.5t306.5 275.5t457 98q236 0 423 -82.5t301 -232t136 -346.5h-417q-30 142 -145 222t-299 80q-139 0 -240.5 -51.5t-156 -147t-54.5 -225.5t54.5 -225.5
t156 -147t240.5 -51.5q186 0 300.5 77.5t143.5 224.5h417zM692 1611l295 338h464l-347 -338h-412z" />
    <glyph glyph-name="cacute" unicode="&#x107;" horiz-adv-x="1524" 
d="M1474 482q-17 -152 -112 -269t-249 -181.5t-342 -64.5q-209 0 -370.5 76t-251 213.5t-89.5 314.5t89.5 314.5t251 214t370.5 76.5q188 0 342 -64.5t249 -182t112 -269.5h-406q-21 101 -101 156.5t-196 55.5q-91 0 -158.5 -35t-104 -103t-36.5 -163q0 -143 80.5 -221.5
t218.5 -78.5q115 0 195.5 57.5t101.5 153.5h406zM548 1254l252 378h396l-269 -378h-379z" />
    <glyph glyph-name="Ccircumflex" unicode="&#x108;" horiz-adv-x="1868" 
d="M1806 628q-22 -197 -136 -346.5t-301 -232t-423 -82.5q-259 0 -457 98t-306.5 275.5t-108.5 409.5t108.5 409.5t306.5 275.5t457 98q236 0 423 -82.5t301 -232t136 -346.5h-417q-30 142 -145 222t-299 80q-139 0 -240.5 -51.5t-156 -147t-54.5 -225.5t54.5 -225.5
t156 -147t240.5 -51.5q186 0 300.5 77.5t143.5 224.5h417zM1155 1949l305 -338h-335l-185 138l-185 -138h-334l303 338h431z" />
    <glyph glyph-name="ccircumflex" unicode="&#x109;" horiz-adv-x="1524" 
d="M1474 482q-17 -152 -112 -269t-249 -181.5t-342 -64.5q-209 0 -370.5 76t-251 213.5t-89.5 314.5t89.5 314.5t251 214t370.5 76.5q188 0 342 -64.5t249 -182t112 -269.5h-406q-21 101 -101 156.5t-196 55.5q-91 0 -158.5 -35t-104 -103t-36.5 -163q0 -143 80.5 -221.5
t218.5 -78.5q115 0 195.5 57.5t101.5 153.5h406zM984 1632l286 -378h-323l-172 180l-173 -180h-323l286 378h419z" />
    <glyph glyph-name="Cdotaccent" unicode="&#x10a;" horiz-adv-x="1868" 
d="M1806 628q-22 -197 -136 -346.5t-301 -232t-423 -82.5q-259 0 -457 98t-306.5 275.5t-108.5 409.5t108.5 409.5t306.5 275.5t457 98q236 0 423 -82.5t301 -232t136 -346.5h-417q-30 142 -145 222t-299 80q-139 0 -240.5 -51.5t-156 -147t-54.5 -225.5t54.5 -225.5
t156 -147t240.5 -51.5q186 0 300.5 77.5t143.5 224.5h417zM815 1634.5q-54 24.5 -84 69.5t-30 105t30 105t84 69.5t125 24.5t125 -24.5t83.5 -69.5t29.5 -105t-29.5 -105t-83.5 -69.5t-125 -24.5t-125 24.5z" />
    <glyph glyph-name="cdotaccent" unicode="&#x10b;" horiz-adv-x="1524" 
d="M1474 482q-17 -152 -112 -269t-249 -181.5t-342 -64.5q-209 0 -370.5 76t-251 213.5t-89.5 314.5t89.5 314.5t251 214t370.5 76.5q188 0 342 -64.5t249 -182t112 -269.5h-406q-21 101 -101 156.5t-196 55.5q-91 0 -158.5 -35t-104 -103t-36.5 -163q0 -143 80.5 -221.5
t218.5 -78.5q115 0 195.5 57.5t101.5 153.5h406zM649 1277.5q-54 24.5 -84 69.5t-30 105t30 104.5t84 69t125 24.5t125 -24.5t83.5 -69t29.5 -104.5t-29.5 -105t-83.5 -69.5t-125 -24.5t-125 24.5z" />
    <glyph glyph-name="Ccaron" unicode="&#x10c;" horiz-adv-x="1868" 
d="M1806 628q-22 -197 -136 -346.5t-301 -232t-423 -82.5q-259 0 -457 98t-306.5 275.5t-108.5 409.5t108.5 409.5t306.5 275.5t457 98q236 0 423 -82.5t301 -232t136 -346.5h-417q-30 142 -145 222t-299 80q-139 0 -240.5 -51.5t-156 -147t-54.5 -225.5t54.5 -225.5
t156 -147t240.5 -51.5q186 0 300.5 77.5t143.5 224.5h417zM941 1810l184 138h335l-304 -338h-431l-304 338h335z" />
    <glyph glyph-name="ccaron" unicode="&#x10d;" horiz-adv-x="1524" 
d="M1474 482q-17 -152 -112 -269t-249 -181.5t-342 -64.5q-209 0 -370.5 76t-251 213.5t-89.5 314.5t89.5 314.5t251 214t370.5 76.5q188 0 342 -64.5t249 -182t112 -269.5h-406q-21 101 -101 156.5t-196 55.5q-91 0 -158.5 -35t-104 -103t-36.5 -163q0 -143 80.5 -221.5
t218.5 -78.5q115 0 195.5 57.5t101.5 153.5h406zM774 1452l172 180h324l-286 -378h-419l-286 378h322z" />
    <glyph glyph-name="Dcaron" unicode="&#x10e;" horiz-adv-x="1852" 
d="M888 1500q265 0 466.5 -93t312.5 -263t111 -394t-111 -394t-312.5 -263t-466.5 -93h-749v1500h749zM919 369q134 0 233.5 46.5t153 132.5t53.5 202t-53.5 202t-153 132.5t-233.5 46.5h-367v-762h367zM874 1810l184 138h335l-304 -338h-431l-304 338h335z" />
    <glyph glyph-name="dcaron" unicode="&#x10f;" horiz-adv-x="1702" 
d="M1620 1540l-118 -938l72 -602h-423l-29 242q-83 -131 -209.5 -203t-282.5 -72q-166 0 -294.5 75.5t-199.5 213t-71 315.5q0 179 71 316.5t199.5 213t294.5 75.5q154 0 280.5 -70t209.5 -198l76 632h424zM908.5 317.5q74.5 37.5 131 103.5t84.5 150q-28 84 -84.5 150.5
t-131 104t-155.5 37.5q-80 0 -142.5 -37.5t-97.5 -104t-35 -150.5t35 -150t97.5 -103.5t142.5 -37.5q81 0 155.5 37.5zM1680 1261l51 414h356l-127 -414h-280z" />
    <glyph glyph-name="Dcroat" unicode="&#x110;" horiz-adv-x="1902" 
d="M938 1500q265 0 467 -93t313 -263t111 -394t-111 -394t-313 -263t-467 -93h-748v615h-136v274h136v611h748zM970 369q133 0 232.5 46.5t153.5 132.5t54 202t-54 202t-153.5 132.5t-232.5 46.5h-368v-242h340v-274h-340v-246h368z" />
    <glyph glyph-name="dcroat" unicode="&#x111;" horiz-adv-x="1629" 
d="M1659 1432v-242h-142v-1190h-409v208q-83 -115 -205.5 -178t-272.5 -63q-166 0 -294.5 72t-199.5 202t-71 299q0 170 71 301t199.5 203t294.5 72q149 0 272 -62t206 -177v313h-536v242h536v108h409v-108h142zM909 313q74 33 130.5 92.5t84.5 134.5q-28 76 -84.5 136
t-130.5 93.5t-155 33.5q-80 0 -143 -33.5t-98 -93.5t-35 -136q0 -75 35 -134.5t98 -92.5t143 -33q81 0 155 33z" />
    <glyph glyph-name="Emacron" unicode="&#x112;" horiz-adv-x="1587" 
d="M581 599l-42 -263h950v-336h-1395l114 750l-114 750h1385v-336h-940l42 -263h840v-302h-840zM1287 1652h-974v246h974v-246z" />
    <glyph glyph-name="emacron" unicode="&#x113;" horiz-adv-x="1468" 
d="M503 455q42 -91 142 -139.5t252 -48.5q126 0 251 33t228 94v-260q-120 -81 -271 -124t-324 -43q-207 0 -371 76.5t-257 214.5t-93 317q0 176 89.5 313t247.5 212.5t356 75.5q201 0 348 -88.5t225.5 -251t78.5 -381.5h-902zM584.5 837.5q-72.5 -50.5 -99.5 -136.5h540
q-28 90 -95.5 138.5t-167.5 48.5q-105 0 -177.5 -50.5zM1238 1303h-975v245h975v-245z" />
    <glyph glyph-name="Ebreve" unicode="&#x114;" horiz-adv-x="1587" 
d="M581 599l-42 -263h950v-336h-1395l114 750l-114 750h1385v-336h-940l42 -263h840v-302h-840zM603 1956q59 -112 197 -112t197 112h311q-48 -178 -181 -269.5t-327 -91.5q-195 0 -328 91.5t-180 269.5h311z" />
    <glyph glyph-name="ebreve" unicode="&#x115;" horiz-adv-x="1468" 
d="M503 455q42 -91 142 -139.5t252 -48.5q126 0 251 33t228 94v-260q-120 -81 -271 -124t-324 -43q-207 0 -371 76.5t-257 214.5t-93 317q0 176 89.5 313t247.5 212.5t356 75.5q201 0 348 -88.5t225.5 -251t78.5 -381.5h-902zM584.5 837.5q-72.5 -50.5 -99.5 -136.5h540
q-28 90 -95.5 138.5t-167.5 48.5q-105 0 -177.5 -50.5zM566 1631q14 -68 63 -106.5t122 -38.5t121.5 38.5t63.5 106.5h301q-30 -185 -155.5 -288.5t-330.5 -103.5t-330.5 103.5t-155.5 288.5h301z" />
    <glyph glyph-name="Edotaccent" unicode="&#x116;" horiz-adv-x="1587" 
d="M581 599l-42 -263h950v-336h-1395l114 750l-114 750h1385v-336h-940l42 -263h840v-302h-840zM675 1634.5q-54 24.5 -84 69.5t-30 105t30 105t84 69.5t125 24.5t125 -24.5t83.5 -69.5t29.5 -105t-29.5 -105t-83.5 -69.5t-125 -24.5t-125 24.5z" />
    <glyph glyph-name="edotaccent" unicode="&#x117;" horiz-adv-x="1468" 
d="M503 455q42 -91 142 -139.5t252 -48.5q126 0 251 33t228 94v-260q-120 -81 -271 -124t-324 -43q-207 0 -371 76.5t-257 214.5t-93 317q0 176 89.5 313t247.5 212.5t356 75.5q201 0 348 -88.5t225.5 -251t78.5 -381.5h-902zM584.5 837.5q-72.5 -50.5 -99.5 -136.5h540
q-28 90 -95.5 138.5t-167.5 48.5q-105 0 -177.5 -50.5zM625 1277.5q-54 24.5 -84 69.5t-30 105t30 104.5t84 69t125 24.5t125 -24.5t83.5 -69t29.5 -104.5t-29.5 -105t-83.5 -69.5t-125 -24.5t-125 24.5z" />
    <glyph glyph-name="Eogonek" unicode="&#x118;" horiz-adv-x="1587" 
d="M1489 0q-114 -31 -177.5 -66.5t-63.5 -71.5q0 -27 32 -41t92 -14q62 0 117 13v-215q-29 -11 -92 -20t-126 -9q-94 0 -165.5 24t-110.5 68t-39 102q0 145 223 230h-1085l114 750l-114 750h1385v-336h-940l42 -263h840v-302h-840l-42 -263h950v-336z" />
    <glyph glyph-name="eogonek" unicode="&#x119;" horiz-adv-x="1469" 
d="M959.5 -400q-74.5 24 -115.5 67.5t-41 100.5q0 67 43.5 119.5t144.5 101.5q-101 -22 -210 -22q-207 0 -371 76.5t-257 214.5t-93 317q0 176 89.5 313t247.5 212.5t356 75.5q202 0 349 -86.5t225 -248.5t78 -384h-895q40 -92 140 -141t245 -49q136 0 258 33.5t223 93.5
v-260q-47 -32 -92 -58q-82 -47 -125.5 -97t-43.5 -95q0 -39 29.5 -58t88.5 -19q62 0 117 13v-215q-29 -11 -92.5 -20t-125.5 -9q-98 0 -172.5 24zM1024 700q-27 89 -94.5 138.5t-165.5 49.5q-107 0 -179.5 -51t-96.5 -137h536z" />
    <glyph glyph-name="Ecaron" unicode="&#x11a;" horiz-adv-x="1587" 
d="M581 599l-42 -263h950v-336h-1395l114 750l-114 750h1385v-336h-940l42 -263h840v-302h-840zM801 1810l184 138h335l-304 -338h-431l-304 338h335z" />
    <glyph glyph-name="ecaron" unicode="&#x11b;" horiz-adv-x="1468" 
d="M503 455q42 -91 142 -139.5t252 -48.5q126 0 251 33t228 94v-260q-120 -81 -271 -124t-324 -43q-207 0 -371 76.5t-257 214.5t-93 317q0 176 89.5 313t247.5 212.5t356 75.5q201 0 348 -88.5t225.5 -251t78.5 -381.5h-902zM584.5 837.5q-72.5 -50.5 -99.5 -136.5h540
q-28 90 -95.5 138.5t-167.5 48.5q-105 0 -177.5 -50.5zM751 1452l172 180h324l-286 -378h-419l-286 378h322z" />
    <glyph glyph-name="Gcircumflex" unicode="&#x11c;" horiz-adv-x="1928" 
d="M1024 776h795v-776h-293l-20 201q-97 -110 -243.5 -172t-339.5 -62q-237 0 -430 92.5t-305 269.5t-112 421q0 245 113 421.5t310.5 269t446.5 92.5q241 0 423.5 -75t293 -208t143.5 -307h-418q-20 75 -80.5 130t-153 84.5t-207.5 29.5q-141 0 -243 -49.5t-157 -147.5
t-55 -240q0 -144 59.5 -244t170 -151t262.5 -51q154 0 270.5 46.5t179.5 133.5h-410v292zM1162 1949l305 -338h-335l-185 138l-185 -138h-334l303 338h431z" />
    <glyph glyph-name="gcircumflex" unicode="&#x11d;" horiz-adv-x="1626" 
d="M1110 1143h408v-839q0 -207 -97 -357.5t-274 -230t-413 -79.5q-156 0 -290.5 40t-270.5 123v309q119 -89 255 -132t281 -43q198 0 299.5 86t101.5 268v40q-88 -94 -213 -151t-277 -57q-160 0 -287 66t-199.5 186t-72.5 276t72.5 276t199.5 186t287 66q151 0 276 -60.5
t214 -158.5v186zM1123 648q-127 250 -365 250q-87 0 -151.5 -30.5t-99.5 -87t-35 -132.5q0 -115 75.5 -182t210.5 -67q239 0 365 249zM1036 1632l286 -378h-323l-172 180l-173 -180h-323l286 378h419z" />
    <glyph glyph-name="Gbreve" unicode="&#x11e;" horiz-adv-x="1928" 
d="M1024 776h795v-776h-293l-20 201q-97 -110 -243.5 -172t-339.5 -62q-237 0 -430 92.5t-305 269.5t-112 421q0 245 113 421.5t310.5 269t446.5 92.5q241 0 423.5 -75t293 -208t143.5 -307h-418q-20 75 -80.5 130t-153 84.5t-207.5 29.5q-141 0 -243 -49.5t-157 -147.5
t-55 -240q0 -144 59.5 -244t170 -151t262.5 -51q154 0 270.5 46.5t179.5 133.5h-410v292zM749 1956q59 -112 197 -112t197 112h311q-48 -178 -181 -269.5t-327 -91.5q-195 0 -328 91.5t-180 269.5h311z" />
    <glyph glyph-name="gbreve" unicode="&#x11f;" horiz-adv-x="1626" 
d="M1110 1143h408v-839q0 -207 -97 -357.5t-274 -230t-413 -79.5q-156 0 -290.5 40t-270.5 123v309q119 -89 255 -132t281 -43q198 0 299.5 86t101.5 268v40q-88 -94 -213 -151t-277 -57q-160 0 -287 66t-199.5 186t-72.5 276t72.5 276t199.5 186t287 66q151 0 276 -60.5
t214 -158.5v186zM1123 648q-127 250 -365 250q-87 0 -151.5 -30.5t-99.5 -87t-35 -132.5q0 -115 75.5 -182t210.5 -67q239 0 365 249zM642 1631q14 -68 63 -106.5t122 -38.5t121.5 38.5t63.5 106.5h301q-30 -185 -155.5 -288.5t-330.5 -103.5t-330.5 103.5t-155.5 288.5h301
z" />
    <glyph glyph-name="Gdotaccent" unicode="&#x120;" horiz-adv-x="1928" 
d="M1024 776h795v-776h-293l-20 201q-97 -110 -243.5 -172t-339.5 -62q-237 0 -430 92.5t-305 269.5t-112 421q0 245 113 421.5t310.5 269t446.5 92.5q241 0 423.5 -75t293 -208t143.5 -307h-418q-20 75 -80.5 130t-153 84.5t-207.5 29.5q-141 0 -243 -49.5t-157 -147.5
t-55 -240q0 -144 59.5 -244t170 -151t262.5 -51q154 0 270.5 46.5t179.5 133.5h-410v292zM822 1634.5q-54 24.5 -84 69.5t-30 105t30 105t84 69.5t125 24.5t125 -24.5t83.5 -69.5t29.5 -105t-29.5 -105t-83.5 -69.5t-125 -24.5t-125 24.5z" />
    <glyph glyph-name="gdotaccent" unicode="&#x121;" horiz-adv-x="1626" 
d="M1110 1143h408v-839q0 -207 -97 -357.5t-274 -230t-413 -79.5q-156 0 -290.5 40t-270.5 123v309q119 -89 255 -132t281 -43q198 0 299.5 86t101.5 268v40q-88 -94 -213 -151t-277 -57q-160 0 -287 66t-199.5 186t-72.5 276t72.5 276t199.5 186t287 66q151 0 276 -60.5
t214 -158.5v186zM1123 648q-127 250 -365 250q-87 0 -151.5 -30.5t-99.5 -87t-35 -132.5q0 -115 75.5 -182t210.5 -67q239 0 365 249zM701 1277.5q-54 24.5 -84 69.5t-30 105t30 104.5t84 69t125 24.5t125 -24.5t83.5 -69t29.5 -104.5t-29.5 -105t-83.5 -69.5t-125 -24.5
t-125 24.5z" />
    <glyph glyph-name="uni0122" unicode="&#x122;" horiz-adv-x="1928" 
d="M1024 776h795v-776h-293l-20 201q-97 -110 -243.5 -172t-339.5 -62q-237 0 -430 92.5t-305 269.5t-112 421q0 245 113 421.5t310.5 269t446.5 92.5q241 0 423.5 -75t293 -208t143.5 -307h-418q-20 75 -80.5 130t-153 84.5t-207.5 29.5q-141 0 -243 -49.5t-157 -147.5
t-55 -240q0 -144 59.5 -244t170 -151t262.5 -51q154 0 270.5 46.5t179.5 133.5h-410v292zM1125 -134q59 -46 59 -125q0 -36 -12 -67t-35.5 -65t-72.5 -95l-108 -131h-196l126 201q-65 16 -101.5 57.5t-36.5 102.5q0 77 59 122.5t159 45.5t159 -46z" />
    <glyph glyph-name="uni0123" unicode="&#x123;" horiz-adv-x="1626" 
d="M1110 1143h408v-839q0 -207 -97 -357.5t-274 -230t-413 -79.5q-156 0 -290.5 40t-270.5 123v309q119 -89 255 -132t281 -43q198 0 299.5 86t101.5 268v40q-88 -94 -213 -151t-277 -57q-160 0 -287 66t-199.5 186t-72.5 276t72.5 276t199.5 186t287 66q151 0 276 -60.5
t214 -158.5v186zM1123 648q-127 250 -365 250q-87 0 -151.5 -30.5t-99.5 -87t-35 -132.5q0 -115 75.5 -182t210.5 -67q239 0 365 249zM914 1567q66 -16 102.5 -57.5t36.5 -102.5q0 -77 -59.5 -122.5t-159.5 -45.5t-159 46t-59 125q0 36 12 67t35.5 64.5t73.5 94.5l108 132
h195z" />
    <glyph glyph-name="Hcircumflex" unicode="&#x124;" horiz-adv-x="1875" 
d="M1321 945v555h415v-1500h-415v579h-767v-579h-415v1500h415v-555h767zM1152 1949l305 -338h-335l-185 138l-185 -138h-334l303 338h431z" />
    <glyph glyph-name="hcircumflex" unicode="&#x125;" horiz-adv-x="1557" 
d="M1219 1110.5q117 -65.5 178.5 -186.5t61.5 -285v-639h-409v579q0 128 -65 196t-186 68q-85 0 -147.5 -35.5t-96 -102t-33.5 -155.5v-550h-409v1540h409v-578q75 105 183 159.5t235 54.5q162 0 279 -65.5zM1023 2029l286 -378h-323l-172 180l-173 -180h-323l286 378h419z
" />
    <glyph glyph-name="Hbar" unicode="&#x126;" horiz-adv-x="1949" 
d="M1773 1353h134v-277h-134v-1076h-415v546h-767v-546h-415v1076h-134v277h134v147h415v-147h767v147h415v-147zM591 888h767v188h-767v-188z" />
    <glyph glyph-name="hbar" unicode="&#x127;" horiz-adv-x="1557" 
d="M1219 1050.5q117 -65.5 178.5 -186.5t61.5 -285v-579h-409v519q0 128 -65 196t-186 68q-85 0 -147.5 -35.5t-96 -102t-33.5 -155.5v-490h-409v1190h-142v242h142v108h409v-108h548v-242h-548v-288q75 105 183 159.5t235 54.5q162 0 279 -65.5z" />
    <glyph glyph-name="Itilde" unicode="&#x128;" horiz-adv-x="694" 
d="M-57 1617q8 157 73 245t183 88q49 0 83.5 -15t81.5 -44q31 -21 52.5 -31t45.5 -10q34 0 55.5 25t29.5 72h203q-9 -158 -73.5 -245.5t-182.5 -87.5q-49 0 -84.5 15t-81.5 44q-32 21 -52.5 31t-44.5 10q-34 0 -55.5 -25.5t-29.5 -71.5h-203zM139 0v1500h415v-1500h-415z
" />
    <glyph glyph-name="itilde" unicode="&#x129;" horiz-adv-x="634" 
d="M-85 1268q8 173 73 269.5t183 96.5q49 0 83.5 -15t81.5 -44q31 -21 52.5 -31t45.5 -10q34 0 55.5 25t29.5 71h203q-9 -173 -73.5 -269t-182.5 -96q-49 0 -85.5 15.5t-80.5 43.5q-33 21 -53.5 30.5t-43.5 9.5q-34 0 -55.5 -25t-29.5 -71h-203zM113 0v1160l204 -40l205 40
v-1160h-409z" />
    <glyph glyph-name="Imacron" unicode="&#x12a;" horiz-adv-x="694" 
d="M722 1652h-751v246h751v-246zM139 0v1500h415v-1500h-415z" />
    <glyph glyph-name="imacron" unicode="&#x12b;" horiz-adv-x="634" 
d="M677 1303h-719v245h719v-245zM113 0v1160l204 -40l205 40v-1160h-409z" />
    <glyph glyph-name="Ibreve" unicode="&#x12c;" horiz-adv-x="694" 
d="M216 1949q9 -61 42 -94t89 -33t88.5 33t41.5 94h284q-11 -107 -64.5 -187t-143 -123.5t-206.5 -43.5q-118 0 -207.5 43.5t-143 123.5t-64.5 187h284zM139 0v1500h415v-1500h-415z" />
    <glyph glyph-name="ibreve" unicode="&#x12d;" horiz-adv-x="634" 
d="M182 1631q9 -64 45.5 -101.5t89.5 -37.5t89 37t46 102h269q-10 -119 -62.5 -207.5t-140 -136.5t-201.5 -48t-201.5 48t-140 136.5t-63.5 207.5h270zM113 0v1160l204 -40l205 40v-1160h-409z" />
    <glyph glyph-name="Iogonek" unicode="&#x12e;" horiz-adv-x="694" 
d="M585 -180v-215q-28 -11 -91 -20t-124 -9q-93 0 -164 24t-110 68.5t-39 103.5q0 144 230 228h-148v1500h415v-1500q-93 -33 -139.5 -66t-46.5 -72q0 -55 104 -55q59 0 113 13z" />
    <glyph glyph-name="iogonek" unicode="&#x12f;" horiz-adv-x="634" 
d="M192 1277.5q-54 24.5 -83.5 69.5t-29.5 105t29.5 104.5t83.5 69t125 24.5t125 -24.5t84 -69t30 -104.5t-30 -105t-84 -69.5t-125 -24.5t-125 24.5zM361 -179q25 -14 73 -14q62 0 117 13v-215q-29 -11 -92 -20t-126 -9q-91 0 -161 24.5t-109 69t-39 102.5q0 73 56.5 128.5
t172.5 99.5h-140v1160l204 -40l205 40v-1160q-88 -32 -137 -67t-49 -71q0 -27 25 -41z" />
    <glyph glyph-name="Idotaccent" unicode="&#x130;" horiz-adv-x="694" 
d="M139 0v1500h415v-1500h-415zM222 1634.5q-54 24.5 -84 69.5t-30 105t30 105t84 69.5t125 24.5t125 -24.5t83.5 -69.5t29.5 -105t-29.5 -105t-83.5 -69.5t-125 -24.5t-125 24.5z" />
    <glyph glyph-name="dotlessi" unicode="&#x131;" horiz-adv-x="634" 
d="M113 0v1160l204 -40l205 40v-1160h-409z" />
    <glyph glyph-name="IJ" unicode="&#x132;" horiz-adv-x="1690" 
d="M109 828v672h415v-672h-415zM112 698h409v-50q0 -163 74.5 -244.5t240.5 -81.5q162 0 240 76t78 217v885h415v-906q0 -193 -91.5 -334.5t-257 -217t-384.5 -75.5q-217 0 -377.5 78t-250 224t-94.5 346z" />
    <glyph glyph-name="ij" unicode="&#x133;" horiz-adv-x="1269" 
d="M192 1277.5q-54 24.5 -83.5 69.5t-29.5 105t29.5 104.5t83.5 69t125 24.5t125 -24.5t84 -69t30 -104.5t-30 -105t-84 -69.5t-125 -24.5t-125 24.5zM826 1277.5q-54 24.5 -83.5 69.5t-29.5 105t29.5 104.5t84 69t125.5 24.5t125 -24.5t83.5 -69t29.5 -104.5t-29.5 -105
t-83.5 -69.5t-125 -24.5q-72 0 -126 24.5zM113 0v1160l204 -40l205 40v-1160h-409zM747 -330v1490l205 -40l204 40v-1490h-409z" />
    <glyph glyph-name="Jcircumflex" unicode="&#x134;" horiz-adv-x="1612" 
d="M1425 1611l-142 152l-142 -152h-287l220 338h419l219 -338h-287zM1076 1500h415v-866q0 -205 -91.5 -356t-257.5 -231t-385 -80q-216 0 -378.5 83t-251.5 238t-89 367l-2 83h406v-50q0 -182 74.5 -272t240.5 -90q319 0 319 329v845z" />
    <glyph glyph-name="jcircumflex" unicode="&#x135;" horiz-adv-x="634" 
d="M462 1254l-123 185l-123 -185h-271l185 378h419l185 -378h-272zM113 -330v1490l204 -40l205 40v-1490h-409z" />
    <glyph glyph-name="uni0136" unicode="&#x136;" horiz-adv-x="1740" 
d="M1219 869l531 -869h-471l-322 546l-443 -546h-375v1500h413v-944l739 944h439zM1065 -134q59 -46 59 -125q0 -36 -12 -67t-35.5 -65t-72.5 -95l-108 -131h-196l126 201q-65 16 -101.5 57.5t-36.5 102.5q0 77 59 122.5t159 45.5t159 -46z" />
    <glyph glyph-name="uni0137" unicode="&#x137;" horiz-adv-x="1486" 
d="M1076 688l426 -688h-461l-226 388l-337 -388h-365v1540h409v-1038l520 641h430zM946 -134q59 -46 59 -125q0 -36 -12 -67t-35.5 -65t-72.5 -95l-108 -131h-196l126 201q-65 16 -101.5 57.5t-36.5 102.5q0 77 59 122.5t159 45.5t159 -46z" />
    <glyph glyph-name="kgreenlandic" unicode="&#x138;" horiz-adv-x="1485" 
d="M1075 689l426 -689h-461l-226 388l-337 -388h-365v1143h408v-636l522 636h428z" />
    <glyph glyph-name="Lacute" unicode="&#x139;" horiz-adv-x="1528" 
d="M554 1500v-1131h936v-369h-1351v1500h415zM99 1611l295 338h464l-347 -338h-412z" />
    <glyph glyph-name="lacute" unicode="&#x13a;" horiz-adv-x="634" 
d="M113 0v1540h409v-1540h-409zM91 1651l252 378h396l-269 -378h-379z" />
    <glyph glyph-name="uni013B" unicode="&#x13b;" horiz-adv-x="1528" 
d="M554 1500v-1131h936v-369h-1351v1500h415zM1001 -134q59 -46 59 -125q0 -36 -12 -67t-35.5 -65t-72.5 -95l-108 -131h-196l126 201q-65 16 -101.5 57.5t-36.5 102.5q0 77 59 122.5t159 45.5t159 -46z" />
    <glyph glyph-name="uni013C" unicode="&#x13c;" horiz-adv-x="634" 
d="M113 0v1540h409v-1540h-409zM476 -134q59 -46 59 -125q0 -36 -12 -67t-35.5 -65t-72.5 -95l-108 -131h-196l126 201q-65 16 -101.5 57.5t-36.5 102.5q0 77 59 122.5t159 45.5t159 -46z" />
    <glyph glyph-name="Lcaron" unicode="&#x13d;" horiz-adv-x="1528" 
d="M554 1500v-1131h936v-369h-1351v1500h415zM757 1019l58 481h356l-134 -481h-280z" />
    <glyph glyph-name="lcaron" unicode="&#x13e;" horiz-adv-x="678" 
d="M113 0v1540h409v-1540h-409zM600 1261l51 414h356l-127 -414h-280z" />
    <glyph glyph-name="Ldot" unicode="&#x13f;" horiz-adv-x="1534" 
d="M554 1500v-1131h936v-369h-1351v1500h415zM998 729q-54 31 -85 84.5t-31 118.5t31 119t85 85t119 31t119 -31t85 -85t31 -119t-31 -118.5t-85 -84.5t-119 -31t-119 31z" />
    <glyph glyph-name="ldot" unicode="&#x140;" horiz-adv-x="1053" 
d="M113 0v1540h409v-1540h-409zM727.5 585.5q-52.5 30.5 -83 83t-30.5 116.5t30.5 116.5t83 83t116.5 30.5t116.5 -30.5t83 -83t30.5 -116.5t-30.5 -116.5t-83 -83t-116.5 -30.5t-116.5 30.5z" />
    <glyph glyph-name="Lslash" unicode="&#x141;" horiz-adv-x="1596" 
d="M622 746v-377h936v-369h-1351v637l-135 -36v283l135 35v581h415v-472l456 120v-282z" />
    <glyph glyph-name="lslash" unicode="&#x142;" horiz-adv-x="845" 
d="M628 1039l161 47v-274l-161 -47v-765h-409v646l-161 -47v274l161 47v620h409v-501z" />
    <glyph glyph-name="Nacute" unicode="&#x143;" horiz-adv-x="1944" 
d="M1402 470v1030h402v-1500h-522l-740 1053v-1053h-403v1500h537zM751 1611l295 338h464l-347 -338h-412z" />
    <glyph glyph-name="nacute" unicode="&#x144;" horiz-adv-x="1578" 
d="M1241 1110.5q117 -65.5 178 -186.5t61 -285v-639h-408v579q0 128 -65 196t-187 68q-85 0 -147.5 -35.5t-96 -102t-33.5 -155.5v-550h-409v748l-75 395h409l39 -238q74 132 192.5 201.5t262.5 69.5q162 0 279 -65.5zM581 1254l252 378h396l-269 -378h-379z" />
    <glyph glyph-name="uni0145" unicode="&#x145;" horiz-adv-x="1944" 
d="M1402 470v1030h402v-1500h-522l-740 1053v-1053h-403v1500h537zM1131 -134q59 -46 59 -125q0 -36 -12 -67t-35.5 -65t-72.5 -95l-108 -131h-196l126 201q-65 16 -101.5 57.5t-36.5 102.5q0 77 59 122.5t159 45.5t159 -46z" />
    <glyph glyph-name="uni0146" unicode="&#x146;" horiz-adv-x="1578" 
d="M1241 1110.5q117 -65.5 178 -186.5t61 -285v-639h-408v579q0 128 -65 196t-187 68q-85 0 -147.5 -35.5t-96 -102t-33.5 -155.5v-550h-409v748l-75 395h409l39 -238q74 132 192.5 201.5t262.5 69.5q162 0 279 -65.5zM966 -134q59 -46 59 -125q0 -36 -12 -67t-35.5 -65
t-72.5 -95l-108 -131h-196l126 201q-65 16 -101.5 57.5t-36.5 102.5q0 77 59 122.5t159 45.5t159 -46z" />
    <glyph glyph-name="Ncaron" unicode="&#x147;" horiz-adv-x="1944" 
d="M1402 470v1030h402v-1500h-522l-740 1053v-1053h-403v1500h537zM1000 1810l184 138h335l-304 -338h-431l-304 338h335z" />
    <glyph glyph-name="ncaron" unicode="&#x148;" horiz-adv-x="1578" 
d="M1241 1110.5q117 -65.5 178 -186.5t61 -285v-639h-408v579q0 128 -65 196t-187 68q-85 0 -147.5 -35.5t-96 -102t-33.5 -155.5v-550h-409v748l-75 395h409l39 -238q74 132 192.5 201.5t262.5 69.5q162 0 279 -65.5zM807 1452l172 180h324l-286 -378h-419l-286 378h322z
" />
    <glyph glyph-name="napostrophe" unicode="&#x149;" horiz-adv-x="2031" 
d="M333 1491q52 -30 82.5 -82.5t30.5 -115.5q0 -60 -29 -127.5t-99 -170.5l-127 -191h-195l135 287q-63 26 -101.5 82t-38.5 125q0 61 30.5 112t83 81t114.5 30t114 -30zM1694 1110.5q117 -65.5 178 -186.5t61 -285v-639h-408v579q0 128 -65 196t-187 68q-85 0 -147.5 -35.5
t-96 -102t-33.5 -155.5v-550h-409v748l-75 395h409l39 -238q74 132 192.5 201.5t262.5 69.5q162 0 279 -65.5z" />
    <glyph glyph-name="Eng" unicode="&#x14a;" horiz-adv-x="1842" 
d="M1428.5 1460.5q140.5 -72.5 215 -206t74.5 -313.5v-830q0 -225 -137.5 -349.5t-414.5 -124.5q-97 0 -189 16t-157 41v312q56 -23 127.5 -37t146.5 -14q110 0 159.5 49.5t49.5 154.5v685q0 155 -92 236.5t-267 81.5q-122 0 -209.5 -42t-134 -119.5t-46.5 -184.5v-816h-415
v1500h415v-245q93 142 232 210t311 68q191 0 331.5 -72.5z" />
    <glyph glyph-name="eng" unicode="&#x14b;" horiz-adv-x="1578" 
d="M1241 1110.5q117 -65.5 178 -186.5t61 -285v-519q0 -143 -57.5 -252.5t-165.5 -170t-256 -60.5q-80 0 -156 17t-134 45v307q53 -28 99.5 -41.5t102.5 -13.5q61 0 95 16.5t49 53t15 101.5v457q0 128 -65 196t-187 68q-85 0 -147.5 -35.5t-96 -102t-33.5 -155.5v-550h-409
v748l-75 395h409l39 -238q74 132 192.5 201.5t262.5 69.5q162 0 279 -65.5z" />
    <glyph glyph-name="Omacron" unicode="&#x14c;" horiz-adv-x="1930" 
d="M499 65q-202 98 -313.5 275.5t-111.5 409.5t111.5 409.5t313.5 275.5t466 98t466 -98t313.5 -275.5t111.5 -409.5t-111.5 -409.5t-313.5 -275.5t-466 -98t-466 98zM1215.5 388q106.5 50 164 143t57.5 219t-57.5 219t-164 143t-250.5 50t-250.5 -50t-164 -143t-57.5 -219
t57.5 -219t164 -143t250.5 -50t250.5 50zM1452 1652h-974v246h974v-246z" />
    <glyph glyph-name="omacron" unicode="&#x14d;" horiz-adv-x="1583" 
d="M409 42.5q-166 75.5 -257.5 212.5t-91.5 316t91.5 316.5t257.5 213t383 75.5t383 -75.5t257.5 -213t91.5 -316.5t-91.5 -316t-257.5 -212.5t-383 -75.5t-383 75.5zM963 307q72 36 110 103.5t38 160.5t-38.5 161t-110 104t-170.5 36t-171 -36t-110.5 -104t-38.5 -161
t38.5 -160.5t110.5 -103.5t171 -36t171 36zM1279 1303h-975v245h975v-245z" />
    <glyph glyph-name="Obreve" unicode="&#x14e;" horiz-adv-x="1930" 
d="M499 65q-202 98 -313.5 275.5t-111.5 409.5t111.5 409.5t313.5 275.5t466 98t466 -98t313.5 -275.5t111.5 -409.5t-111.5 -409.5t-313.5 -275.5t-466 -98t-466 98zM1215.5 388q106.5 50 164 143t57.5 219t-57.5 219t-164 143t-250.5 50t-250.5 -50t-164 -143t-57.5 -219
t57.5 -219t164 -143t250.5 -50t250.5 50zM767 1956q59 -112 197 -112t197 112h311q-48 -178 -181 -269.5t-327 -91.5q-195 0 -328 91.5t-180 269.5h311z" />
    <glyph glyph-name="obreve" unicode="&#x14f;" horiz-adv-x="1583" 
d="M409 42.5q-166 75.5 -257.5 212.5t-91.5 316t91.5 316.5t257.5 213t383 75.5t383 -75.5t257.5 -213t91.5 -316.5t-91.5 -316t-257.5 -212.5t-383 -75.5t-383 75.5zM963 307q72 36 110 103.5t38 160.5t-38.5 161t-110 104t-170.5 36t-171 -36t-110.5 -104t-38.5 -161
t38.5 -160.5t110.5 -103.5t171 -36t171 36zM607 1631q14 -68 63 -106.5t122 -38.5t121.5 38.5t63.5 106.5h301q-30 -185 -155.5 -288.5t-330.5 -103.5t-330.5 103.5t-155.5 288.5h301z" />
    <glyph glyph-name="Ohungarumlaut" unicode="&#x150;" horiz-adv-x="1930" 
d="M499 65q-202 98 -313.5 275.5t-111.5 409.5t111.5 409.5t313.5 275.5t466 98t466 -98t313.5 -275.5t111.5 -409.5t-111.5 -409.5t-313.5 -275.5t-466 -98t-466 98zM1215.5 388q106.5 50 164 143t57.5 219t-57.5 219t-164 143t-250.5 50t-250.5 -50t-164 -143t-57.5 -219
t57.5 -219t164 -143t250.5 -50t250.5 50zM535 1611l247 338h392l-281 -338h-358zM1062 1611l246 338h392l-281 -338h-357z" />
    <glyph glyph-name="ohungarumlaut" unicode="&#x151;" horiz-adv-x="1583" 
d="M409 42.5q-166 75.5 -257.5 212.5t-91.5 316t91.5 316.5t257.5 213t383 75.5t383 -75.5t257.5 -213t91.5 -316.5t-91.5 -316t-257.5 -212.5t-383 -75.5t-383 75.5zM963 307q72 36 110 103.5t38 160.5t-38.5 161t-110 104t-170.5 36t-171 -36t-110.5 -104t-38.5 -161
t38.5 -160.5t110.5 -103.5t171 -36t171 36zM369 1254l226 378h359l-243 -378h-342zM871 1254l224 378h361l-245 -378h-340z" />
    <glyph glyph-name="OE" unicode="&#x152;" horiz-adv-x="2668" 
d="M964 0q-265 0 -466.5 93t-312.5 263t-111 394t110 394t310.5 263t464.5 93h1601v-336h-888v-262h829v-302h-829v-264h898v-336h-1606zM1270 369v762h-336q-134 0 -233.5 -46.5t-153.5 -132.5t-54 -202t54 -202t153.5 -132.5t233.5 -46.5h336z" />
    <glyph glyph-name="oe" unicode="&#x153;" horiz-adv-x="2488" 
d="M1525 477q37 -102 136 -156t246 -54q137 0 261 32.5t228 94.5v-248q-115 -84 -271.5 -131.5t-312.5 -47.5q-168 0 -300 50.5t-217 146.5q-87 -95 -221.5 -146t-306.5 -51q-206 0 -366.5 76t-250.5 213t-90 315q0 179 90 316t250.5 213t366.5 76q175 0 310.5 -52.5
t223.5 -151.5q85 97 209.5 150.5t273.5 53.5q195 0 340 -86.5t223 -244.5t78 -368h-900zM1610 844.5q-75 -56.5 -98 -155.5h557q-27 102 -98 157t-178 55q-108 0 -183 -56.5zM955 307q71 36 108.5 103.5t37.5 160.5t-37.5 161t-108.5 104t-168 36q-98 0 -169 -36
t-108.5 -104t-37.5 -161t37.5 -160.5t108.5 -103.5t169 -36q97 0 168 36z" />
    <glyph glyph-name="Racute" unicode="&#x154;" horiz-adv-x="1700" 
d="M1173 0l-402 540h-217v-540h-415v1500h891q170 0 299.5 -60t201 -169.5t71.5 -252.5q0 -113 -46 -205.5t-131.5 -156.5t-201.5 -93l431 -563h-481zM554 1192v-348h419q98 0 154 46t56 128t-55.5 128t-154.5 46h-419zM577 1611l295 338h464l-347 -338h-412z" />
    <glyph glyph-name="racute" unicode="&#x155;" horiz-adv-x="1107" 
d="M1077 1160v-349q-112 23 -208 23q-146 0 -236 -88t-90 -276v-470h-409v758l-75 385h416l50 -301q116 334 411 334q66 0 141 -16zM371 1254l252 378h396l-269 -378h-379z" />
    <glyph glyph-name="uni0156" unicode="&#x156;" horiz-adv-x="1700" 
d="M1173 0l-402 540h-217v-540h-415v1500h891q170 0 299.5 -60t201 -169.5t71.5 -252.5q0 -113 -46 -205.5t-131.5 -156.5t-201.5 -93l431 -563h-481zM554 1192v-348h419q98 0 154 46t56 128t-55.5 128t-154.5 46h-419zM1014 -134q59 -46 59 -125q0 -36 -12 -67t-35.5 -65
t-72.5 -95l-108 -131h-196l126 201q-65 16 -101.5 57.5t-36.5 102.5q0 77 59 122.5t159 45.5t159 -46z" />
    <glyph glyph-name="uni0157" unicode="&#x157;" horiz-adv-x="1107" 
d="M1077 1160v-349q-112 23 -208 23q-146 0 -236 -88t-90 -276v-470h-409v758l-75 385h416l50 -301q116 334 411 334q66 0 141 -16zM499 -134q59 -46 59 -125q0 -36 -12 -67t-35.5 -65t-72.5 -95l-108 -131h-196l126 201q-65 16 -101.5 57.5t-36.5 102.5q0 77 59 122.5
t159 45.5t159 -46z" />
    <glyph glyph-name="Rcaron" unicode="&#x158;" horiz-adv-x="1700" 
d="M1173 0l-402 540h-217v-540h-415v1500h891q170 0 299.5 -60t201 -169.5t71.5 -252.5q0 -113 -46 -205.5t-131.5 -156.5t-201.5 -93l431 -563h-481zM554 1192v-348h419q98 0 154 46t56 128t-55.5 128t-154.5 46h-419zM826 1810l184 138h335l-304 -338h-431l-304 338h335z
" />
    <glyph glyph-name="rcaron" unicode="&#x159;" horiz-adv-x="1107" 
d="M1077 1160v-349q-112 23 -208 23q-146 0 -236 -88t-90 -276v-470h-409v758l-75 385h416l50 -301q116 334 411 334q66 0 141 -16zM597 1452l172 180h324l-286 -378h-419l-286 378h322z" />
    <glyph glyph-name="Sacute" unicode="&#x15a;" horiz-adv-x="1686" 
d="M494 492q14 -95 114 -149.5t264 -54.5q154 0 240.5 40t86.5 114q0 40 -22 66.5t-74.5 43.5t-145.5 26l-278 26q-307 28 -448.5 138.5t-141.5 307.5q0 153 90 261.5t254.5 165t386.5 56.5q214 0 383 -62t267.5 -174t108.5 -259h-422q-11 81 -101.5 127.5t-243.5 46.5
q-142 0 -222.5 -38t-80.5 -108q0 -55 50 -85.5t175 -43.5l299 -29q213 -20 341 -69t186 -134t58 -215q0 -156 -94 -274.5t-265 -183.5t-395 -65q-231 0 -409 65.5t-278 184.5t-105 275h422zM595 1611l295 338h464l-347 -338h-412z" />
    <glyph glyph-name="sacute" unicode="&#x15b;" horiz-adv-x="1496" 
d="M1356.5 151q-79.5 -91 -228.5 -137.5t-356 -46.5q-212 0 -373.5 52t-252.5 146.5t-97 218.5h415q20 -70 103.5 -108t221.5 -38q123 0 185.5 24t62.5 71q0 27 -20.5 43.5t-66 27t-124.5 16.5l-202 15q-293 22 -418 111t-125 244q0 126 79.5 212.5t224.5 130t340 43.5
q190 0 341.5 -50t242 -140t103.5 -207h-415q-16 60 -88 99t-203 39q-109 0 -166.5 -23.5t-57.5 -66.5q0 -37 36 -56t131 -26l265 -20q194 -14 309 -58t164 -116.5t49 -177.5q0 -131 -79.5 -222zM521 1254l252 378h396l-269 -378h-379z" />
    <glyph glyph-name="Scircumflex" unicode="&#x15c;" horiz-adv-x="1686" 
d="M494 492q14 -95 114 -149.5t264 -54.5q154 0 240.5 40t86.5 114q0 40 -22 66.5t-74.5 43.5t-145.5 26l-278 26q-307 28 -448.5 138.5t-141.5 307.5q0 153 90 261.5t254.5 165t386.5 56.5q214 0 383 -62t267.5 -174t108.5 -259h-422q-11 81 -101.5 127.5t-243.5 46.5
q-142 0 -222.5 -38t-80.5 -108q0 -55 50 -85.5t175 -43.5l299 -29q213 -20 341 -69t186 -134t58 -215q0 -156 -94 -274.5t-265 -183.5t-395 -65q-231 0 -409 65.5t-278 184.5t-105 275h422zM1058 1949l305 -338h-335l-185 138l-185 -138h-334l303 338h431z" />
    <glyph glyph-name="scircumflex" unicode="&#x15d;" horiz-adv-x="1496" 
d="M1356.5 151q-79.5 -91 -228.5 -137.5t-356 -46.5q-212 0 -373.5 52t-252.5 146.5t-97 218.5h415q20 -70 103.5 -108t221.5 -38q123 0 185.5 24t62.5 71q0 27 -20.5 43.5t-66 27t-124.5 16.5l-202 15q-293 22 -418 111t-125 244q0 126 79.5 212.5t224.5 130t340 43.5
q190 0 341.5 -50t242 -140t103.5 -207h-415q-16 60 -88 99t-203 39q-109 0 -166.5 -23.5t-57.5 -66.5q0 -37 36 -56t131 -26l265 -20q194 -14 309 -58t164 -116.5t49 -177.5q0 -131 -79.5 -222zM957 1632l286 -378h-323l-172 180l-173 -180h-323l286 378h419z" />
    <glyph glyph-name="Scedilla" unicode="&#x15e;" horiz-adv-x="1686" 
d="M1531 224.5q-87 -115.5 -246 -182.5t-369 -74l-32 -56q45 9 95 9q138 0 213.5 -52.5t75.5 -145.5q0 -66 -44.5 -117.5t-131 -80.5t-208.5 -29q-164 0 -274 59t-140 163h264q15 -24 52.5 -38.5t97.5 -14.5q64 0 97 18.5t33 48.5q0 28 -28 45t-81 17q-69 0 -116 -18h-201
l129 198q-191 20 -335.5 89.5t-225 179.5t-84.5 249h422q14 -95 114 -149.5t264 -54.5q154 0 240.5 40t86.5 114q0 40 -22 66.5t-74.5 43.5t-145.5 26l-278 26q-307 28 -448.5 138.5t-141.5 307.5q0 153 90 261.5t254.5 165t386.5 56.5q214 0 383 -62t267.5 -174t108.5 -259
h-422q-11 81 -101.5 127.5t-243.5 46.5q-142 0 -222.5 -38t-80.5 -108q0 -55 50 -85.5t175 -43.5l299 -29q213 -20 341 -69t186 -134t58 -215q0 -150 -87 -265.5z" />
    <glyph glyph-name="scedilla" unicode="&#x15f;" horiz-adv-x="1496" 
d="M1364 160.5q-72 -88.5 -207.5 -137t-324.5 -55.5l-39 -59q44 9 93 9q134 0 204.5 -51.5t70.5 -143.5q0 -64 -42 -114t-124 -79t-198 -29q-103 0 -186 27t-138 76t-75 115h242q38 -57 157 -57q64 0 97.5 19t33.5 51q0 30 -28 48t-84 18q-59 0 -105 -22h-203l127 197
q-174 16 -304.5 71t-203.5 142.5t-78 197.5h415q20 -70 103.5 -108t221.5 -38q123 0 185.5 24t62.5 71q0 27 -20.5 43.5t-66 27t-124.5 16.5l-202 15q-293 22 -418 111t-125 244q0 126 79.5 212.5t224.5 130t340 43.5q190 0 341.5 -50t242 -140t103.5 -207h-415
q-16 60 -88 99t-203 39q-109 0 -166.5 -23.5t-57.5 -66.5q0 -37 36 -56t131 -26l265 -20q194 -14 309 -58t164 -116.5t49 -177.5q0 -124 -72 -212.5z" />
    <glyph glyph-name="Scaron" unicode="&#x160;" horiz-adv-x="1686" 
d="M494 492q14 -95 114 -149.5t264 -54.5q154 0 240.5 40t86.5 114q0 40 -22 66.5t-74.5 43.5t-145.5 26l-278 26q-307 28 -448.5 138.5t-141.5 307.5q0 153 90 261.5t254.5 165t386.5 56.5q214 0 383 -62t267.5 -174t108.5 -259h-422q-11 81 -101.5 127.5t-243.5 46.5
q-142 0 -222.5 -38t-80.5 -108q0 -55 50 -85.5t175 -43.5l299 -29q213 -20 341 -69t186 -134t58 -215q0 -156 -94 -274.5t-265 -183.5t-395 -65q-231 0 -409 65.5t-278 184.5t-105 275h422zM844 1810l184 138h335l-304 -338h-431l-304 338h335z" />
    <glyph glyph-name="scaron" unicode="&#x161;" horiz-adv-x="1496" 
d="M1356.5 151q-79.5 -91 -228.5 -137.5t-356 -46.5q-212 0 -373.5 52t-252.5 146.5t-97 218.5h415q20 -70 103.5 -108t221.5 -38q123 0 185.5 24t62.5 71q0 27 -20.5 43.5t-66 27t-124.5 16.5l-202 15q-293 22 -418 111t-125 244q0 126 79.5 212.5t224.5 130t340 43.5
q190 0 341.5 -50t242 -140t103.5 -207h-415q-16 60 -88 99t-203 39q-109 0 -166.5 -23.5t-57.5 -66.5q0 -37 36 -56t131 -26l265 -20q194 -14 309 -58t164 -116.5t49 -177.5q0 -131 -79.5 -222zM747 1452l172 180h324l-286 -378h-419l-286 378h322z" />
    <glyph glyph-name="uni0162" unicode="&#x162;" horiz-adv-x="1635" 
d="M1025 0h-116l-50 -87q48 8 95 8q138 0 213 -52.5t75 -145.5q0 -66 -44 -117.5t-130.5 -80.5t-208.5 -29q-164 0 -274 59t-140 163h264q15 -24 52.5 -38.5t97.5 -14.5q63 0 96.5 18.5t33.5 48.5q0 28 -28 45t-81 17q-69 0 -116 -18h-201l145 224h-98v1131h-572v369h1559
v-369h-572v-1131z" />
    <glyph glyph-name="uni0163" unicode="&#x163;" horiz-adv-x="1206" 
d="M746 -32l-39 -59q44 9 93 9q134 0 204.5 -51.5t70.5 -143.5q0 -64 -42 -114t-124 -79t-198 -29q-103 0 -186 27t-138 76t-75 115h242q38 -57 157 -57q64 0 97.5 19t33.5 51q0 30 -28 48t-84 18q-59 0 -105 -22h-203l142 219q-162 46 -241 162.5t-79 290.5v393h-233v178
l233 93l176 338h232v-307h481v-302h-481v-338q0 -84 21.5 -132t71.5 -69t140 -21q80 0 144.5 13.5t123.5 38.5v-306q-68 -25 -165 -42.5t-196 -17.5q-31 0 -46 1z" />
    <glyph glyph-name="Tcaron" unicode="&#x164;" horiz-adv-x="1635" 
d="M38 1500h1559v-369h-572v-1131h-415v1131h-572v369zM818 1810l184 138h335l-304 -338h-431l-304 338h335z" />
    <glyph glyph-name="tcaron" unicode="&#x165;" horiz-adv-x="1206" 
d="M11 841v178l233 93l176 338h232v-307h481v-302h-481v-338q0 -84 21.5 -132t71.5 -69t140 -21q80 0 144.5 13.5t123.5 38.5v-306q-68 -25 -165 -42.5t-196 -17.5q-277 0 -412.5 126.5t-135.5 354.5v393h-233zM768 1315l51 414h356l-127 -414h-280z" />
    <glyph glyph-name="Tbar" unicode="&#x166;" horiz-adv-x="1660" 
d="M1610 1500v-369h-572v-334h380v-282h-380v-515h-416v515h-380v282h380v334h-572v369h1560z" />
    <glyph glyph-name="tbar" unicode="&#x167;" horiz-adv-x="1229" 
d="M1170 333v-306q-69 -25 -166 -42.5t-196 -17.5q-272 0 -408 123t-140 346h-202v270h202v135h-232v178l232 93l177 338h232v-307h481v-302h-481v-135h354v-270h-350q8 -57 33 -91t72 -49t124 -15q148 0 268 52z" />
    <glyph glyph-name="Utilde" unicode="&#x168;" horiz-adv-x="1756" 
d="M534 670q0 -156 89 -244t255 -88q167 0 255 87.5t88 244.5v830h415v-850q0 -203 -94.5 -358t-266.5 -240t-397 -85t-397 85t-267 240t-95 358v850h415v-830zM333 1622q21 164 107 253.5t244 89.5q54 0 103 -14t122 -42q54 -21 85 -30.5t59 -9.5q42 0 69.5 22t34.5 63h265
q-23 -164 -109 -253.5t-243 -89.5q-55 0 -107 14.5t-118 41.5q-57 21 -86.5 30t-56.5 9q-43 0 -70.5 -21.5t-34.5 -62.5h-264z" />
    <glyph glyph-name="utilde" unicode="&#x169;" horiz-adv-x="1554" 
d="M1494 0h-408l-39 236q-73 -131 -188 -199.5t-255 -68.5q-158 0 -272 65.5t-174 186.5t-60 284v639h409v-580q0 -127 61.5 -194.5t176.5 -67.5q127 0 196.5 76.5t69.5 215.5v550h409v-749zM273 1265q9 177 83 275t212 98q54 0 105 -16t120 -46q51 -22 80 -32t54 -10
q42 0 69.5 27t35.5 74h241q-9 -176 -82 -274t-213 -98q-55 0 -106 16t-119 46q-51 22 -79.5 32t-53.5 10q-42 0 -70.5 -27t-35.5 -75h-241z" />
    <glyph glyph-name="Umacron" unicode="&#x16a;" horiz-adv-x="1756" 
d="M534 670q0 -156 89 -244t255 -88q167 0 255 87.5t88 244.5v830h415v-850q0 -203 -94.5 -358t-266.5 -240t-397 -85t-397 85t-267 240t-95 358v850h415v-830zM1364 1652h-974v246h974v-246z" />
    <glyph glyph-name="umacron" unicode="&#x16b;" horiz-adv-x="1554" 
d="M1494 0h-408l-39 236q-73 -131 -188 -199.5t-255 -68.5q-158 0 -272 65.5t-174 186.5t-60 284v639h409v-580q0 -127 61.5 -194.5t176.5 -67.5q127 0 196.5 76.5t69.5 215.5v550h409v-749zM1261 1303h-975v245h975v-245z" />
    <glyph glyph-name="Ubreve" unicode="&#x16c;" horiz-adv-x="1756" 
d="M534 670q0 -156 89 -244t255 -88q167 0 255 87.5t88 244.5v830h415v-850q0 -203 -94.5 -358t-266.5 -240t-397 -85t-397 85t-267 240t-95 358v850h415v-830zM680 1956q59 -112 197 -112t197 112h311q-48 -178 -181 -269.5t-327 -91.5q-195 0 -328 91.5t-180 269.5h311z
" />
    <glyph glyph-name="ubreve" unicode="&#x16d;" horiz-adv-x="1554" 
d="M1494 0h-408l-39 236q-73 -131 -188 -199.5t-255 -68.5q-158 0 -272 65.5t-174 186.5t-60 284v639h409v-580q0 -127 61.5 -194.5t176.5 -67.5q127 0 196.5 76.5t69.5 215.5v550h409v-749zM589 1631q14 -68 63 -106.5t122 -38.5t121.5 38.5t63.5 106.5h301
q-30 -185 -155.5 -288.5t-330.5 -103.5t-330.5 103.5t-155.5 288.5h301z" />
    <glyph glyph-name="Uring" unicode="&#x16e;" horiz-adv-x="1756" 
d="M534 670q0 -156 89 -244t255 -88q167 0 255 87.5t88 244.5v830h415v-850q0 -203 -94.5 -358t-266.5 -240t-397 -85t-397 85t-267 240t-95 358v850h415v-830zM584 1648.5q-104 71.5 -104 200.5q0 130 104 201.5t293 71.5t293 -71.5t104 -201.5q0 -129 -104 -200.5
t-293 -71.5t-293 71.5zM1047 1849q0 96 -170 96q-171 0 -171 -96q0 -95 171 -95q170 0 170 95z" />
    <glyph glyph-name="uring" unicode="&#x16f;" horiz-adv-x="1554" 
d="M1494 0h-408l-39 236q-73 -131 -188 -199.5t-255 -68.5q-158 0 -272 65.5t-174 186.5t-60 284v639h409v-580q0 -127 61.5 -194.5t176.5 -67.5q127 0 196.5 76.5t69.5 215.5v550h409v-749zM570.5 1267.5q-85.5 33.5 -131 96t-45.5 148.5q0 85 45.5 147.5t131 96
t203.5 33.5q117 0 202 -33.5t130.5 -96t45.5 -147.5q0 -86 -45.5 -148.5t-130.5 -96t-202 -33.5q-118 0 -203.5 33.5zM885 1429q39 29 39 83q0 53 -39.5 82.5t-110.5 29.5q-72 0 -111.5 -29.5t-39.5 -82.5q0 -54 39.5 -83t111.5 -29t111 29z" />
    <glyph glyph-name="Uhungarumlaut" unicode="&#x170;" horiz-adv-x="1756" 
d="M534 670q0 -156 89 -244t255 -88q167 0 255 87.5t88 244.5v830h415v-850q0 -203 -94.5 -358t-266.5 -240t-397 -85t-397 85t-267 240t-95 358v850h415v-830zM394 1611l247 338h392l-281 -338h-358zM921 1611l246 338h392l-281 -338h-357z" />
    <glyph glyph-name="uhungarumlaut" unicode="&#x171;" horiz-adv-x="1554" 
d="M1494 0h-408l-39 236q-73 -131 -188 -199.5t-255 -68.5q-158 0 -272 65.5t-174 186.5t-60 284v639h409v-580q0 -127 61.5 -194.5t176.5 -67.5q127 0 196.5 76.5t69.5 215.5v550h409v-749zM351 1254l226 378h359l-243 -378h-342zM853 1254l224 378h361l-245 -378h-340z
" />
    <glyph glyph-name="Uogonek" unicode="&#x172;" horiz-adv-x="1756" 
d="M1221 1500h415v-850q0 -161 -59.5 -292t-170.5 -221.5t-262 -134.5q-108 -32 -166 -67t-58 -71q0 -28 35 -42.5t101 -14.5q61 0 118 13v-215q-30 -11 -93.5 -20t-125.5 -9q-96 0 -169 24.5t-113 69.5t-40 104q0 123 176 196q-206 13 -362 101t-242 237.5t-86 341.5v850
h415v-829q0 -156 89 -244.5t255 -88.5q167 0 255 87.5t88 245.5v829z" />
    <glyph glyph-name="uogonek" unicode="&#x173;" horiz-adv-x="1554" 
d="M1285.5 -179q31.5 -14 91.5 -14q62 0 117 13v-215q-29 -11 -92 -20t-126 -9q-93 0 -164.5 24t-110.5 68t-39 102q0 145 222 230h-98l-39 236q-73 -131 -188 -199.5t-255 -68.5q-158 0 -272 65.5t-174 186.5t-60 284v639h409v-580q0 -127 61.5 -194.5t176.5 -67.5
q127 0 196.5 76.5t69.5 215.5v550h409v-749l74 -394q-113 -31 -176.5 -66.5t-63.5 -71.5q0 -27 31.5 -41z" />
    <glyph glyph-name="Wcircumflex" unicode="&#x174;" horiz-adv-x="2721" 
d="M1948 388l314 1112h438l-456 -1500h-533l-350 1031l-351 -1031h-533l-456 1500h440l313 -1111l368 1111h438zM1575 1949l305 -338h-335l-185 138l-185 -138h-334l303 338h431z" />
    <glyph glyph-name="wcircumflex" unicode="&#x175;" horiz-adv-x="2281" 
d="M1606 406l261 737h409l-427 -1143h-417l-290 769l-294 -769h-417l-426 1143h410l261 -735l272 735h389zM1359 1632l286 -378h-323l-172 180l-173 -180h-323l286 378h419z" />
    <glyph glyph-name="Ycircumflex" unicode="&#x176;" horiz-adv-x="1845" 
d="M1372 1500h459l-700 -892v-608h-415v603l-703 897h459l450 -574zM1137 1949l305 -338h-335l-185 138l-185 -138h-334l303 338h431z" />
    <glyph glyph-name="ycircumflex" unicode="&#x177;" horiz-adv-x="1554" 
d="M1118 1143h435l-549 -1165q-84 -179 -219 -260t-297 -81q-125 0 -223.5 30.5t-191.5 97.5v283q95 -60 177 -86t180 -26q89 0 150 38t100 130l1 3h-179l-486 1036h451l322 -780zM1005 1632l286 -378h-323l-172 180l-173 -180h-323l286 378h419z" />
    <glyph glyph-name="Ydieresis" unicode="&#x178;" horiz-adv-x="1845" 
d="M1372 1500h459l-700 -892v-608h-415v603l-703 897h459l450 -574zM450.5 1661q-60.5 51 -60.5 140q0 86 60.5 135.5t161.5 49.5t161.5 -49.5t60.5 -135.5q0 -89 -60.5 -140t-161.5 -51t-161.5 51zM1070.5 1661q-60.5 51 -60.5 140q0 86 60.5 135.5t161.5 49.5t161.5 -49.5
t60.5 -135.5q0 -89 -60.5 -140t-161.5 -51t-161.5 51z" />
    <glyph glyph-name="Zacute" unicode="&#x179;" horiz-adv-x="1616" 
d="M1526 1202l-891 -876h897v-326h-1448v300l891 876h-885v325h1436v-299zM560 1611l295 338h464l-347 -338h-412z" />
    <glyph glyph-name="zacute" unicode="&#x17a;" horiz-adv-x="1388" 
d="M1306 859l-717 -565h721v-294h-1234v284l718 565h-712v294h1224v-284zM469 1254l252 378h396l-269 -378h-379z" />
    <glyph glyph-name="Zdotaccent" unicode="&#x17b;" horiz-adv-x="1616" 
d="M1526 1202l-891 -876h897v-326h-1448v300l891 876h-885v325h1436v-299zM683 1634.5q-54 24.5 -84 69.5t-30 105t30 105t84 69.5t125 24.5t125 -24.5t83.5 -69.5t29.5 -105t-29.5 -105t-83.5 -69.5t-125 -24.5t-125 24.5z" />
    <glyph glyph-name="zdotaccent" unicode="&#x17c;" horiz-adv-x="1388" 
d="M1306 859l-717 -565h721v-294h-1234v284l718 565h-712v294h1224v-284zM569 1277.5q-54 24.5 -84 69.5t-30 105t30 104.5t84 69t125 24.5t125 -24.5t83.5 -69t29.5 -104.5t-29.5 -105t-83.5 -69.5t-125 -24.5t-125 24.5z" />
    <glyph glyph-name="Zcaron" unicode="&#x17d;" horiz-adv-x="1616" 
d="M1526 1202l-891 -876h897v-326h-1448v300l891 876h-885v325h1436v-299zM809 1810l184 138h335l-304 -338h-431l-304 338h335z" />
    <glyph glyph-name="zcaron" unicode="&#x17e;" horiz-adv-x="1388" 
d="M1306 859l-717 -565h721v-294h-1234v284l718 565h-712v294h1224v-284zM695 1452l172 180h324l-286 -378h-419l-286 378h322z" />
    <glyph glyph-name="longs" unicode="&#x17f;" horiz-adv-x="636" 
d="M618.5 1248q-51.5 -21 -74 -63.5t-22.5 -113.5v-1071h-409v1049q0 252 152.5 388t444.5 136q83 0 152 -11.5t153 -35.5v-300q-124 43 -255 43q-90 0 -141.5 -21z" />
    <glyph glyph-name="uni0180" unicode="&#x180;" horiz-adv-x="1630" 
d="M1294.5 1044q128.5 -72 199.5 -203t71 -301q0 -169 -71 -299t-199.5 -202t-294.5 -72q-150 0 -272.5 63t-205.5 178v-208h-409v1190h-142v242h142v108h409v-108h536v-242h-536v-313q83 115 206 177t272 62q166 0 294.5 -72zM1019 313q63 33 98 92.5t35 134.5
q0 76 -35 136t-98 93.5t-143 33.5q-81 0 -155 -33.5t-130.5 -93.5t-84.5 -136q28 -75 84.5 -134.5t130.5 -92.5t155 -33q80 0 143 33z" />
    <glyph glyph-name="uni0181" unicode="&#x181;" horiz-adv-x="2179" 
d="M2034 656.5q81 -95.5 81 -234.5q0 -124 -57 -219t-169.5 -149t-274.5 -54h-1106l115 770l-67 426h-30q-70 0 -105.5 -36t-35.5 -113q0 -106 39 -217h-307q-36 77 -58.5 152t-22.5 158q0 111 45 192t133.5 124.5t216.5 43.5h1144q138 0 237 -44t151 -126t52 -195
q0 -110 -54 -201t-168 -144q160 -38 241 -133.5zM1550.5 1171.5q-43.5 38.5 -120.5 38.5h-482l49 -298h425q76 0 124 43.5t48 115.5q0 62 -43.5 100.5zM1504 290q89 0 139.5 44t50.5 122q0 79 -56 125.5t-160 46.5h-480l-52 -338h558z" />
    <glyph glyph-name="uni0186" unicode="&#x186;" horiz-adv-x="1868" 
d="M479 628q29 -147 144 -224.5t300 -77.5q139 0 241 51.5t156.5 147t54.5 225.5t-54.5 225.5t-156.5 147t-241 51.5q-183 0 -298.5 -80t-145.5 -222h-417q23 197 136.5 346.5t300.5 232t423 82.5q259 0 457 -98t306.5 -275.5t108.5 -409.5t-108.5 -409.5t-306.5 -275.5
t-457 -98q-236 0 -423 82.5t-300.5 232t-136.5 346.5h417z" />
    <glyph glyph-name="uni0187" unicode="&#x187;" horiz-adv-x="1972" 
d="M2038 1767v-308q-46 15 -84.5 22.5t-79.5 7.5q-92 0 -137 -39.5t-45 -112.5q0 -37 11.5 -82.5t33.5 -112.5q3 -10 16 -50q22 -73 35 -120.5t20 -99.5h-417q-30 142 -145.5 222t-299.5 80q-139 0 -240.5 -51.5t-156 -146.5t-54.5 -225q0 -131 54.5 -226.5t156 -147
t240.5 -51.5q186 0 301 77.5t144 224.5h417q-23 -197 -136.5 -346.5t-300.5 -232t-424 -82.5q-259 0 -456.5 98t-306 275.5t-108.5 409.5t108.5 409.5t303.5 275.5t446 98q272 0 451 -122q-7 40 -7 71q0 92 43 165.5t132 116.5t221 43q144 0 264 -40z" />
    <glyph glyph-name="uni0188" unicode="&#x188;" horiz-adv-x="1633" 
d="M1624 1467q62 -16 128 -45v-288q-59 24 -101.5 34t-86.5 10q-91 0 -131 -38t-40 -120q0 -50 11 -98.5t39 -142.5l9 -30l25 -89h-406q-21 101 -101 156.5t-196 55.5q-91 0 -158.5 -35t-104 -103t-36.5 -163q0 -143 80.5 -221.5t218.5 -78.5q115 0 195 57.5t102 153.5h406
q-17 -152 -112 -269t-249.5 -181.5t-345.5 -64.5q-207 0 -368 76.5t-250.5 214.5t-89.5 317q0 174 84 311t235.5 213.5t344.5 76.5q203 0 349 -95q-1 9 -1 27q0 185 108 280t300 95q80 0 142 -16z" />
    <glyph glyph-name="uni0189" unicode="&#x189;" horiz-adv-x="1902" 
d="M938 1500q265 0 467 -93t313 -263t111 -394t-111 -394t-313 -263t-467 -93h-748v615h-136v274h136v611h748zM970 369q133 0 232.5 46.5t153.5 132.5t54 202t-54 202t-153.5 132.5t-232.5 46.5h-368v-242h340v-274h-340v-246h368z" />
    <glyph glyph-name="uni018A" unicode="&#x18a;" horiz-adv-x="2322" 
d="M1358 1500q265 0 467 -93t313 -263t111 -394t-111 -394t-313 -263t-467 -93h-748v1152h-74q-74 0 -110.5 -32t-36.5 -107q0 -90 35 -183h-307q-37 78 -59 150.5t-22 156.5q0 173 105 268t317 95h900zM1390 369q133 0 232.5 46.5t153.5 132.5t54 202t-54 202t-153.5 132.5
t-232.5 46.5h-368v-762h368z" />
    <glyph glyph-name="uni018E" unicode="&#x18e;" horiz-adv-x="1587" 
d="M108 1500h1385l-114 -750l114 -750h-1395v336h950l-42 263h-840v302h840l42 263h-940v336z" />
    <glyph glyph-name="uni018F" unicode="&#x18f;" horiz-adv-x="1868" 
d="M1386.5 1433.5q195.5 -100.5 300.5 -279t105 -406.5q0 -231 -109 -408.5t-304.5 -274.5t-448.5 -97q-274 0 -468 113t-293.5 311t-99.5 451h1296q-27 169 -142.5 261t-295.5 92q-168 0 -275 -67.5t-148 -176.5h-417q36 175 148 306.5t290 203.5t404 72
q262 0 457.5 -100.5zM1196.5 367q109.5 70 151.5 204h-828q38 -130 144.5 -202t263.5 -72q159 0 268.5 70z" />
    <glyph glyph-name="uni0190" unicode="&#x190;" horiz-adv-x="1657" 
d="M1614 495q-6 -160 -103.5 -279.5t-272.5 -184t-407 -64.5q-235 0 -404.5 59.5t-258.5 166t-89 244.5t91.5 223.5t263.5 115.5q-162 39 -242 128t-80 209q0 125 85 220t241 147.5t362 52.5q236 0 408 -68.5t264.5 -186.5t102.5 -263h-414q-16 97 -101 148t-238 51
q-144 0 -218.5 -41.5t-74.5 -118.5q0 -75 66.5 -115t217.5 -40h258v-279h-258q-118 0 -186.5 -17t-97 -50t-28.5 -85q0 -87 85 -134.5t245 -47.5q340 0 370 209h413z" />
    <glyph glyph-name="uni0191" unicode="&#x191;" horiz-adv-x="1541" 
d="M1467 1149h-913v-263h876v-351h-876v-396q0 -245 -128 -373.5t-378 -128.5q-73 0 -146.5 10.5t-131.5 30.5v307q94 -30 176 -30q100 0 146.5 53.5t46.5 159.5v1332h1328v-351z" />
    <glyph glyph-name="florin" unicode="&#x192;" horiz-adv-x="1244" 
d="M846 1248q-52 -21 -74.5 -64t-22.5 -113v-23h465v-318h-465v-569q0 -253 -148.5 -388.5t-434.5 -135.5q-75 0 -137.5 11.5t-136.5 35.5v300q111 -43 224 -43q84 0 132.5 21t70 64t21.5 113v591h-232v318h232v1q0 252 153 388t445 136q83 0 152 -11.5t152 -35.5v-300
q-123 43 -254 43q-90 0 -142 -21z" />
    <glyph glyph-name="uni0193" unicode="&#x193;" horiz-adv-x="2000" 
d="M2046 1767v-308q-44 14 -83 22t-81 8q-92 0 -137 -39.5t-45 -112.5q0 -38 11.5 -84t34.5 -111l22 -70q5 -16 17 -57t20 -72h-415q-20 75 -80 130t-153 84.5t-207 29.5q-141 0 -243 -49.5t-156.5 -147.5t-54.5 -240q0 -145 59 -245t169.5 -150.5t262.5 -50.5
q171 0 294.5 56t179.5 161h-434v255h795v-776h-293l-20 201q-97 -110 -243.5 -172t-339.5 -62q-237 0 -430 92.5t-305 269.5t-112 421q0 248 115 425t308 267.5t422 90.5q147 0 263.5 -32.5t208.5 -100.5q-10 39 -10 82q0 93 43 166.5t132 116t221 42.5q144 0 264 -40z" />
    <glyph glyph-name="uni0194" unicode="&#x194;" horiz-adv-x="1846" 
d="M1416 1500h440l-696 -898l479 -602h-1429l472 597l-692 903h448l486 -629zM792 212h264l-132 167z" />
    <glyph glyph-name="uni0196" unicode="&#x196;" horiz-adv-x="870" 
d="M130 1500h415v-1030q0 -98 33.5 -141.5t116.5 -43.5q61 0 135 24v-308q-118 -34 -249 -34q-230 0 -340.5 121t-110.5 359v1053z" />
    <glyph glyph-name="uni0197" unicode="&#x197;" horiz-adv-x="839" 
d="M627 913h170v-283h-170v-630h-415v630h-170v283h170v587h415v-587z" />
    <glyph glyph-name="uni0198" unicode="&#x198;" horiz-adv-x="1778" 
d="M1752 0h-474l-333 556l-431 -556h-375v1500h413v-933l563 760q51 68 101.5 112t119.5 69t164 25q64 0 119 -9t113 -25v-308q-53 15 -89.5 21.5t-72.5 6.5q-66 0 -108.5 -26t-83.5 -79l-177 -229z" />
    <glyph glyph-name="uni0199" unicode="&#x199;" horiz-adv-x="1487" 
d="M1502 0h-461l-226 388l-337 -388h-365v1056q0 178 61 292t188.5 169.5t330.5 55.5q171 0 334 -49v-292q-55 21 -122.5 33t-136.5 12q-130 0 -188 -56.5t-58 -179.5v-542l532 644h418l-396 -455z" />
    <glyph glyph-name="uni019A" unicode="&#x19a;" horiz-adv-x="871" 
d="M641 926h173v-242h-173v-684h-409v684h-174v242h174v614h409v-614z" />
    <glyph glyph-name="uni019B" unicode="&#x19b;" horiz-adv-x="1482" 
d="M1484 0h-442l-306 715l-322 -715h-440l474 947h188l-47 109l-325 -105l-60 194l278 91q-53 43 -136 43q-92 0 -174.5 -28.5t-168.5 -83.5v274q93 68 185 100t216 32q126 0 234 -56.5t189 -168.5l333 109l62 -197l-294 -95z" />
    <glyph glyph-name="uni019C" unicode="&#x19c;" horiz-adv-x="2473" 
d="M2392 0h-415l-38 240q-71 -133 -183 -203t-248 -70q-163 0 -277.5 74t-169.5 211q-70 -139 -184 -212t-253 -73q-155 0 -267 65.5t-171 186.5t-59 285v996h415v-925q0 -124 58 -190.5t165 -66.5q77 0 133 35t86 99.5t30 152.5v895h416v-925q0 -124 57.5 -190.5
t164.5 -66.5q117 0 183.5 77t66.5 210v895h415v-1106z" />
    <glyph glyph-name="uni019D" unicode="&#x19d;" horiz-adv-x="1944" 
d="M1402 1500h402v-1500h-522l-740 1054v-908q0 -251 -125 -380t-379 -129q-70 0 -140 9.5t-128 27.5v308q89 -26 172 -26q103 0 150 53t47 161v1330h537l726 -1031v1031z" />
    <glyph glyph-name="uni019E" unicode="&#x19e;" horiz-adv-x="1578" 
d="M1240 1110.5q117 -65.5 178.5 -186.5t61.5 -285v-969h-409v909q0 128 -65 196t-187 68q-85 0 -147.5 -35.5t-96 -102t-33.5 -155.5v-550h-409v748l-75 395h409l39 -238q74 132 192.5 201.5t262.5 69.5q162 0 279 -65.5z" />
    <glyph glyph-name="uni019F" unicode="&#x19f;" horiz-adv-x="1930" 
d="M1431 1435q202 -98 313.5 -275.5t111.5 -409.5t-111.5 -409.5t-313.5 -275.5t-466 -98t-466 98t-313.5 275.5t-111.5 409.5t111.5 409.5t313.5 275.5t466 98t466 -98zM667 1109.5q-120 -74.5 -163 -208.5h922q-44 134 -164 208.5t-297 74.5q-178 0 -298 -74.5z
M1262 390.5q120 74.5 164 208.5h-922q43 -134 163 -208.5t298 -74.5q177 0 297 74.5z" />
    <glyph glyph-name="Ohorn" unicode="&#x1a0;" horiz-adv-x="1942" 
d="M498 65q-202 98 -313 275.5t-111 409.5t111 409.5t313 275.5t466 98q78 0 139 -7t125 -20q103 -23 172 -23q95 0 140 36t45 91q0 67 -57 151h314q32 -50 48.5 -103t16.5 -105q0 -103 -69 -174t-198 -99q103 -100 158.5 -235t55.5 -295q0 -232 -111 -409.5t-313 -275.5
t-466 -98t-466 98zM1214.5 388q106.5 50 163.5 142.5t57 219.5t-57 219.5t-163.5 142.5t-250.5 50t-250.5 -50t-163.5 -142.5t-57 -219.5t57 -219.5t163.5 -142.5t250.5 -50t250.5 50z" />
    <glyph glyph-name="ohorn" unicode="&#x1a1;" horiz-adv-x="1632" 
d="M409 42.5q-166 75.5 -257.5 212.5t-91.5 316t91.5 316.5t257.5 213t383 75.5q70 0 122 -7t111 -19l27 -5q56 -12 106 -12q75 0 114.5 31.5t39.5 90.5q0 35 -12.5 75.5t-32.5 72.5h307q53 -94 53 -203q0 -102 -62.5 -170t-176.5 -94q66 -71 101 -164t35 -201
q0 -179 -91.5 -316t-257.5 -212.5t-383 -75.5t-383 75.5zM963 307q72 36 110 103.5t38 160.5t-38.5 161t-110 104t-170.5 36t-171 -36t-110.5 -104t-38.5 -161t38.5 -160.5t110.5 -103.5t171 -36t171 36z" />
    <glyph glyph-name="uni01A4" unicode="&#x1a4;" horiz-adv-x="2097" 
d="M1451 1500q186 0 323.5 -64t210.5 -181t73 -272t-73 -272t-210.5 -181t-323.5 -64h-427v-466h-415v1152h-73q-74 0 -110.5 -32t-36.5 -107q0 -90 35 -183h-307q-37 78 -59 150.5t-22 156.5q0 173 105 268t317 95h993zM1426 798q100 0 156 49t56 136t-56 136t-156 49h-402
v-370h402z" />
    <glyph glyph-name="uni01A5" unicode="&#x1a5;" horiz-adv-x="1628" 
d="M1293.5 1055.5q128.5 -72.5 199.5 -204.5t71 -304t-71 -303.5t-199.5 -204t-294.5 -72.5q-150 0 -273 64t-206 181v-542h-409v1386q0 178 61 292t188.5 169.5t330.5 55.5q171 0 334 -49v-292q-55 21 -122.5 33t-136.5 12q-130 0 -188 -56.5t-58 -179.5v-155
q83 116 206 179t273 63q166 0 294.5 -72.5zM1018.5 314q62.5 34 97.5 95t35 138t-35 138t-97.5 95.5t-142.5 34.5q-81 0 -155.5 -34.5t-131 -95t-85.5 -138.5q29 -78 85.5 -138.5t131 -94.5t155.5 -34q80 0 142.5 34z" />
    <glyph glyph-name="uni01A9" unicode="&#x1a9;" horiz-adv-x="1585" 
d="M1040 617l-379 -290h853v-327h-1432v300l591 452l-572 448v300h1384v-327h-811l366 -288v-268z" />
    <glyph glyph-name="uni01AA" unicode="&#x1aa;" horiz-adv-x="1209" 
d="M1342 -16v-306q-58 -20 -132 -30.5t-146 -10.5q-488 0 -488 501v656q-74 -34 -164 -34q-126 0 -226.5 52t-157.5 145t-57 211t57 209.5t169 143.5t269 52q164 0 280.5 -56.5t177.5 -166.5t61 -268v-914q0 -109 41 -161.5t139 -52.5q87 0 177 30zM576 1064v62
q0 76 -38 119.5t-112 43.5q-69 0 -105 -36t-36 -98q0 -67 40.5 -106.5t111.5 -39.5q81 0 139 55z" />
    <glyph glyph-name="uni01AC" unicode="&#x1ac;" horiz-adv-x="1818" 
d="M1780 1500v-369h-572v-1131h-416v1131h-247q-79 0 -118 -33.5t-39 -103.5q0 -69 35 -164h-307q-37 77 -58.5 150t-21.5 157q0 173 104.5 268t317.5 95h1322z" />
    <glyph glyph-name="uni01AD" unicode="&#x1ad;" horiz-adv-x="1210" 
d="M733.5 1238.5q-57.5 -38.5 -74.5 -119.5h474v-302h-481v-315q0 -84 21.5 -132t71.5 -69t140 -21q80 0 144.5 13.5t123.5 38.5v-305q-68 -25 -165 -42.5t-196 -17.5q-277 0 -412.5 126.5t-135.5 354.5v369h-233v178l234 96q6 166 68.5 272t188.5 158t322 52q171 0 334 -49
v-292q-55 21 -122.5 33t-136.5 12q-108 0 -165.5 -38.5z" />
    <glyph glyph-name="uni01AE" unicode="&#x1ae;" horiz-adv-x="1640" 
d="M1597 1131h-572v-963q0 -108 41 -160.5t138 -52.5q83 0 177 30v-307q-58 -20 -131 -30.5t-146 -10.5q-249 0 -371.5 127.5t-122.5 374.5v992h-572v369h1559v-369z" />
    <glyph glyph-name="Uhorn" unicode="&#x1af;" horiz-adv-x="1916" 
d="M1963 1413q-44 -61 -127.5 -96t-199.5 -40v-627q0 -203 -94.5 -358t-266.5 -240t-397 -85t-397 85t-267 240t-95 358v850h415v-830q0 -156 89 -244t255 -88q167 0 255 87.5t88 244.5v830h341h6q57 0 90.5 30t33.5 80q0 67 -57 151h307q65 -102 65 -205q0 -82 -44 -143z
" />
    <glyph glyph-name="uhorn" unicode="&#x1b0;" horiz-adv-x="1721" 
d="M1747.5 1055q-44.5 -61 -128 -96t-199.5 -40v-525l74 -394h-408l-39 236q-73 -131 -188 -199.5t-255 -68.5q-158 0 -272 65.5t-174 186.5t-60 284v639h409v-580q0 -127 61.5 -194.5t176.5 -67.5q127 0 196.5 76.5t69.5 215.5v550h360q49 5 77 34.5t28 74.5q0 67 -57 151
h307q66 -101 66 -205q0 -82 -44.5 -143z" />
    <glyph glyph-name="uni01B1" unicode="&#x1b1;" horiz-adv-x="1961" 
d="M1879 1500v-302h-289q121 -99 184.5 -231t63.5 -288q0 -204 -97 -365t-290.5 -254t-470.5 -93t-470 93t-290 254t-97 365q0 156 63.5 288t183.5 231h-288v302h740v-272q-138 -69 -215 -184.5t-77 -267.5q0 -133 54 -232t155.5 -152.5t240.5 -53.5t241 53.5t156 152.5
t54 232q0 152 -77 267.5t-215 184.5v272h740z" />
    <glyph glyph-name="uni01B2" unicode="&#x1b2;" horiz-adv-x="1767" 
d="M122 1500h413v-830q0 -166 72.5 -252t210.5 -86q126 0 230 81.5t163.5 223.5t59.5 315q0 123 -60 193t-172 70q-98 0 -195 -42v310q55 22 135 36t171 14q264 0 402 -145.5t138 -433.5q0 -265 -112.5 -491.5t-319.5 -361t-476 -134.5q-205 0 -354 83.5t-227.5 238
t-78.5 362.5v849z" />
    <glyph glyph-name="uni01B3" unicode="&#x1b3;" horiz-adv-x="1853" 
d="M1803 1499v-304q-69 20 -129 20q-58 0 -94 -22.5t-76 -76.5l-378 -505v-611h-416v604l-703 896h458l456 -580l289 389q63 85 116.5 132.5t116 69.5t148.5 22q104 0 212 -34z" />
    <glyph glyph-name="uni01B4" unicode="&#x1b4;" horiz-adv-x="1637" 
d="M1524 1162.5q59 -13.5 102 -33.5v-266q-71 31 -123 31q-59 0 -94 -31t-63 -95l-343 -790q-77 -179 -214.5 -260t-301.5 -81q-125 0 -223 30.5t-192 97.5v284q95 -61 177 -87t180 -26q89 0 150.5 38t100.5 130l1 3h-180l-485 1036h450l323 -782l211 499q47 112 98.5 180
t125 102t182.5 34q59 0 118 -13.5z" />
    <glyph glyph-name="uni01B5" unicode="&#x1b5;" horiz-adv-x="1627" 
d="M939 619l-298 -293h896v-326h-1448v300l325 319h-224v282h511l279 275h-884v325h1435v-299l-306 -301h218v-282h-504z" />
    <glyph glyph-name="uni01B6" unicode="&#x1b6;" horiz-adv-x="1396" 
d="M799 456l-205 -162h721v-294h-1234v284l219 172h-174v243h482l191 150h-713v294h1225v-284l-203 -160h167v-243h-476z" />
    <glyph glyph-name="uni01B7" unicode="&#x1b7;" horiz-adv-x="1638" 
d="M995 878q294 -12 432 -120.5t138 -296.5q0 -145 -86 -256.5t-255 -174.5t-410 -63q-233 0 -407.5 64.5t-272 184t-104.5 279.5h413q31 -209 371 -209q163 0 246 51t83 146q0 88 -72 133.5t-240 45.5h-244v268l388 252h-848v318h1359v-300z" />
    <glyph glyph-name="uni01B8" unicode="&#x1b8;" horiz-adv-x="1638" 
d="M1608 495q-7 -160 -104.5 -279.5t-272 -184t-407.5 -64.5q-241 0 -410 63t-255 174.5t-86 256.5q0 188 138 296.5t432 120.5l-491 322v300h1359v-318h-848l388 -252v-268h-244q-168 0 -240 -45.5t-72 -133.5q0 -95 83 -146t246 -51q340 0 371 209h413z" />
    <glyph glyph-name="uni01B9" unicode="&#x1b9;" horiz-adv-x="1499" 
d="M1487 157q-7 -150 -94 -268t-247 -185t-378 -67q-229 0 -390.5 60.5t-244 168.5t-82.5 249q0 120 59 216.5t184 156t314 67.5l-467 301v287h1239v-294h-772l411 -270v-251h-242q-163 0 -238 -52t-75 -140q0 -62 36 -108t104 -71t164 -25q146 0 231 61.5t101 163.5h387z
" />
    <glyph glyph-name="uni01C0" unicode="&#x1c0;" horiz-adv-x="606" 
d="M113 -210v1750h380v-1750h-380z" />
    <glyph glyph-name="uni01C1" unicode="&#x1c1;" horiz-adv-x="1224" 
d="M113 -210v1750h380v-1750h-380zM731 -210v1750h380v-1750h-380z" />
    <glyph glyph-name="uni01C2" unicode="&#x1c2;" horiz-adv-x="882" 
d="M788 1026v-243h-157v-236h157v-243h-157v-514h-380v514h-156v243h156v236h-156v243h156v514h380v-514h157z" />
    <glyph glyph-name="uni01C3" unicode="&#x1c3;" horiz-adv-x="585" 
d="M147 530l-68 970h426l-68 -970h-290zM173.5 5.5q-51.5 26.5 -80 75t-28.5 110.5t28.5 110t80 74.5t118.5 26.5t118.5 -26.5t80 -74.5t28.5 -110t-28.5 -110.5t-80 -75t-118.5 -26.5t-118.5 26.5z" />
    <glyph glyph-name="uni01C4" unicode="&#x1c4;" horiz-adv-x="3406" 
d="M3117 1948l-303 -338h-432l-304 338h335l185 -138l185 138h334zM3315 1202l-890 -876h896v-326h-1448v300l891 876h-884v325h1435v-299zM888 1500q265 0 466.5 -93t312.5 -263t111 -394t-111 -394t-312.5 -263t-466.5 -93h-749v1500h749zM919 369q134 0 233.5 46.5
t153 132.5t53.5 202t-53.5 202t-153 132.5t-233.5 46.5h-367v-762h367z" />
    <glyph glyph-name="uni01C5" unicode="&#x1c5;" horiz-adv-x="3228" 
d="M3030 1632l-286 -378h-419l-286 378h323l173 -180l172 180h323zM889 1500q265 0 467 -93t313 -263t111 -394t-111 -394t-313 -263t-467 -93h-749v1500h749zM3147 859l-717 -565h721v-294h-1234v284l718 565h-713v294h1225v-284zM920 369q134 0 233.5 46.5t153 132.5
t53.5 202t-53.5 202t-153 132.5t-233.5 46.5h-367v-762h367z" />
    <glyph glyph-name="uni01C6" unicode="&#x1c6;" horiz-adv-x="3024" 
d="M1620 1540l-118 -938l72 -602h-423l-29 242q-83 -131 -209.5 -203t-282.5 -72q-166 0 -294.5 75.5t-199.5 213t-71 315.5q0 179 71 316.5t199.5 213t294.5 75.5q154 0 280.5 -70t209.5 -198l76 632h424zM908.5 317.5q74.5 37.5 131 103.5t84.5 150q-28 84 -84.5 150.5
t-131 104t-155.5 37.5q-80 0 -142.5 -37.5t-97.5 -104t-35 -150.5t35 -150t97.5 -103.5t142.5 -37.5q81 0 155.5 37.5zM2942 859l-717 -565h721v-294h-1234v284l718 565h-712v294h1224v-284zM2331 1452l172 180h324l-286 -378h-419l-286 378h322z" />
    <glyph glyph-name="uni01C7" unicode="&#x1c7;" horiz-adv-x="3150" 
d="M554 1500v-1131h936v-369h-1351v1500h415zM1574 738h406v-50q0 -182 74.5 -272t240.5 -90q319 0 319 329v845h415v-866q0 -205 -91.5 -356t-257.5 -231t-385 -80q-216 0 -378.5 83t-251.5 238t-89 367z" />
    <glyph glyph-name="uni01C8" unicode="&#x1c8;" horiz-adv-x="2147" 
d="M1704 1277.5q-54 24.5 -83.5 69.5t-29.5 105t29.5 104.5t84 69t125.5 24.5t125 -24.5t83.5 -69t29.5 -104.5t-29.5 -105t-83.5 -69.5t-125 -24.5q-72 0 -126 24.5zM140 1500h416v-1131h935v-369h-1351v1500zM1625 -330v1490l205 -40l204 40v-1490h-409z" />
    <glyph glyph-name="uni01C9" unicode="&#x1c9;" horiz-adv-x="1253" 
d="M810 1277.5q-54 24.5 -83.5 69.5t-29.5 105t29.5 104.5t84 69t125.5 24.5t125 -24.5t83.5 -69t29.5 -104.5t-29.5 -105t-83.5 -69.5t-125 -24.5q-72 0 -126 24.5zM113 0v1540h409v-1540h-409zM731 -330v1490l205 -40l204 40v-1490h-409z" />
    <glyph glyph-name="uni01CA" unicode="&#x1ca;" horiz-adv-x="3561" 
d="M1402 470v1030h402v-1500h-522l-740 1053v-1053h-403v1500h537zM1985 738h406v-50q0 -182 74.5 -272t240.5 -90q319 0 319 329v845h415v-866q0 -205 -91.5 -356t-257.5 -231t-385 -80q-216 0 -378.5 83t-251.5 238t-89 367z" />
    <glyph glyph-name="uni01CB" unicode="&#x1cb;" horiz-adv-x="2568" 
d="M1403 470v1030h402v-1500h-522l-740 1053v-1053h-403v1500h537zM2047 -330v1490l204 -40l205 40v-1490h-409zM2126 1277.5q-54 24.5 -84 69.5t-30 105t30 104.5t84 69t125 24.5t125 -24.5t83.5 -69t29.5 -104.5t-29.5 -105t-83.5 -69.5t-125 -24.5t-125 24.5z" />
    <glyph glyph-name="uni01CC" unicode="&#x1cc;" horiz-adv-x="2193" 
d="M1241 1110.5q117 -65.5 178 -186.5t61 -285v-639h-408v579q0 128 -65 196t-187 68q-85 0 -147.5 -35.5t-96 -102t-33.5 -155.5v-550h-409v748l-75 395h409l39 -238q74 132 192.5 201.5t262.5 69.5q162 0 279 -65.5zM1671 -330v1490l204 -40l205 40v-1490h-409z
M1750 1277.5q-54 24.5 -84 69.5t-30 105t30 104.5t84 69t125 24.5t125 -24.5t83.5 -69t29.5 -104.5t-29.5 -105t-83.5 -69.5t-125 -24.5t-125 24.5z" />
    <glyph glyph-name="uni01CD" unicode="&#x1cd;" horiz-adv-x="1914" 
d="M1912 0h-442l-125 289h-775l-125 -289h-443l683 1500h545zM957 1184l-243 -562h487zM958 1810l184 138h335l-304 -338h-431l-304 338h335z" />
    <glyph glyph-name="uni01CE" unicode="&#x1ce;" horiz-adv-x="1652" 
d="M1568 1143l-72 -571l72 -572h-424l-30 231q-83 -126 -207 -195t-277 -69q-166 0 -294.5 75.5t-199.5 213t-71 315.5q0 179 71 316.5t199.5 213t294.5 75.5q152 0 277 -68t208 -193l29 228h424zM908.5 317.5q74.5 37.5 131 103.5t84.5 150q-28 84 -84.5 150.5t-131 104
t-155.5 37.5q-80 0 -142.5 -37.5t-97.5 -104t-35 -150.5t35 -150t97.5 -103.5t142.5 -37.5q81 0 155.5 37.5zM824 1452l172 180h324l-286 -378h-419l-286 378h322z" />
    <glyph glyph-name="uni01CF" unicode="&#x1cf;" horiz-adv-x="694" 
d="M139 0v1500h415v-1500h-415zM348 1810l184 138h335l-304 -338h-431l-304 338h335z" />
    <glyph glyph-name="uni01D0" unicode="&#x1d0;" horiz-adv-x="634" 
d="M113 0v1160l204 -40l205 40v-1160h-409zM317 1452l172 180h324l-286 -378h-419l-286 378h322z" />
    <glyph glyph-name="uni01D1" unicode="&#x1d1;" horiz-adv-x="1930" 
d="M499 65q-202 98 -313.5 275.5t-111.5 409.5t111.5 409.5t313.5 275.5t466 98t466 -98t313.5 -275.5t111.5 -409.5t-111.5 -409.5t-313.5 -275.5t-466 -98t-466 98zM1215.5 388q106.5 50 164 143t57.5 219t-57.5 219t-164 143t-250.5 50t-250.5 -50t-164 -143t-57.5 -219
t57.5 -219t164 -143t250.5 -50t250.5 50zM966 1810l184 138h335l-304 -338h-431l-304 338h335z" />
    <glyph glyph-name="uni01D2" unicode="&#x1d2;" horiz-adv-x="1583" 
d="M409 42.5q-166 75.5 -257.5 212.5t-91.5 316t91.5 316.5t257.5 213t383 75.5t383 -75.5t257.5 -213t91.5 -316.5t-91.5 -316t-257.5 -212.5t-383 -75.5t-383 75.5zM963 307q72 36 110 103.5t38 160.5t-38.5 161t-110 104t-170.5 36t-171 -36t-110.5 -104t-38.5 -161
t38.5 -160.5t110.5 -103.5t171 -36t171 36zM792 1452l172 180h324l-286 -378h-419l-286 378h322z" />
    <glyph glyph-name="uni01D3" unicode="&#x1d3;" horiz-adv-x="1756" 
d="M534 670q0 -156 89 -244t255 -88q167 0 255 87.5t88 244.5v830h415v-850q0 -203 -94.5 -358t-266.5 -240t-397 -85t-397 85t-267 240t-95 358v850h415v-830zM878 1810l184 138h335l-304 -338h-431l-304 338h335z" />
    <glyph glyph-name="uni01D4" unicode="&#x1d4;" horiz-adv-x="1553" 
d="M1494 0h-408l-39 236q-73 -131 -188 -199.5t-255 -68.5q-158 0 -272 65.5t-174 186.5t-60 284v639h409v-580q0 -127 61.5 -194.5t176.5 -67.5q127 0 196.5 76.5t69.5 215.5v550h409v-749zM774 1452l172 180h324l-286 -378h-419l-286 378h322z" />
    <glyph glyph-name="uni01D5" unicode="&#x1d5;" horiz-adv-x="1756" 
d="M534 670q0 -156 89 -244t255 -88q167 0 255 87.5t88 244.5v830h415v-850q0 -203 -94.5 -358t-266.5 -240t-397 -85t-397 85t-267 240t-95 358v850h415v-830zM406.5 1661q-60.5 51 -60.5 140q0 86 60.5 135.5t161.5 49.5t161.5 -49.5t60.5 -135.5q0 -89 -60.5 -140
t-161.5 -51t-161.5 51zM1026.5 1661q-60.5 51 -60.5 140q0 86 60.5 135.5t161.5 49.5t161.5 -49.5t60.5 -135.5q0 -89 -60.5 -140t-161.5 -51t-161.5 51zM1367 2080h-974v246h974v-246z" />
    <glyph glyph-name="uni01D6" unicode="&#x1d6;" horiz-adv-x="1553" 
d="M1494 0h-408l-39 236q-73 -131 -188 -199.5t-255 -68.5q-158 0 -272 65.5t-174 186.5t-60 284v639h409v-580q0 -127 61.5 -194.5t176.5 -67.5q127 0 196.5 76.5t69.5 215.5v550h409v-749zM1260 1720h-975v245h975v-245zM306.5 1304q-60.5 51 -60.5 140q0 85 60.5 135
t161.5 50q102 0 162 -50t60 -135q0 -89 -60 -140t-162 -51q-101 0 -161.5 51zM918 1304q-60 51 -60 140q0 85 60 135t162 50q100 0 160.5 -50t60.5 -135q0 -89 -60 -140t-161 -51q-102 0 -162 51z" />
    <glyph glyph-name="uni01D7" unicode="&#x1d7;" horiz-adv-x="1756" 
d="M534 670q0 -156 89 -244t255 -88q167 0 255 87.5t88 244.5v830h415v-850q0 -203 -94.5 -358t-266.5 -240t-397 -85t-397 85t-267 240t-95 358v850h415v-830zM405.5 1661q-60.5 51 -60.5 140q0 86 60.5 135.5t161.5 49.5t161.5 -49.5t60.5 -135.5q0 -89 -60.5 -140
t-161.5 -51t-161.5 51zM1025.5 1661q-60.5 51 -60.5 140q0 86 60.5 135.5t161.5 49.5t161.5 -49.5t60.5 -135.5q0 -89 -60.5 -140t-161.5 -51t-161.5 51zM631 2059l295 338h464l-347 -338h-412z" />
    <glyph glyph-name="uni01D8" unicode="&#x1d8;" horiz-adv-x="1553" 
d="M1494 0h-408l-39 236q-73 -131 -188 -199.5t-255 -68.5q-158 0 -272 65.5t-174 186.5t-60 284v639h409v-580q0 -127 61.5 -194.5t176.5 -67.5q127 0 196.5 76.5t69.5 215.5v550h409v-749zM527 1717l294 338h464l-347 -338h-411zM306.5 1304q-60.5 51 -60.5 140
q0 85 60.5 135t161.5 50q102 0 162 -50t60 -135q0 -89 -60 -140t-162 -51q-101 0 -161.5 51zM918 1304q-60 51 -60 140q0 85 60 135t162 50q100 0 160.5 -50t60.5 -135q0 -89 -60 -140t-161 -51q-102 0 -162 51z" />
    <glyph glyph-name="uni01D9" unicode="&#x1d9;" horiz-adv-x="1756" 
d="M534 670q0 -156 89 -244t255 -88q167 0 255 87.5t88 244.5v830h415v-850q0 -203 -94.5 -358t-266.5 -240t-397 -85t-397 85t-267 240t-95 358v850h415v-830zM405.5 1661q-60.5 51 -60.5 140q0 86 60.5 135.5t161.5 49.5t161.5 -49.5t60.5 -135.5q0 -89 -60.5 -140
t-161.5 -51t-161.5 51zM1025.5 1661q-60.5 51 -60.5 140q0 86 60.5 135.5t161.5 49.5t161.5 -49.5t60.5 -135.5q0 -89 -60.5 -140t-161.5 -51t-161.5 51zM880 2258l184 138h335l-304 -338h-431l-304 338h335z" />
    <glyph glyph-name="uni01DA" unicode="&#x1da;" horiz-adv-x="1553" 
d="M1494 0h-408l-39 236q-73 -131 -188 -199.5t-255 -68.5q-158 0 -272 65.5t-174 186.5t-60 284v639h409v-580q0 -127 61.5 -194.5t176.5 -67.5q127 0 196.5 76.5t69.5 215.5v550h409v-749zM1294 2054l-304 -338h-431l-304 338h335l185 -138l185 138h334zM630 1579
q60 -50 60 -135q0 -89 -60 -140t-162 -51q-101 0 -161.5 51t-60.5 140q0 85 60.5 135t161.5 50q102 0 162 -50zM1240.5 1579q60.5 -50 60.5 -135q0 -89 -60 -140t-161 -51q-102 0 -162 51t-60 140q0 85 60 135t162 50q100 0 160.5 -50z" />
    <glyph glyph-name="uni01DB" unicode="&#x1db;" horiz-adv-x="1756" 
d="M534 670q0 -156 89 -244t255 -88q167 0 255 87.5t88 244.5v830h415v-850q0 -203 -94.5 -358t-266.5 -240t-397 -85t-397 85t-267 240t-95 358v850h415v-830zM405.5 1661q-60.5 51 -60.5 140q0 86 60.5 135.5t161.5 49.5t161.5 -49.5t60.5 -135.5q0 -89 -60.5 -140
t-161.5 -51t-161.5 51zM1025.5 1661q-60.5 51 -60.5 140q0 86 60.5 135.5t161.5 49.5t161.5 -49.5t60.5 -135.5q0 -89 -60.5 -140t-161.5 -51t-161.5 51zM346 2397h464l295 -338h-412z" />
    <glyph glyph-name="uni01DC" unicode="&#x1dc;" horiz-adv-x="1553" 
d="M1494 0h-408l-39 236q-73 -131 -188 -199.5t-255 -68.5q-158 0 -272 65.5t-174 186.5t-60 284v639h409v-580q0 -127 61.5 -194.5t176.5 -67.5q127 0 196.5 76.5t69.5 215.5v550h409v-749zM242 2055h464l294 -338h-411zM306.5 1304q-60.5 51 -60.5 140q0 85 60.5 135
t161.5 50q102 0 162 -50t60 -135q0 -89 -60 -140t-162 -51q-101 0 -161.5 51zM918 1304q-60 51 -60 140q0 85 60 135t162 50q100 0 160.5 -50t60.5 -135q0 -89 -60 -140t-161 -51q-102 0 -162 51z" />
    <glyph glyph-name="uni01DD" unicode="&#x1dd;" horiz-adv-x="1469" 
d="M1059.5 1099.5q164.5 -76.5 257.5 -214.5t93 -317q0 -177 -90 -313.5t-248 -212t-356 -75.5q-201 0 -348 88.5t-225.5 251t-78.5 381.5h902q-42 91 -142 139.5t-252 48.5q-126 0 -251 -33.5t-227 -94.5v260q121 81 271.5 124.5t322.5 43.5q207 0 371.5 -76.5z
M884.5 305.5q72.5 50.5 99.5 136.5h-540q29 -91 96 -139t167 -48q105 0 177.5 50.5z" />
    <glyph glyph-name="uni01DE" unicode="&#x1de;" horiz-adv-x="1914" 
d="M1912 0h-442l-125 289h-775l-125 -289h-443l683 1500h545zM957 1184l-243 -562h487zM486.5 1661q-60.5 51 -60.5 140q0 86 60.5 135.5t161.5 49.5t161.5 -49.5t60.5 -135.5q0 -89 -60.5 -140t-161.5 -51t-161.5 51zM1106.5 1661q-60.5 51 -60.5 140q0 86 60.5 135.5
t161.5 49.5t161.5 -49.5t60.5 -135.5q0 -89 -60.5 -140t-161.5 -51t-161.5 51zM1447 2080h-974v246h974v-246z" />
    <glyph glyph-name="uni01DF" unicode="&#x1df;" horiz-adv-x="1652" 
d="M1568 1143l-72 -571l72 -572h-424l-30 231q-83 -126 -207 -195t-277 -69q-166 0 -294.5 75.5t-199.5 213t-71 315.5q0 179 71 316.5t199.5 213t294.5 75.5q152 0 277 -68t208 -193l29 228h424zM908.5 317.5q74.5 37.5 131 103.5t84.5 150q-28 84 -84.5 150.5t-131 104
t-155.5 37.5q-80 0 -142.5 -37.5t-97.5 -104t-35 -150.5t35 -150t97.5 -103.5t142.5 -37.5q81 0 155.5 37.5zM1310 1720h-975v245h975v-245zM356.5 1304q-60.5 51 -60.5 140q0 85 60.5 135t161.5 50q102 0 162 -50t60 -135q0 -89 -60 -140t-162 -51q-101 0 -161.5 51z
M968 1304q-60 51 -60 140q0 85 60 135t162 50q100 0 160.5 -50t60.5 -135q0 -89 -60 -140t-161 -51q-102 0 -162 51z" />
    <glyph glyph-name="uni01E0" unicode="&#x1e0;" horiz-adv-x="1914" 
d="M1912 0h-442l-125 289h-775l-125 -289h-443l683 1500h545zM957 1184l-243 -562h487zM834 1634.5q-54 24.5 -84 69.5t-30 105t30 105t84 69.5t125 24.5t125 -24.5t83.5 -69.5t29.5 -105t-29.5 -105t-83.5 -69.5t-125 -24.5t-125 24.5zM1445 2080h-974v246h974v-246z" />
    <glyph glyph-name="uni01E1" unicode="&#x1e1;" horiz-adv-x="1652" 
d="M1568 1143l-72 -571l72 -572h-424l-30 231q-83 -126 -207 -195t-277 -69q-166 0 -294.5 75.5t-199.5 213t-71 315.5q0 179 71 316.5t199.5 213t294.5 75.5q152 0 277 -68t208 -193l29 228h424zM908.5 317.5q74.5 37.5 131 103.5t84.5 150q-28 84 -84.5 150.5t-131 104
t-155.5 37.5q-80 0 -142.5 -37.5t-97.5 -104t-35 -150.5t35 -150t97.5 -103.5t142.5 -37.5q81 0 155.5 37.5zM1311 1720h-974v245h974v-245zM699 1277.5q-54 24.5 -83.5 69.5t-29.5 105t29.5 104.5t83.5 69t125 24.5t125 -24.5t84 -69t30 -104.5t-30 -105t-84 -69.5
t-125 -24.5t-125 24.5z" />
    <glyph glyph-name="uni01E2" unicode="&#x1e2;" horiz-adv-x="2518" 
d="M1567 599l104 -263h766v-336h-1063l-108 289h-701l-114 -289h-443l628 1500h1762v-336h-1043l103 -263h882v-302h-773zM926 1204l-230 -582h446zM1969 1652h-974v246h974v-246z" />
    <glyph glyph-name="uni01E3" unicode="&#x1e3;" horiz-adv-x="2526" 
d="M2179 1094.5q137 -81.5 209 -231t72 -347.5l-1 -39h-900q38 -102 143.5 -156t275.5 -54q122 0 237.5 27.5t212.5 81.5v-248q-114 -79 -233 -120t-271 -41q-157 0 -285 45.5t-218 129.5l-8 -142h-297l-16 210q-84 -116 -204 -179.5t-266 -63.5q-166 0 -294.5 75.5
t-199.5 213t-71 315.5q0 179 71 316.5t199.5 213t294.5 75.5q145 0 266 -62.5t204 -177.5l16 207h297l7 -122q81 75 191 115t243 40q188 0 325 -81.5zM1643 844.5q-75 -56.5 -97 -155.5h560q-27 103 -97.5 157.5t-182.5 54.5q-108 0 -183 -56.5zM908.5 317.5
q74.5 37.5 131 103.5t84.5 150q-28 84 -84.5 150.5t-131 104t-155.5 37.5q-80 0 -142.5 -37.5t-97.5 -104t-35 -150.5t35 -150t97.5 -103.5t142.5 -37.5q81 0 155.5 37.5zM1751 1303h-975v245h975v-245z" />
    <glyph glyph-name="uni01E4" unicode="&#x1e4;" horiz-adv-x="1998" 
d="M1989 554v-201h-170v-351h-261l-16 244q-93 -134 -248 -206.5t-367 -72.5q-250 0 -443.5 96.5t-300.5 274t-107 412.5q0 245 113 421.5t310.5 269t446.5 92.5q235 0 408.5 -68.5t282.5 -190t158 -284.5h-437q-18 54 -73.5 99t-140 72t-186.5 27q-144 0 -248.5 -50
t-161 -148t-56.5 -240q0 -135 53 -236t160.5 -157t264.5 -56q187 0 309 52h-319v201h515q5 16 11 50h-440v240h773v-290h170z" />
    <glyph glyph-name="uni01E5" unicode="&#x1e5;" horiz-adv-x="1715" 
d="M1684 135v-169h-238q-87 -161 -270 -245t-442 -84q-156 0 -290.5 37t-270.5 114v281q124 -84 264.5 -123.5t290.5 -39.5q160 0 251 60h-381v169h497q15 57 15 129v100q-88 -89 -213 -143.5t-277 -54.5q-160 0 -287 63t-199.5 178t-72.5 264t72.5 264t199.5 178t287 63
q151 0 276 -58t214 -152v177h408v-865q0 -78 -13 -143h179zM1123 671q-127 227 -365 227q-87 0 -151.5 -27.5t-99.5 -79t-35 -120.5q0 -68 34 -119.5t98.5 -79.5t153.5 -28q239 0 365 227z" />
    <glyph glyph-name="Gcaron" unicode="&#x1e6;" horiz-adv-x="1928" 
d="M1024 776h795v-776h-293l-20 201q-97 -110 -243.5 -172t-339.5 -62q-237 0 -430 92.5t-305 269.5t-112 421q0 245 113 421.5t310.5 269t446.5 92.5q241 0 423.5 -75t293 -208t143.5 -307h-418q-20 75 -80.5 130t-153 84.5t-207.5 29.5q-141 0 -243 -49.5t-157 -147.5
t-55 -240q0 -144 59.5 -244t170 -151t262.5 -51q154 0 270.5 46.5t179.5 133.5h-410v292zM948 1810l184 138h335l-304 -338h-431l-304 338h335z" />
    <glyph glyph-name="gcaron" unicode="&#x1e7;" horiz-adv-x="1626" 
d="M1110 1143h408v-839q0 -207 -97 -357.5t-274 -230t-413 -79.5q-156 0 -290.5 40t-270.5 123v309q119 -89 255 -132t281 -43q198 0 299.5 86t101.5 268v40q-88 -94 -213 -151t-277 -57q-160 0 -287 66t-199.5 186t-72.5 276t72.5 276t199.5 186t287 66q151 0 276 -60.5
t214 -158.5v186zM1123 648q-127 250 -365 250q-87 0 -151.5 -30.5t-99.5 -87t-35 -132.5q0 -115 75.5 -182t210.5 -67q239 0 365 249zM826 1452l172 180h324l-286 -378h-419l-286 378h322z" />
    <glyph glyph-name="uni01E8" unicode="&#x1e8;" horiz-adv-x="1740" 
d="M1219 869l531 -869h-471l-322 546l-443 -546h-375v1500h413v-944l739 944h439zM922 1810l184 138h335l-304 -338h-431l-304 338h335z" />
    <glyph glyph-name="uni01E9" unicode="&#x1e9;" horiz-adv-x="1487" 
d="M1076 688l426 -688h-461l-226 388l-337 -388h-365v1540h409v-1038l520 641h430zM779 1850l184 138h335l-304 -338h-431l-304 338h335z" />
    <glyph glyph-name="uni01EA" unicode="&#x1ea;" horiz-adv-x="1930" 
d="M1069 -65q-61 -35 -61 -72q0 -28 31.5 -42t91.5 -14q62 0 117 13v-215q-29 -11 -92 -20t-126 -9q-93 0 -164.5 24t-110.5 67.5t-39 100.5q0 123 177 200q-245 14 -430.5 115.5t-287 273.5t-101.5 393q0 232 111.5 409.5t313.5 275.5t466 98t466 -98t313.5 -275.5
t111.5 -409.5q0 -188 -74.5 -341t-211.5 -258t-323 -151q-117 -30 -178 -65zM550.5 531q57.5 -93 164 -143t250.5 -50t250.5 50t164 143t57.5 219t-57.5 219t-164 143t-250.5 50t-250.5 -50t-164 -143t-57.5 -219t57.5 -219z" />
    <glyph glyph-name="uni01EB" unicode="&#x1eb;" horiz-adv-x="1583" 
d="M828 -137q0 -28 33.5 -42t96.5 -14q61 0 118 13v-215q-30 -11 -93.5 -20t-125.5 -9q-96 0 -168.5 23t-112.5 65t-40 98q0 126 180 208q-197 13 -345.5 91.5t-229.5 210t-81 299.5q0 179 91.5 316.5t257.5 213t383 75.5t383 -75.5t257.5 -213t91.5 -316.5
q0 -145 -60 -261.5t-170.5 -196t-260.5 -118.5q-205 -64 -205 -132zM510.5 410.5q38.5 -67.5 110.5 -103.5t171 -36t171 36t110 103.5t38 160.5t-38.5 161t-110 104t-170.5 36t-171 -36t-110.5 -104t-38.5 -161t38.5 -160.5z" />
    <glyph glyph-name="uni01EC" unicode="&#x1ec;" horiz-adv-x="1930" 
d="M1069 -65q-61 -35 -61 -72q0 -28 31.5 -42t91.5 -14q62 0 117 13v-215q-29 -11 -92 -20t-126 -9q-93 0 -164.5 24t-110.5 67.5t-39 100.5q0 123 177 200q-245 14 -430.5 115.5t-287 273.5t-101.5 393q0 232 111.5 409.5t313.5 275.5t466 98t466 -98t313.5 -275.5
t111.5 -409.5q0 -188 -74.5 -341t-211.5 -258t-323 -151q-117 -30 -178 -65zM550.5 531q57.5 -93 164 -143t250.5 -50t250.5 50t164 143t57.5 219t-57.5 219t-164 143t-250.5 50t-250.5 -50t-164 -143t-57.5 -219t57.5 -219zM1452 1652h-974v246h974v-246z" />
    <glyph glyph-name="uni01ED" unicode="&#x1ed;" horiz-adv-x="1583" 
d="M828 -137q0 -28 33.5 -42t96.5 -14q61 0 118 13v-215q-30 -11 -93.5 -20t-125.5 -9q-96 0 -168.5 23t-112.5 65t-40 98q0 126 180 208q-197 13 -345.5 91.5t-229.5 210t-81 299.5q0 179 91.5 316.5t257.5 213t383 75.5t383 -75.5t257.5 -213t91.5 -316.5
q0 -145 -60 -261.5t-170.5 -196t-260.5 -118.5q-205 -64 -205 -132zM510.5 410.5q38.5 -67.5 110.5 -103.5t171 -36t171 36t110 103.5t38 160.5t-38.5 161t-110 104t-170.5 36t-171 -36t-110.5 -104t-38.5 -161t38.5 -160.5zM1279 1303h-975v245h975v-245z" />
    <glyph glyph-name="uni01EE" unicode="&#x1ee;" horiz-adv-x="1638" 
d="M995 878q294 -12 432 -120.5t138 -296.5q0 -145 -86 -256.5t-255 -174.5t-410 -63q-233 0 -407.5 64.5t-272 184t-104.5 279.5h413q31 -209 371 -209q163 0 246 51t83 146q0 88 -72 133.5t-240 45.5h-244v268l388 252h-848v318h1359v-300zM796 1810l184 138h335
l-304 -338h-431l-304 338h335z" />
    <glyph glyph-name="uni01EF" unicode="&#x1ef;" horiz-adv-x="1498" 
d="M890 555q189 -8 314 -67.5t184 -156t59 -216.5q0 -141 -82.5 -249t-244 -168.5t-390.5 -60.5q-218 0 -378 67t-247 185t-94 268h387q16 -102 101 -163.5t231 -61.5q96 0 164 25t104 71t36 108q0 88 -75 140t-238 52h-242v251l411 270h-772v294h1239v-287zM753 1452
l172 180h324l-286 -378h-419l-286 378h322z" />
    <glyph glyph-name="uni01F0" unicode="&#x1f0;" horiz-adv-x="634" 
d="M113 -330v1490l204 -40l205 40v-1490h-409zM317 1452l172 180h324l-286 -378h-419l-286 378h322z" />
    <glyph glyph-name="uni01F1" unicode="&#x1f1;" horiz-adv-x="3406" 
d="M888 1500q265 0 466.5 -93t312.5 -263t111 -394t-111 -394t-312.5 -263t-466.5 -93h-749v1500h749zM919 369q134 0 233.5 46.5t153 132.5t53.5 202t-53.5 202t-153 132.5t-233.5 46.5h-367v-762h367zM3316 1202l-891 -876h897v-326h-1448v300l891 876h-885v325h1436v-299
z" />
    <glyph glyph-name="uni01F2" unicode="&#x1f2;" horiz-adv-x="3228" 
d="M889 1500q265 0 466.5 -93t312.5 -263t111 -394t-111 -394t-312.5 -263t-466.5 -93h-749v1500h749zM920 369q134 0 233.5 46.5t153 132.5t53.5 202t-53.5 202t-153 132.5t-233.5 46.5h-367v-762h367zM3146 859l-717 -565h721v-294h-1234v284l718 565h-712v294h1224v-284z
" />
    <glyph glyph-name="uni01F3" unicode="&#x1f3;" horiz-adv-x="3024" 
d="M1620 1540l-118 -938l72 -602h-423l-29 242q-83 -131 -209.5 -203t-282.5 -72q-166 0 -294.5 75.5t-199.5 213t-71 315.5q0 179 71 316.5t199.5 213t294.5 75.5q154 0 280.5 -70t209.5 -198l76 632h424zM908.5 317.5q74.5 37.5 131 103.5t84.5 150q-28 84 -84.5 150.5
t-131 104t-155.5 37.5q-80 0 -142.5 -37.5t-97.5 -104t-35 -150.5t35 -150t97.5 -103.5t142.5 -37.5q81 0 155.5 37.5zM2942 859l-717 -565h721v-294h-1234v284l718 565h-712v294h1224v-284z" />
    <glyph glyph-name="uni01F4" unicode="&#x1f4;" horiz-adv-x="1928" 
d="M1024 776h795v-776h-293l-20 201q-97 -110 -243.5 -172t-339.5 -62q-237 0 -430 92.5t-305 269.5t-112 421q0 245 113 421.5t310.5 269t446.5 92.5q241 0 423.5 -75t293 -208t143.5 -307h-418q-20 75 -80.5 130t-153 84.5t-207.5 29.5q-141 0 -243 -49.5t-157 -147.5
t-55 -240q0 -144 59.5 -244t170 -151t262.5 -51q154 0 270.5 46.5t179.5 133.5h-410v292zM699 1611l295 338h464l-347 -338h-412z" />
    <glyph glyph-name="uni01F5" unicode="&#x1f5;" horiz-adv-x="1626" 
d="M1110 1143h408v-839q0 -207 -97 -357.5t-274 -230t-413 -79.5q-156 0 -290.5 40t-270.5 123v309q119 -89 255 -132t281 -43q198 0 299.5 86t101.5 268v40q-88 -94 -213 -151t-277 -57q-160 0 -287 66t-199.5 186t-72.5 276t72.5 276t199.5 186t287 66q151 0 276 -60.5
t214 -158.5v186zM1123 648q-127 250 -365 250q-87 0 -151.5 -30.5t-99.5 -87t-35 -132.5q0 -115 75.5 -182t210.5 -67q239 0 365 249zM600 1254l252 378h396l-269 -378h-379z" />
    <glyph glyph-name="uni01F8" unicode="&#x1f8;" horiz-adv-x="1944" 
d="M1402 470v1030h402v-1500h-522l-740 1053v-1053h-403v1500h537zM466 1949h464l295 -338h-412z" />
    <glyph glyph-name="uni01F9" unicode="&#x1f9;" horiz-adv-x="1578" 
d="M1240 1110.5q117 -65.5 178 -186.5t61 -285v-639h-408v579q0 128 -65 196t-187 68q-85 0 -147.5 -35.5t-96 -102t-33.5 -155.5v-550h-409v748l-75 395h409l39 -238q74 132 192.5 201.5t262.5 69.5q162 0 279 -65.5zM359 1632h397l251 -378h-378z" />
    <glyph glyph-name="Aringacute" unicode="&#x1fa;" horiz-adv-x="1914" 
d="M665 1648.5q-104 71.5 -104 200.5q0 101 64 167.5t184 91.5l131 345h369l-196 -346q117 -26 179 -92t62 -166q0 -129 -103.5 -200.5t-292.5 -71.5t-293 71.5zM787 1849q0 -95 171 -95q170 0 170 95q0 96 -170 96q-171 0 -171 -96zM1912 0h-442l-125 289h-775l-125 -289
h-443l683 1500h545zM957 1184l-243 -562h487z" />
    <glyph glyph-name="aringacute" unicode="&#x1fb;" horiz-adv-x="1652" 
d="M620.5 1267.5q-85.5 33.5 -131 96t-45.5 148.5q0 98 60 165.5t169 94.5l133 350h369l-198 -351q108 -27 166.5 -94t58.5 -165q0 -86 -45.5 -148.5t-130.5 -96t-202 -33.5q-118 0 -203.5 33.5zM935 1429q39 29 39 83q0 53 -39.5 82.5t-110.5 29.5q-72 0 -111.5 -29.5
t-39.5 -82.5q0 -54 39.5 -83t111.5 -29t111 29zM1568 1143l-72 -571l72 -572h-424l-30 231q-83 -126 -207 -195t-277 -69q-166 0 -294.5 75.5t-199.5 213t-71 315.5q0 179 71 316.5t199.5 213t294.5 75.5q152 0 277 -68t208 -193l29 228h424zM908.5 317.5
q74.5 37.5 131 103.5t84.5 150q-28 84 -84.5 150.5t-131 104t-155.5 37.5q-80 0 -142.5 -37.5t-97.5 -104t-35 -150.5t35 -150t97.5 -103.5t142.5 -37.5q81 0 155.5 37.5z" />
    <glyph glyph-name="AEacute" unicode="&#x1fc;" horiz-adv-x="2518" 
d="M1567 599l104 -263h766v-336h-1063l-108 289h-701l-114 -289h-443l628 1500h1762v-336h-1043l103 -263h882v-302h-773zM926 1204l-230 -582h446zM1234 1611l295 338h464l-347 -338h-412z" />
    <glyph glyph-name="aeacute" unicode="&#x1fd;" horiz-adv-x="2526" 
d="M2179 1094.5q137 -81.5 209 -231t72 -347.5l-1 -39h-900q38 -102 143.5 -156t275.5 -54q122 0 237.5 27.5t212.5 81.5v-248q-114 -79 -233 -120t-271 -41q-157 0 -285 45.5t-218 129.5l-8 -142h-297l-16 210q-84 -116 -204 -179.5t-266 -63.5q-166 0 -294.5 75.5
t-199.5 213t-71 315.5q0 179 71 316.5t199.5 213t294.5 75.5q145 0 266 -62.5t204 -177.5l16 207h297l7 -122q81 75 191 115t243 40q188 0 325 -81.5zM1643 844.5q-75 -56.5 -97 -155.5h560q-27 103 -97.5 157.5t-182.5 54.5q-108 0 -183 -56.5zM908.5 317.5
q74.5 37.5 131 103.5t84.5 150q-28 84 -84.5 150.5t-131 104t-155.5 37.5q-80 0 -142.5 -37.5t-97.5 -104t-35 -150.5t35 -150t97.5 -103.5t142.5 -37.5q81 0 155.5 37.5zM1037 1254l252 378h396l-269 -378h-379z" />
    <glyph glyph-name="Oslashacute" unicode="&#x1fe;" horiz-adv-x="1929" 
d="M1620 1305q113 -103 174 -244.5t61 -310.5q0 -232 -111.5 -409.5t-313.5 -275.5t-466 -98q-230 0 -414 75l-65 -77h-371l193 228q-113 104 -173 245.5t-60 311.5q0 232 111 409.5t313 275.5t466 98q226 0 414 -76l66 78h371zM559 490l571 674q-77 20 -166 20
q-148 0 -257 -52.5t-167.5 -150.5t-58.5 -231q0 -154 78 -260zM1221 368.5q109 52.5 168 150.5t59 231q0 154 -78 260l-571 -674q77 -20 165 -20q148 0 257 52.5zM716 1611l295 338h464l-347 -338h-412z" />
    <glyph glyph-name="oslashacute" unicode="&#x1ff;" horiz-adv-x="1583" 
d="M1334 999q92 -80 141 -189t49 -239q0 -179 -91.5 -316t-257.5 -212.5t-383 -75.5q-159 0 -293 41l-55 -65h-364l169 201q-91 80 -140 188.5t-49 238.5q0 179 91.5 316.5t257.5 213t383 75.5q160 0 292 -41l55 65h365zM480 418l401 476q-45 8 -89 8q-106 0 -182.5 -40
t-117.5 -114.5t-41 -176.5q0 -86 29 -153zM974.5 280q76.5 40 117 114.5t40.5 176.5q0 86 -29 153l-401 -476q45 -8 90 -8q106 0 182.5 40zM566 1254l252 378h396l-269 -378h-379z" />
    <glyph glyph-name="uni0200" unicode="&#x200;" horiz-adv-x="1914" 
d="M1912 0h-442l-125 289h-775l-125 -289h-443l683 1500h545zM957 1184l-243 -562h487zM232 1949h393l246 -338h-357zM759 1949h391l247 -338h-357z" />
    <glyph glyph-name="uni0201" unicode="&#x201;" horiz-adv-x="1652" 
d="M1568 1143l-72 -571l72 -572h-424l-30 231q-83 -126 -207 -195t-277 -69q-166 0 -294.5 75.5t-199.5 213t-71 315.5q0 179 71 316.5t199.5 213t294.5 75.5q152 0 277 -68t208 -193l29 228h424zM908.5 317.5q74.5 37.5 131 103.5t84.5 150q-28 84 -84.5 150.5t-131 104
t-155.5 37.5q-80 0 -142.5 -37.5t-97.5 -104t-35 -150.5t35 -150t97.5 -103.5t142.5 -37.5q81 0 155.5 37.5zM157 1632h360l225 -378h-341zM658 1632h360l225 -378h-341z" />
    <glyph glyph-name="uni0202" unicode="&#x202;" horiz-adv-x="1914" 
d="M1912 0h-442l-125 289h-775l-125 -289h-443l683 1500h545zM957 1184l-243 -562h487zM1154 1602q-58 112 -197 112t-197 -112h-312q49 179 182 270.5t327 91.5q195 0 327.5 -91.5t180.5 -270.5h-311z" />
    <glyph glyph-name="uni0203" unicode="&#x203;" horiz-adv-x="1652" 
d="M1568 1143l-72 -571l72 -572h-424l-30 231q-83 -126 -207 -195t-277 -69q-166 0 -294.5 75.5t-199.5 213t-71 315.5q0 179 71 316.5t199.5 213t294.5 75.5q152 0 277 -68t208 -193l29 228h424zM908.5 317.5q74.5 37.5 131 103.5t84.5 150q-28 84 -84.5 150.5t-131 104
t-155.5 37.5q-80 0 -142.5 -37.5t-97.5 -104t-35 -150.5t35 -150t97.5 -103.5t142.5 -37.5q81 0 155.5 37.5zM1008 1254q-14 68 -62.5 106.5t-121.5 38.5t-122 -38.5t-64 -106.5h-300q29 185 154.5 288.5t331.5 103.5q205 0 330.5 -103.5t155.5 -288.5h-302z" />
    <glyph glyph-name="uni0204" unicode="&#x204;" horiz-adv-x="1587" 
d="M581 599l-42 -263h950v-336h-1395l114 750l-114 750h1385v-336h-940l42 -263h840v-302h-840zM75 1949h393l246 -338h-357zM602 1949h391l247 -338h-357z" />
    <glyph glyph-name="uni0205" unicode="&#x205;" horiz-adv-x="1468" 
d="M503 455q42 -91 142 -139.5t252 -48.5q126 0 251 33t228 94v-260q-120 -81 -271 -124t-324 -43q-207 0 -371 76.5t-257 214.5t-93 317q0 176 89.5 313t247.5 212.5t356 75.5q201 0 348 -88.5t225.5 -251t78.5 -381.5h-902zM584.5 837.5q-72.5 -50.5 -99.5 -136.5h540
q-28 90 -95.5 138.5t-167.5 48.5q-105 0 -177.5 -50.5zM84 1632h360l225 -378h-341zM585 1632h360l225 -378h-341z" />
    <glyph glyph-name="uni0206" unicode="&#x206;" horiz-adv-x="1587" 
d="M581 599l-42 -263h950v-336h-1395l114 750l-114 750h1385v-336h-940l42 -263h840v-302h-840zM997 1602q-58 112 -197 112t-197 -112h-312q49 179 182 270.5t327 91.5q195 0 327.5 -91.5t180.5 -270.5h-311z" />
    <glyph glyph-name="uni0207" unicode="&#x207;" horiz-adv-x="1468" 
d="M503 455q42 -91 142 -139.5t252 -48.5q126 0 251 33t228 94v-260q-120 -81 -271 -124t-324 -43q-207 0 -371 76.5t-257 214.5t-93 317q0 176 89.5 313t247.5 212.5t356 75.5q201 0 348 -88.5t225.5 -251t78.5 -381.5h-902zM584.5 837.5q-72.5 -50.5 -99.5 -136.5h540
q-28 90 -95.5 138.5t-167.5 48.5q-105 0 -177.5 -50.5zM935 1254q-14 68 -62.5 106.5t-121.5 38.5t-122 -38.5t-64 -106.5h-300q29 185 154.5 288.5t331.5 103.5q205 0 330.5 -103.5t155.5 -288.5h-302z" />
    <glyph glyph-name="uni0208" unicode="&#x208;" horiz-adv-x="694" 
d="M-178 1949h328l187 -338h-309zM261 1949h328l187 -338h-309zM139 0v1500h415v-1500h-415z" />
    <glyph glyph-name="uni0209" unicode="&#x209;" horiz-adv-x="634" 
d="M-141 1632h283l187 -378h-263zM234 1632h283l187 -378h-264zM113 0v1160l204 -40l205 40v-1160h-409z" />
    <glyph glyph-name="uni020A" unicode="&#x20a;" horiz-adv-x="694" 
d="M139 0v1500h415v-1500h-415zM543 1602q-58 112 -197 112t-197 -112h-312q49 179 182 270.5t327 91.5q195 0 327.5 -91.5t180.5 -270.5h-311z" />
    <glyph glyph-name="uni020B" unicode="&#x20b;" horiz-adv-x="634" 
d="M452 1254q-10 65 -46 102t-90 37q-53 0 -89 -37t-45 -102h-270q11 119 63 207.5t139.5 136.5t201.5 48q115 0 202.5 -48t140 -136.5t62.5 -207.5h-269zM113 0v1160l204 -40l205 40v-1160h-409z" />
    <glyph glyph-name="uni020C" unicode="&#x20c;" horiz-adv-x="1930" 
d="M499 65q-202 98 -313.5 275.5t-111.5 409.5t111.5 409.5t313.5 275.5t466 98t466 -98t313.5 -275.5t111.5 -409.5t-111.5 -409.5t-313.5 -275.5t-466 -98t-466 98zM1215.5 388q106.5 50 164 143t57.5 219t-57.5 219t-164 143t-250.5 50t-250.5 -50t-164 -143t-57.5 -219
t57.5 -219t164 -143t250.5 -50t250.5 50zM239 1949h393l246 -338h-357zM766 1949h391l247 -338h-357z" />
    <glyph glyph-name="uni020D" unicode="&#x20d;" horiz-adv-x="1583" 
d="M409 42.5q-166 75.5 -257.5 212.5t-91.5 316t91.5 316.5t257.5 213t383 75.5t383 -75.5t257.5 -213t91.5 -316.5t-91.5 -316t-257.5 -212.5t-383 -75.5t-383 75.5zM963 307q72 36 110 103.5t38 160.5t-38.5 161t-110 104t-170.5 36t-171 -36t-110.5 -104t-38.5 -161
t38.5 -160.5t110.5 -103.5t171 -36t171 36zM125 1632h360l225 -378h-341zM626 1632h360l225 -378h-341z" />
    <glyph glyph-name="uni020E" unicode="&#x20e;" horiz-adv-x="1930" 
d="M499 65q-202 98 -313.5 275.5t-111.5 409.5t111.5 409.5t313.5 275.5t466 98t466 -98t313.5 -275.5t111.5 -409.5t-111.5 -409.5t-313.5 -275.5t-466 -98t-466 98zM1215.5 388q106.5 50 164 143t57.5 219t-57.5 219t-164 143t-250.5 50t-250.5 -50t-164 -143t-57.5 -219
t57.5 -219t164 -143t250.5 -50t250.5 50zM1161 1602q-58 112 -197 112t-197 -112h-312q49 179 182 270.5t327 91.5q195 0 327.5 -91.5t180.5 -270.5h-311z" />
    <glyph glyph-name="uni020F" unicode="&#x20f;" horiz-adv-x="1583" 
d="M409 42.5q-166 75.5 -257.5 212.5t-91.5 316t91.5 316.5t257.5 213t383 75.5t383 -75.5t257.5 -213t91.5 -316.5t-91.5 -316t-257.5 -212.5t-383 -75.5t-383 75.5zM963 307q72 36 110 103.5t38 160.5t-38.5 161t-110 104t-170.5 36t-171 -36t-110.5 -104t-38.5 -161
t38.5 -160.5t110.5 -103.5t171 -36t171 36zM976 1254q-14 68 -62.5 106.5t-121.5 38.5t-122 -38.5t-64 -106.5h-300q29 185 154.5 288.5t331.5 103.5q205 0 330.5 -103.5t155.5 -288.5h-302z" />
    <glyph glyph-name="uni0210" unicode="&#x210;" horiz-adv-x="1700" 
d="M1173 0l-402 540h-217v-540h-415v1500h891q170 0 299.5 -60t201 -169.5t71.5 -252.5q0 -113 -46 -205.5t-131.5 -156.5t-201.5 -93l431 -563h-481zM554 1192v-348h419q98 0 154 46t56 128t-55.5 128t-154.5 46h-419zM99 1949h393l246 -338h-357zM626 1949h391l247 -338
h-357z" />
    <glyph glyph-name="uni0211" unicode="&#x211;" horiz-adv-x="1107" 
d="M1077 1160v-349q-112 23 -208 23q-146 0 -236 -88t-90 -276v-470h-409v758l-75 385h416l50 -301q116 334 411 334q66 0 141 -16zM-70 1632h360l225 -378h-341zM431 1632h360l225 -378h-341z" />
    <glyph glyph-name="uni0212" unicode="&#x212;" horiz-adv-x="1700" 
d="M1173 0l-402 540h-217v-540h-415v1500h891q170 0 299.5 -60t201 -169.5t71.5 -252.5q0 -113 -46 -205.5t-131.5 -156.5t-201.5 -93l431 -563h-481zM554 1192v-348h419q98 0 154 46t56 128t-55.5 128t-154.5 46h-419zM1021 1602q-58 112 -197 112t-197 -112h-312
q49 179 182 270.5t327 91.5q195 0 327.5 -91.5t180.5 -270.5h-311z" />
    <glyph glyph-name="uni0213" unicode="&#x213;" horiz-adv-x="1107" 
d="M1077 1160v-349q-112 23 -208 23q-146 0 -236 -88t-90 -276v-470h-409v758l-75 385h416l50 -301q116 334 411 334q66 0 141 -16zM781 1254q-14 68 -62.5 106.5t-121.5 38.5t-122 -38.5t-64 -106.5h-300q29 185 154.5 288.5t331.5 103.5q205 0 330.5 -103.5t155.5 -288.5
h-302z" />
    <glyph glyph-name="uni0214" unicode="&#x214;" horiz-adv-x="1756" 
d="M534 670q0 -156 89 -244t255 -88q167 0 255 87.5t88 244.5v830h415v-850q0 -203 -94.5 -358t-266.5 -240t-397 -85t-397 85t-267 240t-95 358v850h415v-830zM152 1949h393l246 -338h-357zM679 1949h391l247 -338h-357z" />
    <glyph glyph-name="uni0215" unicode="&#x215;" horiz-adv-x="1554" 
d="M1494 0h-408l-39 236q-73 -131 -188 -199.5t-255 -68.5q-158 0 -272 65.5t-174 186.5t-60 284v639h409v-580q0 -127 61.5 -194.5t176.5 -67.5q127 0 196.5 76.5t69.5 215.5v550h409v-749zM107 1632h360l225 -378h-341zM608 1632h360l225 -378h-341z" />
    <glyph glyph-name="uni0216" unicode="&#x216;" horiz-adv-x="1756" 
d="M534 670q0 -156 89 -244t255 -88q167 0 255 87.5t88 244.5v830h415v-850q0 -203 -94.5 -358t-266.5 -240t-397 -85t-397 85t-267 240t-95 358v850h415v-830zM1074 1602q-58 112 -197 112t-197 -112h-312q49 179 182 270.5t327 91.5q195 0 327.5 -91.5t180.5 -270.5h-311z
" />
    <glyph glyph-name="uni0217" unicode="&#x217;" horiz-adv-x="1554" 
d="M1494 0h-408l-39 236q-73 -131 -188 -199.5t-255 -68.5q-158 0 -272 65.5t-174 186.5t-60 284v639h409v-580q0 -127 61.5 -194.5t176.5 -67.5q127 0 196.5 76.5t69.5 215.5v550h409v-749zM958 1254q-14 68 -62.5 106.5t-121.5 38.5t-122 -38.5t-64 -106.5h-300
q29 185 154.5 288.5t331.5 103.5q205 0 330.5 -103.5t155.5 -288.5h-302z" />
    <glyph glyph-name="uni0218" unicode="&#x218;" horiz-adv-x="1686" 
d="M494 492q14 -95 114 -149.5t264 -54.5q154 0 240.5 40t86.5 114q0 40 -22 66.5t-74.5 43.5t-145.5 26l-278 26q-307 28 -448.5 138.5t-141.5 307.5q0 153 90 261.5t254.5 165t386.5 56.5q214 0 383 -62t267.5 -174t108.5 -259h-422q-11 81 -101.5 127.5t-243.5 46.5
q-142 0 -222.5 -38t-80.5 -108q0 -55 50 -85.5t175 -43.5l299 -29q213 -20 341 -69t186 -134t58 -215q0 -156 -94 -274.5t-265 -183.5t-395 -65q-231 0 -409 65.5t-278 184.5t-105 275h422zM1001 -134q59 -46 59 -125q0 -36 -12 -67t-35.5 -65t-72.5 -95l-108 -131h-196
l126 201q-65 16 -101.5 57.5t-36.5 102.5q0 77 59 122.5t159 45.5t159 -46z" />
    <glyph glyph-name="uni0219" unicode="&#x219;" horiz-adv-x="1496" 
d="M1356.5 151q-79.5 -91 -228.5 -137.5t-356 -46.5q-212 0 -373.5 52t-252.5 146.5t-97 218.5h415q20 -70 103.5 -108t221.5 -38q123 0 185.5 24t62.5 71q0 27 -20.5 43.5t-66 27t-124.5 16.5l-202 15q-293 22 -418 111t-125 244q0 126 79.5 212.5t224.5 130t340 43.5
q190 0 341.5 -50t242 -140t103.5 -207h-415q-16 60 -88 99t-203 39q-109 0 -166.5 -23.5t-57.5 -66.5q0 -37 36 -56t131 -26l265 -20q194 -14 309 -58t164 -116.5t49 -177.5q0 -131 -79.5 -222zM913 -134q59 -46 59 -125q0 -36 -12 -67t-35.5 -65t-72.5 -95l-108 -131h-196
l126 201q-65 16 -101.5 57.5t-36.5 102.5q0 77 59 122.5t159 45.5t159 -46z" />
    <glyph glyph-name="uni021A" unicode="&#x21a;" horiz-adv-x="1635" 
d="M38 1500h1559v-369h-572v-1131h-415v1131h-572v369zM976 -134q59 -46 59 -125q0 -36 -12 -67t-35.5 -65t-72.5 -95l-108 -131h-196l126 201q-65 16 -101.5 57.5t-36.5 102.5q0 77 59 122.5t159 45.5t159 -46z" />
    <glyph glyph-name="uni021B" unicode="&#x21b;" horiz-adv-x="1206" 
d="M11 841v178l233 93l176 338h232v-307h481v-302h-481v-338q0 -84 21.5 -132t71.5 -69t140 -21q80 0 144.5 13.5t123.5 38.5v-306q-68 -25 -165 -42.5t-196 -17.5q-277 0 -412.5 126.5t-135.5 354.5v393h-233zM827 -134q59 -46 59 -125q0 -36 -12 -67t-35.5 -65t-72.5 -95
l-108 -131h-196l126 201q-65 16 -101.5 57.5t-36.5 102.5q0 77 59 122.5t159 45.5t159 -46z" />
    <glyph glyph-name="uni021C" unicode="&#x21c;" horiz-adv-x="1638" 
d="M995 878q294 -12 432 -120.5t138 -296.5q0 -145 -86 -256.5t-255 -174.5t-410 -63q-233 0 -407.5 64.5t-272 184t-104.5 279.5h413q31 -209 371 -209q163 0 246 51t83 146q0 88 -72 133.5t-240 45.5h-244v268l388 252h-848v318h1359v-300z" />
    <glyph glyph-name="uni021D" unicode="&#x21d;" horiz-adv-x="1498" 
d="M890 555q189 -8 314 -67.5t184 -156t59 -216.5q0 -141 -82.5 -249t-244 -168.5t-390.5 -60.5q-218 0 -378 67t-247 185t-94 268h387q16 -102 101 -163.5t231 -61.5q96 0 164 25t104 71t36 108q0 88 -75 140t-238 52h-242v251l411 270h-772v294h1239v-287z" />
    <glyph glyph-name="uni021E" unicode="&#x21e;" horiz-adv-x="1875" 
d="M1321 945v555h415v-1500h-415v579h-767v-579h-415v1500h415v-555h767zM938 1810l184 138h335l-304 -338h-431l-304 338h335z" />
    <glyph glyph-name="uni021F" unicode="&#x21f;" horiz-adv-x="1557" 
d="M1219 1110.5q117 -65.5 178.5 -186.5t61.5 -285v-639h-409v579q0 128 -65 196t-186 68q-85 0 -147.5 -35.5t-96 -102t-33.5 -155.5v-550h-409v1540h409v-578q75 105 183 159.5t235 54.5q162 0 279 -65.5zM813 1850l184 138h335l-304 -338h-431l-304 338h335z" />
    <glyph glyph-name="uni0220" unicode="&#x220;" horiz-adv-x="1792" 
d="M1388.5 1460q134.5 -73 206 -207.5t71.5 -316.5v-1266h-415v1169q0 157 -86 240t-248 83q-113 0 -194.5 -41t-125 -117t-43.5 -180v-824h-415v1500h415v-232q167 265 516 265q184 0 318.5 -73z" />
    <glyph glyph-name="uni0226" unicode="&#x226;" horiz-adv-x="1914" 
d="M1912 0h-442l-125 289h-775l-125 -289h-443l683 1500h545zM957 1184l-243 -562h487zM832 1634.5q-54 24.5 -84 69.5t-30 105t30 105t84 69.5t125 24.5t125 -24.5t83.5 -69.5t29.5 -105t-29.5 -105t-83.5 -69.5t-125 -24.5t-125 24.5z" />
    <glyph glyph-name="uni0227" unicode="&#x227;" horiz-adv-x="1652" 
d="M1568 1143l-72 -571l72 -572h-424l-30 231q-83 -126 -207 -195t-277 -69q-166 0 -294.5 75.5t-199.5 213t-71 315.5q0 179 71 316.5t199.5 213t294.5 75.5q152 0 277 -68t208 -193l29 228h424zM908.5 317.5q74.5 37.5 131 103.5t84.5 150q-28 84 -84.5 150.5t-131 104
t-155.5 37.5q-80 0 -142.5 -37.5t-97.5 -104t-35 -150.5t35 -150t97.5 -103.5t142.5 -37.5q81 0 155.5 37.5zM698 1277.5q-54 24.5 -84 69.5t-30 105t30 104.5t84 69t125 24.5t125 -24.5t83.5 -69t29.5 -104.5t-29.5 -105t-83.5 -69.5t-125 -24.5t-125 24.5z" />
    <glyph glyph-name="uni0228" unicode="&#x228;" horiz-adv-x="1587" 
d="M1489 0h-568l-50 -88q45 9 96 9q138 0 213 -52.5t75 -145.5q0 -66 -44 -117.5t-130.5 -80.5t-208.5 -29q-164 0 -274 59t-140 163h264q14 -24 51.5 -38.5t98.5 -14.5q63 0 96.5 18.5t33.5 48.5q0 28 -28 45t-82 17q-68 0 -116 -18h-200l145 224h-627l114 750l-114 750
h1385v-336h-940l42 -263h840v-302h-840l-42 -263h950v-336z" />
    <glyph glyph-name="uni0229" unicode="&#x229;" horiz-adv-x="1468" 
d="M503 455q42 -91 142 -139.5t252 -48.5q126 0 251 33t228 94v-260q-111 -75 -248.5 -117.5t-294.5 -48.5l-38 -59q42 9 92 9q134 0 204.5 -51.5t70.5 -143.5q0 -64 -42 -114t-124 -79t-197 -29q-103 0 -186 27t-138 76t-75 115h242q38 -57 157 -57q64 0 97 19t33 51
q0 30 -28 48t-84 18q-58 0 -104 -22h-203l130 201q-171 24 -302.5 105t-204.5 208t-73 285q0 176 89.5 313t247.5 212.5t356 75.5q201 0 348 -88.5t225.5 -251t78.5 -381.5h-902zM584.5 837.5q-72.5 -50.5 -99.5 -136.5h540q-28 90 -95.5 138.5t-167.5 48.5
q-105 0 -177.5 -50.5z" />
    <glyph glyph-name="uni022A" unicode="&#x22a;" horiz-adv-x="1930" 
d="M499 65q-202 98 -313.5 275.5t-111.5 409.5t111.5 409.5t313.5 275.5t466 98t466 -98t313.5 -275.5t111.5 -409.5t-111.5 -409.5t-313.5 -275.5t-466 -98t-466 98zM1215.5 388q106.5 50 164 143t57.5 219t-57.5 219t-164 143t-250.5 50t-250.5 -50t-164 -143t-57.5 -219
t57.5 -219t164 -143t250.5 -50t250.5 50zM493.5 1661q-60.5 51 -60.5 140q0 86 60.5 135.5t161.5 49.5t161.5 -49.5t60.5 -135.5q0 -89 -60.5 -140t-161.5 -51t-161.5 51zM1113.5 1661q-60.5 51 -60.5 140q0 86 60.5 135.5t161.5 49.5t161.5 -49.5t60.5 -135.5
q0 -89 -60.5 -140t-161.5 -51t-161.5 51zM1454 2080h-974v246h974v-246z" />
    <glyph glyph-name="uni022B" unicode="&#x22b;" horiz-adv-x="1583" 
d="M409 42.5q-166 75.5 -257.5 212.5t-91.5 316t91.5 316.5t257.5 213t383 75.5t383 -75.5t257.5 -213t91.5 -316.5t-91.5 -316t-257.5 -212.5t-383 -75.5t-383 75.5zM963 307q72 36 110 103.5t38 160.5t-38.5 161t-110 104t-170.5 36t-171 -36t-110.5 -104t-38.5 -161
t38.5 -160.5t110.5 -103.5t171 -36t171 36zM1278 1720h-975v245h975v-245zM324.5 1304q-60.5 51 -60.5 140q0 85 60.5 135t161.5 50q102 0 162 -50t60 -135q0 -89 -60 -140t-162 -51q-101 0 -161.5 51zM936 1304q-60 51 -60 140q0 85 60 135t162 50q100 0 160.5 -50
t60.5 -135q0 -89 -60 -140t-161 -51q-102 0 -162 51z" />
    <glyph glyph-name="uni022C" unicode="&#x22c;" horiz-adv-x="1930" 
d="M499 65q-202 98 -313.5 275.5t-111.5 409.5t111.5 409.5t313.5 275.5t466 98t466 -98t313.5 -275.5t111.5 -409.5t-111.5 -409.5t-313.5 -275.5t-466 -98t-466 98zM1215.5 388q106.5 50 164 143t57.5 219t-57.5 219t-164 143t-250.5 50t-250.5 -50t-164 -143t-57.5 -219
t57.5 -219t164 -143t250.5 -50t250.5 50zM420 1622q21 164 107 253.5t244 89.5q54 0 103 -14t122 -42q54 -21 85 -30.5t59 -9.5q42 0 69.5 22t34.5 63h265q-23 -164 -109 -253.5t-243 -89.5q-55 0 -107 14.5t-118 41.5q-57 21 -86.5 30t-56.5 9q-43 0 -70.5 -21.5
t-34.5 -62.5h-264zM1452 2066h-974v246h974v-246z" />
    <glyph glyph-name="uni022D" unicode="&#x22d;" horiz-adv-x="1583" 
d="M409 42.5q-166 75.5 -257.5 212.5t-91.5 316t91.5 316.5t257.5 213t383 75.5t383 -75.5t257.5 -213t91.5 -316.5t-91.5 -316t-257.5 -212.5t-383 -75.5t-383 75.5zM963 307q72 36 110 103.5t38 160.5t-38.5 161t-110 104t-170.5 36t-171 -36t-110.5 -104t-38.5 -161
t38.5 -160.5t110.5 -103.5t171 -36t171 36zM291 1265q9 177 83 275t212 98q54 0 105 -16t120 -46q51 -22 80 -32t54 -10q42 0 69.5 27t35.5 74h241q-9 -176 -82 -274t-213 -98q-55 0 -106 16t-119 46q-51 22 -79.5 32t-53.5 10q-42 0 -70.5 -27t-35.5 -75h-241zM1279 1766
h-975v245h975v-245z" />
    <glyph glyph-name="uni022E" unicode="&#x22e;" horiz-adv-x="1930" 
d="M499 65q-202 98 -313.5 275.5t-111.5 409.5t111.5 409.5t313.5 275.5t466 98t466 -98t313.5 -275.5t111.5 -409.5t-111.5 -409.5t-313.5 -275.5t-466 -98t-466 98zM1215.5 388q106.5 50 164 143t57.5 219t-57.5 219t-164 143t-250.5 50t-250.5 -50t-164 -143t-57.5 -219
t57.5 -219t164 -143t250.5 -50t250.5 50zM840 1634.5q-54 24.5 -84 69.5t-30 105t30 105t84 69.5t125 24.5t125 -24.5t83.5 -69.5t29.5 -105t-29.5 -105t-83.5 -69.5t-125 -24.5t-125 24.5z" />
    <glyph glyph-name="uni022F" unicode="&#x22f;" horiz-adv-x="1583" 
d="M409 42.5q-166 75.5 -257.5 212.5t-91.5 316t91.5 316.5t257.5 213t383 75.5t383 -75.5t257.5 -213t91.5 -316.5t-91.5 -316t-257.5 -212.5t-383 -75.5t-383 75.5zM963 307q72 36 110 103.5t38 160.5t-38.5 161t-110 104t-170.5 36t-171 -36t-110.5 -104t-38.5 -161
t38.5 -160.5t110.5 -103.5t171 -36t171 36zM666 1277.5q-54 24.5 -84 69.5t-30 105t30 104.5t84 69t125 24.5t125 -24.5t83.5 -69t29.5 -104.5t-29.5 -105t-83.5 -69.5t-125 -24.5t-125 24.5z" />
    <glyph glyph-name="uni0230" unicode="&#x230;" horiz-adv-x="1930" 
d="M499 65q-202 98 -313.5 275.5t-111.5 409.5t111.5 409.5t313.5 275.5t466 98t466 -98t313.5 -275.5t111.5 -409.5t-111.5 -409.5t-313.5 -275.5t-466 -98t-466 98zM1215.5 388q106.5 50 164 143t57.5 219t-57.5 219t-164 143t-250.5 50t-250.5 -50t-164 -143t-57.5 -219
t57.5 -219t164 -143t250.5 -50t250.5 50zM841 1634.5q-54 24.5 -84 69.5t-30 105t30 105t84 69.5t125 24.5t125 -24.5t83.5 -69.5t29.5 -105t-29.5 -105t-83.5 -69.5t-125 -24.5t-125 24.5zM1452 2080h-974v246h974v-246z" />
    <glyph glyph-name="uni0231" unicode="&#x231;" horiz-adv-x="1583" 
d="M409 42.5q-166 75.5 -257.5 212.5t-91.5 316t91.5 316.5t257.5 213t383 75.5t383 -75.5t257.5 -213t91.5 -316.5t-91.5 -316t-257.5 -212.5t-383 -75.5t-383 75.5zM963 307q72 36 110 103.5t38 160.5t-38.5 161t-110 104t-170.5 36t-171 -36t-110.5 -104t-38.5 -161
t38.5 -160.5t110.5 -103.5t171 -36t171 36zM1279 1720h-974v245h974v-245zM667 1277.5q-54 24.5 -83.5 69.5t-29.5 105t29.5 104.5t83.5 69t125 24.5t125 -24.5t84 -69t30 -104.5t-30 -105t-84 -69.5t-125 -24.5t-125 24.5z" />
    <glyph glyph-name="uni0232" unicode="&#x232;" horiz-adv-x="1845" 
d="M1372 1500h459l-700 -892v-608h-415v603l-703 897h459l450 -574zM1409 1652h-974v246h974v-246z" />
    <glyph glyph-name="uni0233" unicode="&#x233;" horiz-adv-x="1554" 
d="M1118 1143h435l-549 -1165q-84 -179 -219 -260t-297 -81q-125 0 -223.5 30.5t-191.5 97.5v283q95 -60 177 -86t180 -26q89 0 150 38t100 130l1 3h-179l-486 1036h451l322 -780zM1282 1303h-975v245h975v-245z" />
    <glyph glyph-name="uni0237" unicode="&#x237;" horiz-adv-x="634" 
d="M113 -330v1490l204 -40l205 40v-1490h-409z" />
    <glyph glyph-name="uni0238" unicode="&#x238;" horiz-adv-x="2620" 
d="M2286 1100.5q128 -75.5 198.5 -213t70.5 -316.5q0 -178 -70.5 -315.5t-198.5 -213t-293 -75.5q-152 0 -275 68t-206 193v-228h-404v228q-83 -125 -206 -193t-275 -68q-165 0 -292.5 75.5t-198.5 213t-71 315.5q0 179 71 316.5t198.5 213t292.5 75.5q151 0 274.5 -67
t206.5 -191v622h404v-622q83 124 206.5 191t274.5 67q165 0 293 -75.5zM906.5 317.5q74.5 37.5 131 103.5t84.5 150q-28 84 -84.5 150.5t-131 104t-155.5 37.5q-79 0 -141.5 -37.5t-97 -104t-34.5 -150.5t34.5 -150t97 -103.5t141.5 -37.5q81 0 155.5 37.5zM2011 317.5
q62 37.5 96.5 103.5t34.5 150t-34.5 150.5t-96.5 104t-141 37.5q-81 0 -156 -37.5t-131.5 -104t-84.5 -150.5q28 -84 84.5 -150t131.5 -103.5t156 -37.5q79 0 141 37.5z" />
    <glyph glyph-name="uni0239" unicode="&#x239;" horiz-adv-x="2620" 
d="M2286 1100.5q128 -75.5 198.5 -213t70.5 -316.5q0 -178 -70.5 -315.5t-198.5 -213t-293 -75.5q-152 0 -275 68t-206 193v-558h-404v558q-83 -125 -206 -193t-275 -68q-165 0 -292.5 75.5t-198.5 213t-71 315.5q0 179 71 316.5t198.5 213t292.5 75.5q151 0 274.5 -67
t206.5 -191v225h404v-225q83 124 206.5 191t274.5 67q165 0 293 -75.5zM906.5 317.5q74.5 37.5 131 103.5t84.5 150q-28 84 -84.5 150.5t-131 104t-155.5 37.5q-79 0 -141.5 -37.5t-97 -104t-34.5 -150.5t34.5 -150t97 -103.5t141.5 -37.5q81 0 155.5 37.5zM2011 317.5
q62 37.5 96.5 103.5t34.5 150t-34.5 150.5t-96.5 104t-141 37.5q-81 0 -156 -37.5t-131.5 -104t-84.5 -150.5q28 -84 84.5 -150t131.5 -103.5t156 -37.5q79 0 141 37.5z" />
    <glyph glyph-name="uni023A" unicode="&#x23a;" horiz-adv-x="1916" 
d="M1913 0h-443l-125 289h-382l-211 -533h-249l211 533h-143l-125 -289h-443l683 1500h507l96 244h249l-195 -493zM958 1184l-243 -562h130l170 430zM1145 751l-51 -129h107z" />
    <glyph glyph-name="uni023B" unicode="&#x23b;" horiz-adv-x="1870" 
d="M1246.5 403.5q114.5 77.5 143.5 224.5h418q-23 -197 -136.5 -346.5t-300.5 -232t-424 -82.5q-84 0 -157 10l-87 -221h-329l121 306q-198 96 -308.5 275t-110.5 413q0 232 108.5 409.5t306 275.5t456.5 98q65 0 127 -6l86 217h329l-116 -294q185 -81 298.5 -231
t136.5 -347h-418q-15 74 -54.5 132t-100.5 97l-307 -775h18q186 0 300.5 77.5zM531.5 560q36.5 -84 105.5 -139l298 753q-136 -2 -235 -54t-152 -147t-53 -223q0 -106 36.5 -190z" />
    <glyph glyph-name="uni023C" unicode="&#x23c;" horiz-adv-x="1524" 
d="M801 272q104 7 176 63.5t92 146.5h406q-17 -152 -112 -269t-249 -181.5t-342 -64.5q-22 0 -64 2l-63 -209h-261l79 258q-124 45 -214.5 125.5t-139.5 189.5t-49 238q0 177 90 314.5t251.5 214t370.5 76.5q29 0 43 -1l63 208h260l-77 -252q175 -59 285.5 -182t128.5 -289
h-406q-23 102 -103 158zM561 342l161 527q-116 -14 -182.5 -91.5t-66.5 -206.5q0 -149 88 -229z" />
    <glyph glyph-name="uni023D" unicode="&#x23d;" horiz-adv-x="1602" 
d="M628 704v-335h935v-369h-1350v704h-170v282h170v514h415v-514h470v-282h-470z" />
    <glyph glyph-name="uni023E" unicode="&#x23e;" horiz-adv-x="1670" 
d="M1597 1409v-278h-158l-414 -730v-401h-228l-138 -244h-337l288 508v867h-572v369h1274l138 244h337zM1025 1131v-136l77 136h-77z" />
    <glyph glyph-name="uni0241" unicode="&#x241;" horiz-adv-x="1513" 
d="M1162.5 1473q155.5 -60 236.5 -167.5t81 -249.5q0 -87 -24 -153.5t-74.5 -124.5t-136.5 -121l-127 -93q-72 -53 -108 -99t-49 -101.5t-13 -144.5v-219h-416v290q0 114 24 195.5t74.5 145t135.5 125.5l137 100q68 50 99 77.5t44.5 53.5t13.5 63q0 76 -74 120t-216 44
q-154 0 -239.5 -54.5t-102.5 -156.5h-413q9 148 102 268.5t264.5 191t407.5 70.5q218 0 373.5 -60z" />
    <glyph glyph-name="uni0242" unicode="&#x242;" horiz-adv-x="1405" 
d="M472 115q0 109 36 183.5t123 133.5l181 123q52 36 78.5 60t38.5 48.5t12 58.5q0 67 -60.5 108.5t-178.5 41.5q-138 0 -208.5 -54.5t-91.5 -165.5h-402q15 163 99.5 280.5t237.5 180.5t371 63q189 0 335.5 -53t228.5 -153.5t82 -237.5q0 -86 -23 -150t-68 -114t-119 -102
l-164 -116q-57 -39 -78.5 -79.5t-21.5 -106.5v-64h-408v115z" />
    <glyph glyph-name="uni0243" unicode="&#x243;" horiz-adv-x="1860" 
d="M1714 656.5q81 -95.5 81 -234.5q0 -124 -56.5 -219t-169 -149t-274.5 -54h-1107l52 342h-198v230h232l30 198l-116 730h1067q138 0 237 -44t151 -126t52 -195q0 -110 -54 -201t-168 -144q160 -38 241 -133.5zM1230 1174q-44 39 -121 39h-481l50 -305h423q76 0 124.5 44.5
t48.5 118.5q0 64 -44 103zM1183 287q90 0 140.5 44.5t50.5 124.5t-56 128t-161 48h-478l-9 -60h369v-230h-405l-8 -55h557z" />
    <glyph glyph-name="uni0244" unicode="&#x244;" horiz-adv-x="1954" 
d="M1905 1001v-282h-169v-69q0 -203 -94.5 -358t-267 -240t-397.5 -85q-224 0 -396 85t-267 240t-95 358v69h-170v282h170v499h415v-499h686v499h416v-499h169zM1320 719h-686v-49q0 -156 88.5 -244t254.5 -88q168 0 255.5 87.5t87.5 244.5v49z" />
    <glyph glyph-name="uni0245" unicode="&#x245;" horiz-adv-x="1842" 
d="M1156 1500l683 -1500h-423l-491 1113l-491 -1113h-431l682 1500h471z" />
    <glyph glyph-name="uni0246" unicode="&#x246;" horiz-adv-x="1587" 
d="M984 336h505v-336h-607l-74 -244h-326l74 244h-462l114 750l-114 750h915l74 244h327l-74 -244h143v-336h-245l-79 -263h266v-302h-358zM581 901h247l80 263h-369zM581 599l-42 -263h118l80 263h-156z" />
    <glyph glyph-name="uni0247" unicode="&#x247;" horiz-adv-x="1468" 
d="M786 274q61 -7 111 -7q126 0 251 33t228 94v-260q-120 -81 -271 -124t-324 -43q-50 0 -87 4l-64 -211h-261l81 266q-181 72 -285.5 215.5t-104.5 333.5q0 176 89.5 313t247.5 212.5t356 75.5q31 0 47 -1l63 208h260l-80 -265q173 -78 267.5 -250t94.5 -413h-564zM711 885
q-86 -12 -144.5 -60.5t-81.5 -123.5h170zM1025 701q-23 74 -73 120l-36 -120h109zM503 455q20 -44 54 -78l24 78h-78z" />
    <glyph glyph-name="uni0248" unicode="&#x248;" horiz-adv-x="1711" 
d="M1661 1026v-282h-170v-110q0 -205 -91.5 -356t-257.5 -231t-385 -80q-216 0 -378.5 83t-251.5 238t-89 367l-2 83h406v-50q0 -182 74.5 -272t240.5 -90q319 0 319 329v89h-314v282h314v474h415v-474h170z" />
    <glyph glyph-name="uni0249" unicode="&#x249;" horiz-adv-x="774" 
d="M592 814h142v-242h-142v-902h-409v902h-142v242h142v346l204 -40l205 40v-346zM262 1277.5q-54 24.5 -84 69.5t-30 105t30 104.5t84 69t125 24.5t125 -24.5t83.5 -69t29.5 -104.5t-29.5 -105t-83.5 -69.5t-125 -24.5t-125 24.5z" />
    <glyph glyph-name="uni024A" unicode="&#x24a;" horiz-adv-x="1952" 
d="M2168 -15v-295q-58 -26 -131.5 -39.5t-146.5 -13.5q-248 0 -367 127.5t-119 374.5v165q-102 -161 -254.5 -249t-341.5 -88q-216 0 -381.5 98t-256.5 275.5t-91 409.5t91 409.5t256.5 275.5t381.5 98q189 0 341.5 -86t254.5 -245v298h408v-1332q0 -108 41 -160.5
t139 -52.5q82 0 176 30zM1126.5 387.5q100.5 53.5 175.5 148t114 215.5q-39 120 -114 214.5t-175 147.5t-211 53q-122 0 -217 -53.5t-148 -148t-53 -213.5q0 -120 52.5 -215t147.5 -148.5t218 -53.5q110 0 210.5 53.5z" />
    <glyph glyph-name="uni024B" unicode="&#x24b;" horiz-adv-x="1631" 
d="M1875 -16v-306q-58 -20 -132 -30.5t-146 -10.5q-488 0 -488 501v85q-83 -122 -206 -189t-273 -67q-166 0 -294.5 75.5t-199.5 213t-71 315.5q0 179 71 316.5t199.5 213t294.5 75.5q150 0 272.5 -65.5t206.5 -186.5v219h409v-975q0 -109 41.5 -161.5t138.5 -52.5
q87 0 177 30zM908.5 317.5q74.5 37.5 131 103.5t84.5 150q-28 84 -84.5 150.5t-131 104t-155.5 37.5q-80 0 -142.5 -37.5t-97.5 -104t-35 -150.5t35 -150t97.5 -103.5t142.5 -37.5q81 0 155.5 37.5z" />
    <glyph glyph-name="uni024C" unicode="&#x24c;" horiz-adv-x="1782" 
d="M1255 0l-402 540h-217v-540h-415v550h-178v282h178v668h891q169 0 299 -60t201.5 -169.5t71.5 -252.5q0 -112 -46 -204.5t-131.5 -157t-201.5 -93.5l430 -563h-480zM636 1192v-348h418q99 0 155 46t56 128t-56 128t-155 46h-418z" />
    <glyph glyph-name="uni024D" unicode="&#x24d;" horiz-adv-x="1147" 
d="M1117 1160v-349q-112 23 -208 23q-131 0 -218 -71t-104 -222h240v-242h-244v-299h-409v299h-141v242h141v217l-75 385h416l50 -301q116 334 411 334q66 0 141 -16z" />
    <glyph glyph-name="uni024E" unicode="&#x24e;" horiz-adv-x="1941" 
d="M1905 1359v-282h-358l-368 -469v-608h-415v603l-371 474h-357v282h136l-111 141h459l111 -141h679l110 141h459l-111 -141h137zM852 1077l118 -151l119 151h-237z" />
    <glyph glyph-name="uni024F" unicode="&#x24f;" horiz-adv-x="1630" 
d="M1608 885v-230h-252l-318 -677q-84 -179 -219 -260t-297 -81q-125 0 -223.5 30.5t-191.5 97.5v283q95 -60 176.5 -86t179.5 -26q89 0 150.5 38t100.5 130l1 3h-180l-257 548h-246v230h139l-121 258h450l107 -258h436l109 258h434l-121 -258h143zM702 655l121 -292
l123 292h-244z" />
    <glyph glyph-name="uni0250" unicode="&#x250;" horiz-adv-x="1477" 
d="M680 463.5q-108 38.5 -187 102.5v-56q0 -234 361 -234q122 0 244.5 28t227.5 80v-296q-134 -62 -274 -91.5t-296 -29.5q-206 0 -354 60.5t-226 177t-78 280.5v658h385v-126q79 71 189.5 115t246.5 44q147 0 261.5 -44.5t179.5 -129.5t65 -201t-65.5 -201t-180.5 -130
t-260 -45q-131 0 -239 38.5zM481 801q114 -133 313 -133q102 0 165.5 35.5t63.5 97.5q0 63 -63.5 97.5t-165.5 34.5q-201 0 -313 -132z" />
    <glyph glyph-name="uni0251" unicode="&#x251;" horiz-adv-x="1652" 
d="M1568 1143l-72 -571l72 -572h-424l-30 231q-83 -126 -207 -195t-277 -69q-166 0 -294.5 75.5t-199.5 213t-71 315.5q0 179 71 316.5t199.5 213t294.5 75.5q152 0 277 -68t208 -193l29 228h424zM908.5 317.5q74.5 37.5 131 103.5t84.5 150q-28 84 -84.5 150.5t-131 104
t-155.5 37.5q-80 0 -142.5 -37.5t-97.5 -104t-35 -150.5t35 -150t97.5 -103.5t142.5 -37.5q81 0 155.5 37.5z" />
    <glyph glyph-name="uni0252" unicode="&#x252;" horiz-adv-x="1651" 
d="M1316.5 1100.5q128.5 -75.5 199.5 -213t71 -316.5q0 -178 -71 -315.5t-199.5 -213t-294.5 -75.5q-153 0 -277 69t-207 195l-30 -231h-424l72 572l-72 571h424l29 -228q83 125 208 193t277 68q166 0 294.5 -75.5zM1041.5 317.5q62.5 37.5 97.5 103.5t35 150t-35 150.5
t-97.5 104t-142.5 37.5q-81 0 -155.5 -37.5t-131 -104t-84.5 -150.5q28 -84 84.5 -150t131 -103.5t155.5 -37.5q80 0 142.5 37.5z" />
    <glyph glyph-name="uni0253" unicode="&#x253;" horiz-adv-x="1630" 
d="M1294.5 1044q128.5 -72 199.5 -202.5t71 -301.5q0 -169 -71 -299t-199.5 -202t-294.5 -72q-149 0 -272 63t-206 178v-208h-409v1056q0 178 61 292t188.5 169.5t330.5 55.5q171 0 334 -49v-292q-55 21 -122.5 33t-136.5 12q-131 0 -188.5 -59t-57.5 -184v-157
q83 115 206 177t272 62q166 0 294.5 -72zM1019.5 313q62.5 33 97.5 92.5t35 134.5q0 76 -35 136t-97.5 93.5t-142.5 33.5q-81 0 -155.5 -33.5t-131 -93.5t-84.5 -136q28 -76 84.5 -135t131 -92t155.5 -33q80 0 142.5 33z" />
    <glyph glyph-name="uni0254" unicode="&#x254;" horiz-adv-x="1524" 
d="M49 661q17 151 112 268.5t249.5 182t342.5 64.5q209 0 370.5 -76t251 -213.5t89.5 -314.5t-89.5 -314.5t-251 -214t-370.5 -76.5q-188 0 -342.5 64.5t-249.5 182t-112 269.5h406q22 -101 101.5 -156.5t196.5 -55.5q138 0 218 79t80 222t-80 221.5t-218 78.5
q-115 0 -195.5 -57.5t-102.5 -153.5h-406z" />
    <glyph glyph-name="uni0256" unicode="&#x256;" horiz-adv-x="1778" 
d="M1923 -11v-308q-57 -21 -132 -32.5t-146 -11.5q-166 0 -270 42.5t-157 123t-68 203.5l-28 236q-84 -131 -210 -203t-282 -72q-166 0 -294.5 75.5t-199.5 213t-71 315.5q0 179 71 316.5t199.5 213t294.5 75.5q154 0 280.5 -70t209.5 -198l76 632h424l-118 -938l51 -426
q10 -82 30.5 -128t59 -66.5t103.5 -20.5q89 0 177 28zM908.5 317.5q74.5 37.5 131 103.5t84.5 150q-28 84 -84.5 150.5t-131 104t-155.5 37.5q-80 0 -142.5 -37.5t-97.5 -104t-35 -150.5t35 -150t97.5 -103.5t142.5 -37.5q81 0 155.5 37.5z" />
    <glyph glyph-name="uni0257" unicode="&#x257;" horiz-adv-x="1628" 
d="M1709 1559.5q70 -13.5 119 -32.5v-284q-35 15 -77.5 25t-80.5 10q-79 0 -116.5 -40t-37.5 -123v-1115h-408v221q-83 -121 -206 -187.5t-272 -66.5q-166 0 -294.5 75.5t-199.5 213t-71 315.5q0 179 71 316.5t199.5 213t294.5 75.5q149 0 272 -65t206 -186v183
q0 233 111 349t342 116q78 0 148 -13.5zM908.5 317.5q74.5 37.5 131 103.5t84.5 150q-28 84 -84.5 150.5t-131 104t-155.5 37.5q-80 0 -142.5 -37.5t-97.5 -104t-35 -150.5t35 -150t97.5 -103.5t142.5 -37.5q81 0 155.5 37.5z" />
    <glyph glyph-name="uni0259" unicode="&#x259;" horiz-adv-x="1467" 
d="M1057 1099.5q164 -76.5 257 -214.5t93 -317q0 -177 -89.5 -313.5t-247.5 -212t-356 -75.5q-201 0 -348 89t-225.5 252.5t-78.5 383.5h899q-43 90 -141.5 137t-246.5 47q-120 0 -242.5 -27.5t-229.5 -72.5v248q119 69 274.5 110.5t310.5 41.5q207 0 371 -76.5z
M881.5 294.5q72.5 52.5 99.5 142.5h-550q29 -95 99 -145t174 -50q105 0 177.5 52.5z" />
    <glyph glyph-name="uni025B" unicode="&#x25b;" horiz-adv-x="1466" 
d="M1436 380q-7 -115 -87 -208.5t-235.5 -149t-379.5 -55.5q-225 0 -375.5 48.5t-223 129.5t-72.5 180q0 106 73 172t240 92q-153 31 -218 100t-65 158q0 97 70 171t213.5 116t356.5 42q203 0 350 -53.5t226 -146t87 -207.5h-393q-16 59 -80 97t-181 38q-121 0 -178.5 -30.5
t-57.5 -80.5q0 -49 50.5 -75.5t164.5 -26.5h234v-220h-233q-135 0 -190.5 -25.5t-55.5 -80.5q0 -59 65.5 -93t205.5 -34q142 0 211 37t80 105h398z" />
    <glyph glyph-name="uni025F" unicode="&#x25f;" horiz-adv-x="774" 
d="M592 814h142v-242h-142v-902h-409v902h-142v242h142v346l204 -40l205 40v-346z" />
    <glyph glyph-name="uni0260" unicode="&#x260;" horiz-adv-x="1629" 
d="M2024 1524v-286q-126 46 -259 46q-128 0 -187.5 -59.5t-59.5 -183.5v-737q0 -207 -97 -357.5t-274 -230t-413 -79.5q-156 0 -291 40.5t-270 125.5v304q119 -89 255 -132t281 -43q198 0 299.5 86.5t101.5 269.5v40q-88 -94 -213 -151t-277 -57q-160 0 -287 66t-199.5 186
t-72.5 276t72.5 276t199.5 186t287 66q151 0 276 -60.5t214 -158.5v89q0 272 141.5 399.5t438.5 127.5q161 0 334 -49zM1123 648q-128 250 -365 250q-87 0 -151.5 -30.5t-99.5 -87t-35 -132.5q0 -115 75.5 -182t210.5 -67q240 0 365 249z" />
    <glyph glyph-name="uni0261" unicode="&#x261;" horiz-adv-x="1626" 
d="M1110 1143h408v-839q0 -207 -97 -357.5t-274 -230t-413 -79.5q-156 0 -290.5 40t-270.5 123v309q119 -89 255 -132t281 -43q198 0 299.5 86t101.5 268v40q-88 -94 -213 -151t-277 -57q-160 0 -287 66t-199.5 186t-72.5 276t72.5 276t199.5 186t287 66q151 0 276 -60.5
t214 -158.5v186zM1123 648q-127 250 -365 250q-87 0 -151.5 -30.5t-99.5 -87t-35 -132.5q0 -115 75.5 -182t210.5 -67q239 0 365 249z" />
    <glyph glyph-name="uni0263" unicode="&#x263;" horiz-adv-x="1571" 
d="M1555 1143l-522 -888q84 -107 120 -178.5t36 -150.5q0 -88 -48 -153.5t-139 -100.5t-216 -35q-126 0 -217 35t-139 100.5t-48 153.5q0 78 36 149.5t120 179.5l-522 888h442l332 -627l336 627h429zM850 -100.5q23 19.5 23 52.5q0 29 -21 67.5t-66 100.5
q-45 -61 -66.5 -100t-21.5 -68q0 -33 23.5 -52.5t64.5 -19.5t64 19.5z" />
    <glyph glyph-name="uni0264" unicode="&#x264;" horiz-adv-x="1571" 
d="M1555 1143l-522 -888q84 -107 120 -178.5t36 -150.5q0 -88 -48 -153.5t-139 -100.5t-216 -35q-126 0 -217 35t-139 100.5t-48 153.5q0 78 36 149.5t120 179.5l-522 888h442l332 -627l336 627h429zM850 -100.5q23 19.5 23 52.5q0 29 -21 67.5t-66 100.5
q-45 -61 -66.5 -100t-21.5 -68q0 -33 23.5 -52.5t64.5 -19.5t64 19.5z" />
    <glyph glyph-name="uni0265" unicode="&#x265;" horiz-adv-x="1537" 
d="M1016 1143h408v-1473h-408v509q-73 -104 -179 -158t-230 -54q-160 0 -274.5 65.5t-174.5 186.5t-60 285v639h409v-580q0 -128 62 -195.5t179 -67.5q82 0 142.5 35.5t93 101.5t32.5 156v550z" />
    <glyph glyph-name="uni0266" unicode="&#x266;" horiz-adv-x="1557" 
d="M1219 1057.5q117 -65.5 178.5 -186.5t61.5 -285v-586h-409v526q0 129 -65 196.5t-186 67.5q-85 0 -147.5 -35.5t-96 -101.5t-33.5 -156v-497h-409v1056q0 178 61 292t188.5 169.5t330.5 55.5q171 0 334 -49v-292q-55 21 -122.5 33t-136.5 12q-130 0 -188 -56.5
t-58 -179.5v-132q75 105 183 159.5t235 54.5q162 0 279 -65.5z" />
    <glyph glyph-name="uni0267" unicode="&#x267;" horiz-adv-x="1556" 
d="M1219 1057.5q117 -65.5 178.5 -186.5t61.5 -285v-448q0 -501 -487 -501q-73 0 -147 10.5t-131 30.5v306q88 -30 176 -30q98 0 139 52.5t41 161.5v358q0 129 -65 196.5t-186 67.5q-85 0 -147.5 -35.5t-96 -101.5t-33.5 -156v-497h-409v1056q0 178 61 292t188.5 169.5
t330.5 55.5q171 0 334 -49v-292q-55 21 -122.5 33t-136.5 12q-130 0 -188 -56.5t-58 -179.5v-132q75 105 183 159.5t235 54.5q162 0 279 -65.5z" />
    <glyph glyph-name="uni0268" unicode="&#x268;" horiz-adv-x="772" 
d="M261 1277.5q-54 24.5 -83.5 69.5t-29.5 105t29.5 104.5t83.5 69t125 24.5t125 -24.5t83.5 -69t29.5 -104.5t-29.5 -105t-83.5 -69.5t-125 -24.5t-125 24.5zM590 814h142v-242h-142v-572h-408v572h-142v242h142v346l204 -40l204 40v-346z" />
    <glyph glyph-name="uni0269" unicode="&#x269;" horiz-adv-x="895" 
d="M512 420q0 -78 39.5 -111.5t119.5 -33.5q56 0 102.5 13.5t98.5 41.5v-316q-57 -22 -126 -34.5t-141 -12.5q-163 0 -276 52.5t-169.5 148t-56.5 224.5v751h409v-723z" />
    <glyph glyph-name="uni026A" unicode="&#x26a;" horiz-adv-x="1244" 
d="M1173 1143v-243h-347v-658h347v-242h-1102v242h347v658h-347v243h1102z" />
    <glyph glyph-name="uni026C" unicode="&#x26c;" horiz-adv-x="1247" 
d="M1222 788q-162 -88 -324 -143v-645h-409v559q-36 -3 -72 -3q-191 0 -296.5 79t-105.5 222q0 83 36.5 148t107 102t169.5 37q90 0 161 -31v427h409v-670q148 55 324 160v-242zM489 764v152q-45 46 -117 46q-53 0 -82 -25.5t-29 -68.5q0 -50 39.5 -79t125.5 -29q34 0 63 4z
" />
    <glyph glyph-name="uni026F" unicode="&#x26f;" horiz-adv-x="2416" 
d="M2358 0h-409l-38 233q-71 -130 -183 -198t-248 -68q-164 0 -279 73.5t-170 208.5q-70 -137 -184 -209.5t-253 -72.5q-155 0 -267 65.5t-170.5 186.5t-58.5 285v639h409v-579q0 -129 58.5 -196.5t168.5 -67.5q78 0 134.5 35.5t87 101.5t30.5 156v550h409v-579
q0 -129 58.5 -196.5t168.5 -67.5q78 0 134.5 35.5t87 101.5t30.5 156v550h409v-748z" />
    <glyph glyph-name="uni0271" unicode="&#x271;" horiz-adv-x="2416" 
d="M2089 1110.5q112 -65.5 170.5 -186.5t58.5 -285v-501q0 -501 -488 -501q-72 0 -146 10.5t-132 30.5v306q90 -30 177 -30q98 0 139 52.5t41 161.5v411q0 128 -58.5 196t-168.5 68q-78 0 -134.5 -35.5t-87 -101.5t-30.5 -156v-550h-409v579q0 128 -58.5 196t-168.5 68
q-78 0 -134.5 -35.5t-87 -101.5t-30.5 -156v-550h-409v748l-75 395h409l38 -233q71 130 183 198t248 68q164 0 279 -73.5t170 -208.5q70 137 184 209.5t253 72.5q155 0 267 -65.5z" />
    <glyph glyph-name="uni0272" unicode="&#x272;" horiz-adv-x="1578" 
d="M1240 1110.5q117 -65.5 178.5 -186.5t61.5 -285v-639h-409v579q0 128 -65 196t-187 68q-85 0 -147.5 -35.5t-96 -102t-33.5 -155.5v-448q0 -233 -111 -349t-342 -116q-151 0 -267 51v267q35 -16 76 -25.5t82 -9.5q79 0 116 39.5t37 123.5v665l-75 395h409l39 -238
q74 132 192.5 201.5t262.5 69.5q162 0 279 -65.5z" />
    <glyph glyph-name="uni0275" unicode="&#x275;" horiz-adv-x="1583" 
d="M1175 1100.5q166 -75.5 257.5 -213t91.5 -316.5t-91.5 -316t-257.5 -212.5t-383 -75.5t-383 75.5t-257.5 212.5t-91.5 316t91.5 316.5t257.5 213t383 75.5t383 -75.5zM604 826.5q-77 -45.5 -110 -128.5h595q-33 83 -109.5 128.5t-187.5 45.5t-188 -45.5zM978.5 315.5
q76.5 44.5 109.5 126.5h-593q33 -82 109.5 -126.5t187.5 -44.5q110 0 186.5 44.5z" />
    <glyph glyph-name="uni0278" unicode="&#x278;" horiz-adv-x="1946" 
d="M1798 259.5q-89 -135.5 -250 -212t-372 -80.5v-297h-406v297q-211 4 -372 80.5t-249.5 212t-88.5 311.5t88.5 312t249.5 212.5t372 80.5v364h406v-364q211 -4 372 -80.5t250 -212.5t89 -312t-89 -311.5zM551 355q79 -80 219 -87v606q-140 -7 -219 -87t-79 -216t79 -216z
M1176 268q140 7 219 87t79 216t-79 216t-219 87v-606z" />
    <glyph glyph-name="uni027D" unicode="&#x27d;" horiz-adv-x="1106" 
d="M542 168q0 -109 41.5 -161.5t138.5 -52.5q87 0 177 30v-306q-58 -20 -132 -30.5t-146 -10.5q-488 0 -488 501v620l-75 385h416l51 -301q114 334 410 334q67 0 141 -16v-349q-112 23 -208 23q-146 0 -236 -88t-90 -276v-302z" />
    <glyph glyph-name="uni027E" unicode="&#x27e;" horiz-adv-x="887" 
d="M735.5 1166.5q73.5 -10.5 131.5 -30.5v-306q-88 30 -177 30q-97 0 -138.5 -52.5t-41.5 -161.5v-646h-408v676q0 501 487 501q73 0 146.5 -10.5z" />
    <glyph glyph-name="uni0283" unicode="&#x283;" horiz-adv-x="792" 
d="M1018 1561.5q71 -11.5 153 -35.5v-284q-120 39 -237 39q-132 0 -194 -53.5t-62 -168.5v-898q0 -252 -149 -388t-434 -136q-75 0 -137.5 11.5t-136.5 35.5v300q111 -43 224 -43q84 0 132.5 21t70 64t21.5 113v910q0 252 152.5 388t443.5 136q82 0 153 -11.5z" />
    <glyph glyph-name="uni0284" unicode="&#x284;" horiz-adv-x="935" 
d="M933.5 1561.5q69.5 -11.5 152.5 -35.5v-300q-124 43 -254 43q-90 0 -142 -21t-74.5 -64t-22.5 -113v-629h162v-242h-162v-530h-409v530h-142v242h142v607q0 252 153 388t445 136q82 0 151.5 -11.5z" />
    <glyph glyph-name="uni0288" unicode="&#x288;" horiz-adv-x="1131" 
d="M668 163q0 -109 41.5 -161.5t138.5 -52.5q87 0 177 30v-301q-58 -20 -132 -30.5t-146 -10.5q-488 0 -488 501v703h-232v178l232 93l177 338h232v-307h480v-302h-480v-678z" />
    <glyph glyph-name="uni0289" unicode="&#x289;" horiz-adv-x="1740" 
d="M1696 572h-178v-178l76 -394h-409l-39 236q-73 -131 -188 -199.5t-255 -68.5q-158 0 -272 65.5t-174 186.5t-60 284v68h-149v242h149v329h409v-329h504v329h408v-329h178v-242zM1035.5 372q69.5 71 74.5 200h-504v-9q0 -127 61.5 -194.5t176.5 -67.5q122 0 191.5 71z" />
    <glyph glyph-name="uni028A" unicode="&#x28a;" horiz-adv-x="1638" 
d="M1569 1143v-271h-228q98 -71 146 -164t48 -202q0 -164 -90 -285.5t-252.5 -187t-373.5 -65.5t-373.5 65.5t-252.5 187t-90 285.5q0 109 48 202t146 164h-229v271h637v-205q-103 -53 -159 -145t-56 -207q0 -92 40 -163.5t114.5 -111.5t174.5 -40q99 0 173.5 40
t114.5 111.5t40 163.5q0 115 -55.5 207t-159.5 145v205h637z" />
    <glyph glyph-name="uni028B" unicode="&#x28b;" horiz-adv-x="1575" 
d="M1413.5 334.5q-100.5 -169.5 -278.5 -268t-401 -98.5q-330 0 -484 157t-154 444v574h408v-572q0 -282 254 -282q101 0 179 46t121.5 128t43.5 186q0 105 -50.5 164.5t-152.5 59.5q-77 0 -151 -35v293q139 45 279 45q237 0 362 -119.5t125 -346.5q0 -206 -100.5 -375.5z
" />
    <glyph glyph-name="uni028C" unicode="&#x28c;" horiz-adv-x="1538" 
d="M1002 1143l534 -1143h-451l-320 784l-327 -784h-435l534 1143h465z" />
    <glyph glyph-name="uni028E" unicode="&#x28e;" horiz-adv-x="1546" 
d="M1539 0h-451l-322 780l-329 -780h-435l549 1165q84 179 219 260t297 81q125 0 223.5 -30.5t191.5 -97.5v-283q-95 60 -177 86t-179 26q-89 0 -150.5 -38t-100.5 -130l-1 -3h180z" />
    <glyph glyph-name="uni0292" unicode="&#x292;" horiz-adv-x="1498" 
d="M890 555q189 -8 314 -67.5t184 -156t59 -216.5q0 -141 -82.5 -249t-244 -168.5t-390.5 -60.5q-218 0 -378 67t-247 185t-94 268h387q16 -102 101 -163.5t231 -61.5q96 0 164 25t104 71t36 108q0 88 -75 140t-238 52h-242v251l411 270h-772v294h1239v-287z" />
    <glyph glyph-name="uni0294" unicode="&#x294;" horiz-adv-x="1366" 
d="M468 495q0 113 38.5 186t118.5 128l187 127q50 34 76 58t37.5 49.5t11.5 60.5q0 164 -239 164q-138 0 -208.5 -54.5t-91.5 -164.5h-402q15 163 99 280.5t237.5 180.5t371.5 63q199 0 344.5 -53.5t223.5 -156t78 -247.5q0 -116 -49 -205.5t-162 -167.5l-184 -128
q-45 -30 -62 -68.5t-17 -102.5v-444h-408v495z" />
    <glyph glyph-name="uni0295" unicode="&#x295;" horiz-adv-x="1360" 
d="M899 0h-409v444q0 64 -17 102.5t-61 68.5l-184 128q-113 78 -162.5 167.5t-49.5 205.5q0 145 78 247.5t223.5 156t345.5 53.5q218 0 371 -63t237 -180.5t99 -280.5h-401q-22 110 -92.5 164.5t-208.5 54.5q-239 0 -239 -164q0 -35 11.5 -60.5t37.5 -49.5t76 -58l187 -127
q80 -55 119 -128t39 -186v-495z" />
    <glyph glyph-name="uni0298" unicode="&#x298;" horiz-adv-x="1889" 
d="M486 67.5q-199 100.5 -308.5 282.5t-109.5 420t109.5 420t308.5 282.5t458 100.5q260 0 459 -100.5t308.5 -282.5t109.5 -420t-109.5 -420t-308.5 -282.5t-459 -100.5q-259 0 -458 100.5zM1191 331.5q105 60.5 161 173t56 265.5t-56 265.5t-161 173t-247 60.5
t-246.5 -60.5t-161 -173t-56.5 -265.5t56.5 -265.5t161 -173t246.5 -60.5t247 60.5zM843.5 596.5q-45.5 26.5 -72 72t-26.5 101.5t26.5 101.5t72 72t100.5 26.5q56 0 101.5 -26.5t72 -72t26.5 -101.5t-26.5 -101.5t-72 -72t-101.5 -26.5q-55 0 -100.5 26.5z" />
    <glyph glyph-name="uni029D" unicode="&#x29d;" horiz-adv-x="1203" 
d="M662 1277.5q-54 24.5 -83.5 69.5t-29.5 105t29.5 104.5t84 69t125.5 24.5t125 -24.5t83.5 -69t29.5 -104.5t-29.5 -105t-83.5 -69.5t-125 -24.5q-72 0 -126 24.5zM992 274q91 -54 152 -106v-284q-69 70 -163 130q-24 -119 -93.5 -203.5t-177 -129t-243.5 -44.5
q-147 0 -255.5 51.5t-165.5 143t-57 207.5q0 120 56 209.5t156.5 138t230.5 48.5q77 0 151 -12v729l205 -41l204 41v-878zM583 184q-77 16 -131 16q-88 0 -134 -39.5t-46 -106.5q0 -58 38.5 -95t110.5 -37q79 0 120.5 44t41.5 124v94z" />
    <glyph glyph-name="uni02A7" unicode="&#x2a7;" horiz-adv-x="1772" 
d="M1999 1561.5q71 -11.5 153 -35.5v-284q-120 39 -237 39q-132 0 -194.5 -54t-62.5 -168v-898q0 -253 -149.5 -388.5t-437.5 -135.5q-68 0 -132 8.5t-137 26.5v256q72 -20 150 -19q107 4 172 31.5t95.5 83.5t30.5 148v668h-596v-311q0 -84 19.5 -132t65 -69t126.5 -21
q59 0 111.5 13.5t105.5 38.5v-301q-151 -62 -310 -62q-266 0 -396 126t-130 354v364h-233v179l233 93l177 338h231v-307h602q27 208 177.5 319t412.5 111q82 0 153 -11.5z" />
    <glyph glyph-name="uni02B0" unicode="&#x2b0;" horiz-adv-x="1251" 
d="M966 1427q91 -51 139 -145.5t48 -222.5v-499h-329v452q0 96 -49 147.5t-141 51.5q-96 0 -151.5 -60t-55.5 -162v-429h-329v1202h329v-448q59 80 141.5 122t180.5 42q126 0 217 -51z" />
    <glyph glyph-name="uni02B1" unicode="&#x2b1;" horiz-adv-x="1251" 
d="M967 1381.5q91 -51.5 138.5 -146t47.5 -221.5v-454h-329v407q0 96 -49 148t-141 52q-96 0 -151.5 -60t-55.5 -163v-384h-329v820q0 210 109.5 309t346.5 99q67 0 136 -11t125 -28v-233q-92 34 -200 34q-99 0 -143.5 -43t-44.5 -137v-101q59 80 142 122t180 42
q127 0 218 -51.5z" />
    <glyph glyph-name="uni02B2" unicode="&#x2b2;" horiz-adv-x="545" 
d="M134 1578q-52 43 -52 115t52 115t138 43t138 -43t52 -115t-52 -115t-138 -43t-138 43zM108 302v1158l164 -33l165 33v-1158h-329z" />
    <glyph glyph-name="uni02B3" unicode="&#x2b3;" horiz-adv-x="781" 
d="M838 1466v-280q-90 18 -162 18q-112 0 -180.5 -67t-68.5 -213v-364h-329v591l-59 301h335l39 -234q43 123 119.5 191.5t197.5 68.5q56 0 108 -12z" />
    <glyph glyph-name="uni02B7" unicode="&#x2b7;" horiz-adv-x="1591" 
d="M1147 895l187 557h329l-320 -892h-336l-211 586l-212 -586h-336l-319 892h329l186 -557l196 557h312z" />
    <glyph glyph-name="uni02B8" unicode="&#x2b8;" horiz-adv-x="1071" 
d="M866 1452h348l-423 -904q-66 -142 -173 -206t-234 -64q-98 0 -175.5 24t-153.5 78v226q77 -49 142 -69t139 -20q69 0 116 30.5t77 100.5h-144l-374 804h363l242 -596z" />
    <glyph glyph-name="uni02B9" unicode="&#x2b9;" horiz-adv-x="618" 
d="M187 829l-81 671h406l-80 -671h-245z" />
    <glyph glyph-name="uni02BB" unicode="&#x2bb;" horiz-adv-x="535" 
d="M342 1568q65 -16 101.5 -57.5t36.5 -102.5q0 -78 -59 -123t-159 -45t-159 46t-59 125q0 38 12 70t35.5 65t72.5 92l108 131h195z" />
    <glyph glyph-name="uni02BC" unicode="&#x2bc;" horiz-adv-x="593" 
d="M434 1491q52 -30 82.5 -82.5t30.5 -115.5q0 -60 -29 -127.5t-99 -170.5l-127 -191h-195l135 287q-63 26 -101.5 82t-38.5 125q0 61 30.5 112t83 81t114.5 30t114 -30z" />
    <glyph glyph-name="uni02BE" unicode="&#x2be;" horiz-adv-x="500" 
d="M80 1518q111 0 197.5 -40.5t135 -114t48.5 -167.5t-48.5 -167t-135 -113.5t-197.5 -40.5v192q78 0 118 33t40 96q0 64 -40 97.5t-118 33.5v191z" />
    <glyph glyph-name="uni02BF" unicode="&#x2bf;" horiz-adv-x="500" 
d="M420 1327q-78 0 -118 -33.5t-40 -97.5q0 -63 40 -96t118 -33v-192q-111 0 -197.5 40.5t-135 113.5t-48.5 167t48.5 167.5t135 114t197.5 40.5v-191z" />
    <glyph glyph-name="uni02C0" unicode="&#x2c0;" horiz-adv-x="655" 
d="M95 944q0 91 30 148t93 100l145 99q55 37 75 63t20 64q0 126 -178 126q-103 0 -157.5 -41.5t-70.5 -126.5h-322q17 193 157 302.5t397 109.5q156 0 270 -42t175 -123t61 -194q0 -90 -38.5 -161t-124.5 -131l-144 -101q-33 -24 -46 -53.5t-13 -78.5v-344h-329v384z" />
    <glyph glyph-name="uni02C1" unicode="&#x2c1;" horiz-adv-x="654" 
d="M560 560h-328v344q0 49 -13 78.5t-47 53.5l-144 101q-87 61 -125 131t-38 161q0 113 61.5 194t175.5 123t270 42q253 0 394 -108.5t159 -303.5h-323q-15 84 -68.5 126t-157.5 42q-178 0 -178 -126q0 -38 19.5 -64t74.5 -63l146 -99q61 -42 91.5 -100t30.5 -148v-384z" />
    <glyph glyph-name="circumflex" unicode="&#x2c6;" horiz-adv-x="1090" 
d="M755 1632l286 -378h-323l-172 180l-173 -180h-323l286 378h419z" />
    <glyph glyph-name="caron" unicode="&#x2c7;" horiz-adv-x="1090" 
d="M545 1452l172 180h324l-286 -378h-419l-286 378h322z" />
    <glyph glyph-name="uni02C8" unicode="&#x2c8;" horiz-adv-x="562" 
d="M104 829v671h354v-671h-354z" />
    <glyph glyph-name="uni02C9" unicode="&#x2c9;" horiz-adv-x="1050" 
d="M1035 1303h-975v245h975v-245z" />
    <glyph glyph-name="breve" unicode="&#x2d8;" horiz-adv-x="1071" 
d="M351 1631q14 -68 63 -106.5t122 -38.5t121.5 38.5t63.5 106.5h301q-30 -185 -155.5 -288.5t-330.5 -103.5t-330.5 103.5t-155.5 288.5h301z" />
    <glyph glyph-name="dotaccent" unicode="&#x2d9;" horiz-adv-x="638" 
d="M194 1277.5q-54 24.5 -84 69.5t-30 105t30 104.5t84 69t125 24.5t125 -24.5t83.5 -69t29.5 -104.5t-29.5 -105t-83.5 -69.5t-125 -24.5t-125 24.5z" />
    <glyph glyph-name="ring" unicode="&#x2da;" horiz-adv-x="858" 
d="M226.5 1267.5q-85.5 33.5 -131 96t-45.5 148.5q0 85 45.5 147.5t131 96t203.5 33.5q117 0 202 -33.5t130.5 -96t45.5 -147.5q0 -86 -45.5 -148.5t-130.5 -96t-202 -33.5q-118 0 -203.5 33.5zM541 1429q39 29 39 83q0 53 -39.5 82.5t-110.5 29.5q-72 0 -111.5 -29.5
t-39.5 -82.5q0 -54 39.5 -83t111.5 -29t111 29z" />
    <glyph glyph-name="ogonek" unicode="&#x2db;" horiz-adv-x="641" 
d="M546 25v-25h45q-114 -31 -177.5 -66.5t-63.5 -71.5q0 -27 32 -41t92 -14q62 0 117 13v-215q-29 -11 -92 -20t-126 -9q-94 0 -165.5 24t-110.5 68t-39 102q0 182 352 270z" />
    <glyph glyph-name="tilde" unicode="&#x2dc;" horiz-adv-x="1090" 
d="M45 1265q9 177 83 275t212 98q54 0 105 -16t120 -46q51 -22 80 -32t54 -10q42 0 69.5 27t35.5 74h241q-9 -176 -82 -274t-213 -98q-55 0 -106 16t-119 46q-51 22 -79.5 32t-53.5 10q-42 0 -70.5 -27t-35.5 -75h-241z" />
    <glyph glyph-name="hungarumlaut" unicode="&#x2dd;" horiz-adv-x="1187" 
d="M51 1254l226 378h359l-243 -378h-342zM553 1254l224 378h361l-245 -378h-340z" />
    <glyph glyph-name="uni02E1" unicode="&#x2e1;" horiz-adv-x="525" 
d="M98 560v1202h329v-1202h-329z" />
    <glyph glyph-name="uni02E2" unicode="&#x2e2;" horiz-adv-x="1205" 
d="M1079 678.5q-63 -71.5 -180.5 -108t-279.5 -36.5q-165 0 -291.5 41t-197.5 115t-76 172h334q15 -56 78.5 -86t167.5 -30q91 0 138.5 20t47.5 59q0 32 -36 47.5t-124 22.5l-155 11q-225 17 -325.5 82.5t-100.5 187.5q0 98 62.5 166t176 102t266.5 34q149 0 267 -39.5
t189 -110.5t82 -163h-333q-13 50 -67.5 81t-152.5 31q-81 0 -125 -20.5t-44 -57.5q0 -29 27.5 -44t98.5 -21l205 -15q152 -11 242.5 -44t129.5 -87.5t39 -134.5q0 -103 -63 -174.5z" />
    <glyph glyph-name="uni02E3" unicode="&#x2e3;" horiz-adv-x="1192" 
d="M800 1015l380 -455h-373l-215 263l-213 -263h-366l371 452l-347 440h363l199 -246l198 246h360z" />
    <glyph glyph-name="gravecomb" unicode="&#x300;" 
d="M-699 1632h397l251 -378h-378z" />
    <glyph glyph-name="acutecomb" unicode="&#x301;" 
d="M-699 1254l252 378h396l-269 -378h-379z" />
    <glyph glyph-name="uni0302" unicode="&#x302;" 
d="M-335 1632l286 -378h-323l-172 180l-173 -180h-323l286 378h419z" />
    <glyph glyph-name="tildecomb" unicode="&#x303;" 
d="M-1045 1265q9 177 83 275t212 98q54 0 105 -16t120 -46q51 -22 80 -32t54 -10q42 0 69.5 27t35.5 74h241q-9 -176 -82 -274t-213 -98q-55 0 -106 16t-119 46q-51 22 -79.5 32t-53.5 10q-42 0 -70.5 -27t-35.5 -75h-241z" />
    <glyph glyph-name="uni0304" unicode="&#x304;" 
d="M-60 1303h-975v245h975v-245z" />
    <glyph glyph-name="uni0306" unicode="&#x306;" 
d="M-720 1631q14 -68 63 -106.5t122 -38.5t121.5 38.5t63.5 106.5h301q-30 -185 -155.5 -288.5t-330.5 -103.5t-330.5 103.5t-155.5 288.5h301z" />
    <glyph glyph-name="uni0307" unicode="&#x307;" 
d="M-444 1277.5q-54 24.5 -84 69.5t-30 105t30 104.5t84 69t125 24.5t125 -24.5t83.5 -69t29.5 -104.5t-29.5 -105t-83.5 -69.5t-125 -24.5t-125 24.5z" />
    <glyph glyph-name="uni0308" unicode="&#x308;" 
d="M-1068.5 1304q-60.5 51 -60.5 140q0 85 60.5 135t161.5 50q102 0 162 -50t60 -135q0 -89 -60 -140t-162 -51q-101 0 -161.5 51zM-457 1304q-60 51 -60 140q0 85 60 135t162 50q100 0 160.5 -50t60.5 -135q0 -89 -60 -140t-161 -51q-102 0 -162 51z" />
    <glyph glyph-name="hookabovecomb" unicode="&#x309;" 
d="M-494 1336q57 20 87.5 45t30.5 54t-30 44.5t-86 15.5q-64 0 -131 -15v218q44 13 106 21.5t129 8.5q159 0 249 -56.5t90 -155.5q0 -103 -89 -175t-282 -115z" />
    <glyph glyph-name="uni030A" unicode="&#x30a;" 
d="M-631.5 1267.5q-85.5 33.5 -131 96t-45.5 148.5q0 85 45.5 147.5t131 96t203.5 33.5q117 0 202 -33.5t130.5 -96t45.5 -147.5q0 -86 -45.5 -148.5t-130.5 -96t-202 -33.5q-118 0 -203.5 33.5zM-317 1429q39 29 39 83q0 53 -39.5 82.5t-110.5 29.5q-72 0 -111.5 -29.5
t-39.5 -82.5q0 -54 39.5 -83t111.5 -29t111 29z" />
    <glyph glyph-name="uni030B" unicode="&#x30b;" 
d="M-1137 1254l226 378h359l-243 -378h-342zM-635 1254l224 378h361l-245 -378h-340z" />
    <glyph glyph-name="uni030C" unicode="&#x30c;" 
d="M-545 1452l172 180h324l-286 -378h-419l-286 378h322z" />
    <glyph glyph-name="uni030D" unicode="&#x30d;" 
d="M-466 1254v418h324v-418h-324z" />
    <glyph glyph-name="uni030F" unicode="&#x30f;" 
d="M-1137 1632h360l225 -378h-341zM-636 1632h360l225 -378h-341z" />
    <glyph glyph-name="uni0311" unicode="&#x311;" 
d="M-351 1254q-14 68 -62.5 106.5t-121.5 38.5t-122 -38.5t-64 -106.5h-300q29 185 154.5 288.5t331.5 103.5q205 0 330.5 -103.5t155.5 -288.5h-302z" />
    <glyph glyph-name="uni0312" unicode="&#x312;" 
d="M-206 1567q66 -16 102.5 -57.5t36.5 -102.5q0 -77 -59.5 -122.5t-159.5 -45.5t-159 46t-59 125q0 36 12 67t35.5 64.5t73.5 94.5l108 132h195z" />
    <glyph glyph-name="uni0313" unicode="&#x313;" 
d="M-124 1737q59 -46 59 -125q0 -36 -12 -67t-35.5 -65t-72.5 -95l-108 -131h-196l126 201q-65 16 -101.5 57.5t-36.5 102.5q0 77 59 122.5t159 45.5t159 -46z" />
    <glyph glyph-name="uni0315" unicode="&#x315;" 
d="M-128 1737q59 -46 59 -125q0 -36 -12 -67t-35.5 -65t-72.5 -95l-108 -131h-196l126 201q-65 16 -101.5 57.5t-36.5 102.5q0 77 59 122.5t159 45.5t159 -46z" />
    <glyph glyph-name="uni031B" unicode="&#x31b;" 
d="M-98 1040q-49 -63 -141 -97t-219 -34h-36v224h6q57 0 90.5 30t33.5 80q0 66 -58 151h308q65 -102 65 -204q0 -87 -49 -150z" />
    <glyph glyph-name="uni0320" unicode="&#x320;" 
d="M-15 -375h-975v245h975v-245z" />
    <glyph glyph-name="dotbelowcomb" unicode="&#x323;" 
d="M-444 -469.5q-54 24.5 -84 69.5t-30 105t30 104.5t84 69t125 24.5t125 -24.5t83.5 -69t29.5 -104.5t-29.5 -105t-83.5 -69.5t-125 -24.5t-125 24.5z" />
    <glyph glyph-name="uni0324" unicode="&#x324;" 
d="M-1068.5 -422q-60.5 51 -60.5 140q0 85 60.5 135t161.5 50q102 0 162 -50t60 -135q0 -89 -60 -140t-162 -51q-101 0 -161.5 51zM-457 -422q-60 51 -60 140q0 85 60 135t162 50q100 0 160.5 -50t60.5 -135q0 -89 -60 -140t-161 -51q-102 0 -162 51z" />
    <glyph glyph-name="uni0325" unicode="&#x325;" 
d="M-631.5 -605.5q-85.5 33.5 -131 96t-45.5 147.5q0 86 45.5 148.5t131 96t203.5 33.5q117 0 202 -33.5t130.5 -96t45.5 -148.5q0 -85 -45.5 -147.5t-130.5 -96t-202 -33.5q-118 0 -203.5 33.5zM-317.5 -444.5q39.5 29.5 39.5 82.5q0 54 -39.5 83.5t-110.5 29.5
q-72 0 -111.5 -29.5t-39.5 -83.5q0 -53 39.5 -82.5t111.5 -29.5q71 0 110.5 29.5z" />
    <glyph glyph-name="uni0326" unicode="&#x326;" 
d="M-117 -134q59 -46 59 -125q0 -36 -12 -67t-35.5 -65t-72.5 -95l-108 -131h-196l126 201q-65 16 -101.5 57.5t-36.5 102.5q0 77 59 122.5t159 45.5t159 -46z" />
    </font>
</defs>
</svg>
